solid COMSOL mesh mesh1
facet normal -0.0323145054280758 0.999477744102478 0
outer loop
vertex -9.99477767944336 -0.323145031929016 0
vertex -9.99477767944336 -0.323145031929016 0.150000005960464
vertex -9.12742614746094 -0.29510235786438 0
endloop
endfacet
facet normal -0.0323145054280758 0.999477744102478 -1.2799505766973e-17
outer loop
vertex -9.12742614746094 -0.29510235786438 0.150000005960464
vertex -9.12742614746094 -0.29510235786438 0
vertex -9.99477767944336 -0.323145031929016 0.150000005960464
endloop
endfacet
facet normal -0.0323145017027855 0.999477803707123 -1.27995049397924e-17
outer loop
vertex -9.12742614746094 -0.29510235786438 0.150000005960464
vertex -7.96514844894409 -0.257524281740189 0.150000005960464
vertex -9.12742614746094 -0.29510235786438 0
endloop
endfacet
facet normal -0.0323145017027855 0.999477803707123 -4.08279594985687e-16
outer loop
vertex -7.96514844894409 -0.257524281740189 0
vertex -9.12742614746094 -0.29510235786438 0
vertex -7.96514844894409 -0.257524281740189 0.150000005960464
endloop
endfacet
facet normal -0.0323145017027855 0.999477744102478 -4.08279568515907e-16
outer loop
vertex -7.96514844894409 -0.257524281740189 0.150000005960464
vertex -6.49670219421387 -0.210047394037247 0.150000005960464
vertex -7.96514844894409 -0.257524281740189 0
endloop
endfacet
facet normal -0.0323145017027855 0.999477744102478 -1.91992574096886e-17
outer loop
vertex -6.49670219421387 -0.210047394037247 0
vertex -7.96514844894409 -0.257524281740189 0
vertex -6.49670219421387 -0.210047394037247 0.150000005960464
endloop
endfacet
facet normal -0.0323145017027855 0.999477744102478 -1.91992574096886e-17
outer loop
vertex -6.49670219421387 -0.210047394037247 0
vertex -6.49670219421387 -0.210047394037247 0.150000005960464
vertex -4.99738883972168 -0.161572515964508 0
endloop
endfacet
facet normal -0.0323145017027855 0.999477744102478 1.84940538428793e-16
outer loop
vertex -4.99738883972168 -0.161572515964508 0.150000005960464
vertex -4.99738883972168 -0.161572515964508 0
vertex -6.49670219421387 -0.210047394037247 0.150000005960464
endloop
endfacet
facet normal -0.0323145017027855 0.999477744102478 1.81740659712304e-16
outer loop
vertex -3.49807524681091 -0.113097622990608 0.150000005960464
vertex -3.49807524681091 -0.113097622990608 0
vertex -4.99738883972168 -0.161572515964508 0.150000005960464
endloop
endfacet
facet normal -0.0323145017027855 0.999477744102478 1.84940538428793e-16
outer loop
vertex -4.99738883972168 -0.161572515964508 0
vertex -4.99738883972168 -0.161572515964508 0.150000005960464
vertex -3.49807524681091 -0.113097622990608 0
endloop
endfacet
facet normal -0.0323145017027855 0.999477744102478 1.81740659712304e-16
outer loop
vertex -3.49807524681091 -0.113097622990608 0.150000005960464
vertex -2.02962923049927 -0.0656207278370857 0.150000005960464
vertex -3.49807524681091 -0.113097622990608 0
endloop
endfacet
facet normal -0.0323145017027855 0.999477744102478 -1.27995041126118e-17
outer loop
vertex -2.02962923049927 -0.0656207278370857 0
vertex -3.49807524681091 -0.113097622990608 0
vertex -2.02962923049927 -0.0656207278370857 0.150000005960464
endloop
endfacet
facet normal -0.0323145017027855 0.999477803707123 0
outer loop
vertex -0.867351114749908 -0.0280426647514105 0
vertex -2.02962923049927 -0.0656207278370857 0
vertex -0.867351114749908 -0.0280426647514105 0.150000005960464
endloop
endfacet
facet normal -0.0323145017027855 0.999477803707123 -1.27995049397924e-17
outer loop
vertex -2.02962923049927 -0.0656207278370857 0.150000005960464
vertex -0.867351114749908 -0.0280426647514105 0.150000005960464
vertex -2.02962923049927 -0.0656207278370857 0
endloop
endfacet
facet normal -0.0323145054280758 0.999477744102478 0
outer loop
vertex -0.867351114749908 -0.0280426647514105 0
vertex -0.867351114749908 -0.0280426647514105 0.150000005960464
vertex 0 0 0
endloop
endfacet
facet normal -0.0323145054280758 0.999477744102478 0
outer loop
vertex 0 0 0.150000005960464
vertex 0 0 0
vertex -0.867351114749908 -0.0280426647514105 0.150000005960464
endloop
endfacet
facet normal -0.707186579704285 0.0117442477494478 0.706929445266724
outer loop
vertex -1.07233059406281 -0.0119239222258329 -1.07252264022827
vertex -1.07239103317261 -0.0346718914806843 -1.0722051858902
vertex 0 0 0
endloop
endfacet
facet normal -0.707186579704285 0.0117442477494478 0.706929445266724
outer loop
vertex -2.14466118812561 -0.0238478444516659 -2.14504528045654
vertex -2.14478206634521 -0.0693437829613686 -2.1444103717804
vertex -1.07233059406281 -0.0119239222258329 -1.07252264022827
endloop
endfacet
facet normal -0.707186579704285 0.0117442477494478 0.706929445266724
outer loop
vertex -1.07239103317261 -0.0346718914806843 -1.0722051858902
vertex -1.07233059406281 -0.0119239222258329 -1.07252264022827
vertex -2.14478206634521 -0.0693437829613686 -2.1444103717804
endloop
endfacet
facet normal -0.707186579704285 0.0117442477494478 0.706929445266724
outer loop
vertex -2.14466118812561 -0.0238478444516659 -2.14504528045654
vertex -3.21699190139771 -0.0357717648148537 -3.21756768226624
vertex -2.14478206634521 -0.0693437829613686 -2.1444103717804
endloop
endfacet
facet normal -0.707186579704285 0.0117442477494478 0.706929445266724
outer loop
vertex -3.2171733379364 -0.104015670716763 -3.2166154384613
vertex -2.14478206634521 -0.0693437829613686 -2.1444103717804
vertex -3.21699190139771 -0.0357717648148537 -3.21756768226624
endloop
endfacet
facet normal -0.707186579704285 0.0117442477494478 0.706929445266724
outer loop
vertex -4.28932237625122 -0.0476956889033318 -4.29009056091309
vertex -4.28956413269043 -0.138687565922737 -4.28882074356079
vertex -3.21699190139771 -0.0357717648148537 -3.21756768226624
endloop
endfacet
facet normal -0.707186579704285 0.0117442477494478 0.706929445266724
outer loop
vertex -3.2171733379364 -0.104015670716763 -3.2166154384613
vertex -3.21699190139771 -0.0357717648148537 -3.21756768226624
vertex -4.28956413269043 -0.138687565922737 -4.28882074356079
endloop
endfacet
facet normal -0.707186579704285 0.0117442477494478 0.706929445266724
outer loop
vertex -4.28932237625122 -0.0476956889033318 -4.29009056091309
vertex -5.36165332794189 -0.0596196092665195 -5.36261320114136
vertex -4.28956413269043 -0.138687565922737 -4.28882074356079
endloop
endfacet
facet normal -0.707186579704285 0.0117442468181252 0.706929385662079
outer loop
vertex -5.3619556427002 -0.173359453678131 -5.3610258102417
vertex -4.28956413269043 -0.138687565922737 -4.28882074356079
vertex -5.36165332794189 -0.0596196092665195 -5.36261320114136
endloop
endfacet
facet normal -0.707186579704285 0.0117442477494478 0.706929445266724
outer loop
vertex -5.36165332794189 -0.0596196092665195 -5.36261320114136
vertex -6.38584804534912 -0.0710082799196243 -6.38699102401733
vertex -5.3619556427002 -0.173359453678131 -5.3610258102417
endloop
endfacet
facet normal -0.70718652009964 0.0117442468181252 0.706929445266724
outer loop
vertex -6.38622570037842 -0.206475540995598 -6.38511848449707
vertex -5.3619556427002 -0.173359453678131 -5.3610258102417
vertex -6.38584804534912 -0.0710082799196243 -6.38699102401733
endloop
endfacet
facet normal -0.707186579704285 0.0117442468181252 0.706929445266724
outer loop
vertex -6.38584804534912 -0.0710082799196243 -6.38699102401733
vertex -7.07021617889404 -0.0786182060837746 -7.07148218154907
vertex -6.38622570037842 -0.206475540995598 -6.38511848449707
endloop
endfacet
facet normal -0.707186639308929 0.0117442477494478 0.706929445266724
outer loop
vertex -7.07062864303589 -0.228603228926659 -7.06940269470215
vertex -6.38622570037842 -0.206475540995598 -6.38511848449707
vertex -7.07021617889404 -0.0786182060837746 -7.07148218154907
endloop
endfacet
facet normal 0.707025051116943 0.0138629330322146 -0.707052648067474
outer loop
vertex 0.000588109367527068 -0.0299942344427109 0
vertex -0.139261871576309 -0.0339237414300442 -0.139921575784683
vertex 0 0 0
endloop
endfacet
facet normal 0.707025051116943 0.0138629330322146 -0.70705258846283
outer loop
vertex -0.139896526932716 -0.00155559787526727 -0.139921575784683
vertex 0 0 0
vertex -0.139261871576309 -0.0339237414300442 -0.139921575784683
endloop
endfacet
facet normal 0.707025110721588 0.0138629321008921 -0.707052648067474
outer loop
vertex -0.376215159893036 -0.00418337434530258 -0.376282513141632
vertex -0.139896526932716 -0.00155559787526727 -0.139921575784683
vertex -0.375501871109009 -0.0405616201460361 -0.376282513141632
endloop
endfacet
facet normal 0.707025051116943 0.0138629321008921 -0.70705258846283
outer loop
vertex -0.139261871576309 -0.0339237414300442 -0.139921575784683
vertex -0.375501871109009 -0.0405616201460361 -0.376282513141632
vertex -0.139896526932716 -0.00155559787526727 -0.139921575784683
endloop
endfacet
facet normal 0.707024991512299 0.0138629311695695 -0.70705258846283
outer loop
vertex -0.376215159893036 -0.00418337434530258 -0.376282513141632
vertex -0.375501871109009 -0.0405616201460361 -0.376282513141632
vertex -0.775413751602173 -0.00862231571227312 -0.775552570819855
endloop
endfacet
facet normal 0.707025051116943 0.0138629321008921 -0.707052648067474
outer loop
vertex -0.774567663669586 -0.0517745763063431 -0.775552570819855
vertex -0.775413751602173 -0.00862231571227312 -0.775552570819855
vertex -0.375501871109009 -0.0405616201460361 -0.376282513141632
endloop
endfacet
facet normal 0.707025051116943 0.0138629330322146 -0.707052648067474
outer loop
vertex -1.44975554943085 -0.0161207485944033 -1.4500150680542
vertex -0.775413751602173 -0.00862231571227312 -0.775552570819855
vertex -1.44868505001068 -0.0707159414887428 -1.4500150680542
endloop
endfacet
facet normal 0.707025110721588 0.0138629339635372 -0.707052648067474
outer loop
vertex -0.774567663669586 -0.0517745763063431 -0.775552570819855
vertex -1.44868505001068 -0.0707159414887428 -1.4500150680542
vertex -0.775413751602173 -0.00862231571227312 -0.775552570819855
endloop
endfacet
facet normal 0.707024991512299 0.0138629321008921 -0.70705258846283
outer loop
vertex -1.44975554943085 -0.0161207485944033 -1.4500150680542
vertex -1.44868505001068 -0.0707159414887428 -1.4500150680542
vertex -2.47201871871948 -0.0274879392236471 -2.47246122360229
endloop
endfacet
facet normal 0.707025051116943 0.0138629330322146 -0.707052648067474
outer loop
vertex -2.47060823440552 -0.0994299575686455 -2.47246122360229
vertex -2.47201871871948 -0.0274879392236471 -2.47246122360229
vertex -1.44868505001068 -0.0707159414887428 -1.4500150680542
endloop
endfacet
facet normal 0.707025051116943 0.0138629330322146 -0.707052648067474
outer loop
vertex -2.47201871871948 -0.0274879392236471 -2.47246122360229
vertex -2.47060823440552 -0.0994299575686455 -2.47246122360229
vertex -3.5331449508667 -0.0392872728407383 -3.53377747535706
endloop
endfacet
facet normal 0.707025110721588 0.0138629330322146 -0.707052648067474
outer loop
vertex -3.53138136863708 -0.129235580563545 -3.53377747535706
vertex -3.5331449508667 -0.0392872728407383 -3.53377747535706
vertex -2.47060823440552 -0.0994299575686455 -2.47246122360229
endloop
endfacet
facet normal 0.707025110721588 0.0138629330322146 -0.707052648067474
outer loop
vertex -3.5331449508667 -0.0392872728407383 -3.53377747535706
vertex -3.53138136863708 -0.129235580563545 -3.53377747535706
vertex -4.59427118301392 -0.0510866045951843 -4.59509372711182
endloop
endfacet
facet normal 0.707025051116943 0.0138629330322146 -0.70705258846283
outer loop
vertex -4.59215450286865 -0.159041211009026 -4.59509372711182
vertex -4.59427118301392 -0.0510866045951843 -4.59509372711182
vertex -3.53138136863708 -0.129235580563545 -3.53377747535706
endloop
endfacet
facet normal 0.707024991512299 0.0138629321008921 -0.70705258846283
outer loop
vertex -5.63371658325195 -0.0626448541879654 -5.63472509384155
vertex -4.59427118301392 -0.0510866045951843 -4.59509372711182
vertex -5.63125419616699 -0.188237845897675 -5.63472509384155
endloop
endfacet
facet normal 0.707024991512299 0.0138629311695695 -0.70705258846283
outer loop
vertex -4.59215450286865 -0.159041211009026 -4.59509372711182
vertex -5.63125419616699 -0.188237845897675 -5.63472509384155
vertex -4.59427118301392 -0.0510866045951843 -4.59509372711182
endloop
endfacet
facet normal 0.707025051116943 0.0138629330322146 -0.70705258846283
outer loop
vertex -6.45650911331177 -0.0717940106987953 -6.45766496658325
vertex -5.63371658325195 -0.0626448541879654 -5.63472509384155
vertex -6.453773021698 -0.211348995566368 -6.45766496658325
endloop
endfacet
facet normal 0.707025051116943 0.0138629321008921 -0.70705258846283
outer loop
vertex -5.63125419616699 -0.188237845897675 -5.63472509384155
vertex -6.453773021698 -0.211348995566368 -6.45766496658325
vertex -5.63371658325195 -0.0626448541879654 -5.63472509384155
endloop
endfacet
facet normal 0.707024991512299 0.0138629321008921 -0.70705258846283
outer loop
vertex -6.45650911331177 -0.0717940106987953 -6.45766496658325
vertex -6.453773021698 -0.211348995566368 -6.45766496658325
vertex -7.07034349441528 -0.078619621694088 -7.07160949707031
endloop
endfacet
facet normal 0.707024991512299 0.0138629321008921 -0.70705258846283
outer loop
vertex -7.0674033164978 -0.228590801358223 -7.07160949707031
vertex -7.07034349441528 -0.078619621694088 -7.07160949707031
vertex -6.453773021698 -0.211348995566368 -6.45766496658325
endloop
endfacet
facet normal -0.304155886173248 -0.952622294425964 -0
outer loop
vertex -1.28641927242279 -12.0166454315186 0.0900000035762787
vertex -1.28641927242279 -12.0166454315186 0.0599999986588955
vertex -1.09792971611023 -12.0768260955811 0.0911871865391731
endloop
endfacet
facet normal -0.304155886173248 -0.952622294425964 -6.2583012367225e-15
outer loop
vertex -1.09792971611023 -12.0768260955811 0.0588128156960011
vertex -1.09792971611023 -12.0768260955811 0.0911871865391731
vertex -1.28641927242279 -12.0166454315186 0.0599999986588955
endloop
endfacet
facet normal -0.304155886173248 -0.95262223482132 -8.37348785687024e-14
outer loop
vertex -0.779525995254517 -12.17848777771 0.0568073801696301
vertex -0.779525995254517 -12.17848777771 0.0931926220655441
vertex -1.09792971611023 -12.0768260955811 0.0588128156960011
endloop
endfacet
facet normal -0.304155886173248 -0.952622294425964 -6.2583012367225e-15
outer loop
vertex -1.09792971611023 -12.0768260955811 0.0911871865391731
vertex -1.09792971611023 -12.0768260955811 0.0588128156960011
vertex -0.779525995254517 -12.17848777771 0.0931926220655441
endloop
endfacet
facet normal -0.304155886173248 -0.95262223482132 -8.37348717924388e-14
outer loop
vertex -0.779525995254517 -12.17848777771 0.0568073801696301
vertex -0.241666048765182 -12.3502168655396 0.0534197203814983
vertex -0.779525995254517 -12.17848777771 0.0931926220655441
endloop
endfacet
facet normal -0.304155886173248 -0.952622294425964 -3.45127301303733e-14
outer loop
vertex -0.241666048765182 -12.3502168655396 0.0965802744030952
vertex -0.779525995254517 -12.17848777771 0.0931926220655441
vertex -0.241666048765182 -12.3502168655396 0.0534197203814983
endloop
endfacet
facet normal -0.304155886173248 -0.952622294425964 -5.45580019963715e-14
outer loop
vertex 0.666907846927643 -12.640308380127 0.0476971566677094
vertex 0.666907846927643 -12.640308380127 0.102302841842175
vertex -0.241666048765182 -12.3502168655396 0.0534197203814983
endloop
endfacet
facet normal -0.304155886173248 -0.95262223482132 -3.45127267422415e-14
outer loop
vertex -0.241666048765182 -12.3502168655396 0.0965802744030952
vertex -0.241666048765182 -12.3502168655396 0.0534197203814983
vertex 0.666907846927643 -12.640308380127 0.102302841842175
endloop
endfacet
facet normal -0.304155886173248 -0.95262223482132 -5.45580019963715e-14
outer loop
vertex 0.666907846927643 -12.640308380127 0.0476971566677094
vertex 2.04425358772278 -13.0800714492798 0.0390220768749714
vertex 0.666907846927643 -12.640308380127 0.102302841842175
endloop
endfacet
facet normal -0.304155856370926 -0.95262223482132 -3.75431175541176e-15
outer loop
vertex 2.04425358772278 -13.0800714492798 0.110977925360203
vertex 0.666907846927643 -12.640308380127 0.102302841842175
vertex 2.04425358772278 -13.0800714492798 0.0390220768749714
endloop
endfacet
facet normal -0.304155886173248 -0.952622294425964 -3.75431217892823e-15
outer loop
vertex 2.04425358772278 -13.0800714492798 0.0390220768749714
vertex 3.47396111488342 -13.5365524291992 0.0300172008574009
vertex 2.04425358772278 -13.0800714492798 0.110977925360203
endloop
endfacet
facet normal -0.304155886173248 -0.952622294425964 -1.88093796451867e-14
outer loop
vertex 3.47396111488342 -13.5365524291992 0.119982801377773
vertex 2.04425358772278 -13.0800714492798 0.110977925360203
vertex 3.47396111488342 -13.5365524291992 0.0300172008574009
endloop
endfacet
facet normal -0.304155886173248 -0.952622294425964 -2.88422274073979e-14
outer loop
vertex 4.90366888046265 -13.9930334091187 0.128987669944763
vertex 3.47396111488342 -13.5365524291992 0.119982801377773
vertex 4.90366888046265 -13.9930334091187 0.0210123229771852
endloop
endfacet
facet normal -0.304155886173248 -0.952622294425964 -1.88093796451867e-14
outer loop
vertex 3.47396111488342 -13.5365524291992 0.0300172008574009
vertex 4.90366888046265 -13.9930334091187 0.0210123229771852
vertex 3.47396111488342 -13.5365524291992 0.119982801377773
endloop
endfacet
facet normal -0.304155856370926 -0.95262223482132 -2.88422240192661e-14
outer loop
vertex 4.90366888046265 -13.9930334091187 0.128987669944763
vertex 4.90366888046265 -13.9930334091187 0.0210123229771852
vertex 6.30416488647461 -14.4401884078979 0.137808561325073
endloop
endfacet
facet normal -0.304155915975571 -0.952622294425964 -4.30108041671036e-15
outer loop
vertex 6.30416488647461 -14.4401884078979 0.0121914325281978
vertex 6.30416488647461 -14.4401884078979 0.137808561325073
vertex 4.90366888046265 -13.9930334091187 0.0210123229771852
endloop
endfacet
facet normal -0.304155915975571 -0.952622294425964 8.25256323103455e-15
outer loop
vertex 7.41275405883789 -14.7941417694092 0.00520909111946821
vertex 7.41275405883789 -14.7941417694092 0.144790902733803
vertex 6.30416488647461 -14.4401884078979 0.0121914325281978
endloop
endfacet
facet normal -0.304155886173248 -0.95262223482132 -4.30107999319388e-15
outer loop
vertex 6.30416488647461 -14.4401884078979 0.137808561325073
vertex 6.30416488647461 -14.4401884078979 0.0121914325281978
vertex 7.41275405883789 -14.7941417694092 0.144790902733803
endloop
endfacet
facet normal -0.304155886173248 -0.95262223482132 8.25256323103455e-15
outer loop
vertex 7.41275405883789 -14.7941417694092 0.00520909111946821
vertex 8.23980331420898 -15.0582036972046 5.27355936696949e-16
vertex 7.41275405883789 -14.7941417694092 0.144790902733803
endloop
endfacet
facet normal -0.304155886173248 -0.952622294425964 -0
outer loop
vertex 8.23980331420898 -15.0582036972046 0.150000005960464
vertex 7.41275405883789 -14.7941417694092 0.144790902733803
vertex 8.23980331420898 -15.0582036972046 5.27355936696949e-16
endloop
endfacet
facet normal 0.0158706959336996 -0.00488236453384161 0.999862194061279
outer loop
vertex 8.31431484222412 -14.8132190704346 -0.106047101318836
vertex 7.48498678207397 -14.5580902099609 -0.0916374623775482
vertex 8.27021026611328 -14.9565887451172 -0.106047101318836
endloop
endfacet
facet normal 0.0158706959336996 -0.00488236453384161 0.999862194061279
outer loop
vertex 7.44088125228882 -14.7014589309692 -0.0916374623775482
vertex 8.27021026611328 -14.9565887451172 -0.106047101318836
vertex 7.48498678207397 -14.5580902099609 -0.0916374623775482
endloop
endfacet
facet normal 0.0158706940710545 -0.00488236406818032 0.999862134456635
outer loop
vertex 7.48498678207397 -14.5580902099609 -0.0916374623775482
vertex 6.37366008758545 -14.2162084579468 -0.0723280906677246
vertex 7.44088125228882 -14.7014589309692 -0.0916374623775482
endloop
endfacet
facet normal 0.0158706940710545 -0.00488236406818032 0.999862134456635
outer loop
vertex 6.32955503463745 -14.3595771789551 -0.0723280906677246
vertex 7.44088125228882 -14.7014589309692 -0.0916374623775482
vertex 6.37366008758545 -14.2162084579468 -0.0723280906677246
endloop
endfacet
facet normal 0.0158706940710545 -0.00488236453384161 0.999862134456635
outer loop
vertex 6.37366008758545 -14.2162084579468 -0.0723280906677246
vertex 4.9695873260498 -13.7842674255371 -0.0479322262108326
vertex 6.32955503463745 -14.3595771789551 -0.0723280906677246
endloop
endfacet
facet normal 0.0158706940710545 -0.00488236453384161 0.999862134456635
outer loop
vertex 4.92548227310181 -13.9276371002197 -0.0479322262108326
vertex 6.32955503463745 -14.3595771789551 -0.0723280906677246
vertex 4.9695873260498 -13.7842674255371 -0.0479322262108326
endloop
endfacet
facet normal 0.0158706940710545 -0.00488236406818032 0.999862134456635
outer loop
vertex 3.4918954372406 -13.4866170883179 -0.0230235513299704
vertex 4.92548227310181 -13.9276371002197 -0.0479322262108326
vertex 3.5360004901886 -13.3432474136353 -0.0230235513299704
endloop
endfacet
facet normal 0.0158706940710545 -0.00488236406818032 0.999862134456635
outer loop
vertex 4.9695873260498 -13.7842674255371 -0.0479322262108326
vertex 3.5360004901886 -13.3432474136353 -0.0230235513299704
vertex 4.92548227310181 -13.9276371002197 -0.0479322262108326
endloop
endfacet
facet normal 0.0158706940710545 -0.00488236406818032 0.999862134456635
outer loop
vertex 3.4918954372406 -13.4866170883179 -0.0230235513299704
vertex 3.5360004901886 -13.3432474136353 -0.0230235513299704
vertex 2.05830836296082 -13.045597076416 0.00188512273598462
endloop
endfacet
facet normal 0.0158706940710545 -0.00488236406818032 0.999862134456635
outer loop
vertex 2.10241365432739 -12.9022274017334 0.00188512273598462
vertex 2.05830836296082 -13.045597076416 0.00188512273598462
vertex 3.5360004901886 -13.3432474136353 -0.0230235513299704
endloop
endfacet
facet normal 0.0158706940710545 -0.00488236453384161 0.999862134456635
outer loop
vertex 2.05830836296082 -13.045597076416 0.00188512273598462
vertex 2.10241365432739 -12.9022274017334 0.00188512273598462
vertex 0.654235541820526 -12.6136560440063 0.0262809861451387
endloop
endfacet
facet normal 0.0158706940710545 -0.00488236453384161 0.999862134456635
outer loop
vertex 0.698340773582458 -12.470287322998 0.0262809861451387
vertex 0.654235541820526 -12.6136560440063 0.0262809861451387
vertex 2.10241365432739 -12.9022274017334 0.00188512273598462
endloop
endfacet
facet normal 0.0158706940710545 -0.00488236406818032 0.999862134456635
outer loop
vertex -0.412985593080521 -12.1284055709839 0.0455903597176075
vertex -0.457090824842453 -12.2717742919922 0.0455903597176075
vertex 0.698340773582458 -12.470287322998 0.0262809861451387
endloop
endfacet
facet normal 0.0158706940710545 -0.00488236406818032 0.999862134456635
outer loop
vertex 0.654235541820526 -12.6136560440063 0.0262809861451387
vertex 0.698340773582458 -12.470287322998 0.0262809861451387
vertex -0.457090824842453 -12.2717742919922 0.0455903597176075
endloop
endfacet
facet normal 0.0158706959336996 -0.00488236453384161 0.999862194061279
outer loop
vertex -0.412985593080521 -12.1284055709839 0.0455903597176075
vertex -1.24231398105621 -11.8732757568359 0.0599999986588955
vertex -0.457090824842453 -12.2717742919922 0.0455903597176075
endloop
endfacet
facet normal 0.0158706959336996 -0.00488236453384161 0.999862194061279
outer loop
vertex -1.28641927242279 -12.0166454315186 0.0599999986588955
vertex -0.457090824842453 -12.2717742919922 0.0455903597176075
vertex -1.24231398105621 -11.8732757568359 0.0599999986588955
endloop
endfacet
facet normal -0.219122752547264 -0.672349691390991 -0.707058012485504
outer loop
vertex 8.27128601074219 -14.9569158554077 -0.106069035828114
vertex 8.23963165283203 -15.0581493377686 4.45475734522915e-06
vertex 7.34612417221069 -14.6723051071167 -0.0899939760565758
endloop
endfacet
facet normal -0.219122767448425 -0.672349691390991 -0.707058072090149
outer loop
vertex 7.31752634048462 -14.7637367248535 0.00581192085519433
vertex 7.34612417221069 -14.6723051071167 -0.0899939760565758
vertex 8.23963165283203 -15.0581493377686 4.45475734522915e-06
endloop
endfacet
facet normal -0.219122782349586 -0.672349691390991 -0.707058072090149
outer loop
vertex 7.34612417221069 -14.6723051071167 -0.0899939760565758
vertex 7.31752634048462 -14.7637367248535 0.00581192085519433
vertex 5.96156644821167 -14.2463684082031 -0.0659367144107819
endloop
endfacet
facet normal -0.219122767448425 -0.672349691390991 -0.707058012485504
outer loop
vertex 5.93757581710815 -14.3231420516968 0.0145029202103615
vertex 5.96156644821167 -14.2463684082031 -0.0659367144107819
vertex 7.31752634048462 -14.7637367248535 0.00581192085519433
endloop
endfacet
facet normal -0.219122767448425 -0.672349691390991 -0.707058012485504
outer loop
vertex 5.96156644821167 -14.2463684082031 -0.0659367144107819
vertex 5.93757581710815 -14.3231420516968 0.0145029202103615
vertex 4.51196908950806 -13.8004245758057 -0.0407493710517883
endloop
endfacet
facet normal -0.219122782349586 -0.672349691390991 -0.707058072090149
outer loop
vertex 4.49277687072754 -13.8618431091309 0.0236023366451263
vertex 4.51196908950806 -13.8004245758057 -0.0407493710517883
vertex 5.93757581710815 -14.3231420516968 0.0145029202103615
endloop
endfacet
facet normal -0.219122782349586 -0.672349691390991 -0.707058072090149
outer loop
vertex 4.49277687072754 -13.8618431091309 0.0236023366451263
vertex 3.04797768592834 -13.4005432128906 0.0327017530798912
vertex 4.51196908950806 -13.8004245758057 -0.0407493710517883
endloop
endfacet
facet normal -0.219122782349586 -0.672349750995636 -0.707058012485504
outer loop
vertex 3.06237196922302 -13.3544797897339 -0.0155620295554399
vertex 4.51196908950806 -13.8004245758057 -0.0407493710517883
vertex 3.04797768592834 -13.4005432128906 0.0327017530798912
endloop
endfacet
facet normal -0.219122782349586 -0.672349750995636 -0.707058012485504
outer loop
vertex 3.06237196922302 -13.3544797897339 -0.0155620295554399
vertex 3.04797768592834 -13.4005432128906 0.0327017530798912
vertex 1.61277496814728 -12.9085350036621 0.00962531380355358
endloop
endfacet
facet normal -0.219122782349586 -0.672349691390991 -0.707058072090149
outer loop
vertex 1.60317873954773 -12.9392442703247 0.0418011695146561
vertex 1.61277496814728 -12.9085350036621 0.00962531380355358
vertex 3.04797768592834 -13.4005432128906 0.0327017530798912
endloop
endfacet
facet normal -0.219122782349586 -0.672349691390991 -0.707058072090149
outer loop
vertex 1.60317873954773 -12.9392442703247 0.0418011695146561
vertex 0.158379718661308 -12.4779443740845 0.0509005859494209
vertex 1.61277496814728 -12.9085350036621 0.00962531380355358
endloop
endfacet
facet normal -0.219122782349586 -0.672349691390991 -0.707058072090149
outer loop
vertex 0.163177862763405 -12.4625902175903 0.034812655299902
vertex 1.61277496814728 -12.9085350036621 0.00962531380355358
vertex 0.158379718661308 -12.4779443740845 0.0509005859494209
endloop
endfacet
facet normal -0.219122782349586 -0.672349691390991 -0.707058072090149
outer loop
vertex 0.158379718661308 -12.4779443740845 0.0509005859494209
vertex -1.28641927242279 -12.0166454315186 0.0599999986588955
vertex 0.163177862763405 -12.4625902175903 0.034812655299902
endloop
endfacet
facet normal -0.955295503139496 0.293881297111511 0.0323145017027855
outer loop
vertex -0.933453738689423 -11.9682922363281 10.0847778320313
vertex -0.96025675535202 -11.9600458145142 9.21742630004883
vertex -0.977558970451355 -12.1116609573364 10.0847778320313
endloop
endfacet
facet normal -0.955295503139496 0.293881297111511 0.0323145017027855
outer loop
vertex -1.00436198711395 -12.1034154891968 9.21742630004883
vertex -0.977558970451355 -12.1116609573364 10.0847778320313
vertex -0.96025675535202 -11.9600458145142 9.21742630004883
endloop
endfacet
facet normal -0.955295503139496 0.293881326913834 0.0323145017027855
outer loop
vertex -1.00436198711395 -12.1034154891968 9.21742630004883
vertex -0.96025675535202 -11.9600458145142 9.21742630004883
vertex -1.04027891159058 -12.0923662185669 8.05514812469482
endloop
endfacet
facet normal -0.955295503139496 0.293881326913834 0.0323145017027855
outer loop
vertex -0.996173679828644 -11.9489965438843 8.05514812469482
vertex -1.04027891159058 -12.0923662185669 8.05514812469482
vertex -0.96025675535202 -11.9600458145142 9.21742630004883
endloop
endfacet
facet normal -0.955295562744141 0.293881356716156 0.0323145017027855
outer loop
vertex -0.996173679828644 -11.9489965438843 8.05514812469482
vertex -1.0415518283844 -11.935037612915 6.58670234680176
vertex -1.04027891159058 -12.0923662185669 8.05514812469482
endloop
endfacet
facet normal -0.955295562744141 0.293881356716156 0.0323145017027855
outer loop
vertex -1.08565711975098 -12.0784063339233 6.58670234680176
vertex -1.04027891159058 -12.0923662185669 8.05514812469482
vertex -1.0415518283844 -11.935037612915 6.58670234680176
endloop
endfacet
facet normal -0.955295562744141 0.293881326913834 0.0323145017027855
outer loop
vertex -1.0415518283844 -11.935037612915 6.58670234680176
vertex -1.0878838300705 -11.920783996582 5.08738851547241
vertex -1.08565711975098 -12.0784063339233 6.58670234680176
endloop
endfacet
facet normal -0.955295562744141 0.293881326913834 0.0323145017027855
outer loop
vertex -1.13198912143707 -12.0641527175903 5.08738851547241
vertex -1.08565711975098 -12.0784063339233 6.58670234680176
vertex -1.0878838300705 -11.920783996582 5.08738851547241
endloop
endfacet
facet normal -0.955295562744141 0.293881326913834 0.0323145017027855
outer loop
vertex -1.0878838300705 -11.920783996582 5.08738851547241
vertex -1.13421595096588 -11.906530380249 3.58807516098022
vertex -1.13198912143707 -12.0641527175903 5.08738851547241
endloop
endfacet
facet normal -0.955295562744141 0.293881326913834 0.0323145017027855
outer loop
vertex -1.17832112312317 -12.0499000549316 3.58807516098022
vertex -1.13198912143707 -12.0641527175903 5.08738851547241
vertex -1.13421595096588 -11.906530380249 3.58807516098022
endloop
endfacet
facet normal -0.955295562744141 0.293881356716156 0.0323145017027855
outer loop
vertex -1.13421595096588 -11.906530380249 3.58807516098022
vertex -1.17959403991699 -11.8925704956055 2.11962914466858
vertex -1.17832112312317 -12.0499000549316 3.58807516098022
endloop
endfacet
facet normal -0.955295562744141 0.293881356716156 0.0323145017027855
outer loop
vertex -1.22369933128357 -12.0359401702881 2.11962914466858
vertex -1.17832112312317 -12.0499000549316 3.58807516098022
vertex -1.17959403991699 -11.8925704956055 2.11962914466858
endloop
endfacet
facet normal -0.955295503139496 0.293881326913834 0.0323145017027855
outer loop
vertex -1.17959403991699 -11.8925704956055 2.11962914466858
vertex -1.21551096439362 -11.8815212249756 0.95735114812851
vertex -1.22369933128357 -12.0359401702881 2.11962914466858
endloop
endfacet
facet normal -0.955295503139496 0.293881326913834 0.0323145017027855
outer loop
vertex -1.25961625576019 -12.0248908996582 0.95735114812851
vertex -1.22369933128357 -12.0359401702881 2.11962914466858
vertex -1.21551096439362 -11.8815212249756 0.95735114812851
endloop
endfacet
facet normal -0.955295503139496 0.293881297111511 0.0323145017027855
outer loop
vertex -1.21551096439362 -11.8815212249756 0.95735114812851
vertex -1.24231398105621 -11.8732757568359 0.0900000035762787
vertex -1.25961625576019 -12.0248908996582 0.95735114812851
endloop
endfacet
facet normal -0.955295503139496 0.293881297111511 0.0323145017027855
outer loop
vertex -1.28641927242279 -12.0166454315186 0.0900000035762787
vertex -1.25961625576019 -12.0248908996582 0.95735114812851
vertex -1.24231398105621 -11.8732757568359 0.0900000035762787
endloop
endfacet
facet normal 0.304157853126526 0.952621638774872 -0.000342986255418509
outer loop
vertex 8.23879051208496 -15.0578260421753 0.300001829862595
vertex 8.23963165283203 -15.0581493377686 0.149998918175697
vertex 7.31677389144897 -14.7634477615356 0.279674202203751
endloop
endfacet
facet normal 0.304157823324203 0.952621579170227 -0.000342986255418509
outer loop
vertex 7.31752634048462 -14.7637367248535 0.14419113099575
vertex 7.31677389144897 -14.7634477615356 0.279674202203751
vertex 8.23963165283203 -15.0581493377686 0.149998918175697
endloop
endfacet
facet normal 0.304157823324203 0.952621638774872 -0.000342986226314679
outer loop
vertex 7.31677389144897 -14.7634477615356 0.279674202203751
vertex 7.31752634048462 -14.7637367248535 0.14419113099575
vertex 5.93692350387573 -14.3228931427002 0.249252691864967
endloop
endfacet
facet normal 0.304157823324203 0.952621579170227 -0.000342986226314679
outer loop
vertex 5.93757581710815 -14.3231420516968 0.135499641299248
vertex 5.93692350387573 -14.3228931427002 0.249252691864967
vertex 7.31752634048462 -14.7637367248535 0.14419113099575
endloop
endfacet
facet normal 0.304157853126526 0.952621638774872 -0.000342986255418509
outer loop
vertex 5.93692350387573 -14.3228931427002 0.249252691864967
vertex 5.93757581710815 -14.3231420516968 0.135499641299248
vertex 4.49225521087646 -13.8616437911987 0.217402160167694
endloop
endfacet
facet normal 0.304157823324203 0.952621579170227 -0.000342986255418509
outer loop
vertex 4.49277687072754 -13.8618431091309 0.126399710774422
vertex 4.49225521087646 -13.8616437911987 0.217402160167694
vertex 5.93757581710815 -14.3231420516968 0.135499641299248
endloop
endfacet
facet normal 0.304157823324203 0.952621579170227 -0.000342986255418509
outer loop
vertex 4.49277687072754 -13.8618431091309 0.126399710774422
vertex 3.04797768592834 -13.4005432128906 0.117299780249596
vertex 4.49225521087646 -13.8616437911987 0.217402160167694
endloop
endfacet
facet normal 0.304157853126526 0.952621638774872 -0.000342986255418509
outer loop
vertex 3.04758644104004 -13.4003934860229 0.18555161356926
vertex 4.49225521087646 -13.8616437911987 0.217402160167694
vertex 3.04797768592834 -13.4005432128906 0.117299780249596
endloop
endfacet
facet normal 0.304157853126526 0.952621638774872 -0.000342986255418509
outer loop
vertex 3.04797768592834 -13.4005432128906 0.117299780249596
vertex 1.60317873954773 -12.9392442703247 0.10819985717535
vertex 3.04758644104004 -13.4003934860229 0.18555161356926
endloop
endfacet
facet normal 0.304157823324203 0.952621579170227 -0.000342986255418509
outer loop
vertex 1.60291790962219 -12.9391441345215 0.153701081871986
vertex 3.04758644104004 -13.4003934860229 0.18555161356926
vertex 1.60317873954773 -12.9392442703247 0.10819985717535
endloop
endfacet
facet normal 0.304157823324203 0.952621579170227 -0.000342986255418509
outer loop
vertex 1.60317873954773 -12.9392442703247 0.10819985717535
vertex 0.158379718661308 -12.4779443740845 0.0990999266505241
vertex 1.60291790962219 -12.9391441345215 0.153701081871986
endloop
endfacet
facet normal 0.304157823324203 0.952621579170227 -0.000342986255418509
outer loop
vertex 0.15824930369854 -12.47789478302 0.121850542724133
vertex 1.60291790962219 -12.9391441345215 0.153701081871986
vertex 0.158379718661308 -12.4779443740845 0.0990999266505241
endloop
endfacet
facet normal 0.304157823324203 0.952621579170227 -0.000342986255418509
outer loop
vertex 0.158379718661308 -12.4779443740845 0.0990999266505241
vertex -1.28641927242279 -12.0166454315186 0.0900000035762787
vertex 0.15824930369854 -12.47789478302 0.121850542724133
endloop
endfacet
facet normal 0.194648012518883 0.67987334728241 -0.707024991512299
outer loop
vertex 1.05547165870667 -5.18148279190063 7.15740299224854
vertex 0.858471035957336 -5.76321792602539 6.54377269744873
vertex 0.912130057811737 -5.13738632202148 7.16034364700317
endloop
endfacet
facet normal 0.194648012518883 0.67987334728241 -0.707025051116943
outer loop
vertex 0.725085139274597 -5.72218370437622 6.54650926589966
vertex 0.912130057811737 -5.13738632202148 7.16034364700317
vertex 0.858471035957336 -5.76321792602539 6.54377269744873
endloop
endfacet
facet normal 0.194648012518883 0.67987334728241 -0.707025051116943
outer loop
vertex 0.725085139274597 -5.72218370437622 6.54650926589966
vertex 0.858471035957336 -5.76321792602539 6.54377269744873
vertex 0.474367380142212 -6.50605535507202 5.72371673583984
endloop
endfacet
facet normal 0.194648012518883 0.679873287677765 -0.707025051116943
outer loop
vertex 0.594408512115479 -6.54298400878906 5.72125434875488
vertex 0.474367380142212 -6.50605535507202 5.72371673583984
vertex 0.858471035957336 -5.76321792602539 6.54377269744873
endloop
endfacet
facet normal 0.194648027420044 0.67987334728241 -0.707025051116943
outer loop
vertex 0.474367380142212 -6.50605535507202 5.72371673583984
vertex 0.594408512115479 -6.54298400878906 5.72125434875488
vertex 0.157632127404213 -7.49633121490479 4.68427133560181
endloop
endfacet
facet normal 0.194648012518883 0.679873287677765 -0.707024991512299
outer loop
vertex 0.260814547538757 -7.52807331085205 4.68215465545654
vertex 0.157632127404213 -7.49633121490479 4.68427133560181
vertex 0.594408512115479 -6.54298400878906 5.72125434875488
endloop
endfacet
facet normal 0.194648027420044 0.67987334728241 -0.707025051116943
outer loop
vertex 0.260814547538757 -7.52807331085205 4.68215465545654
vertex -0.0797374919056892 -8.53370952606201 3.6213812828064
vertex 0.157632127404213 -7.49633121490479 4.68427133560181
endloop
endfacet
facet normal 0.194648012518883 0.67987334728241 -0.707025110721588
outer loop
vertex -0.165709614753723 -8.50726222991943 3.62314486503601
vertex 0.157632127404213 -7.49633121490479 4.68427133560181
vertex -0.0797374919056892 -8.53370952606201 3.6213812828064
endloop
endfacet
facet normal 0.194648012518883 0.67987334728241 -0.707025110721588
outer loop
vertex -0.0797374919056892 -8.53370952606201 3.6213812828064
vertex -0.420289546251297 -9.53934669494629 2.56060814857483
vertex -0.165709614753723 -8.50726222991943 3.62314486503601
endloop
endfacet
facet normal 0.194648012518883 0.67987334728241 -0.707025051116943
outer loop
vertex -0.489051342010498 -9.51819324493408 2.56201863288879
vertex -0.165709614753723 -8.50726222991943 3.62314486503601
vertex -0.420289546251297 -9.53934669494629 2.56060814857483
endloop
endfacet
facet normal 0.194648042321205 0.67987334728241 -0.707025051116943
outer loop
vertex -0.420289546251297 -9.53934669494629 2.56060814857483
vertex -0.748369097709656 -10.5081520080566 1.53868508338928
vertex -0.489051342010498 -9.51819324493408 2.56201863288879
endloop
endfacet
facet normal 0.194647997617722 0.679873287677765 -0.707024991512299
outer loop
vertex -0.800550878047943 -10.4920988082886 1.53975546360016
vertex -0.489051342010498 -9.51819324493408 2.56201863288879
vertex -0.748369097709656 -10.5081520080566 1.53868508338928
endloop
endfacet
facet normal 0.194648012518883 0.67987334728241 -0.707025051116943
outer loop
vertex -0.800550878047943 -10.4920988082886 1.53975546360016
vertex -0.748369097709656 -10.5081520080566 1.53868508338928
vertex -1.00603330135345 -11.13454246521 0.865413784980774
endloop
endfacet
facet normal 0.194648012518883 0.679873287677765 -0.707025051116943
outer loop
vertex -0.964788675308228 -11.1472301483154 0.864567637443542
vertex -1.00603330135345 -11.13454246521 0.865413784980774
vertex -0.748369097709656 -10.5081520080566 1.53868508338928
endloop
endfacet
facet normal 0.194648012518883 0.67987334728241 -0.707025051116943
outer loop
vertex -0.964788675308228 -11.1472301483154 0.864567637443542
vertex -1.09290528297424 -11.5255537033081 0.465501874685287
vertex -1.00603330135345 -11.13454246521 0.865413784980774
endloop
endfacet
facet normal 0.194648012518883 0.679873287677765 -0.707024991512299
outer loop
vertex -1.12767541408539 -11.5148572921753 0.466215163469315
vertex -1.00603330135345 -11.13454246521 0.865413784980774
vertex -1.09290528297424 -11.5255537033081 0.465501874685287
endloop
endfacet
facet normal 0.194648012518883 0.67987334728241 -0.707025110721588
outer loop
vertex -1.12767541408539 -11.5148572921753 0.466215163469315
vertex -1.09290528297424 -11.5255537033081 0.465501874685287
vertex -1.1996853351593 -11.7399969100952 0.229896530508995
endloop
endfacet
facet normal 0.194648027420044 0.67987334728241 -0.707025051116943
outer loop
vertex -1.16874802112579 -11.7495145797729 0.229261875152588
vertex -1.1996853351593 -11.7399969100952 0.229896530508995
vertex -1.09290528297424 -11.5255537033081 0.465501874685287
endloop
endfacet
facet normal 0.194648012518883 0.67987334728241 -0.707025051116943
outer loop
vertex -1.1996853351593 -11.7399969100952 0.229896530508995
vertex -1.16874802112579 -11.7495145797729 0.229261875152588
vertex -1.24231398105621 -11.8732757568359 0.0900000035762787
endloop
endfacet
facet normal 0.194648012518883 0.67987334728241 -0.707025051116943
outer loop
vertex -1.21364569664001 -11.8820953369141 0.0894118919968605
vertex -1.24231398105621 -11.8732757568359 0.0900000035762787
vertex -1.16874802112579 -11.7495145797729 0.229261875152588
endloop
endfacet
facet normal -0.219086989760399 -0.672226130962372 0.707186579704285
outer loop
vertex 1.0548347234726 -5.18359565734863 7.16062831878662
vertex 0.912091255187988 -5.13750743865967 7.16021633148193
vertex 0.832481801509857 -5.8311243057251 6.47622585296631
endloop
endfacet
facet normal -0.219086989760399 -0.672226130962372 0.707186579704285
outer loop
vertex 0.703553557395935 -5.78950262069702 6.47584819793701
vertex 0.832481801509857 -5.8311243057251 6.47622585296631
vertex 0.912091255187988 -5.13750743865967 7.16021633148193
endloop
endfacet
facet normal -0.219086989760399 -0.672226130962372 0.70718652009964
outer loop
vertex 0.832481801509857 -5.8311243057251 6.47622585296631
vertex 0.703553557395935 -5.78950262069702 6.47584819793701
vertex 0.499710619449615 -6.80020952224731 5.45195531845093
endloop
endfacet
facet normal -0.21908700466156 -0.672226190567017 0.707186579704285
outer loop
vertex 0.391465365886688 -6.76524925231934 5.45165300369263
vertex 0.499710619449615 -6.80020952224731 5.45195531845093
vertex 0.703553557395935 -5.78950262069702 6.47584819793701
endloop
endfacet
facet normal -0.21908700466156 -0.672226190567017 0.707186579704285
outer loop
vertex 0.499710619449615 -6.80020952224731 5.45195531845093
vertex 0.391465365886688 -6.76524925231934 5.45165300369263
vertex 0.151305690407753 -7.81482267379761 4.37956428527832
endloop
endfacet
facet normal -0.21908700466156 -0.672226190567017 0.707186579704285
outer loop
vertex 0.0647094920277596 -7.78685426712036 4.37932252883911
vertex 0.151305690407753 -7.81482267379761 4.37956428527832
vertex 0.391465365886688 -6.76524925231934 5.45165300369263
endloop
endfacet
facet normal -0.21908700466156 -0.672226190567017 0.707186579704285
outer loop
vertex 0.0647094920277596 -7.78685426712036 4.37932252883911
vertex -0.26204639673233 -8.8084602355957 3.30699181556702
vertex 0.151305690407753 -7.81482267379761 4.37956428527832
endloop
endfacet
facet normal -0.21908700466156 -0.672226130962372 0.707186579704285
outer loop
vertex -0.197099238634109 -8.82943630218506 3.30717325210571
vertex 0.151305690407753 -7.81482267379761 4.37956428527832
vertex -0.26204639673233 -8.8084602355957 3.30699181556702
endloop
endfacet
facet normal -0.21908700466156 -0.672226130962372 0.707186579704285
outer loop
vertex -0.197099238634109 -8.82943630218506 3.30717325210571
vertex -0.26204639673233 -8.8084602355957 3.30699181556702
vertex -0.545504152774811 -9.84404945373535 2.23478221893311
endloop
endfacet
facet normal -0.21908700466156 -0.672226190567017 0.707186579704285
outer loop
vertex -0.58880227804184 -9.83006477355957 2.2346613407135
vertex -0.545504152774811 -9.84404945373535 2.23478221893311
vertex -0.26204639673233 -8.8084602355957 3.30699181556702
endloop
endfacet
facet normal -0.21908700466156 -0.672226190567017 0.707186579704285
outer loop
vertex -0.58880227804184 -9.83006477355957 2.2346613407135
vertex -0.915558159351349 -10.8516702651978 1.16233062744141
vertex -0.545504152774811 -9.84404945373535 2.23478221893311
endloop
endfacet
facet normal -0.21908700466156 -0.672226190567017 0.707186579704285
outer loop
vertex -0.893909096717834 -10.8586626052856 1.16239106655121
vertex -0.545504152774811 -9.84404945373535 2.23478221893311
vertex -0.915558159351349 -10.8516702651978 1.16233062744141
endloop
endfacet
facet normal -0.21908700466156 -0.672226190567017 0.707186579704285
outer loop
vertex -0.915558159351349 -10.8516702651978 1.16233062744141
vertex -1.24231398105621 -11.8732757568359 0.0900000035762787
vertex -0.893909096717834 -10.8586626052856 1.16239106655121
endloop
endfacet
facet normal 0.000342986226314679 -0.0106084598228335 -0.999943673610687
outer loop
vertex -0.210001841187477 -9.99835777282715 0.256001144647598
vertex -0.189674198627472 -9.03054237365723 0.245740488171577
vertex -0.0599989183247089 -9.99925708770752 0.256062120199203
endloop
endfacet
facet normal 0.000342986255418509 -0.0106084607541561 -0.999943673610687
outer loop
vertex -0.0541911274194717 -9.03134632110596 0.245795488357544
vertex -0.0599989183247089 -9.99925708770752 0.256062120199203
vertex -0.189674198627472 -9.03054237365723 0.245740488171577
endloop
endfacet
facet normal 0.000342986226314679 -0.0106084598228335 -0.999943673610687
outer loop
vertex -0.189674198627472 -9.03054237365723 0.245740488171577
vertex -0.15925270318985 -7.58214998245239 0.230384841561317
vertex -0.0541911274194717 -9.03134632110596 0.245795488357544
endloop
endfacet
facet normal 0.000342986226314679 -0.0106084607541561 -0.999943673610687
outer loop
vertex -0.0454996377229691 -7.58284664154053 0.230431258678436
vertex -0.0541911274194717 -9.03134632110596 0.245795488357544
vertex -0.15925270318985 -7.58214998245239 0.230384841561317
endloop
endfacet
facet normal 0.000342986226314679 -0.0106084598228335 -0.999943673610687
outer loop
vertex -0.15925270318985 -7.58214998245239 0.230384841561317
vertex -0.127402156591415 -6.06572008132935 0.214307874441147
vertex -0.0454996377229691 -7.58284664154053 0.230431258678436
endloop
endfacet
facet normal 0.000342986255418509 -0.0106084607541561 -0.999943673610687
outer loop
vertex -0.0363997109234333 -6.06627702713013 0.214345008134842
vertex -0.0454996377229691 -7.58284664154053 0.230431258678436
vertex -0.127402156591415 -6.06572008132935 0.214307874441147
endloop
endfacet
facet normal 0.000342986255418509 -0.0106084607541561 -0.999943673610687
outer loop
vertex -0.0363997109234333 -6.06627702713013 0.214345008134842
vertex -0.127402156591415 -6.06572008132935 0.214307874441147
vertex -0.0272997841238976 -4.54970788955688 0.198258757591248
endloop
endfacet
facet normal 0.000342986197210848 -0.0106084598228335 -0.999943673610687
outer loop
vertex -0.0955516174435616 -4.5492901802063 0.198230907320976
vertex -0.0272997841238976 -4.54970788955688 0.198258757591248
vertex -0.127402156591415 -6.06572008132935 0.214307874441147
endloop
endfacet
facet normal 0.000342986197210848 -0.0106084598228335 -0.999943673610687
outer loop
vertex -0.0955516174435616 -4.5492901802063 0.198230907320976
vertex -0.0637010782957077 -3.03286004066467 0.182153940200806
vertex -0.0272997841238976 -4.54970788955688 0.198258757591248
endloop
endfacet
facet normal 0.000342986255418509 -0.0106084607541561 -0.999943673610687
outer loop
vertex -0.0181998554617167 -3.03313851356506 0.182172507047653
vertex -0.0272997841238976 -4.54970788955688 0.198258757591248
vertex -0.0637010782957077 -3.03286004066467 0.182153940200806
endloop
endfacet
facet normal 0.000342986255418509 -0.0106084607541561 -0.999943673610687
outer loop
vertex -0.0181998554617167 -3.03313851356506 0.182172507047653
vertex -0.0637010782957077 -3.03286004066467 0.182153940200806
vertex -0.00909992773085833 -1.51656925678253 0.166086256504059
endloop
endfacet
facet normal 0.000342986255418509 -0.0106084607541561 -0.999943673610687
outer loop
vertex -0.0318505391478539 -1.51643002033234 0.166076973080635
vertex -0.00909992773085833 -1.51656925678253 0.166086256504059
vertex -0.0637010782957077 -3.03286004066467 0.182153940200806
endloop
endfacet
facet normal 0.000342986255418509 -0.0106084607541561 -0.999943673610687
outer loop
vertex -0.00909992773085833 -1.51656925678253 0.166086256504059
vertex -0.0318505391478539 -1.51643002033234 0.166076973080635
vertex 0 0 0.150000005960464
endloop
endfacet
facet normal -1 0 0
outer loop
vertex -0.166069999337196 -10 0
vertex -0.166069999337196 -11 0
vertex -0.166069999337196 -10 0.150000005960464
endloop
endfacet
facet normal -1 0 0
outer loop
vertex -0.166069999337196 -11 0.150000005960464
vertex -0.166069999337196 -10 0.150000005960464
vertex -0.166069999337196 -11 0
endloop
endfacet
facet normal -0.707106828689575 -0 -0.707106828689575
outer loop
vertex -0.166069999337196 -10 0
vertex -0.0599999986588955 -10 -0.106069996953011
vertex -0.166069999337196 -11 0
endloop
endfacet
facet normal -0.707106828689575 0 -0.707106828689575
outer loop
vertex -0.0599999986588955 -11 -0.106069996953011
vertex -0.166069999337196 -11 0
vertex -0.0599999986588955 -10 -0.106069996953011
endloop
endfacet
facet normal -0.707106828689575 0 0.707106828689575
outer loop
vertex -0.166069999337196 -10 0.150000005960464
vertex -0.166069999337196 -11 0.150000005960464
vertex -0.0599999986588955 -10 0.256069988012314
endloop
endfacet
facet normal -0.707106828689575 0 0.707106828689575
outer loop
vertex -0.0599999986588955 -11 0.256069988012314
vertex -0.0599999986588955 -10 0.256069988012314
vertex -0.166069999337196 -11 0.150000005960464
endloop
endfacet
facet normal 0 0 -1
outer loop
vertex -0.0599999986588955 -10 -0.106069996953011
vertex 0.0900000035762787 -10 -0.106069996953011
vertex -0.0599999986588955 -11 -0.106069996953011
endloop
endfacet
facet normal 0 0 -1
outer loop
vertex 0.0900000035762787 -11 -0.106069996953011
vertex -0.0599999986588955 -11 -0.106069996953011
vertex 0.0900000035762787 -10 -0.106069996953011
endloop
endfacet
facet normal 0 -0 1
outer loop
vertex 0.0900000035762787 -11 0.256069988012314
vertex 0.0900000035762787 -10 0.256069988012314
vertex -0.0599999986588955 -11 0.256069988012314
endloop
endfacet
facet normal -0 0 1
outer loop
vertex -0.0599999986588955 -10 0.256069988012314
vertex -0.0599999986588955 -11 0.256069988012314
vertex 0.0900000035762787 -10 0.256069988012314
endloop
endfacet
facet normal 0.707106828689575 0 -0.707106828689575
outer loop
vertex 0.0900000035762787 -10 -0.106069996953011
vertex 0.196070000529289 -10 0
vertex 0.0900000035762787 -11 -0.106069996953011
endloop
endfacet
facet normal 0.707106828689575 0 -0.707106828689575
outer loop
vertex 0.196070000529289 -11 0
vertex 0.0900000035762787 -11 -0.106069996953011
vertex 0.196070000529289 -10 0
endloop
endfacet
facet normal 0.707106828689575 -0 0.707106828689575
outer loop
vertex 0.196070000529289 -11 0.150000005960464
vertex 0.196070000529289 -10 0.150000005960464
vertex 0.0900000035762787 -11 0.256069988012314
endloop
endfacet
facet normal 0.707106828689575 0 0.707106828689575
outer loop
vertex 0.0900000035762787 -10 0.256069988012314
vertex 0.0900000035762787 -11 0.256069988012314
vertex 0.196070000529289 -10 0.150000005960464
endloop
endfacet
facet normal 1 0 0
outer loop
vertex 0.196070000529289 -11 0
vertex 0.196070000529289 -10 0
vertex 0.196070000529289 -11 0.150000005960464
endloop
endfacet
facet normal 1 0 0
outer loop
vertex 0.196070000529289 -10 0.150000005960464
vertex 0.196070000529289 -11 0.150000005960464
vertex 0.196070000529289 -10 0
endloop
endfacet
facet normal -0 0.0106064034625888 0.999943673610687
outer loop
vertex -0.0599999986588955 -9.99943733215332 0.256064027547836
vertex 0.0900000035762787 -9.99943733215332 0.256064027547836
vertex -0.054790910333395 -9.13130474090576 0.24685575067997
endloop
endfacet
facet normal 1.98836894786999e-16 0.0106064034625888 0.999943733215332
outer loop
vertex 0.0847909078001976 -9.13130474090576 0.24685575067997
vertex -0.054790910333395 -9.13130474090576 0.24685575067997
vertex 0.0900000035762787 -9.99943733215332 0.256064027547836
endloop
endfacet
facet normal 1.98836894786999e-16 0.0106064034625888 0.999943792819977
outer loop
vertex -0.054790910333395 -9.13130474090576 0.24685575067997
vertex 0.0847909078001976 -9.13130474090576 0.24685575067997
vertex -0.0478085689246655 -7.96764659881592 0.234512820839882
endloop
endfacet
facet normal 2.24978330007626e-16 0.0106064034625888 0.999943733215332
outer loop
vertex 0.077808566391468 -7.96764659881592 0.234512820839882
vertex -0.0478085689246655 -7.96764659881592 0.234512820839882
vertex 0.0847909078001976 -9.13130474090576 0.24685575067997
endloop
endfacet
facet normal 2.24978356477406e-16 0.0106064043939114 0.999943733215332
outer loop
vertex 0.077808566391468 -7.96764659881592 0.234512820839882
vertex 0.068987675011158 -6.49758052825928 0.218919843435287
vertex -0.0478085689246655 -7.96764659881592 0.234512820839882
endloop
endfacet
facet normal 9.19422831381266e-17 0.0106064043939114 0.999943792819977
outer loop
vertex -0.0389876775443554 -6.49758052825928 0.218919843435287
vertex -0.0478085689246655 -7.96764659881592 0.234512820839882
vertex 0.068987675011158 -6.49758052825928 0.218919843435287
endloop
endfacet
facet normal 9.19422765206817e-17 0.0106064025312662 0.999943733215332
outer loop
vertex -0.0389876775443554 -6.49758052825928 0.218919843435287
vertex 0.068987675011158 -6.49758052825928 0.218919843435287
vertex -0.0299827996641397 -4.9968523979187 0.203001618385315
endloop
endfacet
facet normal -4.01933041809706e-16 0.0106064025312662 0.999943733215332
outer loop
vertex 0.0599827989935875 -4.9968523979187 0.203001618385315
vertex -0.0299827996641397 -4.9968523979187 0.203001618385315
vertex 0.068987675011158 -6.49758052825928 0.218919843435287
endloop
endfacet
facet normal -4.01933041809706e-16 0.0106064025312662 0.999943733215332
outer loop
vertex 0.0599827989935875 -4.9968523979187 0.203001618385315
vertex 0.050977922976017 -3.49612379074097 0.187083378434181
vertex -0.0299827996641397 -4.9968523979187 0.203001618385315
endloop
endfacet
facet normal -3.06154182493995e-16 0.0106064034625888 0.999943792819977
outer loop
vertex -0.0209779217839241 -3.49612379074097 0.187083378434181
vertex -0.0299827996641397 -4.9968523979187 0.203001618385315
vertex 0.050977922976017 -3.49612379074097 0.187083378434181
endloop
endfacet
facet normal -3.06154208963775e-16 0.0106064043939114 0.999943792819977
outer loop
vertex -0.0209779217839241 -3.49612379074097 0.187083378434181
vertex 0.050977922976017 -3.49612379074097 0.187083378434181
vertex -0.0123028429225087 -2.05035853385925 0.171748146414757
endloop
endfacet
facet normal 1.85739402994618e-17 0.0106064043939114 0.999943733215332
outer loop
vertex 0.042302843183279 -2.05035853385925 0.171748146414757
vertex -0.0123028429225087 -2.05035853385925 0.171748146414757
vertex 0.050977922976017 -3.49612379074097 0.187083378434181
endloop
endfacet
facet normal 1.85739386451005e-17 0.0106064034625888 0.999943792819977
outer loop
vertex 0.042302843183279 -2.05035853385925 0.171748146414757
vertex 0.0365802794694901 -1.09665131568909 0.161632180213928
vertex -0.0123028429225087 -2.05035853385925 0.171748146414757
endloop
endfacet
facet normal -4.28162548604514e-17 0.0106064034625888 0.999943792819977
outer loop
vertex -0.00658027781173587 -1.09665131568909 0.161632180213928
vertex -0.0123028429225087 -2.05035853385925 0.171748146414757
vertex 0.0365802794694901 -1.09665131568909 0.161632180213928
endloop
endfacet
facet normal -4.28162548604514e-17 0.0106064034625888 0.999943733215332
outer loop
vertex -0.00658027781173587 -1.09665131568909 0.161632180213928
vertex 0.0365802794694901 -1.09665131568909 0.161632180213928
vertex -0.00319261848926544 -0.532073140144348 0.155643701553345
endloop
endfacet
facet normal 7.62782285760059e-16 0.0106064043939114 0.999943792819977
outer loop
vertex 0.0331926196813583 -0.532073140144348 0.155643701553345
vertex -0.00319261848926544 -0.532073140144348 0.155643701553345
vertex 0.0365802794694901 -1.09665131568909 0.161632180213928
endloop
endfacet
facet normal 7.62782285760059e-16 0.0106064034625888 0.999943792819977
outer loop
vertex 0.0331926196813583 -0.532073140144348 0.155643701553345
vertex 0.0311871822923422 -0.197852700948715 0.152098625898361
vertex -0.00319261848926544 -0.532073140144348 0.155643701553345
endloop
endfacet
facet normal -4.75368918982302e-16 0.0106064034625888 0.999943792819977
outer loop
vertex -0.00118718296289444 -0.197852700948715 0.152098625898361
vertex -0.00319261848926544 -0.532073140144348 0.155643701553345
vertex 0.0311871822923422 -0.197852700948715 0.152098625898361
endloop
endfacet
facet normal -4.75368918982302e-16 0.0106064025312662 0.999943733215332
outer loop
vertex -0.00118718296289444 -0.197852700948715 0.152098625898361
vertex 0.0311871822923422 -0.197852700948715 0.152098625898361
vertex 0 0 0.150000005960464
endloop
endfacet
facet normal 0 0.0106064034625888 0.999943733215332
outer loop
vertex 0.0299999993294477 0 0.150000005960464
vertex 0 0 0.150000005960464
vertex 0.0311871822923422 -0.197852700948715 0.152098625898361
endloop
endfacet
facet normal -0.999862194061279 -0.0166047122329473 0
outer loop
vertex 0.196047097444534 -9.99862098693848 0
vertex 0.196047097444534 -9.99862098693848 0.150000005960464
vertex 0.181637465953827 -9.13093662261963 0
endloop
endfacet
facet normal -0.999862194061279 -0.0166047122329473 -0
outer loop
vertex 0.181637465953827 -9.13093662261963 0.150000005960464
vertex 0.181637465953827 -9.13093662261963 0
vertex 0.196047097444534 -9.99862098693848 0.150000005960464
endloop
endfacet
facet normal -0.999862134456635 -0.0166047103703022 -0
outer loop
vertex 0.181637465953827 -9.13093662261963 0.150000005960464
vertex 0.162328094244003 -7.96821165084839 0.150000005960464
vertex 0.181637465953827 -9.13093662261963 0
endloop
endfacet
facet normal -0.999862134456635 -0.0166047103703022 -2.32552267011403e-17
outer loop
vertex 0.162328094244003 -7.96821165084839 0
vertex 0.181637465953827 -9.13093662261963 0
vertex 0.162328094244003 -7.96821165084839 0.150000005960464
endloop
endfacet
facet normal -0.999862134456635 -0.0166047103703022 -2.83331303246702e-16
outer loop
vertex 0.137932226061821 -6.49920082092285 0
vertex 0.162328094244003 -7.96821165084839 0
vertex 0.137932226061821 -6.49920082092285 0.150000005960464
endloop
endfacet
facet normal -0.999862134456635 -0.0166047103703022 -2.3255225046779e-17
outer loop
vertex 0.162328094244003 -7.96821165084839 0.150000005960464
vertex 0.137932226061821 -6.49920082092285 0.150000005960464
vertex 0.162328094244003 -7.96821165084839 0
endloop
endfacet
facet normal -0.999862134456635 -0.0166047103703022 -2.83331303246702e-16
outer loop
vertex 0.137932226061821 -6.49920082092285 0
vertex 0.137932226061821 -6.49920082092285 0.150000005960464
vertex 0.113023549318314 -4.99931049346924 0
endloop
endfacet
facet normal -0.999862134456635 -0.0166047103703022 9.83196339026736e-17
outer loop
vertex 0.113023549318314 -4.99931049346924 0.150000005960464
vertex 0.113023549318314 -4.99931049346924 0
vertex 0.137932226061821 -6.49920082092285 0.150000005960464
endloop
endfacet
facet normal -0.999862134456635 -0.0166047103703022 9.83196339026736e-17
outer loop
vertex 0.113023549318314 -4.99931049346924 0
vertex 0.113023549318314 -4.99931049346924 0.150000005960464
vertex 0.0881148800253868 -3.49942064285278 0
endloop
endfacet
facet normal -0.999862134456635 -0.0166047103703022 1.85011662726583e-16
outer loop
vertex 0.0881148800253868 -3.49942064285278 0.150000005960464
vertex 0.0881148800253868 -3.49942064285278 0
vertex 0.113023549318314 -4.99931049346924 0.150000005960464
endloop
endfacet
facet normal -0.999862134456635 -0.0166047103703022 1.85011662726583e-16
outer loop
vertex 0.0881148800253868 -3.49942064285278 0
vertex 0.0881148800253868 -3.49942064285278 0.150000005960464
vertex 0.0637190118432045 -2.03040981292725 0
endloop
endfacet
facet normal -0.999862134456635 -0.0166047103703022 8.08782196670827e-17
outer loop
vertex 0.0637190118432045 -2.03040981292725 0.150000005960464
vertex 0.0637190118432045 -2.03040981292725 0
vertex 0.0881148800253868 -3.49942064285278 0.150000005960464
endloop
endfacet
facet normal -0.999862134456635 -0.0166047103703022 8.08782130496378e-17
outer loop
vertex 0.0637190118432045 -2.03040981292725 0
vertex 0.0637190118432045 -2.03040981292725 0.150000005960464
vertex 0.0444096401333809 -0.867684721946716 0
endloop
endfacet
facet normal -0.999862134456635 -0.0166047103703022 -9.38305131378198e-18
outer loop
vertex 0.0444096401333809 -0.867684721946716 0.150000005960464
vertex 0.0444096401333809 -0.867684721946716 0
vertex 0.0637190118432045 -2.03040981292725 0.150000005960464
endloop
endfacet
facet normal -0.999862194061279 -0.0166047122329473 -9.38305214096259e-18
outer loop
vertex 0.0444096401333809 -0.867684721946716 0
vertex 0.0444096401333809 -0.867684721946716 0.150000005960464
vertex 0.0299999993294477 0 0
endloop
endfacet
facet normal -0.999862194061279 -0.0166047122329473 -0
outer loop
vertex 0.0299999993294477 0 0.150000005960464
vertex 0.0299999993294477 0 0
vertex 0.0444096401333809 -0.867684721946716 0.150000005960464
endloop
endfacet
facet normal 0.707058072090149 0.0117421140894294 0.707058072090149
outer loop
vertex 0.196069046854973 -9.99974632263184 0.149996742606163
vertex 0.179993972182274 -9.03179550170898 0.149997055530548
vertex 0.0899955481290817 -9.99925708770752 0.256062120199203
endloop
endfacet
facet normal 0.707058072090149 0.0117421131581068 0.707058072090149
outer loop
vertex 0.0841880813241005 -9.03134632110596 0.245795488357544
vertex 0.0899955481290817 -9.99925708770752 0.256062120199203
vertex 0.179993972182274 -9.03179550170898 0.149997055530548
endloop
endfacet
facet normal 0.707058072090149 0.0117421131581068 0.707058072090149
outer loop
vertex 0.179993972182274 -9.03179550170898 0.149997055530548
vertex 0.155936717987061 -7.58320283889771 0.149997532367706
vertex 0.0841880813241005 -9.03134632110596 0.245795488357544
endloop
endfacet
facet normal 0.707058012485504 0.0117421122267842 0.707058012485504
outer loop
vertex 0.0754970759153366 -7.58284664154053 0.230431258678436
vertex 0.0841880813241005 -9.03134632110596 0.245795488357544
vertex 0.155936717987061 -7.58320283889771 0.149997532367706
endloop
endfacet
facet normal 0.707058012485504 0.0117421122267842 0.707058012485504
outer loop
vertex 0.155936717987061 -7.58320283889771 0.149997532367706
vertex 0.130749374628067 -6.06656217575073 0.149998024106026
vertex 0.0754970759153366 -7.58284664154053 0.230431258678436
endloop
endfacet
facet normal 0.707058072090149 0.0117421131581068 0.707058072090149
outer loop
vertex 0.0663976669311523 -6.06627750396729 0.214345008134842
vertex 0.0754970759153366 -7.58284664154053 0.230431258678436
vertex 0.130749374628067 -6.06656217575073 0.149998024106026
endloop
endfacet
facet normal 0.707058072090149 0.0117421131581068 0.707058072090149
outer loop
vertex 0.0663976669311523 -6.06627750396729 0.214345008134842
vertex 0.130749374628067 -6.06656217575073 0.149998024106026
vertex 0.0572982467710972 -4.54970788955688 0.198258757591248
endloop
endfacet
facet normal 0.707058012485504 0.0117421131581068 0.707058012485504
outer loop
vertex 0.105562031269073 -4.54992151260376 0.149998515844345
vertex 0.0572982467710972 -4.54970788955688 0.198258757591248
vertex 0.130749374628067 -6.06656217575073 0.149998024106026
endloop
endfacet
facet normal 0.707058012485504 0.0117421131581068 0.707058012485504
outer loop
vertex 0.105562031269073 -4.54992151260376 0.149998515844345
vertex 0.08037468791008 -3.03328108787537 0.149999007582664
vertex 0.0572982467710972 -4.54970788955688 0.198258757591248
endloop
endfacet
facet normal 0.707058072090149 0.0117421131581068 0.707058072090149
outer loop
vertex 0.0481988303363323 -3.03313875198364 0.182172507047653
vertex 0.0572982467710972 -4.54970788955688 0.198258757591248
vertex 0.08037468791008 -3.03328108787537 0.149999007582664
endloop
endfacet
facet normal 0.707058072090149 0.0117421131581068 0.707058072090149
outer loop
vertex 0.0481988303363323 -3.03313875198364 0.182172507047653
vertex 0.08037468791008 -3.03328108787537 0.149999007582664
vertex 0.0390994176268578 -1.51656937599182 0.166086256504059
endloop
endfacet
facet normal 0.707058072090149 0.0117421131581068 0.707058072090149
outer loop
vertex 0.0551873445510864 -1.51664054393768 0.149999499320984
vertex 0.0390994176268578 -1.51656937599182 0.166086256504059
vertex 0.08037468791008 -3.03328108787537 0.149999007582664
endloop
endfacet
facet normal 0.707058072090149 0.0117421131581068 0.707058072090149
outer loop
vertex 0.0390994176268578 -1.51656937599182 0.166086256504059
vertex 0.0551873445510864 -1.51664054393768 0.149999499320984
vertex 0.0299999993294477 0 0.150000005960464
endloop
endfacet
facet normal 0.707058072090149 0.0117421131581068 -0.707058072090149
outer loop
vertex 0.221231162548065 -11.5150938034058 0
vertex 0.20514702796936 -11.5153579711914 -0.0160885229706764
vertex 0.196047097444534 -9.99862098693848 0
endloop
endfacet
facet normal 0.707058072090149 0.0117421131581068 -0.707058072090149
outer loop
vertex 0.20514702796936 -11.5153579711914 -0.0160885229706764
vertex 0.221231162548065 -11.5150938034058 0
vertex 0.214246958494186 -13.0320949554443 -0.0321770459413528
endloop
endfacet
facet normal 0.707058072090149 0.0117421131581068 -0.707058072090149
outer loop
vertex 0.246415227651596 -13.031566619873 0
vertex 0.214246958494186 -13.0320949554443 -0.0321770459413528
vertex 0.221231162548065 -11.5150938034058 0
endloop
endfacet
facet normal 0.707058072090149 0.0117421131581068 -0.707058072090149
outer loop
vertex 0.214246958494186 -13.0320949554443 -0.0321770459413528
vertex 0.246415227651596 -13.031566619873 0
vertex 0.223346889019012 -14.5488328933716 -0.0482655689120293
endloop
endfacet
facet normal 0.707058012485504 0.0117421131581068 -0.707058012485504
outer loop
vertex 0.271599292755127 -14.5480394363403 0
vertex 0.223346889019012 -14.5488328933716 -0.0482655689120293
vertex 0.246415227651596 -13.031566619873 0
endloop
endfacet
facet normal 0.707058012485504 0.0117421131581068 -0.707058012485504
outer loop
vertex 0.223346889019012 -14.5488328933716 -0.0482655689120293
vertex 0.271599292755127 -14.5480394363403 0
vertex 0.232446819543839 -16.0655689239502 -0.0643540918827057
endloop
endfacet
facet normal 0.707058072090149 0.0117421131581068 -0.707058072090149
outer loop
vertex 0.296783357858658 -16.0645122528076 0
vertex 0.232446819543839 -16.0655689239502 -0.0643540918827057
vertex 0.271599292755127 -14.5480394363403 0
endloop
endfacet
facet normal 0.707058072090149 0.0117421131581068 -0.707058072090149
outer loop
vertex 0.296783357858658 -16.0645122528076 0
vertex 0.321967422962189 -17.5809860229492 0
vertex 0.232446819543839 -16.0655689239502 -0.0643540918827057
endloop
endfacet
facet normal 0.707058012485504 0.0117421122267842 -0.707058012485504
outer loop
vertex 0.241546750068665 -17.5823059082031 -0.0804426148533821
vertex 0.232446819543839 -16.0655689239502 -0.0643540918827057
vertex 0.321967422962189 -17.5809860229492 0
endloop
endfacet
facet normal 0.707058012485504 0.0117421122267842 -0.707058012485504
outer loop
vertex 0.321967422962189 -17.5809860229492 0
vertex 0.346021145582199 -19.0293941497803 0
vertex 0.241546750068665 -17.5823059082031 -0.0804426148533821
endloop
endfacet
facet normal 0.707058072090149 0.0117421131581068 -0.707058072090149
outer loop
vertex 0.250238388776779 -19.0309925079346 -0.0958092957735062
vertex 0.241546750068665 -17.5823059082031 -0.0804426148533821
vertex 0.346021145582199 -19.0293941497803 0
endloop
endfacet
facet normal 0.707058072090149 0.0117421131581068 -0.707058072090149
outer loop
vertex 0.346021145582199 -19.0293941497803 0
vertex 0.362094223499298 -19.997241973877 0
vertex 0.250238388776779 -19.0309925079346 -0.0958092957735062
endloop
endfacet
facet normal 0.707058072090149 0.0117421140894294 -0.707058072090149
outer loop
vertex 0.256046146154404 -19.9990043640137 -0.106077313423157
vertex 0.250238388776779 -19.0309925079346 -0.0958092957735062
vertex 0.362094223499298 -19.997241973877 0
endloop
endfacet
facet normal 0.196676686406136 0.67925488948822 -0.707058072090149
outer loop
vertex 9.76375198364258 -15.2591152191162 -0.131231173872948
vertex 8.31431484222412 -14.8132190704346 -0.106047101318836
vertex 9.7687349319458 -15.2438154220581 -0.115147031843662
endloop
endfacet
facet normal 0.196676686406136 0.67925488948822 -0.707058072090149
outer loop
vertex 11.2131881713867 -15.7050113677979 -0.156415238976479
vertex 9.76375198364258 -15.2591152191162 -0.131231173872948
vertex 11.2231550216675 -15.6744117736816 -0.124246962368488
endloop
endfacet
facet normal 0.196676686406136 0.67925488948822 -0.707058072090149
outer loop
vertex 9.7687349319458 -15.2438154220581 -0.115147031843662
vertex 11.2231550216675 -15.6744117736816 -0.124246962368488
vertex 9.76375198364258 -15.2591152191162 -0.131231173872948
endloop
endfacet
facet normal 0.196676686406136 0.67925488948822 -0.707058072090149
outer loop
vertex 11.2131881713867 -15.7050113677979 -0.156415238976479
vertex 11.2231550216675 -15.6744117736816 -0.124246962368488
vertex 12.6626253128052 -16.1509075164795 -0.181599304080009
endloop
endfacet
facet normal 0.196676686406136 0.67925488948822 -0.707058012485504
outer loop
vertex 12.6775741577148 -16.1050090789795 -0.133346885442734
vertex 12.6626253128052 -16.1509075164795 -0.181599304080009
vertex 11.2231550216675 -15.6744117736816 -0.124246962368488
endloop
endfacet
facet normal 0.196676686406136 0.67925488948822 -0.707058072090149
outer loop
vertex 14.1120615005493 -16.5968036651611 -0.206783354282379
vertex 12.6626253128052 -16.1509075164795 -0.181599304080009
vertex 14.1319942474365 -16.5356044769287 -0.14244681596756
endloop
endfacet
facet normal 0.196676686406136 0.67925488948822 -0.707058012485504
outer loop
vertex 12.6775741577148 -16.1050090789795 -0.133346885442734
vertex 14.1319942474365 -16.5356044769287 -0.14244681596756
vertex 12.6626253128052 -16.1509075164795 -0.181599304080009
endloop
endfacet
facet normal 0.196676686406136 0.67925488948822 -0.707058072090149
outer loop
vertex 14.1120615005493 -16.5968036651611 -0.206783354282379
vertex 14.1319942474365 -16.5356044769287 -0.14244681596756
vertex 15.5614986419678 -17.0426998138428 -0.23196741938591
endloop
endfacet
facet normal 0.196676671504974 0.67925488948822 -0.707058012485504
outer loop
vertex 15.5864143371582 -16.9661998748779 -0.151546746492386
vertex 15.5614986419678 -17.0426998138428 -0.23196741938591
vertex 14.1319942474365 -16.5356044769287 -0.14244681596756
endloop
endfacet
facet normal 0.196676671504974 0.67925488948822 -0.707058012485504
outer loop
vertex 15.5614986419678 -17.0426998138428 -0.23196741938591
vertex 15.5864143371582 -16.9661998748779 -0.151546746492386
vertex 16.9458789825439 -17.4685821533203 -0.25602114200592
endloop
endfacet
facet normal 0.196676671504974 0.67925488948822 -0.707058012485504
outer loop
vertex 16.9755783081055 -17.377477645874 -0.1602383852005
vertex 16.9458789825439 -17.4685821533203 -0.25602114200592
vertex 15.5864143371582 -16.9661998748779 -0.151546746492386
endloop
endfacet
facet normal 0.196676671504974 0.679254949092865 -0.707058072090149
outer loop
vertex 16.9458789825439 -17.4685821533203 -0.25602114200592
vertex 16.9755783081055 -17.377477645874 -0.1602383852005
vertex 17.8709449768066 -17.7531623840332 -0.272094219923019
endloop
endfacet
facet normal 0.196676686406136 0.679254949092865 -0.707058072090149
outer loop
vertex 17.9038181304932 -17.6522922515869 -0.166046142578125
vertex 17.8709449768066 -17.7531623840332 -0.272094219923019
vertex 16.9755783081055 -17.377477645874 -0.1602383852005
endloop
endfacet
endsolid COMSOL mesh mesh1
