solid COMSOL mesh mesh1
facet normal -1 0 0
outer loop
vertex -0.129852995276451 -10.5 0.0149999996647239
vertex -0.129852995276451 -11 0.0149999996647239
vertex -0.129852995276451 -10.5 0.135000005364418
endloop
endfacet
facet normal -1 0 0
outer loop
vertex -0.129852995276451 -11 0.135000005364418
vertex -0.129852995276451 -10.5 0.135000005364418
vertex -0.129852995276451 -11 0.0149999996647239
endloop
endfacet
facet normal -1 0 0
outer loop
vertex -0.129852995276451 -10 0.0149999996647239
vertex -0.129852995276451 -10.5 0.0149999996647239
vertex -0.129852995276451 -10 0.135000005364418
endloop
endfacet
facet normal -1 0 0
outer loop
vertex -0.129852995276451 -10.5 0.135000005364418
vertex -0.129852995276451 -10 0.135000005364418
vertex -0.129852995276451 -10.5 0.0149999996647239
endloop
endfacet
facet normal -0.70710676908493 0 -0.70710676908493
outer loop
vertex -0.129852995276451 -11 0.0149999996647239
vertex -0.129852995276451 -10.5 0.0149999996647239
vertex -0.0450000017881393 -11 -0.0698530003428459
endloop
endfacet
facet normal -0.70710676908493 9.81307769882992e-18 -0.70710676908493
outer loop
vertex -0.0450000017881393 -10.5 -0.0698530003428459
vertex -0.0450000017881393 -11 -0.0698530003428459
vertex -0.129852995276451 -10.5 0.0149999996647239
endloop
endfacet
facet normal -0.70710676908493 -0 -0.70710676908493
outer loop
vertex -0.129852995276451 -10 0.0149999996647239
vertex -0.0450000017881393 -10 -0.0698530003428459
vertex -0.129852995276451 -10.5 0.0149999996647239
endloop
endfacet
facet normal -0.70710676908493 -9.81307769882992e-18 -0.70710676908493
outer loop
vertex -0.0450000017881393 -10.5 -0.0698530003428459
vertex -0.129852995276451 -10.5 0.0149999996647239
vertex -0.0450000017881393 -10 -0.0698530003428459
endloop
endfacet
facet normal -0.70710676908493 0 0.70710676908493
outer loop
vertex -0.129852995276451 -11 0.135000005364418
vertex -0.0450000017881393 -11 0.21985299885273
vertex -0.129852995276451 -10.5 0.135000005364418
endloop
endfacet
facet normal -0.70710676908493 -9.81307769882992e-18 0.70710676908493
outer loop
vertex -0.0450000017881393 -10.5 0.21985299885273
vertex -0.129852995276451 -10.5 0.135000005364418
vertex -0.0450000017881393 -11 0.21985299885273
endloop
endfacet
facet normal -0.70710676908493 9.81307769882992e-18 0.70710676908493
outer loop
vertex -0.0450000017881393 -10.5 0.21985299885273
vertex -0.0450000017881393 -10 0.21985299885273
vertex -0.129852995276451 -10.5 0.135000005364418
endloop
endfacet
facet normal -0.70710676908493 0 0.70710676908493
outer loop
vertex -0.129852995276451 -10 0.135000005364418
vertex -0.129852995276451 -10.5 0.135000005364418
vertex -0.0450000017881393 -10 0.21985299885273
endloop
endfacet
facet normal 0 2.77555756156289e-17 -1
outer loop
vertex 0.0750000029802322 -11 -0.0698530003428459
vertex -0.0450000017881393 -11 -0.0698530003428459
vertex 0.0750000029802322 -10.5 -0.0698530003428459
endloop
endfacet
facet normal 0 2.77555756156289e-17 -1
outer loop
vertex -0.0450000017881393 -10.5 -0.0698530003428459
vertex 0.0750000029802322 -10.5 -0.0698530003428459
vertex -0.0450000017881393 -11 -0.0698530003428459
endloop
endfacet
facet normal 0 -2.77555756156289e-17 -1
outer loop
vertex -0.0450000017881393 -10.5 -0.0698530003428459
vertex -0.0450000017881393 -10 -0.0698530003428459
vertex 0.0750000029802322 -10.5 -0.0698530003428459
endloop
endfacet
facet normal -0 -2.77555756156289e-17 -1
outer loop
vertex 0.0750000029802322 -10 -0.0698530003428459
vertex 0.0750000029802322 -10.5 -0.0698530003428459
vertex -0.0450000017881393 -10 -0.0698530003428459
endloop
endfacet
facet normal 0 -0 1
outer loop
vertex 0.0750000029802322 -11 0.21985299885273
vertex 0.0750000029802322 -10.5 0.21985299885273
vertex -0.0450000017881393 -11 0.21985299885273
endloop
endfacet
facet normal -0 0 1
outer loop
vertex -0.0450000017881393 -10.5 0.21985299885273
vertex -0.0450000017881393 -11 0.21985299885273
vertex 0.0750000029802322 -10.5 0.21985299885273
endloop
endfacet
facet normal 0 -0 1
outer loop
vertex 0.0750000029802322 -10.5 0.21985299885273
vertex 0.0750000029802322 -10 0.21985299885273
vertex -0.0450000017881393 -10.5 0.21985299885273
endloop
endfacet
facet normal -0 0 1
outer loop
vertex -0.0450000017881393 -10 0.21985299885273
vertex -0.0450000017881393 -10.5 0.21985299885273
vertex 0.0750000029802322 -10 0.21985299885273
endloop
endfacet
facet normal 0.70710676908493 1.96261553976598e-17 -0.70710676908493
outer loop
vertex 0.0750000029802322 -11 -0.0698530003428459
vertex 0.0750000029802322 -10.5 -0.0698530003428459
vertex 0.159852996468544 -11 0.0149999996647239
endloop
endfacet
facet normal 0.70710676908493 0 -0.70710676908493
outer loop
vertex 0.159852996468544 -10.5 0.0149999996647239
vertex 0.159852996468544 -11 0.0149999996647239
vertex 0.0750000029802322 -10.5 -0.0698530003428459
endloop
endfacet
facet normal 0.70710676908493 -1.96261553976598e-17 -0.70710676908493
outer loop
vertex 0.0750000029802322 -10.5 -0.0698530003428459
vertex 0.0750000029802322 -10 -0.0698530003428459
vertex 0.159852996468544 -10.5 0.0149999996647239
endloop
endfacet
facet normal 0.70710676908493 0 -0.70710676908493
outer loop
vertex 0.159852996468544 -10 0.0149999996647239
vertex 0.159852996468544 -10.5 0.0149999996647239
vertex 0.0750000029802322 -10 -0.0698530003428459
endloop
endfacet
facet normal 0.70710676908493 -0 0.70710676908493
outer loop
vertex 0.159852996468544 -11 0.135000005364418
vertex 0.159852996468544 -10.5 0.135000005364418
vertex 0.0750000029802322 -11 0.21985299885273
endloop
endfacet
facet normal 0.70710676908493 0 0.70710676908493
outer loop
vertex 0.0750000029802322 -10.5 0.21985299885273
vertex 0.0750000029802322 -11 0.21985299885273
vertex 0.159852996468544 -10.5 0.135000005364418
endloop
endfacet
facet normal 0.70710676908493 -0 0.70710676908493
outer loop
vertex 0.0750000029802322 -10.5 0.21985299885273
vertex 0.159852996468544 -10.5 0.135000005364418
vertex 0.0750000029802322 -10 0.21985299885273
endloop
endfacet
facet normal 0.70710676908493 0 0.70710676908493
outer loop
vertex 0.159852996468544 -10 0.135000005364418
vertex 0.0750000029802322 -10 0.21985299885273
vertex 0.159852996468544 -10.5 0.135000005364418
endloop
endfacet
facet normal 1 0 0
outer loop
vertex 0.159852996468544 -11 0.0149999996647239
vertex 0.159852996468544 -10.5 0.0149999996647239
vertex 0.159852996468544 -11 0.135000005364418
endloop
endfacet
facet normal 1 0 0
outer loop
vertex 0.159852996468544 -10.5 0.135000005364418
vertex 0.159852996468544 -11 0.135000005364418
vertex 0.159852996468544 -10.5 0.0149999996647239
endloop
endfacet
facet normal 1 0 0
outer loop
vertex 0.159852996468544 -10.5 0.0149999996647239
vertex 0.159852996468544 -10 0.0149999996647239
vertex 0.159852996468544 -10.5 0.135000005364418
endloop
endfacet
facet normal 1 0 0
outer loop
vertex 0.159852996468544 -10 0.135000005364418
vertex 0.159852996468544 -10.5 0.135000005364418
vertex 0.159852996468544 -10 0.0149999996647239
endloop
endfacet
facet normal -0.70707893371582 -0.0081211319193244 0.707088053226471
outer loop
vertex -0.0449985675513744 -10.9996461868286 0.219852894544601
vertex -0.129850581288338 -10.9998569488525 0.134999543428421
vertex -0.0460045374929905 -11.670220375061 0.211145177483559
endloop
endfacet
facet normal -0.707078874111176 -0.0081211319193244 0.707088053226471
outer loop
vertex -0.125166475772858 -11.6704244613647 0.131981924176216
vertex -0.0460045374929905 -11.670220375061 0.211145177483559
vertex -0.129850581288338 -10.9998569488525 0.134999543428421
endloop
endfacet
facet normal -0.707078874111176 -0.0081211319193244 0.707088053226471
outer loop
vertex -0.0460045374929905 -11.670220375061 0.211145177483559
vertex -0.125166475772858 -11.6704244613647 0.131981924176216
vertex -0.0473762489855289 -12.5845937728882 0.199271604418755
endloop
endfacet
facet normal -0.70707893371582 -0.00812113285064697 0.707088053226471
outer loop
vertex -0.118779517710209 -12.5847673416138 0.12786728143692
vertex -0.0473762489855289 -12.5845937728882 0.199271604418755
vertex -0.125166475772858 -11.6704244613647 0.131981924176216
endloop
endfacet
facet normal -0.707078874111176 -0.0081211319193244 0.707088053226471
outer loop
vertex -0.0473762489855289 -12.5845937728882 0.199271604418755
vertex -0.118779517710209 -12.5847673416138 0.12786728143692
vertex -0.0489542186260223 -13.6364593505859 0.185612663626671
endloop
endfacet
facet normal -0.707078874111176 -0.0081211319193244 0.707088053226471
outer loop
vertex -0.111432075500488 -13.6366100311279 0.12313386797905
vertex -0.0489542186260223 -13.6364593505859 0.185612663626671
vertex -0.118779517710209 -12.5847673416138 0.12786728143692
endloop
endfacet
facet normal -0.707078874111176 -0.0081211319193244 0.707088053226471
outer loop
vertex -0.0489542186260223 -13.6364593505859 0.185612663626671
vertex -0.111432075500488 -13.6366100311279 0.12313386797905
vertex -0.0505321845412254 -14.6883239746094 0.171953707933426
endloop
endfacet
facet normal -0.707078874111176 -0.0081211319193244 0.707088053226471
outer loop
vertex -0.104084640741348 -14.6884536743164 0.118400454521179
vertex -0.0505321845412254 -14.6883239746094 0.171953707933426
vertex -0.111432075500488 -13.6366100311279 0.12313386797905
endloop
endfacet
facet normal -0.707078874111176 -0.0081211319193244 0.707088053226471
outer loop
vertex -0.0505321845412254 -14.6883239746094 0.171953707933426
vertex -0.104084640741348 -14.6884536743164 0.118400454521179
vertex -0.0521101541817188 -15.7401885986328 0.158294752240181
endloop
endfacet
facet normal -0.707078874111176 -0.0081211319193244 0.707088053226471
outer loop
vertex -0.0967371985316277 -15.7402963638306 0.113667048513889
vertex -0.0521101541817188 -15.7401885986328 0.158294752240181
vertex -0.104084640741348 -14.6884536743164 0.118400454521179
endloop
endfacet
facet normal -0.707078874111176 -0.0081211319193244 0.707088053226471
outer loop
vertex -0.0521101541817188 -15.7401885986328 0.158294752240181
vertex -0.0967371985316277 -15.7402963638306 0.113667048513889
vertex -0.0536881238222122 -16.7920532226563 0.144635796546936
endloop
endfacet
facet normal -0.707078874111176 -0.0081211319193244 0.707088053226471
outer loop
vertex -0.089389756321907 -16.7921390533447 0.108933635056019
vertex -0.0536881238222122 -16.7920532226563 0.144635796546936
vertex -0.0967371985316277 -15.7402963638306 0.113667048513889
endloop
endfacet
facet normal -0.707078874111176 -0.0081211319193244 0.707088053226471
outer loop
vertex -0.089389756321907 -16.7921390533447 0.108933635056019
vertex -0.082042321562767 -17.8439826965332 0.104200229048729
vertex -0.0536881238222122 -16.7920532226563 0.144635796546936
endloop
endfacet
facet normal -0.707078874111176 -0.0081211319193244 0.707088053226471
outer loop
vertex -0.0552660934627056 -17.8439178466797 0.130976855754852
vertex -0.0536881238222122 -16.7920532226563 0.144635796546936
vertex -0.082042321562767 -17.8439826965332 0.104200229048729
endloop
endfacet
facet normal -0.707078874111176 -0.0081211319193244 0.707088053226471
outer loop
vertex -0.082042321562767 -17.8439826965332 0.104200229048729
vertex -0.0746948793530464 -18.8958263397217 0.0994668155908585
vertex -0.0552660934627056 -17.8439178466797 0.130976855754852
endloop
endfacet
facet normal -0.707078874111176 -0.0081211319193244 0.707088053226471
outer loop
vertex -0.056844063103199 -18.8957824707031 0.117317900061607
vertex -0.0552660934627056 -17.8439178466797 0.130976855754852
vertex -0.0746948793530464 -18.8958263397217 0.0994668155908585
endloop
endfacet
facet normal -0.707078874111176 -0.0081211319193244 0.707088053226471
outer loop
vertex -0.0746948793530464 -18.8958263397217 0.0994668155908585
vertex -0.0673474371433258 -19.9476680755615 0.0947334095835686
vertex -0.056844063103199 -18.8957824707031 0.117317900061607
endloop
endfacet
facet normal -0.707078874111176 -0.0081211319193244 0.707088053226471
outer loop
vertex -0.0584220327436924 -19.9476470947266 0.103658951818943
vertex -0.056844063103199 -18.8957824707031 0.117317900061607
vertex -0.0673474371433258 -19.9476680755615 0.0947334095835686
endloop
endfacet
facet normal -0.707078874111176 -0.0081211319193244 0.707088053226471
outer loop
vertex -0.0673474371433258 -19.9476680755615 0.0947334095835686
vertex -0.0599999986588955 -20.99951171875 0.0900000035762787
vertex -0.0584220327436924 -19.9476470947266 0.103658951818943
endloop
endfacet
facet normal -0.999975562095642 -0.00698512932285666 5.60690494819669e-16
outer loop
vertex -0.0614627525210381 -20.7901077270508 0.0590576566755772
vertex -0.0599999986588955 -20.99951171875 0.0599999986588955
vertex -0.0614627525210381 -20.7901077270508 0.090942345559597
endloop
endfacet
facet normal -0.999975621700287 -0.00698512978851795 -0
outer loop
vertex -0.0599999986588955 -20.99951171875 0.0900000035762787
vertex -0.0614627525210381 -20.7901077270508 0.090942345559597
vertex -0.0599999986588955 -20.99951171875 0.0599999986588955
endloop
endfacet
facet normal -0.999975621700287 -0.00698513025417924 3.91197269780172e-16
outer loop
vertex -0.0642487481236458 -20.3912715911865 0.0572628490626812
vertex -0.0614627525210381 -20.7901077270508 0.0590576566755772
vertex -0.0642487481236458 -20.3912715911865 0.092737153172493
endloop
endfacet
facet normal -0.999975621700287 -0.00698512978851795 5.60690494819669e-16
outer loop
vertex -0.0614627525210381 -20.7901077270508 0.090942345559597
vertex -0.0642487481236458 -20.3912715911865 0.092737153172493
vertex -0.0614627525210381 -20.7901077270508 0.0590576566755772
endloop
endfacet
facet normal -0.999975621700287 -0.00698512978851795 3.91197269780172e-16
outer loop
vertex -0.0642487481236458 -20.3912715911865 0.0572628490626812
vertex -0.0642487481236458 -20.3912715911865 0.092737153172493
vertex -0.0695550069212914 -19.6316375732422 0.0538444183766842
endloop
endfacet
facet normal -0.999975681304932 -0.00698513025417924 6.55971113473937e-16
outer loop
vertex -0.0695550069212914 -19.6316375732422 0.09615558385849
vertex -0.0695550069212914 -19.6316375732422 0.0538444183766842
vertex -0.0642487481236458 -20.3912715911865 0.092737153172493
endloop
endfacet
facet normal -0.999975621700287 -0.00698512978851795 -2.64022578409109e-16
outer loop
vertex -0.0775106325745583 -18.4927291870117 0.048719197511673
vertex -0.0695550069212914 -19.6316375732422 0.0538444183766842
vertex -0.0775106325745583 -18.4927291870117 0.101280800998211
endloop
endfacet
facet normal -0.999975562095642 -0.00698512978851795 6.55971060534378e-16
outer loop
vertex -0.0695550069212914 -19.6316375732422 0.09615558385849
vertex -0.0775106325745583 -18.4927291870117 0.101280800998211
vertex -0.0695550069212914 -19.6316375732422 0.0538444183766842
endloop
endfacet
facet normal -0.999975562095642 -0.00698512932285666 2.20617447053136e-16
outer loop
vertex -0.0855366736650467 -17.3437385559082 0.0435486175119877
vertex -0.0775106325745583 -18.4927291870117 0.048719197511673
vertex -0.0855366736650467 -17.3437385559082 0.106451384723186
endloop
endfacet
facet normal -0.999975621700287 -0.00698512978851795 -2.64022578409109e-16
outer loop
vertex -0.0775106325745583 -18.4927291870117 0.101280800998211
vertex -0.0855366736650467 -17.3437385559082 0.106451384723186
vertex -0.0775106325745583 -18.4927291870117 0.048719197511673
endloop
endfacet
facet normal -0.999975562095642 -0.00698512932285666 2.20617447053136e-16
outer loop
vertex -0.0855366736650467 -17.3437385559082 0.0435486175119877
vertex -0.0855366736650467 -17.3437385559082 0.106451384723186
vertex -0.0935627147555351 -16.1947479248047 0.0383780337870121
endloop
endfacet
facet normal -0.999975681304932 -0.00698512978851795 7.5787574153397e-16
outer loop
vertex -0.0935627147555351 -16.1947479248047 0.111621968448162
vertex -0.0935627147555351 -16.1947479248047 0.0383780337870121
vertex -0.0855366736650467 -17.3437385559082 0.106451384723186
endloop
endfacet
facet normal -0.999975621700287 -0.00698513025417924 3.32055602988085e-16
outer loop
vertex -0.101588763296604 -15.0457572937012 0.0332074500620365
vertex -0.0935627147555351 -16.1947479248047 0.0383780337870121
vertex -0.101588763296604 -15.0457572937012 0.116792544722557
endloop
endfacet
facet normal -0.999975681304932 -0.00698512978851795 7.5787574153397e-16
outer loop
vertex -0.0935627147555351 -16.1947479248047 0.111621968448162
vertex -0.101588763296604 -15.0457572937012 0.116792544722557
vertex -0.0935627147555351 -16.1947479248047 0.0383780337870121
endloop
endfacet
facet normal -0.999975562095642 -0.00698512885719538 -2.79852830099904e-16
outer loop
vertex -0.109614804387093 -13.896767616272 0.0280368700623512
vertex -0.101588763296604 -15.0457572937012 0.0332074500620365
vertex -0.109614804387093 -13.896767616272 0.121963128447533
endloop
endfacet
facet normal -0.999975621700287 -0.00698513025417924 3.32055602988085e-16
outer loop
vertex -0.101588763296604 -15.0457572937012 0.116792544722557
vertex -0.109614804387093 -13.896767616272 0.121963128447533
vertex -0.101588763296604 -15.0457572937012 0.0332074500620365
endloop
endfacet
facet normal -0.999975562095642 -0.00698512885719538 -2.79852830099904e-16
outer loop
vertex -0.109614804387093 -13.896767616272 0.0280368700623512
vertex -0.109614804387093 -13.896767616272 0.121963128447533
vertex -0.117640845477581 -12.7477769851685 0.0228662863373756
endloop
endfacet
facet normal -0.999975621700287 -0.00698512978851795 5.0419450896855e-16
outer loop
vertex -0.117640845477581 -12.7477769851685 0.127133712172508
vertex -0.117640845477581 -12.7477769851685 0.0228662863373756
vertex -0.109614804387093 -13.896767616272 0.121963128447533
endloop
endfacet
facet normal -0.999975621700287 -0.00698512932285666 5.0419450896855e-16
outer loop
vertex -0.117640845477581 -12.7477769851685 0.0228662863373756
vertex -0.117640845477581 -12.7477769851685 0.127133712172508
vertex -0.124782882630825 -11.7253389358521 0.018265200778842
endloop
endfacet
facet normal -0.999975621700287 -0.00698512932285666 -1.22301035846129e-16
outer loop
vertex -0.124782882630825 -11.7253389358521 0.131734803318977
vertex -0.124782882630825 -11.7253389358521 0.018265200778842
vertex -0.117640845477581 -12.7477769851685 0.127133712172508
endloop
endfacet
facet normal -0.999975681304932 -0.00698512932285666 -1.22301035846129e-16
outer loop
vertex -0.124782882630825 -11.7253389358521 0.018265200778842
vertex -0.124782882630825 -11.7253389358521 0.131734803318977
vertex -0.129851296544075 -10.999755859375 0.0149999996647239
endloop
endfacet
facet normal -0.999975621700287 -0.00698512978851795 -0
outer loop
vertex -0.129851296544075 -10.999755859375 0.135000005364418
vertex -0.129851296544075 -10.999755859375 0.0149999996647239
vertex -0.124782882630825 -11.7253389358521 0.131734803318977
endloop
endfacet
facet normal -0.707083463668823 -0.0081210657954216 -0.707083463668823
outer loop
vertex -0.129856884479523 -10.9991369247437 0.0149995842948556
vertex -0.0450012795627117 -11.0003662109375 -0.0698419064283371
vertex -0.125172391533852 -11.6697463989258 0.018017241731286
endloop
endfacet
facet normal -0.707083404064178 -0.00812106486409903 -0.707083404064178
outer loop
vertex -0.0460070818662643 -11.6709003448486 -0.0611348226666451
vertex -0.125172391533852 -11.6697463989258 0.018017241731286
vertex -0.0450012795627117 -11.0003662109375 -0.0698419064283371
endloop
endfacet
facet normal -0.707083463668823 -0.0081210657954216 -0.707083463668823
outer loop
vertex -0.125172391533852 -11.6697463989258 0.018017241731286
vertex -0.0460070818662643 -11.6709003448486 -0.0611348226666451
vertex -0.11878477782011 -12.5841674804688 0.0221320185810328
endloop
endfacet
facet normal -0.707083463668823 -0.00812106486409903 -0.707083463668823
outer loop
vertex -0.0473785288631916 -12.5851974487305 -0.0492624044418335
vertex -0.11878477782011 -12.5841674804688 0.0221320185810328
vertex -0.0460070818662643 -11.6709003448486 -0.0611348226666451
endloop
endfacet
facet normal -0.707083463668823 -0.0081210657954216 -0.707083463668823
outer loop
vertex -0.11878477782011 -12.5841674804688 0.0221320185810328
vertex -0.0473785288631916 -12.5851974487305 -0.0492624044418335
vertex -0.111436679959297 -13.6360855102539 0.026865515857935
endloop
endfacet
facet normal -0.707083463668823 -0.0081210657954216 -0.707083463668823
outer loop
vertex -0.048956211656332 -13.6369867324829 -0.0356046035885811
vertex -0.111436679959297 -13.6360855102539 0.026865515857935
vertex -0.0473785288631916 -12.5851974487305 -0.0492624044418335
endloop
endfacet
facet normal -0.707083463668823 -0.0081210657954216 -0.707083463668823
outer loop
vertex -0.111436679959297 -13.6360855102539 0.026865515857935
vertex -0.048956211656332 -13.6369867324829 -0.0356046035885811
vertex -0.104088582098484 -14.6880035400391 0.0315990149974823
endloop
endfacet
facet normal -0.707083463668823 -0.00812106672674417 -0.707083463668823
outer loop
vertex -0.0505338944494724 -14.6887760162354 -0.0219468027353287
vertex -0.104088582098484 -14.6880035400391 0.0315990149974823
vertex -0.048956211656332 -13.6369867324829 -0.0356046035885811
endloop
endfacet
facet normal -0.707083463668823 -0.00812106672674417 -0.707083463668823
outer loop
vertex -0.104088582098484 -14.6880035400391 0.0315990149974823
vertex -0.0505338944494724 -14.6887760162354 -0.0219468027353287
vertex -0.0967404842376709 -15.7399215698242 0.0363325104117393
endloop
endfacet
facet normal -0.707083523273468 -0.0081210657954216 -0.707083523273468
outer loop
vertex -0.0521115809679031 -15.7405652999878 -0.00828900188207626
vertex -0.0967404842376709 -15.7399215698242 0.0363325104117393
vertex -0.0505338944494724 -14.6887760162354 -0.0219468027353287
endloop
endfacet
facet normal -0.707083523273468 -0.0081210657954216 -0.707083523273468
outer loop
vertex -0.0521115809679031 -15.7405652999878 -0.00828900188207626
vertex -0.0536892637610435 -16.7923545837402 0.00536879850551486
vertex -0.0967404842376709 -15.7399215698242 0.0363325104117393
endloop
endfacet
facet normal -0.707083463668823 -0.0081210657954216 -0.707083463668823
outer loop
vertex -0.0893923863768578 -16.7918395996094 0.0410660095512867
vertex -0.0967404842376709 -15.7399215698242 0.0363325104117393
vertex -0.0536892637610435 -16.7923545837402 0.00536879850551486
endloop
endfacet
facet normal -0.707083463668823 -0.0081210657954216 -0.707083463668823
outer loop
vertex -0.0536892637610435 -16.7923545837402 0.00536879850551486
vertex -0.055266946554184 -17.844144821167 0.0190265998244286
vertex -0.0893923863768578 -16.7918395996094 0.0410660095512867
endloop
endfacet
facet normal -0.707083463668823 -0.00812106672674417 -0.707083463668823
outer loop
vertex -0.0820442885160446 -17.8437576293945 0.045799508690834
vertex -0.0893923863768578 -16.7918395996094 0.0410660095512867
vertex -0.055266946554184 -17.844144821167 0.0190265998244286
endloop
endfacet
facet normal -0.707083463668823 -0.00812106672674417 -0.707083463668823
outer loop
vertex -0.055266946554184 -17.844144821167 0.0190265998244286
vertex -0.0568446330726147 -18.8959331512451 0.032684400677681
vertex -0.0820442885160446 -17.8437576293945 0.045799508690834
endloop
endfacet
facet normal -0.707083463668823 -0.0081210657954216 -0.707083463668823
outer loop
vertex -0.0746961906552315 -18.8956756591797 0.0505330041050911
vertex -0.0820442885160446 -17.8437576293945 0.045799508690834
vertex -0.0568446330726147 -18.8959331512451 0.032684400677681
endloop
endfacet
facet normal -0.707083463668823 -0.0081210657954216 -0.707083463668823
outer loop
vertex -0.0568446330726147 -18.8959331512451 0.032684400677681
vertex -0.0584223158657551 -19.9477233886719 0.0463421978056431
vertex -0.0746961906552315 -18.8956756591797 0.0505330041050911
endloop
endfacet
facet normal -0.707083463668823 -0.0081210657954216 -0.707083463668823
outer loop
vertex -0.0673481002449989 -19.9475936889648 0.0552665032446384
vertex -0.0746961906552315 -18.8956756591797 0.0505330041050911
vertex -0.0584223158657551 -19.9477233886719 0.0463421978056431
endloop
endfacet
facet normal -0.707083463668823 -0.0081210657954216 -0.707083463668823
outer loop
vertex -0.0584223158657551 -19.9477233886719 0.0463421978056431
vertex -0.0599999986588955 -20.99951171875 0.0599999986588955
vertex -0.0673481002449989 -19.9475936889648 0.0552665032446384
endloop
endfacet
facet normal -0.707088053226471 0.0081211319193244 -0.70707893371582
outer loop
vertex -0.129852890968323 -9.99986553192139 0.0150014320388436
vertex -0.12114517390728 -9.32929134368896 0.013995461165905
vertex -0.0449995435774326 -9.99965476989746 -0.0698505863547325
endloop
endfacet
facet normal -0.707088053226471 0.0081211319193244 -0.707078874111176
outer loop
vertex -0.0419819205999374 -9.32908821105957 -0.0651664808392525
vertex -0.0449995435774326 -9.99965476989746 -0.0698505863547325
vertex -0.12114517390728 -9.32929134368896 0.013995461165905
endloop
endfacet
facet normal -0.707088053226471 0.0081211319193244 -0.707078874111176
outer loop
vertex -0.12114517390728 -9.32929134368896 0.013995461165905
vertex -0.109271608293056 -8.41491794586182 0.0126237515360117
vertex -0.0419819205999374 -9.32908821105957 -0.0651664808392525
endloop
endfacet
facet normal -0.707088053226471 0.00812113285064697 -0.70707893371582
outer loop
vertex -0.0378672741353512 -8.41474437713623 -0.0587795153260231
vertex -0.0419819205999374 -9.32908821105957 -0.0651664808392525
vertex -0.109271608293056 -8.41491794586182 0.0126237515360117
endloop
endfacet
facet normal -0.707088053226471 0.0081211319193244 -0.707078874111176
outer loop
vertex -0.109271608293056 -8.41491794586182 0.0126237515360117
vertex -0.0956126600503922 -7.36305332183838 0.0110457828268409
vertex -0.0378672741353512 -8.41474437713623 -0.0587795153260231
endloop
endfacet
facet normal -0.707088053226471 0.0081211319193244 -0.707078874111176
outer loop
vertex -0.033133864402771 -7.36290168762207 -0.0514320768415928
vertex -0.0378672741353512 -8.41474437713623 -0.0587795153260231
vertex -0.0956126600503922 -7.36305332183838 0.0110457828268409
endloop
endfacet
facet normal -0.707088053226471 0.0081211319193244 -0.707078874111176
outer loop
vertex -0.0956126600503922 -7.36305332183838 0.0110457828268409
vertex -0.0819537043571472 -6.31118822097778 0.00946781318634748
vertex -0.033133864402771 -7.36290168762207 -0.0514320768415928
endloop
endfacet
facet normal -0.707088053226471 0.0081211319193244 -0.707078874111176
outer loop
vertex -0.028400456532836 -6.31105852127075 -0.0440846383571625
vertex -0.033133864402771 -7.36290168762207 -0.0514320768415928
vertex -0.0819537043571472 -6.31118822097778 0.00946781318634748
endloop
endfacet
facet normal -0.707088053226471 0.0081211319193244 -0.707078874111176
outer loop
vertex -0.0819537043571472 -6.31118822097778 0.00946781318634748
vertex -0.0682947561144829 -5.25932359695435 0.00788984447717667
vertex -0.028400456532836 -6.31105852127075 -0.0440846383571625
endloop
endfacet
facet normal -0.707088053226471 0.0081211319193244 -0.707078874111176
outer loop
vertex -0.0236670468002558 -5.25921535491943 -0.0367371961474419
vertex -0.028400456532836 -6.31105852127075 -0.0440846383571625
vertex -0.0682947561144829 -5.25932359695435 0.00788984447717667
endloop
endfacet
facet normal -0.707088053226471 0.0081211319193244 -0.707078874111176
outer loop
vertex -0.0682947561144829 -5.25932359695435 0.00788984447717667
vertex -0.0546358041465282 -4.20745897293091 0.00631187576800585
vertex -0.0236670468002558 -5.25921535491943 -0.0367371961474419
endloop
endfacet
facet normal -0.707088053226471 0.0081211319193244 -0.707078874111176
outer loop
vertex -0.0189336370676756 -4.20737218856812 -0.0293897576630116
vertex -0.0236670468002558 -5.25921535491943 -0.0367371961474419
vertex -0.0546358041465282 -4.20745897293091 0.00631187576800585
endloop
endfacet
facet normal -0.707088053226471 0.0081211319193244 -0.707078874111176
outer loop
vertex -0.0189336370676756 -4.20737218856812 -0.0293897576630116
vertex -0.0546358041465282 -4.20745897293091 0.00631187576800585
vertex -0.014200228266418 -3.15552926063538 -0.0220423191785812
endloop
endfacet
facet normal -0.707088053226471 0.0081211319193244 -0.707078874111176
outer loop
vertex -0.0409768521785736 -3.15559411048889 0.00473390659317374
vertex -0.014200228266418 -3.15552926063538 -0.0220423191785812
vertex -0.0546358041465282 -4.20745897293091 0.00631187576800585
endloop
endfacet
facet normal -0.707088053226471 0.0081211319193244 -0.707078874111176
outer loop
vertex -0.0409768521785736 -3.15559411048889 0.00473390659317374
vertex -0.0273179020732641 -2.10372948646545 0.00315593788400292
vertex -0.014200228266418 -3.15552926063538 -0.0220423191785812
endloop
endfacet
facet normal -0.707088053226471 0.0081211319193244 -0.707078874111176
outer loop
vertex -0.0094668185338378 -2.10368609428406 -0.0146948788315058
vertex -0.014200228266418 -3.15552926063538 -0.0220423191785812
vertex -0.0273179020732641 -2.10372948646545 0.00315593788400292
endloop
endfacet
facet normal -0.707088053226471 0.0081211319193244 -0.707078874111176
outer loop
vertex -0.0094668185338378 -2.10368609428406 -0.0146948788315058
vertex -0.0273179020732641 -2.10372948646545 0.00315593788400292
vertex -0.0047334092669189 -1.05184304714203 -0.00734743941575289
endloop
endfacet
facet normal -0.707088053226471 0.0081211319193244 -0.707078874111176
outer loop
vertex -0.0136589510366321 -1.05186474323273 0.00157796894200146
vertex -0.0047334092669189 -1.05184304714203 -0.00734743941575289
vertex -0.0273179020732641 -2.10372948646545 0.00315593788400292
endloop
endfacet
facet normal -0.707088053226471 0.0081211319193244 -0.707078874111176
outer loop
vertex -0.0047334092669189 -1.05184304714203 -0.00734743941575289
vertex -0.0136589510366321 -1.05186474323273 0.00157796894200146
vertex 0 0 0
endloop
endfacet
facet normal 0.707086503505707 -0.0081211356446147 -0.70708042383194
outer loop
vertex -0.0419819131493568 -9.32908725738525 0.215166464447975
vertex -0.0449995435774326 -9.99965476989746 0.219850584864616
vertex -0.121145509183407 -9.32929039001465 0.136004537343979
endloop
endfacet
facet normal 0.707086503505707 -0.0081211356446147 -0.70708042383194
outer loop
vertex -0.129853263497353 -9.99986553192139 0.134998559951782
vertex -0.121145509183407 -9.32929039001465 0.136004537343979
vertex -0.0449995435774326 -9.99965476989746 0.219850584864616
endloop
endfacet
facet normal 0.707086503505707 -0.0081211356446147 -0.70708042383194
outer loop
vertex -0.121145509183407 -9.32929039001465 0.136004537343979
vertex -0.1092718988657 -8.41491603851318 0.137376248836517
vertex -0.0419819131493568 -9.32908725738525 0.215166464447975
endloop
endfacet
facet normal 0.707086503505707 -0.0081211356446147 -0.70708042383194
outer loop
vertex -0.0378672666847706 -8.41474342346191 0.208779498934746
vertex -0.0419819131493568 -9.32908725738525 0.215166464447975
vertex -0.1092718988657 -8.41491603851318 0.137376248836517
endloop
endfacet
facet normal 0.707086503505707 -0.0081211356446147 -0.70708042383194
outer loop
vertex -0.1092718988657 -8.41491603851318 0.137376248836517
vertex -0.0956129133701324 -7.3630518913269 0.138954222202301
vertex -0.0378672666847706 -8.41474342346191 0.208779498934746
endloop
endfacet
facet normal 0.707086503505707 -0.0081211356446147 -0.70708042383194
outer loop
vertex -0.0331338606774807 -7.3629002571106 0.201432064175606
vertex -0.0378672666847706 -8.41474342346191 0.208779498934746
vertex -0.0956129133701324 -7.3630518913269 0.138954222202301
endloop
endfacet
facet normal 0.707086503505707 -0.0081211356446147 -0.70708042383194
outer loop
vertex -0.0956129133701324 -7.3630518913269 0.138954222202301
vertex -0.0819539278745651 -6.31118726730347 0.140532180666924
vertex -0.0331338606774807 -7.3629002571106 0.201432064175606
endloop
endfacet
facet normal 0.707086443901062 -0.0081211356446147 -0.70708042383194
outer loop
vertex -0.0284004509449005 -6.31105756759644 0.194084629416466
vertex -0.0331338606774807 -7.3629002571106 0.201432064175606
vertex -0.0819539278745651 -6.31118726730347 0.140532180666924
endloop
endfacet
facet normal 0.707086443901062 -0.0081211356446147 -0.70708042383194
outer loop
vertex -0.0819539278745651 -6.31118726730347 0.140532180666924
vertex -0.0682949349284172 -5.25932264328003 0.142110154032707
vertex -0.0284004509449005 -6.31105756759644 0.194084629416466
endloop
endfacet
facet normal 0.707086503505707 -0.0081211356446147 -0.707080483436584
outer loop
vertex -0.0236670430749655 -5.25921440124512 0.186737194657326
vertex -0.0284004509449005 -6.31105756759644 0.194084629416466
vertex -0.0682949349284172 -5.25932264328003 0.142110154032707
endloop
endfacet
facet normal 0.707086503505707 -0.0081211356446147 -0.707080483436584
outer loop
vertex -0.0682949349284172 -5.25932264328003 0.142110154032707
vertex -0.0546359494328499 -4.20745801925659 0.143688127398491
vertex -0.0236670430749655 -5.25921440124512 0.186737194657326
endloop
endfacet
facet normal 0.707086503505707 -0.0081211356446147 -0.70708042383194
outer loop
vertex -0.0189336333423853 -4.20737171173096 0.179389759898186
vertex -0.0236670430749655 -5.25921440124512 0.186737194657326
vertex -0.0546359494328499 -4.20745801925659 0.143688127398491
endloop
endfacet
facet normal 0.707086503505707 -0.0081211356446147 -0.70708042383194
outer loop
vertex -0.0189336333423853 -4.20737171173096 0.179389759898186
vertex -0.0546359494328499 -4.20745801925659 0.143688127398491
vertex -0.0142002254724503 -3.15552878379822 0.172042310237885
endloop
endfacet
facet normal 0.707086443901062 -0.0081211356446147 -0.70708042383194
outer loop
vertex -0.0409769639372826 -3.15559363365173 0.145266100764275
vertex -0.0142002254724503 -3.15552878379822 0.172042310237885
vertex -0.0546359494328499 -4.20745801925659 0.143688127398491
endloop
endfacet
facet normal 0.707086443901062 -0.0081211356446147 -0.70708042383194
outer loop
vertex -0.0409769639372826 -3.15559363365173 0.145266100764275
vertex -0.0273179747164249 -2.1037290096283 0.146844059228897
vertex -0.0142002254724503 -3.15552878379822 0.172042310237885
endloop
endfacet
facet normal 0.707086503505707 -0.0081211356446147 -0.70708042383194
outer loop
vertex -0.00946681667119265 -2.10368585586548 0.164694875478745
vertex -0.0142002254724503 -3.15552878379822 0.172042310237885
vertex -0.0273179747164249 -2.1037290096283 0.146844059228897
endloop
endfacet
facet normal 0.707086503505707 -0.0081211356446147 -0.70708042383194
outer loop
vertex -0.00946681667119265 -2.10368585586548 0.164694875478745
vertex -0.0273179747164249 -2.1037290096283 0.146844059228897
vertex -0.00473340833559632 -1.05184292793274 0.157347440719604
endloop
endfacet
facet normal 0.707086503505707 -0.0081211356446147 -0.70708042383194
outer loop
vertex -0.0136589873582125 -1.05186450481415 0.148422032594681
vertex -0.00473340833559632 -1.05184292793274 0.157347440719604
vertex -0.0273179747164249 -2.1037290096283 0.146844059228897
endloop
endfacet
facet normal 0.707086503505707 -0.0081211356446147 -0.70708042383194
outer loop
vertex -0.00473340833559632 -1.05184292793274 0.157347440719604
vertex -0.0136589873582125 -1.05186450481415 0.148422032594681
vertex 0 0 0.150000005960464
endloop
endfacet
facet normal -0.999915719032288 0.0129843689501286 0
outer loop
vertex -0.129843682050705 -9.9991569519043 0.0149999996647239
vertex -0.129843682050705 -9.9991569519043 0.135000005364418
vertex -0.120912149548531 -9.31134700775146 0.0139681976288557
endloop
endfacet
facet normal -0.999915719032288 0.0129843689501286 1.13683507929221e-16
outer loop
vertex -0.120912149548531 -9.31134700775146 0.136031806468964
vertex -0.120912149548531 -9.31134700775146 0.0139681976288557
vertex -0.129843682050705 -9.9991569519043 0.135000005364418
endloop
endfacet
facet normal -0.999915659427643 0.012984368018806 7.35727524029165e-17
outer loop
vertex -0.108693733811378 -8.37041568756104 0.0125566823408008
vertex -0.120912149548531 -9.31134700775146 0.0139681976288557
vertex -0.108693733811378 -8.37041568756104 0.137443318963051
endloop
endfacet
facet normal -0.999915719032288 0.0129843689501286 1.13683507929221e-16
outer loop
vertex -0.120912149548531 -9.31134700775146 0.136031806468964
vertex -0.108693733811378 -8.37041568756104 0.137443318963051
vertex -0.120912149548531 -9.31134700775146 0.0139681976288557
endloop
endfacet
facet normal -0.999915659427643 0.0129843670874834 7.35727524029165e-17
outer loop
vertex -0.108693733811378 -8.37041568756104 0.0125566823408008
vertex -0.108693733811378 -8.37041568756104 0.137443318963051
vertex -0.0945482179522514 -7.28108167648315 0.0109225437045097
endloop
endfacet
facet normal -0.999915659427643 0.012984368018806 -1.8291782375075e-17
outer loop
vertex -0.0945482179522514 -7.28108167648315 0.139077454805374
vertex -0.0945482179522514 -7.28108167648315 0.0109225437045097
vertex -0.108693733811378 -8.37041568756104 0.137443318963051
endloop
endfacet
facet normal -0.999915719032288 0.0129843689501286 -3.56737951165173e-17
outer loop
vertex -0.080402709543705 -6.19174718856812 0.00928840413689613
vertex -0.0945482179522514 -7.28108167648315 0.0109225437045097
vertex -0.080402709543705 -6.19174718856812 0.140711590647697
endloop
endfacet
facet normal -0.999915659427643 0.012984368018806 -1.8291782375075e-17
outer loop
vertex -0.0945482179522514 -7.28108167648315 0.139077454805374
vertex -0.080402709543705 -6.19174718856812 0.140711590647697
vertex -0.0945482179522514 -7.28108167648315 0.0109225437045097
endloop
endfacet
facet normal -0.999915719032288 0.0129843689501286 -3.56737951165173e-17
outer loop
vertex -0.080402709543705 -6.19174718856812 0.00928840413689613
vertex -0.080402709543705 -6.19174718856812 0.140711590647697
vertex -0.0662571936845779 -5.10241317749023 0.00765426456928253
endloop
endfacet
facet normal -0.999915719032288 0.0129843689501286 -1.74040868832688e-17
outer loop
vertex -0.0662571936845779 -5.10241317749023 0.142345741391182
vertex -0.0662571936845779 -5.10241317749023 0.00765426456928253
vertex -0.080402709543705 -6.19174718856812 0.140711590647697
endloop
endfacet
facet normal -0.999915719032288 0.0129843698814511 1.83494229671357e-16
outer loop
vertex -0.0521116852760315 -4.0130786895752 0.00602012546733022
vertex -0.0662571936845779 -5.10241317749023 0.00765426456928253
vertex -0.0521116852760315 -4.0130786895752 0.143979877233505
endloop
endfacet
facet normal -0.999915719032288 0.0129843689501286 -1.74040868832688e-17
outer loop
vertex -0.0662571936845779 -5.10241317749023 0.142345741391182
vertex -0.0521116852760315 -4.0130786895752 0.143979877233505
vertex -0.0662571936845779 -5.10241317749023 0.00765426456928253
endloop
endfacet
facet normal -0.999915719032288 0.0129843698814511 1.83494229671357e-16
outer loop
vertex -0.0521116852760315 -4.0130786895752 0.00602012546733022
vertex -0.0521116852760315 -4.0130786895752 0.143979877233505
vertex -0.0379661731421947 -2.92374420166016 0.00438598589971662
endloop
endfacet
facet normal -0.999915659427643 0.012984368018806 3.18625869139588e-17
outer loop
vertex -0.0379661731421947 -2.92374420166016 0.145614013075829
vertex -0.0379661731421947 -2.92374420166016 0.00438598589971662
vertex -0.0521116852760315 -4.0130786895752 0.143979877233505
endloop
endfacet
facet normal -0.999915778636932 0.0129843689501286 -4.05578193504295e-18
outer loop
vertex -0.0238206628710032 -1.83440983295441 0.0027518467977643
vertex -0.0379661731421947 -2.92374420166016 0.00438598589971662
vertex -0.0238206628710032 -1.83440983295441 0.147248148918152
endloop
endfacet
facet normal -0.999915659427643 0.012984368018806 3.18625869139588e-17
outer loop
vertex -0.0379661731421947 -2.92374420166016 0.145614013075829
vertex -0.0238206628710032 -1.83440983295441 0.147248148918152
vertex -0.0379661731421947 -2.92374420166016 0.00438598589971662
endloop
endfacet
facet normal -0.999915659427643 0.0129843670874834 -4.29121738971024e-18
outer loop
vertex -0.010609389282763 -0.81702047586441 0.0012256340123713
vertex -0.0238206628710032 -1.83440983295441 0.0027518467977643
vertex -0.010609389282763 -0.81702047586441 0.148774370551109
endloop
endfacet
facet normal -0.999915659427643 0.012984368018806 -4.05578110786233e-18
outer loop
vertex -0.0238206628710032 -1.83440983295441 0.147248148918152
vertex -0.010609389282763 -0.81702047586441 0.148774370551109
vertex -0.0238206628710032 -1.83440983295441 0.0027518467977643
endloop
endfacet
facet normal -0.999915719032288 0.012984368018806 -4.29121821689085e-18
outer loop
vertex -0.010609389282763 -0.81702047586441 0.0012256340123713
vertex -0.010609389282763 -0.81702047586441 0.148774370551109
vertex 0 0 0
endloop
endfacet
facet normal -0.999915659427643 0.012984368018806 0
outer loop
vertex 0 0 0.150000005960464
vertex 0 0 0
vertex -0.010609389282763 -0.81702047586441 0.148774370551109
endloop
endfacet
facet normal -1.38766178435561e-16 0.0129842050373554 0.999915659427643
outer loop
vertex 0.0900000035762787 -20.99951171875 0.0599999986588955
vertex 0.0887743681669235 -20.1824913024902 0.0493907444179058
vertex -0.0599999986588955 -20.99951171875 0.0599999986588955
endloop
endfacet
facet normal -6.35539672934538e-17 0.0129842050373554 0.999915719032288
outer loop
vertex -0.0587743669748306 -20.1824913024902 0.0493907444179058
vertex -0.0599999986588955 -20.99951171875 0.0599999986588955
vertex 0.0887743681669235 -20.1824913024902 0.0493907444179058
endloop
endfacet
facet normal -6.35539606760089e-17 0.0129842041060328 0.999915659427643
outer loop
vertex 0.0887743681669235 -20.1824913024902 0.0493907444179058
vertex 0.0872481539845467 -19.1651020050049 0.0361796393990517
vertex -0.0587743669748306 -20.1824913024902 0.0493907444179058
endloop
endfacet
facet normal 7.91550899545715e-17 0.0129842041060328 0.999915659427643
outer loop
vertex -0.0572481527924538 -19.1651020050049 0.0361796393990517
vertex -0.0587743669748306 -20.1824913024902 0.0493907444179058
vertex 0.0872481539845467 -19.1651020050049 0.0361796393990517
endloop
endfacet
facet normal 7.91550965720164e-17 0.012984205968678 0.999915778636932
outer loop
vertex -0.0572481527924538 -19.1651020050049 0.0361796393990517
vertex 0.0872481539845467 -19.1651020050049 0.0361796393990517
vertex -0.0556140132248402 -18.0757675170898 0.0220343042165041
endloop
endfacet
facet normal -1.22821021431515e-16 0.0129842050373554 0.999915659427643
outer loop
vertex 0.0856140106916428 -18.0757675170898 0.0220343042165041
vertex -0.0556140132248402 -18.0757675170898 0.0220343042165041
vertex 0.0872481539845467 -19.1651020050049 0.0361796393990517
endloop
endfacet
facet normal -1.22821021431515e-16 0.0129842050373554 0.999915659427643
outer loop
vertex 0.0856140106916428 -18.0757675170898 0.0220343042165041
vertex 0.0839798748493195 -16.9864330291748 0.0078889699652791
vertex -0.0556140132248402 -18.0757675170898 0.0220343042165041
endloop
endfacet
facet normal -4.22378299574057e-16 0.012984205968678 0.999915719032288
outer loop
vertex -0.0539798736572266 -16.9864330291748 0.0078889699652791
vertex -0.0556140132248402 -18.0757675170898 0.0220343042165041
vertex 0.0839798748493195 -16.9864330291748 0.0078889699652791
endloop
endfacet
facet normal -4.22378299574057e-16 0.012984205968678 0.999915719032288
outer loop
vertex -0.0539798736572266 -16.9864330291748 0.0078889699652791
vertex 0.0839798748493195 -16.9864330291748 0.0078889699652791
vertex -0.052345734089613 -15.8970994949341 -0.00625636335462332
endloop
endfacet
facet normal -3.38656080759784e-16 0.012984205968678 0.999915719032288
outer loop
vertex 0.0823457390069962 -15.8970994949341 -0.00625636335462332
vertex -0.052345734089613 -15.8970994949341 -0.00625636335462332
vertex 0.0839798748493195 -16.9864330291748 0.0078889699652791
endloop
endfacet
facet normal -3.38656080759784e-16 0.012984205968678 0.999915719032288
outer loop
vertex 0.0823457390069962 -15.8970994949341 -0.00625636335462332
vertex 0.0807115957140923 -14.807765007019 -0.0204016976058483
vertex -0.052345734089613 -15.8970994949341 -0.00625636335462332
endloop
endfacet
facet normal -1.58380933630018e-16 0.0129842050373554 0.999915719032288
outer loop
vertex -0.0507115945219994 -14.807765007019 -0.0204016976058483
vertex -0.052345734089613 -15.8970994949341 -0.00625636335462332
vertex 0.0807115957140923 -14.807765007019 -0.0204016976058483
endloop
endfacet
facet normal -1.58380933630018e-16 0.0129842050373554 0.999915719032288
outer loop
vertex -0.0507115945219994 -14.807765007019 -0.0204016976058483
vertex 0.0807115957140923 -14.807765007019 -0.0204016976058483
vertex -0.0490774549543858 -13.718430519104 -0.0345470309257507
endloop
endfacet
facet normal 3.77502626377422e-16 0.0129842050373554 0.999915659427643
outer loop
vertex 0.079077459871769 -13.718430519104 -0.0345470309257507
vertex -0.0490774549543858 -13.718430519104 -0.0345470309257507
vertex 0.0807115957140923 -14.807765007019 -0.0204016976058483
endloop
endfacet
facet normal 3.77502626377422e-16 0.0129842050373554 0.999915659427643
outer loop
vertex 0.079077459871769 -13.718430519104 -0.0345470309257507
vertex 0.0774433165788651 -12.629096031189 -0.0486923642456532
vertex -0.0490774549543858 -13.718430519104 -0.0345470309257507
endloop
endfacet
facet normal 1.84684125673792e-16 0.0129842050373554 0.999915659427643
outer loop
vertex -0.0474433191120625 -12.629096031189 -0.0486923642456532
vertex -0.0490774549543858 -13.718430519104 -0.0345470309257507
vertex 0.0774433165788651 -12.629096031189 -0.0486923642456532
endloop
endfacet
facet normal 1.84684138908682e-16 0.0129842050373554 0.999915659427643
outer loop
vertex -0.0474433191120625 -12.629096031189 -0.0486923642456532
vertex 0.0774433165788651 -12.629096031189 -0.0486923642456532
vertex -0.0460318028926849 -11.6881656646729 -0.060910627245903
endloop
endfacet
facet normal 1.32113687546944e-16 0.012984205968678 0.999915719032288
outer loop
vertex 0.0760318040847778 -11.6881656646729 -0.060910627245903
vertex -0.0460318028926849 -11.6881656646729 -0.060910627245903
vertex 0.0774433165788651 -12.629096031189 -0.0486923642456532
endloop
endfacet
facet normal 1.32113687546944e-16 0.0129842069000006 0.999915719032288
outer loop
vertex 0.0760318040847778 -11.6881656646729 -0.060910627245903
vertex 0.0750000029802322 -11.0003547668457 -0.069842055439949
vertex -0.0460318028926849 -11.6881656646729 -0.060910627245903
endloop
endfacet
facet normal -0 0.0129842050373554 0.999915719032288
outer loop
vertex -0.0450000017881393 -11.0003547668457 -0.069842055439949
vertex -0.0460318028926849 -11.6881656646729 -0.060910627245903
vertex 0.0750000029802322 -11.0003547668457 -0.069842055439949
endloop
endfacet
facet normal 0 -0.0129843689501286 0.999915719032288
outer loop
vertex -0.0450000017881393 -11.0003547668457 0.219843685626984
vertex -0.0460318028926849 -11.6881656646729 0.210912153124809
vertex 0.0750000029802322 -11.0003547668457 0.219843685626984
endloop
endfacet
facet normal -6.0528265020699e-16 -0.0129843689501286 0.999915719032288
outer loop
vertex 0.0760318040847778 -11.6881656646729 0.210912153124809
vertex 0.0750000029802322 -11.0003547668457 0.219843685626984
vertex -0.0460318028926849 -11.6881656646729 0.210912153124809
endloop
endfacet
facet normal 3.69372910028794e-16 -0.012984368018806 0.999915659427643
outer loop
vertex -0.0474433191120625 -12.629096031189 0.198693737387657
vertex 0.0774433165788651 -12.629096031189 0.198693737387657
vertex -0.0460318028926849 -11.6881656646729 0.210912153124809
endloop
endfacet
facet normal -6.0528265020699e-16 -0.0129843689501286 0.999915719032288
outer loop
vertex 0.0760318040847778 -11.6881656646729 0.210912153124809
vertex -0.0460318028926849 -11.6881656646729 0.210912153124809
vertex 0.0774433165788651 -12.629096031189 0.198693737387657
endloop
endfacet
facet normal 3.69372910028794e-16 -0.0129843670874834 0.999915659427643
outer loop
vertex -0.0474433191120625 -12.629096031189 0.198693737387657
vertex -0.0490774549543858 -13.718430519104 0.18454821407795
vertex 0.0774433165788651 -12.629096031189 0.198693737387657
endloop
endfacet
facet normal 0 -0.012984368018806 0.999915659427643
outer loop
vertex 0.079077459871769 -13.718430519104 0.18454821407795
vertex 0.0774433165788651 -12.629096031189 0.198693737387657
vertex -0.0490774549543858 -13.718430519104 0.18454821407795
endloop
endfacet
facet normal 2.11174564938468e-16 -0.0129843689501286 0.999915719032288
outer loop
vertex -0.0507115945219994 -14.807765007019 0.170402705669403
vertex 0.0807115957140923 -14.807765007019 0.170402705669403
vertex -0.0490774549543858 -13.718430519104 0.18454821407795
endloop
endfacet
facet normal 0 -0.012984368018806 0.999915659427643
outer loop
vertex 0.079077459871769 -13.718430519104 0.18454821407795
vertex -0.0490774549543858 -13.718430519104 0.18454821407795
vertex 0.0807115957140923 -14.807765007019 0.170402705669403
endloop
endfacet
facet normal 2.11174564938468e-16 -0.0129843689501286 0.999915719032288
outer loop
vertex -0.0507115945219994 -14.807765007019 0.170402705669403
vertex -0.052345734089613 -15.8970994949341 0.156257197260857
vertex 0.0807115957140923 -14.807765007019 0.170402705669403
endloop
endfacet
facet normal 5.13726805998713e-16 -0.0129843689501286 0.999915719032288
outer loop
vertex 0.0823457390069962 -15.8970994949341 0.156257197260857
vertex 0.0807115957140923 -14.807765007019 0.170402705669403
vertex -0.052345734089613 -15.8970994949341 0.156257197260857
endloop
endfacet
facet normal -7.36709235215033e-16 -0.0129843698814511 0.999915719032288
outer loop
vertex -0.0539798736572266 -16.9864330291748 0.14211168885231
vertex 0.0839798748493195 -16.9864330291748 0.14211168885231
vertex -0.052345734089613 -15.8970994949341 0.156257197260857
endloop
endfacet
facet normal 5.13726805998713e-16 -0.0129843689501286 0.999915719032288
outer loop
vertex 0.0823457390069962 -15.8970994949341 0.156257197260857
vertex -0.052345734089613 -15.8970994949341 0.156257197260857
vertex 0.0839798748493195 -16.9864330291748 0.14211168885231
endloop
endfacet
facet normal -7.36709235215033e-16 -0.0129843698814511 0.999915719032288
outer loop
vertex -0.0539798736572266 -16.9864330291748 0.14211168885231
vertex -0.0556140132248402 -18.0757675170898 0.127966180443764
vertex 0.0839798748493195 -16.9864330291748 0.14211168885231
endloop
endfacet
facet normal 1.30119401412193e-16 -0.012984368018806 0.999915659427643
outer loop
vertex 0.0856140106916428 -18.0757675170898 0.127966180443764
vertex 0.0839798748493195 -16.9864330291748 0.14211168885231
vertex -0.0556140132248402 -18.0757675170898 0.127966180443764
endloop
endfacet
facet normal -9.60344184203203e-17 -0.0129843689501286 0.999915778636932
outer loop
vertex -0.0572481527924538 -19.1651020050049 0.113820664584637
vertex 0.0872481539845467 -19.1651020050049 0.113820664584637
vertex -0.0556140132248402 -18.0757675170898 0.127966180443764
endloop
endfacet
facet normal 1.30119401412193e-16 -0.012984368018806 0.999915659427643
outer loop
vertex 0.0856140106916428 -18.0757675170898 0.127966180443764
vertex -0.0556140132248402 -18.0757675170898 0.127966180443764
vertex 0.0872481539845467 -19.1651020050049 0.113820664584637
endloop
endfacet
facet normal -9.60344118028754e-17 -0.012984368018806 0.999915659427643
outer loop
vertex -0.0572481527924538 -19.1651020050049 0.113820664584637
vertex -0.0587743669748306 -20.1824913024902 0.100609391927719
vertex 0.0872481539845467 -19.1651020050049 0.113820664584637
endloop
endfacet
facet normal -4.70238440420783e-16 -0.0129843670874834 0.999915659427643
outer loop
vertex 0.0887743681669235 -20.1824913024902 0.100609391927719
vertex 0.0872481539845467 -19.1651020050049 0.113820664584637
vertex -0.0587743669748306 -20.1824913024902 0.100609391927719
endloop
endfacet
facet normal -4.70238493360342e-16 -0.012984368018806 0.999915719032288
outer loop
vertex -0.0587743669748306 -20.1824913024902 0.100609391927719
vertex -0.0599999986588955 -20.99951171875 0.0900000035762787
vertex 0.0887743681669235 -20.1824913024902 0.100609391927719
endloop
endfacet
facet normal -1.85021562424154e-16 -0.012984368018806 0.999915659427643
outer loop
vertex 0.0900000035762787 -20.99951171875 0.0900000035762787
vertex 0.0887743681669235 -20.1824913024902 0.100609391927719
vertex -0.0599999986588955 -20.99951171875 0.0900000035762787
endloop
endfacet
facet normal 0 0.00698512978851795 -0.999975621700287
outer loop
vertex 0.0750000029802322 -9.999755859375 -0.0698512941598892
vertex -0.0450000017881393 -9.999755859375 -0.0698512941598892
vertex 0.0717348009347916 -9.27417373657227 -0.0647828802466393
endloop
endfacet
facet normal 1.92804352606433e-16 0.00698512932285666 -0.999975681304932
outer loop
vertex -0.0417347997426987 -9.27417373657227 -0.0647828802466393
vertex 0.0717348009347916 -9.27417373657227 -0.0647828802466393
vertex -0.0450000017881393 -9.999755859375 -0.0698512941598892
endloop
endfacet
facet normal 1.92804365841323e-16 0.00698512932285666 -0.999975621700287
outer loop
vertex -0.0417347997426987 -9.27417373657227 -0.0647828802466393
vertex -0.0371337123215199 -8.25173473358154 -0.0576408430933952
vertex 0.0717348009347916 -9.27417373657227 -0.0647828802466393
endloop
endfacet
facet normal -1.33094776692991e-16 0.00698512932285666 -0.999975621700287
outer loop
vertex 0.0671337097883224 -8.25173473358154 -0.0576408430933952
vertex 0.0717348009347916 -9.27417373657227 -0.0647828802466393
vertex -0.0371337123215199 -8.25173473358154 -0.0576408430933952
endloop
endfacet
facet normal -1.33094776692991e-16 0.00698512978851795 -0.999975621700287
outer loop
vertex 0.0671337097883224 -8.25173473358154 -0.0576408430933952
vertex -0.0371337123215199 -8.25173473358154 -0.0576408430933952
vertex 0.0619631297886372 -7.10274457931519 -0.0496148020029068
endloop
endfacet
facet normal 6.6052251266711e-17 0.00698512885719538 -0.999975562095642
outer loop
vertex -0.0319631323218346 -7.10274457931519 -0.0496148020029068
vertex 0.0619631297886372 -7.10274457931519 -0.0496148020029068
vertex -0.0371337123215199 -8.25173473358154 -0.0576408430933952
endloop
endfacet
facet normal 6.6052251266711e-17 0.00698512885719538 -0.999975562095642
outer loop
vertex -0.0319631323218346 -7.10274457931519 -0.0496148020029068
vertex -0.026792548596859 -5.95375442504883 -0.0415887609124184
vertex 0.0619631297886372 -7.10274457931519 -0.0496148020029068
endloop
endfacet
facet normal 2.31462420158417e-16 0.00698513025417924 -0.999975621700287
outer loop
vertex 0.0567925497889519 -5.95375442504883 -0.0415887609124184
vertex 0.0619631297886372 -7.10274457931519 -0.0496148020029068
vertex -0.026792548596859 -5.95375442504883 -0.0415887609124184
endloop
endfacet
facet normal 2.31462420158417e-16 0.00698513025417924 -0.999975621700287
outer loop
vertex 0.0567925497889519 -5.95375442504883 -0.0415887609124184
vertex -0.026792548596859 -5.95375442504883 -0.0415887609124184
vertex 0.0516219660639763 -4.80476427078247 -0.0335627198219299
endloop
endfacet
facet normal 0 0.00698512978851795 -0.999975681304932
outer loop
vertex -0.0216219648718834 -4.80476427078247 -0.0335627198219299
vertex 0.0516219660639763 -4.80476427078247 -0.0335627198219299
vertex -0.026792548596859 -5.95375442504883 -0.0415887609124184
endloop
endfacet
facet normal 0 0.00698512978851795 -0.999975681304932
outer loop
vertex -0.0216219648718834 -4.80476427078247 -0.0335627198219299
vertex -0.016451383009553 -3.65577387809753 -0.0255366768687963
vertex 0.0516219660639763 -4.80476427078247 -0.0335627198219299
endloop
endfacet
facet normal -7.26738585399776e-17 0.00698512932285666 -0.999975562095642
outer loop
vertex 0.0464513823390007 -3.65577387809753 -0.0255366768687963
vertex 0.0516219660639763 -4.80476427078247 -0.0335627198219299
vertex -0.016451383009553 -3.65577387809753 -0.0255366768687963
endloop
endfacet
facet normal -7.26738585399776e-17 0.00698512932285666 -0.999975562095642
outer loop
vertex 0.0464513823390007 -3.65577387809753 -0.0255366768687963
vertex -0.016451383009553 -3.65577387809753 -0.0255366768687963
vertex 0.0412808023393154 -2.5067834854126 -0.0175106339156628
endloop
endfacet
facet normal -1.39775672963843e-17 0.00698512978851795 -0.999975621700287
outer loop
vertex -0.0112808011472225 -2.5067834854126 -0.0175106339156628
vertex 0.0412808023393154 -2.5067834854126 -0.0175106339156628
vertex -0.016451383009553 -3.65577387809753 -0.0255366768687963
endloop
endfacet
facet normal -1.39775656420231e-17 0.00698512978851795 -0.999975621700287
outer loop
vertex -0.0112808011472225 -2.5067834854126 -0.0175106339156628
vertex -0.00615558167919517 -1.36787366867065 -0.00955500733107328
vertex 0.0412808023393154 -2.5067834854126 -0.0175106339156628
endloop
endfacet
facet normal -1.30228627303358e-17 0.00698512978851795 -0.999975562095642
outer loop
vertex 0.0361555814743042 -1.36787366867065 -0.00955500733107328
vertex 0.0412808023393154 -2.5067834854126 -0.0175106339156628
vertex -0.00615558167919517 -1.36787366867065 -0.00955500733107328
endloop
endfacet
facet normal -1.30228635575164e-17 0.00698513025417924 -0.999975681304932
outer loop
vertex 0.0361555814743042 -1.36787366867065 -0.00955500733107328
vertex -0.00615558167919517 -1.36787366867065 -0.00955500733107328
vertex 0.0327371507883072 -0.608241081237793 -0.00424874620512128
endloop
endfacet
facet normal -2.07102947044188e-17 0.00698512978851795 -0.999975621700287
outer loop
vertex -0.00273715145885944 -0.608241081237793 -0.00424874620512128
vertex 0.0327371507883072 -0.608241081237793 -0.00424874620512128
vertex -0.00615558167919517 -1.36787366867065 -0.00955500733107328
endloop
endfacet
facet normal -2.07102947044188e-17 0.00698513025417924 -0.999975621700287
outer loop
vertex -0.00273715145885944 -0.608241081237793 -0.00424874620512128
vertex -0.000942343613132834 -0.209404572844505 -0.00146275386214256
vertex 0.0327371507883072 -0.608241081237793 -0.00424874620512128
endloop
endfacet
facet normal -2.1601765862131e-18 0.00698512978851795 -0.999975621700287
outer loop
vertex 0.0309423431754112 -0.209404572844505 -0.00146275386214256
vertex 0.0327371507883072 -0.608241081237793 -0.00424874620512128
vertex -0.000942343613132834 -0.209404572844505 -0.00146275386214256
endloop
endfacet
facet normal -2.16017637941794e-18 0.00698512932285666 -0.999975562095642
outer loop
vertex 0.0309423431754112 -0.209404572844505 -0.00146275386214256
vertex -0.000942343613132834 -0.209404572844505 -0.00146275386214256
vertex 0.0299999993294477 0 0
endloop
endfacet
facet normal 0 0.00698512978851795 -0.999975621700287
outer loop
vertex 0 0 0
vertex 0.0299999993294477 0 0
vertex -0.000942343613132834 -0.209404572844505 -0.00146275386214256
endloop
endfacet
facet normal -1.82416370319808e-17 0.00698512932285666 0.999975562095642
outer loop
vertex -0.000942343613132834 -0.209404572844505 0.151462748646736
vertex 0.0309423431754112 -0.209404572844505 0.151462748646736
vertex 0 0 0.150000005960464
endloop
endfacet
facet normal 0 0.00698512978851795 0.999975621700287
outer loop
vertex 0.0299999993294477 0 0.150000005960464
vertex 0 0 0.150000005960464
vertex 0.0309423431754112 -0.209404572844505 0.151462748646736
endloop
endfacet
facet normal -1.82416370319808e-17 0.00698512978851795 0.999975621700287
outer loop
vertex -0.000942343613132834 -0.209404572844505 0.151462748646736
vertex -0.00273715145885944 -0.608241081237793 0.154248744249344
vertex 0.0309423431754112 -0.209404572844505 0.151462748646736
endloop
endfacet
facet normal -9.57282861548038e-16 0.00698513025417924 0.999975621700287
outer loop
vertex 0.0327371507883072 -0.608241081237793 0.154248744249344
vertex 0.0309423431754112 -0.209404572844505 0.151462748646736
vertex -0.00273715145885944 -0.608241081237793 0.154248744249344
endloop
endfacet
facet normal -1.09971716910124e-16 0.00698513025417924 0.999975681304932
outer loop
vertex -0.00615558167919517 -1.36787366867065 0.159555003046989
vertex 0.0361555814743042 -1.36787366867065 0.159555003046989
vertex -0.00273715145885944 -0.608241081237793 0.154248744249344
endloop
endfacet
facet normal -9.57282861548038e-16 0.00698512978851795 0.999975621700287
outer loop
vertex 0.0327371507883072 -0.608241081237793 0.154248744249344
vertex -0.00273715145885944 -0.608241081237793 0.154248744249344
vertex 0.0361555814743042 -1.36787366867065 0.159555003046989
endloop
endfacet
facet normal -1.09971703675235e-16 0.00698512978851795 0.999975562095642
outer loop
vertex -0.00615558167919517 -1.36787366867065 0.159555003046989
vertex -0.0112808011472225 -2.5067834854126 0.167510628700256
vertex 0.0361555814743042 -1.36787366867065 0.159555003046989
endloop
endfacet
facet normal -6.4607888038075e-16 0.00698512978851795 0.999975621700287
outer loop
vertex 0.0412808023393154 -2.5067834854126 0.167510628700256
vertex 0.0361555814743042 -1.36787366867065 0.159555003046989
vertex -0.0112808011472225 -2.5067834854126 0.167510628700256
endloop
endfacet
facet normal -1.47943595130604e-16 0.00698512932285666 0.999975562095642
outer loop
vertex -0.016451383009553 -3.65577387809753 0.175536677241325
vertex 0.0464513823390007 -3.65577387809753 0.175536677241325
vertex -0.0112808011472225 -2.5067834854126 0.167510628700256
endloop
endfacet
facet normal -6.46078827441191e-16 0.00698512978851795 0.999975621700287
outer loop
vertex 0.0412808023393154 -2.5067834854126 0.167510628700256
vertex -0.0112808011472225 -2.5067834854126 0.167510628700256
vertex 0.0464513823390007 -3.65577387809753 0.175536677241325
endloop
endfacet
facet normal -1.47943595130604e-16 0.00698512932285666 0.999975562095642
outer loop
vertex -0.016451383009553 -3.65577387809753 0.175536677241325
vertex -0.0216219648718834 -4.80476427078247 0.183562725782394
vertex 0.0464513823390007 -3.65577387809753 0.175536677241325
endloop
endfacet
facet normal -7.5787574153397e-16 0.00698512978851795 0.999975681304932
outer loop
vertex 0.0516219660639763 -4.80476427078247 0.183562725782394
vertex 0.0464513823390007 -3.65577387809753 0.175536677241325
vertex -0.0216219648718834 -4.80476427078247 0.183562725782394
endloop
endfacet
facet normal -1.48448519411396e-16 0.00698513025417924 0.999975621700287
outer loop
vertex -0.026792548596859 -5.95375442504883 0.191588759422302
vertex 0.0567925497889519 -5.95375442504883 0.191588759422302
vertex -0.0216219648718834 -4.80476427078247 0.183562725782394
endloop
endfacet
facet normal -7.5787574153397e-16 0.00698512978851795 0.999975681304932
outer loop
vertex 0.0516219660639763 -4.80476427078247 0.183562725782394
vertex -0.0216219648718834 -4.80476427078247 0.183562725782394
vertex 0.0567925497889519 -5.95375442504883 0.191588759422302
endloop
endfacet
facet normal -1.48448519411396e-16 0.00698513025417924 0.999975621700287
outer loop
vertex -0.026792548596859 -5.95375442504883 0.191588759422302
vertex -0.0319631323218346 -7.10274457931519 0.199614807963371
vertex 0.0567925497889519 -5.95375442504883 0.191588759422302
endloop
endfacet
facet normal -6.57045574767529e-16 0.00698512885719538 0.999975562095642
outer loop
vertex 0.0619631297886372 -7.10274457931519 0.199614807963371
vertex 0.0567925497889519 -5.95375442504883 0.191588759422302
vertex -0.0319631323218346 -7.10274457931519 0.199614807963371
endloop
endfacet
facet normal 2.66189553385982e-16 0.00698512978851795 0.999975621700287
outer loop
vertex -0.0371337123215199 -8.25173473358154 0.207640841603279
vertex 0.0671337097883224 -8.25173473358154 0.207640841603279
vertex -0.0319631323218346 -7.10274457931519 0.199614807963371
endloop
endfacet
facet normal -6.57045574767529e-16 0.00698512885719538 0.999975562095642
outer loop
vertex 0.0619631297886372 -7.10274457931519 0.199614807963371
vertex -0.0319631323218346 -7.10274457931519 0.199614807963371
vertex 0.0671337097883224 -8.25173473358154 0.207640841603279
endloop
endfacet
facet normal 2.66189553385982e-16 0.00698512932285666 0.999975621700287
outer loop
vertex -0.0371337123215199 -8.25173473358154 0.207640841603279
vertex -0.0417347997426987 -9.27417373657227 0.214782878756523
vertex 0.0671337097883224 -8.25173473358154 0.207640841603279
endloop
endfacet
facet normal 5.17977157771031e-17 0.00698512932285666 0.999975621700287
outer loop
vertex 0.0717348009347916 -9.27417373657227 0.214782878756523
vertex 0.0671337097883224 -8.25173473358154 0.207640841603279
vertex -0.0417347997426987 -9.27417373657227 0.214782878756523
endloop
endfacet
facet normal 5.17977190858256e-17 0.00698512932285666 0.999975681304932
outer loop
vertex -0.0417347997426987 -9.27417373657227 0.214782878756523
vertex -0.0450000017881393 -9.999755859375 0.219851300120354
vertex 0.0717348009347916 -9.27417373657227 0.214782878756523
endloop
endfacet
facet normal 0 0.00698512978851795 0.999975621700287
outer loop
vertex 0.0750000029802322 -9.999755859375 0.219851300120354
vertex 0.0717348009347916 -9.27417373657227 0.214782878756523
vertex -0.0450000017881393 -9.999755859375 0.219851300120354
endloop
endfacet
facet normal -0.999915659427643 -0.0129842050373554 -0
outer loop
vertex 0.0299999993294477 0 0.150000005960464
vertex 0.0299999993294477 0 0
vertex 0.0406092554330826 -0.81702047586441 0.148774370551109
endloop
endfacet
facet normal -0.999915719032288 -0.0129842050373554 9.76990052521588e-18
outer loop
vertex 0.0406092554330826 -0.81702047586441 0.0012256340123713
vertex 0.0406092554330826 -0.81702047586441 0.148774370551109
vertex 0.0299999993294477 0 0
endloop
endfacet
facet normal -0.999915659427643 -0.0129842041060328 9.76989969803526e-18
outer loop
vertex 0.0406092554330826 -0.81702047586441 0.0012256340123713
vertex 0.053820364177227 -1.83440983295441 0.0027518467977643
vertex 0.0406092554330826 -0.81702047586441 0.148774370551109
endloop
endfacet
facet normal -0.999915659427643 -0.0129842041060328 2.80646334535359e-17
outer loop
vertex 0.053820364177227 -1.83440983295441 0.147248148918152
vertex 0.0406092554330826 -0.81702047586441 0.148774370551109
vertex 0.053820364177227 -1.83440983295441 0.0027518467977643
endloop
endfacet
facet normal -0.999915778636932 -0.012984205968678 2.80646367622583e-17
outer loop
vertex 0.053820364177227 -1.83440983295441 0.0027518467977643
vertex 0.0679656937718391 -2.92374420166016 0.00438598589971662
vertex 0.053820364177227 -1.83440983295441 0.147248148918152
endloop
endfacet
facet normal -0.999915659427643 -0.0129842050373554 3.31991718175016e-17
outer loop
vertex 0.0679656937718391 -2.92374420166016 0.145614013075829
vertex 0.053820364177227 -1.83440983295441 0.147248148918152
vertex 0.0679656937718391 -2.92374420166016 0.00438598589971662
endloop
endfacet
facet normal -0.999915659427643 -0.0129842050373554 3.31991718175016e-17
outer loop
vertex 0.0679656937718391 -2.92374420166016 0.145614013075829
vertex 0.0679656937718391 -2.92374420166016 0.00438598589971662
vertex 0.0821110308170319 -4.0130786895752 0.143979877233505
endloop
endfacet
facet normal -0.999915719032288 -0.012984205968678 -1.50190588251212e-16
outer loop
vertex 0.0821110308170319 -4.0130786895752 0.00602012546733022
vertex 0.0821110308170319 -4.0130786895752 0.143979877233505
vertex 0.0679656937718391 -2.92374420166016 0.00438598589971662
endloop
endfacet
facet normal -0.999915719032288 -0.012984205968678 -1.50190588251212e-16
outer loop
vertex 0.0821110308170319 -4.0130786895752 0.00602012546733022
vertex 0.096256360411644 -5.10241317749023 0.00765426456928253
vertex 0.0821110308170319 -4.0130786895752 0.143979877233505
endloop
endfacet
facet normal -0.999915719032288 -0.012984205968678 -2.06050439124053e-16
outer loop
vertex 0.096256360411644 -5.10241317749023 0.142345741391182
vertex 0.0821110308170319 -4.0130786895752 0.143979877233505
vertex 0.096256360411644 -5.10241317749023 0.00765426456928253
endloop
endfacet
facet normal -0.999915719032288 -0.012984205968678 -2.06050439124053e-16
outer loop
vertex 0.096256360411644 -5.10241317749023 0.142345741391182
vertex 0.096256360411644 -5.10241317749023 0.00765426456928253
vertex 0.110401697456837 -6.19174718856812 0.140711590647697
endloop
endfacet
facet normal -0.999915719032288 -0.0129842050373554 -1.23425286795152e-16
outer loop
vertex 0.110401697456837 -6.19174718856812 0.00928840413689613
vertex 0.110401697456837 -6.19174718856812 0.140711590647697
vertex 0.096256360411644 -5.10241317749023 0.00765426456928253
endloop
endfacet
facet normal -0.999915719032288 -0.0129842050373554 -1.23425286795152e-16
outer loop
vertex 0.110401697456837 -6.19174718856812 0.00928840413689613
vertex 0.124547027051449 -7.28108167648315 0.0109225437045097
vertex 0.110401697456837 -6.19174718856812 0.140711590647697
endloop
endfacet
facet normal -0.999915659427643 -0.0129842050373554 1.79974225440364e-16
outer loop
vertex 0.124547027051449 -7.28108167648315 0.139077454805374
vertex 0.110401697456837 -6.19174718856812 0.140711590647697
vertex 0.124547027051449 -7.28108167648315 0.0109225437045097
endloop
endfacet
facet normal -0.999915659427643 -0.0129842050373554 1.79974225440364e-16
outer loop
vertex 0.124547027051449 -7.28108167648315 0.139077454805374
vertex 0.124547027051449 -7.28108167648315 0.0109225437045097
vertex 0.138692364096642 -8.37041568756104 0.137443318963051
endloop
endfacet
facet normal -0.999915659427643 -0.0129842050373554 -3.75432762404463e-17
outer loop
vertex 0.138692364096642 -8.37041568756104 0.0125566823408008
vertex 0.138692364096642 -8.37041568756104 0.137443318963051
vertex 0.124547027051449 -7.28108167648315 0.0109225437045097
endloop
endfacet
facet normal -0.999915659427643 -0.0129842050373554 -3.75432795491688e-17
outer loop
vertex 0.138692364096642 -8.37041568756104 0.0125566823408008
vertex 0.150910630822182 -9.31134700775146 0.0139681976288557
vertex 0.138692364096642 -8.37041568756104 0.137443318963051
endloop
endfacet
facet normal -0.999915719032288 -0.012984205968678 -1.88955434894109e-16
outer loop
vertex 0.150910630822182 -9.31134700775146 0.136031806468964
vertex 0.138692364096642 -8.37041568756104 0.137443318963051
vertex 0.150910630822182 -9.31134700775146 0.0139681976288557
endloop
endfacet
facet normal -0.999915719032288 -0.0129842069000006 -1.88955448128999e-16
outer loop
vertex 0.150910630822182 -9.31134700775146 0.136031806468964
vertex 0.150910630822182 -9.31134700775146 0.0139681976288557
vertex 0.159842059016228 -9.9991569519043 0.135000005364418
endloop
endfacet
facet normal -0.999915719032288 -0.0129842050373554 0
outer loop
vertex 0.159842059016228 -9.9991569519043 0.0149999996647239
vertex 0.159842059016228 -9.9991569519043 0.135000005364418
vertex 0.150910630822182 -9.31134700775146 0.0139681976288557
endloop
endfacet
facet normal 0.707083463668823 0.0081210657954216 -0.707083463668823
outer loop
vertex 0.0750004127621651 -10.0003747940063 -0.0698568895459175
vertex 0.0719827562570572 -9.32976531982422 -0.0651723966002464
vertex 0.159841910004616 -9.9991455078125 0.0149987190961838
endloop
endfacet
facet normal 0.707083404064178 0.00812106486409903 -0.707083404064178
outer loop
vertex 0.151134818792343 -9.32861232757568 0.0139929177239537
vertex 0.159841910004616 -9.9991455078125 0.0149987190961838
vertex 0.0719827562570572 -9.32976531982422 -0.0651723966002464
endloop
endfacet
facet normal 0.707083463668823 0.0081210657954216 -0.707083463668823
outer loop
vertex 0.0719827562570572 -9.32976531982422 -0.0651723966002464
vertex 0.0678679794073105 -8.41534423828125 -0.0587847754359245
vertex 0.151134818792343 -9.32861232757568 0.0139929177239537
endloop
endfacet
facet normal 0.707083463668823 0.00812106486409903 -0.707083463668823
outer loop
vertex 0.139262408018112 -8.41431522369385 0.0126214725896716
vertex 0.151134818792343 -9.32861232757568 0.0139929177239537
vertex 0.0678679794073105 -8.41534423828125 -0.0587847754359245
endloop
endfacet
facet normal 0.707083463668823 0.0081210657954216 -0.707083463668823
outer loop
vertex 0.0678679794073105 -8.41534423828125 -0.0587847754359245
vertex 0.0631344839930534 -7.36342668533325 -0.0514366813004017
vertex 0.139262408018112 -8.41431522369385 0.0126214725896716
endloop
endfacet
facet normal 0.707083463668823 0.0081210657954216 -0.707083463668823
outer loop
vertex 0.125604599714279 -7.36252546310425 0.0110437879338861
vertex 0.139262408018112 -8.41431522369385 0.0126214725896716
vertex 0.0631344839930534 -7.36342668533325 -0.0514366813004017
endloop
endfacet
facet normal 0.707083463668823 0.0081210657954216 -0.707083463668823
outer loop
vertex 0.0631344839930534 -7.36342668533325 -0.0514366813004017
vertex 0.0584009848535061 -6.3115086555481 -0.0440885834395885
vertex 0.125604599714279 -7.36252546310425 0.0110437879338861
endloop
endfacet
facet normal 0.707083463668823 0.00812106672674417 -0.707083463668823
outer loop
vertex 0.111946798861027 -6.31073617935181 0.00946610420942307
vertex 0.125604599714279 -7.36252546310425 0.0110437879338861
vertex 0.0584009848535061 -6.3115086555481 -0.0440885834395885
endloop
endfacet
facet normal 0.707083463668823 0.00812106672674417 -0.707083463668823
outer loop
vertex 0.0584009848535061 -6.3115086555481 -0.0440885834395885
vertex 0.053667489439249 -5.25959062576294 -0.0367404855787754
vertex 0.111946798861027 -6.31073617935181 0.00946610420942307
endloop
endfacet
facet normal 0.707083523273468 0.0081210657954216 -0.707083523273468
outer loop
vertex 0.0982889980077744 -5.25894689559937 0.00788842048496008
vertex 0.111946798861027 -6.31073617935181 0.00946610420942307
vertex 0.053667489439249 -5.25959062576294 -0.0367404855787754
endloop
endfacet
facet normal 0.707083523273468 0.0081210657954216 -0.707083523273468
outer loop
vertex 0.0982889980077744 -5.25894689559937 0.00788842048496008
vertex 0.053667489439249 -5.25959062576294 -0.0367404855787754
vertex 0.0846312046051025 -4.20715761184692 0.00631073629483581
endloop
endfacet
facet normal 0.707083463668823 0.0081210657954216 -0.707083463668823
outer loop
vertex 0.0489339902997017 -4.20767211914063 -0.0293923877179623
vertex 0.0846312046051025 -4.20715761184692 0.00631073629483581
vertex 0.053667489439249 -5.25959062576294 -0.0367404855787754
endloop
endfacet
facet normal 0.707083463668823 0.0081210657954216 -0.707083463668823
outer loop
vertex 0.0846312046051025 -4.20715761184692 0.00631073629483581
vertex 0.0489339902997017 -4.20767211914063 -0.0293923877179623
vertex 0.0709734037518501 -3.1553680896759 0.00473305210471153
endloop
endfacet
facet normal 0.707083463668823 0.00812106672674417 -0.707083463668823
outer loop
vertex 0.0442004948854446 -3.15575432777405 -0.0220442917197943
vertex 0.0709734037518501 -3.1553680896759 0.00473305210471153
vertex 0.0489339902997017 -4.20767211914063 -0.0293923877179623
endloop
endfacet
facet normal 0.707083463668823 0.00812106672674417 -0.707083463668823
outer loop
vertex 0.0709734037518501 -3.1553680896759 0.00473305210471153
vertex 0.0442004948854446 -3.15575432777405 -0.0220442917197943
vertex 0.0573155991733074 -2.10357880592346 0.0031553681474179
endloop
endfacet
facet normal 0.707083463668823 0.0081210657954216 -0.707083463668823
outer loop
vertex 0.0394669957458973 -2.10383605957031 -0.0146961938589811
vertex 0.0573155991733074 -2.10357880592346 0.0031553681474179
vertex 0.0442004948854446 -3.15575432777405 -0.0220442917197943
endloop
endfacet
facet normal 0.707083463668823 0.0081210657954216 -0.707083463668823
outer loop
vertex 0.0573155991733074 -2.10357880592346 0.0031553681474179
vertex 0.0394669957458973 -2.10383605957031 -0.0146961938589811
vertex 0.0436578020453453 -1.05178940296173 0.00157768407370895
endloop
endfacet
facet normal 0.707083463668823 0.0081210657954216 -0.707083463668823
outer loop
vertex 0.0347334966063499 -1.05191802978516 -0.00734809692949057
vertex 0.0436578020453453 -1.05178940296173 0.00157768407370895
vertex 0.0394669957458973 -2.10383605957031 -0.0146961938589811
endloop
endfacet
facet normal 0.707083463668823 0.0081210657954216 -0.707083463668823
outer loop
vertex 0.0436578020453453 -1.05178940296173 0.00157768407370895
vertex 0.0347334966063499 -1.05191802978516 -0.00734809692949057
vertex 0.0299999993294477 0 0
endloop
endfacet
facet normal 0.707083463668823 0.0081210657954216 0.707083463668823
outer loop
vertex 0.159852519631386 -9.99986553192139 0.134998932480812
vertex 0.151144817471504 -9.32929039001465 0.136004880070686
vertex 0.0749984458088875 -9.99965476989746 0.219850584864616
endloop
endfacet
facet normal 0.707083404064178 0.00812106486409903 0.707083404064178
outer loop
vertex 0.071980893611908 -9.32908725738525 0.215166464447975
vertex 0.0749984458088875 -9.99965476989746 0.219850584864616
vertex 0.151144817471504 -9.32929039001465 0.136004880070686
endloop
endfacet
facet normal 0.707083463668823 0.0081210657954216 0.707083463668823
outer loop
vertex 0.151144817471504 -9.32929039001465 0.136004880070686
vertex 0.139271289110184 -8.41491603851318 0.137376561760902
vertex 0.071980893611908 -9.32908725738525 0.215166464447975
endloop
endfacet
facet normal 0.707083463668823 0.00812106486409903 0.707083463668823
outer loop
vertex 0.0678663477301598 -8.41474342346191 0.208779498934746
vertex 0.071980893611908 -9.32908725738525 0.215166464447975
vertex 0.139271289110184 -8.41491603851318 0.137376561760902
endloop
endfacet
facet normal 0.707083463668823 0.0081210657954216 0.707083463668823
outer loop
vertex 0.139271289110184 -8.41491603851318 0.137376561760902
vertex 0.125612378120422 -7.3630518913269 0.138954490423203
vertex 0.0678663477301598 -8.41474342346191 0.208779498934746
endloop
endfacet
facet normal 0.707083463668823 0.0081210657954216 0.707083463668823
outer loop
vertex 0.0631330534815788 -7.3629002571106 0.201432064175606
vertex 0.0678663477301598 -8.41474342346191 0.208779498934746
vertex 0.125612378120422 -7.3630518913269 0.138954490423203
endloop
endfacet
facet normal 0.707083463668823 0.0081210657954216 0.707083463668823
outer loop
vertex 0.125612378120422 -7.3630518913269 0.138954490423203
vertex 0.11195345968008 -6.31118726730347 0.140532419085503
vertex 0.0631330534815788 -7.3629002571106 0.201432064175606
endloop
endfacet
facet normal 0.707083463668823 0.00812106672674417 0.707083463668823
outer loop
vertex 0.0583997592329979 -6.31105756759644 0.194084629416466
vertex 0.0631330534815788 -7.3629002571106 0.201432064175606
vertex 0.11195345968008 -6.31118726730347 0.140532419085503
endloop
endfacet
facet normal 0.707083463668823 0.00812106672674417 0.707083463668823
outer loop
vertex 0.11195345968008 -6.31118726730347 0.140532419085503
vertex 0.0982945486903191 -5.25932264328003 0.142110347747803
vertex 0.0583997592329979 -6.31105756759644 0.194084629416466
endloop
endfacet
facet normal 0.707083523273468 0.0081210657954216 0.707083523273468
outer loop
vertex 0.053666464984417 -5.25921440124512 0.186737194657326
vertex 0.0583997592329979 -6.31105756759644 0.194084629416466
vertex 0.0982945486903191 -5.25932264328003 0.142110347747803
endloop
endfacet
facet normal 0.707083523273468 0.0081210657954216 0.707083523273468
outer loop
vertex 0.0982945486903191 -5.25932264328003 0.142110347747803
vertex 0.0846356377005577 -4.20745801925659 0.143688276410103
vertex 0.053666464984417 -5.25921440124512 0.186737194657326
endloop
endfacet
facet normal 0.707083463668823 0.0081210657954216 0.707083463668823
outer loop
vertex 0.048933170735836 -4.20737171173096 0.179389759898186
vertex 0.053666464984417 -5.25921440124512 0.186737194657326
vertex 0.0846356377005577 -4.20745801925659 0.143688276410103
endloop
endfacet
facet normal 0.707083463668823 0.0081210657954216 0.707083463668823
outer loop
vertex 0.048933170735836 -4.20737171173096 0.179389759898186
vertex 0.0846356377005577 -4.20745801925659 0.143688276410103
vertex 0.0441998802125454 -3.15552878379822 0.172042310237885
endloop
endfacet
facet normal 0.707083463668823 0.00812106672674417 0.707083463668823
outer loop
vertex 0.070976734161377 -3.15559363365173 0.145266205072403
vertex 0.0441998802125454 -3.15552878379822 0.172042310237885
vertex 0.0846356377005577 -4.20745801925659 0.143688276410103
endloop
endfacet
facet normal 0.707083463668823 0.00812106672674417 0.707083463668823
outer loop
vertex 0.070976734161377 -3.15559363365173 0.145266205072403
vertex 0.0573178194463253 -2.1037290096283 0.146844133734703
vertex 0.0441998802125454 -3.15552878379822 0.172042310237885
endloop
endfacet
facet normal 0.707083463668823 0.0081210657954216 0.707083463668823
outer loop
vertex 0.0394665859639645 -2.10368585586548 0.164694875478745
vertex 0.0441998802125454 -3.15552878379822 0.172042310237885
vertex 0.0573178194463253 -2.1037290096283 0.146844133734703
endloop
endfacet
facet normal 0.707083463668823 0.0081210657954216 0.707083463668823
outer loop
vertex 0.0394665859639645 -2.10368585586548 0.164694875478745
vertex 0.0573178194463253 -2.1037290096283 0.146844133734703
vertex 0.0347332917153835 -1.05184292793274 0.157347440719604
endloop
endfacet
facet normal 0.707083463668823 0.0081210657954216 0.707083463668823
outer loop
vertex 0.0436589084565639 -1.05186450481415 0.148422062397003
vertex 0.0347332917153835 -1.05184292793274 0.157347440719604
vertex 0.0573178194463253 -2.1037290096283 0.146844133734703
endloop
endfacet
facet normal 0.707083463668823 0.0081210657954216 0.707083463668823
outer loop
vertex 0.0347332917153835 -1.05184292793274 0.157347440719604
vertex 0.0436589084565639 -1.05186450481415 0.148422062397003
vertex 0.0299999993294477 0 0.150000005960464
endloop
endfacet
facet normal 0.707083463668823 -0.0081210657954216 -0.707083463668823
outer loop
vertex 0.0749989300966263 -10.9996461868286 -0.0698525235056877
vertex 0.159850582480431 -10.9998569488525 0.0150015531107783
vertex 0.0760048776865005 -11.6702213287354 -0.0611448213458061
endloop
endfacet
facet normal 0.707083404064178 -0.00812106486409903 -0.707083404064178
outer loop
vertex 0.155166476964951 -11.6704254150391 0.0180191099643707
vertex 0.0760048776865005 -11.6702213287354 -0.0611448213458061
vertex 0.159850582480431 -10.9998569488525 0.0150015531107783
endloop
endfacet
facet normal 0.707083463668823 -0.0081210657954216 -0.707083463668823
outer loop
vertex 0.0760048776865005 -11.6702213287354 -0.0611448213458061
vertex 0.155166476964951 -11.6704254150391 0.0180191099643707
vertex 0.0773765593767166 -12.5845956802368 -0.0492712818086147
endloop
endfacet
facet normal 0.707083463668823 -0.00812106486409903 -0.707083463668823
outer loop
vertex 0.148779511451721 -12.5847692489624 0.0221336558461189
vertex 0.0773765593767166 -12.5845956802368 -0.0492712818086147
vertex 0.155166476964951 -11.6704254150391 0.0180191099643707
endloop
endfacet
facet normal 0.707083463668823 -0.0081210657954216 -0.707083463668823
outer loop
vertex 0.0773765593767166 -12.5845956802368 -0.0492712818086147
vertex 0.148779511451721 -12.5847692489624 0.0221336558461189
vertex 0.0789544880390167 -13.6364603042603 -0.0356123708188534
endloop
endfacet
facet normal 0.707083463668823 -0.0081210657954216 -0.707083463668823
outer loop
vertex 0.14143206179142 -13.6366119384766 0.0268669482320547
vertex 0.0789544880390167 -13.6364603042603 -0.0356123708188534
vertex 0.148779511451721 -12.5847692489624 0.0221336558461189
endloop
endfacet
facet normal 0.707083463668823 -0.0081210657954216 -0.707083463668823
outer loop
vertex 0.0789544880390167 -13.6364603042603 -0.0356123708188534
vertex 0.14143206179142 -13.6366119384766 0.0268669482320547
vertex 0.0805324167013168 -14.6883249282837 -0.0219534616917372
endloop
endfacet
facet normal 0.707083463668823 -0.00812106672674417 -0.707083463668823
outer loop
vertex 0.13408462703228 -14.6884546279907 0.0316002406179905
vertex 0.0805324167013168 -14.6883249282837 -0.0219534616917372
vertex 0.14143206179142 -13.6366119384766 0.0268669482320547
endloop
endfacet
facet normal 0.707083463668823 -0.00812106672674417 -0.707083463668823
outer loop
vertex 0.0805324167013168 -14.6883249282837 -0.0219534616917372
vertex 0.13408462703228 -14.6884546279907 0.0316002406179905
vertex 0.0821103453636169 -15.7401895523071 -0.0082945516332984
endloop
endfacet
facet normal 0.707083523273468 -0.0081210657954216 -0.707083523273468
outer loop
vertex 0.12673719227314 -15.7402973175049 0.0363335348665714
vertex 0.0821103453636169 -15.7401895523071 -0.0082945516332984
vertex 0.13408462703228 -14.6884546279907 0.0316002406179905
endloop
endfacet
facet normal 0.707083523273468 -0.0081210657954216 -0.707083523273468
outer loop
vertex 0.12673719227314 -15.7402973175049 0.0363335348665714
vertex 0.119389750063419 -16.7921409606934 0.0410668291151524
vertex 0.0821103453636169 -15.7401895523071 -0.0082945516332984
endloop
endfacet
facet normal 0.707083463668823 -0.0081210657954216 -0.707083463668823
outer loop
vertex 0.0836882814764977 -16.7920532226563 0.00536435889080167
vertex 0.0821103453636169 -15.7401895523071 -0.0082945516332984
vertex 0.119389750063419 -16.7921409606934 0.0410668291151524
endloop
endfacet
facet normal 0.707083463668823 -0.0081210657954216 -0.707083463668823
outer loop
vertex 0.119389750063419 -16.7921409606934 0.0410668291151524
vertex 0.112042315304279 -17.8439826965332 0.045800119638443
vertex 0.0836882814764977 -16.7920532226563 0.00536435889080167
endloop
endfacet
facet normal 0.707083463668823 -0.00812106672674417 -0.707083463668823
outer loop
vertex 0.0852662101387978 -17.8439178466797 0.0190232694149017
vertex 0.0836882814764977 -16.7920532226563 0.00536435889080167
vertex 0.112042315304279 -17.8439826965332 0.045800119638443
endloop
endfacet
facet normal 0.707083463668823 -0.00812106672674417 -0.707083463668823
outer loop
vertex 0.112042315304279 -17.8439826965332 0.045800119638443
vertex 0.104694873094559 -18.8958263397217 0.0505334138870239
vertex 0.0852662101387978 -17.8439178466797 0.0190232694149017
endloop
endfacet
facet normal 0.707083463668823 -0.0081210657954216 -0.707083463668823
outer loop
vertex 0.0868441388010979 -18.8957824707031 0.0326821804046631
vertex 0.0852662101387978 -17.8439178466797 0.0190232694149017
vertex 0.104694873094559 -18.8958263397217 0.0505334138870239
endloop
endfacet
facet normal 0.707083463668823 -0.0081210657954216 -0.707083463668823
outer loop
vertex 0.104694873094559 -18.8958263397217 0.0505334138870239
vertex 0.0973474383354187 -19.9476699829102 0.0552667081356049
vertex 0.0868441388010979 -18.8957824707031 0.0326821804046631
endloop
endfacet
facet normal 0.707083463668823 -0.0081210657954216 -0.707083463668823
outer loop
vertex 0.088422067463398 -19.9476470947266 0.0463410913944244
vertex 0.0868441388010979 -18.8957824707031 0.0326821804046631
vertex 0.0973474383354187 -19.9476699829102 0.0552667081356049
endloop
endfacet
facet normal 0.707083463668823 -0.0081210657954216 -0.707083463668823
outer loop
vertex 0.0973474383354187 -19.9476699829102 0.0552667081356049
vertex 0.0900000035762787 -20.99951171875 0.0599999986588955
vertex 0.088422067463398 -19.9476470947266 0.0463410913944244
endloop
endfacet
facet normal -0.70708042383194 0.0081211356446147 -0.707086503505707
outer loop
vertex 0.074998565018177 -10.9996461868286 0.219853267073631
vertex 0.159850582480431 -10.9998569488525 0.134999543428421
vertex 0.0760045349597931 -11.6702213287354 0.211145505309105
endloop
endfacet
facet normal -0.70708042383194 0.0081211356446147 -0.707086503505707
outer loop
vertex 0.155166476964951 -11.6704254150391 0.131981909275055
vertex 0.0760045349597931 -11.6702213287354 0.211145505309105
vertex 0.159850582480431 -10.9998569488525 0.134999543428421
endloop
endfacet
facet normal -0.70708042383194 0.0081211356446147 -0.707086503505707
outer loop
vertex 0.0760045349597931 -11.6702213287354 0.211145505309105
vertex 0.155166476964951 -11.6704254150391 0.131981909275055
vertex 0.0773762464523315 -12.5845956802368 0.199271902441978
endloop
endfacet
facet normal -0.70708042383194 0.0081211356446147 -0.707086503505707
outer loop
vertex 0.148779511451721 -12.5847692489624 0.127867266535759
vertex 0.0773762464523315 -12.5845956802368 0.199271902441978
vertex 0.155166476964951 -11.6704254150391 0.131981909275055
endloop
endfacet
facet normal -0.70708042383194 0.0081211356446147 -0.707086503505707
outer loop
vertex 0.0773762464523315 -12.5845956802368 0.199271902441978
vertex 0.148779511451721 -12.5847692489624 0.127867266535759
vertex 0.0789542198181152 -13.6364603042603 0.185612916946411
endloop
endfacet
facet normal -0.70708042383194 0.0081211356446147 -0.707086503505707
outer loop
vertex 0.14143206179142 -13.6366119384766 0.123133860528469
vertex 0.0789542198181152 -13.6364603042603 0.185612916946411
vertex 0.148779511451721 -12.5847692489624 0.127867266535759
endloop
endfacet
facet normal -0.70708042383194 0.0081211356446147 -0.707086503505707
outer loop
vertex 0.0789542198181152 -13.6364603042603 0.185612916946411
vertex 0.14143206179142 -13.6366119384766 0.123133860528469
vertex 0.0805321857333183 -14.6883249282837 0.171953931450844
endloop
endfacet
facet normal -0.70708042383194 0.0081211356446147 -0.707086443901062
outer loop
vertex 0.13408462703228 -14.6884546279907 0.118400454521179
vertex 0.0805321857333183 -14.6883249282837 0.171953931450844
vertex 0.14143206179142 -13.6366119384766 0.123133860528469
endloop
endfacet
facet normal -0.70708042383194 0.0081211356446147 -0.707086443901062
outer loop
vertex 0.0805321857333183 -14.6883249282837 0.171953931450844
vertex 0.13408462703228 -14.6884546279907 0.118400454521179
vertex 0.082110159099102 -15.7401895523071 0.158294931054115
endloop
endfacet
facet normal -0.707080483436584 0.0081211356446147 -0.707086503505707
outer loop
vertex 0.12673719227314 -15.7402973175049 0.113667041063309
vertex 0.082110159099102 -15.7401895523071 0.158294931054115
vertex 0.13408462703228 -14.6884546279907 0.118400454521179
endloop
endfacet
facet normal -0.707080483436584 0.0081211356446147 -0.707086503505707
outer loop
vertex 0.12673719227314 -15.7402973175049 0.113667041063309
vertex 0.119389750063419 -16.7921409606934 0.108933635056019
vertex 0.082110159099102 -15.7401895523071 0.158294931054115
endloop
endfacet
facet normal -0.70708042383194 0.0081211356446147 -0.707086503505707
outer loop
vertex 0.0836881250143051 -16.7920532226563 0.144635945558548
vertex 0.082110159099102 -15.7401895523071 0.158294931054115
vertex 0.119389750063419 -16.7921409606934 0.108933635056019
endloop
endfacet
facet normal -0.70708042383194 0.0081211356446147 -0.707086503505707
outer loop
vertex 0.119389750063419 -16.7921409606934 0.108933635056019
vertex 0.112042315304279 -17.8439826965332 0.104200229048729
vertex 0.0836881250143051 -16.7920532226563 0.144635945558548
endloop
endfacet
facet normal -0.70708042383194 0.0081211356446147 -0.707086443901062
outer loop
vertex 0.0852660909295082 -17.8439178466797 0.130976960062981
vertex 0.0836881250143051 -16.7920532226563 0.144635945558548
vertex 0.112042315304279 -17.8439826965332 0.104200229048729
endloop
endfacet
facet normal -0.70708042383194 0.0081211356446147 -0.707086443901062
outer loop
vertex 0.112042315304279 -17.8439826965332 0.104200229048729
vertex 0.104694873094559 -18.8958263397217 0.0994668155908585
vertex 0.0852660909295082 -17.8439178466797 0.130976960062981
endloop
endfacet
facet normal -0.70708042383194 0.0081211356446147 -0.707086503505707
outer loop
vertex 0.0868440642952919 -18.8957824707031 0.117317974567413
vertex 0.0852660909295082 -17.8439178466797 0.130976960062981
vertex 0.104694873094559 -18.8958263397217 0.0994668155908585
endloop
endfacet
facet normal -0.70708042383194 0.0081211356446147 -0.707086503505707
outer loop
vertex 0.104694873094559 -18.8958263397217 0.0994668155908585
vertex 0.0973474383354187 -19.9476699829102 0.0947334095835686
vertex 0.0868440642952919 -18.8957824707031 0.117317974567413
endloop
endfacet
facet normal -0.70708042383194 0.0081211356446147 -0.707086503505707
outer loop
vertex 0.088422030210495 -19.9476470947266 0.103658989071846
vertex 0.0868440642952919 -18.8957824707031 0.117317974567413
vertex 0.0973474383354187 -19.9476699829102 0.0947334095835686
endloop
endfacet
facet normal -0.70708042383194 0.0081211356446147 -0.707086503505707
outer loop
vertex 0.0973474383354187 -19.9476699829102 0.0947334095835686
vertex 0.0900000035762787 -20.99951171875 0.0900000035762787
vertex 0.088422030210495 -19.9476470947266 0.103658989071846
endloop
endfacet
facet normal 0.999975621700287 -0.00698512978851795 0
outer loop
vertex 0.0900000035762787 -20.99951171875 0.0900000035762787
vertex 0.0900000035762787 -20.99951171875 0.0599999986588955
vertex 0.091462753713131 -20.7901077270508 0.090942345559597
endloop
endfacet
facet normal 0.999975562095642 -0.00698512932285666 -3.43071160588008e-16
outer loop
vertex 0.091462753713131 -20.7901077270508 0.0590576566755772
vertex 0.091462753713131 -20.7901077270508 0.090942345559597
vertex 0.0900000035762787 -20.99951171875 0.0599999986588955
endloop
endfacet
facet normal 0.999975621700287 -0.00698512978851795 -3.43071160588008e-16
outer loop
vertex 0.091462753713131 -20.7901077270508 0.090942345559597
vertex 0.091462753713131 -20.7901077270508 0.0590576566755772
vertex 0.0942487493157387 -20.3912715911865 0.092737153172493
endloop
endfacet
facet normal 0.999975621700287 -0.00698513025417924 -7.82394539560345e-16
outer loop
vertex 0.0942487493157387 -20.3912715911865 0.0572628490626812
vertex 0.0942487493157387 -20.3912715911865 0.092737153172493
vertex 0.091462753713131 -20.7901077270508 0.0590576566755772
endloop
endfacet
facet normal 0.999975681304932 -0.00698513025417924 -9.83956670210905e-16
outer loop
vertex 0.0995550081133842 -19.6316375732422 0.09615558385849
vertex 0.0942487493157387 -20.3912715911865 0.092737153172493
vertex 0.0995550081133842 -19.6316375732422 0.0538444183766842
endloop
endfacet
facet normal 0.999975621700287 -0.00698512978851795 -7.82394539560345e-16
outer loop
vertex 0.0942487493157387 -20.3912715911865 0.0572628490626812
vertex 0.0995550081133842 -19.6316375732422 0.0538444183766842
vertex 0.0942487493157387 -20.3912715911865 0.092737153172493
endloop
endfacet
facet normal 0.999975562095642 -0.00698512978851795 -9.83956564331787e-16
outer loop
vertex 0.0995550081133842 -19.6316375732422 0.09615558385849
vertex 0.0995550081133842 -19.6316375732422 0.0538444183766842
vertex 0.107510633766651 -18.4927291870117 0.101280800998211
endloop
endfacet
facet normal 0.999975621700287 -0.00698512978851795 2.64022578409109e-16
outer loop
vertex 0.107510633766651 -18.4927291870117 0.048719197511673
vertex 0.107510633766651 -18.4927291870117 0.101280800998211
vertex 0.0995550081133842 -19.6316375732422 0.0538444183766842
endloop
endfacet
facet normal 0.999975621700287 -0.00698512978851795 2.64022578409109e-16
outer loop
vertex 0.107510633766651 -18.4927291870117 0.101280800998211
vertex 0.107510633766651 -18.4927291870117 0.048719197511673
vertex 0.11553667485714 -17.3437385559082 0.106451384723186
endloop
endfacet
facet normal 0.999975562095642 -0.00698512932285666 0
outer loop
vertex 0.11553667485714 -17.3437385559082 0.0435486175119877
vertex 0.11553667485714 -17.3437385559082 0.106451384723186
vertex 0.107510633766651 -18.4927291870117 0.048719197511673
endloop
endfacet
facet normal 0.999975681304932 -0.00698512978851795 -9.47344623977904e-16
outer loop
vertex 0.123562715947628 -16.1947479248047 0.111621968448162
vertex 0.11553667485714 -17.3437385559082 0.106451384723186
vertex 0.123562715947628 -16.1947479248047 0.0383780337870121
endloop
endfacet
facet normal 0.999975562095642 -0.00698512932285666 0
outer loop
vertex 0.11553667485714 -17.3437385559082 0.0435486175119877
vertex 0.123562715947628 -16.1947479248047 0.0383780337870121
vertex 0.11553667485714 -17.3437385559082 0.106451384723186
endloop
endfacet
facet normal 0.999975681304932 -0.00698512978851795 -9.47344623977904e-16
outer loop
vertex 0.123562715947628 -16.1947479248047 0.111621968448162
vertex 0.123562715947628 -16.1947479248047 0.0383780337870121
vertex 0.131588757038116 -15.0457572937012 0.116792544722557
endloop
endfacet
facet normal 0.999975621700287 -0.00698513025417924 -6.64111205976169e-16
outer loop
vertex 0.131588757038116 -15.0457572937012 0.0332074500620365
vertex 0.131588757038116 -15.0457572937012 0.116792544722557
vertex 0.123562715947628 -16.1947479248047 0.0383780337870121
endloop
endfacet
facet normal 0.999975621700287 -0.00698513025417924 -6.64111205976169e-16
outer loop
vertex 0.131588757038116 -15.0457572937012 0.116792544722557
vertex 0.131588757038116 -15.0457572937012 0.0332074500620365
vertex 0.139614805579185 -13.896767616272 0.121963128447533
endloop
endfacet
facet normal 0.999975562095642 -0.00698512885719538 4.27601157666386e-16
outer loop
vertex 0.139614805579185 -13.896767616272 0.0280368700623512
vertex 0.139614805579185 -13.896767616272 0.121963128447533
vertex 0.131588757038116 -15.0457572937012 0.0332074500620365
endloop
endfacet
facet normal 0.999975621700287 -0.00698512978851795 -2.38004982052348e-16
outer loop
vertex 0.147640839219093 -12.7477769851685 0.127133712172508
vertex 0.139614805579185 -13.896767616272 0.121963128447533
vertex 0.147640839219093 -12.7477769851685 0.0228662863373756
endloop
endfacet
facet normal 0.999975562095642 -0.00698512885719538 4.27601157666386e-16
outer loop
vertex 0.139614805579185 -13.896767616272 0.0280368700623512
vertex 0.147640839219093 -12.7477769851685 0.0228662863373756
vertex 0.139614805579185 -13.896767616272 0.121963128447533
endloop
endfacet
facet normal 0.999975621700287 -0.00698512932285666 -2.38004982052348e-16
outer loop
vertex 0.147640839219093 -12.7477769851685 0.127133712172508
vertex 0.147640839219093 -12.7477769851685 0.0228662863373756
vertex 0.154782876372337 -11.7253389358521 0.131734803318977
endloop
endfacet
facet normal 0.999975621700287 -0.00698512932285666 5.98555779237692e-16
outer loop
vertex 0.154782876372337 -11.7253389358521 0.018265200778842
vertex 0.154782876372337 -11.7253389358521 0.131734803318977
vertex 0.147640839219093 -12.7477769851685 0.0228662863373756
endloop
endfacet
facet normal 0.999975681304932 -0.00698512932285666 5.98555779237692e-16
outer loop
vertex 0.154782876372337 -11.7253389358521 0.131734803318977
vertex 0.154782876372337 -11.7253389358521 0.018265200778842
vertex 0.159851297736168 -10.999755859375 0.135000005364418
endloop
endfacet
facet normal 0.999975621700287 -0.00698512978851795 0
outer loop
vertex 0.159851297736168 -10.999755859375 0.0149999996647239
vertex 0.159851297736168 -10.999755859375 0.135000005364418
vertex 0.154782876372337 -11.7253389358521 0.018265200778842
endloop
endfacet
endsolid COMSOL mesh mesh1
