solid COMSOL mesh mesh1
facet normal -0.0337252467870712 0.999431133270264 0
outer loop
vertex 0 0 0.150000005960464
vertex 0 0 0
vertex -0.86061555147171 -0.0290409959852695 0.150430560112
endloop
endfacet
facet normal -0.0337252505123615 0.999431192874908 1.56458268101424e-17
outer loop
vertex -0.86061555147171 -0.0290409959852695 -0.000430552696343511
vertex -0.86061555147171 -0.0290409959852695 0.150430560112
vertex 0 0 0
endloop
endfacet
facet normal -0.0337252542376518 0.999431192874908 3.6416398165798e-17
outer loop
vertex -2.00823354721069 -0.0677667260169983 -0.00100468820892274
vertex -2.00823354721069 -0.0677667260169983 0.151004686951637
vertex -0.86061555147171 -0.0290409959852695 -0.000430552696343511
endloop
endfacet
facet normal -0.0337252505123615 0.999431133270264 1.56458251557812e-17
outer loop
vertex -0.86061555147171 -0.0290409959852695 0.150430560112
vertex -0.86061555147171 -0.0290409959852695 -0.000430552696343511
vertex -2.00823354721069 -0.0677667260169983 0.151004686951637
endloop
endfacet
facet normal -0.0337252505123615 0.999431133270264 3.64163948570755e-17
outer loop
vertex -2.00823354721069 -0.0677667260169983 -0.00100468820892274
vertex -3.46012449264526 -0.116759985685349 -0.00173104694113135
vertex -2.00823354721069 -0.0677667260169983 0.151004686951637
endloop
endfacet
facet normal -0.0337252505123615 0.999431133270264 0
outer loop
vertex -3.46012449264526 -0.116759985685349 0.151731044054031
vertex -2.00823354721069 -0.0677667260169983 0.151004686951637
vertex -3.46012449264526 -0.116759985685349 -0.00173104694113135
endloop
endfacet
facet normal -0.0337252505123615 0.999431133270264 -1.79024582392484e-16
outer loop
vertex -4.94677209854126 -0.166926085948944 -0.00247479393146932
vertex -4.94677209854126 -0.166926085948944 0.152474790811539
vertex -3.46012449264526 -0.116759985685349 -0.00173104694113135
endloop
endfacet
facet normal -0.0337252505123615 0.999431133270264 0
outer loop
vertex -3.46012449264526 -0.116759985685349 0.151731044054031
vertex -3.46012449264526 -0.116759985685349 -0.00173104694113135
vertex -4.94677209854126 -0.166926085948944 0.152474790811539
endloop
endfacet
facet normal -0.0337252505123615 0.999431133270264 -1.79024582392484e-16
outer loop
vertex -4.94677209854126 -0.166926085948944 -0.00247479393146932
vertex -6.43341970443726 -0.21709218621254 -0.00321854068897665
vertex -4.94677209854126 -0.166926085948944 0.152474790811539
endloop
endfacet
facet normal -0.0337252505123615 0.999431073665619 2.05630866647586e-16
outer loop
vertex -6.43341970443726 -0.21709218621254 0.153218537569046
vertex -4.94677209854126 -0.166926085948944 0.152474790811539
vertex -6.43341970443726 -0.21709218621254 -0.00321854068897665
endloop
endfacet
facet normal -0.0337252505123615 0.999431133270264 2.05630866647586e-16
outer loop
vertex -6.43341970443726 -0.21709218621254 -0.00321854068897665
vertex -7.89727163314819 -0.266489058732986 -0.00395088316872716
vertex -6.43341970443726 -0.21709218621254 0.153218537569046
endloop
endfacet
facet normal -0.0337252505123615 0.999431133270264 -1.3360855511506e-16
outer loop
vertex -7.89727163314819 -0.266489058732986 0.15395088493824
vertex -6.43341970443726 -0.21709218621254 0.153218537569046
vertex -7.89727163314819 -0.266489058732986 -0.00395088316872716
endloop
endfacet
facet normal -0.0337252505123615 0.999431133270264 -1.3360855511506e-16
outer loop
vertex -7.89727163314819 -0.266489058732986 -0.00395088316872716
vertex -9.08590221405029 -0.306598722934723 -0.00454553682357073
vertex -7.89727163314819 -0.266489058732986 0.15395088493824
endloop
endfacet
facet normal -0.0337252542376518 0.999431133270264 4.0440100465043e-16
outer loop
vertex -9.08590221405029 -0.306598722934723 0.154545530676842
vertex -7.89727163314819 -0.266489058732986 0.15395088493824
vertex -9.08590221405029 -0.306598722934723 -0.00454553682357073
endloop
endfacet
facet normal -0.0337252505123615 0.999431192874908 4.0440100465043e-16
outer loop
vertex -9.08590221405029 -0.306598722934723 -0.00454553682357073
vertex -9.99431133270264 -0.337252497673035 -0.00499999988824129
vertex -9.08590221405029 -0.306598722934723 0.154545530676842
endloop
endfacet
facet normal -0.0337252505123615 0.999431133270264 0
outer loop
vertex -9.99431133270264 -0.337252497673035 0.155000001192093
vertex -9.08590221405029 -0.306598722934723 0.154545530676842
vertex -9.99431133270264 -0.337252497673035 -0.00499999988824129
endloop
endfacet
facet normal 0.000101642901427113 0.0118125155568123 0.999930262565613
outer loop
vertex -8.91372585296631 -1.38875257968903 0.167311891913414
vertex -8.89690208435059 -1.37146198749542 0.167105913162231
vertex -9.99431133270264 -0.337252497673035 0.155000001192093
endloop
endfacet
facet normal 0.000101642901427113 0.0118125155568123 0.999930262565613
outer loop
vertex -7.83314037322998 -2.44025278091431 0.179623767733574
vertex -7.79949331283569 -2.4056715965271 0.17921182513237
vertex -8.91372585296631 -1.38875257968903 0.167311891913414
endloop
endfacet
facet normal 0.000101642901427113 0.0118125155568123 0.999930262565613
outer loop
vertex -8.89690208435059 -1.37146198749542 0.167105913162231
vertex -8.91372585296631 -1.38875257968903 0.167311891913414
vertex -7.79949331283569 -2.4056715965271 0.17921182513237
endloop
endfacet
facet normal 0.000101642901427113 0.0118125155568123 0.999930262565613
outer loop
vertex -7.83314037322998 -2.44025278091431 0.179623767733574
vertex -6.75255441665649 -3.4917528629303 0.191935658454895
vertex -7.79949331283569 -2.4056715965271 0.17921182513237
endloop
endfacet
facet normal 0.000101642901427113 0.0118125155568123 0.999930322170258
outer loop
vertex -6.70208406448364 -3.43988108634949 0.19131775200367
vertex -7.79949331283569 -2.4056715965271 0.17921182513237
vertex -6.75255441665649 -3.4917528629303 0.191935658454895
endloop
endfacet
facet normal 0.000101642901427113 0.0118125155568123 0.999930322170258
outer loop
vertex -6.75255441665649 -3.4917528629303 0.191935658454895
vertex -5.67196893692017 -4.54325294494629 0.204247549176216
vertex -6.70208406448364 -3.43988108634949 0.19131775200367
endloop
endfacet
facet normal 0.000101642901427113 0.0118125155568123 0.999930262565613
outer loop
vertex -5.60467529296875 -4.47409057617188 0.203423663973808
vertex -6.70208406448364 -3.43988108634949 0.19131775200367
vertex -5.67196893692017 -4.54325294494629 0.204247549176216
endloop
endfacet
facet normal 0.000101642901427113 0.0118125155568123 0.999930262565613
outer loop
vertex -5.67196893692017 -4.54325294494629 0.204247549176216
vertex -4.59138345718384 -5.59475326538086 0.216559424996376
vertex -5.60467529296875 -4.47409057617188 0.203423663973808
endloop
endfacet
facet normal 0.000101642894151155 0.0118125146254897 0.999930202960968
outer loop
vertex -4.5072660446167 -5.50829982757568 0.215529575943947
vertex -5.60467529296875 -4.47409057617188 0.203423663973808
vertex -4.59138345718384 -5.59475326538086 0.216559424996376
endloop
endfacet
facet normal 0.000101642894151155 0.0118125146254897 0.999930202960968
outer loop
vertex -4.59138345718384 -5.59475326538086 0.216559424996376
vertex -3.55032587051392 -6.60778903961182 0.228420943021774
vertex -4.5072660446167 -5.50829982757568 0.215529575943947
endloop
endfacet
facet normal 0.000101642901427113 0.0118125146254897 0.999930202960968
outer loop
vertex -3.44998264312744 -6.50469493865967 0.227192863821983
vertex -4.5072660446167 -5.50829982757568 0.215529575943947
vertex -3.55032587051392 -6.60778903961182 0.228420943021774
endloop
endfacet
facet normal 0.000101642901427113 0.0118125146254897 0.999930262565613
outer loop
vertex -3.55032587051392 -6.60778903961182 0.228420943021774
vertex -2.82768726348877 -7.31097650527954 0.236654475331306
vertex -3.44998264312744 -6.50469493865967 0.227192863821983
endloop
endfacet
facet normal 0.000101642901427113 0.0118125155568123 0.999930262565613
outer loop
vertex -2.71609711647034 -7.19631576538086 0.235288605093956
vertex -3.44998264312744 -6.50469493865967 0.227192863821983
vertex -2.82768726348877 -7.31097650527954 0.236654475331306
endloop
endfacet
facet normal -0.707188248634338 0.0122443912550807 0.706919312477112
outer loop
vertex -1.06604695320129 -0.0118533428758383 -1.06624734401703
vertex -1.06611967086792 -0.0359756201505661 -1.06590223312378
vertex 0 0 0
endloop
endfacet
facet normal -0.707188248634338 0.0122443912550807 0.706919312477112
outer loop
vertex -2.13209390640259 -0.0237066857516766 -2.13249468803406
vertex -2.13223934173584 -0.0719512403011322 -2.13180446624756
vertex -1.06604695320129 -0.0118533428758383 -1.06624734401703
endloop
endfacet
facet normal -0.707188248634338 0.0122443912550807 0.706919312477112
outer loop
vertex -1.06611967086792 -0.0359756201505661 -1.06590223312378
vertex -1.06604695320129 -0.0118533428758383 -1.06624734401703
vertex -2.13223934173584 -0.0719512403011322 -2.13180446624756
endloop
endfacet
facet normal -0.707188248634338 0.0122443912550807 0.706919312477112
outer loop
vertex -2.13209390640259 -0.0237066857516766 -2.13249468803406
vertex -3.19814085960388 -0.03556003049016 -3.1987419128418
vertex -2.13223934173584 -0.0719512403011322 -2.13180446624756
endloop
endfacet
facet normal -0.707188248634338 0.0122443921864033 0.706919252872467
outer loop
vertex -3.19835925102234 -0.107926860451698 -3.19770669937134
vertex -2.13223934173584 -0.0719512403011322 -2.13180446624756
vertex -3.19814085960388 -0.03556003049016 -3.1987419128418
endloop
endfacet
facet normal -0.707188248634338 0.0122443921864033 0.706919252872467
outer loop
vertex -3.19814085960388 -0.03556003049016 -3.1987419128418
vertex -4.26418781280518 -0.0474133715033531 -4.26498937606812
vertex -3.19835925102234 -0.107926860451698 -3.19770669937134
endloop
endfacet
facet normal -0.707188248634338 0.0122443912550807 0.706919312477112
outer loop
vertex -4.26447868347168 -0.143902480602264 -4.26360893249512
vertex -3.19835925102234 -0.107926860451698 -3.19770669937134
vertex -4.26418781280518 -0.0474133715033531 -4.26498937606812
endloop
endfacet
facet normal -0.707188248634338 0.0122443912550807 0.706919312477112
outer loop
vertex -4.26418781280518 -0.0474133715033531 -4.26498937606812
vertex -5.33023500442505 -0.0592667162418365 -5.33123636245728
vertex -4.26447868347168 -0.143902480602264 -4.26360893249512
endloop
endfacet
facet normal -0.707188248634338 0.0122443921864033 0.706919312477112
outer loop
vertex -5.3305983543396 -0.179878100752831 -5.3295111656189
vertex -4.26447868347168 -0.143902480602264 -4.26360893249512
vertex -5.33023500442505 -0.0592667162418365 -5.33123636245728
endloop
endfacet
facet normal -0.707188248634338 0.0122443912550807 0.706919252872467
outer loop
vertex -5.33023500442505 -0.0592667162418365 -5.33123636245728
vertex -6.35728216171265 -0.0706864222884178 -6.35847663879395
vertex -5.3305983543396 -0.179878100752831 -5.3295111656189
endloop
endfacet
facet normal -0.707188248634338 0.0122443912550807 0.706919252872467
outer loop
vertex -6.35773324966431 -0.21453820168972 -6.35643672943115
vertex -5.3305983543396 -0.179878100752831 -5.3295111656189
vertex -6.35728216171265 -0.0706864222884178 -6.35847663879395
endloop
endfacet
facet normal -0.707188248634338 0.0122443912550807 0.706919252872467
outer loop
vertex -6.35728216171265 -0.0706864222884178 -6.35847663879395
vertex -7.07018518447876 -0.0786131620407104 -7.07151365280151
vertex -6.35773324966431 -0.21453820168972 -6.35643672943115
endloop
endfacet
facet normal -0.707188308238983 0.0122443921864033 0.706919252872467
outer loop
vertex -7.07068109512329 -0.238596230745316 -7.06923913955688
vertex -6.35773324966431 -0.21453820168972 -6.35643672943115
vertex -7.07018518447876 -0.0786131620407104 -7.07151365280151
endloop
endfacet
facet normal 0.707009077072144 0.0150696020573378 -0.707043826580048
outer loop
vertex 0.00062429899116978 -0.0299935005605221 -1.49991292346385e-05
vertex -0.139199331402779 -0.0341201089322567 -0.139919728040695
vertex 0 0 0
endloop
endfacet
facet normal 0.707009136676788 0.0150696029886603 -0.707043886184692
outer loop
vertex -0.139877155423164 -0.00155528972391039 -0.13990344107151
vertex 0 0 0
vertex -0.139199331402779 -0.0341201089322567 -0.139919728040695
endloop
endfacet
facet normal 0.707009136676788 0.0150696029886603 -0.707043826580048
outer loop
vertex -0.374510437250137 -0.00416416954249144 -0.374580800533295
vertex -0.139877155423164 -0.00155528972391039 -0.13990344107151
vertex -0.37374284863472 -0.0410421825945377 -0.374599248170853
endloop
endfacet
facet normal 0.707009136676788 0.0150696029886603 -0.707043886184692
outer loop
vertex -0.139199331402779 -0.0341201089322567 -0.139919728040695
vertex -0.37374284863472 -0.0410421825945377 -0.374599248170853
vertex -0.139877155423164 -0.00155528972391039 -0.13990344107151
endloop
endfacet
facet normal 0.707009136676788 0.0150696029886603 -0.707043826580048
outer loop
vertex -0.374510437250137 -0.00416416954249144 -0.374580800533295
vertex -0.37374284863472 -0.0410421825945377 -0.374599248170853
vertex -0.768089890480042 -0.00854036677628756 -0.768234193325043
endloop
endfacet
facet normal 0.707009136676788 0.0150696029886603 -0.707043886184692
outer loop
vertex -0.767171680927277 -0.052653431892395 -0.76825624704361
vertex -0.768089890480042 -0.00854036677628756 -0.768234193325043
vertex -0.37374284863472 -0.0410421825945377 -0.374599248170853
endloop
endfacet
facet normal 0.707009136676788 0.0150696029886603 -0.707043826580048
outer loop
vertex -1.42828941345215 -0.0158811043947935 -1.42855775356293
vertex -0.768089890480042 -0.00854036677628756 -0.768234193325043
vertex -1.42711865901947 -0.0721304193139076 -1.42858588695526
endloop
endfacet
facet normal 0.707009136676788 0.0150696039199829 -0.707043886184692
outer loop
vertex -0.767171680927277 -0.052653431892395 -0.76825624704361
vertex -1.42711865901947 -0.0721304193139076 -1.42858588695526
vertex -0.768089890480042 -0.00854036677628756 -0.768234193325043
endloop
endfacet
facet normal 0.707009196281433 0.0150696039199829 -0.707043886184692
outer loop
vertex -1.42828941345215 -0.0158811043947935 -1.42855775356293
vertex -1.42711865901947 -0.0721304193139076 -1.42858588695526
vertex -2.43637299537659 -0.0270899552851915 -2.43683075904846
endloop
endfacet
facet normal 0.707009196281433 0.0150696039199829 -0.707043826580048
outer loop
vertex -2.43481636047363 -0.101870566606522 -2.43686819076538
vertex -2.43637299537659 -0.0270899552851915 -2.43683075904846
vertex -1.42711865901947 -0.0721304193139076 -1.42858588695526
endloop
endfacet
facet normal 0.707009196281433 0.0150696039199829 -0.707043886184692
outer loop
vertex -2.43637299537659 -0.0270899552851915 -2.43683075904846
vertex -2.43481636047363 -0.101870566606522 -2.43686819076538
vertex -3.49036908149719 -0.0388093031942844 -3.4910249710083
endloop
endfacet
facet normal 0.707009136676788 0.0150696020573378 -0.707043826580048
outer loop
vertex -3.48840928077698 -0.132965207099915 -3.49107193946838
vertex -3.49036908149719 -0.0388093031942844 -3.4910249710083
vertex -2.43481636047363 -0.101870566606522 -2.43686819076538
endloop
endfacet
facet normal 0.707009136676788 0.0150696020573378 -0.707043826580048
outer loop
vertex -3.49036908149719 -0.0388093031942844 -3.4910249710083
vertex -3.48840928077698 -0.132965207099915 -3.49107193946838
vertex -4.54436492919922 -0.0505286529660225 -4.54521894454956
endloop
endfacet
facet normal 0.707009136676788 0.0150696020573378 -0.707043826580048
outer loop
vertex -4.54200220108032 -0.164059847593307 -4.54527568817139
vertex -4.54436492919922 -0.0505286529660225 -4.54521894454956
vertex -3.48840928077698 -0.132965207099915 -3.49107193946838
endloop
endfacet
facet normal 0.707009196281433 0.0150696029886603 -0.707043826580048
outer loop
vertex -5.58280563354492 -0.062075037509203 -5.58385467529297
vertex -4.54436492919922 -0.0505286529660225 -4.54521894454956
vertex -5.58004522323608 -0.194695577025414 -5.58392095565796
endloop
endfacet
facet normal 0.707009196281433 0.0150696039199829 -0.707043826580048
outer loop
vertex -4.54200220108032 -0.164059847593307 -4.54527568817139
vertex -5.58004522323608 -0.194695577025414 -5.58392095565796
vertex -4.54436492919922 -0.0505286529660225 -4.54521894454956
endloop
endfacet
facet normal 0.707009136676788 0.0150696020573378 -0.707043886184692
outer loop
vertex -6.42638731002808 -0.071454793214798 -6.42759466171265
vertex -5.58280563354492 -0.062075037509203 -5.58385467529297
vertex -6.42330408096313 -0.219582632184029 -6.42766857147217
endloop
endfacet
facet normal 0.707009136676788 0.0150696020573378 -0.707043826580048
outer loop
vertex -5.58004522323608 -0.194695577025414 -5.58392095565796
vertex -6.42330408096313 -0.219582632184029 -6.42766857147217
vertex -5.58280563354492 -0.062075037509203 -5.58385467529297
endloop
endfacet
facet normal 0.707009136676788 0.0150696029886603 -0.707043826580048
outer loop
vertex -6.42638731002808 -0.071454793214798 -6.42759466171265
vertex -6.42330408096313 -0.219582632184029 -6.42766857147217
vertex -7.07033443450928 -0.0786148235201836 -7.07166290283203
endloop
endfacet
facet normal 0.707009136676788 0.0150696020573378 -0.707043826580048
outer loop
vertex -7.06700468063354 -0.238580152392387 -7.07174301147461
vertex -7.07033443450928 -0.0786148235201836 -7.07166290283203
vertex -6.42330408096313 -0.219582632184029 -6.42766857147217
endloop
endfacet
facet normal -0.303788274526596 -0.952739536762238 0
outer loop
vertex -1.28025829792023 -12.0137825012207 0.0599999986588955
vertex -1.09177148342133 -12.0738821029663 0.0587140619754791
vertex -1.28025829792023 -12.0137825012207 0.0900000035762787
endloop
endfacet
facet normal -0.303788304328918 -0.952739596366882 4.98881602803598e-14
outer loop
vertex -1.09177148342133 -12.0738821029663 0.0912859365344048
vertex -1.28025829792023 -12.0137825012207 0.0900000035762787
vertex -1.09177148342133 -12.0738821029663 0.0587140619754791
endloop
endfacet
facet normal -0.303788274526596 -0.952739536762238 4.67964120958505e-14
outer loop
vertex -0.775599122047424 -12.1746969223022 0.0565569959580898
vertex -0.775599122047424 -12.1746969223022 0.0934429988265038
vertex -1.09177148342133 -12.0738821029663 0.0587140619754791
endloop
endfacet
facet normal -0.303788304328918 -0.952739536762238 4.9888156892228e-14
outer loop
vertex -1.09177148342133 -12.0738821029663 0.0912859365344048
vertex -1.09177148342133 -12.0738821029663 0.0587140619754791
vertex -0.775599122047424 -12.1746969223022 0.0934429988265038
endloop
endfacet
facet normal -0.303788274526596 -0.952739536762238 4.67964154839823e-14
outer loop
vertex -0.775599122047424 -12.1746969223022 0.0565569959580898
vertex -0.245244145393372 -12.343804359436 0.0529386885464191
vertex -0.775599122047424 -12.1746969223022 0.0934429988265038
endloop
endfacet
facet normal -0.303788304328918 -0.952739596366882 -5.35079056055072e-15
outer loop
vertex -0.245244145393372 -12.343804359436 0.097061313688755
vertex -0.775599122047424 -12.1746969223022 0.0934429988265038
vertex -0.245244145393372 -12.343804359436 0.0529386885464191
endloop
endfacet
facet normal -0.303788274526596 -0.952739536762238 -2.88821091066864e-14
outer loop
vertex 0.644385933876038 -12.6274700164795 0.0468692481517792
vertex 0.644385933876038 -12.6274700164795 0.103130750358105
vertex -0.245244145393372 -12.343804359436 0.0529386885464191
endloop
endfacet
facet normal -0.303788274526596 -0.952739536762238 -5.35079013703425e-15
outer loop
vertex -0.245244145393372 -12.343804359436 0.097061313688755
vertex -0.245244145393372 -12.343804359436 0.0529386885464191
vertex 0.644385933876038 -12.6274700164795 0.103130750358105
endloop
endfacet
facet normal -0.303788274526596 -0.952739477157593 -2.88821057185546e-14
outer loop
vertex 0.644385933876038 -12.6274700164795 0.0468692481517792
vertex 2.00279569625854 -13.0606088638306 0.0376015901565552
vertex 0.644385933876038 -12.6274700164795 0.103130750358105
endloop
endfacet
facet normal -0.303788274526596 -0.952739596366882 -4.34497340992719e-14
outer loop
vertex 2.00279569625854 -13.0606088638306 0.112398408353329
vertex 0.644385933876038 -12.6274700164795 0.103130750358105
vertex 2.00279569625854 -13.0606088638306 0.0376015901565552
endloop
endfacet
facet normal -0.303788274526596 -0.952739596366882 -4.34497307111401e-14
outer loop
vertex 2.00279569625854 -13.0606088638306 0.0376015901565552
vertex 3.42307329177856 -13.5134754180908 0.0279118437319994
vertex 2.00279569625854 -13.0606088638306 0.112398408353329
endloop
endfacet
facet normal -0.303788334131241 -0.952739655971527 1.43251651995658e-15
outer loop
vertex 3.42307329177856 -13.5134754180908 0.12208815664053
vertex 2.00279569625854 -13.0606088638306 0.112398408353329
vertex 3.42307329177856 -13.5134754180908 0.0279118437319994
endloop
endfacet
facet normal -0.303788274526596 -0.952739536762238 -0
outer loop
vertex 4.84335088729858 -13.9663419723511 0.13177789747715
vertex 3.42307329177856 -13.5134754180908 0.12208815664053
vertex 4.84335088729858 -13.9663419723511 0.0182220991700888
endloop
endfacet
facet normal -0.303788334131241 -0.952739655971527 1.43251651995658e-15
outer loop
vertex 3.42307329177856 -13.5134754180908 0.0279118437319994
vertex 4.84335088729858 -13.9663419723511 0.0182220991700888
vertex 3.42307329177856 -13.5134754180908 0.12208815664053
endloop
endfacet
facet normal -0.303788304328918 -0.952739536762238 -0
outer loop
vertex 4.84335088729858 -13.9663419723511 0.13177789747715
vertex 4.84335088729858 -13.9663419723511 0.0182220991700888
vertex 6.24266672134399 -14.4125242233276 0.141324639320374
endloop
endfacet
facet normal -0.303788274526596 -0.952739536762238 -1.2758496448456e-14
outer loop
vertex 6.24266672134399 -14.4125242233276 0.00867536105215549
vertex 6.24266672134399 -14.4125242233276 0.141324639320374
vertex 4.84335088729858 -13.9663419723511 0.0182220991700888
endloop
endfacet
facet normal -0.303788274526596 -0.952739536762238 -1.8211280363768e-15
outer loop
vertex 7.37940740585327 -14.7749824523926 0.000920027552638203
vertex 7.37940740585327 -14.7749824523926 0.149079978466034
vertex 6.24266672134399 -14.4125242233276 0.00867536105215549
endloop
endfacet
facet normal -0.303788304328918 -0.952739536762238 -1.2758496448456e-14
outer loop
vertex 6.24266672134399 -14.4125242233276 0.141324639320374
vertex 6.24266672134399 -14.4125242233276 0.00867536105215549
vertex 7.37940740585327 -14.7749824523926 0.149079978466034
endloop
endfacet
facet normal -0.303788274526596 -0.952739596366882 -1.82112782461856e-15
outer loop
vertex 7.37940740585327 -14.7749824523926 0.000920027552638203
vertex 8.24713706970215 -15.0516653060913 -0.00499999988824129
vertex 7.37940740585327 -14.7749824523926 0.149079978466034
endloop
endfacet
facet normal -0.303788274526596 -0.952739536762238 -0
outer loop
vertex 8.24713706970215 -15.0516653060913 0.155000001192093
vertex 7.37940740585327 -14.7749824523926 0.149079978466034
vertex 8.24713706970215 -15.0516653060913 -0.00499999988824129
endloop
endfacet
facet normal 0.0170321445912123 -0.00520998565480113 0.999841392040253
outer loop
vertex -1.28025829792023 -12.0137825012207 0.0599999986588955
vertex -0.457072705030441 -12.266037940979 0.0446627028286457
vertex -1.23638153076172 -11.870343208313 0.0599999986588955
endloop
endfacet
facet normal 0.0170321445912123 -0.00520998612046242 0.999841332435608
outer loop
vertex -0.412943989038467 -12.1217746734619 0.0446627028286457
vertex -1.23638153076172 -11.870343208313 0.0599999986588955
vertex -0.457072705030441 -12.266037940979 0.0446627028286457
endloop
endfacet
facet normal 0.0170321445912123 -0.00520998612046242 0.999841392040253
outer loop
vertex 0.6406329870224 -12.6024169921875 0.0242106448858976
vertex 0.685097575187683 -12.4570560455322 0.0242106448858976
vertex -0.457072705030441 -12.266037940979 0.0446627028286457
endloop
endfacet
facet normal 0.0170321445912123 -0.00520998565480113 0.999841392040253
outer loop
vertex -0.412943989038467 -12.1217746734619 0.0446627028286457
vertex -0.457072705030441 -12.266037940979 0.0446627028286457
vertex 0.685097575187683 -12.4570560455322 0.0242106448858976
endloop
endfacet
facet normal 0.0170321464538574 -0.00520998565480113 0.999841332435608
outer loop
vertex 0.6406329870224 -12.6024169921875 0.0242106448858976
vertex 2.02937817573547 -13.0279817581177 -0.00166395702399313
vertex 0.685097575187683 -12.4570560455322 0.0242106448858976
endloop
endfacet
facet normal 0.0170321445912123 -0.00520998565480113 0.999841392040253
outer loop
vertex 2.07426786422729 -12.8812313079834 -0.00166395702399313
vertex 0.685097575187683 -12.4570560455322 0.0242106448858976
vertex 2.02937817573547 -13.0279817581177 -0.00166395702399313
endloop
endfacet
facet normal 0.0170321445912123 -0.00520998612046242 0.999841392040253
outer loop
vertex 2.02937817573547 -13.0279817581177 -0.00166395702399313
vertex 3.45136857032776 -13.4637336730957 -0.0281579680740833
vertex 2.07426786422729 -12.8812313079834 -0.00166395702399313
endloop
endfacet
facet normal 0.0170321464538574 -0.00520998612046242 0.999841332435608
outer loop
vertex 3.49669313430786 -13.3155612945557 -0.0281579680740833
vertex 2.07426786422729 -12.8812313079834 -0.00166395702399313
vertex 3.45136857032776 -13.4637336730957 -0.0281579680740833
endloop
endfacet
facet normal 0.0170321464538574 -0.00520998612046242 0.999841332435608
outer loop
vertex 3.45136857032776 -13.4637336730957 -0.0281579680740833
vertex 4.87335872650146 -13.899486541748 -0.0546519793570042
vertex 3.49669313430786 -13.3155612945557 -0.0281579680740833
endloop
endfacet
facet normal 0.0170321464538574 -0.00520998612046242 0.999841392040253
outer loop
vertex 4.91911888122559 -13.7498912811279 -0.0546519793570042
vertex 3.49669313430786 -13.3155612945557 -0.0281579680740833
vertex 4.87335872650146 -13.899486541748 -0.0546519793570042
endloop
endfacet
facet normal 0.0170321464538574 -0.00520998565480113 0.999841392040253
outer loop
vertex 6.2735447883606 -14.3285570144653 -0.0807397365570068
vertex 6.31973266601563 -14.1775608062744 -0.0807397365570068
vertex 4.87335872650146 -13.899486541748 -0.0546519793570042
endloop
endfacet
facet normal 0.0170321445912123 -0.00520998565480113 0.999841392040253
outer loop
vertex 4.91911888122559 -13.7498912811279 -0.0546519793570042
vertex 4.87335872650146 -13.899486541748 -0.0546519793570042
vertex 6.31973266601563 -14.1775608062744 -0.0807397365570068
endloop
endfacet
facet normal 0.0170321464538574 -0.00520998612046242 0.999841392040253
outer loop
vertex 7.4104790687561 -14.6769571304321 -0.101922690868378
vertex 7.45701551437378 -14.5248241424561 -0.101922690868378
vertex 6.2735447883606 -14.3285570144653 -0.0807397365570068
endloop
endfacet
facet normal 0.0170321445912123 -0.00520998565480113 0.999841392040253
outer loop
vertex 6.31973266601563 -14.1775608062744 -0.0807397365570068
vertex 6.2735447883606 -14.3285570144653 -0.0807397365570068
vertex 7.45701551437378 -14.5248241424561 -0.101922690868378
endloop
endfacet
facet normal 0.0170321445912123 -0.00520998565480113 0.999841392040253
outer loop
vertex 7.4104790687561 -14.6769571304321 -0.101922690868378
vertex 8.27937984466553 -14.9432210922241 -0.118111744523048
vertex 7.45701551437378 -14.5248241424561 -0.101922690868378
endloop
endfacet
facet normal 0.0170321445912123 -0.00520998565480113 0.999841392040253
outer loop
vertex 8.32618236541748 -14.7902193069458 -0.118111744523048
vertex 7.45701551437378 -14.5248241424561 -0.101922690868378
vertex 8.27937984466553 -14.9432210922241 -0.118111744523048
endloop
endfacet
facet normal -0.219202533364296 -0.672334790229797 -0.707047462463379
outer loop
vertex 8.28060436248779 -14.9435911178589 -0.118138797581196
vertex 8.24693584442139 -15.0516004562378 -0.00499409157782793
vertex 7.31655168533325 -14.6481695175171 -0.100176498293877
endloop
endfacet
facet normal -0.219202533364296 -0.672334790229797 -0.707047522068024
outer loop
vertex 7.2862720489502 -14.745285987854 0.00155951676424593
vertex 7.31655168533325 -14.6481695175171 -0.100176498293877
vertex 8.24693584442139 -15.0516004562378 -0.00499409157782793
endloop
endfacet
facet normal -0.219202533364296 -0.672334790229797 -0.707047522068024
outer loop
vertex 7.31655168533325 -14.6481695175171 -0.100176498293877
vertex 7.2862720489502 -14.745285987854 0.00155951676424593
vertex 5.92767524719238 -14.2225646972656 -0.0742988288402557
endloop
endfacet
facet normal -0.219202533364296 -0.672334790229797 -0.707047462463379
outer loop
vertex 5.90230703353882 -14.3039979934692 0.0110008623450994
vertex 5.92767524719238 -14.2225646972656 -0.0742988288402557
vertex 7.2862720489502 -14.745285987854 0.00155951676424593
endloop
endfacet
facet normal -0.219202548265457 -0.672334790229797 -0.707047462463379
outer loop
vertex 5.92767524719238 -14.2225646972656 -0.0742988288402557
vertex 5.90230703353882 -14.3039979934692 0.0110008623450994
vertex 4.48608827590942 -13.7808084487915 -0.0474390648305416
endloop
endfacet
facet normal -0.219202533364296 -0.672334849834442 -0.707047462463379
outer loop
vertex 4.4657940864563 -13.8459548950195 0.0208006892353296
vertex 4.48608827590942 -13.7808084487915 -0.0474390648305416
vertex 5.90230703353882 -14.3039979934692 0.0110008623450994
endloop
endfacet
facet normal -0.219202533364296 -0.672334849834442 -0.707047462463379
outer loop
vertex 4.48608827590942 -13.7808084487915 -0.0474390648305416
vertex 4.4657940864563 -13.8459548950195 0.0208006892353296
vertex 3.04450178146362 -13.3390522003174 -0.0205792970955372
endloop
endfacet
facet normal -0.219202533364296 -0.672334790229797 -0.707047522068024
outer loop
vertex 3.0292809009552 -13.3879117965698 0.030600517988205
vertex 3.04450178146362 -13.3390522003174 -0.0205792970955372
vertex 4.4657940864563 -13.8459548950195 0.0208006892353296
endloop
endfacet
facet normal -0.219202533364296 -0.672334790229797 -0.707047522068024
outer loop
vertex 3.04450178146362 -13.3390522003174 -0.0205792970955372
vertex 3.0292809009552 -13.3879117965698 0.030600517988205
vertex 1.60291504859924 -12.8972949981689 0.0062804683111608
endloop
endfacet
facet normal -0.219202533364296 -0.672334849834442 -0.707047462463379
outer loop
vertex 1.59276783466339 -12.9298686981201 0.0404003448784351
vertex 1.60291504859924 -12.8972949981689 0.0062804683111608
vertex 3.0292809009552 -13.3879117965698 0.030600517988205
endloop
endfacet
facet normal -0.219202533364296 -0.672334849834442 -0.707047462463379
outer loop
vertex 1.59276783466339 -12.9298686981201 0.0404003448784351
vertex 0.156254768371582 -12.4718255996704 0.0502001717686653
vertex 1.60291504859924 -12.8972949981689 0.0062804683111608
endloop
endfacet
facet normal -0.219202533364296 -0.672334849834442 -0.707047462463379
outer loop
vertex 0.161328390240669 -12.4555387496948 0.0331402346491814
vertex 1.60291504859924 -12.8972949981689 0.0062804683111608
vertex 0.156254768371582 -12.4718255996704 0.0502001717686653
endloop
endfacet
facet normal -0.219202533364296 -0.672334849834442 -0.707047462463379
outer loop
vertex 0.156254768371582 -12.4718255996704 0.0502001717686653
vertex -1.28025829792023 -12.0137825012207 0.0599999986588955
vertex 0.161328390240669 -12.4555387496948 0.0331402346491814
endloop
endfacet
facet normal -0.955717802047729 0.292345821857452 0.0337252505123615
outer loop
vertex -0.912417232990265 -11.9642114639282 10.0843114852905
vertex -0.941863179206848 -11.9556798934937 9.17590236663818
vertex -0.95921915769577 -12.1172142028809 10.0843114852905
endloop
endfacet
facet normal -0.955717802047729 0.292345821857452 0.0337252505123615
outer loop
vertex -0.988399267196655 -12.1078128814697 9.17590236663818
vertex -0.95921915769577 -12.1172142028809 10.0843114852905
vertex -0.941863179206848 -11.9556798934937 9.17590236663818
endloop
endfacet
facet normal -0.955717802047729 0.292345821857452 0.0337252542376518
outer loop
vertex -0.988399267196655 -12.1078128814697 9.17590236663818
vertex -0.941863179206848 -11.9556798934937 9.17590236663818
vertex -1.02658069133759 -12.0955114364624 7.98727130889893
endloop
endfacet
facet normal -0.955717802047729 0.292345821857452 0.0337252505123615
outer loop
vertex -0.980392515659332 -11.9445161819458 7.98727130889893
vertex -1.02658069133759 -12.0955114364624 7.98727130889893
vertex -0.941863179206848 -11.9556798934937 9.17590236663818
endloop
endfacet
facet normal -0.955717802047729 0.292345821857452 0.0337252505123615
outer loop
vertex -1.02658069133759 -12.0955114364624 7.98727130889893
vertex -0.980392515659332 -11.9445161819458 7.98727130889893
vertex -1.07360279560089 -12.0803623199463 6.52341985702515
endloop
endfacet
facet normal -0.955717802047729 0.292345821857452 0.0337252505123615
outer loop
vertex -1.02784299850464 -11.9307670593262 6.52341985702515
vertex -1.07360279560089 -12.0803623199463 6.52341985702515
vertex -0.980392515659332 -11.9445161819458 7.98727130889893
endloop
endfacet
facet normal -0.955717802047729 0.292345821857452 0.0337252505123615
outer loop
vertex -1.02784299850464 -11.9307670593262 6.52341985702515
vertex -1.07603251934052 -11.9168043136597 5.03677225112915
vertex -1.07360279560089 -12.0803623199463 6.52341985702515
endloop
endfacet
facet normal -0.955717802047729 0.29234579205513 0.0337252505123615
outer loop
vertex -1.12135720252991 -12.0649766921997 5.03677225112915
vertex -1.07360279560089 -12.0803623199463 6.52341985702515
vertex -1.07603251934052 -11.9168043136597 5.03677225112915
endloop
endfacet
facet normal -0.955717802047729 0.29234579205513 0.0337252505123615
outer loop
vertex -1.07603251934052 -11.9168043136597 5.03677225112915
vertex -1.12422204017639 -11.9028415679932 3.55012440681458
vertex -1.12135720252991 -12.0649766921997 5.03677225112915
endloop
endfacet
facet normal -0.955717802047729 0.29234579205513 0.0337252505123615
outer loop
vertex -1.16911149024963 -12.0495910644531 3.55012440681458
vertex -1.12135720252991 -12.0649766921997 5.03677225112915
vertex -1.12422204017639 -11.9028415679932 3.55012440681458
endloop
endfacet
facet normal -0.955717742443085 0.29234579205513 0.0337252467870712
outer loop
vertex -1.12422204017639 -11.9028415679932 3.55012440681458
vertex -1.17128491401672 -11.8892049789429 2.09823346138
vertex -1.16911149024963 -12.0495910644531 3.55012440681458
endloop
endfacet
facet normal -0.955717861652374 0.29234579205513 0.0337252505123615
outer loop
vertex -1.21574950218201 -12.0345649719238 2.09823346138
vertex -1.16911149024963 -12.0495910644531 3.55012440681458
vertex -1.17128491401672 -11.8892049789429 2.09823346138
endloop
endfacet
facet normal -0.955717802047729 0.29234579205513 0.0337252505123615
outer loop
vertex -1.21574950218201 -12.0345649719238 2.09823346138
vertex -1.17128491401672 -11.8892049789429 2.09823346138
vertex -1.25261342525482 -12.0226888656616 0.950615525245667
endloop
endfacet
facet normal -0.955717802047729 0.292345821857452 0.0337252505123615
outer loop
vertex -1.20848476886749 -11.8784255981445 0.950615525245667
vertex -1.25261342525482 -12.0226888656616 0.950615525245667
vertex -1.17128491401672 -11.8892049789429 2.09823346138
endloop
endfacet
facet normal -0.955717802047729 0.292345821857452 0.0337252505123615
outer loop
vertex -1.20848476886749 -11.8784255981445 0.950615525245667
vertex -1.23638153076172 -11.870343208313 0.0900000035762787
vertex -1.25261342525482 -12.0226888656616 0.950615525245667
endloop
endfacet
facet normal -0.955717742443085 0.292345821857452 0.0337252467870712
outer loop
vertex -1.28025829792023 -12.0137825012207 0.0900000035762787
vertex -1.25261342525482 -12.0226888656616 0.950615525245667
vertex -1.23638153076172 -11.870343208313 0.0900000035762787
endloop
endfacet
facet normal 0.192408457398415 0.680527031421661 -0.707009136676788
outer loop
vertex 1.06033480167389 -5.17769289016724 7.15700483322144
vertex 0.853768587112427 -5.7880392074585 6.51330375671387
vertex 0.907342612743378 -5.13097763061523 7.16033458709717
endloop
endfacet
facet normal 0.192408472299576 0.680527031421661 -0.707009136676788
outer loop
vertex 0.712097942829132 -5.74478101730347 6.51638698577881
vertex 0.907342612743378 -5.13097763061523 7.16033458709717
vertex 0.853768587112427 -5.7880392074585 6.51330375671387
endloop
endfacet
facet normal 0.192408472299576 0.680527031421661 -0.707009136676788
outer loop
vertex 0.712097942829132 -5.74478101730347 6.51638698577881
vertex 0.853768587112427 -5.7880392074585 6.51330375671387
vertex 0.45632416009903 -6.54887390136719 5.67280530929565
endloop
endfacet
facet normal 0.192408472299576 0.680527031421661 -0.707009136676788
outer loop
vertex 0.583163499832153 -6.58760356903076 5.67004489898682
vertex 0.45632416009903 -6.54887390136719 5.67280530929565
vertex 0.853768587112427 -5.7880392074585 6.51330375671387
endloop
endfacet
facet normal 0.192408457398415 0.680527031421661 -0.707009136676788
outer loop
vertex 0.45632416009903 -6.54887390136719 5.67280530929565
vertex 0.583163499832153 -6.58760356903076 5.67004489898682
vertex 0.141469210386276 -7.53870391845703 4.63436508178711
endloop
endfacet
facet normal 0.192408472299576 0.680527091026306 -0.707009196281433
outer loop
vertex 0.250051379203796 -7.57185888290405 4.63200187683105
vertex 0.141469210386276 -7.53870391845703 4.63436508178711
vertex 0.583163499832153 -6.58760356903076 5.67004489898682
endloop
endfacet
facet normal 0.192408472299576 0.680527031421661 -0.707009136676788
outer loop
vertex 0.250051379203796 -7.57185888290405 4.63200187683105
vertex -0.0880507379770279 -8.57085800170898 3.57840919494629
vertex 0.141469210386276 -7.53870391845703 4.63436508178711
endloop
endfacet
facet normal 0.192408457398415 0.680527031421661 -0.707009136676788
outer loop
vertex -0.17810221016407 -8.54336166381836 3.5803689956665
vertex 0.141469210386276 -7.53870391845703 4.63436508178711
vertex -0.0880507379770279 -8.57085800170898 3.57840919494629
endloop
endfacet
facet normal 0.192408457398415 0.680527031421661 -0.707009136676788
outer loop
vertex -0.0880507379770279 -8.57085800170898 3.57840919494629
vertex -0.426152855157852 -9.56985759735107 2.52481651306152
vertex -0.17810221016407 -8.54336166381836 3.5803689956665
endloop
endfacet
facet normal 0.192408487200737 0.680527091026306 -0.707009136676788
outer loop
vertex -0.497673630714417 -9.54801845550537 2.5263729095459
vertex -0.17810221016407 -8.54336166381836 3.5803689956665
vertex -0.426152855157852 -9.56985759735107 2.52481651306152
endloop
endfacet
facet normal 0.192408472299576 0.680527031421661 -0.707009136676788
outer loop
vertex -0.426152855157852 -9.56985759735107 2.52481651306152
vertex -0.749527096748352 -10.5253400802612 1.51711857318878
vertex -0.497673630714417 -9.54801845550537 2.5263729095459
endloop
endfacet
facet normal 0.192408472299576 0.680527031421661 -0.707009136676788
outer loop
vertex -0.803324401378632 -10.5089130401611 1.51828944683075
vertex -0.497673630714417 -9.54801845550537 2.5263729095459
vertex -0.749527096748352 -10.5253400802612 1.51711857318878
endloop
endfacet
facet normal 0.192408472299576 0.680527031421661 -0.707009136676788
outer loop
vertex -0.803324401378632 -10.5089130401611 1.51828944683075
vertex -0.749527096748352 -10.5253400802612 1.51711857318878
vertex -1.00349676609039 -11.1382074356079 0.858089864253998
endloop
endfacet
facet normal 0.192408487200737 0.680527031421661 -0.707009136676788
outer loop
vertex -0.961306691169739 -11.1510906219482 0.857171714305878
vertex -1.00349676609039 -11.1382074356079 0.858089864253998
vertex -0.749527096748352 -10.5253400802612 1.51711857318878
endloop
endfacet
facet normal 0.192408472299576 0.680527091026306 -0.707009136676788
outer loop
vertex -0.961306691169739 -11.1510906219482 0.857171714305878
vertex -1.08755958080292 -11.5241327285767 0.463742822408676
vertex -1.00349676609039 -11.1382074356079 0.858089864253998
endloop
endfacet
facet normal 0.192408472299576 0.680527031421661 -0.707009136676788
outer loop
vertex -1.12283003330231 -11.5133638381958 0.464510440826416
vertex -1.00349676609039 -11.1382074356079 0.858089864253998
vertex -1.08755958080292 -11.5241327285767 0.463742822408676
endloop
endfacet
facet normal 0.192408472299576 0.680527031421661 -0.707009136676788
outer loop
vertex -1.12283003330231 -11.5133638381958 0.464510440826416
vertex -1.08755958080292 -11.5241327285767 0.463742822408676
vertex -1.19397079944611 -11.7370138168335 0.229877158999443
endloop
endfacet
facet normal 0.192408472299576 0.680527031421661 -0.707009136676788
outer loop
vertex -1.16282546520233 -11.7465238571167 0.229199334979057
vertex -1.19397079944611 -11.7370138168335 0.229877158999443
vertex -1.08755958080292 -11.5241327285767 0.463742822408676
endloop
endfacet
facet normal 0.192408472299576 0.680527091026306 -0.707009136676788
outer loop
vertex -1.19397079944611 -11.7370138168335 0.229877158999443
vertex -1.16282546520233 -11.7465238571167 0.229199334979057
vertex -1.23638153076172 -11.870343208313 0.0900000035762787
endloop
endfacet
facet normal 0.192408472299576 0.680527031421661 -0.707009077072144
outer loop
vertex -1.20769548416138 -11.8791017532349 0.0893757045269012
vertex -1.23638153076172 -11.870343208313 0.0900000035762787
vertex -1.16282546520233 -11.7465238571167 0.229199334979057
endloop
endfacet
facet normal -0.218491360545158 -0.672418236732483 0.707188308238983
outer loop
vertex 1.05961763858795 -5.18009185791016 7.16068124771118
vertex 0.907297372817993 -5.13111972808838 7.16018486022949
vertex 0.828108549118042 -5.85468053817749 6.4477334022522
endloop
endfacet
facet normal -0.21849137544632 -0.672418236732483 0.707188248634338
outer loop
vertex 0.691145300865173 -5.81065130233765 6.44728231430054
vertex 0.828108549118042 -5.85468053817749 6.4477334022522
vertex 0.907297372817993 -5.13111972808838 7.16018486022949
endloop
endfacet
facet normal -0.218491360545158 -0.672418236732483 0.707188248634338
outer loop
vertex 0.828108549118042 -5.85468053817749 6.4477334022522
vertex 0.691145300865173 -5.81065130233765 6.44728231430054
vertex 0.494576185941696 -6.82655143737793 5.42059850692749
endloop
endfacet
facet normal -0.218491360545158 -0.672418236732483 0.707188248634338
outer loop
vertex 0.379744797945023 -6.78962135314941 5.42023515701294
vertex 0.494576185941696 -6.82655143737793 5.42059850692749
vertex 0.691145300865173 -5.81065130233765 6.44728231430054
endloop
endfacet
facet normal -0.21849137544632 -0.672418296337128 0.707188248634338
outer loop
vertex 0.494576185941696 -6.82655143737793 5.42059850692749
vertex 0.379744797945023 -6.78962135314941 5.42023515701294
vertex 0.148384660482407 -7.83530950546265 4.35447883605957
endloop
endfacet
facet normal -0.218491360545158 -0.672418236732483 0.707188248634338
outer loop
vertex 0.0565195493400097 -7.8057656288147 4.35418796539307
vertex 0.148384660482407 -7.83530950546265 4.35447883605957
vertex 0.379744797945023 -6.78962135314941 5.42023515701294
endloop
endfacet
facet normal -0.218491360545158 -0.672418236732483 0.707188248634338
outer loop
vertex 0.148384660482407 -7.83530950546265 4.35447883605957
vertex 0.0565195493400097 -7.8057656288147 4.35418796539307
vertex -0.197806864976883 -8.84406757354736 3.28835916519165
endloop
endfacet
facet normal -0.218491360545158 -0.672418236732483 0.707188248634338
outer loop
vertex -0.266705721616745 -8.82190990447998 3.28814101219177
vertex -0.197806864976883 -8.84406757354736 3.28835916519165
vertex 0.0565195493400097 -7.8057656288147 4.35418796539307
endloop
endfacet
facet normal -0.218491360545158 -0.672418236732483 0.707188248634338
outer loop
vertex -0.197806864976883 -8.84406757354736 3.28835916519165
vertex -0.266705721616745 -8.82190990447998 3.28814101219177
vertex -0.543998420238495 -9.85282611846924 2.22223949432373
endloop
endfacet
facet normal -0.218491360545158 -0.672418236732483 0.707188248634338
outer loop
vertex -0.589930951595306 -9.83805370330811 2.22209405899048
vertex -0.543998420238495 -9.85282611846924 2.22223949432373
vertex -0.266705721616745 -8.82190990447998 3.28814101219177
endloop
endfacet
facet normal -0.218491360545158 -0.672418236732483 0.707188248634338
outer loop
vertex -0.589930951595306 -9.83805370330811 2.22209405899048
vertex -0.91315621137619 -10.8541984558105 1.1560469865799
vertex -0.543998420238495 -9.85282611846924 2.22223949432373
endloop
endfacet
facet normal -0.218491360545158 -0.672418236732483 0.707188248634338
outer loop
vertex -0.890189945697784 -10.8615846633911 1.15611970424652
vertex -0.543998420238495 -9.85282611846924 2.22223949432373
vertex -0.91315621137619 -10.8541984558105 1.1560469865799
endloop
endfacet
facet normal -0.218491360545158 -0.672418236732483 0.707188248634338
outer loop
vertex -0.91315621137619 -10.8541984558105 1.1560469865799
vertex -1.23638153076172 -11.870343208313 0.0900000035762787
vertex -0.890189945697784 -10.8615846633911 1.15611970424652
endloop
endfacet
facet normal -0.303787648677826 -0.952739834785461 -0.000101642901427113
outer loop
vertex 0.042688824236393 -12.4365634918213 9.0037260055542
vertex -0.95921915769577 -12.1172142028809 10.0843114852905
vertex 0.0262147206813097 -12.4313087463379 8.98690223693848
endloop
endfacet
facet normal -0.303787648677826 -0.952739834785461 -0.000101642901427113
outer loop
vertex 1.0445967912674 -12.755913734436 7.92314004898071
vertex 0.042688824236393 -12.4365634918213 9.0037260055542
vertex 1.01164865493774 -12.7454042434692 7.88949346542358
endloop
endfacet
facet normal -0.303787648677826 -0.952739834785461 -0.000101642901427113
outer loop
vertex 0.0262147206813097 -12.4313087463379 8.98690223693848
vertex 1.01164865493774 -12.7454042434692 7.88949346542358
vertex 0.042688824236393 -12.4365634918213 9.0037260055542
endloop
endfacet
facet normal -0.303787648677826 -0.952739834785461 -0.000101642901427113
outer loop
vertex 1.01164865493774 -12.7454042434692 7.88949346542358
vertex 1.99708247184753 -13.0594997406006 6.79208421707153
vertex 1.0445967912674 -12.755913734436 7.92314004898071
endloop
endfacet
facet normal -0.303787648677826 -0.952739834785461 -0.000101642901427113
outer loop
vertex 2.04650473594666 -13.0752639770508 6.84255456924438
vertex 1.0445967912674 -12.755913734436 7.92314004898071
vertex 1.99708247184753 -13.0594997406006 6.79208421707153
endloop
endfacet
facet normal -0.303787648677826 -0.952739834785461 -0.000101642901427113
outer loop
vertex 2.04650473594666 -13.0752639770508 6.84255456924438
vertex 1.99708247184753 -13.0594997406006 6.79208421707153
vertex 3.04841279983521 -13.3946142196655 5.76196908950806
endloop
endfacet
facet normal -0.303787648677826 -0.952739834785461 -0.000101642901427113
outer loop
vertex 2.9825165271759 -13.3735952377319 5.69467496871948
vertex 3.04841279983521 -13.3946142196655 5.76196908950806
vertex 1.99708247184753 -13.0594997406006 6.79208421707153
endloop
endfacet
facet normal -0.303787648677826 -0.952739834785461 -0.000101642901427113
outer loop
vertex 3.04841279983521 -13.3946142196655 5.76196908950806
vertex 2.9825165271759 -13.3735952377319 5.69467496871948
vertex 4.05032062530518 -13.713963508606 4.68138313293457
endloop
endfacet
facet normal -0.303787678480148 -0.952739775180817 -0.00010164290870307
outer loop
vertex 3.96795034408569 -13.6876907348633 4.59726619720459
vertex 4.05032062530518 -13.713963508606 4.68138313293457
vertex 2.9825165271759 -13.3735952377319 5.69467496871948
endloop
endfacet
facet normal -0.303787648677826 -0.952739715576172 -0.000101642894151155
outer loop
vertex 4.05032062530518 -13.713963508606 4.68138313293457
vertex 3.96795034408569 -13.6876907348633 4.59726619720459
vertex 5.01557874679565 -14.021632194519 3.64032602310181
endloop
endfacet
facet normal -0.303787648677826 -0.952739715576172 -0.000101642901427113
outer loop
vertex 4.9173526763916 -13.9903011322021 3.53998255729675
vertex 5.01557874679565 -14.021632194519 3.64032602310181
vertex 3.96795034408569 -13.6876907348633 4.59726619720459
endloop
endfacet
facet normal -0.303787678480148 -0.952739834785461 -0.000101642915979028
outer loop
vertex 5.01557874679565 -14.021632194519 3.64032602310181
vertex 4.9173526763916 -13.9903011322021 3.53998255729675
vertex 5.68560171127319 -14.2351961135864 2.91768717765808
endloop
endfacet
facet normal -0.303787648677826 -0.952739775180817 -0.000101642894151155
outer loop
vertex 5.57635545730591 -14.2003507614136 2.80609703063965
vertex 5.68560171127319 -14.2351961135864 2.91768717765808
vertex 4.9173526763916 -13.9903011322021 3.53998255729675
endloop
endfacet
facet normal -1 0 0
outer loop
vertex -0.178139999508858 -10 -0.00499999988824129
vertex -0.178139999508858 -11 -0.00499999988824129
vertex -0.178139999508858 -10 0.155000001192093
endloop
endfacet
facet normal -1 0 0
outer loop
vertex -0.178139999508858 -11 0.155000001192093
vertex -0.178139999508858 -10 0.155000001192093
vertex -0.178139999508858 -11 -0.00499999988824129
endloop
endfacet
facet normal -0.70710676908493 -0 -0.70710676908493
outer loop
vertex -0.0649999976158142 -10 -0.118139997124672
vertex -0.0649999976158142 -11 -0.118139997124672
vertex -0.178139999508858 -10 -0.00499999988824129
endloop
endfacet
facet normal -0.70710676908493 0 -0.70710676908493
outer loop
vertex -0.178139999508858 -11 -0.00499999988824129
vertex -0.178139999508858 -10 -0.00499999988824129
vertex -0.0649999976158142 -11 -0.118139997124672
endloop
endfacet
facet normal -0.70710676908493 0 0.70710676908493
outer loop
vertex -0.0649999976158142 -11 0.268139988183975
vertex -0.0649999976158142 -10 0.268139988183975
vertex -0.178139999508858 -11 0.155000001192093
endloop
endfacet
facet normal -0.70710676908493 0 0.70710676908493
outer loop
vertex -0.178139999508858 -10 0.155000001192093
vertex -0.178139999508858 -11 0.155000001192093
vertex -0.0649999976158142 -10 0.268139988183975
endloop
endfacet
facet normal -0 -0 -1
outer loop
vertex 0.0949999988079071 -10 -0.118139997124672
vertex 0.0949999988079071 -11 -0.118139997124672
vertex -0.0649999976158142 -10 -0.118139997124672
endloop
endfacet
facet normal 0 0 -1
outer loop
vertex -0.0649999976158142 -11 -0.118139997124672
vertex -0.0649999976158142 -10 -0.118139997124672
vertex 0.0949999988079071 -11 -0.118139997124672
endloop
endfacet
facet normal 0 -0 1
outer loop
vertex 0.0949999988079071 -11 0.268139988183975
vertex 0.0949999988079071 -10 0.268139988183975
vertex -0.0649999976158142 -11 0.268139988183975
endloop
endfacet
facet normal -0 0 1
outer loop
vertex -0.0649999976158142 -10 0.268139988183975
vertex -0.0649999976158142 -11 0.268139988183975
vertex 0.0949999988079071 -10 0.268139988183975
endloop
endfacet
facet normal 0.70710676908493 0 -0.70710676908493
outer loop
vertex 0.0949999988079071 -10 -0.118139997124672
vertex 0.208140000700951 -10 -0.00499999988824129
vertex 0.0949999988079071 -11 -0.118139997124672
endloop
endfacet
facet normal 0.70710676908493 0 -0.70710676908493
outer loop
vertex 0.208140000700951 -11 -0.00499999988824129
vertex 0.0949999988079071 -11 -0.118139997124672
vertex 0.208140000700951 -10 -0.00499999988824129
endloop
endfacet
facet normal 0.70710676908493 -0 0.70710676908493
outer loop
vertex 0.208140000700951 -11 0.155000001192093
vertex 0.208140000700951 -10 0.155000001192093
vertex 0.0949999988079071 -11 0.268139988183975
endloop
endfacet
facet normal 0.70710676908493 0 0.70710676908493
outer loop
vertex 0.0949999988079071 -10 0.268139988183975
vertex 0.0949999988079071 -11 0.268139988183975
vertex 0.208140000700951 -10 0.155000001192093
endloop
endfacet
facet normal 1 0 0
outer loop
vertex 0.208140000700951 -11 -0.00499999988824129
vertex 0.208140000700951 -10 -0.00499999988824129
vertex 0.208140000700951 -11 0.155000001192093
endloop
endfacet
facet normal 1 0 0
outer loop
vertex 0.208140000700951 -10 0.155000001192093
vertex 0.208140000700951 -11 0.155000001192093
vertex 0.208140000700951 -10 -0.00499999988824129
endloop
endfacet
facet normal -0 0.0118131767958403 0.999930262565613
outer loop
vertex -0.0649999976158142 -9.99930191040039 0.268131762742996
vertex 0.0949999988079071 -9.99930191040039 0.268131762742996
vertex -0.059079971164465 -9.08859252929688 0.257372617721558
endloop
endfacet
facet normal 3.74644287227133e-16 0.0118131749331951 0.999930202960968
outer loop
vertex 0.0890799760818481 -9.08859252929688 0.257372617721558
vertex -0.059079971164465 -9.08859252929688 0.257372617721558
vertex 0.0949999988079071 -9.99930191040039 0.268131762742996
endloop
endfacet
facet normal 3.74644287227133e-16 0.0118131758645177 0.999930202960968
outer loop
vertex 0.0890799760818481 -9.08859252929688 0.257372617721558
vertex 0.0813246369361877 -7.89554738998413 0.243277996778488
vertex -0.059079971164465 -9.08859252929688 0.257372617721558
endloop
endfacet
facet normal 7.90973593652602e-17 0.0118131758645177 0.999930262565613
outer loop
vertex -0.0513246394693851 -7.89554738998413 0.243277996778488
vertex -0.059079971164465 -9.08859252929688 0.257372617721558
vertex 0.0813246369361877 -7.89554738998413 0.243277996778488
endloop
endfacet
facet normal 7.90973593652602e-17 0.0118131758645177 0.999930262565613
outer loop
vertex 0.0813246369361877 -7.89554738998413 0.243277996778488
vertex 0.0717779025435448 -6.42692089080811 0.225927650928497
vertex -0.0513246394693851 -7.89554738998413 0.243277996778488
endloop
endfacet
facet normal -3.63628147292058e-16 0.0118131758645177 0.999930202960968
outer loop
vertex -0.0417779013514519 -6.42692089080811 0.225927650928497
vertex -0.0513246394693851 -7.89554738998413 0.243277996778488
vertex 0.0717779025435448 -6.42692089080811 0.225927650928497
endloop
endfacet
facet normal -3.63628147292058e-16 0.0118131749331951 0.999930202960968
outer loop
vertex -0.0417779013514519 -6.42692089080811 0.225927650928497
vertex 0.0717779025435448 -6.42692089080811 0.225927650928497
vertex -0.0320881567895412 -4.93629503250122 0.208317384123802
endloop
endfacet
facet normal -7.18782034349302e-17 0.0118131767958403 0.999930262565613
outer loop
vertex 0.0620881542563438 -4.93629503250122 0.208317384123802
vertex -0.0320881567895412 -4.93629503250122 0.208317384123802
vertex 0.0717779025435448 -6.42692089080811 0.225927650928497
endloop
endfacet
facet normal -7.18782034349302e-17 0.0118131767958403 0.999930262565613
outer loop
vertex 0.0620881542563438 -4.93629503250122 0.208317384123802
vertex 0.0523984096944332 -3.44566869735718 0.190707132220268
vertex -0.0320881567895412 -4.93629503250122 0.208317384123802
endloop
endfacet
facet normal -2.03634297494345e-17 0.0118131749331951 0.999930262565613
outer loop
vertex -0.0223984085023403 -3.44566869735718 0.190707132220268
vertex -0.0320881567895412 -4.93629503250122 0.208317384123802
vertex 0.0523984096944332 -3.44566869735718 0.190707132220268
endloop
endfacet
facet normal -2.03634280950733e-17 0.0118131749331951 0.999930202960968
outer loop
vertex -0.0223984085023403 -3.44566869735718 0.190707132220268
vertex 0.0523984096944332 -3.44566869735718 0.190707132220268
vertex -0.0131307523697615 -2.01997494697571 0.173863977193832
endloop
endfacet
facet normal -1.01366645671497e-15 0.0118131758645177 0.999930262565613
outer loop
vertex 0.0431307516992092 -2.01997494697571 0.173863977193832
vertex -0.0131307523697615 -2.01997494697571 0.173863977193832
vertex 0.0523984096944332 -3.44566869735718 0.190707132220268
endloop
endfacet
facet normal -1.01366635083585e-15 0.0118131758645177 0.999930202960968
outer loop
vertex 0.0431307516992092 -2.01997494697571 0.173863977193832
vertex 0.0370613113045692 -1.08627998828888 0.162833318114281
vertex -0.0131307523697615 -2.01997494697571 0.173863977193832
endloop
endfacet
facet normal 2.49289836572495e-17 0.0118131749331951 0.999930202960968
outer loop
vertex -0.00706131290644407 -1.08627998828888 0.162833318114281
vertex -0.0131307523697615 -2.01997494697571 0.173863977193832
vertex 0.0370613113045692 -1.08627998828888 0.162833318114281
endloop
endfacet
facet normal 2.49289836572495e-17 0.0118131758645177 0.999930202960968
outer loop
vertex -0.00706131290644407 -1.08627998828888 0.162833318114281
vertex 0.0370613113045692 -1.08627998828888 0.162833318114281
vertex -0.00344300246797502 -0.529655694961548 0.156257346272469
endloop
endfacet
facet normal 8.94641281087676e-16 0.0118131758645177 0.999930262565613
outer loop
vertex 0.0334430038928986 -0.529655694961548 0.156257346272469
vertex -0.00344300246797502 -0.529655694961548 0.156257346272469
vertex 0.0370613113045692 -1.08627998828888 0.162833318114281
endloop
endfacet
facet normal 8.94641281087676e-16 0.0118131758645177 0.999930202960968
outer loop
vertex 0.0334430038928986 -0.529655694961548 0.156257346272469
vertex 0.0312859378755093 -0.197822883725166 0.152337074279785
vertex -0.00344300246797502 -0.529655694961548 0.156257346272469
endloop
endfacet
facet normal -9.42671331449665e-16 0.0118131767958403 0.999930202960968
outer loop
vertex -0.00128593854606152 -0.197822883725166 0.152337074279785
vertex -0.00344300246797502 -0.529655694961548 0.156257346272469
vertex 0.0312859378755093 -0.197822883725166 0.152337074279785
endloop
endfacet
facet normal -9.42671331449665e-16 0.0118131758645177 0.999930262565613
outer loop
vertex -0.00128593854606152 -0.197822883725166 0.152337074279785
vertex 0.0312859378755093 -0.197822883725166 0.152337074279785
vertex 0 0 0.150000005960464
endloop
endfacet
facet normal 0 0.0118131758645177 0.999930262565613
outer loop
vertex 0.0299999993294477 0 0.150000005960464
vertex 0 0 0.150000005960464
vertex 0.0312859378755093 -0.197822883725166 0.152337074279785
endloop
endfacet
facet normal -0.999841392040253 -0.0178111735731363 -0
outer loop
vertex 0.208111748099327 -9.99841403961182 0.155000001192093
vertex 0.191922694444656 -9.08963108062744 0.154545530676842
vertex 0.208111748099327 -9.99841403961182 -0.00499999988824129
endloop
endfacet
facet normal -0.999841392040253 -0.0178111735731363 -1.4999800736972e-16
outer loop
vertex 0.191922694444656 -9.08963108062744 -0.00454553682357073
vertex 0.208111748099327 -9.99841403961182 -0.00499999988824129
vertex 0.191922694444656 -9.08963108062744 0.154545530676842
endloop
endfacet
facet normal -0.999841392040253 -0.0178111754357815 -1.4999802060461e-16
outer loop
vertex 0.191922694444656 -9.08963108062744 0.154545530676842
vertex 0.170739740133286 -7.90051317214966 0.15395088493824
vertex 0.191922694444656 -9.08963108062744 -0.00454553682357073
endloop
endfacet
facet normal -0.999841392040253 -0.0178111754357815 1.24807525451063e-16
outer loop
vertex 0.170739740133286 -7.90051317214966 -0.00395088316872716
vertex 0.191922694444656 -9.08963108062744 -0.00454553682357073
vertex 0.170739740133286 -7.90051317214966 0.15395088493824
endloop
endfacet
facet normal -0.999841392040253 -0.0178111735731363 1.24807525451063e-16
outer loop
vertex 0.170739740133286 -7.90051317214966 -0.00395088316872716
vertex 0.170739740133286 -7.90051317214966 0.15395088493824
vertex 0.144651979207993 -6.43606042861938 -0.00321854068897665
endloop
endfacet
facet normal -0.999841392040253 -0.0178111754357815 2.27099803433363e-16
outer loop
vertex 0.144651979207993 -6.43606042861938 0.153218537569046
vertex 0.144651979207993 -6.43606042861938 -0.00321854068897665
vertex 0.170739740133286 -7.90051317214966 0.15395088493824
endloop
endfacet
facet normal -0.999841392040253 -0.0178111735731363 2.27099803433363e-16
outer loop
vertex 0.144651979207993 -6.43606042861938 0.153218537569046
vertex 0.118157967925072 -4.94880247116089 0.152474790811539
vertex 0.144651979207993 -6.43606042861938 -0.00321854068897665
endloop
endfacet
facet normal -0.999841332435608 -0.0178111754357815 1.25454620572457e-17
outer loop
vertex 0.118157967925072 -4.94880247116089 -0.00247479393146932
vertex 0.144651979207993 -6.43606042861938 -0.00321854068897665
vertex 0.118157967925072 -4.94880247116089 0.152474790811539
endloop
endfacet
facet normal -0.999841332435608 -0.0178111754357815 1.25454620572457e-17
outer loop
vertex 0.118157967925072 -4.94880247116089 -0.00247479393146932
vertex 0.118157967925072 -4.94880247116089 0.152474790811539
vertex 0.0916639566421509 -3.46154475212097 -0.00173104694113135
endloop
endfacet
facet normal -0.999841392040253 -0.0178111754357815 1.26670642247359e-17
outer loop
vertex 0.0916639566421509 -3.46154475212097 0.151731044054031
vertex 0.0916639566421509 -3.46154475212097 -0.00173104694113135
vertex 0.118157967925072 -4.94880247116089 0.152474790811539
endloop
endfacet
facet normal -0.999841392040253 -0.0178111735731363 1.26670633975553e-17
outer loop
vertex 0.0916639566421509 -3.46154475212097 0.151731044054031
vertex 0.0657893568277359 -2.00905776023865 0.151004686951637
vertex 0.0916639566421509 -3.46154475212097 -0.00173104694113135
endloop
endfacet
facet normal -0.999841332435608 -0.0178111735731363 -1.04951385718973e-16
outer loop
vertex 0.0657893568277359 -2.00905776023865 -0.00100468820892274
vertex 0.0916639566421509 -3.46154475212097 -0.00173104694113135
vertex 0.0657893568277359 -2.00905776023865 0.151004686951637
endloop
endfacet
facet normal -0.999841392040253 -0.0178111735731363 -1.04951379101528e-16
outer loop
vertex 0.0657893568277359 -2.00905776023865 -0.00100468820892274
vertex 0.0657893568277359 -2.00905776023865 0.151004686951637
vertex 0.0453372970223427 -0.860968768596649 -0.000430552696343511
endloop
endfacet
facet normal -0.999841392040253 -0.0178111735731363 6.66494161119702e-18
outer loop
vertex 0.0453372970223427 -0.860968768596649 0.150430560112
vertex 0.0453372970223427 -0.860968768596649 -0.000430552696343511
vertex 0.0657893568277359 -2.00905776023865 0.151004686951637
endloop
endfacet
facet normal -0.999841332435608 -0.0178111754357815 6.66494202478732e-18
outer loop
vertex 0.0453372970223427 -0.860968768596649 -0.000430552696343511
vertex 0.0453372970223427 -0.860968768596649 0.150430560112
vertex 0.0299999993294477 0 0
endloop
endfacet
facet normal -0.999841392040253 -0.0178111735731363 -0
outer loop
vertex 0.0299999993294477 0 0.150000005960464
vertex 0.0299999993294477 0 0
vertex 0.0453372970223427 -0.860968768596649 0.150430560112
endloop
endfacet
facet normal 0.707047462463379 0.0129488678649068 0.707047462463379
outer loop
vertex 0.208138793706894 -9.9996919631958 0.154995560646057
vertex 0.190176501870155 -8.9913911819458 0.15449184179306
vertex 0.0949940904974937 -9.99909114837646 0.268129259347916
endloop
endfacet
facet normal 0.707047522068024 0.0129488678649068 0.707047522068024
outer loop
vertex 0.0884404852986336 -8.99084377288818 0.256217837333679
vertex 0.0949940904974937 -9.99909114837646 0.268129259347916
vertex 0.190176501870155 -8.9913911819458 0.15449184179306
endloop
endfacet
facet normal 0.707047522068024 0.0129488687962294 0.707047522068024
outer loop
vertex 0.190176501870155 -8.9913911819458 0.15449184179306
vertex 0.164298832416534 -7.53876733779907 0.15376615524292
vertex 0.0884404852986336 -8.99084377288818 0.256217837333679
endloop
endfacet
facet normal 0.707047462463379 0.0129488669335842 0.707047462463379
outer loop
vertex 0.0789991393685341 -7.53832912445068 0.239057824015617
vertex 0.0884404852986336 -8.99084377288818 0.256217837333679
vertex 0.164298832416534 -7.53876733779907 0.15376615524292
endloop
endfacet
facet normal 0.707047462463379 0.0129488678649068 0.707047462463379
outer loop
vertex 0.164298832416534 -7.53876733779907 0.15376615524292
vertex 0.137439057230949 -6.03101396560669 0.153012931346893
vertex 0.0789991393685341 -7.53832912445068 0.239057824015617
endloop
endfacet
facet normal 0.707047462463379 0.0129488678649068 0.707047462463379
outer loop
vertex 0.0691993087530136 -6.03066301345825 0.221246257424355
vertex 0.0789991393685341 -7.53832912445068 0.239057824015617
vertex 0.137439057230949 -6.03101396560669 0.153012931346893
endloop
endfacet
facet normal 0.707047462463379 0.0129488678649068 0.707047462463379
outer loop
vertex 0.137439057230949 -6.03101396560669 0.153012931346893
vertex 0.110579296946526 -4.52326059341431 0.152259692549706
vertex 0.0691993087530136 -6.03066301345825 0.221246257424355
endloop
endfacet
facet normal 0.707047522068024 0.0129488678649068 0.707047522068024
outer loop
vertex 0.0593994818627834 -4.52299737930298 0.203434690833092
vertex 0.0691993087530136 -6.03066301345825 0.221246257424355
vertex 0.110579296946526 -4.52326059341431 0.152259692549706
endloop
endfacet
facet normal 0.707047522068024 0.0129488678649068 0.707047522068024
outer loop
vertex 0.110579296946526 -4.52326059341431 0.152259692549706
vertex 0.0837195292115211 -3.01550698280334 0.151506468653679
vertex 0.0593994818627834 -4.52299737930298 0.203434690833092
endloop
endfacet
facet normal 0.707047462463379 0.0129488678649068 0.707047462463379
outer loop
vertex 0.0495996549725533 -3.01533150672913 0.185623124241829
vertex 0.0593994818627834 -4.52299737930298 0.203434690833092
vertex 0.0837195292115211 -3.01550698280334 0.151506468653679
endloop
endfacet
facet normal 0.707047462463379 0.0129488678649068 0.707047462463379
outer loop
vertex 0.0495996549725533 -3.01533150672913 0.185623124241829
vertex 0.0837195292115211 -3.01550698280334 0.151506468653679
vertex 0.0397998280823231 -1.50766575336456 0.167811557650566
endloop
endfacet
facet normal 0.707047462463379 0.0129488678649068 0.707047462463379
outer loop
vertex 0.056859765201807 -1.50775349140167 0.150753229856491
vertex 0.0397998280823231 -1.50766575336456 0.167811557650566
vertex 0.0837195292115211 -3.01550698280334 0.151506468653679
endloop
endfacet
facet normal 0.707047462463379 0.0129488678649068 0.707047462463379
outer loop
vertex 0.0397998280823231 -1.50766575336456 0.167811557650566
vertex 0.056859765201807 -1.50775349140167 0.150753229856491
vertex 0.0299999993294477 0 0.150000005960464
endloop
endfacet
facet normal 0.707050740718842 0.0125954011455178 -0.707050740718842
outer loop
vertex 0.234967485070229 -11.5059776306152 -0.00499999988824129
vertex 0.217912241816521 -11.5062780380249 -0.0220606010407209
vertex 0.208111748099327 -9.99841403961182 -0.00499999988824129
endloop
endfacet
facet normal 0.707050740718842 0.0125954011455178 -0.707050740718842
outer loop
vertex 0.217912241816521 -11.5062780380249 -0.0220606010407209
vertex 0.234967485070229 -11.5059776306152 -0.00499999988824129
vertex 0.227712735533714 -13.0141429901123 -0.0391212031245232
endloop
endfacet
facet normal 0.707050740718842 0.0125954011455178 -0.707050740718842
outer loop
vertex 0.261823207139969 -13.0135412216187 -0.00499999988824129
vertex 0.227712735533714 -13.0141429901123 -0.0391212031245232
vertex 0.234967485070229 -11.5059776306152 -0.00499999988824129
endloop
endfacet
facet normal 0.707050740718842 0.0125954011455178 -0.707050740718842
outer loop
vertex 0.227712735533714 -13.0141429901123 -0.0391212031245232
vertex 0.261823207139969 -13.0135412216187 -0.00499999988824129
vertex 0.237513229250908 -14.5220069885254 -0.0561818033456802
endloop
endfacet
facet normal 0.707050681114197 0.0125954002141953 -0.707050681114197
outer loop
vertex 0.28867894411087 -14.5211048126221 -0.00499999988824129
vertex 0.237513229250908 -14.5220069885254 -0.0561818033456802
vertex 0.261823207139969 -13.0135412216187 -0.00499999988824129
endloop
endfacet
facet normal 0.707050681114197 0.0125954002141953 -0.707050681114197
outer loop
vertex 0.28867894411087 -14.5211048126221 -0.00499999988824129
vertex 0.315534710884094 -16.0286674499512 -0.00499999988824129
vertex 0.237513229250908 -14.5220069885254 -0.0561818033456802
endloop
endfacet
facet normal 0.707050740718842 0.0125954011455178 -0.707050740718842
outer loop
vertex 0.247313737869263 -16.0298709869385 -0.0732424035668373
vertex 0.237513229250908 -14.5220069885254 -0.0561818033456802
vertex 0.315534710884094 -16.0286674499512 -0.00499999988824129
endloop
endfacet
facet normal 0.707050740718842 0.0125954011455178 -0.707050740718842
outer loop
vertex 0.315534710884094 -16.0286674499512 -0.00499999988824129
vertex 0.342390447854996 -17.5362319946289 -0.00499999988824129
vertex 0.247313737869263 -16.0298709869385 -0.0732424035668373
endloop
endfacet
facet normal 0.707050681114197 0.0125954011455178 -0.707050681114197
outer loop
vertex 0.257114231586456 -17.5377368927002 -0.0903030037879944
vertex 0.247313737869263 -16.0298709869385 -0.0732424035668373
vertex 0.342390447854996 -17.5362319946289 -0.00499999988824129
endloop
endfacet
facet normal 0.707050681114197 0.0125954002141953 -0.707050681114197
outer loop
vertex 0.342390447854996 -17.5362319946289 -0.00499999988824129
vertex 0.368263781070709 -18.9886474609375 -0.00499999988824129
vertex 0.257114231586456 -17.5377368927002 -0.0903030037879944
endloop
endfacet
facet normal 0.707050681114197 0.0125954011455178 -0.707050681114197
outer loop
vertex 0.26655638217926 -18.9904670715332 -0.106739804148674
vertex 0.257114231586456 -17.5377368927002 -0.0903030037879944
vertex 0.368263781070709 -18.9886474609375 -0.00499999988824129
endloop
endfacet
facet normal 0.707050681114197 0.0125954011455178 -0.707050681114197
outer loop
vertex 0.368263781070709 -18.9886474609375 -0.00499999988824129
vertex 0.386223495006561 -19.9968280792236 -0.00499999988824129
vertex 0.26655638217926 -18.9904670715332 -0.106739804148674
endloop
endfacet
facet normal 0.707050681114197 0.0125954011455178 -0.707050681114197
outer loop
vertex 0.273110389709473 -19.9988422393799 -0.118148975074291
vertex 0.26655638217926 -18.9904670715332 -0.106739804148674
vertex 0.386223495006561 -19.9968280792236 -0.00499999988824129
endloop
endfacet
facet normal 0.194776460528374 0.679809868335724 -0.707050740718842
outer loop
vertex 9.76780796051025 -15.2312002182007 -0.14496748149395
vertex 8.32618236541748 -14.7902193069458 -0.118111744523048
vertex 9.77308559417725 -15.2149744033813 -0.127912238240242
endloop
endfacet
facet normal 0.194776460528374 0.679809868335724 -0.707050740718842
outer loop
vertex 11.2094326019287 -15.6721811294556 -0.171823218464851
vertex 9.76780796051025 -15.2312002182007 -0.14496748149395
vertex 11.2199897766113 -15.6397285461426 -0.137712731957436
endloop
endfacet
facet normal 0.194776460528374 0.679809868335724 -0.707050740718842
outer loop
vertex 9.77308559417725 -15.2149744033813 -0.127912238240242
vertex 11.2199897766113 -15.6397285461426 -0.137712731957436
vertex 9.76780796051025 -15.2312002182007 -0.14496748149395
endloop
endfacet
facet normal 0.194776460528374 0.679809868335724 -0.707050740718842
outer loop
vertex 11.2094326019287 -15.6721811294556 -0.171823218464851
vertex 11.2199897766113 -15.6397285461426 -0.137712731957436
vertex 12.6510581970215 -16.1131610870361 -0.198678955435753
endloop
endfacet
facet normal 0.194776475429535 0.679809868335724 -0.707050740718842
outer loop
vertex 12.6668930053711 -16.0644836425781 -0.14751324057579
vertex 12.6510581970215 -16.1131610870361 -0.198678955435753
vertex 11.2199897766113 -15.6397285461426 -0.137712731957436
endloop
endfacet
facet normal 0.194776475429535 0.679809868335724 -0.707050740718842
outer loop
vertex 12.6510581970215 -16.1131610870361 -0.198678955435753
vertex 12.6668930053711 -16.0644836425781 -0.14751324057579
vertex 14.0926837921143 -16.554141998291 -0.225534692406654
endloop
endfacet
facet normal 0.194776460528374 0.679809868335724 -0.707050740718842
outer loop
vertex 14.1137962341309 -16.489236831665 -0.157313734292984
vertex 14.0926837921143 -16.554141998291 -0.225534692406654
vertex 12.6668930053711 -16.0644836425781 -0.14751324057579
endloop
endfacet
facet normal 0.194776460528374 0.679809868335724 -0.707050740718842
outer loop
vertex 14.0926837921143 -16.554141998291 -0.225534692406654
vertex 14.1137962341309 -16.489236831665 -0.157313734292984
vertex 15.534309387207 -16.9951229095459 -0.252390444278717
endloop
endfacet
facet normal 0.194776460528374 0.679809868335724 -0.707050681114197
outer loop
vertex 15.5607004165649 -16.9139919281006 -0.167114228010178
vertex 15.534309387207 -16.9951229095459 -0.252390444278717
vertex 14.1137962341309 -16.489236831665 -0.157313734292984
endloop
endfacet
facet normal 0.194776445627213 0.679809808731079 -0.707050681114197
outer loop
vertex 15.534309387207 -16.9951229095459 -0.252390444278717
vertex 15.5607004165649 -16.9139919281006 -0.167114228010178
vertex 16.9232006072998 -17.4199733734131 -0.278263777494431
endloop
endfacet
facet normal 0.194776460528374 0.679809868335724 -0.707050681114197
outer loop
vertex 16.9546985626221 -17.3232154846191 -0.176556378602982
vertex 16.9232006072998 -17.4199733734131 -0.278263777494431
vertex 15.5607004165649 -16.9139919281006 -0.167114228010178
endloop
endfacet
facet normal 0.194776460528374 0.679809868335724 -0.707050681114197
outer loop
vertex 16.9232006072998 -17.4199733734131 -0.278263777494431
vertex 16.9546985626221 -17.3232154846191 -0.176556378602982
vertex 17.8872833251953 -17.7148780822754 -0.296223491430283
endloop
endfacet
facet normal 0.194776460528374 0.679809868335724 -0.707050681114197
outer loop
vertex 17.9223079681396 -17.6072673797607 -0.183110401034355
vertex 17.8872833251953 -17.7148780822754 -0.296223491430283
vertex 16.9546985626221 -17.3232154846191 -0.176556378602982
endloop
endfacet
endsolid COMSOL mesh mesh1
