solid COMSOL mesh mesh1
facet normal -1 0 0
outer loop
vertex -0.153995007276535 -10 0.00499999988824129
vertex -0.153995007276535 -11 0.00499999988824129
vertex -0.153995007276535 -10 0.144999995827675
endloop
endfacet
facet normal -1 0 0
outer loop
vertex -0.153995007276535 -11 0.144999995827675
vertex -0.153995007276535 -10 0.144999995827675
vertex -0.153995007276535 -11 0.00499999988824129
endloop
endfacet
facet normal -0.70710676908493 -0 -0.70710676908493
outer loop
vertex -0.153995007276535 -10 0.00499999988824129
vertex -0.0549999997019768 -10 -0.0939949974417686
vertex -0.153995007276535 -11 0.00499999988824129
endloop
endfacet
facet normal -0.70710676908493 0 -0.70710676908493
outer loop
vertex -0.0549999997019768 -11 -0.0939949974417686
vertex -0.153995007276535 -11 0.00499999988824129
vertex -0.0549999997019768 -10 -0.0939949974417686
endloop
endfacet
facet normal -0.70710676908493 0 0.70710676908493
outer loop
vertex -0.153995007276535 -10 0.144999995827675
vertex -0.153995007276535 -11 0.144999995827675
vertex -0.0549999997019768 -10 0.243994995951653
endloop
endfacet
facet normal -0.70710676908493 0 0.70710676908493
outer loop
vertex -0.0549999997019768 -11 0.243994995951653
vertex -0.0549999997019768 -10 0.243994995951653
vertex -0.153995007276535 -11 0.144999995827675
endloop
endfacet
facet normal 0 0 -1
outer loop
vertex -0.0549999997019768 -10 -0.0939949974417686
vertex 0.0850000008940697 -10 -0.0939949974417686
vertex -0.0549999997019768 -11 -0.0939949974417686
endloop
endfacet
facet normal 0 0 -1
outer loop
vertex 0.0850000008940697 -11 -0.0939949974417686
vertex -0.0549999997019768 -11 -0.0939949974417686
vertex 0.0850000008940697 -10 -0.0939949974417686
endloop
endfacet
facet normal 0 -0 1
outer loop
vertex 0.0850000008940697 -11 0.243994995951653
vertex 0.0850000008940697 -10 0.243994995951653
vertex -0.0549999997019768 -11 0.243994995951653
endloop
endfacet
facet normal -0 0 1
outer loop
vertex -0.0549999997019768 -10 0.243994995951653
vertex -0.0549999997019768 -11 0.243994995951653
vertex 0.0850000008940697 -10 0.243994995951653
endloop
endfacet
facet normal 0.70710676908493 0 -0.70710676908493
outer loop
vertex 0.0850000008940697 -10 -0.0939949974417686
vertex 0.183994993567467 -10 0.00499999988824129
vertex 0.0850000008940697 -11 -0.0939949974417686
endloop
endfacet
facet normal 0.70710676908493 0 -0.70710676908493
outer loop
vertex 0.183994993567467 -11 0.00499999988824129
vertex 0.0850000008940697 -11 -0.0939949974417686
vertex 0.183994993567467 -10 0.00499999988824129
endloop
endfacet
facet normal 0.70710676908493 -0 0.70710676908493
outer loop
vertex 0.183994993567467 -11 0.144999995827675
vertex 0.183994993567467 -10 0.144999995827675
vertex 0.0850000008940697 -11 0.243994995951653
endloop
endfacet
facet normal 0.70710676908493 0 0.70710676908493
outer loop
vertex 0.0850000008940697 -10 0.243994995951653
vertex 0.0850000008940697 -11 0.243994995951653
vertex 0.183994993567467 -10 0.144999995827675
endloop
endfacet
facet normal 1 0 0
outer loop
vertex 0.183994993567467 -11 0.00499999988824129
vertex 0.183994993567467 -10 0.00499999988824129
vertex 0.183994993567467 -11 0.144999995827675
endloop
endfacet
facet normal 1 0 0
outer loop
vertex 0.183994993567467 -10 0.144999995827675
vertex 0.183994993567467 -11 0.144999995827675
vertex 0.183994993567467 -10 0.00499999988824129
endloop
endfacet
facet normal -0.707058846950531 -0.0105350911617279 0.707076251506805
outer loop
vertex -0.0549965128302574 -10.9993238449097 0.243995398283005
vertex -0.153989419341087 -10.9997091293335 0.144999161362648
vertex -0.0554117448627949 -11.8291902542114 0.231215566396713
endloop
endfacet
facet normal -0.707058846950531 -0.0105350911617279 0.707076251506805
outer loop
vertex -0.146189332008362 -11.8295516967773 0.140434831380844
vertex -0.0554117448627949 -11.8291902542114 0.231215566396713
vertex -0.153989419341087 -10.9997091293335 0.144999161362648
endloop
endfacet
facet normal -0.707058906555176 -0.0105350911617279 0.707076251506805
outer loop
vertex -0.0554117448627949 -11.8291902542114 0.231215566396713
vertex -0.146189332008362 -11.8295516967773 0.140434831380844
vertex -0.0559591688215733 -12.9232501983643 0.214367210865021
endloop
endfacet
facet normal -0.707058846950531 -0.0105350911617279 0.707076251506805
outer loop
vertex -0.135906219482422 -12.9235572814941 0.134417533874512
vertex -0.0559591688215733 -12.9232501983643 0.214367210865021
vertex -0.146189332008362 -11.8295516967773 0.140434831380844
endloop
endfacet
facet normal -0.707058846950531 -0.0105350902304053 0.707076191902161
outer loop
vertex -0.0559591688215733 -12.9232501983643 0.214367210865021
vertex -0.135906219482422 -12.9235572814941 0.134417533874512
vertex -0.056536428630352 -14.0769453048706 0.196600466966629
endloop
endfacet
facet normal -0.707058846950531 -0.0105350911617279 0.707076251506805
outer loop
vertex -0.125062480568886 -14.0772085189819 0.128072172403336
vertex -0.056536428630352 -14.0769453048706 0.196600466966629
vertex -0.135906219482422 -12.9235572814941 0.134417533874512
endloop
endfacet
facet normal -0.707058846950531 -0.0105350911617279 0.707076251506805
outer loop
vertex -0.056536428630352 -14.0769453048706 0.196600466966629
vertex -0.125062480568886 -14.0772085189819 0.128072172403336
vertex -0.0571136921644211 -15.230640411377 0.178833723068237
endloop
endfacet
facet normal -0.707058846950531 -0.0105350902304053 0.707076191902161
outer loop
vertex -0.114218726754189 -15.2308597564697 0.121726810932159
vertex -0.0571136921644211 -15.230640411377 0.178833723068237
vertex -0.125062480568886 -14.0772085189819 0.128072172403336
endloop
endfacet
facet normal -0.707058846950531 -0.0105350902304053 0.707076191902161
outer loop
vertex -0.0571136921644211 -15.230640411377 0.178833723068237
vertex -0.114218726754189 -15.2308597564697 0.121726810932159
vertex -0.0576909519731998 -16.3843364715576 0.161066979169846
endloop
endfacet
facet normal -0.707058906555176 -0.0105350911617279 0.707076251506805
outer loop
vertex -0.103374980390072 -16.3845119476318 0.115381449460983
vertex -0.0576909519731998 -16.3843364715576 0.161066979169846
vertex -0.114218726754189 -15.2308597564697 0.121726810932159
endloop
endfacet
facet normal -0.707058906555176 -0.0105350911617279 0.707076251506805
outer loop
vertex -0.0576909519731998 -16.3843364715576 0.161066979169846
vertex -0.103374980390072 -16.3845119476318 0.115381449460983
vertex -0.0582682155072689 -17.5380306243896 0.143300235271454
endloop
endfacet
facet normal -0.707058846950531 -0.0105350911617279 0.707076251506805
outer loop
vertex -0.0925312340259552 -17.5381622314453 0.109036087989807
vertex -0.0582682155072689 -17.5380306243896 0.143300235271454
vertex -0.103374980390072 -16.3845119476318 0.115381449460983
endloop
endfacet
facet normal -0.707058846950531 -0.0105350911617279 0.707076251506805
outer loop
vertex -0.0925312340259552 -17.5381622314453 0.109036087989807
vertex -0.0816874876618385 -18.6918144226074 0.102690726518631
vertex -0.0582682155072689 -17.5380306243896 0.143300235271454
endloop
endfacet
facet normal -0.707058906555176 -0.0105350911617279 0.707076251506805
outer loop
vertex -0.0588454753160477 -18.6917266845703 0.125533491373062
vertex -0.0582682155072689 -17.5380306243896 0.143300235271454
vertex -0.0816874876618385 -18.6918144226074 0.102690726518631
endloop
endfacet
facet normal -0.707058906555176 -0.0105350911617279 0.707076251506805
outer loop
vertex -0.0816874876618385 -18.6918144226074 0.102690726518631
vertex -0.0708437487483025 -19.8454647064209 0.0963453650474548
vertex -0.0588454753160477 -18.6917266845703 0.125533491373062
endloop
endfacet
facet normal -0.707058906555176 -0.0105350911617279 0.707076251506805
outer loop
vertex -0.0594227388501167 -19.8454208374023 0.10776674747467
vertex -0.0588454753160477 -18.6917266845703 0.125533491373062
vertex -0.0708437487483025 -19.8454647064209 0.0963453650474548
endloop
endfacet
facet normal -0.707058906555176 -0.0105350911617279 0.707076251506805
outer loop
vertex -0.0708437487483025 -19.8454647064209 0.0963453650474548
vertex -0.0599999986588955 -20.999116897583 0.0900000035762787
vertex -0.0594227388501167 -19.8454208374023 0.10776674747467
endloop
endfacet
facet normal -0.999955832958221 -0.00939908530563116 7.62486406563672e-16
outer loop
vertex -0.146383002400398 -11.8089456558228 0.00945182889699936
vertex -0.146383002400398 -11.8089456558228 0.140548169612885
vertex -0.153990849852562 -10.9995584487915 0.00499999988824129
endloop
endfacet
facet normal -0.999955832958221 -0.00939908530563116 -0
outer loop
vertex -0.153990849852562 -10.9995584487915 0.144999995827675
vertex -0.153990849852562 -10.9995584487915 0.00499999988824129
vertex -0.146383002400398 -11.8089456558228 0.140548169612885
endloop
endfacet
facet normal -0.999955832958221 -0.00939908530563116 0
outer loop
vertex -0.136457502841949 -12.8649072647095 0.0152598703280091
vertex -0.136457502841949 -12.8649072647095 0.134740129113197
vertex -0.146383002400398 -11.8089456558228 0.00945182889699936
endloop
endfacet
facet normal -0.999955892562866 -0.00939908530563116 7.62486406563672e-16
outer loop
vertex -0.146383002400398 -11.8089456558228 0.140548169612885
vertex -0.146383002400398 -11.8089456558228 0.00945182889699936
vertex -0.136457502841949 -12.8649072647095 0.134740129113197
endloop
endfacet
facet normal -0.999955892562866 -0.00939908530563116 -0
outer loop
vertex -0.136457502841949 -12.8649072647095 0.134740129113197
vertex -0.136457502841949 -12.8649072647095 0.0152598703280091
vertex -0.125780358910561 -14.0008335113525 0.128492251038551
endloop
endfacet
facet normal -0.999955832958221 -0.00939908530563116 0
outer loop
vertex -0.125780358910561 -14.0008335113525 0.0215077456086874
vertex -0.125780358910561 -14.0008335113525 0.128492251038551
vertex -0.136457502841949 -12.8649072647095 0.0152598703280091
endloop
endfacet
facet normal -0.999955832958221 -0.00939908530563116 0
outer loop
vertex -0.125780358910561 -14.0008335113525 0.0215077456086874
vertex -0.115103214979172 -15.1367607116699 0.0277556199580431
vertex -0.125780358910561 -14.0008335113525 0.128492251038551
endloop
endfacet
facet normal -0.999955773353577 -0.00939908437430859 6.76964719192516e-16
outer loop
vertex -0.115103214979172 -15.1367607116699 0.122244380414486
vertex -0.125780358910561 -14.0008335113525 0.128492251038551
vertex -0.115103214979172 -15.1367607116699 0.0277556199580431
endloop
endfacet
facet normal -0.999955773353577 -0.00939908437430859 6.76964719192516e-16
outer loop
vertex -0.115103214979172 -15.1367607116699 0.0277556199580431
vertex -0.104426063597202 -16.2726879119873 0.0340034924447536
vertex -0.115103214979172 -15.1367607116699 0.122244380414486
endloop
endfacet
facet normal -0.999955773353577 -0.00939908437430859 1.69248260464173e-16
outer loop
vertex -0.104426063597202 -16.2726879119873 0.11599650233984
vertex -0.115103214979172 -15.1367607116699 0.122244380414486
vertex -0.104426063597202 -16.2726879119873 0.0340034924447536
endloop
endfacet
facet normal -0.999955773353577 -0.00939908437430859 1.69248260464173e-16
outer loop
vertex -0.104426063597202 -16.2726879119873 0.11599650233984
vertex -0.104426063597202 -16.2726879119873 0.0340034924447536
vertex -0.0937489196658134 -17.4086151123047 0.109748631715775
endloop
endfacet
facet normal -0.999955832958221 -0.00939908530563116 -5.61607249166394e-16
outer loop
vertex -0.0937489196658134 -17.4086151123047 0.0402513705193996
vertex -0.0937489196658134 -17.4086151123047 0.109748631715775
vertex -0.104426063597202 -16.2726879119873 0.0340034924447536
endloop
endfacet
facet normal -0.999955832958221 -0.00939908530563116 -5.61607249166394e-16
outer loop
vertex -0.0937489196658134 -17.4086151123047 0.0402513705193996
vertex -0.0830717757344246 -18.5445423126221 0.0464992448687553
vertex -0.0937489196658134 -17.4086151123047 0.109748631715775
endloop
endfacet
facet normal -0.999955952167511 -0.00939908530563116 9.7381112132693e-16
outer loop
vertex -0.0830717757344246 -18.5445423126221 0.103500753641129
vertex -0.0937489196658134 -17.4086151123047 0.109748631715775
vertex -0.0830717757344246 -18.5445423126221 0.0464992448687553
endloop
endfacet
facet normal -0.999955892562866 -0.00939908530563116 9.73811015447812e-16
outer loop
vertex -0.0830717757344246 -18.5445423126221 0.0464992448687553
vertex -0.0725469291210175 -19.6642646789551 0.0526579953730106
vertex -0.0830717757344246 -18.5445423126221 0.103500753641129
endloop
endfacet
facet normal -0.999955832958221 -0.00939908530563116 1.84389609671054e-16
outer loop
vertex -0.0725469291210175 -19.6642646789551 0.0973420068621635
vertex -0.0830717757344246 -18.5445423126221 0.103500753641129
vertex -0.0725469291210175 -19.6642646789551 0.0526579953730106
endloop
endfacet
facet normal -0.999955892562866 -0.00939908437430859 1.84389609671054e-16
outer loop
vertex -0.0725469291210175 -19.6642646789551 0.0973420068621635
vertex -0.0725469291210175 -19.6642646789551 0.0526579953730106
vertex -0.0656398311257362 -20.3991031646729 0.0933002233505249
endloop
endfacet
facet normal -0.999955832958221 -0.00939908437430859 -1.54039320675079e-16
outer loop
vertex -0.0656398311257362 -20.3991031646729 0.0566997788846493
vertex -0.0656398311257362 -20.3991031646729 0.0933002233505249
vertex -0.0725469291210175 -19.6642646789551 0.0526579953730106
endloop
endfacet
facet normal -0.999955892562866 -0.00939908437430859 -1.54039333909968e-16
outer loop
vertex -0.0656398311257362 -20.3991031646729 0.0566997788846493
vertex -0.0619602240622044 -20.7905712127686 0.0588529482483864
vertex -0.0656398311257362 -20.3991031646729 0.0933002233505249
endloop
endfacet
facet normal -0.999955892562866 -0.00939908530563116 2.14856167173929e-16
outer loop
vertex -0.0619602240622044 -20.7905712127686 0.0911470502614975
vertex -0.0656398311257362 -20.3991031646729 0.0933002233505249
vertex -0.0619602240622044 -20.7905712127686 0.0588529482483864
endloop
endfacet
facet normal -0.999955832958221 -0.00939908530563116 2.14856167173929e-16
outer loop
vertex -0.0619602240622044 -20.7905712127686 0.0911470502614975
vertex -0.0619602240622044 -20.7905712127686 0.0588529482483864
vertex -0.0599999986588955 -20.999116897583 0.0900000035762787
endloop
endfacet
facet normal -0.999955773353577 -0.00939908437430859 0
outer loop
vertex -0.0599999986588955 -20.999116897583 0.0599999986588955
vertex -0.0599999986588955 -20.999116897583 0.0900000035762787
vertex -0.0619602240622044 -20.7905712127686 0.0588529482483864
endloop
endfacet
facet normal -0.707067549228668 -0.0105349523946643 -0.707067549228668
outer loop
vertex -0.15400105714798 -10.9987297058105 0.00500029698014259
vertex -0.0550005920231342 -11.0003032684326 -0.0939767211675644
vertex -0.146200060844421 -11.8286457061768 0.00956463627517223
endloop
endfacet
facet normal -0.707067489624023 -0.0105349523946643 -0.707067489624023
outer loop
vertex -0.0554154887795448 -11.830096244812 -0.0811983272433281
vertex -0.146200060844421 -11.8286457061768 0.00956463627517223
vertex -0.0550005920231342 -11.0003032684326 -0.0939767211675644
endloop
endfacet
facet normal -0.707067489624023 -0.0105349523946643 -0.707067489624023
outer loop
vertex -0.146200060844421 -11.8286457061768 0.00956463627517223
vertex -0.0554154887795448 -11.830096244812 -0.0811983272433281
vertex -0.135915577411652 -12.9227705001831 0.0155820557847619
endloop
endfacet
facet normal -0.707067549228668 -0.0105349523946643 -0.707067549228668
outer loop
vertex -0.0559624619781971 -12.9240369796753 -0.0643521845340729
vertex -0.135915577411652 -12.9227705001831 0.0155820557847619
vertex -0.0554154887795448 -11.830096244812 -0.0811983272433281
endloop
endfacet
facet normal -0.707067489624023 -0.0105349514633417 -0.707067489624023
outer loop
vertex -0.135915577411652 -12.9227705001831 0.0155820557847619
vertex -0.0559624619781971 -12.9240369796753 -0.0643521845340729
vertex -0.125070497393608 -14.0765342712402 0.0219274759292603
endloop
endfacet
facet normal -0.707067549228668 -0.0105349523946643 -0.707067549228668
outer loop
vertex -0.0565392524003983 -14.0776195526123 -0.0465875864028931
vertex -0.125070497393608 -14.0765342712402 0.0219274759292603
vertex -0.0559624619781971 -12.9240369796753 -0.0643521845340729
endloop
endfacet
facet normal -0.707067549228668 -0.0105349523946643 -0.707067549228668
outer loop
vertex -0.125070497393608 -14.0765342712402 0.0219274759292603
vertex -0.0565392524003983 -14.0776195526123 -0.0465875864028931
vertex -0.114225409924984 -15.2302980422974 0.0282728970050812
endloop
endfacet
facet normal -0.707067549228668 -0.0105349523946643 -0.707067549228668
outer loop
vertex -0.0571160428225994 -15.2312030792236 -0.0288229882717133
vertex -0.114225409924984 -15.2302980422974 0.0282728970050812
vertex -0.0565392524003983 -14.0776195526123 -0.0465875864028931
endloop
endfacet
facet normal -0.707067549228668 -0.0105349523946643 -0.707067549228668
outer loop
vertex -0.114225409924984 -15.2302980422974 0.0282728970050812
vertex -0.0571160428225994 -15.2312030792236 -0.0288229882717133
vertex -0.10338032990694 -16.3840618133545 0.0346183180809021
endloop
endfacet
facet normal -0.707067549228668 -0.0105349533259869 -0.707067549228668
outer loop
vertex -0.0576928332448006 -16.3847846984863 -0.011058391071856
vertex -0.10338032990694 -16.3840618133545 0.0346183180809021
vertex -0.0571160428225994 -15.2312030792236 -0.0288229882717133
endloop
endfacet
facet normal -0.707067549228668 -0.0105349533259869 -0.707067549228668
outer loop
vertex -0.0576928332448006 -16.3847846984863 -0.011058391071856
vertex -0.058269627392292 -17.5383682250977 0.00670620705932379
vertex -0.10338032990694 -16.3840618133545 0.0346183180809021
endloop
endfacet
facet normal -0.707067549228668 -0.0105349523946643 -0.707067549228668
outer loop
vertex -0.0925352424383163 -17.5378246307373 0.040963739156723
vertex -0.10338032990694 -16.3840618133545 0.0346183180809021
vertex -0.058269627392292 -17.5383682250977 0.00670620705932379
endloop
endfacet
facet normal -0.707067549228668 -0.0105349523946643 -0.707067549228668
outer loop
vertex -0.058269627392292 -17.5383682250977 0.00670620705932379
vertex -0.0588464178144932 -18.691951751709 0.024470804259181
vertex -0.0925352424383163 -17.5378246307373 0.040963739156723
endloop
endfacet
facet normal -0.707067549228668 -0.0105349533259869 -0.707067549228668
outer loop
vertex -0.0816901624202728 -18.6915893554688 0.0473091602325439
vertex -0.0925352424383163 -17.5378246307373 0.040963739156723
vertex -0.0588464178144932 -18.691951751709 0.024470804259181
endloop
endfacet
facet normal -0.707067549228668 -0.0105349533259869 -0.707067549228668
outer loop
vertex -0.0588464178144932 -18.691951751709 0.024470804259181
vertex -0.0594232082366943 -19.8455333709717 0.0422354005277157
vertex -0.0816901624202728 -18.6915893554688 0.0473091602325439
endloop
endfacet
facet normal -0.707067549228668 -0.0105349533259869 -0.707067549228668
outer loop
vertex -0.0708450824022293 -19.8453521728516 0.0536545775830746
vertex -0.0816901624202728 -18.6915893554688 0.0473091602325439
vertex -0.0594232082366943 -19.8455333709717 0.0422354005277157
endloop
endfacet
facet normal -0.707067549228668 -0.0105349533259869 -0.707067549228668
outer loop
vertex -0.0594232082366943 -19.8455333709717 0.0422354005277157
vertex -0.0599999986588955 -20.999116897583 0.0599999986588955
vertex -0.0708450824022293 -19.8453521728516 0.0536545775830746
endloop
endfacet
facet normal -0.707076251506805 0.0105350911617279 -0.707058846950531
outer loop
vertex -0.153995394706726 -9.99979305267334 0.00500348582863808
vertex -0.141215562820435 -9.16992568969727 0.00458825472742319
vertex -0.0549991689622402 -9.9994068145752 -0.0939894244074821
endloop
endfacet
facet normal -0.707076251506805 0.0105350911617279 -0.707058846950531
outer loop
vertex -0.050434835255146 -9.16956520080566 -0.086189329624176
vertex -0.0549991689622402 -9.9994068145752 -0.0939894244074821
vertex -0.141215562820435 -9.16992568969727 0.00458825472742319
endloop
endfacet
facet normal -0.707076251506805 0.0105350911617279 -0.707058906555176
outer loop
vertex -0.141215562820435 -9.16992568969727 0.00458825472742319
vertex -0.124367207288742 -8.07586669921875 0.00404083216562867
vertex -0.050434835255146 -9.16956520080566 -0.086189329624176
endloop
endfacet
facet normal -0.707076251506805 0.0105350911617279 -0.707058846950531
outer loop
vertex -0.0444175377488136 -8.07555961608887 -0.0759062170982361
vertex -0.050434835255146 -9.16956520080566 -0.086189329624176
vertex -0.124367207288742 -8.07586669921875 0.00404083216562867
endloop
endfacet
facet normal -0.707076191902161 0.0105350902304053 -0.707058846950531
outer loop
vertex -0.124367207288742 -8.07586669921875 0.00404083216562867
vertex -0.10660046339035 -6.9221715927124 0.00346357049420476
vertex -0.0444175377488136 -8.07555961608887 -0.0759062170982361
endloop
endfacet
facet normal -0.707076251506805 0.0105350911617279 -0.707058846950531
outer loop
vertex -0.0380721762776375 -6.92190790176392 -0.0650624707341194
vertex -0.0444175377488136 -8.07555961608887 -0.0759062170982361
vertex -0.10660046339035 -6.9221715927124 0.00346357049420476
endloop
endfacet
facet normal -0.707076251506805 0.0105350911617279 -0.707058846950531
outer loop
vertex -0.10660046339035 -6.9221715927124 0.00346357049420476
vertex -0.0888337194919586 -5.7684760093689 0.00288630882278085
vertex -0.0380721762776375 -6.92190790176392 -0.0650624707341194
endloop
endfacet
facet normal -0.707076191902161 0.0105350902304053 -0.707058846950531
outer loop
vertex -0.031726811081171 -5.76825666427612 -0.054218728095293
vertex -0.0380721762776375 -6.92190790176392 -0.0650624707341194
vertex -0.0888337194919586 -5.7684760093689 0.00288630882278085
endloop
endfacet
facet normal -0.707076191902161 0.0105350902304053 -0.707058846950531
outer loop
vertex -0.0888337194919586 -5.7684760093689 0.00288630882278085
vertex -0.0710669755935669 -4.61478090286255 0.00230904691852629
vertex -0.031726811081171 -5.76825666427612 -0.054218728095293
endloop
endfacet
facet normal -0.707076251506805 0.0105350911617279 -0.707058906555176
outer loop
vertex -0.0253814496099949 -4.61460542678833 -0.0433749817311764
vertex -0.031726811081171 -5.76825666427612 -0.054218728095293
vertex -0.0710669755935669 -4.61478090286255 0.00230904691852629
endloop
endfacet
facet normal -0.707076251506805 0.0105350911617279 -0.707058906555176
outer loop
vertex -0.0253814496099949 -4.61460542678833 -0.0433749817311764
vertex -0.0710669755935669 -4.61478090286255 0.00230904691852629
vertex -0.0190360881388187 -3.46095395088196 -0.0325312353670597
endloop
endfacet
facet normal -0.707076251506805 0.0105350911617279 -0.707058846950531
outer loop
vertex -0.0533002316951752 -3.4610857963562 0.00173178524710238
vertex -0.0190360881388187 -3.46095395088196 -0.0325312353670597
vertex -0.0710669755935669 -4.61478090286255 0.00230904691852629
endloop
endfacet
facet normal -0.707076251506805 0.0105350911617279 -0.707058846950531
outer loop
vertex -0.0533002316951752 -3.4610857963562 0.00173178524710238
vertex -0.0355334877967834 -2.30739045143127 0.00115452345926315
vertex -0.0190360881388187 -3.46095395088196 -0.0325312353670597
endloop
endfacet
facet normal -0.707076251506805 0.0105350911617279 -0.707058906555176
outer loop
vertex -0.0126907248049974 -2.30730271339417 -0.0216874908655882
vertex -0.0190360881388187 -3.46095395088196 -0.0325312353670597
vertex -0.0355334877967834 -2.30739045143127 0.00115452345926315
endloop
endfacet
facet normal -0.707076251506805 0.0105350911617279 -0.707058906555176
outer loop
vertex -0.0126907248049974 -2.30730271339417 -0.0216874908655882
vertex -0.0355334877967834 -2.30739045143127 0.00115452345926315
vertex -0.00634536240249872 -1.15365135669708 -0.0108437454327941
endloop
endfacet
facet normal -0.707076251506805 0.0105350911617279 -0.707058906555176
outer loop
vertex -0.0177667438983917 -1.15369522571564 0.000577261729631573
vertex -0.00634536240249872 -1.15365135669708 -0.0108437454327941
vertex -0.0355334877967834 -2.30739045143127 0.00115452345926315
endloop
endfacet
facet normal -0.707076251506805 0.0105350911617279 -0.707058906555176
outer loop
vertex -0.00634536240249872 -1.15365135669708 -0.0108437454327941
vertex -0.0177667438983917 -1.15369522571564 0.000577261729631573
vertex 0 0 0
endloop
endfacet
facet normal 0.707065522670746 -0.0105351330712438 -0.707069575786591
outer loop
vertex -0.15399694442749 -9.99979305267334 0.144997954368591
vertex -0.141216978430748 -9.16992568969727 0.14541307091713
vertex -0.0549991689622402 -9.9994068145752 0.243989422917366
endloop
endfacet
facet normal 0.707065463066101 -0.0105351312085986 -0.707069516181946
outer loop
vertex -0.050434835255146 -9.16956520080566 0.236189320683479
vertex -0.0549991689622402 -9.9994068145752 0.243989422917366
vertex -0.141216978430748 -9.16992568969727 0.14541307091713
endloop
endfacet
facet normal 0.707065522670746 -0.0105351330712438 -0.707069575786591
outer loop
vertex -0.0444175340235233 -8.07555866241455 0.225906223058701
vertex -0.050434835255146 -9.16956520080566 0.236189320683479
vertex -0.124368451535702 -8.07586669921875 0.145960330963135
endloop
endfacet
facet normal 0.707065522670746 -0.0105351321399212 -0.707069575786591
outer loop
vertex -0.141216978430748 -9.16992568969727 0.14541307091713
vertex -0.124368451535702 -8.07586669921875 0.145960330963135
vertex -0.050434835255146 -9.16956520080566 0.236189320683479
endloop
endfacet
facet normal 0.707065522670746 -0.0105351330712438 -0.707069575786591
outer loop
vertex -0.124368451535702 -8.07586669921875 0.145960330963135
vertex -0.106601528823376 -6.92217111587524 0.146537438035011
vertex -0.0444175340235233 -8.07555866241455 0.225906223058701
endloop
endfacet
facet normal 0.707065522670746 -0.0105351321399212 -0.707069516181946
outer loop
vertex -0.0380721725523472 -6.92190742492676 0.215062469244003
vertex -0.0444175340235233 -8.07555866241455 0.225906223058701
vertex -0.106601528823376 -6.92217111587524 0.146537438035011
endloop
endfacet
facet normal 0.707065522670746 -0.0105351321399212 -0.707069516181946
outer loop
vertex -0.106601528823376 -6.92217111587524 0.146537438035011
vertex -0.0888346061110497 -5.7684760093689 0.147114530205727
vertex -0.0380721725523472 -6.92190742492676 0.215062469244003
endloop
endfacet
facet normal 0.707065522670746 -0.0105351321399212 -0.707069516181946
outer loop
vertex -0.031726811081171 -5.76825618743896 0.204218730330467
vertex -0.0380721725523472 -6.92190742492676 0.215062469244003
vertex -0.0888346061110497 -5.7684760093689 0.147114530205727
endloop
endfacet
facet normal 0.707065522670746 -0.0105351321399212 -0.707069516181946
outer loop
vertex -0.0888346061110497 -5.7684760093689 0.147114530205727
vertex -0.0710676908493042 -4.61478090286255 0.147691622376442
vertex -0.031726811081171 -5.76825618743896 0.204218730330467
endloop
endfacet
facet normal 0.707065463066101 -0.0105351321399212 -0.707069516181946
outer loop
vertex -0.0253814496099949 -4.61460494995117 0.19337497651577
vertex -0.031726811081171 -5.76825618743896 0.204218730330467
vertex -0.0710676908493042 -4.61478090286255 0.147691622376442
endloop
endfacet
facet normal 0.707065463066101 -0.0105351321399212 -0.707069516181946
outer loop
vertex -0.0253814496099949 -4.61460494995117 0.19337497651577
vertex -0.0710676908493042 -4.61478090286255 0.147691622376442
vertex -0.0190360862761736 -3.46095371246338 0.182531237602234
endloop
endfacet
facet normal 0.707065522670746 -0.0105351321399212 -0.707069516181946
outer loop
vertex -0.0533007644116879 -3.46108555793762 0.148268714547157
vertex -0.0190360862761736 -3.46095371246338 0.182531237602234
vertex -0.0710676908493042 -4.61478090286255 0.147691622376442
endloop
endfacet
facet normal 0.707065522670746 -0.0105351321399212 -0.707069516181946
outer loop
vertex -0.0533007644116879 -3.46108555793762 0.148268714547157
vertex -0.0355338454246521 -2.30739045143127 0.148845806717873
vertex -0.0190360862761736 -3.46095371246338 0.182531237602234
endloop
endfacet
facet normal 0.707065463066101 -0.0105351321399212 -0.707069516181946
outer loop
vertex -0.0126907248049974 -2.30730247497559 0.171687483787537
vertex -0.0190360862761736 -3.46095371246338 0.182531237602234
vertex -0.0355338454246521 -2.30739045143127 0.148845806717873
endloop
endfacet
facet normal 0.707065463066101 -0.0105351321399212 -0.707069516181946
outer loop
vertex -0.0126907248049974 -2.30730247497559 0.171687483787537
vertex -0.0355338454246521 -2.30739045143127 0.148845806717873
vertex -0.00634536240249872 -1.15365123748779 0.160843744874001
endloop
endfacet
facet normal 0.707065463066101 -0.0105351321399212 -0.707069516181946
outer loop
vertex -0.017766922712326 -1.15369522571564 0.149422898888588
vertex -0.00634536240249872 -1.15365123748779 0.160843744874001
vertex -0.0355338454246521 -2.30739045143127 0.148845806717873
endloop
endfacet
facet normal 0.707065463066101 -0.0105351321399212 -0.707069516181946
outer loop
vertex -0.00634536240249872 -1.15365123748779 0.160843744874001
vertex -0.017766922712326 -1.15369522571564 0.149422898888588
vertex 0 0 0.150000005960464
endloop
endfacet
facet normal -0.999881505966187 0.0153980348259211 0
outer loop
vertex -0.153980329632759 -9.99881458282471 0.144999995827675
vertex -0.14219830930233 -9.23374080657959 0.145382583141327
vertex -0.153980329632759 -9.99881458282471 0.00499999988824129
endloop
endfacet
facet normal -0.999881446361542 0.0153980338945985 -2.84078410294418e-18
outer loop
vertex -0.14219830930233 -9.23374080657959 0.00461741769686341
vertex -0.153980329632759 -9.99881458282471 0.00499999988824129
vertex -0.14219830930233 -9.23374080657959 0.145382583141327
endloop
endfacet
facet normal -0.999881386756897 0.0153980338945985 -1.95792102509195e-16
outer loop
vertex -0.127131745219231 -8.25538349151611 0.145871818065643
vertex -0.127131745219231 -8.25538349151611 0.00412818137556314
vertex -0.14219830930233 -9.23374080657959 0.145382583141327
endloop
endfacet
facet normal -0.999881446361542 0.0153980329632759 -2.84078410294418e-18
outer loop
vertex -0.14219830930233 -9.23374080657959 0.00461741769686341
vertex -0.14219830930233 -9.23374080657959 0.145382583141327
vertex -0.127131745219231 -8.25538349151611 0.00412818137556314
endloop
endfacet
facet normal -0.999881386756897 0.0153980320319533 -1.95792076039415e-16
outer loop
vertex -0.127131745219231 -8.25538349151611 0.145871818065643
vertex -0.11057760566473 -7.18042993545532 0.14640936255455
vertex -0.127131745219231 -8.25538349151611 0.00412818137556314
endloop
endfacet
facet normal -0.999881386756897 0.0153980329632759 1.95718212119437e-16
outer loop
vertex -0.11057760566473 -7.18042993545532 0.00359064061194658
vertex -0.127131745219231 -8.25538349151611 0.00412818137556314
vertex -0.11057760566473 -7.18042993545532 0.14640936255455
endloop
endfacet
facet normal -0.999881446361542 0.0153980320319533 9.64332121197995e-17
outer loop
vertex -0.0940234661102295 -6.10547590255737 0.146946907043457
vertex -0.0940234661102295 -6.10547590255737 0.00305309984833002
vertex -0.11057760566473 -7.18042993545532 0.14640936255455
endloop
endfacet
facet normal -0.999881386756897 0.0153980329632759 1.95718212119437e-16
outer loop
vertex -0.11057760566473 -7.18042993545532 0.00359064061194658
vertex -0.11057760566473 -7.18042993545532 0.14640936255455
vertex -0.0940234661102295 -6.10547590255737 0.00305309984833002
endloop
endfacet
facet normal -0.999881446361542 0.0153980320319533 9.64332121197995e-17
outer loop
vertex -0.0940234661102295 -6.10547590255737 0.146946907043457
vertex -0.0774693265557289 -5.03052186965942 0.147484436631203
vertex -0.0940234661102295 -6.10547590255737 0.00305309984833002
endloop
endfacet
facet normal -0.999881446361542 0.0153980338945985 9.43388768355989e-17
outer loop
vertex -0.0774693265557289 -5.03052186965942 0.0025155593175441
vertex -0.0940234661102295 -6.10547590255737 0.00305309984833002
vertex -0.0774693265557289 -5.03052186965942 0.147484436631203
endloop
endfacet
facet normal -0.999881446361542 0.0153980348259211 4.4768632716648e-17
outer loop
vertex -0.0609151944518089 -3.95556831359863 0.14802198112011
vertex -0.0609151944518089 -3.95556831359863 0.00197801855392754
vertex -0.0774693265557289 -5.03052186965942 0.147484436631203
endloop
endfacet
facet normal -0.999881446361542 0.0153980338945985 9.43388768355989e-17
outer loop
vertex -0.0774693265557289 -5.03052186965942 0.0025155593175441
vertex -0.0774693265557289 -5.03052186965942 0.147484436631203
vertex -0.0609151944518089 -3.95556831359863 0.00197801855392754
endloop
endfacet
facet normal -0.999881446361542 0.0153980348259211 4.4768632716648e-17
outer loop
vertex -0.0609151944518089 -3.95556831359863 0.14802198112011
vertex -0.0443610548973083 -2.88061428070068 0.148559525609016
vertex -0.0609151944518089 -3.95556831359863 0.00197801855392754
endloop
endfacet
facet normal -0.999881505966187 0.0153980338945985 4.64800495516855e-17
outer loop
vertex -0.0443610548973083 -2.88061428070068 0.0014404779067263
vertex -0.0609151944518089 -3.95556831359863 0.00197801855392754
vertex -0.0443610548973083 -2.88061428070068 0.148559525609016
endloop
endfacet
facet normal -0.999881505966187 0.0153980338945985 -1.34918793075322e-18
outer loop
vertex -0.0278069172054529 -1.80566048622131 0.149097070097923
vertex -0.0278069172054529 -1.80566048622131 0.000902937317732722
vertex -0.0443610548973083 -2.88061428070068 0.148559525609016
endloop
endfacet
facet normal -0.999881505966187 0.0153980338945985 4.64800495516855e-17
outer loop
vertex -0.0443610548973083 -2.88061428070068 0.0014404779067263
vertex -0.0443610548973083 -2.88061428070068 0.148559525609016
vertex -0.0278069172054529 -1.80566048622131 0.000902937317732722
endloop
endfacet
facet normal -0.999881446361542 0.0153980329632759 -1.34918782735564e-18
outer loop
vertex -0.0278069172054529 -1.80566048622131 0.149097070097923
vertex -0.0124124949797988 -0.806013584136963 0.149596944451332
vertex -0.0278069172054529 -1.80566048622131 0.000902937317732722
endloop
endfacet
facet normal -0.999881446361542 0.0153980320319533 -2.32518600760472e-17
outer loop
vertex -0.0124124949797988 -0.806013584136963 0.000403054553316906
vertex -0.0278069172054529 -1.80566048622131 0.000902937317732722
vertex -0.0124124949797988 -0.806013584136963 0.149596944451332
endloop
endfacet
facet normal -0.999881446361542 0.0153980338945985 -2.32518617304084e-17
outer loop
vertex -0.0124124949797988 -0.806013584136963 0.149596944451332
vertex 0 0 0.150000005960464
vertex -0.0124124949797988 -0.806013584136963 0.000403054553316906
endloop
endfacet
facet normal -0.999881446361542 0.0153980329632759 0
outer loop
vertex 0 0 0
vertex -0.0124124949797988 -0.806013584136963 0.000403054553316906
vertex 0 0 0.150000005960464
endloop
endfacet
facet normal -0 0.0153976762667298 0.999881505966187
outer loop
vertex -0.0549999997019768 -11.0003023147583 -0.0939767435193062
vertex -0.0553825832903385 -11.7653751373291 -0.0821949914097786
vertex 0.0850000008940697 -11.0003023147583 -0.0939767435193062
endloop
endfacet
facet normal 2.92884299644513e-16 0.0153976753354073 0.999881446361542
outer loop
vertex 0.0853825807571411 -11.7653751373291 -0.0821949914097786
vertex 0.0850000008940697 -11.0003023147583 -0.0939767435193062
vertex -0.0553825832903385 -11.7653751373291 -0.0821949914097786
endloop
endfacet
facet normal -0 0.0153976744040847 0.999881505966187
outer loop
vertex -0.0558718182146549 -12.7437324523926 -0.0671287775039673
vertex 0.0858718156814575 -12.7437324523926 -0.0671287775039673
vertex -0.0553825832903385 -11.7653751373291 -0.0821949914097786
endloop
endfacet
facet normal 2.92884299644513e-16 0.0153976753354073 0.999881446361542
outer loop
vertex 0.0853825807571411 -11.7653751373291 -0.0821949914097786
vertex -0.0553825832903385 -11.7653751373291 -0.0821949914097786
vertex 0.0858718156814575 -12.7437324523926 -0.0671287775039673
endloop
endfacet
facet normal -0 0.0153976725414395 0.999881386756897
outer loop
vertex -0.0558718182146549 -12.7437324523926 -0.0671287775039673
vertex -0.0564093589782715 -13.8186864852905 -0.050575029104948
vertex 0.0858718156814575 -12.7437324523926 -0.0671287775039673
endloop
endfacet
facet normal -9.43547189986906e-17 0.0153976734727621 0.999881386756897
outer loop
vertex 0.0864093601703644 -13.8186864852905 -0.050575029104948
vertex 0.0858718156814575 -12.7437324523926 -0.0671287775039673
vertex -0.0564093589782715 -13.8186864852905 -0.050575029104948
endloop
endfacet
facet normal 1.92866450709379e-16 0.0153976744040847 0.999881446361542
outer loop
vertex -0.056946899741888 -14.8936405181885 -0.0340212769806385
vertex 0.0869468972086906 -14.8936405181885 -0.0340212769806385
vertex -0.0564093589782715 -13.8186864852905 -0.050575029104948
endloop
endfacet
facet normal -9.43547189986906e-17 0.0153976734727621 0.999881386756897
outer loop
vertex 0.0864093601703644 -13.8186864852905 -0.050575029104948
vertex -0.0564093589782715 -13.8186864852905 -0.050575029104948
vertex 0.0869468972086906 -14.8936405181885 -0.0340212769806385
endloop
endfacet
facet normal 1.92866450709379e-16 0.0153976744040847 0.999881446361542
outer loop
vertex -0.056946899741888 -14.8936405181885 -0.0340212769806385
vertex -0.0574844405055046 -15.9685945510864 -0.017467524856329
vertex 0.0869468972086906 -14.8936405181885 -0.0340212769806385
endloop
endfacet
facet normal 1.43577127052618e-16 0.0153976753354073 0.999881446361542
outer loop
vertex 0.0874844416975975 -15.9685945510864 -0.017467524856329
vertex 0.0869468972086906 -14.8936405181885 -0.0340212769806385
vertex -0.0574844405055046 -15.9685945510864 -0.017467524856329
endloop
endfacet
facet normal -1.95965254572459e-16 0.0153976744040847 0.999881446361542
outer loop
vertex -0.0580219812691212 -17.0435485839844 -0.000913773139473051
vertex 0.0880219787359238 -17.0435485839844 -0.000913773139473051
vertex -0.0574844405055046 -15.9685945510864 -0.017467524856329
endloop
endfacet
facet normal 1.43577127052618e-16 0.0153976753354073 0.999881446361542
outer loop
vertex 0.0874844416975975 -15.9685945510864 -0.017467524856329
vertex -0.0574844405055046 -15.9685945510864 -0.017467524856329
vertex 0.0880219787359238 -17.0435485839844 -0.000913773139473051
endloop
endfacet
facet normal -1.95965254572459e-16 0.0153976744040847 0.999881446361542
outer loop
vertex -0.0580219812691212 -17.0435485839844 -0.000913773139473051
vertex -0.0585595220327377 -18.118501663208 0.0156399793922901
vertex 0.0880219787359238 -17.0435485839844 -0.000913773139473051
endloop
endfacet
facet normal -1.1789892620991e-16 0.0153976744040847 0.999881505966187
outer loop
vertex 0.0885595232248306 -18.118501663208 0.0156399793922901
vertex 0.0880219787359238 -17.0435485839844 -0.000913773139473051
vertex -0.0585595220327377 -18.118501663208 0.0156399793922901
endloop
endfacet
facet normal -1.87269826094184e-16 0.0153976753354073 0.999881505966187
outer loop
vertex -0.0590970627963543 -19.1934566497803 0.0321937315165997
vertex 0.0890970602631569 -19.1934566497803 0.0321937315165997
vertex -0.0585595220327377 -18.118501663208 0.0156399793922901
endloop
endfacet
facet normal -1.1789892620991e-16 0.0153976744040847 0.999881505966187
outer loop
vertex 0.0885595232248306 -18.118501663208 0.0156399793922901
vertex -0.0585595220327377 -18.118501663208 0.0156399793922901
vertex 0.0890970602631569 -19.1934566497803 0.0321937315165997
endloop
endfacet
facet normal -1.87269812859294e-16 0.0153976744040847 0.999881446361542
outer loop
vertex -0.0590970627963543 -19.1934566497803 0.0321937315165997
vertex -0.0595969446003437 -20.1931037902832 0.0475877933204174
vertex 0.0890970602631569 -19.1934566497803 0.0321937315165997
endloop
endfacet
facet normal -3.2015690766153e-16 0.0153976734727621 0.999881446361542
outer loop
vertex 0.0895969420671463 -20.1931037902832 0.0475877933204174
vertex 0.0890970602631569 -19.1934566497803 0.0321937315165997
vertex -0.0595969446003437 -20.1931037902832 0.0475877933204174
endloop
endfacet
facet normal -3.20156934131309e-16 0.0153976744040847 0.999881446361542
outer loop
vertex -0.0595969446003437 -20.1931037902832 0.0475877933204174
vertex -0.0599999986588955 -20.999116897583 0.0599999986588955
vertex 0.0895969420671463 -20.1931037902832 0.0475877933204174
endloop
endfacet
facet normal -9.25076246908596e-17 0.0153976744040847 0.999881446361542
outer loop
vertex 0.0900000035762787 -20.999116897583 0.0599999986588955
vertex 0.0895969420671463 -20.1931037902832 0.0475877933204174
vertex -0.0599999986588955 -20.999116897583 0.0599999986588955
endloop
endfacet
facet normal -1.94312283010782e-16 -0.0153980338945985 0.999881446361542
outer loop
vertex 0.0853825807571411 -11.7653760910034 0.232198312878609
vertex 0.0850000008940697 -11.0003023147583 0.243980333209038
vertex -0.0553825832903385 -11.7653760910034 0.232198312878609
endloop
endfacet
facet normal 0 -0.0153980348259211 0.999881505966187
outer loop
vertex -0.0549999997019768 -11.0003023147583 0.243980333209038
vertex -0.0553825832903385 -11.7653760910034 0.232198312878609
vertex 0.0850000008940697 -11.0003023147583 0.243980333209038
endloop
endfacet
facet normal -1.94312296245672e-16 -0.0153980329632759 0.999881446361542
outer loop
vertex 0.0853825807571411 -11.7653760910034 0.232198312878609
vertex -0.0553825832903385 -11.7653760910034 0.232198312878609
vertex 0.0858718156814575 -12.7437334060669 0.217131748795509
endloop
endfacet
facet normal -5.81733969603018e-16 -0.0153980338945985 0.999881386756897
outer loop
vertex -0.0558718182146549 -12.7437334060669 0.217131748795509
vertex 0.0858718156814575 -12.7437334060669 0.217131748795509
vertex -0.0553825832903385 -11.7653760910034 0.232198312878609
endloop
endfacet
facet normal 5.77354862205272e-16 -0.0153980329632759 0.999881386756897
outer loop
vertex 0.0864093601703644 -13.8186864852905 0.200577601790428
vertex 0.0858718156814575 -12.7437334060669 0.217131748795509
vertex -0.0564093589782715 -13.8186864852905 0.200577601790428
endloop
endfacet
facet normal -5.81733916663459e-16 -0.0153980320319533 0.999881386756897
outer loop
vertex -0.0558718182146549 -12.7437334060669 0.217131748795509
vertex -0.0564093589782715 -13.8186864852905 0.200577601790428
vertex 0.0858718156814575 -12.7437334060669 0.217131748795509
endloop
endfacet
facet normal 5.77354862205272e-16 -0.0153980329632759 0.999881386756897
outer loop
vertex 0.0864093601703644 -13.8186864852905 0.200577601790428
vertex -0.0564093589782715 -13.8186864852905 0.200577601790428
vertex 0.0869468972086906 -14.8936405181885 0.184023469686508
endloop
endfacet
facet normal -5.75820303202643e-16 -0.0153980320319533 0.999881446361542
outer loop
vertex -0.056946899741888 -14.8936405181885 0.184023469686508
vertex 0.0869468972086906 -14.8936405181885 0.184023469686508
vertex -0.0564093589782715 -13.8186864852905 0.200577601790428
endloop
endfacet
facet normal -1.91436142933711e-16 -0.0153980338945985 0.999881446361542
outer loop
vertex 0.0874844416975975 -15.9685945510864 0.167469337582588
vertex 0.0869468972086906 -14.8936405181885 0.184023469686508
vertex -0.0574844405055046 -15.9685945510864 0.167469337582588
endloop
endfacet
facet normal -5.75820303202643e-16 -0.0153980320319533 0.999881446361542
outer loop
vertex -0.056946899741888 -14.8936405181885 0.184023469686508
vertex -0.0574844405055046 -15.9685945510864 0.167469337582588
vertex 0.0869468972086906 -14.8936405181885 0.184023469686508
endloop
endfacet
facet normal -1.91436142933711e-16 -0.0153980338945985 0.999881446361542
outer loop
vertex 0.0874844416975975 -15.9685945510864 0.167469337582588
vertex -0.0574844405055046 -15.9685945510864 0.167469337582588
vertex 0.0880219787359238 -17.0435485839844 0.150915190577507
endloop
endfacet
facet normal -3.74577662791875e-16 -0.0153980348259211 0.999881446361542
outer loop
vertex -0.0580219812691212 -17.0435485839844 0.150915190577507
vertex 0.0880219787359238 -17.0435485839844 0.150915190577507
vertex -0.0574844405055046 -15.9685945510864 0.167469337582588
endloop
endfacet
facet normal 3.71840396413484e-16 -0.0153980338945985 0.999881505966187
outer loop
vertex 0.0885595232248306 -18.118501663208 0.134361058473587
vertex 0.0880219787359238 -17.0435485839844 0.150915190577507
vertex -0.0585595220327377 -18.118501663208 0.134361058473587
endloop
endfacet
facet normal -3.74577662791875e-16 -0.0153980348259211 0.999881446361542
outer loop
vertex -0.0580219812691212 -17.0435485839844 0.150915190577507
vertex -0.0585595220327377 -18.118501663208 0.134361058473587
vertex 0.0880219787359238 -17.0435485839844 0.150915190577507
endloop
endfacet
facet normal 3.71840396413484e-16 -0.0153980338945985 0.999881505966187
outer loop
vertex 0.0885595232248306 -18.118501663208 0.134361058473587
vertex -0.0585595220327377 -18.118501663208 0.134361058473587
vertex 0.0890970602631569 -19.1934566497803 0.117806918919086
endloop
endfacet
facet normal 9.3634899812202e-17 -0.0153980338945985 0.999881505966187
outer loop
vertex -0.0590970627963543 -19.1934566497803 0.117806918919086
vertex 0.0890970602631569 -19.1934566497803 0.117806918919086
vertex -0.0585595220327377 -18.118501663208 0.134361058473587
endloop
endfacet
facet normal -3.72029761216755e-16 -0.0153980320319533 0.999881446361542
outer loop
vertex 0.0895969420671463 -20.1931037902832 0.102412492036819
vertex 0.0890970602631569 -19.1934566497803 0.117806918919086
vertex -0.0595969446003437 -20.1931037902832 0.102412492036819
endloop
endfacet
facet normal 9.36349064296469e-17 -0.0153980329632759 0.999881446361542
outer loop
vertex -0.0590970627963543 -19.1934566497803 0.117806918919086
vertex -0.0595969446003437 -20.1931037902832 0.102412492036819
vertex 0.0890970602631569 -19.1934566497803 0.117806918919086
endloop
endfacet
facet normal -3.72029787686534e-16 -0.0153980338945985 0.999881446361542
outer loop
vertex 0.0895969420671463 -20.1931037902832 0.102412492036819
vertex -0.0595969446003437 -20.1931037902832 0.102412492036819
vertex 0.0900000035762787 -20.999116897583 0.0900000035762787
endloop
endfacet
facet normal -1.85015249381719e-16 -0.0153980329632759 0.999881446361542
outer loop
vertex -0.0599999986588955 -20.999116897583 0.0900000035762787
vertex 0.0900000035762787 -20.999116897583 0.0900000035762787
vertex -0.0595969446003437 -20.1931037902832 0.102412492036819
endloop
endfacet
facet normal 0 0.00939908437430859 -0.999955773353577
outer loop
vertex 0 0 0
vertex 0.0299999993294477 0 0
vertex -0.00114705227315426 -0.208545744419098 -0.00196022563613951
endloop
endfacet
facet normal 4.92923048156882e-18 0.00939908530563116 -0.999955832958221
outer loop
vertex 0.031147051602602 -0.208545744419098 -0.00196022563613951
vertex -0.00114705227315426 -0.208545744419098 -0.00196022563613951
vertex 0.0299999993294477 0 0
endloop
endfacet
facet normal 2.36970751515028e-17 0.00939908437430859 -0.999955892562866
outer loop
vertex -0.00330022140406072 -0.600013732910156 -0.00563982920721173
vertex -0.00114705227315426 -0.208545744419098 -0.00196022563613951
vertex 0.0333002209663391 -0.600013732910156 -0.00563982920721173
endloop
endfacet
facet normal 4.92923006797851e-18 0.00939908530563116 -0.999955892562866
outer loop
vertex 0.031147051602602 -0.208545744419098 -0.00196022563613951
vertex 0.0333002209663391 -0.600013732910156 -0.00563982920721173
vertex -0.00114705227315426 -0.208545744419098 -0.00196022563613951
endloop
endfacet
facet normal 2.36970751515028e-17 0.00939908437430859 -0.999955832958221
outer loop
vertex -0.00330022140406072 -0.600013732910156 -0.00563982920721173
vertex 0.0333002209663391 -0.600013732910156 -0.00563982920721173
vertex -0.00734200514853001 -1.33485102653503 -0.0125469323247671
endloop
endfacet
facet normal 3.82116017794422e-17 0.00939908437430859 -0.999955892562866
outer loop
vertex 0.0373420044779778 -1.33485102653503 -0.0125469323247671
vertex -0.00734200514853001 -1.33485102653503 -0.0125469323247671
vertex 0.0333002209663391 -0.600013732910156 -0.00563982920721173
endloop
endfacet
facet normal -1.22680705129846e-16 0.00939908530563116 -0.999955892562866
outer loop
vertex -0.0135007565841079 -2.45457458496094 -0.0230717733502388
vertex -0.00734200514853001 -1.33485102653503 -0.0125469323247671
vertex 0.043500754982233 -2.45457458496094 -0.0230717733502388
endloop
endfacet
facet normal 3.82116050881647e-17 0.00939908530563116 -0.999955832958221
outer loop
vertex 0.0373420044779778 -1.33485102653503 -0.0125469323247671
vertex 0.043500754982233 -2.45457458496094 -0.0230717733502388
vertex -0.00734200514853001 -1.33485102653503 -0.0125469323247671
endloop
endfacet
facet normal -1.22680718364736e-16 0.00939908530563116 -0.999955952167511
outer loop
vertex -0.0135007565841079 -2.45457458496094 -0.0230717733502388
vertex 0.043500754982233 -2.45457458496094 -0.0230717733502388
vertex -0.0197486318647861 -3.59050154685974 -0.033748921006918
endloop
endfacet
facet normal 6.00603799025035e-17 0.00939908530563116 -0.999955832958221
outer loop
vertex 0.049748633056879 -3.59050154685974 -0.033748921006918
vertex -0.0197486318647861 -3.59050154685974 -0.033748921006918
vertex 0.043500754982233 -2.45457458496094 -0.0230717733502388
endloop
endfacet
facet normal -3.43804122020069e-17 0.00939908437430859 -0.999955773353577
outer loop
vertex -0.0259965062141418 -4.72642850875854 -0.0444260649383068
vertex -0.0197486318647861 -3.59050154685974 -0.033748921006918
vertex 0.0559965074062347 -4.72642850875854 -0.0444260649383068
endloop
endfacet
facet normal 6.00603799025035e-17 0.00939908530563116 -0.999955832958221
outer loop
vertex 0.049748633056879 -3.59050154685974 -0.033748921006918
vertex 0.0559965074062347 -4.72642850875854 -0.0444260649383068
vertex -0.0197486318647861 -3.59050154685974 -0.033748921006918
endloop
endfacet
facet normal -3.43804122020069e-17 0.00939908437430859 -0.999955773353577
outer loop
vertex -0.0259965062141418 -4.72642850875854 -0.0444260649383068
vertex 0.0559965074062347 -4.72642850875854 -0.0444260649383068
vertex -0.0322443805634975 -5.86235570907593 -0.055103212594986
endloop
endfacet
facet normal 5.85160601686466e-17 0.00939908437430859 -0.999955773353577
outer loop
vertex 0.0622443817555904 -5.86235570907593 -0.055103212594986
vertex -0.0322443805634975 -5.86235570907593 -0.055103212594986
vertex 0.0559965074062347 -4.72642850875854 -0.0444260649383068
endloop
endfacet
facet normal 1.29712005034343e-16 0.00939908530563116 -0.999955832958221
outer loop
vertex -0.0384922549128532 -6.99828290939331 -0.0657803565263748
vertex -0.0322443805634975 -5.86235570907593 -0.055103212594986
vertex 0.0684922561049461 -6.99828290939331 -0.0657803565263748
endloop
endfacet
facet normal 5.85160601686466e-17 0.00939908437430859 -0.999955773353577
outer loop
vertex 0.0622443817555904 -5.86235570907593 -0.055103212594986
vertex 0.0684922561049461 -6.99828290939331 -0.0657803565263748
vertex -0.0322443805634975 -5.86235570907593 -0.055103212594986
endloop
endfacet
facet normal 1.29712005034343e-16 0.00939908530563116 -0.999955832958221
outer loop
vertex -0.0384922549128532 -6.99828290939331 -0.0657803565263748
vertex 0.0684922561049461 -6.99828290939331 -0.0657803565263748
vertex -0.0447401292622089 -8.13420963287354 -0.0764575004577637
endloop
endfacet
facet normal -1.6333312499103e-16 0.00939908530563116 -0.999955892562866
outer loop
vertex 0.0747401267290115 -8.13420963287354 -0.0764575004577637
vertex -0.0447401292622089 -8.13420963287354 -0.0764575004577637
vertex 0.0684922561049461 -6.99828290939331 -0.0657803565263748
endloop
endfacet
facet normal 1.48860627410015e-16 0.00939908530563116 -0.999955892562866
outer loop
vertex -0.0505481697618961 -9.19017028808594 -0.0863830074667931
vertex -0.0447401292622089 -8.13420963287354 -0.0764575004577637
vertex 0.0805481746792793 -9.19017028808594 -0.0863830074667931
endloop
endfacet
facet normal -1.63333111756141e-16 0.00939908530563116 -0.999955832958221
outer loop
vertex 0.0747401267290115 -8.13420963287354 -0.0764575004577637
vertex 0.0805481746792793 -9.19017028808594 -0.0863830074667931
vertex -0.0447401292622089 -8.13420963287354 -0.0764575004577637
endloop
endfacet
facet normal 1.48860614175125e-16 0.00939908530563116 -0.999955832958221
outer loop
vertex -0.0505481697618961 -9.19017028808594 -0.0863830074667931
vertex 0.0805481746792793 -9.19017028808594 -0.0863830074667931
vertex -0.0549999997019768 -9.9995584487915 -0.0939908474683762
endloop
endfacet
facet normal 0 0.00939908530563116 -0.999955832958221
outer loop
vertex 0.0850000008940697 -9.9995584487915 -0.0939908474683762
vertex -0.0549999997019768 -9.9995584487915 -0.0939908474683762
vertex 0.0805481746792793 -9.19017028808594 -0.0863830074667931
endloop
endfacet
facet normal 1.69641416100597e-16 0.00939908530563116 0.999955832958221
outer loop
vertex -0.00114705227315426 -0.208545744419098 0.151960223913193
vertex 0.031147051602602 -0.208545744419098 0.151960223913193
vertex 0 0 0.150000005960464
endloop
endfacet
facet normal 0 0.00939908437430859 0.999955773353577
outer loop
vertex 0.0299999993294477 0 0.150000005960464
vertex 0 0 0.150000005960464
vertex 0.031147051602602 -0.208545744419098 0.151960223913193
endloop
endfacet
facet normal 1.69641402865707e-16 0.00939908530563116 0.999955892562866
outer loop
vertex -0.00114705227315426 -0.208545744419098 0.151960223913193
vertex -0.00330022140406072 -0.600013732910156 0.155639827251434
vertex 0.031147051602602 -0.208545744419098 0.151960223913193
endloop
endfacet
facet normal -7.5830640484809e-16 0.00939908437430859 0.999955892562866
outer loop
vertex 0.0333002209663391 -0.600013732910156 0.155639827251434
vertex 0.031147051602602 -0.208545744419098 0.151960223913193
vertex -0.00330022140406072 -0.600013732910156 0.155639827251434
endloop
endfacet
facet normal -1.6298439623269e-15 0.00939908437430859 0.999955892562866
outer loop
vertex -0.00734200514853001 -1.33485102653503 0.162546932697296
vertex 0.0373420044779778 -1.33485102653503 0.162546932697296
vertex -0.00330022140406072 -0.600013732910156 0.155639827251434
endloop
endfacet
facet normal -7.5830640484809e-16 0.00939908437430859 0.999955832958221
outer loop
vertex 0.0333002209663391 -0.600013732910156 0.155639827251434
vertex -0.00330022140406072 -0.600013732910156 0.155639827251434
vertex 0.0373420044779778 -1.33485102653503 0.162546932697296
endloop
endfacet
facet normal -1.62984406820602e-15 0.00939908530563116 0.999955832958221
outer loop
vertex -0.00734200514853001 -1.33485102653503 0.162546932697296
vertex -0.0135007565841079 -2.45457458496094 0.173071771860123
vertex 0.0373420044779778 -1.33485102653503 0.162546932697296
endloop
endfacet
facet normal -1.20772035497217e-16 0.00939908530563116 0.999955892562866
outer loop
vertex 0.043500754982233 -2.45457458496094 0.173071771860123
vertex 0.0373420044779778 -1.33485102653503 0.162546932697296
vertex -0.0135007565841079 -2.45457458496094 0.173071771860123
endloop
endfacet
facet normal -8.58778170798724e-16 0.00939908530563116 0.999955832958221
outer loop
vertex -0.0197486318647861 -3.59050154685974 0.183748915791512
vertex 0.049748633056879 -3.59050154685974 0.183748915791512
vertex -0.0135007565841079 -2.45457458496094 0.173071771860123
endloop
endfacet
facet normal -1.20772035497217e-16 0.00939908530563116 0.999955952167511
outer loop
vertex 0.043500754982233 -2.45457458496094 0.173071771860123
vertex -0.0135007565841079 -2.45457458496094 0.173071771860123
vertex 0.049748633056879 -3.59050154685974 0.183748915791512
endloop
endfacet
facet normal -8.58778170798724e-16 0.00939908530563116 0.999955832958221
outer loop
vertex -0.0197486318647861 -3.59050154685974 0.183748915791512
vertex -0.0259965062141418 -4.72642850875854 0.1944260597229
vertex 0.049748633056879 -3.59050154685974 0.183748915791512
endloop
endfacet
facet normal -1.34867841644721e-16 0.00939908437430859 0.999955773353577
outer loop
vertex 0.0559965074062347 -4.72642850875854 0.1944260597229
vertex 0.049748633056879 -3.59050154685974 0.183748915791512
vertex -0.0259965062141418 -4.72642850875854 0.1944260597229
endloop
endfacet
facet normal -2.05381944840212e-16 0.00939908437430859 0.999955773353577
outer loop
vertex -0.0322443805634975 -5.86235570907593 0.20510321855545
vertex 0.0622443817555904 -5.86235570907593 0.20510321855545
vertex -0.0259965062141418 -4.72642850875854 0.1944260597229
endloop
endfacet
facet normal -1.34867841644721e-16 0.00939908437430859 0.999955773353577
outer loop
vertex 0.0559965074062347 -4.72642850875854 0.1944260597229
vertex -0.0259965062141418 -4.72642850875854 0.1944260597229
vertex 0.0622443817555904 -5.86235570907593 0.20510321855545
endloop
endfacet
facet normal -2.05381944840212e-16 0.00939908437430859 0.999955773353577
outer loop
vertex -0.0322443805634975 -5.86235570907593 0.20510321855545
vertex -0.0384922549128532 -6.99828290939331 0.215780362486839
vertex 0.0622443817555904 -5.86235570907593 0.20510321855545
endloop
endfacet
facet normal -2.59424010068686e-16 0.00939908530563116 0.999955832958221
outer loop
vertex 0.0684922561049461 -6.99828290939331 0.215780362486839
vertex 0.0622443817555904 -5.86235570907593 0.20510321855545
vertex -0.0384922549128532 -6.99828290939331 0.215780362486839
endloop
endfacet
facet normal -1.85105418685932e-16 0.00939908530563116 0.999955892562866
outer loop
vertex -0.0447401292622089 -8.13420963287354 0.226457506418228
vertex 0.0747401267290115 -8.13420963287354 0.226457506418228
vertex -0.0384922549128532 -6.99828290939331 0.215780362486839
endloop
endfacet
facet normal -2.59424010068686e-16 0.00939908530563116 0.999955832958221
outer loop
vertex 0.0684922561049461 -6.99828290939331 0.215780362486839
vertex -0.0384922549128532 -6.99828290939331 0.215780362486839
vertex 0.0747401267290115 -8.13420963287354 0.226457506418228
endloop
endfacet
facet normal -1.85105418685932e-16 0.00939908530563116 0.999955832958221
outer loop
vertex -0.0447401292622089 -8.13420963287354 0.226457506418228
vertex -0.0505481697618961 -9.19017028808594 0.236383005976677
vertex 0.0747401267290115 -8.13420963287354 0.226457506418228
endloop
endfacet
facet normal 1.68703750627986e-16 0.00939908530563116 0.999955892562866
outer loop
vertex 0.0805481746792793 -9.19017028808594 0.236383005976677
vertex 0.0747401267290115 -8.13420963287354 0.226457506418228
vertex -0.0505481697618961 -9.19017028808594 0.236383005976677
endloop
endfacet
facet normal 1.68703737393096e-16 0.00939908530563116 0.999955832958221
outer loop
vertex -0.0505481697618961 -9.19017028808594 0.236383005976677
vertex -0.0549999997019768 -9.9995584487915 0.243990853428841
vertex 0.0805481746792793 -9.19017028808594 0.236383005976677
endloop
endfacet
facet normal 0 0.00939908530563116 0.999955832958221
outer loop
vertex 0.0850000008940697 -9.9995584487915 0.243990853428841
vertex 0.0805481746792793 -9.19017028808594 0.236383005976677
vertex -0.0549999997019768 -9.9995584487915 0.243990853428841
endloop
endfacet
facet normal -0.999881446361542 -0.0153976744040847 0
outer loop
vertex 0.0299999993294477 0 0
vertex 0.042412206530571 -0.806013584136963 0.000403054553316906
vertex 0.0299999993294477 0 0.150000005960464
endloop
endfacet
facet normal -0.999881446361542 -0.0153976744040847 9.30074469216336e-17
outer loop
vertex 0.042412206530571 -0.806013584136963 0.149596944451332
vertex 0.0299999993294477 0 0.150000005960464
vertex 0.042412206530571 -0.806013584136963 0.000403054553316906
endloop
endfacet
facet normal -0.999881446361542 -0.0153976734727621 9.30074403041887e-17
outer loop
vertex 0.042412206530571 -0.806013584136963 0.000403054553316906
vertex 0.0578062683343887 -1.80566048622131 0.000902937317732722
vertex 0.042412206530571 -0.806013584136963 0.149596944451332
endloop
endfacet
facet normal -0.999881446361542 -0.0153976744040847 9.56619158294306e-17
outer loop
vertex 0.0578062683343887 -1.80566048622131 0.149097070097923
vertex 0.042412206530571 -0.806013584136963 0.149596944451332
vertex 0.0578062683343887 -1.80566048622131 0.000902937317732722
endloop
endfacet
facet normal -0.999881505966187 -0.0153976753354073 9.56619092119857e-17
outer loop
vertex 0.0578062683343887 -1.80566048622131 0.149097070097923
vertex 0.0578062683343887 -1.80566048622131 0.000902937317732722
vertex 0.0743600204586983 -2.88061428070068 0.148559525609016
endloop
endfacet
facet normal -0.999881505966187 -0.0153976744040847 4.92013910489237e-17
outer loop
vertex 0.0743600204586983 -2.88061428070068 0.0014404779067263
vertex 0.0743600204586983 -2.88061428070068 0.148559525609016
vertex 0.0578062683343887 -1.80566048622131 0.000902937317732722
endloop
endfacet
facet normal -0.999881505966187 -0.0153976744040847 4.92013910489237e-17
outer loop
vertex 0.0743600204586983 -2.88061428070068 0.0014404779067263
vertex 0.0909137725830078 -3.95556831359863 0.00197801855392754
vertex 0.0743600204586983 -2.88061428070068 0.148559525609016
endloop
endfacet
facet normal -0.999881446361542 -0.0153976744040847 -1.85913223419817e-16
outer loop
vertex 0.0909137725830078 -3.95556831359863 0.14802198112011
vertex 0.0743600204586983 -2.88061428070068 0.148559525609016
vertex 0.0909137725830078 -3.95556831359863 0.00197801855392754
endloop
endfacet
facet normal -0.999881446361542 -0.0153976744040847 -1.85913223419817e-16
outer loop
vertex 0.0909137725830078 -3.95556831359863 0.14802198112011
vertex 0.0909137725830078 -3.95556831359863 0.00197801855392754
vertex 0.107467524707317 -5.03052186965942 0.147484436631203
endloop
endfacet
facet normal -0.999881446361542 -0.0153976753354073 2.76280661377942e-18
outer loop
vertex 0.107467524707317 -5.03052186965942 0.0025155593175441
vertex 0.107467524707317 -5.03052186965942 0.147484436631203
vertex 0.0909137725830078 -3.95556831359863 0.00197801855392754
endloop
endfacet
facet normal -0.999881446361542 -0.0153976753354073 2.76280661377942e-18
outer loop
vertex 0.107467524707317 -5.03052186965942 0.0025155593175441
vertex 0.124021276831627 -6.10547590255737 0.00305309984833002
vertex 0.107467524707317 -5.03052186965942 0.147484436631203
endloop
endfacet
facet normal -0.999881446361542 -0.0153976744040847 2.78344849237537e-18
outer loop
vertex 0.124021276831627 -6.10547590255737 0.146946907043457
vertex 0.107467524707317 -5.03052186965942 0.147484436631203
vertex 0.124021276831627 -6.10547590255737 0.00305309984833002
endloop
endfacet
facet normal -0.999881446361542 -0.0153976744040847 2.78344849237537e-18
outer loop
vertex 0.124021276831627 -6.10547590255737 0.146946907043457
vertex 0.124021276831627 -6.10547590255737 0.00305309984833002
vertex 0.140575021505356 -7.18042993545532 0.14640936255455
endloop
endfacet
facet normal -0.999881386756897 -0.0153976734727621 -1.01365723199678e-16
outer loop
vertex 0.140575021505356 -7.18042993545532 0.00359064061194658
vertex 0.140575021505356 -7.18042993545532 0.14640936255455
vertex 0.124021276831627 -6.10547590255737 0.00305309984833002
endloop
endfacet
facet normal -0.999881386756897 -0.0153976734727621 -1.01365723199678e-16
outer loop
vertex 0.140575021505356 -7.18042993545532 0.00359064061194658
vertex 0.157128781080246 -8.25538349151611 0.00412818137556314
vertex 0.140575021505356 -7.18042993545532 0.14640936255455
endloop
endfacet
facet normal -0.999881386756897 -0.0153976725414395 1.98617751481676e-16
outer loop
vertex 0.157128781080246 -8.25538349151611 0.145871818065643
vertex 0.140575021505356 -7.18042993545532 0.14640936255455
vertex 0.157128781080246 -8.25538349151611 0.00412818137556314
endloop
endfacet
facet normal -0.999881505966187 -0.0153976744040847 1.98617777951456e-16
outer loop
vertex 0.157128781080246 -8.25538349151611 0.145871818065643
vertex 0.157128781080246 -8.25538349151611 0.00412818137556314
vertex 0.172194987535477 -9.23374080657959 0.145382583141327
endloop
endfacet
facet normal -0.999881446361542 -0.0153976753354073 -1.9430776991336e-16
outer loop
vertex 0.172194987535477 -9.23374080657959 0.00461741769686341
vertex 0.172194987535477 -9.23374080657959 0.145382583141327
vertex 0.157128781080246 -8.25538349151611 0.00412818137556314
endloop
endfacet
facet normal -0.999881446361542 -0.0153976753354073 -1.9430776991336e-16
outer loop
vertex 0.172194987535477 -9.23374080657959 0.00461741769686341
vertex 0.183976739645004 -9.99881458282471 0.00499999988824129
vertex 0.172194987535477 -9.23374080657959 0.145382583141327
endloop
endfacet
facet normal -0.999881505966187 -0.0153976762667298 -0
outer loop
vertex 0.183976739645004 -9.99881458282471 0.144999995827675
vertex 0.172194987535477 -9.23374080657959 0.145382583141327
vertex 0.183976739645004 -9.99881458282471 0.00499999988824129
endloop
endfacet
facet normal 0.707067549228668 0.0105349533259869 -0.707067549228668
outer loop
vertex 0.0477645993232727 -1.15358281135559 0.000576791353523731
vertex 0.0363454222679138 -1.15376377105713 -0.0108450818806887
vertex 0.0299999993294477 0 0
endloop
endfacet
facet normal 0.707067549228668 0.0105349533259869 -0.707067549228668
outer loop
vertex 0.0363454222679138 -1.15376377105713 -0.0108450818806887
vertex 0.0477645993232727 -1.15358281135559 0.000576791353523731
vertex 0.0426908396184444 -2.30752754211426 -0.0216901637613773
endloop
endfacet
facet normal 0.707067549228668 0.0105349533259869 -0.707067549228668
outer loop
vertex 0.0655291974544525 -2.30716562271118 0.00115358270704746
vertex 0.0426908396184444 -2.30752754211426 -0.0216901637613773
vertex 0.0477645993232727 -1.15358281135559 0.000576791353523731
endloop
endfacet
facet normal 0.707067549228668 0.0105349533259869 -0.707067549228668
outer loop
vertex 0.0426908396184444 -2.30752754211426 -0.0216901637613773
vertex 0.0655291974544525 -2.30716562271118 0.00115358270704746
vertex 0.0490362606942654 -3.46129107475281 -0.0325352437794209
endloop
endfacet
facet normal 0.707067549228668 0.0105349523946643 -0.707067549228668
outer loop
vertex 0.0832937955856323 -3.46074819564819 0.00173037417698652
vertex 0.0490362606942654 -3.46129107475281 -0.0325352437794209
vertex 0.0655291974544525 -2.30716562271118 0.00115358270704746
endloop
endfacet
facet normal 0.707067549228668 0.0105349533259869 -0.707067549228668
outer loop
vertex 0.101058393716812 -4.61433124542236 0.00230716541409492
vertex 0.0553816817700863 -4.61505508422852 -0.0433803275227547
vertex 0.0832937955856323 -3.46074819564819 0.00173037417698652
endloop
endfacet
facet normal 0.707067549228668 0.0105349523946643 -0.707067549228668
outer loop
vertex 0.0490362606942654 -3.46129107475281 -0.0325352437794209
vertex 0.0832937955856323 -3.46074819564819 0.00173037417698652
vertex 0.0553816817700863 -4.61505508422852 -0.0433803275227547
endloop
endfacet
facet normal 0.707067549228668 0.0105349533259869 -0.707067549228668
outer loop
vertex 0.101058393716812 -4.61433124542236 0.00230716541409492
vertex 0.118822991847992 -5.76791381835938 0.0028839570004493
vertex 0.0553816817700863 -4.61505508422852 -0.0433803275227547
endloop
endfacet
facet normal 0.707067549228668 0.0105349523946643 -0.707067549228668
outer loop
vertex 0.0617271028459072 -5.76881837844849 -0.0542254075407982
vertex 0.0553816817700863 -4.61505508422852 -0.0433803275227547
vertex 0.118822991847992 -5.76791381835938 0.0028839570004493
endloop
endfacet
facet normal 0.707067549228668 0.0105349523946643 -0.707067549228668
outer loop
vertex 0.118822991847992 -5.76791381835938 0.0028839570004493
vertex 0.136587589979172 -6.92149639129639 0.00346074835397303
vertex 0.0617271028459072 -5.76881837844849 -0.0542254075407982
endloop
endfacet
facet normal 0.707067549228668 0.0105349523946643 -0.707067549228668
outer loop
vertex 0.0680725201964378 -6.92258214950562 -0.0650704875588417
vertex 0.0617271028459072 -5.76881837844849 -0.0542254075407982
vertex 0.136587589979172 -6.92149639129639 0.00346074835397303
endloop
endfacet
facet normal 0.707067549228668 0.0105349523946643 -0.707067549228668
outer loop
vertex 0.136587589979172 -6.92149639129639 0.00346074835397303
vertex 0.154352188110352 -8.0750789642334 0.00403753947466612
vertex 0.0680725201964378 -6.92258214950562 -0.0650704875588417
endloop
endfacet
facet normal 0.707067489624023 0.0105349514633417 -0.707067489624023
outer loop
vertex 0.0744179412722588 -8.0763463973999 -0.0759155750274658
vertex 0.0680725201964378 -6.92258214950562 -0.0650704875588417
vertex 0.154352188110352 -8.0750789642334 0.00403753947466612
endloop
endfacet
facet normal 0.707067549228668 0.0105349523946643 -0.707067549228668
outer loop
vertex 0.154352188110352 -8.0750789642334 0.00403753947466612
vertex 0.171198323369026 -9.169020652771 0.00458450987935066
vertex 0.0744179412722588 -8.0763463973999 -0.0759155750274658
endloop
endfacet
facet normal 0.707067489624023 0.0105349523946643 -0.707067489624023
outer loop
vertex 0.0804353654384613 -9.17047023773193 -0.0862000584602356
vertex 0.0744179412722588 -8.0763463973999 -0.0759155750274658
vertex 0.171198323369026 -9.169020652771 0.00458450987935066
endloop
endfacet
facet normal 0.707067489624023 0.0105349523946643 -0.707067489624023
outer loop
vertex 0.171198323369026 -9.169020652771 0.00458450987935066
vertex 0.183976724743843 -9.99881362915039 0.00499940663576126
vertex 0.0804353654384613 -9.17047023773193 -0.0862000584602356
endloop
endfacet
facet normal 0.707067549228668 0.0105349523946643 -0.707067549228668
outer loop
vertex 0.0849997028708458 -10.0003871917725 -0.0940010622143745
vertex 0.0804353654384613 -9.17047023773193 -0.0862000584602356
vertex 0.183976724743843 -9.99881362915039 0.00499940663576126
endloop
endfacet
facet normal 0.707067549228668 0.0105349533259869 0.707067549228668
outer loop
vertex 0.0363450832664967 -1.15365123748779 0.160843744874001
vertex 0.0477666072547436 -1.15369522571564 0.149422869086266
vertex 0.0299999993294477 0 0.150000005960464
endloop
endfacet
facet normal 0.707067549228668 0.0105349533259869 0.707067549228668
outer loop
vertex 0.0426901653409004 -2.30730247497559 0.171687483787537
vertex 0.0655332207679749 -2.30739045143127 0.148845747113228
vertex 0.0363450832664967 -1.15365123748779 0.160843744874001
endloop
endfacet
facet normal 0.707067549228668 0.0105349533259869 0.707067549228668
outer loop
vertex 0.0477666072547436 -1.15369522571564 0.149422869086266
vertex 0.0363450832664967 -1.15365123748779 0.160843744874001
vertex 0.0655332207679749 -2.30739045143127 0.148845747113228
endloop
endfacet
facet normal 0.707067549228668 0.0105349533259869 0.707067549228668
outer loop
vertex 0.0426901653409004 -2.30730247497559 0.171687483787537
vertex 0.0490352474153042 -3.46095371246338 0.182531237602234
vertex 0.0655332207679749 -2.30739045143127 0.148845747113228
endloop
endfacet
facet normal 0.707067549228668 0.0105349523946643 0.707067549228668
outer loop
vertex 0.0832998231053352 -3.46108555793762 0.14826862514019
vertex 0.0655332207679749 -2.30739045143127 0.148845747113228
vertex 0.0490352474153042 -3.46095371246338 0.182531237602234
endloop
endfacet
facet normal 0.707067549228668 0.0105349533259869 0.707067549228668
outer loop
vertex 0.0553803294897079 -4.61460494995117 0.19337497651577
vertex 0.101066432893276 -4.61478090286255 0.147691488265991
vertex 0.0490352474153042 -3.46095371246338 0.182531237602234
endloop
endfacet
facet normal 0.707067549228668 0.0105349523946643 0.707067549228668
outer loop
vertex 0.0832998231053352 -3.46108555793762 0.14826862514019
vertex 0.0490352474153042 -3.46095371246338 0.182531237602234
vertex 0.101066432893276 -4.61478090286255 0.147691488265991
endloop
endfacet
facet normal 0.707067549228668 0.0105349533259869 0.707067549228668
outer loop
vertex 0.0553803294897079 -4.61460494995117 0.19337497651577
vertex 0.0617254115641117 -5.76825618743896 0.204218730330467
vertex 0.101066432893276 -4.61478090286255 0.147691488265991
endloop
endfacet
facet normal 0.707067549228668 0.0105349523946643 0.707067549228668
outer loop
vertex 0.118833042681217 -5.7684760093689 0.147114366292953
vertex 0.101066432893276 -4.61478090286255 0.147691488265991
vertex 0.0617254115641117 -5.76825618743896 0.204218730330467
endloop
endfacet
facet normal 0.707067549228668 0.0105349523946643 0.707067549228668
outer loop
vertex 0.0617254115641117 -5.76825618743896 0.204218730330467
vertex 0.0680704936385155 -6.92190742492676 0.215062469244003
vertex 0.118833042681217 -5.7684760093689 0.147114366292953
endloop
endfacet
facet normal 0.707067549228668 0.0105349523946643 0.707067549228668
outer loop
vertex 0.136599659919739 -6.92217111587524 0.146537229418755
vertex 0.118833042681217 -5.7684760093689 0.147114366292953
vertex 0.0680704936385155 -6.92190742492676 0.215062469244003
endloop
endfacet
facet normal 0.707067549228668 0.0105349523946643 0.707067549228668
outer loop
vertex 0.0680704936385155 -6.92190742492676 0.215062469244003
vertex 0.0744155719876289 -8.07555866241455 0.225906223058701
vertex 0.136599659919739 -6.92217111587524 0.146537229418755
endloop
endfacet
facet normal 0.707067489624023 0.0105349514633417 0.707067489624023
outer loop
vertex 0.15436626970768 -8.07586669921875 0.145960107445717
vertex 0.136599659919739 -6.92217111587524 0.146537229418755
vertex 0.0744155719876289 -8.07555866241455 0.225906223058701
endloop
endfacet
facet normal 0.707067549228668 0.0105349523946643 0.707067549228668
outer loop
vertex 0.0744155719876289 -8.07555866241455 0.225906223058701
vertex 0.0804326087236404 -9.16956520080566 0.236189320683479
vertex 0.15436626970768 -8.07586669921875 0.145960107445717
endloop
endfacet
facet normal 0.707067489624023 0.0105349523946643 0.707067489624023
outer loop
vertex 0.171214491128922 -9.16992568969727 0.145412817597389
vertex 0.15436626970768 -8.07586669921875 0.145960107445717
vertex 0.0804326087236404 -9.16956520080566 0.236189320683479
endloop
endfacet
facet normal 0.707067489624023 0.0105349523946643 0.707067489624023
outer loop
vertex 0.0804326087236404 -9.16956520080566 0.236189320683479
vertex 0.0849967375397682 -9.9994068145752 0.243989422917366
vertex 0.171214491128922 -9.16992568969727 0.145412817597389
endloop
endfacet
facet normal 0.707067549228668 0.0105349523946643 0.707067549228668
outer loop
vertex 0.183994233608246 -9.99979305267334 0.144997671246529
vertex 0.171214491128922 -9.16992568969727 0.145412817597389
vertex 0.0849967375397682 -9.9994068145752 0.243989422917366
endloop
endfacet
facet normal 0.707067549228668 -0.0105349533259869 -0.707067549228668
outer loop
vertex 0.100843742489815 -19.8454647064209 0.0536549165844917
vertex 0.0900000035762787 -20.999116897583 0.0599999986588955
vertex 0.0894228741526604 -19.8454208374023 0.0422333925962448
endloop
endfacet
facet normal 0.707067549228668 -0.0105349533259869 -0.707067549228668
outer loop
vertex 0.0894228741526604 -19.8454208374023 0.0422333925962448
vertex 0.0888457447290421 -18.6917266845703 0.0244667828083038
vertex 0.100843742489815 -19.8454647064209 0.0536549165844917
endloop
endfacet
facet normal 0.707067549228668 -0.0105349533259869 -0.707067549228668
outer loop
vertex 0.111687488853931 -18.6918144226074 0.047309834510088
vertex 0.100843742489815 -19.8454647064209 0.0536549165844917
vertex 0.0888457447290421 -18.6917266845703 0.0244667828083038
endloop
endfacet
facet normal 0.707067549228668 -0.0105349523946643 -0.707067549228668
outer loop
vertex 0.122531235218048 -17.5381622314453 0.0409647524356842
vertex 0.111687488853931 -18.6918144226074 0.047309834510088
vertex 0.0882686153054237 -17.5380306243896 0.00670017302036285
endloop
endfacet
facet normal 0.707067549228668 -0.0105349533259869 -0.707067549228668
outer loop
vertex 0.0888457447290421 -18.6917266845703 0.0244667828083038
vertex 0.0882686153054237 -17.5380306243896 0.00670017302036285
vertex 0.111687488853931 -18.6918144226074 0.047309834510088
endloop
endfacet
facet normal 0.707067549228668 -0.0105349523946643 -0.707067549228668
outer loop
vertex 0.0882686153054237 -17.5380306243896 0.00670017302036285
vertex 0.087691493332386 -16.3843364715576 -0.0110664358362556
vertex 0.122531235218048 -17.5381622314453 0.0409647524356842
endloop
endfacet
facet normal 0.707067549228668 -0.0105349533259869 -0.707067549228668
outer loop
vertex 0.133374974131584 -16.3845119476318 0.0346196703612804
vertex 0.122531235218048 -17.5381622314453 0.0409647524356842
vertex 0.087691493332386 -16.3843364715576 -0.0110664358362556
endloop
endfacet
facet normal 0.707067549228668 -0.0105349533259869 -0.707067549228668
outer loop
vertex 0.133374974131584 -16.3845119476318 0.0346196703612804
vertex 0.087691493332386 -16.3843364715576 -0.0110664358362556
vertex 0.144218727946281 -15.2308597564697 0.0282745901495218
endloop
endfacet
facet normal 0.707067549228668 -0.0105349523946643 -0.707067549228668
outer loop
vertex 0.0871143639087677 -15.230640411377 -0.028833044692874
vertex 0.144218727946281 -15.2308597564697 0.0282745901495218
vertex 0.087691493332386 -16.3843364715576 -0.0110664358362556
endloop
endfacet
facet normal 0.707067549228668 -0.0105349523946643 -0.707067549228668
outer loop
vertex 0.144218727946281 -15.2308597564697 0.0282745901495218
vertex 0.0871143639087677 -15.230640411377 -0.028833044692874
vertex 0.155062466859818 -14.0772085189819 0.0219295080751181
endloop
endfacet
facet normal 0.707067549228668 -0.0105349523946643 -0.707067549228668
outer loop
vertex 0.0865372344851494 -14.0769453048706 -0.0465996526181698
vertex 0.155062466859818 -14.0772085189819 0.0219295080751181
vertex 0.0871143639087677 -15.230640411377 -0.028833044692874
endloop
endfacet
facet normal 0.707067549228668 -0.0105349523946643 -0.707067549228668
outer loop
vertex 0.155062466859818 -14.0772085189819 0.0219295080751181
vertex 0.0865372344851494 -14.0769453048706 -0.0465996526181698
vertex 0.165906220674515 -12.9235572814941 0.0155844260007143
endloop
endfacet
facet normal 0.707067489624023 -0.0105349514633417 -0.707067489624023
outer loop
vertex 0.0859601050615311 -12.9232501983643 -0.0643662661314011
vertex 0.165906220674515 -12.9235572814941 0.0155844260007143
vertex 0.0865372344851494 -14.0769453048706 -0.0465996526181698
endloop
endfacet
facet normal 0.707067549228668 -0.0105349523946643 -0.707067549228668
outer loop
vertex 0.165906220674515 -12.9235572814941 0.0155844260007143
vertex 0.0859601050615311 -12.9232501983643 -0.0643662661314011
vertex 0.176189318299294 -11.8295516967773 0.00956739392131567
endloop
endfacet
facet normal 0.707067489624023 -0.0105349523946643 -0.707067489624023
outer loop
vertex 0.0854128152132034 -11.8291902542114 -0.0812144950032234
vertex 0.176189318299294 -11.8295516967773 0.00956739392131567
vertex 0.0859601050615311 -12.9232501983643 -0.0643662661314011
endloop
endfacet
facet normal 0.707067489624023 -0.0105349523946643 -0.707067489624023
outer loop
vertex 0.176189318299294 -11.8295516967773 0.00956739392131567
vertex 0.0854128152132034 -11.8291902542114 -0.0812144950032234
vertex 0.18398942053318 -10.9997091293335 0.00500326137989759
endloop
endfacet
facet normal 0.707067549228668 -0.0105349523946643 -0.707067549228668
outer loop
vertex 0.0849976763129234 -10.9993238449097 -0.0939942374825478
vertex 0.18398942053318 -10.9997091293335 0.00500326137989759
vertex 0.0854128152132034 -11.8291902542114 -0.0812144950032234
endloop
endfacet
facet normal -0.707069575786591 0.0105351330712438 -0.707065522670746
outer loop
vertex 0.0849979594349861 -10.9993238449097 0.243996948003769
vertex 0.18398942053318 -10.9997091293335 0.144999161362648
vertex 0.0854130759835243 -11.8291902542114 0.231216982007027
endloop
endfacet
facet normal -0.707069516181946 0.0105351312085986 -0.707065463066101
outer loop
vertex 0.176189318299294 -11.8295516967773 0.140434831380844
vertex 0.0854130759835243 -11.8291902542114 0.231216982007027
vertex 0.18398942053318 -10.9997091293335 0.144999161362648
endloop
endfacet
facet normal -0.707069575786591 0.0105351321399212 -0.707065522670746
outer loop
vertex 0.0854130759835243 -11.8291902542114 0.231216982007027
vertex 0.176189318299294 -11.8295516967773 0.140434831380844
vertex 0.0859603360295296 -12.9232501983643 0.2143684476614
endloop
endfacet
facet normal -0.707069575786591 0.0105351330712438 -0.707065522670746
outer loop
vertex 0.165906220674515 -12.9235572814941 0.134417533874512
vertex 0.0859603360295296 -12.9232501983643 0.2143684476614
vertex 0.176189318299294 -11.8295516967773 0.140434831380844
endloop
endfacet
facet normal -0.707069575786591 0.0105351330712438 -0.707065522670746
outer loop
vertex 0.0859603360295296 -12.9232501983643 0.2143684476614
vertex 0.165906220674515 -12.9235572814941 0.134417533874512
vertex 0.0865374282002449 -14.0769453048706 0.196601524949074
endloop
endfacet
facet normal -0.707069516181946 0.0105351321399212 -0.707065522670746
outer loop
vertex 0.155062466859818 -14.0772085189819 0.128072172403336
vertex 0.0865374282002449 -14.0769453048706 0.196601524949074
vertex 0.165906220674515 -12.9235572814941 0.134417533874512
endloop
endfacet
facet normal -0.707069516181946 0.0105351321399212 -0.707065522670746
outer loop
vertex 0.0865374282002449 -14.0769453048706 0.196601524949074
vertex 0.155062466859818 -14.0772085189819 0.128072172403336
vertex 0.0871145278215408 -15.230640411377 0.178834602236748
endloop
endfacet
facet normal -0.707069516181946 0.0105351321399212 -0.707065522670746
outer loop
vertex 0.144218727946281 -15.2308597564697 0.121726810932159
vertex 0.0871145278215408 -15.230640411377 0.178834602236748
vertex 0.155062466859818 -14.0772085189819 0.128072172403336
endloop
endfacet
facet normal -0.707069516181946 0.0105351321399212 -0.707065522670746
outer loop
vertex 0.0871145278215408 -15.230640411377 0.178834602236748
vertex 0.144218727946281 -15.2308597564697 0.121726810932159
vertex 0.0876916199922562 -16.3843364715576 0.161067694425583
endloop
endfacet
facet normal -0.707069516181946 0.0105351321399212 -0.707065463066101
outer loop
vertex 0.133374974131584 -16.3845119476318 0.115381449460983
vertex 0.0876916199922562 -16.3843364715576 0.161067694425583
vertex 0.144218727946281 -15.2308597564697 0.121726810932159
endloop
endfacet
facet normal -0.707069516181946 0.0105351321399212 -0.707065463066101
outer loop
vertex 0.133374974131584 -16.3845119476318 0.115381449460983
vertex 0.122531235218048 -17.5381622314453 0.109036087989807
vertex 0.0876916199922562 -16.3843364715576 0.161067694425583
endloop
endfacet
facet normal -0.707069516181946 0.0105351321399212 -0.707065522670746
outer loop
vertex 0.0882687121629715 -17.5380306243896 0.143300771713257
vertex 0.0876916199922562 -16.3843364715576 0.161067694425583
vertex 0.122531235218048 -17.5381622314453 0.109036087989807
endloop
endfacet
facet normal -0.707069516181946 0.0105351321399212 -0.707065522670746
outer loop
vertex 0.122531235218048 -17.5381622314453 0.109036087989807
vertex 0.111687488853931 -18.6918144226074 0.102690726518631
vertex 0.0882687121629715 -17.5380306243896 0.143300771713257
endloop
endfacet
facet normal -0.707069516181946 0.0105351321399212 -0.707065463066101
outer loop
vertex 0.0888458117842674 -18.6917266845703 0.125533849000931
vertex 0.0882687121629715 -17.5380306243896 0.143300771713257
vertex 0.111687488853931 -18.6918144226074 0.102690726518631
endloop
endfacet
facet normal -0.707069516181946 0.0105351321399212 -0.707065463066101
outer loop
vertex 0.111687488853931 -18.6918144226074 0.102690726518631
vertex 0.100843742489815 -19.8454647064209 0.0963453650474548
vertex 0.0888458117842674 -18.6917266845703 0.125533849000931
endloop
endfacet
facet normal -0.707069516181946 0.0105351321399212 -0.707065463066101
outer loop
vertex 0.0894229039549828 -19.8454208374023 0.107766918838024
vertex 0.0888458117842674 -18.6917266845703 0.125533849000931
vertex 0.100843742489815 -19.8454647064209 0.0963453650474548
endloop
endfacet
facet normal -0.707069516181946 0.0105351321399212 -0.707065463066101
outer loop
vertex 0.100843742489815 -19.8454647064209 0.0963453650474548
vertex 0.0900000035762787 -20.999116897583 0.0900000035762787
vertex 0.0894229039549828 -19.8454208374023 0.107766918838024
endloop
endfacet
facet normal 0.999955832958221 -0.00939908530563116 0
outer loop
vertex 0.183990851044655 -10.9995584487915 0.144999995827675
vertex 0.176383003592491 -11.8089456558228 0.140548169612885
vertex 0.183990851044655 -10.9995584487915 0.00499999988824129
endloop
endfacet
facet normal 0.999955832958221 -0.00939908530563116 -3.39067288785896e-16
outer loop
vertex 0.176383003592491 -11.8089456558228 0.00945182889699936
vertex 0.183990851044655 -10.9995584487915 0.00499999988824129
vertex 0.176383003592491 -11.8089456558228 0.140548169612885
endloop
endfacet
facet normal 0.999955892562866 -0.00939908530563116 -3.39067288785896e-16
outer loop
vertex 0.176383003592491 -11.8089456558228 0.00945182889699936
vertex 0.176383003592491 -11.8089456558228 0.140548169612885
vertex 0.166457504034042 -12.8649072647095 0.0152598703280091
endloop
endfacet
facet normal 0.999955832958221 -0.00939908530563116 0
outer loop
vertex 0.166457504034042 -12.8649072647095 0.134740129113197
vertex 0.166457504034042 -12.8649072647095 0.0152598703280091
vertex 0.176383003592491 -11.8089456558228 0.140548169612885
endloop
endfacet
facet normal 0.999955892562866 -0.00939908530563116 0
outer loop
vertex 0.166457504034042 -12.8649072647095 0.0152598703280091
vertex 0.166457504034042 -12.8649072647095 0.134740129113197
vertex 0.155780360102654 -14.0008335113525 0.0215077456086874
endloop
endfacet
facet normal 0.999955832958221 -0.00939908530563116 0
outer loop
vertex 0.155780360102654 -14.0008335113525 0.128492251038551
vertex 0.155780360102654 -14.0008335113525 0.0215077456086874
vertex 0.166457504034042 -12.8649072647095 0.134740129113197
endloop
endfacet
facet normal 0.999955832958221 -0.00939908530563116 0
outer loop
vertex 0.155780360102654 -14.0008335113525 0.128492251038551
vertex 0.145103216171265 -15.1367607116699 0.122244380414486
vertex 0.155780360102654 -14.0008335113525 0.0215077456086874
endloop
endfacet
facet normal 0.999955773353577 -0.00939908437430859 -5.30098894077955e-16
outer loop
vertex 0.145103216171265 -15.1367607116699 0.0277556199580431
vertex 0.155780360102654 -14.0008335113525 0.0215077456086874
vertex 0.145103216171265 -15.1367607116699 0.122244380414486
endloop
endfacet
facet normal 0.999955773353577 -0.00939908437430859 -5.30098894077955e-16
outer loop
vertex 0.145103216171265 -15.1367607116699 0.0277556199580431
vertex 0.145103216171265 -15.1367607116699 0.122244380414486
vertex 0.134426072239876 -16.2726879119873 0.0340034924447536
endloop
endfacet
facet normal 0.999955773353577 -0.00939908437430859 -6.7699304185669e-16
outer loop
vertex 0.134426072239876 -16.2726879119873 0.11599650233984
vertex 0.134426072239876 -16.2726879119873 0.0340034924447536
vertex 0.145103216171265 -15.1367607116699 0.122244380414486
endloop
endfacet
facet normal 0.999955773353577 -0.00939908437430859 -6.7699304185669e-16
outer loop
vertex 0.134426072239876 -16.2726879119873 0.11599650233984
vertex 0.123748920857906 -17.4086151123047 0.109748631715775
vertex 0.134426072239876 -16.2726879119873 0.0340034924447536
endloop
endfacet
facet normal 0.999955832958221 -0.00939908530563116 5.61607249166394e-16
outer loop
vertex 0.123748920857906 -17.4086151123047 0.0402513705193996
vertex 0.134426072239876 -16.2726879119873 0.0340034924447536
vertex 0.123748920857906 -17.4086151123047 0.109748631715775
endloop
endfacet
facet normal 0.999955832958221 -0.00939908530563116 5.61607249166394e-16
outer loop
vertex 0.123748920857906 -17.4086151123047 0.0402513705193996
vertex 0.123748920857906 -17.4086151123047 0.109748631715775
vertex 0.113071776926517 -18.5445423126221 0.0464992448687553
endloop
endfacet
facet normal 0.999955952167511 -0.00939908530563116 -9.7381112132693e-16
outer loop
vertex 0.113071776926517 -18.5445423126221 0.103500753641129
vertex 0.113071776926517 -18.5445423126221 0.0464992448687553
vertex 0.123748920857906 -17.4086151123047 0.109748631715775
endloop
endfacet
facet normal 0.999955892562866 -0.00939908530563116 -9.73811015447812e-16
outer loop
vertex 0.113071776926517 -18.5445423126221 0.103500753641129
vertex 0.10254693031311 -19.6642646789551 0.0973420068621635
vertex 0.113071776926517 -18.5445423126221 0.0464992448687553
endloop
endfacet
facet normal 0.999955832958221 -0.00939908530563116 -4.94952056025026e-16
outer loop
vertex 0.10254693031311 -19.6642646789551 0.0526579953730106
vertex 0.113071776926517 -18.5445423126221 0.0464992448687553
vertex 0.10254693031311 -19.6642646789551 0.0973420068621635
endloop
endfacet
facet normal 0.999955892562866 -0.00939908437430859 -4.94952003085466e-16
outer loop
vertex 0.10254693031311 -19.6642646789551 0.0526579953730106
vertex 0.10254693031311 -19.6642646789551 0.0973420068621635
vertex 0.0956398323178291 -20.3991031646729 0.0566997788846493
endloop
endfacet
facet normal 0.999955832958221 -0.00939908437430859 -1.13745947492324e-15
outer loop
vertex 0.0956398323178291 -20.3991031646729 0.0933002233505249
vertex 0.0956398323178291 -20.3991031646729 0.0566997788846493
vertex 0.10254693031311 -19.6642646789551 0.0973420068621635
endloop
endfacet
facet normal 0.999955892562866 -0.00939908437430859 -1.13745968668147e-15
outer loop
vertex 0.0956398323178291 -20.3991031646729 0.0933002233505249
vertex 0.0919602289795876 -20.7905712127686 0.0911470502614975
vertex 0.0956398323178291 -20.3991031646729 0.0566997788846493
endloop
endfacet
facet normal 0.999955892562866 -0.00939908530563116 -4.29712334347858e-16
outer loop
vertex 0.0919602289795876 -20.7905712127686 0.0588529482483864
vertex 0.0956398323178291 -20.3991031646729 0.0566997788846493
vertex 0.0919602289795876 -20.7905712127686 0.0911470502614975
endloop
endfacet
facet normal 0.999955832958221 -0.00939908530563116 -4.29712334347858e-16
outer loop
vertex 0.0919602289795876 -20.7905712127686 0.0588529482483864
vertex 0.0919602289795876 -20.7905712127686 0.0911470502614975
vertex 0.0900000035762787 -20.999116897583 0.0599999986588955
endloop
endfacet
facet normal 0.999955773353577 -0.00939908437430859 0
outer loop
vertex 0.0900000035762787 -20.999116897583 0.0900000035762787
vertex 0.0900000035762787 -20.999116897583 0.0599999986588955
vertex 0.0919602289795876 -20.7905712127686 0.0911470502614975
endloop
endfacet
endsolid COMSOL mesh mesh1
