solid COMSOL mesh mesh1
facet normal -0.00946742109954357 -0.00245173112489283 -0.99995219707489
outer loop
vertex -9.91011714935303 -0.897179484367371 0.183007568120956
vertex -10.0590105056763 -0.895625233650208 0.184413462877274
vertex -9.9099178314209 -0.877031624317169 0.182956263422966
endloop
endfacet
facet normal -0.00946742109954357 -0.00245173112489283 -0.999952137470245
outer loop
vertex -10.0588121414185 -0.8756263256073 0.184362545609474
vertex -9.9099178314209 -0.877031624317169 0.182956263422966
vertex -10.0590105056763 -0.895625233650208 0.184413462877274
endloop
endfacet
facet normal -0.009467420168221 -0.00245173089206219 -0.99995219707489
outer loop
vertex -9.91011714935303 -0.897179484367371 0.183007568120956
vertex -9.9099178314209 -0.877031624317169 0.182956263422966
vertex -9.60043811798096 -0.900412082672119 0.180083483457565
endloop
endfacet
facet normal -0.009467420168221 -0.00245173112489283 -0.999952256679535
outer loop
vertex -9.60023593902588 -0.879954516887665 0.180031403899193
vertex -9.60043811798096 -0.900412082672119 0.180083483457565
vertex -9.9099178314209 -0.877031624317169 0.182956263422966
endloop
endfacet
facet normal -0.00946742109954357 -0.00245173112489283 -0.999952256679535
outer loop
vertex -9.60043811798096 -0.900412082672119 0.180083483457565
vertex -9.60023593902588 -0.879954516887665 0.180031403899193
vertex -8.95634841918945 -0.907135426998138 0.174001812934875
endloop
endfacet
facet normal -0.00946742109954357 -0.00245173112489283 -0.99995219707489
outer loop
vertex -8.95613861083984 -0.886033713817596 0.173948094248772
vertex -8.95634841918945 -0.907135426998138 0.174001812934875
vertex -9.60023593902588 -0.879954516887665 0.180031403899193
endloop
endfacet
facet normal -0.009467420168221 -0.00245173089206219 -0.99995219707489
outer loop
vertex -8.95634841918945 -0.907135426998138 0.174001812934875
vertex -8.95613861083984 -0.886033713817596 0.173948094248772
vertex -7.61672639846802 -0.921119034290314 0.161352723836899
endloop
endfacet
facet normal -0.00946742109954357 -0.00245173135772347 -0.999952256679535
outer loop
vertex -7.61650371551514 -0.898677706718445 0.161295592784882
vertex -7.61672639846802 -0.921119034290314 0.161352723836899
vertex -8.95613861083984 -0.886033713817596 0.173948094248772
endloop
endfacet
facet normal -0.009467420168221 -0.00245173089206219 -0.99995219707489
outer loop
vertex -5.5385046005249 -0.942812561988831 0.141729578375816
vertex -7.61672639846802 -0.921119034290314 0.161352723836899
vertex -5.53826141357422 -0.918292939662933 0.141667157411575
endloop
endfacet
facet normal -0.00946742109954357 -0.00245173112489283 -0.999952137470245
outer loop
vertex -7.61650371551514 -0.898677706718445 0.161295592784882
vertex -5.53826141357422 -0.918292939662933 0.141667157411575
vertex -7.61672639846802 -0.921119034290314 0.161352723836899
endloop
endfacet
facet normal -0.009467420168221 -0.00245173112489283 -0.999952137470245
outer loop
vertex -5.5385046005249 -0.942812561988831 0.141729578375816
vertex -5.53826141357422 -0.918292939662933 0.141667157411575
vertex -3.4459547996521 -0.964655697345734 0.121971130371094
endloop
endfacet
facet normal -0.00946742109954357 -0.00245173112489283 -0.99995219707489
outer loop
vertex -3.44569087028503 -0.938043355941772 0.121903382241726
vertex -3.4459547996521 -0.964655697345734 0.121971130371094
vertex -5.53826141357422 -0.918292939662933 0.141667157411575
endloop
endfacet
facet normal -0.009467420168221 -0.00245173089206219 -0.999952137470245
outer loop
vertex -3.4459547996521 -0.964655697345734 0.121971130371094
vertex -3.44569087028503 -0.938043355941772 0.121903382241726
vertex -1.65008664131165 -0.983401894569397 0.10501404106617
endloop
endfacet
facet normal -0.00946741923689842 -0.00245173065923154 -0.999952077865601
outer loop
vertex -1.64980494976044 -0.954993605613708 0.104941725730896
vertex -1.65008664131165 -0.983401894569397 0.10501404106617
vertex -3.44569087028503 -0.938043355941772 0.121903382241726
endloop
endfacet
facet normal -0.00946742109954357 -0.00245173112489283 -0.999952256679535
outer loop
vertex -1.65008664131165 -0.983401894569397 0.10501404106617
vertex -1.64980494976044 -0.954993605613708 0.104941725730896
vertex -0.730634689331055 -0.99299955368042 0.0963323190808296
endloop
endfacet
facet normal -0.00946742109954357 -0.00245173089206219 -0.99995219707489
outer loop
vertex -0.73034393787384 -0.963671803474426 0.0962576568126678
vertex -0.730634689331055 -0.99299955368042 0.0963323190808296
vertex -1.64980494976044 -0.954993605613708 0.104941725730896
endloop
endfacet
facet normal -0.009467420168221 -0.00245173089206219 -0.999952137470245
outer loop
vertex -0.280139982700348 -0.967921018600464 0.0920056030154228
vertex -0.28043520450592 -0.997698962688446 0.0920814126729965
vertex -0.73034393787384 -0.963671803474426 0.0962576568126678
endloop
endfacet
facet normal -0.00946742109954357 -0.00245173112489283 -0.99995219707489
outer loop
vertex -0.730634689331055 -0.99299955368042 0.0963323190808296
vertex -0.73034393787384 -0.963671803474426 0.0962576568126678
vertex -0.28043520450592 -0.997698962688446 0.0920814126729965
endloop
endfacet
facet normal -0.00946742109954357 -0.00245173089206219 -0.99995219707489
outer loop
vertex -0.280139982700348 -0.967921018600464 0.0920056030154228
vertex -0.0597025826573372 -0.970001578330994 0.0899236351251602
vertex -0.28043520450592 -0.997698962688446 0.0920814126729965
endloop
endfacet
facet normal -0.009467420168221 -0.00245173112489283 -0.99995219707489
outer loop
vertex -0.0599999986588955 -1 0.0900000035762787
vertex -0.28043520450592 -0.997698962688446 0.0920814126729965
vertex -0.0597025826573372 -0.970001578330994 0.0899236351251602
endloop
endfacet
facet normal -0.00943167321383953 0.000975464761722833 -0.999955058097839
outer loop
vertex -7.96066665649414 -0.917528808116913 0.164600312709808
vertex -10.0590105056763 -0.895625233650208 0.184413462877274
vertex -7.96062326431274 -0.913331985473633 0.164603993296623
endloop
endfacet
facet normal -0.00943167321383953 0.000975464761722833 -0.999955058097839
outer loop
vertex -5.86232280731201 -0.939432442188263 0.144787147641182
vertex -7.96066665649414 -0.917528808116913 0.164600312709808
vertex -5.86223602294922 -0.931038677692413 0.144794523715973
endloop
endfacet
facet normal -0.00943167321383953 0.000975464761722833 -0.999955058097839
outer loop
vertex -7.96062326431274 -0.913331985473633 0.164603993296623
vertex -5.86223602294922 -0.931038677692413 0.144794523715973
vertex -7.96066665649414 -0.917528808116913 0.164600312709808
endloop
endfacet
facet normal -0.00943167321383953 0.000975464761722833 -0.999955058097839
outer loop
vertex -5.86232280731201 -0.939432442188263 0.144787147641182
vertex -5.86223602294922 -0.931038677692413 0.144794523715973
vertex -3.7639787197113 -0.961336016654968 0.124974004924297
endloop
endfacet
facet normal -0.00943167228251696 0.000975464761722833 -0.999954998493195
outer loop
vertex -3.76384854316711 -0.948745369911194 0.124985054135323
vertex -3.7639787197113 -0.961336016654968 0.124974004924297
vertex -5.86223602294922 -0.931038677692413 0.144794523715973
endloop
endfacet
facet normal -0.00943167228251696 0.000975464761722833 -0.999955058097839
outer loop
vertex -1.9612649679184 -0.980153620243073 0.107952274382114
vertex -3.7639787197113 -0.961336016654968 0.124974004924297
vertex -1.96109509468079 -0.96395742893219 0.107966475188732
endloop
endfacet
facet normal -0.00943167321383953 0.000975464819930494 -0.999955058097839
outer loop
vertex -3.76384854316711 -0.948745369911194 0.124985054135323
vertex -1.96109509468079 -0.96395742893219 0.107966475188732
vertex -3.7639787197113 -0.961336016654968 0.124974004924297
endloop
endfacet
facet normal -0.00943167321383953 0.000975464819930494 -0.999955058097839
outer loop
vertex -1.9612649679184 -0.980153620243073 0.107952274382114
vertex -1.96109509468079 -0.96395742893219 0.107966475188732
vertex -0.983700931072235 -0.990357935428619 0.0987218394875526
endloop
endfacet
facet normal -0.00943167321383953 0.000975464761722833 -0.999955058097839
outer loop
vertex -0.98350989818573 -0.97220653295517 0.0987377464771271
vertex -0.983700931072235 -0.990357935428619 0.0987218394875526
vertex -1.96109509468079 -0.96395742893219 0.107966475188732
endloop
endfacet
facet normal -0.00943167321383953 0.000975464819930494 -0.999955117702484
outer loop
vertex -0.983700931072235 -0.990357935428619 0.0987218394875526
vertex -0.98350989818573 -0.97220653295517 0.0987377464771271
vertex -0.47062548995018 -0.995713710784912 0.0938772410154343
endloop
endfacet
facet normal -0.00943167321383953 0.000975464761722833 -0.999955058097839
outer loop
vertex -0.470424115657806 -0.976536095142365 0.0938940495252609
vertex -0.47062548995018 -0.995713710784912 0.0938772410154343
vertex -0.98350989818573 -0.97220653295517 0.0987377464771271
endloop
endfacet
facet normal -0.00943167321383953 0.000975464703515172 -0.999954998493195
outer loop
vertex -0.201130926609039 -0.978808462619781 0.0913518294692039
vertex -0.201337367296219 -0.99852466583252 0.0913345441222191
vertex -0.470424115657806 -0.976536095142365 0.0938940495252609
endloop
endfacet
facet normal -0.00943167321383953 0.000975464761722833 -0.999954998493195
outer loop
vertex -0.47062548995018 -0.995713710784912 0.0938772410154343
vertex -0.470424115657806 -0.976536095142365 0.0938940495252609
vertex -0.201337367296219 -0.99852466583252 0.0913345441222191
endloop
endfacet
facet normal -0.00943167321383953 0.000975464703515172 -0.999955058097839
outer loop
vertex -0.201130926609039 -0.978808462619781 0.0913518294692039
vertex -0.0597923249006271 -0.980001091957092 0.0900175496935844
vertex -0.201337367296219 -0.99852466583252 0.0913345441222191
endloop
endfacet
facet normal -0.00943167228251696 0.000975464819930494 -0.999955058097839
outer loop
vertex -0.0600012503564358 -1 0.0900000110268593
vertex -0.201337367296219 -0.99852466583252 0.0913345441222191
vertex -0.0597923249006271 -0.980001091957092 0.0900175496935844
endloop
endfacet
facet normal -0.382662415504456 0.00333191873505712 0.923882246017456
outer loop
vertex 0.039142657071352 8.99987030029297 0.0649999976158142
vertex -0.799517273902893 9.0024585723877 -0.282373547554016
vertex 0.0376555733382702 8.84987831115723 0.0649250000715256
endloop
endfacet
facet normal -0.382662445306778 0.00333191896788776 0.923882246017456
outer loop
vertex -0.8008873462677 8.86426639556885 -0.282442659139633
vertex 0.0376555733382702 8.84987831115723 0.0649250000715256
vertex -0.799517273902893 9.0024585723877 -0.282373547554016
endloop
endfacet
facet normal -0.382662385702133 0.00333191873505712 0.923882246017456
outer loop
vertex -0.8008873462677 8.86426639556885 -0.282442659139633
vertex -0.799517273902893 9.0024585723877 -0.282373547554016
vertex -2.09184241294861 8.8864164352417 -0.817222654819489
endloop
endfacet
facet normal -0.382662415504456 0.00333191873505712 0.923882186412811
outer loop
vertex -2.09065222740173 9.00644302368164 -0.8171626329422
vertex -2.09184241294861 8.8864164352417 -0.817222654819489
vertex -0.799517273902893 9.0024585723877 -0.282373547554016
endloop
endfacet
facet normal -0.382662445306778 0.00333191873505712 0.923882246017456
outer loop
vertex -3.86583781242371 8.91685485839844 -1.55210292339325
vertex -2.09184241294861 8.8864164352417 -0.817222654819489
vertex -3.86489534378052 9.01191711425781 -1.55205535888672
endloop
endfacet
facet normal -0.382662415504456 0.00333191873505712 0.923882246017456
outer loop
vertex -2.09065222740173 9.00644302368164 -0.8171626329422
vertex -3.86489534378052 9.01191711425781 -1.55205535888672
vertex -2.09184241294861 8.8864164352417 -0.817222654819489
endloop
endfacet
facet normal -0.382662415504456 0.00333191873505712 0.923882246017456
outer loop
vertex -3.86489534378052 9.01191711425781 -1.55205535888672
vertex -5.66914844512939 9.01748466491699 -2.29937839508057
vertex -3.86583781242371 8.91685485839844 -1.55210292339325
endloop
endfacet
facet normal -0.382662415504456 0.00333191896788776 0.923882246017456
outer loop
vertex -5.66983938217163 8.94780826568604 -2.29941320419312
vertex -3.86583781242371 8.91685485839844 -1.55210292339325
vertex -5.66914844512939 9.01748466491699 -2.29937839508057
endloop
endfacet
facet normal -0.382662415504456 0.00333191896788776 0.923882305622101
outer loop
vertex -5.66983938217163 8.94780826568604 -2.29941320419312
vertex -5.66914844512939 9.01748466491699 -2.29937839508057
vertex -7.33632802963257 8.97640228271484 -2.98975849151611
endloop
endfacet
facet normal -0.382662445306778 0.00333191896788776 0.923882246017456
outer loop
vertex -7.33586931228638 9.02262783050537 -2.98973536491394
vertex -7.33632802963257 8.97640228271484 -2.98975849151611
vertex -5.66914844512939 9.01748466491699 -2.29937839508057
endloop
endfacet
facet normal -0.382662385702133 0.00333191873505712 0.923882246017456
outer loop
vertex -7.33586931228638 9.02262783050537 -2.98973536491394
vertex -8.28908729553223 9.02556991577148 -3.38455891609192
vertex -7.33632802963257 8.97640228271484 -2.98975849151611
endloop
endfacet
facet normal -0.382662415504456 0.00333191896788776 0.923882246017456
outer loop
vertex -8.28941249847412 8.99275588989258 -3.38457536697388
vertex -7.33632802963257 8.97640228271484 -2.98975849151611
vertex -8.28908729553223 9.02556991577148 -3.38455891609192
endloop
endfacet
facet normal -0.382662445306778 0.00333191896788776 0.923882246017456
outer loop
vertex -8.28941249847412 8.99275588989258 -3.38457536697388
vertex -8.28908729553223 9.02556991577148 -3.38455891609192
vertex -8.79312992095947 9.00139904022217 -3.59324073791504
endloop
endfacet
facet normal -0.382662415504456 0.00333191896788776 0.923882246017456
outer loop
vertex -8.79287433624268 9.02712440490723 -3.59322786331177
vertex -8.79312992095947 9.00139904022217 -3.59324073791504
vertex -8.28908729553223 9.02556991577148 -3.38455891609192
endloop
endfacet
facet normal -0.382662445306778 0.00333191896788776 0.923882246017456
outer loop
vertex -8.79312992095947 9.00139904022217 -3.59324073791504
vertex -8.79287433624268 9.02712440490723 -3.59322786331177
vertex -9.05935001373291 9.00596714019775 -3.70352292060852
endloop
endfacet
facet normal -0.382662415504456 0.00333191873505712 0.923882246017456
outer loop
vertex -9.05913162231445 9.02794551849365 -3.70351195335388
vertex -9.05935001373291 9.00596714019775 -3.70352292060852
vertex -8.79287433624268 9.02712440490723 -3.59322786331177
endloop
endfacet
facet normal -0.382662385702133 0.00333191873505712 0.923882186412811
outer loop
vertex -9.05935001373291 9.00596714019775 -3.70352292060852
vertex -9.05913162231445 9.02794551849365 -3.70351195335388
vertex -9.20005035400391 9.00838088989258 -3.76180839538574
endloop
endfacet
facet normal -0.382662385702133 0.00333191873505712 0.923882246017456
outer loop
vertex -9.19985198974609 9.02838039398193 -3.76179838180542
vertex -9.20005035400391 9.00838088989258 -3.76180839538574
vertex -9.05913162231445 9.02794551849365 -3.70351195335388
endloop
endfacet
facet normal -0.690581262111664 -0.214930191636086 -0.690581262111664
outer loop
vertex -0.406547278165817 10.8919363021851 -0.126423746347427
vertex 0.0376555733382702 8.84987831115723 0.0649250000715256
vertex -0.409449815750122 10.8915872573853 -0.123412370681763
endloop
endfacet
facet normal -0.690581262111664 -0.214930191636086 -0.690581262111664
outer loop
vertex -0.850750148296356 12.9339952468872 -0.317772477865219
vertex -0.406547278165817 10.8919363021851 -0.126423746347427
vertex -0.856555223464966 12.9332962036133 -0.311749756336212
endloop
endfacet
facet normal -0.690581262111664 -0.214930191636086 -0.690581262111664
outer loop
vertex -0.409449815750122 10.8915872573853 -0.123412370681763
vertex -0.856555223464966 12.9332962036133 -0.311749756336212
vertex -0.406547278165817 10.8919363021851 -0.126423746347427
endloop
endfacet
facet normal -0.690581262111664 -0.214930191636086 -0.690581262111664
outer loop
vertex -0.850750148296356 12.9339952468872 -0.317772477865219
vertex -0.856555223464966 12.9332962036133 -0.311749756336212
vertex -1.29495298862457 14.9760541915894 -0.509121239185333
endloop
endfacet
facet normal -0.690581262111664 -0.214930191636086 -0.690581262111664
outer loop
vertex -1.30366063117981 14.9750051498413 -0.500087141990662
vertex -1.29495298862457 14.9760541915894 -0.509121239185333
vertex -0.856555223464966 12.9332962036133 -0.311749756336212
endloop
endfacet
facet normal -0.690581321716309 -0.214930191636086 -0.690581321716309
outer loop
vertex -1.67657256126404 16.7304096221924 -0.673511028289795
vertex -1.29495298862457 14.9760541915894 -0.509121239185333
vertex -1.68777430057526 16.729061126709 -0.661890029907227
endloop
endfacet
facet normal -0.690581262111664 -0.214930191636086 -0.690581262111664
outer loop
vertex -1.30366063117981 14.9750051498413 -0.500087141990662
vertex -1.68777430057526 16.729061126709 -0.661890029907227
vertex -1.29495298862457 14.9760541915894 -0.509121239185333
endloop
endfacet
facet normal -0.690581262111664 -0.214930191636086 -0.690581262111664
outer loop
vertex -1.67657256126404 16.7304096221924 -0.673511028289795
vertex -1.68777430057526 16.729061126709 -0.661890029907227
vertex -1.8835141658783 17.6817474365234 -0.762655019760132
endloop
endfacet
facet normal -0.690581321716309 -0.214930191636086 -0.690581321716309
outer loop
vertex -1.89606833457947 17.6802368164063 -0.749631226062775
vertex -1.8835141658783 17.6817474365234 -0.762655019760132
vertex -1.68777430057526 16.729061126709 -0.661890029907227
endloop
endfacet
facet normal -0.690581321716309 -0.214930176734924 -0.690581321716309
outer loop
vertex -1.8835141658783 17.6817474365234 -0.762655019760132
vertex -1.89606833457947 17.6802368164063 -0.749631226062775
vertex -1.99212741851807 18.1810550689697 -0.809442222118378
endloop
endfacet
facet normal -0.690581262111664 -0.214930161833763 -0.690581262111664
outer loop
vertex -2.00539112091064 18.1794605255127 -0.795682072639465
vertex -1.99212741851807 18.1810550689697 -0.809442222118378
vertex -1.89606833457947 17.6802368164063 -0.749631226062775
endloop
endfacet
facet normal -0.690581262111664 -0.214930191636086 -0.690581262111664
outer loop
vertex -1.99212741851807 18.1810550689697 -0.809442222118378
vertex -2.00539112091064 18.1794605255127 -0.795682072639465
vertex -2.04913306236267 18.4431190490723 -0.833998501300812
endloop
endfacet
facet normal -0.690581262111664 -0.214930191636086 -0.690581262111664
outer loop
vertex -2.06276917457581 18.441478729248 -0.819851815700531
vertex -2.04913306236267 18.4431190490723 -0.833998501300812
vertex -2.00539112091064 18.1794605255127 -0.795682072639465
endloop
endfacet
facet normal -0.690581262111664 -0.214930191636086 -0.690581262111664
outer loop
vertex -2.04913306236267 18.4431190490723 -0.833998501300812
vertex -2.06276917457581 18.441478729248 -0.819851815700531
vertex -2.07905244827271 18.5806617736816 -0.846886813640594
endloop
endfacet
facet normal -0.690581262111664 -0.214930191636086 -0.690581262111664
outer loop
vertex -2.0928840637207 18.5789966583252 -0.832537293434143
vertex -2.07905244827271 18.5806617736816 -0.846886813640594
vertex -2.06276917457581 18.441478729248 -0.819851815700531
endloop
endfacet
facet normal 0.99995219707489 0.00245173089206219 -0.00946742109954357
outer loop
vertex -0.00200560456141829 -0.0320789963006973 -0.220139965415001
vertex -0.00208141072653234 -0.00230101426132023 -0.220435202121735
vertex 7.63674979680218e-05 -0.0299984291195869 0.000297416234388947
endloop
endfacet
facet normal 0.99995219707489 0.00245173112489283 -0.009467420168221
outer loop
vertex 0 0 0
vertex 7.63674979680218e-05 -0.0299984291195869 0.000297416234388947
vertex -0.00208141072653234 -0.00230101426132023 -0.220435202121735
endloop
endfacet
facet normal 0.99995219707489 0.00245173112489283 -0.00946742109954357
outer loop
vertex -0.00200560456141829 -0.0320789963006973 -0.220139965415001
vertex -0.00625766022130847 -0.0363281890749931 -0.670343935489655
vertex -0.00208141072653234 -0.00230101426132023 -0.220435202121735
endloop
endfacet
facet normal 0.99995219707489 0.00245173112489283 -0.00946742109954357
outer loop
vertex -0.00633232016116381 -0.00700042489916086 -0.670634686946869
vertex -0.00208141072653234 -0.00230101426132023 -0.220435202121735
vertex -0.00625766022130847 -0.0363281890749931 -0.670343935489655
endloop
endfacet
facet normal 0.99995219707489 0.00245173089206219 -0.00946742109954357
outer loop
vertex -0.00625766022130847 -0.0363281890749931 -0.670343935489655
vertex -0.0149417230859399 -0.0450063981115818 -1.5898050069809
vertex -0.00633232016116381 -0.00700042489916086 -0.670634686946869
endloop
endfacet
facet normal 0.999952256679535 0.00245173112489283 -0.00946742109954357
outer loop
vertex -0.0150140421465039 -0.01659812964499 -1.59008657932281
vertex -0.00633232016116381 -0.00700042489916086 -0.670634686946869
vertex -0.0149417230859399 -0.0450063981115818 -1.5898050069809
endloop
endfacet
facet normal 0.99995219707489 0.00245173089206219 -0.009467420168221
outer loop
vertex -0.0149417230859399 -0.0450063981115818 -1.5898050069809
vertex -0.0319033861160278 -0.0619566291570663 -3.38569092750549
vertex -0.0150140421465039 -0.01659812964499 -1.59008657932281
endloop
endfacet
facet normal 0.999952137470245 0.00245173089206219 -0.009467420168221
outer loop
vertex -0.0319711305201054 -0.0353443138301373 -3.38595485687256
vertex -0.0150140421465039 -0.01659812964499 -1.59008657932281
vertex -0.0319033861160278 -0.0619566291570663 -3.38569092750549
endloop
endfacet
facet normal 0.99995219707489 0.00245173112489283 -0.00946742109954357
outer loop
vertex -0.0319033861160278 -0.0619566291570663 -3.38569092750549
vertex -0.0516671538352966 -0.0817070752382278 -5.47826147079468
vertex -0.0319711305201054 -0.0353443138301373 -3.38595485687256
endloop
endfacet
facet normal 0.999952137470245 0.00245173112489283 -0.009467420168221
outer loop
vertex -0.0517295710742474 -0.057187408208847 -5.47850465774536
vertex -0.0319711305201054 -0.0353443138301373 -3.38595485687256
vertex -0.0516671538352966 -0.0817070752382278 -5.47826147079468
endloop
endfacet
facet normal 0.99995219707489 0.00245173089206219 -0.009467420168221
outer loop
vertex -0.0517295710742474 -0.057187408208847 -5.47850465774536
vertex -0.0516671538352966 -0.0817070752382278 -5.47826147079468
vertex -0.0713527277112007 -0.0788809433579445 -7.55672645568848
endloop
endfacet
facet normal 0.999952137470245 0.00245173112489283 -0.00946742109954357
outer loop
vertex -0.0712955966591835 -0.101322293281555 -7.5565037727356
vertex -0.0713527277112007 -0.0788809433579445 -7.55672645568848
vertex -0.0516671538352966 -0.0817070752382278 -5.47826147079468
endloop
endfacet
facet normal 0.999952256679535 0.00245173135772347 -0.00946742109954357
outer loop
vertex -0.0712955966591835 -0.101322293281555 -7.5565037727356
vertex -0.083948090672493 -0.113966256380081 -8.89613914489746
vertex -0.0713527277112007 -0.0788809433579445 -7.55672645568848
endloop
endfacet
facet normal 0.99995219707489 0.00245173089206219 -0.009467420168221
outer loop
vertex -0.0840018093585968 -0.0928645953536034 -8.89634799957275
vertex -0.0713527277112007 -0.0788809433579445 -7.55672645568848
vertex -0.083948090672493 -0.113966256380081 -8.89613914489746
endloop
endfacet
facet normal 0.99995219707489 0.00245173112489283 -0.00946742109954357
outer loop
vertex -0.083948090672493 -0.113966256380081 -8.89613914489746
vertex -0.0900314077734947 -0.120045483112335 -9.54023551940918
vertex -0.0840018093585968 -0.0928645953536034 -8.89634799957275
endloop
endfacet
facet normal 0.999952137470245 0.00245173089206219 -0.009467420168221
outer loop
vertex -0.0900834873318672 -0.0995879322290421 -9.54043865203857
vertex -0.0840018093585968 -0.0928645953536034 -8.89634799957275
vertex -0.0900314077734947 -0.120045483112335 -9.54023551940918
endloop
endfacet
facet normal 0.999952256679535 0.00245173112489283 -0.00946742109954357
outer loop
vertex -0.0930075645446777 -0.102820515632629 -9.85011672973633
vertex -0.0900834873318672 -0.0995879322290421 -9.54043865203857
vertex -0.0929562672972679 -0.12296836823225 -9.8499174118042
endloop
endfacet
facet normal 0.999952256679535 0.00245173112489283 -0.009467420168221
outer loop
vertex -0.0900314077734947 -0.120045483112335 -9.54023551940918
vertex -0.0929562672972679 -0.12296836823225 -9.8499174118042
vertex -0.0900834873318672 -0.0995879322290421 -9.54043865203857
endloop
endfacet
facet normal 0.99995219707489 0.00245173112489283 -0.00946742109954357
outer loop
vertex -0.0930075645446777 -0.102820515632629 -9.85011672973633
vertex -0.0929562672972679 -0.12296836823225 -9.8499174118042
vertex -0.0944134593009949 -0.104374743998051 -9.99901103973389
endloop
endfacet
facet normal 0.999952137470245 0.00245173112489283 -0.00946742109954357
outer loop
vertex -0.0943625420331955 -0.124373696744442 -9.99881267547607
vertex -0.0944134593009949 -0.104374743998051 -9.99901103973389
vertex -0.0929562672972679 -0.12296836823225 -9.8499174118042
endloop
endfacet
facet normal 0.999955058097839 -0.000975464761722833 -0.00943167321383953
outer loop
vertex -0.0746003016829491 -0.0824711620807648 -7.9006667137146
vertex -0.0746039897203445 -0.0866680443286896 -7.9006233215332
vertex -0.0944134593009949 -0.104374743998051 -9.99901103973389
endloop
endfacet
facet normal 0.999955058097839 -0.000975464761722833 -0.00943167321383953
outer loop
vertex -0.0547871552407742 -0.0605675876140594 -5.80232286453247
vertex -0.0547945238649845 -0.0689613372087479 -5.80223608016968
vertex -0.0746003016829491 -0.0824711620807648 -7.9006667137146
endloop
endfacet
facet normal 0.999955058097839 -0.000975464761722833 -0.00943167321383953
outer loop
vertex -0.0746039897203445 -0.0866680443286896 -7.9006233215332
vertex -0.0746003016829491 -0.0824711620807648 -7.9006667137146
vertex -0.0547945238649845 -0.0689613372087479 -5.80223608016968
endloop
endfacet
facet normal 0.999955058097839 -0.000975464761722833 -0.00943167321383953
outer loop
vertex -0.0547871552407742 -0.0605675876140594 -5.80232286453247
vertex -0.0349740050733089 -0.0386640094220638 -3.70397877693176
vertex -0.0547945238649845 -0.0689613372087479 -5.80223608016968
endloop
endfacet
facet normal 0.999954998493195 -0.000975464761722833 -0.00943167228251696
outer loop
vertex -0.0349850580096245 -0.0512546375393867 -3.70384860038757
vertex -0.0547945238649845 -0.0689613372087479 -5.80223608016968
vertex -0.0349740050733089 -0.0386640094220638 -3.70397877693176
endloop
endfacet
facet normal 0.999955058097839 -0.000975464761722833 -0.00943167321383953
outer loop
vertex -0.0349740050733089 -0.0386640094220638 -3.70397877693176
vertex -0.0179522763937712 -0.0198463685810566 -1.90126502513885
vertex -0.0349850580096245 -0.0512546375393867 -3.70384860038757
endloop
endfacet
facet normal 0.999955117702484 -0.000975464819930494 -0.00943167321383953
outer loop
vertex -0.0179664734750986 -0.0360425673425198 -1.90109515190125
vertex -0.0349850580096245 -0.0512546375393867 -3.70384860038757
vertex -0.0179522763937712 -0.0198463685810566 -1.90126502513885
endloop
endfacet
facet normal 0.999955058097839 -0.000975464819930494 -0.00943167321383953
outer loop
vertex -0.0179522763937712 -0.0198463685810566 -1.90126502513885
vertex -0.00872184243053198 -0.00964205805212259 -0.923700928688049
vertex -0.0179664734750986 -0.0360425673425198 -1.90109515190125
endloop
endfacet
facet normal 0.999955058097839 -0.000975464761722833 -0.00943167321383953
outer loop
vertex -0.00873774755746126 -0.0277934670448303 -0.923509895801544
vertex -0.0179664734750986 -0.0360425673425198 -1.90109515190125
vertex -0.00872184243053198 -0.00964205805212259 -0.923700928688049
endloop
endfacet
facet normal 0.999955117702484 -0.000975464819930494 -0.00943167321383953
outer loop
vertex -0.00872184243053198 -0.00964205805212259 -0.923700928688049
vertex -0.00387724069878459 -0.00428631715476513 -0.410625487565994
vertex -0.00873774755746126 -0.0277934670448303 -0.923509895801544
endloop
endfacet
facet normal 0.999955058097839 -0.000975464761722833 -0.00943167321383953
outer loop
vertex -0.00389404920861125 -0.0234639253467321 -0.410424113273621
vertex -0.00873774755746126 -0.0277934670448303 -0.923509895801544
vertex -0.00387724069878459 -0.00428631715476513 -0.410625487565994
endloop
endfacet
facet normal 0.999954998493195 -0.000975464761722833 -0.00943167321383953
outer loop
vertex -0.00387724069878459 -0.00428631715476513 -0.410625487565994
vertex -0.0013345469487831 -0.00147535116411746 -0.141337364912033
vertex -0.00389404920861125 -0.0234639253467321 -0.410424113273621
endloop
endfacet
facet normal 0.999954998493195 -0.000975464703515172 -0.00943167321383953
outer loop
vertex -0.00135183311067522 -0.0211915634572506 -0.141130924224854
vertex -0.00389404920861125 -0.0234639253467321 -0.410424113273621
vertex -0.0013345469487831 -0.00147535116411746 -0.141337364912033
endloop
endfacet
facet normal 0.999955058097839 -0.000975464703515172 -0.00943167228251696
outer loop
vertex -0.0013345469487831 -0.00147535116411746 -0.141337364912033
vertex -1.18016796335496e-08 -1.30468409409445e-08 -1.24987616345607e-06
vertex -0.00135183311067522 -0.0211915634572506 -0.141130924224854
endloop
endfacet
facet normal 0.999955058097839 -0.000975464819930494 -0.00943167321383953
outer loop
vertex -1.75503082573414e-05 -0.0199989136308432 0.000207674398552626
vertex -0.00135183311067522 -0.0211915634572506 -0.141130924224854
vertex -1.18016796335496e-08 -1.30468409409445e-08 -1.24987616345607e-06
endloop
endfacet
facet normal -0.00944335851818323 -0.000409128260798752 -0.999955296516418
outer loop
vertex 6.99129676818848 1.81183576583862 0.0222863405942917
vertex 6.97701215744019 1.79783809185028 0.0224269665777683
vertex 6.88540744781494 1.92131757736206 0.0232415404170752
endloop
endfacet
facet normal -0.00944335851818323 -0.000409128260798752 -0.999955356121063
outer loop
vertex 6.86970901489258 1.90593409538269 0.0233960878103971
vertex 6.88540744781494 1.92131757736206 0.0232415404170752
vertex 6.97701215744019 1.79783809185028 0.0224269665777683
endloop
endfacet
facet normal -0.00944335851818323 -0.000409128260798752 -0.999955296516418
outer loop
vertex 6.88540744781494 1.92131757736206 0.0232415404170752
vertex 6.86970901489258 1.90593409538269 0.0233960878103971
vertex 6.68505430221558 2.12846875190735 0.0250488761812449
endloop
endfacet
facet normal -0.00944335944950581 -0.000409128289902583 -0.999955356121063
outer loop
vertex 6.66667985916138 2.11046314239502 0.0252297669649124
vertex 6.68505430221558 2.12846875190735 0.0250488761812449
vertex 6.86970901489258 1.90593409538269 0.0233960878103971
endloop
endfacet
facet normal -0.00944335944950581 -0.000409128260798752 -0.999955356121063
outer loop
vertex 6.28252744674683 2.49745345115662 0.0286992825567722
vertex 6.30596494674683 2.52042031288147 0.0284685492515564
vertex 6.66667985916138 2.11046314239502 0.0252297669649124
endloop
endfacet
facet normal -0.00944335851818323 -0.000409128260798752 -0.999955296516418
outer loop
vertex 6.68505430221558 2.12846875190735 0.0250488761812449
vertex 6.66667985916138 2.11046314239502 0.0252297669649124
vertex 6.30596494674683 2.52042031288147 0.0284685492515564
endloop
endfacet
facet normal -0.00944335851818323 -0.000409128260798752 -0.999955356121063
outer loop
vertex 6.28252744674683 2.49745345115662 0.0286992825567722
vertex 5.55567121505737 3.22967982292175 0.03526396676898
vertex 6.30596494674683 2.52042031288147 0.0284685492515564
endloop
endfacet
facet normal -0.00944335944950581 -0.000409128260798752 -0.999955296516418
outer loop
vertex 5.58868789672852 3.26203393936157 0.0349389277398586
vertex 6.30596494674683 2.52042031288147 0.0284685492515564
vertex 5.55567121505737 3.22967982292175 0.03526396676898
endloop
endfacet
facet normal -0.00944335758686066 -0.000409128231694922 -0.999955296516418
outer loop
vertex 4.28474760055542 4.5099925994873 0.0467424541711807
vertex 4.33451461791992 4.55876016616821 0.0462525151669979
vertex 5.55567121505737 3.22967982292175 0.03526396676898
endloop
endfacet
facet normal -0.00944335944950581 -0.000409128289902583 -0.999955356121063
outer loop
vertex 5.58868789672852 3.26203393936157 0.0349389277398586
vertex 5.55567121505737 3.22967982292175 0.03526396676898
vertex 4.33451461791992 4.55876016616821 0.0462525151669979
endloop
endfacet
facet normal -0.00944335851818323 -0.000409128260798752 -0.999955296516418
outer loop
vertex 4.28474760055542 4.5099925994873 0.0467424541711807
vertex 2.90895247459412 5.89595222473145 0.059168104082346
vertex 4.33451461791992 4.55876016616821 0.0462525151669979
endloop
endfacet
facet normal -0.00944335851818323 -0.000409128231694922 -0.999955296516418
outer loop
vertex 2.97685122489929 5.96248817443848 0.0584996603429317
vertex 4.33451461791992 4.55876016616821 0.0462525151669979
vertex 2.90895247459412 5.89595222473145 0.059168104082346
endloop
endfacet
facet normal -0.00944335944950581 -0.000409128260798752 -0.999955356121063
outer loop
vertex 2.90895247459412 5.89595222473145 0.059168104082346
vertex 1.55604040622711 7.25885915756226 0.0713870823383331
vertex 2.97685122489929 5.96248817443848 0.0584996603429317
endloop
endfacet
facet normal -0.00944335944950581 -0.000409128260798752 -0.999955356121063
outer loop
vertex 1.64176964759827 7.34286785125732 0.0705430954694748
vertex 2.97685122489929 5.96248817443848 0.0584996603429317
vertex 1.55604040622711 7.25885915756226 0.0713870823383331
endloop
endfacet
facet normal -0.00944335944950581 -0.000409128260798752 -0.999955356121063
outer loop
vertex 0.571512341499329 8.25066089630127 0.0802789553999901
vertex 0.670217037200928 8.34738445281982 0.0793072357773781
vertex 1.55604040622711 7.25885915756226 0.0713870823383331
endloop
endfacet
facet normal -0.00944335944950581 -0.000409128260798752 -0.999955296516418
outer loop
vertex 1.64176964759827 7.34286785125732 0.0705430954694748
vertex 1.55604040622711 7.25885915756226 0.0713870823383331
vertex 0.670217037200928 8.34738445281982 0.0793072357773781
endloop
endfacet
facet normal -0.00944335944950581 -0.000409128289902583 -0.999955356121063
outer loop
vertex 0.571512341499329 8.25066089630127 0.0802789553999901
vertex -0.0679903030395508 8.89488792419434 0.086054690182209
vertex 0.670217037200928 8.34738445281982 0.0793072357773781
endloop
endfacet
facet normal -0.00944335944950581 -0.000409128289902583 -0.999955356121063
outer loop
vertex 0.039142657071352 8.99987030029297 0.0850000008940697
vertex 0.670217037200928 8.34738445281982 0.0793072357773781
vertex -0.0679903030395508 8.89488792419434 0.086054690182209
endloop
endfacet
facet normal 0.707102179527283 0.00359618058428168 -0.707102179527283
outer loop
vertex 0.0284699629992247 11.0983991622925 0.0649999976158142
vertex 0.039142657071352 8.99987030029297 0.0649999976158142
vertex 0.025502247735858 11.0983829498291 0.0620322041213512
endloop
endfacet
facet normal 0.707102179527283 0.00359618058428168 -0.707102179527283
outer loop
vertex 0.0177972707897425 13.1969270706177 0.0649999976158142
vertex 0.0284699629992247 11.0983991622925 0.0649999976158142
vertex 0.0118618374690413 13.1968955993652 0.0590644106268883
endloop
endfacet
facet normal 0.707102179527283 0.00359618058428168 -0.707102179527283
outer loop
vertex 0.025502247735858 11.0983829498291 0.0620322041213512
vertex 0.0118618374690413 13.1968955993652 0.0590644106268883
vertex 0.0284699629992247 11.0983991622925 0.0649999976158142
endloop
endfacet
facet normal 0.707102179527283 0.00359618058428168 -0.707102179527283
outer loop
vertex 0.0177972707897425 13.1969270706177 0.0649999976158142
vertex 0.0118618374690413 13.1968955993652 0.0590644106268883
vertex 0.00712457625195384 15.2954549789429 0.0649999976158142
endloop
endfacet
facet normal 0.707102239131927 0.00359618035145104 -0.707102239131927
outer loop
vertex -0.0017785724485293 15.2954082489014 0.056096613407135
vertex 0.00712457625195384 15.2954549789429 0.0649999976158142
vertex 0.0118618374690413 13.1968955993652 0.0590644106268883
endloop
endfacet
facet normal 0.707102179527283 0.00359618035145104 -0.707102179527283
outer loop
vertex -0.00204445235431194 17.0983238220215 0.0649999976158142
vertex 0.00712457625195384 15.2954549789429 0.0649999976158142
vertex -0.0134972147643566 17.0982666015625 0.0535469464957714
endloop
endfacet
facet normal 0.707102179527283 0.0035961801186204 -0.707102179527283
outer loop
vertex -0.0017785724485293 15.2954082489014 0.056096613407135
vertex -0.0134972147643566 17.0982666015625 0.0535469464957714
vertex 0.00712457625195384 15.2954549789429 0.0649999976158142
endloop
endfacet
facet normal 0.707102179527283 0.00359618035145104 -0.707102179527283
outer loop
vertex -0.00204445235431194 17.0983238220215 0.0649999976158142
vertex -0.0134972147643566 17.0982666015625 0.0535469464957714
vertex -0.00701656052842736 18.0759677886963 0.0649999976158142
endloop
endfacet
facet normal 0.707102239131927 0.00359618058428168 -0.707102239131927
outer loop
vertex -0.0198519043624401 18.0759048461914 0.0521643310785294
vertex -0.00701656052842736 18.0759677886963 0.0649999976158142
vertex -0.0134972147643566 17.0982666015625 0.0535469464957714
endloop
endfacet
facet normal 0.707102179527283 0.00359618035145104 -0.707102179527283
outer loop
vertex -0.00701656052842736 18.0759677886963 0.0649999976158142
vertex -0.0198519043624401 18.0759048461914 0.0521643310785294
vertex -0.00962616968899965 18.5890846252441 0.0649999976158142
endloop
endfacet
facet normal 0.707102179527283 0.00359618035145104 -0.707102179527283
outer loop
vertex -0.0231871567666531 18.589017868042 0.0514386668801308
vertex -0.00962616968899965 18.5890846252441 0.0649999976158142
vertex -0.0198519043624401 18.0759048461914 0.0521643310785294
endloop
endfacet
facet normal 0.707102239131927 0.00359618058428168 -0.707102239131927
outer loop
vertex -0.00962616968899965 18.5890846252441 0.0649999976158142
vertex -0.0231871567666531 18.589017868042 0.0514386668801308
vertex -0.0109958229586482 18.8583946228027 0.0649999976158142
endloop
endfacet
facet normal 0.707102239131927 0.00359618035145104 -0.707102239131927
outer loop
vertex -0.0249376595020294 18.8583240509033 0.0510578043758869
vertex -0.0109958229586482 18.8583946228027 0.0649999976158142
vertex -0.0231871567666531 18.589017868042 0.0514386668801308
endloop
endfacet
facet normal 0.707102239131927 0.00359618058428168 -0.707102239131927
outer loop
vertex -0.0109958229586482 18.8583946228027 0.0649999976158142
vertex -0.0249376595020294 18.8583240509033 0.0510578043758869
vertex -0.0117146847769618 18.9997406005859 0.0649999976158142
endloop
endfacet
facet normal 0.707102179527283 0.00359618035145104 -0.707102179527283
outer loop
vertex -0.0258564110845327 18.9996700286865 0.0508579090237617
vertex -0.0117146847769618 18.9997406005859 0.0649999976158142
vertex -0.0249376595020294 18.8583240509033 0.0510578043758869
endloop
endfacet
facet normal -1 0 0
outer loop
vertex -0.00914200022816658 -10.8459215164185 0.0649999976158142
vertex -0.00914200022816658 -11 0.0649999976158142
vertex -0.00914200022816658 -10.8459215164185 0.0850000008940697
endloop
endfacet
facet normal -1 0 0
outer loop
vertex -0.00914200022816658 -11 0.0850000008940697
vertex -0.00914200022816658 -10.8459215164185 0.0850000008940697
vertex -0.00914200022816658 -11 0.0649999976158142
endloop
endfacet
facet normal -1 -5.01479032181855e-18 0
outer loop
vertex -0.00914200022816658 -10.8459215164185 0.0649999976158142
vertex -0.00914200022816658 -10.8459215164185 0.0850000008940697
vertex -0.00914200022816658 -10.5 0.0649999976158142
endloop
endfacet
facet normal -1 -5.01479032181855e-18 -0
outer loop
vertex -0.00914200022816658 -10.5 0.0850000008940697
vertex -0.00914200022816658 -10.5 0.0649999976158142
vertex -0.00914200022816658 -10.8459215164185 0.0850000008940697
endloop
endfacet
facet normal -1 5.01479032181855e-18 0
outer loop
vertex -0.00914200022816658 -10.1540784835815 0.0850000008940697
vertex -0.00914200022816658 -10.1540784835815 0.0649999976158142
vertex -0.00914200022816658 -10.5 0.0850000008940697
endloop
endfacet
facet normal -1 5.01479032181855e-18 0
outer loop
vertex -0.00914200022816658 -10.5 0.0649999976158142
vertex -0.00914200022816658 -10.5 0.0850000008940697
vertex -0.00914200022816658 -10.1540784835815 0.0649999976158142
endloop
endfacet
facet normal -1 0 0
outer loop
vertex -0.00914200022816658 -10.1540784835815 0.0850000008940697
vertex -0.00914200022816658 -10 0.0850000008940697
vertex -0.00914200022816658 -10.1540784835815 0.0649999976158142
endloop
endfacet
facet normal -1 0 0
outer loop
vertex -0.00914200022816658 -10 0.0649999976158142
vertex -0.00914200022816658 -10.1540784835815 0.0649999976158142
vertex -0.00914200022816658 -10 0.0850000008940697
endloop
endfacet
facet normal -0.70710676908493 0 -0.70710676908493
outer loop
vertex -0.00914200022816658 -11 0.0649999976158142
vertex -0.00914200022816658 -10.8459215164185 0.0649999976158142
vertex 0.00499999988824129 -11 0.0508579984307289
endloop
endfacet
facet normal -0.70710676908493 -0 -0.70710676908493
outer loop
vertex 0.00499999988824129 -10.8459215164185 0.0508579984307289
vertex 0.00499999988824129 -11 0.0508579984307289
vertex -0.00914200022816658 -10.8459215164185 0.0649999976158142
endloop
endfacet
facet normal -0.70710676908493 -1.41839703659122e-17 -0.70710676908493
outer loop
vertex 0.00499999988824129 -10.8459215164185 0.0508579984307289
vertex -0.00914200022816658 -10.8459215164185 0.0649999976158142
vertex 0.00499999988824129 -10.5 0.0508579984307289
endloop
endfacet
facet normal -0.70710676908493 -3.54599259147805e-18 -0.70710676908493
outer loop
vertex -0.00914200022816658 -10.5 0.0649999976158142
vertex 0.00499999988824129 -10.5 0.0508579984307289
vertex -0.00914200022816658 -10.8459215164185 0.0649999976158142
endloop
endfacet
facet normal -0.70710676908493 4.25519110977366e-17 -0.70710676908493
outer loop
vertex 0.00499999988824129 -10.5 0.0508579984307289
vertex -0.00914200022816658 -10.5 0.0649999976158142
vertex 0.00499999988824129 -10.1540784835815 0.0508579984307289
endloop
endfacet
facet normal -0.70710676908493 3.19139316689412e-17 -0.70710676908493
outer loop
vertex -0.00914200022816658 -10.1540784835815 0.0649999976158142
vertex 0.00499999988824129 -10.1540784835815 0.0508579984307289
vertex -0.00914200022816658 -10.5 0.0649999976158142
endloop
endfacet
facet normal -0.70710676908493 -6.36887844984102e-17 -0.70710676908493
outer loop
vertex 0.00499999988824129 -10.1540784835815 0.0508579984307289
vertex -0.00914200022816658 -10.1540784835815 0.0649999976158142
vertex 0.00499999988824129 -10 0.0508579984307289
endloop
endfacet
facet normal -0.70710676908493 -6.36887844984102e-17 -0.70710676908493
outer loop
vertex -0.00914200022816658 -10 0.0649999976158142
vertex 0.00499999988824129 -10 0.0508579984307289
vertex -0.00914200022816658 -10.1540784835815 0.0649999976158142
endloop
endfacet
facet normal -0.70710676908493 -6.36887844984102e-17 0.70710676908493
outer loop
vertex 0.00499999988824129 -11 0.099142000079155
vertex 0.00499999988824129 -10.8459215164185 0.099142000079155
vertex -0.00914200022816658 -11 0.0850000008940697
endloop
endfacet
facet normal -0.70710676908493 -6.36887844984102e-17 0.70710676908493
outer loop
vertex -0.00914200022816658 -10.8459215164185 0.0850000008940697
vertex -0.00914200022816658 -11 0.0850000008940697
vertex 0.00499999988824129 -10.8459215164185 0.099142000079155
endloop
endfacet
facet normal -0.70710676908493 2.48219481403463e-17 0.70710676908493
outer loop
vertex -0.00914200022816658 -10.8459215164185 0.0850000008940697
vertex 0.00499999988824129 -10.8459215164185 0.099142000079155
vertex -0.00914200022816658 -10.5 0.0850000008940697
endloop
endfacet
facet normal -0.70710676908493 0 0.70710676908493
outer loop
vertex 0.00499999988824129 -10.5 0.099142000079155
vertex -0.00914200022816658 -10.5 0.0850000008940697
vertex 0.00499999988824129 -10.8459215164185 0.099142000079155
endloop
endfacet
facet normal -0.70710676908493 0 0.70710676908493
outer loop
vertex 0.00499999988824129 -10.1540784835815 0.099142000079155
vertex -0.00914200022816658 -10.1540784835815 0.0850000008940697
vertex 0.00499999988824129 -10.5 0.099142000079155
endloop
endfacet
facet normal -0.70710676908493 3.54599259147805e-18 0.70710676908493
outer loop
vertex -0.00914200022816658 -10.5 0.0850000008940697
vertex 0.00499999988824129 -10.5 0.099142000079155
vertex -0.00914200022816658 -10.1540784835815 0.0850000008940697
endloop
endfacet
facet normal -0.70710676908493 6.36887844984102e-17 0.70710676908493
outer loop
vertex 0.00499999988824129 -10 0.099142000079155
vertex -0.00914200022816658 -10 0.0850000008940697
vertex 0.00499999988824129 -10.1540784835815 0.099142000079155
endloop
endfacet
facet normal -0.70710676908493 0 0.70710676908493
outer loop
vertex -0.00914200022816658 -10.1540784835815 0.0850000008940697
vertex 0.00499999988824129 -10.1540784835815 0.099142000079155
vertex -0.00914200022816658 -10 0.0850000008940697
endloop
endfacet
facet normal 0 0 -1
outer loop
vertex 0.00499999988824129 -11 0.0508579984307289
vertex 0.00499999988824129 -10.8459215164185 0.0508579984307289
vertex 0.025000000372529 -11 0.0508579984307289
endloop
endfacet
facet normal 0 -0 -1
outer loop
vertex 0.025000000372529 -10.8459215164185 0.0508579984307289
vertex 0.025000000372529 -11 0.0508579984307289
vertex 0.00499999988824129 -10.8459215164185 0.0508579984307289
endloop
endfacet
facet normal -0 0 -1
outer loop
vertex 0.025000000372529 -10.8459215164185 0.0508579984307289
vertex 0.00499999988824129 -10.8459215164185 0.0508579984307289
vertex 0.025000000372529 -10.5 0.0508579984307289
endloop
endfacet
facet normal 3.46944695195361e-16 -2.00591612872742e-17 -1
outer loop
vertex 0.00499999988824129 -10.5 0.0508579984307289
vertex 0.025000000372529 -10.5 0.0508579984307289
vertex 0.00499999988824129 -10.8459215164185 0.0508579984307289
endloop
endfacet
facet normal 3.46944695195361e-16 4.01183225745484e-17 -1
outer loop
vertex 0.025000000372529 -10.5 0.0508579984307289
vertex 0.00499999988824129 -10.5 0.0508579984307289
vertex 0.025000000372529 -10.1540784835815 0.0508579984307289
endloop
endfacet
facet normal 5.34483438697419e-30 6.01774822074614e-17 -1
outer loop
vertex 0.00499999988824129 -10.1540784835815 0.0508579984307289
vertex 0.025000000372529 -10.1540784835815 0.0508579984307289
vertex 0.00499999988824129 -10.5 0.0508579984307289
endloop
endfacet
facet normal -7.99978260593349e-30 -9.00695396138616e-17 -1
outer loop
vertex 0.025000000372529 -10.1540784835815 0.0508579984307289
vertex 0.00499999988824129 -10.1540784835815 0.0508579984307289
vertex 0.025000000372529 -10 0.0508579984307289
endloop
endfacet
facet normal 0 -9.00695396138616e-17 -1
outer loop
vertex 0.00499999988824129 -10 0.0508579984307289
vertex 0.025000000372529 -10 0.0508579984307289
vertex 0.00499999988824129 -10.1540784835815 0.0508579984307289
endloop
endfacet
facet normal 6.93889390390723e-16 0 1
outer loop
vertex 0.025000000372529 -10.8459215164185 0.099142000079155
vertex 0.00499999988824129 -10.8459215164185 0.099142000079155
vertex 0.025000000372529 -11 0.099142000079155
endloop
endfacet
facet normal 0 -9.00695396138616e-17 1
outer loop
vertex 0.00499999988824129 -11 0.099142000079155
vertex 0.025000000372529 -11 0.099142000079155
vertex 0.00499999988824129 -10.8459215164185 0.099142000079155
endloop
endfacet
facet normal 6.93889390390723e-16 -0 1
outer loop
vertex 0.00499999988824129 -10.8459215164185 0.099142000079155
vertex 0.025000000372529 -10.8459215164185 0.099142000079155
vertex 0.00499999988824129 -10.5 0.099142000079155
endloop
endfacet
facet normal 6.93889390390723e-16 0 1
outer loop
vertex 0.025000000372529 -10.5 0.099142000079155
vertex 0.00499999988824129 -10.5 0.099142000079155
vertex 0.025000000372529 -10.8459215164185 0.099142000079155
endloop
endfacet
facet normal -3.56322279926339e-30 -4.01183225745484e-17 1
outer loop
vertex 0.025000000372529 -10.1540784835815 0.099142000079155
vertex 0.00499999988824129 -10.1540784835815 0.099142000079155
vertex 0.025000000372529 -10.5 0.099142000079155
endloop
endfacet
facet normal 6.93889390390723e-16 -0 1
outer loop
vertex 0.00499999988824129 -10.5 0.099142000079155
vertex 0.025000000372529 -10.5 0.099142000079155
vertex 0.00499999988824129 -10.1540784835815 0.099142000079155
endloop
endfacet
facet normal 0 9.00695396138616e-17 1
outer loop
vertex 0.025000000372529 -10 0.099142000079155
vertex 0.00499999988824129 -10 0.099142000079155
vertex 0.025000000372529 -10.1540784835815 0.099142000079155
endloop
endfacet
facet normal 7.99978260593349e-30 9.00695396138616e-17 1
outer loop
vertex 0.00499999988824129 -10.1540784835815 0.099142000079155
vertex 0.025000000372529 -10.1540784835815 0.099142000079155
vertex 0.00499999988824129 -10 0.099142000079155
endloop
endfacet
facet normal 0.70710676908493 0 -0.70710676908493
outer loop
vertex 0.025000000372529 -11 0.0508579984307289
vertex 0.025000000372529 -10.8459215164185 0.0508579984307289
vertex 0.0391420014202595 -11 0.0649999976158142
endloop
endfacet
facet normal 0.70710676908493 3.18443922492051e-17 -0.70710676908493
outer loop
vertex 0.0391420014202595 -10.8459215164185 0.0649999976158142
vertex 0.0391420014202595 -11 0.0649999976158142
vertex 0.025000000372529 -10.8459215164185 0.0508579984307289
endloop
endfacet
facet normal 0.70710676908493 -1.41839703659122e-17 -0.70710676908493
outer loop
vertex 0.0391420014202595 -10.8459215164185 0.0649999976158142
vertex 0.025000000372529 -10.8459215164185 0.0508579984307289
vertex 0.0391420014202595 -10.5 0.0649999976158142
endloop
endfacet
facet normal 0.70710676908493 0 -0.70710676908493
outer loop
vertex 0.025000000372529 -10.5 0.0508579984307289
vertex 0.0391420014202595 -10.5 0.0649999976158142
vertex 0.025000000372529 -10.8459215164185 0.0508579984307289
endloop
endfacet
facet normal 0.70710676908493 1.41839703659122e-17 -0.70710676908493
outer loop
vertex 0.0391420014202595 -10.5 0.0649999976158142
vertex 0.025000000372529 -10.5 0.0508579984307289
vertex 0.0391420014202595 -10.1540784835815 0.0649999976158142
endloop
endfacet
facet normal 0.70710676908493 2.12759555488683e-17 -0.70710676908493
outer loop
vertex 0.025000000372529 -10.1540784835815 0.0508579984307289
vertex 0.0391420014202595 -10.1540784835815 0.0649999976158142
vertex 0.025000000372529 -10.5 0.0508579984307289
endloop
endfacet
facet normal 0.70710676908493 -3.18443922492051e-17 -0.70710676908493
outer loop
vertex 0.0391420014202595 -10.1540784835815 0.0649999976158142
vertex 0.025000000372529 -10.1540784835815 0.0508579984307289
vertex 0.0391420014202595 -10 0.0649999976158142
endloop
endfacet
facet normal 0.70710676908493 -4.77665900281689e-17 -0.70710676908493
outer loop
vertex 0.025000000372529 -10 0.0508579984307289
vertex 0.0391420014202595 -10 0.0649999976158142
vertex 0.025000000372529 -10.1540784835815 0.0508579984307289
endloop
endfacet
facet normal 0.70710676908493 3.18443922492051e-17 0.70710676908493
outer loop
vertex 0.0391420014202595 -11 0.0850000008940697
vertex 0.0391420014202595 -10.8459215164185 0.0850000008940697
vertex 0.025000000372529 -11 0.099142000079155
endloop
endfacet
facet normal 0.70710676908493 0 0.70710676908493
outer loop
vertex 0.025000000372529 -10.8459215164185 0.099142000079155
vertex 0.025000000372529 -11 0.099142000079155
vertex 0.0391420014202595 -10.8459215164185 0.0850000008940697
endloop
endfacet
facet normal 0.70710676908493 -0 0.70710676908493
outer loop
vertex 0.025000000372529 -10.8459215164185 0.099142000079155
vertex 0.0391420014202595 -10.8459215164185 0.0850000008940697
vertex 0.025000000372529 -10.5 0.099142000079155
endloop
endfacet
facet normal 0.70710676908493 -4.25519110977366e-17 0.70710676908493
outer loop
vertex 0.0391420014202595 -10.5 0.0850000008940697
vertex 0.025000000372529 -10.5 0.099142000079155
vertex 0.0391420014202595 -10.8459215164185 0.0850000008940697
endloop
endfacet
facet normal 0.70710676908493 1.41839703659122e-17 0.70710676908493
outer loop
vertex 0.0391420014202595 -10.1540784835815 0.0850000008940697
vertex 0.025000000372529 -10.1540784835815 0.099142000079155
vertex 0.0391420014202595 -10.5 0.0850000008940697
endloop
endfacet
facet normal 0.70710676908493 -3.54599259147805e-17 0.70710676908493
outer loop
vertex 0.025000000372529 -10.5 0.099142000079155
vertex 0.0391420014202595 -10.5 0.0850000008940697
vertex 0.025000000372529 -10.1540784835815 0.099142000079155
endloop
endfacet
facet normal 0.70710676908493 3.18443922492051e-17 0.70710676908493
outer loop
vertex 0.0391420014202595 -10 0.0850000008940697
vertex 0.025000000372529 -10 0.099142000079155
vertex 0.0391420014202595 -10.1540784835815 0.0850000008940697
endloop
endfacet
facet normal 0.70710676908493 7.96109855860964e-17 0.70710676908493
outer loop
vertex 0.025000000372529 -10.1540784835815 0.099142000079155
vertex 0.0391420014202595 -10.1540784835815 0.0850000008940697
vertex 0.025000000372529 -10 0.099142000079155
endloop
endfacet
facet normal 1 4.50347698069308e-17 -0
outer loop
vertex 0.0391420014202595 -11 0.0649999976158142
vertex 0.0391420014202595 -10.8459215164185 0.0649999976158142
vertex 0.0391420014202595 -11 0.0850000008940697
endloop
endfacet
facet normal 1 4.50347698069308e-17 0
outer loop
vertex 0.0391420014202595 -10.8459215164185 0.0850000008940697
vertex 0.0391420014202595 -11 0.0850000008940697
vertex 0.0391420014202595 -10.8459215164185 0.0649999976158142
endloop
endfacet
facet normal 1 -2.00591612872742e-17 0
outer loop
vertex 0.0391420014202595 -10.8459215164185 0.0850000008940697
vertex 0.0391420014202595 -10.8459215164185 0.0649999976158142
vertex 0.0391420014202595 -10.5 0.0850000008940697
endloop
endfacet
facet normal 1 -2.00591612872742e-17 0
outer loop
vertex 0.0391420014202595 -10.5 0.0649999976158142
vertex 0.0391420014202595 -10.5 0.0850000008940697
vertex 0.0391420014202595 -10.8459215164185 0.0649999976158142
endloop
endfacet
facet normal 1 -2.00591612872742e-17 0
outer loop
vertex 0.0391420014202595 -10.5 0.0850000008940697
vertex 0.0391420014202595 -10.5 0.0649999976158142
vertex 0.0391420014202595 -10.1540784835815 0.0850000008940697
endloop
endfacet
facet normal 1 -2.00591612872742e-17 0
outer loop
vertex 0.0391420014202595 -10.1540784835815 0.0649999976158142
vertex 0.0391420014202595 -10.1540784835815 0.0850000008940697
vertex 0.0391420014202595 -10.5 0.0649999976158142
endloop
endfacet
facet normal 1 4.50347698069308e-17 0
outer loop
vertex 0.0391420014202595 -10.1540784835815 0.0850000008940697
vertex 0.0391420014202595 -10.1540784835815 0.0649999976158142
vertex 0.0391420014202595 -10 0.0850000008940697
endloop
endfacet
facet normal 1 4.50347698069308e-17 -0
outer loop
vertex 0.0391420014202595 -10 0.0649999976158142
vertex 0.0391420014202595 -10 0.0850000008940697
vertex 0.0391420014202595 -10.1540784835815 0.0649999976158142
endloop
endfacet
facet normal 0.999953866004944 0.000548744515981525 -0.00958769954741001
outer loop
vertex 0.000191806087968871 -0.000102863115898799 0.16999863088131
vertex 0.000259769032709301 -0.141447797417641 0.168997094035149
vertex 6.24999885179278e-10 -1.24998359751771e-06 0.149999991059303
endloop
endfacet
facet normal 0.999953866004944 0.000548744515981525 -0.00958769861608744
outer loop
vertex 7.06749633536674e-05 -0.141348093748093 0.14928112924099
vertex 6.24999885179278e-10 -1.24998359751771e-06 0.149999991059303
vertex 0.000259769032709301 -0.141447797417641 0.168997094035149
endloop
endfacet
facet normal 0.999953866004944 0.000548744574189186 -0.00958769954741001
outer loop
vertex 0.000259769032709301 -0.141447797417641 0.168997094035149
vertex 0.000389259541407228 -0.410753697156906 0.167088851332664
vertex 7.06749633536674e-05 -0.141348093748093 0.14928112924099
endloop
endfacet
facet normal 0.999953925609589 0.000548744574189186 -0.00958769954741001
outer loop
vertex 0.0002053312928183 -0.410657286643982 0.147911474108696
vertex 7.06749633536674e-05 -0.141348093748093 0.14928112924099
vertex 0.000389259541407228 -0.410753697156906 0.167088851332664
endloop
endfacet
facet normal 0.999953925609589 0.000548744515981525 -0.00958769954741001
outer loop
vertex 0.000389259541407228 -0.410753697156906 0.167088851332664
vertex 0.00063597911503166 -0.923864901065826 0.163453072309494
vertex 0.0002053312928183 -0.410657286643982 0.147911474108696
endloop
endfacet
facet normal 0.999953925609589 0.000548744515981525 -0.00958769861608744
outer loop
vertex 0.000461892981547862 -0.923774003982544 0.14530186355114
vertex 0.0002053312928183 -0.410657286643982 0.147911474108696
vertex 0.00063597911503166 -0.923864901065826 0.163453072309494
endloop
endfacet
facet normal 0.999953925609589 0.000548744574189186 -0.00958769954741001
outer loop
vertex 0.00063597911503166 -0.923864901065826 0.163453072309494
vertex 0.00110605626832694 -1.9015007019043 0.156525775790215
vertex 0.000461892981547862 -0.923774003982544 0.14530186355114
endloop
endfacet
facet normal 0.999953866004944 0.000548744515981525 -0.00958769861608744
outer loop
vertex 0.000950721849221736 -1.90141916275024 0.140329763293266
vertex 0.000461892981547862 -0.923774003982544 0.14530186355114
vertex 0.00110605626832694 -1.9015007019043 0.156525775790215
endloop
endfacet
facet normal 0.999953866004944 0.000548744515981525 -0.00958769954741001
outer loop
vertex 0.00110605626832694 -1.9015007019043 0.156525775790215
vertex 0.00197292258962989 -3.70435261726379 0.143751189112663
vertex 0.000950721849221736 -1.90141916275024 0.140329763293266
endloop
endfacet
facet normal 0.999953866004944 0.000548744515981525 -0.00958769954741001
outer loop
vertex 0.00185216765385121 -3.70428729057312 0.131160736083984
vertex 0.000950721849221736 -1.90141916275024 0.140329763293266
vertex 0.00197292258962989 -3.70435261726379 0.143751189112663
endloop
endfacet
facet normal 0.999953806400299 0.000548744515981525 -0.00958769861608744
outer loop
vertex 0.00197292258962989 -3.70435261726379 0.143751189112663
vertex 0.0029819484334439 -5.80285882949829 0.128881677985191
vertex 0.00185216765385121 -3.70428729057312 0.131160736083984
endloop
endfacet
facet normal 0.999953925609589 0.000548744515981525 -0.00958769954741001
outer loop
vertex 0.00290144514292479 -5.80281496047974 0.120488040149212
vertex 0.00185216765385121 -3.70428729057312 0.131160736083984
vertex 0.0029819484334439 -5.80285882949829 0.128881677985191
endloop
endfacet
facet normal 0.999953925609589 0.000548744515981525 -0.00958769954741001
outer loop
vertex 0.00290144514292479 -5.80281496047974 0.120488040149212
vertex 0.0029819484334439 -5.80285882949829 0.128881677985191
vertex 0.00395072251558304 -7.90134286880493 0.10981535166502
endloop
endfacet
facet normal 0.999953925609589 0.000548744515981525 -0.00958769954741001
outer loop
vertex 0.00399097427725792 -7.90136480331421 0.114012166857719
vertex 0.00395072251558304 -7.90134286880493 0.10981535166502
vertex 0.0029819484334439 -5.80285882949829 0.128881677985191
endloop
endfacet
facet normal 0.999953925609589 0.000548744515981525 -0.00958769954741001
outer loop
vertex 0.00395072251558304 -7.90134286880493 0.10981535166502
vertex 0.00399097427725792 -7.90136480331421 0.114012166857719
vertex 0.00499999988824129 -9.99987030029297 0.0991426557302475
endloop
endfacet
facet normal -6.88752294384303e-16 -0.00508573418483138 0.999987065792084
outer loop
vertex 0.0250744540244341 -9.85096454620361 0.0998999625444412
vertex 0.00492554577067494 -9.85096454620361 0.0998999625444412
vertex 0.025000000372529 -9.99987030029297 0.0991426557302475
endloop
endfacet
facet normal 0 -0.00508573418483138 0.999987006187439
outer loop
vertex 0.00499999988824129 -9.99987030029297 0.0991426557302475
vertex 0.025000000372529 -9.99987030029297 0.0991426557302475
vertex 0.00492554577067494 -9.85096454620361 0.0998999625444412
endloop
endfacet
facet normal -6.88752347323862e-16 -0.00508573418483138 0.999987006187439
outer loop
vertex 0.0250744540244341 -9.85096454620361 0.0998999625444412
vertex 0.0252293087542057 -9.54125881195068 0.101475067436695
vertex 0.00492554577067494 -9.85096454620361 0.0998999625444412
endloop
endfacet
facet normal 2.68138634431129e-15 -0.00508573418483138 0.999987065792084
outer loop
vertex 0.00477069104090333 -9.54125881195068 0.101475067436695
vertex 0.00492554577067494 -9.85096454620361 0.0998999625444412
vertex 0.0252293087542057 -9.54125881195068 0.101475067436695
endloop
endfacet
facet normal 6.57620180743123e-16 -0.00508573418483138 0.999987065792084
outer loop
vertex 0.0255513861775398 -8.89711284637451 0.104751065373421
vertex 0.0044486140832305 -8.89711284637451 0.104751065373421
vertex 0.0252293087542057 -9.54125881195068 0.101475067436695
endloop
endfacet
facet normal 2.68138613255305e-15 -0.00508573418483138 0.999987065792084
outer loop
vertex 0.00477069104090333 -9.54125881195068 0.101475067436695
vertex 0.0252293087542057 -9.54125881195068 0.101475067436695
vertex 0.0044486140832305 -8.89711284637451 0.104751065373421
endloop
endfacet
facet normal 6.57620180743123e-16 -0.00508573418483138 0.999987065792084
outer loop
vertex 0.0255513861775398 -8.89711284637451 0.104751065373421
vertex 0.0262212622910738 -7.55737638473511 0.111564695835114
vertex 0.0044486140832305 -8.89711284637451 0.104751065373421
endloop
endfacet
facet normal -2.30367100678499e-16 -0.00508573418483138 0.999987065792084
outer loop
vertex 0.00377873703837395 -7.55737638473511 0.111564695835114
vertex 0.0044486140832305 -8.89711284637451 0.104751065373421
vertex 0.0262212622910738 -7.55737638473511 0.111564695835114
endloop
endfacet
facet normal 1.57581916862961e-16 -0.00508573418483138 0.999987065792084
outer loop
vertex 0.0272604767233133 -5.47897577285767 0.122135028243065
vertex 0.00273952330462635 -5.47897577285767 0.122135028243065
vertex 0.0262212622910738 -7.55737638473511 0.111564695835114
endloop
endfacet
facet normal -2.30367100678499e-16 -0.00508573465049267 0.999987065792084
outer loop
vertex 0.00377873703837395 -7.55737638473511 0.111564695835114
vertex 0.0262212622910738 -7.55737638473511 0.111564695835114
vertex 0.00273952330462635 -5.47897577285767 0.122135028243065
endloop
endfacet
facet normal 1.57581916862961e-16 -0.00508573371917009 0.999987006187439
outer loop
vertex 0.0272604767233133 -5.47897577285767 0.122135028243065
vertex 0.0283068548887968 -3.38624596595764 0.132778227329254
vertex 0.00273952330462635 -5.47897577285767 0.122135028243065
endloop
endfacet
facet normal -8.97701081730513e-16 -0.00508573418483138 0.999987006187439
outer loop
vertex 0.00169314490631223 -3.38624596595764 0.132778227329254
vertex 0.00273952330462635 -5.47897577285767 0.122135028243065
vertex 0.0283068548887968 -3.38624596595764 0.132778227329254
endloop
endfacet
facet normal -8.97701081730513e-16 -0.00508573418483138 0.999987065792084
outer loop
vertex 0.0283068548887968 -3.38624596595764 0.132778227329254
vertex 0.0292048789560795 -1.59022331237793 0.141912445425987
vertex 0.00169314490631223 -3.38624596595764 0.132778227329254
endloop
endfacet
facet normal 7.9498032419091e-17 -0.00508573418483138 0.999987065792084
outer loop
vertex 0.000795121944975108 -1.59022331237793 0.141912445425987
vertex 0.00169314490631223 -3.38624596595764 0.132778227329254
vertex 0.0292048789560795 -1.59022331237793 0.141912445425987
endloop
endfacet
facet normal -1.15508374239632e-16 -0.00508573418483138 0.999987065792084
outer loop
vertex 0.00033535051625222 -0.670692324638367 0.146588996052742
vertex 0.000795121944975108 -1.59022331237793 0.141912445425987
vertex 0.0296646486967802 -0.670692324638367 0.146588996052742
endloop
endfacet
facet normal 7.9498032419091e-17 -0.00508573418483138 0.999987065792084
outer loop
vertex 0.0292048789560795 -1.59022331237793 0.141912445425987
vertex 0.0296646486967802 -0.670692324638367 0.146588996052742
vertex 0.000795121944975108 -1.59022331237793 0.141912445425987
endloop
endfacet
facet normal -1.15508374239632e-16 -0.00508573418483138 0.999987065792084
outer loop
vertex 0.0296646486967802 -0.670692324638367 0.146588996052742
vertex 0.0298897717148066 -0.220454156398773 0.148878812789917
vertex 0.00033535051625222 -0.670692324638367 0.146588996052742
endloop
endfacet
facet normal -9.55723262133906e-16 -0.00508573418483138 0.999987006187439
outer loop
vertex 0.000110228502308019 -0.220454156398773 0.148878812789917
vertex 0.00033535051625222 -0.670692324638367 0.146588996052742
vertex 0.0298897717148066 -0.220454156398773 0.148878812789917
endloop
endfacet
facet normal -9.55723262133906e-16 -0.00508573418483138 0.999987065792084
outer loop
vertex 0.000110228502308019 -0.220454156398773 0.148878812789917
vertex 0.0298897717148066 -0.220454156398773 0.148878812789917
vertex 0 0 0.150000005960464
endloop
endfacet
facet normal 0 -0.00508573418483138 0.999987065792084
outer loop
vertex 0.0299999993294477 0 0.150000005960464
vertex 0 0 0.150000005960464
vertex 0.0298897717148066 -0.220454156398773 0.148878812789917
endloop
endfacet
facet normal 0.999955296516418 0.000409128260798752 -0.00944335851818323
outer loop
vertex 0.067713662981987 -2.81183576583862 7.05129671096802
vertex 0.0667584612965584 -2.92131757736206 6.94540739059448
vertex 0.0675730332732201 -2.79783797264099 7.03701210021973
endloop
endfacet
facet normal 0.999955356121063 0.000409128260798752 -0.00944335851818323
outer loop
vertex 0.0666039139032364 -2.90593409538269 6.92970895767212
vertex 0.0675730332732201 -2.79783797264099 7.03701210021973
vertex 0.0667584612965584 -2.92131757736206 6.94540739059448
endloop
endfacet
facet normal 0.999955296516418 0.000409128260798752 -0.00944335851818323
outer loop
vertex 0.0667584612965584 -2.92131757736206 6.94540739059448
vertex 0.0649511218070984 -3.12846875190735 6.74505424499512
vertex 0.0666039139032364 -2.90593409538269 6.92970895767212
endloop
endfacet
facet normal 0.999955356121063 0.000409128289902583 -0.00944335944950581
outer loop
vertex 0.0647702291607857 -3.11046314239502 6.72667980194092
vertex 0.0666039139032364 -2.90593409538269 6.92970895767212
vertex 0.0649511218070984 -3.12846875190735 6.74505424499512
endloop
endfacet
facet normal 0.999955296516418 0.000409128260798752 -0.00944335851818323
outer loop
vertex 0.0649511218070984 -3.12846875190735 6.74505424499512
vertex 0.061531450599432 -3.52042031288147 6.36596488952637
vertex 0.0647702291607857 -3.11046314239502 6.72667980194092
endloop
endfacet
facet normal 0.999955356121063 0.000409128260798752 -0.00944335944950581
outer loop
vertex 0.0613007172942162 -3.49745345115662 6.34252738952637
vertex 0.0647702291607857 -3.11046314239502 6.72667980194092
vertex 0.061531450599432 -3.52042031288147 6.36596488952637
endloop
endfacet
facet normal 0.999955296516418 0.000409128260798752 -0.00944335944950581
outer loop
vertex 0.0550610758364201 -4.26203393936157 5.64868783950806
vertex 0.0547360330820084 -4.22967958450317 5.61567115783691
vertex 0.061531450599432 -3.52042031288147 6.36596488952637
endloop
endfacet
facet normal 0.999955356121063 0.000409128260798752 -0.00944335851818323
outer loop
vertex 0.0613007172942162 -3.49745345115662 6.34252738952637
vertex 0.061531450599432 -3.52042031288147 6.36596488952637
vertex 0.0547360330820084 -4.22967958450317 5.61567115783691
endloop
endfacet
facet normal 0.999955356121063 0.000409128289902583 -0.00944335944950581
outer loop
vertex 0.0550610758364201 -4.26203393936157 5.64868783950806
vertex 0.0437474846839905 -5.55876016616821 4.39451456069946
vertex 0.0547360330820084 -4.22967958450317 5.61567115783691
endloop
endfacet
facet normal 0.999955296516418 0.000409128231694922 -0.00944335758686066
outer loop
vertex 0.0432575456798077 -5.5099925994873 4.34474802017212
vertex 0.0547360330820084 -4.22967958450317 5.61567115783691
vertex 0.0437474846839905 -5.55876016616821 4.39451456069946
endloop
endfacet
facet normal 0.999955296516418 0.000409128231694922 -0.00944335851818323
outer loop
vertex 0.0315003395080566 -6.96248817443848 3.03685116767883
vertex 0.0308318957686424 -6.89595222473145 2.96895241737366
vertex 0.0437474846839905 -5.55876016616821 4.39451456069946
endloop
endfacet
facet normal 0.999955296516418 0.000409128260798752 -0.00944335851818323
outer loop
vertex 0.0432575456798077 -5.5099925994873 4.34474802017212
vertex 0.0437474846839905 -5.55876016616821 4.39451456069946
vertex 0.0308318957686424 -6.89595222473145 2.96895241737366
endloop
endfacet
facet normal 0.999955356121063 0.000409128260798752 -0.00944335944950581
outer loop
vertex 0.0315003395080566 -6.96248817443848 3.03685116767883
vertex 0.0194569006562233 -8.34286785125732 1.7017697095871
vertex 0.0308318957686424 -6.89595222473145 2.96895241737366
endloop
endfacet
facet normal 0.999955356121063 0.000409128260798752 -0.00944335944950581
outer loop
vertex 0.0186129212379456 -8.2588586807251 1.61604034900665
vertex 0.0308318957686424 -6.89595222473145 2.96895241737366
vertex 0.0194569006562233 -8.34286785125732 1.7017697095871
endloop
endfacet
facet normal 0.999955356121063 0.000409128260798752 -0.00944335944950581
outer loop
vertex 0.00972104538232088 -9.25066089630127 0.631512343883514
vertex 0.0186129212379456 -8.2588586807251 1.61604034900665
vertex 0.0106927659362555 -9.34738445281982 0.730217039585114
endloop
endfacet
facet normal 0.999955296516418 0.000409128260798752 -0.00944335944950581
outer loop
vertex 0.0194569006562233 -8.34286785125732 1.7017697095871
vertex 0.0106927659362555 -9.34738445281982 0.730217039585114
vertex 0.0186129212379456 -8.2588586807251 1.61604034900665
endloop
endfacet
facet normal 0.999955356121063 0.000409128289902583 -0.00944335944950581
outer loop
vertex 0.00972104538232088 -9.25066089630127 0.631512343883514
vertex 0.0106927659362555 -9.34738445281982 0.730217039585114
vertex 0.00394530640915036 -9.89488792419434 -0.00799030251801014
endloop
endfacet
facet normal 0.999955236911774 0.000409128260798752 -0.00944335851818323
outer loop
vertex 0.00499999988824129 -9.99987030029297 0.0991426557302475
vertex 0.00394530640915036 -9.89488792419434 -0.00799030251801014
vertex 0.0106927659362555 -9.34738445281982 0.730217039585114
endloop
endfacet
facet normal 0.707102179527283 -0.00359618058428168 0.707102179527283
outer loop
vertex 0.025000000372529 -12.0983991622925 0.0884699672460556
vertex 0.0279677957296371 -12.0983829498291 0.0855022445321083
vertex 0.025000000372529 -9.99987030029297 0.0991426557302475
endloop
endfacet
facet normal 0.707102179527283 -0.00359618058428168 0.707102179527283
outer loop
vertex 0.025000000372529 -14.1969270706177 0.0777972713112831
vertex 0.0309355910867453 -14.1968955993652 0.0718618407845497
vertex 0.025000000372529 -12.0983991622925 0.0884699672460556
endloop
endfacet
facet normal 0.707102179527283 -0.00359618058428168 0.707102179527283
outer loop
vertex 0.0279677957296371 -12.0983829498291 0.0855022445321083
vertex 0.025000000372529 -12.0983991622925 0.0884699672460556
vertex 0.0309355910867453 -14.1968955993652 0.0718618407845497
endloop
endfacet
facet normal 0.707102179527283 -0.00359618058428168 0.707102179527283
outer loop
vertex 0.025000000372529 -14.1969270706177 0.0777972713112831
vertex 0.025000000372529 -16.2954540252686 0.0671245753765106
vertex 0.0309355910867453 -14.1968955993652 0.0718618407845497
endloop
endfacet
facet normal 0.707102239131927 -0.00359618035145104 0.707102239131927
outer loop
vertex 0.0339033864438534 -16.2954082489014 0.0582214258611202
vertex 0.0309355910867453 -14.1968955993652 0.0718618407845497
vertex 0.025000000372529 -16.2954540252686 0.0671245753765106
endloop
endfacet
facet normal 0.707102179527283 -0.00359618035145104 0.707102179527283
outer loop
vertex 0.025000000372529 -18.0983238220215 0.0579555481672287
vertex 0.036453053355217 -18.0982666015625 0.0465027838945389
vertex 0.025000000372529 -16.2954540252686 0.0671245753765106
endloop
endfacet
facet normal 0.707102179527283 -0.0035961801186204 0.707102179527283
outer loop
vertex 0.0339033864438534 -16.2954082489014 0.0582214258611202
vertex 0.025000000372529 -16.2954540252686 0.0671245753765106
vertex 0.036453053355217 -18.0982666015625 0.0465027838945389
endloop
endfacet
facet normal 0.707102179527283 -0.00359618035145104 0.707102179527283
outer loop
vertex 0.025000000372529 -18.0983238220215 0.0579555481672287
vertex 0.025000000372529 -19.0759677886963 0.0529834404587746
vertex 0.036453053355217 -18.0982666015625 0.0465027838945389
endloop
endfacet
facet normal 0.707102239131927 -0.00359618058428168 0.707102239131927
outer loop
vertex 0.037835668772459 -19.0759048461914 0.0401480980217457
vertex 0.036453053355217 -18.0982666015625 0.0465027838945389
vertex 0.025000000372529 -19.0759677886963 0.0529834404587746
endloop
endfacet
facet normal 0.707102179527283 -0.00359618035145104 0.707102179527283
outer loop
vertex 0.025000000372529 -19.0759677886963 0.0529834404587746
vertex 0.025000000372529 -19.5890846252441 0.0503738299012184
vertex 0.037835668772459 -19.0759048461914 0.0401480980217457
endloop
endfacet
facet normal 0.707102179527283 -0.00359618035145104 0.707102179527283
outer loop
vertex 0.0385613329708576 -19.589017868042 0.0368128456175327
vertex 0.037835668772459 -19.0759048461914 0.0401480980217457
vertex 0.025000000372529 -19.5890846252441 0.0503738299012184
endloop
endfacet
facet normal 0.707102239131927 -0.00359618058428168 0.707102239131927
outer loop
vertex 0.025000000372529 -19.5890846252441 0.0503738299012184
vertex 0.025000000372529 -19.8583946228027 0.049004178494215
vertex 0.0385613329708576 -19.589017868042 0.0368128456175327
endloop
endfacet
facet normal 0.707102239131927 -0.00359618035145104 0.707102239131927
outer loop
vertex 0.0389421954751015 -19.8583240509033 0.0350623391568661
vertex 0.0385613329708576 -19.589017868042 0.0368128456175327
vertex 0.025000000372529 -19.8583946228027 0.049004178494215
endloop
endfacet
facet normal 0.707102239131927 -0.00359618058428168 0.707102239131927
outer loop
vertex 0.025000000372529 -19.8583946228027 0.049004178494215
vertex 0.025000000372529 -19.9997406005859 0.0482853166759014
vertex 0.0389421954751015 -19.8583240509033 0.0350623391568661
endloop
endfacet
facet normal 0.707102179527283 -0.00359618035145104 0.707102179527283
outer loop
vertex 0.0391420908272266 -19.9996700286865 0.0341435894370079
vertex 0.0389421954751015 -19.8583240509033 0.0350623391568661
vertex 0.025000000372529 -19.9997406005859 0.0482853166759014
endloop
endfacet
facet normal -0.923882246017456 -0.00333191873505712 -0.382662385702133
outer loop
vertex 3.85179829597473 -10.0283803939819 -9.13985252380371
vertex 3.79351186752319 -10.0279455184937 -8.99913215637207
vertex 3.85180830955505 -10.0083808898926 -9.14005088806152
endloop
endfacet
facet normal -0.923882186412811 -0.00333191873505712 -0.382662385702133
outer loop
vertex 3.79352283477783 -10.0059671401978 -8.99934959411621
vertex 3.85180830955505 -10.0083808898926 -9.14005088806152
vertex 3.79351186752319 -10.0279455184937 -8.99913215637207
endloop
endfacet
facet normal -0.923882246017456 -0.00333191873505712 -0.382662415504456
outer loop
vertex 3.79351186752319 -10.0279455184937 -8.99913215637207
vertex 3.68322777748108 -10.0271244049072 -8.73287487030029
vertex 3.79352283477783 -10.0059671401978 -8.99934959411621
endloop
endfacet
facet normal -0.923882186412811 -0.00333191873505712 -0.382662415504456
outer loop
vertex 3.68324065208435 -10.0013990402222 -8.73312950134277
vertex 3.79352283477783 -10.0059671401978 -8.99934959411621
vertex 3.68322777748108 -10.0271244049072 -8.73287487030029
endloop
endfacet
facet normal -0.923882246017456 -0.00333191896788776 -0.382662445306778
outer loop
vertex 3.47457528114319 -9.99275588989258 -8.22941303253174
vertex 3.68324065208435 -10.0013990402222 -8.73312950134277
vertex 3.47455883026123 -10.0255699157715 -8.22908782958984
endloop
endfacet
facet normal -0.923882246017456 -0.00333191896788776 -0.382662415504456
outer loop
vertex 3.68322777748108 -10.0271244049072 -8.73287487030029
vertex 3.47455883026123 -10.0255699157715 -8.22908782958984
vertex 3.68324065208435 -10.0013990402222 -8.73312950134277
endloop
endfacet
facet normal -0.923882246017456 -0.00333191896788776 -0.382662415504456
outer loop
vertex 3.47457528114319 -9.99275588989258 -8.22941303253174
vertex 3.47455883026123 -10.0255699157715 -8.22908782958984
vertex 3.07975840568542 -9.97640228271484 -7.27632761001587
endloop
endfacet
facet normal -0.923882246017456 -0.00333191873505712 -0.382662385702133
outer loop
vertex 3.07973527908325 -10.0226278305054 -7.27586936950684
vertex 3.07975840568542 -9.97640228271484 -7.27632761001587
vertex 3.47455883026123 -10.0255699157715 -8.22908782958984
endloop
endfacet
facet normal -0.923882305622101 -0.00333191896788776 -0.382662415504456
outer loop
vertex 2.38937830924988 -10.017484664917 -5.60914850234985
vertex 2.38941311836243 -9.94780826568604 -5.60983896255493
vertex 3.07973527908325 -10.0226278305054 -7.27586936950684
endloop
endfacet
facet normal -0.923882246017456 -0.00333191896788776 -0.382662445306778
outer loop
vertex 3.07975840568542 -9.97640228271484 -7.27632761001587
vertex 3.07973527908325 -10.0226278305054 -7.27586936950684
vertex 2.38941311836243 -9.94780826568604 -5.60983896255493
endloop
endfacet
facet normal -0.923882246017456 -0.00333191896788776 -0.382662415504456
outer loop
vertex 2.38937830924988 -10.017484664917 -5.60914850234985
vertex 1.64205539226532 -10.0119171142578 -3.80489540100098
vertex 2.38941311836243 -9.94780826568604 -5.60983896255493
endloop
endfacet
facet normal -0.923882246017456 -0.00333191873505712 -0.382662415504456
outer loop
vertex 1.64210295677185 -9.91685485839844 -3.80583786964417
vertex 2.38941311836243 -9.94780826568604 -5.60983896255493
vertex 1.64205539226532 -10.0119171142578 -3.80489540100098
endloop
endfacet
facet normal -0.923882246017456 -0.00333191873505712 -0.382662445306778
outer loop
vertex 1.64205539226532 -10.0119171142578 -3.80489540100098
vertex 0.907162606716156 -10.0064430236816 -2.03065228462219
vertex 1.64210295677185 -9.91685485839844 -3.80583786964417
endloop
endfacet
facet normal -0.923882246017456 -0.00333191873505712 -0.382662415504456
outer loop
vertex 0.907222628593445 -9.8864164352417 -2.03184223175049
vertex 1.64210295677185 -9.91685485839844 -3.80583786964417
vertex 0.907162606716156 -10.0064430236816 -2.03065228462219
endloop
endfacet
facet normal -0.923882246017456 -0.00333191873505712 -0.382662385702133
outer loop
vertex 0.372373551130295 -10.0024585723877 -0.739517271518707
vertex 0.372442662715912 -9.86426639556885 -0.740887343883514
vertex 0.907162606716156 -10.0064430236816 -2.03065228462219
endloop
endfacet
facet normal -0.923882186412811 -0.00333191873505712 -0.382662415504456
outer loop
vertex 0.907222628593445 -9.8864164352417 -2.03184223175049
vertex 0.907162606716156 -10.0064430236816 -2.03065228462219
vertex 0.372442662715912 -9.86426639556885 -0.740887343883514
endloop
endfacet
facet normal -0.923882246017456 -0.00333191896788776 -0.382662445306778
outer loop
vertex 0.372373551130295 -10.0024585723877 -0.739517271518707
vertex 0.025000000372529 -9.99987030029297 0.0991426557302475
vertex 0.372442662715912 -9.86426639556885 -0.740887343883514
endloop
endfacet
facet normal -0.923882126808167 -0.00333191826939583 -0.382662355899811
outer loop
vertex 0.0250749979168177 -9.84987831115723 0.0976555719971657
vertex 0.372442662715912 -9.86426639556885 -0.740887343883514
vertex 0.025000000372529 -9.99987030029297 0.0991426557302475
endloop
endfacet
facet normal 0.690581262111664 0.214930191636086 -0.690581262111664
outer loop
vertex 0.922537267208099 -19.5789966583252 -2.03288412094116
vertex 0.909851849079132 -19.441478729248 -2.00276923179626
vertex 0.936886847019196 -19.5806617736816 -2.01905250549316
endloop
endfacet
facet normal 0.690581262111664 0.214930191636086 -0.690581262111664
outer loop
vertex 0.923998475074768 -19.4431190490723 -1.98913300037384
vertex 0.936886847019196 -19.5806617736816 -2.01905250549316
vertex 0.909851849079132 -19.441478729248 -2.00276923179626
endloop
endfacet
facet normal 0.690581262111664 0.214930191636086 -0.690581262111664
outer loop
vertex 0.909851849079132 -19.441478729248 -2.00276923179626
vertex 0.885682046413422 -19.1794605255127 -1.9453911781311
vertex 0.923998475074768 -19.4431190490723 -1.98913300037384
endloop
endfacet
facet normal 0.690581262111664 0.214930191636086 -0.690581262111664
outer loop
vertex 0.899442255496979 -19.1810550689697 -1.93212735652924
vertex 0.923998475074768 -19.4431190490723 -1.98913300037384
vertex 0.885682046413422 -19.1794605255127 -1.9453911781311
endloop
endfacet
facet normal 0.690581262111664 0.214930161833763 -0.690581262111664
outer loop
vertex 0.885682046413422 -19.1794605255127 -1.9453911781311
vertex 0.839631199836731 -18.6802368164063 -1.83606827259064
vertex 0.899442255496979 -19.1810550689697 -1.93212735652924
endloop
endfacet
facet normal 0.690581321716309 0.214930176734924 -0.690581321716309
outer loop
vertex 0.852655053138733 -18.6817474365234 -1.82351410388947
vertex 0.899442255496979 -19.1810550689697 -1.93212735652924
vertex 0.839631199836731 -18.6802368164063 -1.83606827259064
endloop
endfacet
facet normal 0.690581321716309 0.214930191636086 -0.690581321716309
outer loop
vertex 0.839631199836731 -18.6802368164063 -1.83606827259064
vertex 0.751890063285828 -17.729061126709 -1.62777423858643
vertex 0.852655053138733 -18.6817474365234 -1.82351410388947
endloop
endfacet
facet normal 0.690581262111664 0.214930191636086 -0.690581262111664
outer loop
vertex 0.763511061668396 -17.7304096221924 -1.61657249927521
vertex 0.852655053138733 -18.6817474365234 -1.82351410388947
vertex 0.751890063285828 -17.729061126709 -1.62777423858643
endloop
endfacet
facet normal 0.690581262111664 0.214930191636086 -0.690581262111664
outer loop
vertex 0.751890063285828 -17.729061126709 -1.62777423858643
vertex 0.590087115764618 -15.9750051498413 -1.24366056919098
vertex 0.763511061668396 -17.7304096221924 -1.61657249927521
endloop
endfacet
facet normal 0.690581321716309 0.214930206537247 -0.690581321716309
outer loop
vertex 0.59912121295929 -15.9760541915894 -1.23495292663574
vertex 0.763511061668396 -17.7304096221924 -1.61657249927521
vertex 0.590087115764618 -15.9750051498413 -1.24366056919098
endloop
endfacet
facet normal 0.690581262111664 0.214930191636086 -0.690581262111664
outer loop
vertex 0.590087115764618 -15.9750051498413 -1.24366056919098
vertex 0.401749730110168 -13.9332962036133 -0.79655522108078
vertex 0.59912121295929 -15.9760541915894 -1.23495292663574
endloop
endfacet
facet normal 0.690581262111664 0.214930191636086 -0.690581262111664
outer loop
vertex 0.407772481441498 -13.9339952468872 -0.79075014591217
vertex 0.59912121295929 -15.9760541915894 -1.23495292663574
vertex 0.401749730110168 -13.9332962036133 -0.79655522108078
endloop
endfacet
facet normal 0.690581262111664 0.214930191636086 -0.690581262111664
outer loop
vertex 0.407772481441498 -13.9339952468872 -0.79075014591217
vertex 0.401749730110168 -13.9332962036133 -0.79655522108078
vertex 0.216423735022545 -11.8919363021851 -0.346547275781631
endloop
endfacet
facet normal 0.690581262111664 0.214930191636086 -0.690581262111664
outer loop
vertex 0.213412374258041 -11.8915872573853 -0.349449813365936
vertex 0.216423735022545 -11.8919363021851 -0.346547275781631
vertex 0.401749730110168 -13.9332962036133 -0.79655522108078
endloop
endfacet
facet normal 0.690581262111664 0.214930191636086 -0.690581262111664
outer loop
vertex 0.216423735022545 -11.8919363021851 -0.346547275781631
vertex 0.213412374258041 -11.8915872573853 -0.349449813365936
vertex 0.0250749979168177 -9.84987831115723 0.0976555719971657
endloop
endfacet
facet normal 0.999987065792084 0.00508573418483138 -0
outer loop
vertex 0.039899967610836 8.85096454620361 0.0649255439639091
vertex 0.039142657071352 8.99987030029297 0.0649999976158142
vertex 0.039899967610836 8.85096454620361 0.0850744545459747
endloop
endfacet
facet normal 0.999987006187439 0.00508573418483138 0
outer loop
vertex 0.039142657071352 8.99987030029297 0.0850000008940697
vertex 0.039899967610836 8.85096454620361 0.0850744545459747
vertex 0.039142657071352 8.99987030029297 0.0649999976158142
endloop
endfacet
facet normal 0.999987006187439 0.00508573418483138 -0
outer loop
vertex 0.039899967610836 8.85096454620361 0.0649255439639091
vertex 0.039899967610836 8.85096454620361 0.0850744545459747
vertex 0.0414750650525093 8.54125881195068 0.0647706910967827
endloop
endfacet
facet normal 0.999987065792084 0.00508573418483138 7.80741078307745e-16
outer loop
vertex 0.0414750650525093 8.54125881195068 0.0852293074131012
vertex 0.0414750650525093 8.54125881195068 0.0647706910967827
vertex 0.039899967610836 8.85096454620361 0.0850744545459747
endloop
endfacet
facet normal 0.999987065792084 0.00508573418483138 7.80741078307745e-16
outer loop
vertex 0.0414750650525093 8.54125881195068 0.0647706910967827
vertex 0.0414750650525093 8.54125881195068 0.0852293074131012
vertex 0.0447510629892349 7.89711332321167 0.0644486173987389
endloop
endfacet
facet normal 0.999987065792084 0.00508573418483138 1.14760510321655e-16
outer loop
vertex 0.0447510629892349 7.89711332321167 0.0855513885617256
vertex 0.0447510629892349 7.89711332321167 0.0644486173987389
vertex 0.0414750650525093 8.54125881195068 0.0852293074131012
endloop
endfacet
facet normal 0.999987065792084 0.00508573418483138 1.14760510321655e-16
outer loop
vertex 0.0447510629892349 7.89711332321167 0.0644486173987389
vertex 0.0447510629892349 7.89711332321167 0.0855513885617256
vertex 0.051564697176218 6.55737638473511 0.0637787356972694
endloop
endfacet
facet normal 0.999987065792084 0.00508573418483138 5.10452547201543e-16
outer loop
vertex 0.051564697176218 6.55737638473511 0.0862212628126144
vertex 0.051564697176218 6.55737638473511 0.0637787356972694
vertex 0.0447510629892349 7.89711332321167 0.0855513885617256
endloop
endfacet
facet normal 0.999987065792084 0.00508573418483138 6.38082518781755e-16
outer loop
vertex 0.0621350258588791 4.47897577285767 0.0627395212650299
vertex 0.051564697176218 6.55737638473511 0.0637787356972694
vertex 0.0621350258588791 4.47897577285767 0.087260477244854
endloop
endfacet
facet normal 0.999987065792084 0.00508573465049267 5.10452494261983e-16
outer loop
vertex 0.051564697176218 6.55737638473511 0.0862212628126144
vertex 0.0621350258588791 4.47897577285767 0.087260477244854
vertex 0.051564697176218 6.55737638473511 0.0637787356972694
endloop
endfacet
facet normal 0.999987006187439 0.00508573371917009 6.38082465842196e-16
outer loop
vertex 0.0621350258588791 4.47897577285767 0.0627395212650299
vertex 0.0621350258588791 4.47897577285767 0.087260477244854
vertex 0.072778232395649 2.38624596595764 0.0616931430995464
endloop
endfacet
facet normal 0.999987006187439 0.00508573418483138 -5.45981291234565e-16
outer loop
vertex 0.072778232395649 2.38624596595764 0.0883068516850471
vertex 0.072778232395649 2.38624596595764 0.0616931430995464
vertex 0.0621350258588791 4.47897577285767 0.087260477244854
endloop
endfacet
facet normal 0.999987065792084 0.00508573418483138 -5.45981291234565e-16
outer loop
vertex 0.072778232395649 2.38624596595764 0.0616931430995464
vertex 0.072778232395649 2.38624596595764 0.0883068516850471
vertex 0.0819124430418015 0.590223371982574 0.0607951208949089
endloop
endfacet
facet normal 0.999987065792084 0.00508573418483138 1.10459025552592e-15
outer loop
vertex 0.0819124430418015 0.590223371982574 0.089204877614975
vertex 0.0819124430418015 0.590223371982574 0.0607951208949089
vertex 0.072778232395649 2.38624596595764 0.0883068516850471
endloop
endfacet
facet normal 0.999987065792084 0.00508573418483138 1.1045901496468e-15
outer loop
vertex 0.0819124430418015 0.590223371982574 0.0607951208949089
vertex 0.0819124430418015 0.590223371982574 0.089204877614975
vertex 0.0865889936685562 -0.329307645559311 0.060335349291563
endloop
endfacet
facet normal 0.999987065792084 0.00508573418483138 1.92513946036978e-17
outer loop
vertex 0.0865889936685562 -0.329307645559311 0.0896646529436111
vertex 0.0865889936685562 -0.329307645559311 0.060335349291563
vertex 0.0819124430418015 0.590223371982574 0.089204877614975
endloop
endfacet
facet normal 0.999987006187439 0.00508573418483138 1.43685864907222e-16
outer loop
vertex 0.0888788178563118 -0.779545843601227 0.0898897722363472
vertex 0.0888788178563118 -0.779545843601227 0.060110229998827
vertex 0.0865889936685562 -0.329307645559311 0.0896646529436111
endloop
endfacet
facet normal 0.999987065792084 0.00508573418483138 1.9251396258059e-17
outer loop
vertex 0.0865889936685562 -0.329307645559311 0.060335349291563
vertex 0.0865889936685562 -0.329307645559311 0.0896646529436111
vertex 0.0888788178563118 -0.779545843601227 0.060110229998827
endloop
endfacet
facet normal 0.999987065792084 0.00508573418483138 1.43685864907222e-16
outer loop
vertex 0.0888788178563118 -0.779545843601227 0.0898897722363472
vertex 0.0900000035762787 -1 0.0900000035762787
vertex 0.0888788178563118 -0.779545843601227 0.060110229998827
endloop
endfacet
facet normal 0.999987065792084 0.00508573418483138 -0
outer loop
vertex 0.0900000035762787 -1 0.0599999986588955
vertex 0.0888788178563118 -0.779545843601227 0.060110229998827
vertex 0.0900000035762787 -1 0.0900000035762787
endloop
endfacet
facet normal -0.00958769954741001 -0.000548744515981525 -0.999953925609589
outer loop
vertex 0.0498153492808342 6.90134286880493 0.0860492810606956
vertex 0.039142657071352 8.99987030029297 0.0850000008940697
vertex 0.0540121681988239 6.90136480331421 0.0860090255737305
endloop
endfacet
facet normal -0.00958769954741001 -0.000548744515981525 -0.999953925609589
outer loop
vertex 0.0604880414903164 4.80281496047974 0.087098553776741
vertex 0.0498153492808342 6.90134286880493 0.0860492810606956
vertex 0.0688816830515862 4.80285882949829 0.0870180502533913
endloop
endfacet
facet normal -0.00958769954741001 -0.000548744515981525 -0.999953925609589
outer loop
vertex 0.0540121681988239 6.90136480331421 0.0860090255737305
vertex 0.0688816830515862 4.80285882949829 0.0870180502533913
vertex 0.0498153492808342 6.90134286880493 0.0860492810606956
endloop
endfacet
facet normal -0.00958769954741001 -0.000548744515981525 -0.999953925609589
outer loop
vertex 0.0604880414903164 4.80281496047974 0.087098553776741
vertex 0.0688816830515862 4.80285882949829 0.0870180502533913
vertex 0.0711607336997986 2.70428729057312 0.088147833943367
endloop
endfacet
facet normal -0.00958769954741001 -0.000548744574189186 -0.999953925609589
outer loop
vertex 0.0837511941790581 2.70435261726379 0.0880270749330521
vertex 0.0711607336997986 2.70428729057312 0.088147833943367
vertex 0.0688816830515862 4.80285882949829 0.0870180502533913
endloop
endfacet
facet normal -0.00958769954741001 -0.000548744515981525 -0.999953866004944
outer loop
vertex 0.0803297609090805 0.901419103145599 0.0890492796897888
vertex 0.0711607336997986 2.70428729057312 0.088147833943367
vertex 0.0965257734060287 0.901500701904297 0.0888939425349236
endloop
endfacet
facet normal -0.00958769954741001 -0.000548744515981525 -0.999953866004944
outer loop
vertex 0.0837511941790581 2.70435261726379 0.0880270749330521
vertex 0.0965257734060287 0.901500701904297 0.0888939425349236
vertex 0.0711607336997986 2.70428729057312 0.088147833943367
endloop
endfacet
facet normal -0.00958769861608744 -0.000548744515981525 -0.999953866004944
outer loop
vertex 0.0803297609090805 0.901419103145599 0.0890492796897888
vertex 0.0965257734060287 0.901500701904297 0.0888939425349236
vertex 0.0853018686175346 -0.0762259811162949 0.0895381048321724
endloop
endfacet
facet normal -0.00958769954741001 -0.000548744574189186 -0.999953925609589
outer loop
vertex 0.103453069925308 -0.0761351138353348 0.0893640220165253
vertex 0.0853018686175346 -0.0762259811162949 0.0895381048321724
vertex 0.0965257734060287 0.901500701904297 0.0888939425349236
endloop
endfacet
facet normal -0.00958769861608744 -0.000548744515981525 -0.999953925609589
outer loop
vertex 0.0853018686175346 -0.0762259811162949 0.0895381048321724
vertex 0.103453069925308 -0.0761351138353348 0.0893640220165253
vertex 0.0879114791750908 -0.589342713356018 0.0897946655750275
endloop
endfacet
facet normal -0.00958769954741001 -0.000548744515981525 -0.999953925609589
outer loop
vertex 0.107088848948479 -0.589246332645416 0.0896107405424118
vertex 0.0879114791750908 -0.589342713356018 0.0897946655750275
vertex 0.103453069925308 -0.0761351138353348 0.0893640220165253
endloop
endfacet
facet normal -0.00958769954741001 -0.000548744574189186 -0.999953866004944
outer loop
vertex 0.108997084200382 -0.858552217483521 0.0897402316331863
vertex 0.0892811343073845 -0.858651876449585 0.0899293273687363
vertex 0.107088848948479 -0.589246332645416 0.0896107405424118
endloop
endfacet
facet normal -0.00958769861608744 -0.000548744515981525 -0.999953866004944
outer loop
vertex 0.0879114791750908 -0.589342713356018 0.0897946655750275
vertex 0.107088848948479 -0.589246332645416 0.0896107405424118
vertex 0.0892811343073845 -0.858651876449585 0.0899293273687363
endloop
endfacet
facet normal -0.00958769861608744 -0.000548744515981525 -0.999953866004944
outer loop
vertex 0.108997084200382 -0.858552217483521 0.0897402316331863
vertex 0.109998621046543 -0.999897122383118 0.0898081958293915
vertex 0.0892811343073845 -0.858651876449585 0.0899293273687363
endloop
endfacet
facet normal -0.00958769954741001 -0.000548744515981525 -0.999953866004944
outer loop
vertex 0.0899999961256981 -0.99999874830246 0.0899999961256981
vertex 0.0892811343073845 -0.858651876449585 0.0899293273687363
vertex 0.109998621046543 -0.999897122383118 0.0898081958293915
endloop
endfacet
endsolid COMSOL mesh mesh1
