solid COMSOL mesh mesh1
facet normal -0.0379552394151688 0.99927943944931 0
outer loop
vertex 0 0 0.150000005960464
vertex 0 0 0
vertex -0.843252003192902 -0.0320289097726345 0.151687726378441
endloop
endfacet
facet normal -0.0379552356898785 0.999279379844666 -5.32030923291083e-17
outer loop
vertex -0.843252003192902 -0.0320289097726345 -0.00168772006873041
vertex -0.843252003192902 -0.0320289097726345 0.151687726378441
vertex 0 0 0
endloop
endfacet
facet normal -0.0379552394151688 0.999279499053955 -1.06801530668903e-16
outer loop
vertex -1.95381104946136 -0.0742108300328255 -0.00391043955460191
vertex -1.95381104946136 -0.0742108300328255 0.15391044318676
vertex -0.843252003192902 -0.0320289097726345 -0.00168772006873041
endloop
endfacet
facet normal -0.0379552356898785 0.999279379844666 -5.32030956378307e-17
outer loop
vertex -0.843252003192902 -0.0320289097726345 0.151687726378441
vertex -0.843252003192902 -0.0320289097726345 -0.00168772006873041
vertex -1.95381104946136 -0.0742108300328255 0.15391044318676
endloop
endfacet
facet normal -0.0379552356898785 0.999279379844666 -1.06801530668903e-16
outer loop
vertex -1.95381104946136 -0.0742108300328255 -0.00391043955460191
vertex -3.36213111877441 -0.127702504396439 -0.00672911060974002
vertex -1.95381104946136 -0.0742108300328255 0.15391044318676
endloop
endfacet
facet normal -0.0379552356898785 0.99927943944931 3.00053282107608e-17
outer loop
vertex -3.36213111877441 -0.127702504396439 0.156729117035866
vertex -1.95381104946136 -0.0742108300328255 0.15391044318676
vertex -3.36213111877441 -0.127702504396439 -0.00672911060974002
endloop
endfacet
facet normal -0.0379552356898785 0.99927943944931 1.28546593578039e-16
outer loop
vertex -4.81606340408325 -0.182926639914513 -0.00963907223194838
vertex -4.81606340408325 -0.182926639914513 0.159639075398445
vertex -3.36213111877441 -0.127702504396439 -0.00672911060974002
endloop
endfacet
facet normal -0.0379552356898785 0.999279379844666 3.00053282107608e-17
outer loop
vertex -3.36213111877441 -0.127702504396439 0.156729117035866
vertex -3.36213111877441 -0.127702504396439 -0.00672911060974002
vertex -4.81606340408325 -0.182926639914513 0.159639075398445
endloop
endfacet
facet normal -0.0379552356898785 0.99927943944931 1.28546593578039e-16
outer loop
vertex -4.81606340408325 -0.182926639914513 -0.00963907223194838
vertex -6.26999616622925 -0.238150790333748 -0.012549034319818
vertex -4.81606340408325 -0.182926639914513 0.159639075398445
endloop
endfacet
facet normal -0.0379552356898785 0.999279379844666 1.58400243334238e-16
outer loop
vertex -6.26999616622925 -0.238150790333748 0.162549033761024
vertex -4.81606340408325 -0.182926639914513 0.159639075398445
vertex -6.26999616622925 -0.238150790333748 -0.012549034319818
endloop
endfacet
facet normal -0.0379552356898785 0.99927943944931 4.26961991898344e-16
outer loop
vertex -7.71583890914917 -0.293067693710327 -0.015442805364728
vertex -7.71583890914917 -0.293067693710327 0.165442809462547
vertex -6.26999616622925 -0.238150790333748 -0.012549034319818
endloop
endfacet
facet normal -0.0379552431404591 0.999279499053955 1.58400256569127e-16
outer loop
vertex -6.26999616622925 -0.238150790333748 0.162549033761024
vertex -6.26999616622925 -0.238150790333748 -0.012549034319818
vertex -7.71583890914917 -0.293067693710327 0.165442809462547
endloop
endfacet
facet normal -0.0379552356898785 0.99927943944931 4.26961965428564e-16
outer loop
vertex -7.71583890914917 -0.293067693710327 -0.015442805364728
vertex -8.96941566467285 -0.340681791305542 -0.0179517678916454
vertex -7.71583890914917 -0.293067693710327 0.165442809462547
endloop
endfacet
facet normal -0.0379552394151688 0.99927943944931 -3.62672217671522e-16
outer loop
vertex -8.96941566467285 -0.340681791305542 0.167951762676239
vertex -7.71583890914917 -0.293067693710327 0.165442809462547
vertex -8.96941566467285 -0.340681791305542 -0.0179517678916454
endloop
endfacet
facet normal -0.0379552356898785 0.99927943944931 -3.62672217671522e-16
outer loop
vertex -8.96941566467285 -0.340681791305542 -0.0179517678916454
vertex -9.99279403686523 -0.379552364349365 -0.0199999995529652
vertex -8.96941566467285 -0.340681791305542 0.167951762676239
endloop
endfacet
facet normal -0.0379552356898785 0.99927943944931 0
outer loop
vertex -9.99279403686523 -0.379552364349365 0.170000001788139
vertex -8.96941566467285 -0.340681791305542 0.167951762676239
vertex -9.99279403686523 -0.379552364349365 -0.0199999995529652
endloop
endfacet
facet normal 0.00141544104553759 0.0154218235984445 0.999880015850067
outer loop
vertex -8.92721843719482 -1.41357469558716 0.184439986944199
vertex -8.90757179260254 -1.39332962036133 0.184099912643433
vertex -9.99279403686523 -0.379552364349365 0.170000001788139
endloop
endfacet
facet normal 0.00141544104553759 0.0154218235984445 0.999880015850067
outer loop
vertex -7.8616418838501 -2.44759702682495 0.198879957199097
vertex -7.822350025177 -2.40710687637329 0.198199838399887
vertex -8.92721843719482 -1.41357469558716 0.184439986944199
endloop
endfacet
facet normal 0.00141544104553759 0.0154218235984445 0.999880015850067
outer loop
vertex -8.90757179260254 -1.39332962036133 0.184099912643433
vertex -8.92721843719482 -1.41357469558716 0.184439986944199
vertex -7.822350025177 -2.40710687637329 0.198199838399887
endloop
endfacet
facet normal 0.00141544104553759 0.0154218235984445 0.999880015850067
outer loop
vertex -7.8616418838501 -2.44759702682495 0.198879957199097
vertex -6.79606580734253 -3.48161935806274 0.213319942355156
vertex -7.822350025177 -2.40710687637329 0.198199838399887
endloop
endfacet
facet normal 0.00141544092912227 0.0154218235984445 0.999880015850067
outer loop
vertex -6.73712778091431 -3.42088413238525 0.21229974925518
vertex -7.822350025177 -2.40710687637329 0.198199838399887
vertex -6.79606580734253 -3.48161935806274 0.213319942355156
endloop
endfacet
facet normal 0.00141544092912227 0.0154218235984445 0.999880015850067
outer loop
vertex -6.79606580734253 -3.48161935806274 0.213319942355156
vertex -5.73048973083496 -4.51564168930054 0.227759927511215
vertex -6.73712778091431 -3.42088413238525 0.21229974925518
endloop
endfacet
facet normal 0.00141544104553759 0.0154218235984445 0.999880015850067
outer loop
vertex -5.65190553665161 -4.43466138839722 0.226399660110474
vertex -6.73712778091431 -3.42088413238525 0.21229974925518
vertex -5.73048973083496 -4.51564168930054 0.227759927511215
endloop
endfacet
facet normal 0.00141544104553759 0.0154218235984445 0.999880015850067
outer loop
vertex -5.73048973083496 -4.51564168930054 0.227759927511215
vertex -4.66491365432739 -5.54966402053833 0.242199912667274
vertex -5.65190553665161 -4.43466138839722 0.226399660110474
endloop
endfacet
facet normal 0.00141544104553759 0.0154218235984445 0.999880075454712
outer loop
vertex -4.56668281555176 -5.44843864440918 0.240499585866928
vertex -5.65190553665161 -4.43466138839722 0.226399660110474
vertex -4.66491365432739 -5.54966402053833 0.242199912667274
endloop
endfacet
facet normal 0.00141544104553759 0.0154218235984445 0.999880075454712
outer loop
vertex -4.66491365432739 -5.54966402053833 0.242199912667274
vertex -3.61958599090576 -6.56403732299805 0.25636550784111
vertex -4.56668281555176 -5.44843864440918 0.240499585866928
endloop
endfacet
facet normal 0.00141544104553759 0.015421824529767 0.999880075454712
outer loop
vertex -3.50206637382507 -6.4429669380188 0.254331767559052
vertex -4.56668281555176 -5.44843864440918 0.240499585866928
vertex -3.61958599090576 -6.56403732299805 0.25636550784111
endloop
endfacet
facet normal 0.00141544116195291 0.0154218254610896 0.999880135059357
outer loop
vertex -3.61958599090576 -6.56403732299805 0.25636550784111
vertex -2.81660866737366 -7.34323692321777 0.267246901988983
vertex -3.50206637382507 -6.4429669380188 0.254331767559052
endloop
endfacet
facet normal 0.00141544104553759 0.0154218235984445 0.999880075454712
outer loop
vertex -2.68428635597229 -7.20690870285034 0.264956921339035
vertex -3.50206637382507 -6.4429669380188 0.254331767559052
vertex -2.81660866737366 -7.34323692321777 0.267246901988983
endloop
endfacet
facet normal -0.707190036773682 0.0137448385357857 0.706889986991882
outer loop
vertex -1.04982542991638 -0.0116704246029258 -1.05004417896271
vertex -1.04994082450867 -0.0398794896900654 -1.04961109161377
vertex 0 0 0
endloop
endfacet
facet normal -0.707190036773682 0.0137448385357857 0.706889986991882
outer loop
vertex -2.09965085983276 -0.0233408492058516 -2.10008835792542
vertex -2.09988164901733 -0.0797589793801308 -2.09922218322754
vertex -1.04982542991638 -0.0116704246029258 -1.05004417896271
endloop
endfacet
facet normal -0.707190036773682 0.0137448385357857 0.706889986991882
outer loop
vertex -1.04994082450867 -0.0398794896900654 -1.04961109161377
vertex -1.04982542991638 -0.0116704246029258 -1.05004417896271
vertex -2.09988164901733 -0.0797589793801308 -2.09922218322754
endloop
endfacet
facet normal -0.707190036773682 0.0137448385357857 0.706889986991882
outer loop
vertex -2.09965085983276 -0.0233408492058516 -2.10008835792542
vertex -3.14947628974915 -0.0350112728774548 -3.15013265609741
vertex -2.09988164901733 -0.0797589793801308 -2.09922218322754
endloop
endfacet
facet normal -0.707189977169037 0.0137448376044631 0.706889867782593
outer loop
vertex -3.149822473526 -0.119638465344906 -3.14883327484131
vertex -2.09988164901733 -0.0797589793801308 -2.09922218322754
vertex -3.14947628974915 -0.0350112728774548 -3.15013265609741
endloop
endfacet
facet normal -0.707189977169037 0.0137448376044631 0.706889867782593
outer loop
vertex -3.14947628974915 -0.0350112728774548 -3.15013265609741
vertex -4.19930171966553 -0.0466816984117031 -4.20017671585083
vertex -3.149822473526 -0.119638465344906 -3.14883327484131
endloop
endfacet
facet normal -0.707190036773682 0.0137448385357857 0.706889986991882
outer loop
vertex -4.19976329803467 -0.159517958760262 -4.19844436645508
vertex -3.149822473526 -0.119638465344906 -3.14883327484131
vertex -4.19930171966553 -0.0466816984117031 -4.20017671585083
endloop
endfacet
facet normal -0.707190036773682 0.0137448385357857 0.706889986991882
outer loop
vertex -4.19930171966553 -0.0466816984117031 -4.20017671585083
vertex -5.24912738800049 -0.0583521202206612 -5.25022077560425
vertex -4.19976329803467 -0.159517958760262 -4.19844436645508
endloop
endfacet
facet normal -0.707189977169037 0.0137448376044631 0.706889927387238
outer loop
vertex -5.24970388412476 -0.199397444725037 -5.24805545806885
vertex -4.19976329803467 -0.159517958760262 -4.19844436645508
vertex -5.24912738800049 -0.0583521202206612 -5.25022077560425
endloop
endfacet
facet normal -0.707190036773682 0.0137448394671082 0.706889986991882
outer loop
vertex -5.24912738800049 -0.0583521202206612 -5.25022077560425
vertex -6.27900362014771 -0.0698007792234421 -6.28031206130981
vertex -5.24970388412476 -0.199397444725037 -5.24805545806885
endloop
endfacet
facet normal -0.707190036773682 0.0137448376044631 0.706889927387238
outer loop
vertex -6.27970933914185 -0.238519728183746 -6.27773761749268
vertex -5.24970388412476 -0.199397444725037 -5.24805545806885
vertex -6.27900362014771 -0.0698007792234421 -6.28031206130981
endloop
endfacet
facet normal -0.707189977169037 0.0137448376044631 0.706889867782593
outer loop
vertex -6.27900362014771 -0.0698007792234421 -6.28031206130981
vertex -7.07011270523071 -0.0785951763391495 -7.07158613204956
vertex -6.27970933914185 -0.238519728183746 -6.27773761749268
endloop
endfacet
facet normal -0.707190036773682 0.0137448385357857 0.706889927387238
outer loop
vertex -7.07090377807617 -0.268571346998215 -7.06868362426758
vertex -6.27970933914185 -0.238519728183746 -6.27773761749268
vertex -7.07011270523071 -0.0785951763391495 -7.07158613204956
endloop
endfacet
facet normal 0.706953108310699 0.0186892375349998 -0.707013487815857
outer loop
vertex 0.000732850458007306 -0.0299909878522158 -5.99957529630046e-05
vertex -0.138996541500092 -0.0347079932689667 -0.139902129769325
vertex 0 0 0
endloop
endfacet
facet normal 0.706953048706055 0.0186892356723547 -0.707013487815857
outer loop
vertex -0.139806672930717 -0.00155416619963944 -0.139835804700851
vertex 0 0 0
vertex -0.138996541500092 -0.0347079932689667 -0.139902129769325
endloop
endfacet
facet normal 0.706953048706055 0.0186892375349998 -0.707013487815857
outer loop
vertex -0.37016424536705 -0.00411494495347142 -0.37024137377739
vertex -0.139806672930717 -0.00155416619963944 -0.139835804700851
vertex -0.3692267537117 -0.0424801409244537 -0.370318114757538
endloop
endfacet
facet normal 0.706953048706055 0.0186892375349998 -0.707013487815857
outer loop
vertex -0.138996541500092 -0.0347079932689667 -0.139902129769325
vertex -0.3692267537117 -0.0424801409244537 -0.370318114757538
vertex -0.139806672930717 -0.00155416619963944 -0.139835804700851
endloop
endfacet
facet normal 0.706953048706055 0.0186892375349998 -0.707013487815857
outer loop
vertex -0.37016424536705 -0.00411494495347142 -0.37024137377739
vertex -0.3692267537117 -0.0424801409244537 -0.370318114757538
vertex -0.74972128868103 -0.00833430513739586 -0.749877512454987
endloop
endfacet
facet normal 0.706953048706055 0.0186892375349998 -0.707013487815857
outer loop
vertex -0.748574018478394 -0.0552862025797367 -0.749971449375153
vertex -0.74972128868103 -0.00833430513739586 -0.749877512454987
vertex -0.3692267537117 -0.0424801409244537 -0.370318114757538
endloop
endfacet
facet normal 0.706953048706055 0.0186892375349998 -0.707013487815857
outer loop
vertex -1.37511229515076 -0.0152864884585142 -1.37539887428284
vertex -0.74972128868103 -0.00833430513739586 -0.749877512454987
vertex -1.37361931800842 -0.0763865783810616 -1.37552106380463
endloop
endfacet
facet normal 0.706953048706055 0.0186892375349998 -0.707013487815857
outer loop
vertex -0.748574018478394 -0.0552862025797367 -0.749971449375153
vertex -1.37361931800842 -0.0763865783810616 -1.37552106380463
vertex -0.74972128868103 -0.00833430513739586 -0.749877512454987
endloop
endfacet
facet normal 0.706953048706055 0.0186892375349998 -0.707013487815857
outer loop
vertex -1.37511229515076 -0.0152864884585142 -1.37539887428284
vertex -1.37361931800842 -0.0763865783810616 -1.37552106380463
vertex -2.34442639350891 -0.0260619036853313 -2.34491467475891
endloop
endfacet
facet normal 0.706953048706055 0.0186892375349998 -0.707013428211212
outer loop
vertex -2.34239745140076 -0.109090730547905 -2.34508085250854
vertex -2.34442639350891 -0.0260619036853313 -2.34491467475891
vertex -1.37361931800842 -0.0763865783810616 -1.37552106380463
endloop
endfacet
facet normal 0.706953048706055 0.0186892375349998 -0.707013487815857
outer loop
vertex -2.34442639350891 -0.0260619036853313 -2.34491467475891
vertex -2.34239745140076 -0.109090730547905 -2.34508085250854
vertex -3.3800323009491 -0.0375742577016354 -3.38073658943176
endloop
endfacet
facet normal 0.706953048706055 0.0186892356723547 -0.707013487815857
outer loop
vertex -3.37743091583252 -0.144031554460526 -3.3809494972229
vertex -3.3800323009491 -0.0375742577016354 -3.38073658943176
vertex -2.34239745140076 -0.109090730547905 -2.34508085250854
endloop
endfacet
facet normal 0.706953048706055 0.0186892356723547 -0.707013428211212
outer loop
vertex -4.41246461868286 -0.178972363471985 -4.41681814193726
vertex -4.41563844680786 -0.0490866117179394 -4.41655826568604
vertex -3.37743091583252 -0.144031554460526 -3.3809494972229
endloop
endfacet
facet normal 0.706953048706055 0.0186892356723547 -0.707013487815857
outer loop
vertex -3.3800323009491 -0.0375742577016354 -3.38073658943176
vertex -3.37743091583252 -0.144031554460526 -3.3809494972229
vertex -4.41563844680786 -0.0490866117179394 -4.41655826568604
endloop
endfacet
facet normal 0.706953108310699 0.018689239397645 -0.707013487815857
outer loop
vertex -4.41246461868286 -0.178972363471985 -4.41681814193726
vertex -5.44264936447144 -0.213749498128891 -5.44783449172974
vertex -4.41563844680786 -0.0490866117179394 -4.41655826568604
endloop
endfacet
facet normal 0.706953048706055 0.0186892375349998 -0.707013487815857
outer loop
vertex -5.44639301300049 -0.0605450347065926 -5.44752788543701
vertex -4.41563844680786 -0.0490866117179394 -4.41655826568604
vertex -5.44264936447144 -0.213749498128891 -5.44783449172974
endloop
endfacet
facet normal 0.706953048706055 0.0186892375349998 -0.707013487815857
outer loop
vertex -6.34155368804932 -0.0704961195588112 -6.3428750038147
vertex -5.44639301300049 -0.0605450347065926 -5.44752788543701
vertex -6.33731508255005 -0.243951767683029 -6.34322214126587
endloop
endfacet
facet normal 0.706953108310699 0.0186892375349998 -0.707013547420502
outer loop
vertex -5.44264936447144 -0.213749498128891 -5.44783449172974
vertex -6.33731508255005 -0.243951767683029 -6.34322214126587
vertex -5.44639301300049 -0.0605450347065926 -5.44752788543701
endloop
endfacet
facet normal 0.706953108310699 0.0186892375349998 -0.707013487815857
outer loop
vertex -6.34155368804932 -0.0704961195588112 -6.3428750038147
vertex -6.33731508255005 -0.243951767683029 -6.34322214126587
vertex -7.07033920288086 -0.0785976946353912 -7.07181215286255
endloop
endfacet
facet normal 0.706953048706055 0.0186892356723547 -0.707013487815857
outer loop
vertex -7.06569766998291 -0.268540620803833 -7.07219219207764
vertex -7.07033920288086 -0.0785976946353912 -7.07181215286255
vertex -6.33731508255005 -0.243951767683029 -6.34322214126587
endloop
endfacet
facet normal -0.302689522504807 -0.953089237213135 0
outer loop
vertex -1.26177310943604 -12.0051069259644 0.0599999986588955
vertex -1.07331228256226 -12.064959526062 0.0584181062877178
vertex -1.26177310943604 -12.0051069259644 0.0900000035762787
endloop
endfacet
facet normal -0.302689492702484 -0.953089237213135 -4.29439537858074e-14
outer loop
vertex -1.07331228256226 -12.064959526062 0.0915818959474564
vertex -1.26177310943604 -12.0051069259644 0.0900000035762787
vertex -1.07331228256226 -12.064959526062 0.0584181062877178
endloop
endfacet
facet normal -0.302689522504807 -0.953089237213135 -3.6234961564444e-14
outer loop
vertex -0.762787818908691 -12.1635789871216 0.0558116361498833
vertex -0.762787818908691 -12.1635789871216 0.0941883623600006
vertex -1.07331228256226 -12.064959526062 0.0584181062877178
endloop
endfacet
facet normal -0.302689522504807 -0.95308929681778 -4.29439571739392e-14
outer loop
vertex -1.07331228256226 -12.064959526062 0.0915818959474564
vertex -1.07331228256226 -12.064959526062 0.0584181062877178
vertex -0.762787818908691 -12.1635789871216 0.0941883623600006
endloop
endfacet
facet normal -0.302689492702484 -0.953089237213135 -3.62349581763122e-14
outer loop
vertex -0.762787818908691 -12.1635789871216 0.0558116361498833
vertex -0.251140862703323 -12.3260717391968 0.0515169985592365
vertex -0.762787818908691 -12.1635789871216 0.0941883623600006
endloop
endfacet
facet normal -0.302689522504807 -0.953089237213135 1.46682338719945e-14
outer loop
vertex -0.251140862703323 -12.3260717391968 0.0984830036759377
vertex -0.762787818908691 -12.1635789871216 0.0941883623600006
vertex -0.251140862703323 -12.3260717391968 0.0515169985592365
endloop
endfacet
facet normal -0.302689492702484 -0.95308917760849 1.59453206931628e-14
outer loop
vertex 0.591892898082733 -12.5938091278076 0.0444407761096954
vertex 0.591892898082733 -12.5938091278076 0.105559222400188
vertex -0.251140862703323 -12.3260717391968 0.0515169985592365
endloop
endfacet
facet normal -0.302689522504807 -0.953089237213135 1.46682338719945e-14
outer loop
vertex -0.251140862703323 -12.3260717391968 0.0984830036759377
vertex -0.251140862703323 -12.3260717391968 0.0515169985592365
vertex 0.591892898082733 -12.5938091278076 0.105559222400188
endloop
endfacet
facet normal -0.302689492702484 -0.95308917760849 1.59453223872287e-14
outer loop
vertex 0.591892898082733 -12.5938091278076 0.0444407761096954
vertex 1.89853847026825 -13.0087833404541 0.0334731116890907
vertex 0.591892898082733 -12.5938091278076 0.105559222400188
endloop
endfacet
facet normal -0.302689462900162 -0.95308917760849 -2.05383636259129e-14
outer loop
vertex 1.89853847026825 -13.0087833404541 0.116526886820793
vertex 0.591892898082733 -12.5938091278076 0.105559222400188
vertex 1.89853847026825 -13.0087833404541 0.0334731116890907
endloop
endfacet
facet normal -0.302689492702484 -0.95308917760849 -2.05383653199788e-14
outer loop
vertex 1.89853847026825 -13.0087833404541 0.0334731116890907
vertex 3.29454636573792 -13.4521379470825 0.0217553582042456
vertex 1.89853847026825 -13.0087833404541 0.116526886820793
endloop
endfacet
facet normal -0.302689522504807 -0.953089237213135 2.2210050909955e-14
outer loop
vertex 3.29454636573792 -13.4521379470825 0.128244638442993
vertex 1.89853847026825 -13.0087833404541 0.116526886820793
vertex 3.29454636573792 -13.4521379470825 0.0217553582042456
endloop
endfacet
facet normal -0.302689492702484 -0.95308917760849 1.92384645134091e-14
outer loop
vertex 4.69055461883545 -13.8954935073853 0.139962390065193
vertex 3.29454636573792 -13.4521379470825 0.128244638442993
vertex 4.69055461883545 -13.8954935073853 0.0100376047194004
endloop
endfacet
facet normal -0.302689522504807 -0.953089237213135 2.2210050909955e-14
outer loop
vertex 3.29454636573792 -13.4521379470825 0.0217553582042456
vertex 4.69055461883545 -13.8954935073853 0.0100376047194004
vertex 3.29454636573792 -13.4521379470825 0.128244638442993
endloop
endfacet
facet normal -0.302689492702484 -0.953089237213135 1.92384645134091e-14
outer loop
vertex 4.69055461883545 -13.8954935073853 0.139962390065193
vertex 4.69055461883545 -13.8954935073853 0.0100376047194004
vertex 6.08002281188965 -14.3367719650269 0.151625260710716
endloop
endfacet
facet normal -0.302689492702484 -0.95308917760849 -7.53891086791849e-15
outer loop
vertex 6.08002281188965 -14.3367719650269 -0.00162525451742113
vertex 6.08002281188965 -14.3367719650269 0.151625260710716
vertex 4.69055461883545 -13.8954935073853 0.0100376047194004
endloop
endfacet
facet normal -0.302689492702484 -0.95308917760849 9.75764082841767e-15
outer loop
vertex 7.28670883178711 -14.7200002670288 -0.0117538841441274
vertex 7.28670883178711 -14.7200002670288 0.161753877997398
vertex 6.08002281188965 -14.3367719650269 -0.00162525451742113
endloop
endfacet
facet normal -0.302689522504807 -0.95308917760849 -7.53891086791849e-15
outer loop
vertex 6.08002281188965 -14.3367719650269 0.151625260710716
vertex 6.08002281188965 -14.3367719650269 -0.00162525451742113
vertex 7.28670883178711 -14.7200002670288 0.161753877997398
endloop
endfacet
facet normal -0.302689522504807 -0.953089237213135 9.75764167545062e-15
outer loop
vertex 7.28670883178711 -14.7200002670288 -0.0117538841441274
vertex 8.26911926269531 -15.0320014953613 -0.0199999995529652
vertex 7.28670883178711 -14.7200002670288 0.161753877997398
endloop
endfacet
facet normal -0.302689492702484 -0.953089237213135 -0
outer loop
vertex 8.26911926269531 -15.0320014953613 0.170000001788139
vertex 7.28670883178711 -14.7200002670288 0.161753877997398
vertex 8.26911926269531 -15.0320014953613 -0.0199999995529652
endloop
endfacet
facet normal 0.0205224510282278 -0.00617066724225879 0.99977034330368
outer loop
vertex -1.26177310943604 -12.0051069259644 0.0599999986588955
vertex -0.454324543476105 -12.2496519088745 0.0419160127639771
vertex -1.21858155727386 -11.8614597320557 0.0599999986588955
endloop
endfacet
facet normal 0.020522452890873 -0.00617066817358136 0.999770283699036
outer loop
vertex -0.410160958766937 -12.1027727127075 0.0419160127639771
vertex -1.21858155727386 -11.8614597320557 0.0599999986588955
vertex -0.454324543476105 -12.2496519088745 0.0419160127639771
endloop
endfacet
facet normal 0.0205224547535181 -0.00617066863924265 0.99977034330368
outer loop
vertex 0.609081625938416 -12.5717172622681 0.0180994868278503
vertex 0.654525220394135 -12.4205799102783 0.0180994868278503
vertex -0.454324543476105 -12.2496519088745 0.0419160127639771
endloop
endfacet
facet normal 0.020522452890873 -0.00617066817358136 0.99977034330368
outer loop
vertex -0.410160958766937 -12.1027727127075 0.0419160127639771
vertex -0.454324543476105 -12.2496519088745 0.0419160127639771
vertex 0.654525220394135 -12.4205799102783 0.0180994868278503
endloop
endfacet
facet normal 0.020522452890873 -0.00617066770792007 0.99977034330368
outer loop
vertex 0.609081625938416 -12.5717172622681 0.0180994868278503
vertex 1.9576061964035 -12.9801330566406 -0.0121026830747724
vertex 0.654525220394135 -12.4205799102783 0.0180994868278503
endloop
endfacet
facet normal 0.020522452890873 -0.00617066817358136 0.99977034330368
outer loop
vertex 2.00467300415039 -12.82359790802 -0.0121026830747724
vertex 0.654525220394135 -12.4205799102783 0.0180994868278503
vertex 1.9576061964035 -12.9801330566406 -0.0121026830747724
endloop
endfacet
facet normal 0.020522452890873 -0.00617066770792007 0.999770283699036
outer loop
vertex 1.9576061964035 -12.9801330566406 -0.0121026830747724
vertex 3.3498067855835 -13.4017772674561 -0.04328303784132
vertex 2.00467300415039 -12.82359790802 -0.0121026830747724
endloop
endfacet
facet normal 0.020522452890873 -0.00617066817358136 0.99977034330368
outer loop
vertex 3.3985493183136 -13.2396678924561 -0.04328303784132
vertex 2.00467300415039 -12.82359790802 -0.0121026830747724
vertex 3.3498067855835 -13.4017772674561 -0.04328303784132
endloop
endfacet
facet normal 0.020522452890873 -0.00617066817358136 0.99977034330368
outer loop
vertex 3.3498067855835 -13.4017772674561 -0.04328303784132
vertex 4.7420072555542 -13.8234205245972 -0.0744633898139
vertex 3.3985493183136 -13.2396678924561 -0.04328303784132
endloop
endfacet
facet normal 0.020522452890873 -0.00617066817358136 0.99977034330368
outer loop
vertex 4.79242563247681 -13.6557388305664 -0.0744633898139
vertex 3.3985493183136 -13.2396678924561 -0.04328303784132
vertex 4.7420072555542 -13.8234205245972 -0.0744633898139
endloop
endfacet
facet normal 0.020522452890873 -0.00617066770792007 0.99977034330368
outer loop
vertex 6.12646150588989 -14.2427186965942 -0.105470262467861
vertex 6.17854642868042 -14.0694942474365 -0.105470262467861
vertex 4.7420072555542 -13.8234205245972 -0.0744633898139
endloop
endfacet
facet normal 0.020522452890873 -0.00617066770792007 0.999770402908325
outer loop
vertex 4.79242563247681 -13.6557388305664 -0.0744633898139
vertex 4.7420072555542 -13.8234205245972 -0.0744633898139
vertex 6.17854642868042 -14.0694942474365 -0.105470262467861
endloop
endfacet
facet normal 0.020522452890873 -0.00617066817358136 0.99977034330368
outer loop
vertex 7.32681322097778 -14.6062593460083 -0.132353886961937
vertex 7.38034296035767 -14.4282293319702 -0.132353886961937
vertex 6.12646150588989 -14.2427186965942 -0.105470262467861
endloop
endfacet
facet normal 0.0205224547535181 -0.00617066863924265 0.99977034330368
outer loop
vertex 6.17854642868042 -14.0694942474365 -0.105470262467861
vertex 6.12646150588989 -14.2427186965942 -0.105470262467861
vertex 7.38034296035767 -14.4282293319702 -0.132353886961937
endloop
endfacet
facet normal 0.020522452890873 -0.00617066817358136 0.99977034330368
outer loop
vertex 7.32681322097778 -14.6062593460083 -0.132353886961937
vertex 8.30674076080322 -14.9030408859253 -0.154300779104233
vertex 7.38034296035767 -14.4282293319702 -0.132353886961937
endloop
endfacet
facet normal 0.020522452890873 -0.00617066817358136 0.99977034330368
outer loop
vertex 8.3614501953125 -14.7210884094238 -0.154300779104233
vertex 7.38034296035767 -14.4282293319702 -0.132353886961937
vertex 8.30674076080322 -14.9030408859253 -0.154300779104233
endloop
endfacet
facet normal -0.219446450471878 -0.672294974327087 -0.707009732723236
outer loop
vertex 8.30845165252686 -14.9035453796387 -0.154347762465477
vertex 8.26881408691406 -15.0319051742554 -0.0199879128485918
vertex 7.23759889602661 -14.5792274475098 -0.13036347925663
endloop
endfacet
facet normal -0.219446435570717 -0.672295033931732 -0.707009732723236
outer loop
vertex 7.20239162445068 -14.6932220458984 -0.0110376877710223
vertex 7.23759889602661 -14.5792274475098 -0.13036347925663
vertex 8.26881408691406 -15.0319051742554 -0.0199879128485918
endloop
endfacet
facet normal -0.219446420669556 -0.672294974327087 -0.707009732723236
outer loop
vertex 7.23759889602661 -14.5792274475098 -0.13036347925663
vertex 7.20239162445068 -14.6932220458984 -0.0110376877710223
vertex 5.84352207183838 -14.1570167541504 -0.0991398394107819
endloop
endfacet
facet normal -0.219446435570717 -0.672294974327087 -0.707009732723236
outer loop
vertex 5.8141074180603 -14.2523202896118 0.000613845593761653
vertex 5.84352207183838 -14.1570167541504 -0.0991398394107819
vertex 7.20239162445068 -14.6932220458984 -0.0110376877710223
endloop
endfacet
facet normal -0.219446435570717 -0.672294974327087 -0.707009732723236
outer loop
vertex 5.84352207183838 -14.1570167541504 -0.0991398394107819
vertex 5.8141074180603 -14.2523202896118 0.000613845593761653
vertex 4.42246294021606 -13.726634979248 -0.0673118755221367
endloop
endfacet
facet normal -0.219446420669556 -0.672294914722443 -0.707009673118591
outer loop
vertex 4.3989315032959 -13.8028774261475 0.0124910762533545
vertex 4.42246294021606 -13.726634979248 -0.0673118755221367
vertex 5.8141074180603 -14.2523202896118 0.000613845593761653
endloop
endfacet
facet normal -0.219446420669556 -0.672294914722443 -0.707009673118591
outer loop
vertex 4.42246294021606 -13.726634979248 -0.0673118755221367
vertex 4.3989315032959 -13.8028774261475 0.0124910762533545
vertex 3.00140380859375 -13.2962532043457 -0.0354839041829109
endloop
endfacet
facet normal -0.219446420669556 -0.672294914722443 -0.707009732723236
outer loop
vertex 2.98375535011292 -13.3534345626831 0.0243683066219091
vertex 3.00140380859375 -13.2962532043457 -0.0354839041829109
vertex 4.3989315032959 -13.8028774261475 0.0124910762533545
endloop
endfacet
facet normal -0.219446420669556 -0.672294914722443 -0.707009732723236
outer loop
vertex 3.00140380859375 -13.2962532043457 -0.0354839041829109
vertex 2.98375535011292 -13.3534345626831 0.0243683066219091
vertex 1.58034491539001 -12.8658714294434 -0.00365593587048352
endloop
endfacet
facet normal -0.219446420669556 -0.672294914722443 -0.707009673118591
outer loop
vertex 1.56857907772064 -12.9039926528931 0.0362455397844315
vertex 1.58034491539001 -12.8658714294434 -0.00365593587048352
vertex 2.98375535011292 -13.3534345626831 0.0243683066219091
endloop
endfacet
facet normal -0.219446420669556 -0.672294914722443 -0.707009673118591
outer loop
vertex 1.56857907772064 -12.9039926528931 0.0362455397844315
vertex 0.153402984142303 -12.4545497894287 0.0481227673590183
vertex 1.58034491539001 -12.8658714294434 -0.00365593587048352
endloop
endfacet
facet normal -0.219446420669556 -0.672294914722443 -0.707009673118591
outer loop
vertex 0.159285873174667 -12.4354887008667 0.0281720329076052
vertex 1.58034491539001 -12.8658714294434 -0.00365593587048352
vertex 0.153402984142303 -12.4545497894287 0.0481227673590183
endloop
endfacet
facet normal -0.219446420669556 -0.672294914722443 -0.707009673118591
outer loop
vertex 0.153402984142303 -12.4545497894287 0.0481227673590183
vertex -1.26177310943604 -12.0051069259644 0.0599999986588955
vertex 0.159285873174667 -12.4354887008667 0.0281720329076052
endloop
endfacet
facet normal -0.956957101821899 0.287736803293228 0.0379552356898785
outer loop
vertex -0.84934538602829 -11.9515972137451 10.0827941894531
vertex -0.887159466743469 -11.9423656463623 9.05941581726074
vertex -0.904054760932922 -12.1335496902466 10.0827941894531
endloop
endfacet
facet normal -0.956957161426544 0.287736773490906 0.0379552356898785
outer loop
vertex -0.940689325332642 -12.1203956604004 9.05941581726074
vertex -0.904054760932922 -12.1335496902466 10.0827941894531
vertex -0.887159466743469 -11.9423656463623 9.05941581726074
endloop
endfacet
facet normal -0.956957161426544 0.287736803293228 0.0379552394151688
outer loop
vertex -0.940689325332642 -12.1203956604004 9.05941581726074
vertex -0.887159466743469 -11.9423656463623 9.05941581726074
vertex -0.985564410686493 -12.1042833328247 7.80583906173706
endloop
endfacet
facet normal -0.956957101821899 0.287736773490906 0.0379552356898785
outer loop
vertex -0.933479428291321 -11.9310579299927 7.80583906173706
vertex -0.985564410686493 -12.1042833328247 7.80583906173706
vertex -0.887159466743469 -11.9423656463623 9.05941581726074
endloop
endfacet
facet normal -0.956957101821899 0.287736773490906 0.0379552356898785
outer loop
vertex -0.985564410686493 -12.1042833328247 7.80583906173706
vertex -0.933479428291321 -11.9310579299927 7.80583906173706
vertex -1.03732216358185 -12.0856990814209 6.35999584197998
endloop
endfacet
facet normal -0.956957101821899 0.287736773490906 0.0379552356898785
outer loop
vertex -0.986903667449951 -11.9180164337158 6.35999584197998
vertex -1.03732216358185 -12.0856990814209 6.35999584197998
vertex -0.933479428291321 -11.9310579299927 7.80583906173706
endloop
endfacet
facet normal -0.956957101821899 0.287736803293228 0.0379552356898785
outer loop
vertex -0.986903667449951 -11.9180164337158 6.35999584197998
vertex -1.04062676429749 -11.9049015045166 4.90606355667114
vertex -1.03732216358185 -12.0856990814209 6.35999584197998
endloop
endfacet
facet normal -0.956957101821899 0.287736803293228 0.0379552356898785
outer loop
vertex -1.08936953544617 -12.0670108795166 4.90606355667114
vertex -1.03732216358185 -12.0856990814209 6.35999584197998
vertex -1.04062676429749 -11.9049015045166 4.90606355667114
endloop
endfacet
facet normal -0.956957101821899 0.287736803293228 0.0379552356898785
outer loop
vertex -1.04062676429749 -11.9049015045166 4.90606355667114
vertex -1.09434998035431 -11.8917865753174 3.45213103294373
vertex -1.08936953544617 -12.0670108795166 4.90606355667114
endloop
endfacet
facet normal -0.956957101821899 0.287736773490906 0.0379552356898785
outer loop
vertex -1.1414167881012 -12.0483226776123 3.45213103294373
vertex -1.08936953544617 -12.0670108795166 4.90606355667114
vertex -1.09434998035431 -11.8917865753174 3.45213103294373
endloop
endfacet
facet normal -0.956957101821899 0.287736803293228 0.0379552356898785
outer loop
vertex -1.09434998035431 -11.8917865753174 3.45213103294373
vertex -1.14638769626617 -11.8790836334229 2.04381108283997
vertex -1.1414167881012 -12.0483226776123 3.45213103294373
endloop
endfacet
facet normal -0.956957101821899 0.287736803293228 0.0379552356898785
outer loop
vertex -1.19183135032654 -12.0302200317383 2.04381108283997
vertex -1.1414167881012 -12.0483226776123 3.45213103294373
vertex -1.14638769626617 -11.8790836334229 2.04381108283997
endloop
endfacet
facet normal -0.956957101821899 0.287736773490906 0.0379552394151688
outer loop
vertex -1.19183135032654 -12.0302200317383 2.04381108283997
vertex -1.14638769626617 -11.8790836334229 2.04381108283997
vertex -1.23158669471741 -12.0159454345703 0.933251976966858
endloop
endfacet
facet normal -0.956957101821899 0.287736803293228 0.0379552394151688
outer loop
vertex -1.18742311000824 -11.8690662384033 0.933251976966858
vertex -1.23158669471741 -12.0159454345703 0.933251976966858
vertex -1.14638769626617 -11.8790836334229 2.04381108283997
endloop
endfacet
facet normal -0.956957161426544 0.287736803293228 0.0379552394151688
outer loop
vertex -1.18742311000824 -11.8690662384033 0.933251976966858
vertex -1.21858155727386 -11.8614597320557 0.0900000035762787
vertex -1.23158669471741 -12.0159454345703 0.933251976966858
endloop
endfacet
facet normal -0.956957042217255 0.287736773490906 0.0379552356898785
outer loop
vertex -1.26177310943604 -12.0051069259644 0.0900000035762787
vertex -1.23158669471741 -12.0159454345703 0.933251976966858
vertex -1.21858155727386 -11.8614597320557 0.0900000035762787
endloop
endfacet
facet normal 0.185682788491249 0.682450950145721 -0.706953048706055
outer loop
vertex 1.07498288154602 -5.16611957550049 7.1556978225708
vertex 0.841532647609711 -5.85713577270508 6.42731523513794
vertex 0.892975151538849 -5.11179065704346 7.16033887863159
endloop
endfacet
facet normal 0.18568280339241 0.682450950145721 -0.706953108310699
outer loop
vertex 0.67532342672348 -5.80752277374268 6.43155384063721
vertex 0.892975151538849 -5.11179065704346 7.16033887863159
vertex 0.841532647609711 -5.85713577270508 6.42731523513794
endloop
endfacet
facet normal 0.18568280339241 0.682450950145721 -0.706953048706055
outer loop
vertex 0.67532342672348 -5.80752277374268 6.43155384063721
vertex 0.841532647609711 -5.85713577270508 6.42731523513794
vertex 0.407983720302582 -6.66208362579346 5.53639316558838
endloop
endfacet
facet normal 0.185682788491249 0.682450950145721 -0.706953108310699
outer loop
vertex 0.554787814617157 -6.70590448379517 5.53264951705933
vertex 0.407983720302582 -6.66208362579346 5.53639316558838
vertex 0.841532647609711 -5.85713577270508 6.42731523513794
endloop
endfacet
facet normal 0.18568280339241 0.682450950145721 -0.706953048706055
outer loop
vertex 0.407983720302582 -6.66208362579346 5.53639316558838
vertex 0.554787814617157 -6.70590448379517 5.53264951705933
vertex 0.100148864090443 -7.64608955383301 4.50563859939575
endloop
endfacet
facet normal 0.18568280339241 0.682450950145721 -0.706953108310699
outer loop
vertex 0.224608406424522 -7.68324041366577 4.50246477127075
vertex 0.100148864090443 -7.64608955383301 4.50563859939575
vertex 0.554787814617157 -6.70590448379517 5.53264951705933
endloop
endfacet
facet normal 0.185682788491249 0.682450890541077 -0.706953048706055
outer loop
vertex 0.224608406424522 -7.68324041366577 4.50246477127075
vertex -0.107125036418438 -8.66517639160156 3.46743106842041
vertex 0.100148864090443 -7.64608955383301 4.50563859939575
endloop
endfacet
facet normal 0.185682788491249 0.682450890541077 -0.706953048706055
outer loop
vertex -0.209134876728058 -8.63472652435303 3.47003245353699
vertex 0.100148864090443 -7.64608955383301 4.50563859939575
vertex -0.107125036418438 -8.66517639160156 3.46743106842041
endloop
endfacet
facet normal 0.185682788491249 0.682450890541077 -0.706953048706055
outer loop
vertex -0.107125036418438 -8.66517639160156 3.46743106842041
vertex -0.438858479261398 -9.6471118927002 2.43239736557007
vertex -0.209134876728058 -8.63472652435303 3.47003245353699
endloop
endfacet
facet normal 0.185682773590088 0.682450890541077 -0.706953048706055
outer loop
vertex -0.518418610095978 -9.62336349487305 2.43442630767822
vertex -0.209134876728058 -8.63472652435303 3.47003245353699
vertex -0.438858479261398 -9.6471118927002 2.43239736557007
endloop
endfacet
facet normal 0.185682788491249 0.682450890541077 -0.706953048706055
outer loop
vertex -0.438858479261398 -9.6471118927002 2.43239736557007
vertex -0.749356687068939 -10.5661907196045 1.46361935138702
vertex -0.518418610095978 -9.62336349487305 2.43442630767822
endloop
endfacet
facet normal 0.185682788491249 0.682450950145721 -0.706953048706055
outer loop
vertex -0.807904243469238 -10.5487146377563 1.46511232852936
vertex -0.518418610095978 -9.62336349487305 2.43442630767822
vertex -0.749356687068939 -10.5661907196045 1.46361935138702
endloop
endfacet
facet normal 0.18568280339241 0.682450950145721 -0.706953048706055
outer loop
vertex -0.807904243469238 -10.5487146377563 1.46511232852936
vertex -0.749356687068939 -10.5661907196045 1.46361935138702
vertex -0.994677245616913 -11.1457414627075 0.839721322059631
endloop
endfacet
facet normal 0.185682788491249 0.682450890541077 -0.706953048706055
outer loop
vertex -0.949686884880066 -11.1591711044312 0.83857399225235
vertex -0.994677245616913 -11.1457414627075 0.839721322059631
vertex -0.749356687068939 -10.5661907196045 1.46361935138702
endloop
endfacet
facet normal 0.18568280339241 0.682450950145721 -0.706953048706055
outer loop
vertex -0.949686884880066 -11.1591711044312 0.83857399225235
vertex -1.07126951217651 -11.5190572738647 0.459226757287979
vertex -0.994677245616913 -11.1457414627075 0.839721322059631
endloop
endfacet
facet normal 0.185682788491249 0.682450950145721 -0.706953048706055
outer loop
vertex -1.10803198814392 -11.5080842971802 0.460164248943329
vertex -0.994677245616913 -11.1457414627075 0.839721322059631
vertex -1.07126951217651 -11.5190572738647 0.459226757287979
endloop
endfacet
facet normal 0.185682788491249 0.682450890541077 -0.706953048706055
outer loop
vertex -1.10803198814392 -11.5080842971802 0.460164248943329
vertex -1.07126951217651 -11.5190572738647 0.459226757287979
vertex -1.17682826519012 -11.7279939651489 0.229806676506996
endloop
endfacet
facet normal 0.185682788491249 0.682450950145721 -0.706953048706055
outer loop
vertex -1.145059466362 -11.7374773025513 0.228996530175209
vertex -1.17682826519012 -11.7279939651489 0.229806676506996
vertex -1.07126951217651 -11.5190572738647 0.459226757287979
endloop
endfacet
facet normal 0.185682788491249 0.682450890541077 -0.706953048706055
outer loop
vertex -1.17682826519012 -11.7279939651489 0.229806676506996
vertex -1.145059466362 -11.7374773025513 0.228996530175209
vertex -1.21858155727386 -11.8614597320557 0.0900000035762787
endloop
endfacet
facet normal 0.185682788491249 0.682450890541077 -0.706953108310699
outer loop
vertex -1.18984341621399 -11.8700380325317 0.0892671495676041
vertex -1.21858155727386 -11.8614597320557 0.0900000035762787
vertex -1.145059466362 -11.7374773025513 0.228996530175209
endloop
endfacet
facet normal -0.216707617044449 -0.672993361949921 0.707190036773682
outer loop
vertex 1.0740020275116 -5.16948890686035 7.16090393066406
vertex 0.892907619476318 -5.11200666427612 7.1601128578186
vertex 0.817474782466888 -5.9182825088501 6.36970949172974
endloop
endfacet
facet normal -0.216707602143288 -0.672993361949921 0.707189977169037
outer loop
vertex 0.656642854213715 -5.86723566055298 6.36900329589844
vertex 0.817474782466888 -5.9182825088501 6.36970949172974
vertex 0.892907619476318 -5.11200666427612 7.1601128578186
endloop
endfacet
facet normal -0.216707617044449 -0.672993361949921 0.707190036773682
outer loop
vertex 0.817474782466888 -5.9182825088501 6.36970949172974
vertex 0.656642854213715 -5.86723566055298 6.36900329589844
vertex 0.483518451452255 -6.89308977127075 5.33970403671265
endloop
endfacet
facet normal -0.216707602143288 -0.672993361949921 0.707189977169037
outer loop
vertex 0.349070280790329 -6.85040283203125 5.33912706375122
vertex 0.483518451452255 -6.89308977127075 5.33970403671265
vertex 0.656642854213715 -5.86723566055298 6.36900329589844
endloop
endfacet
facet normal -0.216707617044449 -0.672993361949921 0.707190036773682
outer loop
vertex 0.483518451452255 -6.89308977127075 5.33970403671265
vertex 0.349070280790329 -6.85040283203125 5.33912706375122
vertex 0.143098443746567 -7.88676357269287 4.28976345062256
endloop
endfacet
facet normal -0.216707617044449 -0.672993421554565 0.707190036773682
outer loop
vertex 0.0355399213731289 -7.852614402771 4.28930187225342
vertex 0.143098443746567 -7.88676357269287 4.28976345062256
vertex 0.349070280790329 -6.85040283203125 5.33912706375122
endloop
endfacet
facet normal -0.216707617044449 -0.672993421554565 0.707190036773682
outer loop
vertex 0.143098443746567 -7.88676357269287 4.28976345062256
vertex 0.0355399213731289 -7.852614402771 4.28930187225342
vertex -0.197321549057961 -8.88043785095215 3.23982238769531
endloop
endfacet
facet normal -0.216707602143288 -0.672993361949921 0.707189977169037
outer loop
vertex -0.277990430593491 -8.85482597351074 3.23947620391846
vertex -0.197321549057961 -8.88043785095215 3.23982238769531
vertex 0.0355399213731289 -7.852614402771 4.28930187225342
endloop
endfacet
facet normal -0.216707602143288 -0.672993361949921 0.707189977169037
outer loop
vertex -0.197321549057961 -8.88043785095215 3.23982238769531
vertex -0.277990430593491 -8.85482597351074 3.23947620391846
vertex -0.537741541862488 -9.87411212921143 2.18988156318665
endloop
endfacet
facet normal -0.216707617044449 -0.672993421554565 0.707190036773682
outer loop
vertex -0.5915207862854 -9.85703659057617 2.18965077400208
vertex -0.537741541862488 -9.87411212921143 2.18988156318665
vertex -0.277990430593491 -8.85482597351074 3.23947620391846
endloop
endfacet
facet normal -0.216707617044449 -0.672993421554565 0.707190036773682
outer loop
vertex -0.5915207862854 -9.85703659057617 2.18965077400208
vertex -0.905051171779633 -10.8592481613159 1.13982546329498
vertex -0.537741541862488 -9.87411212921143 2.18988156318665
endloop
endfacet
facet normal -0.216707617044449 -0.672993421554565 0.707190036773682
outer loop
vertex -0.878161549568176 -10.8677854537964 1.13994085788727
vertex -0.537741541862488 -9.87411212921143 2.18988156318665
vertex -0.905051171779633 -10.8592481613159 1.13982546329498
endloop
endfacet
facet normal -0.216707617044449 -0.672993421554565 0.707190036773682
outer loop
vertex -0.905051171779633 -10.8592481613159 1.13982546329498
vertex -1.21858155727386 -11.8614597320557 0.0900000035762787
vertex -0.878161549568176 -10.8677854537964 1.13994085788727
endloop
endfacet
facet normal -0.302678406238556 -0.953091681003571 -0.00141544104553759
outer loop
vertex 0.0820158571004868 -12.4451189041138 9.01721858978271
vertex -0.904054760932922 -12.1335496902466 10.0827941894531
vertex 0.0627261102199554 -12.4389638900757 8.99757194519043
endloop
endfacet
facet normal -0.302678406238556 -0.953091681003571 -0.00141544104553759
outer loop
vertex 1.06808650493622 -12.756688117981 7.95164203643799
vertex 0.0820158571004868 -12.4451189041138 9.01721858978271
vertex 1.02950704097748 -12.7443780899048 7.91234970092773
endloop
endfacet
facet normal -0.302678406238556 -0.953091681003571 -0.00141544104553759
outer loop
vertex 0.0627261102199554 -12.4389638900757 8.99757194519043
vertex 1.02950704097748 -12.7443780899048 7.91234970092773
vertex 0.0820158571004868 -12.4451189041138 9.01721858978271
endloop
endfacet
facet normal -0.302678406238556 -0.953091681003571 -0.00141544104553759
outer loop
vertex 1.02950704097748 -12.7443780899048 7.91234970092773
vertex 1.99628794193268 -13.0497922897339 6.82712745666504
vertex 1.06808650493622 -12.756688117981 7.95164203643799
endloop
endfacet
facet normal -0.302678406238556 -0.953091621398926 -0.00141544092912227
outer loop
vertex 2.05415725708008 -13.0682573318481 6.88606595993042
vertex 1.06808650493622 -12.756688117981 7.95164203643799
vertex 1.99628794193268 -13.0497922897339 6.82712745666504
endloop
endfacet
facet normal -0.302678406238556 -0.953091621398926 -0.00141544092912227
outer loop
vertex 2.05415725708008 -13.0682573318481 6.88606595993042
vertex 1.99628794193268 -13.0497922897339 6.82712745666504
vertex 3.04022789001465 -13.3798265457153 5.82048988342285
endloop
endfacet
facet normal -0.302678406238556 -0.953091681003571 -0.00141544104553759
outer loop
vertex 2.96306872367859 -13.355206489563 5.74190521240234
vertex 3.04022789001465 -13.3798265457153 5.82048988342285
vertex 1.99628794193268 -13.0497922897339 6.82712745666504
endloop
endfacet
facet normal -0.302678406238556 -0.953091681003571 -0.00141544104553759
outer loop
vertex 3.04022789001465 -13.3798265457153 5.82048988342285
vertex 2.96306872367859 -13.355206489563 5.74190521240234
vertex 4.02629852294922 -13.6913957595825 4.75491333007813
endloop
endfacet
facet normal -0.302678406238556 -0.953091681003571 -0.00141544104553759
outer loop
vertex 3.92984962463379 -13.6606206893921 4.65668296813965
vertex 4.02629852294922 -13.6913957595825 4.75491333007813
vertex 2.96306872367859 -13.355206489563 5.74190521240234
endloop
endfacet
facet normal -0.302678406238556 -0.953091681003571 -0.00141544104553759
outer loop
vertex 4.02629852294922 -13.6913957595825 4.75491333007813
vertex 3.92984962463379 -13.6606206893921 4.65668296813965
vertex 4.99363136291504 -13.9970445632935 3.70958590507507
endloop
endfacet
facet normal -0.302678406238556 -0.953091681003571 -0.00141544104553759
outer loop
vertex 4.87827396392822 -13.9602355957031 3.59206628799438
vertex 4.99363136291504 -13.9970445632935 3.70958590507507
vertex 3.92984962463379 -13.6606206893921 4.65668296813965
endloop
endfacet
facet normal -0.302678406238556 -0.953091740608215 -0.00141544116195291
outer loop
vertex 4.99363136291504 -13.9970445632935 3.70958590507507
vertex 4.87827396392822 -13.9602355957031 3.59206628799438
vertex 5.73669624328613 -14.2318315505981 2.90660858154297
endloop
endfacet
facet normal -0.302678406238556 -0.953091740608215 -0.00141544104553759
outer loop
vertex 5.60680103302002 -14.1903829574585 2.7742862701416
vertex 5.73669624328613 -14.2318315505981 2.90660858154297
vertex 4.87827396392822 -13.9602355957031 3.59206628799438
endloop
endfacet
facet normal -1 0 0
outer loop
vertex -0.214350000023842 -10 -0.0199999995529652
vertex -0.214350000023842 -11 -0.0199999995529652
vertex -0.214350000023842 -10 0.170000001788139
endloop
endfacet
facet normal -1 0 0
outer loop
vertex -0.214350000023842 -11 0.170000001788139
vertex -0.214350000023842 -10 0.170000001788139
vertex -0.214350000023842 -11 -0.0199999995529652
endloop
endfacet
facet normal -0.70710676908493 -0 -0.70710676908493
outer loop
vertex -0.0799999982118607 -10 -0.154349997639656
vertex -0.0799999982118607 -11 -0.154349997639656
vertex -0.214350000023842 -10 -0.0199999995529652
endloop
endfacet
facet normal -0.70710676908493 0 -0.70710676908493
outer loop
vertex -0.214350000023842 -11 -0.0199999995529652
vertex -0.214350000023842 -10 -0.0199999995529652
vertex -0.0799999982118607 -11 -0.154349997639656
endloop
endfacet
facet normal -0.70710676908493 0 0.70710676908493
outer loop
vertex -0.0799999982118607 -10 0.304349988698959
vertex -0.214350000023842 -10 0.170000001788139
vertex -0.0799999982118607 -11 0.304349988698959
endloop
endfacet
facet normal -0.70710676908493 0 0.70710676908493
outer loop
vertex -0.214350000023842 -11 0.170000001788139
vertex -0.0799999982118607 -11 0.304349988698959
vertex -0.214350000023842 -10 0.170000001788139
endloop
endfacet
facet normal -0 -0 -1
outer loop
vertex 0.109999999403954 -10 -0.154349997639656
vertex 0.109999999403954 -11 -0.154349997639656
vertex -0.0799999982118607 -10 -0.154349997639656
endloop
endfacet
facet normal 0 0 -1
outer loop
vertex -0.0799999982118607 -11 -0.154349997639656
vertex -0.0799999982118607 -10 -0.154349997639656
vertex 0.109999999403954 -11 -0.154349997639656
endloop
endfacet
facet normal 0 -0 1
outer loop
vertex 0.109999999403954 -11 0.304349988698959
vertex 0.109999999403954 -10 0.304349988698959
vertex -0.0799999982118607 -11 0.304349988698959
endloop
endfacet
facet normal -0 0 1
outer loop
vertex -0.0799999982118607 -10 0.304349988698959
vertex -0.0799999982118607 -11 0.304349988698959
vertex 0.109999999403954 -10 0.304349988698959
endloop
endfacet
facet normal 0.70710676908493 0 -0.70710676908493
outer loop
vertex 0.244350001215935 -10 -0.0199999995529652
vertex 0.244350001215935 -11 -0.0199999995529652
vertex 0.109999999403954 -10 -0.154349997639656
endloop
endfacet
facet normal 0.70710676908493 0 -0.70710676908493
outer loop
vertex 0.109999999403954 -11 -0.154349997639656
vertex 0.109999999403954 -10 -0.154349997639656
vertex 0.244350001215935 -11 -0.0199999995529652
endloop
endfacet
facet normal 0.70710676908493 -0 0.70710676908493
outer loop
vertex 0.244350001215935 -11 0.170000001788139
vertex 0.244350001215935 -10 0.170000001788139
vertex 0.109999999403954 -11 0.304349988698959
endloop
endfacet
facet normal 0.70710676908493 0 0.70710676908493
outer loop
vertex 0.109999999403954 -10 0.304349988698959
vertex 0.109999999403954 -11 0.304349988698959
vertex 0.244350001215935 -10 0.170000001788139
endloop
endfacet
facet normal 1 0 0
outer loop
vertex 0.244350001215935 -11 -0.0199999995529652
vertex 0.244350001215935 -10 -0.0199999995529652
vertex 0.244350001215935 -11 0.170000001788139
endloop
endfacet
facet normal 1 0 0
outer loop
vertex 0.244350001215935 -10 0.170000001788139
vertex 0.244350001215935 -11 0.170000001788139
vertex 0.244350001215935 -10 -0.0199999995529652
endloop
endfacet
facet normal -0 0.0154331624507904 0.999880909919739
outer loop
vertex -0.0799999982118607 -9.99880886077881 0.304331630468369
vertex 0.109999999403954 -9.99880886077881 0.304331630468369
vertex -0.0717538818717003 -8.96816730499268 0.288423657417297
endloop
endfacet
facet normal 4.81789852238963e-16 0.0154331624507904 0.999880909919739
outer loop
vertex 0.101753883063793 -8.96816730499268 0.288423657417297
vertex -0.0717538818717003 -8.96816730499268 0.288423657417297
vertex 0.109999999403954 -9.99880886077881 0.304331630468369
endloop
endfacet
facet normal -0 0.0154331615194678 0.999880909919739
outer loop
vertex -0.0616252534091473 -7.70223951339722 0.268884062767029
vertex -0.0717538818717003 -8.96816730499268 0.288423657417297
vertex 0.0916252508759499 -7.70223951339722 0.268884062767029
endloop
endfacet
facet normal 4.81789852238963e-16 0.015433163382113 0.999880969524384
outer loop
vertex 0.101753883063793 -8.96816730499268 0.288423657417297
vertex 0.0916252508759499 -7.70223951339722 0.268884062767029
vertex -0.0717538818717003 -8.96816730499268 0.288423657417297
endloop
endfacet
facet normal 0 0.0154331605881453 0.999880850315094
outer loop
vertex 0.0916252508759499 -7.70223951339722 0.268884062767029
vertex 0.079962395131588 -6.24455547332764 0.246384710073471
vertex -0.0616252534091473 -7.70223951339722 0.268884062767029
endloop
endfacet
facet normal 1.10697399152795e-16 0.0154331615194678 0.999880909919739
outer loop
vertex -0.0499623939394951 -6.24455547332764 0.246384710073471
vertex -0.0616252534091473 -7.70223951339722 0.268884062767029
vertex 0.079962395131588 -6.24455547332764 0.246384710073471
endloop
endfacet
facet normal 1.10697399152795e-16 0.0154331605881453 0.999880909919739
outer loop
vertex -0.0499623939394951 -6.24455547332764 0.246384710073471
vertex 0.079962395131588 -6.24455547332764 0.246384710073471
vertex -0.0382446423172951 -4.78001117706299 0.22377946972847
endloop
endfacet
facet normal -2.54272858609298e-16 0.0154331605881453 0.999880850315094
outer loop
vertex 0.068244643509388 -4.78001117706299 0.22377946972847
vertex -0.0382446423172951 -4.78001117706299 0.22377946972847
vertex 0.079962395131588 -6.24455547332764 0.246384710073471
endloop
endfacet
facet normal -2.54272858609298e-16 0.0154331605881453 0.999880850315094
outer loop
vertex 0.068244643509388 -4.78001117706299 0.22377946972847
vertex 0.0565268881618977 -3.31546640396118 0.201174229383469
vertex -0.0382446423172951 -4.78001117706299 0.22377946972847
endloop
endfacet
facet normal 8.12648455397512e-18 0.0154331615194678 0.999880850315094
outer loop
vertex -0.0265268888324499 -3.31546640396118 0.201174229383469
vertex -0.0382446423172951 -4.78001117706299 0.22377946972847
vertex 0.0565268881618977 -3.31546640396118 0.201174229383469
endloop
endfacet
facet normal 8.12648455397512e-18 0.0154331624507904 0.999880909919739
outer loop
vertex -0.0265268888324499 -3.31546640396118 0.201174229383469
vertex 0.0565268881618977 -3.31546640396118 0.201174229383469
vertex -0.0155592234805226 -1.9446713924408 0.180015996098518
endloop
endfacet
facet normal -2.74823466096463e-16 0.0154331615194678 0.999880909919739
outer loop
vertex 0.045559223741293 -1.9446713924408 0.180015996098518
vertex -0.0155592234805226 -1.9446713924408 0.180015996098518
vertex 0.0565268881618977 -3.31546640396118 0.201174229383469
endloop
endfacet
facet normal -2.74823466096463e-16 0.0154331615194678 0.999880850315094
outer loop
vertex 0.045559223741293 -1.9446713924408 0.180015996098518
vertex 0.0384830012917519 -1.06024897098541 0.166364938020706
vertex -0.0155592234805226 -1.9446713924408 0.180015996098518
endloop
endfacet
facet normal -6.56680344748585e-16 0.0154331615194678 0.999880909919739
outer loop
vertex -0.00848300289362669 -1.06024897098541 0.166364938020706
vertex -0.0155592234805226 -1.9446713924408 0.180015996098518
vertex 0.0384830012917519 -1.06024897098541 0.166364938020706
endloop
endfacet
facet normal -6.56680344748585e-16 0.0154331624507904 0.999880909919739
outer loop
vertex -0.00848300289362669 -1.06024897098541 0.166364938020706
vertex 0.0384830012917519 -1.06024897098541 0.166364938020706
vertex -0.00418836204335093 -0.523482918739319 0.158079952001572
endloop
endfacet
facet normal -1.13377477572356e-15 0.0154331605881453 0.999880850315094
outer loop
vertex 0.0341883637011051 -0.523482918739319 0.158079952001572
vertex -0.00418836204335093 -0.523482918739319 0.158079952001572
vertex 0.0384830012917519 -1.06024897098541 0.166364938020706
endloop
endfacet
facet normal -1.13377477572356e-15 0.0154331624507904 0.999880909919739
outer loop
vertex 0.0341883637011051 -0.523482918739319 0.158079952001572
vertex 0.0315818935632706 -0.197713330388069 0.15305170416832
vertex -0.00418836204335093 -0.523482918739319 0.158079952001572
endloop
endfacet
facet normal 5.29571774886967e-16 0.0154331615194678 0.999880909919739
outer loop
vertex -0.00158189504873008 -0.197713330388069 0.15305170416832
vertex -0.00418836204335093 -0.523482918739319 0.158079952001572
vertex 0.0315818935632706 -0.197713330388069 0.15305170416832
endloop
endfacet
facet normal 5.29571827826526e-16 0.0154331624507904 0.999880909919739
outer loop
vertex -0.00158189504873008 -0.197713330388069 0.15305170416832
vertex 0.0315818935632706 -0.197713330388069 0.15305170416832
vertex 0 0 0.150000005960464
endloop
endfacet
facet normal 0 0.0154331624507904 0.999880909919739
outer loop
vertex 0.0299999993294477 0 0.150000005960464
vertex 0 0 0.150000005960464
vertex 0.0315818935632706 -0.197713330388069 0.15305170416832
endloop
endfacet
facet normal -0.99977034330368 -0.0214300788938999 -1.49266673829105e-16
outer loop
vertex 0.222353875637054 -8.97382259368896 -0.0179517678916454
vertex 0.24430076777935 -9.99770355224609 -0.0199999995529652
vertex 0.222353875637054 -8.97382259368896 0.167951762676239
endloop
endfacet
facet normal -0.99977034330368 -0.0214300788938999 -0
outer loop
vertex 0.24430076777935 -9.99770355224609 0.170000001788139
vertex 0.222353875637054 -8.97382259368896 0.167951762676239
vertex 0.24430076777935 -9.99770355224609 -0.0199999995529652
endloop
endfacet
facet normal -0.99977034330368 -0.0214300770312548 -1.49266673829105e-16
outer loop
vertex 0.222353875637054 -8.97382259368896 0.167951762676239
vertex 0.195470258593559 -7.71962976455688 0.165442809462547
vertex 0.222353875637054 -8.97382259368896 -0.0179517678916454
endloop
endfacet
facet normal -0.99977034330368 -0.0214300788938999 2.10450497352353e-16
outer loop
vertex 0.195470258593559 -7.71962976455688 -0.015442805364728
vertex 0.222353875637054 -8.97382259368896 -0.0179517678916454
vertex 0.195470258593559 -7.71962976455688 0.165442809462547
endloop
endfacet
facet normal -0.99977034330368 -0.0214300770312548 2.10450470882574e-16
outer loop
vertex 0.195470258593559 -7.71962976455688 -0.015442805364728
vertex 0.195470258593559 -7.71962976455688 0.165442809462547
vertex 0.164463385939598 -6.27307605743408 -0.012549034319818
endloop
endfacet
facet normal -0.999770402908325 -0.0214300770312548 1.58478051251377e-16
outer loop
vertex 0.164463385939598 -6.27307605743408 0.162549033761024
vertex 0.164463385939598 -6.27307605743408 -0.012549034319818
vertex 0.195470258593559 -7.71962976455688 0.165442809462547
endloop
endfacet
facet normal -0.99977034330368 -0.0214300770312548 1.58478064486267e-16
outer loop
vertex 0.164463385939598 -6.27307605743408 0.162549033761024
vertex 0.133283033967018 -4.81842947006226 0.159639075398445
vertex 0.164463385939598 -6.27307605743408 -0.012549034319818
endloop
endfacet
facet normal -0.99977034330368 -0.0214300770312548 1.63926670093929e-16
outer loop
vertex 0.133283033967018 -4.81842947006226 -0.00963907223194838
vertex 0.164463385939598 -6.27307605743408 -0.012549034319818
vertex 0.133283033967018 -4.81842947006226 0.159639075398445
endloop
endfacet
facet normal -0.99977034330368 -0.0214300770312548 1.63926670093929e-16
outer loop
vertex 0.133283033967018 -4.81842947006226 -0.00963907223194838
vertex 0.133283033967018 -4.81842947006226 0.159639075398445
vertex 0.102102681994438 -3.36378264427185 -0.00672911060974002
endloop
endfacet
facet normal -0.999770283699036 -0.0214300770312548 -8.97843939131024e-17
outer loop
vertex 0.102102681994438 -3.36378264427185 0.156729117035866
vertex 0.102102681994438 -3.36378264427185 -0.00672911060974002
vertex 0.133283033967018 -4.81842947006226 0.159639075398445
endloop
endfacet
facet normal -0.99977034330368 -0.0214300770312548 -8.97843939131024e-17
outer loop
vertex 0.102102681994438 -3.36378264427185 0.156729117035866
vertex 0.0719005092978477 -1.95477080345154 0.15391044318676
vertex 0.102102681994438 -3.36378264427185 -0.00672911060974002
endloop
endfacet
facet normal -0.99977034330368 -0.0214300770312548 3.01508458241212e-17
outer loop
vertex 0.0719005092978477 -1.95477080345154 -0.00391043955460191
vertex 0.102102681994438 -3.36378264427185 -0.00672911060974002
vertex 0.0719005092978477 -1.95477080345154 0.15391044318676
endloop
endfacet
facet normal -0.99977034330368 -0.0214300788938999 3.01508458241212e-17
outer loop
vertex 0.0719005092978477 -1.95477080345154 -0.00391043955460191
vertex 0.0719005092978477 -1.95477080345154 0.15391044318676
vertex 0.0480839870870113 -0.843666255474091 -0.00168772006873041
endloop
endfacet
facet normal -0.99977034330368 -0.0214300770312548 -2.84122081294858e-17
outer loop
vertex 0.0480839870870113 -0.843666255474091 0.151687726378441
vertex 0.0480839870870113 -0.843666255474091 -0.00168772006873041
vertex 0.0719005092978477 -1.95477080345154 0.15391044318676
endloop
endfacet
facet normal -0.999770283699036 -0.0214300770312548 -2.84122081294858e-17
outer loop
vertex 0.0480839870870113 -0.843666255474091 -0.00168772006873041
vertex 0.0480839870870113 -0.843666255474091 0.151687726378441
vertex 0.0299999993294477 0 0
endloop
endfacet
facet normal -0.99977034330368 -0.0214300751686096 -0
outer loop
vertex 0.0299999993294477 0 0.150000005960464
vertex 0.0299999993294477 0 0
vertex 0.0480839870870113 -0.843666255474091 0.151687726378441
endloop
endfacet
facet normal 0.707009732723236 0.0165687724947929 0.707009732723236
outer loop
vertex 0.244347751140594 -9.99948787689209 0.169990241527557
vertex 0.220363482832909 -8.88060283660889 0.16775344312191
vertex 0.109987914562225 -9.99848937988281 0.304326683282852
endloop
endfacet
facet normal 0.707009732723236 0.0165687724947929 0.707009732723236
outer loop
vertex 0.101037688553333 -8.87971115112305 0.287058353424072
vertex 0.109987914562225 -9.99848937988281 0.304326683282852
vertex 0.220363482832909 -8.88060283660889 0.16775344312191
endloop
endfacet
facet normal 0.707009732723236 0.0165687724947929 0.707009732723236
outer loop
vertex 0.0893861576914787 -7.42326927185059 0.26457816362381
vertex 0.101037688553333 -8.87971115112305 0.287058353424072
vertex 0.189139842987061 -7.42399597167969 0.164841502904892
endloop
endfacet
facet normal 0.707009732723236 0.0165687706321478 0.707009732723236
outer loop
vertex 0.220363482832909 -8.88060283660889 0.16775344312191
vertex 0.189139842987061 -7.42399597167969 0.164841502904892
vertex 0.101037688553333 -8.87971115112305 0.287058353424072
endloop
endfacet
facet normal 0.707009732723236 0.0165687743574381 0.707009732723236
outer loop
vertex 0.189139842987061 -7.42399597167969 0.164841502904892
vertex 0.157311871647835 -5.93919658660889 0.161873206496239
vertex 0.0893861576914787 -7.42326927185059 0.26457816362381
endloop
endfacet
facet normal 0.707009673118591 0.0165687724947929 0.707009673118591
outer loop
vertex 0.0775089263916016 -5.93861532211304 0.241662532091141
vertex 0.0893861576914787 -7.42326927185059 0.26457816362381
vertex 0.157311871647835 -5.93919658660889 0.161873206496239
endloop
endfacet
facet normal 0.707009673118591 0.0165687724947929 0.707009673118591
outer loop
vertex 0.157311871647835 -5.93919658660889 0.161873206496239
vertex 0.125483900308609 -4.45439767837524 0.158904895186424
vertex 0.0775089263916016 -5.93861532211304 0.241662532091141
endloop
endfacet
facet normal 0.707009732723236 0.0165687724947929 0.707009732723236
outer loop
vertex 0.0656316950917244 -4.45396137237549 0.218746900558472
vertex 0.0775089263916016 -5.93861532211304 0.241662532091141
vertex 0.125483900308609 -4.45439767837524 0.158904895186424
endloop
endfacet
facet normal 0.707009732723236 0.0165687724947929 0.707009732723236
outer loop
vertex 0.125483900308609 -4.45439767837524 0.158904895186424
vertex 0.0936559364199638 -2.96959829330444 0.155936598777771
vertex 0.0656316950917244 -4.45396137237549 0.218746900558472
endloop
endfacet
facet normal 0.707009673118591 0.0165687724947929 0.707009673118591
outer loop
vertex 0.0537544600665569 -2.96930766105652 0.195831269025803
vertex 0.0656316950917244 -4.45396137237549 0.218746900558472
vertex 0.0936559364199638 -2.96959829330444 0.155936598777771
endloop
endfacet
facet normal 0.707009673118591 0.0165687724947929 0.707009673118591
outer loop
vertex 0.0537544600665569 -2.96930766105652 0.195831269025803
vertex 0.0936559364199638 -2.96959829330444 0.155936598777771
vertex 0.0418772324919701 -1.48465383052826 0.172915637493134
endloop
endfacet
facet normal 0.707009673118591 0.0165687724947929 0.707009673118591
outer loop
vertex 0.0618279688060284 -1.48479914665222 0.152968302369118
vertex 0.0418772324919701 -1.48465383052826 0.172915637493134
vertex 0.0936559364199638 -2.96959829330444 0.155936598777771
endloop
endfacet
facet normal 0.707009673118591 0.0165687724947929 0.707009673118591
outer loop
vertex 0.0418772324919701 -1.48465383052826 0.172915637493134
vertex 0.0618279688060284 -1.48479914665222 0.152968302369118
vertex 0.0299999993294477 0 0.150000005960464
endloop
endfacet
facet normal 0.707025527954102 0.0151550928130746 -0.707025527954102
outer loop
vertex 0.324297815561295 -19.9982852935791 -0.154365420341492
vertex 0.315346628427505 -18.8792781829834 -0.139330714941025
vertex 0.458601534366608 -19.9954071044922 -0.0199999995529652
endloop
endfacet
facet normal 0.707025587558746 0.0151550937443972 -0.707025587558746
outer loop
vertex 0.434622436761856 -18.8767166137695 -0.0199999995529652
vertex 0.458601534366608 -19.9954071044922 -0.0199999995529652
vertex 0.315346628427505 -18.8792781829834 -0.139330714941025
endloop
endfacet
facet normal 0.707025587558746 0.0151550928130746 -0.707025587558746
outer loop
vertex 0.315346628427505 -18.8792781829834 -0.139330714941025
vertex 0.30369359254837 -17.4225120544434 -0.119757950305939
vertex 0.434622436761856 -18.8767166137695 -0.0199999995529652
endloop
endfacet
facet normal 0.707025587558746 0.0151550928130746 -0.707025587558746
outer loop
vertex 0.403406053781509 -17.420389175415 -0.0199999995529652
vertex 0.434622436761856 -18.8767166137695 -0.0199999995529652
vertex 0.30369359254837 -17.4225120544434 -0.119757950305939
endloop
endfacet
facet normal 0.707025587558746 0.0151550937443972 -0.707025587558746
outer loop
vertex 0.30369359254837 -17.4225120544434 -0.119757950305939
vertex 0.291815042495728 -15.9375505447388 -0.0998063609004021
vertex 0.403406053781509 -17.420389175415 -0.0199999995529652
endloop
endfacet
facet normal 0.707025587558746 0.015155091881752 -0.707025587558746
outer loop
vertex 0.371584981679916 -15.9358520507813 -0.0199999995529652
vertex 0.403406053781509 -17.420389175415 -0.0199999995529652
vertex 0.291815042495728 -15.9375505447388 -0.0998063609004021
endloop
endfacet
facet normal 0.707025587558746 0.015155091881752 -0.707025587558746
outer loop
vertex 0.291815042495728 -15.9375505447388 -0.0998063609004021
vertex 0.279936462640762 -14.4525890350342 -0.0798547714948654
vertex 0.371584981679916 -15.9358520507813 -0.0199999995529652
endloop
endfacet
facet normal 0.707025647163391 0.0151550937443972 -0.707025647163391
outer loop
vertex 0.339763939380646 -14.4513149261475 -0.0199999995529652
vertex 0.371584981679916 -15.9358520507813 -0.0199999995529652
vertex 0.279936462640762 -14.4525890350342 -0.0798547714948654
endloop
endfacet
facet normal 0.707025647163391 0.0151550937443972 -0.707025647163391
outer loop
vertex 0.339763939380646 -14.4513149261475 -0.0199999995529652
vertex 0.279936462640762 -14.4525890350342 -0.0798547714948654
vertex 0.307942897081375 -12.9667778015137 -0.0199999995529652
endloop
endfacet
facet normal 0.707025587558746 0.015155091881752 -0.707025587558746
outer loop
vertex 0.26805791258812 -12.9676265716553 -0.0599031783640385
vertex 0.307942897081375 -12.9667778015137 -0.0199999995529652
vertex 0.279936462640762 -14.4525890350342 -0.0798547714948654
endloop
endfacet
facet normal 0.707025587558746 0.015155091881752 -0.707025587558746
outer loop
vertex 0.307942897081375 -12.9667778015137 -0.0199999995529652
vertex 0.26805791258812 -12.9676265716553 -0.0599031783640385
vertex 0.276121824979782 -11.4822406768799 -0.0199999995529652
endloop
endfacet
facet normal 0.707025587558746 0.015155091881752 -0.707025587558746
outer loop
vertex 0.256179332733154 -11.4826650619507 -0.0399515889585018
vertex 0.276121824979782 -11.4822406768799 -0.0199999995529652
vertex 0.26805791258812 -12.9676265716553 -0.0599031783640385
endloop
endfacet
facet normal 0.707025587558746 0.015155091881752 -0.707025587558746
outer loop
vertex 0.276121824979782 -11.4822406768799 -0.0199999995529652
vertex 0.256179332733154 -11.4826650619507 -0.0399515889585018
vertex 0.24430076777935 -9.99770355224609 -0.0199999995529652
endloop
endfacet
facet normal 0.189070716500282 0.681444823741913 -0.707025587558746
outer loop
vertex 9.78311252593994 -15.148551940918 -0.186121836304665
vertex 8.3614501953125 -14.7210884094238 -0.154300779104233
vertex 9.78926372528076 -15.1295680999756 -0.166179344058037
endloop
endfacet
facet normal 0.189070716500282 0.681444823741913 -0.707025587558746
outer loop
vertex 11.2047758102417 -15.5760164260864 -0.217942878603935
vertex 9.78311252593994 -15.148551940918 -0.186121836304665
vertex 11.2170782089233 -15.5380477905273 -0.178057909011841
endloop
endfacet
facet normal 0.189070716500282 0.681444823741913 -0.707025587558746
outer loop
vertex 9.78926372528076 -15.1295680999756 -0.166179344058037
vertex 11.2170782089233 -15.5380477905273 -0.178057909011841
vertex 9.78311252593994 -15.148551940918 -0.186121836304665
endloop
endfacet
facet normal 0.189070716500282 0.681444823741913 -0.707025587558746
outer loop
vertex 11.2047758102417 -15.5760164260864 -0.217942878603935
vertex 11.2170782089233 -15.5380477905273 -0.178057909011841
vertex 12.6264381408691 -16.0034809112549 -0.249763935804367
endloop
endfacet
facet normal 0.189070716500282 0.681444823741913 -0.707025527954102
outer loop
vertex 12.6448926925659 -15.9465274810791 -0.189936473965645
vertex 12.6264381408691 -16.0034809112549 -0.249763935804367
vertex 11.2170782089233 -15.5380477905273 -0.178057909011841
endloop
endfacet
facet normal 0.189070716500282 0.681444823741913 -0.707025527954102
outer loop
vertex 12.6264381408691 -16.0034809112549 -0.249763935804367
vertex 12.6448926925659 -15.9465274810791 -0.189936473965645
vertex 14.0481014251709 -16.430944442749 -0.28158500790596
endloop
endfacet
facet normal 0.189070716500282 0.681444823741913 -0.707025587558746
outer loop
vertex 14.0727071762085 -16.3550071716309 -0.201815038919449
vertex 14.0481014251709 -16.430944442749 -0.28158500790596
vertex 12.6448926925659 -15.9465274810791 -0.189936473965645
endloop
endfacet
facet normal 0.189070716500282 0.681444823741913 -0.707025587558746
outer loop
vertex 14.0481014251709 -16.430944442749 -0.28158500790596
vertex 14.0727071762085 -16.3550071716309 -0.201815038919449
vertex 15.4697637557983 -16.8584079742432 -0.313406050205231
endloop
endfacet
facet normal 0.189070731401443 0.681444883346558 -0.707025527954102
outer loop
vertex 15.5005216598511 -16.7634868621826 -0.213693603873253
vertex 15.4697637557983 -16.8584079742432 -0.313406050205231
vertex 14.0727071762085 -16.3550071716309 -0.201815038919449
endloop
endfacet
facet normal 0.189070731401443 0.681444823741913 -0.707025587558746
outer loop
vertex 15.4697637557983 -16.8584079742432 -0.313406050205231
vertex 15.5005216598511 -16.7634868621826 -0.213693603873253
vertex 16.8644123077393 -17.2777500152588 -0.344622433185577
endloop
endfacet
facet normal 0.189070731401443 0.681444823741913 -0.707025587558746
outer loop
vertex 16.9012260437012 -17.1642093658447 -0.225346624851227
vertex 16.8644123077393 -17.2777500152588 -0.344622433185577
vertex 15.5005216598511 -16.7634868621826 -0.213693603873253
endloop
endfacet
facet normal 0.189070731401443 0.681444883346558 -0.707025587558746
outer loop
vertex 16.8644123077393 -17.2777500152588 -0.344622433185577
vertex 16.9012260437012 -17.1642093658447 -0.225346624851227
vertex 17.9357223510742 -17.5998706817627 -0.368601560592651
endloop
endfacet
facet normal 0.189070731401443 0.681444883346558 -0.707025527954102
outer loop
vertex 17.9771690368652 -17.4720249176025 -0.234297826886177
vertex 17.9357223510742 -17.5998706817627 -0.368601560592651
vertex 16.9012260437012 -17.1642093658447 -0.225346624851227
endloop
endfacet
endsolid COMSOL mesh mesh1
