solid COMSOL mesh mesh1
facet normal -0.0271992813795805 0.999630033969879 0
outer loop
vertex -14.9944505691528 -0.407989233732224 -0.0299999993294477
vertex -14.9944505691528 -0.407989233732224 0.180000007152557
vertex -13.8249235153198 -0.376167178153992 -0.0276600793004036
endloop
endfacet
facet normal -0.0271992832422256 0.999630033969879 -2.35318484711233e-16
outer loop
vertex -13.8249235153198 -0.376167178153992 0.177660077810287
vertex -13.8249235153198 -0.376167178153992 -0.0276600793004036
vertex -14.9944505691528 -0.407989233732224 0.180000007152557
endloop
endfacet
facet normal -0.0271992813795805 0.999630093574524 -2.35318484711233e-16
outer loop
vertex -13.8249235153198 -0.376167178153992 -0.0276600793004036
vertex -13.8249235153198 -0.376167178153992 0.177660077810287
vertex -12.2783679962158 -0.334086418151855 -0.0245658252388239
endloop
endfacet
facet normal -0.0271992832422256 0.999630093574524 3.60313455906545e-17
outer loop
vertex -12.2783679962158 -0.334086418151855 0.174565821886063
vertex -12.2783679962158 -0.334086418151855 -0.0245658252388239
vertex -13.8249235153198 -0.376167178153992 0.177660077810287
endloop
endfacet
facet normal -0.0271992851048708 0.999630033969879 3.60313455906545e-17
outer loop
vertex -12.2783679962158 -0.334086418151855 0.174565821886063
vertex -10.2685699462891 -0.279401123523712 0.170544743537903
vertex -12.2783679962158 -0.334086418151855 -0.0245658252388239
endloop
endfacet
facet normal -0.0271992832422256 0.999630033969879 4.68138169288507e-16
outer loop
vertex -10.2685699462891 -0.279401123523712 -0.0205447413027287
vertex -12.2783679962158 -0.334086418151855 -0.0245658252388239
vertex -10.2685699462891 -0.279401123523712 0.170544743537903
endloop
endfacet
facet normal -0.0271992832422256 0.999630033969879 4.68138222228066e-16
outer loop
vertex -10.2685699462891 -0.279401123523712 -0.0205447413027287
vertex -10.2685699462891 -0.279401123523712 0.170544743537903
vertex -8.14043617248535 -0.22149595618248 -0.0162868965417147
endloop
endfacet
facet normal -0.0271992832422256 0.999630033969879 -3.03935273809544e-16
outer loop
vertex -8.14043617248535 -0.22149595618248 0.166286900639534
vertex -8.14043617248535 -0.22149595618248 -0.0162868965417147
vertex -10.2685699462891 -0.279401123523712 0.170544743537903
endloop
endfacet
facet normal -0.0271992832422256 0.999630033969879 -3.03935273809544e-16
outer loop
vertex -8.14043617248535 -0.22149595618248 0.166286900639534
vertex -6.01230144500732 -0.16359081864357 0.162029057741165
vertex -8.14043617248535 -0.22149595618248 -0.0162868965417147
endloop
endfacet
facet normal -0.0271992832422256 0.999630033969879 5.63481521320431e-17
outer loop
vertex -6.01230144500732 -0.16359081864357 -0.0120290536433458
vertex -8.14043617248535 -0.22149595618248 -0.0162868965417147
vertex -6.01230144500732 -0.16359081864357 0.162029057741165
endloop
endfacet
facet normal -0.0271992832422256 0.999630033969879 5.63481521320431e-17
outer loop
vertex -6.01230144500732 -0.16359081864357 -0.0120290536433458
vertex -6.01230144500732 -0.16359081864357 0.162029057741165
vertex -3.88416719436646 -0.105685666203499 -0.00777120981365442
endloop
endfacet
facet normal -0.0271992832422256 0.999630033969879 -7.87322484603242e-17
outer loop
vertex -3.88416719436646 -0.105685666203499 0.157771214842796
vertex -3.88416719436646 -0.105685666203499 -0.00777120981365442
vertex -6.01230144500732 -0.16359081864357 0.162029057741165
endloop
endfacet
facet normal -0.0271992813795805 0.999630033969879 -7.87322484603242e-17
outer loop
vertex -3.88416719436646 -0.105685666203499 0.157771214842796
vertex -2.1208815574646 -0.0577078089118004 0.154243335127831
vertex -3.88416719436646 -0.105685666203499 -0.00777120981365442
endloop
endfacet
facet normal -0.0271992851048708 0.999630093574524 -3.69655435221372e-17
outer loop
vertex -2.1208815574646 -0.0577078089118004 -0.00424333289265633
vertex -3.88416719436646 -0.105685666203499 -0.00777120981365442
vertex -2.1208815574646 -0.0577078089118004 0.154243335127831
endloop
endfacet
facet normal -0.0271992813795805 0.999630033969879 -3.69655435221372e-17
outer loop
vertex -2.1208815574646 -0.0577078089118004 -0.00424333289265633
vertex -2.1208815574646 -0.0577078089118004 0.154243335127831
vertex -0.877398490905762 -0.0238734409213066 -0.00175544642843306
endloop
endfacet
facet normal -0.0271992832422256 0.999630033969879 -2.33196628300872e-18
outer loop
vertex -0.877398490905762 -0.0238734409213066 0.151755452156067
vertex -0.877398490905762 -0.0238734409213066 -0.00175544642843306
vertex -2.1208815574646 -0.0577078089118004 0.154243335127831
endloop
endfacet
facet normal -0.0271992832422256 0.999630093574524 -2.33196648980388e-18
outer loop
vertex -0.877398490905762 -0.0238734409213066 -0.00175544642843306
vertex -0.877398490905762 -0.0238734409213066 0.151755452156067
vertex 0 0 0
endloop
endfacet
facet normal -0.0271992832422256 0.999630033969879 0
outer loop
vertex 0 0 0.150000005960464
vertex 0 0 0
vertex -0.877398490905762 -0.0238734409213066 0.151755452156067
endloop
endfacet
facet normal 0.00167711998801678 0.0118884118273854 0.999927878379822
outer loop
vertex -13.358811378479 -2.00922441482544 0.196294158697128
vertex -13.3363962173462 -1.98632514476776 0.195984303951263
vertex -14.9944505691528 -0.407989233732224 0.180000007152557
endloop
endfacet
facet normal 0.00167711998801678 0.0118884118273854 0.999927878379822
outer loop
vertex -11.7231712341309 -3.61045980453491 0.212588310241699
vertex -11.6783418655396 -3.56466102600098 0.211968600749969
vertex -13.358811378479 -2.00922441482544 0.196294158697128
endloop
endfacet
facet normal 0.00167711998801678 0.0118884118273854 0.999927878379822
outer loop
vertex -13.3363962173462 -1.98632514476776 0.195984303951263
vertex -13.358811378479 -2.00922441482544 0.196294158697128
vertex -11.6783418655396 -3.56466102600098 0.211968600749969
endloop
endfacet
facet normal 0.00167711998801678 0.0118884118273854 0.999927878379822
outer loop
vertex -11.7231712341309 -3.61045980453491 0.212588310241699
vertex -10.087532043457 -5.21169519424438 0.22888246178627
vertex -11.6783418655396 -3.56466102600098 0.211968600749969
endloop
endfacet
facet normal 0.00167712010443211 0.0118884136900306 0.999927937984467
outer loop
vertex -10.0202875137329 -5.1429967880249 0.227952912449837
vertex -11.6783418655396 -3.56466102600098 0.211968600749969
vertex -10.087532043457 -5.21169519424438 0.22888246178627
endloop
endfacet
facet normal 0.00167711998801678 0.0118884118273854 0.999927878379822
outer loop
vertex -8.4518928527832 -6.8129301071167 0.245176628232002
vertex -8.36223220825195 -6.72133255004883 0.243937209248543
vertex -10.087532043457 -5.21169519424438 0.22888246178627
endloop
endfacet
facet normal 0.00167712010443211 0.0118884136900306 0.999927937984467
outer loop
vertex -10.0202875137329 -5.1429967880249 0.227952912449837
vertex -10.087532043457 -5.21169519424438 0.22888246178627
vertex -8.36223220825195 -6.72133255004883 0.243937209248543
endloop
endfacet
facet normal 0.00167711998801678 0.0118884118273854 0.999927878379822
outer loop
vertex -8.4518928527832 -6.8129301071167 0.245176628232002
vertex -6.81625318527222 -8.41416549682617 0.261470764875412
vertex -8.36223220825195 -6.72133255004883 0.243937209248543
endloop
endfacet
facet normal 0.00167711998801678 0.011888412758708 0.999927937984467
outer loop
vertex -6.70417833328247 -8.29966831207275 0.25992152094841
vertex -8.36223220825195 -6.72133255004883 0.243937209248543
vertex -6.81625318527222 -8.41416549682617 0.261470764875412
endloop
endfacet
facet normal 0.00167711998801678 0.0118884118273854 0.999927937984467
outer loop
vertex -6.81625318527222 -8.41416549682617 0.261470764875412
vertex -5.26927709579468 -9.92860221862793 0.276881664991379
vertex -6.70417833328247 -8.29966831207275 0.25992152094841
endloop
endfacet
facet normal 0.00167711998801678 0.0118884108960629 0.999927878379822
outer loop
vertex -5.13597536087036 -9.79247283935547 0.275039613246918
vertex -6.70417833328247 -8.29966831207275 0.25992152094841
vertex -5.26927709579468 -9.92860221862793 0.276881664991379
endloop
endfacet
facet normal 0.00167712010443211 0.011888412758708 0.999927997589111
outer loop
vertex -5.26927709579468 -9.92860221862793 0.276881664991379
vertex -4.27599000930786 -10.9009962081909 0.286776751279831
vertex -5.13597536087036 -9.79247283935547 0.275039613246918
endloop
endfacet
facet normal 0.00167712010443211 0.0118884118273854 0.999927937984467
outer loop
vertex -4.12908315658569 -10.7509536743164 0.284746438264847
vertex -5.13597536087036 -9.79247283935547 0.275039613246918
vertex -4.27599000930786 -10.9009962081909 0.286776751279831
endloop
endfacet
facet normal -0.707143127918243 0.00982910022139549 0.707002103328705
outer loop
vertex -10.6066265106201 -0.288599401712418 -10.6047296524048
vertex -9.62370109558105 -0.261854648590088 -9.62197971343994
vertex -10.6059446334839 -0.0786124244332314 -10.6069669723511
endloop
endfacet
facet normal -0.707143127918243 0.00982910022139549 0.707002103328705
outer loop
vertex -9.62307357788086 -0.0713272839784622 -9.62400150299072
vertex -10.6059446334839 -0.0786124244332314 -10.6069669723511
vertex -9.62370109558105 -0.261854648590088 -9.62197971343994
endloop
endfacet
facet normal -0.707143127918243 0.00982909929007292 0.707002103328705
outer loop
vertex -9.62370109558105 -0.261854648590088 -9.62197971343994
vertex -8.09284019470215 -0.220200926065445 -8.09139347076416
vertex -9.62307357788086 -0.0713272839784622 -9.62400150299072
endloop
endfacet
facet normal -0.707143127918243 0.00982910022139549 0.707002103328705
outer loop
vertex -8.09233570098877 -0.0599812790751457 -8.09311580657959
vertex -9.62307357788086 -0.0713272839784622 -9.62400150299072
vertex -8.09284019470215 -0.220200926065445 -8.09139347076416
endloop
endfacet
facet normal -0.707143127918243 0.00982910022139549 0.707002103328705
outer loop
vertex -8.09284019470215 -0.220200926065445 -8.09139347076416
vertex -6.47427272796631 -0.176160737872124 -6.47311496734619
vertex -8.09233570098877 -0.0599812790751457 -8.09311580657959
endloop
endfacet
facet normal -0.707143127918243 0.00982909929007292 0.707002103328705
outer loop
vertex -6.47386837005615 -0.0479850247502327 -6.47449254989624
vertex -8.09233570098877 -0.0599812790751457 -8.09311580657959
vertex -6.47427272796631 -0.176160737872124 -6.47311496734619
endloop
endfacet
facet normal -0.707143127918243 0.00982909929007292 0.707002103328705
outer loop
vertex -6.47386837005615 -0.0479850247502327 -6.47449254989624
vertex -6.47427272796631 -0.176160737872124 -6.47311496734619
vertex -4.85540103912354 -0.0359887667000294 -4.85586929321289
endloop
endfacet
facet normal -0.707143187522888 0.00982910022139549 0.707002103328705
outer loop
vertex -4.85570430755615 -0.132120564579964 -4.85483598709106
vertex -4.85540103912354 -0.0359887667000294 -4.85586929321289
vertex -6.47427272796631 -0.176160737872124 -6.47311496734619
endloop
endfacet
facet normal -0.707143187522888 0.00982910022139549 0.707002103328705
outer loop
vertex -4.85570430755615 -0.132120564579964 -4.85483598709106
vertex -3.23713636398315 -0.0880803689360619 -3.2365574836731
vertex -4.85540103912354 -0.0359887667000294 -4.85586929321289
endloop
endfacet
facet normal -0.707143127918243 0.00982909929007292 0.707002103328705
outer loop
vertex -3.23693418502808 -0.0239925123751163 -3.23724627494812
vertex -4.85540103912354 -0.0359887667000294 -4.85586929321289
vertex -3.23713636398315 -0.0880803689360619 -3.2365574836731
endloop
endfacet
facet normal -0.707143127918243 0.00982909929007292 0.707002103328705
outer loop
vertex -3.23693418502808 -0.0239925123751163 -3.23724627494812
vertex -3.23713636398315 -0.0880803689360619 -3.2365574836731
vertex -1.61846709251404 -0.0119962561875582 -1.61862313747406
endloop
endfacet
facet normal -0.707143127918243 0.00982909929007292 0.707002103328705
outer loop
vertex -1.61856818199158 -0.0440401844680309 -1.61827874183655
vertex -1.61846709251404 -0.0119962561875582 -1.61862313747406
vertex -3.23713636398315 -0.0880803689360619 -3.2365574836731
endloop
endfacet
facet normal -0.707143127918243 0.00982909929007292 0.707002103328705
outer loop
vertex -1.61846709251404 -0.0119962561875582 -1.61862313747406
vertex -1.61856818199158 -0.0440401844680309 -1.61827874183655
vertex 0 0 0
endloop
endfacet
facet normal 0.707018733024597 0.0140696307644248 -0.707054853439331
outer loop
vertex -0.142798438668251 -0.00105843774508685 -0.142812207341194
vertex 0 0 0
vertex -0.142218172550201 -0.0334766581654549 -0.14287705719471
endloop
endfacet
facet normal 0.707018733024597 0.0140696307644248 -0.707054853439331
outer loop
vertex 0.000536900479346514 -0.0299951359629631 -5.99978520767763e-05
vertex -0.142218172550201 -0.0334766581654549 -0.14287705719471
vertex 0 0 0
endloop
endfacet
facet normal 0.707018733024597 0.0140696307644248 -0.707054853439331
outer loop
vertex -0.142798438668251 -0.00105843774508685 -0.142812207341194
vertex -0.142218172550201 -0.0334766581654549 -0.14287705719471
vertex -0.380826860666275 -0.00282273069024086 -0.380863577127457
endloop
endfacet
facet normal 0.707018733024597 0.0140696307644248 -0.707054853439331
outer loop
vertex -0.380174309015274 -0.0392799489200115 -0.380936503410339
vertex -0.380826860666275 -0.00282273069024086 -0.380863577127457
vertex -0.142218172550201 -0.0334766581654549 -0.14287705719471
endloop
endfacet
facet normal 0.707018792629242 0.0140696316957474 -0.707054913043976
outer loop
vertex -0.777592599391937 -0.00576360197737813 -0.777667582035065
vertex -0.380826860666275 -0.00282273069024086 -0.380863577127457
vertex -0.7768195271492 -0.0489533618092537 -0.777753949165344
endloop
endfacet
facet normal 0.707018733024597 0.0140696307644248 -0.707054853439331
outer loop
vertex -0.380174309015274 -0.0392799489200115 -0.380936503410339
vertex -0.7768195271492 -0.0489533618092537 -0.777753949165344
vertex -0.380826860666275 -0.00282273069024086 -0.380863577127457
endloop
endfacet
facet normal 0.707018733024597 0.0140696307644248 -0.707054853439331
outer loop
vertex -0.777592599391937 -0.00576360197737813 -0.777667582035065
vertex -0.7768195271492 -0.0489533618092537 -0.777753949165344
vertex -1.43895506858826 -0.0106656923890114 -1.439093708992
endloop
endfacet
facet normal 0.707018733024597 0.0140696316957474 -0.707054853439331
outer loop
vertex -1.43798100948334 -0.0650778189301491 -1.43920254707336
vertex -1.43895506858826 -0.0106656923890114 -1.439093708992
vertex -0.7768195271492 -0.0489533618092537 -0.777753949165344
endloop
endfacet
facet normal 0.707018733024597 0.0140696316957474 -0.707054853439331
outer loop
vertex -2.54136943817139 -0.0188369080424309 -2.54161429405212
vertex -1.43895506858826 -0.0106656923890114 -1.439093708992
vertex -2.54006052017212 -0.0919554159045219 -2.54176068305969
endloop
endfacet
facet normal 0.707018733024597 0.0140696316957474 -0.707054853439331
outer loop
vertex -1.43798100948334 -0.0650778189301491 -1.43920254707336
vertex -2.54006052017212 -0.0919554159045219 -2.54176068305969
vertex -1.43895506858826 -0.0106656923890114 -1.439093708992
endloop
endfacet
facet normal 0.707018733024597 0.0140696316957474 -0.707054913043976
outer loop
vertex -2.54136943817139 -0.0188369080424309 -2.54161429405212
vertex -2.54006052017212 -0.0919554159045219 -2.54176068305969
vertex -4.07204151153564 -0.0301824193447828 -4.07243394851685
endloop
endfacet
facet normal 0.707018733024597 0.0140696307644248 -0.707054853439331
outer loop
vertex -4.07026767730713 -0.129274219274521 -4.07263231277466
vertex -4.07204151153564 -0.0301824193447828 -4.07243394851685
vertex -2.54006052017212 -0.0919554159045219 -2.54176068305969
endloop
endfacet
facet normal 0.707018733024597 0.0140696316957474 -0.707054853439331
outer loop
vertex -4.07204151153564 -0.0301824193447828 -4.07243394851685
vertex -4.07026767730713 -0.129274219274521 -4.07263231277466
vertex -5.61348676681519 -0.041607778519392 -5.61402797698975
endloop
endfacet
facet normal 0.707018733024597 0.0140696316957474 -0.707054793834686
outer loop
vertex -5.61124467849731 -0.166855677962303 -5.6142783164978
vertex -5.61348676681519 -0.041607778519392 -5.61402797698975
vertex -4.07026767730713 -0.129274219274521 -4.07263231277466
endloop
endfacet
facet normal 0.707018733024597 0.0140696316957474 -0.707054793834686
outer loop
vertex -5.61348676681519 -0.041607778519392 -5.61402797698975
vertex -5.61124467849731 -0.166855677962303 -5.6142783164978
vertex -7.15493202209473 -0.0530331395566463 -7.15562152862549
endloop
endfacet
facet normal 0.707018733024597 0.0140696307644248 -0.707054793834686
outer loop
vertex -7.1522216796875 -0.204437136650085 -7.15592479705811
vertex -7.15493202209473 -0.0530331395566463 -7.15562152862549
vertex -5.61124467849731 -0.166855677962303 -5.6142783164978
endloop
endfacet
facet normal 0.707018733024597 0.0140696307644248 -0.707054853439331
outer loop
vertex -8.62866973876953 -0.063956655561924 -8.62950229644775
vertex -7.15493202209473 -0.0530331395566463 -7.15562152862549
vertex -8.62551212310791 -0.240367859601974 -8.62985515594482
endloop
endfacet
facet normal 0.707018733024597 0.0140696298331022 -0.707054793834686
outer loop
vertex -7.1522216796875 -0.204437136650085 -7.15592479705811
vertex -8.62551212310791 -0.240367859601974 -8.62985515594482
vertex -7.15493202209473 -0.0530331395566463 -7.15562152862549
endloop
endfacet
facet normal 0.707018733024597 0.01406963262707 -0.707054853439331
outer loop
vertex -9.76123046875 -0.0723513141274452 -9.76217174530029
vertex -8.62866973876953 -0.063956655561924 -8.62950229644775
vertex -9.75772953033447 -0.267980456352234 -9.76256370544434
endloop
endfacet
facet normal 0.707018733024597 0.0140696316957474 -0.707054853439331
outer loop
vertex -8.62551212310791 -0.240367859601974 -8.62985515594482
vertex -9.75772953033447 -0.267980456352234 -9.76256370544434
vertex -8.62866973876953 -0.063956655561924 -8.62950229644775
endloop
endfacet
facet normal 0.707018733024597 0.0140696307644248 -0.707054853439331
outer loop
vertex -9.76123046875 -0.0723513141274452 -9.76217174530029
vertex -9.75772953033447 -0.267980456352234 -9.76256370544434
vertex -10.6061353683472 -0.0786138400435448 -10.6071586608887
endloop
endfacet
facet normal 0.707018792629242 0.0140696316957474 -0.707054853439331
outer loop
vertex -10.6023769378662 -0.288579791784286 -10.6075782775879
vertex -10.6061353683472 -0.0786138400435448 -10.6071586608887
vertex -9.75772953033447 -0.267980456352234 -9.76256370544434
endloop
endfacet
facet normal -0.312396645545959 -0.949951708316803 -2.03897960798435e-13
outer loop
vertex -1.69058036804199 -17.5087547302246 0.0587882623076439
vertex -1.69058036804199 -17.5087547302246 0.09121173620224
vertex -1.88242924213409 -17.4456634521484 0.0599999986588955
endloop
endfacet
facet normal -0.312396675348282 -0.949951827526093 -0
outer loop
vertex -1.88242924213409 -17.4456634521484 0.0900000035762787
vertex -1.88242924213409 -17.4456634521484 0.0599999986588955
vertex -1.69058036804199 -17.5087547302246 0.09121173620224
endloop
endfacet
facet normal -0.312396645545959 -0.949951767921448 -2.03897974350963e-13
outer loop
vertex -1.69058036804199 -17.5087547302246 0.0587882623076439
vertex -1.37079071998596 -17.6139183044434 0.0567684359848499
vertex -1.69058036804199 -17.5087547302246 0.09121173620224
endloop
endfacet
facet normal -0.312396645545959 -0.949951767921448 1.00166125123046e-13
outer loop
vertex -1.37079071998596 -17.6139183044434 0.0932315662503242
vertex -1.69058036804199 -17.5087547302246 0.09121173620224
vertex -1.37079071998596 -17.6139183044434 0.0567684359848499
endloop
endfacet
facet normal -0.312396645545959 -0.949951708316803 -1.57863183788097e-13
outer loop
vertex -0.837738454341888 -17.7892150878906 0.0534016191959381
vertex -0.837738454341888 -17.7892150878906 0.0965983793139458
vertex -1.37079071998596 -17.6139183044434 0.0567684359848499
endloop
endfacet
facet normal -0.312396645545959 -0.949951767921448 1.00166125123046e-13
outer loop
vertex -1.37079071998596 -17.6139183044434 0.0932315662503242
vertex -1.37079071998596 -17.6139183044434 0.0567684359848499
vertex -0.837738454341888 -17.7892150878906 0.0965983793139458
endloop
endfacet
facet normal -0.312396645545959 -0.949951767921448 -1.57863197340624e-13
outer loop
vertex -0.837738454341888 -17.7892150878906 0.0534016191959381
vertex 0.0507977679371834 -18.0814151763916 0.0477895252406597
vertex -0.837738454341888 -17.7892150878906 0.0965983793139458
endloop
endfacet
facet normal -0.312396705150604 -0.949951827526093 -1.15665005242897e-13
outer loop
vertex 0.0507977679371834 -18.0814151763916 0.102210476994514
vertex -0.837738454341888 -17.7892150878906 0.0965983793139458
vertex 0.0507977679371834 -18.0814151763916 0.0477895252406597
endloop
endfacet
facet normal -0.312396675348282 -0.949951767921448 -1.22322629998207e-13
outer loop
vertex 1.53188443183899 -18.5684776306152 0.0384348183870316
vertex 1.53188443183899 -18.5684776306152 0.111565180122852
vertex 0.0507977679371834 -18.0814151763916 0.0477895252406597
endloop
endfacet
facet normal -0.312396645545959 -0.949951767921448 -1.1566499169037e-13
outer loop
vertex 0.0507977679371834 -18.0814151763916 0.102210476994514
vertex 0.0507977679371834 -18.0814151763916 0.0477895252406597
vertex 1.53188443183899 -18.5684776306152 0.111565180122852
endloop
endfacet
facet normal -0.312396645545959 -0.949951708316803 -1.2232261644568e-13
outer loop
vertex 1.53188443183899 -18.5684776306152 0.0384348183870316
vertex 3.58833289146423 -19.2447528839111 0.0254460629075766
vertex 1.53188443183899 -18.5684776306152 0.111565180122852
endloop
endfacet
facet normal -0.312396615743637 -0.949951708316803 -6.5306104708035e-14
outer loop
vertex 3.58833289146423 -19.2447528839111 0.124553933739662
vertex 1.53188443183899 -18.5684776306152 0.111565180122852
vertex 3.58833289146423 -19.2447528839111 0.0254460629075766
endloop
endfacet
facet normal -0.312396645545959 -0.949951767921448 -6.5306104708035e-14
outer loop
vertex 3.58833289146423 -19.2447528839111 0.0254460629075766
vertex 5.65925455093384 -19.9257869720459 0.0123658925294876
vertex 3.58833289146423 -19.2447528839111 0.124553933739662
endloop
endfacet
facet normal -0.312396645545959 -0.949951767921448 -5.38828896323555e-14
outer loop
vertex 5.65925455093384 -19.9257869720459 0.137634113430977
vertex 3.58833289146423 -19.2447528839111 0.124553933739662
vertex 5.65925455093384 -19.9257869720459 0.0123658925294876
endloop
endfacet
facet normal -0.312396675348282 -0.949951767921448 1.83230950655526e-15
outer loop
vertex 7.73017644882202 -20.606819152832 0.15071427822113
vertex 5.65925455093384 -19.9257869720459 0.137634113430977
vertex 7.73017644882202 -20.606819152832 -0.000714278023224324
endloop
endfacet
facet normal -0.312396645545959 -0.949951767921448 -5.38828896323555e-14
outer loop
vertex 5.65925455093384 -19.9257869720459 0.0123658925294876
vertex 7.73017644882202 -20.606819152832 -0.000714278023224324
vertex 5.65925455093384 -19.9257869720459 0.137634113430977
endloop
endfacet
facet normal -0.312396645545959 -0.949951708316803 1.83230929479703e-15
outer loop
vertex 7.73017644882202 -20.606819152832 0.15071427822113
vertex 7.73017644882202 -20.606819152832 -0.000714278023224324
vertex 9.71013450622559 -21.2579402923584 0.163219913840294
endloop
endfacet
facet normal -0.312396615743637 -0.949951708316803 5.42382707757055e-14
outer loop
vertex 9.71013450622559 -21.2579402923584 -0.0132199116051197
vertex 9.71013450622559 -21.2579402923584 0.163219913840294
vertex 7.73017644882202 -20.606819152832 -0.000714278023224324
endloop
endfacet
facet normal -0.312396645545959 -0.949951767921448 1.15764128426517e-14
outer loop
vertex 11.2317228317261 -21.758321762085 -0.0228304304182529
vertex 11.2317228317261 -21.758321762085 0.172830432653427
vertex 9.71013450622559 -21.2579402923584 -0.0132199116051197
endloop
endfacet
facet normal -0.312396645545959 -0.949951827526093 5.42382741638373e-14
outer loop
vertex 9.71013450622559 -21.2579402923584 0.163219913840294
vertex 9.71013450622559 -21.2579402923584 -0.0132199116051197
vertex 11.2317228317261 -21.758321762085 0.172830432653427
endloop
endfacet
facet normal -0.312396645545959 -0.949951767921448 1.15764111485858e-14
outer loop
vertex 11.2317228317261 -21.758321762085 -0.0228304304182529
vertex 12.366847038269 -22.13161277771 -0.0299999993294477
vertex 11.2317228317261 -21.758321762085 0.172830432653427
endloop
endfacet
facet normal -0.312396645545959 -0.949951708316803 -0
outer loop
vertex 12.366847038269 -22.13161277771 0.180000007152557
vertex 11.2317228317261 -21.758321762085 0.172830432653427
vertex 12.366847038269 -22.13161277771 -0.0299999993294477
endloop
endfacet
facet normal 0.0151597121730447 -0.00478623155504465 0.999873578548431
outer loop
vertex -1.88242924213409 -17.4456634521484 0.0599999986588955
vertex -1.04606533050537 -17.7115612030029 0.0460465513169765
vertex -1.83726847171783 -17.3026237487793 0.0599999986588955
endloop
endfacet
facet normal 0.0151597121730447 -0.00478623155504465 0.999873578548431
outer loop
vertex -0.999847531318665 -17.5651741027832 0.0460465513169765
vertex -1.83726847171783 -17.3026237487793 0.0599999986588955
vertex -1.04606533050537 -17.7115612030029 0.0460465513169765
endloop
endfacet
facet normal 0.0151597131043673 -0.00478623202070594 0.999873578548431
outer loop
vertex -1.04606533050537 -17.7115612030029 0.0460465513169765
vertex 0.139262080192566 -18.0884017944336 0.026271179318428
vertex -0.999847531318665 -17.5651741027832 0.0460465513169765
endloop
endfacet
facet normal 0.0151597131043673 -0.00478623248636723 0.999873638153076
outer loop
vertex 0.186977908015251 -17.9372692108154 0.026271179318428
vertex -0.999847531318665 -17.5651741027832 0.0460465513169765
vertex 0.139262080192566 -18.0884017944336 0.026271179318428
endloop
endfacet
facet normal 0.0151597131043673 -0.00478623202070594 0.999873638153076
outer loop
vertex 1.82008159160614 -18.6227722167969 -0.00177071918733418
vertex 1.86992180347443 -18.4649105072021 -0.00177071918733418
vertex 0.139262080192566 -18.0884017944336 0.026271179318428
endloop
endfacet
facet normal 0.0151597131043673 -0.00478623202070594 0.999873697757721
outer loop
vertex 0.186977908015251 -17.9372692108154 0.026271179318428
vertex 0.139262080192566 -18.0884017944336 0.026271179318428
vertex 1.86992180347443 -18.4649105072021 -0.00177071918733418
endloop
endfacet
facet normal 0.0151597140356898 -0.00478623202070594 0.999873638153076
outer loop
vertex 1.82008159160614 -18.6227722167969 -0.00177071918733418
vertex 3.8486864566803 -19.267707824707 -0.0356148816645145
vertex 1.86992180347443 -18.4649105072021 -0.00177071918733418
endloop
endfacet
facet normal 0.0151597131043673 -0.00478623202070594 0.999873638153076
outer loop
vertex 3.90109038352966 -19.1017265319824 -0.0356148816645145
vertex 1.86992180347443 -18.4649105072021 -0.00177071918733418
vertex 3.8486864566803 -19.267707824707 -0.0356148816645145
endloop
endfacet
facet normal 0.0151597131043673 -0.00478623202070594 0.999873638153076
outer loop
vertex 3.8486864566803 -19.267707824707 -0.0356148816645145
vertex 5.87729120254517 -19.9126453399658 -0.069459043443203
vertex 3.90109038352966 -19.1017265319824 -0.0356148816645145
endloop
endfacet
facet normal 0.0151597131043673 -0.00478623202070594 0.999873638153076
outer loop
vertex 5.93225908279419 -19.7385425567627 -0.069459043443203
vertex 3.90109038352966 -19.1017265319824 -0.0356148816645145
vertex 5.87729120254517 -19.9126453399658 -0.069459043443203
endloop
endfacet
facet normal 0.0151597131043673 -0.00478623202070594 0.999873638153076
outer loop
vertex 5.87729120254517 -19.9126453399658 -0.069459043443203
vertex 7.90589570999146 -20.5575828552246 -0.103303201496601
vertex 5.93225908279419 -19.7385425567627 -0.069459043443203
endloop
endfacet
facet normal 0.0151597140356898 -0.00478623202070594 0.999873638153076
outer loop
vertex 7.96342754364014 -20.375358581543 -0.103303201496601
vertex 5.93225908279419 -19.7385425567627 -0.069459043443203
vertex 7.90589570999146 -20.5575828552246 -0.103303201496601
endloop
endfacet
facet normal 0.0151597112417221 -0.00478623155504465 0.999873578548431
outer loop
vertex 9.82169914245605 -21.1666584014893 -0.135265439748764
vertex 9.88165187835693 -20.9767646789551 -0.135265439748764
vertex 7.90589570999146 -20.5575828552246 -0.103303201496601
endloop
endfacet
facet normal 0.0151597121730447 -0.00478623202070594 0.999873638153076
outer loop
vertex 7.96342754364014 -20.375358581543 -0.103303201496601
vertex 7.90589570999146 -20.5575828552246 -0.103303201496601
vertex 9.88165187835693 -20.9767646789551 -0.135265439748764
endloop
endfacet
facet normal 0.0151597131043673 -0.00478623202070594 0.999873638153076
outer loop
vertex 11.2959241867065 -21.6353454589844 -0.159860625863075
vertex 11.3577404022217 -21.4395523071289 -0.159860625863075
vertex 9.82169914245605 -21.1666584014893 -0.135265439748764
endloop
endfacet
facet normal 0.0151597121730447 -0.00478623155504465 0.999873578548431
outer loop
vertex 9.88165187835693 -20.9767646789551 -0.135265439748764
vertex 9.82169914245605 -21.1666584014893 -0.135265439748764
vertex 11.3577404022217 -21.4395523071289 -0.159860625863075
endloop
endfacet
facet normal 0.0151597140356898 -0.00478623248636723 0.999873638153076
outer loop
vertex 11.2959241867065 -21.6353454589844 -0.159860625863075
vertex 12.4107542037964 -21.9897747039795 -0.178459867835045
vertex 11.3577404022217 -21.4395523071289 -0.159860625863075
endloop
endfacet
facet normal 0.0151597121730447 -0.00478623202070594 0.999873578548431
outer loop
vertex 12.4739789962769 -21.7895183563232 -0.178459867835045
vertex 11.3577404022217 -21.4395523071289 -0.159860625863075
vertex 12.4107542037964 -21.9897747039795 -0.178459867835045
endloop
endfacet
facet normal -0.224941208958626 -0.670433878898621 -0.707050144672394
outer loop
vertex 12.4121294021606 -21.9902019500732 -0.178488552570343
vertex 12.3665904998779 -22.1315288543701 -0.0299920085817575
vertex 11.0874538421631 -21.5690593719482 -0.156387850642204
endloop
endfacet
facet normal -0.224941208958626 -0.670433878898621 -0.707050144672394
outer loop
vertex 11.0461235046387 -21.697286605835 -0.0216523855924606
vertex 11.0874538421631 -21.5690593719482 -0.156387850642204
vertex 12.3665904998779 -22.1315288543701 -0.0299920085817575
endloop
endfacet
facet normal -0.224941179156303 -0.670433759689331 -0.707050144672394
outer loop
vertex 11.0874538421631 -21.5690593719482 -0.156387850642204
vertex 11.0461235046387 -21.697286605835 -0.0216523855924606
vertex 9.02431488037109 -20.9131450653076 -0.121966704726219
endloop
endfacet
facet normal -0.224941194057465 -0.670433878898621 -0.707050144672394
outer loop
vertex 8.98958873748779 -21.0209846496582 -0.00866400357335806
vertex 9.02431488037109 -20.9131450653076 -0.121966704726219
vertex 11.0461235046387 -21.697286605835 -0.0216523855924606
endloop
endfacet
facet normal -0.224941194057465 -0.670433759689331 -0.707050144672394
outer loop
vertex 9.02431488037109 -20.9131450653076 -0.121966704726219
vertex 8.98958873748779 -21.0209846496582 -0.00866400357335806
vertex 6.84296607971191 -20.2196483612061 -0.0855733603239059
endloop
endfacet
facet normal -0.224941223859787 -0.670433878898621 -0.707050144672394
outer loop
vertex 6.81518507003784 -20.3059196472168 0.00506879715248942
vertex 6.84296607971191 -20.2196483612061 -0.0855733603239059
vertex 8.98958873748779 -21.0209846496582 -0.00866400357335806
endloop
endfacet
facet normal -0.224941223859787 -0.670433878898621 -0.707050144672394
outer loop
vertex 6.81518507003784 -20.3059196472168 0.00506879715248942
vertex 4.64078140258789 -19.590856552124 0.0188015978783369
vertex 6.84296607971191 -20.2196483612061 -0.0855733603239059
endloop
endfacet
facet normal -0.224941194057465 -0.670433819293976 -0.707050204277039
outer loop
vertex 4.66161727905273 -19.5261516571045 -0.0491800233721733
vertex 6.84296607971191 -20.2196483612061 -0.0855733603239059
vertex 4.64078140258789 -19.590856552124 0.0188015978783369
endloop
endfacet
facet normal -0.224941194057465 -0.670433819293976 -0.707050204277039
outer loop
vertex 4.66161727905273 -19.5261516571045 -0.0491800233721733
vertex 4.64078140258789 -19.590856552124 0.0188015978783369
vertex 2.48026847839355 -18.8326549530029 -0.0127866808325052
endloop
endfacet
facet normal -0.224941223859787 -0.670433878898621 -0.707050144672394
outer loop
vertex 2.46637797355652 -18.8757915496826 0.0325343981385231
vertex 2.48026847839355 -18.8326549530029 -0.0127866808325052
vertex 4.64078140258789 -19.590856552124 0.0188015978783369
endloop
endfacet
facet normal -0.224941223859787 -0.670433878898621 -0.707050144672394
outer loop
vertex 2.46637797355652 -18.8757915496826 0.0325343981385231
vertex 0.291974395513535 -18.1607284545898 0.0462672002613544
vertex 2.48026847839355 -18.8326549530029 -0.0127866808325052
endloop
endfacet
facet normal -0.224941223859787 -0.670433878898621 -0.707050144672394
outer loop
vertex 0.29891961812973 -18.13916015625 0.0236066598445177
vertex 2.48026847839355 -18.8326549530029 -0.0127866808325052
vertex 0.291974395513535 -18.1607284545898 0.0462672002613544
endloop
endfacet
facet normal -0.224941223859787 -0.670433878898621 -0.707050144672394
outer loop
vertex 0.291974395513535 -18.1607284545898 0.0462672002613544
vertex -1.88242924213409 -17.4456634521484 0.0599999986588955
vertex 0.29891961812973 -18.13916015625 0.0236066598445177
endloop
endfacet
facet normal -0.953248739242554 0.300960153341293 0.0271992813795805
outer loop
vertex -1.43917715549469 -17.3968486785889 15.0844507217407
vertex -1.47022724151611 -17.3894996643066 13.9149236679077
vertex -1.50240218639374 -17.5971050262451 15.0844507217407
endloop
endfacet
facet normal -0.953248798847198 0.300960183143616 0.0271992832422256
outer loop
vertex -1.53204321861267 -17.5852928161621 13.9149236679077
vertex -1.50240218639374 -17.5971050262451 15.0844507217407
vertex -1.47022724151611 -17.3894996643066 13.9149236679077
endloop
endfacet
facet normal -0.953248798847198 0.300960153341293 0.0271992813795805
outer loop
vertex -1.53204321861267 -17.5852928161621 13.9149236679077
vertex -1.47022724151611 -17.3894996643066 13.9149236679077
vertex -1.57123994827271 -17.569673538208 12.3683681488037
endloop
endfacet
facet normal -0.953248739242554 0.300960153341293 0.0271992832422256
outer loop
vertex -1.51128709316254 -17.3797817230225 12.3683681488037
vertex -1.57123994827271 -17.569673538208 12.3683681488037
vertex -1.47022724151611 -17.3894996643066 13.9149236679077
endloop
endfacet
facet normal -0.953248798847198 0.300960183143616 0.0271992851048708
outer loop
vertex -1.57123994827271 -17.569673538208 12.3683681488037
vertex -1.51128709316254 -17.3797817230225 12.3683681488037
vertex -1.62217736244202 -17.5493755340576 10.358570098877
endloop
endfacet
facet normal -0.953248739242554 0.300960153341293 0.0271992813795805
outer loop
vertex -1.56464564800262 -17.367151260376 10.358570098877
vertex -1.62217736244202 -17.5493755340576 10.358570098877
vertex -1.51128709316254 -17.3797817230225 12.3683681488037
endloop
endfacet
facet normal -0.953248739242554 0.300960153341293 0.0271992813795805
outer loop
vertex -1.56464564800262 -17.367151260376 10.358570098877
vertex -1.62114608287811 -17.3537788391113 8.23043537139893
vertex -1.62217736244202 -17.5493755340576 10.358570098877
endloop
endfacet
facet normal -0.953248739242554 0.300960183143616 0.0271992832422256
outer loop
vertex -1.67611384391785 -17.5278816223145 8.23043537139893
vertex -1.62217736244202 -17.5493755340576 10.358570098877
vertex -1.62114608287811 -17.3537788391113 8.23043537139893
endloop
endfacet
facet normal -0.953248739242554 0.300960183143616 0.0271992832422256
outer loop
vertex -1.62114608287811 -17.3537788391113 8.23043537139893
vertex -1.67764639854431 -17.340404510498 6.10230159759521
vertex -1.67611384391785 -17.5278816223145 8.23043537139893
endloop
endfacet
facet normal -0.953248739242554 0.300960153341293 0.0271992832422256
outer loop
vertex -1.73005032539368 -17.5063877105713 6.10230159759521
vertex -1.67611384391785 -17.5278816223145 8.23043537139893
vertex -1.67764639854431 -17.340404510498 6.10230159759521
endloop
endfacet
facet normal -0.953248739242554 0.300960153341293 0.0271992832422256
outer loop
vertex -1.67764639854431 -17.340404510498 6.10230159759521
vertex -1.7341468334198 -17.3270320892334 3.97416734695435
vertex -1.73005032539368 -17.5063877105713 6.10230159759521
endloop
endfacet
facet normal -0.953248739242554 0.300960153341293 0.0271992832422256
outer loop
vertex -1.7839869260788 -17.4848937988281 3.97416734695435
vertex -1.73005032539368 -17.5063877105713 6.10230159759521
vertex -1.7341468334198 -17.3270320892334 3.97416734695435
endloop
endfacet
facet normal -0.953248739242554 0.300960153341293 0.0271992813795805
outer loop
vertex -1.7839869260788 -17.4848937988281 3.97416734695435
vertex -1.7341468334198 -17.3270320892334 3.97416734695435
vertex -1.82867646217346 -17.4670848846436 2.21088171005249
endloop
endfacet
facet normal -0.953248739242554 0.300960183143616 0.0271992851048708
outer loop
vertex -1.78096067905426 -17.3159503936768 2.21088171005249
vertex -1.82867646217346 -17.4670848846436 2.21088171005249
vertex -1.7341468334198 -17.3270320892334 3.97416734695435
endloop
endfacet
facet normal -0.953248739242554 0.300960153341293 0.0271992832422256
outer loop
vertex -1.78096067905426 -17.3159503936768 2.21088171005249
vertex -1.81397426128387 -17.3081359863281 0.967398464679718
vertex -1.82867646217346 -17.4670848846436 2.21088171005249
endloop
endfacet
facet normal -0.953248739242554 0.300960153341293 0.0271992832422256
outer loop
vertex -1.86019194126129 -17.4545249938965 0.967398464679718
vertex -1.82867646217346 -17.4670848846436 2.21088171005249
vertex -1.81397426128387 -17.3081359863281 0.967398464679718
endloop
endfacet
facet normal -0.953248739242554 0.300960123538971 0.0271992795169353
outer loop
vertex -1.81397426128387 -17.3081359863281 0.967398464679718
vertex -1.83726847171783 -17.3026237487793 0.0900000035762787
vertex -1.86019194126129 -17.4545249938965 0.967398464679718
endloop
endfacet
facet normal -0.953248798847198 0.300960153341293 0.0271992832422256
outer loop
vertex -1.88242924213409 -17.4456634521484 0.0900000035762787
vertex -1.86019194126129 -17.4545249938965 0.967398464679718
vertex -1.83726847171783 -17.3026237487793 0.0900000035762787
endloop
endfacet
facet normal 0.199457287788391 0.678484618663788 -0.707018792629242
outer loop
vertex 1.63156163692474 -7.27410316467285 10.6923770904541
vertex 1.35750818252563 -8.07370853424072 9.84772968292236
vertex 1.43121135234833 -7.2112889289856 10.6961355209351
endloop
endfacet
facet normal 0.19945727288723 0.678484559059143 -0.707018733024597
outer loop
vertex 1.17083811759949 -8.0151834487915 9.85123062133789
vertex 1.43121135234833 -7.2112889289856 10.6961355209351
vertex 1.35750818252563 -8.07370853424072 9.84772968292236
endloop
endfacet
facet normal 0.199457287788391 0.678484618663788 -0.707018733024597
outer loop
vertex 1.17083811759949 -8.0151834487915 9.85123062133789
vertex 1.35750818252563 -8.07370853424072 9.84772968292236
vertex 0.821818292140961 -9.09277248382568 8.71866989135742
endloop
endfacet
facet normal 0.19945727288723 0.678484559059143 -0.707018733024597
outer loop
vertex 0.990150511264801 -9.14554786682129 8.7155122756958
vertex 0.821818292140961 -9.09277248382568 8.71866989135742
vertex 1.35750818252563 -8.07370853424072 9.84772968292236
endloop
endfacet
facet normal 0.199457257986069 0.678484559059143 -0.707018733024597
outer loop
vertex 0.821818292140961 -9.09277248382568 8.71866989135742
vertex 0.990150511264801 -9.14554786682129 8.7155122756958
vertex 0.367658138275146 -10.4949779510498 7.24493169784546
endloop
endfacet
facet normal 0.19945727288723 0.678484499454498 -0.707018733024597
outer loop
vertex 0.512128412723541 -10.5402727127075 7.24222183227539
vertex 0.367658138275146 -10.4949779510498 7.24493169784546
vertex 0.990150511264801 -9.14554786682129 8.7155122756958
endloop
endfacet
facet normal 0.19945727288723 0.678484559059143 -0.707018733024597
outer loop
vertex 0.512128412723541 -10.5402727127075 7.24222183227539
vertex 0.0121448766440153 -11.9990739822388 5.70124483108521
vertex 0.367658138275146 -10.4949779510498 7.24493169784546
endloop
endfacet
facet normal 0.19945727288723 0.678484559059143 -0.707018733024597
outer loop
vertex -0.107367143034935 -11.9616041183472 5.70348644256592
vertex 0.367658138275146 -10.4949779510498 7.24493169784546
vertex 0.0121448766440153 -11.9990739822388 5.70124483108521
endloop
endfacet
facet normal 0.19945727288723 0.678484559059143 -0.707018733024597
outer loop
vertex -0.582392394542694 -13.4282302856445 4.16204166412354
vertex -0.107367143034935 -11.9616041183472 5.70348644256592
vertex -0.48783865571022 -13.45787525177 4.16026782989502
endloop
endfacet
facet normal 0.19945727288723 0.678484559059143 -0.707018733024597
outer loop
vertex 0.0121448766440153 -11.9990739822388 5.70124483108521
vertex -0.48783865571022 -13.45787525177 4.16026782989502
vertex -0.107367143034935 -11.9616041183472 5.70348644256592
endloop
endfacet
facet normal 0.19945727288723 0.678484559059143 -0.707018733024597
outer loop
vertex -0.48783865571022 -13.45787525177 4.16026782989502
vertex -0.984327852725983 -14.9064817428589 2.63006043434143
vertex -0.582392394542694 -13.4282302856445 4.16204166412354
endloop
endfacet
facet normal 0.199457287788391 0.678484559059143 -0.707018733024597
outer loop
vertex -1.05409777164459 -14.8846073150635 2.6313693523407
vertex -0.582392394542694 -13.4282302856445 4.16204166412354
vertex -0.984327852725983 -14.9064817428589 2.63006043434143
endloop
endfacet
facet normal 0.19945727288723 0.678484559059143 -0.707018673419952
outer loop
vertex -1.05409777164459 -14.8846073150635 2.6313693523407
vertex -0.984327852725983 -14.9064817428589 2.63006043434143
vertex -1.39382743835449 -15.9335126876831 1.52895498275757
endloop
endfacet
facet normal 0.19945727288723 0.678484559059143 -0.707018733024597
outer loop
vertex -1.34190726280212 -15.9497900009155 1.52798104286194
vertex -1.39382743835449 -15.9335126876831 1.52895498275757
vertex -0.984327852725983 -14.9064817428589 2.63006043434143
endloop
endfacet
facet normal 0.19945727288723 0.678484559059143 -0.707018733024597
outer loop
vertex -1.34190726280212 -15.9497900009155 1.52798104286194
vertex -1.55642688274384 -16.5756950378418 0.866819500923157
vertex -1.39382743835449 -15.9335126876831 1.52895498275757
endloop
endfacet
facet normal 0.19945727288723 0.678484559059143 -0.707018733024597
outer loop
vertex -1.59763872623444 -16.5627727508545 0.867592632770538
vertex -1.39382743835449 -15.9335126876831 1.52895498275757
vertex -1.55642688274384 -16.5756950378418 0.866819500923157
endloop
endfacet
facet normal 0.19945727288723 0.678484559059143 -0.707018733024597
outer loop
vertex -1.59763872623444 -16.5627727508545 0.867592632770538
vertex -1.55642688274384 -16.5756950378418 0.866819500923157
vertex -1.71990954875946 -16.9402809143066 0.470826864242554
endloop
endfacet
facet normal 0.199457257986069 0.678484559059143 -0.707018733024597
outer loop
vertex -1.68512189388275 -16.9511871337891 0.47017428278923
vertex -1.71990954875946 -16.9402809143066 0.470826864242554
vertex -1.55642688274384 -16.5756950378418 0.866819500923157
endloop
endfacet
facet normal 0.19945727288723 0.678484559059143 -0.707018733024597
outer loop
vertex -1.68512189388275 -16.9511871337891 0.47017428278923
vertex -1.76232886314392 -17.1764545440674 0.23221817612648
vertex -1.71990954875946 -16.9402809143066 0.470826864242554
endloop
endfacet
facet normal 0.19945727288723 0.678484559059143 -0.707018733024597
outer loop
vertex -1.79326248168945 -17.1667556762695 0.23279844224453
vertex -1.71990954875946 -16.9402809143066 0.470826864242554
vertex -1.76232886314392 -17.1764545440674 0.23221817612648
endloop
endfacet
facet normal 0.19945727288723 0.678484559059143 -0.707018733024597
outer loop
vertex -1.79326248168945 -17.1667556762695 0.23279844224453
vertex -1.76232886314392 -17.1764545440674 0.23221817612648
vertex -1.83726847171783 -17.3026237487793 0.0900000035762787
endloop
endfacet
facet normal 0.199457287788391 0.678484559059143 -0.707018733024597
outer loop
vertex -1.80864703655243 -17.311595916748 0.0894630998373032
vertex -1.83726847171783 -17.3026237487793 0.0900000035762787
vertex -1.76232886314392 -17.1764545440674 0.23221817612648
endloop
endfacet
facet normal -0.222231268882751 -0.671239018440247 0.707143127918243
outer loop
vertex 1.63072276115417 -7.27682542800903 10.696626663208
vertex 1.43115258216858 -7.21147060394287 10.6959447860718
vertex 1.3093409538269 -8.20592498779297 9.71370124816895
endloop
endfacet
facet normal -0.22223125398159 -0.671239018440247 0.707143127918243
outer loop
vertex 1.12826240062714 -8.14663505554199 9.71307373046875
vertex 1.3093409538269 -8.20592498779297 9.71370124816895
vertex 1.43115258216858 -7.21147060394287 10.6959447860718
endloop
endfacet
facet normal -0.22223125398159 -0.671239018440247 0.707143127918243
outer loop
vertex 1.3093409538269 -8.20592498779297 9.71370124816895
vertex 1.12826240062714 -8.14663505554199 9.71307373046875
vertex 0.808803856372833 -9.6529541015625 8.18284034729004
endloop
endfacet
facet normal -0.222231268882751 -0.671239018440247 0.707143127918243
outer loop
vertex 0.656536638736725 -9.6030740737915 8.18233585357666
vertex 0.808803856372833 -9.6529541015625 8.18284034729004
vertex 1.12826240062714 -8.14663505554199 9.71307373046875
endloop
endfacet
facet normal -0.22223125398159 -0.671239078044891 0.707143127918243
outer loop
vertex 0.808803856372833 -9.6529541015625 8.18284034729004
vertex 0.656536638736725 -9.6030740737915 8.18233585357666
vertex 0.279589414596558 -11.1828880310059 6.56427240371704
endloop
endfacet
facet normal -0.22223125398159 -0.671239018440247 0.707143127918243
outer loop
vertex 0.15777562558651 -11.1429843902588 6.56386852264404
vertex 0.279589414596558 -11.1828880310059 6.56427240371704
vertex 0.656536638736725 -9.6030740737915 8.18233585357666
endloop
endfacet
facet normal -0.22223125398159 -0.671239018440247 0.707143127918243
outer loop
vertex 0.15777562558651 -11.1429843902588 6.56386852264404
vertex -0.340985387563705 -12.6828937530518 4.94540119171143
vertex 0.279589414596558 -11.1828880310059 6.56427240371704
endloop
endfacet
facet normal -0.222231268882751 -0.671239078044891 0.707143187522888
outer loop
vertex -0.249625071883202 -12.7128219604492 4.94570446014404
vertex 0.279589414596558 -11.1828880310059 6.56427240371704
vertex -0.340985387563705 -12.6828937530518 4.94540119171143
endloop
endfacet
facet normal -0.222231268882751 -0.671239078044891 0.707143187522888
outer loop
vertex -0.249625071883202 -12.7128219604492 4.94570446014404
vertex -0.340985387563705 -12.6828937530518 4.94540119171143
vertex -0.778839528560638 -14.2427558898926 3.32713627815247
endloop
endfacet
facet normal -0.22223125398159 -0.671239018440247 0.707143127918243
outer loop
vertex -0.839746415615082 -14.2228031158447 3.32693409919739
vertex -0.778839528560638 -14.2427558898926 3.32713627815247
vertex -0.340985387563705 -12.6828937530518 4.94540119171143
endloop
endfacet
facet normal -0.22223125398159 -0.671239018440247 0.707143127918243
outer loop
vertex -0.839746415615082 -14.2228031158447 3.32693409919739
vertex -1.33850741386414 -15.762713432312 1.70846712589264
vertex -0.778839528560638 -14.2427558898926 3.32713627815247
endloop
endfacet
facet normal -0.22223125398159 -0.671239018440247 0.707143127918243
outer loop
vertex -1.30805397033691 -15.7726888656616 1.70856809616089
vertex -0.778839528560638 -14.2427558898926 3.32713627815247
vertex -1.33850741386414 -15.762713432312 1.70846712589264
endloop
endfacet
facet normal -0.22223125398159 -0.671239018440247 0.707143127918243
outer loop
vertex -1.33850741386414 -15.762713432312 1.70846712589264
vertex -1.83726847171783 -17.3026237487793 0.0900000035762787
vertex -1.30805397033691 -15.7726888656616 1.70856809616089
endloop
endfacet
facet normal -0.31238666176796 -0.949953496456146 -0.00167711998801678
outer loop
vertex 0.0196325518190861 -18.0947303771973 13.4488105773926
vertex -1.50240218639374 -17.5971050262451 15.0844507217407
vertex -0.0021110821980983 -18.0875396728516 13.4263963699341
endloop
endfacet
facet normal -0.31238666176796 -0.949953496456146 -0.00167711998801678
outer loop
vertex -0.0021110821980983 -18.0875396728516 13.4263963699341
vertex 1.49818003177643 -18.577974319458 11.7683420181274
vertex 0.0196325518190861 -18.0947303771973 13.4488105773926
endloop
endfacet
facet normal -0.31238666176796 -0.949953496456146 -0.00167711998801678
outer loop
vertex 1.54166734218597 -18.5923538208008 11.8131713867188
vertex 0.0196325518190861 -18.0947303771973 13.4488105773926
vertex 1.49818003177643 -18.577974319458 11.7683420181274
endloop
endfacet
facet normal -0.31238666176796 -0.949953496456146 -0.00167711998801678
outer loop
vertex 1.49818003177643 -18.577974319458 11.7683420181274
vertex 2.99847102165222 -19.0684089660645 10.1102867126465
vertex 1.54166734218597 -18.5923538208008 11.8131713867188
endloop
endfacet
facet normal -0.312386631965637 -0.949953556060791 -0.00167711998801678
outer loop
vertex 3.06370210647583 -19.0899791717529 10.1775321960449
vertex 1.54166734218597 -18.5923538208008 11.8131713867188
vertex 2.99847102165222 -19.0684089660645 10.1102867126465
endloop
endfacet
facet normal -0.312386631965637 -0.949953556060791 -0.00167711998801678
outer loop
vertex 2.99847102165222 -19.0684089660645 10.1102867126465
vertex 4.4987621307373 -19.5588436126709 8.45223236083984
vertex 3.06370210647583 -19.0899791717529 10.1775321960449
endloop
endfacet
facet normal -0.31238666176796 -0.949953496456146 -0.00167711998801678
outer loop
vertex 4.5857367515564 -19.5876026153564 8.54189300537109
vertex 3.06370210647583 -19.0899791717529 10.1775321960449
vertex 4.4987621307373 -19.5588436126709 8.45223236083984
endloop
endfacet
facet normal -0.31238666176796 -0.949953496456146 -0.00167711998801678
outer loop
vertex 4.5857367515564 -19.5876026153564 8.54189300537109
vertex 4.4987621307373 -19.5588436126709 8.45223236083984
vertex 6.10777139663696 -20.0852279663086 6.90625333786011
endloop
endfacet
facet normal -0.31238666176796 -0.949953556060791 -0.00167711998801678
outer loop
vertex 5.99905347824097 -20.0492782592773 6.7941780090332
vertex 6.10777139663696 -20.0852279663086 6.90625333786011
vertex 4.4987621307373 -19.5588436126709 8.45223236083984
endloop
endfacet
facet normal -0.312386631965637 -0.949953556060791 -0.00167711998801678
outer loop
vertex 6.10777139663696 -20.0852279663086 6.90625333786011
vertex 5.99905347824097 -20.0492782592773 6.7941780090332
vertex 7.54730081558228 -20.5558776855469 5.35927724838257
endloop
endfacet
facet normal -0.312386631965637 -0.949953556060791 -0.00167711998801678
outer loop
vertex 7.41804218292236 -20.5131359100342 5.22597551345825
vertex 7.54730081558228 -20.5558776855469 5.35927724838257
vertex 5.99905347824097 -20.0492782592773 6.7941780090332
endloop
endfacet
facet normal -0.312386721372604 -0.949953675270081 -0.00167712022084743
outer loop
vertex 7.54730081558228 -20.5558776855469 5.35927724838257
vertex 7.41804218292236 -20.5131359100342 5.22597551345825
vertex 8.47159862518311 -20.8580741882324 4.36599016189575
endloop
endfacet
facet normal -0.31238666176796 -0.949953556060791 -0.00167712010443211
outer loop
vertex 8.32912921905518 -20.8109645843506 4.21908330917358
vertex 8.47159862518311 -20.8580741882324 4.36599016189575
vertex 7.41804218292236 -20.5131359100342 5.22597551345825
endloop
endfacet
facet normal -1 0 0
outer loop
vertex -0.238490000367165 -16 -0.0299999993294477
vertex -0.238490000367165 -16 0.180000007152557
vertex -0.238490000367165 -15 -0.0299999993294477
endloop
endfacet
facet normal -1 -0 -0
outer loop
vertex -0.238490000367165 -15 0.180000007152557
vertex -0.238490000367165 -15 -0.0299999993294477
vertex -0.238490000367165 -16 0.180000007152557
endloop
endfacet
facet normal -0.70710676908493 -0 -0.70710676908493
outer loop
vertex -0.0900000035762787 -15 -0.178489997982979
vertex -0.0900000035762787 -16 -0.178489997982979
vertex -0.238490000367165 -15 -0.0299999993294477
endloop
endfacet
facet normal -0.70710676908493 0 -0.70710676908493
outer loop
vertex -0.238490000367165 -16 -0.0299999993294477
vertex -0.238490000367165 -15 -0.0299999993294477
vertex -0.0900000035762787 -16 -0.178489997982979
endloop
endfacet
facet normal -0.70710676908493 0 0.70710676908493
outer loop
vertex -0.238490000367165 -15 0.180000007152557
vertex -0.238490000367165 -16 0.180000007152557
vertex -0.0900000035762787 -15 0.328489989042282
endloop
endfacet
facet normal -0.70710676908493 0 0.70710676908493
outer loop
vertex -0.0900000035762787 -16 0.328489989042282
vertex -0.0900000035762787 -15 0.328489989042282
vertex -0.238490000367165 -16 0.180000007152557
endloop
endfacet
facet normal -0 -0 -1
outer loop
vertex 0.119999997317791 -15 -0.178489997982979
vertex 0.119999997317791 -16 -0.178489997982979
vertex -0.0900000035762787 -15 -0.178489997982979
endloop
endfacet
facet normal 0 0 -1
outer loop
vertex -0.0900000035762787 -16 -0.178489997982979
vertex -0.0900000035762787 -15 -0.178489997982979
vertex 0.119999997317791 -16 -0.178489997982979
endloop
endfacet
facet normal 0 -0 1
outer loop
vertex 0.119999997317791 -16 0.328489989042282
vertex 0.119999997317791 -15 0.328489989042282
vertex -0.0900000035762787 -16 0.328489989042282
endloop
endfacet
facet normal -0 0 1
outer loop
vertex -0.0900000035762787 -15 0.328489989042282
vertex -0.0900000035762787 -16 0.328489989042282
vertex 0.119999997317791 -15 0.328489989042282
endloop
endfacet
facet normal 0.70710676908493 0 -0.70710676908493
outer loop
vertex 0.119999997317791 -16 -0.178489997982979
vertex 0.119999997317791 -15 -0.178489997982979
vertex 0.268489986658096 -16 -0.0299999993294477
endloop
endfacet
facet normal 0.70710676908493 0 -0.70710676908493
outer loop
vertex 0.268489986658096 -15 -0.0299999993294477
vertex 0.268489986658096 -16 -0.0299999993294477
vertex 0.119999997317791 -15 -0.178489997982979
endloop
endfacet
facet normal 0.70710676908493 -0 0.70710676908493
outer loop
vertex 0.268489986658096 -16 0.180000007152557
vertex 0.268489986658096 -15 0.180000007152557
vertex 0.119999997317791 -16 0.328489989042282
endloop
endfacet
facet normal 0.70710676908493 0 0.70710676908493
outer loop
vertex 0.119999997317791 -15 0.328489989042282
vertex 0.119999997317791 -16 0.328489989042282
vertex 0.268489986658096 -15 0.180000007152557
endloop
endfacet
facet normal 1 0 -0
outer loop
vertex 0.268489986658096 -15 -0.0299999993294477
vertex 0.268489986658096 -15 0.180000007152557
vertex 0.268489986658096 -16 -0.0299999993294477
endloop
endfacet
facet normal 1 -0 0
outer loop
vertex 0.268489986658096 -16 0.180000007152557
vertex 0.268489986658096 -16 -0.0299999993294477
vertex 0.268489986658096 -15 0.180000007152557
endloop
endfacet
facet normal -0 0.0118984906002879 0.999929189682007
outer loop
vertex -0.0900000035762787 -14.9989385604858 0.32847735285759
vertex 0.119999997317791 -14.9989385604858 0.32847735285759
vertex -0.0828304290771484 -13.8040943145752 0.31425952911377
endloop
endfacet
facet normal 0 0.0118984915316105 0.999929249286652
outer loop
vertex 0.112830430269241 -13.8040943145752 0.31425952911377
vertex -0.0828304290771484 -13.8040943145752 0.31425952911377
vertex 0.119999997317791 -14.9989385604858 0.32847735285759
endloop
endfacet
facet normal 0 0.0118984915316105 0.999929249286652
outer loop
vertex 0.112830430269241 -13.8040943145752 0.31425952911377
vertex 0.103219911456108 -12.2024545669556 0.295201063156128
vertex -0.0828304290771484 -13.8040943145752 0.31425952911377
endloop
endfacet
facet normal 4.34387109183755e-16 0.0118984906002879 0.999929249286652
outer loop
vertex -0.0732199102640152 -12.2024545669556 0.295201063156128
vertex -0.0828304290771484 -13.8040943145752 0.31425952911377
vertex 0.103219911456108 -12.2024545669556 0.295201063156128
endloop
endfacet
facet normal 4.34387135653534e-16 0.0118984906002879 0.999929189682007
outer loop
vertex -0.0732199102640152 -12.2024545669556 0.295201063156128
vertex 0.103219911456108 -12.2024545669556 0.295201063156128
vertex -0.060714278370142 -10.1183300018311 0.270401388406754
endloop
endfacet
facet normal -2.26980001210886e-16 0.0118984906002879 0.999929189682007
outer loop
vertex 0.0907142758369446 -10.1183300018311 0.270401388406754
vertex -0.060714278370142 -10.1183300018311 0.270401388406754
vertex 0.103219911456108 -12.2024545669556 0.295201063156128
endloop
endfacet
facet normal -2.26980001210886e-16 0.0118984906002879 0.999929249286652
outer loop
vertex 0.0907142758369446 -10.1183300018311 0.270401388406754
vertex 0.0776341035962105 -7.9384560585022 0.244462326169014
vertex -0.060714278370142 -10.1183300018311 0.270401388406754
endloop
endfacet
facet normal -3.27209145161691e-16 0.0118984924629331 0.999929308891296
outer loop
vertex -0.0476341061294079 -7.9384560585022 0.244462326169014
vertex -0.060714278370142 -10.1183300018311 0.270401388406754
vertex 0.0776341035962105 -7.9384560585022 0.244462326169014
endloop
endfacet
facet normal -3.27209145161691e-16 0.0118984924629331 0.999929308891296
outer loop
vertex -0.0476341061294079 -7.9384560585022 0.244462326169014
vertex 0.0776341035962105 -7.9384560585022 0.244462326169014
vertex -0.0345539376139641 -5.75858163833618 0.218523278832436
endloop
endfacet
facet normal -6.67721432450934e-17 0.0118984906002879 0.999929189682007
outer loop
vertex 0.064553938806057 -5.75858163833618 0.218523278832436
vertex -0.0345539376139641 -5.75858163833618 0.218523278832436
vertex 0.0776341035962105 -7.9384560585022 0.244462326169014
endloop
endfacet
facet normal -6.67721432450934e-17 0.0118984906002879 0.999929249286652
outer loop
vertex 0.064553938806057 -5.75858163833618 0.218523278832436
vertex 0.0515651814639568 -3.59394240379333 0.192765519022942
vertex -0.0345539376139641 -5.75858163833618 0.218523278832436
endloop
endfacet
facet normal 1.44508836824818e-16 0.0118984915316105 0.999929189682007
outer loop
vertex -0.0215651821345091 -3.59394240379333 0.192765519022942
vertex -0.0345539376139641 -5.75858163833618 0.218523278832436
vertex 0.0515651814639568 -3.59394240379333 0.192765519022942
endloop
endfacet
facet normal 1.44508823589928e-16 0.0118984906002879 0.999929249286652
outer loop
vertex -0.0215651821345091 -3.59394240379333 0.192765519022942
vertex 0.0515651814639568 -3.59394240379333 0.192765519022942
vertex -0.0122104743495584 -2.03493499755859 0.174214377999306
endloop
endfacet
facet normal -4.1288546898528e-16 0.0118984906002879 0.999929249286652
outer loop
vertex 0.0422104746103287 -2.03493499755859 0.174214377999306
vertex -0.0122104743495584 -2.03493499755859 0.174214377999306
vertex 0.0515651814639568 -3.59394240379333 0.192765519022942
endloop
endfacet
facet normal -4.128854425155e-16 0.0118984906002879 0.999929130077362
outer loop
vertex 0.0422104746103287 -2.03493499755859 0.174214377999306
vertex 0.0365983806550503 -1.09965252876282 0.163085132837296
vertex -0.0122104743495584 -2.03493499755859 0.174214377999306
endloop
endfacet
facet normal -7.64816594201568e-16 0.0118984906002879 0.999929189682007
outer loop
vertex -0.00659838179126382 -1.09965252876282 0.163085132837296
vertex -0.0122104743495584 -2.03493499755859 0.174214377999306
vertex 0.0365983806550503 -1.09965252876282 0.163085132837296
endloop
endfacet
facet normal -7.64816647141127e-16 0.0118984924629331 0.999929249286652
outer loop
vertex -0.00659838179126382 -1.09965252876282 0.163085132837296
vertex 0.0365983806550503 -1.09965252876282 0.163085132837296
vertex -0.00323156523518264 -0.538556039333344 0.156408458948135
endloop
endfacet
facet normal 1.08684961366682e-16 0.0118984915316105 0.999929249286652
outer loop
vertex 0.0332315638661385 -0.538556039333344 0.156408458948135
vertex -0.00323156523518264 -0.538556039333344 0.156408458948135
vertex 0.0365983806550503 -1.09965252876282 0.163085132837296
endloop
endfacet
facet normal 1.08684954749237e-16 0.0118984906002879 0.999929189682007
outer loop
vertex 0.0332315638661385 -0.538556039333344 0.156408458948135
vertex 0.0312117375433445 -0.201942071318626 0.152402982115746
vertex -0.00323156523518264 -0.538556039333344 0.156408458948135
endloop
endfacet
facet normal 2.8519416692573e-16 0.0118984924629331 0.999929249286652
outer loop
vertex -0.00121173821389675 -0.201942071318626 0.152402982115746
vertex -0.00323156523518264 -0.538556039333344 0.156408458948135
vertex 0.0312117375433445 -0.201942071318626 0.152402982115746
endloop
endfacet
facet normal 2.85194113986171e-16 0.0118984906002879 0.999929189682007
outer loop
vertex -0.00121173821389675 -0.201942071318626 0.152402982115746
vertex 0.0312117375433445 -0.201942071318626 0.152402982115746
vertex 0 0 0.150000005960464
endloop
endfacet
facet normal 0 0.0118984896689653 0.999929130077362
outer loop
vertex 0.0299999993294477 0 0.150000005960464
vertex 0 0 0.150000005960464
vertex 0.0312117375433445 -0.201942071318626 0.152402982115746
endloop
endfacet
facet normal -0.999873578548431 -0.015897324308753 0
outer loop
vertex 0.268459856510162 -14.998104095459 -0.0299999993294477
vertex 0.268459856510162 -14.998104095459 0.180000007152557
vertex 0.249860629439354 -13.8282918930054 -0.0276600793004036
endloop
endfacet
facet normal -0.999873638153076 -0.015897324308753 -1.35164845806742e-16
outer loop
vertex 0.249860629439354 -13.8282918930054 0.177660077810287
vertex 0.249860629439354 -13.8282918930054 -0.0276600793004036
vertex 0.268459856510162 -14.998104095459 0.180000007152557
endloop
endfacet
facet normal -0.999873638153076 -0.015897324308753 -1.35164859041631e-16
outer loop
vertex 0.249860629439354 -13.8282918930054 -0.0276600793004036
vertex 0.249860629439354 -13.8282918930054 0.177660077810287
vertex 0.225265443325043 -12.2813606262207 -0.0245658252388239
endloop
endfacet
facet normal -0.999873578548431 -0.0158973224461079 -0
outer loop
vertex 0.225265443325043 -12.2813606262207 0.174565821886063
vertex 0.225265443325043 -12.2813606262207 -0.0245658252388239
vertex 0.249860629439354 -13.8282918930054 0.177660077810287
endloop
endfacet
facet normal -0.999873578548431 -0.0158973224461079 -0
outer loop
vertex 0.225265443325043 -12.2813606262207 0.174565821886063
vertex 0.193303197622299 -10.2710723876953 0.170544743537903
vertex 0.225265443325043 -12.2813606262207 -0.0245658252388239
endloop
endfacet
facet normal -0.999873638153076 -0.0158973224461079 -1.45230747123895e-16
outer loop
vertex 0.193303197622299 -10.2710723876953 -0.0205447413027287
vertex 0.225265443325043 -12.2813606262207 -0.0245658252388239
vertex 0.193303197622299 -10.2710723876953 0.170544743537903
endloop
endfacet
facet normal -0.999873638153076 -0.015897324308753 -1.45230747123895e-16
outer loop
vertex 0.193303197622299 -10.2710723876953 -0.0205447413027287
vertex 0.193303197622299 -10.2710723876953 0.170544743537903
vertex 0.159459039568901 -8.14241981506348 -0.0162868965417147
endloop
endfacet
facet normal -0.999873638153076 -0.015897324308753 2.668796503187e-18
outer loop
vertex 0.159459039568901 -8.14241981506348 0.166286900639534
vertex 0.159459039568901 -8.14241981506348 -0.0162868965417147
vertex 0.193303197622299 -10.2710723876953 0.170544743537903
endloop
endfacet
facet normal -0.999873638153076 -0.015897324308753 2.668796503187e-18
outer loop
vertex 0.159459039568901 -8.14241981506348 0.166286900639534
vertex 0.125614881515503 -6.01376676559448 0.162029057741165
vertex 0.159459039568901 -8.14241981506348 -0.0162868965417147
endloop
endfacet
facet normal -0.999873638153076 -0.015897324308753 -7.55216494830955e-17
outer loop
vertex 0.125614881515503 -6.01376676559448 -0.0120290536433458
vertex 0.159459039568901 -8.14241981506348 -0.0162868965417147
vertex 0.125614881515503 -6.01376676559448 0.162029057741165
endloop
endfacet
facet normal -0.999873638153076 -0.015897324308753 -7.55216494830955e-17
outer loop
vertex 0.125614881515503 -6.01376676559448 -0.0120290536433458
vertex 0.125614881515503 -6.01376676559448 0.162029057741165
vertex 0.0917707160115242 -3.88511371612549 -0.00777120981365442
endloop
endfacet
facet normal -0.999873638153076 -0.015897324308753 -7.49915193546776e-17
outer loop
vertex 0.0917707160115242 -3.88511371612549 0.157771214842796
vertex 0.0917707160115242 -3.88511371612549 -0.00777120981365442
vertex 0.125614881515503 -6.01376676559448 0.162029057741165
endloop
endfacet
facet normal -0.999873638153076 -0.015897324308753 -7.49915193546776e-17
outer loop
vertex 0.0917707160115242 -3.88511371612549 0.157771214842796
vertex 0.0637288242578506 -2.12139844894409 0.154243335127831
vertex 0.0917707160115242 -3.88511371612549 -0.00777120981365442
endloop
endfacet
facet normal -0.999873697757721 -0.015897324308753 -3.53220448328352e-17
outer loop
vertex 0.0637288242578506 -2.12139844894409 -0.00424333289265633
vertex 0.0917707160115242 -3.88511371612549 -0.00777120981365442
vertex 0.0637288242578506 -2.12139844894409 0.154243335127831
endloop
endfacet
facet normal -0.999873638153076 -0.015897324308753 -3.53220481415577e-17
outer loop
vertex 0.0637288242578506 -2.12139844894409 -0.00424333289265633
vertex 0.0637288242578506 -2.12139844894409 0.154243335127831
vertex 0.0439534485340118 -0.877612292766571 -0.00175544642843306
endloop
endfacet
facet normal -0.999873578548431 -0.015897324308753 -2.97307505695075e-17
outer loop
vertex 0.0439534485340118 -0.877612292766571 0.151755452156067
vertex 0.0439534485340118 -0.877612292766571 -0.00175544642843306
vertex 0.0637288242578506 -2.12139844894409 0.154243335127831
endloop
endfacet
facet normal -0.999873578548431 -0.0158973224461079 -2.97307505695075e-17
outer loop
vertex 0.0439534485340118 -0.877612292766571 -0.00175544642843306
vertex 0.0439534485340118 -0.877612292766571 0.151755452156067
vertex 0.0299999993294477 0 0
endloop
endfacet
facet normal -0.999873578548431 -0.0158973224461079 -0
outer loop
vertex 0.0299999993294477 0 0.150000005960464
vertex 0.0299999993294477 0 0
vertex 0.0439534485340118 -0.877612292766571 0.151755452156067
endloop
endfacet
facet normal 0.707050144672394 0.0126557257026434 0.707050144672394
outer loop
vertex 0.268488556146622 -14.9995441436768 0.179993286728859
vertex 0.246387854218483 -13.6095380783081 0.177213802933693
vertex 0.119992010295391 -14.9986686706543 0.328474164009094
endloop
endfacet
facet normal 0.707050144672394 0.012655726633966 0.707050144672394
outer loop
vertex 0.111652389168739 -13.6087312698364 0.31193482875824
vertex 0.119992010295391 -14.9986686706543 0.328474164009094
vertex 0.246387854218483 -13.6095380783081 0.177213802933693
endloop
endfacet
facet normal 0.707050144672394 0.0126557257026434 0.707050144672394
outer loop
vertex 0.246387854218483 -13.6095380783081 0.177213802933693
vertex 0.211966708302498 -11.4446477890015 0.172884866595268
vertex 0.111652389168739 -13.6087312698364 0.31193482875824
endloop
endfacet
facet normal 0.707050144672394 0.012655726633966 0.707050144672394
outer loop
vertex 0.0986640006303787 -11.4440002441406 0.286175966262817
vertex 0.111652389168739 -13.6087312698364 0.31193482875824
vertex 0.211966708302498 -11.4446477890015 0.172884866595268
endloop
endfacet
facet normal 0.707050144672394 0.0126557257026434 0.707050144672394
outer loop
vertex 0.211966708302498 -11.4446477890015 0.172884866595268
vertex 0.175573363900185 -9.15571880340576 0.168307900428772
vertex 0.0986640006303787 -11.4440002441406 0.286175966262817
endloop
endfacet
facet normal 0.707050144672394 0.012655726633966 0.707050144672394
outer loop
vertex 0.0849312022328377 -9.15520000457764 0.258940786123276
vertex 0.0986640006303787 -11.4440002441406 0.286175966262817
vertex 0.175573363900185 -9.15571880340576 0.168307900428772
endloop
endfacet
facet normal 0.707050144672394 0.012655726633966 0.707050144672394
outer loop
vertex 0.0849312022328377 -9.15520000457764 0.258940786123276
vertex 0.175573363900185 -9.15571880340576 0.168307900428772
vertex 0.0711984038352966 -6.86640024185181 0.231705591082573
endloop
endfacet
facet normal 0.707050204277039 0.012655726633966 0.707050204277039
outer loop
vertex 0.139180019497871 -6.86678886413574 0.163730919361115
vertex 0.0711984038352966 -6.86640024185181 0.231705591082573
vertex 0.175573363900185 -9.15571880340576 0.168307900428772
endloop
endfacet
facet normal 0.707050204277039 0.012655726633966 0.707050204277039
outer loop
vertex 0.139180019497871 -6.86678886413574 0.163730919361115
vertex 0.102786682546139 -4.57785940170288 0.159153953194618
vertex 0.0711984038352966 -6.86640024185181 0.231705591082573
endloop
endfacet
facet normal 0.707050144672394 0.012655726633966 0.707050144672394
outer loop
vertex 0.0574656017124653 -4.57760000228882 0.20447039604187
vertex 0.0711984038352966 -6.86640024185181 0.231705591082573
vertex 0.102786682546139 -4.57785940170288 0.159153953194618
endloop
endfacet
facet normal 0.707050144672394 0.012655726633966 0.707050144672394
outer loop
vertex 0.0574656017124653 -4.57760000228882 0.20447039604187
vertex 0.102786682546139 -4.57785940170288 0.159153953194618
vertex 0.0437327995896339 -2.28880000114441 0.177235201001167
endloop
endfacet
facet normal 0.707050144672394 0.012655726633966 0.707050144672394
outer loop
vertex 0.0663933381438255 -2.28892970085144 0.154576972126961
vertex 0.0437327995896339 -2.28880000114441 0.177235201001167
vertex 0.102786682546139 -4.57785940170288 0.159153953194618
endloop
endfacet
facet normal 0.707050144672394 0.012655726633966 0.707050144672394
outer loop
vertex 0.0437327995896339 -2.28880000114441 0.177235201001167
vertex 0.0663933381438255 -2.28892970085144 0.154576972126961
vertex 0.0299999993294477 0 0.150000005960464
endloop
endfacet
facet normal 0.707062065601349 0.0112418159842491 -0.707062065601349
outer loop
vertex 0.304848879575729 -17.2868194580078 -0.0299999993294477
vertex 0.282193541526794 -17.2871742248535 -0.0526609979569912
vertex 0.268459856510162 -14.998104095459 -0.0299999993294477
endloop
endfacet
facet normal 0.707062065601349 0.0112418159842491 -0.707062065601349
outer loop
vertex 0.282193541526794 -17.2871742248535 -0.0526609979569912
vertex 0.304848879575729 -17.2868194580078 -0.0299999993294477
vertex 0.295927256345749 -19.576244354248 -0.0753219947218895
endloop
endfacet
facet normal 0.707062065601349 0.0112418159842491 -0.707062065601349
outer loop
vertex 0.341237932443619 -19.575532913208 -0.0299999993294477
vertex 0.295927256345749 -19.576244354248 -0.0753219947218895
vertex 0.304848879575729 -17.2868194580078 -0.0299999993294477
endloop
endfacet
facet normal 0.707062065601349 0.0112418159842491 -0.707062065601349
outer loop
vertex 0.295927256345749 -19.576244354248 -0.0753219947218895
vertex 0.341237932443619 -19.575532913208 -0.0299999993294477
vertex 0.309660941362381 -21.8653144836426 -0.0979829952120781
endloop
endfacet
facet normal 0.707062065601349 0.0112418159842491 -0.707062065601349
outer loop
vertex 0.377626955509186 -21.8642463684082 -0.0299999993294477
vertex 0.309660941362381 -21.8653144836426 -0.0979829952120781
vertex 0.341237932443619 -19.575532913208 -0.0299999993294477
endloop
endfacet
facet normal 0.707062065601349 0.0112418159842491 -0.707062065601349
outer loop
vertex 0.309660941362381 -21.8653144836426 -0.0979829952120781
vertex 0.377626955509186 -21.8642463684082 -0.0299999993294477
vertex 0.323394626379013 -24.1543846130371 -0.120643988251686
endloop
endfacet
facet normal 0.707062065601349 0.0112418159842491 -0.707062065601349
outer loop
vertex 0.414015978574753 -24.1529598236084 -0.0299999993294477
vertex 0.323394626379013 -24.1543846130371 -0.120643988251686
vertex 0.377626955509186 -21.8642463684082 -0.0299999993294477
endloop
endfacet
facet normal 0.707062065601349 0.0112418159842491 -0.707062065601349
outer loop
vertex 0.414015978574753 -24.1529598236084 -0.0299999993294477
vertex 0.45040500164032 -26.4416751861572 -0.0299999993294477
vertex 0.323394626379013 -24.1543846130371 -0.120643988251686
endloop
endfacet
facet normal 0.707062065601349 0.0112418150529265 -0.707062065601349
outer loop
vertex 0.337128311395645 -26.4434547424316 -0.143304988741875
vertex 0.323394626379013 -24.1543846130371 -0.120643988251686
vertex 0.45040500164032 -26.4416751861572 -0.0299999993294477
endloop
endfacet
facet normal 0.707062065601349 0.0112418159842491 -0.707062065601349
outer loop
vertex 0.45040500164032 -26.4416751861572 -0.0299999993294477
vertex 0.48482146859169 -28.6063232421875 -0.0299999993294477
vertex 0.337128311395645 -26.4434547424316 -0.143304988741875
endloop
endfacet
facet normal 0.707062125205994 0.0112418159842491 -0.707062125205994
outer loop
vertex 0.350117772817612 -28.6084785461426 -0.164737969636917
vertex 0.337128311395645 -26.4434547424316 -0.143304988741875
vertex 0.48482146859169 -28.6063232421875 -0.0299999993294477
endloop
endfacet
facet normal 0.707062065601349 0.0112418150529265 -0.707062065601349
outer loop
vertex 0.48482146859169 -28.6063232421875 -0.0299999993294477
vertex 0.506919741630554 -29.996208190918 -0.0299999993294477
vertex 0.350117772817612 -28.6084785461426 -0.164737969636917
endloop
endfacet
facet normal 0.707062125205994 0.0112418159842491 -0.707062125205994
outer loop
vertex 0.358457863330841 -29.9985694885254 -0.178499385714531
vertex 0.350117772817612 -28.6084785461426 -0.164737969636917
vertex 0.506919741630554 -29.996208190918 -0.0299999993294477
endloop
endfacet
facet normal 0.202156066894531 0.677640080451965 -0.707062125205994
outer loop
vertex 26.8231544494629 -26.1641216278076 -0.268457859754562
vertex 26.776195526123 -26.3050193786621 -0.416919738054276
vertex 25.4934177398682 -25.7587280273438 -0.260117769241333
endloop
endfacet
facet normal 0.202156066894531 0.67764014005661 -0.707062125205994
outer loop
vertex 25.450798034668 -25.8865661621094 -0.394821494817734
vertex 25.4934177398682 -25.7587280273438 -0.260117769241333
vertex 26.776195526123 -26.3050193786621 -0.416919738054276
endloop
endfacet
facet normal 0.202156066894531 0.677640080451965 -0.707062125205994
outer loop
vertex 25.4934177398682 -25.7587280273438 -0.260117769241333
vertex 25.450798034668 -25.8865661621094 -0.394821494817734
vertex 23.4223957061768 -25.1273384094238 -0.247128322720528
endloop
endfacet
facet normal 0.202156066894531 0.677640080451965 -0.707062065601349
outer loop
vertex 23.3865852355957 -25.2348518371582 -0.360404998064041
vertex 23.4223957061768 -25.1273384094238 -0.247128322720528
vertex 25.450798034668 -25.8865661621094 -0.394821494817734
endloop
endfacet
facet normal 0.202156066894531 0.677640080451965 -0.707062065601349
outer loop
vertex 23.4223957061768 -25.1273384094238 -0.247128322720528
vertex 23.3865852355957 -25.2348518371582 -0.360404998064041
vertex 21.2327136993408 -24.4597759246826 -0.233394622802734
endloop
endfacet
facet normal 0.202156066894531 0.677640080451965 -0.707062065601349
outer loop
vertex 21.204065322876 -24.545783996582 -0.324015974998474
vertex 21.2327136993408 -24.4597759246826 -0.233394622802734
vertex 23.3865852355957 -25.2348518371582 -0.360404998064041
endloop
endfacet
facet normal 0.202156066894531 0.677640080451965 -0.707062065601349
outer loop
vertex 21.204065322876 -24.545783996582 -0.324015974998474
vertex 19.0215435028076 -23.8567180633545 -0.287626951932907
vertex 21.2327136993408 -24.4597759246826 -0.233394622802734
endloop
endfacet
facet normal 0.202156066894531 0.67764014005661 -0.707062065601349
outer loop
vertex 19.0430297851563 -23.7922115325928 -0.219660937786102
vertex 21.2327136993408 -24.4597759246826 -0.233394622802734
vertex 19.0215435028076 -23.8567180633545 -0.287626951932907
endloop
endfacet
facet normal 0.202156066894531 0.67764014005661 -0.707062065601349
outer loop
vertex 19.0430297851563 -23.7922115325928 -0.219660937786102
vertex 19.0215435028076 -23.8567180633545 -0.287626951932907
vertex 16.8533458709717 -23.1246471405029 -0.205927237868309
endloop
endfacet
facet normal 0.202156066894531 0.677640080451965 -0.707062065601349
outer loop
vertex 16.8390216827393 -23.1676502227783 -0.25123792886734
vertex 16.8533458709717 -23.1246471405029 -0.205927237868309
vertex 19.0215435028076 -23.8567180633545 -0.287626951932907
endloop
endfacet
facet normal 0.202156066894531 0.677640080451965 -0.707062065601349
outer loop
vertex 16.8390216827393 -23.1676502227783 -0.25123792886734
vertex 14.6565008163452 -22.4785842895508 -0.214848890900612
vertex 16.8533458709717 -23.1246471405029 -0.205927237868309
endloop
endfacet
facet normal 0.202156066894531 0.677640080451965 -0.707062065601349
outer loop
vertex 14.6636629104614 -22.4570827484131 -0.192193552851677
vertex 16.8533458709717 -23.1246471405029 -0.205927237868309
vertex 14.6565008163452 -22.4785842895508 -0.214848890900612
endloop
endfacet
facet normal 0.202156066894531 0.677640080451965 -0.707062065601349
outer loop
vertex 14.6565008163452 -22.4785842895508 -0.214848890900612
vertex 12.4739789962769 -21.7895183563232 -0.178459867835045
vertex 14.6636629104614 -22.4570827484131 -0.192193552851677
endloop
endfacet
endsolid COMSOL mesh mesh1
