solid COMSOL mesh mesh1
facet normal -0.0234339386224747 0.99972540140152 0
outer loop
vertex 0 0 0.150000005960464
vertex 0 0 0
vertex -0.896623373031616 -0.021017188206315 0.150597915053368
endloop
endfacet
facet normal -0.0234339367598295 0.99972540140152 5.69922148093116e-18
outer loop
vertex -0.896623373031616 -0.021017188206315 -0.00059791310923174
vertex -0.896623373031616 -0.021017188206315 0.150597915053368
vertex 0 0 0
endloop
endfacet
facet normal -0.0234339386224747 0.99972540140152 5.69922148093116e-18
outer loop
vertex -0.896623373031616 -0.021017188206315 0.150597915053368
vertex -0.896623373031616 -0.021017188206315 -0.00059791310923174
vertex -2.19216275215149 -0.0513851158320904 0.151461839675903
endloop
endfacet
facet normal -0.0234339367598295 0.99972540140152 -2.27396400622523e-17
outer loop
vertex -2.19216275215149 -0.0513851158320904 -0.00146184326149523
vertex -2.19216275215149 -0.0513851158320904 0.151461839675903
vertex -0.896623373031616 -0.021017188206315 -0.00059791310923174
endloop
endfacet
facet normal -0.0234339386224747 0.999725341796875 -1.78602614400963e-16
outer loop
vertex -4.06282234191895 -0.0952340811491013 0.152709290385246
vertex -2.19216275215149 -0.0513851158320904 0.151461839675903
vertex -4.06282234191895 -0.0952340811491013 -0.00270929234102368
endloop
endfacet
facet normal -0.0234339386224747 0.999725341796875 -2.27396384078911e-17
outer loop
vertex -2.19216275215149 -0.0513851158320904 -0.00146184326149523
vertex -4.06282234191895 -0.0952340811491013 -0.00270929234102368
vertex -2.19216275215149 -0.0513851158320904 0.151461839675903
endloop
endfacet
facet normal -0.0234339386224747 0.999725341796875 -1.78602614400963e-16
outer loop
vertex -4.06282234191895 -0.0952340811491013 0.152709290385246
vertex -4.06282234191895 -0.0952340811491013 -0.00270929234102368
vertex -6.24612855911255 -0.146411597728729 0.154165223240852
endloop
endfacet
facet normal -0.0234339367598295 0.99972540140152 -8.76589566378698e-17
outer loop
vertex -6.24612855911255 -0.146411597728729 -0.00416522938758135
vertex -6.24612855911255 -0.146411597728729 0.154165223240852
vertex -4.06282234191895 -0.0952340811491013 -0.00270929234102368
endloop
endfacet
facet normal -0.0234339386224747 0.999725341796875 5.16265575499871e-16
outer loop
vertex -8.42943477630615 -0.197589114308357 0.15562117099762
vertex -6.24612855911255 -0.146411597728729 0.154165223240852
vertex -8.42943477630615 -0.197589114308357 -0.0056211668998003
endloop
endfacet
facet normal -0.0234339367598295 0.99972540140152 -8.76589566378698e-17
outer loop
vertex -6.24612855911255 -0.146411597728729 -0.00416522938758135
vertex -8.42943477630615 -0.197589114308357 -0.0056211668998003
vertex -6.24612855911255 -0.146411597728729 0.154165223240852
endloop
endfacet
facet normal -0.0234339386224747 0.999725341796875 5.16265575499871e-16
outer loop
vertex -8.42943477630615 -0.197589114308357 0.15562117099762
vertex -8.42943477630615 -0.197589114308357 -0.0056211668998003
vertex -10.6127405166626 -0.248766630887985 0.157077103853226
endloop
endfacet
facet normal -0.0234339404851198 0.99972540140152 0
outer loop
vertex -10.6127405166626 -0.248766630887985 -0.00707710394635797
vertex -10.6127405166626 -0.248766630887985 0.157077103853226
vertex -8.42943477630615 -0.197589114308357 -0.0056211668998003
endloop
endfacet
facet normal -0.0234339386224747 0.99972540140152 -5.82327739699043e-16
outer loop
vertex -12.5845308303833 -0.294986128807068 0.158391997218132
vertex -10.6127405166626 -0.248766630887985 0.157077103853226
vertex -12.5845308303833 -0.294986128807068 -0.00839199125766754
endloop
endfacet
facet normal -0.0234339386224747 0.99972540140152 0
outer loop
vertex -10.6127405166626 -0.248766630887985 -0.00707710394635797
vertex -12.5845308303833 -0.294986128807068 -0.00839199125766754
vertex -10.6127405166626 -0.248766630887985 0.157077103853226
endloop
endfacet
facet normal -0.0234339367598295 0.99972540140152 -5.82327739699043e-16
outer loop
vertex -12.5845308303833 -0.294986128807068 0.158391997218132
vertex -12.5845308303833 -0.294986128807068 -0.00839199125766754
vertex -13.9952735900879 -0.328054457902908 0.159332752227783
endloop
endfacet
facet normal -0.0234339386224747 0.99972540140152 4.11256518748591e-16
outer loop
vertex -13.9952735900879 -0.328054457902908 -0.00933274533599615
vertex -13.9952735900879 -0.328054457902908 0.159332752227783
vertex -12.5845308303833 -0.294986128807068 -0.00839199125766754
endloop
endfacet
facet normal -0.0234339386224747 0.99972540140152 4.11256465809032e-16
outer loop
vertex -13.9952735900879 -0.328054457902908 0.159332752227783
vertex -13.9952735900879 -0.328054457902908 -0.00933274533599615
vertex -14.9958810806274 -0.351509064435959 0.159999996423721
endloop
endfacet
facet normal -0.0234339386224747 0.999725341796875 0
outer loop
vertex -14.9958810806274 -0.351509064435959 -0.00999999977648258
vertex -14.9958810806274 -0.351509064435959 0.159999996423721
vertex -13.9952735900879 -0.328054457902908 -0.00933274533599615
endloop
endfacet
facet normal 0.000463404896436259 0.00867817550897598 0.999962210655212
outer loop
vertex -13.5385847091675 -1.78166663646698 0.171736285090446
vertex -13.5223779678345 -1.76514899730682 0.17158542573452
vertex -14.9958810806274 -0.351509064435959 0.159999996423721
endloop
endfacet
facet normal 0.000463404896436259 0.00867817550897598 0.999962210655212
outer loop
vertex -12.0812892913818 -3.21182441711426 0.183472573757172
vertex -12.0488748550415 -3.17878890037537 0.183170855045319
vertex -13.5385847091675 -1.78166663646698 0.171736285090446
endloop
endfacet
facet normal 0.000463404896436259 0.00867817550897598 0.999962210655212
outer loop
vertex -13.5223779678345 -1.76514899730682 0.17158542573452
vertex -13.5385847091675 -1.78166663646698 0.171736285090446
vertex -12.0488748550415 -3.17878890037537 0.183170855045319
endloop
endfacet
facet normal 0.000463404896436259 0.00867817550897598 0.999962210655212
outer loop
vertex -12.0812892913818 -3.21182441711426 0.183472573757172
vertex -10.6239929199219 -4.64198207855225 0.195208847522736
vertex -12.0488748550415 -3.17878890037537 0.183170855045319
endloop
endfacet
facet normal 0.00046340492554009 0.00867817644029856 0.999962270259857
outer loop
vertex -10.5753717422485 -4.59242916107178 0.194756269454956
vertex -12.0488748550415 -3.17878890037537 0.183170855045319
vertex -10.6239929199219 -4.64198207855225 0.195208847522736
endloop
endfacet
facet normal 0.000463404896436259 0.00867817550897598 0.999962210655212
outer loop
vertex -9.16669750213623 -6.07213973999023 0.206945136189461
vertex -9.10186862945557 -6.00606870651245 0.206341698765755
vertex -10.6239929199219 -4.64198207855225 0.195208847522736
endloop
endfacet
facet normal 0.00046340492554009 0.00867817644029856 0.999962270259857
outer loop
vertex -10.5753717422485 -4.59242916107178 0.194756269454956
vertex -10.6239929199219 -4.64198207855225 0.195208847522736
vertex -9.10186862945557 -6.00606870651245 0.206341698765755
endloop
endfacet
facet normal 0.000463404896436259 0.00867817550897598 0.999962210655212
outer loop
vertex -9.16669750213623 -6.07213973999023 0.206945136189461
vertex -7.70940113067627 -7.50229740142822 0.218681424856186
vertex -9.10186862945557 -6.00606870651245 0.206341698765755
endloop
endfacet
facet normal 0.000463404896436259 0.00867817644029856 0.999962210655212
outer loop
vertex -7.62836599349976 -7.41970872879028 0.217927128076553
vertex -9.10186862945557 -6.00606870651245 0.206341698765755
vertex -7.70940113067627 -7.50229740142822 0.218681424856186
endloop
endfacet
facet normal 0.000463404896436259 0.00867817644029856 0.999962210655212
outer loop
vertex -7.70940113067627 -7.50229740142822 0.218681424856186
vertex -6.25210523605347 -8.93245506286621 0.230417713522911
vertex -7.62836599349976 -7.41970872879028 0.217927128076553
endloop
endfacet
facet normal 0.00046340492554009 0.00867817644029856 0.999962270259857
outer loop
vertex -6.15486288070679 -8.83334922790527 0.229512557387352
vertex -7.62836599349976 -7.41970872879028 0.217927128076553
vertex -6.25210523605347 -8.93245506286621 0.230417713522911
endloop
endfacet
facet normal 0.000463404867332429 0.00867817550897598 0.999962210655212
outer loop
vertex -6.25210523605347 -8.93245506286621 0.230417713522911
vertex -5.03752374649048 -10.124418258667 0.24019929766655
vertex -6.15486288070679 -8.83334922790527 0.229512557387352
endloop
endfacet
facet normal 0.00046340492554009 0.00867817644029856 0.999962210655212
outer loop
vertex -4.92674970626831 -10.011568069458 0.239168599247932
vertex -6.15486288070679 -8.83334922790527 0.229512557387352
vertex -5.03752374649048 -10.124418258667 0.24019929766655
endloop
endfacet
facet normal 0.000463404896436259 0.00867817644029856 0.999962210655212
outer loop
vertex -5.03752374649048 -10.124418258667 0.24019929766655
vertex -4.29024076461792 -10.8577852249146 0.246217519044876
vertex -4.92674970626831 -10.011568069458 0.239168599247932
endloop
endfacet
facet normal 0.000463404896436259 0.00867817644029856 0.999962270259857
outer loop
vertex -4.17116355895996 -10.736457824707 0.245109394192696
vertex -4.92674970626831 -10.011568069458 0.239168599247932
vertex -4.29024076461792 -10.8577852249146 0.246217519044876
endloop
endfacet
facet normal -0.707143485546112 0.00849570520222187 0.707019031047821
outer loop
vertex -10.6063861846924 -0.24861766397953 -10.6052665710449
vertex -9.86604785919189 -0.231263861060143 -9.86500644683838
vertex -10.6059942245483 -0.0786261335015297 -10.6069173812866
endloop
endfacet
facet normal -0.707143545150757 0.00849570613354445 0.707019031047821
outer loop
vertex -9.86567401885986 -0.0731378644704819 -9.86653327941895
vertex -10.6059942245483 -0.0786261335015297 -10.6069173812866
vertex -9.86604785919189 -0.231263861060143 -9.86500644683838
endloop
endfacet
facet normal -0.707143485546112 0.00849570520222187 0.707019031047821
outer loop
vertex -9.86604785919189 -0.231263861060143 -9.86500644683838
vertex -8.66271018981934 -0.203057169914246 -8.6617956161499
vertex -9.86567401885986 -0.0731378644704819 -9.86653327941895
endloop
endfacet
facet normal -0.707143485546112 0.00849570520222187 0.707019031047821
outer loop
vertex -8.66240310668945 -0.0642175748944283 -8.66315650939941
vertex -9.86567401885986 -0.0731378644704819 -9.86653327941895
vertex -8.66271018981934 -0.203057169914246 -8.6617956161499
endloop
endfacet
facet normal -0.707143485546112 0.00849570520222187 0.707018971443176
outer loop
vertex -8.66271018981934 -0.203057169914246 -8.6617956161499
vertex -7.21892499923706 -0.169214308261871 -7.21816301345825
vertex -8.66240310668945 -0.0642175748944283 -8.66315650939941
endloop
endfacet
facet normal -0.707143545150757 0.00849570613354445 0.707019031047821
outer loop
vertex -7.21866893768311 -0.0535146445035934 -7.21929740905762
vertex -8.66240310668945 -0.0642175748944283 -8.66315650939941
vertex -7.21892499923706 -0.169214308261871 -7.21816301345825
endloop
endfacet
facet normal -0.707143545150757 0.00849570613354445 0.707019031047821
outer loop
vertex -7.21892499923706 -0.169214308261871 -7.21816301345825
vertex -5.77513980865479 -0.135371446609497 -5.7745304107666
vertex -7.21866893768311 -0.0535146445035934 -7.21929740905762
endloop
endfacet
facet normal -0.707143485546112 0.00849570520222187 0.707019031047821
outer loop
vertex -5.77493524551392 -0.0428117178380489 -5.77543783187866
vertex -7.21866893768311 -0.0535146445035934 -7.21929740905762
vertex -5.77513980865479 -0.135371446609497 -5.7745304107666
endloop
endfacet
facet normal -0.707143485546112 0.00849570520222187 0.707019031047821
outer loop
vertex -5.77493524551392 -0.0428117178380489 -5.77543783187866
vertex -5.77513980865479 -0.135371446609497 -5.7745304107666
vertex -4.33120155334473 -0.0321087874472141 -4.33157825469971
endloop
endfacet
facet normal -0.707143485546112 0.00849570520222187 0.707018971443176
outer loop
vertex -4.33135509490967 -0.101528584957123 -4.33089780807495
vertex -4.33120155334473 -0.0321087874472141 -4.33157825469971
vertex -5.77513980865479 -0.135371446609497 -5.7745304107666
endloop
endfacet
facet normal -0.707143485546112 0.00849570520222187 0.707018971443176
outer loop
vertex -4.33135509490967 -0.101528584957123 -4.33089780807495
vertex -2.88756990432739 -0.0676857233047485 -2.8872652053833
vertex -4.33120155334473 -0.0321087874472141 -4.33157825469971
endloop
endfacet
facet normal -0.707143485546112 0.00849570520222187 0.707019031047821
outer loop
vertex -2.88746762275696 -0.0214058589190245 -2.88771891593933
vertex -4.33120155334473 -0.0321087874472141 -4.33157825469971
vertex -2.88756990432739 -0.0676857233047485 -2.8872652053833
endloop
endfacet
facet normal -0.707143485546112 0.00849570520222187 0.707019031047821
outer loop
vertex -2.88746762275696 -0.0214058589190245 -2.88771891593933
vertex -2.88756990432739 -0.0676857233047485 -2.8872652053833
vertex -1.44373381137848 -0.0107029294595122 -1.44385945796967
endloop
endfacet
facet normal -0.707143485546112 0.00849570520222187 0.707019031047821
outer loop
vertex -1.4437849521637 -0.0338428616523743 -1.44363260269165
vertex -1.44373381137848 -0.0107029294595122 -1.44385945796967
vertex -2.88756990432739 -0.0676857233047485 -2.8872652053833
endloop
endfacet
facet normal -0.707143485546112 0.00849570520222187 0.707019031047821
outer loop
vertex -1.44373381137848 -0.0107029294595122 -1.44385945796967
vertex -1.4437849521637 -0.0338428616523743 -1.44363260269165
vertex 0 0 0
endloop
endfacet
facet normal 0.707055747509003 0.0108515843749046 -0.707074582576752
outer loop
vertex -0.141643717885017 -0.00105005688965321 -0.141656056046486
vertex 0 0 0
vertex -0.141175895929337 -0.0329163037240505 -0.141677290201187
endloop
endfacet
facet normal 0.707055687904358 0.0108515834435821 -0.707074582576752
outer loop
vertex 0.000440377276390791 -0.0299967601895332 -1.99994483409682e-05
vertex -0.141175895929337 -0.0329163037240505 -0.141677290201187
vertex 0 0 0
endloop
endfacet
facet normal 0.707055687904358 0.0108515834435821 -0.707074642181396
outer loop
vertex -0.141643717885017 -0.00105005688965321 -0.141656056046486
vertex -0.141175895929337 -0.0329163037240505 -0.141677290201187
vertex -0.383385747671127 -0.00284217926673591 -0.383419096469879
endloop
endfacet
facet normal 0.707055687904358 0.0108515834435821 -0.707074582576752
outer loop
vertex -0.382871091365814 -0.037899062037468 -0.383442491292953
vertex -0.383385747671127 -0.00284217926673591 -0.383419096469879
vertex -0.141175895929337 -0.0329163037240505 -0.141677290201187
endloop
endfacet
facet normal 0.707055687904358 0.0108515834435821 -0.707074582576752
outer loop
vertex -0.795964598655701 -0.00590077787637711 -0.79603385925293
vertex -0.383385747671127 -0.00284217926673591 -0.383419096469879
vertex -0.795369982719421 -0.0464030876755714 -0.796060860157013
endloop
endfacet
facet normal 0.707055628299713 0.0108515834435821 -0.707074582576752
outer loop
vertex -0.382871091365814 -0.037899062037468 -0.383442491292953
vertex -0.795369982719421 -0.0464030876755714 -0.796060860157013
vertex -0.383385747671127 -0.00284217926673591 -0.383419096469879
endloop
endfacet
facet normal 0.707055687904358 0.0108515834435821 -0.707074642181396
outer loop
vertex -0.795964598655701 -0.00590077787637711 -0.79603385925293
vertex -0.795369982719421 -0.0464030876755714 -0.796060860157013
vertex -1.50010907649994 -0.0111208586022258 -1.500239610672
endloop
endfacet
facet normal 0.707055687904358 0.0108515834435821 -0.707074582576752
outer loop
vertex -1.49937796592712 -0.06091682985425 -1.50027275085449
vertex -1.50010907649994 -0.0111208586022258 -1.500239610672
vertex -0.795369982719421 -0.0464030876755714 -0.796060860157013
endloop
endfacet
facet normal 0.707055687904358 0.0108515843749046 -0.707074582576752
outer loop
vertex -2.70186567306519 -0.0200299229472876 -2.70210075378418
vertex -1.50010907649994 -0.0111208586022258 -1.500239610672
vertex -2.70090174674988 -0.0856872946023941 -2.70214462280273
endloop
endfacet
facet normal 0.707055687904358 0.0108515843749046 -0.707074642181396
outer loop
vertex -1.49937796592712 -0.06091682985425 -1.50027275085449
vertex -2.70090174674988 -0.0856872946023941 -2.70214462280273
vertex -1.50010907649994 -0.0111208586022258 -1.500239610672
endloop
endfacet
facet normal 0.707055687904358 0.0108515834435821 -0.707074582576752
outer loop
vertex -2.70186567306519 -0.0200299229472876 -2.70210075378418
vertex -2.70090174674988 -0.0856872946023941 -2.70214462280273
vertex -4.27452993392944 -0.0316886603832245 -4.27490186691284
endloop
endfacet
facet normal 0.707055687904358 0.0108515825122595 -0.707074582576752
outer loop
vertex -4.27326107025146 -0.118102863430977 -4.27495956420898
vertex -4.27452993392944 -0.0316886603832245 -4.27490186691284
vertex -2.70090174674988 -0.0856872946023941 -2.70214462280273
endloop
endfacet
facet normal 0.707055687904358 0.0108515834435821 -0.707074582576752
outer loop
vertex -4.27452993392944 -0.0316886603832245 -4.27490186691284
vertex -4.27326107025146 -0.118102863430977 -4.27495956420898
vertex -5.84734392166138 -0.0433485098183155 -5.84785270690918
endloop
endfacet
facet normal 0.707055687904358 0.0108515834435821 -0.707074582576752
outer loop
vertex -5.84577083587646 -0.150521516799927 -5.84792423248291
vertex -5.84734392166138 -0.0433485098183155 -5.84785270690918
vertex -4.27326107025146 -0.118102863430977 -4.27495956420898
endloop
endfacet
facet normal 0.707055687904358 0.0108515834435821 -0.707074582576752
outer loop
vertex -7.41828012466431 -0.182940170168877 -7.42088937759399
vertex -7.42015838623047 -0.0550083592534065 -7.42080402374268
vertex -5.84577083587646 -0.150521516799927 -5.84792423248291
endloop
endfacet
facet normal 0.707055687904358 0.0108515834435821 -0.707074582576752
outer loop
vertex -5.84734392166138 -0.0433485098183155 -5.84785270690918
vertex -5.84577083587646 -0.150521516799927 -5.84792423248291
vertex -7.42015838623047 -0.0550083592534065 -7.42080402374268
endloop
endfacet
facet normal 0.707055687904358 0.0108515843749046 -0.707074642181396
outer loop
vertex -7.41828012466431 -0.182940170168877 -7.42088937759399
vertex -8.85952758789063 -0.212652757763863 -8.86255359649658
vertex -7.42015838623047 -0.0550083592534065 -7.42080402374268
endloop
endfacet
facet normal 0.707055687904358 0.0108515843749046 -0.707074642181396
outer loop
vertex -8.86168479919434 -0.0656949281692505 -8.86245632171631
vertex -7.42015838623047 -0.0550083592534065 -7.42080402374268
vertex -8.85952758789063 -0.212652757763863 -8.86255359649658
endloop
endfacet
facet normal 0.707055687904358 0.0108515834435821 -0.707074642181396
outer loop
vertex -9.88768863677979 -0.0733010694384575 -9.88854885101318
vertex -8.86168479919434 -0.0656949281692505 -8.86245632171631
vertex -9.88533210754395 -0.233800619840622 -9.88865661621094
endloop
endfacet
facet normal 0.707055687904358 0.0108515834435821 -0.707074642181396
outer loop
vertex -8.85952758789063 -0.212652757763863 -8.86255359649658
vertex -9.88533210754395 -0.233800619840622 -9.88865661621094
vertex -8.86168479919434 -0.0656949281692505 -8.86245632171631
endloop
endfacet
facet normal 0.707055628299713 0.0108515825122595 -0.707074582576752
outer loop
vertex -9.88768863677979 -0.0733010694384575 -9.88854885101318
vertex -9.88533210754395 -0.233800619840622 -9.88865661621094
vertex -10.6061096191406 -0.0786269903182983 -10.6070327758789
endloop
endfacet
facet normal 0.707055687904358 0.0108515834435821 -0.707074582576752
outer loop
vertex -10.6036148071289 -0.248608633875847 -10.6071462631226
vertex -10.6061096191406 -0.0786269903182983 -10.6070327758789
vertex -9.88533210754395 -0.233800619840622 -9.88865661621094
endloop
endfacet
facet normal -0.313383847475052 -0.949626505374908 2.40106193391196e-13
outer loop
vertex -1.71674048900604 -17.519905090332 0.059065155684948
vertex -1.71674048900604 -17.519905090332 0.0909348428249359
vertex -1.9069732427597 -17.4571285247803 0.0599999986588955
endloop
endfacet
facet normal -0.313383877277374 -0.949626505374908 -0
outer loop
vertex -1.9069732427597 -17.4571285247803 0.0900000035762787
vertex -1.9069732427597 -17.4571285247803 0.0599999986588955
vertex -1.71674048900604 -17.519905090332 0.0909348428249359
endloop
endfacet
facet normal -0.313383847475052 -0.949626564979553 2.40106193391196e-13
outer loop
vertex -1.71674048900604 -17.519905090332 0.059065155684948
vertex -1.39207208156586 -17.6270484924316 0.0574696660041809
vertex -1.71674048900604 -17.519905090332 0.0909348428249359
endloop
endfacet
facet normal -0.313383877277374 -0.949626564979553 -8.23331406849502e-14
outer loop
vertex -1.39207208156586 -17.6270484924316 0.092530332505703
vertex -1.71674048900604 -17.519905090332 0.0909348428249359
vertex -1.39207208156586 -17.6270484924316 0.0574696660041809
endloop
endfacet
facet normal -0.313383877277374 -0.949626505374908 -7.21225989629322e-14
outer loop
vertex -0.837963402271271 -17.8099098205566 0.0547466576099396
vertex -0.837963402271271 -17.8099098205566 0.0952533408999443
vertex -1.39207208156586 -17.6270484924316 0.0574696660041809
endloop
endfacet
facet normal -0.313383877277374 -0.949626505374908 -8.23331406849502e-14
outer loop
vertex -1.39207208156586 -17.6270484924316 0.092530332505703
vertex -1.39207208156586 -17.6270484924316 0.0574696660041809
vertex -0.837963402271271 -17.8099098205566 0.0952533408999443
endloop
endfacet
facet normal -0.313383877277374 -0.949626505374908 -7.21226057391958e-14
outer loop
vertex -0.837963402271271 -17.8099098205566 0.0547466576099396
vertex 0.107728615403175 -18.1219940185547 0.0500993281602859
vertex -0.837963402271271 -17.8099098205566 0.0952533408999443
endloop
endfacet
facet normal -0.313383877277374 -0.949626505374908 1.48458380463089e-14
outer loop
vertex 0.107728615403175 -18.1219940185547 0.0999006703495979
vertex -0.837963402271271 -17.8099098205566 0.0952533408999443
vertex 0.107728615403175 -18.1219940185547 0.0500993281602859
endloop
endfacet
facet normal -0.313383877277374 -0.949626445770264 4.81995187848454e-14
outer loop
vertex 1.72173237800598 -18.6546287536621 0.0421677678823471
vertex 1.72173237800598 -18.6546287536621 0.107832230627537
vertex 0.107728615403175 -18.1219940185547 0.0500993281602859
endloop
endfacet
facet normal -0.313383847475052 -0.949626505374908 1.48458380463089e-14
outer loop
vertex 0.107728615403175 -18.1219940185547 0.0999006703495979
vertex 0.107728615403175 -18.1219940185547 0.0500993281602859
vertex 1.72173237800598 -18.6546287536621 0.107832230627537
endloop
endfacet
facet normal -0.313383877277374 -0.949626505374908 4.81995187848454e-14
outer loop
vertex 1.72173237800598 -18.6546287536621 0.0421677678823471
vertex 3.8338782787323 -19.3516521453857 0.0317882336676121
vertex 1.72173237800598 -18.6546287536621 0.107832230627537
endloop
endfacet
facet normal -0.313383877277374 -0.949626505374908 -3.09857628650375e-14
outer loop
vertex 3.8338782787323 -19.3516521453857 0.118211768567562
vertex 1.72173237800598 -18.6546287536621 0.107832230627537
vertex 3.8338782787323 -19.3516521453857 0.0317882336676121
endloop
endfacet
facet normal -0.313383877277374 -0.949626505374908 -3.09857628650375e-14
outer loop
vertex 3.8338782787323 -19.3516521453857 0.0317882336676121
vertex 5.94622611999512 -20.0487422943115 0.0214077085256577
vertex 3.8338782787323 -19.3516521453857 0.118211768567562
endloop
endfacet
facet normal -0.313383877277374 -0.949626564979553 3.40729235191045e-14
outer loop
vertex 5.94622611999512 -20.0487422943115 0.128592297434807
vertex 3.8338782787323 -19.3516521453857 0.118211768567562
vertex 5.94622611999512 -20.0487422943115 0.0214077085256577
endloop
endfacet
facet normal -0.313383877277374 -0.949626564979553 3.40729235191045e-14
outer loop
vertex 5.94622611999512 -20.0487422943115 0.0214077085256577
vertex 8.05857372283936 -20.7458324432373 0.0110271833837032
vertex 5.94622611999512 -20.0487422943115 0.128592297434807
endloop
endfacet
facet normal -0.313383877277374 -0.949626505374908 -5.27372606305351e-14
outer loop
vertex 8.05857372283936 -20.7458324432373 0.138972818851471
vertex 5.94622611999512 -20.0487422943115 0.128592297434807
vertex 8.05857372283936 -20.7458324432373 0.0110271833837032
endloop
endfacet
facet normal -0.313383847475052 -0.949626505374908 -3.83343361123455e-14
outer loop
vertex 9.99459743499756 -21.3847351074219 0.00151315203402191
vertex 9.99459743499756 -21.3847351074219 0.148486852645874
vertex 8.05857372283936 -20.7458324432373 0.0110271833837032
endloop
endfacet
facet normal -0.313383877277374 -0.949626564979553 -5.27372606305351e-14
outer loop
vertex 8.05857372283936 -20.7458324432373 0.138972818851471
vertex 8.05857372283936 -20.7458324432373 0.0110271833837032
vertex 9.99459743499756 -21.3847351074219 0.148486852645874
endloop
endfacet
facet normal -0.313383847475052 -0.949626564979553 -1.40819329124981e-14
outer loop
vertex 11.37255859375 -21.8394718170166 -0.00525844236835837
vertex 11.37255859375 -21.8394718170166 0.155258446931839
vertex 9.99459743499756 -21.3847351074219 0.00151315203402191
endloop
endfacet
facet normal -0.313383877277374 -0.949626564979553 -3.83343395004773e-14
outer loop
vertex 9.99459743499756 -21.3847351074219 0.148486852645874
vertex 9.99459743499756 -21.3847351074219 0.00151315203402191
vertex 11.37255859375 -21.8394718170166 0.155258446931839
endloop
endfacet
facet normal -0.313383877277374 -0.949626505374908 -1.40819320654652e-14
outer loop
vertex 11.37255859375 -21.8394718170166 -0.00525844236835837
vertex 12.3374242782593 -22.157886505127 -0.00999999977648258
vertex 11.37255859375 -21.8394718170166 0.155258446931839
endloop
endfacet
facet normal -0.313383877277374 -0.949626505374908 -0
outer loop
vertex 12.3374242782593 -22.157886505127 0.159999996423721
vertex 11.37255859375 -21.8394718170166 0.155258446931839
vertex 12.3374242782593 -22.157886505127 -0.00999999977648258
endloop
endfacet
facet normal 0.0120749678462744 -0.00386892794631422 0.999919593334198
outer loop
vertex 12.4253644943237 -21.8813247680664 -0.130194708704948
vertex 11.4720869064331 -21.576587677002 -0.117503881454468
vertex 12.3734922409058 -22.0432186126709 -0.130194708704948
endloop
endfacet
facet normal 0.0120749669149518 -0.00386892771348357 0.999919593334198
outer loop
vertex 11.4206218719482 -21.7372093200684 -0.117503881454468
vertex 12.3734922409058 -22.0432186126709 -0.130194708704948
vertex 11.4720869064331 -21.576587677002 -0.117503881454468
endloop
endfacet
facet normal 0.0120749669149518 -0.00386892794631422 0.999919593334198
outer loop
vertex 11.4206218719482 -21.7372093200684 -0.117503881454468
vertex 11.4720869064331 -21.576587677002 -0.117503881454468
vertex 10.0771818161011 -21.3057708740234 -0.0996112376451492
endloop
endfacet
facet normal 0.0120749678462744 -0.00386892794631422 0.999919593334198
outer loop
vertex 10.1280717849731 -21.1469402313232 -0.0996112376451492
vertex 10.0771818161011 -21.3057708740234 -0.0996112376451492
vertex 11.4720869064331 -21.576587677002 -0.117503881454468
endloop
endfacet
facet normal 0.0120749678462744 -0.00386892771348357 0.999919652938843
outer loop
vertex 10.0771818161011 -21.3057708740234 -0.0996112376451492
vertex 10.1280717849731 -21.1469402313232 -0.0996112376451492
vertex 8.19946098327637 -20.702751159668 -0.0746027752757072
endloop
endfacet
facet normal 0.012074968777597 -0.00386892771348357 0.999919652938843
outer loop
vertex 8.24954891204834 -20.5464248657227 -0.0746027752757072
vertex 8.19946098327637 -20.702751159668 -0.0746027752757072
vertex 10.1280717849731 -21.1469402313232 -0.0996112376451492
endloop
endfacet
facet normal 0.0120749669149518 -0.00386892771348357 0.999919593334198
outer loop
vertex 8.24954891204834 -20.5464248657227 -0.0746027752757072
vertex 6.16951465606689 -19.8814926147461 -0.0469116158783436
vertex 8.19946098327637 -20.702751159668 -0.0746027752757072
endloop
endfacet
facet normal 0.012074968777597 -0.00386892817914486 0.999919593334198
outer loop
vertex 6.1203145980835 -20.0350456237793 -0.0469116158783436
vertex 8.19946098327637 -20.702751159668 -0.0746027752757072
vertex 6.16951465606689 -19.8814926147461 -0.0469116158783436
endloop
endfacet
facet normal 0.012074968777597 -0.00386892817914486 0.999919593334198
outer loop
vertex 6.16951465606689 -19.8814926147461 -0.0469116158783436
vertex 4.08947992324829 -19.2165603637695 -0.0192204620689154
vertex 6.1203145980835 -20.0350456237793 -0.0469116158783436
endloop
endfacet
facet normal 0.0120749678462744 -0.00386892771348357 0.999919593334198
outer loop
vertex 4.04116868972778 -19.3673400878906 -0.0192204620689154
vertex 6.1203145980835 -20.0350456237793 -0.0469116158783436
vertex 4.08947992324829 -19.2165603637695 -0.0192204620689154
endloop
endfacet
facet normal 0.0120749678462744 -0.00386892771348357 0.999919593334198
outer loop
vertex 4.08947992324829 -19.2165603637695 -0.0192204620689154
vertex 2.00944495201111 -18.5516262054443 0.00847069453448057
vertex 4.04116868972778 -19.3673400878906 -0.0192204620689154
endloop
endfacet
facet normal 0.0120749669149518 -0.00386892794631422 0.999919593334198
outer loop
vertex 1.96202230453491 -18.6996326446533 0.00847069453448057
vertex 4.04116868972778 -19.3673400878906 -0.0192204620689154
vertex 2.00944495201111 -18.5516262054443 0.00847069453448057
endloop
endfacet
facet normal 0.0120749678462744 -0.00386892771348357 0.999919533729553
outer loop
vertex 1.96202230453491 -18.6996326446533 0.00847069453448057
vertex 2.00944495201111 -18.5516262054443 0.00847069453448057
vertex 0.180606976151466 -18.1275424957275 0.0321965143084526
endloop
endfacet
facet normal 0.0120749678462744 -0.00386892794631422 0.999919593334198
outer loop
vertex 0.227268427610397 -17.9819107055664 0.0321965143084526
vertex 0.180606976151466 -18.1275424957275 0.0321965143084526
vertex 2.00944495201111 -18.5516262054443 0.00847069453448057
endloop
endfacet
facet normal 0.0120749678462744 -0.00386892771348357 0.999919593334198
outer loop
vertex 0.227268427610397 -17.9819107055664 0.0321965143084526
vertex -1.00699126720428 -17.5873508453369 0.0486280098557472
vertex 0.180606976151466 -18.1275424957275 0.0321965143084526
endloop
endfacet
facet normal 0.0120749678462744 -0.00386892817914486 0.999919593334198
outer loop
vertex -1.05312550067902 -17.7313365936279 0.0486280098557472
vertex 0.180606976151466 -18.1275424957275 0.0321965143084526
vertex -1.00699126720428 -17.5873508453369 0.0486280098557472
endloop
endfacet
facet normal 0.0120749697089195 -0.0038689284119755 0.999919652938843
outer loop
vertex -1.00699126720428 -17.5873508453369 0.0486280098557472
vertex -1.86120390892029 -17.314281463623 0.0599999986588955
vertex -1.05312550067902 -17.7313365936279 0.0486280098557472
endloop
endfacet
facet normal 0.0120749678462744 -0.00386892771348357 0.999919593334198
outer loop
vertex -1.9069732427597 -17.4571285247803 0.0599999986588955
vertex -1.05312550067902 -17.7313365936279 0.0486280098557472
vertex -1.86120390892029 -17.314281463623 0.0599999986588955
endloop
endfacet
facet normal -0.224736660718918 -0.670475900173187 -0.707075238227844
outer loop
vertex 0.0320118181407452 -18.0970077514648 0.0504717752337456
vertex -1.9069732427597 -17.4571285247803 0.0599999986588955
vertex 0.0370643213391304 -18.0814437866211 0.0341079570353031
endloop
endfacet
facet normal -0.224736660718918 -0.670475900173187 -0.707075238227844
outer loop
vertex 1.97099685668945 -18.7368869781494 0.0409435480833054
vertex 0.0320118181407452 -18.0970077514648 0.0504717752337456
vertex 1.9811018705368 -18.7057590484619 0.00821591727435589
endloop
endfacet
facet normal -0.224736660718918 -0.670475900173187 -0.707075238227844
outer loop
vertex 0.0370643213391304 -18.0814437866211 0.0341079570353031
vertex 1.9811018705368 -18.7057590484619 0.00821591727435589
vertex 0.0320118181407452 -18.0970077514648 0.0504717752337456
endloop
endfacet
facet normal -0.224736660718918 -0.670475900173187 -0.707075238227844
outer loop
vertex 1.97099685668945 -18.7368869781494 0.0409435480833054
vertex 1.9811018705368 -18.7057590484619 0.00821591727435589
vertex 3.90998196601868 -19.376766204834 0.0314153209328651
endloop
endfacet
facet normal -0.224736675620079 -0.670475959777832 -0.707075297832489
outer loop
vertex 3.92513942718506 -19.3300762176514 -0.0176761243492365
vertex 3.90998196601868 -19.376766204834 0.0314153209328651
vertex 1.9811018705368 -18.7057590484619 0.00821591727435589
endloop
endfacet
facet normal -0.224736660718918 -0.670475900173187 -0.707075238227844
outer loop
vertex 5.8489670753479 -20.0166454315186 0.0218870956450701
vertex 3.90998196601868 -19.376766204834 0.0314153209328651
vertex 5.86917686462402 -19.9543914794922 -0.0435681641101837
endloop
endfacet
facet normal -0.224736675620079 -0.670475959777832 -0.707075297832489
outer loop
vertex 3.92513942718506 -19.3300762176514 -0.0176761243492365
vertex 5.86917686462402 -19.9543914794922 -0.0435681641101837
vertex 3.90998196601868 -19.376766204834 0.0314153209328651
endloop
endfacet
facet normal -0.224736660718918 -0.670475900173187 -0.707075238227844
outer loop
vertex 5.8489670753479 -20.0166454315186 0.0218870956450701
vertex 5.86917686462402 -19.9543914794922 -0.0435681641101837
vertex 7.78795194625854 -20.6565265655518 0.012358870357275
endloop
endfacet
facet normal -0.224736660718918 -0.670475900173187 -0.707075297832489
outer loop
vertex 7.81321477890015 -20.5787086486816 -0.0694602057337761
vertex 7.78795194625854 -20.6565265655518 0.012358870357275
vertex 5.86917686462402 -19.9543914794922 -0.0435681641101837
endloop
endfacet
facet normal -0.224736660718918 -0.670475900173187 -0.707075297832489
outer loop
vertex 7.78795194625854 -20.6565265655518 0.012358870357275
vertex 7.81321477890015 -20.5787086486816 -0.0694602057337761
vertex 9.72693729400635 -21.2964057922363 0.00283064413815737
endloop
endfacet
facet normal -0.224736675620079 -0.670475959777832 -0.707075297832489
outer loop
vertex 9.75725269317627 -21.2030239105225 -0.0953522473573685
vertex 9.72693729400635 -21.2964057922363 0.00283064413815737
vertex 7.81321477890015 -20.5787086486816 -0.0694602057337761
endloop
endfacet
facet normal -0.224736675620079 -0.670475959777832 -0.707075297832489
outer loop
vertex 9.72693729400635 -21.2964057922363 0.00283064413815737
vertex 9.75725269317627 -21.2030239105225 -0.0953522473573685
vertex 11.3429822921753 -21.8297119140625 -0.00511064380407333
endloop
endfacet
facet normal -0.224736675620079 -0.670475959777832 -0.707075297832489
outer loop
vertex 11.3775396347046 -21.7233695983887 -0.116932362318039
vertex 11.3429822921753 -21.8297119140625 -0.00511064380407333
vertex 9.75725269317627 -21.2030239105225 -0.0953522473573685
endloop
endfacet
facet normal -0.224736660718918 -0.670475900173187 -0.707075297832489
outer loop
vertex 11.3429822921753 -21.8297119140625 -0.00511064380407333
vertex 11.3775396347046 -21.7233695983887 -0.116932362318039
vertex 12.33726978302 -22.1578350067139 -0.00999660044908524
endloop
endfacet
facet normal -0.224736660718918 -0.670475959777832 -0.707075297832489
outer loop
vertex 12.3744077682495 -22.0435085296631 -0.130209341645241
vertex 12.33726978302 -22.1578350067139 -0.00999660044908524
vertex 11.3775396347046 -21.7233695983887 -0.116932362318039
endloop
endfacet
facet normal -0.952049493789673 0.305045187473297 0.0234339386224747
outer loop
vertex -1.52340662479401 -17.4120140075684 15.0858812332153
vertex -1.5459463596344 -17.4054927825928 14.0852737426758
vertex -1.5752786397934 -17.5739059448242 15.0858812332153
endloop
endfacet
facet normal -0.952049493789673 0.305045187473297 0.0234339386224747
outer loop
vertex -1.59741103649139 -17.5661144256592 14.0852737426758
vertex -1.5752786397934 -17.5739059448242 15.0858812332153
vertex -1.5459463596344 -17.4054927825928 14.0852737426758
endloop
endfacet
facet normal -0.952049493789673 0.305045187473297 0.0234339367598295
outer loop
vertex -1.59741103649139 -17.5661144256592 14.0852737426758
vertex -1.5459463596344 -17.4054927825928 14.0852737426758
vertex -1.6286153793335 -17.5551280975342 12.6745300292969
endloop
endfacet
facet normal -0.952049553394318 0.305045187473297 0.0234339367598295
outer loop
vertex -1.57772469520569 -17.396297454834 12.6745300292969
vertex -1.6286153793335 -17.5551280975342 12.6745300292969
vertex -1.5459463596344 -17.4054927825928 14.0852737426758
endloop
endfacet
facet normal -0.952049493789673 0.305045187473297 0.0234339386224747
outer loop
vertex -1.6286153793335 -17.5551280975342 12.6745300292969
vertex -1.57772469520569 -17.396297454834 12.6745300292969
vertex -1.67222952842712 -17.53977394104 10.7027406692505
endloop
endfacet
facet normal -0.952049553394318 0.305045187473297 0.0234339386224747
outer loop
vertex -1.62214124202728 -17.3834476470947 10.7027406692505
vertex -1.67222952842712 -17.53977394104 10.7027406692505
vertex -1.57772469520569 -17.396297454834 12.6745300292969
endloop
endfacet
facet normal -0.952049553394318 0.30504521727562 0.0234339404851198
outer loop
vertex -1.62214124202728 -17.3834476470947 10.7027406692505
vertex -1.67132246494293 -17.3692188262939 8.51943492889404
vertex -1.67222952842712 -17.53977394104 10.7027406692505
endloop
endfacet
facet normal -0.952049493789673 0.30504521727562 0.0234339386224747
outer loop
vertex -1.72052216529846 -17.5227718353271 8.51943492889404
vertex -1.67222952842712 -17.53977394104 10.7027406692505
vertex -1.67132246494293 -17.3692188262939 8.51943492889404
endloop
endfacet
facet normal -0.952049493789673 0.30504521727562 0.0234339386224747
outer loop
vertex -1.67132246494293 -17.3692188262939 8.51943492889404
vertex -1.72050356864929 -17.3549880981445 6.33612871170044
vertex -1.72052216529846 -17.5227718353271 8.51943492889404
endloop
endfacet
facet normal -0.952049553394318 0.305045187473297 0.0234339367598295
outer loop
vertex -1.7688148021698 -17.5057697296143 6.33612871170044
vertex -1.72052216529846 -17.5227718353271 8.51943492889404
vertex -1.72050356864929 -17.3549880981445 6.33612871170044
endloop
endfacet
facet normal -0.952049553394318 0.305045187473297 0.0234339367598295
outer loop
vertex -1.72050356864929 -17.3549880981445 6.33612871170044
vertex -1.76968479156494 -17.3407592773438 4.15282249450684
vertex -1.7688148021698 -17.5057697296143 6.33612871170044
endloop
endfacet
facet normal -0.952049553394318 0.30504521727562 0.0234339404851198
outer loop
vertex -1.81710743904114 -17.4887657165527 4.15282249450684
vertex -1.7688148021698 -17.5057697296143 6.33612871170044
vertex -1.76968479156494 -17.3407592773438 4.15282249450684
endloop
endfacet
facet normal -0.952049434185028 0.305045187473297 0.0234339386224747
outer loop
vertex -1.81710743904114 -17.4887657165527 4.15282249450684
vertex -1.76968479156494 -17.3407592773438 4.15282249450684
vertex -1.85848474502563 -17.4741992950439 2.2821626663208
endloop
endfacet
facet normal -0.952049553394318 0.305045187473297 0.0234339386224747
outer loop
vertex -1.81182324886322 -17.3285675048828 2.2821626663208
vertex -1.85848474502563 -17.4741992950439 2.2821626663208
vertex -1.76968479156494 -17.3407592773438 4.15282249450684
endloop
endfacet
facet normal -0.952049493789673 0.305045187473297 0.0234339367598295
outer loop
vertex -1.81182324886322 -17.3285675048828 2.2821626663208
vertex -1.84100663661957 -17.320125579834 0.986623346805573
vertex -1.85848474502563 -17.4741992950439 2.2821626663208
endloop
endfacet
facet normal -0.952049493789673 0.305045187473297 0.0234339386224747
outer loop
vertex -1.8871408700943 -17.4641094207764 0.986623346805573
vertex -1.85848474502563 -17.4741992950439 2.2821626663208
vertex -1.84100663661957 -17.320125579834 0.986623346805573
endloop
endfacet
facet normal -0.952049553394318 0.305045187473297 0.0234339367598295
outer loop
vertex -1.84100663661957 -17.320125579834 0.986623346805573
vertex -1.86120390892029 -17.314281463623 0.0900000035762787
vertex -1.8871408700943 -17.4641094207764 0.986623346805573
endloop
endfacet
facet normal -0.952049493789673 0.305045157670975 0.0234339367598295
outer loop
vertex -1.9069732427597 -17.4571285247803 0.0900000035762787
vertex -1.8871408700943 -17.4641094207764 0.986623346805573
vertex -1.86120390892029 -17.314281463623 0.0900000035762787
endloop
endfacet
facet normal 0.205414861440659 0.676666080951691 -0.707055687904358
outer loop
vertex 1.61209654808044 -7.28883647918701 10.6936149597168
vertex 1.37876260280609 -7.96854400634766 9.97533226013184
vertex 1.45018661022186 -7.23707818984985 10.6961097717285
endloop
endfacet
facet normal 0.205414891242981 0.676666080951691 -0.707055687904358
outer loop
vertex 1.22588443756104 -7.91967296600342 9.97768878936768
vertex 1.45018661022186 -7.23707818984985 10.6961097717285
vertex 1.37876260280609 -7.96854400634766 9.97533226013184
endloop
endfacet
facet normal 0.20541487634182 0.676666080951691 -0.707055687904358
outer loop
vertex 1.22588443756104 -7.91967296600342 9.97768878936768
vertex 1.37876260280609 -7.96854400634766 9.97533226013184
vertex 0.905550301074982 -8.89451217651367 8.95168495178223
endloop
endfacet
facet normal 0.20541487634182 0.676666080951691 -0.707055687904358
outer loop
vertex 1.04552972316742 -8.93925952911377 8.94952774047852
vertex 0.905550301074982 -8.89451217651367 8.95168495178223
vertex 1.37876260280609 -7.96854400634766 9.97533226013184
endloop
endfacet
facet normal 0.20541487634182 0.676666080951691 -0.707055687904358
outer loop
vertex 0.905550301074982 -8.89451217651367 8.95168495178223
vertex 1.04552972316742 -8.93925952911377 8.94952774047852
vertex 0.45548352599144 -10.2641525268555 7.5101580619812
endloop
endfacet
facet normal 0.20541487634182 0.676666140556335 -0.707055687904358
outer loop
vertex 0.577340424060822 -10.3031063079834 7.5082802772522
vertex 0.45548352599144 -10.2641525268555 7.5101580619812
vertex 1.04552972316742 -8.93925952911377 8.94952774047852
endloop
endfacet
facet normal 0.20541487634182 0.676666080951691 -0.707055687904358
outer loop
vertex 0.577340424060822 -10.3031063079834 7.5082802772522
vertex 0.0665105953812599 -11.791166305542 5.9357705116272
vertex 0.45548352599144 -10.2641525268555 7.5101580619812
endloop
endfacet
facet normal 0.205414861440659 0.676666080951691 -0.707055687904358
outer loop
vertex -0.0355732478201389 -11.7585334777832 5.93734407424927
vertex 0.45548352599144 -10.2641525268555 7.5101580619812
vertex 0.0665105953812599 -11.791166305542 5.9357705116272
endloop
endfacet
facet normal 0.205414861440659 0.676666080951691 -0.707055687904358
outer loop
vertex 0.0665105953812599 -11.791166305542 5.9357705116272
vertex -0.444319248199463 -13.2792263031006 4.36326122283936
vertex -0.0355732478201389 -11.7585334777832 5.93734407424927
endloop
endfacet
facet normal 0.205414861440659 0.676666080951691 -0.707055687904358
outer loop
vertex -0.526629984378815 -13.2529144287109 4.36452960968018
vertex -0.0355732478201389 -11.7585334777832 5.93734407424927
vertex -0.444319248199463 -13.2792263031006 4.36326122283936
endloop
endfacet
facet normal 0.205414861440659 0.676666021347046 -0.707055687904358
outer loop
vertex -0.444319248199463 -13.2792263031006 4.36326122283936
vertex -0.955100297927856 -14.767144203186 2.79090189933777
vertex -0.526629984378815 -13.2529144287109 4.36452960968018
endloop
endfacet
facet normal 0.20541487634182 0.676666080951691 -0.707055687904358
outer loop
vertex -1.01763987541199 -14.7471523284912 2.79186582565308
vertex -0.526629984378815 -13.2529144287109 4.36452960968018
vertex -0.955100297927856 -14.767144203186 2.79090189933777
endloop
endfacet
facet normal 0.20541487634182 0.676666080951691 -0.707055628299713
outer loop
vertex -1.01763987541199 -14.7471523284912 2.79186582565308
vertex -0.955100297927856 -14.767144203186 2.79090189933777
vertex -1.39284682273865 -15.8889799118042 1.59010899066925
endloop
endfacet
facet normal 0.205414891242981 0.676666140556335 -0.707055687904358
outer loop
vertex -1.34541547298431 -15.9041423797607 1.58937799930573
vertex -1.39284682273865 -15.8889799118042 1.59010899066925
vertex -0.955100297927856 -14.767144203186 2.79090189933777
endloop
endfacet
facet normal 0.205414861440659 0.676666021347046 -0.707055687904358
outer loop
vertex -1.34541547298431 -15.9041423797607 1.58937799930573
vertex -1.57411253452301 -16.5703430175781 0.885369956493378
vertex -1.39284682273865 -15.8889799118042 1.59010899066925
endloop
endfacet
facet normal 0.205414861440659 0.676666080951691 -0.707055687904358
outer loop
vertex -1.61269152164459 -16.5580101013184 0.885964572429657
vertex -1.39284682273865 -15.8889799118042 1.59010899066925
vertex -1.57411253452301 -16.5703430175781 0.885369956493378
endloop
endfacet
facet normal 0.205414861440659 0.676666021347046 -0.707055687904358
outer loop
vertex -1.61269152164459 -16.5580101013184 0.885964572429657
vertex -1.57411253452301 -16.5703430175781 0.885369956493378
vertex -1.74150502681732 -16.9500141143799 0.473385751247406
endloop
endfacet
facet normal 0.20541487634182 0.676666080951691 -0.707055687904358
outer loop
vertex -1.70811283588409 -16.9606895446777 0.472871065139771
vertex -1.74150502681732 -16.9500141143799 0.473385751247406
vertex -1.57411253452301 -16.5703430175781 0.885369956493378
endloop
endfacet
facet normal 0.20541487634182 0.676666080951691 -0.707055687904358
outer loop
vertex -1.70811283588409 -16.9606895446777 0.472871065139771
vertex -1.78662753105164 -17.1894035339355 0.231175899505615
vertex -1.74150502681732 -16.9500141143799 0.473385751247406
endloop
endfacet
facet normal 0.205414861440659 0.676666080951691 -0.707055687904358
outer loop
vertex -1.81698060035706 -17.1797008514404 0.231643721461296
vertex -1.74150502681732 -16.9500141143799 0.473385751247406
vertex -1.78662753105164 -17.1894035339355 0.231175899505615
endloop
endfacet
facet normal 0.205414861440659 0.676666080951691 -0.707055687904358
outer loop
vertex -1.81698060035706 -17.1797008514404 0.231643721461296
vertex -1.78662753105164 -17.1894035339355 0.231175899505615
vertex -1.86120390892029 -17.314281463623 0.0900000035762787
endloop
endfacet
facet normal 0.20541487634182 0.676666080951691 -0.707055687904358
outer loop
vertex -1.83263158798218 -17.3234157562256 0.0895596221089363
vertex -1.86120390892029 -17.314281463623 0.0900000035762787
vertex -1.78662753105164 -17.1894035339355 0.231175899505615
endloop
endfacet
facet normal -0.223822548985481 -0.670709729194641 0.707143485546112
outer loop
vertex 1.61153149604797 -7.29062938690186 10.696385383606
vertex 1.45015060901642 -7.23718786239624 10.6959943771362
vertex 1.36913049221039 -7.99029207229614 9.95604801177979
endloop
endfacet
facet normal -0.223822563886642 -0.670709729194641 0.707143545150757
outer loop
vertex 1.2190113067627 -7.940589427948 9.95567417144775
vertex 1.36913049221039 -7.99029207229614 9.95604801177979
vertex 1.45015060901642 -7.23718786239624 10.6959943771362
endloop
endfacet
facet normal -0.223822548985481 -0.670709729194641 0.707143485546112
outer loop
vertex 1.36913049221039 -7.99029207229614 9.95604801177979
vertex 1.2190113067627 -7.940589427948 9.95567417144775
vertex 0.975134491920471 -9.127516746521 8.75270938873291
endloop
endfacet
facet normal -0.223822548985481 -0.670709729194641 0.707143485546112
outer loop
vertex 0.843331396579742 -9.08385562896729 8.75240325927734
vertex 0.975134491920471 -9.127516746521 8.75270938873291
vertex 1.2190113067627 -7.940589427948 9.95567417144775
endloop
endfacet
facet normal -0.223822548985481 -0.670709729194641 0.707143485546112
outer loop
vertex 0.975134491920471 -9.127516746521 8.75270938873291
vertex 0.843331396579742 -9.08385562896729 8.75240325927734
vertex 0.502411425113678 -10.4919776916504 7.30892467498779
endloop
endfacet
facet normal -0.22382253408432 -0.670709729194641 0.707143485546112
outer loop
vertex 0.392575532197952 -10.4555931091309 7.308669090271
vertex 0.502411425113678 -10.4919776916504 7.30892467498779
vertex 0.843331396579742 -9.08385562896729 8.75240325927734
endloop
endfacet
facet normal -0.22382253408432 -0.670709729194641 0.707143485546112
outer loop
vertex 0.502411425113678 -10.4919776916504 7.30892467498779
vertex 0.392575532197952 -10.4555931091309 7.308669090271
vertex 0.0296883415430784 -11.8564376831055 5.86513996124268
endloop
endfacet
facet normal -0.223822563886642 -0.670709729194641 0.707143545150757
outer loop
vertex -0.0581803619861603 -11.8273305892944 5.86493539810181
vertex 0.0296883415430784 -11.8564376831055 5.86513996124268
vertex 0.392575532197952 -10.4555931091309 7.308669090271
endloop
endfacet
facet normal -0.223822563886642 -0.670709729194641 0.707143545150757
outer loop
vertex -0.0581803619861603 -11.8273305892944 5.86493539810181
vertex -0.50893622636795 -13.199068069458 4.42120170593262
vertex 0.0296883415430784 -11.8564376831055 5.86513996124268
endloop
endfacet
facet normal -0.223822548985481 -0.670709729194641 0.707143485546112
outer loop
vertex -0.443034738302231 -13.2208986282349 4.4213547706604
vertex 0.0296883415430784 -11.8564376831055 5.86513996124268
vertex -0.50893622636795 -13.199068069458 4.42120170593262
endloop
endfacet
facet normal -0.223822548985481 -0.670709729194641 0.707143485546112
outer loop
vertex -0.443034738302231 -13.2208986282349 4.4213547706604
vertex -0.50893622636795 -13.199068069458 4.42120170593262
vertex -0.915757775306702 -14.5853595733643 2.9775698184967
endloop
endfacet
facet normal -0.223822563886642 -0.670709729194641 0.707143545150757
outer loop
vertex -0.959692120552063 -14.5708065032959 2.97746777534485
vertex -0.915757775306702 -14.5853595733643 2.9775698184967
vertex -0.50893622636795 -13.199068069458 4.42120170593262
endloop
endfacet
facet normal -0.223822563886642 -0.670709729194641 0.707143545150757
outer loop
vertex -0.959692120552063 -14.5708065032959 2.97746777534485
vertex -1.41044807434082 -15.9425439834595 1.53373384475708
vertex -0.915757775306702 -14.5853595733643 2.9775698184967
endloop
endfacet
facet normal -0.223822563886642 -0.670709729194641 0.707143545150757
outer loop
vertex -1.38848090171814 -15.9498205184937 1.5337849855423
vertex -0.915757775306702 -14.5853595733643 2.9775698184967
vertex -1.41044807434082 -15.9425439834595 1.53373384475708
endloop
endfacet
facet normal -0.223822563886642 -0.670709729194641 0.707143545150757
outer loop
vertex -1.41044807434082 -15.9425439834595 1.53373384475708
vertex -1.86120390892029 -17.314281463623 0.0900000035762787
vertex -1.38848090171814 -15.9498205184937 1.5337849855423
endloop
endfacet
facet normal -0.313381761312485 -0.949627101421356 -0.000463404896436259
outer loop
vertex -0.216904804110527 -18.0214653015137 13.6285848617554
vertex -1.5752786397934 -17.5739059448242 15.0858812332153
vertex -0.232588723301888 -18.0162811279297 13.6123781204224
endloop
endfacet
facet normal -0.313381761312485 -0.949627101421356 -0.000463404896436259
outer loop
vertex -0.232588723301888 -18.0162811279297 13.6123781204224
vertex 1.11010110378265 -18.4586582183838 12.1388750076294
vertex -0.216904804110527 -18.0214653015137 13.6285848617554
endloop
endfacet
facet normal -0.313381761312485 -0.949627101421356 -0.000463404896436259
outer loop
vertex 1.14146900177002 -18.4690246582031 12.1712894439697
vertex -0.216904804110527 -18.0214653015137 13.6285848617554
vertex 1.11010110378265 -18.4586582183838 12.1388750076294
endloop
endfacet
facet normal -0.313381761312485 -0.949627101421356 -0.000463404896436259
outer loop
vertex 1.11010110378265 -18.4586582183838 12.1388750076294
vertex 2.45279097557068 -18.9010334014893 10.6653718948364
vertex 1.14146900177002 -18.4690246582031 12.1712894439697
endloop
endfacet
facet normal -0.313381791114807 -0.949627161026001 -0.00046340492554009
outer loop
vertex 2.49984288215637 -18.9165840148926 10.7139930725098
vertex 1.14146900177002 -18.4690246582031 12.1712894439697
vertex 2.45279097557068 -18.9010334014893 10.6653718948364
endloop
endfacet
facet normal -0.313381791114807 -0.949627161026001 -0.00046340492554009
outer loop
vertex 2.45279097557068 -18.9010334014893 10.6653718948364
vertex 3.79548096656799 -19.3434085845947 9.19186878204346
vertex 2.49984288215637 -18.9165840148926 10.7139930725098
endloop
endfacet
facet normal -0.313381761312485 -0.949627101421356 -0.000463404896436259
outer loop
vertex 3.85821652412415 -19.364143371582 9.25669765472412
vertex 2.49984288215637 -18.9165840148926 10.7139930725098
vertex 3.79548096656799 -19.3434085845947 9.19186878204346
endloop
endfacet
facet normal -0.313381791114807 -0.949627101421356 -0.000463404896436259
outer loop
vertex 5.2165904045105 -19.8117027282715 7.79940128326416
vertex 3.85821652412415 -19.364143371582 9.25669765472412
vertex 5.13817071914673 -19.7857837677002 7.71836614608765
endloop
endfacet
facet normal -0.313381761312485 -0.949627101421356 -0.000463404896436259
outer loop
vertex 3.79548096656799 -19.3434085845947 9.19186878204346
vertex 5.13817071914673 -19.7857837677002 7.71836614608765
vertex 3.85821652412415 -19.364143371582 9.25669765472412
endloop
endfacet
facet normal -0.313381791114807 -0.949627101421356 -0.000463404896436259
outer loop
vertex 5.2165904045105 -19.8117027282715 7.79940128326416
vertex 5.13817071914673 -19.7857837677002 7.71836614608765
vertex 6.57496404647827 -20.2592620849609 6.34210538864136
endloop
endfacet
facet normal -0.313381791114807 -0.949627161026001 -0.00046340492554009
outer loop
vertex 6.48086071014404 -20.2281589508057 6.24486303329468
vertex 6.57496404647827 -20.2592620849609 6.34210538864136
vertex 5.13817071914673 -19.7857837677002 7.71836614608765
endloop
endfacet
facet normal -0.313381791114807 -0.949627101421356 -0.000463404896436259
outer loop
vertex 6.57496404647827 -20.2592620849609 6.34210538864136
vertex 6.48086071014404 -20.2281589508057 6.24486303329468
vertex 7.70709896087646 -20.6322784423828 5.12752389907837
endloop
endfacet
facet normal -0.313381761312485 -0.949627041816711 -0.000463404867332429
outer loop
vertex 7.59994602203369 -20.5968627929688 5.01674938201904
vertex 7.70709896087646 -20.6322784423828 5.12752389907837
vertex 6.48086071014404 -20.2281589508057 6.24486303329468
endloop
endfacet
facet normal -0.313381791114807 -0.949627101421356 -0.000463404896436259
outer loop
vertex 7.70709896087646 -20.6322784423828 5.12752389907837
vertex 7.59994602203369 -20.5968627929688 5.01674938201904
vertex 8.40365600585938 -20.8617820739746 4.38024044036865
endloop
endfacet
facet normal -0.313381791114807 -0.949627101421356 -0.000463404896436259
outer loop
vertex 8.28845310211182 -20.8237056732178 4.26116371154785
vertex 8.40365600585938 -20.8617820739746 4.38024044036865
vertex 7.59994602203369 -20.5968627929688 5.01674938201904
endloop
endfacet
facet normal -1 0 0
outer loop
vertex -0.190209999680519 -16 0.159999996423721
vertex -0.190209999680519 -15 0.159999996423721
vertex -0.190209999680519 -16 -0.00999999977648258
endloop
endfacet
facet normal -1 0 0
outer loop
vertex -0.190209999680519 -15 -0.00999999977648258
vertex -0.190209999680519 -16 -0.00999999977648258
vertex -0.190209999680519 -15 0.159999996423721
endloop
endfacet
facet normal -0.70710676908493 0 -0.70710676908493
outer loop
vertex -0.190209999680519 -16 -0.00999999977648258
vertex -0.190209999680519 -15 -0.00999999977648258
vertex -0.0700000002980232 -16 -0.130209997296333
endloop
endfacet
facet normal -0.70710676908493 -0 -0.70710676908493
outer loop
vertex -0.0700000002980232 -15 -0.130209997296333
vertex -0.0700000002980232 -16 -0.130209997296333
vertex -0.190209999680519 -15 -0.00999999977648258
endloop
endfacet
facet normal -0.70710676908493 0 0.70710676908493
outer loop
vertex -0.0700000002980232 -16 0.280209988355637
vertex -0.0700000002980232 -15 0.280209988355637
vertex -0.190209999680519 -16 0.159999996423721
endloop
endfacet
facet normal -0.70710676908493 0 0.70710676908493
outer loop
vertex -0.190209999680519 -15 0.159999996423721
vertex -0.190209999680519 -16 0.159999996423721
vertex -0.0700000002980232 -15 0.280209988355637
endloop
endfacet
facet normal 0 0 -1
outer loop
vertex -0.0700000002980232 -16 -0.130209997296333
vertex -0.0700000002980232 -15 -0.130209997296333
vertex 0.100000001490116 -16 -0.130209997296333
endloop
endfacet
facet normal -0 -0 -1
outer loop
vertex 0.100000001490116 -15 -0.130209997296333
vertex 0.100000001490116 -16 -0.130209997296333
vertex -0.0700000002980232 -15 -0.130209997296333
endloop
endfacet
facet normal -0 0 1
outer loop
vertex -0.0700000002980232 -15 0.280209988355637
vertex -0.0700000002980232 -16 0.280209988355637
vertex 0.100000001490116 -15 0.280209988355637
endloop
endfacet
facet normal 0 -0 1
outer loop
vertex 0.100000001490116 -16 0.280209988355637
vertex 0.100000001490116 -15 0.280209988355637
vertex -0.0700000002980232 -16 0.280209988355637
endloop
endfacet
facet normal 0.70710676908493 0 -0.70710676908493
outer loop
vertex 0.220210000872612 -15 -0.00999999977648258
vertex 0.220210000872612 -16 -0.00999999977648258
vertex 0.100000001490116 -15 -0.130209997296333
endloop
endfacet
facet normal 0.70710676908493 0 -0.70710676908493
outer loop
vertex 0.100000001490116 -16 -0.130209997296333
vertex 0.100000001490116 -15 -0.130209997296333
vertex 0.220210000872612 -16 -0.00999999977648258
endloop
endfacet
facet normal 0.70710676908493 0 0.70710676908493
outer loop
vertex 0.100000001490116 -15 0.280209988355637
vertex 0.100000001490116 -16 0.280209988355637
vertex 0.220210000872612 -15 0.159999996423721
endloop
endfacet
facet normal 0.70710676908493 -0 0.70710676908493
outer loop
vertex 0.220210000872612 -16 0.159999996423721
vertex 0.220210000872612 -15 0.159999996423721
vertex 0.100000001490116 -16 0.280209988355637
endloop
endfacet
facet normal 1 0 0
outer loop
vertex 0.220210000872612 -15 0.159999996423721
vertex 0.220210000872612 -16 0.159999996423721
vertex 0.220210000872612 -15 -0.00999999977648258
endloop
endfacet
facet normal 1 0 0
outer loop
vertex 0.220210000872612 -16 -0.00999999977648258
vertex 0.220210000872612 -15 -0.00999999977648258
vertex 0.220210000872612 -16 0.159999996423721
endloop
endfacet
facet normal -0 0.00868033897131681 0.999962329864502
outer loop
vertex -0.0700000002980232 -14.9994344711304 0.280205100774765
vertex 0.100000001490116 -14.9994344711304 0.280205100774765
vertex -0.0652584433555603 -13.9834251403809 0.271385461091995
endloop
endfacet
facet normal 1.92121617581166e-16 0.00868033990263939 0.999962329864502
outer loop
vertex 0.0952584445476532 -13.9834251403809 0.271385461091995
vertex -0.0652584433555603 -13.9834251403809 0.271385461091995
vertex 0.100000001490116 -14.9994344711304 0.280205100774765
endloop
endfacet
facet normal 1.92121604346277e-16 0.00868033990263939 0.999962329864502
outer loop
vertex 0.0952584445476532 -13.9834251403809 0.271385461091995
vertex 0.0884868502616882 -12.5324239730835 0.25878980755806
vertex -0.0652584433555603 -13.9834251403809 0.271385461091995
endloop
endfacet
facet normal 3.14737564395217e-16 0.00868033990263939 0.999962329864502
outer loop
vertex -0.0584868490695953 -12.5324239730835 0.25878980755806
vertex -0.0652584433555603 -13.9834251403809 0.271385461091995
vertex 0.0884868502616882 -12.5324239730835 0.25878980755806
endloop
endfacet
facet normal 3.14737537925438e-16 0.00868033897131681 0.999962329864502
outer loop
vertex -0.0584868490695953 -12.5324239730835 0.25878980755806
vertex 0.0884868502616882 -12.5324239730835 0.25878980755806
vertex -0.0489728152751923 -10.4937791824341 0.241092994809151
endloop
endfacet
facet normal 2.41057933639714e-17 0.00868033897131681 0.999962270259857
outer loop
vertex 0.0789728164672852 -10.4937791824341 0.241092994809151
vertex -0.0489728152751923 -10.4937791824341 0.241092994809151
vertex 0.0884868502616882 -12.5324239730835 0.25878980755806
endloop
endfacet
facet normal 2.41057966726938e-17 0.00868033897131681 0.999962329864502
outer loop
vertex 0.0789728164672852 -10.4937791824341 0.241092994809151
vertex 0.0685922876000404 -8.26946544647217 0.221784472465515
vertex -0.0489728152751923 -10.4937791824341 0.241092994809151
endloop
endfacet
facet normal 4.89107899265885e-16 0.00868033897131681 0.999962329864502
outer loop
vertex -0.0385922901332378 -8.26946544647217 0.221784472465515
vertex -0.0489728152751923 -10.4937791824341 0.241092994809151
vertex 0.0685922876000404 -8.26946544647217 0.221784472465515
endloop
endfacet
facet normal 4.89107899265885e-16 0.00868033897131681 0.999962329864502
outer loop
vertex -0.0385922901332378 -8.26946544647217 0.221784472465515
vertex 0.0685922876000404 -8.26946544647217 0.221784472465515
vertex -0.0282117649912834 -6.04515075683594 0.202475935220718
endloop
endfacet
facet normal -6.42291001980188e-16 0.00868033897131681 0.999962329864502
outer loop
vertex 0.0582117661833763 -6.04515075683594 0.202475935220718
vertex -0.0282117649912834 -6.04515075683594 0.202475935220718
vertex 0.0685922876000404 -8.26946544647217 0.221784472465515
endloop
endfacet
facet normal -6.42291054919747e-16 0.00868033897131681 0.999962329864502
outer loop
vertex 0.0582117661833763 -6.04515075683594 0.202475935220718
vertex 0.0478322319686413 -3.82104825973511 0.18316924571991
vertex -0.0282117649912834 -6.04515075683594 0.202475935220718
endloop
endfacet
facet normal -0 0.00868033990263939 0.999962329864502
outer loop
vertex -0.0178322307765484 -3.82104825973511 0.18316924571991
vertex -0.0282117649912834 -6.04515075683594 0.202475935220718
vertex 0.0478322319686413 -3.82104825973511 0.18316924571991
endloop
endfacet
facet normal -0 0.00868033897131681 0.999962270259857
outer loop
vertex -0.0178322307765484 -3.82104825973511 0.18316924571991
vertex 0.0478322319686413 -3.82104825973511 0.18316924571991
vertex -0.00990067329257727 -2.12149286270142 0.168415978550911
endloop
endfacet
facet normal 7.74044382887193e-17 0.00868033990263939 0.999962329864502
outer loop
vertex 0.0399006716907024 -2.12149286270142 0.168415978550911
vertex -0.00990067329257727 -2.12149286270142 0.168415978550911
vertex 0.0478322319686413 -3.82104825973511 0.18316924571991
endloop
endfacet
facet normal 7.74044316712744e-17 0.00868033990263939 0.999962270259857
outer loop
vertex 0.0399006716907024 -2.12149286270142 0.168415978550911
vertex 0.0352533422410488 -1.12567365169525 0.159771591424942
vertex -0.00990067329257727 -2.12149286270142 0.168415978550911
endloop
endfacet
facet normal -5.90018322404079e-16 0.00868033990263939 0.999962329864502
outer loop
vertex -0.00525334198027849 -1.12567365169525 0.159771591424942
vertex -0.00990067329257727 -2.12149286270142 0.168415978550911
vertex 0.0352533422410488 -1.12567365169525 0.159771591424942
endloop
endfacet
facet normal -5.90018375343638e-16 0.00868033990263939 0.999962329864502
outer loop
vertex -0.00525334198027849 -1.12567365169525 0.159771591424942
vertex 0.0352533422410488 -1.12567365169525 0.159771591424942
vertex -0.00253033405169845 -0.542194008827209 0.154706612229347
endloop
endfacet
facet normal -1.50076789374749e-15 0.00868033990263939 0.999962329864502
outer loop
vertex 0.0325303338468075 -0.542194008827209 0.154706612229347
vertex -0.00253033405169845 -0.542194008827209 0.154706612229347
vertex 0.0352533422410488 -1.12567365169525 0.159771591424942
endloop
endfacet
facet normal -1.50076789374749e-15 0.00868033990263939 0.999962329864502
outer loop
vertex 0.0325303338468075 -0.542194008827209 0.154706612229347
vertex 0.0309348441660404 -0.200316220521927 0.151738882064819
vertex -0.00253033405169845 -0.542194008827209 0.154706612229347
endloop
endfacet
facet normal 1.95342463010079e-15 0.00868033990263939 0.999962329864502
outer loop
vertex -0.000934844254516065 -0.200316220521927 0.151738882064819
vertex -0.00253033405169845 -0.542194008827209 0.154706612229347
vertex 0.0309348441660404 -0.200316220521927 0.151738882064819
endloop
endfacet
facet normal 1.95342484185903e-15 0.00868033990263939 0.999962389469147
outer loop
vertex -0.000934844254516065 -0.200316220521927 0.151738882064819
vertex 0.0309348441660404 -0.200316220521927 0.151738882064819
vertex 0 0 0.150000005960464
endloop
endfacet
facet normal 0 0.00868033990263939 0.999962329864502
outer loop
vertex 0.0299999993294477 0 0.150000005960464
vertex 0 0 0.150000005960464
vertex 0.0309348441660404 -0.200316220521927 0.151738882064819
endloop
endfacet
facet normal -0.999919593334198 -0.012679647654295 0
outer loop
vertex 0.220194712281227 -14.9987945556641 -0.00999999977648258
vertex 0.220194712281227 -14.9987945556641 0.159999996423721
vertex 0.207503885030746 -13.997992515564 -0.00933274533599615
endloop
endfacet
facet normal -0.999919593334198 -0.0126796467229724 -0
outer loop
vertex 0.207503885030746 -13.997992515564 0.159332752227783
vertex 0.207503885030746 -13.997992515564 -0.00933274533599615
vertex 0.220194712281227 -14.9987945556641 0.159999996423721
endloop
endfacet
facet normal -0.999919593334198 -0.012679647654295 0
outer loop
vertex 0.207503885030746 -13.997992515564 -0.00933274533599615
vertex 0.207503885030746 -13.997992515564 0.159332752227783
vertex 0.189611241221428 -12.5869750976563 -0.00839199125766754
endloop
endfacet
facet normal -0.999919593334198 -0.012679647654295 6.27130488652875e-17
outer loop
vertex 0.189611241221428 -12.5869750976563 0.158391997218132
vertex 0.189611241221428 -12.5869750976563 -0.00839199125766754
vertex 0.207503885030746 -13.997992515564 0.159332752227783
endloop
endfacet
facet normal -0.999919652938843 -0.012679647654295 6.27130488652875e-17
outer loop
vertex 0.189611241221428 -12.5869750976563 0.158391997218132
vertex 0.164602771401405 -10.6148023605347 0.157077103853226
vertex 0.189611241221428 -12.5869750976563 -0.00839199125766754
endloop
endfacet
facet normal -0.999919652938843 -0.012679647654295 -1.69068742418914e-16
outer loop
vertex 0.164602771401405 -10.6148023605347 -0.00707710394635797
vertex 0.189611241221428 -12.5869750976563 -0.00839199125766754
vertex 0.164602771401405 -10.6148023605347 0.157077103853226
endloop
endfacet
facet normal -0.999919593334198 -0.0126796467229724 -1.69068729184024e-16
outer loop
vertex 0.164602771401405 -10.6148023605347 -0.00707710394635797
vertex 0.164602771401405 -10.6148023605347 0.157077103853226
vertex 0.136911615729332 -8.43107223510742 -0.0056211668998003
endloop
endfacet
facet normal -0.999919593334198 -0.012679647654295 -3.24342018044574e-17
outer loop
vertex 0.136911615729332 -8.43107223510742 0.15562117099762
vertex 0.136911615729332 -8.43107223510742 -0.0056211668998003
vertex 0.164602771401405 -10.6148023605347 0.157077103853226
endloop
endfacet
facet normal -0.999919593334198 -0.012679647654295 -3.24342018044574e-17
outer loop
vertex 0.136911615729332 -8.43107223510742 0.15562117099762
vertex 0.109220460057259 -6.24734210968018 0.154165223240852
vertex 0.136911615729332 -8.43107223510742 -0.0056211668998003
endloop
endfacet
facet normal -0.999919593334198 -0.0126796467229724 8.76437298971539e-17
outer loop
vertex 0.109220460057259 -6.24734210968018 -0.00416522938758135
vertex 0.136911615729332 -8.43107223510742 -0.0056211668998003
vertex 0.109220460057259 -6.24734210968018 0.154165223240852
endloop
endfacet
facet normal -0.999919593334198 -0.0126796467229724 8.76437298971539e-17
outer loop
vertex 0.109220460057259 -6.24734210968018 -0.00416522938758135
vertex 0.109220460057259 -6.24734210968018 0.154165223240852
vertex 0.0815293043851852 -4.06361150741577 -0.00270929234102368
endloop
endfacet
facet normal -0.999919593334198 -0.0126796467229724 -1.28097255834411e-16
outer loop
vertex 0.0815293043851852 -4.06361150741577 0.152709290385246
vertex 0.0815293043851852 -4.06361150741577 -0.00270929234102368
vertex 0.109220460057259 -6.24734210968018 0.154165223240852
endloop
endfacet
facet normal -0.999919533729553 -0.0126796467229724 -1.28097255834411e-16
outer loop
vertex 0.0815293043851852 -4.06361150741577 0.152709290385246
vertex 0.0578034855425358 -2.19258856773376 0.151461839675903
vertex 0.0815293043851852 -4.06361150741577 -0.00270929234102368
endloop
endfacet
facet normal -0.999919593334198 -0.012679647654295 6.24704996573523e-17
outer loop
vertex 0.0578034855425358 -2.19258856773376 -0.00146184326149523
vertex 0.0815293043851852 -4.06361150741577 -0.00270929234102368
vertex 0.0578034855425358 -2.19258856773376 0.151461839675903
endloop
endfacet
facet normal -0.999919593334198 -0.0126796467229724 6.24704996573523e-17
outer loop
vertex 0.0578034855425358 -2.19258856773376 -0.00146184326149523
vertex 0.0578034855425358 -2.19258856773376 0.151461839675903
vertex 0.0413719899952412 -0.89679753780365 -0.00059791310923174
endloop
endfacet
facet normal -0.999919593334198 -0.012679647654295 -6.45109358528389e-17
outer loop
vertex 0.0413719899952412 -0.89679753780365 0.150597915053368
vertex 0.0413719899952412 -0.89679753780365 -0.00059791310923174
vertex 0.0578034855425358 -2.19258856773376 0.151461839675903
endloop
endfacet
facet normal -0.999919652938843 -0.0126796485856175 -6.45109358528389e-17
outer loop
vertex 0.0413719899952412 -0.89679753780365 -0.00059791310923174
vertex 0.0413719899952412 -0.89679753780365 0.150597915053368
vertex 0.0299999993294477 0 0
endloop
endfacet
facet normal -0.999919593334198 -0.0126796467229724 -0
outer loop
vertex 0.0299999993294477 0 0.150000005960464
vertex 0.0299999993294477 0 0
vertex 0.0413719899952412 -0.89679753780365 0.150597915053368
endloop
endfacet
facet normal 0.707075297832489 0.009437570348382 0.707075297832489
outer loop
vertex 0.220209330320358 -14.9997539520264 0.159997373819351
vertex 0.206932365894318 -13.9527425765991 0.159299537539482
vertex 0.0999966040253639 -14.9992713928223 0.28020367026329
endloop
endfacet
facet normal 0.707075297832489 0.00943756941705942 0.707075297832489
outer loop
vertex 0.095110647380352 -13.95228099823 0.271115094423294
vertex 0.0999966040253639 -14.9992713928223 0.28020367026329
vertex 0.206932365894318 -13.9527425765991 0.159299537539482
endloop
endfacet
facet normal 0.707075297832489 0.009437570348382 0.707075297832489
outer loop
vertex 0.206932365894318 -13.9527425765991 0.159299537539482
vertex 0.185352250933647 -12.2509527206421 0.158165290951729
vertex 0.095110647380352 -13.95228099823 0.271115094423294
endloop
endfacet
facet normal 0.707075297832489 0.00943756941705942 0.707075297832489
outer loop
vertex 0.0871693566441536 -12.2505760192871 0.256343156099319
vertex 0.095110647380352 -13.95228099823 0.271115094423294
vertex 0.185352250933647 -12.2509527206421 0.158165290951729
endloop
endfacet
facet normal 0.707075297832489 0.00943756941705942 0.707075297832489
outer loop
vertex 0.185352250933647 -12.2509527206421 0.158165290951729
vertex 0.159460201859474 -10.2091264724731 0.156804412603378
vertex 0.0871693566441536 -12.2505760192871 0.256343156099319
endloop
endfacet
facet normal 0.707075297832489 0.00943756941705942 0.707075297832489
outer loop
vertex 0.0776411294937134 -10.2088136672974 0.238619312644005
vertex 0.0871693566441536 -12.2505760192871 0.256343156099319
vertex 0.159460201859474 -10.2091264724731 0.156804412603378
endloop
endfacet
facet normal 0.707075297832489 0.00943756941705942 0.707075297832489
outer loop
vertex 0.159460201859474 -10.2091264724731 0.156804412603378
vertex 0.133568167686462 -8.16730117797852 0.155443534255028
vertex 0.0776411294937134 -10.2088136672974 0.238619312644005
endloop
endfacet
facet normal 0.707075297832489 0.009437570348382 0.707075297832489
outer loop
vertex 0.0681129023432732 -8.16705131530762 0.220895439386368
vertex 0.0776411294937134 -10.2088136672974 0.238619312644005
vertex 0.133568167686462 -8.16730117797852 0.155443534255028
endloop
endfacet
facet normal 0.707075297832489 0.009437570348382 0.707075297832489
outer loop
vertex 0.0681129023432732 -8.16705131530762 0.220895439386368
vertex 0.133568167686462 -8.16730117797852 0.155443534255028
vertex 0.0585846789181232 -6.12528800964355 0.203171581029892
endloop
endfacet
facet normal 0.707075297832489 0.00943756941705942 0.707075297832489
outer loop
vertex 0.10767612606287 -6.12547636032104 0.154082641005516
vertex 0.0585846789181232 -6.12528800964355 0.203171581029892
vertex 0.133568167686462 -8.16730117797852 0.155443534255028
endloop
endfacet
facet normal 0.707075297832489 0.00943756941705942 0.707075297832489
outer loop
vertex 0.10767612606287 -6.12547636032104 0.154082641005516
vertex 0.0817840844392776 -4.08365058898926 0.152721762657166
vertex 0.0585846789181232 -6.12528800964355 0.203171581029892
endloop
endfacet
facet normal 0.707075297832489 0.009437570348382 0.707075297832489
outer loop
vertex 0.049056451767683 -4.08352565765381 0.185447722673416
vertex 0.0585846789181232 -6.12528800964355 0.203171581029892
vertex 0.0817840844392776 -4.08365058898926 0.152721762657166
endloop
endfacet
facet normal 0.707075297832489 0.009437570348382 0.707075297832489
outer loop
vertex 0.049056451767683 -4.08352565765381 0.185447722673416
vertex 0.0817840844392776 -4.08365058898926 0.152721762657166
vertex 0.0395282246172428 -2.0417628288269 0.16772386431694
endloop
endfacet
facet normal 0.707075297832489 0.009437570348382 0.707075297832489
outer loop
vertex 0.0558920428156853 -2.04182529449463 0.151360884308815
vertex 0.0395282246172428 -2.0417628288269 0.16772386431694
vertex 0.0817840844392776 -4.08365058898926 0.152721762657166
endloop
endfacet
facet normal 0.707075297832489 0.009437570348382 0.707075297832489
outer loop
vertex 0.0395282246172428 -2.0417628288269 0.16772386431694
vertex 0.0558920428156853 -2.04182529449463 0.151360884308815
vertex 0.0299999993294477 0 0.150000005960464
endloop
endfacet
facet normal 0.707078337669373 0.0089662242680788 -0.707078337669373
outer loop
vertex 0.246084794402122 -17.040491104126 -0.00999999977648258
vertex 0.229723274707794 -17.0406970977783 -0.0263641141355038
vertex 0.220194712281227 -14.9987945556641 -0.00999999977648258
endloop
endfacet
facet normal 0.707078337669373 0.0089662242680788 -0.707078337669373
outer loop
vertex 0.229723274707794 -17.0406970977783 -0.0263641141355038
vertex 0.246084794402122 -17.040491104126 -0.00999999977648258
vertex 0.239251837134361 -19.0825977325439 -0.0427282303571701
endloop
endfacet
facet normal 0.707078337669373 0.0089662242680788 -0.707078337669373
outer loop
vertex 0.271974891424179 -19.0821895599365 -0.00999999977648258
vertex 0.239251837134361 -19.0825977325439 -0.0427282303571701
vertex 0.246084794402122 -17.040491104126 -0.00999999977648258
endloop
endfacet
facet normal 0.707078337669373 0.0089662242680788 -0.707078337669373
outer loop
vertex 0.239251837134361 -19.0825977325439 -0.0427282303571701
vertex 0.271974891424179 -19.0821895599365 -0.00999999977648258
vertex 0.24878041446209 -21.1245002746582 -0.0590923428535461
endloop
endfacet
facet normal 0.707078397274017 0.00896622519940138 -0.707078397274017
outer loop
vertex 0.297864973545074 -21.1238880157471 -0.00999999977648258
vertex 0.24878041446209 -21.1245002746582 -0.0590923428535461
vertex 0.271974891424179 -19.0821895599365 -0.00999999977648258
endloop
endfacet
facet normal 0.707078397274017 0.00896622519940138 -0.707078397274017
outer loop
vertex 0.24878041446209 -21.1245002746582 -0.0590923428535461
vertex 0.297864973545074 -21.1238880157471 -0.00999999977648258
vertex 0.258308976888657 -23.1664028167725 -0.0754564553499222
endloop
endfacet
facet normal 0.707078337669373 0.0089662242680788 -0.707078337669373
outer loop
vertex 0.32375505566597 -23.165584564209 -0.00999999977648258
vertex 0.258308976888657 -23.1664028167725 -0.0754564553499222
vertex 0.297864973545074 -21.1238880157471 -0.00999999977648258
endloop
endfacet
facet normal 0.707078337669373 0.0089662242680788 -0.707078337669373
outer loop
vertex 0.349645137786865 -25.2072830200195 -0.00999999977648258
vertex 0.267837554216385 -25.2083053588867 -0.0918205752968788
vertex 0.32375505566597 -23.165584564209 -0.00999999977648258
endloop
endfacet
facet normal 0.707078337669373 0.0089662242680788 -0.707078337669373
outer loop
vertex 0.258308976888657 -23.1664028167725 -0.0754564553499222
vertex 0.32375505566597 -23.165584564209 -0.00999999977648258
vertex 0.267837554216385 -25.2083053588867 -0.0918205752968788
endloop
endfacet
facet normal 0.707078337669373 0.0089662242680788 -0.707078337669373
outer loop
vertex 0.349645137786865 -25.2072830200195 -0.00999999977648258
vertex 0.375535249710083 -27.2489795684814 -0.00999999977648258
vertex 0.267837554216385 -25.2083053588867 -0.0918205752968788
endloop
endfacet
facet normal 0.707078397274017 0.00896622519940138 -0.707078397274017
outer loop
vertex 0.277366101741791 -27.250207901001 -0.108184687793255
vertex 0.267837554216385 -25.2083053588867 -0.0918205752968788
vertex 0.375535249710083 -27.2489795684814 -0.00999999977648258
endloop
endfacet
facet normal 0.707078337669373 0.0089662242680788 -0.707078337669373
outer loop
vertex 0.375535249710083 -27.2489795684814 -0.00999999977648258
vertex 0.397113293409348 -28.9506301879883 -0.00999999977648258
vertex 0.277366101741791 -27.250207901001 -0.108184687793255
endloop
endfacet
facet normal 0.707078337669373 0.0089662242680788 -0.707078337669373
outer loop
vertex 0.285307824611664 -28.9520606994629 -0.121823608875275
vertex 0.277366101741791 -27.250207901001 -0.108184687793255
vertex 0.397113293409348 -28.9506301879883 -0.00999999977648258
endloop
endfacet
facet normal 0.707078337669373 0.00896622519940138 -0.707078337669373
outer loop
vertex 0.397113293409348 -28.9506301879883 -0.00999999977648258
vertex 0.410389423370361 -29.9975891113281 -0.00999999977648258
vertex 0.285307824611664 -28.9520606994629 -0.121823608875275
endloop
endfacet
facet normal 0.707078397274017 0.00896622519940138 -0.707078397274017
outer loop
vertex 0.290193915367126 -29.9991130828857 -0.13021482527256
vertex 0.285307824611664 -28.9520606994629 -0.121823608875275
vertex 0.410389423370361 -29.9975891113281 -0.00999999977648258
endloop
endfacet
facet normal 0.20721147954464 0.676094353199005 -0.707078337669373
outer loop
vertex 26.7470149993896 -26.3438739776611 -0.200193911790848
vertex 26.7088813781738 -26.4578914642334 -0.320389419794083
vertex 25.74733543396 -26.0323810577393 -0.195307835936546
endloop
endfacet
facet normal 0.207211449742317 0.67609441280365 -0.707078337669373
outer loop
vertex 25.7118530273438 -26.1384353637695 -0.307113289833069
vertex 25.74733543396 -26.0323810577393 -0.195307835936546
vertex 26.7088813781738 -26.4578914642334 -0.320389419794083
endloop
endfacet
facet normal 0.20721147954464 0.67609441280365 -0.707078397274017
outer loop
vertex 25.74733543396 -26.0323810577393 -0.195307835936546
vertex 25.7118530273438 -26.1384353637695 -0.307113289833069
vertex 24.1224784851074 -25.5260829925537 -0.187366113066673
endloop
endfacet
facet normal 0.207211449742317 0.676094353199005 -0.707078337669373
outer loop
vertex 24.0913524627686 -25.6192111968994 -0.285535246133804
vertex 24.1224784851074 -25.5260829925537 -0.187366113066673
vertex 25.7118530273438 -26.1384353637695 -0.307113289833069
endloop
endfacet
facet normal 0.20721147954464 0.676094353199005 -0.707078397274017
outer loop
vertex 24.1224784851074 -25.5260829925537 -0.187366113066673
vertex 24.0913524627686 -25.6192111968994 -0.285535246133804
vertex 22.1729602813721 -24.9186229705811 -0.177837535738945
endloop
endfacet
facet normal 0.207211449742317 0.676094353199005 -0.707078337669373
outer loop
vertex 22.1470203399658 -24.9962310791016 -0.259645164012909
vertex 22.1729602813721 -24.9186229705811 -0.177837535738945
vertex 24.0913524627686 -25.6192111968994 -0.285535246133804
endloop
endfacet
facet normal 0.207211449742317 0.676094353199005 -0.707078337669373
outer loop
vertex 22.1729602813721 -24.9186229705811 -0.177837535738945
vertex 22.1470203399658 -24.9962310791016 -0.259645164012909
vertex 20.2234401702881 -24.311164855957 -0.168308973312378
endloop
endfacet
facet normal 0.207211449742317 0.676094353199005 -0.707078337669373
outer loop
vertex 20.2026901245117 -24.3732490539551 -0.233755066990852
vertex 20.2234401702881 -24.311164855957 -0.168308973312378
vertex 22.1470203399658 -24.9962310791016 -0.259645164012909
endloop
endfacet
facet normal 0.207211449742317 0.676094353199005 -0.707078337669373
outer loop
vertex 20.2026901245117 -24.3732490539551 -0.233755066990852
vertex 18.258358001709 -23.7502689361572 -0.207864969968796
vertex 20.2234401702881 -24.311164855957 -0.168308973312378
endloop
endfacet
facet normal 0.20721147954464 0.676094353199005 -0.707078397274017
outer loop
vertex 18.2739219665527 -23.7037048339844 -0.158780410885811
vertex 20.2234401702881 -24.311164855957 -0.168308973312378
vertex 18.258358001709 -23.7502689361572 -0.207864969968796
endloop
endfacet
facet normal 0.20721147954464 0.676094353199005 -0.707078397274017
outer loop
vertex 18.2739219665527 -23.7037048339844 -0.158780410885811
vertex 18.258358001709 -23.7502689361572 -0.207864969968796
vertex 16.3244037628174 -23.0962448120117 -0.149251848459244
endloop
endfacet
facet normal 0.207211449742317 0.676094353199005 -0.707078337669373
outer loop
vertex 16.3140277862549 -23.1272869110107 -0.1819748878479
vertex 16.3244037628174 -23.0962448120117 -0.149251848459244
vertex 18.258358001709 -23.7502689361572 -0.207864969968796
endloop
endfacet
facet normal 0.207211449742317 0.676094353199005 -0.707078337669373
outer loop
vertex 16.3140277862549 -23.1272869110107 -0.1819748878479
vertex 14.3696956634521 -22.5043067932129 -0.156084790825844
vertex 16.3244037628174 -23.0962448120117 -0.149251848459244
endloop
endfacet
facet normal 0.207211449742317 0.676094353199005 -0.707078337669373
outer loop
vertex 14.3748836517334 -22.4887847900391 -0.139723271131516
vertex 16.3244037628174 -23.0962448120117 -0.149251848459244
vertex 14.3696956634521 -22.5043067932129 -0.156084790825844
endloop
endfacet
facet normal 0.207211449742317 0.676094353199005 -0.707078337669373
outer loop
vertex 14.3696956634521 -22.5043067932129 -0.156084790825844
vertex 12.4253644943237 -21.8813247680664 -0.130194708704948
vertex 14.3748836517334 -22.4887847900391 -0.139723271131516
endloop
endfacet
endsolid COMSOL mesh mesh1
