solid COMSOL mesh mesh1
facet normal -0.0243754610419273 0.999702930450439 0
outer loop
vertex 0 0 0.150000005960464
vertex 0 0 0
vertex -0.890604078769684 -0.021715335547924 0.150890871882439
endloop
endfacet
facet normal -0.0243754591792822 0.999702870845795 -5.02166195932121e-17
outer loop
vertex -0.890604078769684 -0.021715335547924 -0.000890868774149567
vertex -0.890604078769684 -0.021715335547924 0.150890871882439
vertex 0 0 0
endloop
endfacet
facet normal -0.024375457316637 0.99970281124115 -5.02166162844897e-17
outer loop
vertex -0.890604078769684 -0.021715335547924 0.150890871882439
vertex -0.890604078769684 -0.021715335547924 -0.000890868774149567
vertex -2.17043876647949 -0.0529211610555649 0.152171090245247
endloop
endfacet
facet normal -0.0243754591792822 0.999702870845795 -4.83849604756114e-17
outer loop
vertex -2.17043876647949 -0.0529211610555649 -0.00217108381912112
vertex -2.17043876647949 -0.0529211610555649 0.152171090245247
vertex -0.890604078769684 -0.021715335547924 -0.000890868774149567
endloop
endfacet
facet normal -0.0243754591792822 0.999702930450439 3.18660081329723e-17
outer loop
vertex -4.0102481842041 -0.0977806970477104 0.154011443257332
vertex -2.17043876647949 -0.0529211610555649 0.152171090245247
vertex -4.0102481842041 -0.0977806970477104 -0.00401144009083509
endloop
endfacet
facet normal -0.0243754591792822 0.999702870845795 -4.8384957166889e-17
outer loop
vertex -2.17043876647949 -0.0529211610555649 -0.00217108381912112
vertex -4.0102481842041 -0.0977806970477104 -0.00401144009083509
vertex -2.17043876647949 -0.0529211610555649 0.152171090245247
endloop
endfacet
facet normal -0.0243754591792822 0.999702870845795 3.18660081329723e-17
outer loop
vertex -4.0102481842041 -0.0977806970477104 0.154011443257332
vertex -4.0102481842041 -0.0977806970477104 -0.00401144009083509
vertex -6.18047046661377 -0.150696575641632 0.156182304024696
endloop
endfacet
facet normal -0.024375457316637 0.999702870845795 2.29125906243196e-16
outer loop
vertex -6.18047046661377 -0.150696575641632 -0.00618230737745762
vertex -6.18047046661377 -0.150696575641632 0.156182304024696
vertex -4.0102481842041 -0.0977806970477104 -0.00401144009083509
endloop
endfacet
facet normal -0.0243754591792822 0.999702870845795 1.86581783878107e-16
outer loop
vertex -8.35069274902344 -0.203612461686134 0.158353179693222
vertex -6.18047046661377 -0.150696575641632 0.156182304024696
vertex -8.35069274902344 -0.203612461686134 -0.00835317466408014
endloop
endfacet
facet normal -0.024375457316637 0.999702870845795 2.29125906243196e-16
outer loop
vertex -6.18047046661377 -0.150696575641632 -0.00618230737745762
vertex -8.35069274902344 -0.203612461686134 -0.00835317466408014
vertex -6.18047046661377 -0.150696575641632 0.156182304024696
endloop
endfacet
facet normal -0.0243754591792822 0.999702870845795 1.86581783878107e-16
outer loop
vertex -8.35069274902344 -0.203612461686134 0.158353179693222
vertex -8.35069274902344 -0.203612461686134 -0.00835317466408014
vertex -10.5209150314331 -0.256528347730637 0.160524040460587
endloop
endfacet
facet normal -0.0243754591792822 0.999702870845795 0
outer loop
vertex -10.5209150314331 -0.256528347730637 -0.0105240419507027
vertex -10.5209150314331 -0.256528347730637 0.160524040460587
vertex -8.35069274902344 -0.203612461686134 -0.00835317466408014
endloop
endfacet
facet normal -0.024375457316637 0.99970281124115 -6.96793654608621e-17
outer loop
vertex -12.5052967071533 -0.304912924766541 0.162509009242058
vertex -10.5209150314331 -0.256528347730637 0.160524040460587
vertex -12.5052967071533 -0.304912924766541 -0.0125090135261416
endloop
endfacet
facet normal -0.0243754591792822 0.999702870845795 0
outer loop
vertex -10.5209150314331 -0.256528347730637 -0.0105240419507027
vertex -12.5052967071533 -0.304912924766541 -0.0125090135261416
vertex -10.5209150314331 -0.256528347730637 0.160524040460587
endloop
endfacet
facet normal -0.024375457316637 0.999702870845795 -6.96793588434172e-17
outer loop
vertex -12.5052967071533 -0.304912924766541 0.162509009242058
vertex -12.5052967071533 -0.304912924766541 -0.0125090135261416
vertex -13.951940536499 -0.340186029672623 0.163956090807915
endloop
endfacet
facet normal -0.0243754554539919 0.999702870845795 -3.1192162983185e-16
outer loop
vertex -13.951940536499 -0.340186029672623 -0.013956087641418
vertex -13.951940536499 -0.340186029672623 0.163956090807915
vertex -12.5052967071533 -0.304912924766541 -0.0125090135261416
endloop
endfacet
facet normal -0.0243754591792822 0.999702870845795 -3.11921656301629e-16
outer loop
vertex -13.951940536499 -0.340186029672623 0.163956090807915
vertex -13.951940536499 -0.340186029672623 -0.013956087641418
vertex -14.9955434799194 -0.365631878376007 0.165000006556511
endloop
endfacet
facet normal -0.0243754591792822 0.999702930450439 0
outer loop
vertex -14.9955434799194 -0.365631878376007 -0.0149999996647239
vertex -14.9955434799194 -0.365631878376007 0.165000006556511
vertex -13.951940536499 -0.340186029672623 -0.013956087641418
endloop
endfacet
facet normal 0.000769078091252595 0.00948105845600367 0.999954760074615
outer loop
vertex -13.3376350402832 -1.99166655540466 0.179142102599144
vertex -13.3181247711182 -1.97176992893219 0.178938448429108
vertex -14.9955434799194 -0.365631878376007 0.165000006556511
endloop
endfacet
facet normal 0.000769078091252595 0.00948105845600367 0.999954760074615
outer loop
vertex -11.679726600647 -3.61770129203796 0.193284213542938
vertex -11.6407051086426 -3.57790803909302 0.192876905202866
vertex -13.3376350402832 -1.99166655540466 0.179142102599144
endloop
endfacet
facet normal 0.000769078091252595 0.00948105845600367 0.999954760074615
outer loop
vertex -13.3181247711182 -1.97176992893219 0.178938448429108
vertex -13.3376350402832 -1.99166655540466 0.179142102599144
vertex -11.6407051086426 -3.57790803909302 0.192876905202866
endloop
endfacet
facet normal 0.000769078091252595 0.00948105845600367 0.999954760074615
outer loop
vertex -11.679726600647 -3.61770129203796 0.193284213542938
vertex -10.0218181610107 -5.24373579025269 0.207426324486732
vertex -11.6407051086426 -3.57790803909302 0.192876905202866
endloop
endfacet
facet normal 0.000769078149460256 0.00948105845600367 0.99995481967926
outer loop
vertex -9.96328639984131 -5.18404626846313 0.206815361976624
vertex -11.6407051086426 -3.57790803909302 0.192876905202866
vertex -10.0218181610107 -5.24373579025269 0.207426324486732
endloop
endfacet
facet normal 0.000769078091252595 0.00948105845600367 0.999954760074615
outer loop
vertex -8.36391067504883 -6.86977052688599 0.221568435430527
vertex -8.28586769104004 -6.79018402099609 0.220753818750381
vertex -10.0218181610107 -5.24373579025269 0.207426324486732
endloop
endfacet
facet normal 0.000769078149460256 0.00948105845600367 0.99995481967926
outer loop
vertex -9.96328639984131 -5.18404626846313 0.206815361976624
vertex -10.0218181610107 -5.24373579025269 0.207426324486732
vertex -8.28586769104004 -6.79018402099609 0.220753818750381
endloop
endfacet
facet normal 0.000769078091252595 0.00948105845600367 0.999954760074615
outer loop
vertex -8.36391067504883 -6.86977052688599 0.221568435430527
vertex -6.7060022354126 -8.49580574035645 0.235710546374321
vertex -8.28586769104004 -6.79018402099609 0.220753818750381
endloop
endfacet
facet normal 0.000769078091252595 0.00948105845600367 0.999954760074615
outer loop
vertex -6.60844945907593 -8.39632225036621 0.234692275524139
vertex -8.28586769104004 -6.79018402099609 0.220753818750381
vertex -6.7060022354126 -8.49580574035645 0.235710546374321
endloop
endfacet
facet normal 0.000769078091252595 0.00948105752468109 0.999954760074615
outer loop
vertex -6.7060022354126 -8.49580574035645 0.235710546374321
vertex -5.18119955062866 -9.99129295349121 0.248717248439789
vertex -6.60844945907593 -8.39632225036621 0.234692275524139
endloop
endfacet
facet normal 0.000769078091252595 0.00948105845600367 0.999954760074615
outer loop
vertex -5.06567764282227 -9.87353515625 0.247511878609657
vertex -6.60844945907593 -8.39632225036621 0.234692275524139
vertex -5.18119955062866 -9.99129295349121 0.248717248439789
endloop
endfacet
facet normal 0.000769078149460256 0.00948105845600367 0.999954700469971
outer loop
vertex -5.18119955062866 -9.99129295349121 0.248717248439789
vertex -4.28669786453247 -10.868597984314 0.256347417831421
vertex -5.06567764282227 -9.87353515625 0.247511878609657
endloop
endfacet
facet normal 0.000769078149460256 0.00948105938732624 0.99995481967926
outer loop
vertex -4.16065692901611 -10.7400970458984 0.255032122135162
vertex -5.06567764282227 -9.87353515625 0.247511878609657
vertex -4.28669786453247 -10.868597984314 0.256347417831421
endloop
endfacet
facet normal -0.707143783569336 0.00882905442267656 0.707014679908752
outer loop
vertex -10.6064348220825 -0.258613556623459 -10.6051425933838
vertex -9.72050094604492 -0.237012088298798 -9.71931648254395
vertex -10.605978012085 -0.0786230489611626 -10.60693359375
endloop
endfacet
facet normal -0.707143843173981 0.00882905535399914 0.707014620304108
outer loop
vertex -9.72007274627686 -0.0720557570457458 -9.72094821929932
vertex -10.605978012085 -0.0786230489611626 -10.60693359375
vertex -9.72050094604492 -0.237012088298798 -9.71931648254395
endloop
endfacet
facet normal -0.707143783569336 0.00882905535399914 0.707014679908752
outer loop
vertex -9.72050094604492 -0.237012088298798 -9.71931648254395
vertex -8.21025848388672 -0.200188308954239 -8.20925807952881
vertex -9.72007274627686 -0.0720557570457458 -9.72094821929932
endloop
endfacet
facet normal -0.707143843173981 0.00882905535399914 0.707014679908752
outer loop
vertex -8.20991802215576 -0.0608608461916447 -8.21065807342529
vertex -9.72007274627686 -0.0720557570457458 -9.72094821929932
vertex -8.21025848388672 -0.200188308954239 -8.20925807952881
endloop
endfacet
facet normal -0.707143723964691 0.00882905442267656 0.707014620304108
outer loop
vertex -8.21025848388672 -0.200188308954239 -8.20925807952881
vertex -6.56820678710938 -0.160150647163391 -6.56740665435791
vertex -8.20991802215576 -0.0608608461916447 -8.21065807342529
endloop
endfacet
facet normal -0.707143723964691 0.00882905442267656 0.707014620304108
outer loop
vertex -6.5679349899292 -0.0486886762082577 -6.56852626800537
vertex -8.20991802215576 -0.0608608461916447 -8.21065807342529
vertex -6.56820678710938 -0.160150647163391 -6.56740665435791
endloop
endfacet
facet normal -0.707143723964691 0.00882905442267656 0.707014620304108
outer loop
vertex -6.5679349899292 -0.0486886762082577 -6.56852626800537
vertex -6.56820678710938 -0.160150647163391 -6.56740665435791
vertex -4.92595100402832 -0.036516509950161 -4.92639493942261
endloop
endfacet
facet normal -0.707143843173981 0.00882905535399914 0.707014679908752
outer loop
vertex -4.92615509033203 -0.120112977921963 -4.92555475234985
vertex -4.92595100402832 -0.036516509950161 -4.92639493942261
vertex -6.56820678710938 -0.160150647163391 -6.56740665435791
endloop
endfacet
facet normal -0.707143843173981 0.00882905535399914 0.707014679908752
outer loop
vertex -4.92615509033203 -0.120112977921963 -4.92555475234985
vertex -3.28410339355469 -0.0800753235816956 -3.28370332717896
vertex -4.92595100402832 -0.036516509950161 -4.92639493942261
endloop
endfacet
facet normal -0.707143723964691 0.00882905442267656 0.707014620304108
outer loop
vertex -3.2839674949646 -0.0243443381041288 -3.28426313400269
vertex -4.92595100402832 -0.036516509950161 -4.92639493942261
vertex -3.28410339355469 -0.0800753235816956 -3.28370332717896
endloop
endfacet
facet normal -0.707143723964691 0.00882905442267656 0.707014620304108
outer loop
vertex -3.2839674949646 -0.0243443381041288 -3.28426313400269
vertex -3.28410339355469 -0.0800753235816956 -3.28370332717896
vertex -1.6419837474823 -0.0121721690520644 -1.64213156700134
endloop
endfacet
facet normal -0.707143723964691 0.00882905442267656 0.707014620304108
outer loop
vertex -1.64205169677734 -0.0400376617908478 -1.64185166358948
vertex -1.6419837474823 -0.0121721690520644 -1.64213156700134
vertex -3.28410339355469 -0.0800753235816956 -3.28370332717896
endloop
endfacet
facet normal -0.707143723964691 0.00882905442267656 0.707014620304108
outer loop
vertex -1.6419837474823 -0.0121721690520644 -1.64213156700134
vertex -1.64205169677734 -0.0400376617908478 -1.64185166358948
vertex 0 0 0
endloop
endfacet
facet normal 0.707047343254089 0.0116561278700829 -0.707070112228394
outer loop
vertex -0.142183542251587 -0.00105401908513159 -0.142196342349052
vertex 0 0 0
vertex -0.141687899827957 -0.0330610387027264 -0.142228364944458
endloop
endfacet
facet normal 0.707047343254089 0.0116561278700829 -0.707070112228394
outer loop
vertex 0.000464509532321244 -0.0299963895231485 -2.99991152132861e-05
vertex -0.141687899827957 -0.0330610387027264 -0.142228364944458
vertex 0 0 0
endloop
endfacet
facet normal 0.707047402858734 0.0116561278700829 -0.707070112228394
outer loop
vertex -0.142183542251587 -0.00105401908513159 -0.142196342349052
vertex -0.141687899827957 -0.0330610387027264 -0.142228364944458
vertex -0.383060336112976 -0.00283966003917158 -0.383094847202301
endloop
endfacet
facet normal 0.707047343254089 0.0116561278700829 -0.707070112228394
outer loop
vertex -0.38251194357872 -0.0382529385387897 -0.383130252361298
vertex -0.383060336112976 -0.00283966003917158 -0.383094847202301
vertex -0.141687899827957 -0.0330610387027264 -0.142228364944458
endloop
endfacet
facet normal 0.707047402858734 0.0116561278700829 -0.707070112228394
outer loop
vertex -0.791135907173157 -0.00586476037278771 -0.791207194328308
vertex -0.383060336112976 -0.00283966003917158 -0.383094847202301
vertex -0.790498197078705 -0.0470486730337143 -0.791248381137848
endloop
endfacet
facet normal 0.707047402858734 0.0116561278700829 -0.707070112228394
outer loop
vertex -0.38251194357872 -0.0382529385387897 -0.383130252361298
vertex -0.790498197078705 -0.0470486730337143 -0.791248381137848
vertex -0.383060336112976 -0.00283966003917158 -0.383094847202301
endloop
endfacet
facet normal 0.707047343254089 0.0116561260074377 -0.707070052623749
outer loop
vertex -0.791135907173157 -0.00586476037278771 -0.791207194328308
vertex -0.790498197078705 -0.0470486730337143 -0.791248381137848
vertex -1.48246729373932 -0.010989660397172 -1.48260080814362
endloop
endfacet
facet normal 0.707047402858734 0.0116561278700829 -0.707070112228394
outer loop
vertex -1.48167812824249 -0.0619497485458851 -1.48265171051025
vertex -1.48246729373932 -0.010989660397172 -1.48260080814362
vertex -0.790498197078705 -0.0470486730337143 -0.791248381137848
endloop
endfacet
facet normal 0.707047343254089 0.0116561278700829 -0.707070052623749
outer loop
vertex -2.65366959571838 -0.0196718852967024 -2.65390849113464
vertex -1.48246729373932 -0.010989660397172 -1.48260080814362
vertex -2.65262389183044 -0.0871940478682518 -2.65397596359253
endloop
endfacet
facet normal 0.707047402858734 0.0116561288014054 -0.707070112228394
outer loop
vertex -1.48167812824249 -0.0619497485458851 -1.48265171051025
vertex -2.65262389183044 -0.0871940478682518 -2.65397596359253
vertex -1.48246729373932 -0.010989660397172 -1.48260080814362
endloop
endfacet
facet normal 0.707047343254089 0.0116561269387603 -0.707070052623749
outer loop
vertex -2.65366959571838 -0.0196718852967024 -2.65390849113464
vertex -2.65262389183044 -0.0871940478682518 -2.65397596359253
vertex -4.21762609481812 -0.0312656313180923 -4.21800565719604
endloop
endfacet
facet normal 0.707047402858734 0.0116561278700829 -0.707070171833038
outer loop
vertex -4.21623802185059 -0.120903834700584 -4.21809530258179
vertex -4.21762609481812 -0.0312656313180923 -4.21800565719604
vertex -2.65262389183044 -0.0871940478682518 -2.65397596359253
endloop
endfacet
facet normal 0.707047402858734 0.0116561288014054 -0.707070171833038
outer loop
vertex -4.21762609481812 -0.0312656313180923 -4.21800565719604
vertex -4.21623802185059 -0.120903834700584 -4.21809530258179
vertex -5.78333377838135 -0.0428723618388176 -5.78385496139526
endloop
endfacet
facet normal 0.707047402858734 0.0116561269387603 -0.707070112228394
outer loop
vertex -5.78160285949707 -0.154651388525963 -5.78396654129028
vertex -5.78333377838135 -0.0428723618388176 -5.78385496139526
vertex -4.21623802185059 -0.120903834700584 -4.21809530258179
endloop
endfacet
facet normal 0.707047402858734 0.0116561269387603 -0.707070112228394
outer loop
vertex -7.34696817398071 -0.18839892745018 -7.34983777999878
vertex -7.34904193878174 -0.0544790923595428 -7.34970378875732
vertex -5.78160285949707 -0.154651388525963 -5.78396654129028
endloop
endfacet
facet normal 0.707047402858734 0.0116561269387603 -0.707070112228394
outer loop
vertex -5.78333377838135 -0.0428723618388176 -5.78385496139526
vertex -5.78160285949707 -0.154651388525963 -5.78396654129028
vertex -7.34904193878174 -0.0544790923595428 -7.34970378875732
endloop
endfacet
facet normal 0.707047402858734 0.0116561278700829 -0.707070171833038
outer loop
vertex -7.34696817398071 -0.18839892745018 -7.34983777999878
vertex -8.7990083694458 -0.219703316688538 -8.80234718322754
vertex -7.34904193878174 -0.0544790923595428 -7.34970378875732
endloop
endfacet
facet normal 0.707047402858734 0.0116561269387603 -0.707070112228394
outer loop
vertex -8.80140018463135 -0.0652455538511276 -8.80219268798828
vertex -7.34904193878174 -0.0544790923595428 -7.34970378875732
vertex -8.7990083694458 -0.219703316688538 -8.80234718322754
endloop
endfacet
facet normal 0.707047343254089 0.0116561269387603 -0.707070052623749
outer loop
vertex -9.85560131072998 -0.0730604380369186 -9.85648822784424
vertex -8.80140018463135 -0.0652455538511276 -8.80219268798828
vertex -9.85297870635986 -0.242425739765167 -9.85665798187256
endloop
endfacet
facet normal 0.707047343254089 0.0116561269387603 -0.707070112228394
outer loop
vertex -8.7990083694458 -0.219703316688538 -8.80234718322754
vertex -9.85297870635986 -0.242425739765167 -9.85665798187256
vertex -8.80140018463135 -0.0652455538511276 -8.80219268798828
endloop
endfacet
facet normal 0.707047343254089 0.0116561269387603 -0.707070112228394
outer loop
vertex -9.85560131072998 -0.0730604380369186 -9.85648822784424
vertex -9.85297870635986 -0.242425739765167 -9.85665798187256
vertex -10.6061105728149 -0.0786240324378014 -10.60706615448
endloop
endfacet
facet normal 0.707047402858734 0.0116561269387603 -0.707070112228394
outer loop
vertex -10.6033239364624 -0.258602350950241 -10.6072463989258
vertex -10.6061105728149 -0.0786240324378014 -10.60706615448
vertex -9.85297870635986 -0.242425739765167 -9.85665798187256
endloop
endfacet
facet normal -0.313136607408524 -0.949708104133606 1.05402963917686e-13
outer loop
vertex -1.70986354351044 -17.5172443389893 0.0589945651590824
vertex -1.70986354351044 -17.5172443389893 0.0910054370760918
vertex -1.90083765983582 -17.4542751312256 0.0599999986588955
endloop
endfacet
facet normal -0.313136637210846 -0.949708104133606 -0
outer loop
vertex -1.90083765983582 -17.4542751312256 0.0900000035762787
vertex -1.90083765983582 -17.4542751312256 0.0599999986588955
vertex -1.70986354351044 -17.5172443389893 0.0910054370760918
endloop
endfacet
facet normal -0.313136637210846 -0.949708104133606 1.0540297069395e-13
outer loop
vertex -1.70986354351044 -17.5172443389893 0.0589945651590824
vertex -1.38632929325104 -17.6239185333252 0.0572912283241749
vertex -1.70986354351044 -17.5172443389893 0.0910054370760918
endloop
endfacet
facet normal -0.313136637210846 -0.949708104133606 1.37421202347186e-14
outer loop
vertex -1.38632929325104 -17.6239185333252 0.0927087739109993
vertex -1.70986354351044 -17.5172443389893 0.0910054370760918
vertex -1.38632929325104 -17.6239185333252 0.0572912283241749
endloop
endfacet
facet normal -0.313136637210846 -0.949708104133606 4.22021164013715e-15
outer loop
vertex -0.838221728801727 -17.8046398162842 0.0544055663049221
vertex -0.838221728801727 -17.8046398162842 0.0955944359302521
vertex -1.38632929325104 -17.6239185333252 0.0572912283241749
endloop
endfacet
facet normal -0.313136607408524 -0.949708104133606 1.37421193876857e-14
outer loop
vertex -1.38632929325104 -17.6239185333252 0.0927087739109993
vertex -1.38632929325104 -17.6239185333252 0.0572912283241749
vertex -0.838221728801727 -17.8046398162842 0.0955944359302521
endloop
endfacet
facet normal -0.313136607408524 -0.949708104133606 4.22021164013715e-15
outer loop
vertex -0.838221728801727 -17.8046398162842 0.0544055663049221
vertex 0.0903415232896805 -18.1108055114746 0.049516886472702
vertex -0.838221728801727 -17.8046398162842 0.0955944359302521
endloop
endfacet
facet normal -0.313136637210846 -0.949708044528961 -4.5482071071596e-14
outer loop
vertex 0.0903415232896805 -18.1108055114746 0.100483112037182
vertex -0.838221728801727 -17.8046398162842 0.0955944359302521
vertex 0.0903415232896805 -18.1108055114746 0.049516886472702
endloop
endfacet
facet normal -0.313136637210846 -0.949708104133606 3.19181089707393e-14
outer loop
vertex 1.66344439983368 -18.6294860839844 0.0412348546087742
vertex 1.66344439983368 -18.6294860839844 0.1087651476264
vertex 0.0903415232896805 -18.1108055114746 0.049516886472702
endloop
endfacet
facet normal -0.313136637210846 -0.949708104133606 -4.5482071071596e-14
outer loop
vertex 0.0903415232896805 -18.1108055114746 0.100483112037182
vertex 0.0903415232896805 -18.1108055114746 0.049516886472702
vertex 1.66344439983368 -18.6294860839844 0.1087651476264
endloop
endfacet
facet normal -0.313136637210846 -0.949708044528961 3.19181089707393e-14
outer loop
vertex 1.66344439983368 -18.6294860839844 0.0412348546087742
vertex 3.764075756073 -19.3221054077148 0.0301755014806986
vertex 1.66344439983368 -18.6294860839844 0.1087651476264
endloop
endfacet
facet normal -0.313136607408524 -0.949708104133606 1.70628400595957e-14
outer loop
vertex 3.764075756073 -19.3221054077148 0.11982449889183
vertex 1.66344439983368 -18.6294860839844 0.1087651476264
vertex 3.764075756073 -19.3221054077148 0.0301755014806986
endloop
endfacet
facet normal -0.313136607408524 -0.949708044528961 1.70628400595957e-14
outer loop
vertex 3.764075756073 -19.3221054077148 0.0301755014806986
vertex 5.86706018447876 -20.0154972076416 0.0191037617623806
vertex 3.764075756073 -19.3221054077148 0.11982449889183
endloop
endfacet
facet normal -0.313136637210846 -0.949708104133606 -1.02786101366923e-14
outer loop
vertex 5.86706018447876 -20.0154972076416 0.130896240472794
vertex 3.764075756073 -19.3221054077148 0.11982449889183
vertex 5.86706018447876 -20.0154972076416 0.0191037617623806
endloop
endfacet
facet normal -0.313136637210846 -0.949708104133606 -1.02786101366923e-14
outer loop
vertex 5.86706018447876 -20.0154972076416 0.0191037617623806
vertex 7.97004413604736 -20.708890914917 0.00803202204406261
vertex 5.86706018447876 -20.0154972076416 0.130896240472794
endloop
endfacet
facet normal -0.313136637210846 -0.949708104133606 2.93444976163289e-14
outer loop
vertex 7.97004413604736 -20.708890914917 0.141967982053757
vertex 5.86706018447876 -20.0154972076416 0.130896240472794
vertex 7.97004413604736 -20.708890914917 0.00803202204406261
endloop
endfacet
facet normal -0.313136607408524 -0.949708104133606 1.44033006008182e-14
outer loop
vertex 9.9207820892334 -21.352087020874 -0.002238177228719
vertex 9.9207820892334 -21.352087020874 0.152238175272942
vertex 7.97004413604736 -20.708890914917 0.00803202204406261
endloop
endfacet
facet normal -0.313136637210846 -0.949708104133606 2.93444976163289e-14
outer loop
vertex 7.97004413604736 -20.708890914917 0.141967982053757
vertex 7.97004413604736 -20.708890914917 0.00803202204406261
vertex 9.9207820892334 -21.352087020874 0.152238175272942
endloop
endfacet
facet normal -0.313136637210846 -0.949708104133606 -1.66354001293568e-14
outer loop
vertex 11.3367347717285 -21.8189525604248 -0.00969284772872925
vertex 11.3367347717285 -21.8189525604248 0.159692853689194
vertex 9.9207820892334 -21.352087020874 -0.002238177228719
endloop
endfacet
facet normal -0.313136607408524 -0.949708044528961 1.44033022948841e-14
outer loop
vertex 9.9207820892334 -21.352087020874 0.152238175272942
vertex 9.9207820892334 -21.352087020874 -0.002238177228719
vertex 11.3367347717285 -21.8189525604248 0.159692853689194
endloop
endfacet
facet normal -0.313136637210846 -0.949708104133606 -1.66353984352909e-14
outer loop
vertex 11.3367347717285 -21.8189525604248 -0.00969284772872925
vertex 12.344783782959 -22.1513252258301 -0.0149999996647239
vertex 11.3367347717285 -21.8189525604248 0.159692853689194
endloop
endfacet
facet normal -0.313136637210846 -0.949708104133606 -0
outer loop
vertex 12.344783782959 -22.1513252258301 0.165000006556511
vertex 11.3367347717285 -21.8189525604248 0.159692853689194
vertex 12.344783782959 -22.1513252258301 -0.0149999996647239
endloop
endfacet
facet normal 0.0128454389050603 -0.00410071481019258 0.999909102916718
outer loop
vertex 12.4375734329224 -21.8583965301514 -0.142261609435081
vertex 11.4428787231445 -21.5419502258301 -0.128185376524925
vertex 12.382833480835 -22.0298709869385 -0.142261609435081
endloop
endfacet
facet normal 0.0128454379737377 -0.00410071481019258 0.999909102916718
outer loop
vertex 11.3887729644775 -21.7114353179932 -0.128185376524925
vertex 12.382833480835 -22.0298709869385 -0.142261609435081
vertex 11.4428787231445 -21.5419502258301 -0.128185376524925
endloop
endfacet
facet normal 0.0128454370424151 -0.0041007143445313 0.999909043312073
outer loop
vertex 11.3887729644775 -21.7114353179932 -0.128185376524925
vertex 11.4428787231445 -21.5419502258301 -0.128185376524925
vertex 10.0108041763306 -21.2700214385986 -0.108672879636288
endloop
endfacet
facet normal 0.0128454389050603 -0.00410071481019258 0.999909043312073
outer loop
vertex 10.0640296936035 -21.10329246521 -0.108672879636288
vertex 10.0108041763306 -21.2700214385986 -0.108672879636288
vertex 11.4428787231445 -21.5419502258301 -0.128185376524925
endloop
endfacet
facet normal 0.0128454379737377 -0.00410071481019258 0.999909043312073
outer loop
vertex 10.0108041763306 -21.2700214385986 -0.108672879636288
vertex 10.0640296936035 -21.10329246521 -0.108672879636288
vertex 8.12062549591064 -20.6645259857178 -0.0819073095917702
endloop
endfacet
facet normal 0.0128454379737377 -0.0041007143445313 0.999909043312073
outer loop
vertex 8.17264366149902 -20.501579284668 -0.0819073095917702
vertex 8.12062549591064 -20.6645259857178 -0.0819073095917702
vertex 10.0640296936035 -21.10329246521 -0.108672879636288
endloop
endfacet
facet normal 0.0128454379737377 -0.0041007143445313 0.999909043312073
outer loop
vertex 8.17264366149902 -20.501579284668 -0.0819073095917702
vertex 6.10412645339966 -19.8435153961182 -0.0526351034641266
vertex 8.12062549591064 -20.6645259857178 -0.0819073095917702
endloop
endfacet
facet normal 0.0128454389050603 -0.0041007143445313 0.999909102916718
outer loop
vertex 6.05342864990234 -20.0023250579834 -0.0526351034641266
vertex 8.12062549591064 -20.6645259857178 -0.0819073095917702
vertex 6.10412645339966 -19.8435153961182 -0.0526351034641266
endloop
endfacet
facet normal 0.0128454389050603 -0.0041007143445313 0.999909102916718
outer loop
vertex 6.10412645339966 -19.8435153961182 -0.0526351034641266
vertex 4.03560924530029 -19.1854496002197 -0.023362897336483
vertex 6.05342864990234 -20.0023250579834 -0.0526351034641266
endloop
endfacet
facet normal 0.0128454389050603 -0.00410071481019258 0.999909102916718
outer loop
vertex 3.98623204231262 -19.340124130249 -0.023362897336483
vertex 6.05342864990234 -20.0023250579834 -0.0526351034641266
vertex 4.03560924530029 -19.1854496002197 -0.023362897336483
endloop
endfacet
facet normal 0.0128454389050603 -0.00410071481019258 0.999909102916718
outer loop
vertex 4.03560924530029 -19.1854496002197 -0.023362897336483
vertex 1.96709215641022 -18.5273857116699 0.00590930925682187
vertex 3.98623204231262 -19.340124130249 -0.023362897336483
endloop
endfacet
facet normal 0.0128454379737377 -0.0041007143445313 0.999909043312073
outer loop
vertex 1.91903507709503 -18.6779251098633 0.00590930925682187
vertex 3.98623204231262 -19.340124130249 -0.023362897336483
vertex 1.96709215641022 -18.5273857116699 0.00590930925682187
endloop
endfacet
facet normal 0.0128454379737377 -0.0041007143445313 0.999909102916718
outer loop
vertex 1.91903507709503 -18.6779251098633 0.00590930925682187
vertex 1.96709215641022 -18.5273857116699 0.00590930925682187
vertex 0.166565373539925 -18.1165428161621 0.0307248737663031
endloop
endfacet
facet normal 0.0128454389050603 -0.00410071481019258 0.999909162521362
outer loop
vertex 0.21350309252739 -17.9695110321045 0.0307248737663031
vertex 0.166565373539925 -18.1165428161621 0.0307248737663031
vertex 1.96709215641022 -18.5273857116699 0.00590930925682187
endloop
endfacet
facet normal 0.0128454379737377 -0.0041007143445313 0.999909043312073
outer loop
vertex 0.21350309252739 -17.9695110321045 0.0307248737663031
vertex -1.00635361671448 -17.5814342498779 0.0479874312877655
vertex 0.166565373539925 -18.1165428161621 0.0307248737663031
endloop
endfacet
facet normal 0.0128454379737377 -0.0041007143445313 0.999909043312073
outer loop
vertex -1.05251264572144 -17.7260265350342 0.0479874312877655
vertex 0.166565373539925 -18.1165428161621 0.0307248737663031
vertex -1.00635361671448 -17.5814342498779 0.0479874312877655
endloop
endfacet
facet normal 0.0128454389050603 -0.00410071481019258 0.999909102916718
outer loop
vertex -1.00635361671448 -17.5814342498779 0.0479874312877655
vertex -1.85522043704987 -17.3113803863525 0.0599999986588955
vertex -1.05251264572144 -17.7260265350342 0.0479874312877655
endloop
endfacet
facet normal 0.0128454389050603 -0.00410071481019258 0.999909102916718
outer loop
vertex -1.90083765983582 -17.4542751312256 0.0599999986588955
vertex -1.05251264572144 -17.7260265350342 0.0479874312877655
vertex -1.85522043704987 -17.3113803863525 0.0599999986588955
endloop
endfacet
facet normal -0.224787279963493 -0.670464813709259 -0.70706969499588
outer loop
vertex 12.3838558197021 -22.0301933288574 -0.142279177904129
vertex 12.3446054458618 -22.1512660980225 -0.014995688572526
vertex 11.1906785964966 -21.6479740142822 -0.125383138656616
endloop
endfacet
facet normal -0.224787279963493 -0.670464873313904 -0.70706969499588
outer loop
vertex 11.1546945571899 -21.7589302062988 -0.00873135682195425
vertex 11.1906785964966 -21.6479740142822 -0.125383138656616
vertex 12.3446054458618 -22.1512660980225 -0.014995688572526
endloop
endfacet
facet normal -0.224787279963493 -0.670464873313904 -0.70706969499588
outer loop
vertex 11.1906785964966 -21.6479740142822 -0.125383138656616
vertex 11.1546945571899 -21.7589302062988 -0.00873135682195425
vertex 9.15669059753418 -20.9964122772217 -0.0965807437896729
endloop
endfacet
facet normal -0.224787309765816 -0.670464873313904 -0.707069754600525
outer loop
vertex 9.1263256072998 -21.0901393890381 0.00194706884212792
vertex 9.15669059753418 -20.9964122772217 -0.0965807437896729
vertex 11.1546945571899 -21.7589302062988 -0.00873135682195425
endloop
endfacet
facet normal -0.224787279963493 -0.670464873313904 -0.70706969499588
outer loop
vertex 9.15669059753418 -20.9964122772217 -0.0965807437896729
vertex 9.1263256072998 -21.0901393890381 0.00194706884212792
vertex 6.94518518447876 -20.2879848480225 -0.0652645900845528
endloop
endfacet
facet normal -0.224787294864655 -0.670464932918549 -0.707069754600525
outer loop
vertex 6.92089319229126 -20.3629665374756 0.0135576548054814
vertex 6.94518518447876 -20.2879848480225 -0.0652645900845528
vertex 9.1263256072998 -21.0901393890381 0.00194706884212792
endloop
endfacet
facet normal -0.224787294864655 -0.670464932918549 -0.707069754600525
outer loop
vertex 6.92089319229126 -20.3629665374756 0.0135576548054814
vertex 4.71546030044556 -19.6357936859131 0.0251682419329882
vertex 6.94518518447876 -20.2879848480225 -0.0652645900845528
endloop
endfacet
facet normal -0.224787279963493 -0.670464873313904 -0.70706969499588
outer loop
vertex 4.73367929458618 -19.5795574188232 -0.0339484438300133
vertex 6.94518518447876 -20.2879848480225 -0.0652645900845528
vertex 4.71546030044556 -19.6357936859131 0.0251682419329882
endloop
endfacet
facet normal -0.224787279963493 -0.670464873313904 -0.70706969499588
outer loop
vertex 4.73367929458618 -19.5795574188232 -0.0339484438300133
vertex 4.71546030044556 -19.6357936859131 0.0251682419329882
vertex 2.52217364311218 -18.871129989624 -0.00263229617848992
endloop
endfacet
facet normal -0.224787294864655 -0.670464932918549 -0.707069754600525
outer loop
vertex 2.51002788543701 -18.9086208343506 0.0367788262665272
vertex 2.52217364311218 -18.871129989624 -0.00263229617848992
vertex 4.71546030044556 -19.6357936859131 0.0251682419329882
endloop
endfacet
facet normal -0.224787294864655 -0.670464932918549 -0.707069754600525
outer loop
vertex 2.51002788543701 -18.9086208343506 0.0367788262665272
vertex 0.304595053195953 -18.1814479827881 0.0483894124627113
vertex 2.52217364311218 -18.871129989624 -0.00263229617848992
endloop
endfacet
facet normal -0.224787294864655 -0.670464932918549 -0.707069754600525
outer loop
vertex 0.310668021440506 -18.1627025604248 0.028683852404356
vertex 2.52217364311218 -18.871129989624 -0.00263229617848992
vertex 0.304595053195953 -18.1814479827881 0.0483894124627113
endloop
endfacet
facet normal -0.224787294864655 -0.670464932918549 -0.707069754600525
outer loop
vertex 0.304595053195953 -18.1814479827881 0.0483894124627113
vertex -1.90083765983582 -17.4542751312256 0.0599999986588955
vertex 0.310668021440506 -18.1627025604248 0.028683852404356
endloop
endfacet
facet normal -0.952352404594421 0.304024308919907 0.0243754591792822
outer loop
vertex -1.50234484672546 -17.4082851409912 15.085542678833
vertex -1.52690291404724 -17.4015407562256 14.0419406890869
vertex -1.5570855140686 -17.5797595977783 15.085542678833
endloop
endfacet
facet normal -0.952352404594421 0.304024308919907 0.0243754591792822
outer loop
vertex -1.58100867271423 -17.5710258483887 14.0419406890869
vertex -1.5570855140686 -17.5797595977783 15.085542678833
vertex -1.52690291404724 -17.4015407562256 14.0419406890869
endloop
endfacet
facet normal -0.952352344989777 0.304024279117584 0.0243754554539919
outer loop
vertex -1.58100867271423 -17.5710258483887 14.0419406890869
vertex -1.52690291404724 -17.4015407562256 14.0419406890869
vertex -1.61417102813721 -17.5589218139648 12.5952968597412
endloop
endfacet
facet normal -0.952352344989777 0.304024279117584 0.024375457316637
outer loop
vertex -1.56094539165497 -17.3921928405762 12.5952968597412
vertex -1.61417102813721 -17.5589218139648 12.5952968597412
vertex -1.52690291404724 -17.4015407562256 14.0419406890869
endloop
endfacet
facet normal -0.952352404594421 0.304024308919907 0.024375457316637
outer loop
vertex -1.61417102813721 -17.5589218139648 12.5952968597412
vertex -1.56094539165497 -17.3921928405762 12.5952968597412
vertex -1.65966022014618 -17.5423164367676 10.610915184021
endloop
endfacet
facet normal -0.952352404594421 0.304024308919907 0.0243754610419273
outer loop
vertex -1.60764193534851 -17.3793697357178 10.610915184021
vertex -1.65966022014618 -17.5423164367676 10.610915184021
vertex -1.56094539165497 -17.3921928405762 12.5952968597412
endloop
endfacet
facet normal -0.952352404594421 0.304024308919907 0.0243754610419273
outer loop
vertex -1.60764193534851 -17.3793697357178 10.610915184021
vertex -1.65871167182922 -17.3653450012207 8.44069290161133
vertex -1.65966022014618 -17.5423164367676 10.610915184021
endloop
endfacet
facet normal -0.952352344989777 0.304024279117584 0.024375457316637
outer loop
vertex -1.70940959453583 -17.5241546630859 8.44069290161133
vertex -1.65966022014618 -17.5423164367676 10.610915184021
vertex -1.65871167182922 -17.3653450012207 8.44069290161133
endloop
endfacet
facet normal -0.952352344989777 0.304024279117584 0.024375457316637
outer loop
vertex -1.65871167182922 -17.3653450012207 8.44069290161133
vertex -1.70978140830994 -17.3513202667236 6.27047061920166
vertex -1.70940959453583 -17.5241546630859 8.44069290161133
endloop
endfacet
facet normal -0.952352344989777 0.304024279117584 0.024375457316637
outer loop
vertex -1.75915896892548 -17.5059947967529 6.27047061920166
vertex -1.70940959453583 -17.5241546630859 8.44069290161133
vertex -1.70978140830994 -17.3513202667236 6.27047061920166
endloop
endfacet
facet normal -0.952352344989777 0.304024279117584 0.024375457316637
outer loop
vertex -1.70978140830994 -17.3513202667236 6.27047061920166
vertex -1.76085114479065 -17.3372955322266 4.10024833679199
vertex -1.75915896892548 -17.5059947967529 6.27047061920166
endloop
endfacet
facet normal -0.952352404594421 0.304024308919907 0.0243754591792822
outer loop
vertex -1.80890822410583 -17.4878330230713 4.10024833679199
vertex -1.75915896892548 -17.5059947967529 6.27047061920166
vertex -1.76085114479065 -17.3372955322266 4.10024833679199
endloop
endfacet
facet normal -0.952352404594421 0.304024308919907 0.0243754591792822
outer loop
vertex -1.80890822410583 -17.4878330230713 4.10024833679199
vertex -1.76085114479065 -17.3372955322266 4.10024833679199
vertex -1.8510833978653 -17.4724388122559 2.2604386806488
endloop
endfacet
facet normal -0.952352404594421 0.304024308919907 0.0243754591792822
outer loop
vertex -1.80414569377899 -17.3254070281982 2.2604386806488
vertex -1.8510833978653 -17.4724388122559 2.2604386806488
vertex -1.76085114479065 -17.3372955322266 4.10024833679199
endloop
endfacet
facet normal -0.952352404594421 0.304024308919907 0.0243754591792822
outer loop
vertex -1.80414569377899 -17.3254070281982 2.2604386806488
vertex -1.8342627286911 -17.3171367645264 0.98060405254364
vertex -1.8510833978653 -17.4724388122559 2.2604386806488
endloop
endfacet
facet normal -0.952352404594421 0.304024308919907 0.0243754610419273
outer loop
vertex -1.88042175769806 -17.4617290496826 0.98060405254364
vertex -1.8510833978653 -17.4724388122559 2.2604386806488
vertex -1.8342627286911 -17.3171367645264 0.98060405254364
endloop
endfacet
facet normal -0.952352344989777 0.304024308919907 0.0243754591792822
outer loop
vertex -1.8342627286911 -17.3171367645264 0.98060405254364
vertex -1.85522043704987 -17.3113803863525 0.0900000035762787
vertex -1.88042175769806 -17.4617290496826 0.98060405254364
endloop
endfacet
facet normal -0.952352404594421 0.304024308919907 0.0243754610419273
outer loop
vertex -1.90083765983582 -17.4542751312256 0.0900000035762787
vertex -1.88042175769806 -17.4617290496826 0.98060405254364
vertex -1.85522043704987 -17.3113803863525 0.0900000035762787
endloop
endfacet
facet normal 0.203926339745522 0.677124857902527 -0.707047343254089
outer loop
vertex 1.61695230007172 -7.28518676757813 10.6933240890503
vertex 1.37327706813812 -7.99530410766602 9.94297790527344
vertex 1.44544386863708 -7.23062419891357 10.6961107254028
endloop
endfacet
facet normal 0.203926354646683 0.677124857902527 -0.707047402858734
outer loop
vertex 1.2118821144104 -7.94395923614502 9.94560146331787
vertex 1.44544386863708 -7.23062419891357 10.6961107254028
vertex 1.37327706813812 -7.99530410766602 9.94297790527344
endloop
endfacet
facet normal 0.20392632484436 0.677124798297882 -0.707047343254089
outer loop
vertex 1.2118821144104 -7.94395923614502 9.94560146331787
vertex 1.37327706813812 -7.99530410766602 9.94297790527344
vertex 0.883810579776764 -8.94594192504883 8.89140033721924
endloop
endfacet
facet normal 0.203926354646683 0.677124857902527 -0.707047402858734
outer loop
vertex 1.03099954128265 -8.99276733398438 8.88900852203369
vertex 0.883810579776764 -8.94594192504883 8.89140033721924
vertex 1.37327706813812 -7.99530410766602 9.94297790527344
endloop
endfacet
facet normal 0.203926339745522 0.677124857902527 -0.707047402858734
outer loop
vertex 0.883810579776764 -8.94594192504883 8.89140033721924
vertex 1.03099954128265 -8.99276733398438 8.88900852203369
vertex 0.431830883026123 -10.3263597488403 7.43904209136963
endloop
endfacet
facet normal 0.203926354646683 0.677124857902527 -0.707047402858734
outer loop
vertex 0.55944836139679 -10.3669595718384 7.4369683265686
vertex 0.431830883026123 -10.3263597488403 7.43904209136963
vertex 1.03099954128265 -8.99276733398438 8.88900852203369
endloop
endfacet
facet normal 0.203926339745522 0.677124798297882 -0.707047402858734
outer loop
vertex 0.55944836139679 -10.3669595718384 7.4369683265686
vertex 0.0510948970913887 -11.8484010696411 5.87160301208496
vertex 0.431830883026123 -10.3263597488403 7.43904209136963
endloop
endfacet
facet normal 0.203926339745522 0.677124857902527 -0.707047402858734
outer loop
vertex -0.0554237551987171 -11.8145141601563 5.87333393096924
vertex 0.431830883026123 -10.3263597488403 7.43904209136963
vertex 0.0510948970913887 -11.8484010696411 5.87160301208496
endloop
endfacet
facet normal 0.203926339745522 0.677124857902527 -0.707047343254089
outer loop
vertex -0.542678356170654 -13.3026676177979 4.30762577056885
vertex -0.0554237551987171 -11.8145141601563 5.87333393096924
vertex -0.457258582115173 -13.3298425674438 4.30623769760132
endloop
endfacet
facet normal 0.203926339745522 0.677124857902527 -0.707047402858734
outer loop
vertex 0.0510948970913887 -11.8484010696411 5.87160301208496
vertex -0.457258582115173 -13.3298425674438 4.30623769760132
vertex -0.0554237551987171 -11.8145141601563 5.87333393096924
endloop
endfacet
facet normal 0.203926339745522 0.677124917507172 -0.707047402858734
outer loop
vertex -0.457258582115173 -13.3298425674438 4.30623769760132
vertex -0.965043306350708 -14.8096256256104 2.74262404441833
vertex -0.542678356170654 -13.3026676177979 4.30762577056885
endloop
endfacet
facet normal 0.203926339745522 0.677124798297882 -0.707047343254089
outer loop
vertex -1.02938783168793 -14.789155960083 2.7436695098877
vertex -0.542678356170654 -13.3026676177979 4.30762577056885
vertex -0.965043306350708 -14.8096256256104 2.74262404441833
endloop
endfacet
facet normal 0.203926354646683 0.677124857902527 -0.707047343254089
outer loop
vertex -1.02938783168793 -14.789155960083 2.7436695098877
vertex -0.965043306350708 -14.8096256256104 2.74262404441833
vertex -1.3938707113266 -15.9023447036743 1.57246732711792
endloop
endfacet
facet normal 0.203926354646683 0.677124857902527 -0.707047402858734
outer loop
vertex -1.34530878067017 -15.9177942276001 1.57167816162109
vertex -1.3938707113266 -15.9023447036743 1.57246732711792
vertex -0.965043306350708 -14.8096256256104 2.74262404441833
endloop
endfacet
facet normal 0.203926354646683 0.677124857902527 -0.707047402858734
outer loop
vertex -1.34530878067017 -15.9177942276001 1.57167816162109
vertex -1.56976997852325 -16.5719184875488 0.880498170852661
vertex -1.3938707113266 -15.9023447036743 1.57246732711792
endloop
endfacet
facet normal 0.203926354646683 0.677124857902527 -0.707047402858734
outer loop
vertex -1.60901582241058 -16.5594329833984 0.881135940551758
vertex -1.3938707113266 -15.9023447036743 1.57246732711792
vertex -1.56976997852325 -16.5719184875488 0.880498170852661
endloop
endfacet
facet normal 0.203926354646683 0.677124857902527 -0.707047402858734
outer loop
vertex -1.60901582241058 -16.5594329833984 0.881135940551758
vertex -1.56976997852325 -16.5719184875488 0.880498170852661
vertex -1.73601055145264 -16.9472942352295 0.473060339689255
endloop
endfacet
facet normal 0.203926339745522 0.677124798297882 -0.707047402858734
outer loop
vertex -1.70226383209229 -16.9580307006836 0.472511947154999
vertex -1.73601055145264 -16.9472942352295 0.473060339689255
vertex -1.56976997852325 -16.5719184875488 0.880498170852661
endloop
endfacet
facet normal 0.203926339745522 0.677124857902527 -0.707047343254089
outer loop
vertex -1.70226383209229 -16.9580307006836 0.472511947154999
vertex -1.78047168254852 -17.1859436035156 0.231687903404236
vertex -1.73601055145264 -16.9472942352295 0.473060339689255
endloop
endfacet
facet normal 0.203926339745522 0.677124798297882 -0.707047402858734
outer loop
vertex -1.8109724521637 -17.1762390136719 0.232183545827866
vertex -1.73601055145264 -16.9472942352295 0.473060339689255
vertex -1.78047168254852 -17.1859436035156 0.231687903404236
endloop
endfacet
facet normal 0.203926354646683 0.677124857902527 -0.707047343254089
outer loop
vertex -1.8109724521637 -17.1762390136719 0.232183545827866
vertex -1.78047168254852 -17.1859436035156 0.231687903404236
vertex -1.85522043704987 -17.3113803863525 0.0900000035762787
endloop
endfacet
facet normal 0.203926339745522 0.677124798297882 -0.707047343254089
outer loop
vertex -1.82663571834564 -17.3204746246338 0.0895354896783829
vertex -1.85522043704987 -17.3113803863525 0.0900000035762787
vertex -1.78047168254852 -17.1859436035156 0.231687903404236
endloop
endfacet
facet normal -0.223424389958382 -0.670842170715332 0.707143783569336
outer loop
vertex 1.61632323265076 -7.287193775177 10.6964349746704
vertex 1.4454026222229 -7.23075008392334 10.6959781646729
vertex 1.3263521194458 -8.1244945526123 9.8105001449585
endloop
endfacet
facet normal -0.22342437505722 -0.670842170715332 0.707143783569336
outer loop
vertex 1.16970527172089 -8.07277393341064 9.81007289886475
vertex 1.3263521194458 -8.1244945526123 9.8105001449585
vertex 1.4454026222229 -7.23075008392334 10.6959781646729
endloop
endfacet
facet normal -0.223424389958382 -0.670842170715332 0.707143783569336
outer loop
vertex 1.3263521194458 -8.1244945526123 9.8105001449585
vertex 1.16970527172089 -8.07277393341064 9.81007289886475
vertex 0.83204174041748 -9.55183029174805 8.30025863647461
endloop
endfacet
facet normal -0.223424404859543 -0.670842170715332 0.707143843173981
outer loop
vertex 0.699739098548889 -9.50812530517578 8.29991817474365
vertex 0.83204174041748 -9.55183029174805 8.30025863647461
vertex 1.16970527172089 -8.07277393341064 9.81007289886475
endloop
endfacet
facet normal -0.22342437505722 -0.670842111110687 0.707143723964691
outer loop
vertex 0.83204174041748 -9.55183029174805 8.30025863647461
vertex 0.699739098548889 -9.50812530517578 8.29991817474365
vertex 0.294589310884476 -11.1037406921387 6.65820693969727
endloop
endfacet
facet normal -0.22342437505722 -0.670842170715332 0.707143723964691
outer loop
vertex 0.188747182488441 -11.0687770843506 6.65793466567993
vertex 0.294589310884476 -11.1037406921387 6.65820693969727
vertex 0.699739098548889 -9.50812530517578 8.29991817474365
endloop
endfacet
facet normal -0.22342437505722 -0.670842170715332 0.707143723964691
outer loop
vertex 0.188747182488441 -11.0687770843506 6.65793466567993
vertex -0.322244733572006 -12.6294279098511 5.01595115661621
vertex 0.294589310884476 -11.1037406921387 6.65820693969727
endloop
endfacet
facet normal -0.22342437505722 -0.670842170715332 0.707143783569336
outer loop
vertex -0.242863148450851 -12.655650138855 5.01615524291992
vertex 0.294589310884476 -11.1037406921387 6.65820693969727
vertex -0.322244733572006 -12.6294279098511 5.01595115661621
endloop
endfacet
facet normal -0.22342437505722 -0.670842170715332 0.707143783569336
outer loop
vertex -0.242863148450851 -12.655650138855 5.01615524291992
vertex -0.322244733572006 -12.6294279098511 5.01595115661621
vertex -0.780315577983856 -14.2075605392456 3.37410354614258
endloop
endfacet
facet normal -0.22342437505722 -0.670842170715332 0.707143723964691
outer loop
vertex -0.833236634731293 -14.1900787353516 3.37396740913391
vertex -0.780315577983856 -14.2075605392456 3.37410354614258
vertex -0.322244733572006 -12.6294279098511 5.01595115661621
endloop
endfacet
facet normal -0.22342437505722 -0.670842170715332 0.707143723964691
outer loop
vertex -0.833236634731293 -14.1900787353516 3.37396740913391
vertex -1.34422862529755 -15.7507295608521 1.73198366165161
vertex -0.780315577983856 -14.2075605392456 3.37410354614258
endloop
endfacet
facet normal -0.22342437505722 -0.670842170715332 0.707143723964691
outer loop
vertex -1.31776809692383 -15.7594709396362 1.73205173015594
vertex -0.780315577983856 -14.2075605392456 3.37410354614258
vertex -1.34422862529755 -15.7507295608521 1.73198366165161
endloop
endfacet
facet normal -0.22342437505722 -0.670842170715332 0.707143723964691
outer loop
vertex -1.34422862529755 -15.7507295608521 1.73198366165161
vertex -1.85522043704987 -17.3113803863525 0.0900000035762787
vertex -1.31776809692383 -15.7594709396362 1.73205173015594
endloop
endfacet
facet normal -0.313132911920547 -0.949709057807922 -0.000769078149460256
outer loop
vertex -0.0123680792748928 -18.0877323150635 13.4276351928711
vertex -1.5570855140686 -17.5797595977783 15.085542678833
vertex -0.0312603414058685 -18.0814876556396 13.4081239700317
endloop
endfacet
facet normal -0.313132911920547 -0.949709057807922 -0.000769078149460256
outer loop
vertex -0.0312603414058685 -18.0814876556396 13.4081239700317
vertex 1.49456489086151 -18.583215713501 11.7307052612305
vertex -0.0123680792748928 -18.0877323150635 13.4276351928711
endloop
endfacet
facet normal -0.313132911920547 -0.949709057807922 -0.000769078149460256
outer loop
vertex 1.53234934806824 -18.5957050323486 11.7697267532349
vertex -0.0123680792748928 -18.0877323150635 13.4276351928711
vertex 1.49456489086151 -18.583215713501 11.7307052612305
endloop
endfacet
facet normal -0.313132911920547 -0.949709057807922 -0.000769078149460256
outer loop
vertex 1.49456489086151 -18.583215713501 11.7307052612305
vertex 3.02039003372192 -19.0849437713623 10.0532865524292
vertex 1.53234934806824 -18.5957050323486 11.7697267532349
endloop
endfacet
facet normal -0.313132882118225 -0.949709057807922 -0.000769078149460256
outer loop
vertex 3.07706689834595 -19.1036796569824 10.1118183135986
vertex 1.53234934806824 -18.5957050323486 11.7697267532349
vertex 3.02039003372192 -19.0849437713623 10.0532865524292
endloop
endfacet
facet normal -0.313132882118225 -0.949709057807922 -0.000769078149460256
outer loop
vertex 3.02039003372192 -19.0849437713623 10.0532865524292
vertex 4.54621505737305 -19.5866737365723 8.37586784362793
vertex 3.07706689834595 -19.1036796569824 10.1118183135986
endloop
endfacet
facet normal -0.313132911920547 -0.949709057807922 -0.000769078149460256
outer loop
vertex 4.62178421020508 -19.6116523742676 8.4539098739624
vertex 3.07706689834595 -19.1036796569824 10.1118183135986
vertex 4.54621505737305 -19.5866737365723 8.37586784362793
endloop
endfacet
facet normal -0.313132882118225 -0.949708998203278 -0.000769078091252595
outer loop
vertex 6.16650152206421 -20.1196250915527 6.79600191116333
vertex 4.62178421020508 -19.6116523742676 8.4539098739624
vertex 6.07204055786133 -20.0884017944336 6.69844913482666
endloop
endfacet
facet normal -0.313132911920547 -0.949709057807922 -0.000769078149460256
outer loop
vertex 4.54621505737305 -19.5866737365723 8.37586784362793
vertex 6.07204055786133 -20.0884017944336 6.69844913482666
vertex 4.62178421020508 -19.6116523742676 8.4539098739624
endloop
endfacet
facet normal -0.313132882118225 -0.949708998203278 -0.000769078091252595
outer loop
vertex 6.16650152206421 -20.1196250915527 6.79600191116333
vertex 6.07204055786133 -20.0884017944336 6.69844913482666
vertex 7.58720111846924 -20.5868167877197 5.27119970321655
endloop
endfacet
facet normal -0.313132911920547 -0.949709057807922 -0.000769078149460256
outer loop
vertex 7.47538709640503 -20.5498561859131 5.155677318573
vertex 7.58720111846924 -20.5868167877197 5.27119970321655
vertex 6.07204055786133 -20.0884017944336 6.69844913482666
endloop
endfacet
facet normal -0.313132882118225 -0.949708998203278 -0.000769078149460256
outer loop
vertex 7.58720111846924 -20.5868167877197 5.27119970321655
vertex 7.47538709640503 -20.5498561859131 5.155677318573
vertex 8.42063236236572 -20.8608856201172 4.37669801712036
endloop
endfacet
facet normal -0.313132882118225 -0.949709057807922 -0.000769078149460256
outer loop
vertex 8.29861831665039 -20.8205547332764 4.250657081604
vertex 8.42063236236572 -20.8608856201172 4.37669801712036
vertex 7.47538709640503 -20.5498561859131 5.155677318573
endloop
endfacet
facet normal -1 0 0
outer loop
vertex -0.20227999985218 -16 0.165000006556511
vertex -0.20227999985218 -15 0.165000006556511
vertex -0.20227999985218 -16 -0.0149999996647239
endloop
endfacet
facet normal -1 0 0
outer loop
vertex -0.20227999985218 -15 -0.0149999996647239
vertex -0.20227999985218 -16 -0.0149999996647239
vertex -0.20227999985218 -15 0.165000006556511
endloop
endfacet
facet normal -0.70710676908493 -0 -0.70710676908493
outer loop
vertex -0.20227999985218 -15 -0.0149999996647239
vertex -0.0750000029802322 -15 -0.142279997467995
vertex -0.20227999985218 -16 -0.0149999996647239
endloop
endfacet
facet normal -0.70710676908493 0 -0.70710676908493
outer loop
vertex -0.0750000029802322 -16 -0.142279997467995
vertex -0.20227999985218 -16 -0.0149999996647239
vertex -0.0750000029802322 -15 -0.142279997467995
endloop
endfacet
facet normal -0.70710676908493 0 0.70710676908493
outer loop
vertex -0.0750000029802322 -15 0.292279988527298
vertex -0.20227999985218 -15 0.165000006556511
vertex -0.0750000029802322 -16 0.292279988527298
endloop
endfacet
facet normal -0.70710676908493 0 0.70710676908493
outer loop
vertex -0.20227999985218 -16 0.165000006556511
vertex -0.0750000029802322 -16 0.292279988527298
vertex -0.20227999985218 -15 0.165000006556511
endloop
endfacet
facet normal 0 0 -1
outer loop
vertex -0.0750000029802322 -16 -0.142279997467995
vertex -0.0750000029802322 -15 -0.142279997467995
vertex 0.104999996721745 -16 -0.142279997467995
endloop
endfacet
facet normal -0 -0 -1
outer loop
vertex 0.104999996721745 -15 -0.142279997467995
vertex 0.104999996721745 -16 -0.142279997467995
vertex -0.0750000029802322 -15 -0.142279997467995
endloop
endfacet
facet normal 0 -0 1
outer loop
vertex 0.104999996721745 -16 0.292279988527298
vertex 0.104999996721745 -15 0.292279988527298
vertex -0.0750000029802322 -16 0.292279988527298
endloop
endfacet
facet normal -0 0 1
outer loop
vertex -0.0750000029802322 -15 0.292279988527298
vertex -0.0750000029802322 -16 0.292279988527298
vertex 0.104999996721745 -15 0.292279988527298
endloop
endfacet
facet normal 0.70710676908493 0 -0.70710676908493
outer loop
vertex 0.232280001044273 -16 -0.0149999996647239
vertex 0.104999996721745 -16 -0.142279997467995
vertex 0.232280001044273 -15 -0.0149999996647239
endloop
endfacet
facet normal 0.70710676908493 0 -0.70710676908493
outer loop
vertex 0.104999996721745 -15 -0.142279997467995
vertex 0.232280001044273 -15 -0.0149999996647239
vertex 0.104999996721745 -16 -0.142279997467995
endloop
endfacet
facet normal 0.70710676908493 -0 0.70710676908493
outer loop
vertex 0.104999996721745 -16 0.292279988527298
vertex 0.232280001044273 -16 0.165000006556511
vertex 0.104999996721745 -15 0.292279988527298
endloop
endfacet
facet normal 0.70710676908493 0 0.70710676908493
outer loop
vertex 0.232280001044273 -15 0.165000006556511
vertex 0.104999996721745 -15 0.292279988527298
vertex 0.232280001044273 -16 0.165000006556511
endloop
endfacet
facet normal 1 0 0
outer loop
vertex 0.232280001044273 -15 0.165000006556511
vertex 0.232280001044273 -16 0.165000006556511
vertex 0.232280001044273 -15 -0.0149999996647239
endloop
endfacet
facet normal 1 0 0
outer loop
vertex 0.232280001044273 -16 -0.0149999996647239
vertex 0.232280001044273 -15 -0.0149999996647239
vertex 0.232280001044273 -16 0.165000006556511
endloop
endfacet
facet normal -0 0.0094849057495594 0.999954998493195
outer loop
vertex -0.0750000029802322 -14.999324798584 0.292273610830307
vertex 0.104999996721745 -14.999324798584 0.292273610830307
vertex -0.069692850112915 -13.9379425048828 0.282206028699875
endloop
endfacet
facet normal 0 0.00948490668088198 0.999954998493195
outer loop
vertex 0.0996928438544273 -13.9379425048828 0.282206028699875
vertex -0.069692850112915 -13.9379425048828 0.282206028699875
vertex 0.104999996721745 -14.999324798584 0.292273610830307
endloop
endfacet
facet normal 0 0.00948490761220455 0.999955058097839
outer loop
vertex 0.0996928438544273 -13.9379425048828 0.282206028699875
vertex 0.0922381803393364 -12.447075843811 0.268064647912979
vertex -0.069692850112915 -13.9379425048828 0.282206028699875
endloop
endfacet
facet normal -2.50265333977601e-16 0.00948490668088198 0.999955058097839
outer loop
vertex -0.0622381754219532 -12.447075843811 0.268064647912979
vertex -0.069692850112915 -13.9379425048828 0.282206028699875
vertex 0.0922381803393364 -12.447075843811 0.268064647912979
endloop
endfacet
facet normal -2.50265307507821e-16 0.00948490668088198 0.999954998493195
outer loop
vertex -0.0622381754219532 -12.447075843811 0.268064647912979
vertex 0.0922381803393364 -12.447075843811 0.268064647912979
vertex -0.051967978477478 -10.3931283950806 0.248582288622856
endloop
endfacet
facet normal -4.14441812616521e-16 0.00948490668088198 0.999955058097839
outer loop
vertex 0.0819679796695709 -10.3931283950806 0.248582288622856
vertex -0.051967978477478 -10.3931283950806 0.248582288622856
vertex 0.0922381803393364 -12.447075843811 0.268064647912979
endloop
endfacet
facet normal -4.14441759676962e-16 0.00948490668088198 0.999954998493195
outer loop
vertex 0.0819679796695709 -10.3931283950806 0.248582288622856
vertex 0.0708962380886078 -8.178879737854 0.227579399943352
vertex -0.051967978477478 -10.3931283950806 0.248582288622856
endloop
endfacet
facet normal 2.03872479188646e-16 0.00948490668088198 0.999955058097839
outer loop
vertex -0.0408962368965149 -8.178879737854 0.227579399943352
vertex -0.051967978477478 -10.3931283950806 0.248582288622856
vertex 0.0708962380886078 -8.178879737854 0.227579399943352
endloop
endfacet
facet normal 2.03872479188646e-16 0.00948490668088198 0.999955058097839
outer loop
vertex -0.0408962368965149 -8.178879737854 0.227579399943352
vertex 0.0708962380886078 -8.178879737854 0.227579399943352
vertex -0.0298244990408421 -5.9646315574646 0.206576511263847
endloop
endfacet
facet normal 1.60259679176808e-16 0.0094849057495594 0.99995493888855
outer loop
vertex 0.059824500232935 -5.9646315574646 0.206576511263847
vertex -0.0298244990408421 -5.9646315574646 0.206576511263847
vertex 0.0708962380886078 -8.178879737854 0.227579399943352
endloop
endfacet
facet normal 1.60259679176808e-16 0.00948490668088198 0.999954998493195
outer loop
vertex 0.059824500232935 -5.9646315574646 0.206576511263847
vertex 0.0487651452422142 -3.75286030769348 0.185597136616707
vertex -0.0298244990408421 -5.9646315574646 0.206576511263847
endloop
endfacet
facet normal -3.22988327045964e-16 0.00948490668088198 0.999954998493195
outer loop
vertex -0.0187651459127665 -3.75286030769348 0.185597136616707
vertex -0.0298244990408421 -5.9646315574646 0.206576511263847
vertex 0.0487651452422142 -3.75286030769348 0.185597136616707
endloop
endfacet
facet normal -3.22988327045964e-16 0.0094849057495594 0.999954998493195
outer loop
vertex -0.0187651459127665 -3.75286030769348 0.185597136616707
vertex 0.0487651452422142 -3.75286030769348 0.185597136616707
vertex -0.0104831121861935 -2.09652805328369 0.169886261224747
endloop
endfacet
facet normal 7.09854690897046e-16 0.00948490668088198 0.999954998493195
outer loop
vertex 0.0404831133782864 -2.09652805328369 0.169886261224747
vertex -0.0104831121861935 -2.09652805328369 0.169886261224747
vertex 0.0487651452422142 -3.75286030769348 0.185597136616707
endloop
endfacet
facet normal 7.09854796776164e-16 0.00948490761220455 0.999955058097839
outer loop
vertex 0.0404831133782864 -2.09652805328369 0.169886261224747
vertex 0.0355944335460663 -1.11883664131165 0.160612538456917
vertex -0.0104831121861935 -2.09652805328369 0.169886261224747
endloop
endfacet
facet normal 2.55660404456019e-16 0.00948490668088198 0.999955058097839
outer loop
vertex -0.00559443468227983 -1.11883664131165 0.160612538456917
vertex -0.0104831121861935 -2.09652805328369 0.169886261224747
vertex 0.0355944335460663 -1.11883664131165 0.160612538456917
endloop
endfacet
facet normal 2.55660377986239e-16 0.00948490668088198 0.999954998493195
outer loop
vertex -0.00559443468227983 -1.11883664131165 0.160612538456917
vertex 0.0355944335460663 -1.11883664131165 0.160612538456917
vertex -0.00270877103321254 -0.541729807853699 0.155138492584229
endloop
endfacet
facet normal -7.24168065397985e-16 0.0094849057495594 0.999954998493195
outer loop
vertex 0.0327087715268135 -0.541729807853699 0.155138492584229
vertex -0.00270877103321254 -0.541729807853699 0.155138492584229
vertex 0.0355944335460663 -1.11883664131165 0.160612538456917
endloop
endfacet
facet normal -7.24168118337545e-16 0.00948490668088198 0.999954998493195
outer loop
vertex 0.0327087715268135 -0.541729807853699 0.155138492584229
vertex 0.0310054365545511 -0.201078146696091 0.151907294988632
vertex -0.00270877103321254 -0.541729807853699 0.155138492584229
endloop
endfacet
facet normal -9.86886160128764e-17 0.00948490668088198 0.999954998493195
outer loop
vertex -0.00100543594453484 -0.201078146696091 0.151907294988632
vertex -0.00270877103321254 -0.541729807853699 0.155138492584229
vertex 0.0310054365545511 -0.201078146696091 0.151907294988632
endloop
endfacet
facet normal -9.86886160128764e-17 0.00948490668088198 0.999954998493195
outer loop
vertex -0.00100543594453484 -0.201078146696091 0.151907294988632
vertex 0.0310054365545511 -0.201078146696091 0.151907294988632
vertex 0 0 0.150000005960464
endloop
endfacet
facet normal 0 0.00948490668088198 0.999954998493195
outer loop
vertex 0.0299999993294477 0 0.150000005960464
vertex 0 0 0.150000005960464
vertex 0.0310054365545511 -0.201078146696091 0.151907294988632
endloop
endfacet
facet normal -0.999909102916718 -0.0134841073304415 0
outer loop
vertex 0.23226161301136 -14.9986362457275 -0.0149999996647239
vertex 0.23226161301136 -14.9986362457275 0.165000006556511
vertex 0.218185380101204 -13.9548187255859 -0.013956087641418
endloop
endfacet
facet normal -0.999909102916718 -0.0134841073304415 -2.13614711349552e-17
outer loop
vertex 0.218185380101204 -13.9548187255859 0.163956090807915
vertex 0.218185380101204 -13.9548187255859 -0.013956087641418
vertex 0.23226161301136 -14.9986362457275 0.165000006556511
endloop
endfacet
facet normal -0.999909043312073 -0.0134841063991189 -2.1361469480594e-17
outer loop
vertex 0.218185380101204 -13.9548187255859 -0.013956087641418
vertex 0.218185380101204 -13.9548187255859 0.163956090807915
vertex 0.198672875761986 -12.5078763961792 -0.0125090135261416
endloop
endfacet
facet normal -0.999909043312073 -0.0134841073304415 -1.58572535129665e-16
outer loop
vertex 0.198672875761986 -12.5078763961792 0.162509009242058
vertex 0.198672875761986 -12.5078763961792 -0.0125090135261416
vertex 0.218185380101204 -13.9548187255859 0.163956090807915
endloop
endfacet
facet normal -0.999909043312073 -0.0134841073304415 -1.58572535129665e-16
outer loop
vertex 0.198672875761986 -12.5078763961792 0.162509009242058
vertex 0.171907305717468 -10.5230855941772 0.160524040460587
vertex 0.198672875761986 -12.5078763961792 -0.0125090135261416
endloop
endfacet
facet normal -0.999909043312073 -0.0134841063991189 -2.22186999104399e-17
outer loop
vertex 0.171907305717468 -10.5230855941772 -0.0105240419507027
vertex 0.198672875761986 -12.5078763961792 -0.0125090135261416
vertex 0.171907305717468 -10.5230855941772 0.160524040460587
endloop
endfacet
facet normal -0.999909043312073 -0.0134841073304415 -2.22186982560786e-17
outer loop
vertex 0.171907305717468 -10.5230855941772 -0.0105240419507027
vertex 0.171907305717468 -10.5230855941772 0.160524040460587
vertex 0.142635107040405 -8.35241508483887 -0.00835317466408014
endloop
endfacet
facet normal -0.999909102916718 -0.013484108261764 9.80865741107256e-17
outer loop
vertex 0.142635107040405 -8.35241508483887 0.158353179693222
vertex 0.142635107040405 -8.35241508483887 -0.00835317466408014
vertex 0.171907305717468 -10.5230855941772 0.160524040460587
endloop
endfacet
facet normal -0.999909102916718 -0.013484108261764 9.80865741107256e-17
outer loop
vertex 0.142635107040405 -8.35241508483887 0.158353179693222
vertex 0.113362900912762 -6.1817455291748 0.156182304024696
vertex 0.142635107040405 -8.35241508483887 -0.00835317466408014
endloop
endfacet
facet normal -0.999909102916718 -0.0134841073304415 1.24116465680112e-16
outer loop
vertex 0.113362900912762 -6.1817455291748 -0.00618230737745762
vertex 0.142635107040405 -8.35241508483887 -0.00835317466408014
vertex 0.113362900912762 -6.1817455291748 0.156182304024696
endloop
endfacet
facet normal -0.999909102916718 -0.0134841073304415 1.24116465680112e-16
outer loop
vertex 0.113362900912762 -6.1817455291748 -0.00618230737745762
vertex 0.113362900912762 -6.1817455291748 0.156182304024696
vertex 0.0840906873345375 -4.01107549667358 -0.00401144009083509
endloop
endfacet
facet normal -0.999909043312073 -0.0134841063991189 9.14514473975274e-17
outer loop
vertex 0.0840906873345375 -4.01107549667358 0.154011443257332
vertex 0.0840906873345375 -4.01107549667358 -0.00401144009083509
vertex 0.113362900912762 -6.1817455291748 0.156182304024696
endloop
endfacet
facet normal -0.999909102916718 -0.0134841073304415 9.14514473975274e-17
outer loop
vertex 0.0840906873345375 -4.01107549667358 0.154011443257332
vertex 0.0592751279473305 -2.17088651657104 0.152171090245247
vertex 0.0840906873345375 -4.01107549667358 -0.00401144009083509
endloop
endfacet
facet normal -0.999909162521362 -0.0134841073304415 1.18256003536737e-16
outer loop
vertex 0.0592751279473305 -2.17088651657104 -0.00217108381912112
vertex 0.0840906873345375 -4.01107549667358 -0.00401144009083509
vertex 0.0592751279473305 -2.17088651657104 0.152171090245247
endloop
endfacet
facet normal -0.999909043312073 -0.0134841063991189 1.18255990301847e-16
outer loop
vertex 0.0592751279473305 -2.17088651657104 -0.00217108381912112
vertex 0.0592751279473305 -2.17088651657104 0.152171090245247
vertex 0.0420125685632229 -0.890787780284882 -0.000890868774149567
endloop
endfacet
facet normal -0.999909043312073 -0.0134841063991189 -2.50390185310537e-17
outer loop
vertex 0.0420125685632229 -0.890787780284882 0.150890871882439
vertex 0.0420125685632229 -0.890787780284882 -0.000890868774149567
vertex 0.0592751279473305 -2.17088651657104 0.152171090245247
endloop
endfacet
facet normal -0.999909102916718 -0.0134841073304415 -2.50390201854149e-17
outer loop
vertex 0.0420125685632229 -0.890787780284882 -0.000890868774149567
vertex 0.0420125685632229 -0.890787780284882 0.150890871882439
vertex 0.0299999993294477 0 0
endloop
endfacet
facet normal -0.999909102916718 -0.013484108261764 -0
outer loop
vertex 0.0299999993294477 0 0.150000005960464
vertex 0.0299999993294477 0 0
vertex 0.0420125685632229 -0.890787780284882 0.150890871882439
endloop
endfacet
facet normal 0.70706969499588 0.0102421399205923 0.70706969499588
outer loop
vertex 0.232279181480408 -14.9997081756592 0.164996594190598
vertex 0.215383127331734 -13.7468070983887 0.163743957877159
vertex 0.10499569028616 -14.999137878418 0.292271822690964
endloop
endfacet
facet normal 0.70706969499588 0.0102421399205923 0.70706969499588
outer loop
vertex 0.0987313538789749 -13.7462711334229 0.280387967824936
vertex 0.10499569028616 -14.999137878418 0.292271822690964
vertex 0.215383127331734 -13.7468070983887 0.163743957877159
endloop
endfacet
facet normal 0.70706969499588 0.0102421399205923 0.70706969499588
outer loop
vertex 0.215383127331734 -13.7468070983887 0.163743957877159
vertex 0.186580747365952 -11.6110095977783 0.16160860657692
vertex 0.0987313538789749 -13.7462711334229 0.280387967824936
endloop
endfacet
facet normal 0.707069635391235 0.0102421389892697 0.707069635391235
outer loop
vertex 0.0880529284477234 -11.6105861663818 0.260130286216736
vertex 0.0987313538789749 -13.7462711334229 0.280387967824936
vertex 0.186580747365952 -11.6110095977783 0.16160860657692
endloop
endfacet
facet normal 0.70706969499588 0.0102421399205923 0.70706969499588
outer loop
vertex 0.186580747365952 -11.6110095977783 0.16160860657692
vertex 0.155264586210251 -9.28880786895752 0.159286886453629
vertex 0.0880529284477234 -11.6105861663818 0.260130286216736
endloop
endfacet
facet normal 0.707069754600525 0.0102421408519149 0.707069754600525
outer loop
vertex 0.0764423459768295 -9.2884693145752 0.238104224205017
vertex 0.0880529284477234 -11.6105861663818 0.260130286216736
vertex 0.155264586210251 -9.28880786895752 0.159286886453629
endloop
endfacet
facet normal 0.707069754600525 0.0102421408519149 0.707069754600525
outer loop
vertex 0.0764423459768295 -9.2884693145752 0.238104224205017
vertex 0.155264586210251 -9.28880786895752 0.159286886453629
vertex 0.0648317560553551 -6.96635150909424 0.216078162193298
endloop
endfacet
facet normal 0.70706969499588 0.0102421399205923 0.70706969499588
outer loop
vertex 0.123948447406292 -6.96660566329956 0.156965166330338
vertex 0.0648317560553551 -6.96635150909424 0.216078162193298
vertex 0.155264586210251 -9.28880786895752 0.159286886453629
endloop
endfacet
facet normal 0.70706969499588 0.0102421399205923 0.70706969499588
outer loop
vertex 0.123948447406292 -6.96660566329956 0.156965166330338
vertex 0.0926322937011719 -4.64440393447876 0.154643446207047
vertex 0.0648317560553551 -6.96635150909424 0.216078162193298
endloop
endfacet
facet normal 0.707069754600525 0.0102421408519149 0.707069754600525
outer loop
vertex 0.0532211735844612 -4.6442346572876 0.194052115082741
vertex 0.0648317560553551 -6.96635150909424 0.216078162193298
vertex 0.0926322937011719 -4.64440393447876 0.154643446207047
endloop
endfacet
facet normal 0.707069754600525 0.0102421408519149 0.707069754600525
outer loop
vertex 0.0532211735844612 -4.6442346572876 0.194052115082741
vertex 0.0926322937011719 -4.64440393447876 0.154643446207047
vertex 0.0416105873882771 -2.3221173286438 0.172026053071022
endloop
endfacet
facet normal 0.707069754600525 0.0102421408519149 0.707069754600525
outer loop
vertex 0.0613161474466324 -2.32220196723938 0.152321726083755
vertex 0.0416105873882771 -2.3221173286438 0.172026053071022
vertex 0.0926322937011719 -4.64440393447876 0.154643446207047
endloop
endfacet
facet normal 0.707069754600525 0.0102421408519149 0.707069754600525
outer loop
vertex 0.0416105873882771 -2.3221173286438 0.172026053071022
vertex 0.0613161474466324 -2.32220196723938 0.152321726083755
vertex 0.0299999993294477 0 0.150000005960464
endloop
endfacet
facet normal 0.707074701786041 0.00953513756394386 -0.707074701786041
outer loop
vertex 0.263575077056885 -17.3206768035889 -0.0149999996647239
vertex 0.243872687220573 -17.3209381103516 -0.0347059369087219
vertex 0.23226161301136 -14.9986362457275 -0.0149999996647239
endloop
endfacet
facet normal 0.707074701786041 0.00953513756394386 -0.707074701786041
outer loop
vertex 0.243872687220573 -17.3209381103516 -0.0347059369087219
vertex 0.263575077056885 -17.3206768035889 -0.0149999996647239
vertex 0.255483746528625 -19.6432399749756 -0.0544118694961071
endloop
endfacet
facet normal 0.707074701786041 0.00953513756394386 -0.707074701786041
outer loop
vertex 0.294888556003571 -19.6427154541016 -0.0149999996647239
vertex 0.255483746528625 -19.6432399749756 -0.0544118694961071
vertex 0.263575077056885 -17.3206768035889 -0.0149999996647239
endloop
endfacet
facet normal 0.707074701786041 0.00953513756394386 -0.707074701786041
outer loop
vertex 0.255483746528625 -19.6432399749756 -0.0544118694961071
vertex 0.294888556003571 -19.6427154541016 -0.0149999996647239
vertex 0.267094820737839 -21.9655418395996 -0.0741178095340729
endloop
endfacet
facet normal 0.707074642181396 0.00953513663262129 -0.707074642181396
outer loop
vertex 0.326202034950256 -21.9647560119629 -0.0149999996647239
vertex 0.267094820737839 -21.9655418395996 -0.0741178095340729
vertex 0.294888556003571 -19.6427154541016 -0.0149999996647239
endloop
endfacet
facet normal 0.707074642181396 0.00953513663262129 -0.707074642181396
outer loop
vertex 0.267094820737839 -21.9655418395996 -0.0741178095340729
vertex 0.326202034950256 -21.9647560119629 -0.0149999996647239
vertex 0.278705894947052 -24.287841796875 -0.0938237383961678
endloop
endfacet
facet normal 0.707074701786041 0.00953513756394386 -0.707074701786041
outer loop
vertex 0.357515513896942 -24.2867946624756 -0.0149999996647239
vertex 0.278705894947052 -24.287841796875 -0.0938237383961678
vertex 0.326202034950256 -21.9647560119629 -0.0149999996647239
endloop
endfacet
facet normal 0.707074642181396 0.00953513663262129 -0.707074642181396
outer loop
vertex 0.388828992843628 -26.6088352203369 -0.0149999996647239
vertex 0.290316998958588 -26.610143661499 -0.113529674708843
vertex 0.357515513896942 -24.2867946624756 -0.0149999996647239
endloop
endfacet
facet normal 0.707074701786041 0.00953513756394386 -0.707074701786041
outer loop
vertex 0.278705894947052 -24.287841796875 -0.0938237383961678
vertex 0.357515513896942 -24.2867946624756 -0.0149999996647239
vertex 0.290316998958588 -26.610143661499 -0.113529674708843
endloop
endfacet
facet normal 0.707074701786041 0.00953513756394386 -0.707074701786041
outer loop
vertex 0.388828992843628 -26.6088352203369 -0.0149999996647239
vertex 0.417628467082977 -28.7444477081299 -0.0149999996647239
vertex 0.290316998958588 -26.610143661499 -0.113529674708843
endloop
endfacet
facet normal 0.707074642181396 0.00953513663262129 -0.707074642181396
outer loop
vertex 0.300996035337448 -28.7460327148438 -0.131653815507889
vertex 0.290316998958588 -26.610143661499 -0.113529674708843
vertex 0.417628467082977 -28.7444477081299 -0.0149999996647239
endloop
endfacet
facet normal 0.707074582576752 0.00953513663262129 -0.707074582576752
outer loop
vertex 0.417628467082977 -28.7444477081299 -0.0149999996647239
vertex 0.434523224830627 -29.9972724914551 -0.0149999996647239
vertex 0.300996035337448 -28.7460327148438 -0.131653815507889
endloop
endfacet
facet normal 0.707074642181396 0.00953513756394386 -0.707074642181396
outer loop
vertex 0.307260572910309 -29.9989891052246 -0.142285779118538
vertex 0.300996035337448 -28.7460327148438 -0.131653815507889
vertex 0.434523224830627 -29.9972724914551 -0.0149999996647239
endloop
endfacet
facet normal 0.205948263406754 0.676484167575836 -0.707074701786041
outer loop
vertex 14.6496305465698 -22.5645618438721 -0.173575088381767
vertex 12.4375734329224 -21.8583965301514 -0.142261609435081
vertex 14.655873298645 -22.5458698272705 -0.153872683644295
endloop
endfacet
facet normal 0.205948263406754 0.676484167575836 -0.707074701786041
outer loop
vertex 16.8616886138916 -23.2707290649414 -0.204888567328453
vertex 14.6496305465698 -22.5645618438721 -0.173575088381767
vertex 16.8741722106934 -23.2333431243896 -0.165483757853508
endloop
endfacet
facet normal 0.205948263406754 0.676484167575836 -0.707074701786041
outer loop
vertex 14.655873298645 -22.5458698272705 -0.153872683644295
vertex 16.8741722106934 -23.2333431243896 -0.165483757853508
vertex 14.6496305465698 -22.5645618438721 -0.173575088381767
endloop
endfacet
facet normal 0.205948263406754 0.676484167575836 -0.707074701786041
outer loop
vertex 16.8616886138916 -23.2707290649414 -0.204888567328453
vertex 16.8741722106934 -23.2333431243896 -0.165483757853508
vertex 19.0737457275391 -23.9768943786621 -0.236202046275139
endloop
endfacet
facet normal 0.205948248505592 0.676484167575836 -0.707074701786041
outer loop
vertex 19.092472076416 -23.9208164215088 -0.177094832062721
vertex 19.0737457275391 -23.9768943786621 -0.236202046275139
vertex 16.8741722106934 -23.2333431243896 -0.165483757853508
endloop
endfacet
facet normal 0.205948263406754 0.676484167575836 -0.707074701786041
outer loop
vertex 21.2858028411865 -24.6830615997314 -0.267515510320663
vertex 19.0737457275391 -23.9768943786621 -0.236202046275139
vertex 21.3107719421387 -24.6082897186279 -0.188705906271935
endloop
endfacet
facet normal 0.205948248505592 0.676484167575836 -0.707074701786041
outer loop
vertex 19.092472076416 -23.9208164215088 -0.177094832062721
vertex 21.3107719421387 -24.6082897186279 -0.188705906271935
vertex 19.0737457275391 -23.9768943786621 -0.236202046275139
endloop
endfacet
facet normal 0.205948263406754 0.676484167575836 -0.707074701786041
outer loop
vertex 21.2858028411865 -24.6830615997314 -0.267515510320663
vertex 21.3107719421387 -24.6082897186279 -0.188705906271935
vertex 23.497859954834 -25.3892269134521 -0.298828989267349
endloop
endfacet
facet normal 0.205948248505592 0.676484167575836 -0.707074642181396
outer loop
vertex 23.5290718078613 -25.2957630157471 -0.200316980481148
vertex 23.497859954834 -25.3892269134521 -0.298828989267349
vertex 21.3107719421387 -24.6082897186279 -0.188705906271935
endloop
endfacet
facet normal 0.205948263406754 0.676484167575836 -0.707074701786041
outer loop
vertex 23.497859954834 -25.3892269134521 -0.298828989267349
vertex 23.5290718078613 -25.2957630157471 -0.200316980481148
vertex 25.5323219299316 -26.0386981964111 -0.327628463506699
endloop
endfacet
facet normal 0.205948233604431 0.676484107971191 -0.707074642181396
outer loop
vertex 25.5693073272705 -25.9280529022217 -0.210996031761169
vertex 25.5323219299316 -26.0386981964111 -0.327628463506699
vertex 23.5290718078613 -25.2957630157471 -0.200316980481148
endloop
endfacet
facet normal 0.205948248505592 0.676484107971191 -0.707074582576752
outer loop
vertex 25.5323219299316 -26.0386981964111 -0.327628463506699
vertex 25.5693073272705 -25.9280529022217 -0.210996031761169
vertex 26.7258052825928 -26.4197006225586 -0.344523221254349
endloop
endfacet
facet normal 0.205948248505592 0.676484107971191 -0.707074642181396
outer loop
vertex 26.766149520874 -26.2989654541016 -0.217260584235191
vertex 26.7258052825928 -26.4197006225586 -0.344523221254349
vertex 25.5693073272705 -25.9280529022217 -0.210996031761169
endloop
endfacet
endsolid COMSOL mesh mesh1
