solid COMSOL mesh mesh1
facet normal -0.026258135214448 0.999655187129974 0
outer loop
vertex -14.9948282241821 -0.393872052431107 -0.025000000372529
vertex -14.9948282241821 -0.393872052431107 0.174999997019768
vertex -13.866192817688 -0.36422598361969 -0.0231182929128408
endloop
endfacet
facet normal -0.026258135214448 0.999655187129974 2.8278115534746e-16
outer loop
vertex -13.866192817688 -0.36422598361969 0.17311829328537
vertex -13.866192817688 -0.36422598361969 -0.0231182929128408
vertex -14.9948282241821 -0.393872052431107 0.174999997019768
endloop
endfacet
facet normal -0.0262581370770931 0.99965512752533 2.8278115534746e-16
outer loop
vertex -13.866192817688 -0.36422598361969 -0.0231182929128408
vertex -13.866192817688 -0.36422598361969 0.17311829328537
vertex -12.3509454727173 -0.324424654245377 -0.0205920077860355
endloop
endfacet
facet normal -0.0262581370770931 0.999655187129974 -1.9769240769147e-16
outer loop
vertex -12.3509454727173 -0.324424654245377 0.17059201002121
vertex -12.3509454727173 -0.324424654245377 -0.0205920077860355
vertex -13.866192817688 -0.36422598361969 0.17311829328537
endloop
endfacet
facet normal -0.0262581333518028 0.99965512752533 -1.9769239445658e-16
outer loop
vertex -12.3509454727173 -0.324424654245377 0.17059201002121
vertex -10.3474340438843 -0.27179804444313 0.16725167632103
vertex -12.3509454727173 -0.324424654245377 -0.0205920077860355
endloop
endfacet
facet normal -0.0262581370770931 0.999655246734619 -2.04850656658937e-16
outer loop
vertex -10.3474340438843 -0.27179804444313 -0.0172516722232103
vertex -12.3509454727173 -0.324424654245377 -0.0205920077860355
vertex -10.3474340438843 -0.27179804444313 0.16725167632103
endloop
endfacet
facet normal -0.026258135214448 0.99965512752533 -2.04850643424047e-16
outer loop
vertex -10.3474340438843 -0.27179804444313 -0.0172516722232103
vertex -10.3474340438843 -0.27179804444313 0.16725167632103
vertex -8.20614528656006 -0.215552404522896 -0.0136816259473562
endloop
endfacet
facet normal -0.026258135214448 0.999655187129974 -4.98873884745262e-17
outer loop
vertex -8.20614528656006 -0.215552404522896 0.163681626319885
vertex -8.20614528656006 -0.215552404522896 -0.0136816259473562
vertex -10.3474340438843 -0.27179804444313 0.16725167632103
endloop
endfacet
facet normal -0.026258135214448 0.999655187129974 -4.98873884745262e-17
outer loop
vertex -8.20614528656006 -0.215552404522896 0.163681626319885
vertex -6.06485652923584 -0.1593067497015 0.160111576318741
vertex -8.20614528656006 -0.215552404522896 -0.0136816259473562
endloop
endfacet
facet normal -0.026258135214448 0.999655187129974 7.05799302286384e-18
outer loop
vertex -6.06485652923584 -0.1593067497015 -0.0101115806028247
vertex -8.20614528656006 -0.215552404522896 -0.0136816259473562
vertex -6.06485652923584 -0.1593067497015 0.160111576318741
endloop
endfacet
facet normal -0.026258135214448 0.999655187129974 7.05799302286384e-18
outer loop
vertex -6.06485652923584 -0.1593067497015 -0.0101115806028247
vertex -6.06485652923584 -0.1593067497015 0.160111576318741
vertex -3.92356753349304 -0.103061109781265 -0.00654153479263186
endloop
endfacet
facet normal -0.026258135214448 0.999655187129974 -5.42557226719738e-17
outer loop
vertex -3.92356753349304 -0.103061109781265 0.156541541218758
vertex -3.92356753349304 -0.103061109781265 -0.00654153479263186
vertex -6.06485652923584 -0.1593067497015 0.160111576318741
endloop
endfacet
facet normal -0.026258135214448 0.99965512752533 -5.42557259806963e-17
outer loop
vertex -3.92356753349304 -0.103061109781265 0.156541541218758
vertex -2.13625907897949 -0.0561135299503803 0.153561666607857
vertex -3.92356753349304 -0.103061109781265 -0.00654153479263186
endloop
endfacet
facet normal -0.026258135214448 0.999655246734619 4.60584686806917e-17
outer loop
vertex -2.13625907897949 -0.0561135299503803 -0.00356165994890034
vertex -3.92356753349304 -0.103061109781265 -0.00654153479263186
vertex -2.13625907897949 -0.0561135299503803 0.153561666607857
endloop
endfacet
facet normal -0.0262581333518028 0.99965512752533 4.60584686806917e-17
outer loop
vertex -2.13625907897949 -0.0561135299503803 -0.00356165994890034
vertex -2.13625907897949 -0.0561135299503803 0.153561666607857
vertex -0.881529629230499 -0.0231553092598915 -0.00146972283255309
endloop
endfacet
facet normal -0.026258135214448 0.999655187129974 -2.53112155465041e-17
outer loop
vertex -0.881529629230499 -0.0231553092598915 0.151469722390175
vertex -0.881529629230499 -0.0231553092598915 -0.00146972283255309
vertex -2.13625907897949 -0.0561135299503803 0.153561666607857
endloop
endfacet
facet normal -0.026258135214448 0.999655187129974 -2.53112155465041e-17
outer loop
vertex -0.881529629230499 -0.0231553092598915 -0.00146972283255309
vertex -0.881529629230499 -0.0231553092598915 0.151469722390175
vertex 0 0 0
endloop
endfacet
facet normal -0.026258135214448 0.999655187129974 0
outer loop
vertex 0 0 0.150000005960464
vertex 0 0 0
vertex -0.881529629230499 -0.0231553092598915 0.151469722390175
endloop
endfacet
facet normal 0.00137593480758369 0.0110861770808697 0.999937653541565
outer loop
vertex -13.3522567749023 -2.00288367271423 0.190578684210777
vertex -13.3308057785034 -1.98098170757294 0.190306350588799
vertex -14.9948282241821 -0.393872052431107 0.174999997019768
endloop
endfacet
facet normal 0.00137593480758369 0.0110861770808697 0.999937653541565
outer loop
vertex -11.7096862792969 -3.6118950843811 0.206157371401787
vertex -11.6667833328247 -3.56809139251709 0.205612689256668
vertex -13.3522567749023 -2.00288367271423 0.190578684210777
endloop
endfacet
facet normal 0.00137593480758369 0.0110861770808697 0.999937653541565
outer loop
vertex -13.3308057785034 -1.98098170757294 0.190306350588799
vertex -13.3522567749023 -2.00288367271423 0.190578684210777
vertex -11.6667833328247 -3.56809139251709 0.205612689256668
endloop
endfacet
facet normal 0.00137593480758369 0.0110861770808697 0.999937653541565
outer loop
vertex -11.7096862792969 -3.6118950843811 0.206157371401787
vertex -10.0671148300171 -5.22090673446655 0.221736058592796
vertex -11.6667833328247 -3.56809139251709 0.205612689256668
endloop
endfacet
facet normal 0.00137593480758369 0.0110861780121922 0.999937653541565
outer loop
vertex -10.002760887146 -5.15520095825195 0.220919042825699
vertex -11.6667833328247 -3.56809139251709 0.205612689256668
vertex -10.0671148300171 -5.22090673446655 0.221736058592796
endloop
endfacet
facet normal 0.00137593480758369 0.0110861770808697 0.999937653541565
outer loop
vertex -8.42454433441162 -6.829918384552 0.237314760684967
vertex -8.33873844146729 -6.74231100082397 0.23622539639473
vertex -10.0671148300171 -5.22090673446655 0.221736058592796
endloop
endfacet
facet normal 0.00137593480758369 0.0110861780121922 0.999937653541565
outer loop
vertex -10.002760887146 -5.15520095825195 0.220919042825699
vertex -10.0671148300171 -5.22090673446655 0.221736058592796
vertex -8.33873844146729 -6.74231100082397 0.23622539639473
endloop
endfacet
facet normal 0.00137593480758369 0.0110861770808697 0.999937653541565
outer loop
vertex -8.42454433441162 -6.829918384552 0.237314760684967
vertex -6.78197288513184 -8.43892955780029 0.252893447875977
vertex -8.33873844146729 -6.74231100082397 0.23622539639473
endloop
endfacet
facet normal 0.00137593469116837 0.0110861770808697 0.99993759393692
outer loop
vertex -6.67471647262573 -8.32942008972168 0.25153174996376
vertex -8.33873844146729 -6.74231100082397 0.23622539639473
vertex -6.78197288513184 -8.43892955780029 0.252893447875977
endloop
endfacet
facet normal 0.00137593469116837 0.0110861770808697 0.999937653541565
outer loop
vertex -6.78197288513184 -8.43892955780029 0.252893447875977
vertex -5.24101209640503 -9.94840717315674 0.267508417367935
vertex -6.67471647262573 -8.32942008972168 0.25153174996376
endloop
endfacet
facet normal 0.00137593469116837 0.0110861770808697 0.99993759393692
outer loop
vertex -5.11360454559326 -9.8183765411377 0.265891462564468
vertex -6.67471647262573 -8.32942008972168 0.25153174996376
vertex -5.24101209640503 -9.94840717315674 0.267508417367935
endloop
endfacet
facet normal 0.00137593480758369 0.0110861770808697 0.99993759393692
outer loop
vertex -5.24101209640503 -9.94840717315674 0.267508417367935
vertex -4.27957248687744 -10.8902034759521 0.276627033948898
vertex -5.11360454559326 -9.8183765411377 0.265891462564468
endloop
endfacet
facet normal 0.00137593469116837 0.0110861761495471 0.999937534332275
outer loop
vertex -4.1396164894104 -10.7473459243774 0.274850606918335
vertex -5.11360454559326 -9.8183765411377 0.265891462564468
vertex -4.27957248687744 -10.8902034759521 0.276627033948898
endloop
endfacet
facet normal -0.707143604755402 0.00949575379490852 0.707006216049194
outer loop
vertex -10.6065549850464 -0.278604447841644 -10.6048746109009
vertex -9.65487194061279 -0.253606408834457 -9.65334224700928
vertex -10.6059532165527 -0.0786162093281746 -10.6069583892822
endloop
endfacet
facet normal -0.707143604755402 0.00949575193226337 0.707006216049194
outer loop
vertex -9.65431499481201 -0.0715622305870056 -9.65523052215576
vertex -10.6059532165527 -0.0786162093281746 -10.6069583892822
vertex -9.65487194061279 -0.253606408834457 -9.65334224700928
endloop
endfacet
facet normal -0.707143604755402 0.00949575286358595 0.707006216049194
outer loop
vertex -9.65487194061279 -0.253606408834457 -9.65334224700928
vertex -8.12951850891113 -0.213539645075798 -8.12823009490967
vertex -9.65431499481201 -0.0715622305870056 -9.65523052215576
endloop
endfacet
facet normal -0.707143545150757 0.00949575286358595 0.707006216049194
outer loop
vertex -8.12907218933105 -0.0602564178407192 -8.12984180450439
vertex -9.65431499481201 -0.0715622305870056 -9.65523052215576
vertex -8.12951850891113 -0.213539645075798 -8.12823009490967
endloop
endfacet
facet normal -0.707143604755402 0.00949575286358595 0.707006216049194
outer loop
vertex -8.12951850891113 -0.213539645075798 -8.12823009490967
vertex -6.50361490249634 -0.170831710100174 -6.50258445739746
vertex -8.12907218933105 -0.0602564178407192 -8.12984180450439
endloop
endfacet
facet normal -0.707143604755402 0.00949575286358595 0.707006216049194
outer loop
vertex -6.50325727462769 -0.0482051335275173 -6.50387382507324
vertex -8.12907218933105 -0.0602564178407192 -8.12984180450439
vertex -6.50361490249634 -0.170831710100174 -6.50258445739746
endloop
endfacet
facet normal -0.707143604755402 0.00949575286358595 0.707006216049194
outer loop
vertex -6.50325727462769 -0.0482051335275173 -6.50387382507324
vertex -6.50361490249634 -0.170831710100174 -6.50258445739746
vertex -4.87744283676147 -0.0361538529396057 -4.87790536880493
endloop
endfacet
facet normal -0.707143604755402 0.00949575379490852 0.707006216049194
outer loop
vertex -4.87771129608154 -0.128123790025711 -4.8769383430481
vertex -4.87744283676147 -0.0361538529396057 -4.87790536880493
vertex -6.50361490249634 -0.170831710100174 -6.50258445739746
endloop
endfacet
facet normal -0.707143604755402 0.00949575379490852 0.707006216049194
outer loop
vertex -4.87771129608154 -0.128123790025711 -4.8769383430481
vertex -3.25180745124817 -0.085415855050087 -3.25129222869873
vertex -4.87744283676147 -0.0361538529396057 -4.87790536880493
endloop
endfacet
facet normal -0.707143604755402 0.00949575286358595 0.707006216049194
outer loop
vertex -3.25162863731384 -0.0241025667637587 -3.25193691253662
vertex -4.87744283676147 -0.0361538529396057 -4.87790536880493
vertex -3.25180745124817 -0.085415855050087 -3.25129222869873
endloop
endfacet
facet normal -0.707143604755402 0.00949575286358595 0.707006216049194
outer loop
vertex -3.25162863731384 -0.0241025667637587 -3.25193691253662
vertex -3.25180745124817 -0.085415855050087 -3.25129222869873
vertex -1.62581431865692 -0.0120512833818793 -1.62596845626831
endloop
endfacet
facet normal -0.707143604755402 0.00949575286358595 0.707006216049194
outer loop
vertex -1.62590372562408 -0.0427079275250435 -1.62564611434937
vertex -1.62581431865692 -0.0120512833818793 -1.62596845626831
vertex -3.25180745124817 -0.085415855050087 -3.25129222869873
endloop
endfacet
facet normal -0.707143604755402 0.00949575286358595 0.707006216049194
outer loop
vertex -1.62581431865692 -0.0120512833818793 -1.62596845626831
vertex -1.62590372562408 -0.0427079275250435 -1.62564611434937
vertex 0 0 0
endloop
endfacet
facet normal 0.707028865814209 0.0132651524618268 -0.707060217857361
outer loop
vertex -0.142608910799026 -0.00105708290357143 -0.142622426152229
vertex 0 0 0
vertex -0.142057076096535 -0.033338125795126 -0.1426762342453
endloop
endfacet
facet normal 0.707028865814209 0.0132651515305042 -0.707060158252716
outer loop
vertex 0.000512771192006767 -0.0299955755472183 -4.99983216286637e-05
vertex -0.142057076096535 -0.033338125795126 -0.1426762342453
vertex 0 0 0
endloop
endfacet
facet normal 0.707028925418854 0.0132651533931494 -0.707060217857361
outer loop
vertex -0.142608910799026 -0.00105708290357143 -0.142622426152229
vertex -0.142057076096535 -0.033338125795126 -0.1426762342453
vertex -0.381521940231323 -0.00282801617868245 -0.38155809044838
endloop
endfacet
facet normal 0.707028925418854 0.0132651524618268 -0.707060277462006
outer loop
vertex -0.380904644727707 -0.0389379039406776 -0.381618291139603
vertex -0.381521940231323 -0.00282801617868245 -0.38155809044838
vertex -0.142057076096535 -0.033338125795126 -0.1426762342453
endloop
endfacet
facet normal 0.707028865814209 0.0132651524618268 -0.707060217857361
outer loop
vertex -0.781773447990417 -0.00579486461356282 -0.781847536563873
vertex -0.381521940231323 -0.00282801617868245 -0.38155809044838
vertex -0.781046509742737 -0.0483192279934883 -0.781918466091156
endloop
endfacet
facet normal 0.707028925418854 0.0132651524618268 -0.707060217857361
outer loop
vertex -0.380904644727707 -0.0389379039406776 -0.381618291139603
vertex -0.781046509742737 -0.0483192279934883 -0.781918466091156
vertex -0.381521940231323 -0.00282801617868245 -0.38155809044838
endloop
endfacet
facet normal 0.707028925418854 0.0132651524618268 -0.707060217857361
outer loop
vertex -0.781773447990417 -0.00579486461356282 -0.781847536563873
vertex -0.781046509742737 -0.0483192279934883 -0.781918466091156
vertex -1.45231568813324 -0.0107652321457863 -1.45245337486267
endloop
endfacet
facet normal 0.707028925418854 0.0132651524618268 -0.707060158252716
outer loop
vertex -1.45140504837036 -0.0640357807278633 -1.45254218578339
vertex -1.45231568813324 -0.0107652321457863 -1.45245337486267
vertex -0.781046509742737 -0.0483192279934883 -0.781918466091156
endloop
endfacet
facet normal 0.707028925418854 0.0132651524618268 -0.707060277462006
outer loop
vertex -2.57567667961121 -0.0190920997411013 -2.57592082023621
vertex -1.45231568813324 -0.0107652321457863 -1.45245337486267
vertex -2.574458360672 -0.0903657600283623 -2.5760395526886
endloop
endfacet
facet normal 0.707028865814209 0.0132651515305042 -0.707060158252716
outer loop
vertex -1.45140504837036 -0.0640357807278633 -1.45254218578339
vertex -2.574458360672 -0.0903657600283623 -2.5760395526886
vertex -1.45231568813324 -0.0107652321457863 -1.45245337486267
endloop
endfacet
facet normal 0.707028865814209 0.0132651524618268 -0.707060217857361
outer loop
vertex -2.57567667961121 -0.0190920997411013 -2.57592082023621
vertex -2.574458360672 -0.0903657600283623 -2.5760395526886
vertex -4.11752653121948 -0.0305209998041391 -4.11791658401489
endloop
endfacet
facet normal 0.707028865814209 0.0132651515305042 -0.707060217857361
outer loop
vertex -4.11588573455811 -0.126504510641098 -4.11807680130005
vertex -4.11752653121948 -0.0305209998041391 -4.11791658401489
vertex -2.574458360672 -0.0903657600283623 -2.5760395526886
endloop
endfacet
facet normal 0.707028865814209 0.0132651524618268 -0.707060217857361
outer loop
vertex -4.11752653121948 -0.0305209998041391 -4.11791658401489
vertex -4.11588573455811 -0.126504510641098 -4.11807680130005
vertex -5.66655158996582 -0.0420030876994133 -5.66708850860596
endloop
endfacet
facet normal 0.707028925418854 0.0132651533931494 -0.707060217857361
outer loop
vertex -5.66448640823364 -0.162811458110809 -5.66729021072388
vertex -5.66655158996582 -0.0420030876994133 -5.66708850860596
vertex -4.11588573455811 -0.126504510641098 -4.11807680130005
endloop
endfacet
facet normal 0.707028925418854 0.0132651533931494 -0.707060217857361
outer loop
vertex -5.66655158996582 -0.0420030876994133 -5.66708850860596
vertex -5.66448640823364 -0.162811458110809 -5.66729021072388
vertex -7.21557712554932 -0.0534851774573326 -7.21626091003418
endloop
endfacet
facet normal 0.707028925418854 0.0132651533931494 -0.707060277462006
outer loop
vertex -7.21308755874634 -0.199118390679359 -7.21650362014771
vertex -7.21557712554932 -0.0534851774573326 -7.21626091003418
vertex -5.66448640823364 -0.162811458110809 -5.66729021072388
endloop
endfacet
facet normal 0.707028925418854 0.0132651515305042 -0.707060217857361
outer loop
vertex -8.68396377563477 -0.0643695294857025 -8.68478679656982
vertex -7.21557712554932 -0.0534851774573326 -7.21626091003418
vertex -8.68107128143311 -0.233535274863243 -8.68506813049316
endloop
endfacet
facet normal 0.707028925418854 0.0132651524618268 -0.707060217857361
outer loop
vertex -7.21308755874634 -0.199118390679359 -7.21650362014771
vertex -8.68107128143311 -0.233535274863243 -8.68506813049316
vertex -7.21557712554932 -0.0534851774573326 -7.21626091003418
endloop
endfacet
facet normal 0.707028925418854 0.0132651533931494 -0.707060277462006
outer loop
vertex -9.79195117950439 -0.072582446038723 -9.79287910461426
vertex -8.68396377563477 -0.0643695294857025 -8.68478679656982
vertex -9.78875637054443 -0.259504944086075 -9.79319095611572
endloop
endfacet
facet normal 0.707028865814209 0.0132651524618268 -0.707060217857361
outer loop
vertex -8.68107128143311 -0.233535274863243 -8.68506813049316
vertex -9.78875637054443 -0.259504944086075 -9.79319095611572
vertex -8.68396377563477 -0.0643695294857025 -8.68478679656982
endloop
endfacet
facet normal 0.707028865814209 0.0132651515305042 -0.707060217857361
outer loop
vertex -9.79195117950439 -0.072582446038723 -9.79287910461426
vertex -9.78875637054443 -0.259504944086075 -9.79319095611572
vertex -10.6061239242554 -0.0786174684762955 -10.6071290969849
endloop
endfacet
facet normal 0.707028925418854 0.0132651515305042 -0.707060217857361
outer loop
vertex -10.6027050018311 -0.278587967157364 -10.6074619293213
vertex -10.6061239242554 -0.0786174684762955 -10.6071290969849
vertex -9.78875637054443 -0.259504944086075 -9.79319095611572
endloop
endfacet
facet normal -0.312643021345139 -0.949870705604553 -4.30038542617714e-15
outer loop
vertex -1.69698762893677 -17.5116004943848 0.0588570982217789
vertex -1.69698762893677 -17.5116004943848 0.091142900288105
vertex -1.88856565952301 -17.448543548584 0.0599999986588955
endloop
endfacet
facet normal -0.312643021345139 -0.949870645999908 -0
outer loop
vertex -1.88856565952301 -17.448543548584 0.0900000035762787
vertex -1.88856565952301 -17.448543548584 0.0599999986588955
vertex -1.69698762893677 -17.5116004943848 0.091142900288105
endloop
endfacet
facet normal -0.312642991542816 -0.949870645999908 -4.30038500266066e-15
outer loop
vertex -1.69698762893677 -17.5116004943848 0.0588570982217789
vertex -1.37603652477264 -17.6172389984131 0.0569423921406269
vertex -1.69698762893677 -17.5116004943848 0.091142900288105
endloop
endfacet
facet normal -0.312643021345139 -0.949870705604553 8.57515555958976e-14
outer loop
vertex -1.37603652477264 -17.6172389984131 0.0930576100945473
vertex -1.69698762893677 -17.5116004943848 0.091142900288105
vertex -1.37603652477264 -17.6172389984131 0.0569423921406269
endloop
endfacet
facet normal -0.312643021345139 -0.949870705604553 1.63225154760035e-15
outer loop
vertex -0.838346362113953 -17.7942161560059 0.0537346825003624
vertex -0.838346362113953 -17.7942161560059 0.0962653160095215
vertex -1.37603652477264 -17.6172389984131 0.0569423921406269
endloop
endfacet
facet normal -0.312642991542816 -0.949870645999908 8.57515488196341e-14
outer loop
vertex -1.37603652477264 -17.6172389984131 0.0930576100945473
vertex -1.37603652477264 -17.6172389984131 0.0569423921406269
vertex -0.838346362113953 -17.7942161560059 0.0962653160095215
endloop
endfacet
facet normal -0.312642991542816 -0.949870705604553 1.63225133584211e-15
outer loop
vertex -0.838346362113953 -17.7942161560059 0.0537346825003624
vertex 0.0624470934271812 -18.090705871582 0.0483607947826385
vertex -0.838346362113953 -17.7942161560059 0.0962653160095215
endloop
endfacet
facet normal -0.312643021345139 -0.949870645999908 -5.95932605020923e-14
outer loop
vertex 0.0624470934271812 -18.090705871582 0.101639203727245
vertex -0.838346362113953 -17.7942161560059 0.0962653160095215
vertex 0.0624470934271812 -18.090705871582 0.0483607947826385
endloop
endfacet
facet normal -0.312643021345139 -0.949870705604553 -1.0712443471617e-14
outer loop
vertex 1.57154834270477 -18.5874156951904 0.039357915520668
vertex 1.57154834270477 -18.5874156951904 0.110642082989216
vertex 0.0624470934271812 -18.090705871582 0.0483607947826385
endloop
endfacet
facet normal -0.312643021345139 -0.949870705604553 -5.95932537258287e-14
outer loop
vertex 0.0624470934271812 -18.090705871582 0.101639203727245
vertex 0.0624470934271812 -18.090705871582 0.0483607947826385
vertex 1.57154834270477 -18.5874156951904 0.110642082989216
endloop
endfacet
facet normal -0.312643021345139 -0.949870705604553 -1.0712443471617e-14
outer loop
vertex 1.57154834270477 -18.5874156951904 0.039357915520668
vertex 3.64283919334412 -19.2691650390625 0.0270011629909277
vertex 1.57154834270477 -18.5874156951904 0.110642082989216
endloop
endfacet
facet normal -0.312643021345139 -0.949870705604553 -2.89259909190683e-15
outer loop
vertex 3.64283919334412 -19.2691650390625 0.122998833656311
vertex 1.57154834270477 -18.5874156951904 0.110642082989216
vertex 3.64283919334412 -19.2691650390625 0.0270011629909277
endloop
endfacet
facet normal -0.312643021345139 -0.949870705604553 -2.89259909190683e-15
outer loop
vertex 3.64283919334412 -19.2691650390625 0.0270011629909277
vertex 5.7237696647644 -19.9540882110596 0.0145869059488177
vertex 3.64283919334412 -19.2691650390625 0.122998833656311
endloop
endfacet
facet normal -0.312642991542816 -0.949870645999908 2.79295273838747e-14
outer loop
vertex 5.7237696647644 -19.9540882110596 0.135413095355034
vertex 3.64283919334412 -19.2691650390625 0.122998833656311
vertex 5.7237696647644 -19.9540882110596 0.0145869059488177
endloop
endfacet
facet normal -0.312643051147461 -0.949870705604553 -2.31686211557038e-14
outer loop
vertex 7.80470037460327 -20.6390113830566 0.147827357053757
vertex 5.7237696647644 -19.9540882110596 0.135413095355034
vertex 7.80470037460327 -20.6390113830566 0.00217264867387712
endloop
endfacet
facet normal -0.312642991542816 -0.949870645999908 2.79295273838747e-14
outer loop
vertex 5.7237696647644 -19.9540882110596 0.0145869059488177
vertex 7.80470037460327 -20.6390113830566 0.00217264867387712
vertex 5.7237696647644 -19.9540882110596 0.135413095355034
endloop
endfacet
facet normal -0.312643021345139 -0.949870705604553 -2.31686228497697e-14
outer loop
vertex 7.80470037460327 -20.6390113830566 0.147827357053757
vertex 7.80470037460327 -20.6390113830566 0.00217264867387712
vertex 9.77730178833008 -21.2882785797119 0.159595355391502
endloop
endfacet
facet normal -0.312643021345139 -0.949870645999908 1.99456506270058e-14
outer loop
vertex 9.77730178833008 -21.2882785797119 -0.0095953494310379
vertex 9.77730178833008 -21.2882785797119 0.159595355391502
vertex 7.80470037460327 -20.6390113830566 0.00217264867387712
endloop
endfacet
facet normal -0.312643051147461 -0.949870765209198 -1.50802476381979e-14
outer loop
vertex 11.2657518386841 -21.778190612793 -0.0184750277549028
vertex 11.2657518386841 -21.778190612793 0.168475031852722
vertex 9.77730178833008 -21.2882785797119 -0.0095953494310379
endloop
endfacet
facet normal -0.312642991542816 -0.949870645999908 1.99456506270058e-14
outer loop
vertex 9.77730178833008 -21.2882785797119 0.159595355391502
vertex 9.77730178833008 -21.2882785797119 -0.0095953494310379
vertex 11.2657518386841 -21.778190612793 0.168475031852722
endloop
endfacet
facet normal -0.312643021345139 -0.949870645999908 -1.5080245944132e-14
outer loop
vertex 11.2657518386841 -21.778190612793 -0.0184750277549028
vertex 12.3594951629639 -22.1381893157959 -0.025000000372529
vertex 11.2657518386841 -21.778190612793 0.168475031852722
endloop
endfacet
facet normal -0.312643051147461 -0.949870765209198 -0
outer loop
vertex 12.3594951629639 -22.1381893157959 0.174999997019768
vertex 11.2657518386841 -21.778190612793 0.168475031852722
vertex 12.3594951629639 -22.1381893157959 -0.025000000372529
endloop
endfacet
facet normal 0.014387815259397 -0.00455936696380377 0.999886095523834
outer loop
vertex 12.4618806838989 -21.8124923706055 -0.166394203901291
vertex 11.3851585388184 -21.4732627868652 -0.14935390651226
vertex 12.401463508606 -22.0031490325928 -0.166394203901291
endloop
endfacet
facet normal 0.0143878143280745 -0.00455936696380377 0.999886095523834
outer loop
vertex 11.3258781433105 -21.6603317260742 -0.14935390651226
vertex 12.401463508606 -22.0031490325928 -0.166394203901291
vertex 11.3851585388184 -21.4732627868652 -0.14935390651226
endloop
endfacet
facet normal 0.0143878161907196 -0.00455936696380377 0.999886095523834
outer loop
vertex 11.3258781433105 -21.6603317260742 -0.14935390651226
vertex 11.3851585388184 -21.4732627868652 -0.14935390651226
vertex 9.88185119628906 -21.2000827789307 -0.126476466655731
endloop
endfacet
facet normal 0.0143878133967519 -0.00455936696380377 0.999886035919189
outer loop
vertex 9.93960475921631 -21.0178298950195 -0.126476466655731
vertex 9.88185119628906 -21.2000827789307 -0.126476466655731
vertex 11.3851585388184 -21.4732627868652 -0.14935390651226
endloop
endfacet
facet normal 0.0143878161907196 -0.00455936742946506 0.999886155128479
outer loop
vertex 9.88185119628906 -21.2000827789307 -0.126476466655731
vertex 9.93960475921631 -21.0178298950195 -0.126476466655731
vertex 7.97251033782959 -20.5915260314941 -0.0962271392345428
endloop
endfacet
facet normal 0.0143878161907196 -0.00455936742946506 0.999886095523834
outer loop
vertex 8.02824592590332 -20.415641784668 -0.0962271392345428
vertex 7.97251033782959 -20.5915260314941 -0.0962271392345428
vertex 9.93960475921631 -21.0178298950195 -0.126476466655731
endloop
endfacet
facet normal 0.014387815259397 -0.00455936696380377 0.999886035919189
outer loop
vertex 8.02824592590332 -20.415641784668 -0.0962271392345428
vertex 5.98544692993164 -19.7720432281494 -0.0638976395130157
vertex 7.97251033782959 -20.5915260314941 -0.0962271392345428
endloop
endfacet
facet normal 0.0143878143280745 -0.00455936696380377 0.999886035919189
outer loop
vertex 5.93186807632446 -19.9411201477051 -0.0638976395130157
vertex 7.97251033782959 -20.5915260314941 -0.0962271392345428
vertex 5.98544692993164 -19.7720432281494 -0.0638976395130157
endloop
endfacet
facet normal 0.0143878143280745 -0.00455936696380377 0.999886035919189
outer loop
vertex 5.98544692993164 -19.7720432281494 -0.0638976395130157
vertex 3.94264769554138 -19.1284427642822 -0.0315681286156178
vertex 5.93186807632446 -19.9411201477051 -0.0638976395130157
endloop
endfacet
facet normal 0.0143878161907196 -0.00455936742946506 0.999886155128479
outer loop
vertex 3.89122557640076 -19.290714263916 -0.0315681286156178
vertex 5.93186807632446 -19.9411201477051 -0.0638976395130157
vertex 3.94264769554138 -19.1284427642822 -0.0315681286156178
endloop
endfacet
facet normal 0.0143878161907196 -0.00455936742946506 0.999886155128479
outer loop
vertex 3.94264769554138 -19.1284427642822 -0.0315681286156178
vertex 1.89984846115112 -18.4848442077637 0.000761375587899238
vertex 3.89122557640076 -19.290714263916 -0.0315681286156178
endloop
endfacet
facet normal 0.0143878143280745 -0.00455936696380377 0.999886095523834
outer loop
vertex 1.85058343410492 -18.640308380127 0.000761375587899238
vertex 3.89122557640076 -19.290714263916 -0.0315681286156178
vertex 1.89984846115112 -18.4848442077637 0.000761375587899238
endloop
endfacet
facet normal 0.0143878161907196 -0.00455936696380377 0.999886155128479
outer loop
vertex 1.85058343410492 -18.640308380127 0.000761375587899238
vertex 1.89984846115112 -18.4848442077637 0.000761375587899238
vertex 0.147283390164375 -18.0974216461182 0.0277464333921671
endloop
endfacet
facet normal 0.0143878161907196 -0.00455936696380377 0.999886035919189
outer loop
vertex 0.194748133420944 -17.947639465332 0.0277464333921671
vertex 0.147283390164375 -18.0974216461182 0.0277464333921671
vertex 1.89984846115112 -18.4848442077637 0.000761375587899238
endloop
endfacet
facet normal 0.0143878161907196 -0.00455936696380377 0.999886155128479
outer loop
vertex 0.194748133420944 -17.947639465332 0.0277464333921671
vertex -1.00226950645447 -17.5705089569092 0.0466905310750008
vertex 0.147283390164375 -18.0974216461182 0.0277464333921671
endloop
endfacet
facet normal 0.014387815259397 -0.00455936742946506 0.999886095523834
outer loop
vertex -1.04847037792206 -17.7163047790527 0.0466905310750008
vertex 0.147283390164375 -18.0974216461182 0.0277464333921671
vertex -1.00226950645447 -17.5705089569092 0.0466905310750008
endloop
endfacet
facet normal 0.014387815259397 -0.00455936696380377 0.999886095523834
outer loop
vertex -1.00226950645447 -17.5705089569092 0.0466905310750008
vertex -1.84325277805328 -17.3055515289307 0.0599999986588955
vertex -1.04847037792206 -17.7163047790527 0.0466905310750008
endloop
endfacet
facet normal 0.0143878161907196 -0.00455936742946506 0.999886095523834
outer loop
vertex -1.88856565952301 -17.448543548584 0.0599999986588955
vertex -1.04847037792206 -17.7163047790527 0.0466905310750008
vertex -1.84325277805328 -17.3055515289307 0.0599999986588955
endloop
endfacet
facet normal -0.224889561533928 -0.670443832874298 -0.707057118415833
outer loop
vertex 12.4027166366577 -22.0035400390625 -0.166418790817261
vertex 12.3592662811279 -22.1381130218506 -0.0249934047460556
vertex 11.1204261779785 -21.594841003418 -0.146103292703629
endloop
endfacet
facet normal -0.224889546632767 -0.670443832874298 -0.707057118415833
outer loop
vertex 11.0808620452881 -21.7173366546631 -0.0173672698438168
vertex 11.1204261779785 -21.594841003418 -0.146103292703629
vertex 12.3592662811279 -22.1381130218506 -0.0249934047460556
endloop
endfacet
facet normal -0.224889561533928 -0.670443773269653 -0.707057118415833
outer loop
vertex 11.1204261779785 -21.594841003418 -0.146103292703629
vertex 11.0808620452881 -21.7173366546631 -0.0173672698438168
vertex 9.06516456604004 -20.9397773742676 -0.113541498780251
endloop
endfacet
facet normal -0.224889561533928 -0.670443832874298 -0.707057118415833
outer loop
vertex 9.03188133239746 -21.0429286956787 -0.00514436466619372
vertex 9.06516456604004 -20.9397773742676 -0.113541498780251
vertex 11.0808620452881 -21.7173366546631 -0.0173672698438168
endloop
endfacet
facet normal -0.224889546632767 -0.670443773269653 -0.707057118415833
outer loop
vertex 9.06516456604004 -20.9397773742676 -0.113541498780251
vertex 9.03188133239746 -21.0429286956787 -0.00514436466619372
vertex 6.87441873550415 -20.2415294647217 -0.0788332000374794
endloop
endfacet
facet normal -0.224889546632767 -0.670443832874298 -0.707057118415833
outer loop
vertex 6.84779167175293 -20.3240528106689 0.00788450799882412
vertex 6.87441873550415 -20.2415294647217 -0.0788332000374794
vertex 9.03188133239746 -21.0429286956787 -0.00514436466619372
endloop
endfacet
facet normal -0.224889546632767 -0.670443832874298 -0.707057118415833
outer loop
vertex 6.84779167175293 -20.3240528106689 0.00788450799882412
vertex 4.66370248794556 -19.6051750183105 0.0209133811295033
vertex 6.87441873550415 -20.2415294647217 -0.0788332000374794
endloop
endfacet
facet normal -0.224889546632767 -0.670443832874298 -0.707057118415833
outer loop
vertex 4.68367290496826 -19.5432834625244 -0.044124897569418
vertex 6.87441873550415 -20.2415294647217 -0.0788332000374794
vertex 4.66370248794556 -19.6051750183105 0.0209133811295033
endloop
endfacet
facet normal -0.224889546632767 -0.670443832874298 -0.707057118415833
outer loop
vertex 4.68367290496826 -19.5432834625244 -0.044124897569418
vertex 4.66370248794556 -19.6051750183105 0.0209133811295033
vertex 2.49292659759521 -18.8450374603271 -0.0094165988266468
endloop
endfacet
facet normal -0.224889546632767 -0.670443832874298 -0.707057118415833
outer loop
vertex 2.4796130657196 -18.8862972259521 0.0339422523975372
vertex 2.49292659759521 -18.8450374603271 -0.0094165988266468
vertex 4.66370248794556 -19.6051750183105 0.0209133811295033
endloop
endfacet
facet normal -0.224889546632767 -0.670443832874298 -0.707057118415833
outer loop
vertex 2.4796130657196 -18.8862972259521 0.0339422523975372
vertex 0.295523703098297 -18.1674213409424 0.0469711273908615
vertex 2.49292659759521 -18.8450374603271 -0.0094165988266468
endloop
endfacet
facet normal -0.224889546632767 -0.670443832874298 -0.707057118415833
outer loop
vertex 0.302180469036102 -18.1467895507813 0.0252916999161243
vertex 2.49292659759521 -18.8450374603271 -0.0094165988266468
vertex 0.295523703098297 -18.1674213409424 0.0469711273908615
endloop
endfacet
facet normal -0.224889546632767 -0.670443832874298 -0.707057118415833
outer loop
vertex 0.295523703098297 -18.1674213409424 0.0469711273908615
vertex -1.88856565952301 -17.448543548584 0.0599999986588955
vertex 0.302180469036102 -18.1467895507813 0.0252916999161243
endloop
endfacet
facet normal -0.952952027320862 0.301981776952744 0.026258135214448
outer loop
vertex -1.46022999286652 -17.4007034301758 15.08482837677
vertex -1.48905944824219 -17.3935413360596 13.9561929702759
vertex -1.52064716815948 -17.5913581848145 15.08482837677
endloop
endfacet
facet normal -0.952951967716217 0.301981776952744 0.026258135214448
outer loop
vertex -1.54833972454071 -17.5806102752686 13.9561929702759
vertex -1.52064716815948 -17.5913581848145 15.08482837677
vertex -1.48905944824219 -17.3935413360596 13.9561929702759
endloop
endfacet
facet normal -0.952951967716217 0.301981776952744 0.0262581370770931
outer loop
vertex -1.54833972454071 -17.5806102752686 13.9561929702759
vertex -1.48905944824219 -17.3935413360596 13.9561929702759
vertex -1.58551847934723 -17.5661773681641 12.4409446716309
endloop
endfacet
facet normal -0.952952027320862 0.301981776952744 0.0262581370770931
outer loop
vertex -1.52776443958282 -17.3839263916016 12.4409446716309
vertex -1.58551847934723 -17.5661773681641 12.4409446716309
vertex -1.48905944824219 -17.3935413360596 13.9561929702759
endloop
endfacet
facet normal -0.952951908111572 0.301981747150421 0.0262581333518028
outer loop
vertex -1.58551847934723 -17.5661773681641 12.4409446716309
vertex -1.52776443958282 -17.3839263916016 12.4409446716309
vertex -1.63467729091644 -17.5470962524414 10.4374341964722
endloop
endfacet
facet normal -0.952952027320862 0.301981776952744 0.0262581370770931
outer loop
vertex -1.57894146442413 -17.3712120056152 10.4374341964722
vertex -1.63467729091644 -17.5470962524414 10.4374341964722
vertex -1.52776443958282 -17.3839263916016 12.4409446716309
endloop
endfacet
facet normal -0.952951967716217 0.301981776952744 0.026258135214448
outer loop
vertex -1.57894146442413 -17.3712120056152 10.4374341964722
vertex -1.63363778591156 -17.3576240539551 8.29614543914795
vertex -1.63467729091644 -17.5470962524414 10.4374341964722
endloop
endfacet
facet normal -0.952952027320862 0.301981776952744 0.0262581370770931
outer loop
vertex -1.68721675872803 -17.5267009735107 8.29614543914795
vertex -1.63467729091644 -17.5470962524414 10.4374341964722
vertex -1.63363778591156 -17.3576240539551 8.29614543914795
endloop
endfacet
facet normal -0.952952027320862 0.301981776952744 0.0262581370770931
outer loop
vertex -1.63363778591156 -17.3576240539551 8.29614543914795
vertex -1.68833410739899 -17.3440361022949 6.15485620498657
vertex -1.68721675872803 -17.5267009735107 8.29614543914795
endloop
endfacet
facet normal -0.952951967716217 0.301981747150421 0.026258135214448
outer loop
vertex -1.73975610733032 -17.5063076019287 6.15485620498657
vertex -1.68721675872803 -17.5267009735107 8.29614543914795
vertex -1.68833410739899 -17.3440361022949 6.15485620498657
endloop
endfacet
facet normal -0.952951967716217 0.301981747150421 0.026258135214448
outer loop
vertex -1.68833410739899 -17.3440361022949 6.15485620498657
vertex -1.74303042888641 -17.3304481506348 4.01356744766235
vertex -1.73975610733032 -17.5063076019287 6.15485620498657
endloop
endfacet
facet normal -0.952951967716217 0.301981776952744 0.026258135214448
outer loop
vertex -1.79229557514191 -17.485912322998 4.01356744766235
vertex -1.73975610733032 -17.5063076019287 6.15485620498657
vertex -1.74303042888641 -17.3304481506348 4.01356744766235
endloop
endfacet
facet normal -0.952951967716217 0.301981776952744 0.026258135214448
outer loop
vertex -1.79229557514191 -17.485912322998 4.01356744766235
vertex -1.74303042888641 -17.3304481506348 4.01356744766235
vertex -1.83614957332611 -17.4688892364502 2.2262589931488
endloop
endfacet
facet normal -0.952952027320862 0.301981776952744 0.026258135214448
outer loop
vertex -1.7886848449707 -17.3191070556641 2.2262589931488
vertex -1.83614957332611 -17.4688892364502 2.2262589931488
vertex -1.74303042888641 -17.3304481506348 4.01356744766235
endloop
endfacet
facet normal -0.952951967716217 0.301981747150421 0.0262581333518028
outer loop
vertex -1.7886848449707 -17.3191070556641 2.2262589931488
vertex -1.82073521614075 -17.3111457824707 0.971529603004456
vertex -1.83614957332611 -17.4688892364502 2.2262589931488
endloop
endfacet
facet normal -0.952951967716217 0.301981776952744 0.026258135214448
outer loop
vertex -1.86693608760834 -17.4569396972656 0.971529603004456
vertex -1.83614957332611 -17.4688892364502 2.2262589931488
vertex -1.82073521614075 -17.3111457824707 0.971529603004456
endloop
endfacet
facet normal -0.952952027320862 0.301981776952744 0.0262581370770931
outer loop
vertex -1.82073521614075 -17.3111457824707 0.971529603004456
vertex -1.84325277805328 -17.3055515289307 0.0900000035762787
vertex -1.86693608760834 -17.4569396972656 0.971529603004456
endloop
endfacet
facet normal -0.952952027320862 0.301981776952744 0.026258135214448
outer loop
vertex -1.88856565952301 -17.448543548584 0.0900000035762787
vertex -1.86693608760834 -17.4569396972656 0.971529603004456
vertex -1.84325277805328 -17.3055515289307 0.0900000035762787
endloop
endfacet
facet normal 0.200947552919388 0.678034126758575 -0.707028925418854
outer loop
vertex 1.62668490409851 -7.27782011032104 10.6927051544189
vertex 1.36251354217529 -8.04828453063965 9.87875556945801
vertex 1.43595623970032 -7.21772956848145 10.6961240768433
endloop
endfacet
facet normal 0.200947538018227 0.678034067153931 -0.707028925418854
outer loop
vertex 1.18422973155975 -7.99211502075195 9.88195133209229
vertex 1.43595623970032 -7.21772956848145 10.6961240768433
vertex 1.36251354217529 -8.04828453063965 9.87875556945801
endloop
endfacet
facet normal 0.200947552919388 0.678034126758575 -0.707028925418854
outer loop
vertex 1.18422973155975 -7.99211502075195 9.88195133209229
vertex 1.36251354217529 -8.04828453063965 9.87875556945801
vertex 0.841661274433136 -9.04595756530762 8.77396297454834
endloop
endfacet
facet normal 0.200947523117065 0.678034067153931 -0.707028865814209
outer loop
vertex 1.00300884246826 -9.09679126739502 8.771071434021
vertex 0.841661274433136 -9.04595756530762 8.77396297454834
vertex 1.36251354217529 -8.04828453063965 9.87875556945801
endloop
endfacet
facet normal 0.200947523117065 0.678034067153931 -0.707028925418854
outer loop
vertex 0.841661274433136 -9.04595756530762 8.77396297454834
vertex 1.00300884246826 -9.09679126739502 8.771071434021
vertex 0.387664526700974 -10.4425868988037 7.30557680130005
endloop
endfacet
facet normal 0.200947538018227 0.678034126758575 -0.707028925418854
outer loop
vertex 0.526567161083221 -10.486349105835 7.30308723449707
vertex 0.387664526700974 -10.4425868988037 7.30557680130005
vertex 1.00300884246826 -9.09679126739502 8.771071434021
endloop
endfacet
facet normal 0.200947538018227 0.678034067153931 -0.707028925418854
outer loop
vertex 0.526567161083221 -10.486349105835 7.30308723449707
vertex 0.023960879072547 -11.9522161483765 5.75448656082153
vertex 0.387664526700974 -10.4425868988037 7.30557680130005
endloop
endfacet
facet normal 0.200947552919388 0.678034126758575 -0.707028925418854
outer loop
vertex -0.0912642404437065 -11.9159135818481 5.75655174255371
vertex 0.387664526700974 -10.4425868988037 7.30557680130005
vertex 0.023960879072547 -11.9522161483765 5.75448656082153
endloop
endfacet
facet normal 0.200947538018227 0.678034067153931 -0.707028865814209
outer loop
vertex -0.570192992687225 -13.3892412185669 4.20752620697021
vertex -0.0912642404437065 -11.9159135818481 5.75655174255371
vertex -0.478645414113998 -13.4180841445923 4.20588541030884
endloop
endfacet
facet normal 0.200947552919388 0.678034126758575 -0.707028925418854
outer loop
vertex 0.023960879072547 -11.9522161483765 5.75448656082153
vertex -0.478645414113998 -13.4180841445923 4.20588541030884
vertex -0.0912642404437065 -11.9159135818481 5.75655174255371
endloop
endfacet
facet normal 0.200947523117065 0.678034067153931 -0.707028865814209
outer loop
vertex -0.478645414113998 -13.4180841445923 4.20588541030884
vertex -0.978923499584198 -14.877161026001 2.66445827484131
vertex -0.570192992687225 -13.3892412185669 4.20752620697021
endloop
endfacet
facet normal 0.200947538018227 0.678034126758575 -0.707028865814209
outer loop
vertex -1.04690313339233 -14.8557434082031 2.66567659378052
vertex -0.570192992687225 -13.3892412185669 4.20752620697021
vertex -0.978923499584198 -14.877161026001 2.66445827484131
endloop
endfacet
facet normal 0.200947538018227 0.678034126758575 -0.707028925418854
outer loop
vertex -1.04690313339233 -14.8557434082031 2.66567659378052
vertex -0.978923499584198 -14.877161026001 2.66445827484131
vertex -1.39422476291656 -15.9242076873779 1.54231572151184
endloop
endfacet
facet normal 0.200947523117065 0.678034067153931 -0.707028865814209
outer loop
vertex -1.34341609477997 -15.9402151107788 1.54140508174896
vertex -1.39422476291656 -15.9242076873779 1.54231572151184
vertex -0.978923499584198 -14.877161026001 2.66445827484131
endloop
endfacet
facet normal 0.200947523117065 0.678034067153931 -0.707028925418854
outer loop
vertex -1.34341609477997 -15.9402151107788 1.54140508174896
vertex -1.56098437309265 -16.5747604370117 0.871046543121338
vertex -1.39422476291656 -15.9242076873779 1.54231572151184
endloop
endfacet
facet normal 0.200947552919388 0.678034067153931 -0.707028925418854
outer loop
vertex -1.60154342651367 -16.5619812011719 0.871773481369019
vertex -1.39422476291656 -15.9242076873779 1.54231572151184
vertex -1.56098437309265 -16.5747604370117 0.871046543121338
endloop
endfacet
facet normal 0.200947552919388 0.678034126758575 -0.707028865814209
outer loop
vertex -1.60154342651367 -16.5619812011719 0.871773481369019
vertex -1.56098437309265 -16.5747604370117 0.871046543121338
vertex -1.72529351711273 -16.9426746368408 0.471521943807602
endloop
endfacet
facet normal 0.200947523117065 0.678034067153931 -0.707028925418854
outer loop
vertex -1.69085252285004 -16.9535255432129 0.470904648303986
vertex -1.72529351711273 -16.9426746368408 0.471521943807602
vertex -1.56098437309265 -16.5747604370117 0.871046543121338
endloop
endfacet
facet normal 0.200947523117065 0.678034126758575 -0.707028925418854
outer loop
vertex -1.69085252285004 -16.9535255432129 0.470904648303986
vertex -1.76837170124054 -17.1796112060547 0.232057079672813
vertex -1.72529351711273 -16.9426746368408 0.471521943807602
endloop
endfacet
facet normal 0.200947538018227 0.678034126758575 -0.707028925418854
outer loop
vertex -1.79916083812714 -17.1699123382568 0.232608914375305
vertex -1.72529351711273 -16.9426746368408 0.471521943807602
vertex -1.76837170124054 -17.1796112060547 0.232057079672813
endloop
endfacet
facet normal 0.200947523117065 0.678034126758575 -0.707028865814209
outer loop
vertex -1.79916083812714 -17.1699123382568 0.232608914375305
vertex -1.76837170124054 -17.1796112060547 0.232057079672813
vertex -1.84325277805328 -17.3055515289307 0.0900000035762787
endloop
endfacet
facet normal 0.200947538018227 0.678034067153931 -0.707028865814209
outer loop
vertex -1.81464338302612 -17.3145656585693 0.0894872322678566
vertex -1.84325277805328 -17.3055515289307 0.0900000035762787
vertex -1.76837170124054 -17.1796112060547 0.232057079672813
endloop
endfacet
facet normal -0.222628742456436 -0.671106815338135 0.707143604755402
outer loop
vertex 1.62591886520386 -7.28029203414917 10.6965551376343
vertex 1.43590354919434 -7.21789169311523 10.6959533691406
vertex 1.31464421749115 -8.17981815338135 9.74487209320068
endloop
endfacet
facet normal -0.222628742456436 -0.671106815338135 0.707143604755402
outer loop
vertex 1.14167547225952 -8.12302494049072 9.7443151473999
vertex 1.31464421749115 -8.17981815338135 9.74487209320068
vertex 1.43590354919434 -7.21789169311523 10.6959533691406
endloop
endfacet
facet normal -0.222628757357597 -0.671106815338135 0.707143604755402
outer loop
vertex 1.31464421749115 -8.17981815338135 9.74487209320068
vertex 1.14167547225952 -8.12302494049072 9.7443151473999
vertex 0.815734565258026 -9.62157344818115 8.21951866149902
endloop
endfacet
facet normal -0.222628742456436 -0.671106815338135 0.707143545150757
outer loop
vertex 0.670099496841431 -9.57373237609863 8.21907138824463
vertex 0.815734565258026 -9.62157344818115 8.21951866149902
vertex 1.14167547225952 -8.12302494049072 9.7443151473999
endloop
endfacet
facet normal -0.222628742456436 -0.671106815338135 0.707143604755402
outer loop
vertex 0.815734565258026 -9.62157344818115 8.21951866149902
vertex 0.670099496841431 -9.57373237609863 8.21907138824463
vertex 0.283937096595764 -11.1583690643311 6.59361505508423
endloop
endfacet
facet normal -0.222628742456436 -0.671106815338135 0.707143604755402
outer loop
vertex 0.167429029941559 -11.120096206665 6.59325742721558
vertex 0.283937096595764 -11.1583690643311 6.59361505508423
vertex 0.670099496841431 -9.57373237609863 8.21907138824463
endloop
endfacet
facet normal -0.222628742456436 -0.671106815338135 0.707143604755402
outer loop
vertex 0.167429029941559 -11.120096206665 6.59325742721558
vertex -0.335241407155991 -12.6664600372314 4.96744298934937
vertex 0.283937096595764 -11.1583690643311 6.59361505508423
endloop
endfacet
facet normal -0.222628742456436 -0.67110687494278 0.707143604755402
outer loop
vertex -0.247860372066498 -12.695164680481 4.96771144866943
vertex 0.283937096595764 -11.1583690643311 6.59361505508423
vertex -0.335241407155991 -12.6664600372314 4.96744298934937
endloop
endfacet
facet normal -0.222628742456436 -0.67110687494278 0.707143604755402
outer loop
vertex -0.247860372066498 -12.695164680481 4.96771144866943
vertex -0.335241407155991 -12.6664600372314 4.96744298934937
vertex -0.77965784072876 -14.2319602966309 3.34180760383606
endloop
endfacet
facet normal -0.222628742456436 -0.671106815338135 0.707143604755402
outer loop
vertex -0.83791184425354 -14.2128238677979 3.34162878990173
vertex -0.77965784072876 -14.2319602966309 3.34180760383606
vertex -0.335241407155991 -12.6664600372314 4.96744298934937
endloop
endfacet
facet normal -0.222628742456436 -0.671106815338135 0.707143604755402
outer loop
vertex -0.83791184425354 -14.2128238677979 3.34162878990173
vertex -1.34058225154877 -15.7591876983643 1.71581435203552
vertex -0.77965784072876 -14.2319602966309 3.34180760383606
endloop
endfacet
facet normal -0.222628742456436 -0.671106815338135 0.707143604755402
outer loop
vertex -1.31145524978638 -15.7687559127808 1.71590375900269
vertex -0.77965784072876 -14.2319602966309 3.34180760383606
vertex -1.34058225154877 -15.7591876983643 1.71581435203552
endloop
endfacet
facet normal -0.222628742456436 -0.671106815338135 0.707143604755402
outer loop
vertex -1.34058225154877 -15.7591876983643 1.71581435203552
vertex -1.84325277805328 -17.3055515289307 0.0900000035762787
vertex -1.31145524978638 -15.7687559127808 1.71590375900269
endloop
endfacet
facet normal -0.312635332345963 -0.949872255325317 -0.00137593480758369
outer loop
vertex 0.00848639290779829 -18.0922698974609 13.4422569274902
vertex -1.52064716815948 -17.5913581848145 15.08482837677
vertex -0.0123099749907851 -18.0853939056396 13.4208059310913
endloop
endfacet
facet normal -0.312635332345963 -0.949872255325317 -0.00137593480758369
outer loop
vertex -0.0123099749907851 -18.0853939056396 13.4208059310913
vertex 1.49602723121643 -18.5794277191162 11.7567834854126
vertex 0.00848639290779829 -18.0922698974609 13.4422569274902
endloop
endfacet
facet normal -0.312635332345963 -0.949872255325317 -0.00137593480758369
outer loop
vertex 1.53761994838715 -18.5931797027588 11.7996864318848
vertex 0.00848639290779829 -18.0922698974609 13.4422569274902
vertex 1.49602723121643 -18.5794277191162 11.7567834854126
endloop
endfacet
facet normal -0.312635332345963 -0.949872255325317 -0.00137593480758369
outer loop
vertex 1.49602723121643 -18.5794277191162 11.7567834854126
vertex 3.00436449050903 -19.0734634399414 10.0927610397339
vertex 1.53761994838715 -18.5931797027588 11.7996864318848
endloop
endfacet
facet normal -0.312635332345963 -0.949872255325317 -0.00137593480758369
outer loop
vertex 3.06675362586975 -19.0940914154053 10.157114982605
vertex 1.53761994838715 -18.5931797027588 11.7996864318848
vertex 3.00436449050903 -19.0734634399414 10.0927610397339
endloop
endfacet
facet normal -0.312635332345963 -0.949872255325317 -0.00137593480758369
outer loop
vertex 3.00436449050903 -19.0734634399414 10.0927610397339
vertex 4.51270151138306 -19.567497253418 8.42873859405518
vertex 3.06675362586975 -19.0940914154053 10.157114982605
endloop
endfacet
facet normal -0.312635332345963 -0.949872255325317 -0.00137593480758369
outer loop
vertex 4.59588718414307 -19.5950012207031 8.51454448699951
vertex 3.06675362586975 -19.0940914154053 10.157114982605
vertex 4.51270151138306 -19.567497253418 8.42873859405518
endloop
endfacet
facet normal -0.312635332345963 -0.949872255325317 -0.00137593480758369
outer loop
vertex 4.59588718414307 -19.5950012207031 8.51454448699951
vertex 4.51270151138306 -19.567497253418 8.42873859405518
vertex 6.1250205039978 -20.0959129333496 6.87197303771973
endloop
endfacet
facet normal -0.312635332345963 -0.949872195720673 -0.00137593469116837
outer loop
vertex 6.02103900909424 -20.0615329742432 6.76471662521362
vertex 6.1250205039978 -20.0959129333496 6.87197303771973
vertex 4.51270151138306 -19.567497253418 8.42873859405518
endloop
endfacet
facet normal -0.312635332345963 -0.949872195720673 -0.00137593469116837
outer loop
vertex 6.1250205039978 -20.0959129333496 6.87197303771973
vertex 6.02103900909424 -20.0615329742432 6.76471662521362
vertex 7.55956172943115 -20.5658359527588 5.33101177215576
endloop
endfacet
facet normal -0.31263530254364 -0.949872195720673 -0.00137593457475305
outer loop
vertex 7.43609428405762 -20.5250148773193 5.20360422134399
vertex 7.55956172943115 -20.5658359527588 5.33101177215576
vertex 6.02103900909424 -20.0615329742432 6.76471662521362
endloop
endfacet
facet normal -0.31263530254364 -0.949872195720673 -0.00137593469116837
outer loop
vertex 7.55956172943115 -20.5658359527588 5.33101177215576
vertex 7.43609428405762 -20.5250148773193 5.20360422134399
vertex 8.45460319519043 -20.8590316772461 4.36957263946533
endloop
endfacet
facet normal -0.31263530254364 -0.949872255325317 -0.00137593469116837
outer loop
vertex 8.31895637512207 -20.8141841888428 4.22961664199829
vertex 8.45460319519043 -20.8590316772461 4.36957263946533
vertex 7.43609428405762 -20.5250148773193 5.20360422134399
endloop
endfacet
facet normal -1 0 0
outer loop
vertex -0.226420000195503 -16 -0.025000000372529
vertex -0.226420000195503 -16 0.174999997019768
vertex -0.226420000195503 -15 -0.025000000372529
endloop
endfacet
facet normal -1 -0 -0
outer loop
vertex -0.226420000195503 -15 0.174999997019768
vertex -0.226420000195503 -15 -0.025000000372529
vertex -0.226420000195503 -16 0.174999997019768
endloop
endfacet
facet normal -0.70710676908493 -0 -0.70710676908493
outer loop
vertex -0.0850000008940697 -15 -0.166419997811317
vertex -0.0850000008940697 -16 -0.166419997811317
vertex -0.226420000195503 -15 -0.025000000372529
endloop
endfacet
facet normal -0.70710676908493 0 -0.70710676908493
outer loop
vertex -0.226420000195503 -16 -0.025000000372529
vertex -0.226420000195503 -15 -0.025000000372529
vertex -0.0850000008940697 -16 -0.166419997811317
endloop
endfacet
facet normal -0.70710676908493 0 0.70710676908493
outer loop
vertex -0.226420000195503 -15 0.174999997019768
vertex -0.226420000195503 -16 0.174999997019768
vertex -0.0850000008940697 -15 0.316419988870621
endloop
endfacet
facet normal -0.70710676908493 0 0.70710676908493
outer loop
vertex -0.0850000008940697 -16 0.316419988870621
vertex -0.0850000008940697 -15 0.316419988870621
vertex -0.226420000195503 -16 0.174999997019768
endloop
endfacet
facet normal -0 -0 -1
outer loop
vertex 0.115000002086163 -15 -0.166419997811317
vertex 0.115000002086163 -16 -0.166419997811317
vertex -0.0850000008940697 -15 -0.166419997811317
endloop
endfacet
facet normal 0 0 -1
outer loop
vertex -0.0850000008940697 -16 -0.166419997811317
vertex -0.0850000008940697 -15 -0.166419997811317
vertex 0.115000002086163 -16 -0.166419997811317
endloop
endfacet
facet normal 0 0 1
outer loop
vertex 0.115000002086163 -15 0.316419988870621
vertex -0.0850000008940697 -15 0.316419988870621
vertex 0.115000002086163 -16 0.316419988870621
endloop
endfacet
facet normal 0 0 1
outer loop
vertex -0.0850000008940697 -16 0.316419988870621
vertex 0.115000002086163 -16 0.316419988870621
vertex -0.0850000008940697 -15 0.316419988870621
endloop
endfacet
facet normal 0.70710676908493 0 -0.70710676908493
outer loop
vertex 0.115000002086163 -16 -0.166419997811317
vertex 0.115000002086163 -15 -0.166419997811317
vertex 0.256419986486435 -16 -0.025000000372529
endloop
endfacet
facet normal 0.70710676908493 0 -0.70710676908493
outer loop
vertex 0.256419986486435 -15 -0.025000000372529
vertex 0.256419986486435 -16 -0.025000000372529
vertex 0.115000002086163 -15 -0.166419997811317
endloop
endfacet
facet normal 0.70710676908493 -0 0.70710676908493
outer loop
vertex 0.256419986486435 -16 0.174999997019768
vertex 0.256419986486435 -15 0.174999997019768
vertex 0.115000002086163 -16 0.316419988870621
endloop
endfacet
facet normal 0.70710676908493 0 0.70710676908493
outer loop
vertex 0.115000002086163 -15 0.316419988870621
vertex 0.115000002086163 -16 0.316419988870621
vertex 0.256419986486435 -15 0.174999997019768
endloop
endfacet
facet normal 1 0 -0
outer loop
vertex 0.256419986486435 -15 -0.025000000372529
vertex 0.256419986486435 -15 0.174999997019768
vertex 0.256419986486435 -16 -0.025000000372529
endloop
endfacet
facet normal 1 -0 0
outer loop
vertex 0.256419986486435 -16 0.174999997019768
vertex 0.256419986486435 -16 -0.025000000372529
vertex 0.256419986486435 -15 0.174999997019768
endloop
endfacet
facet normal -0 0.0110939843580127 0.999938488006592
outer loop
vertex -0.0850000008940697 -14.9990768432617 0.316409766674042
vertex 0.115000002086163 -14.9990768432617 0.316409766674042
vertex -0.0784750282764435 -13.8476819992065 0.30363541841507
endloop
endfacet
facet normal -3.82999234930392e-16 0.0110939843580127 0.999938488006592
outer loop
vertex 0.108475029468536 -13.8476819992065 0.30363541841507
vertex -0.0784750282764435 -13.8476819992065 0.30363541841507
vertex 0.115000002086163 -14.9990768432617 0.316409766674042
endloop
endfacet
facet normal -3.82999208460612e-16 0.0110939834266901 0.999938428401947
outer loop
vertex 0.108475029468536 -13.8476819992065 0.30363541841507
vertex 0.0995953530073166 -12.2807760238647 0.286251127719879
vertex -0.0784750282764435 -13.8476819992065 0.30363541841507
endloop
endfacet
facet normal -0 0.0110939843580127 0.999938428401947
outer loop
vertex -0.0695953518152237 -12.2807760238647 0.286251127719879
vertex -0.0784750282764435 -13.8476819992065 0.30363541841507
vertex 0.0995953530073166 -12.2807760238647 0.286251127719879
endloop
endfacet
facet normal -0 0.0110939843580127 0.999938488006592
outer loop
vertex -0.0695953518152237 -12.2807760238647 0.286251127719879
vertex 0.0995953530073166 -12.2807760238647 0.286251127719879
vertex -0.0578273497521877 -10.2041988372803 0.26321217417717
endloop
endfacet
facet normal -1.35298584368179e-16 0.0110939843580127 0.999938547611237
outer loop
vertex 0.0878273546695709 -10.2041988372803 0.26321217417717
vertex -0.0578273497521877 -10.2041988372803 0.26321217417717
vertex 0.0995953530073166 -12.2807760238647 0.286251127719879
endloop
endfacet
facet normal -1.35298571133289e-16 0.0110939834266901 0.999938428401947
outer loop
vertex 0.0878273546695709 -10.2041988372803 0.26321217417717
vertex 0.0754130929708481 -8.01358222961426 0.238908022642136
vertex -0.0578273497521877 -10.2041988372803 0.26321217417717
endloop
endfacet
facet normal -2.96300542339468e-16 0.0110939843580127 0.999938547611237
outer loop
vertex -0.0454130955040455 -8.01358222961426 0.238908022642136
vertex -0.0578273497521877 -10.2041988372803 0.26321217417717
vertex 0.0754130929708481 -8.01358222961426 0.238908022642136
endloop
endfacet
facet normal -2.96300542339468e-16 0.0110939843580127 0.999938547611237
outer loop
vertex -0.0454130955040455 -8.01358222961426 0.238908022642136
vertex 0.0754130929708481 -8.01358222961426 0.238908022642136
vertex -0.0329988375306129 -5.82296562194824 0.21460385620594
endloop
endfacet
facet normal 2.05284906628192e-16 0.0110939834266901 0.999938428401947
outer loop
vertex 0.0629988387227058 -5.82296562194824 0.21460385620594
vertex -0.0329988375306129 -5.82296562194824 0.21460385620594
vertex 0.0754130929708481 -8.01358222961426 0.238908022642136
endloop
endfacet
facet normal 2.05284906628192e-16 0.0110939834266901 0.999938428401947
outer loop
vertex 0.0629988387227058 -5.82296562194824 0.21460385620594
vertex 0.0506420843303204 -3.64249682426453 0.190412282943726
vertex -0.0329988375306129 -5.82296562194824 0.21460385620594
endloop
endfacet
facet normal -4.33113595147558e-16 0.0110939843580127 0.999938428401947
outer loop
vertex -0.0206420868635178 -3.64249682426453 0.190412282943726
vertex -0.0329988375306129 -5.82296562194824 0.21460385620594
vertex 0.0506420843303204 -3.64249682426453 0.190412282943726
endloop
endfacet
facet normal -4.33113568677778e-16 0.0110939834266901 0.999938428401947
outer loop
vertex -0.0206420868635178 -3.64249682426453 0.190412282943726
vertex 0.0506420843303204 -3.64249682426453 0.190412282943726
vertex -0.0116392038762569 -2.05385088920593 0.17278678715229
endloop
endfacet
facet normal -5.85654660122731e-17 0.0110939843580127 0.999938488006592
outer loop
vertex 0.0416392050683498 -2.05385088920593 0.17278678715229
vertex -0.0116392038762569 -2.05385088920593 0.17278678715229
vertex 0.0506420843303204 -3.64249682426453 0.190412282943726
endloop
endfacet
facet normal -5.8565472629718e-17 0.0110939843580127 0.999938488006592
outer loop
vertex 0.0416392050683498 -2.05385088920593 0.17278678715229
vertex 0.036265317350626 -1.10557639598846 0.162266001105309
vertex -0.0116392038762569 -2.05385088920593 0.17278678715229
endloop
endfacet
facet normal -6.6800750459398e-16 0.0110939843580127 0.999938488006592
outer loop
vertex -0.00626531848683953 -1.10557639598846 0.162266001105309
vertex -0.0116392038762569 -2.05385088920593 0.17278678715229
vertex 0.036265317350626 -1.10557639598846 0.162266001105309
endloop
endfacet
facet normal -6.6800745165442e-16 0.0110939843580127 0.999938488006592
outer loop
vertex -0.00626531848683953 -1.10557639598846 0.162266001105309
vertex 0.036265317350626 -1.10557639598846 0.162266001105309
vertex -0.0030576076824218 -0.539544641971588 0.155986070632935
endloop
endfacet
facet normal 1.59147366098385e-17 0.0110939843580127 0.999938488006592
outer loop
vertex 0.0330576077103615 -0.539544641971588 0.155986070632935
vertex -0.0030576076824218 -0.539544641971588 0.155986070632935
vertex 0.036265317350626 -1.10557639598846 0.162266001105309
endloop
endfacet
facet normal 1.59147366098385e-17 0.0110939843580127 0.999938488006592
outer loop
vertex 0.0330576077103615 -0.539544641971588 0.155986070632935
vertex 0.0311429016292095 -0.2016761302948 0.15223753452301
vertex -0.0030576076824218 -0.539544641971588 0.155986070632935
endloop
endfacet
facet normal -3.54152972046275e-16 0.0110939843580127 0.999938428401947
outer loop
vertex -0.00114290183410048 -0.2016761302948 0.15223753452301
vertex -0.0030576076824218 -0.539544641971588 0.155986070632935
vertex 0.0311429016292095 -0.2016761302948 0.15223753452301
endloop
endfacet
facet normal -3.54152919106716e-16 0.0110939834266901 0.999938428401947
outer loop
vertex -0.00114290183410048 -0.2016761302948 0.15223753452301
vertex 0.0311429016292095 -0.2016761302948 0.15223753452301
vertex 0 0 0.150000005960464
endloop
endfacet
facet normal 0 0.0110939834266901 0.999938428401947
outer loop
vertex 0.0299999993294477 0 0.150000005960464
vertex 0 0 0.150000005960464
vertex 0.0311429016292095 -0.2016761302948 0.15223753452301
endloop
endfacet
facet normal -0.999886095523834 -0.0150929465889931 0
outer loop
vertex 0.25639420747757 -14.998291015625 -0.025000000372529
vertex 0.25639420747757 -14.998291015625 0.174999997019768
vertex 0.239353910088539 -13.8693962097168 -0.0231182929128408
endloop
endfacet
facet normal -0.999886095523834 -0.0150929465889931 9.60018622457715e-18
outer loop
vertex 0.239353910088539 -13.8693962097168 0.17311829328537
vertex 0.239353910088539 -13.8693962097168 -0.0231182929128408
vertex 0.25639420747757 -14.998291015625 0.174999997019768
endloop
endfacet
facet normal -0.999886095523834 -0.0150929475203156 9.60018705175776e-18
outer loop
vertex 0.239353910088539 -13.8693962097168 -0.0231182929128408
vertex 0.239353910088539 -13.8693962097168 0.17311829328537
vertex 0.216476455330849 -12.3537979125977 -0.0205920077860355
endloop
endfacet
facet normal -0.999886035919189 -0.0150929456576705 1.47808473523182e-17
outer loop
vertex 0.216476455330849 -12.3537979125977 0.17059201002121
vertex 0.216476455330849 -12.3537979125977 -0.0205920077860355
vertex 0.239353910088539 -13.8693962097168 0.17311829328537
endloop
endfacet
facet normal -0.999886155128479 -0.0150929484516382 1.47808490066794e-17
outer loop
vertex 0.216476455330849 -12.3537979125977 0.17059201002121
vertex 0.186227142810822 -10.3498239517212 0.16725167632103
vertex 0.216476455330849 -12.3537979125977 -0.0205920077860355
endloop
endfacet
facet normal -0.999886095523834 -0.0150929475203156 1.02106984562005e-17
outer loop
vertex 0.186227142810822 -10.3498239517212 -0.0172516722232103
vertex 0.216476455330849 -12.3537979125977 -0.0205920077860355
vertex 0.186227142810822 -10.3498239517212 0.16725167632103
endloop
endfacet
facet normal -0.999886035919189 -0.0150929465889931 1.02106968018393e-17
outer loop
vertex 0.186227142810822 -10.3498239517212 -0.0172516722232103
vertex 0.186227142810822 -10.3498239517212 0.16725167632103
vertex 0.153897643089294 -8.20804023742676 -0.0136816259473562
endloop
endfacet
facet normal -0.999886035919189 -0.0150929465889931 1.61783028227775e-16
outer loop
vertex 0.153897643089294 -8.20804023742676 0.163681626319885
vertex 0.153897643089294 -8.20804023742676 -0.0136816259473562
vertex 0.186227142810822 -10.3498239517212 0.16725167632103
endloop
endfacet
facet normal -0.999886035919189 -0.0150929465889931 1.61783028227775e-16
outer loop
vertex 0.153897643089294 -8.20804023742676 0.163681626319885
vertex 0.121568128466606 -6.06625699996948 0.160111576318741
vertex 0.153897643089294 -8.20804023742676 -0.0136816259473562
endloop
endfacet
facet normal -0.999886155128479 -0.0150929475203156 7.32172764977555e-17
outer loop
vertex 0.121568128466606 -6.06625699996948 -0.0101115806028247
vertex 0.153897643089294 -8.20804023742676 -0.0136816259473562
vertex 0.121568128466606 -6.06625699996948 0.160111576318741
endloop
endfacet
facet normal -0.999886155128479 -0.0150929475203156 7.32172764977555e-17
outer loop
vertex 0.121568128466606 -6.06625699996948 -0.0101115806028247
vertex 0.121568128466606 -6.06625699996948 0.160111576318741
vertex 0.0892386212944984 -3.92447376251221 -0.00654153479263186
endloop
endfacet
facet normal -0.999886095523834 -0.0150929465889931 3.53234775096562e-17
outer loop
vertex 0.0892386212944984 -3.92447376251221 0.156541541218758
vertex 0.0892386212944984 -3.92447376251221 -0.00654153479263186
vertex 0.121568128466606 -6.06625699996948 0.160111576318741
endloop
endfacet
facet normal -0.999886155128479 -0.0150929475203156 3.53234775096562e-17
outer loop
vertex 0.0892386212944984 -3.92447376251221 0.156541541218758
vertex 0.0622535683214664 -2.13675260543823 0.153561666607857
vertex 0.0892386212944984 -3.92447376251221 -0.00654153479263186
endloop
endfacet
facet normal -0.999886035919189 -0.0150929465889931 1.73630729523927e-16
outer loop
vertex 0.0622535683214664 -2.13675260543823 -0.00356165994890034
vertex 0.0892386212944984 -3.92447376251221 -0.00654153479263186
vertex 0.0622535683214664 -2.13675260543823 0.153561666607857
endloop
endfacet
facet normal -0.999886155128479 -0.0150929475203156 1.73630729523927e-16
outer loop
vertex 0.0622535683214664 -2.13675260543823 -0.00356165994890034
vertex 0.0622535683214664 -2.13675260543823 0.153561666607857
vertex 0.0433094687759876 -0.881733238697052 -0.00146972283255309
endloop
endfacet
facet normal -0.999886095523834 -0.0150929475203156 -6.33707244538968e-18
outer loop
vertex 0.0433094687759876 -0.881733238697052 0.151469722390175
vertex 0.0433094687759876 -0.881733238697052 -0.00146972283255309
vertex 0.0622535683214664 -2.13675260543823 0.153561666607857
endloop
endfacet
facet normal -0.999886095523834 -0.0150929465889931 -6.33707203179937e-18
outer loop
vertex 0.0433094687759876 -0.881733238697052 -0.00146972283255309
vertex 0.0433094687759876 -0.881733238697052 0.151469722390175
vertex 0.0299999993294477 0 0
endloop
endfacet
facet normal -0.999886095523834 -0.0150929475203156 -0
outer loop
vertex 0.0299999993294477 0 0.150000005960464
vertex 0.0299999993294477 0 0
vertex 0.0433094687759876 -0.881733238697052 0.151469722390175
endloop
endfacet
facet normal 0.707057118415833 0.0118512213230133 0.707057118415833
outer loop
vertex 0.256418794393539 -14.9996032714844 0.174994558095932
vertex 0.236103281378746 -13.6537590026855 0.172751918435097
vertex 0.114993408322334 -14.998836517334 0.316407084465027
endloop
endfacet
facet normal 0.707057118415833 0.0118512203916907 0.707057118415833
outer loop
vertex 0.107367269694805 -13.6530475616455 0.301476001739502
vertex 0.114993408322334 -14.998836517334 0.316407084465027
vertex 0.236103281378746 -13.6537590026855 0.172751918435097
endloop
endfacet
facet normal 0.707057118415833 0.0118512203916907 0.707057118415833
outer loop
vertex 0.236103281378746 -13.6537590026855 0.172751918435097
vertex 0.203541502356529 -11.4966325759888 0.169157385826111
vertex 0.107367269694805 -13.6530475616455 0.301476001739502
endloop
endfacet
facet normal 0.707057118415833 0.0118512203916907 0.707057118415833
outer loop
vertex 0.0951443612575531 -11.4960641860962 0.277545005083084
vertex 0.107367269694805 -13.6530475616455 0.301476001739502
vertex 0.203541502356529 -11.4966325759888 0.169157385826111
endloop
endfacet
facet normal 0.707057118415833 0.0118512194603682 0.707057118415833
outer loop
vertex 0.203541502356529 -11.4966325759888 0.169157385826111
vertex 0.168833196163177 -9.19730567932129 0.165325909852982
vertex 0.0951443612575531 -11.4960641860962 0.277545005083084
endloop
endfacet
facet normal 0.707057118415833 0.0118512194603682 0.707057118415833
outer loop
vertex 0.0821154937148094 -9.19685173034668 0.25203600525856
vertex 0.0951443612575531 -11.4960641860962 0.277545005083084
vertex 0.168833196163177 -9.19730567932129 0.165325909852982
endloop
endfacet
facet normal 0.707057118415833 0.0118512194603682 0.707057118415833
outer loop
vertex 0.0821154937148094 -9.19685173034668 0.25203600525856
vertex 0.168833196163177 -9.19730567932129 0.165325909852982
vertex 0.0690866187214851 -6.89763879776001 0.226527005434036
endloop
endfacet
facet normal 0.707057118415833 0.0118512203916907 0.707057118415833
outer loop
vertex 0.134124904870987 -6.89797925949097 0.161494433879852
vertex 0.0690866187214851 -6.89763879776001 0.226527005434036
vertex 0.168833196163177 -9.19730567932129 0.165325909852982
endloop
endfacet
facet normal 0.707057118415833 0.0118512203916907 0.707057118415833
outer loop
vertex 0.134124904870987 -6.89797925949097 0.161494433879852
vertex 0.0994165986776352 -4.59865283966064 0.157662957906723
vertex 0.0690866187214851 -6.89763879776001 0.226527005434036
endloop
endfacet
facet normal 0.707057118415833 0.0118512194603682 0.707057118415833
outer loop
vertex 0.0560577474534512 -4.59842586517334 0.201018005609512
vertex 0.0690866187214851 -6.89763879776001 0.226527005434036
vertex 0.0994165986776352 -4.59865283966064 0.157662957906723
endloop
endfacet
facet normal 0.707057118415833 0.0118512194603682 0.707057118415833
outer loop
vertex 0.0560577474534512 -4.59842586517334 0.201018005609512
vertex 0.0994165986776352 -4.59865283966064 0.157662957906723
vertex 0.0430288724601269 -2.29921293258667 0.175509005784988
endloop
endfacet
facet normal 0.707057118415833 0.0118512194603682 0.707057118415833
outer loop
vertex 0.064708299934864 -2.29932641983032 0.153831481933594
vertex 0.0430288724601269 -2.29921293258667 0.175509005784988
vertex 0.0994165986776352 -4.59865283966064 0.157662957906723
endloop
endfacet
facet normal 0.707057118415833 0.0118512194603682 0.707057118415833
outer loop
vertex 0.0430288724601269 -2.29921293258667 0.175509005784988
vertex 0.064708299934864 -2.29932641983032 0.153831481933594
vertex 0.0299999993294477 0 0.150000005960464
endloop
endfacet
facet normal 0.707066535949707 0.010672933422029 -0.707066535949707
outer loop
vertex 0.291098803281784 -17.297420501709 -0.025000000372529
vertex 0.269423812627792 -17.2977447509766 -0.0466798581182957
vertex 0.25639420747757 -14.998291015625 -0.025000000372529
endloop
endfacet
facet normal 0.707066535949707 0.010672933422029 -0.707066535949707
outer loop
vertex 0.269423812627792 -17.2977447509766 -0.0466798581182957
vertex 0.291098803281784 -17.297420501709 -0.025000000372529
vertex 0.282453417778015 -19.5971965789795 -0.0683597177267075
endloop
endfacet
facet normal 0.707066535949707 0.010672933422029 -0.707066535949707
outer loop
vertex 0.325803399085999 -19.596549987793 -0.025000000372529
vertex 0.282453417778015 -19.5971965789795 -0.0683597177267075
vertex 0.291098803281784 -17.297420501709 -0.025000000372529
endloop
endfacet
facet normal 0.707066535949707 0.010672933422029 -0.707066535949707
outer loop
vertex 0.282453417778015 -19.5971965789795 -0.0683597177267075
vertex 0.325803399085999 -19.596549987793 -0.025000000372529
vertex 0.29548305273056 -21.8966484069824 -0.0900395736098289
endloop
endfacet
facet normal 0.707066476345062 0.010672933422029 -0.707066476345062
outer loop
vertex 0.360507994890213 -21.895679473877 -0.025000000372529
vertex 0.29548305273056 -21.8966484069824 -0.0900395736098289
vertex 0.325803399085999 -19.596549987793 -0.025000000372529
endloop
endfacet
facet normal 0.707066476345062 0.010672933422029 -0.707066476345062
outer loop
vertex 0.29548305273056 -21.8966484069824 -0.0900395736098289
vertex 0.360507994890213 -21.895679473877 -0.025000000372529
vertex 0.308512657880783 -24.196102142334 -0.11171942949295
endloop
endfacet
facet normal 0.707066535949707 0.010672933422029 -0.707066535949707
outer loop
vertex 0.395212560892105 -24.1948089599609 -0.025000000372529
vertex 0.308512657880783 -24.196102142334 -0.11171942949295
vertex 0.360507994890213 -21.895679473877 -0.025000000372529
endloop
endfacet
facet normal 0.707066535949707 0.010672933422029 -0.707066535949707
outer loop
vertex 0.395212560892105 -24.1948089599609 -0.025000000372529
vertex 0.42991715669632 -26.4939384460449 -0.025000000372529
vertex 0.308512657880783 -24.196102142334 -0.11171942949295
endloop
endfacet
facet normal 0.707066476345062 0.0106729324907064 -0.707066476345062
outer loop
vertex 0.321542263031006 -26.4955539703369 -0.133399292826653
vertex 0.308512657880783 -24.196102142334 -0.11171942949295
vertex 0.42991715669632 -26.4939384460449 -0.025000000372529
endloop
endfacet
facet normal 0.707066476345062 0.010672933422029 -0.707066476345062
outer loop
vertex 0.42991715669632 -26.4939384460449 -0.025000000372529
vertex 0.462474912405014 -28.650842666626 -0.025000000372529
vertex 0.321542263031006 -26.4955539703369 -0.133399292826653
endloop
endfacet
facet normal 0.707066535949707 0.010672933422029 -0.707066535949707
outer loop
vertex 0.33376607298851 -28.6527976989746 -0.153738364577293
vertex 0.321542263031006 -26.4955539703369 -0.133399292826653
vertex 0.462474912405014 -28.650842666626 -0.025000000372529
endloop
endfacet
facet normal 0.707066476345062 0.0106729324907064 -0.707066476345062
outer loop
vertex 0.462474912405014 -28.650842666626 -0.025000000372529
vertex 0.482788413763046 -29.99658203125 -0.025000000372529
vertex 0.33376607298851 -28.6527976989746 -0.153738364577293
endloop
endfacet
facet normal 0.707066476345062 0.010672933422029 -0.707066476345062
outer loop
vertex 0.341392576694489 -29.9987163543701 -0.166428059339523
vertex 0.33376607298851 -28.6527976989746 -0.153738364577293
vertex 0.482788413763046 -29.99658203125 -0.025000000372529
endloop
endfacet
facet normal 0.20342056453228 0.677257061004639 -0.707066535949707
outer loop
vertex 26.804220199585 -26.2090892791748 -0.25139257311821
vertex 26.7594623565674 -26.3432655334473 -0.392788410186768
vertex 25.5173492431641 -25.814603805542 -0.243766069412231
endloop
endfacet
facet normal 0.203420549631119 0.677257001399994 -0.707066535949707
outer loop
vertex 25.4765949249268 -25.9367370605469 -0.372474938631058
vertex 25.5173492431641 -25.814603805542 -0.243766069412231
vertex 26.7594623565674 -26.3432655334473 -0.392788410186768
endloop
endfacet
facet normal 0.203420549631119 0.677257001399994 -0.707066535949707
outer loop
vertex 25.5173492431641 -25.814603805542 -0.243766069412231
vertex 25.4765949249268 -25.9367370605469 -0.372474938631058
vertex 23.4547462463379 -25.1823196411133 -0.231542274355888
endloop
endfacet
facet normal 0.203420549631119 0.677257001399994 -0.707066476345062
outer loop
vertex 23.4204597473145 -25.2851657867432 -0.339917153120041
vertex 23.4547462463379 -25.1823196411133 -0.231542274355888
vertex 25.4765949249268 -25.9367370605469 -0.372474938631058
endloop
endfacet
facet normal 0.203420534729958 0.677257001399994 -0.707066476345062
outer loop
vertex 23.4547462463379 -25.1823196411133 -0.231542274355888
vertex 23.4204597473145 -25.2851657867432 -0.339917153120041
vertex 21.2561721801758 -24.5083541870117 -0.218512654304504
endloop
endfacet
facet normal 0.203420549631119 0.677257001399994 -0.707066535949707
outer loop
vertex 21.2287445068359 -24.5906314849854 -0.305212587118149
vertex 21.2561721801758 -24.5083541870117 -0.218512654304504
vertex 23.4204597473145 -25.2851657867432 -0.339917153120041
endloop
endfacet
facet normal 0.203420549631119 0.677257001399994 -0.707066535949707
outer loop
vertex 21.2287445068359 -24.5906314849854 -0.305212587118149
vertex 19.0370273590088 -23.8960971832275 -0.270507991313934
vertex 21.2561721801758 -24.5083541870117 -0.218512654304504
endloop
endfacet
facet normal 0.203420534729958 0.677257001399994 -0.707066476345062
outer loop
vertex 19.0576000213623 -23.8343887329102 -0.205483049154282
vertex 21.2561721801758 -24.5083541870117 -0.218512654304504
vertex 19.0370273590088 -23.8960971832275 -0.270507991313934
endloop
endfacet
facet normal 0.203420534729958 0.677257001399994 -0.707066476345062
outer loop
vertex 19.0576000213623 -23.8343887329102 -0.205483049154282
vertex 19.0370273590088 -23.8960971832275 -0.270507991313934
vertex 16.8590259552002 -23.1604232788086 -0.192453429102898
endloop
endfacet
facet normal 0.203420549631119 0.677257001399994 -0.707066535949707
outer loop
vertex 16.8453121185303 -23.2015609741211 -0.23580339550972
vertex 16.8590259552002 -23.1604232788086 -0.192453429102898
vertex 19.0370273590088 -23.8960971832275 -0.270507991313934
endloop
endfacet
facet normal 0.203420549631119 0.677257001399994 -0.707066535949707
outer loop
vertex 16.8453121185303 -23.2015609741211 -0.23580339550972
vertex 14.6535968780518 -22.5070266723633 -0.201098799705505
vertex 16.8590259552002 -23.1604232788086 -0.192453429102898
endloop
endfacet
facet normal 0.203420549631119 0.677257001399994 -0.707066535949707
outer loop
vertex 14.6604537963867 -22.486457824707 -0.179423823952675
vertex 16.8590259552002 -23.1604232788086 -0.192453429102898
vertex 14.6535968780518 -22.5070266723633 -0.201098799705505
endloop
endfacet
facet normal 0.203420549631119 0.677257001399994 -0.707066535949707
outer loop
vertex 14.6535968780518 -22.5070266723633 -0.201098799705505
vertex 12.4618806838989 -21.8124923706055 -0.166394203901291
vertex 14.6604537963867 -22.486457824707 -0.179423823952675
endloop
endfacet
endsolid COMSOL mesh mesh1
