solid COMSOL mesh mesh1
facet normal -0.0253168605268002 0.999679386615753 0
outer loop
vertex 0 0 0.150000005960464
vertex 0 0 0
vertex -0.885921239852905 -0.0224359352141619 0.151181608438492
endloop
endfacet
facet normal -0.025316858664155 0.999679386615753 -4.31599450962447e-17
outer loop
vertex -0.885921239852905 -0.0224359352141619 -0.00118160713464022
vertex -0.885921239852905 -0.0224359352141619 0.151181608438492
vertex 0 0 0
endloop
endfacet
facet normal -0.025316858664155 0.999679505825043 -4.31599484049671e-17
outer loop
vertex -0.885921239852905 -0.0224359352141619 0.151181608438492
vertex -0.885921239852905 -0.0224359352141619 -0.00118160713464022
vertex -2.15273118019104 -0.0545178689062595 0.15287122130394
endloop
endfacet
facet normal -0.025316858664155 0.999679386615753 -9.52075289753429e-17
outer loop
vertex -2.15273118019104 -0.0545178689062595 -0.00287122861482203
vertex -2.15273118019104 -0.0545178689062595 0.15287122130394
vertex -0.885921239852905 -0.0224359352141619 -0.00118160713464022
endloop
endfacet
facet normal -0.0253168568015099 0.999679446220398 -5.65385823439426e-17
outer loop
vertex -3.96549558639526 -0.100426085293293 0.155289024114609
vertex -2.15273118019104 -0.0545178689062595 0.15287122130394
vertex -3.96549558639526 -0.100426085293293 -0.00528902234509587
endloop
endfacet
facet normal -0.025316858664155 0.999679505825043 -9.52075422102327e-17
outer loop
vertex -2.15273118019104 -0.0545178689062595 -0.00287122861482203
vertex -3.96549558639526 -0.100426085293293 -0.00528902234509587
vertex -2.15273118019104 -0.0545178689062595 0.15287122130394
endloop
endfacet
facet normal -0.0253168623894453 0.999679505825043 -5.65385889613875e-17
outer loop
vertex -3.96549558639526 -0.100426085293293 0.155289024114609
vertex -3.96549558639526 -0.100426085293293 -0.00528902234509587
vertex -6.12078046798706 -0.155008628964424 0.158163651823997
endloop
endfacet
facet normal -0.025316858664155 0.999679446220398 -1.98448874287817e-16
outer loop
vertex -6.12078046798706 -0.155008628964424 -0.00816365703940392
vertex -6.12078046798706 -0.155008628964424 0.158163651823997
vertex -3.96549558639526 -0.100426085293293 -0.00528902234509587
endloop
endfacet
facet normal -0.0253168605268002 0.999679505825043 -6.11447607460013e-17
outer loop
vertex -8.27606582641602 -0.209591165184975 0.161038294434547
vertex -6.12078046798706 -0.155008628964424 0.158163651823997
vertex -8.27606582641602 -0.209591165184975 -0.0110382921993732
endloop
endfacet
facet normal -0.025316858664155 0.999679446220398 -1.98448874287817e-16
outer loop
vertex -6.12078046798706 -0.155008628964424 -0.00816365703940392
vertex -8.27606582641602 -0.209591165184975 -0.0110382921993732
vertex -6.12078046798706 -0.155008628964424 0.158163651823997
endloop
endfacet
facet normal -0.0253168605268002 0.999679505825043 -6.11447607460013e-17
outer loop
vertex -8.27606582641602 -0.209591165184975 0.161038294434547
vertex -8.27606582641602 -0.209591165184975 -0.0110382921993732
vertex -10.4313507080078 -0.264173716306686 0.163912922143936
endloop
endfacet
facet normal -0.0253168623894453 0.999679505825043 -3.12065757781781e-16
outer loop
vertex -10.4313507080078 -0.264173716306686 -0.0139129273593426
vertex -10.4313507080078 -0.264173716306686 0.163912922143936
vertex -8.27606582641602 -0.209591165184975 -0.0110382921993732
endloop
endfacet
facet normal -0.0253168605268002 0.999679505825043 2.45548842769052e-16
outer loop
vertex -12.4265127182007 -0.31470113992691 0.166574001312256
vertex -10.4313507080078 -0.264173716306686 0.163912922143936
vertex -12.4265127182007 -0.31470113992691 -0.0165739953517914
endloop
endfacet
facet normal -0.0253168623894453 0.999679505825043 -3.12065757781781e-16
outer loop
vertex -10.4313507080078 -0.264173716306686 -0.0139129273593426
vertex -12.4265127182007 -0.31470113992691 -0.0165739953517914
vertex -10.4313507080078 -0.264173716306686 0.163912922143936
endloop
endfacet
facet normal -0.0253168605268002 0.999679505825043 2.45548842769052e-16
outer loop
vertex -12.4265127182007 -0.31470113992691 0.166574001312256
vertex -12.4265127182007 -0.31470113992691 -0.0165739953517914
vertex -13.9085092544556 -0.352232694625854 0.168550625443459
endloop
endfacet
facet normal -0.0253168605268002 0.999679505825043 0
outer loop
vertex -13.9085092544556 -0.352232694625854 -0.0185506250709295
vertex -13.9085092544556 -0.352232694625854 0.168550625443459
vertex -12.4265127182007 -0.31470113992691 -0.0165739953517914
endloop
endfacet
facet normal -0.0253168605268002 0.999679446220398 0
outer loop
vertex -13.9085092544556 -0.352232694625854 0.168550625443459
vertex -13.9085092544556 -0.352232694625854 -0.0185506250709295
vertex -14.995192527771 -0.379752904176712 0.170000001788139
endloop
endfacet
facet normal -0.0253168605268002 0.999679446220398 0
outer loop
vertex -14.995192527771 -0.379752904176712 -0.0199999995529652
vertex -14.995192527771 -0.379752904176712 0.170000001788139
vertex -13.9085092544556 -0.352232694625854 -0.0185506250709295
endloop
endfacet
facet normal 0.00107325438875705 0.010283725336194 0.999946534633636
outer loop
vertex -13.3452167510986 -1.99701249599457 0.184861406683922
vertex -13.3247337341309 -1.97611141204834 0.184624463319778
vertex -14.995192527771 -0.379752904176712 0.170000001788139
endloop
endfacet
facet normal 0.00107325438875705 0.010283725336194 0.999946534633636
outer loop
vertex -11.6952419281006 -3.61427211761475 0.199722811579704
vertex -11.6542749404907 -3.57246994972229 0.199248939752579
vertex -13.3452167510986 -1.99701249599457 0.184861406683922
endloop
endfacet
facet normal 0.00107325438875705 0.010283725336194 0.999946534633636
outer loop
vertex -13.3247337341309 -1.97611141204834 0.184624463319778
vertex -13.3452167510986 -1.99701249599457 0.184861406683922
vertex -11.6542749404907 -3.57246994972229 0.199248939752579
endloop
endfacet
facet normal 0.00107325438875705 0.010283725336194 0.999946534633636
outer loop
vertex -11.6952419281006 -3.61427211761475 0.199722811579704
vertex -10.0452661514282 -5.23153162002563 0.214584216475487
vertex -11.6542749404907 -3.57246994972229 0.199248939752579
endloop
endfacet
facet normal 0.00107325438875705 0.010283725336194 0.999946534633636
outer loop
vertex -9.98381614685059 -5.16882848739624 0.213873401284218
vertex -11.6542749404907 -3.57246994972229 0.199248939752579
vertex -10.0452661514282 -5.23153162002563 0.214584216475487
endloop
endfacet
facet normal 0.00107325438875705 0.010283725336194 0.999946534633636
outer loop
vertex -8.39529037475586 -6.84879112243652 0.229445621371269
vertex -8.31335735321045 -6.76518678665161 0.228497877717018
vertex -10.0452661514282 -5.23153162002563 0.214584216475487
endloop
endfacet
facet normal 0.00107325438875705 0.010283725336194 0.999946534633636
outer loop
vertex -9.98381614685059 -5.16882848739624 0.213873401284218
vertex -10.0452661514282 -5.23153162002563 0.214584216475487
vertex -8.31335735321045 -6.76518678665161 0.228497877717018
endloop
endfacet
facet normal 0.00107325438875705 0.010283725336194 0.999946534633636
outer loop
vertex -8.39529037475586 -6.84879112243652 0.229445621371269
vertex -6.74531555175781 -8.46605110168457 0.244307026267052
vertex -8.31335735321045 -6.76518678665161 0.228497877717018
endloop
endfacet
facet normal 0.00107325438875705 0.010283725336194 0.999946594238281
outer loop
vertex -6.64289903640747 -8.36154556274414 0.243122339248657
vertex -8.31335735321045 -6.76518678665161 0.228497877717018
vertex -6.74531555175781 -8.46605110168457 0.244307026267052
endloop
endfacet
facet normal 0.00107325438875705 0.010283725336194 0.999946534633636
outer loop
vertex -6.74531555175781 -8.46605110168457 0.244307026267052
vertex -5.21167325973511 -9.96928310394287 0.258120596408844
vertex -6.64289903640747 -8.36154556274414 0.243122339248657
endloop
endfacet
facet normal 0.00107325438875705 0.0102837262675166 0.999946594238281
outer loop
vertex -5.09019184112549 -9.84537601470947 0.256715923547745
vertex -6.64289903640747 -8.36154556274414 0.243122339248657
vertex -5.21167325973511 -9.96928310394287 0.258120596408844
endloop
endfacet
facet normal 0.00107325450517237 0.0102837262675166 0.999946594238281
outer loop
vertex -5.21167325973511 -9.96928310394287 0.258120596408844
vertex -4.28314208984375 -10.8794040679932 0.266483932733536
vertex -5.09019184112549 -9.84537601470947 0.256715923547745
endloop
endfacet
facet normal 0.00107325438875705 0.010283725336194 0.999946534633636
outer loop
vertex -4.15014123916626 -10.7437267303467 0.264945834875107
vertex -5.09019184112549 -9.84537601470947 0.256715923547745
vertex -4.28314208984375 -10.8794040679932 0.266483932733536
endloop
endfacet
facet normal -0.707143783569336 0.00916240457445383 0.707010388374329
outer loop
vertex -10.6064920425415 -0.268609166145325 -10.6050119400024
vertex -9.68711757659912 -0.245326042175293 -9.68576622009277
vertex -10.6059646606445 -0.0786197409033775 -10.6069469451904
endloop
endfacet
facet normal -0.707143783569336 0.00916240364313126 0.707010388374329
outer loop
vertex -9.68662738800049 -0.0718048959970474 -9.68752479553223
vertex -10.6059646606445 -0.0786197409033775 -10.6069469451904
vertex -9.68711757659912 -0.245326042175293 -9.68576622009277
endloop
endfacet
facet normal -0.707143843173981 0.00916240457445383 0.707010328769684
outer loop
vertex -9.68711757659912 -0.245326042175293 -9.68576622009277
vertex -8.16856575012207 -0.20686873793602 -8.16742610931396
vertex -9.68662738800049 -0.0718048959970474 -9.68752479553223
endloop
endfacet
facet normal -0.707143843173981 0.00916240457445383 0.707010388374329
outer loop
vertex -8.16817378997803 -0.0605489201843739 -8.16893005371094
vertex -9.68662738800049 -0.0718048959970474 -9.68752479553223
vertex -8.16856575012207 -0.20686873793602 -8.16742610931396
endloop
endfacet
facet normal -0.707143783569336 0.00916240364313126 0.707010388374329
outer loop
vertex -8.16856575012207 -0.20686873793602 -8.16742610931396
vertex -6.53485250473022 -0.165494993329048 -6.53394079208374
vertex -8.16817378997803 -0.0605489201843739 -8.16893005371094
endloop
endfacet
facet normal -0.707143843173981 0.00916240550577641 0.707010388374329
outer loop
vertex -6.53453874588013 -0.0484391376376152 -6.53514432907104
vertex -8.16817378997803 -0.0605489201843739 -8.16893005371094
vertex -6.53485250473022 -0.165494993329048 -6.53394079208374
endloop
endfacet
facet normal -0.707143843173981 0.00916240550577641 0.707010388374329
outer loop
vertex -6.53453874588013 -0.0484391376376152 -6.53514432907104
vertex -6.53485250473022 -0.165494993329048 -6.53394079208374
vertex -4.90090417861938 -0.0363293513655663 -4.90135812759399
endloop
endfacet
facet normal -0.707143783569336 0.00916240364313126 0.707010388374329
outer loop
vertex -4.90113925933838 -0.124121241271496 -4.90045547485352
vertex -4.90090417861938 -0.0363293513655663 -4.90135812759399
vertex -6.53485250473022 -0.165494993329048 -6.53394079208374
endloop
endfacet
facet normal -0.707143783569336 0.00916240364313126 0.707010388374329
outer loop
vertex -4.90113925933838 -0.124121241271496 -4.90045547485352
vertex -3.26742625236511 -0.0827474966645241 -3.26697039604187
vertex -4.90090417861938 -0.0363293513655663 -4.90135812759399
endloop
endfacet
facet normal -0.707143843173981 0.00916240550577641 0.707010388374329
outer loop
vertex -3.26726937294006 -0.0242195688188076 -3.26757216453552
vertex -4.90090417861938 -0.0363293513655663 -4.90135812759399
vertex -3.26742625236511 -0.0827474966645241 -3.26697039604187
endloop
endfacet
facet normal -0.707143843173981 0.00916240550577641 0.707010388374329
outer loop
vertex -3.26726937294006 -0.0242195688188076 -3.26757216453552
vertex -3.26742625236511 -0.0827474966645241 -3.26697039604187
vertex -1.63363468647003 -0.0121097844094038 -1.63378608226776
endloop
endfacet
facet normal -0.707143843173981 0.00916240550577641 0.707010388374329
outer loop
vertex -1.63371312618256 -0.041373748332262 -1.63348519802094
vertex -1.63363468647003 -0.0121097844094038 -1.63378608226776
vertex -3.26742625236511 -0.0827474966645241 -3.26697039604187
endloop
endfacet
facet normal -0.707143843173981 0.00916240550577641 0.707010388374329
outer loop
vertex -1.63363468647003 -0.0121097844094038 -1.63378608226776
vertex -1.63371312618256 -0.041373748332262 -1.63348519802094
vertex 0 0 0
endloop
endfacet
facet normal 0.707038462162018 0.0124606508761644 -0.707065284252167
outer loop
vertex -0.142404586076736 -0.00105561467353255 -0.142417773604393
vertex 0 0 0
vertex -0.141880944371223 -0.0331995859742165 -0.142460644245148
endloop
endfacet
facet normal 0.707038462162018 0.0124606508761644 -0.707065343856812
outer loop
vertex 0.000488640856929123 -0.0299959927797318 -3.99987402488478e-05
vertex -0.141880944371223 -0.0331995859742165 -0.142460644245148
vertex 0 0 0
endloop
endfacet
facet normal 0.707038462162018 0.0124606508761644 -0.707065343856812
outer loop
vertex -0.142404586076736 -0.00105561467353255 -0.142417773604393
vertex -0.141880944371223 -0.0331995859742165 -0.142460644245148
vertex -0.38226443529129 -0.00283364439383149 -0.382299840450287
endloop
endfacet
facet normal 0.707038521766663 0.0124606508761644 -0.707065343856812
outer loop
vertex -0.381681859493256 -0.0385955683887005 -0.38234755396843
vertex -0.38226443529129 -0.00283364439383149 -0.382299840450287
vertex -0.141880944371223 -0.0331995859742165 -0.142460644245148
endloop
endfacet
facet normal 0.707038462162018 0.0124606499448419 -0.707065284252167
outer loop
vertex -0.786273539066315 -0.00582847744226456 -0.78634637594223
vertex -0.38226443529129 -0.00283364439383149 -0.382299840450287
vertex -0.785591721534729 -0.0476843230426311 -0.786402225494385
endloop
endfacet
facet normal 0.707038521766663 0.0124606508761644 -0.707065343856812
outer loop
vertex -0.381681859493256 -0.0385955683887005 -0.38234755396843
vertex -0.785591721534729 -0.0476843230426311 -0.786402225494385
vertex -0.38226443529129 -0.00283364439383149 -0.382299840450287
endloop
endfacet
facet normal 0.707038462162018 0.0124606508761644 -0.707065343856812
outer loop
vertex -0.786273539066315 -0.00582847744226456 -0.78634637594223
vertex -0.785591721534729 -0.0476843230426311 -0.786402225494385
vertex -1.46676826477051 -0.0108728390187025 -1.4669041633606
endloop
endfacet
facet normal 0.707038462162018 0.012460651807487 -0.707065343856812
outer loop
vertex -1.46591925621033 -0.062993012368679 -1.4669736623764
vertex -1.46676826477051 -0.0108728390187025 -1.4669041633606
vertex -0.785591721534729 -0.0476843230426311 -0.786402225494385
endloop
endfacet
facet normal 0.707038462162018 0.0124606499448419 -0.707065343856812
outer loop
vertex -2.6129629611969 -0.0193693339824677 -2.61320495605469
vertex -1.46676826477051 -0.0108728390187025 -1.4669041633606
vertex -2.6118323802948 -0.0887782722711563 -2.61329770088196
endloop
endfacet
facet normal 0.707038402557373 0.0124606499448419 -0.707065343856812
outer loop
vertex -1.46591925621033 -0.062993012368679 -1.4669736623764
vertex -2.6118323802948 -0.0887782722711563 -2.61329770088196
vertex -1.46676826477051 -0.0108728390187025 -1.4669041633606
endloop
endfacet
facet normal 0.707038462162018 0.0124606499448419 -0.707065343856812
outer loop
vertex -2.6129629611969 -0.0193693339824677 -2.61320495605469
vertex -2.6118323802948 -0.0887782722711563 -2.61329770088196
vertex -4.16593980789185 -0.0308812186121941 -4.16632556915283
endloop
endfacet
facet normal 0.707038402557373 0.0124606499448419 -0.707065343856812
outer loop
vertex -4.16442775726318 -0.123714670538902 -4.16644954681396
vertex -4.16593980789185 -0.0308812186121941 -4.16632556915283
vertex -2.6118323802948 -0.0887782722711563 -2.61329770088196
endloop
endfacet
facet normal 0.707038462162018 0.0124606508761644 -0.707065284252167
outer loop
vertex -4.16593980789185 -0.0308812186121941 -4.16632556915283
vertex -4.16442775726318 -0.123714670538902 -4.16644954681396
vertex -5.72303342819214 -0.0424236208200455 -5.72356367111206
endloop
endfacet
facet normal 0.707038402557373 0.0124606499448419 -0.707065284252167
outer loop
vertex -5.7211389541626 -0.158743694424629 -5.72371912002563
vertex -5.72303342819214 -0.0424236208200455 -5.72356367111206
vertex -4.16442775726318 -0.123714670538902 -4.16644954681396
endloop
endfacet
facet normal 0.707038402557373 0.0124606499448419 -0.707065284252167
outer loop
vertex -5.72303342819214 -0.0424236208200455 -5.72356367111206
vertex -5.7211389541626 -0.158743694424629 -5.72371912002563
vertex -7.28012752532959 -0.0539660230278969 -7.28080177307129
endloop
endfacet
facet normal 0.707038402557373 0.0124606499448419 -0.707065284252167
outer loop
vertex -7.27785015106201 -0.193772703409195 -7.28098821640015
vertex -7.28012752532959 -0.0539660230278969 -7.28080177307129
vertex -5.7211389541626 -0.158743694424629 -5.72371912002563
endloop
endfacet
facet normal 0.707038462162018 0.0124606499448419 -0.707065343856812
outer loop
vertex -8.74149036407471 -0.0647987946867943 -8.74230003356934
vertex -7.28012752532959 -0.0539660230278969 -7.28080177307129
vertex -8.73885345458984 -0.226648107171059 -8.74251556396484
endloop
endfacet
facet normal 0.707038462162018 0.0124606508761644 -0.707065343856812
outer loop
vertex -7.27785015106201 -0.193772703409195 -7.28098821640015
vertex -8.73885345458984 -0.226648107171059 -8.74251556396484
vertex -7.28012752532959 -0.0539660230278969 -7.28080177307129
endloop
endfacet
facet normal 0.707038521766663 0.012460651807487 -0.707065403461456
outer loop
vertex -9.82339477539063 -0.0728187188506126 -9.82430458068848
vertex -8.74149036407471 -0.0647987946867943 -8.74230003356934
vertex -9.82049179077148 -0.250987082719803 -9.82454204559326
endloop
endfacet
facet normal 0.707038462162018 0.0124606508761644 -0.707065284252167
outer loop
vertex -8.73885345458984 -0.226648107171059 -8.74251556396484
vertex -9.82049179077148 -0.250987082719803 -9.82454204559326
vertex -8.74149036407471 -0.0647987946867943 -8.74230003356934
endloop
endfacet
facet normal 0.707038462162018 0.0124606508761644 -0.707065343856812
outer loop
vertex -9.82339477539063 -0.0728187188506126 -9.82430458068848
vertex -9.82049179077148 -0.250987082719803 -9.82454204559326
vertex -10.6061153411865 -0.0786208584904671 -10.6070985794067
endloop
endfacet
facet normal 0.707038462162018 0.0124606508761644 -0.707065343856812
outer loop
vertex -10.6030206680298 -0.268595486879349 -10.6073513031006
vertex -10.6061153411865 -0.0786208584904671 -10.6070985794067
vertex -9.82049179077148 -0.250987082719803 -9.82454204559326
endloop
endfacet
facet normal -0.312889695167542 -0.949789464473724 -8.55116419839173e-14
outer loop
vertex -1.70341444015503 -17.5144309997559 0.0589258670806885
vertex -1.70341444015503 -17.5144309997559 0.0910741314291954
vertex -1.89470183849335 -17.4514141082764 0.0599999986588955
endloop
endfacet
facet normal -0.312889665365219 -0.949789464473724 -0
outer loop
vertex -1.89470183849335 -17.4514141082764 0.0900000035762787
vertex -1.89470183849335 -17.4514141082764 0.0599999986588955
vertex -1.70341444015503 -17.5144309997559 0.0910741314291954
endloop
endfacet
facet normal -0.312889665365219 -0.949789464473724 -8.55116419839173e-14
outer loop
vertex -1.70341444015503 -17.5144309997559 0.0589258670806885
vertex -1.38121867179871 -17.6205711364746 0.0571166500449181
vertex -1.70341444015503 -17.5144309997559 0.0910741314291954
endloop
endfacet
facet normal -0.312889695167542 -0.949789464473724 -1.86743090609121e-13
outer loop
vertex -1.38121867179871 -17.6205711364746 0.0928833484649658
vertex -1.70341444015503 -17.5144309997559 0.0910741314291954
vertex -1.38121867179871 -17.6205711364746 0.0571166500449181
endloop
endfacet
facet normal -0.312889695167542 -0.949789464473724 2.48947980692428e-15
outer loop
vertex -0.838526666164398 -17.7993507385254 0.0540692806243896
vertex -0.838526666164398 -17.7993507385254 0.0959307178854942
vertex -1.38121867179871 -17.6205711364746 0.0571166500449181
endloop
endfacet
facet normal -0.312889695167542 -0.949789464473724 -1.86743090609121e-13
outer loop
vertex -1.38121867179871 -17.6205711364746 0.0928833484649658
vertex -1.38121867179871 -17.6205711364746 0.0571166500449181
vertex -0.838526666164398 -17.7993507385254 0.0959307178854942
endloop
endfacet
facet normal -0.312889665365219 -0.949789464473724 2.48947959516604e-15
outer loop
vertex -0.838526666164398 -17.7993507385254 0.0540692806243896
vertex 0.0755592584609985 -18.1004791259766 0.0489364340901375
vertex -0.838526666164398 -17.7993507385254 0.0959307178854942
endloop
endfacet
facet normal -0.312889695167542 -0.949789524078369 -4.90722066660062e-14
outer loop
vertex 0.0755592584609985 -18.1004791259766 0.101063564419746
vertex -0.838526666164398 -17.7993507385254 0.0959307178854942
vertex 0.0755592584609985 -18.1004791259766 0.0489364340901375
endloop
endfacet
facet normal -0.312889665365219 -0.949789464473724 2.20181471254251e-14
outer loop
vertex 1.61520445346832 -18.6076850891113 0.0402908958494663
vertex 1.61520445346832 -18.6076850891113 0.109709106385708
vertex 0.0755592584609985 -18.1004791259766 0.0489364340901375
endloop
endfacet
facet normal -0.312889665365219 -0.949789464473724 -4.90722032778744e-14
outer loop
vertex 0.0755592584609985 -18.1004791259766 0.101063564419746
vertex 0.0755592584609985 -18.1004791259766 0.0489364340901375
vertex 1.61520445346832 -18.6076850891113 0.109709106385708
endloop
endfacet
facet normal -0.312889695167542 -0.949789524078369 2.2018148819491e-14
outer loop
vertex 1.61520445346832 -18.6076850891113 0.0402908958494663
vertex 3.7012665271759 -19.2948970794678 0.0285770744085312
vertex 1.61520445346832 -18.6076850891113 0.109709106385708
endloop
endfacet
facet normal -0.312889695167542 -0.949789464473724 1.04760365760384e-14
outer loop
vertex 3.7012665271759 -19.2948970794678 0.121422924101353
vertex 1.61520445346832 -18.6076850891113 0.109709106385708
vertex 3.7012665271759 -19.2948970794678 0.0285770744085312
endloop
endfacet
facet normal -0.312889695167542 -0.949789464473724 1.04760365760384e-14
outer loop
vertex 3.7012665271759 -19.2948970794678 0.0285770744085312
vertex 5.79285860061646 -19.9839324951172 0.0168321989476681
vertex 3.7012665271759 -19.2948970794678 0.121422924101353
endloop
endfacet
facet normal -0.312889695167542 -0.949789464473724 -0
outer loop
vertex 5.79285860061646 -19.9839324951172 0.133167803287506
vertex 3.7012665271759 -19.2948970794678 0.121422924101353
vertex 5.79285860061646 -19.9839324951172 0.0168321989476681
endloop
endfacet
facet normal -0.312889695167542 -0.949789464473724 0
outer loop
vertex 5.79285860061646 -19.9839324951172 0.0168321989476681
vertex 7.88445091247559 -20.672966003418 0.00508732348680496
vertex 5.79285860061646 -19.9839324951172 0.133167803287506
endloop
endfacet
facet normal -0.312889665365219 -0.94978940486908 -1.6182489918394e-14
outer loop
vertex 7.88445091247559 -20.672966003418 0.144912675023079
vertex 5.79285860061646 -19.9839324951172 0.133167803287506
vertex 7.88445091247559 -20.672966003418 0.00508732348680496
endloop
endfacet
facet normal -0.312889695167542 -0.949789464473724 6.25374182777402e-14
outer loop
vertex 9.84745025634766 -21.3196392059326 -0.00593546777963638
vertex 9.84745025634766 -21.3196392059326 0.15593546628952
vertex 7.88445091247559 -20.672966003418 0.00508732348680496
endloop
endfacet
facet normal -0.312889695167542 -0.949789464473724 -1.61824916124599e-14
outer loop
vertex 7.88445091247559 -20.672966003418 0.144912675023079
vertex 7.88445091247559 -20.672966003418 0.00508732348680496
vertex 9.84745025634766 -21.3196392059326 0.15593546628952
endloop
endfacet
facet normal -0.312889665365219 -0.949789524078369 1.89364684685927e-14
outer loop
vertex 11.3007373809814 -21.7983951568604 -0.0140960775315762
vertex 11.3007373809814 -21.7983951568604 0.16409607231617
vertex 9.84745025634766 -21.3196392059326 -0.00593546777963638
endloop
endfacet
facet normal -0.312889665365219 -0.949789464473724 6.25374115014767e-14
outer loop
vertex 9.84745025634766 -21.3196392059326 0.15593546628952
vertex 9.84745025634766 -21.3196392059326 -0.00593546777963638
vertex 11.3007373809814 -21.7983951568604 0.16409607231617
endloop
endfacet
facet normal -0.312889695167542 -0.949789524078369 1.89364684685927e-14
outer loop
vertex 11.3007373809814 -21.7983951568604 -0.0140960775315762
vertex 12.3521404266357 -22.1447601318359 -0.0199999995529652
vertex 11.3007373809814 -21.7983951568604 0.16409607231617
endloop
endfacet
facet normal -0.312889665365219 -0.949789464473724 -0
outer loop
vertex 12.3521404266357 -22.1447601318359 0.170000001788139
vertex 11.3007373809814 -21.7983951568604 0.16409607231617
vertex 12.3521404266357 -22.1447601318359 -0.0199999995529652
endloop
endfacet
facet normal 0.0136163895949721 -0.00433086138218641 0.9998978972435
outer loop
vertex 12.449746131897 -21.8354511260986 -0.154328122735023
vertex 11.413516998291 -21.5073871612549 -0.138796031475067
vertex 12.3921566009521 -22.0165138244629 -0.154328122735023
endloop
endfacet
facet normal 0.013616387732327 -0.00433086091652513 0.9998978972435
outer loop
vertex 11.3568058013916 -21.6856880187988 -0.138796031475067
vertex 12.3921566009521 -22.0165138244629 -0.154328122735023
vertex 11.413516998291 -21.5073871612549 -0.138796031475067
endloop
endfacet
facet normal 0.0136163895949721 -0.00433086091652513 0.999897956848145
outer loop
vertex 11.3568058013916 -21.6856880187988 -0.138796031475067
vertex 11.413516998291 -21.5073871612549 -0.138796031475067
vertex 9.94481468200684 -21.2345123291016 -0.117613665759563
endloop
endfacet
facet normal 0.0136163895949721 -0.00433086138218641 0.9998978972435
outer loop
vertex 10.0003271102905 -21.0599784851074 -0.117613665759563
vertex 9.94481468200684 -21.2345123291016 -0.117613665759563
vertex 11.413516998291 -21.5073871612549 -0.138796031475067
endloop
endfacet
facet normal 0.0136163886636496 -0.00433086138218641 0.9998978972435
outer loop
vertex 9.94481468200684 -21.2345123291016 -0.117613665759563
vertex 10.0003271102905 -21.0599784851074 -0.117613665759563
vertex 8.04389953613281 -20.6271095275879 -0.0890965759754181
endloop
endfacet
facet normal 0.0136163886636496 -0.00433086091652513 0.9998978972435
outer loop
vertex 8.09779834747314 -20.457649230957 -0.0890965759754181
vertex 8.04389953613281 -20.6271095275879 -0.0890965759754181
vertex 10.0003271102905 -21.0599784851074 -0.117613665759563
endloop
endfacet
facet normal 0.0136163886636496 -0.00433086091652513 0.999897837638855
outer loop
vertex 8.09779834747314 -20.457649230957 -0.0890965759754181
vertex 6.04258060455322 -19.806978225708 -0.0582908205688
vertex 8.04389953613281 -20.6271095275879 -0.0890965759754181
endloop
endfacet
facet normal 0.013616387732327 -0.00433086091652513 0.9998978972435
outer loop
vertex 5.99042415618896 -19.9709606170654 -0.0582908205688
vertex 8.04389953613281 -20.6271095275879 -0.0890965759754181
vertex 6.04258060455322 -19.806978225708 -0.0582908205688
endloop
endfacet
facet normal 0.013616387732327 -0.00433086091652513 0.9998978972435
outer loop
vertex 6.04258060455322 -19.806978225708 -0.0582908205688
vertex 3.98736310005188 -19.156307220459 -0.0274850651621819
vertex 5.99042415618896 -19.9709606170654 -0.0582908205688
endloop
endfacet
facet normal 0.0136163895949721 -0.00433086138218641 0.999897956848145
outer loop
vertex 3.93694925308228 -19.3148097991943 -0.0274850651621819
vertex 5.99042415618896 -19.9709606170654 -0.0582908205688
vertex 3.98736310005188 -19.156307220459 -0.0274850651621819
endloop
endfacet
facet normal 0.0136163895949721 -0.00433086138218641 0.999897956848145
outer loop
vertex 3.98736310005188 -19.156307220459 -0.0274850651621819
vertex 1.93214535713196 -18.50563621521 0.0033206872176379
vertex 3.93694925308228 -19.3148097991943 -0.0274850651621819
endloop
endfacet
facet normal 0.0136163895949721 -0.00433086091652513 0.9998978972435
outer loop
vertex 1.88347411155701 -18.6586608886719 0.0033206872176379
vertex 3.93694925308228 -19.3148097991943 -0.0274850651621819
vertex 1.93214535713196 -18.50563621521 0.0033206872176379
endloop
endfacet
facet normal 0.0136163886636496 -0.00433086138218641 0.999897956848145
outer loop
vertex 1.88347411155701 -18.6586608886719 0.0033206872176379
vertex 1.93214535713196 -18.50563621521 0.0033206872176379
vertex 0.156340017914772 -18.1067867279053 0.0292307492345572
endloop
endfacet
facet normal 0.0136163895949721 -0.00433086138218641 0.999897956848145
outer loop
vertex 0.203545600175858 -17.9583702087402 0.0292307492345572
vertex 0.156340017914772 -18.1067867279053 0.0292307492345572
vertex 1.93214535713196 -18.50563621521 0.0033206872176379
endloop
endfacet
facet normal 0.0136163886636496 -0.00433086138218641 0.9998978972435
outer loop
vertex 0.203545600175858 -17.9583702087402 0.0292307492345572
vertex -1.00444781780243 -17.5759258270264 0.0473374202847481
vertex 0.156340017914772 -18.1067867279053 0.0292307492345572
endloop
endfacet
facet normal 0.0136163895949721 -0.00433086091652513 0.9998978972435
outer loop
vertex -1.05062913894653 -17.7211227416992 0.0473374202847481
vertex 0.156340017914772 -18.1067867279053 0.0292307492345572
vertex -1.00444781780243 -17.5759258270264 0.0473374202847481
endloop
endfacet
facet normal 0.0136163895949721 -0.00433086138218641 0.9998978972435
outer loop
vertex -1.00444781780243 -17.5759258270264 0.0473374202847481
vertex -1.84923672676086 -17.3084716796875 0.0599999986588955
vertex -1.05062913894653 -17.7211227416992 0.0473374202847481
endloop
endfacet
facet normal 0.0136163886636496 -0.00433086138218641 0.9998978972435
outer loop
vertex -1.89470183849335 -17.4514141082764 0.0599999986588955
vertex -1.05062913894653 -17.7211227416992 0.0473374202847481
vertex -1.84923672676086 -17.3084716796875 0.0599999986588955
endloop
endfacet
facet normal -0.224838241934776 -0.670454204082489 -0.707063674926758
outer loop
vertex 12.3932914733887 -22.0168704986572 -0.154348999261856
vertex 12.3519372940063 -22.1446933746338 -0.0199946276843548
vertex 11.154806137085 -21.6211357116699 -0.135769203305244
endloop
endfacet
facet normal -0.224838241934776 -0.670454204082489 -0.707063615322113
outer loop
vertex 11.1170244216919 -21.7378749847412 -0.0130606116726995
vertex 11.154806137085 -21.6211357116699 -0.135769203305244
vertex 12.3519372940063 -22.1446933746338 -0.0199946276843548
endloop
endfacet
facet normal -0.224838241934776 -0.670454144477844 -0.707063615322113
outer loop
vertex 11.154806137085 -21.6211357116699 -0.135769203305244
vertex 11.1170244216919 -21.7378749847412 -0.0130606116726995
vertex 9.10916614532471 -20.9674911499023 -0.105080433189869
endloop
endfacet
facet normal -0.224838227033615 -0.670454144477844 -0.707063615322113
outer loop
vertex 9.07733631134033 -21.065938949585 -0.00160779745783657
vertex 9.10916614532471 -20.9674911499023 -0.105080433189869
vertex 11.1170244216919 -21.7378749847412 -0.0130606116726995
endloop
endfacet
facet normal -0.224838241934776 -0.670454204082489 -0.707063615322113
outer loop
vertex 9.10916614532471 -20.9674911499023 -0.105080433189869
vertex 9.07733631134033 -21.065938949585 -0.00160779745783657
vertex 6.90839290618896 -20.2642765045166 -0.0720643475651741
endloop
endfacet
facet normal -0.224838241934776 -0.670454144477844 -0.707063555717468
outer loop
vertex 6.88292837142944 -20.3430347442627 0.0107137616723776
vertex 6.90839290618896 -20.2642765045166 -0.0720643475651741
vertex 9.07733631134033 -21.065938949585 -0.00160779745783657
endloop
endfacet
facet normal -0.224838241934776 -0.670454144477844 -0.707063555717468
outer loop
vertex 6.88292837142944 -20.3430347442627 0.0107137616723776
vertex 4.68852090835571 -19.6201286315918 0.0230353213846684
vertex 6.90839290618896 -20.2642765045166 -0.0720643475651741
endloop
endfacet
facet normal -0.224838241934776 -0.670454144477844 -0.707063615322113
outer loop
vertex 4.70761919021606 -19.5610599517822 -0.039048258215189
vertex 6.90839290618896 -20.2642765045166 -0.0720643475651741
vertex 4.68852090835571 -19.6201286315918 0.0230353213846684
endloop
endfacet
facet normal -0.224838241934776 -0.670454144477844 -0.707063615322113
outer loop
vertex 4.70761919021606 -19.5610599517822 -0.039048258215189
vertex 4.68852090835571 -19.6201286315918 0.0230353213846684
vertex 2.50684547424316 -18.8578453063965 -0.00603217259049416
endloop
endfacet
facet normal -0.224838241934776 -0.670454144477844 -0.707063555717468
outer loop
vertex 2.49411344528198 -18.8972244262695 0.035356879234314
vertex 2.50684547424316 -18.8578453063965 -0.00603217259049416
vertex 4.68852090835571 -19.6201286315918 0.0230353213846684
endloop
endfacet
facet normal -0.224838241934776 -0.670454144477844 -0.707063555717468
outer loop
vertex 2.49411344528198 -18.8972244262695 0.035356879234314
vertex 0.299705773591995 -18.1743202209473 0.0476784408092499
vertex 2.50684547424316 -18.8578453063965 -0.00603217259049416
endloop
endfacet
facet normal -0.224838241934776 -0.670454144477844 -0.707063555717468
outer loop
vertex 0.306071847677231 -18.1546306610107 0.0269839130342007
vertex 2.50684547424316 -18.8578453063965 -0.00603217259049416
vertex 0.299705773591995 -18.1743202209473 0.0476784408092499
endloop
endfacet
facet normal -0.224838241934776 -0.670454144477844 -0.707063555717468
outer loop
vertex 0.299705773591995 -18.1743202209473 0.0476784408092499
vertex -1.89470183849335 -17.4514141082764 0.0599999986588955
vertex 0.306071847677231 -18.1546306610107 0.0269839130342007
endloop
endfacet
facet normal -0.952653229236603 0.303003162145615 0.0253168605268002
outer loop
vertex -1.48128592967987 -17.4045143127441 15.0851917266846
vertex -1.50795090198517 -17.397554397583 13.9985094070435
vertex -1.53887498378754 -17.5855770111084 15.0851917266846
endloop
endfacet
facet normal -0.952653229236603 0.303003162145615 0.0253168605268002
outer loop
vertex -1.56466126441956 -17.575855255127 13.9985094070435
vertex -1.53887498378754 -17.5855770111084 15.0851917266846
vertex -1.50795090198517 -17.397554397583 13.9985094070435
endloop
endfacet
facet normal -0.952653229236603 0.303003162145615 0.0253168605268002
outer loop
vertex -1.56466126441956 -17.575855255127 13.9985094070435
vertex -1.50795090198517 -17.397554397583 13.9985094070435
vertex -1.59982824325562 -17.5625953674316 12.5165119171143
endloop
endfacet
facet normal -0.952653169631958 0.303003132343292 0.025316858664155
outer loop
vertex -1.5443160533905 -17.3880615234375 12.5165119171143
vertex -1.59982824325562 -17.5625953674316 12.5165119171143
vertex -1.50795090198517 -17.397554397583 13.9985094070435
endloop
endfacet
facet normal -0.952653169631958 0.303003162145615 0.0253168605268002
outer loop
vertex -1.59982824325562 -17.5625953674316 12.5165119171143
vertex -1.5443160533905 -17.3880615234375 12.5165119171143
vertex -1.64717221260071 -17.5447444915771 10.5213508605957
endloop
endfacet
facet normal -0.952653169631958 0.303003132343292 0.0253168605268002
outer loop
vertex -1.5932731628418 -17.3752841949463 10.5213508605957
vertex -1.64717221260071 -17.5447444915771 10.5213508605957
vertex -1.5443160533905 -17.3880615234375 12.5165119171143
endloop
endfacet
facet normal -0.952653288841248 0.303003191947937 0.0253168642520905
outer loop
vertex -1.5932731628418 -17.3752841949463 10.5213508605957
vertex -1.6461592912674 -17.361478805542 8.36606597900391
vertex -1.64717221260071 -17.5447444915771 10.5213508605957
endloop
endfacet
facet normal -0.952653169631958 0.303003132343292 0.025316858664155
outer loop
vertex -1.69831573963165 -17.5254611968994 8.36606597900391
vertex -1.64717221260071 -17.5447444915771 10.5213508605957
vertex -1.6461592912674 -17.361478805542 8.36606597900391
endloop
endfacet
facet normal -0.952653169631958 0.303003132343292 0.025316858664155
outer loop
vertex -1.6461592912674 -17.361478805542 8.36606597900391
vertex -1.69904553890228 -17.3476734161377 6.21078062057495
vertex -1.69831573963165 -17.5254611968994 8.36606597900391
endloop
endfacet
facet normal -0.952653229236603 0.303003162145615 0.0253168605268002
outer loop
vertex -1.74945938587189 -17.5061779022217 6.21078062057495
vertex -1.69831573963165 -17.5254611968994 8.36606597900391
vertex -1.69904553890228 -17.3476734161377 6.21078062057495
endloop
endfacet
facet normal -0.952653229236603 0.303003162145615 0.0253168605268002
outer loop
vertex -1.69904553890228 -17.3476734161377 6.21078062057495
vertex -1.75193178653717 -17.333869934082 4.055495262146
vertex -1.74945938587189 -17.5061779022217 6.21078062057495
endloop
endfacet
facet normal -0.952653229236603 0.303003162145615 0.0253168605268002
outer loop
vertex -1.80060303211212 -17.4868946075439 4.055495262146
vertex -1.74945938587189 -17.5061779022217 6.21078062057495
vertex -1.75193178653717 -17.333869934082 4.055495262146
endloop
endfacet
facet normal -0.952653169631958 0.303003132343292 0.0253168568015099
outer loop
vertex -1.80060303211212 -17.4868946075439 4.055495262146
vertex -1.75193178653717 -17.333869934082 4.055495262146
vertex -1.8436187505722 -17.4706745147705 2.24273109436035
endloop
endfacet
facet normal -0.952653229236603 0.303003162145615 0.025316858664155
outer loop
vertex -1.79641318321228 -17.3222599029541 2.24273109436035
vertex -1.8436187505722 -17.4706745147705 2.24273109436035
vertex -1.75193178653717 -17.333869934082 4.055495262146
endloop
endfacet
facet normal -0.952653169631958 0.303003162145615 0.0253168605268002
outer loop
vertex -1.79641318321228 -17.3222599029541 2.24273109436035
vertex -1.82749807834625 -17.3141441345215 0.975921273231506
vertex -1.8436187505722 -17.4706745147705 2.24273109436035
endloop
endfacet
facet normal -0.952653229236603 0.303003162145615 0.025316858664155
outer loop
vertex -1.87367939949036 -17.4593410491943 0.975921273231506
vertex -1.8436187505722 -17.4706745147705 2.24273109436035
vertex -1.82749807834625 -17.3141441345215 0.975921273231506
endloop
endfacet
facet normal -0.952653229236603 0.303003162145615 0.0253168623894453
outer loop
vertex -1.82749807834625 -17.3141441345215 0.975921273231506
vertex -1.84923672676086 -17.3084716796875 0.0900000035762787
vertex -1.87367939949036 -17.4593410491943 0.975921273231506
endloop
endfacet
facet normal -0.952653169631958 0.303003132343292 0.0253168605268002
outer loop
vertex -1.89470183849335 -17.4514141082764 0.0900000035762787
vertex -1.87367939949036 -17.4593410491943 0.975921273231506
vertex -1.84923672676086 -17.3084716796875 0.0900000035762787
endloop
endfacet
facet normal 0.202437222003937 0.677580833435059 -0.707038462162018
outer loop
vertex 1.62181508541107 -7.2815146446228 10.6930208206177
vertex 1.36776530742645 -8.02216243743896 9.91049194335938
vertex 1.44070029258728 -7.22417497634888 10.6961154937744
endloop
endfacet
facet normal 0.202437236905098 0.677580833435059 -0.707038462162018
outer loop
vertex 1.19790613651276 -7.96838617324829 9.91339492797852
vertex 1.44070029258728 -7.22417497634888 10.6961154937744
vertex 1.36776530742645 -8.02216243743896 9.91049194335938
endloop
endfacet
facet normal 0.202437236905098 0.677580893039703 -0.707038521766663
outer loop
vertex 1.19790613651276 -7.96838617324829 9.91339492797852
vertex 1.36776530742645 -8.02216243743896 9.91049194335938
vertex 0.862307548522949 -8.99706077575684 8.83148956298828
endloop
endfacet
facet normal 0.202437236905098 0.677580833435059 -0.707038462162018
outer loop
vertex 1.01660859584808 -9.04591178894043 8.82885360717773
vertex 0.862307548522949 -8.99706077575684 8.83148956298828
vertex 1.36776530742645 -8.02216243743896 9.91049194335938
endloop
endfacet
facet normal 0.202437222003937 0.677580833435059 -0.707038462162018
outer loop
vertex 0.862307548522949 -8.99706077575684 8.83148956298828
vertex 1.01660859584808 -9.04591178894043 8.82885360717773
vertex 0.409003913402557 -10.3865251541138 7.37012767791748
endloop
endfacet
facet normal 0.202437236905098 0.677580833435059 -0.707038462162018
outer loop
vertex 0.542290389537811 -10.4287223815918 7.36784982681274
vertex 0.409003913402557 -10.3865251541138 7.37012767791748
vertex 1.01660859584808 -9.04591178894043 8.82885360717773
endloop
endfacet
facet normal 0.202437236905098 0.677580833435059 -0.707038462162018
outer loop
vertex 0.542290389537811 -10.4287223815918 7.36784982681274
vertex 0.0369003675878048 -11.9021186828613 5.81113862991333
vertex 0.409003913402557 -10.3865251541138 7.37012767791748
endloop
endfacet
facet normal 0.202437222003937 0.677580833435059 -0.707038462162018
outer loop
vertex -0.0739948600530624 -11.8670101165771 5.81303358078003
vertex 0.409003913402557 -10.3865251541138 7.37012767791748
vertex 0.0369003675878048 -11.9021186828613 5.81113862991333
endloop
endfacet
facet normal 0.202437222003937 0.677580833435059 -0.707038462162018
outer loop
vertex 0.0369003675878048 -11.9021186828613 5.81113862991333
vertex -0.468489646911621 -13.3755149841309 4.25442743301392
vertex -0.0739948600530624 -11.8670101165771 5.81303358078003
endloop
endfacet
facet normal 0.202437207102776 0.677580833435059 -0.707038462162018
outer loop
vertex -0.55699360370636 -13.3474950790405 4.25593996047974
vertex -0.0739948600530624 -11.8670101165771 5.81303358078003
vertex -0.468489646911621 -13.3755149841309 4.25442743301392
endloop
endfacet
facet normal 0.202437207102776 0.677580833435059 -0.707038402557373
outer loop
vertex -0.468489646911621 -13.3755149841309 4.25442743301392
vertex -0.97254341840744 -14.8450145721436 2.70183229446411
vertex -0.55699360370636 -13.3474950790405 4.25593996047974
endloop
endfacet
facet normal 0.202437222003937 0.677580773830414 -0.707038462162018
outer loop
vertex -1.03871536254883 -14.8240652084351 2.70296287536621
vertex -0.55699360370636 -13.3474950790405 4.25593996047974
vertex -0.97254341840744 -14.8450145721436 2.70183229446411
endloop
endfacet
facet normal 0.202437236905098 0.677580833435059 -0.707038462162018
outer loop
vertex -1.03871536254883 -14.8240652084351 2.70296287536621
vertex -0.97254341840744 -14.8450145721436 2.70183229446411
vertex -1.39425623416901 -15.9138669967651 1.55676829814911
endloop
endfacet
facet normal 0.202437222003937 0.677580833435059 -0.707038402557373
outer loop
vertex -1.344566822052 -15.9295988082886 1.55591928958893
vertex -1.39425623416901 -15.9138669967651 1.55676829814911
vertex -0.97254341840744 -14.8450145721436 2.70183229446411
endloop
endfacet
facet normal 0.202437236905098 0.677580833435059 -0.707038462162018
outer loop
vertex -1.344566822052 -15.9295988082886 1.55591928958893
vertex -1.56543684005737 -16.5735149383545 0.875591695308685
vertex -1.39425623416901 -15.9138669967651 1.55676829814911
endloop
endfacet
facet normal 0.202437236905098 0.677580893039703 -0.707038462162018
outer loop
vertex -1.60534060001373 -16.5608825683594 0.876273572444916
vertex -1.39425623416901 -15.9138669967651 1.55676829814911
vertex -1.56543684005737 -16.5735149383545 0.875591695308685
endloop
endfacet
facet normal 0.202437222003937 0.677580833435059 -0.707038462162018
outer loop
vertex -1.60534060001373 -16.5608825683594 0.876273572444916
vertex -1.56543684005737 -16.5735149383545 0.875591695308685
vertex -1.73066115379333 -16.9450130462646 0.472264438867569
endloop
endfacet
facet normal 0.202437236905098 0.677580833435059 -0.707038521766663
outer loop
vertex -1.69656705856323 -16.9558086395264 0.471681863069534
vertex -1.73066115379333 -16.9450130462646 0.472264438867569
vertex -1.56543684005737 -16.5735149383545 0.875591695308685
endloop
endfacet
facet normal 0.202437222003937 0.677580833435059 -0.707038462162018
outer loop
vertex -1.69656705856323 -16.9558086395264 0.471681863069534
vertex -1.77441906929016 -17.1827735900879 0.231880947947502
vertex -1.73066115379333 -16.9450130462646 0.472264438867569
endloop
endfacet
facet normal 0.202437236905098 0.677580833435059 -0.707038462162018
outer loop
vertex -1.8050639629364 -17.1730728149414 0.232404589653015
vertex -1.73066115379333 -16.9450130462646 0.472264438867569
vertex -1.77441906929016 -17.1827735900879 0.231880947947502
endloop
endfacet
facet normal 0.202437207102776 0.677580773830414 -0.707038402557373
outer loop
vertex -1.8050639629364 -17.1730728149414 0.232404589653015
vertex -1.77441906929016 -17.1827735900879 0.231880947947502
vertex -1.84923672676086 -17.3084716796875 0.0900000035762787
endloop
endfacet
facet normal 0.202437236905098 0.677580893039703 -0.707038462162018
outer loop
vertex -1.82063972949982 -17.3175239562988 0.0895113572478294
vertex -1.84923672676086 -17.3084716796875 0.0900000035762787
vertex -1.77441906929016 -17.1827735900879 0.231880947947502
endloop
endfacet
facet normal -0.2230264544487 -0.670974552631378 0.707143783569336
outer loop
vertex 1.62111914157867 -7.28374814987183 10.6964912414551
vertex 1.44065356254578 -7.22431802749634 10.6959648132324
vertex 1.32030761241913 -8.15269374847412 9.77711772918701
endloop
endfacet
facet normal -0.2230264544487 -0.670974552631378 0.707143783569336
outer loop
vertex 1.15548205375671 -8.09842395782471 9.77662754058838
vertex 1.32030761241913 -8.15269374847412 9.77711772918701
vertex 1.44065356254578 -7.22431802749634 10.6959648132324
endloop
endfacet
facet normal -0.223026439547539 -0.670974552631378 0.707143843173981
outer loop
vertex 1.32030761241913 -8.15269374847412 9.77711772918701
vertex 1.15548205375671 -8.09842395782471 9.77662754058838
vertex 0.823449909687042 -9.58795356750488 8.25856590270996
endloop
endfacet
facet normal -0.2230264544487 -0.670974552631378 0.707143843173981
outer loop
vertex 0.684469103813171 -9.54217052459717 8.25817394256592
vertex 0.823449909687042 -9.58795356750488 8.25856590270996
vertex 1.15548205375671 -8.09842395782471 9.77662754058838
endloop
endfacet
facet normal -0.2230264544487 -0.670974552631378 0.707143783569336
outer loop
vertex 0.823449909687042 -9.58795356750488 8.25856590270996
vertex 0.684469103813171 -9.54217052459717 8.25817394256592
vertex 0.28891259431839 -11.1320571899414 6.62485218048096
endloop
endfacet
facet normal -0.223026469349861 -0.670974552631378 0.707143843173981
outer loop
vertex 0.177727922797203 -11.0954303741455 6.62453889846802
vertex 0.28891259431839 -11.1320571899414 6.62485218048096
vertex 0.684469103813171 -9.54217052459717 8.25817394256592
endloop
endfacet
facet normal -0.223026469349861 -0.670974552631378 0.707143843173981
outer loop
vertex 0.177727922797203 -11.0954303741455 6.62453889846802
vertex -0.329013258218765 -12.6486902236938 4.99090433120728
vertex 0.28891259431839 -11.1320571899414 6.62485218048096
endloop
endfacet
facet normal -0.223026469349861 -0.670974552631378 0.707143843173981
outer loop
vertex -0.245624750852585 -12.6761598587036 4.99113941192627
vertex 0.28891259431839 -11.1320571899414 6.62485218048096
vertex -0.329013258218765 -12.6486902236938 4.99090433120728
endloop
endfacet
facet normal -0.223026469349861 -0.670974552631378 0.707143843173981
outer loop
vertex -0.245624750852585 -12.6761598587036 4.99113941192627
vertex -0.329013258218765 -12.6486902236938 4.99090433120728
vertex -0.78016209602356 -14.2202634811401 3.35742616653442
endloop
endfacet
facet normal -0.223026469349861 -0.670974552631378 0.707143843173981
outer loop
vertex -0.83575439453125 -14.2019510269165 3.35726928710938
vertex -0.78016209602356 -14.2202634811401 3.35742616653442
vertex -0.329013258218765 -12.6486902236938 4.99090433120728
endloop
endfacet
facet normal -0.223026469349861 -0.670974552631378 0.707143843173981
outer loop
vertex -0.83575439453125 -14.2019510269165 3.35726928710938
vertex -1.34249556064606 -15.7552108764648 1.72363471984863
vertex -0.78016209602356 -14.2202634811401 3.35742616653442
endloop
endfacet
facet normal -0.223026469349861 -0.670974552631378 0.707143843173981
outer loop
vertex -1.31469941139221 -15.7643671035767 1.72371304035187
vertex -0.78016209602356 -14.2202634811401 3.35742616653442
vertex -1.34249556064606 -15.7552108764648 1.72363471984863
endloop
endfacet
facet normal -0.223026469349861 -0.670974552631378 0.707143843173981
outer loop
vertex -1.34249556064606 -15.7552108764648 1.72363471984863
vertex -1.84923672676086 -17.3084716796875 0.0900000035762787
vertex -1.31469941139221 -15.7643671035767 1.72371304035187
endloop
endfacet
facet normal -0.312884092330933 -0.949790716171265 -0.00107325450517237
outer loop
vertex -0.00219799159094691 -18.0899314880371 13.4352169036865
vertex -1.53887498378754 -17.5855770111084 15.0851917266846
vertex -0.0220439899712801 -18.0833702087402 13.4147338867188
endloop
endfacet
facet normal -0.312884092330933 -0.949790716171265 -0.00107325450517237
outer loop
vertex -0.0220439899712801 -18.0833702087402 13.4147338867188
vertex 1.49478697776794 -18.5811634063721 11.7442750930786
vertex -0.00219799159094691 -18.0899314880371 13.4352169036865
endloop
endfacet
facet normal -0.312884092330933 -0.949790716171265 -0.00107325450517237
outer loop
vertex 1.53447902202606 -18.5942859649658 11.7852411270142
vertex -0.00219799159094691 -18.0899314880371 13.4352169036865
vertex 1.49478697776794 -18.5811634063721 11.7442750930786
endloop
endfacet
facet normal -0.312884092330933 -0.949790716171265 -0.00107325450517237
outer loop
vertex 1.49478697776794 -18.5811634063721 11.7442750930786
vertex 3.01161789894104 -19.0789566040039 10.0738162994385
vertex 1.53447902202606 -18.5942859649658 11.7852411270142
endloop
endfacet
facet normal -0.31288406252861 -0.94979065656662 -0.00107325438875705
outer loop
vertex 3.07115602493286 -19.0986385345459 10.1352663040161
vertex 1.53447902202606 -18.5942859649658 11.7852411270142
vertex 3.01161789894104 -19.0789566040039 10.0738162994385
endloop
endfacet
facet normal -0.31288406252861 -0.94979065656662 -0.00107325438875705
outer loop
vertex 3.01161789894104 -19.0789566040039 10.0738162994385
vertex 4.52844905853271 -19.5767498016357 8.40335750579834
vertex 3.07115602493286 -19.0986385345459 10.1352663040161
endloop
endfacet
facet normal -0.312884092330933 -0.949790716171265 -0.00107325450517237
outer loop
vertex 4.60783290863037 -19.6029930114746 8.48529052734375
vertex 3.07115602493286 -19.0986385345459 10.1352663040161
vertex 4.52844905853271 -19.5767498016357 8.40335750579834
endloop
endfacet
facet normal -0.31288406252861 -0.949790716171265 -0.00107325438875705
outer loop
vertex 6.14450979232788 -20.1073474884033 6.83531522750854
vertex 4.60783290863037 -19.6029930114746 8.48529052734375
vertex 6.04527997970581 -20.0745429992676 6.73289918899536
endloop
endfacet
facet normal -0.312884092330933 -0.949790716171265 -0.00107325450517237
outer loop
vertex 4.52844905853271 -19.5767498016357 8.40335750579834
vertex 6.04527997970581 -20.0745429992676 6.73289918899536
vertex 4.60783290863037 -19.6029930114746 8.48529052734375
endloop
endfacet
facet normal -0.31288406252861 -0.949790716171265 -0.00107325438875705
outer loop
vertex 6.14450979232788 -20.1073474884033 6.83531522750854
vertex 6.04527997970581 -20.0745429992676 6.73289918899536
vertex 7.57284212112427 -20.5761413574219 5.301673412323
endloop
endfacet
facet normal -0.31288406252861 -0.949790775775909 -0.00107325438875705
outer loop
vertex 7.4551887512207 -20.5372467041016 5.18019199371338
vertex 7.57284212112427 -20.5761413574219 5.301673412323
vertex 6.04527997970581 -20.0745429992676 6.73289918899536
endloop
endfacet
facet normal -0.31288406252861 -0.949790716171265 -0.00107325450517237
outer loop
vertex 7.57284212112427 -20.5761413574219 5.301673412323
vertex 7.4551887512207 -20.5372467041016 5.18019199371338
vertex 8.43761444091797 -20.8599700927734 4.37314224243164
endloop
endfacet
facet normal -0.31288406252861 -0.949790716171265 -0.00107325438875705
outer loop
vertex 8.3087854385376 -20.8173809051514 4.24014139175415
vertex 8.43761444091797 -20.8599700927734 4.37314224243164
vertex 7.4551887512207 -20.5372467041016 5.18019199371338
endloop
endfacet
facet normal -1 0 0
outer loop
vertex -0.214350000023842 -16 0.170000001788139
vertex -0.214350000023842 -15 0.170000001788139
vertex -0.214350000023842 -16 -0.0199999995529652
endloop
endfacet
facet normal -1 0 0
outer loop
vertex -0.214350000023842 -15 -0.0199999995529652
vertex -0.214350000023842 -16 -0.0199999995529652
vertex -0.214350000023842 -15 0.170000001788139
endloop
endfacet
facet normal -0.70710676908493 0 -0.70710676908493
outer loop
vertex -0.214350000023842 -16 -0.0199999995529652
vertex -0.214350000023842 -15 -0.0199999995529652
vertex -0.0799999982118607 -16 -0.154349997639656
endloop
endfacet
facet normal -0.70710676908493 -0 -0.70710676908493
outer loop
vertex -0.0799999982118607 -15 -0.154349997639656
vertex -0.0799999982118607 -16 -0.154349997639656
vertex -0.214350000023842 -15 -0.0199999995529652
endloop
endfacet
facet normal -0.70710676908493 0 0.70710676908493
outer loop
vertex -0.0799999982118607 -16 0.304349988698959
vertex -0.0799999982118607 -15 0.304349988698959
vertex -0.214350000023842 -16 0.170000001788139
endloop
endfacet
facet normal -0.70710676908493 0 0.70710676908493
outer loop
vertex -0.214350000023842 -15 0.170000001788139
vertex -0.214350000023842 -16 0.170000001788139
vertex -0.0799999982118607 -15 0.304349988698959
endloop
endfacet
facet normal 0 0 -1
outer loop
vertex -0.0799999982118607 -16 -0.154349997639656
vertex -0.0799999982118607 -15 -0.154349997639656
vertex 0.109999999403954 -16 -0.154349997639656
endloop
endfacet
facet normal -0 -0 -1
outer loop
vertex 0.109999999403954 -15 -0.154349997639656
vertex 0.109999999403954 -16 -0.154349997639656
vertex -0.0799999982118607 -15 -0.154349997639656
endloop
endfacet
facet normal -0 0 1
outer loop
vertex -0.0799999982118607 -15 0.304349988698959
vertex -0.0799999982118607 -16 0.304349988698959
vertex 0.109999999403954 -15 0.304349988698959
endloop
endfacet
facet normal 0 -0 1
outer loop
vertex 0.109999999403954 -16 0.304349988698959
vertex 0.109999999403954 -15 0.304349988698959
vertex -0.0799999982118607 -16 0.304349988698959
endloop
endfacet
facet normal 0.70710676908493 0 -0.70710676908493
outer loop
vertex 0.244350001215935 -15 -0.0199999995529652
vertex 0.244350001215935 -16 -0.0199999995529652
vertex 0.109999999403954 -15 -0.154349997639656
endloop
endfacet
facet normal 0.70710676908493 0 -0.70710676908493
outer loop
vertex 0.109999999403954 -16 -0.154349997639656
vertex 0.109999999403954 -15 -0.154349997639656
vertex 0.244350001215935 -16 -0.0199999995529652
endloop
endfacet
facet normal 0.70710676908493 0 0.70710676908493
outer loop
vertex 0.109999999403954 -15 0.304349988698959
vertex 0.109999999403954 -16 0.304349988698959
vertex 0.244350001215935 -15 0.170000001788139
endloop
endfacet
facet normal 0.70710676908493 -0 0.70710676908493
outer loop
vertex 0.244350001215935 -16 0.170000001788139
vertex 0.244350001215935 -15 0.170000001788139
vertex 0.109999999403954 -16 0.304349988698959
endloop
endfacet
facet normal 1 0 0
outer loop
vertex 0.244350001215935 -15 0.170000001788139
vertex 0.244350001215935 -16 0.170000001788139
vertex 0.244350001215935 -15 -0.0199999995529652
endloop
endfacet
facet normal 1 0 0
outer loop
vertex 0.244350001215935 -16 -0.0199999995529652
vertex 0.244350001215935 -15 -0.0199999995529652
vertex 0.244350001215935 -16 0.170000001788139
endloop
endfacet
facet normal -0 0.0102894557639956 0.999947071075439
outer loop
vertex -0.0799999982118607 -14.9992055892944 0.304341822862625
vertex 0.109999999403954 -14.9992055892944 0.304341822862625
vertex -0.0740960761904716 -13.8922786712646 0.292951554059982
endloop
endfacet
facet normal -4.14080817762313e-16 0.0102894557639956 0.999947071075439
outer loop
vertex 0.104096077382565 -13.8922786712646 0.292951554059982
vertex -0.0740960761904716 -13.8922786712646 0.292951554059982
vertex 0.109999999403954 -14.9992055892944 0.304341822862625
endloop
endfacet
facet normal -4.14080870701872e-16 0.0102894566953182 0.999947071075439
outer loop
vertex 0.104096077382565 -13.8922786712646 0.292951554059982
vertex 0.0959354713559151 -12.3622455596924 0.277207523584366
vertex -0.0740960761904716 -13.8922786712646 0.292951554059982
endloop
endfacet
facet normal -3.42916471196016e-16 0.0102894548326731 0.999947071075439
outer loop
vertex -0.0659354701638222 -12.3622455596924 0.277207523584366
vertex -0.0740960761904716 -13.8922786712646 0.292951554059982
vertex 0.0959354713559151 -12.3622455596924 0.277207523584366
endloop
endfacet
facet normal -3.42916497665796e-16 0.0102894557639956 0.999947071075439
outer loop
vertex -0.0659354701638222 -12.3622455596924 0.277207523584366
vertex 0.0959354713559151 -12.3622455596924 0.277207523584366
vertex -0.0549126751720905 -10.295581817627 0.255941540002823
endloop
endfacet
facet normal -6.632465441557e-16 0.0102894557639956 0.999947071075439
outer loop
vertex 0.0849126800894737 -10.295581817627 0.255941540002823
vertex -0.0549126751720905 -10.295581817627 0.255941540002823
vertex 0.0959354713559151 -12.3622455596924 0.277207523584366
endloop
endfacet
facet normal -6.632465441557e-16 0.0102894557639956 0.999947071075439
outer loop
vertex 0.0849126800894737 -10.295581817627 0.255941540002823
vertex 0.0731678009033203 -8.09353446960449 0.233282461762428
vertex -0.0549126751720905 -10.295581817627 0.255941540002823
endloop
endfacet
facet normal 8.14571137469718e-17 0.0102894548326731 0.999947071075439
outer loop
vertex -0.0431677997112274 -8.09353446960449 0.233282461762428
vertex -0.0549126751720905 -10.295581817627 0.255941540002823
vertex 0.0731678009033203 -8.09353446960449 0.233282461762428
endloop
endfacet
facet normal 8.14571137469718e-17 0.0102894548326731 0.999947071075439
outer loop
vertex -0.0431677997112274 -8.09353446960449 0.233282461762428
vertex 0.0731678009033203 -8.09353446960449 0.233282461762428
vertex -0.0314229242503643 -5.89148664474487 0.210623398423195
endloop
endfacet
facet normal 1.02065537850232e-16 0.0102894548326731 0.999947011470795
outer loop
vertex 0.0614229254424572 -5.89148664474487 0.210623398423195
vertex -0.0314229242503643 -5.89148664474487 0.210623398423195
vertex 0.0731678009033203 -8.09353446960449 0.233282461762428
endloop
endfacet
facet normal 1.02065537850232e-16 0.0102894548326731 0.999947011470795
outer loop
vertex 0.0614229254424572 -5.89148664474487 0.210623398423195
vertex 0.0497091040015221 -3.69526147842407 0.188024237751961
vertex -0.0314229242503643 -5.89148664474487 0.210623398423195
endloop
endfacet
facet normal -5.26598001027834e-16 0.0102894557639956 0.999947130680084
outer loop
vertex -0.0197091046720743 -3.69526147842407 0.188024237751961
vertex -0.0314229242503643 -5.89148664474487 0.210623398423195
vertex 0.0497091040015221 -3.69526147842407 0.188024237751961
endloop
endfacet
facet normal -5.26597948088275e-16 0.0102894548326731 0.999947011470795
outer loop
vertex -0.0197091046720743 -3.69526147842407 0.188024237751961
vertex 0.0497091040015221 -3.69526147842407 0.188024237751961
vertex -0.0110635664314032 -2.0743088722229 0.171344637870789
endloop
endfacet
facet normal -5.3243114635866e-16 0.0102894566953182 0.999947071075439
outer loop
vertex 0.0410635657608509 -2.0743088722229 0.171344637870789
vertex -0.0110635664314032 -2.0743088722229 0.171344637870789
vertex 0.0497091040015221 -3.69526147842407 0.188024237751961
endloop
endfacet
facet normal -5.32431093419101e-16 0.0102894557639956 0.999947130680084
outer loop
vertex 0.0410635657608509 -2.0743088722229 0.171344637870789
vertex 0.0359307192265987 -1.11195087432861 0.161441966891289
vertex -0.0110635664314032 -2.0743088722229 0.171344637870789
endloop
endfacet
facet normal -0 0.0102894557639956 0.999947130680084
outer loop
vertex -0.00593071850016713 -1.11195087432861 0.161441966891289
vertex -0.0110635664314032 -2.0743088722229 0.171344637870789
vertex 0.0359307192265987 -1.11195087432861 0.161441966891289
endloop
endfacet
facet normal -0 0.0102894557639956 0.999947071075439
outer loop
vertex -0.00593071850016713 -1.11195087432861 0.161441966891289
vertex 0.0359307192265987 -1.11195087432861 0.161441966891289
vertex -0.00288335117511451 -0.540599703788757 0.155562773346901
endloop
endfacet
facet normal -1.59695872871292e-16 0.0102894548326731 0.999947071075439
outer loop
vertex 0.0328833498060703 -0.540599703788757 0.155562773346901
vertex -0.00288335117511451 -0.540599703788757 0.155562773346901
vertex 0.0359307192265987 -1.11195087432861 0.161441966891289
endloop
endfacet
facet normal -1.59695886106182e-16 0.0102894557639956 0.999947130680084
outer loop
vertex 0.0328833498060703 -0.540599703788757 0.155562773346901
vertex 0.0310741327702999 -0.2013890594244 0.152072295546532
vertex -0.00288335117511451 -0.540599703788757 0.155562773346901
endloop
endfacet
facet normal -6.85645430473334e-16 0.0102894548326731 0.999947071075439
outer loop
vertex -0.00107413181103766 -0.2013890594244 0.152072295546532
vertex -0.00288335117511451 -0.540599703788757 0.155562773346901
vertex 0.0310741327702999 -0.2013890594244 0.152072295546532
endloop
endfacet
facet normal -6.85645483412893e-16 0.0102894557639956 0.999947071075439
outer loop
vertex -0.00107413181103766 -0.2013890594244 0.152072295546532
vertex 0.0310741327702999 -0.2013890594244 0.152072295546532
vertex 0 0 0.150000005960464
endloop
endfacet
facet normal 0 0.0102894557639956 0.999947130680084
outer loop
vertex 0.0299999993294477 0 0.150000005960464
vertex 0 0 0.150000005960464
vertex 0.0310741327702999 -0.2013890594244 0.152072295546532
endloop
endfacet
facet normal -0.9998978972435 -0.0142885409295559 0
outer loop
vertex 0.244328111410141 -14.9984683990479 -0.0199999995529652
vertex 0.244328111410141 -14.9984683990479 0.170000001788139
vertex 0.228796035051346 -13.911548614502 -0.0185506250709295
endloop
endfacet
facet normal -0.9998978972435 -0.0142885399982333 -2.53466420377785e-17
outer loop
vertex 0.228796035051346 -13.911548614502 0.168550625443459
vertex 0.228796035051346 -13.911548614502 -0.0185506250709295
vertex 0.244328111410141 -14.9984683990479 0.170000001788139
endloop
endfacet
facet normal -0.999897956848145 -0.0142885418608785 -2.53466420377785e-17
outer loop
vertex 0.228796035051346 -13.911548614502 -0.0185506250709295
vertex 0.228796035051346 -13.911548614502 0.168550625443459
vertex 0.207613661885262 -12.4292278289795 -0.0165739953517914
endloop
endfacet
facet normal -0.9998978972435 -0.0142885418608785 -3.88406296218969e-17
outer loop
vertex 0.207613661885262 -12.4292278289795 0.166574001312256
vertex 0.207613661885262 -12.4292278289795 -0.0165739953517914
vertex 0.228796035051346 -13.911548614502 0.168550625443459
endloop
endfacet
facet normal -0.9998978972435 -0.0142885409295559 -3.88406263131745e-17
outer loop
vertex 0.207613661885262 -12.4292278289795 0.166574001312256
vertex 0.179096579551697 -10.433629989624 0.163912922143936
vertex 0.207613661885262 -12.4292278289795 -0.0165739953517914
endloop
endfacet
facet normal -0.9998978972435 -0.0142885409295559 1.16063882269243e-16
outer loop
vertex 0.179096579551697 -10.433629989624 -0.0139129273593426
vertex 0.207613661885262 -12.4292278289795 -0.0165739953517914
vertex 0.179096579551697 -10.433629989624 0.163912922143936
endloop
endfacet
facet normal -0.999897837638855 -0.0142885409295559 1.16063869034353e-16
outer loop
vertex 0.179096579551697 -10.433629989624 -0.0139129273593426
vertex 0.179096579551697 -10.433629989624 0.163912922143936
vertex 0.148290812969208 -8.27787399291992 -0.0110382921993732
endloop
endfacet
facet normal -0.9998978972435 -0.0142885409295559 1.33721581073959e-16
outer loop
vertex 0.148290812969208 -8.27787399291992 0.161038294434547
vertex 0.148290812969208 -8.27787399291992 -0.0110382921993732
vertex 0.179096579551697 -10.433629989624 0.163912922143936
endloop
endfacet
facet normal -0.9998978972435 -0.0142885409295559 1.33721581073959e-16
outer loop
vertex 0.148290812969208 -8.27787399291992 0.161038294434547
vertex 0.117485068738461 -6.12211799621582 0.158163651823997
vertex 0.148290812969208 -8.27787399291992 -0.0110382921993732
endloop
endfacet
facet normal -0.999897956848145 -0.0142885418608785 3.35314204910621e-17
outer loop
vertex 0.117485068738461 -6.12211799621582 -0.00816365703940392
vertex 0.148290812969208 -8.27787399291992 -0.0110382921993732
vertex 0.117485068738461 -6.12211799621582 0.158163651823997
endloop
endfacet
facet normal -0.999897956848145 -0.0142885418608785 3.35314204910621e-17
outer loop
vertex 0.117485068738461 -6.12211799621582 -0.00816365703940392
vertex 0.117485068738461 -6.12211799621582 0.158163651823997
vertex 0.0866793096065521 -3.96636199951172 -0.00528902234509587
endloop
endfacet
facet normal -0.9998978972435 -0.0142885409295559 8.16311790176326e-17
outer loop
vertex 0.0866793096065521 -3.96636199951172 0.155289024114609
vertex 0.0866793096065521 -3.96636199951172 -0.00528902234509587
vertex 0.117485068738461 -6.12211799621582 0.158163651823997
endloop
endfacet
facet normal -0.999897956848145 -0.0142885418608785 8.16311790176326e-17
outer loop
vertex 0.0866793096065521 -3.96636199951172 0.155289024114609
vertex 0.0607692487537861 -2.15320158004761 0.15287122130394
vertex 0.0866793096065521 -3.96636199951172 -0.00528902234509587
endloop
endfacet
facet normal -0.999897956848145 -0.0142885418608785 1.10809637635751e-16
outer loop
vertex 0.0607692487537861 -2.15320158004761 -0.00287122861482203
vertex 0.0866793096065521 -3.96636199951172 -0.00528902234509587
vertex 0.0607692487537861 -2.15320158004761 0.15287122130394
endloop
endfacet
facet normal -0.9998978972435 -0.0142885409295559 1.10809637635751e-16
outer loop
vertex 0.0607692487537861 -2.15320158004761 -0.00287122861482203
vertex 0.0607692487537861 -2.15320158004761 0.15287122130394
vertex 0.0426625795662403 -0.886114835739136 -0.00118160713464022
endloop
endfacet
facet normal -0.9998978972435 -0.0142885409295559 6.89905953258463e-17
outer loop
vertex 0.0426625795662403 -0.886114835739136 0.151181608438492
vertex 0.0426625795662403 -0.886114835739136 -0.00118160713464022
vertex 0.0607692487537861 -2.15320158004761 0.15287122130394
endloop
endfacet
facet normal -0.9998978972435 -0.0142885418608785 6.89906019432912e-17
outer loop
vertex 0.0426625795662403 -0.886114835739136 -0.00118160713464022
vertex 0.0426625795662403 -0.886114835739136 0.151181608438492
vertex 0.0299999993294477 0 0
endloop
endfacet
facet normal -0.9998978972435 -0.0142885409295559 -0
outer loop
vertex 0.0299999993294477 0 0.150000005960464
vertex 0.0299999993294477 0 0
vertex 0.0426625795662403 -0.886114835739136 0.151181608438492
endloop
endfacet
facet normal 0.707063674926758 0.0110466908663511 0.707063674926758
outer loop
vertex 0.244349002838135 -14.9996585845947 0.169995665550232
vertex 0.225769191980362 -13.6994857788086 0.16826243698597
vertex 0.109994627535343 -14.9989929199219 0.304339647293091
endloop
endfacet
facet normal 0.707063615322113 0.0110466908663511 0.707063615322113
outer loop
vertex 0.103060610592365 -13.6988649368286 0.29096132516861
vertex 0.109994627535343 -14.9989929199219 0.304339647293091
vertex 0.225769191980362 -13.6994857788086 0.16826243698597
endloop
endfacet
facet normal 0.707063615322113 0.0110466908663511 0.707063615322113
outer loop
vertex 0.225769191980362 -13.6994857788086 0.16826243698597
vertex 0.195080429315567 -11.5519552230835 0.165399610996246
vertex 0.103060610592365 -13.6988649368286 0.29096132516861
endloop
endfacet
facet normal 0.707063615322113 0.0110466908663511 0.707063615322113
outer loop
vertex 0.0916077941656113 -11.5514621734619 0.268864542245865
vertex 0.103060610592365 -13.6988649368286 0.29096132516861
vertex 0.195080429315567 -11.5519552230835 0.165399610996246
endloop
endfacet
facet normal 0.707063615322113 0.0110466908663511 0.707063615322113
outer loop
vertex 0.195080429315567 -11.5519552230835 0.165399610996246
vertex 0.162064343690872 -9.24156379699707 0.16231968998909
vertex 0.0916077941656113 -11.5514621734619 0.268864542245865
endloop
endfacet
facet normal 0.707063674926758 0.0110466917976737 0.707063674926758
outer loop
vertex 0.079286240041256 -9.24116992950439 0.245091632008553
vertex 0.0916077941656113 -11.5514621734619 0.268864542245865
vertex 0.162064343690872 -9.24156379699707 0.16231968998909
endloop
endfacet
facet normal 0.707063674926758 0.0110466917976737 0.707063674926758
outer loop
vertex 0.079286240041256 -9.24116992950439 0.245091632008553
vertex 0.162064343690872 -9.24156379699707 0.16231968998909
vertex 0.06696467846632 -6.93087720870972 0.22131872177124
endloop
endfacet
facet normal 0.707063615322113 0.0110466899350286 0.707063615322113
outer loop
vertex 0.129048258066177 -6.93117332458496 0.159239768981934
vertex 0.06696467846632 -6.93087720870972 0.22131872177124
vertex 0.162064343690872 -9.24156379699707 0.16231968998909
endloop
endfacet
facet normal 0.707063615322113 0.0110466899350286 0.707063615322113
outer loop
vertex 0.129048258066177 -6.93117332458496 0.159239768981934
vertex 0.0960321724414825 -4.62078189849854 0.156159847974777
vertex 0.06696467846632 -6.93087720870972 0.22131872177124
endloop
endfacet
facet normal 0.707063674926758 0.0110466917976737 0.707063674926758
outer loop
vertex 0.0546431206166744 -4.6205849647522 0.197545811533928
vertex 0.06696467846632 -6.93087720870972 0.22131872177124
vertex 0.0960321724414825 -4.62078189849854 0.156159847974777
endloop
endfacet
facet normal 0.707063674926758 0.0110466917976737 0.707063674926758
outer loop
vertex 0.0546431206166744 -4.6205849647522 0.197545811533928
vertex 0.0960321724414825 -4.62078189849854 0.156159847974777
vertex 0.0423215590417385 -2.3102924823761 0.173772916197777
endloop
endfacet
facet normal 0.707063674926758 0.0110466917976737 0.707063674926758
outer loop
vertex 0.0630160868167877 -2.31039094924927 0.153079926967621
vertex 0.0423215590417385 -2.3102924823761 0.173772916197777
vertex 0.0960321724414825 -4.62078189849854 0.156159847974777
endloop
endfacet
facet normal 0.707063674926758 0.0110466917976737 0.707063674926758
outer loop
vertex 0.0423215590417385 -2.3102924823761 0.173772916197777
vertex 0.0630160868167877 -2.31039094924927 0.153079926967621
vertex 0.0299999993294477 0 0.150000005960464
endloop
endfacet
facet normal 0.707070648670197 0.010104039683938 -0.707070648670197
outer loop
vertex 0.277341037988663 -17.3086795806885 -0.0199999995529652
vertex 0.256650269031525 -17.3089714050293 -0.0406949296593666
vertex 0.244328111410141 -14.9984683990479 -0.0199999995529652
endloop
endfacet
facet normal 0.707070648670197 0.010104039683938 -0.707070648670197
outer loop
vertex 0.256650269031525 -17.3089714050293 -0.0406949296593666
vertex 0.277341037988663 -17.3086795806885 -0.0199999995529652
vertex 0.268972456455231 -19.6194763183594 -0.0613898597657681
endloop
endfacet
facet normal 0.707070648670197 0.010104039683938 -0.707070648670197
outer loop
vertex 0.310353964567184 -19.6188926696777 -0.0199999995529652
vertex 0.268972456455231 -19.6194763183594 -0.0613898597657681
vertex 0.277341037988663 -17.3086795806885 -0.0199999995529652
endloop
endfacet
facet normal 0.707070648670197 0.010104039683938 -0.707070648670197
outer loop
vertex 0.268972456455231 -19.6194763183594 -0.0613898597657681
vertex 0.310353964567184 -19.6188926696777 -0.0199999995529652
vertex 0.281294614076614 -21.9299793243408 -0.0820847898721695
endloop
endfacet
facet normal 0.707070648670197 0.010104039683938 -0.707070648670197
outer loop
vertex 0.343366891145706 -21.9291038513184 -0.0199999995529652
vertex 0.281294614076614 -21.9299793243408 -0.0820847898721695
vertex 0.310353964567184 -19.6188926696777 -0.0199999995529652
endloop
endfacet
facet normal 0.707070648670197 0.010104039683938 -0.707070648670197
outer loop
vertex 0.281294614076614 -21.9299793243408 -0.0820847898721695
vertex 0.343366891145706 -21.9291038513184 -0.0199999995529652
vertex 0.293616771697998 -24.2404823303223 -0.102779716253281
endloop
endfacet
facet normal 0.707070648670197 0.010104039683938 -0.707070648670197
outer loop
vertex 0.376379817724228 -24.239315032959 -0.0199999995529652
vertex 0.293616771697998 -24.2404823303223 -0.102779716253281
vertex 0.343366891145706 -21.9291038513184 -0.0199999995529652
endloop
endfacet
facet normal 0.707070708274841 0.010104039683938 -0.707070708274841
outer loop
vertex 0.40939274430275 -26.5495281219482 -0.0199999995529652
vertex 0.305938929319382 -26.5509853363037 -0.123474650084972
vertex 0.376379817724228 -24.239315032959 -0.0199999995529652
endloop
endfacet
facet normal 0.707070648670197 0.010104039683938 -0.707070648670197
outer loop
vertex 0.293616771697998 -24.2404823303223 -0.102779716253281
vertex 0.376379817724228 -24.239315032959 -0.0199999995529652
vertex 0.305938929319382 -26.5509853363037 -0.123474650084972
endloop
endfacet
facet normal 0.707070708274841 0.010104039683938 -0.707070708274841
outer loop
vertex 0.40939274430275 -26.5495281219482 -0.0199999995529652
vertex 0.440078049898148 -28.6968555450439 -0.0199999995529652
vertex 0.305938929319382 -26.5509853363037 -0.123474650084972
endloop
endfacet
facet normal 0.707070648670197 0.010104039683938 -0.707070648670197
outer loop
vertex 0.317392498254776 -28.6986217498779 -0.142710790038109
vertex 0.305938929319382 -26.5509853363037 -0.123474650084972
vertex 0.440078049898148 -28.6968555450439 -0.0199999995529652
endloop
endfacet
facet normal 0.707070708274841 0.0101040406152606 -0.707070708274841
outer loop
vertex 0.440078049898148 -28.6968555450439 -0.0199999995529652
vertex 0.458656221628189 -29.9969367980957 -0.0199999995529652
vertex 0.317392498254776 -28.6986217498779 -0.142710790038109
endloop
endfacet
facet normal 0.707070708274841 0.0101040406152606 -0.707070708274841
outer loop
vertex 0.324326813220978 -29.9988574981689 -0.154356852173805
vertex 0.317392498254776 -28.6986217498779 -0.142710790038109
vertex 0.458656221628189 -29.9969367980957 -0.0199999995529652
endloop
endfacet
facet normal 0.204684600234032 0.676871657371521 -0.707070648670197
outer loop
vertex 14.6512823104858 -22.5356769561768 -0.187341049313545
vertex 12.449746131897 -21.8354511260986 -0.154328122735023
vertex 14.6578330993652 -22.5160446166992 -0.166650280356407
endloop
endfacet
facet normal 0.204684600234032 0.676871657371521 -0.707070648670197
outer loop
vertex 16.8528175354004 -23.2359046936035 -0.220353960990906
vertex 14.6512823104858 -22.5356769561768 -0.187341049313545
vertex 16.8659191131592 -23.1966381072998 -0.178972452878952
endloop
endfacet
facet normal 0.204684600234032 0.676871657371521 -0.707070648670197
outer loop
vertex 14.6578330993652 -22.5160446166992 -0.166650280356407
vertex 16.8659191131592 -23.1966381072998 -0.178972452878952
vertex 14.6512823104858 -22.5356769561768 -0.187341049313545
endloop
endfacet
facet normal 0.204684600234032 0.676871657371521 -0.707070648670197
outer loop
vertex 16.8528175354004 -23.2359046936035 -0.220353960990906
vertex 16.8659191131592 -23.1966381072998 -0.178972452878952
vertex 19.0543537139893 -23.9361305236816 -0.253366887569427
endloop
endfacet
facet normal 0.204684615135193 0.676871597766876 -0.707070648670197
outer loop
vertex 19.0740070343018 -23.8772315979004 -0.191294610500336
vertex 19.0543537139893 -23.9361305236816 -0.253366887569427
vertex 16.8659191131592 -23.1966381072998 -0.178972452878952
endloop
endfacet
facet normal 0.204684600234032 0.676871657371521 -0.707070648670197
outer loop
vertex 21.2558917999268 -24.6363563537598 -0.286379814147949
vertex 19.0543537139893 -23.9361305236816 -0.253366887569427
vertex 21.2820930480957 -24.5578231811523 -0.203616783022881
endloop
endfacet
facet normal 0.204684615135193 0.676871597766876 -0.707070648670197
outer loop
vertex 19.0740070343018 -23.8772315979004 -0.191294610500336
vertex 21.2820930480957 -24.5578231811523 -0.203616783022881
vertex 19.0543537139893 -23.9361305236816 -0.253366887569427
endloop
endfacet
facet normal 0.204684600234032 0.676871657371521 -0.707070648670197
outer loop
vertex 21.2558917999268 -24.6363563537598 -0.286379814147949
vertex 21.2820930480957 -24.5578231811523 -0.203616783022881
vertex 23.4574279785156 -25.3365821838379 -0.319392740726471
endloop
endfacet
facet normal 0.204684615135193 0.676871657371521 -0.707070708274841
outer loop
vertex 23.4901809692383 -25.2384166717529 -0.215938940644264
vertex 23.4574279785156 -25.3365821838379 -0.319392740726471
vertex 21.2820930480957 -24.5578231811523 -0.203616783022881
endloop
endfacet
facet normal 0.204684600234032 0.676871657371521 -0.707070708274841
outer loop
vertex 23.4574279785156 -25.3365821838379 -0.319392740726471
vertex 23.4901809692383 -25.2384166717529 -0.215938940644264
vertex 25.5037422180176 -25.9874362945557 -0.350078046321869
endloop
endfacet
facet normal 0.204684600234032 0.676871657371521 -0.707070708274841
outer loop
vertex 25.5426177978516 -25.8710346221924 -0.227392509579659
vertex 25.5037422180176 -25.9874362945557 -0.350078046321869
vertex 23.4901809692383 -25.2384166717529 -0.215938940644264
endloop
endfacet
facet normal 0.204684600234032 0.676871657371521 -0.707070648670197
outer loop
vertex 25.5037422180176 -25.9874362945557 -0.350078046321869
vertex 25.5426177978516 -25.8710346221924 -0.227392509579659
vertex 26.7426662445068 -26.3814926147461 -0.368656247854233
endloop
endfacet
facet normal 0.204684615135193 0.676871716976166 -0.707070708274841
outer loop
vertex 26.7852191925049 -26.2540378570557 -0.234326809644699
vertex 26.7426662445068 -26.3814926147461 -0.368656247854233
vertex 25.5426177978516 -25.8710346221924 -0.227392509579659
endloop
endfacet
endsolid COMSOL mesh mesh1
