solid COMSOL mesh mesh1
facet normal -0.0196975935250521 0.999805927276611 0
outer loop
vertex 0 0 0.150000005960464
vertex 0 0 0
vertex -0.895174860954285 -0.0176362115889788 0.151119187474251
endloop
endfacet
facet normal -0.0196975935250521 0.999805927276611 -2.03092212951714e-17
outer loop
vertex -0.895174860954285 -0.0176362115889788 -0.0011191857047379
vertex -0.895174860954285 -0.0176362115889788 0.151119187474251
vertex 0 0 0
endloop
endfacet
facet normal -0.0196975935250521 0.999806046485901 -2.03092212951714e-17
outer loop
vertex -0.895174860954285 -0.0176362115889788 0.151119187474251
vertex -0.895174860954285 -0.0176362115889788 -0.0011191857047379
vertex -2.19584727287292 -0.0432613007724285 0.152745336294174
endloop
endfacet
facet normal -0.0196975935250521 0.999805986881256 -3.10333019539274e-17
outer loop
vertex -2.19584727287292 -0.0432613007724285 -0.00274534174241126
vertex -2.19584727287292 -0.0432613007724285 0.152745336294174
vertex -0.895174860954285 -0.0176362115889788 -0.0011191857047379
endloop
endfacet
facet normal -0.0196975935250521 0.999806046485901 -1.28017158281336e-16
outer loop
vertex -4.08570051193237 -0.0804940834641457 0.155108124017715
vertex -2.19584727287292 -0.0432613007724285 0.152745336294174
vertex -4.08570051193237 -0.0804940834641457 -0.00510811666026711
endloop
endfacet
facet normal -0.0196975916624069 0.999805927276611 -3.10333019539274e-17
outer loop
vertex -2.19584727287292 -0.0432613007724285 -0.00274534174241126
vertex -4.08570051193237 -0.0804940834641457 -0.00510811666026711
vertex -2.19584727287292 -0.0432613007724285 0.152745336294174
endloop
endfacet
facet normal -0.0196975916624069 0.999805986881256 -1.28017158281336e-16
outer loop
vertex -4.08570051193237 -0.0804940834641457 0.155108124017715
vertex -4.08570051193237 -0.0804940834641457 -0.00510811666026711
vertex -6.71948862075806 -0.132383435964584 0.158400997519493
endloop
endfacet
facet normal -0.0196975916624069 0.999805927276611 -7.9559376133318e-17
outer loop
vertex -6.71948862075806 -0.132383435964584 -0.00840099062770605
vertex -6.71948862075806 -0.132383435964584 0.158400997519493
vertex -4.08570051193237 -0.0804940834641457 -0.00510811666026711
endloop
endfacet
facet normal -0.0196975935250521 0.999805986881256 2.43094803032399e-16
outer loop
vertex -9.48499298095703 -0.186867788434029 0.161858543753624
vertex -6.71948862075806 -0.132383435964584 0.158400997519493
vertex -9.48499298095703 -0.186867788434029 -0.0118585415184498
endloop
endfacet
facet normal -0.0196975935250521 0.999805986881256 -7.9559376133318e-17
outer loop
vertex -6.71948862075806 -0.132383435964584 -0.00840099062770605
vertex -9.48499298095703 -0.186867788434029 -0.0118585415184498
vertex -6.71948862075806 -0.132383435964584 0.158400997519493
endloop
endfacet
facet normal -0.0196975935250521 0.999805986881256 2.43094803032399e-16
outer loop
vertex -9.48499298095703 -0.186867788434029 0.161858543753624
vertex -9.48499298095703 -0.186867788434029 -0.0118585415184498
vertex -12.2504968643188 -0.241352140903473 0.165316089987755
endloop
endfacet
facet normal -0.0196975935250521 0.999805986881256 -7.34678659012448e-17
outer loop
vertex -12.2504968643188 -0.241352140903473 -0.0153160933405161
vertex -12.2504968643188 -0.241352140903473 0.165316089987755
vertex -9.48499298095703 -0.186867788434029 -0.0118585415184498
endloop
endfacet
facet normal -0.0196975953876972 0.999805986881256 -1.86580778026482e-16
outer loop
vertex -15.0100784301758 -0.295719802379608 0.168766245245934
vertex -12.2504968643188 -0.241352140903473 0.165316089987755
vertex -15.0100784301758 -0.295719802379608 -0.0187662392854691
endloop
endfacet
facet normal -0.0196975953876972 0.999806046485901 -7.34678725186897e-17
outer loop
vertex -12.2504968643188 -0.241352140903473 -0.0153160933405161
vertex -15.0100784301758 -0.295719802379608 -0.0187662392854691
vertex -12.2504968643188 -0.241352140903473 0.165316089987755
endloop
endfacet
facet normal -0.0196975935250521 0.999805986881256 -1.86580764791592e-16
outer loop
vertex -15.0100784301758 -0.295719802379608 0.168766245245934
vertex -15.0100784301758 -0.295719802379608 -0.0187662392854691
vertex -17.24387550354 -0.339728742837906 0.171559020876884
endloop
endfacet
facet normal -0.0196975935250521 0.999805986881256 0
outer loop
vertex -17.24387550354 -0.339728742837906 -0.0215590260922909
vertex -17.24387550354 -0.339728742837906 0.171559020876884
vertex -15.0100784301758 -0.295719802379608 -0.0187662392854691
endloop
endfacet
facet normal -0.0196975935250521 0.999805986881256 -1.46906919447393e-16
outer loop
vertex -18.8464279174805 -0.37130132317543 0.173562601208687
vertex -17.24387550354 -0.339728742837906 0.171559020876884
vertex -18.8464279174805 -0.37130132317543 -0.0235626064240932
endloop
endfacet
facet normal -0.0196975935250521 0.999805986881256 0
outer loop
vertex -17.24387550354 -0.339728742837906 -0.0215590260922909
vertex -18.8464279174805 -0.37130132317543 -0.0235626064240932
vertex -17.24387550354 -0.339728742837906 0.171559020876884
endloop
endfacet
facet normal -0.0196975916624069 0.999805927276611 -1.46906906212503e-16
outer loop
vertex -18.8464279174805 -0.37130132317543 0.173562601208687
vertex -18.8464279174805 -0.37130132317543 -0.0235626064240932
vertex -19.9961204528809 -0.393951863050461 0.174999997019768
endloop
endfacet
facet normal -0.0196975935250521 0.999805927276611 0
outer loop
vertex -19.9961204528809 -0.393951863050461 -0.025000000372529
vertex -19.9961204528809 -0.393951863050461 0.174999997019768
vertex -18.8464279174805 -0.37130132317543 -0.0235626064240932
endloop
endfacet
facet normal 0.0010863597271964 0.00831608939915895 0.999964773654938
outer loop
vertex -18.0328273773193 -2.32709455490112 0.188943833112717
vertex -18.0134983062744 -2.30746030807495 0.188759550452232
vertex -19.9961204528809 -0.393951863050461 0.174999997019768
endloop
endfacet
facet normal 0.0010863597271964 0.00831608939915895 0.999964773654938
outer loop
vertex -16.0695362091064 -4.26023721694946 0.202887669205666
vertex -16.0308780670166 -4.22096872329712 0.202519103884697
vertex -18.0328273773193 -2.32709455490112 0.188943833112717
endloop
endfacet
facet normal 0.0010863597271964 0.00831608939915895 0.999964773654938
outer loop
vertex -18.0134983062744 -2.30746030807495 0.188759550452232
vertex -18.0328273773193 -2.32709455490112 0.188943833112717
vertex -16.0308780670166 -4.22096872329712 0.202519103884697
endloop
endfacet
facet normal 0.0010863597271964 0.00831608939915895 0.999964773654938
outer loop
vertex -16.0695362091064 -4.26023721694946 0.202887669205666
vertex -14.1062440872192 -6.1933798789978 0.216831520199776
vertex -16.0308780670166 -4.22096872329712 0.202519103884697
endloop
endfacet
facet normal 0.00108635996002704 0.00831609033048153 0.999964892864227
outer loop
vertex -14.0482568740845 -6.13447713851929 0.216278657317162
vertex -16.0308780670166 -4.22096872329712 0.202519103884697
vertex -14.1062440872192 -6.1933798789978 0.216831520199776
endloop
endfacet
facet normal 0.0010863597271964 0.00831608939915895 0.999964773654938
outer loop
vertex -12.142951965332 -8.1265230178833 0.230775356292725
vertex -12.0656356811523 -8.0479850769043 0.230038210749626
vertex -14.1062440872192 -6.1933798789978 0.216831520199776
endloop
endfacet
facet normal 0.00108635996002704 0.00831609033048153 0.999964892864227
outer loop
vertex -14.0482568740845 -6.13447713851929 0.216278657317162
vertex -14.1062440872192 -6.1933798789978 0.216831520199776
vertex -12.0656356811523 -8.0479850769043 0.230038210749626
endloop
endfacet
facet normal 0.0010863597271964 0.00831608939915895 0.999964773654938
outer loop
vertex -12.142951965332 -8.1265230178833 0.230775356292725
vertex -10.1796598434448 -10.0596656799316 0.244719192385674
vertex -12.0656356811523 -8.0479850769043 0.230038210749626
endloop
endfacet
facet normal 0.00108635984361172 0.00831609033048153 0.999964833259583
outer loop
vertex -10.0830144882202 -9.96149349212646 0.243797764182091
vertex -12.0656356811523 -8.0479850769043 0.230038210749626
vertex -10.1796598434448 -10.0596656799316 0.244719192385674
endloop
endfacet
facet normal 0.00108635996002704 0.00831609033048153 0.999964892864227
outer loop
vertex -8.21636867523193 -11.99280834198 0.258663028478622
vertex -8.10039329528809 -11.8750019073486 0.257557302713394
vertex -10.1796598434448 -10.0596656799316 0.244719192385674
endloop
endfacet
facet normal 0.00108635984361172 0.00831609033048153 0.999964833259583
outer loop
vertex -10.0830144882202 -9.96149349212646 0.243797764182091
vertex -10.1796598434448 -10.0596656799316 0.244719192385674
vertex -8.10039329528809 -11.8750019073486 0.257557302713394
endloop
endfacet
facet normal 0.00108635984361172 0.00831608939915895 0.999964833259583
outer loop
vertex -8.21636867523193 -11.99280834198 0.258663028478622
vertex -6.65729141235352 -13.5279426574707 0.269736021757126
vertex -8.10039329528809 -11.8750019073486 0.257557302713394
endloop
endfacet
facet normal 0.00108635996002704 0.00831609033048153 0.999964833259583
outer loop
vertex -6.52593851089478 -13.3945722579956 0.268484145402908
vertex -8.10039329528809 -11.8750019073486 0.257557302713394
vertex -6.65729141235352 -13.5279426574707 0.269736021757126
endloop
endfacet
facet normal 0.00108635996002704 0.00831609033048153 0.999964892864227
outer loop
vertex -6.65729141235352 -13.5279426574707 0.269736021757126
vertex -5.74516630172729 -14.4260606765747 0.276214182376862
vertex -6.52593851089478 -13.3945722579956 0.268484145402908
endloop
endfacet
facet normal 0.00108635984361172 0.00831609033048153 0.999964833259583
outer loop
vertex -5.60484313964844 -14.28355884552 0.274876624345779
vertex -6.52593851089478 -13.3945722579956 0.268484145402908
vertex -5.74516630172729 -14.4260606765747 0.276214182376862
endloop
endfacet
facet normal -0.707127451896667 0.00712157692760229 0.707050144672394
outer loop
vertex -13.2365140914917 -0.0735935717821121 -13.2372198104858
vertex -14.1416492462158 -0.0786260217428207 -14.1424036026001
vertex -13.2369470596313 -0.260786592960358 -13.235767364502
endloop
endfacet
facet normal -0.707127451896667 0.00712157739326358 0.707050144672394
outer loop
vertex -14.1421003341675 -0.278619408607483 -14.1408405303955
vertex -13.2369470596313 -0.260786592960358 -13.235767364502
vertex -14.1416492462158 -0.0786260217428207 -14.1424036026001
endloop
endfacet
facet normal -0.707127511501312 0.00712157739326358 0.707050204277039
outer loop
vertex -13.2369470596313 -0.260786592960358 -13.235767364502
vertex -11.6897487640381 -0.230304598808289 -11.6887063980103
vertex -13.2365140914917 -0.0735935717821121 -13.2372198104858
endloop
endfacet
facet normal -0.707127511501312 0.00712157832458615 0.707050263881683
outer loop
vertex -11.6893911361694 -0.0649917349219322 -11.690013885498
vertex -13.2365140914917 -0.0735935717821121 -13.2372198104858
vertex -11.6897487640381 -0.230304598808289 -11.6887063980103
endloop
endfacet
facet normal -0.707127511501312 0.00712157739326358 0.707050204277039
outer loop
vertex -11.6893911361694 -0.0649917349219322 -11.690013885498
vertex -11.6897487640381 -0.230304598808289 -11.6887063980103
vertex -9.74115943908691 -0.0541597791016102 -9.74167823791504
endloop
endfacet
facet normal -0.707127511501312 0.00712157785892487 0.707050204277039
outer loop
vertex -9.74145698547363 -0.191920503973961 -9.7405891418457
vertex -9.74115943908691 -0.0541597791016102 -9.74167823791504
vertex -11.6897487640381 -0.230304598808289 -11.6887063980103
endloop
endfacet
facet normal -0.707127511501312 0.00712157785892487 0.707050204277039
outer loop
vertex -9.74145698547363 -0.191920503973961 -9.7405891418457
vertex -7.79316568374634 -0.153536394238472 -7.79247093200684
vertex -9.74115943908691 -0.0541597791016102 -9.74167823791504
endloop
endfacet
facet normal -0.707127451896667 0.00712157739326358 0.707050204277039
outer loop
vertex -7.79292726516724 -0.0433278232812881 -7.79334259033203
vertex -9.74115943908691 -0.0541597791016102 -9.74167823791504
vertex -7.79316568374634 -0.153536394238472 -7.79247093200684
endloop
endfacet
facet normal -0.707127451896667 0.00712157739326358 0.707050204277039
outer loop
vertex -7.79292726516724 -0.0433278232812881 -7.79334259033203
vertex -7.79316568374634 -0.153536394238472 -7.79247093200684
vertex -5.84469556808472 -0.0324958674609661 -5.84500694274902
endloop
endfacet
facet normal -0.707127511501312 0.00712157739326358 0.707050204277039
outer loop
vertex -5.84487438201904 -0.115152299404144 -5.84435319900513
vertex -5.84469556808472 -0.0324958674609661 -5.84500694274902
vertex -7.79316568374634 -0.153536394238472 -7.79247093200684
endloop
endfacet
facet normal -0.707127511501312 0.00712157739326358 0.707050204277039
outer loop
vertex -5.84487438201904 -0.115152299404144 -5.84435319900513
vertex -3.89658284187317 -0.076768197119236 -3.89623546600342
vertex -5.84469556808472 -0.0324958674609661 -5.84500694274902
endloop
endfacet
facet normal -0.707127451896667 0.00712157739326358 0.707050204277039
outer loop
vertex -3.89646363258362 -0.0216639116406441 -3.89667129516602
vertex -5.84469556808472 -0.0324958674609661 -5.84500694274902
vertex -3.89658284187317 -0.076768197119236 -3.89623546600342
endloop
endfacet
facet normal -0.707127451896667 0.00712157739326358 0.707050204277039
outer loop
vertex -3.89646363258362 -0.0216639116406441 -3.89667129516602
vertex -3.89658284187317 -0.076768197119236 -3.89623546600342
vertex -1.94823181629181 -0.010831955820322 -1.94833564758301
endloop
endfacet
facet normal -0.707127451896667 0.00712157739326358 0.707050204277039
outer loop
vertex -1.94829142093658 -0.038384098559618 -1.94811773300171
vertex -1.94823181629181 -0.010831955820322 -1.94833564758301
vertex -3.89658284187317 -0.076768197119236 -3.89623546600342
endloop
endfacet
facet normal -0.707127451896667 0.00712157739326358 0.707050204277039
outer loop
vertex -1.94823181629181 -0.010831955820322 -1.94833564758301
vertex -1.94829142093658 -0.038384098559618 -1.94811773300171
vertex 0 0 0
endloop
endfacet
facet normal 0.707063019275665 0.00994923058897257 -0.707080602645874
outer loop
vertex 0.00038460097857751 -0.0299975108355284 -3.7499292375287e-05
vertex -0.144992336630821 -0.0325536355376244 -0.145446792244911
vertex 0 0 0
endloop
endfacet
facet normal 0.707062959671021 0.00994922965764999 -0.707080602645874
outer loop
vertex -0.14539934694767 -0.000808404525741935 -0.145407110452652
vertex 0 0 0
vertex -0.144992336630821 -0.0325536355376244 -0.145446792244911
endloop
endfacet
facet normal 0.707063019275665 0.00994923058897257 -0.707080602645874
outer loop
vertex -0.386705756187439 -0.0021500417497009 -0.386726349592209
vertex -0.14539934694767 -0.000808404525741935 -0.145407110452652
vertex -0.38626155257225 -0.0367958024144173 -0.386769682168961
endloop
endfacet
facet normal 0.707062959671021 0.00994922965764999 -0.707080602645874
outer loop
vertex -0.144992336630821 -0.0325536355376244 -0.145446792244911
vertex -0.38626155257225 -0.0367958024144173 -0.386769682168961
vertex -0.14539934694767 -0.000808404525741935 -0.145407110452652
endloop
endfacet
facet normal 0.707062900066376 0.00994922872632742 -0.707080543041229
outer loop
vertex -0.386705756187439 -0.0021500417497009 -0.386726349592209
vertex -0.38626155257225 -0.0367958024144173 -0.386769682168961
vertex -0.787180542945862 -0.00437663774937391 -0.787222504615784
endloop
endfacet
facet normal 0.707063019275665 0.00994922965764999 -0.707080602645874
outer loop
vertex -0.786674618721008 -0.0438361540436745 -0.787271857261658
vertex -0.787180542945862 -0.00437663774937391 -0.787222504615784
vertex -0.38626155257225 -0.0367958024144173 -0.386769682168961
endloop
endfacet
facet normal 0.707062959671021 0.00994922965764999 -0.707080602645874
outer loop
vertex -1.4518129825592 -0.00807192176580429 -1.45189046859741
vertex -0.787180542945862 -0.00437663774937391 -0.787222504615784
vertex -1.45120465755463 -0.0555204041302204 -1.45194971561432
endloop
endfacet
facet normal 0.707062959671021 0.00994922872632742 -0.707080602645874
outer loop
vertex -0.786674618721008 -0.0438361540436745 -0.787271857261658
vertex -1.45120465755463 -0.0555204041302204 -1.45194971561432
vertex -0.787180542945862 -0.00437663774937391 -0.787222504615784
endloop
endfacet
facet normal 0.707062959671021 0.00994922965764999 -0.707080602645874
outer loop
vertex -1.4518129825592 -0.00807192176580429 -1.45189046859741
vertex -1.45120465755463 -0.0555204041302204 -1.45194971561432
vertex -2.55484461784363 -0.0142046557739377 -2.55498075485229
endloop
endfacet
facet normal 0.707062959671021 0.00994922872632742 -0.707080602645874
outer loop
vertex -2.55406618118286 -0.0749117136001587 -2.55505657196045
vertex -2.55484461784363 -0.0142046557739377 -2.55498075485229
vertex -1.45120465755463 -0.0555204041302204 -1.45194971561432
endloop
endfacet
facet normal 0.707063019275665 0.00994923058897257 -0.707080602645874
outer loop
vertex -4.3459939956665 -0.0241632498800755 -4.34622573852539
vertex -2.55484461784363 -0.0142046557739377 -2.55498075485229
vertex -4.34493970870972 -0.106400139629841 -4.3463282585144
endloop
endfacet
facet normal 0.707062959671021 0.00994922965764999 -0.707080602645874
outer loop
vertex -2.55406618118286 -0.0749117136001587 -2.55505657196045
vertex -4.34493970870972 -0.106400139629841 -4.3463282585144
vertex -2.55484461784363 -0.0142046557739377 -2.55498075485229
endloop
endfacet
facet normal 0.707062959671021 0.00994923058897257 -0.707080602645874
outer loop
vertex -4.3459939956665 -0.0241632498800755 -4.34622573852539
vertex -4.34493970870972 -0.106400139629841 -4.3463282585144
vertex -6.36953067779541 -0.0354138948023319 -6.36987018585205
endloop
endfacet
facet normal 0.707063019275665 0.00994923058897257 -0.707080602645874
outer loop
vertex -6.36816453933716 -0.141973942518234 -6.37000370025635
vertex -6.36953067779541 -0.0354138948023319 -6.36987018585205
vertex -4.34493970870972 -0.106400139629841 -4.3463282585144
endloop
endfacet
facet normal 0.707063019275665 0.00994923058897257 -0.707080602645874
outer loop
vertex -6.36953067779541 -0.0354138948023319 -6.36987018585205
vertex -6.36816453933716 -0.141973942518234 -6.37000370025635
vertex -8.39306735992432 -0.0466645397245884 -8.39351463317871
endloop
endfacet
facet normal 0.707063019275665 0.00994922965764999 -0.707080602645874
outer loop
vertex -8.39138984680176 -0.177547752857208 -8.39367866516113
vertex -8.39306735992432 -0.0466645397245884 -8.39351463317871
vertex -6.36816453933716 -0.141973942518234 -6.37000370025635
endloop
endfacet
facet normal 0.707063019275665 0.00994922965764999 -0.707080602645874
outer loop
vertex -8.39306735992432 -0.0466645397245884 -8.39351463317871
vertex -8.39138984680176 -0.177547752857208 -8.39367866516113
vertex -10.4166040420532 -0.0579151809215546 -10.4171600341797
endloop
endfacet
facet normal 0.707062959671021 0.00994922965764999 -0.707080543041229
outer loop
vertex -10.4146146774292 -0.213121563196182 -10.4173536300659
vertex -10.4166040420532 -0.0579151809215546 -10.4171600341797
vertex -8.39138984680176 -0.177547752857208 -8.39367866516113
endloop
endfacet
facet normal 0.707062959671021 0.00994922872632742 -0.707080543041229
outer loop
vertex -12.1167192459106 -0.0673676356673241 -12.1173658370972
vertex -10.4166040420532 -0.0579151809215546 -10.4171600341797
vertex -12.1144676208496 -0.243009611964226 -12.1175851821899
endloop
endfacet
facet normal 0.707063019275665 0.00994922965764999 -0.707080543041229
outer loop
vertex -10.4146146774292 -0.213121563196182 -10.4173536300659
vertex -12.1144676208496 -0.243009611964226 -12.1175851821899
vertex -10.4166040420532 -0.0579151809215546 -10.4171600341797
endloop
endfacet
facet normal 0.707062959671021 0.00994922965764999 -0.707080602645874
outer loop
vertex -13.30735206604 -0.0739874243736267 -13.3080615997314
vertex -12.1167192459106 -0.0673676356673241 -12.1173658370972
vertex -13.3049163818359 -0.263940930366516 -13.3082990646362
endloop
endfacet
facet normal 0.707062959671021 0.00994922965764999 -0.707080602645874
outer loop
vertex -12.1144676208496 -0.243009611964226 -12.1175851821899
vertex -13.3049163818359 -0.263940930366516 -13.3082990646362
vertex -12.1167192459106 -0.0673676356673241 -12.1173658370972
endloop
endfacet
facet normal 0.707062959671021 0.00994922965764999 -0.707080602645874
outer loop
vertex -13.30735206604 -0.0739874243736267 -13.3080615997314
vertex -13.3049163818359 -0.263940930366516 -13.3082990646362
vertex -14.1417770385742 -0.078626736998558 -14.1425313949585
endloop
endfacet
facet normal 0.707062959671021 0.00994922872632742 -0.707080602645874
outer loop
vertex -14.1392135620117 -0.27861014008522 -14.1427812576294
vertex -14.1417770385742 -0.078626736998558 -14.1425313949585
vertex -13.3049163818359 -0.263940930366516 -13.3082990646362
endloop
endfacet
facet normal -0.317809700965881 -0.948154509067535 -0
outer loop
vertex -2.52082180976868 -22.8950023651123 0.0900000035762787
vertex -2.52082180976868 -22.8950023651123 0.0599999986588955
vertex -2.32585191726685 -22.9603538513184 0.0908739343285561
endloop
endfacet
facet normal -0.317809700965881 -0.948154449462891 4.44552282762327e-15
outer loop
vertex -2.32585191726685 -22.9603538513184 0.0591260679066181
vertex -2.32585191726685 -22.9603538513184 0.0908739343285561
vertex -2.52082180976868 -22.8950023651123 0.0599999986588955
endloop
endfacet
facet normal -0.317809700965881 -0.94815456867218 8.14669088889134e-15
outer loop
vertex -2.00227785110474 -23.068811416626 0.0576756820082664
vertex -2.00227785110474 -23.068811416626 0.0923243165016174
vertex -2.32585191726685 -22.9603538513184 0.0591260679066181
endloop
endfacet
facet normal -0.317809730768204 -0.948154509067535 4.44552325113974e-15
outer loop
vertex -2.32585191726685 -22.9603538513184 0.0908739343285561
vertex -2.32585191726685 -22.9603538513184 0.0591260679066181
vertex -2.00227785110474 -23.068811416626 0.0923243165016174
endloop
endfacet
facet normal -0.317809671163559 -0.948154509067535 8.1466900418584e-15
outer loop
vertex -2.00227785110474 -23.068811416626 0.0576756820082664
vertex -1.46527028083801 -23.2488098144531 0.0552686043083668
vertex -2.00227785110474 -23.068811416626 0.0923243165016174
endloop
endfacet
facet normal -0.317809730768204 -0.94815456867218 -1.78821445362886e-15
outer loop
vertex -1.46527028083801 -23.2488098144531 0.0947313979268074
vertex -2.00227785110474 -23.068811416626 0.0923243165016174
vertex -1.46527028083801 -23.2488098144531 0.0552686043083668
endloop
endfacet
facet normal -0.317809700965881 -0.948154509067535 -4.46139071934065e-15
outer loop
vertex -0.574046671390533 -23.5475368499756 0.0512737892568111
vertex -0.574046671390533 -23.5475368499756 0.098726212978363
vertex -1.46527028083801 -23.2488098144531 0.0552686043083668
endloop
endfacet
facet normal -0.317809700965881 -0.94815456867218 -1.78821445362886e-15
outer loop
vertex -1.46527028083801 -23.2488098144531 0.0947313979268074
vertex -1.46527028083801 -23.2488098144531 0.0552686043083668
vertex -0.574046671390533 -23.5475368499756 0.098726212978363
endloop
endfacet
facet normal -0.317809700965881 -0.948154509067535 -4.46139114285713e-15
outer loop
vertex -0.574046671390533 -23.5475368499756 0.0512737892568111
vertex 0.905037999153137 -24.0433082580566 0.0446439534425735
vertex -0.574046671390533 -23.5475368499756 0.098726212978363
endloop
endfacet
facet normal -0.317809700965881 -0.948154509067535 -1.16233740433134e-14
outer loop
vertex 0.905037999153137 -24.0433082580566 0.10535604506731
vertex -0.574046671390533 -23.5475368499756 0.098726212978363
vertex 0.905037999153137 -24.0433082580566 0.0446439534425735
endloop
endfacet
facet normal -0.317809700965881 -0.94815456867218 1.69328374428511e-14
outer loop
vertex 3.30683851242065 -24.8483619689941 0.033878143876791
vertex 3.30683851242065 -24.8483619689941 0.116121858358383
vertex 0.905037999153137 -24.0433082580566 0.0446439534425735
endloop
endfacet
facet normal -0.317809700965881 -0.94815456867218 -1.16233731962804e-14
outer loop
vertex 0.905037999153137 -24.0433082580566 0.10535604506731
vertex 0.905037999153137 -24.0433082580566 0.0446439534425735
vertex 3.30683851242065 -24.8483619689941 0.116121858358383
endloop
endfacet
facet normal -0.317809730768204 -0.94815456867218 1.69328374428511e-14
outer loop
vertex 3.30683851242065 -24.8483619689941 0.033878143876791
vertex 6.02025365829468 -25.7578659057617 0.0217155534774065
vertex 3.30683851242065 -24.8483619689941 0.116121858358383
endloop
endfacet
facet normal -0.317809730768204 -0.94815456867218 6.83393364684162e-14
outer loop
vertex 6.02025365829468 -25.7578659057617 0.128284439444542
vertex 3.30683851242065 -24.8483619689941 0.116121858358383
vertex 6.02025365829468 -25.7578659057617 0.0217155534774065
endloop
endfacet
facet normal -0.317809730768204 -0.94815456867218 6.83393364684162e-14
outer loop
vertex 6.02025365829468 -25.7578659057617 0.0217155534774065
vertex 8.73366832733154 -26.6673679351807 0.00955296400934458
vertex 6.02025365829468 -25.7578659057617 0.128284439444542
endloop
endfacet
facet normal -0.317809700965881 -0.948154509067535 -8.62595907110677e-15
outer loop
vertex 8.73366832733154 -26.6673679351807 0.140447035431862
vertex 6.02025365829468 -25.7578659057617 0.128284439444542
vertex 8.73366832733154 -26.6673679351807 0.00955296400934458
endloop
endfacet
facet normal -0.317809700965881 -0.948154509067535 -8.62595907110677e-15
outer loop
vertex 8.73366832733154 -26.6673679351807 0.00955296400934458
vertex 11.4470834732056 -27.5768718719482 -0.00260962569154799
vertex 8.73366832733154 -26.6673679351807 0.140447035431862
endloop
endfacet
facet normal -0.317809730768204 -0.948154509067535 5.0556814865186e-14
outer loop
vertex 11.4470834732056 -27.5768718719482 0.152609631419182
vertex 8.73366832733154 -26.6673679351807 0.140447035431862
vertex 11.4470834732056 -27.5768718719482 -0.00260962569154799
endloop
endfacet
facet normal -0.317809700965881 -0.948154449462891 -2.56045574689332e-14
outer loop
vertex 13.7268142700195 -28.3410091400146 -0.0128282709047198
vertex 13.7268142700195 -28.3410091400146 0.162828266620636
vertex 11.4470834732056 -27.5768718719482 -0.00260962569154799
endloop
endfacet
facet normal -0.317809700965881 -0.948154509067535 5.05568114770542e-14
outer loop
vertex 11.4470834732056 -27.5768718719482 0.152609631419182
vertex 11.4470834732056 -27.5768718719482 -0.00260962569154799
vertex 13.7268142700195 -28.3410091400146 0.162828266620636
endloop
endfacet
facet normal -0.317809700965881 -0.948154509067535 3.24920923771167e-14
outer loop
vertex 15.3233652114868 -28.8761539459229 -0.0199846383184195
vertex 15.3233652114868 -28.8761539459229 0.169984638690948
vertex 13.7268142700195 -28.3410091400146 -0.0128282709047198
endloop
endfacet
facet normal -0.317809730768204 -0.94815456867218 -2.56045625511309e-14
outer loop
vertex 13.7268142700195 -28.3410091400146 0.162828266620636
vertex 13.7268142700195 -28.3410091400146 -0.0128282709047198
vertex 15.3233652114868 -28.8761539459229 0.169984638690948
endloop
endfacet
facet normal -0.317809730768204 -0.948154509067535 3.24920957652484e-14
outer loop
vertex 15.3233652114868 -28.8761539459229 -0.0199846383184195
vertex 16.442268371582 -29.2511959075928 -0.025000000372529
vertex 15.3233652114868 -28.8761539459229 0.169984638690948
endloop
endfacet
facet normal -0.317809700965881 -0.948154509067535 -0
outer loop
vertex 16.442268371582 -29.2511959075928 0.174999997019768
vertex 15.3233652114868 -28.8761539459229 0.169984638690948
vertex 16.442268371582 -29.2511959075928 -0.025000000372529
endloop
endfacet
facet normal 0.0107629336416721 -0.00350825907662511 0.999935865402222
outer loop
vertex -2.52082180976868 -22.8950023651123 0.0599999986588955
vertex -1.66995620727539 -23.1735248565674 0.0498644076287746
vertex -2.47433543205261 -22.7523880004883 0.0599999986588955
endloop
endfacet
facet normal 0.0107629336416721 -0.00350825930945575 0.999935925006866
outer loop
vertex -1.62277615070343 -23.0287818908691 0.0498644076287746
vertex -2.47433543205261 -22.7523880004883 0.0599999986588955
vertex -1.66995620727539 -23.1735248565674 0.0498644076287746
endloop
endfacet
facet normal 0.0107629327103496 -0.00350825930945575 0.999935925006866
outer loop
vertex -0.43366414308548 -23.5782146453857 0.0351375825703144
vertex -0.385476112365723 -23.4303798675537 0.0351375825703144
vertex -1.66995620727539 -23.1735248565674 0.0498644076287746
endloop
endfacet
facet normal 0.0107629345729947 -0.00350825977511704 0.999935984611511
outer loop
vertex -1.62277615070343 -23.0287818908691 0.0498644076287746
vertex -1.66995620727539 -23.1735248565674 0.0498644076287746
vertex -0.385476112365723 -23.4303798675537 0.0351375825703144
endloop
endfacet
facet normal 0.0107629336416721 -0.00350825907662511 0.999935925006866
outer loop
vertex -0.43366414308548 -23.5782146453857 0.0351375825703144
vertex 1.36264538764954 -24.1662197113037 0.0137397730723023
vertex -0.385476112365723 -23.4303798675537 0.0351375825703144
endloop
endfacet
facet normal 0.0107629327103496 -0.00350825907662511 0.999935925006866
outer loop
vertex 1.41229796409607 -24.0138912200928 0.0137397730723023
vertex -0.385476112365723 -23.4303798675537 0.0351375825703144
vertex 1.36264538764954 -24.1662197113037 0.0137397730723023
endloop
endfacet
facet normal 0.0107629336416721 -0.00350825907662511 0.999935925006866
outer loop
vertex 3.86606669425964 -24.9856929779053 -0.016081215813756
vertex 3.91776013374329 -24.8271026611328 -0.016081215813756
vertex 1.36264538764954 -24.1662197113037 0.0137397730723023
endloop
endfacet
facet normal 0.0107629336416721 -0.00350825930945575 0.999935865402222
outer loop
vertex 1.41229796409607 -24.0138912200928 0.0137397730723023
vertex 1.36264538764954 -24.1662197113037 0.0137397730723023
vertex 3.91776013374329 -24.8271026611328 -0.016081215813756
endloop
endfacet
facet normal 0.0107629327103496 -0.00350825930945575 0.999935925006866
outer loop
vertex 3.86606669425964 -24.9856929779053 -0.016081215813756
vertex 6.49468469619751 -25.8461475372314 -0.0473935604095459
vertex 3.91776013374329 -24.8271026611328 -0.016081215813756
endloop
endfacet
facet normal 0.0107629336416721 -0.00350825930945575 0.999935925006866
outer loop
vertex 6.54852104187012 -25.6809825897217 -0.0473935604095459
vertex 3.91776013374329 -24.8271026611328 -0.016081215813756
vertex 6.49468469619751 -25.8461475372314 -0.0473935604095459
endloop
endfacet
facet normal 0.0107629336416721 -0.00350825930945575 0.999935925006866
outer loop
vertex 6.49468469619751 -25.8461475372314 -0.0473935604095459
vertex 9.1233024597168 -26.7066020965576 -0.078705906867981
vertex 6.54852104187012 -25.6809825897217 -0.0473935604095459
endloop
endfacet
facet normal 0.0107629327103496 -0.00350825930945575 0.999935865402222
outer loop
vertex 9.17928218841553 -26.5348625183105 -0.078705906867981
vertex 6.54852104187012 -25.6809825897217 -0.0473935604095459
vertex 9.1233024597168 -26.7066020965576 -0.078705906867981
endloop
endfacet
facet normal 0.0107629336416721 -0.00350825930945575 0.999935984611511
outer loop
vertex 11.8044080734253 -27.3869132995605 -0.109951175749302
vertex 9.17928218841553 -26.5348625183105 -0.078705906867981
vertex 11.7462902069092 -27.5652122497559 -0.109951175749302
endloop
endfacet
facet normal 0.0107629336416721 -0.00350825930945575 0.999935925006866
outer loop
vertex 9.1233024597168 -26.7066020965576 -0.078705906867981
vertex 11.7462902069092 -27.5652122497559 -0.109951175749302
vertex 9.17928218841553 -26.5348625183105 -0.078705906867981
endloop
endfacet
facet normal 0.0107629336416721 -0.00350825907662511 0.999935925006866
outer loop
vertex 11.8044080734253 -27.3869132995605 -0.109951175749302
vertex 11.7462902069092 -27.5652122497559 -0.109951175749302
vertex 13.929368019104 -28.0766220092773 -0.135243281722069
endloop
endfacet
facet normal 0.0107629327103496 -0.00350825930945575 0.999935925006866
outer loop
vertex 13.8695192337036 -28.260232925415 -0.135243281722069
vertex 13.929368019104 -28.0766220092773 -0.135243281722069
vertex 11.7462902069092 -27.5652122497559 -0.109951175749302
endloop
endfacet
facet normal 0.0107629336416721 -0.00350825930945575 0.999935984611511
outer loop
vertex 15.392749786377 -28.7588481903076 -0.153388142585754
vertex 15.4538402557373 -28.5714282989502 -0.153388142585754
vertex 13.8695192337036 -28.260232925415 -0.135243281722069
endloop
endfacet
facet normal 0.0107629336416721 -0.00350825907662511 0.999935984611511
outer loop
vertex 13.929368019104 -28.0766220092773 -0.135243281722069
vertex 13.8695192337036 -28.260232925415 -0.135243281722069
vertex 15.4538402557373 -28.5714282989502 -0.153388142585754
endloop
endfacet
facet normal 0.0107629327103496 -0.00350825930945575 0.999935925006866
outer loop
vertex 15.392749786377 -28.7588481903076 -0.153388142585754
vertex 16.4855346679688 -29.1165618896484 -0.166405498981476
vertex 15.4538402557373 -28.5714282989502 -0.153388142585754
endloop
endfacet
facet normal 0.0107629336416721 -0.00350825930945575 0.999935925006866
outer loop
vertex 16.5475158691406 -28.9264087677002 -0.166405498981476
vertex 15.4538402557373 -28.5714282989502 -0.153388142585754
vertex 16.4855346679688 -29.1165618896484 -0.166405498981476
endloop
endfacet
facet normal -0.227581426501274 -0.669511914253235 -0.707078874111176
outer loop
vertex 16.4864711761475 -29.1168632507324 -0.166419327259064
vertex 16.4420967102051 -29.2511386871338 -0.0249962899833918
vertex 15.2699327468872 -28.7186412811279 -0.151927635073662
endloop
endfacet
facet normal -0.227581426501274 -0.669511914253235 -0.707078814506531
outer loop
vertex 15.2283849716187 -28.8443183898926 -0.0195561461150646
vertex 15.2699327468872 -28.7186412811279 -0.151927635073662
vertex 16.4420967102051 -29.2511386871338 -0.0249962899833918
endloop
endfacet
facet normal -0.227581441402435 -0.669511914253235 -0.707078814506531
outer loop
vertex 15.2699327468872 -28.7186412811279 -0.151927635073662
vertex 15.2283849716187 -28.8443183898926 -0.0195561461150646
vertex 13.1904706954956 -28.0379486083984 -0.127156600356102
endloop
endfacet
facet normal -0.227581441402435 -0.669511914253235 -0.707078874111176
outer loop
vertex 13.1538124084473 -28.148946762085 -0.0102574173361063
vertex 13.1904706954956 -28.0379486083984 -0.127156600356102
vertex 15.2283849716187 -28.8443183898926 -0.0195561461150646
endloop
endfacet
facet normal -0.227581441402435 -0.66951197385788 -0.707078874111176
outer loop
vertex 13.1538124084473 -28.148946762085 -0.0102574173361063
vertex 10.5413732528687 -27.2732887268066 0.00145215191878378
vertex 13.1904706954956 -28.0379486083984 -0.127156600356102
endloop
endfacet
facet normal -0.227581426501274 -0.669511914253235 -0.707078874111176
outer loop
vertex 10.5719213485718 -27.1807899475098 -0.095963828265667
vertex 13.1904706954956 -28.0379486083984 -0.127156600356102
vertex 10.5413732528687 -27.2732887268066 0.00145215191878378
endloop
endfacet
facet normal -0.227581426501274 -0.669511914253235 -0.707078874111176
outer loop
vertex 10.5719213485718 -27.1807899475098 -0.095963828265667
vertex 10.5413732528687 -27.2732887268066 0.00145215191878378
vertex 7.95337295532227 -26.3236331939697 -0.0647710636258125
endloop
endfacet
facet normal -0.227581426501274 -0.669511914253235 -0.707078814506531
outer loop
vertex 7.92893409729004 -26.3976306915283 0.0131617216393352
vertex 7.95337295532227 -26.3236331939697 -0.0647710636258125
vertex 10.5413732528687 -27.2732887268066 0.00145215191878378
endloop
endfacet
facet normal -0.227581426501274 -0.669511914253235 -0.707078814506531
outer loop
vertex 7.92893409729004 -26.3976306915283 0.0131617216393352
vertex 5.31649494171143 -25.5219745635986 0.0248712915927172
vertex 7.95337295532227 -26.3236331939697 -0.0647710636258125
endloop
endfacet
facet normal -0.227581441402435 -0.66951197385788 -0.707078874111176
outer loop
vertex 5.3348240852356 -25.4664745330811 -0.0335782989859581
vertex 7.95337295532227 -26.3236331939697 -0.0647710636258125
vertex 5.31649494171143 -25.5219745635986 0.0248712915927172
endloop
endfacet
facet normal -0.227581441402435 -0.66951197385788 -0.707078874111176
outer loop
vertex 5.3348240852356 -25.4664745330811 -0.0335782989859581
vertex 5.31649494171143 -25.5219745635986 0.0248712915927172
vertex 2.7162754535675 -24.609317779541 -0.00238553178496659
endloop
endfacet
facet normal -0.227581426501274 -0.669511914253235 -0.707078814506531
outer loop
vertex 2.70405602455139 -24.6463165283203 0.0365808606147766
vertex 2.7162754535675 -24.609317779541 -0.00238553178496659
vertex 5.31649494171143 -25.5219745635986 0.0248712915927172
endloop
endfacet
facet normal -0.227581426501274 -0.669511914253235 -0.707078814506531
outer loop
vertex 2.70405602455139 -24.6463165283203 0.0365808606147766
vertex 0.091617077589035 -23.770658493042 0.0482904314994812
vertex 2.7162754535675 -24.609317779541 -0.00238553178496659
endloop
endfacet
facet normal -0.227581426501274 -0.669511914253235 -0.707078814506531
outer loop
vertex 0.0977268069982529 -23.7521591186523 0.0288072340190411
vertex 2.7162754535675 -24.609317779541 -0.00238553178496659
vertex 0.091617077589035 -23.770658493042 0.0482904314994812
endloop
endfacet
facet normal -0.227581426501274 -0.669511914253235 -0.707078814506531
outer loop
vertex 0.091617077589035 -23.770658493042 0.0482904314994812
vertex -2.52082180976868 -22.8950023651123 0.0599999986588955
vertex 0.0977268069982529 -23.7521591186523 0.0288072340190411
endloop
endfacet
facet normal -0.950581610202789 0.309849262237549 0.0196975935250521
outer loop
vertex -2.09203171730042 -22.8507080078125 20.0861206054688
vertex -2.1140124797821 -22.8450546264648 18.9364280700684
vertex -2.15401363372803 -23.0408611297607 20.0861206054688
endloop
endfacet
facet normal -0.950581610202789 0.309849232435226 0.0196975916624069
outer loop
vertex -2.17510342597961 -23.0324745178223 18.9364280700684
vertex -2.15401363372803 -23.0408611297607 20.0861206054688
vertex -2.1140124797821 -22.8450546264648 18.9364280700684
endloop
endfacet
facet normal -0.950581610202789 0.309849262237549 0.0196975935250521
outer loop
vertex -2.17510342597961 -23.0324745178223 18.9364280700684
vertex -2.1140124797821 -22.8450546264648 18.9364280700684
vertex -2.20450067520142 -23.0207843780518 17.3338756561279
endloop
endfacet
facet normal -0.950581669807434 0.309849262237549 0.0196975935250521
outer loop
vertex -2.14465165138245 -22.8371753692627 17.3338756561279
vertex -2.20450067520142 -23.0207843780518 17.3338756561279
vertex -2.1140124797821 -22.8450546264648 18.9364280700684
endloop
endfacet
facet normal -0.950581669807434 0.309849262237549 0.0196975935250521
outer loop
vertex -2.20450067520142 -23.0207843780518 17.3338756561279
vertex -2.14465165138245 -22.8371753692627 17.3338756561279
vertex -2.24547743797302 -23.0044898986816 15.1000776290894
endloop
endfacet
facet normal -0.950581610202789 0.309849232435226 0.0196975935250521
outer loop
vertex -2.18735933303833 -22.8261909484863 15.1000776290894
vertex -2.24547743797302 -23.0044898986816 15.1000776290894
vertex -2.14465165138245 -22.8371753692627 17.3338756561279
endloop
endfacet
facet normal -0.950581669807434 0.309849262237549 0.0196975953876972
outer loop
vertex -2.18735933303833 -22.8261909484863 15.1000776290894
vertex -2.24011945724487 -22.8126220703125 12.3404970169067
vertex -2.24547743797302 -23.0044898986816 15.1000776290894
endloop
endfacet
facet normal -0.950581669807434 0.309849262237549 0.0196975935250521
outer loop
vertex -2.2960991859436 -22.9843616485596 12.3404970169067
vertex -2.24547743797302 -23.0044898986816 15.1000776290894
vertex -2.24011945724487 -22.8126220703125 12.3404970169067
endloop
endfacet
facet normal -0.950581610202789 0.309849262237549 0.0196975935250521
outer loop
vertex -2.24011945724487 -22.8126220703125 12.3404970169067
vertex -2.29299283027649 -22.7990245819092 9.57499313354492
vertex -2.2960991859436 -22.9843616485596 12.3404970169067
endloop
endfacet
facet normal -0.950581610202789 0.309849232435226 0.0196975935250521
outer loop
vertex -2.34682941436768 -22.9641895294189 9.57499313354492
vertex -2.2960991859436 -22.9843616485596 12.3404970169067
vertex -2.29299283027649 -22.7990245819092 9.57499313354492
endloop
endfacet
facet normal -0.950581610202789 0.309849232435226 0.0196975935250521
outer loop
vertex -2.29299283027649 -22.7990245819092 9.57499313354492
vertex -2.34586620330811 -22.7854270935059 6.80948829650879
vertex -2.34682941436768 -22.9641895294189 9.57499313354492
endloop
endfacet
facet normal -0.950581610202789 0.309849232435226 0.0196975935250521
outer loop
vertex -2.39755988121033 -22.9440155029297 6.80948829650879
vertex -2.34682941436768 -22.9641895294189 9.57499313354492
vertex -2.34586620330811 -22.7854270935059 6.80948829650879
endloop
endfacet
facet normal -0.950581610202789 0.309849262237549 0.0196975916624069
outer loop
vertex -2.39755988121033 -22.9440155029297 6.80948829650879
vertex -2.34586620330811 -22.7854270935059 6.80948829650879
vertex -2.44587397575378 -22.9248046875 4.17570066452026
endloop
endfacet
facet normal -0.950581610202789 0.309849262237549 0.0196975916624069
outer loop
vertex -2.39622139930725 -22.7724761962891 4.17570066452026
vertex -2.44587397575378 -22.9248046875 4.17570066452026
vertex -2.34586620330811 -22.7854270935059 6.80948829650879
endloop
endfacet
facet normal -0.950581669807434 0.309849262237549 0.0196975935250521
outer loop
vertex -2.39622139930725 -22.7724761962891 4.17570066452026
vertex -2.43235325813293 -22.76318359375 2.28584742546082
vertex -2.44587397575378 -22.9248046875 4.17570066452026
endloop
endfacet
facet normal -0.950581610202789 0.309849262237549 0.0196975935250521
outer loop
vertex -2.48054122924805 -22.911018371582 2.28584742546082
vertex -2.44587397575378 -22.9248046875 4.17570066452026
vertex -2.43235325813293 -22.76318359375 2.28584742546082
endloop
endfacet
facet normal -0.950581669807434 0.309849262237549 0.0196975953876972
outer loop
vertex -2.48054122924805 -22.911018371582 2.28584742546082
vertex -2.43235325813293 -22.76318359375 2.28584742546082
vertex -2.50440073013306 -22.9015312194824 0.985174834728241
endloop
endfacet
facet normal -0.950581669807434 0.309849262237549 0.0196975935250521
outer loop
vertex -2.45722079277039 -22.7567882537842 0.985174834728241
vertex -2.50440073013306 -22.9015312194824 0.985174834728241
vertex -2.43235325813293 -22.76318359375 2.28584742546082
endloop
endfacet
facet normal -0.950581610202789 0.309849262237549 0.0196975935250521
outer loop
vertex -2.45722079277039 -22.7567882537842 0.985174834728241
vertex -2.47433543205261 -22.7523880004883 0.0900000035762787
vertex -2.50440073013306 -22.9015312194824 0.985174834728241
endloop
endfacet
facet normal -0.950581550598145 0.309849262237549 0.0196975935250521
outer loop
vertex -2.52082180976868 -22.8950023651123 0.0900000035762787
vertex -2.50440073013306 -22.9015312194824 0.985174834728241
vertex -2.47433543205261 -22.7523880004883 0.0900000035762787
endloop
endfacet
facet normal 0.209671512246132 0.675351619720459 -0.707062959671021
outer loop
vertex 2.17353820800781 -9.39225387573242 14.2292127609253
vertex 1.90097737312317 -10.1811056137085 13.3949165344238
vertex 1.98332321643829 -9.33051490783691 14.2317771911621
endloop
endfacet
facet normal 0.209671512246132 0.675351560115814 -0.707062959671021
outer loop
vertex 1.72030234336853 -10.1224632263184 13.3973522186279
vertex 1.98332321643829 -9.33051490783691 14.2317771911621
vertex 1.90097737312317 -10.1811056137085 13.3949165344238
endloop
endfacet
facet normal 0.209671527147293 0.675351679325104 -0.707062959671021
outer loop
vertex 1.72030234336853 -10.1224632263184 13.3973522186279
vertex 1.90097737312317 -10.1811056137085 13.3949165344238
vertex 1.34500062465668 -11.2524843215942 12.2067193984985
endloop
endfacet
facet normal 0.209671512246132 0.675351619720459 -0.707062959671021
outer loop
vertex 1.51206314563751 -11.3067092895508 12.2044677734375
vertex 1.34500062465668 -11.2524843215942 12.2067193984985
vertex 1.90097737312317 -10.1811056137085 13.3949165344238
endloop
endfacet
facet normal 0.209671512246132 0.675351560115814 -0.707062959671021
outer loop
vertex 1.34500062465668 -11.2524843215942 12.2067193984985
vertex 1.51206314563751 -11.3067092895508 12.2044677734375
vertex 0.809103846549988 -12.8660535812378 10.5066041946411
endloop
endfacet
facet normal 0.209671512246132 0.675351619720459 -0.707063019275665
outer loop
vertex 0.956728935241699 -12.913969039917 10.5046148300171
vertex 0.809103846549988 -12.8660535812378 10.5066041946411
vertex 1.51206314563751 -11.3067092895508 12.2044677734375
endloop
endfacet
facet normal 0.209671512246132 0.675351560115814 -0.707062959671021
outer loop
vertex 0.956728935241699 -12.913969039917 10.5046148300171
vertex 0.295750647783279 -14.8269853591919 8.48138904571533
vertex 0.809103846549988 -12.8660535812378 10.5066041946411
endloop
endfacet
facet normal 0.209671527147293 0.675351560115814 -0.707062959671021
outer loop
vertex 0.171260625123978 -14.7865791320801 8.48306751251221
vertex 0.809103846549988 -12.8660535812378 10.5066041946411
vertex 0.295750647783279 -14.8269853591919 8.48138904571533
endloop
endfacet
facet normal 0.209671527147293 0.675351560115814 -0.707062959671021
outer loop
vertex 0.295750647783279 -14.8269853591919 8.48138904571533
vertex -0.36522763967514 -16.7400035858154 6.45816469192505
vertex 0.171260625123978 -14.7865791320801 8.48306751251221
endloop
endfacet
facet normal 0.209671512246132 0.675351619720459 -0.707062959671021
outer loop
vertex -0.466582596302032 -16.7071056365967 6.4595308303833
vertex 0.171260625123978 -14.7865791320801 8.48306751251221
vertex -0.36522763967514 -16.7400035858154 6.45816469192505
endloop
endfacet
facet normal 0.209671512246132 0.675351619720459 -0.707062959671021
outer loop
vertex -0.36522763967514 -16.7400035858154 6.45816469192505
vertex -1.02620589733124 -18.653018951416 4.43493938446045
vertex -0.466582596302032 -16.7071056365967 6.4595308303833
endloop
endfacet
facet normal 0.209671527147293 0.675351619720459 -0.707062959671021
outer loop
vertex -1.10442578792572 -18.6276321411133 4.43599367141724
vertex -0.466582596302032 -16.7071056365967 6.4595308303833
vertex -1.02620589733124 -18.653018951416 4.43493938446045
endloop
endfacet
facet normal 0.209671542048454 0.675351619720459 -0.707063019275665
outer loop
vertex -1.10442578792572 -18.6276321411133 4.43599367141724
vertex -1.02620589733124 -18.653018951416 4.43493938446045
vertex -1.66901767253876 -20.327600479126 2.64484453201294
endloop
endfacet
facet normal 0.209671512246132 0.675351619720459 -0.707062959671021
outer loop
vertex -1.61127591133118 -20.346342086792 2.64406609535217
vertex -1.66901767253876 -20.327600479126 2.64484453201294
vertex -1.02620589733124 -18.653018951416 4.43493938446045
endloop
endfacet
facet normal 0.209671512246132 0.675351619720459 -0.707062959671021
outer loop
vertex -1.61127591133118 -20.346342086792 2.64406609535217
vertex -1.97157573699951 -21.3891296386719 1.54120469093323
vertex -1.66901767253876 -20.327600479126 2.64484453201294
endloop
endfacet
facet normal 0.209671527147293 0.675351619720459 -0.707062959671021
outer loop
vertex -2.0167064666748 -21.3744812011719 1.54181301593781
vertex -1.66901767253876 -20.327600479126 2.64484453201294
vertex -1.97157573699951 -21.3891296386719 1.54120469093323
endloop
endfacet
facet normal 0.209671497344971 0.675351619720459 -0.707062959671021
outer loop
vertex -2.0167064666748 -21.3744812011719 1.54181301593781
vertex -1.97157573699951 -21.3891296386719 1.54120469093323
vertex -2.22620677947998 -22.0052795410156 0.877180576324463
endloop
endfacet
facet normal 0.209671512246132 0.675351619720459 -0.707062959671021
outer loop
vertex -2.18867468833923 -22.0174617767334 0.876674652099609
vertex -2.22620677947998 -22.0052795410156 0.877180576324463
vertex -1.97157573699951 -21.3891296386719 1.54120469093323
endloop
endfacet
facet normal 0.209671527147293 0.675351619720459 -0.707063019275665
outer loop
vertex -2.18867468833923 -22.0174617767334 0.876674652099609
vertex -2.31948781013489 -22.3960628509521 0.476261556148529
vertex -2.22620677947998 -22.0052795410156 0.877180576324463
endloop
endfacet
facet normal 0.209671497344971 0.675351560115814 -0.707062900066376
outer loop
vertex -2.35244107246399 -22.3853664398193 0.476705759763718
vertex -2.22620677947998 -22.0052795410156 0.877180576324463
vertex -2.31948781013489 -22.3960628509521 0.476261556148529
endloop
endfacet
facet normal 0.209671527147293 0.675351619720459 -0.707063019275665
outer loop
vertex -2.35244107246399 -22.3853664398193 0.476705759763718
vertex -2.31948781013489 -22.3960628509521 0.476261556148529
vertex -2.42850375175476 -22.6143894195557 0.235399350523949
endloop
endfacet
facet normal 0.209671527147293 0.675351619720459 -0.707062959671021
outer loop
vertex -2.39830923080444 -22.6241893768311 0.2349923402071
vertex -2.42850375175476 -22.6143894195557 0.235399350523949
vertex -2.31948781013489 -22.3960628509521 0.476261556148529
endloop
endfacet
facet normal 0.209671512246132 0.675351560115814 -0.707062959671021
outer loop
vertex -2.42850375175476 -22.6143894195557 0.235399350523949
vertex -2.39830923080444 -22.6241893768311 0.2349923402071
vertex -2.47433543205261 -22.7523880004883 0.0900000035762787
endloop
endfacet
facet normal 0.209671527147293 0.675351560115814 -0.707062959671021
outer loop
vertex -2.44580316543579 -22.7616481781006 0.0896153971552849
vertex -2.47433543205261 -22.7523880004883 0.0900000035762787
vertex -2.39830923080444 -22.6241893768311 0.2349923402071
endloop
endfacet
facet normal -0.225892439484596 -0.670032262802124 0.707127451896667
outer loop
vertex 2.17294549942017 -9.39410209655762 14.2321004867554
vertex 1.98328292369843 -9.3306360244751 14.2316493988037
vertex 1.87550020217896 -10.2490882873535 13.3269472122192
endloop
endfacet
facet normal -0.225892439484596 -0.670032322406769 0.707127511501312
outer loop
vertex 1.69797337055206 -10.1896944046021 13.3265142440796
vertex 1.87550020217896 -10.2490882873535 13.3269472122192
vertex 1.98328292369843 -9.3306360244751 14.2316493988037
endloop
endfacet
facet normal -0.225892454385757 -0.670032322406769 0.707127511501312
outer loop
vertex 1.87550020217896 -10.2490882873535 13.3269472122192
vertex 1.69797337055206 -10.1896944046021 13.3265142440796
vertex 1.36707019805908 -11.7105350494385 11.779748916626
endloop
endfacet
facet normal -0.225892469286919 -0.670032382011414 0.707127511501312
outer loop
vertex 1.21030139923096 -11.6580600738525 11.779390335083
vertex 1.36707019805908 -11.7105350494385 11.779748916626
vertex 1.69797337055206 -10.1896944046021 13.3265142440796
endloop
endfacet
facet normal -0.225892439484596 -0.670032262802124 0.707127451896667
outer loop
vertex 1.21030139923096 -11.6580600738525 11.779390335083
vertex 0.59619528055191 -13.5071144104004 9.83115863800049
vertex 1.36707019805908 -11.7105350494385 11.779748916626
endloop
endfacet
facet normal -0.225892454385757 -0.670032322406769 0.707127511501312
outer loop
vertex 0.726835906505585 -13.5508432388306 9.83145713806152
vertex 1.36707019805908 -11.7105350494385 11.779748916626
vertex 0.59619528055191 -13.5071144104004 9.83115863800049
endloop
endfacet
facet normal -0.225892454385757 -0.670032322406769 0.707127511501312
outer loop
vertex 0.726835906505585 -13.5508432388306 9.83145713806152
vertex 0.59619528055191 -13.5071144104004 9.83115863800049
vertex 0.0866016298532486 -15.391152381897 7.88316583633423
endloop
endfacet
facet normal -0.225892454385757 -0.670032322406769 0.707127451896667
outer loop
vertex -0.0179108623415232 -15.3561687469482 7.88292694091797
vertex 0.0866016298532486 -15.391152381897 7.88316583633423
vertex 0.59619528055191 -13.5071144104004 9.83115863800049
endloop
endfacet
facet normal -0.225892454385757 -0.670032322406769 0.707127451896667
outer loop
vertex -0.0179108623415232 -15.3561687469482 7.88292694091797
vertex -0.632017016410828 -17.2052230834961 5.93469524383545
vertex 0.0866016298532486 -15.391152381897 7.88316583633423
endloop
endfacet
facet normal -0.225892439484596 -0.670032262802124 0.707127451896667
outer loop
vertex -0.55363267660141 -17.2314605712891 5.93487405776978
vertex 0.0866016298532486 -15.391152381897 7.88316583633423
vertex -0.632017016410828 -17.2052230834961 5.93469524383545
endloop
endfacet
facet normal -0.225892439484596 -0.670032262802124 0.707127451896667
outer loop
vertex -0.55363267660141 -17.2314605712891 5.93487405776978
vertex -0.632017016410828 -17.2052230834961 5.93469524383545
vertex -1.19386696815491 -19.0717697143555 3.98658275604248
endloop
endfacet
facet normal -0.225892454385757 -0.670032322406769 0.707127451896667
outer loop
vertex -1.24612319469452 -19.0542774200439 3.98646354675293
vertex -1.19386696815491 -19.0717697143555 3.98658275604248
vertex -0.632017016410828 -17.2052230834961 5.93469524383545
endloop
endfacet
facet normal -0.225892454385757 -0.670032322406769 0.707127451896667
outer loop
vertex -1.24612319469452 -19.0542774200439 3.98646354675293
vertex -1.86022937297821 -20.9033317565918 2.03823184967041
vertex -1.19386696815491 -19.0717697143555 3.98658275604248
endloop
endfacet
facet normal -0.225892454385757 -0.670032322406769 0.707127451896667
outer loop
vertex -1.83410120010376 -20.9120788574219 2.03829145431519
vertex -1.19386696815491 -19.0717697143555 3.98658275604248
vertex -1.86022937297821 -20.9033317565918 2.03823184967041
endloop
endfacet
facet normal -0.225892454385757 -0.670032322406769 0.707127451896667
outer loop
vertex -1.86022937297821 -20.9033317565918 2.03823184967041
vertex -2.47433543205261 -22.7523880004883 0.0900000035762787
vertex -1.83410120010376 -20.9120788574219 2.03829145431519
endloop
endfacet
facet normal -0.317805141210556 -0.948155462741852 -0.00108635984361172
outer loop
vertex -0.320368319749832 -23.6532173156738 18.1228275299072
vertex -2.15401363372803 -23.0408611297607 20.0861206054688
vertex -0.338978886604309 -23.6469573974609 18.1034984588623
endloop
endfacet
facet normal -0.317805141210556 -0.948155462741852 -0.00108635984361172
outer loop
vertex 1.51327693462372 -24.2655735015869 16.1595363616943
vertex -0.320368319749832 -23.6532173156738 18.1228275299072
vertex 1.47605574131012 -24.2530536651611 16.1208782196045
endloop
endfacet
facet normal -0.317805141210556 -0.948155462741852 -0.00108635984361172
outer loop
vertex -0.338978886604309 -23.6469573974609 18.1034984588623
vertex 1.47605574131012 -24.2530536651611 16.1208782196045
vertex -0.320368319749832 -23.6532173156738 18.1228275299072
endloop
endfacet
facet normal -0.317805141210556 -0.948155462741852 -0.00108635984361172
outer loop
vertex 1.51327693462372 -24.2655735015869 16.1595363616943
vertex 1.47605574131012 -24.2530536651611 16.1208782196045
vertex 3.34692215919495 -24.8779296875 14.1962442398071
endloop
endfacet
facet normal -0.317805171012878 -0.948155462741852 -0.00108635996002704
outer loop
vertex 3.29109048843384 -24.8591499328613 14.138256072998
vertex 3.34692215919495 -24.8779296875 14.1962442398071
vertex 1.47605574131012 -24.2530536651611 16.1208782196045
endloop
endfacet
facet normal -0.317805171012878 -0.948155462741852 -0.00108635996002704
outer loop
vertex 3.29109048843384 -24.8591499328613 14.138256072998
vertex 5.10612487792969 -25.4652462005615 12.1556358337402
vertex 3.34692215919495 -24.8779296875 14.1962442398071
endloop
endfacet
facet normal -0.317805141210556 -0.948155462741852 -0.00108635984361172
outer loop
vertex 5.18056726455688 -25.4902858734131 12.2329521179199
vertex 3.34692215919495 -24.8779296875 14.1962442398071
vertex 5.10612487792969 -25.4652462005615 12.1556358337402
endloop
endfacet
facet normal -0.317805141210556 -0.948155462741852 -0.00108635984361172
outer loop
vertex 5.10612487792969 -25.4652462005615 12.1556358337402
vertex 6.9211597442627 -26.0713424682617 10.1730146408081
vertex 5.18056726455688 -25.4902858734131 12.2329521179199
endloop
endfacet
facet normal -0.317805141210556 -0.948155403137207 -0.00108635984361172
outer loop
vertex 7.0142126083374 -26.1026420593262 10.2696599960327
vertex 5.18056726455688 -25.4902858734131 12.2329521179199
vertex 6.9211597442627 -26.0713424682617 10.1730146408081
endloop
endfacet
facet normal -0.317805171012878 -0.948155462741852 -0.00108635996002704
outer loop
vertex 8.84785747528076 -26.7149982452393 8.30636787414551
vertex 7.0142126083374 -26.1026420593262 10.2696599960327
vertex 8.7361946105957 -26.6774387359619 8.19039344787598
endloop
endfacet
facet normal -0.317805141210556 -0.948155403137207 -0.00108635984361172
outer loop
vertex 6.9211597442627 -26.0713424682617 10.1730146408081
vertex 8.7361946105957 -26.6774387359619 8.19039344787598
vertex 7.0142126083374 -26.1026420593262 10.2696599960327
endloop
endfacet
facet normal -0.317805141210556 -0.948155462741852 -0.00108635996002704
outer loop
vertex 8.84785747528076 -26.7149982452393 8.30636787414551
vertex 8.7361946105957 -26.6774387359619 8.19039344787598
vertex 10.3039808273315 -27.2012786865234 6.74729156494141
endloop
endfacet
facet normal -0.317805141210556 -0.948155462741852 -0.00108635984361172
outer loop
vertex 10.1775636672974 -27.1587562561035 6.61593866348267
vertex 10.3039808273315 -27.2012786865234 6.74729156494141
vertex 8.7361946105957 -26.6774387359619 8.19039344787598
endloop
endfacet
facet normal -0.317805171012878 -0.948155462741852 -0.00108635996002704
outer loop
vertex 10.3039808273315 -27.2012786865234 6.74729156494141
vertex 10.1775636672974 -27.1587562561035 6.61593866348267
vertex 11.155873298645 -27.4857730865479 5.83516645431519
endloop
endfacet
facet normal -0.317805141210556 -0.948155462741852 -0.00108635984361172
outer loop
vertex 11.0208015441895 -27.4403400421143 5.69484329223633
vertex 11.155873298645 -27.4857730865479 5.83516645431519
vertex 10.1775636672974 -27.1587562561035 6.61593866348267
endloop
endfacet
facet normal -1 -0 -0
outer loop
vertex -0.226420000195503 -20 0.174999997019768
vertex -0.226420000195503 -20 -0.025000000372529
vertex -0.226420000195503 -21 0.174999997019768
endloop
endfacet
facet normal -1 0 0
outer loop
vertex -0.226420000195503 -21 -0.025000000372529
vertex -0.226420000195503 -21 0.174999997019768
vertex -0.226420000195503 -20 -0.025000000372529
endloop
endfacet
facet normal -0.70710676908493 0 -0.70710676908493
outer loop
vertex -0.226420000195503 -21 -0.025000000372529
vertex -0.226420000195503 -20 -0.025000000372529
vertex -0.0850000008940697 -21 -0.166419997811317
endloop
endfacet
facet normal -0.70710676908493 -0 -0.70710676908493
outer loop
vertex -0.0850000008940697 -20 -0.166419997811317
vertex -0.0850000008940697 -21 -0.166419997811317
vertex -0.226420000195503 -20 -0.025000000372529
endloop
endfacet
facet normal -0.70710676908493 0 0.70710676908493
outer loop
vertex -0.0850000008940697 -21 0.316419988870621
vertex -0.0850000008940697 -20 0.316419988870621
vertex -0.226420000195503 -21 0.174999997019768
endloop
endfacet
facet normal -0.70710676908493 0 0.70710676908493
outer loop
vertex -0.226420000195503 -20 0.174999997019768
vertex -0.226420000195503 -21 0.174999997019768
vertex -0.0850000008940697 -20 0.316419988870621
endloop
endfacet
facet normal -0 -0 -1
outer loop
vertex 0.115000002086163 -20 -0.166419997811317
vertex 0.115000002086163 -21 -0.166419997811317
vertex -0.0850000008940697 -20 -0.166419997811317
endloop
endfacet
facet normal 0 0 -1
outer loop
vertex -0.0850000008940697 -21 -0.166419997811317
vertex -0.0850000008940697 -20 -0.166419997811317
vertex 0.115000002086163 -21 -0.166419997811317
endloop
endfacet
facet normal 0 -0 1
outer loop
vertex 0.115000002086163 -21 0.316419988870621
vertex 0.115000002086163 -20 0.316419988870621
vertex -0.0850000008940697 -21 0.316419988870621
endloop
endfacet
facet normal -0 0 1
outer loop
vertex -0.0850000008940697 -20 0.316419988870621
vertex -0.0850000008940697 -21 0.316419988870621
vertex 0.115000002086163 -20 0.316419988870621
endloop
endfacet
facet normal 0.70710676908493 0 -0.70710676908493
outer loop
vertex 0.256419986486435 -20 -0.025000000372529
vertex 0.256419986486435 -21 -0.025000000372529
vertex 0.115000002086163 -20 -0.166419997811317
endloop
endfacet
facet normal 0.70710676908493 0 -0.70710676908493
outer loop
vertex 0.115000002086163 -21 -0.166419997811317
vertex 0.115000002086163 -20 -0.166419997811317
vertex 0.256419986486435 -21 -0.025000000372529
endloop
endfacet
facet normal 0.70710676908493 0 0.70710676908493
outer loop
vertex 0.115000002086163 -20 0.316419988870621
vertex 0.115000002086163 -21 0.316419988870621
vertex 0.256419986486435 -20 0.174999997019768
endloop
endfacet
facet normal 0.70710676908493 -0 0.70710676908493
outer loop
vertex 0.256419986486435 -21 0.174999997019768
vertex 0.256419986486435 -20 0.174999997019768
vertex 0.115000002086163 -21 0.316419988870621
endloop
endfacet
facet normal 1 0 -0
outer loop
vertex 0.256419986486435 -20 -0.025000000372529
vertex 0.256419986486435 -20 0.174999997019768
vertex 0.256419986486435 -21 -0.025000000372529
endloop
endfacet
facet normal 1 -0 0
outer loop
vertex 0.256419986486435 -21 0.174999997019768
vertex 0.256419986486435 -21 -0.025000000372529
vertex 0.256419986486435 -20 0.174999997019768
endloop
endfacet
facet normal -0 0.00832071248441935 0.99996542930603
outer loop
vertex -0.0850000008940697 -19.9993076324463 0.3164142370224
vertex 0.115000002086163 -19.9993076324463 0.3164142370224
vertex -0.0799846351146698 -18.819263458252 0.306595087051392
endloop
endfacet
facet normal 0 0.00832071155309677 0.999965369701385
outer loop
vertex 0.109984636306763 -18.819263458252 0.306595087051392
vertex -0.0799846351146698 -18.819263458252 0.306595087051392
vertex 0.115000002086163 -19.9993076324463 0.3164142370224
endloop
endfacet
facet normal -0 0.0083207106217742 0.999965369701385
outer loop
vertex -0.0799846351146698 -18.819263458252 0.306595087051392
vertex 0.109984636306763 -18.819263458252 0.306595087051392
vertex -0.0728282704949379 -17.1354713439941 0.292584240436554
endloop
endfacet
facet normal -1.47720798995696e-16 0.00832071341574192 0.99996542930603
outer loop
vertex 0.102828271687031 -17.1354713439941 0.292584240436554
vertex -0.0728282704949379 -17.1354713439941 0.292584240436554
vertex 0.109984636306763 -18.819263458252 0.306595087051392
endloop
endfacet
facet normal -1.47720785760806e-16 0.00832071155309677 0.999965369701385
outer loop
vertex 0.102828271687031 -17.1354713439941 0.292584240436554
vertex 0.092609629034996 -14.7311668395996 0.272578030824661
vertex -0.0728282704949379 -17.1354713439941 0.292584240436554
endloop
endfacet
facet normal -4.52841918931397e-16 0.00832071155309677 0.999965369701385
outer loop
vertex -0.0626096278429031 -14.7311668395996 0.272578030824661
vertex -0.0728282704949379 -17.1354713439941 0.292584240436554
vertex 0.092609629034996 -14.7311668395996 0.272578030824661
endloop
endfacet
facet normal -4.52841918931397e-16 0.00832071248441935 0.999965369701385
outer loop
vertex -0.0626096278429031 -14.7311668395996 0.272578030824661
vertex 0.092609629034996 -14.7311668395996 0.272578030824661
vertex -0.0504470355808735 -11.8694801330566 0.24876594543457
endloop
endfacet
facet normal -9.91187896360734e-17 0.00832071248441935 0.999965369701385
outer loop
vertex 0.0804470330476761 -11.8694801330566 0.24876594543457
vertex -0.0504470355808735 -11.8694801330566 0.24876594543457
vertex 0.092609629034996 -14.7311668395996 0.272578030824661
endloop
endfacet
facet normal -9.91187896360734e-17 0.00832071248441935 0.999965369701385
outer loop
vertex 0.0804470330476761 -11.8694801330566 0.24876594543457
vertex 0.0682844445109367 -9.00779342651367 0.224953845143318
vertex -0.0504470355808735 -11.8694801330566 0.24876594543457
endloop
endfacet
facet normal 1.04792011175991e-16 0.00832071248441935 0.99996542930603
outer loop
vertex -0.0382844470441341 -9.00779342651367 0.224953845143318
vertex -0.0504470355808735 -11.8694801330566 0.24876594543457
vertex 0.0682844445109367 -9.00779342651367 0.224953845143318
endloop
endfacet
facet normal 1.04792011175991e-16 0.00832071248441935 0.99996542930603
outer loop
vertex -0.0382844470441341 -9.00779342651367 0.224953845143318
vertex 0.0682844445109367 -9.00779342651367 0.224953845143318
vertex -0.0261218566447496 -6.1461067199707 0.201141744852066
endloop
endfacet
facet normal 2.25644547890421e-16 0.00832071155309677 0.999965369701385
outer loop
vertex 0.0561218559741974 -6.1461067199707 0.201141744852066
vertex -0.0261218566447496 -6.1461067199707 0.201141744852066
vertex 0.0682844445109367 -9.00779342651367 0.224953845143318
endloop
endfacet
facet normal 2.25644547890421e-16 0.00832071155309677 0.999965369701385
outer loop
vertex 0.0561218559741974 -6.1461067199707 0.201141744852066
vertex 0.0453560464084148 -3.61306238174438 0.180064290761948
vertex -0.0261218566447496 -6.1461067199707 0.201141744852066
endloop
endfacet
facet normal 9.19715388620314e-17 0.00832071155309677 0.99996542930603
outer loop
vertex -0.0153560461476445 -3.61306238174438 0.180064290761948
vertex -0.0261218566447496 -6.1461067199707 0.201141744852066
vertex 0.0453560464084148 -3.61306238174438 0.180064290761948
endloop
endfacet
facet normal 9.19715322445865e-17 0.00832071155309677 0.999965369701385
outer loop
vertex -0.0153560461476445 -3.61306238174438 0.180064290761948
vertex 0.0453560464084148 -3.61306238174438 0.180064290761948
vertex -0.00872620940208435 -2.05315470695496 0.1670843064785
endloop
endfacet
facet normal 1.95541618984824e-16 0.00832071155309677 0.999965369701385
outer loop
vertex 0.0387262105941772 -2.05315470695496 0.1670843064785
vertex -0.00872620940208435 -2.05315470695496 0.1670843064785
vertex 0.0453560464084148 -3.61306238174438 0.180064290761948
endloop
endfacet
facet normal 1.95541632219714e-16 0.00832071248441935 0.99996542930603
outer loop
vertex 0.0387262105941772 -2.05315470695496 0.1670843064785
vertex 0.0347313955426216 -1.1132310628891 0.15926319360733
vertex -0.00872620940208435 -2.05315470695496 0.1670843064785
endloop
endfacet
facet normal 1.45344003369877e-15 0.00832071248441935 0.99996542930603
outer loop
vertex -0.00473139574751258 -1.1132310628891 0.15926319360733
vertex -0.00872620940208435 -2.05315470695496 0.1670843064785
vertex 0.0347313955426216 -1.1132310628891 0.15926319360733
endloop
endfacet
facet normal 1.45344003369877e-15 0.00832071155309677 0.99996542930603
outer loop
vertex -0.00473139574751258 -1.1132310628891 0.15926319360733
vertex 0.0347313955426216 -1.1132310628891 0.15926319360733
vertex -0.00232431804761291 -0.546879470348358 0.154550582170486
endloop
endfacet
facet normal 9.3433800955634e-16 0.00832071248441935 0.999965369701385
outer loop
vertex 0.0323243178427219 -0.546879470348358 0.154550582170486
vertex -0.00232431804761291 -0.546879470348358 0.154550582170486
vertex 0.0347313955426216 -1.1132310628891 0.15926319360733
endloop
endfacet
facet normal 9.34338115435459e-16 0.00832071248441935 0.99996542930603
outer loop
vertex 0.0323243178427219 -0.546879470348358 0.154550582170486
vertex 0.0308739319443703 -0.205623835325241 0.151711001992226
vertex -0.00232431804761291 -0.546879470348358 0.154550582170486
endloop
endfacet
facet normal 8.59671102343808e-16 0.0083207106217742 0.999965369701385
outer loop
vertex -0.000873931508976966 -0.205623835325241 0.151711001992226
vertex -0.00232431804761291 -0.546879470348358 0.154550582170486
vertex 0.0308739319443703 -0.205623835325241 0.151711001992226
endloop
endfacet
facet normal 8.59671208222927e-16 0.00832071155309677 0.99996542930603
outer loop
vertex -0.000873931508976966 -0.205623835325241 0.151711001992226
vertex 0.0308739319443703 -0.205623835325241 0.151711001992226
vertex 0 0 0.150000005960464
endloop
endfacet
facet normal 0 0.00832071248441935 0.99996542930603
outer loop
vertex 0.0299999993294477 0 0.150000005960464
vertex 0 0 0.150000005960464
vertex 0.0308739319443703 -0.205623835325241 0.151711001992226
endloop
endfacet
facet normal -0.999935925006866 -0.011320274323225 0
outer loop
vertex 0.256405502557755 -19.9987182617188 -0.025000000372529
vertex 0.256405502557755 -19.9987182617188 0.174999997019768
vertex 0.243388146162033 -18.848876953125 -0.0235626064240932
endloop
endfacet
facet normal -0.999935925006866 -0.011320274323225 -0
outer loop
vertex 0.243388146162033 -18.848876953125 0.173562601208687
vertex 0.243388146162033 -18.848876953125 -0.0235626064240932
vertex 0.256405502557755 -19.9987182617188 0.174999997019768
endloop
endfacet
facet normal -0.999935984611511 -0.011320274323225 -0
outer loop
vertex 0.243388146162033 -18.848876953125 0.173562601208687
vertex 0.225243285298347 -17.2461166381836 0.171559020876884
vertex 0.243388146162033 -18.848876953125 -0.0235626064240932
endloop
endfacet
facet normal -0.999935984611511 -0.011320274323225 1.29080594911724e-16
outer loop
vertex 0.225243285298347 -17.2461166381836 -0.0215590260922909
vertex 0.243388146162033 -18.848876953125 -0.0235626064240932
vertex 0.225243285298347 -17.2461166381836 0.171559020876884
endloop
endfacet
facet normal -0.999935925006866 -0.011320274323225 1.29080594911724e-16
outer loop
vertex 0.225243285298347 -17.2461166381836 -0.0215590260922909
vertex 0.225243285298347 -17.2461166381836 0.171559020876884
vertex 0.199951171875 -15.0120286941528 -0.0187662392854691
endloop
endfacet
facet normal -0.999935925006866 -0.011320274323225 -1.22298018291255e-16
outer loop
vertex 0.199951171875 -15.0120286941528 0.168766245245934
vertex 0.199951171875 -15.0120286941528 -0.0187662392854691
vertex 0.225243285298347 -17.2461166381836 0.171559020876884
endloop
endfacet
facet normal -0.999935984611511 -0.0113202752545476 -1.22298018291255e-16
outer loop
vertex 0.199951171875 -15.0120286941528 0.168766245245934
vertex 0.16870591044426 -12.2520895004272 0.165316089987755
vertex 0.199951171875 -15.0120286941528 -0.0187662392854691
endloop
endfacet
facet normal -0.999935925006866 -0.011320274323225 -2.8061801848863e-16
outer loop
vertex 0.16870591044426 -12.2520895004272 -0.0153160933405161
vertex 0.199951171875 -15.0120286941528 -0.0187662392854691
vertex 0.16870591044426 -12.2520895004272 0.165316089987755
endloop
endfacet
facet normal -0.999935865402222 -0.011320274323225 -2.8061801848863e-16
outer loop
vertex 0.16870591044426 -12.2520895004272 -0.0153160933405161
vertex 0.16870591044426 -12.2520895004272 0.165316089987755
vertex 0.137393563985825 -9.48622512817383 -0.0118585415184498
endloop
endfacet
facet normal -0.999935925006866 -0.0113202752545476 1.43496513338841e-16
outer loop
vertex 0.137393563985825 -9.48622512817383 0.161858543753624
vertex 0.137393563985825 -9.48622512817383 -0.0118585415184498
vertex 0.16870591044426 -12.2520895004272 0.165316089987755
endloop
endfacet
facet normal -0.999935925006866 -0.0113202752545476 1.43496513338841e-16
outer loop
vertex 0.137393563985825 -9.48622512817383 0.161858543753624
vertex 0.10608121752739 -6.72036170959473 0.158400997519493
vertex 0.137393563985825 -9.48622512817383 -0.0118585415184498
endloop
endfacet
facet normal -0.999935925006866 -0.011320274323225 1.49445424250755e-16
outer loop
vertex 0.10608121752739 -6.72036170959473 -0.00840099062770605
vertex 0.137393563985825 -9.48622512817383 -0.0118585415184498
vertex 0.10608121752739 -6.72036170959473 0.158400997519493
endloop
endfacet
facet normal -0.999935925006866 -0.011320274323225 1.49445437485645e-16
outer loop
vertex 0.10608121752739 -6.72036170959473 -0.00840099062770605
vertex 0.10608121752739 -6.72036170959473 0.158400997519493
vertex 0.0762602239847183 -4.08623170852661 -0.00510811666026711
endloop
endfacet
facet normal -0.999935865402222 -0.011320274323225 -7.15746744722375e-17
outer loop
vertex 0.0762602239847183 -4.08623170852661 0.155108124017715
vertex 0.0762602239847183 -4.08623170852661 -0.00510811666026711
vertex 0.10608121752739 -6.72036170959473 0.158400997519493
endloop
endfacet
facet normal -0.999935925006866 -0.0113202752545476 -7.15746744722375e-17
outer loop
vertex 0.0762602239847183 -4.08623170852661 0.155108124017715
vertex 0.054862417280674 -2.19613265991211 0.152745336294174
vertex 0.0762602239847183 -4.08623170852661 -0.00510811666026711
endloop
endfacet
facet normal -0.999935925006866 -0.011320274323225 -4.91666130672496e-17
outer loop
vertex 0.054862417280674 -2.19613265991211 -0.00274534174241126
vertex 0.0762602239847183 -4.08623170852661 -0.00510811666026711
vertex 0.054862417280674 -2.19613265991211 0.152745336294174
endloop
endfacet
facet normal -0.999935925006866 -0.011320274323225 -4.91666097585271e-17
outer loop
vertex 0.054862417280674 -2.19613265991211 -0.00274534174241126
vertex 0.054862417280674 -2.19613265991211 0.152745336294174
vertex 0.0401355922222137 -0.895291209220886 -0.0011191857047379
endloop
endfacet
facet normal -0.999935984611511 -0.0113202752545476 -6.20872106312748e-17
outer loop
vertex 0.0401355922222137 -0.895291209220886 0.151119187474251
vertex 0.0401355922222137 -0.895291209220886 -0.0011191857047379
vertex 0.054862417280674 -2.19613265991211 0.152745336294174
endloop
endfacet
facet normal -0.999935925006866 -0.011320274323225 -6.20872040138299e-17
outer loop
vertex 0.0401355922222137 -0.895291209220886 -0.0011191857047379
vertex 0.0401355922222137 -0.895291209220886 0.151119187474251
vertex 0.0299999993294477 0 0
endloop
endfacet
facet normal -0.999935865402222 -0.011320274323225 -0
outer loop
vertex 0.0299999993294477 0 0.150000005960464
vertex 0.0299999993294477 0 0
vertex 0.0401355922222137 -0.895291209220886 0.151119187474251
endloop
endfacet
facet normal 0.707078814506531 0.00888868700712919 0.707078814506531
outer loop
vertex 0.256419330835342 -19.9997024536133 0.174996942281723
vertex 0.24192763864994 -18.7196464538574 0.173397049307823
vertex 0.114996291697025 -19.9991264343262 0.316412746906281
endloop
endfacet
facet normal 0.707078814506531 0.00888868886977434 0.707078814506531
outer loop
vertex 0.109556145966053 -18.7190933227539 0.305761575698853
vertex 0.114996291697025 -19.9991264343262 0.316412746906281
vertex 0.24192763864994 -18.7196464538574 0.173397049307823
endloop
endfacet
facet normal 0.707078814506531 0.00888868793845177 0.707078814506531
outer loop
vertex 0.24192763864994 -18.7196464538574 0.173397049307823
vertex 0.217156589031219 -16.5316123962402 0.170662298798561
vertex 0.109556145966053 -18.7190933227539 0.305761575698853
endloop
endfacet
facet normal 0.707078874111176 0.00888868793845177 0.707078874111176
outer loop
vertex 0.10025741904974 -16.531156539917 0.287555754184723
vertex 0.109556145966053 -18.7190933227539 0.305761575698853
vertex 0.217156589031219 -16.5316123962402 0.170662298798561
endloop
endfacet
facet normal 0.707078874111176 0.00888868886977434 0.707078874111176
outer loop
vertex 0.10025741904974 -16.531156539917 0.287555754184723
vertex 0.217156589031219 -16.5316123962402 0.170662298798561
vertex 0.0885478481650352 -13.7759637832642 0.264629811048508
endloop
endfacet
facet normal 0.707078874111176 0.00888868793845177 0.707078874111176
outer loop
vertex 0.185963824391365 -13.7763433456421 0.167218580842018
vertex 0.0885478481650352 -13.7759637832642 0.264629811048508
vertex 0.217156589031219 -16.5316123962402 0.170662298798561
endloop
endfacet
facet normal 0.707078874111176 0.00888868793845177 0.707078874111176
outer loop
vertex 0.185963824391365 -13.7763433456421 0.167218580842018
vertex 0.154771059751511 -11.0210742950439 0.163774862885475
vertex 0.0885478481650352 -13.7759637832642 0.264629811048508
endloop
endfacet
facet normal 0.707078814506531 0.00888868793845177 0.707078814506531
outer loop
vertex 0.0768382772803307 -11.0207710266113 0.24170383810997
vertex 0.0885478481650352 -13.7759637832642 0.264629811048508
vertex 0.154771059751511 -11.0210742950439 0.163774862885475
endloop
endfacet
facet normal 0.707078814506531 0.00888868793845177 0.707078814506531
outer loop
vertex 0.0768382772803307 -11.0207710266113 0.24170383810997
vertex 0.154771059751511 -11.0210742950439 0.163774862885475
vertex 0.0651287063956261 -8.2655782699585 0.218777880072594
endloop
endfacet
facet normal 0.707078874111176 0.00888868886977434 0.707078874111176
outer loop
vertex 0.123578295111656 -8.26580619812012 0.160331144928932
vertex 0.0651287063956261 -8.2655782699585 0.218777880072594
vertex 0.154771059751511 -11.0210742950439 0.163774862885475
endloop
endfacet
facet normal 0.707078874111176 0.00888868886977434 0.707078874111176
outer loop
vertex 0.123578295111656 -8.26580619812012 0.160331144928932
vertex 0.0923855304718018 -5.51053714752197 0.156887426972389
vertex 0.0651287063956261 -8.2655782699585 0.218777880072594
endloop
endfacet
facet normal 0.707078814506531 0.00888868793845177 0.707078814506531
outer loop
vertex 0.0534191392362118 -5.51038551330566 0.195851922035217
vertex 0.0651287063956261 -8.2655782699585 0.218777880072594
vertex 0.0923855304718018 -5.51053714752197 0.156887426972389
endloop
endfacet
facet normal 0.707078814506531 0.00888868793845177 0.707078814506531
outer loop
vertex 0.0534191392362118 -5.51038551330566 0.195851922035217
vertex 0.0923855304718018 -5.51053714752197 0.156887426972389
vertex 0.0417095683515072 -2.75519275665283 0.172925963997841
endloop
endfacet
facet normal 0.707078814506531 0.00888868793845177 0.707078814506531
outer loop
vertex 0.0611927658319473 -2.75526857376099 0.153443709015846
vertex 0.0417095683515072 -2.75519275665283 0.172925963997841
vertex 0.0923855304718018 -5.51053714752197 0.156887426972389
endloop
endfacet
facet normal 0.707078814506531 0.00888868793845177 0.707078814506531
outer loop
vertex 0.0417095683515072 -2.75519275665283 0.172925963997841
vertex 0.0611927658319473 -2.75526857376099 0.153443709015846
vertex 0.0299999993294477 0 0.150000005960464
endloop
endfacet
facet normal 0.707084119319916 0.00800490006804466 -0.707084119319916
outer loop
vertex 0.28759640455246 -22.7538547515869 -0.025000000372529
vertex 0.268115431070328 -22.7540721893311 -0.0444834195077419
vertex 0.256405502557755 -19.9987182617188 -0.025000000372529
endloop
endfacet
facet normal 0.707084119319916 0.00800490006804466 -0.707084119319916
outer loop
vertex 0.318787306547165 -25.5089912414551 -0.025000000372529
vertex 0.279825359582901 -25.5094261169434 -0.0639668330550194
vertex 0.28759640455246 -22.7538547515869 -0.025000000372529
endloop
endfacet
facet normal 0.707084119319916 0.00800490006804466 -0.707084119319916
outer loop
vertex 0.268115431070328 -22.7540721893311 -0.0444834195077419
vertex 0.28759640455246 -22.7538547515869 -0.025000000372529
vertex 0.279825359582901 -25.5094261169434 -0.0639668330550194
endloop
endfacet
facet normal 0.707084119319916 0.00800490006804466 -0.707084119319916
outer loop
vertex 0.318787306547165 -25.5089912414551 -0.025000000372529
vertex 0.34997820854187 -28.2641277313232 -0.025000000372529
vertex 0.279825359582901 -25.5094261169434 -0.0639668330550194
endloop
endfacet
facet normal 0.707084178924561 0.00800490006804466 -0.707084178924561
outer loop
vertex 0.291535317897797 -28.264778137207 -0.0834502503275871
vertex 0.279825359582901 -25.5094261169434 -0.0639668330550194
vertex 0.34997820854187 -28.2641277313232 -0.025000000372529
endloop
endfacet
facet normal 0.707084178924561 0.00800490006804466 -0.707084178924561
outer loop
vertex 0.291535317897797 -28.264778137207 -0.0834502503275871
vertex 0.34997820854187 -28.2641277313232 -0.025000000372529
vertex 0.30324524641037 -31.0201320648193 -0.102933675050735
endloop
endfacet
facet normal 0.707084119319916 0.00800490006804466 -0.707084119319916
outer loop
vertex 0.381169110536575 -31.0192642211914 -0.025000000372529
vertex 0.30324524641037 -31.0201320648193 -0.102933675050735
vertex 0.34997820854187 -28.2641277313232 -0.025000000372529
endloop
endfacet
facet normal 0.707084119319916 0.00800490006804466 -0.707084119319916
outer loop
vertex 0.381169110536575 -31.0192642211914 -0.025000000372529
vertex 0.412359982728958 -33.7744026184082 -0.025000000372529
vertex 0.30324524641037 -31.0201320648193 -0.102933675050735
endloop
endfacet
facet normal 0.707084119319916 0.00800489913672209 -0.707084119319916
outer loop
vertex 0.314955174922943 -33.7754859924316 -0.122417092323303
vertex 0.30324524641037 -31.0201320648193 -0.102933675050735
vertex 0.412359982728958 -33.7744026184082 -0.025000000372529
endloop
endfacet
facet normal 0.707084178924561 0.00800490006804466 -0.707084178924561
outer loop
vertex 0.443550884723663 -36.5295372009277 -0.025000000372529
vertex 0.326665133237839 -36.5308380126953 -0.141900509595871
vertex 0.412359982728958 -33.7744026184082 -0.025000000372529
endloop
endfacet
facet normal 0.707084119319916 0.00800489913672209 -0.707084119319916
outer loop
vertex 0.314955174922943 -33.7754859924316 -0.122417092323303
vertex 0.412359982728958 -33.7744026184082 -0.025000000372529
vertex 0.326665133237839 -36.5308380126953 -0.141900509595871
endloop
endfacet
facet normal 0.707084119319916 0.00800489913672209 -0.707084119319916
outer loop
vertex 0.443550884723663 -36.5295372009277 -0.025000000372529
vertex 0.46832001209259 -38.7174301147461 -0.025000000372529
vertex 0.326665133237839 -36.5308380126953 -0.141900509595871
endloop
endfacet
facet normal 0.707084119319916 0.00800489913672209 -0.707084119319916
outer loop
vertex 0.335964322090149 -38.7189445495605 -0.157372832298279
vertex 0.326665133237839 -36.5308380126953 -0.141900509595871
vertex 0.46832001209259 -38.7174301147461 -0.025000000372529
endloop
endfacet
facet normal 0.707084178924561 0.00800490006804466 -0.707084178924561
outer loop
vertex 0.46832001209259 -38.7174301147461 -0.025000000372529
vertex 0.482810974121094 -39.9974365234375 -0.025000000372529
vertex 0.335964322090149 -38.7189445495605 -0.157372832298279
endloop
endfacet
facet normal 0.707084119319916 0.00800490006804466 -0.707084119319916
outer loop
vertex 0.341404587030411 -39.9990386962891 -0.16642452776432
vertex 0.335964322090149 -38.7189445495605 -0.157372832298279
vertex 0.482810974121094 -39.9974365234375 -0.025000000372529
endloop
endfacet
facet normal 0.211521223187447 0.674752414226532 -0.707084119319916
outer loop
vertex 35.6069717407227 -34.990234375 -0.251404583454132
vertex 35.5616188049316 -35.1241989135742 -0.392810970544815
vertex 34.387092590332 -34.6021270751953 -0.24596431851387
endloop
endfacet
facet normal 0.211521223187447 0.674752473831177 -0.707084178924561
outer loop
vertex 34.3446311950684 -34.7275123596191 -0.378320008516312
vertex 34.387092590332 -34.6021270751953 -0.24596431851387
vertex 35.5616188049316 -35.1241989135742 -0.392810970544815
endloop
endfacet
facet normal 0.211521223187447 0.674752414226532 -0.707084119319916
outer loop
vertex 34.387092590332 -34.6021270751953 -0.24596431851387
vertex 34.3446311950684 -34.7275123596191 -0.378320008516312
vertex 32.3019256591797 -33.9387245178223 -0.23666512966156
endloop
endfacet
facet normal 0.211521193385124 0.674752354621887 -0.707084059715271
outer loop
vertex 32.2644577026367 -34.0494651794434 -0.353550910949707
vertex 32.3019256591797 -33.9387245178223 -0.23666512966156
vertex 34.3446311950684 -34.7275123596191 -0.378320008516312
endloop
endfacet
facet normal 0.211521223187447 0.674752414226532 -0.707084119319916
outer loop
vertex 32.2644577026367 -34.0494651794434 -0.353550910949707
vertex 29.6449680328369 -33.1956214904785 -0.322360008955002
vertex 32.3019256591797 -33.9387245178223 -0.23666512966156
endloop
endfacet
facet normal 0.211521208286285 0.674752354621887 -0.707084119319916
outer loop
vertex 29.6761894226074 -33.1033363342285 -0.224955186247826
vertex 32.3019256591797 -33.9387245178223 -0.23666512966156
vertex 29.6449680328369 -33.1956214904785 -0.322360008955002
endloop
endfacet
facet normal 0.211521208286285 0.674752354621887 -0.707084119319916
outer loop
vertex 29.6761894226074 -33.1033363342285 -0.224955186247826
vertex 29.6449680328369 -33.1956214904785 -0.322360008955002
vertex 27.0504550933838 -32.267951965332 -0.213245242834091
endloop
endfacet
facet normal 0.211521223187447 0.674752414226532 -0.707084119319916
outer loop
vertex 27.0254783630371 -32.3417778015137 -0.291169106960297
vertex 27.0504550933838 -32.267951965332 -0.213245242834091
vertex 29.6449680328369 -33.1956214904785 -0.322360008955002
endloop
endfacet
facet normal 0.211521223187447 0.674752414226532 -0.707084119319916
outer loop
vertex 27.0254783630371 -32.3417778015137 -0.291169106960297
vertex 24.4059867858887 -31.4879360198975 -0.259978204965591
vertex 27.0504550933838 -32.267951965332 -0.213245242834091
endloop
endfacet
facet normal 0.211521223187447 0.674752414226532 -0.707084119319916
outer loop
vertex 24.4247207641602 -31.4325656890869 -0.201535314321518
vertex 27.0504550933838 -32.267951965332 -0.213245242834091
vertex 24.4059867858887 -31.4879360198975 -0.259978204965591
endloop
endfacet
facet normal 0.211521223187447 0.674752414226532 -0.707084119319916
outer loop
vertex 24.4247207641602 -31.4325656890869 -0.201535314321518
vertex 24.4059867858887 -31.4879360198975 -0.259978204965591
vertex 21.7989845275879 -30.5971794128418 -0.189825370907784
endloop
endfacet
facet normal 0.211521223187447 0.674752414226532 -0.707084119319916
outer loop
vertex 21.7864971160889 -30.6340942382813 -0.228787288069725
vertex 21.7989845275879 -30.5971794128418 -0.189825370907784
vertex 24.4059867858887 -31.4879360198975 -0.259978204965591
endloop
endfacet
facet normal 0.211521223187447 0.674752414226532 -0.707084119319916
outer loop
vertex 21.7864971160889 -30.6340942382813 -0.228787288069725
vertex 19.1670055389404 -29.7802505493164 -0.19759638607502
vertex 21.7989845275879 -30.5971794128418 -0.189825370907784
endloop
endfacet
facet normal 0.211521223187447 0.674752414226532 -0.707084119319916
outer loop
vertex 19.1732501983643 -29.7617950439453 -0.178115427494049
vertex 21.7989845275879 -30.5971794128418 -0.189825370907784
vertex 19.1670055389404 -29.7802505493164 -0.19759638607502
endloop
endfacet
facet normal 0.211521223187447 0.674752414226532 -0.707084119319916
outer loop
vertex 19.1670055389404 -29.7802505493164 -0.19759638607502
vertex 16.5475158691406 -28.9264087677002 -0.166405498981476
vertex 19.1732501983643 -29.7617950439453 -0.178115427494049
endloop
endfacet
endsolid COMSOL mesh mesh1
