solid COMSOL mesh mesh1
facet normal -0.0161649063229561 0.999869287014008 0
outer loop
vertex 0 0 0.150000005960464
vertex 0 0 0
vertex -0.915826797485352 -0.0148061895743012 0.150000005960464
endloop
endfacet
facet normal -0.0161649063229561 0.999869287014008 2.9945705032208e-17
outer loop
vertex -0.915826797485352 -0.0148061895743012 0
vertex -0.915826797485352 -0.0148061895743012 0.150000005960464
vertex 0 0 0
endloop
endfacet
facet normal -0.0161649063229561 0.999869287014008 2.99457083409305e-17
outer loop
vertex -0.915826797485352 -0.0148061895743012 0.150000005960464
vertex -0.915826797485352 -0.0148061895743012 0
vertex -2.28462028503418 -0.0369355008006096 0.150000005960464
endloop
endfacet
facet normal -0.0161649063229561 0.999869287014008 1.1231432714646e-17
outer loop
vertex -2.28462028503418 -0.0369355008006096 0
vertex -2.28462028503418 -0.0369355008006096 0.150000005960464
vertex -0.915826797485352 -0.0148061895743012 0
endloop
endfacet
facet normal -0.0161649063229561 0.999869287014008 1.12314318874654e-17
outer loop
vertex -2.28462028503418 -0.0369355008006096 0.150000005960464
vertex -2.28462028503418 -0.0369355008006096 0
vertex -4.33041715621948 -0.0700099393725395 0.150000005960464
endloop
endfacet
facet normal -0.0161649063229561 0.999869287014008 -8.60885310838807e-17
outer loop
vertex -4.33041715621948 -0.0700099393725395 0
vertex -4.33041715621948 -0.0700099393725395 0.150000005960464
vertex -2.28462028503418 -0.0369355008006096 0
endloop
endfacet
facet normal -0.0161649063229561 0.999869287014008 -8.60885377013256e-17
outer loop
vertex -4.33041715621948 -0.0700099393725395 0.150000005960464
vertex -4.33041715621948 -0.0700099393725395 0
vertex -7.13039350509644 -0.115277215838432 0.150000005960464
endloop
endfacet
facet normal -0.0161649063229561 0.999869287014008 1.88221970536236e-16
outer loop
vertex -7.13039350509644 -0.115277215838432 0
vertex -7.13039350509644 -0.115277215838432 0.150000005960464
vertex -4.33041715621948 -0.0700099393725395 0
endloop
endfacet
facet normal -0.0161649063229561 0.999869287014008 1.88221970536236e-16
outer loop
vertex -7.13039350509644 -0.115277215838432 0.150000005960464
vertex -7.13039350509644 -0.115277215838432 0
vertex -9.99869346618652 -0.161649078130722 0.150000005960464
endloop
endfacet
facet normal -0.0161649063229561 0.999869287014008 -1.78595030809107e-16
outer loop
vertex -9.99869346618652 -0.161649078130722 0
vertex -9.99869346618652 -0.161649078130722 0.150000005960464
vertex -7.13039350509644 -0.115277215838432 0
endloop
endfacet
facet normal -0.0161649063229561 0.999869287014008 -1.78595030809107e-16
outer loop
vertex -9.99869346618652 -0.161649078130722 0.150000005960464
vertex -9.99869346618652 -0.161649078130722 0
vertex -12.8669929504395 -0.208020925521851 0.150000005960464
endloop
endfacet
facet normal -0.0161649063229561 0.999869287014008 -1.78595030809107e-16
outer loop
vertex -12.8669929504395 -0.208020925521851 0
vertex -12.8669929504395 -0.208020925521851 0.150000005960464
vertex -9.99869346618652 -0.161649078130722 0
endloop
endfacet
facet normal -0.0161649063229561 0.999869287014008 -1.78595030809107e-16
outer loop
vertex -12.8669929504395 -0.208020925521851 0.150000005960464
vertex -12.8669929504395 -0.208020925521851 0
vertex -15.6669692993164 -0.253288209438324 0.150000005960464
endloop
endfacet
facet normal -0.0161649063229561 0.999869287014008 2.04266865669821e-16
outer loop
vertex -15.6669692993164 -0.253288209438324 0
vertex -15.6669692993164 -0.253288209438324 0.150000005960464
vertex -12.8669929504395 -0.208020925521851 0
endloop
endfacet
facet normal -0.0161649063229561 0.999869287014008 2.04266878904711e-16
outer loop
vertex -15.6669692993164 -0.253288209438324 0.150000005960464
vertex -15.6669692993164 -0.253288209438324 0
vertex -17.7127666473389 -0.286362648010254 0.150000005960464
endloop
endfacet
facet normal -0.0161649063229561 0.999869287014008 -3.44354124335523e-16
outer loop
vertex -17.7127666473389 -0.286362648010254 0
vertex -17.7127666473389 -0.286362648010254 0.150000005960464
vertex -15.6669692993164 -0.253288209438324 0
endloop
endfacet
facet normal -0.0161649063229561 0.999869287014008 -3.44354097865743e-16
outer loop
vertex -17.7127666473389 -0.286362648010254 0.150000005960464
vertex -17.7127666473389 -0.286362648010254 0
vertex -19.0815601348877 -0.308491945266724 0.150000005960464
endloop
endfacet
facet normal -0.0161649063229561 0.999869287014008 -7.27215954640002e-16
outer loop
vertex -19.0815601348877 -0.308491945266724 0
vertex -19.0815601348877 -0.308491945266724 0.150000005960464
vertex -17.7127666473389 -0.286362648010254 0
endloop
endfacet
facet normal -0.0161649063229561 0.999869287014008 -7.27216007579562e-16
outer loop
vertex -19.0815601348877 -0.308491945266724 0.150000005960464
vertex -19.0815601348877 -0.308491945266724 0
vertex -19.997386932373 -0.323298156261444 0.150000005960464
endloop
endfacet
facet normal -0.0161649063229561 0.999869287014008 0
outer loop
vertex -19.997386932373 -0.323298156261444 0
vertex -19.997386932373 -0.323298156261444 0.150000005960464
vertex -19.0815601348877 -0.308491945266724 0
endloop
endfacet
facet normal -0.70712673664093 0.00587162701413035 0.707062423229218
outer loop
vertex -13.4075813293457 -0.0745541751384735 -13.4081811904907
vertex -14.1417093276978 -0.0786363705992699 -14.1423425674438
vertex -13.4077835083008 -0.216763898730278 -13.4072027206421
endloop
endfacet
facet normal -0.70712673664093 0.00587162701413035 0.707062423229218
outer loop
vertex -14.1419153213501 -0.228632628917694 -14.141303062439
vertex -13.4077835083008 -0.216763898730278 -13.4072027206421
vertex -14.1417093276978 -0.0786363705992699 -14.1423425674438
endloop
endfacet
facet normal -0.70712673664093 0.00587162701413035 0.707062423229218
outer loop
vertex -13.4077835083008 -0.216763898730278 -13.4072027206421
vertex -12.0195436477661 -0.194320186972618 -12.0190229415894
vertex -13.4075813293457 -0.0745541751384735 -13.4081811904907
endloop
endfacet
facet normal -0.707126796245575 0.00587162701413035 0.707062482833862
outer loop
vertex -12.0193767547607 -0.0668349266052246 -12.0199146270752
vertex -13.4075813293457 -0.0745541751384735 -13.4081811904907
vertex -12.0195436477661 -0.194320186972618 -12.0190229415894
endloop
endfacet
facet normal -0.70712673664093 0.00587162701413035 0.707062482833862
outer loop
vertex -12.0193767547607 -0.0668349266052246 -12.0199146270752
vertex -12.0195436477661 -0.194320186972618 -12.0190229415894
vertex -10.0204858779907 -0.0557199008762836 -10.0209350585938
endloop
endfacet
facet normal -0.707126796245575 0.00587162747979164 0.707062482833862
outer loop
vertex -10.020622253418 -0.162003606557846 -10.020188331604
vertex -10.0204858779907 -0.0557199008762836 -10.0209350585938
vertex -12.0195436477661 -0.194320186972618 -12.0190229415894
endloop
endfacet
facet normal -0.70712673664093 0.00587162654846907 0.707062423229218
outer loop
vertex -10.020622253418 -0.162003606557846 -10.020188331604
vertex -8.01649856567383 -0.129602879285812 -8.01615047454834
vertex -10.0204858779907 -0.0557199008762836 -10.0209350585938
endloop
endfacet
facet normal -0.70712673664093 0.00587162701413035 0.707062423229218
outer loop
vertex -8.01638889312744 -0.0445759184658527 -8.01674747467041
vertex -10.0204858779907 -0.0557199008762836 -10.0209350585938
vertex -8.01649856567383 -0.129602879285812 -8.01615047454834
endloop
endfacet
facet normal -0.70712673664093 0.00587162701413035 0.707062423229218
outer loop
vertex -8.01638889312744 -0.0445759184658527 -8.01674747467041
vertex -8.01649856567383 -0.129602879285812 -8.01615047454834
vertex -6.01229190826416 -0.0334319397807121 -6.01256084442139
endloop
endfacet
facet normal -0.70712673664093 0.00587162701413035 0.707062423229218
outer loop
vertex -6.01237344741821 -0.0972021594643593 -6.01211309432983
vertex -6.01229190826416 -0.0334319397807121 -6.01256084442139
vertex -8.01649856567383 -0.129602879285812 -8.01615047454834
endloop
endfacet
facet normal -0.70712673664093 0.00587162701413035 0.707062423229218
outer loop
vertex -6.01237344741821 -0.0972021594643593 -6.01211309432983
vertex -4.00824928283691 -0.0648014396429062 -4.00807523727417
vertex -6.01229190826416 -0.0334319397807121 -6.01256084442139
endloop
endfacet
facet normal -0.70712673664093 0.00587162701413035 0.707062423229218
outer loop
vertex -4.00819444656372 -0.0222879592329264 -4.00837373733521
vertex -6.01229190826416 -0.0334319397807121 -6.01256084442139
vertex -4.00824928283691 -0.0648014396429062 -4.00807523727417
endloop
endfacet
facet normal -0.70712673664093 0.00587162701413035 0.707062423229218
outer loop
vertex -4.00819444656372 -0.0222879592329264 -4.00837373733521
vertex -4.00824928283691 -0.0648014396429062 -4.00807523727417
vertex -2.00409722328186 -0.0111439796164632 -2.0041868686676
endloop
endfacet
facet normal -0.70712673664093 0.00587162701413035 0.707062423229218
outer loop
vertex -2.00412464141846 -0.0324007198214531 -2.00403761863708
vertex -2.00409722328186 -0.0111439796164632 -2.0041868686676
vertex -4.00824928283691 -0.0648014396429062 -4.00807523727417
endloop
endfacet
facet normal -0.70712673664093 0.00587162701413035 0.707062423229218
outer loop
vertex -2.00409722328186 -0.0111439796164632 -2.0041868686676
vertex -2.00412464141846 -0.0324007198214531 -2.00403761863708
vertex 0 0 0
endloop
endfacet
facet normal 0.707086384296417 0.00693195778876543 -0.707093238830566
outer loop
vertex 0 0 0
vertex 0.000294092431431636 -0.0299985576421022 0
vertex -0.143266379833221 -0.000796646811068058 -0.143272787332535
endloop
endfacet
facet normal 0.707086324691772 0.00693195732310414 -0.707093238830566
outer loop
vertex -0.142960369586945 -0.0320108346641064 -0.143272787332535
vertex -0.143266379833221 -0.000796646811068058 -0.143272787332535
vertex 0.000294092431431636 -0.0299985576421022 0
endloop
endfacet
facet normal 0.707086324691772 0.00693195732310414 -0.707093238830566
outer loop
vertex -0.388452738523483 -0.00216002971865237 -0.388470143079758
vertex -0.143266379833221 -0.000796646811068058 -0.143272787332535
vertex -0.388126343488693 -0.0354546457529068 -0.388470143079758
endloop
endfacet
facet normal 0.707086324691772 0.00693195732310414 -0.707093238830566
outer loop
vertex -0.142960369586945 -0.0320108346641064 -0.143272787332535
vertex -0.388126343488693 -0.0354546457529068 -0.388470143079758
vertex -0.143266379833221 -0.000796646811068058 -0.143272787332535
endloop
endfacet
facet normal 0.707086324691772 0.00693195685744286 -0.707093179225922
outer loop
vertex -0.808065235614777 -0.0044933264143765 -0.80810135602951
vertex -0.388452738523483 -0.00216002971865237 -0.388470143079758
vertex -0.807703912258148 -0.0413483902812004 -0.80810135602951
endloop
endfacet
facet normal 0.707086324691772 0.00693195778876543 -0.707093238830566
outer loop
vertex -0.388126343488693 -0.0354546457529068 -0.388470143079758
vertex -0.807703912258148 -0.0413483902812004 -0.80810135602951
vertex -0.388452738523483 -0.00216002971865237 -0.388470143079758
endloop
endfacet
facet normal 0.707086384296417 0.00693195778876543 -0.707093298435211
outer loop
vertex -0.808065235614777 -0.0044933264143765 -0.80810135602951
vertex -0.807703912258148 -0.0413483902812004 -0.80810135602951
vertex -1.52619087696075 -0.00848653446882963 -1.52625918388367
endloop
endfacet
facet normal 0.707086324691772 0.00693195732310414 -0.707093238830566
outer loop
vertex -1.52576982975006 -0.0514349602162838 -1.52625918388367
vertex -1.52619087696075 -0.00848653446882963 -1.52625918388367
vertex -0.807703912258148 -0.0413483902812004 -0.80810135602951
endloop
endfacet
facet normal 0.707086324691772 0.00693195732310414 -0.707093238830566
outer loop
vertex -2.75519251823425 -0.0153205199167132 -2.75531601905823
vertex -1.52619087696075 -0.00848653446882963 -1.52625918388367
vertex -2.75466918945313 -0.0686971396207809 -2.75531601905823
endloop
endfacet
facet normal 0.707086324691772 0.00693195732310414 -0.707093238830566
outer loop
vertex -1.52576982975006 -0.0514349602162838 -1.52625918388367
vertex -2.75466918945313 -0.0686971396207809 -2.75531601905823
vertex -1.52619087696075 -0.00848653446882963 -1.52625918388367
endloop
endfacet
facet normal 0.707086324691772 0.00693195732310414 -0.707093238830566
outer loop
vertex -2.75519251823425 -0.0153205199167132 -2.75531601905823
vertex -2.75466918945313 -0.0686971396207809 -2.75531601905823
vertex -4.70884466171265 -0.026183994486928 -4.70905542373657
endloop
endfacet
facet normal 0.707086384296417 0.00693195732310414 -0.707093238830566
outer loop
vertex -4.70815896987915 -0.0961375311017036 -4.70905542373657
vertex -4.70884466171265 -0.026183994486928 -4.70905542373657
vertex -2.75466918945313 -0.0686971396207809 -2.75531601905823
endloop
endfacet
facet normal 0.707086384296417 0.00693195825442672 -0.707093238830566
outer loop
vertex -4.70884466171265 -0.026183994486928 -4.70905542373657
vertex -4.70815896987915 -0.0961375311017036 -4.70905542373657
vertex -6.79285717010498 -0.0377723537385464 -6.79316139221191
endloop
endfacet
facet normal 0.707086384296417 0.00693195825442672 -0.707093298435211
outer loop
vertex -6.79199838638306 -0.125408917665482 -6.79316139221191
vertex -6.79285717010498 -0.0377723537385464 -6.79316139221191
vertex -4.70815896987915 -0.0961375311017036 -4.70905542373657
endloop
endfacet
facet normal 0.707086384296417 0.00693195825442672 -0.707093298435211
outer loop
vertex -6.79285717010498 -0.0377723537385464 -6.79316139221191
vertex -6.79199838638306 -0.125408917665482 -6.79316139221191
vertex -8.87687015533447 -0.0493607111275196 -8.8772668838501
endloop
endfacet
facet normal 0.707086324691772 0.00693195685744286 -0.707093238830566
outer loop
vertex -8.8758373260498 -0.15468031167984 -8.8772668838501
vertex -8.87687015533447 -0.0493607111275196 -8.8772668838501
vertex -6.79199838638306 -0.125408917665482 -6.79316139221191
endloop
endfacet
facet normal 0.707086384296417 0.00693195825442672 -0.707093298435211
outer loop
vertex -10.937876701355 -0.0608211420476437 -10.9383659362793
vertex -8.87687015533447 -0.0493607111275196 -8.8772668838501
vertex -10.9366731643677 -0.18362857401371 -10.9383659362793
endloop
endfacet
facet normal 0.707086324691772 0.00693195685744286 -0.707093238830566
outer loop
vertex -8.8758373260498 -0.15468031167984 -8.8772668838501
vertex -10.9366731643677 -0.18362857401371 -10.9383659362793
vertex -8.87687015533447 -0.0493607111275196 -8.8772668838501
endloop
endfacet
facet normal 0.707086384296417 0.00693195732310414 -0.707093298435211
outer loop
vertex -10.937876701355 -0.0608211420476437 -10.9383659362793
vertex -10.9366731643677 -0.18362857401371 -10.9383659362793
vertex -12.4764356613159 -0.0693764537572861 -12.4769945144653
endloop
endfacet
facet normal 0.707086324691772 0.00693195732310414 -0.707093238830566
outer loop
vertex -12.4751043319702 -0.205238699913025 -12.4769945144653
vertex -12.4764356613159 -0.0693764537572861 -12.4769945144653
vertex -10.9366731643677 -0.18362857401371 -10.9383659362793
endloop
endfacet
facet normal 0.707086324691772 0.00693195778876543 -0.707093298435211
outer loop
vertex -13.4831104278564 -0.0749741643667221 -13.4837131500244
vertex -12.4764356613159 -0.0693764537572861 -12.4769945144653
vertex -13.4816942214966 -0.219378128647804 -13.4837131500244
endloop
endfacet
facet normal 0.707086384296417 0.00693195732310414 -0.707093238830566
outer loop
vertex -12.4751043319702 -0.205238699913025 -12.4769945144653
vertex -13.4816942214966 -0.219378128647804 -13.4837131500244
vertex -12.4764356613159 -0.0693764537572861 -12.4769945144653
endloop
endfacet
facet normal 0.707086324691772 0.00693195732310414 -0.707093179225922
outer loop
vertex -13.4831104278564 -0.0749741643667221 -13.4837131500244
vertex -13.4816942214966 -0.219378128647804 -13.4837131500244
vertex -14.141773223877 -0.0786367207765579 -14.142406463623
endloop
endfacet
facet normal 0.707086324691772 0.00693195732310414 -0.707093238830566
outer loop
vertex -14.1403026580811 -0.228629514575005 -14.142406463623
vertex -14.141773223877 -0.0786367207765579 -14.142406463623
vertex -13.4816942214966 -0.219378128647804 -13.4837131500244
endloop
endfacet
facet normal -0.318742334842682 -0.947841346263885 -1.81383211808562e-14
outer loop
vertex -2.35938835144043 -22.973747253418 0.0906078442931175
vertex -2.55143451690674 -22.9091644287109 0.0900000035762787
vertex -2.35938835144043 -22.973747253418 0.0593921579420567
endloop
endfacet
facet normal -0.318742364645004 -0.94784140586853 0
outer loop
vertex -2.55143451690674 -22.9091644287109 0.0599999986588955
vertex -2.35938835144043 -22.973747253418 0.0593921579420567
vertex -2.55143451690674 -22.9091644287109 0.0900000035762787
endloop
endfacet
facet normal -0.318742364645004 -0.94784140586853 -1.81383228749221e-14
outer loop
vertex -2.35938835144043 -22.973747253418 0.0906078442931175
vertex -2.35938835144043 -22.973747253418 0.0593921579420567
vertex -2.03071975708008 -23.0842723846436 0.0916481092572212
endloop
endfacet
facet normal -0.318742334842682 -0.94784140586853 2.1077224980539e-13
outer loop
vertex -2.03071975708008 -23.0842723846436 0.058351892977953
vertex -2.03071975708008 -23.0842723846436 0.0916481092572212
vertex -2.35938835144043 -22.973747253418 0.0593921579420567
endloop
endfacet
facet normal -0.318742364645004 -0.94784140586853 1.14407805061265e-13
outer loop
vertex -1.46823573112488 -23.2734260559082 0.0565715804696083
vertex -1.46823573112488 -23.2734260559082 0.0934284180402756
vertex -2.03071975708008 -23.0842723846436 0.058351892977953
endloop
endfacet
facet normal -0.318742364645004 -0.947841346263885 2.1077224980539e-13
outer loop
vertex -2.03071975708008 -23.0842723846436 0.0916481092572212
vertex -2.03071975708008 -23.0842723846436 0.058351892977953
vertex -1.46823573112488 -23.2734260559082 0.0934284180402756
endloop
endfacet
facet normal -0.318742364645004 -0.947841465473175 1.14407805061265e-13
outer loop
vertex -1.46823573112488 -23.2734260559082 0.0565715804696083
vertex -0.505599439144135 -23.5971431732178 0.0535247549414635
vertex -1.46823573112488 -23.2734260559082 0.0934284180402756
endloop
endfacet
facet normal -0.318742334842682 -0.94784140586853 9.06305348287841e-15
outer loop
vertex -0.505599439144135 -23.5971431732178 0.0964752435684204
vertex -1.46823573112488 -23.2734260559082 0.0934284180402756
vertex -0.505599439144135 -23.5971431732178 0.0535247549414635
endloop
endfacet
facet normal -0.318742364645004 -0.94784140586853 3.44731838561319e-14
outer loop
vertex 1.14185833930969 -24.1511535644531 0.0483104102313519
vertex 1.14185833930969 -24.1511535644531 0.101689592003822
vertex -0.505599439144135 -23.5971431732178 0.0535247549414635
endloop
endfacet
facet normal -0.318742364645004 -0.94784140586853 9.06305348287841e-15
outer loop
vertex -0.505599439144135 -23.5971431732178 0.0964752435684204
vertex -0.505599439144135 -23.5971431732178 0.0535247549414635
vertex 1.14185833930969 -24.1511535644531 0.101689592003822
endloop
endfacet
facet normal -0.318742334842682 -0.94784140586853 3.44731838561319e-14
outer loop
vertex 1.14185833930969 -24.1511535644531 0.0483104102313519
vertex 3.76069855690002 -25.0318241119385 0.0400215536355972
vertex 1.14185833930969 -24.1511535644531 0.101689592003822
endloop
endfacet
facet normal -0.318742364645004 -0.94784140586853 -3.39717572920162e-14
outer loop
vertex 3.76069855690002 -25.0318241119385 0.109978444874287
vertex 1.14185833930969 -24.1511535644531 0.101689592003822
vertex 3.76069855690002 -25.0318241119385 0.0400215536355972
endloop
endfacet
facet normal -0.318742364645004 -0.947841465473175 1.93813945469946e-14
outer loop
vertex 6.55428552627563 -25.9712581634521 0.118820391595364
vertex 3.76069855690002 -25.0318241119385 0.109978444874287
vertex 6.55428552627563 -25.9712581634521 0.0311796087771654
endloop
endfacet
facet normal -0.318742334842682 -0.94784140586853 -3.3971760680148e-14
outer loop
vertex 3.76069855690002 -25.0318241119385 0.0400215536355972
vertex 6.55428552627563 -25.9712581634521 0.0311796087771654
vertex 3.76069855690002 -25.0318241119385 0.109978444874287
endloop
endfacet
facet normal -0.318742364645004 -0.947841465473175 1.93813945469946e-14
outer loop
vertex 6.55428552627563 -25.9712581634521 0.118820391595364
vertex 6.55428552627563 -25.9712581634521 0.0311796087771654
vertex 9.34787178039551 -26.9106922149658 0.12766233086586
endloop
endfacet
facet normal -0.318742334842682 -0.94784140586853 -1.01290869680519e-13
outer loop
vertex 9.34787178039551 -26.9106922149658 0.0223376657813787
vertex 9.34787178039551 -26.9106922149658 0.12766233086586
vertex 6.55428552627563 -25.9712581634521 0.0311796087771654
endloop
endfacet
facet normal -0.318742364645004 -0.94784140586853 -1.01290876456783e-13
outer loop
vertex 9.34787178039551 -26.9106922149658 0.12766233086586
vertex 9.34787178039551 -26.9106922149658 0.0223376657813787
vertex 12.1106195449829 -27.8397560119629 0.136406674981117
endloop
endfacet
facet normal -0.318742364645004 -0.94784140586853 -2.74189206766768e-14
outer loop
vertex 12.1106195449829 -27.8397560119629 0.0135933309793472
vertex 12.1106195449829 -27.8397560119629 0.136406674981117
vertex 9.34787178039551 -26.9106922149658 0.0223376657813787
endloop
endfacet
facet normal -0.318742334842682 -0.94784140586853 1.25017717735715e-14
outer loop
vertex 14.1730337142944 -28.5333080291748 0.142934396862984
vertex 12.1106195449829 -27.8397560119629 0.136406674981117
vertex 14.1730337142944 -28.5333080291748 0.00706561002880335
endloop
endfacet
facet normal -0.318742364645004 -0.94784140586853 -2.74189206766768e-14
outer loop
vertex 12.1106195449829 -27.8397560119629 0.0135933309793472
vertex 14.1730337142944 -28.5333080291748 0.00706561002880335
vertex 12.1106195449829 -27.8397560119629 0.136406674981117
endloop
endfacet
facet normal -0.318742334842682 -0.94784140586853 1.25017709265386e-14
outer loop
vertex 14.1730337142944 -28.5333080291748 0.142934396862984
vertex 14.1730337142944 -28.5333080291748 0.00706561002880335
vertex 15.5224647521973 -28.9870986938477 0.147205457091331
endloop
endfacet
facet normal -0.318742364645004 -0.94784140586853 0
outer loop
vertex 15.5224647521973 -28.9870986938477 0.00279454397968948
vertex 15.5224647521973 -28.9870986938477 0.147205457091331
vertex 14.1730337142944 -28.5333080291748 0.00706561002880335
endloop
endfacet
facet normal -0.318742334842682 -0.94784140586853 -0
outer loop
vertex 15.5224647521973 -28.9870986938477 0.147205457091331
vertex 15.5224647521973 -28.9870986938477 0.00279454397968948
vertex 16.4053936004639 -29.2840118408203 0.150000005960464
endloop
endfacet
facet normal -0.318742364645004 -0.947841346263885 0
outer loop
vertex 16.4053936004639 -29.2840118408203 1.02695629777827e-15
vertex 16.4053936004639 -29.2840118408203 0.150000005960464
vertex 15.5224647521973 -28.9870986938477 0.00279454397968948
endloop
endfacet
facet normal 0.00788405537605286 -0.0026048100553453 0.999965488910675
outer loop
vertex -2.55143451690674 -22.9091644287109 0.0599999986588955
vertex -1.68175649642944 -23.196496963501 0.0523946993052959
vertex -2.50437784194946 -22.7667369842529 0.0599999986588955
endloop
endfacet
facet normal 0.00788405537605286 -0.0026048100553453 0.999965488910675
outer loop
vertex -1.63469982147217 -23.054069519043 0.0523946993052959
vertex -2.50437784194946 -22.7667369842529 0.0599999986588955
vertex -1.68175649642944 -23.196496963501 0.0523946993052959
endloop
endfacet
facet normal 0.00788405537605286 -0.0026048100553453 0.99996554851532
outer loop
vertex -1.68175649642944 -23.196496963501 0.0523946993052959
vertex -0.381936699151993 -23.6259441375732 0.0410278290510178
vertex -1.63469982147217 -23.054069519043 0.0523946993052959
endloop
endfacet
facet normal 0.00788405537605286 -0.0026048100553453 0.99996554851532
outer loop
vertex -0.334880024194717 -23.4835166931152 0.0410278290510178
vertex -1.63469982147217 -23.054069519043 0.0523946993052959
vertex -0.381936699151993 -23.6259441375732 0.0410278290510178
endloop
endfacet
facet normal 0.00788405537605286 -0.00260481028817594 0.99996554851532
outer loop
vertex -0.381936699151993 -23.6259441375732 0.0410278290510178
vertex 1.56077218055725 -24.2677955627441 0.0240389220416546
vertex -0.334880024194717 -23.4835166931152 0.0410278290510178
endloop
endfacet
facet normal 0.00788405537605286 -0.00260481028817594 0.99996554851532
outer loop
vertex 1.60782885551453 -24.1253681182861 0.0240389220416546
vertex -0.334880024194717 -23.4835166931152 0.0410278290510178
vertex 1.56077218055725 -24.2677955627441 0.0240389220416546
endloop
endfacet
facet normal 0.00788405537605286 -0.00260480982251465 0.999965488910675
outer loop
vertex 4.21965742111206 -25.1462631225586 0.000787079799920321
vertex 4.26671409606934 -25.0038356781006 0.000787079799920321
vertex 1.56077218055725 -24.2677955627441 0.0240389220416546
endloop
endfacet
facet normal 0.00788405537605286 -0.00260480982251465 0.999965488910675
outer loop
vertex 1.60782885551453 -24.1253681182861 0.0240389220416546
vertex 1.56077218055725 -24.2677955627441 0.0240389220416546
vertex 4.26671409606934 -25.0038356781006 0.000787079799920321
endloop
endfacet
facet normal 0.00788405444473028 -0.00260480982251465 0.999965488910675
outer loop
vertex 4.21965742111206 -25.1462631225586 0.000787079799920321
vertex 6.94342279434204 -26.0461673736572 -0.0230321381241083
vertex 4.26671409606934 -25.0038356781006 0.000787079799920321
endloop
endfacet
facet normal 0.00788405444473028 -0.00260480982251465 0.999965488910675
outer loop
vertex 6.99047946929932 -25.9037399291992 -0.0230321381241083
vertex 4.26671409606934 -25.0038356781006 0.000787079799920321
vertex 6.94342279434204 -26.0461673736572 -0.0230321381241083
endloop
endfacet
facet normal 0.00788405444473028 -0.00260480982251465 0.999965488910675
outer loop
vertex 6.94342279434204 -26.0461673736572 -0.0230321381241083
vertex 9.66718864440918 -26.9460716247559 -0.0468513555824757
vertex 6.99047946929932 -25.9037399291992 -0.0230321381241083
endloop
endfacet
facet normal 0.00788405444473028 -0.00260480982251465 0.999965488910675
outer loop
vertex 9.7142448425293 -26.8036441802979 -0.0468513555824757
vertex 6.99047946929932 -25.9037399291992 -0.0230321381241083
vertex 9.66718864440918 -26.9460716247559 -0.0468513555824757
endloop
endfacet
facet normal 0.00788405537605286 -0.00260480982251465 0.999965488910675
outer loop
vertex 9.66718864440918 -26.9460716247559 -0.0468513555824757
vertex 12.3260736465454 -27.8245391845703 -0.0701031982898712
vertex 9.7142448425293 -26.8036441802979 -0.0468513555824757
endloop
endfacet
facet normal 0.00788405537605286 -0.00260480982251465 0.999965488910675
outer loop
vertex 12.3731307983398 -27.6821117401123 -0.0701031982898712
vertex 9.7142448425293 -26.8036441802979 -0.0468513555824757
vertex 12.3260736465454 -27.8245391845703 -0.0701031982898712
endloop
endfacet
facet normal 0.00788405537605286 -0.00260481028817594 0.99996554851532
outer loop
vertex 12.3260736465454 -27.8245391845703 -0.0701031982898712
vertex 14.2687826156616 -28.4663906097412 -0.0870921090245247
vertex 12.3731307983398 -27.6821117401123 -0.0701031982898712
endloop
endfacet
facet normal 0.00788405537605286 -0.00260481028817594 0.99996554851532
outer loop
vertex 14.3158397674561 -28.3239631652832 -0.0870921090245247
vertex 12.3731307983398 -27.6821117401123 -0.0701031982898712
vertex 14.2687826156616 -28.4663906097412 -0.0870921090245247
endloop
endfacet
facet normal 0.00788405537605286 -0.0026048100553453 0.99996554851532
outer loop
vertex 15.5686025619507 -28.8958377838135 -0.0984589755535126
vertex 15.6156587600708 -28.7534084320068 -0.0984589755535126
vertex 14.2687826156616 -28.4663906097412 -0.0870921090245247
endloop
endfacet
facet normal 0.00788405537605286 -0.0026048100553453 0.99996554851532
outer loop
vertex 14.3158397674561 -28.3239631652832 -0.0870921090245247
vertex 14.2687826156616 -28.4663906097412 -0.0870921090245247
vertex 15.6156587600708 -28.7534084320068 -0.0984589755535126
endloop
endfacet
facet normal 0.00788405537605286 -0.0026048100553453 0.999965488910675
outer loop
vertex 15.5686025619507 -28.8958377838135 -0.0984589755535126
vertex 16.4382801055908 -29.1831703186035 -0.106064274907112
vertex 15.6156587600708 -28.7534084320068 -0.0984589755535126
endloop
endfacet
facet normal 0.00788405537605286 -0.0026048100553453 0.999965488910675
outer loop
vertex 16.4853382110596 -29.0407428741455 -0.106064274907112
vertex 15.6156587600708 -28.7534084320068 -0.0984589755535126
vertex 16.4382801055908 -29.1831703186035 -0.106064274907112
endloop
endfacet
facet normal -0.227398365736008 -0.669557452201843 -0.707094609737396
outer loop
vertex 16.438814163208 -29.1833457946777 -0.106069758534431
vertex 16.4053077697754 -29.2839832305908 1.11378233214054e-06
vertex 15.4529695510864 -28.8576316833496 -0.097448542714119
endloop
endfacet
facet normal -0.227398350834846 -0.669557452201843 -0.707094609737396
outer loop
vertex 15.4211921691895 -28.9530429840088 0.00311588263139129
vertex 15.4529695510864 -28.8576316833496 -0.097448542714119
vertex 16.4053077697754 -29.2839832305908 1.11378233214054e-06
endloop
endfacet
facet normal -0.227398365736008 -0.669557452201843 -0.707094550132751
outer loop
vertex 15.4529695510864 -28.8576316833496 -0.097448542714119
vertex 15.4211921691895 -28.9530429840088 0.00311588263139129
vertex 13.5887641906738 -28.2417182922363 -0.0811460614204407
endloop
endfacet
facet normal -0.227398380637169 -0.669557511806488 -0.707094609737396
outer loop
vertex 13.5602960586548 -28.3272552490234 0.00900569558143616
vertex 13.5887641906738 -28.2417182922363 -0.0811460614204407
vertex 15.4211921691895 -28.9530429840088 0.00311588263139129
endloop
endfacet
facet normal -0.227398350834846 -0.669557452201843 -0.707094550132751
outer loop
vertex 13.5602960586548 -28.3272552490234 0.00900569558143616
vertex 10.8808212280273 -27.4261951446533 0.0174863450229168
vertex 13.5887641906738 -28.2417182922363 -0.0811460614204407
endloop
endfacet
facet normal -0.227398380637169 -0.669557511806488 -0.707094609737396
outer loop
vertex 10.9045515060425 -27.3548831939697 -0.0576726123690605
vertex 13.5887641906738 -28.2417182922363 -0.0811460614204407
vertex 10.8808212280273 -27.4261951446533 0.0174863450229168
endloop
endfacet
facet normal -0.227398365736008 -0.669557452201843 -0.707094609737396
outer loop
vertex 10.9045515060425 -27.3548831939697 -0.0576726123690605
vertex 10.8808212280273 -27.4261951446533 0.0174863450229168
vertex 8.21335411071777 -26.4657382965088 -0.0341380909085274
endloop
endfacet
facet normal -0.227398350834846 -0.669557452201843 -0.707094609737396
outer loop
vertex 8.19437026977539 -26.5227890014648 0.0259890761226416
vertex 8.21335411071777 -26.4657382965088 -0.0341380909085274
vertex 10.8808212280273 -27.4261951446533 0.0174863450229168
endloop
endfacet
facet normal -0.227398350834846 -0.669557452201843 -0.707094609737396
outer loop
vertex 8.19437026977539 -26.5227890014648 0.0259890761226416
vertex 5.50791883468628 -25.6193828582764 0.0344918072223663
vertex 8.21335411071777 -26.4657382965088 -0.0341380909085274
endloop
endfacet
facet normal -0.227398350834846 -0.669557452201843 -0.707094609737396
outer loop
vertex 5.52215671539307 -25.5765953063965 -0.0106035685166717
vertex 8.21335411071777 -26.4657382965088 -0.0341380909085274
vertex 5.50791883468628 -25.6193828582764 0.0344918072223663
endloop
endfacet
facet normal -0.227398350834846 -0.669557452201843 -0.707094609737396
outer loop
vertex 5.52215671539307 -25.5765953063965 -0.0106035685166717
vertex 5.50791883468628 -25.6193828582764 0.0344918072223663
vertex 2.83095955848694 -24.6874523162842 0.0129309548065066
endloop
endfacet
facet normal -0.227398350834846 -0.669557452201843 -0.707094609737396
outer loop
vertex 2.82146787643433 -24.7159767150879 0.0429945401847363
vertex 2.83095955848694 -24.6874523162842 0.0129309548065066
vertex 5.50791883468628 -25.6193828582764 0.0344918072223663
endloop
endfacet
facet normal -0.227398350834846 -0.669557452201843 -0.707094609737396
outer loop
vertex 2.82146787643433 -24.7159767150879 0.0429945401847363
vertex 0.135016590356827 -23.8125705718994 0.0514972694218159
vertex 2.83095955848694 -24.6874523162842 0.0129309548065066
endloop
endfacet
facet normal -0.227398350834846 -0.669557452201843 -0.707094609737396
outer loop
vertex 0.1397625207901 -23.7983074188232 0.0364654771983624
vertex 2.83095955848694 -24.6874523162842 0.0129309548065066
vertex 0.135016590356827 -23.8125705718994 0.0514972694218159
endloop
endfacet
facet normal -0.227398350834846 -0.669557452201843 -0.707094609737396
outer loop
vertex 0.135016590356827 -23.8125705718994 0.0514972694218159
vertex -2.55143451690674 -22.9091644287109 0.0599999986588955
vertex 0.1397625207901 -23.7983074188232 0.0364654771983624
endloop
endfacet
facet normal -0.949394464492798 0.313670068979263 0.0161649063229561
outer loop
vertex -2.19740033149719 -22.8681602478027 20.0873870849609
vertex -2.21145915985107 -22.8635139465332 19.1715602874756
vertex -2.24445700645447 -23.0105876922607 20.0873870849609
endloop
endfacet
facet normal -0.949394464492798 0.313670068979263 0.0161649063229561
outer loop
vertex -2.25851583480835 -23.0059413909912 19.1715602874756
vertex -2.24445700645447 -23.0105876922607 20.0873870849609
vertex -2.21145915985107 -22.8635139465332 19.1715602874756
endloop
endfacet
facet normal -0.949394404888153 0.313670068979263 0.0161649063229561
outer loop
vertex -2.25851583480835 -23.0059413909912 19.1715602874756
vertex -2.21145915985107 -22.8635139465332 19.1715602874756
vertex -2.27952790260315 -22.9990005493164 17.8027667999268
endloop
endfacet
facet normal -0.949394404888153 0.313670068979263 0.0161649063229561
outer loop
vertex -2.23247122764587 -22.8565731048584 17.8027667999268
vertex -2.27952790260315 -22.9990005493164 17.8027667999268
vertex -2.21145915985107 -22.8635139465332 19.1715602874756
endloop
endfacet
facet normal -0.949394345283508 0.313670039176941 0.0161649063229561
outer loop
vertex -2.27952790260315 -22.9990005493164 17.8027667999268
vertex -2.23247122764587 -22.8565731048584 17.8027667999268
vertex -2.31093287467957 -22.9886245727539 15.7569694519043
endloop
endfacet
facet normal -0.949394345283508 0.313670039176941 0.0161649063229561
outer loop
vertex -2.26387619972229 -22.8461971282959 15.7569694519043
vertex -2.31093287467957 -22.9886245727539 15.7569694519043
vertex -2.23247122764587 -22.8565731048584 17.8027667999268
endloop
endfacet
facet normal -0.949394464492798 0.313670098781586 0.0161649081856012
outer loop
vertex -2.26387619972229 -22.8461971282959 15.7569694519043
vertex -2.30685830116272 -22.831995010376 12.9569931030273
vertex -2.31093287467957 -22.9886245727539 15.7569694519043
endloop
endfacet
facet normal -0.949394464492798 0.313670098781586 0.0161649081856012
outer loop
vertex -2.35391497612 -22.974422454834 12.9569931030273
vertex -2.31093287467957 -22.9886245727539 15.7569694519043
vertex -2.30685830116272 -22.831995010376 12.9569931030273
endloop
endfacet
facet normal -0.949394345283508 0.313670068979263 0.0161649063229561
outer loop
vertex -2.35391497612 -22.974422454834 12.9569931030273
vertex -2.30685830116272 -22.831995010376 12.9569931030273
vertex -2.39794588088989 -22.9598751068115 10.0886936187744
endloop
endfacet
facet normal -0.949394345283508 0.313670068979263 0.0161649063229561
outer loop
vertex -2.35088920593262 -22.8174476623535 10.0886936187744
vertex -2.39794588088989 -22.9598751068115 10.0886936187744
vertex -2.30685830116272 -22.831995010376 12.9569931030273
endloop
endfacet
facet normal -0.949394345283508 0.313670068979263 0.0161649063229561
outer loop
vertex -2.35088920593262 -22.8174476623535 10.0886936187744
vertex -2.39492011070251 -22.8029003143311 7.22039365768433
vertex -2.39794588088989 -22.9598751068115 10.0886936187744
endloop
endfacet
facet normal -0.949394345283508 0.313670068979263 0.0161649063229561
outer loop
vertex -2.44197678565979 -22.9453277587891 7.22039365768433
vertex -2.39794588088989 -22.9598751068115 10.0886936187744
vertex -2.39492011070251 -22.8029003143311 7.22039365768433
endloop
endfacet
facet normal -0.949394464492798 0.313670098781586 0.0161649081856012
outer loop
vertex -2.39492011070251 -22.8029003143311 7.22039365768433
vertex -2.43790221214294 -22.7887001037598 4.42041730880737
vertex -2.44197678565979 -22.9453277587891 7.22039365768433
endloop
endfacet
facet normal -0.949394464492798 0.313670098781586 0.0161649081856012
outer loop
vertex -2.48495888710022 -22.9311275482178 4.42041730880737
vertex -2.44197678565979 -22.9453277587891 7.22039365768433
vertex -2.43790221214294 -22.7887001037598 4.42041730880737
endloop
endfacet
facet normal -0.949394345283508 0.313670039176941 0.0161649063229561
outer loop
vertex -2.46930694580078 -22.7783241271973 2.37462019920349
vertex -2.51636362075806 -22.9207515716553 2.37462019920349
vertex -2.43790221214294 -22.7887001037598 4.42041730880737
endloop
endfacet
facet normal -0.949394345283508 0.313670039176941 0.0161649063229561
outer loop
vertex -2.48495888710022 -22.9311275482178 4.42041730880737
vertex -2.43790221214294 -22.7887001037598 4.42041730880737
vertex -2.51636362075806 -22.9207515716553 2.37462019920349
endloop
endfacet
facet normal -0.949394404888153 0.313670068979263 0.0161649063229561
outer loop
vertex -2.51636362075806 -22.9207515716553 2.37462019920349
vertex -2.46930694580078 -22.7783241271973 2.37462019920349
vertex -2.53737592697144 -22.9138088226318 1.00582683086395
endloop
endfacet
facet normal -0.949394404888153 0.313670068979263 0.0161649063229561
outer loop
vertex -2.49031925201416 -22.7713813781738 1.00582683086395
vertex -2.53737592697144 -22.9138088226318 1.00582683086395
vertex -2.46930694580078 -22.7783241271973 2.37462019920349
endloop
endfacet
facet normal -0.949394464492798 0.313670068979263 0.0161649063229561
outer loop
vertex -2.49031925201416 -22.7713813781738 1.00582683086395
vertex -2.50437784194946 -22.7667369842529 0.0900000035762787
vertex -2.53737592697144 -22.9138088226318 1.00582683086395
endloop
endfacet
facet normal -0.949394464492798 0.313670068979263 0.0161649063229561
outer loop
vertex -2.55143451690674 -22.9091644287109 0.0900000035762787
vertex -2.53737592697144 -22.9138088226318 1.00582683086395
vertex -2.50437784194946 -22.7667369842529 0.0900000035762787
endloop
endfacet
facet normal 0.318742603063583 0.947841286659241 -8.57447375892662e-05
outer loop
vertex 16.4048862457275 -29.2838268280029 0.300004690885544
vertex 16.4053077697754 -29.2839832305908 0.149999722838402
vertex 15.420802116394 -28.9528980255127 0.289102673530579
endloop
endfacet
facet normal 0.318742603063583 0.947841346263885 -8.57447448652238e-05
outer loop
vertex 15.4211921691895 -28.9530429840088 0.146884918212891
vertex 15.420802116394 -28.9528980255127 0.289102673530579
vertex 16.4053077697754 -29.2839832305908 0.149999722838402
endloop
endfacet
facet normal 0.318742573261261 0.947841286659241 -8.57447448652238e-05
outer loop
vertex 15.420802116394 -28.9528980255127 0.289102673530579
vertex 15.4211921691895 -28.9530429840088 0.146884918212891
vertex 13.5599269866943 -28.3271198272705 0.268487244844437
endloop
endfacet
facet normal 0.318742573261261 0.947841286659241 -8.57447375892662e-05
outer loop
vertex 13.5602960586548 -28.3272552490234 0.140995025634766
vertex 13.5599269866943 -28.3271198272705 0.268487244844437
vertex 15.4211921691895 -28.9530429840088 0.146884918212891
endloop
endfacet
facet normal 0.318742603063583 0.947841346263885 -8.57447448652238e-05
outer loop
vertex 13.5602960586548 -28.3272552490234 0.140995025634766
vertex 10.8808212280273 -27.4261951446533 0.132514253258705
vertex 13.5599269866943 -28.3271198272705 0.268487244844437
endloop
endfacet
facet normal 0.318742603063583 0.94784140586853 -8.57447448652238e-05
outer loop
vertex 10.8805093765259 -27.4260807037354 0.23880372941494
vertex 13.5599269866943 -28.3271198272705 0.268487244844437
vertex 10.8808212280273 -27.4261951446533 0.132514253258705
endloop
endfacet
facet normal 0.318742573261261 0.947841346263885 -8.57447375892662e-05
outer loop
vertex 10.8805093765259 -27.4260807037354 0.23880372941494
vertex 10.8808212280273 -27.4261951446533 0.132514253258705
vertex 8.19412040710449 -26.5226974487305 0.209042981266975
endloop
endfacet
facet normal 0.318742573261261 0.947841286659241 -8.57447375892662e-05
outer loop
vertex 8.19437026977539 -26.5227890014648 0.124011404812336
vertex 8.19412040710449 -26.5226974487305 0.209042981266975
vertex 10.8808212280273 -27.4261951446533 0.132514253258705
endloop
endfacet
facet normal 0.318742573261261 0.947841286659241 -8.57447375892662e-05
outer loop
vertex 8.19437026977539 -26.5227890014648 0.124011404812336
vertex 5.50791883468628 -25.6193828582764 0.115508548915386
vertex 8.19412040710449 -26.5226974487305 0.209042981266975
endloop
endfacet
facet normal 0.318742632865906 0.947841346263885 -8.57447448652238e-05
outer loop
vertex 5.50773191452026 -25.6193141937256 0.179282233119011
vertex 8.19412040710449 -26.5226974487305 0.209042981266975
vertex 5.50791883468628 -25.6193828582764 0.115508548915386
endloop
endfacet
facet normal 0.318742632865906 0.947841346263885 -8.57447448652238e-05
outer loop
vertex 5.50773191452026 -25.6193141937256 0.179282233119011
vertex 5.50791883468628 -25.6193828582764 0.115508548915386
vertex 2.82134294509888 -24.7159309387207 0.149521499872208
endloop
endfacet
facet normal 0.318742573261261 0.947841286659241 -8.57447375892662e-05
outer loop
vertex 2.82146787643433 -24.7159767150879 0.107005700469017
vertex 2.82134294509888 -24.7159309387207 0.149521499872208
vertex 5.50791883468628 -25.6193828582764 0.115508548915386
endloop
endfacet
facet normal 0.318742573261261 0.947841286659241 -8.57447375892662e-05
outer loop
vertex 2.82146787643433 -24.7159767150879 0.107005700469017
vertex 0.135016590356827 -23.8125705718994 0.0985028520226479
vertex 2.82134294509888 -24.7159309387207 0.149521499872208
endloop
endfacet
facet normal 0.318742573261261 0.947841286659241 -8.57447375892662e-05
outer loop
vertex 0.134954228997231 -23.8125476837158 0.119760744273663
vertex 2.82134294509888 -24.7159309387207 0.149521499872208
vertex 0.135016590356827 -23.8125705718994 0.0985028520226479
endloop
endfacet
facet normal 0.318742573261261 0.947841286659241 -8.57447375892662e-05
outer loop
vertex 0.135016590356827 -23.8125705718994 0.0985028520226479
vertex -2.55143451690674 -22.9091644287109 0.0900000035762787
vertex 0.134954228997231 -23.8125476837158 0.119760744273663
endloop
endfacet
facet normal 0.215240940451622 0.673572719097137 -0.707086324691772
outer loop
vertex 1.79680144786835 -9.98722171783447 13.57310962677
vertex 2.00691843032837 -9.36293029785156 14.2317733764648
vertex 1.93391573429108 -10.0325231552124 13.5716943740845
endloop
endfacet
facet normal 0.215240940451622 0.673572719097137 -0.707086324691772
outer loop
vertex 2.14933919906616 -9.40998458862305 14.2303028106689
vertex 1.93391573429108 -10.0325231552124 13.5716943740845
vertex 2.00691843032837 -9.36293029785156 14.2317733764648
endloop
endfacet
facet normal 0.215240955352783 0.673572719097137 -0.707086324691772
outer loop
vertex 1.79680144786835 -9.98722171783447 13.57310962677
vertex 1.93391573429108 -10.0325231552124 13.5716943740845
vertex 1.47566735744476 -10.9413642883301 12.5664358139038
endloop
endfacet
facet normal 0.215240925550461 0.673572659492493 -0.707086324691772
outer loop
vertex 1.60467112064362 -10.9839859008789 12.5651035308838
vertex 1.47566735744476 -10.9413642883301 12.5664358139038
vertex 1.93391573429108 -10.0325231552124 13.5716943740845
endloop
endfacet
facet normal 0.215240955352783 0.673572719097137 -0.707086324691772
outer loop
vertex 1.60467112064362 -10.9839859008789 12.5651035308838
vertex 1.10146725177765 -12.4381618499756 11.0266723632813
vertex 1.47566735744476 -10.9413642883301 12.5664358139038
endloop
endfacet
facet normal 0.215240940451622 0.673572778701782 -0.707086384296417
outer loop
vertex 0.984859347343445 -12.3996362686157 11.0278768539429
vertex 1.47566735744476 -10.9413642883301 12.5664358139038
vertex 1.10146725177765 -12.4381618499756 11.0266723632813
endloop
endfacet
facet normal 0.215240955352783 0.673572838306427 -0.707086384296417
outer loop
vertex 0.984859347343445 -12.3996362686157 11.0278768539429
vertex 1.10146725177765 -12.4381618499756 11.0266723632813
vertex 0.327387899160385 -14.3530921936035 8.96687030792236
endloop
endfacet
facet normal 0.215240925550461 0.673572719097137 -0.707086324691772
outer loop
vertex 0.427390813827515 -14.3861322402954 8.9658374786377
vertex 0.327387899160385 -14.3530921936035 8.96687030792236
vertex 1.10146725177765 -12.4381618499756 11.0266723632813
endloop
endfacet
facet normal 0.215240940451622 0.673572719097137 -0.707086324691772
outer loop
vertex 0.327387899160385 -14.3530921936035 8.96687030792236
vertex 0.427390813827515 -14.3861322402954 8.9658374786377
vertex -0.337422549724579 -16.3283538818359 6.88285732269287
endloop
endfacet
facet normal 0.215240970253944 0.673572778701782 -0.707086384296417
outer loop
vertex -0.254209995269775 -16.3558464050293 6.88199806213379
vertex -0.337422549724579 -16.3283538818359 6.88285732269287
vertex 0.427390813827515 -14.3861322402954 8.9658374786377
endloop
endfacet
facet normal 0.215240970253944 0.673572778701782 -0.707086384296417
outer loop
vertex -0.254209995269775 -16.3558464050293 6.88199806213379
vertex -0.935810804367065 -18.3255615234375 4.79815912246704
vertex -0.337422549724579 -16.3283538818359 6.88285732269287
endloop
endfacet
facet normal 0.215240955352783 0.673572719097137 -0.707086384296417
outer loop
vertex -1.00223302841187 -18.3036155700684 4.79884481430054
vertex -0.337422549724579 -16.3283538818359 6.88285732269287
vertex -0.935810804367065 -18.3255615234375 4.79815912246704
endloop
endfacet
facet normal 0.215240940451622 0.673572778701782 -0.707086324691772
outer loop
vertex -1.62545776367188 -20.1553192138672 2.84519267082214
vertex -1.00223302841187 -18.3036155700684 4.79884481430054
vertex -1.57477569580078 -20.1720638275146 2.84466934204102
endloop
endfacet
facet normal 0.215240940451622 0.673572719097137 -0.707086384296417
outer loop
vertex -0.935810804367065 -18.3255615234375 4.79815912246704
vertex -1.57477569580078 -20.1720638275146 2.84466934204102
vertex -1.00223302841187 -18.3036155700684 4.79884481430054
endloop
endfacet
facet normal 0.215240940451622 0.673572719097137 -0.707086324691772
outer loop
vertex -1.62545776367188 -20.1553192138672 2.84519267082214
vertex -1.57477569580078 -20.1720638275146 2.84466934204102
vertex -2.0175154209137 -21.3201885223389 1.61619091033936
endloop
endfacet
facet normal 0.215240955352783 0.673572719097137 -0.707086324691772
outer loop
vertex -1.97673511505127 -21.3336620330811 1.61576986312866
vertex -2.0175154209137 -21.3201885223389 1.61619091033936
vertex -1.57477569580078 -20.1720638275146 2.84466934204102
endloop
endfacet
facet normal 0.215240955352783 0.673572719097137 -0.707086324691772
outer loop
vertex -1.97673511505127 -21.3336620330811 1.61576986312866
vertex -2.21160650253296 -22.0124015808105 0.897703886032104
vertex -2.0175154209137 -21.3201885223389 1.61619091033936
endloop
endfacet
facet normal 0.215240955352783 0.673572778701782 -0.707086384296417
outer loop
vertex -2.24660110473633 -22.0008392333984 0.898065209388733
vertex -2.0175154209137 -21.3201885223389 1.61619091033936
vertex -2.21160650253296 -22.0124015808105 0.897703886032104
endloop
endfacet
facet normal 0.215240940451622 0.673572719097137 -0.707086324691772
outer loop
vertex -2.24660110473633 -22.0008392333984 0.898065209388733
vertex -2.21160650253296 -22.0124015808105 0.897703886032104
vertex -2.38045954704285 -22.3985557556152 0.478452742099762
endloop
endfacet
facet normal 0.215240955352783 0.673572719097137 -0.707086324691772
outer loop
vertex -2.34884572029114 -22.4090003967285 0.478126347064972
vertex -2.38045954704285 -22.3985557556152 0.478452742099762
vertex -2.21160650253296 -22.0124015808105 0.897703886032104
endloop
endfacet
facet normal 0.215240970253944 0.673572778701782 -0.707086384296417
outer loop
vertex -2.38045954704285 -22.3985557556152 0.478452742099762
vertex -2.34884572029114 -22.4090003967285 0.478126347064972
vertex -2.45867514610291 -22.6309471130371 0.233266368508339
endloop
endfacet
facet normal 0.215240955352783 0.673572719097137 -0.707086324691772
outer loop
vertex -2.42903685569763 -22.640739440918 0.232960358262062
vertex -2.45867514610291 -22.6309471130371 0.233266368508339
vertex -2.34884572029114 -22.4090003967285 0.478126347064972
endloop
endfacet
facet normal 0.215240940451622 0.673572778701782 -0.707086324691772
outer loop
vertex -2.42903685569763 -22.640739440918 0.232960358262062
vertex -2.47589373588562 -22.7761478424072 0.0897059068083763
vertex -2.45867514610291 -22.6309471130371 0.233266368508339
endloop
endfacet
facet normal 0.215240955352783 0.673572719097137 -0.707086384296417
outer loop
vertex -2.50437784194946 -22.7667369842529 0.0900000035762787
vertex -2.45867514610291 -22.6309471130371 0.233266368508339
vertex -2.47589373588562 -22.7761478424072 0.0897059068083763
endloop
endfacet
facet normal -0.227388516068459 -0.669526875019073 0.70712673664093
outer loop
vertex 2.14899611473083 -9.41103267669678 14.231915473938
vertex 2.00689816474915 -9.3629903793335 14.2317094802856
vertex 1.90743124485016 -10.1043510437012 13.4977836608887
endloop
endfacet
facet normal -0.227388516068459 -0.669526875019073 0.70712673664093
outer loop
vertex 1.7727073431015 -10.0588092803955 13.4975805282593
vertex 1.90743124485016 -10.1043510437012 13.4977836608887
vertex 2.00689816474915 -9.3629903793335 14.2317094802856
endloop
endfacet
facet normal -0.22738853096962 -0.669526875019073 0.70712673664093
outer loop
vertex 1.90743124485016 -10.1043510437012 13.4977836608887
vertex 1.7727073431015 -10.0588092803955 13.4975805282593
vertex 1.45063304901123 -11.415412902832 12.1095428466797
endloop
endfacet
facet normal -0.227388545870781 -0.669526934623718 0.707126796245575
outer loop
vertex 1.32986307144165 -11.3745727539063 12.1093759536743
vertex 1.45063304901123 -11.415412902832 12.1095428466797
vertex 1.7727073431015 -10.0588092803955 13.4975805282593
endloop
endfacet
facet normal -0.22738853096962 -0.669526875019073 0.70712673664093
outer loop
vertex 1.32986307144165 -11.3745727539063 12.1093759536743
vertex 0.692207157611847 -13.269154548645 10.1104860305786
vertex 1.45063304901123 -11.415412902832 12.1095428466797
endloop
endfacet
facet normal -0.227388545870781 -0.669526934623718 0.707126796245575
outer loop
vertex 0.792891442775726 -13.3032054901123 10.1106224060059
vertex 1.45063304901123 -11.415412902832 12.1095428466797
vertex 0.692207157611847 -13.269154548645 10.1104860305786
endloop
endfacet
facet normal -0.227388545870781 -0.669526875019073 0.707126796245575
outer loop
vertex 0.792891442775726 -13.3032054901123 10.1106224060059
vertex 0.692207157611847 -13.269154548645 10.1104860305786
vertex 0.13343757390976 -15.1959114074707 8.1064977645874
endloop
endfacet
facet normal -0.227388516068459 -0.669526875019073 0.70712673664093
outer loop
vertex 0.0528901442885399 -15.1686706542969 8.10638904571533
vertex 0.13343757390976 -15.1959114074707 8.1064977645874
vertex 0.692207157611847 -13.269154548645 10.1104860305786
endloop
endfacet
facet normal -0.227388516068459 -0.669526875019073 0.70712673664093
outer loop
vertex 0.0528901442885399 -15.1686706542969 8.10638904571533
vertex -0.586426854133606 -17.068187713623 6.10229158401489
vertex 0.13343757390976 -15.1959114074707 8.1064977645874
endloop
endfacet
facet normal -0.227388516068459 -0.669526875019073 0.70712673664093
outer loop
vertex -0.526016294956207 -17.0886173248291 6.1023736000061
vertex 0.13343757390976 -15.1959114074707 8.1064977645874
vertex -0.586426854133606 -17.068187713623 6.10229158401489
endloop
endfacet
facet normal -0.227388516068459 -0.669526875019073 0.70712673664093
outer loop
vertex -0.526016294956207 -17.0886173248291 6.1023736000061
vertex -0.586426854133606 -17.068187713623 6.10229158401489
vertex -1.18547022342682 -18.9813251495361 4.09824895858765
endloop
endfacet
facet normal -0.227388516068459 -0.669526875019073 0.70712673664093
outer loop
vertex -1.22574388980865 -18.9677047729492 4.09819459915161
vertex -1.18547022342682 -18.9813251495361 4.09824895858765
vertex -0.586426854133606 -17.068187713623 6.10229158401489
endloop
endfacet
facet normal -0.227388516068459 -0.669526875019073 0.70712673664093
outer loop
vertex -1.22574388980865 -18.9677047729492 4.09819459915161
vertex -1.8650609254837 -20.8672199249268 2.09409713745117
vertex -1.18547022342682 -18.9813251495361 4.09824895858765
endloop
endfacet
facet normal -0.227388516068459 -0.669526875019073 0.70712673664093
outer loop
vertex -1.84492409229279 -20.8740310668945 2.09412455558777
vertex -1.18547022342682 -18.9813251495361 4.09824895858765
vertex -1.8650609254837 -20.8672199249268 2.09409713745117
endloop
endfacet
facet normal -0.227388516068459 -0.669526875019073 0.70712673664093
outer loop
vertex -1.8650609254837 -20.8672199249268 2.09409713745117
vertex -2.50437784194946 -22.7667369842529 0.0900000035762787
vertex -1.84492409229279 -20.8740310668945 2.09412455558777
endloop
endfacet
facet normal 8.57447375892662e-05 -0.00530368275940418 -0.999985933303833
outer loop
vertex -0.210004687309265 -19.9991779327393 0.256052792072296
vertex -0.1991026699543 -18.9609565734863 0.250547230243683
vertex -0.059999730437994 -19.9996280670166 0.256068021059036
endloop
endfacet
facet normal 8.57447448652238e-05 -0.00530368275940418 -0.999985992908478
outer loop
vertex -0.0568849183619022 -18.9613723754883 0.250561624765396
vertex -0.059999730437994 -19.9996280670166 0.256068021059036
vertex -0.1991026699543 -18.9609565734863 0.250547230243683
endloop
endfacet
facet normal 8.57447448652238e-05 -0.0053036822937429 -0.999985933303833
outer loop
vertex -0.1991026699543 -18.9609565734863 0.250547230243683
vertex -0.178487241268158 -16.9977073669434 0.240136414766312
vertex -0.0568849183619022 -18.9613723754883 0.250561624765396
endloop
endfacet
facet normal 8.57447521411814e-05 -0.00530368322506547 -0.999985933303833
outer loop
vertex -0.0509950220584869 -16.9981021881104 0.240149438381195
vertex -0.0568849183619022 -18.9613723754883 0.250561624765396
vertex -0.178487241268158 -16.9977073669434 0.240136414766312
endloop
endfacet
facet normal 8.57447448652238e-05 -0.00530368275940418 -0.999985933303833
outer loop
vertex -0.0509950220584869 -16.9981021881104 0.240149438381195
vertex -0.178487241268158 -16.9977073669434 0.240136414766312
vertex -0.0425142534077168 -14.171217918396 0.225157052278519
endloop
endfacet
facet normal 8.57447448652238e-05 -0.00530368275940418 -0.999985933303833
outer loop
vertex -0.148803740739822 -14.1708860397339 0.225146174430847
vertex -0.0425142534077168 -14.171217918396 0.225157052278519
vertex -0.178487241268158 -16.9977073669434 0.240136414766312
endloop
endfacet
facet normal 8.57447448652238e-05 -0.00530368275940418 -0.999985933303833
outer loop
vertex -0.148803740739822 -14.1708860397339 0.225146174430847
vertex -0.119042985141277 -11.336709022522 0.210116937756538
vertex -0.0425142534077168 -14.171217918396 0.225157052278519
endloop
endfacet
facet normal 8.57447375892662e-05 -0.00530368275940418 -0.999985873699188
outer loop
vertex -0.0340114012360573 -11.3369741439819 0.210125640034676
vertex -0.0425142534077168 -14.171217918396 0.225157052278519
vertex -0.119042985141277 -11.336709022522 0.210116937756538
endloop
endfacet
facet normal 8.57447375892662e-05 -0.00530368275940418 -0.999985873699188
outer loop
vertex -0.0340114012360573 -11.3369741439819 0.210125640034676
vertex -0.119042985141277 -11.336709022522 0.210116937756538
vertex -0.025508550927043 -8.50273036956787 0.195094227790833
endloop
endfacet
facet normal 8.57447375892662e-05 -0.0053036822937429 -0.999985873699188
outer loop
vertex -0.0892822369933128 -8.50253200531006 0.19508770108223
vertex -0.025508550927043 -8.50273036956787 0.195094227790833
vertex -0.119042985141277 -11.336709022522 0.210116937756538
endloop
endfacet
facet normal 8.57447375892662e-05 -0.0053036822937429 -0.999985873699188
outer loop
vertex -0.0892822369933128 -8.50253200531006 0.19508770108223
vertex -0.0595214925706387 -5.66835451126099 0.180058479309082
vertex -0.025508550927043 -8.50273036956787 0.195094227790833
endloop
endfacet
facet normal 8.57447375892662e-05 -0.00530368275940418 -0.999985873699188
outer loop
vertex -0.0170057006180286 -5.66848707199097 0.180062815546989
vertex -0.025508550927043 -8.50273036956787 0.195094227790833
vertex -0.0595214925706387 -5.66835451126099 0.180058479309082
endloop
endfacet
facet normal 8.57447375892662e-05 -0.00530368275940418 -0.999985873699188
outer loop
vertex -0.0170057006180286 -5.66848707199097 0.180062815546989
vertex -0.0595214925706387 -5.66835451126099 0.180058479309082
vertex -0.00850285030901432 -2.83424353599548 0.165031418204308
endloop
endfacet
facet normal 8.57447375892662e-05 -0.00530368275940418 -0.999985873699188
outer loop
vertex -0.0297607462853193 -2.83417725563049 0.165029242634773
vertex -0.00850285030901432 -2.83424353599548 0.165031418204308
vertex -0.0595214925706387 -5.66835451126099 0.180058479309082
endloop
endfacet
facet normal 8.57447375892662e-05 -0.00530368275940418 -0.999985873699188
outer loop
vertex -0.00850285030901432 -2.83424353599548 0.165031418204308
vertex -0.0297607462853193 -2.83417725563049 0.165029242634773
vertex 0 0 0.150000005960464
endloop
endfacet
facet normal -1 0 0
outer loop
vertex -0.166069999337196 -20 0
vertex -0.166069999337196 -21 0
vertex -0.166069999337196 -20 0.150000005960464
endloop
endfacet
facet normal -1 0 0
outer loop
vertex -0.166069999337196 -21 0.150000005960464
vertex -0.166069999337196 -20 0.150000005960464
vertex -0.166069999337196 -21 0
endloop
endfacet
facet normal -0.707106828689575 -0 -0.707106828689575
outer loop
vertex -0.166069999337196 -20 0
vertex -0.0599999986588955 -20 -0.106069996953011
vertex -0.166069999337196 -21 0
endloop
endfacet
facet normal -0.707106828689575 0 -0.707106828689575
outer loop
vertex -0.0599999986588955 -21 -0.106069996953011
vertex -0.166069999337196 -21 0
vertex -0.0599999986588955 -20 -0.106069996953011
endloop
endfacet
facet normal -0.707106828689575 0 0.707106828689575
outer loop
vertex -0.166069999337196 -20 0.150000005960464
vertex -0.166069999337196 -21 0.150000005960464
vertex -0.0599999986588955 -20 0.256069988012314
endloop
endfacet
facet normal -0.707106828689575 0 0.707106828689575
outer loop
vertex -0.0599999986588955 -21 0.256069988012314
vertex -0.0599999986588955 -20 0.256069988012314
vertex -0.166069999337196 -21 0.150000005960464
endloop
endfacet
facet normal 0 0 -1
outer loop
vertex 0.0900000035762787 -21 -0.106069996953011
vertex -0.0599999986588955 -21 -0.106069996953011
vertex 0.0900000035762787 -20 -0.106069996953011
endloop
endfacet
facet normal 0 0 -1
outer loop
vertex -0.0599999986588955 -20 -0.106069996953011
vertex 0.0900000035762787 -20 -0.106069996953011
vertex -0.0599999986588955 -21 -0.106069996953011
endloop
endfacet
facet normal 0 -0 1
outer loop
vertex 0.0900000035762787 -21 0.256069988012314
vertex 0.0900000035762787 -20 0.256069988012314
vertex -0.0599999986588955 -21 0.256069988012314
endloop
endfacet
facet normal -0 0 1
outer loop
vertex -0.0599999986588955 -20 0.256069988012314
vertex -0.0599999986588955 -21 0.256069988012314
vertex 0.0900000035762787 -20 0.256069988012314
endloop
endfacet
facet normal 0.707106828689575 0 -0.707106828689575
outer loop
vertex 0.0900000035762787 -20 -0.106069996953011
vertex 0.196070000529289 -20 0
vertex 0.0900000035762787 -21 -0.106069996953011
endloop
endfacet
facet normal 0.707106828689575 0 -0.707106828689575
outer loop
vertex 0.196070000529289 -21 0
vertex 0.0900000035762787 -21 -0.106069996953011
vertex 0.196070000529289 -20 0
endloop
endfacet
facet normal 0.707106828689575 -0 0.707106828689575
outer loop
vertex 0.196070000529289 -21 0.150000005960464
vertex 0.196070000529289 -20 0.150000005960464
vertex 0.0900000035762787 -21 0.256069988012314
endloop
endfacet
facet normal 0.707106828689575 0 0.707106828689575
outer loop
vertex 0.0900000035762787 -20 0.256069988012314
vertex 0.0900000035762787 -21 0.256069988012314
vertex 0.196070000529289 -20 0.150000005960464
endloop
endfacet
facet normal 1 0 0
outer loop
vertex 0.196070000529289 -21 0
vertex 0.196070000529289 -20 0
vertex 0.196070000529289 -21 0.150000005960464
endloop
endfacet
facet normal 1 0 0
outer loop
vertex 0.196070000529289 -20 0.150000005960464
vertex 0.196070000529289 -21 0.150000005960464
vertex 0.196070000529289 -20 0
endloop
endfacet
facet normal -0 0.0053034252487123 0.999985933303833
outer loop
vertex -0.0599999986588955 -19.999719619751 0.256068497896194
vertex 0.0900000035762787 -19.999719619751 0.256068497896194
vertex -0.0572054572403431 -19.0682163238525 0.251128286123276
endloop
endfacet
facet normal -1.3047180682292e-16 0.0053034252487123 0.999985933303833
outer loop
vertex 0.0872054547071457 -19.0682163238525 0.251128286123276
vertex -0.0572054572403431 -19.0682163238525 0.251128286123276
vertex 0.0900000035762787 -19.999719619751 0.256068497896194
endloop
endfacet
facet normal -1.3047180682292e-16 0.00530342571437359 0.999985933303833
outer loop
vertex -0.0572054572403431 -19.0682163238525 0.251128286123276
vertex 0.0872054547071457 -19.0682163238525 0.251128286123276
vertex -0.0529343895614147 -17.6445484161377 0.243577867746353
endloop
endfacet
facet normal 1.38674619467918e-16 0.0053034252487123 0.999985873699188
outer loop
vertex 0.0829343870282173 -17.6445484161377 0.243577867746353
vertex -0.0529343895614147 -17.6445484161377 0.243577867746353
vertex 0.0872054547071457 -19.0682163238525 0.251128286123276
endloop
endfacet
facet normal 1.38674619467918e-16 0.0053034252487123 0.999985992908478
outer loop
vertex 0.0829343870282173 -17.6445484161377 0.243577867746353
vertex 0.0764066725969315 -15.4686717987061 0.232038110494614
vertex -0.0529343895614147 -17.6445484161377 0.243577867746353
endloop
endfacet
facet normal -7.67080845618477e-17 0.00530342571437359 0.999985933303833
outer loop
vertex -0.0464066676795483 -15.4686717987061 0.232038110494614
vertex -0.0529343895614147 -17.6445484161377 0.243577867746353
vertex 0.0764066725969315 -15.4686717987061 0.232038110494614
endloop
endfacet
facet normal -7.67080845618477e-17 0.0053034252487123 0.999985933303833
outer loop
vertex -0.0464066676795483 -15.4686717987061 0.232038110494614
vertex 0.0764066725969315 -15.4686717987061 0.232038110494614
vertex -0.0376623347401619 -12.5539350509644 0.216579794883728
endloop
endfacet
facet normal 2.58705223203602e-16 0.0053034252487123 0.999985933303833
outer loop
vertex 0.0676623359322548 -12.5539350509644 0.216579794883728
vertex -0.0376623347401619 -12.5539350509644 0.216579794883728
vertex 0.0764066725969315 -15.4686717987061 0.232038110494614
endloop
endfacet
facet normal 2.58705223203602e-16 0.0053034252487123 0.999985873699188
outer loop
vertex 0.0676623359322548 -12.5539350509644 0.216579794883728
vertex 0.0588203892111778 -9.60666179656982 0.200948938727379
vertex -0.0376623347401619 -12.5539350509644 0.216579794883728
endloop
endfacet
facet normal -4.18398991727415e-16 0.0053034252487123 0.999985933303833
outer loop
vertex -0.0288203917443752 -9.60666179656982 0.200948938727379
vertex -0.0376623347401619 -12.5539350509644 0.216579794883728
vertex 0.0588203892111778 -9.60666179656982 0.200948938727379
endloop
endfacet
facet normal -4.18398991727415e-16 0.0053034252487123 0.999985933303833
outer loop
vertex -0.0288203917443752 -9.60666179656982 0.200948938727379
vertex 0.0588203892111778 -9.60666179656982 0.200948938727379
vertex -0.0199784468859434 -6.65938901901245 0.185318067669868
endloop
endfacet
facet normal 5.31412430420909e-16 0.00530342571437359 0.999985992908478
outer loop
vertex 0.0499784462153912 -6.65938901901245 0.185318067669868
vertex -0.0199784468859434 -6.65938901901245 0.185318067669868
vertex 0.0588203892111778 -9.60666179656982 0.200948938727379
endloop
endfacet
facet normal 5.3141237748135e-16 0.00530342571437359 0.999985992908478
outer loop
vertex 0.0499784462153912 -6.65938901901245 0.185318067669868
vertex 0.0416895933449268 -3.89647579193115 0.170664966106415
vertex -0.0199784468859434 -6.65938901901245 0.185318067669868
endloop
endfacet
facet normal 6.96450553325424e-16 0.0053034252487123 0.999985933303833
outer loop
vertex -0.0116895912215114 -3.89647579193115 0.170664966106415
vertex -0.0199784468859434 -6.65938901901245 0.185318067669868
vertex 0.0416895933449268 -3.89647579193115 0.170664966106415
endloop
endfacet
facet normal 6.96450553325424e-16 0.0053034252487123 0.999985933303833
outer loop
vertex -0.0116895912215114 -3.89647579193115 0.170664966106415
vertex 0.0416895933449268 -3.89647579193115 0.170664966106415
vertex -0.00647524511441588 -2.15838479995728 0.161446988582611
endloop
endfacet
facet normal 1.09670179798347e-16 0.0053034252487123 0.999985933303833
outer loop
vertex 0.0364752449095249 -2.15838479995728 0.161446988582611
vertex -0.00647524511441588 -2.15838479995728 0.161446988582611
vertex 0.0416895933449268 -3.89647579193115 0.170664966106415
endloop
endfacet
facet normal 1.09670179798347e-16 0.0053034252487123 0.999985933303833
outer loop
vertex 0.0364752449095249 -2.15838479995728 0.161446988582611
vertex 0.0334284193813801 -1.14278995990753 0.156060785055161
vertex -0.00647524511441588 -2.15838479995728 0.161446988582611
endloop
endfacet
facet normal -1.15465159677454e-15 0.00530342571437359 0.999985992908478
outer loop
vertex -0.00342841818928719 -1.14278995990753 0.156060785055161
vertex -0.00647524511441588 -2.15838479995728 0.161446988582611
vertex 0.0334284193813801 -1.14278995990753 0.156060785055161
endloop
endfacet
facet normal -1.15465159677454e-15 0.0053034252487123 0.999985933303833
outer loop
vertex -0.00342841818928719 -1.14278995990753 0.156060785055161
vertex 0.0334284193813801 -1.14278995990753 0.156060785055161
vertex -0.00164810766000301 -0.54936146736145 0.15291354060173
endloop
endfacet
facet normal 3.20758036356284e-16 0.00530342571437359 0.999985933303833
outer loop
vertex 0.0316481068730354 -0.54936146736145 0.15291354060173
vertex -0.00164810766000301 -0.54936146736145 0.15291354060173
vertex 0.0334284193813801 -1.14278995990753 0.156060785055161
endloop
endfacet
facet normal 3.20758036356284e-16 0.00530342571437359 0.999985873699188
outer loop
vertex 0.0316481068730354 -0.54936146736145 0.15291354060173
vertex 0.0306078437715769 -0.202611595392227 0.151074543595314
vertex -0.00164810766000301 -0.54936146736145 0.15291354060173
endloop
endfacet
facet normal 1.18622284405931e-15 0.0053034252487123 0.999985873699188
outer loop
vertex -0.000607843336183578 -0.202611595392227 0.151074543595314
vertex -0.00164810766000301 -0.54936146736145 0.15291354060173
vertex 0.0306078437715769 -0.202611595392227 0.151074543595314
endloop
endfacet
facet normal 1.18622294993843e-15 0.0053034252487123 0.999985933303833
outer loop
vertex -0.000607843336183578 -0.202611595392227 0.151074543595314
vertex 0.0306078437715769 -0.202611595392227 0.151074543595314
vertex 0 0 0.150000005960464
endloop
endfacet
facet normal 0 0.0053034252487123 0.999985933303833
outer loop
vertex 0.0299999993294477 0 0.150000005960464
vertex 0 0 0.150000005960464
vertex 0.0306078437715769 -0.202611595392227 0.151074543595314
endloop
endfacet
facet normal -0.999965488910675 -0.0083032138645649 0
outer loop
vertex 0.196064278483391 -19.9993114471436 0
vertex 0.196064278483391 -19.9993114471436 0.150000005960464
vertex 0.188458979129791 -19.0833950042725 0
endloop
endfacet
facet normal -0.999965488910675 -0.0083032138645649 -0
outer loop
vertex 0.188458979129791 -19.0833950042725 0.150000005960464
vertex 0.188458979129791 -19.0833950042725 0
vertex 0.196064278483391 -19.9993114471436 0.150000005960464
endloop
endfacet
facet normal -0.99996554851532 -0.0083032138645649 -0
outer loop
vertex 0.188458979129791 -19.0833950042725 0.150000005960464
vertex 0.177092105150223 -17.714469909668 0.150000005960464
vertex 0.188458979129791 -19.0833950042725 0
endloop
endfacet
facet normal -0.99996554851532 -0.0083032138645649 -2.32576304880003e-17
outer loop
vertex 0.177092105150223 -17.714469909668 0
vertex 0.188458979129791 -19.0833950042725 0
vertex 0.177092105150223 -17.714469909668 0.150000005960464
endloop
endfacet
facet normal -0.99996554851532 -0.0083032138645649 -2.32576304880003e-17
outer loop
vertex 0.177092105150223 -17.714469909668 0.150000005960464
vertex 0.16010320186615 -15.6684770584106 0.150000005960464
vertex 0.177092105150223 -17.714469909668 0
endloop
endfacet
facet normal -0.99996554851532 -0.0083032138645649 2.60102959915469e-16
outer loop
vertex 0.16010320186615 -15.6684770584106 0
vertex 0.177092105150223 -17.714469909668 0
vertex 0.16010320186615 -15.6684770584106 0.150000005960464
endloop
endfacet
facet normal -0.999965488910675 -0.0083032138645649 2.60102959915469e-16
outer loop
vertex 0.16010320186615 -15.6684770584106 0.150000005960464
vertex 0.136851355433464 -12.8682308197021 0.150000005960464
vertex 0.16010320186615 -15.6684770584106 0
endloop
endfacet
facet normal -0.999965488910675 -0.0083032138645649 -1.96659609830971e-16
outer loop
vertex 0.136851355433464 -12.8682308197021 0
vertex 0.16010320186615 -15.6684770584106 0
vertex 0.136851355433464 -12.8682308197021 0.150000005960464
endloop
endfacet
facet normal -0.999965488910675 -0.0083032138645649 -1.96659596596081e-16
outer loop
vertex 0.136851355433464 -12.8682308197021 0
vertex 0.136851355433464 -12.8682308197021 0.150000005960464
vertex 0.113032139837742 -9.99965572357178 0
endloop
endfacet
facet normal -0.999965488910675 -0.0083032138645649 9.83297982980407e-17
outer loop
vertex 0.113032139837742 -9.99965572357178 0.150000005960464
vertex 0.113032139837742 -9.99965572357178 0
vertex 0.136851355433464 -12.8682308197021 0.150000005960464
endloop
endfacet
facet normal -0.999965488910675 -0.0083032138645649 9.83297982980407e-17
outer loop
vertex 0.113032139837742 -9.99965572357178 0
vertex 0.113032139837742 -9.99965572357178 0.150000005960464
vertex 0.0892129167914391 -7.13107967376709 0
endloop
endfacet
facet normal -0.999965488910675 -0.0083032138645649 -1.53309098865207e-16
outer loop
vertex 0.0892129167914391 -7.13107967376709 0.150000005960464
vertex 0.0892129167914391 -7.13107967376709 0
vertex 0.113032139837742 -9.99965572357178 0.150000005960464
endloop
endfacet
facet normal -0.999965488910675 -0.0083032138645649 -1.53309125334986e-16
outer loop
vertex 0.0892129167914391 -7.13107967376709 0
vertex 0.0892129167914391 -7.13107967376709 0.150000005960464
vertex 0.0659610778093338 -4.33083391189575 0
endloop
endfacet
facet normal -0.999965488910675 -0.0083032138645649 1.4168030264636e-16
outer loop
vertex 0.0659610778093338 -4.33083391189575 0.150000005960464
vertex 0.0659610778093338 -4.33083391189575 0
vertex 0.0892129167914391 -7.13107967376709 0.150000005960464
endloop
endfacet
facet normal -0.99996554851532 -0.0083032138645649 1.4168030264636e-16
outer loop
vertex 0.0659610778093338 -4.33083391189575 0
vertex 0.0659610778093338 -4.33083391189575 0.150000005960464
vertex 0.0489721707999706 -2.28484010696411 0
endloop
endfacet
facet normal -0.99996554851532 -0.0083032138645649 1.44587518244684e-16
outer loop
vertex 0.0489721707999706 -2.28484010696411 0.150000005960464
vertex 0.0489721707999706 -2.28484010696411 0
vertex 0.0659610778093338 -4.33083391189575 0.150000005960464
endloop
endfacet
facet normal -0.99996554851532 -0.0083032138645649 1.44587505009794e-16
outer loop
vertex 0.0489721707999706 -2.28484010696411 0
vertex 0.0489721707999706 -2.28484010696411 0.150000005960464
vertex 0.0376053005456924 -0.91591489315033 0
endloop
endfacet
facet normal -0.99996554851532 -0.0083032138645649 2.74896535923054e-17
outer loop
vertex 0.0376053005456924 -0.91591489315033 0.150000005960464
vertex 0.0376053005456924 -0.91591489315033 0
vertex 0.0489721707999706 -2.28484010696411 0.150000005960464
endloop
endfacet
facet normal -0.999965488910675 -0.0083032138645649 2.74896552466666e-17
outer loop
vertex 0.0376053005456924 -0.91591489315033 0
vertex 0.0376053005456924 -0.91591489315033 0.150000005960464
vertex 0.0299999993294477 0 0
endloop
endfacet
facet normal -0.999965488910675 -0.0083032138645649 -0
outer loop
vertex 0.0299999993294477 0 0.150000005960464
vertex 0.0299999993294477 0 0
vertex 0.0376053005456924 -0.91591489315033 0.150000005960464
endloop
endfacet
facet normal 0.707094609737396 0.00587136019021273 0.707094609737396
outer loop
vertex 0.19606976211071 -19.9998722076416 0.149999186396599
vertex 0.187448546290398 -18.9616146087646 0.149999231100082
vertex 0.0899988859891891 -19.9996280670166 0.256068021059036
endloop
endfacet
facet normal 0.707094609737396 0.00587135972455144 0.707094609737396
outer loop
vertex 0.086884118616581 -18.9613723754883 0.250561624765396
vertex 0.0899988859891891 -19.9996280670166 0.256068021059036
vertex 0.187448546290398 -18.9616146087646 0.149999231100082
endloop
endfacet
facet normal 0.707094550132751 0.00587135972455144 0.707094550132751
outer loop
vertex 0.187448546290398 -18.9616146087646 0.149999231100082
vertex 0.171146064996719 -16.9982986450195 0.149999305605888
vertex 0.086884118616581 -18.9613723754883 0.250561624765396
endloop
endfacet
facet normal 0.707094609737396 0.00587136065587401 0.707094609737396
outer loop
vertex 0.0809943079948425 -16.9981021881104 0.240149438381195
vertex 0.086884118616581 -18.9613723754883 0.250561624765396
vertex 0.171146064996719 -16.9982986450195 0.149999305605888
endloop
endfacet
facet normal 0.707094550132751 0.00587135925889015 0.707094550132751
outer loop
vertex 0.0809943079948425 -16.9981021881104 0.240149438381195
vertex 0.171146064996719 -16.9982986450195 0.149999305605888
vertex 0.0725136548280716 -14.171217918396 0.225157052278519
endloop
endfacet
facet normal 0.707094609737396 0.00587136019021273 0.707094609737396
outer loop
vertex 0.147672608494759 -14.1713781356812 0.149999424815178
vertex 0.0725136548280716 -14.171217918396 0.225157052278519
vertex 0.171146064996719 -16.9982986450195 0.149999305605888
endloop
endfacet
facet normal 0.707094609737396 0.00587136019021273 0.707094609737396
outer loop
vertex 0.147672608494759 -14.1713781356812 0.149999424815178
vertex 0.124138094484806 -11.3371019363403 0.149999544024467
vertex 0.0725136548280716 -14.171217918396 0.225157052278519
endloop
endfacet
facet normal 0.707094609737396 0.00587136019021273 0.707094609737396
outer loop
vertex 0.064010925590992 -11.3369741439819 0.210125640034676
vertex 0.0725136548280716 -14.171217918396 0.225157052278519
vertex 0.124138094484806 -11.3371019363403 0.149999544024467
endloop
endfacet
facet normal 0.707094609737396 0.00587136019021273 0.707094609737396
outer loop
vertex 0.064010925590992 -11.3369741439819 0.210125640034676
vertex 0.124138094484806 -11.3371019363403 0.149999544024467
vertex 0.0555081926286221 -8.50273036956787 0.195094227790833
endloop
endfacet
facet normal 0.707094550132751 0.00587135972455144 0.707094550132751
outer loop
vertex 0.100603565573692 -8.50282669067383 0.149999648332596
vertex 0.0555081926286221 -8.50273036956787 0.195094227790833
vertex 0.124138094484806 -11.3371019363403 0.149999544024467
endloop
endfacet
facet normal 0.707094550132751 0.00587135972455144 0.707094550132751
outer loop
vertex 0.100603565573692 -8.50282669067383 0.149999648332596
vertex 0.0770690441131592 -5.66855096817017 0.149999767541885
vertex 0.0555081926286221 -8.50273036956787 0.195094227790833
endloop
endfacet
facet normal 0.707094609737396 0.00587136019021273 0.707094609737396
outer loop
vertex 0.0470054633915424 -5.66848707199097 0.180062815546989
vertex 0.0555081926286221 -8.50273036956787 0.195094227790833
vertex 0.0770690441131592 -5.66855096817017 0.149999767541885
endloop
endfacet
facet normal 0.707094609737396 0.00587136019021273 0.707094609737396
outer loop
vertex 0.0470054633915424 -5.66848707199097 0.180062815546989
vertex 0.0770690441131592 -5.66855096817017 0.149999767541885
vertex 0.0385027304291725 -2.83424353599548 0.165031418204308
endloop
endfacet
facet normal 0.707094609737396 0.00587136019021273 0.707094609737396
outer loop
vertex 0.053534522652626 -2.83427548408508 0.149999886751175
vertex 0.0385027304291725 -2.83424353599548 0.165031418204308
vertex 0.0770690441131592 -5.66855096817017 0.149999767541885
endloop
endfacet
facet normal 0.707094609737396 0.00587136019021273 0.707094609737396
outer loop
vertex 0.0385027304291725 -2.83424353599548 0.165031418204308
vertex 0.053534522652626 -2.83427548408508 0.149999886751175
vertex 0.0299999993294477 0 0.150000005960464
endloop
endfacet
facet normal 0.707094609737396 0.00587136019021273 -0.707094609737396
outer loop
vertex 0.219598039984703 -22.8335094451904 0
vertex 0.204567119479179 -22.8336315155029 -0.0150319347158074
vertex 0.196064278483391 -19.9993114471436 0
endloop
endfacet
facet normal 0.707094609737396 0.00587136019021273 -0.707094609737396
outer loop
vertex 0.243131816387177 -25.6677074432373 0
vertex 0.213069975376129 -25.6679515838623 -0.0300638694316149
vertex 0.219598039984703 -22.8335094451904 0
endloop
endfacet
facet normal 0.707094609737396 0.00587136019021273 -0.707094609737396
outer loop
vertex 0.204567119479179 -22.8336315155029 -0.0150319347158074
vertex 0.219598039984703 -22.8335094451904 0
vertex 0.213069975376129 -25.6679515838623 -0.0300638694316149
endloop
endfacet
facet normal 0.707094609737396 0.00587136019021273 -0.707094609737396
outer loop
vertex 0.243131816387177 -25.6677074432373 0
vertex 0.266665577888489 -28.5019054412842 0
vertex 0.213069975376129 -25.6679515838623 -0.0300638694316149
endloop
endfacet
facet normal 0.707094550132751 0.00587135972455144 -0.707094550132751
outer loop
vertex 0.221572816371918 -28.5022735595703 -0.0450958050787449
vertex 0.213069975376129 -25.6679515838623 -0.0300638694316149
vertex 0.266665577888489 -28.5019054412842 0
endloop
endfacet
facet normal 0.707094550132751 0.00587135972455144 -0.707094550132751
outer loop
vertex 0.221572816371918 -28.5022735595703 -0.0450958050787449
vertex 0.266665577888489 -28.5019054412842 0
vertex 0.230075657367706 -31.3365936279297 -0.0601277388632298
endloop
endfacet
facet normal 0.707094609737396 0.00587136019021273 -0.707094609737396
outer loop
vertex 0.290199339389801 -31.3361053466797 0
vertex 0.230075657367706 -31.3365936279297 -0.0601277388632298
vertex 0.266665577888489 -28.5019054412842 0
endloop
endfacet
facet normal 0.707094609737396 0.00587136019021273 -0.707094609737396
outer loop
vertex 0.290199339389801 -31.3361053466797 0
vertex 0.313733100891113 -34.1703033447266 0
vertex 0.230075657367706 -31.3365936279297 -0.0601277388632298
endloop
endfacet
facet normal 0.707094609737396 0.00587136019021273 -0.707094609737396
outer loop
vertex 0.238578513264656 -34.1709136962891 -0.0751596763730049
vertex 0.230075657367706 -31.3365936279297 -0.0601277388632298
vertex 0.313733100891113 -34.1703033447266 0
endloop
endfacet
facet normal 0.707094550132751 0.00587135925889015 -0.707094550132751
outer loop
vertex 0.337205767631531 -36.997142791748 0
vertex 0.247059285640717 -36.9978790283203 -0.0901525989174843
vertex 0.313733100891113 -34.1703033447266 0
endloop
endfacet
facet normal 0.707094609737396 0.00587136019021273 -0.707094609737396
outer loop
vertex 0.238578513264656 -34.1709136962891 -0.0751596763730049
vertex 0.313733100891113 -34.1703033447266 0
vertex 0.247059285640717 -36.9978790283203 -0.0901525989174843
endloop
endfacet
facet normal 0.707094609737396 0.00587136065587401 -0.707094609737396
outer loop
vertex 0.337205767631531 -36.997142791748 0
vertex 0.353507518768311 -38.9603805541992 0
vertex 0.247059285640717 -36.9978790283203 -0.0901525989174843
endloop
endfacet
facet normal 0.707094550132751 0.00587135972455144 -0.707094550132751
outer loop
vertex 0.252949267625809 -38.9612274169922 -0.100565299391747
vertex 0.247059285640717 -36.9978790283203 -0.0901525989174843
vertex 0.353507518768311 -38.9603805541992 0
endloop
endfacet
facet normal 0.707094609737396 0.00587135972455144 -0.707094609737396
outer loop
vertex 0.353507518768311 -38.9603805541992 0
vertex 0.362128555774689 -39.9986228942871 0
vertex 0.252949267625809 -38.9612274169922 -0.100565299391747
endloop
endfacet
facet normal 0.707094609737396 0.00587136019021273 -0.707094609737396
outer loop
vertex 0.256064027547836 -39.9995002746582 -0.106071829795837
vertex 0.252949267625809 -38.9612274169922 -0.100565299391747
vertex 0.362128555774689 -39.9986228942871 0
endloop
endfacet
facet normal 0.21624843776226 0.673241317272186 -0.707094609737396
outer loop
vertex 35.509162902832 -35.2143058776855 -0.166064038872719
vertex 35.4750518798828 -35.3147468566895 -0.27212855219841
vertex 34.5215759277344 -34.8938179016113 -0.162949249148369
endloop
endfacet
facet normal 0.216248422861099 0.673241257667542 -0.707094609737396
outer loop
vertex 34.4892234802246 -34.9890403747559 -0.263507515192032
vertex 34.5215759277344 -34.8938179016113 -0.162949249148369
vertex 35.4750518798828 -35.3147468566895 -0.27212855219841
endloop
endfacet
facet normal 0.21624843776226 0.673241317272186 -0.707094550132751
outer loop
vertex 34.5215759277344 -34.8938179016113 -0.162949249148369
vertex 34.4892234802246 -34.9890403747559 -0.263507515192032
vertex 32.6540756225586 -34.2877807617188 -0.157059282064438
endloop
endfacet
facet normal 0.216248422861099 0.673241317272186 -0.707094550132751
outer loop
vertex 32.6250915527344 -34.3731498718262 -0.247205764055252
vertex 32.6540756225586 -34.2877807617188 -0.157059282064438
vertex 34.4892234802246 -34.9890403747559 -0.263507515192032
endloop
endfacet
facet normal 0.216248407959938 0.673241257667542 -0.707094550132751
outer loop
vertex 32.6250915527344 -34.3731498718262 -0.247205764055252
vertex 29.9409561157227 -33.4863395690918 -0.223733112215996
vertex 32.6540756225586 -34.2877807617188 -0.157059282064438
endloop
endfacet
facet normal 0.216248422861099 0.673241317272186 -0.707094609737396
outer loop
vertex 29.9651145935059 -33.4151649475098 -0.148578509688377
vertex 32.6540756225586 -34.2877807617188 -0.157059282064438
vertex 29.9409561157227 -33.4863395690918 -0.223733112215996
endloop
endfacet
facet normal 0.21624843776226 0.673241317272186 -0.707094609737396
outer loop
vertex 29.9651145935059 -33.4151649475098 -0.148578509688377
vertex 29.9409561157227 -33.4863395690918 -0.223733112215996
vertex 27.2691593170166 -32.5402793884277 -0.140075668692589
endloop
endfacet
facet normal 0.216248422861099 0.673241257667542 -0.707094609737396
outer loop
vertex 27.2498321533203 -32.5972213745117 -0.200199350714684
vertex 27.2691593170166 -32.5402793884277 -0.140075668692589
vertex 29.9409561157227 -33.4863395690918 -0.223733112215996
endloop
endfacet
facet normal 0.216248422861099 0.673241257667542 -0.707094609737396
outer loop
vertex 27.2498321533203 -32.5972213745117 -0.200199350714684
vertex 24.558708190918 -31.7080993652344 -0.17666557431221
vertex 27.2691593170166 -32.5402793884277 -0.140075668692589
endloop
endfacet
facet normal 0.21624843776226 0.673241317272186 -0.707094609737396
outer loop
vertex 24.5732040405273 -31.6653957366943 -0.131572812795639
vertex 27.2691593170166 -32.5402793884277 -0.140075668692589
vertex 24.558708190918 -31.7080993652344 -0.17666557431221
endloop
endfacet
facet normal 0.21624843776226 0.673241317272186 -0.707094609737396
outer loop
vertex 24.5732040405273 -31.6653957366943 -0.131572812795639
vertex 24.558708190918 -31.7080993652344 -0.17666557431221
vertex 21.8772487640381 -30.7905120849609 -0.12306997179985
endloop
endfacet
facet normal 0.216248422861099 0.673241257667542 -0.707094609737396
outer loop
vertex 21.8675842285156 -30.8189811706543 -0.153131812810898
vertex 21.8772487640381 -30.7905120849609 -0.12306997179985
vertex 24.558708190918 -31.7080993652344 -0.17666557431221
endloop
endfacet
facet normal 0.216248422861099 0.673241257667542 -0.707094609737396
outer loop
vertex 21.8675842285156 -30.8189811706543 -0.153131812810898
vertex 19.1764602661133 -29.9298610687256 -0.129598036408424
vertex 21.8772487640381 -30.7905120849609 -0.12306997179985
endloop
endfacet
facet normal 0.216248422861099 0.673241257667542 -0.707094609737396
outer loop
vertex 19.1812934875488 -29.9156265258789 -0.114567123353481
vertex 21.8772487640381 -30.7905120849609 -0.12306997179985
vertex 19.1764602661133 -29.9298610687256 -0.129598036408424
endloop
endfacet
facet normal 0.216248422861099 0.673241257667542 -0.707094609737396
outer loop
vertex 19.1764602661133 -29.9298610687256 -0.129598036408424
vertex 16.4853382110596 -29.0407428741455 -0.106064274907112
vertex 19.1812934875488 -29.9156265258789 -0.114567123353481
endloop
endfacet
endsolid COMSOL mesh mesh1
