solid COMSOL mesh mesh1
facet normal -0.0175781287252903 0.999845564365387 0
outer loop
vertex 0 0 0.150000005960464
vertex 0 0 0
vertex -0.906736612319946 -0.0159411951899529 0.150453433394432
endloop
endfacet
facet normal -0.0175781287252903 0.999845504760742 -1.1637570950784e-17
outer loop
vertex -0.906736612319946 -0.0159411951899529 -0.000453438377007842
vertex -0.906736612319946 -0.0159411951899529 0.150453433394432
vertex 0 0 0
endloop
endfacet
facet normal -0.0175781268626451 0.999845445156097 -1.16375692964228e-17
outer loop
vertex -0.906736612319946 -0.0159411951899529 0.150453433394432
vertex -0.906736612319946 -0.0159411951899529 -0.000453438377007842
vertex -2.24495100975037 -0.0394681356847286 0.151122644543648
endloop
endfacet
facet normal -0.0175781268626451 0.999845504760742 -5.13376511552909e-17
outer loop
vertex -2.24495100975037 -0.0394681356847286 -0.00112264894414693
vertex -2.24495100975037 -0.0394681356847286 0.151122644543648
vertex -0.906736612319946 -0.0159411951899529 -0.000453438377007842
endloop
endfacet
facet normal -0.0175781287252903 0.999845445156097 -1.01360204250631e-16
outer loop
vertex -4.21996545791626 -0.0741905570030212 0.152110308408737
vertex -2.24495100975037 -0.0394681356847286 0.151122644543648
vertex -4.21996545791626 -0.0741905570030212 -0.00211030873470008
endloop
endfacet
facet normal -0.0175781287252903 0.999845504760742 -5.13376577727358e-17
outer loop
vertex -2.24495100975037 -0.0394681356847286 -0.00112264894414693
vertex -4.21996545791626 -0.0741905570030212 -0.00211030873470008
vertex -2.24495100975037 -0.0394681356847286 0.151122644543648
endloop
endfacet
facet normal -0.0175781287252903 0.999845504760742 -1.01360204250631e-16
outer loop
vertex -4.21996545791626 -0.0741905570030212 0.152110308408737
vertex -4.21996545791626 -0.0741905570030212 -0.00211030873470008
vertex -6.94866275787354 -0.122163362801075 0.153474867343903
endloop
endfacet
facet normal -0.0175781287252903 0.999845564365387 4.41425562546189e-17
outer loop
vertex -6.94866275787354 -0.122163362801075 -0.00347486836835742
vertex -6.94866275787354 -0.122163362801075 0.153474867343903
vertex -4.21996545791626 -0.0741905570030212 -0.00211030873470008
endloop
endfacet
facet normal -0.0175781287252903 0.999845504760742 -4.34834455076468e-17
outer loop
vertex -9.77150440216064 -0.171791285276413 0.154886513948441
vertex -6.94866275787354 -0.122163362801075 0.153474867343903
vertex -9.77150440216064 -0.171791285276413 -0.0048865070566535
endloop
endfacet
facet normal -0.0175781287252903 0.999845504760742 4.41425562546189e-17
outer loop
vertex -6.94866275787354 -0.122163362801075 -0.00347486836835742
vertex -9.77150440216064 -0.171791285276413 -0.0048865070566535
vertex -6.94866275787354 -0.122163362801075 0.153474867343903
endloop
endfacet
facet normal -0.0175781287252903 0.999845504760742 -4.34834455076468e-17
outer loop
vertex -9.77150440216064 -0.171791285276413 0.154886513948441
vertex -9.77150440216064 -0.171791285276413 -0.0048865070566535
vertex -12.5943450927734 -0.221419215202332 0.156298145651817
endloop
endfacet
facet normal -0.0175781268626451 0.999845504760742 -8.54568231762413e-17
outer loop
vertex -12.5943450927734 -0.221419215202332 -0.00629814574494958
vertex -12.5943450927734 -0.221419215202332 0.156298145651817
vertex -9.77150440216064 -0.171791285276413 -0.0048865070566535
endloop
endfacet
facet normal -0.0175781287252903 0.999845445156097 6.27780321742097e-17
outer loop
vertex -15.3832387924194 -0.270450323820114 0.157692804932594
vertex -12.5943450927734 -0.221419215202332 0.156298145651817
vertex -15.3832387924194 -0.270450323820114 -0.00769280781969428
endloop
endfacet
facet normal -0.0175781287252903 0.999845504760742 -8.54568231762413e-17
outer loop
vertex -12.5943450927734 -0.221419215202332 -0.00629814574494958
vertex -15.3832387924194 -0.270450323820114 -0.00769280781969428
vertex -12.5943450927734 -0.221419215202332 0.156298145651817
endloop
endfacet
facet normal -0.0175781287252903 0.999845445156097 6.27780321742097e-17
outer loop
vertex -15.3832387924194 -0.270450323820114 0.157692804932594
vertex -15.3832387924194 -0.270450323820114 -0.00769280781969428
vertex -17.5145969390869 -0.307921409606934 0.158758655190468
endloop
endfacet
facet normal -0.0175781287252903 0.999845504760742 -8.29464358962613e-17
outer loop
vertex -17.5145969390869 -0.307921409606934 -0.00875865202397108
vertex -17.5145969390869 -0.307921409606934 0.158758655190468
vertex -15.3832387924194 -0.270450323820114 -0.00769280781969428
endloop
endfacet
facet normal -0.0175781268626451 0.999845504760742 -3.69555630917384e-16
outer loop
vertex -18.9839458465576 -0.333753824234009 0.159493446350098
vertex -17.5145969390869 -0.307921409606934 0.158758655190468
vertex -18.9839458465576 -0.333753824234009 -0.00949344038963318
endloop
endfacet
facet normal -0.0175781268626451 0.999845445156097 -8.29464292788164e-17
outer loop
vertex -17.5145969390869 -0.307921409606934 -0.00875865202397108
vertex -18.9839458465576 -0.333753824234009 -0.00949344038963318
vertex -17.5145969390869 -0.307921409606934 0.158758655190468
endloop
endfacet
facet normal -0.0175781287252903 0.999845504760742 -3.69555683856943e-16
outer loop
vertex -18.9839458465576 -0.333753824234009 0.159493446350098
vertex -18.9839458465576 -0.333753824234009 -0.00949344038963318
vertex -19.9969100952148 -0.351562559604645 0.159999996423721
endloop
endfacet
facet normal -0.0175781287252903 0.999845504760742 0
outer loop
vertex -19.9969100952148 -0.351562559604645 -0.00999999977648258
vertex -19.9969100952148 -0.351562559604645 0.159999996423721
vertex -18.9839458465576 -0.333753824234009 -0.00949344038963318
endloop
endfacet
facet normal 0.000385632709367201 0.00650901161134243 0.999978721141815
outer loop
vertex -18.0035820007324 -2.31699275970459 0.172024577856064
vertex -17.9868774414063 -2.30004739761353 0.17190782725811
vertex -19.9969100952148 -0.351562559604645 0.159999996423721
endloop
endfacet
facet normal 0.000385632709367201 0.00650901161134243 0.999978721141815
outer loop
vertex -16.0102519989014 -4.28242301940918 0.184049144387245
vertex -15.976842880249 -4.24853229522705 0.183815658092499
vertex -18.0035820007324 -2.31699275970459 0.172024577856064
endloop
endfacet
facet normal 0.000385632709367201 0.00650901161134243 0.999978721141815
outer loop
vertex -17.9868774414063 -2.30004739761353 0.17190782725811
vertex -18.0035820007324 -2.31699275970459 0.172024577856064
vertex -15.976842880249 -4.24853229522705 0.183815658092499
endloop
endfacet
facet normal 0.000385632709367201 0.00650901161134243 0.999978721141815
outer loop
vertex -16.0102519989014 -4.28242301940918 0.184049144387245
vertex -14.0169239044189 -6.24785327911377 0.196073710918427
vertex -15.976842880249 -4.24853229522705 0.183815658092499
endloop
endfacet
facet normal 0.000385632709367201 0.00650901207700372 0.999978721141815
outer loop
vertex -13.9668102264404 -6.19701719284058 0.195723488926888
vertex -15.976842880249 -4.24853229522705 0.183815658092499
vertex -14.0169239044189 -6.24785327911377 0.196073710918427
endloop
endfacet
facet normal 0.000385632709367201 0.00650901161134243 0.999978721141815
outer loop
vertex -12.0235948562622 -8.21328353881836 0.208098292350769
vertex -11.9567766189575 -8.1455020904541 0.207631319761276
vertex -14.0169239044189 -6.24785327911377 0.196073710918427
endloop
endfacet
facet normal 0.000385632709367201 0.00650901207700372 0.999978721141815
outer loop
vertex -13.9668102264404 -6.19701719284058 0.195723488926888
vertex -14.0169239044189 -6.24785327911377 0.196073710918427
vertex -11.9567766189575 -8.1455020904541 0.207631319761276
endloop
endfacet
facet normal 0.000385632709367201 0.00650901161134243 0.999978721141815
outer loop
vertex -12.0235948562622 -8.21328353881836 0.208098292350769
vertex -10.0302658081055 -10.1787137985229 0.22012285888195
vertex -11.9567766189575 -8.1455020904541 0.207631319761276
endloop
endfacet
facet normal 0.000385632738471031 0.00650901207700372 0.99997878074646
outer loop
vertex -9.94674301147461 -10.0939874649048 0.219539150595665
vertex -11.9567766189575 -8.1455020904541 0.207631319761276
vertex -10.0302658081055 -10.1787137985229 0.22012285888195
endloop
endfacet
facet normal 0.000385632709367201 0.00650901207700372 0.999978721141815
outer loop
vertex -8.03693771362305 -12.1441440582275 0.232147425413132
vertex -7.93670988082886 -12.0424718856812 0.231446981430054
vertex -10.0302658081055 -10.1787137985229 0.22012285888195
endloop
endfacet
facet normal 0.000385632738471031 0.00650901207700372 0.99997878074646
outer loop
vertex -9.94674301147461 -10.0939874649048 0.219539150595665
vertex -10.0302658081055 -10.1787137985229 0.22012285888195
vertex -7.93670988082886 -12.0424718856812 0.231446981430054
endloop
endfacet
facet normal 0.000385632709367201 0.00650901207700372 0.99997878074646
outer loop
vertex -8.03693771362305 -12.1441440582275 0.232147425413132
vertex -6.56682586669922 -13.5936794281006 0.241015732288361
vertex -7.93670988082886 -12.0424718856812 0.231446981430054
endloop
endfacet
facet normal 0.000385632709367201 0.00650901207700372 0.999978721141815
outer loop
vertex -6.45425510406494 -13.4795331954956 0.240229338407516
vertex -7.93670988082886 -12.0424718856812 0.231446981430054
vertex -6.56682586669922 -13.5936794281006 0.241015732288361
endloop
endfacet
facet normal 0.000385632709367201 0.00650901207700372 0.999978721141815
outer loop
vertex -6.56682586669922 -13.5936794281006 0.241015732288361
vertex -5.75559520721436 -14.3935556411743 0.245909407734871
vertex -6.45425510406494 -13.4795331954956 0.240229338407516
endloop
endfacet
facet normal 0.000385632709367201 0.00650901207700372 0.99997878074646
outer loop
vertex -5.63623428344727 -14.2725057601929 0.245075449347496
vertex -6.45425510406494 -13.4795331954956 0.240229338407516
vertex -5.75559520721436 -14.3935556411743 0.245909407734871
endloop
endfacet
facet normal -0.707127451896667 0.00637160707265139 0.707057416439056
outer loop
vertex -14.1419734954834 -0.248627841472626 -14.141134262085
vertex -13.3364200592041 -0.234465524554253 -13.3356285095215
vertex -14.1416797637939 -0.0786326006054878 -14.1423721313477
endloop
endfacet
facet normal -0.707127511501312 0.00637160707265139 0.707057416439056
outer loop
vertex -13.3361339569092 -0.0741534903645515 -13.3367872238159
vertex -14.1416797637939 -0.0786326006054878 -14.1423721313477
vertex -13.3364200592041 -0.234465524554253 -13.3356285095215
endloop
endfacet
facet normal -0.707127451896667 0.0063716066069901 0.707057416439056
outer loop
vertex -13.3364200592041 -0.234465524554253 -13.3356285095215
vertex -11.8765506744385 -0.208799779415131 -11.8758449554443
vertex -13.3361339569092 -0.0741534903645515 -13.3367872238159
endloop
endfacet
facet normal -0.707127451896667 0.0063716066069901 0.707057416439056
outer loop
vertex -11.876317024231 -0.0660364031791687 -11.8768978118896
vertex -13.3361339569092 -0.0741534903645515 -13.3367872238159
vertex -11.8765506744385 -0.208799779415131 -11.8758449554443
endloop
endfacet
facet normal -0.707127451896667 0.00637160707265139 0.707057416439056
outer loop
vertex -11.876317024231 -0.0660364031791687 -11.8768978118896
vertex -11.8765506744385 -0.208799779415131 -11.8758449554443
vertex -9.89693069458008 -0.0550303347408772 -9.89741516113281
endloop
endfacet
facet normal -0.707127451896667 0.00637160707265139 0.707057416439056
outer loop
vertex -9.89712524414063 -0.173999816179276 -9.89653778076172
vertex -9.89693069458008 -0.0550303347408772 -9.89741516113281
vertex -11.8765506744385 -0.208799779415131 -11.8758449554443
endloop
endfacet
facet normal -0.707127451896667 0.00637160707265139 0.707057416439056
outer loop
vertex -9.89712524414063 -0.173999816179276 -9.89653778076172
vertex -7.91770029067993 -0.13919985294342 -7.91723012924194
vertex -9.89693069458008 -0.0550303347408772 -9.89741516113281
endloop
endfacet
facet normal -0.707127392292023 0.0063716066069901 0.707057356834412
outer loop
vertex -7.9175443649292 -0.0440242663025856 -7.91793203353882
vertex -9.89693069458008 -0.0550303347408772 -9.89741516113281
vertex -7.91770029067993 -0.13919985294342 -7.91723012924194
endloop
endfacet
facet normal -0.707127392292023 0.0063716066069901 0.707057356834412
outer loop
vertex -7.9175443649292 -0.0440242663025856 -7.91793203353882
vertex -7.91770029067993 -0.13919985294342 -7.91723012924194
vertex -5.93815851211548 -0.0330182015895844 -5.93844890594482
endloop
endfacet
facet normal -0.707127451896667 0.00637160707265139 0.707057416439056
outer loop
vertex -5.93827533721924 -0.104399889707565 -5.93792247772217
vertex -5.93815851211548 -0.0330182015895844 -5.93844890594482
vertex -7.91770029067993 -0.13919985294342 -7.91723012924194
endloop
endfacet
facet normal -0.707127451896667 0.00637160707265139 0.707057416439056
outer loop
vertex -5.93827533721924 -0.104399889707565 -5.93792247772217
vertex -3.95885014533997 -0.0695999264717102 -3.95861506462097
vertex -5.93815851211548 -0.0330182015895844 -5.93844890594482
endloop
endfacet
facet normal -0.707127392292023 0.0063716066069901 0.707057356834412
outer loop
vertex -3.9587721824646 -0.0220121331512928 -3.95896601676941
vertex -5.93815851211548 -0.0330182015895844 -5.93844890594482
vertex -3.95885014533997 -0.0695999264717102 -3.95861506462097
endloop
endfacet
facet normal -0.707127392292023 0.0063716066069901 0.707057356834412
outer loop
vertex -3.9587721824646 -0.0220121331512928 -3.95896601676941
vertex -3.95885014533997 -0.0695999264717102 -3.95861506462097
vertex -1.9793860912323 -0.0110060665756464 -1.9794830083847
endloop
endfacet
facet normal -0.707127392292023 0.0063716066069901 0.707057356834412
outer loop
vertex -1.97942507266998 -0.0347999632358551 -1.97930753231049
vertex -1.9793860912323 -0.0110060665756464 -1.9794830083847
vertex -3.95885014533997 -0.0695999264717102 -3.95861506462097
endloop
endfacet
facet normal -0.707127392292023 0.0063716066069901 0.707057356834412
outer loop
vertex -1.9793860912323 -0.0110060665756464 -1.9794830083847
vertex -1.97942507266998 -0.0347999632358551 -1.97930753231049
vertex 0 0 0
endloop
endfacet
facet normal 0.707078039646149 0.00813889130949974 -0.707088708877563
outer loop
vertex 0.000330296985339373 -0.0299981776624918 -1.49997676999192e-05
vertex -0.143872648477554 -0.0322277247905731 -0.144241437315941
vertex 0 0 0
endloop
endfacet
facet normal 0.707078099250793 0.00813889130949974 -0.707088708877563
outer loop
vertex -0.144218668341637 -0.000801905291154981 -0.144225731492043
vertex 0 0 0
vertex -0.143872648477554 -0.0322277247905731 -0.144241437315941
endloop
endfacet
facet normal 0.707078039646149 0.00813889130949974 -0.707088708877563
outer loop
vertex -0.387675434350967 -0.00215560849756002 -0.387694418430328
vertex -0.144218668341637 -0.000801905291154981 -0.144225731492043
vertex -0.387302875518799 -0.035991445183754 -0.387711316347122
endloop
endfacet
facet normal 0.707078039646149 0.00813889130949974 -0.707088649272919
outer loop
vertex -0.143872648477554 -0.0322277247905731 -0.144241437315941
vertex -0.387302875518799 -0.035991445183754 -0.387711316347122
vertex -0.144218668341637 -0.000801905291154981 -0.144225731492043
endloop
endfacet
facet normal 0.707078099250793 0.00813889130949974 -0.707088708877563
outer loop
vertex -0.387675434350967 -0.00215560849756002 -0.387694418430328
vertex -0.387302875518799 -0.035991445183754 -0.387711316347122
vertex -0.79865688085556 -0.00444080680608749 -0.798695981502533
endloop
endfacet
facet normal 0.707077980041504 0.00813889037817717 -0.707088649272919
outer loop
vertex -0.798239529132843 -0.0423450097441673 -0.798714935779572
vertex -0.79865688085556 -0.00444080680608749 -0.798695981502533
vertex -0.387302875518799 -0.035991445183754 -0.387711316347122
endloop
endfacet
facet normal 0.707078039646149 0.00813889130949974 -0.707088708877563
outer loop
vertex -1.49243831634521 -0.0082984697073698 -1.49251127243042
vertex -0.79865688085556 -0.00444080680608749 -0.798695981502533
vertex -1.49194526672363 -0.0530705191195011 -1.49253368377686
endloop
endfacet
facet normal 0.707078099250793 0.00813889130949974 -0.707088708877563
outer loop
vertex -0.798239529132843 -0.0423450097441673 -0.798714935779572
vertex -1.49194526672363 -0.0530705191195011 -1.49253368377686
vertex -0.79865688085556 -0.00444080680608749 -0.798695981502533
endloop
endfacet
facet normal 0.707078039646149 0.00813889130949974 -0.707088708877563
outer loop
vertex -1.49243831634521 -0.0082984697073698 -1.49251127243042
vertex -1.49194526672363 -0.0530705191195011 -1.49253368377686
vertex -2.66361665725708 -0.0148106226697564 -2.66374683380127
endloop
endfacet
facet normal 0.707078039646149 0.00813889130949974 -0.707088708877563
outer loop
vertex -2.6629958152771 -0.0711763426661491 -2.66377520561218
vertex -2.66361665725708 -0.0148106226697564 -2.66374683380127
vertex -1.49194526672363 -0.0530705191195011 -1.49253368377686
endloop
endfacet
facet normal 0.707078039646149 0.00813889037817717 -0.707088708877563
outer loop
vertex -4.54834413528442 -0.0252903550863266 -4.5485668182373
vertex -2.66361665725708 -0.0148106226697564 -2.66374683380127
vertex -4.54751825332642 -0.100313283503056 -4.5486044883728
endloop
endfacet
facet normal 0.707078039646149 0.00813889037817717 -0.707088708877563
outer loop
vertex -2.6629958152771 -0.0711763426661491 -2.66377520561218
vertex -4.54751825332642 -0.100313283503056 -4.5486044883728
vertex -2.66361665725708 -0.0148106226697564 -2.66374683380127
endloop
endfacet
facet normal 0.707078039646149 0.00813889130949974 -0.707088708877563
outer loop
vertex -4.54834413528442 -0.0252903550863266 -4.5485668182373
vertex -4.54751825332642 -0.100313283503056 -4.5486044883728
vertex -6.6056056022644 -0.0367294363677502 -6.60592889785767
endloop
endfacet
facet normal 0.707078039646149 0.00813889130949974 -0.707088649272919
outer loop
vertex -6.60455560684204 -0.132117509841919 -6.60597658157349
vertex -6.6056056022644 -0.0367294363677502 -6.60592889785767
vertex -4.54751825332642 -0.100313283503056 -4.5486044883728
endloop
endfacet
facet normal 0.707078039646149 0.00813889130949974 -0.707088649272919
outer loop
vertex -6.6056056022644 -0.0367294363677502 -6.60592889785767
vertex -6.60455560684204 -0.132117509841919 -6.60597658157349
vertex -8.66286754608154 -0.0481685176491737 -8.66329097747803
endloop
endfacet
facet normal 0.707078099250793 0.00813889130949974 -0.707088708877563
outer loop
vertex -8.66159248352051 -0.163921728730202 -8.66334915161133
vertex -8.66286754608154 -0.0481685176491737 -8.66329097747803
vertex -6.60455560684204 -0.132117509841919 -6.60597658157349
endloop
endfacet
facet normal 0.707078039646149 0.00813889130949974 -0.707088649272919
outer loop
vertex -8.66286754608154 -0.0481685176491737 -8.66329097747803
vertex -8.66159248352051 -0.163921728730202 -8.66334915161133
vertex -10.7134685516357 -0.0595705658197403 -10.7139930725098
endloop
endfacet
facet normal 0.707078039646149 0.00813889130949974 -0.707088649272919
outer loop
vertex -10.7119703292847 -0.195622995495796 -10.7140607833862
vertex -10.7134685516357 -0.0595705658197403 -10.7139930725098
vertex -8.66159248352051 -0.163921728730202 -8.66334915161133
endloop
endfacet
facet normal 0.707077980041504 0.00813889130949974 -0.707088649272919
outer loop
vertex -12.3248748779297 -0.0685305371880531 -12.3254776000977
vertex -10.7134685516357 -0.0595705658197403 -10.7139930725098
vertex -12.3232011795044 -0.220534518361092 -12.325553894043
endloop
endfacet
facet normal 0.707077980041504 0.00813889037817717 -0.707088649272919
outer loop
vertex -10.7119703292847 -0.195622995495796 -10.7140607833862
vertex -12.3232011795044 -0.220534518361092 -12.325553894043
vertex -10.7134685516357 -0.0595705658197403 -10.7139930725098
endloop
endfacet
facet normal 0.707078039646149 0.00813889130949974 -0.707088649272919
outer loop
vertex -13.4104433059692 -0.0745666697621346 -13.4110994338989
vertex -12.3248748779297 -0.0685305371880531 -12.3254776000977
vertex -13.4086513519287 -0.237316861748695 -13.4111814498901
endloop
endfacet
facet normal 0.707078099250793 0.00813889130949974 -0.707088649272919
outer loop
vertex -12.3232011795044 -0.220534518361092 -12.325553894043
vertex -13.4086513519287 -0.237316861748695 -13.4111814498901
vertex -12.3248748779297 -0.0685305371880531 -12.3254776000977
endloop
endfacet
facet normal 0.707078039646149 0.00813889130949974 -0.707088708877563
outer loop
vertex -13.4104433059692 -0.0745666697621346 -13.4110994338989
vertex -13.4086513519287 -0.237316861748695 -13.4111814498901
vertex -14.1417665481567 -0.0786330848932266 -14.1424589157104
endloop
endfacet
facet normal 0.707078039646149 0.00813889130949974 -0.707088708877563
outer loop
vertex -14.1398954391479 -0.248622760176659 -14.1425437927246
vertex -14.1417665481567 -0.0786330848932266 -14.1424589157104
vertex -13.4086513519287 -0.237316861748695 -13.4111814498901
endloop
endfacet
facet normal -0.318368822336197 -0.947966933250427 0
outer loop
vertex -2.5391902923584 -22.9035205841064 0.0599999986588955
vertex -2.34584164619446 -22.9684562683105 0.0592861361801624
vertex -2.5391902923584 -22.9035205841064 0.0900000035762787
endloop
endfacet
facet normal -0.318368822336197 -0.947966933250427 -4.01655352857619e-13
outer loop
vertex -2.34584164619446 -22.9684562683105 0.0907138660550117
vertex -2.5391902923584 -22.9035205841064 0.0900000035762787
vertex -2.34584164619446 -22.9684562683105 0.0592861361801624
endloop
endfacet
facet normal -0.318368792533875 -0.947966933250427 -2.56804533150731e-13
outer loop
vertex -2.01944828033447 -23.0780735015869 0.0580810531973839
vertex -2.01944828033447 -23.0780735015869 0.0919189453125
vertex -2.34584164619446 -22.9684562683105 0.0592861361801624
endloop
endfacet
facet normal -0.318368822336197 -0.947966992855072 -4.01655352857619e-13
outer loop
vertex -2.34584164619446 -22.9684562683105 0.0907138660550117
vertex -2.34584164619446 -22.9684562683105 0.0592861361801624
vertex -2.01944828033447 -23.0780735015869 0.0919189453125
endloop
endfacet
facet normal -0.318368822336197 -0.947966933250427 -2.56804533150731e-13
outer loop
vertex -2.01944828033447 -23.0780735015869 0.0580810531973839
vertex -1.46846079826355 -23.2631187438965 0.0560467466711998
vertex -2.01944828033447 -23.0780735015869 0.0919189453125
endloop
endfacet
facet normal -0.318368792533875 -0.947966933250427 -3.10342673597291e-14
outer loop
vertex -1.46846079826355 -23.2631187438965 0.0939532518386841
vertex -2.01944828033447 -23.0780735015869 0.0919189453125
vertex -1.46846079826355 -23.2631187438965 0.0560467466711998
endloop
endfacet
facet normal -0.318368822336197 -0.947966933250427 -1.91689722363504e-14
outer loop
vertex -0.538334012031555 -23.575496673584 0.0526126138865948
vertex -0.538334012031555 -23.575496673584 0.0973873883485794
vertex -1.46846079826355 -23.2631187438965 0.0560467466711998
endloop
endfacet
facet normal -0.318368822336197 -0.947966992855072 -3.10342707478609e-14
outer loop
vertex -1.46846079826355 -23.2631187438965 0.0939532518386841
vertex -1.46846079826355 -23.2631187438965 0.0560467466711998
vertex -0.538334012031555 -23.575496673584 0.0973873883485794
endloop
endfacet
facet normal -0.318368822336197 -0.947966933250427 -1.91689739304163e-14
outer loop
vertex -0.538334012031555 -23.575496673584 0.0526126138865948
vertex 1.03182089328766 -24.1028232574463 0.046815425157547
vertex -0.538334012031555 -23.575496673584 0.0973873883485794
endloop
endfacet
facet normal -0.318368822336197 -0.947966933250427 -1.03868778880104e-14
outer loop
vertex 1.03182089328766 -24.1028232574463 0.103184573352337
vertex -0.538334012031555 -23.575496673584 0.0973873883485794
vertex 1.03182089328766 -24.1028232574463 0.046815425157547
endloop
endfacet
facet normal -0.318368822336197 -0.947966933250427 -1.2082898522803e-15
outer loop
vertex 3.55860495567322 -24.9514274597168 0.0374862588942051
vertex 3.55860495567322 -24.9514274597168 0.112513743340969
vertex 1.03182089328766 -24.1028232574463 0.046815425157547
endloop
endfacet
facet normal -0.318368762731552 -0.947966873645782 -1.03868778880104e-14
outer loop
vertex 1.03182089328766 -24.1028232574463 0.103184573352337
vertex 1.03182089328766 -24.1028232574463 0.046815425157547
vertex 3.55860495567322 -24.9514274597168 0.112513743340969
endloop
endfacet
facet normal -0.318368792533875 -0.947966933250427 -1.20828974640118e-15
outer loop
vertex 3.55860495567322 -24.9514274597168 0.0374862588942051
vertex 6.31669855117798 -25.8777160644531 0.0273030661046505
vertex 3.55860495567322 -24.9514274597168 0.112513743340969
endloop
endfacet
facet normal -0.318368852138519 -0.947966933250427 -2.31819670068207e-14
outer loop
vertex 6.31669855117798 -25.8777160644531 0.122696936130524
vertex 3.55860495567322 -24.9514274597168 0.112513743340969
vertex 6.31669855117798 -25.8777160644531 0.0273030661046505
endloop
endfacet
facet normal -0.318368852138519 -0.947966933250427 -2.31819670068207e-14
outer loop
vertex 6.31669855117798 -25.8777160644531 0.0273030661046505
vertex 9.07479286193848 -26.8040046691895 0.0171198751777411
vertex 6.31669855117798 -25.8777160644531 0.122696936130524
endloop
endfacet
facet normal -0.318368822336197 -0.947966933250427 1.4875352062323e-14
outer loop
vertex 9.07479286193848 -26.8040046691895 0.132880121469498
vertex 6.31669855117798 -25.8777160644531 0.122696936130524
vertex 9.07479286193848 -26.8040046691895 0.0171198751777411
endloop
endfacet
facet normal -0.318368792533875 -0.947966933250427 1.4875352062323e-14
outer loop
vertex 9.07479286193848 -26.8040046691895 0.0171198751777411
vertex 11.8239574432373 -27.727294921875 0.0069696526043117
vertex 9.07479286193848 -26.8040046691895 0.132880121469498
endloop
endfacet
facet normal -0.318368822336197 -0.947966933250427 4.15650248052589e-14
outer loop
vertex 11.8239574432373 -27.727294921875 0.143030345439911
vertex 9.07479286193848 -26.8040046691895 0.132880121469498
vertex 11.8239574432373 -27.727294921875 0.0069696526043117
endloop
endfacet
facet normal -0.318368792533875 -0.947966933250427 5.91912789941161e-14
outer loop
vertex 13.9843082427979 -28.4528350830078 -0.00100660743191838
vertex 13.9843082427979 -28.4528350830078 0.151006609201431
vertex 11.8239574432373 -27.727294921875 0.0069696526043117
endloop
endfacet
facet normal -0.318368822336197 -0.947966933250427 4.15650248052589e-14
outer loop
vertex 11.8239574432373 -27.727294921875 0.143030345439911
vertex 11.8239574432373 -27.727294921875 0.0069696526043117
vertex 13.9843082427979 -28.4528350830078 0.151006609201431
endloop
endfacet
facet normal -0.318368822336197 -0.947966933250427 -3.09602976665112e-14
outer loop
vertex 15.4396896362305 -28.9416160583496 -0.00638003833591938
vertex 15.4396896362305 -28.9416160583496 0.156380042433739
vertex 13.9843082427979 -28.4528350830078 -0.00100660743191838
endloop
endfacet
facet normal -0.318368822336197 -0.947966933250427 5.91912789941161e-14
outer loop
vertex 13.9843082427979 -28.4528350830078 0.151006609201431
vertex 13.9843082427979 -28.4528350830078 -0.00100660743191838
vertex 15.4396896362305 -28.9416160583496 0.156380042433739
endloop
endfacet
facet normal -0.318368822336197 -0.947966933250427 -3.09602976665112e-14
outer loop
vertex 15.4396896362305 -28.9416160583496 -0.00638003833591938
vertex 16.4201488494873 -29.2708969116211 -0.00999999977648258
vertex 15.4396896362305 -28.9416160583496 0.156380042433739
endloop
endfacet
facet normal -0.318368822336197 -0.947966933250427 -0
outer loop
vertex 16.4201488494873 -29.2708969116211 0.159999996423721
vertex 15.4396896362305 -28.9416160583496 0.156380042433739
vertex 16.4201488494873 -29.2708969116211 -0.00999999977648258
endloop
endfacet
facet normal 0.00903475191444159 -0.00296895322389901 0.999954760074615
outer loop
vertex -2.5391902923584 -22.9035205841064 0.0599999986588955
vertex -1.67782020568848 -23.1870574951172 0.051375538110733
vertex -2.49236178398132 -22.7610187530518 0.0599999986588955
endloop
endfacet
facet normal 0.00903475284576416 -0.00296895322389901 0.99995481967926
outer loop
vertex -1.63070845603943 -23.0436935424805 0.051375538110733
vertex -2.49236178398132 -22.7610187530518 0.0599999986588955
vertex -1.67782020568848 -23.1870574951172 0.051375538110733
endloop
endfacet
facet normal 0.00903475284576416 -0.00296895322389901 0.99995481967926
outer loop
vertex -1.63070845603943 -23.0436935424805 0.051375538110733
vertex -1.67782020568848 -23.1870574951172 0.051375538110733
vertex -0.359030723571777 -23.460880279541 0.0386470593512058
endloop
endfacet
facet normal 0.00903475191444159 -0.00296895299106836 0.99995481967926
outer loop
vertex -0.406560271978378 -23.6055164337158 0.0386470593512058
vertex -0.359030723571777 -23.460880279541 0.0386470593512058
vertex -1.67782020568848 -23.1870574951172 0.051375538110733
endloop
endfacet
facet normal 0.00903475191444159 -0.00296895299106836 0.99995481967926
outer loop
vertex 1.51778495311737 -24.0765895843506 0.0198616310954094
vertex -0.359030723571777 -23.460880279541 0.0386470593512058
vertex 1.46963882446289 -24.2231025695801 0.0198616310954094
endloop
endfacet
facet normal 0.00903475284576416 -0.00296895322389901 0.99995481967926
outer loop
vertex -0.406560271978378 -23.6055164337158 0.0386470593512058
vertex 1.46963882446289 -24.2231025695801 0.0198616310954094
vertex -0.359030723571777 -23.460880279541 0.0386470593512058
endloop
endfacet
facet normal 0.00903475284576416 -0.00296895299106836 0.99995481967926
outer loop
vertex 1.51778495311737 -24.0765895843506 0.0198616310954094
vertex 1.46963882446289 -24.2231025695801 0.0198616310954094
vertex 4.11081027984619 -24.9272594451904 -0.00609248271211982
endloop
endfacet
facet normal 0.00903475191444159 -0.00296895299106836 0.999954760074615
outer loop
vertex 4.06181192398071 -25.0763664245605 -0.00609248271211982
vertex 4.11081027984619 -24.9272594451904 -0.00609248271211982
vertex 1.46963882446289 -24.2231025695801 0.0198616310954094
endloop
endfacet
facet normal 0.00903475284576416 -0.00296895322389901 0.99995481967926
outer loop
vertex 6.79329824447632 -25.807279586792 -0.0329420454800129
vertex 4.11081027984619 -24.9272594451904 -0.00609248271211982
vertex 6.74341869354248 -25.9590663909912 -0.0329420454800129
endloop
endfacet
facet normal 0.00903475098311901 -0.00296895299106836 0.999954760074615
outer loop
vertex 4.06181192398071 -25.0763664245605 -0.00609248271211982
vertex 6.74341869354248 -25.9590663909912 -0.0329420454800129
vertex 4.11081027984619 -24.9272594451904 -0.00609248271211982
endloop
endfacet
facet normal 0.00903475284576416 -0.00296895322389901 0.99995481967926
outer loop
vertex 6.79329824447632 -25.807279586792 -0.0329420454800129
vertex 6.74341869354248 -25.9590663909912 -0.0329420454800129
vertex 9.47578620910645 -26.6872997283936 -0.0597916096448898
endloop
endfacet
facet normal 0.00903475191444159 -0.00296895275823772 0.999954760074615
outer loop
vertex 9.42502498626709 -26.8417682647705 -0.0597916096448898
vertex 9.47578620910645 -26.6872997283936 -0.0597916096448898
vertex 6.74341869354248 -25.9590663909912 -0.0329420454800129
endloop
endfacet
facet normal 0.00903475191444159 -0.00296895299106836 0.999954760074615
outer loop
vertex 12.1260147094727 -27.556734085083 -0.0863182842731476
vertex 9.47578620910645 -26.6872997283936 -0.0597916096448898
vertex 12.0743827819824 -27.7138538360596 -0.0863182842731476
endloop
endfacet
facet normal 0.00903475284576416 -0.00296895299106836 0.99995481967926
outer loop
vertex 9.42502498626709 -26.8417682647705 -0.0597916096448898
vertex 12.0743827819824 -27.7138538360596 -0.0863182842731476
vertex 9.47578620910645 -26.6872997283936 -0.0597916096448898
endloop
endfacet
facet normal 0.00903475191444159 -0.00296895299106836 0.999954760074615
outer loop
vertex 12.1260147094727 -27.556734085083 -0.0863182842731476
vertex 12.0743827819824 -27.7138538360596 -0.0863182842731476
vertex 14.1514015197754 -28.2211856842041 -0.106590785086155
endloop
endfacet
facet normal 0.00903475191444159 -0.00296895299106836 0.999954760074615
outer loop
vertex 14.0991039276123 -28.3803291320801 -0.106590785086155
vertex 14.1514015197754 -28.2211856842041 -0.106590785086155
vertex 12.0743827819824 -27.7138538360596 -0.0863182842731476
endloop
endfacet
facet normal 0.00903475191444159 -0.00296895299106836 0.999954760074615
outer loop
vertex 15.4949378967285 -28.8397941589355 -0.120566561818123
vertex 15.5476932525635 -28.6792545318604 -0.120566561818123
vertex 14.0991039276123 -28.3803291320801 -0.106590785086155
endloop
endfacet
facet normal 0.00903475191444159 -0.00296895299106836 0.999954760074615
outer loop
vertex 14.1514015197754 -28.2211856842041 -0.106590785086155
vertex 14.0991039276123 -28.3803291320801 -0.106590785086155
vertex 15.5476932525635 -28.6792545318604 -0.120566561818123
endloop
endfacet
facet normal 0.00903475284576416 -0.00296895322389901 0.99995481967926
outer loop
vertex 15.4949378967285 -28.8397941589355 -0.120566561818123
vertex 16.4572200775146 -29.1565475463867 -0.130201399326324
vertex 15.5476932525635 -28.6792545318604 -0.120566561818123
endloop
endfacet
facet normal 0.00903475284576416 -0.00296895299106836 0.999954760074615
outer loop
vertex 16.5102920532227 -28.995044708252 -0.130201399326324
vertex 15.5476932525635 -28.6792545318604 -0.120566561818123
vertex 16.4572200775146 -29.1565475463867 -0.130201399326324
endloop
endfacet
facet normal -0.227470979094505 -0.669538617134094 -0.707089066505432
outer loop
vertex 16.4579029083252 -29.1567707061768 -0.130209624767303
vertex 16.4200325012207 -29.2708587646484 -0.0099980877712369
vertex 15.3757810592651 -28.8005695343018 -0.119374804198742
endloop
endfacet
facet normal -0.227470979094505 -0.669538617134094 -0.707089006900787
outer loop
vertex 15.3400545120239 -28.9081535339355 -0.0060107740573585
vertex 15.3757810592651 -28.8005695343018 -0.119374804198742
vertex 16.4200325012207 -29.2708587646484 -0.0099980877712369
endloop
endfacet
facet normal -0.227470993995667 -0.669538676738739 -0.707089066505432
outer loop
vertex 15.3757810592651 -28.8005695343018 -0.119374804198742
vertex 15.3400545120239 -28.9081535339355 -0.0060107740573585
vertex 13.4147071838379 -28.1550464630127 -0.0997394323348999
endloop
endfacet
facet normal -0.227471008896828 -0.669538676738739 -0.707089066505432
outer loop
vertex 13.3829202651978 -28.250862121582 0.00121503241825849
vertex 13.4147071838379 -28.1550464630127 -0.0997394323348999
vertex 15.3400545120239 -28.9081535339355 -0.0060107740573585
endloop
endfacet
facet normal -0.227470993995667 -0.669538617134094 -0.707089066505432
outer loop
vertex 13.3829202651978 -28.250862121582 0.00121503241825849
vertex 10.7292346954346 -27.35964012146 0.0110125271603465
vertex 13.4147071838379 -28.1550464630127 -0.0997394323348999
endloop
endfacet
facet normal -0.227470993995667 -0.669538617134094 -0.707089066505432
outer loop
vertex 10.7557249069214 -27.2797927856445 -0.0731161907315254
vertex 13.4147071838379 -28.1550464630127 -0.0997394323348999
vertex 10.7292346954346 -27.35964012146 0.0110125271603465
endloop
endfacet
facet normal -0.227470993995667 -0.669538617134094 -0.707089066505432
outer loop
vertex 10.7557249069214 -27.2797927856445 -0.0731161907315254
vertex 10.7292346954346 -27.35964012146 0.0110125271603465
vertex 8.09674167633057 -26.4045372009277 -0.0464929528534412
endloop
endfacet
facet normal -0.227470993995667 -0.669538617134094 -0.707089066505432
outer loop
vertex 8.0755500793457 -26.4684162139893 0.0208100210875273
vertex 8.09674167633057 -26.4045372009277 -0.0464929528534412
vertex 10.7292346954346 -27.35964012146 0.0110125271603465
endloop
endfacet
facet normal -0.227470993995667 -0.669538617134094 -0.707089066505432
outer loop
vertex 8.0755500793457 -26.4684162139893 0.0208100210875273
vertex 5.42186498641968 -25.5771923065186 0.0306075159460306
vertex 8.09674167633057 -26.4045372009277 -0.0464929528534412
endloop
endfacet
facet normal -0.227470993995667 -0.669538617134094 -0.707089066505432
outer loop
vertex 5.43775844573975 -25.5292835235596 -0.0198697149753571
vertex 8.09674167633057 -26.4045372009277 -0.0464929528534412
vertex 5.42186498641968 -25.5771923065186 0.0306075159460306
endloop
endfacet
facet normal -0.227470993995667 -0.669538617134094 -0.707089066505432
outer loop
vertex 5.43775844573975 -25.5292835235596 -0.0198697149753571
vertex 5.42186498641968 -25.5771923065186 0.0306075159460306
vertex 2.77877569198608 -24.6540298461914 0.00675352336838841
endloop
endfacet
facet normal -0.227470993995667 -0.669538617134094 -0.707089066505432
outer loop
vertex 2.76817989349365 -24.6859683990479 0.0404050126671791
vertex 2.77877569198608 -24.6540298461914 0.00675352336838841
vertex 5.42186498641968 -25.5771923065186 0.0306075159460306
endloop
endfacet
facet normal -0.227470993995667 -0.669538617134094 -0.707089066505432
outer loop
vertex 2.76817989349365 -24.6859683990479 0.0404050126671791
vertex 0.114494785666466 -23.7947444915771 0.0502025038003922
vertex 2.77877569198608 -24.6540298461914 0.00675352336838841
endloop
endfacet
facet normal -0.227470993995667 -0.669538617134094 -0.707089066505432
outer loop
vertex 0.119792707264423 -23.7787761688232 0.0333767607808113
vertex 2.77877569198608 -24.6540298461914 0.00675352336838841
vertex 0.114494785666466 -23.7947444915771 0.0502025038003922
endloop
endfacet
facet normal -0.227470993995667 -0.669538617134094 -0.707089066505432
outer loop
vertex 0.114494785666466 -23.7947444915771 0.0502025038003922
vertex -2.5391902923584 -22.9035205841064 0.0599999986588955
vertex 0.119792707264423 -23.7787761688232 0.0333767607808113
endloop
endfacet
facet normal -0.949872732162476 0.312142223119736 0.0175781287252903
outer loop
vertex -2.15524840354919 -22.8612728118896 20.0869102478027
vertex -2.17232537269592 -22.8561935424805 19.0739459991455
vertex -2.20832085609436 -23.0227756500244 20.0869102478027
endloop
endfacet
facet normal -0.949872732162476 0.312142193317413 0.0175781268626451
outer loop
vertex -2.22508144378662 -23.0167350769043 19.0739459991455
vertex -2.20832085609436 -23.0227756500244 20.0869102478027
vertex -2.17232537269592 -22.8561935424805 19.0739459991455
endloop
endfacet
facet normal -0.94987279176712 0.312142223119736 0.0175781287252903
outer loop
vertex -2.22508144378662 -23.0167350769043 19.0739459991455
vertex -2.17232537269592 -22.8561935424805 19.0739459991455
vertex -2.24939322471619 -23.0079727172852 17.6045970916748
endloop
endfacet
facet normal -0.94987279176712 0.312142223119736 0.0175781287252903
outer loop
vertex -2.19709587097168 -22.8488273620605 17.6045970916748
vertex -2.24939322471619 -23.0079727172852 17.6045970916748
vertex -2.17232537269592 -22.8561935424805 19.0739459991455
endloop
endfacet
facet normal -0.949872732162476 0.312142223119736 0.0175781268626451
outer loop
vertex -2.24939322471619 -23.0079727172852 17.6045970916748
vertex -2.19709587097168 -22.8488273620605 17.6045970916748
vertex -2.28465890884399 -22.9952621459961 15.4732389450073
endloop
endfacet
facet normal -0.949872732162476 0.312142223119736 0.0175781287252903
outer loop
vertex -2.23302698135376 -22.8381423950195 15.4732389450073
vertex -2.28465890884399 -22.9952621459961 15.4732389450073
vertex -2.19709587097168 -22.8488273620605 17.6045970916748
endloop
endfacet
facet normal -0.949872732162476 0.312142223119736 0.0175781287252903
outer loop
vertex -2.23302698135376 -22.8381423950195 15.4732389450073
vertex -2.28004288673401 -22.8241596221924 12.6843452453613
vertex -2.28465890884399 -22.9952621459961 15.4732389450073
endloop
endfacet
facet normal -0.949872732162476 0.312142223119736 0.0175781287252903
outer loop
vertex -2.33080387115479 -22.978630065918 12.6843452453613
vertex -2.28465890884399 -22.9952621459961 15.4732389450073
vertex -2.28004288673401 -22.8241596221924 12.6843452453613
endloop
endfacet
facet normal -0.949872732162476 0.312142193317413 0.0175781268626451
outer loop
vertex -2.33080387115479 -22.978630065918 12.6843452453613
vertex -2.28004288673401 -22.8241596221924 12.6843452453613
vertex -2.37751078605652 -22.9617958068848 9.86150360107422
endloop
endfacet
facet normal -0.949872732162476 0.312142193317413 0.0175781268626451
outer loop
vertex -2.3276309967041 -22.8100070953369 9.86150360107422
vertex -2.37751078605652 -22.9617958068848 9.86150360107422
vertex -2.28004288673401 -22.8241596221924 12.6843452453613
endloop
endfacet
facet normal -0.949872732162476 0.312142193317413 0.0175781268626451
outer loop
vertex -2.3276309967041 -22.8100070953369 9.86150360107422
vertex -2.37521934509277 -22.7958545684814 7.03866291046143
vertex -2.37751078605652 -22.9617958068848 9.86150360107422
endloop
endfacet
facet normal -0.949872732162476 0.312142193317413 0.0175781268626451
outer loop
vertex -2.42421746253967 -22.9449596405029 7.03866291046143
vertex -2.37751078605652 -22.9617958068848 9.86150360107422
vertex -2.37521934509277 -22.7958545684814 7.03866291046143
endloop
endfacet
facet normal -0.94987279176712 0.312142252922058 0.0175781287252903
outer loop
vertex -2.42421746253967 -22.9449596405029 7.03866291046143
vertex -2.37521934509277 -22.7958545684814 7.03866291046143
vertex -2.46936655044556 -22.9286880493164 4.30996561050415
endloop
endfacet
facet normal -0.94987279176712 0.312142223119736 0.0175781287252903
outer loop
vertex -2.42122030258179 -22.7821750640869 4.30996561050415
vertex -2.46936655044556 -22.9286880493164 4.30996561050415
vertex -2.37521934509277 -22.7958545684814 7.03866291046143
endloop
endfacet
facet normal -0.949872672557831 0.312142223119736 0.0175781287252903
outer loop
vertex -2.42122030258179 -22.7821750640869 4.30996561050415
vertex -2.4545156955719 -22.772274017334 2.33495116233826
vertex -2.46936655044556 -22.9286880493164 4.30996561050415
endloop
endfacet
facet normal -0.949872732162476 0.312142193317413 0.0175781268626451
outer loop
vertex -2.50204515457153 -22.9169082641602 2.33495116233826
vertex -2.46936655044556 -22.9286880493164 4.30996561050415
vertex -2.4545156955719 -22.772274017334 2.33495116233826
endloop
endfacet
facet normal -0.94987279176712 0.312142223119736 0.0175781268626451
outer loop
vertex -2.50204515457153 -22.9169082641602 2.33495116233826
vertex -2.4545156955719 -22.772274017334 2.33495116233826
vertex -2.52418732643127 -22.9089279174805 0.996736645698547
endloop
endfacet
facet normal -0.949872732162476 0.312142223119736 0.0175781268626451
outer loop
vertex -2.47707581520081 -22.7655639648438 0.996736645698547
vertex -2.52418732643127 -22.9089279174805 0.996736645698547
vertex -2.4545156955719 -22.772274017334 2.33495116233826
endloop
endfacet
facet normal -0.949872672557831 0.312142193317413 0.0175781268626451
outer loop
vertex -2.47707581520081 -22.7655639648438 0.996736645698547
vertex -2.49236178398132 -22.7610187530518 0.0900000035762787
vertex -2.52418732643127 -22.9089279174805 0.996736645698547
endloop
endfacet
facet normal -0.949872851371765 0.312142223119736 0.0175781287252903
outer loop
vertex -2.5391902923584 -22.9035205841064 0.0900000035762787
vertex -2.52418732643127 -22.9089279174805 0.996736645698547
vertex -2.49236178398132 -22.7610187530518 0.0900000035762787
endloop
endfacet
facet normal 0.213014230132103 0.674288988113403 -0.707078039646149
outer loop
vertex 2.15900206565857 -9.4029426574707 14.2298946380615
vertex 1.9199366569519 -10.0942220687866 13.4986515045166
vertex 1.99748194217682 -9.34995460510254 14.2317667007446
endloop
endfacet
facet normal 0.213014230132103 0.674288988113403 -0.707078039646149
outer loop
vertex 1.76529538631439 -10.0434904098511 13.5004434585571
vertex 1.99748194217682 -9.34995460510254 14.2317667007446
vertex 1.9199366569519 -10.0942220687866 13.4986515045166
endloop
endfacet
facet normal 0.213014230132103 0.674288928508759 -0.707078039646149
outer loop
vertex 1.76529538631439 -10.0434904098511 13.5004434585571
vertex 1.9199366569519 -10.0942220687866 13.4986515045166
vertex 1.42064023017883 -11.0729675292969 12.4148740768433
endloop
endfacet
facet normal 0.213014215230942 0.674288928508759 -0.707078039646149
outer loop
vertex 1.56507062911987 -11.1203498840332 12.413200378418
vertex 1.42064023017883 -11.0729675292969 12.4148740768433
vertex 1.9199366569519 -10.0942220687866 13.4986515045166
endloop
endfacet
facet normal 0.213014230132103 0.674288928508759 -0.707077980041504
outer loop
vertex 1.42064023017883 -11.0729675292969 12.4148740768433
vertex 1.56507062911987 -11.1203498840332 12.413200378418
vertex 0.909037888050079 -12.6011123657227 10.8034687042236
endloop
endfacet
facet normal 0.213014245033264 0.674288928508759 -0.707078039646149
outer loop
vertex 1.03831160068512 -12.6435222625732 10.8019704818726
vertex 0.909037888050079 -12.6011123657227 10.8034687042236
vertex 1.56507062911987 -11.1203498840332 12.413200378418
endloop
endfacet
facet normal 0.213014230132103 0.674288988113403 -0.707078039646149
outer loop
vertex 1.03831160068512 -12.6435222625732 10.8019704818726
vertex 0.367982089519501 -14.581841468811 8.7515926361084
vertex 0.909037888050079 -12.6011123657227 10.8034687042236
endloop
endfacet
facet normal 0.213014230132103 0.674288988113403 -0.707078039646149
outer loop
vertex 0.25799623131752 -14.5457601547241 8.75286769866943
vertex 0.909037888050079 -12.6011123657227 10.8034687042236
vertex 0.367982089519501 -14.581841468811 8.7515926361084
endloop
endfacet
facet normal 0.213014230132103 0.674288928508759 -0.707078099250793
outer loop
vertex 0.367982089519501 -14.581841468811 8.7515926361084
vertex -0.304524570703506 -16.5264568328857 6.69455528259277
vertex 0.25799623131752 -14.5457601547241 8.75286769866943
endloop
endfacet
facet normal 0.213014215230942 0.674288928508759 -0.707078039646149
outer loop
vertex -0.395160019397736 -16.4967231750488 6.69560575485229
vertex 0.25799623131752 -14.5457601547241 8.75286769866943
vertex -0.304524570703506 -16.5264568328857 6.69455528259277
endloop
endfacet
facet normal 0.213014215230942 0.674288928508759 -0.707078039646149
outer loop
vertex -0.304524570703506 -16.5264568328857 6.69455528259277
vertex -0.977031290531158 -18.4710712432861 4.63751792907715
vertex -0.395160019397736 -16.4967231750488 6.69560575485229
endloop
endfacet
facet normal 0.213014245033264 0.674288988113403 -0.707078039646149
outer loop
vertex -1.04831624031067 -18.4476852416992 4.63834428787231
vertex -0.395160019397736 -16.4967231750488 6.69560575485229
vertex -0.977031290531158 -18.4710712432861 4.63751792907715
endloop
endfacet
facet normal 0.213014230132103 0.674288928508759 -0.707078039646149
outer loop
vertex -1.04831624031067 -18.4476852416992 4.63834428787231
vertex -0.977031290531158 -18.4710712432861 4.63751792907715
vertex -1.64669489860535 -20.2350311279297 2.75361657142639
endloop
endfacet
facet normal 0.213014245033264 0.674288928508759 -0.707078039646149
outer loop
vertex -1.59313762187958 -20.2525997161865 2.75299596786499
vertex -1.64669489860535 -20.2350311279297 2.75361657142639
vertex -0.977031290531158 -18.4710712432861 4.63751792907715
endloop
endfacet
facet normal 0.213014245033264 0.674288988113403 -0.707078039646149
outer loop
vertex -1.59313762187958 -20.2525997161865 2.75299596786499
vertex -1.97598886489868 -21.3596496582031 1.58194530010223
vertex -1.64669489860535 -20.2350311279297 2.75361657142639
endloop
endfacet
facet normal 0.213014230132103 0.674288928508759 -0.707078039646149
outer loop
vertex -2.01853013038635 -21.3456935882568 1.58243823051453
vertex -1.64669489860535 -20.2350311279297 2.75361657142639
vertex -1.97598886489868 -21.3596496582031 1.58194530010223
endloop
endfacet
facet normal 0.213014230132103 0.674288928508759 -0.707078039646149
outer loop
vertex -2.01853013038635 -21.3456935882568 1.58243823051453
vertex -1.97598886489868 -21.3596496582031 1.58194530010223
vertex -2.23879766464233 -22.0036277770996 0.888656914234161
endloop
endfacet
facet normal 0.213014230132103 0.674288988113403 -0.707078099250793
outer loop
vertex -2.20278191566467 -22.0154438018799 0.888239562511444
vertex -2.23879766464233 -22.0036277770996 0.888656914234161
vertex -1.97598886489868 -21.3596496582031 1.58194530010223
endloop
endfacet
facet normal 0.213014230132103 0.674288928508759 -0.707077980041504
outer loop
vertex -2.20278191566467 -22.0154438018799 0.888239562511444
vertex -2.33712935447693 -22.4039211273193 0.477302879095078
vertex -2.23879766464233 -22.0036277770996 0.888656914234161
endloop
endfacet
facet normal 0.213014230132103 0.674288928508759 -0.707078099250793
outer loop
vertex -2.36927938461304 -22.3933734893799 0.477675437927246
vertex -2.23879766464233 -22.0036277770996 0.888656914234161
vertex -2.33712935447693 -22.4039211273193 0.477302879095078
endloop
endfacet
facet normal 0.213014245033264 0.674288988113403 -0.707078039646149
outer loop
vertex -2.36927938461304 -22.3933734893799 0.477675437927246
vertex -2.33712935447693 -22.4039211273193 0.477302879095078
vertex -2.44657397270203 -22.6242504119873 0.234218657016754
endloop
endfacet
facet normal 0.213014230132103 0.674288928508759 -0.707078039646149
outer loop
vertex -2.41671395301819 -22.6340465545654 0.233872652053833
vertex -2.44657397270203 -22.6242504119873 0.234218657016754
vertex -2.33712935447693 -22.4039211273193 0.477302879095078
endloop
endfacet
facet normal 0.213014230132103 0.674288928508759 -0.707078039646149
outer loop
vertex -2.44657397270203 -22.6242504119873 0.234218657016754
vertex -2.41671395301819 -22.6340465545654 0.233872652053833
vertex -2.49236178398132 -22.7610187530518 0.0900000035762787
endloop
endfacet
facet normal 0.213014245033264 0.674288928508759 -0.707078039646149
outer loop
vertex -2.46385812759399 -22.7703685760498 0.0896697044372559
vertex -2.49236178398132 -22.7610187530518 0.0900000035762787
vertex -2.41671395301819 -22.6340465545654 0.233872652053833
endloop
endfacet
facet normal -0.226789727807045 -0.669729173183441 0.707127451896667
outer loop
vertex 2.15856671333313 -9.40428352355957 14.2319736480713
vertex 1.99745452404022 -9.35003662109375 14.2316799163818
vertex 1.89364087581635 -10.1651086807251 13.426420211792
endloop
endfacet
facet normal -0.226789712905884 -0.669729173183441 0.707127451896667
outer loop
vertex 1.74170315265656 -10.1139602661133 13.4261341094971
vertex 1.89364087581635 -10.1651086807251 13.426420211792
vertex 1.99745452404022 -9.35003662109375 14.2316799163818
endloop
endfacet
facet normal -0.226789727807045 -0.669729232788086 0.707127451896667
outer loop
vertex 1.89364087581635 -10.1651086807251 13.426420211792
vertex 1.74170315265656 -10.1139602661133 13.4261341094971
vertex 1.41352772712708 -11.5439186096191 11.9665498733521
endloop
endfacet
facet normal -0.226789727807045 -0.669729173183441 0.707127451896667
outer loop
vertex 1.27822840213776 -11.498348236084 11.9663171768188
vertex 1.41352772712708 -11.5439186096191 11.9665498733521
vertex 1.74170315265656 -10.1139602661133 13.4261341094971
endloop
endfacet
facet normal -0.226789712905884 -0.669729173183441 0.707127451896667
outer loop
vertex 1.27822840213776 -11.498348236084 11.9663171768188
vertex 0.649796724319458 -13.3754606246948 9.98693084716797
vertex 1.41352772712708 -11.5439186096191 11.9665498733521
endloop
endfacet
facet normal -0.226789712905884 -0.669729232788086 0.707127451896667
outer loop
vertex 0.762546122074127 -13.4134349822998 9.98712539672852
vertex 1.41352772712708 -11.5439186096191 11.9665498733521
vertex 0.649796724319458 -13.3754606246948 9.98693084716797
endloop
endfacet
facet normal -0.226789712905884 -0.669729232788086 0.707127451896667
outer loop
vertex 0.762546122074127 -13.4134349822998 9.98712539672852
vertex 0.649796724319458 -13.3754606246948 9.98693084716797
vertex 0.111564561724663 -15.2829513549805 8.00769996643066
endloop
endfacet
facet normal -0.226789742708206 -0.669729232788086 0.707127451896667
outer loop
vertex 0.0213650520890951 -15.2525720596313 8.00754451751709
vertex 0.111564561724663 -15.2829513549805 8.00769996643066
vertex 0.649796724319458 -13.3754606246948 9.98693084716797
endloop
endfacet
facet normal -0.226789742708206 -0.669729232788086 0.707127451896667
outer loop
vertex 0.0213650520890951 -15.2525720596313 8.00754451751709
vertex -0.607066631317139 -17.1296825408936 6.02815818786621
vertex 0.111564561724663 -15.2829513549805 8.00769996643066
endloop
endfacet
facet normal -0.226789712905884 -0.669729173183441 0.707127451896667
outer loop
vertex -0.539417028427124 -17.1524677276611 6.02827501296997
vertex 0.111564561724663 -15.2829513549805 8.00769996643066
vertex -0.607066631317139 -17.1296825408936 6.02815818786621
endloop
endfacet
facet normal -0.226789712905884 -0.669729173183441 0.707127451896667
outer loop
vertex -0.539417028427124 -17.1524677276611 6.02827501296997
vertex -0.607066631317139 -17.1296825408936 6.02815818786621
vertex -1.19039857387543 -19.0219841003418 4.04885005950928
endloop
endfacet
facet normal -0.226789742708206 -0.669729232788086 0.707127451896667
outer loop
vertex -1.23549830913544 -19.0067958831787 4.04877233505249
vertex -1.19039857387543 -19.0219841003418 4.04885005950928
vertex -0.607066631317139 -17.1296825408936 6.02815818786621
endloop
endfacet
facet normal -0.226789742708206 -0.669729232788086 0.707127451896667
outer loop
vertex -1.23549830913544 -19.0067958831787 4.04877233505249
vertex -1.86392998695374 -20.8839073181152 2.06938624382019
vertex -1.19039857387543 -19.0219841003418 4.04885005950928
endloop
endfacet
facet normal -0.226789742708206 -0.669729232788086 0.707127451896667
outer loop
vertex -1.84138011932373 -20.8915023803711 2.06942510604858
vertex -1.19039857387543 -19.0219841003418 4.04885005950928
vertex -1.86392998695374 -20.8839073181152 2.06938624382019
endloop
endfacet
facet normal -0.226789742708206 -0.669729232788086 0.707127451896667
outer loop
vertex -1.86392998695374 -20.8839073181152 2.06938624382019
vertex -2.49236178398132 -22.7610187530518 0.0900000035762787
vertex -1.84138011932373 -20.8915023803711 2.06942510604858
endloop
endfacet
facet normal -0.318367511034012 -0.947967350482941 -0.000385632738471031
outer loop
vertex -0.344877749681473 -23.6477870941162 18.0935802459717
vertex -2.20832085609436 -23.0227756500244 20.0869102478027
vertex -0.360939651727676 -23.6423873901367 18.0768756866455
endloop
endfacet
facet normal -0.318367511034012 -0.947967350482941 -0.000385632738471031
outer loop
vertex -0.360939651727676 -23.6423873901367 18.0768756866455
vertex 1.48644161224365 -24.2619972229004 16.0668430328369
vertex -0.344877749681473 -23.6477870941162 18.0935802459717
endloop
endfacet
facet normal -0.318367511034012 -0.947967350482941 -0.000385632738471031
outer loop
vertex 1.51856541633606 -24.2728004455566 16.1002521514893
vertex -0.344877749681473 -23.6477870941162 18.0935802459717
vertex 1.48644161224365 -24.2619972229004 16.0668430328369
endloop
endfacet
facet normal -0.318367511034012 -0.947967290878296 -0.000385632709367201
outer loop
vertex 3.33382296562195 -24.8816089630127 14.0568103790283
vertex 3.38200855255127 -24.8978118896484 14.1069240570068
vertex 1.48644161224365 -24.2619972229004 16.0668430328369
endloop
endfacet
facet normal -0.318367511034012 -0.947967350482941 -0.000385632738471031
outer loop
vertex 1.51856541633606 -24.2728004455566 16.1002521514893
vertex 1.48644161224365 -24.2619972229004 16.0668430328369
vertex 3.38200855255127 -24.8978118896484 14.1069240570068
endloop
endfacet
facet normal -0.318367511034012 -0.947967290878296 -0.000385632709367201
outer loop
vertex 3.33382296562195 -24.8816089630127 14.0568103790283
vertex 5.18120431900024 -25.501220703125 12.0467767715454
vertex 3.38200855255127 -24.8978118896484 14.1069240570068
endloop
endfacet
facet normal -0.318367511034012 -0.947967350482941 -0.000385632738471031
outer loop
vertex 5.2454514503479 -25.5228233337402 12.1135950088501
vertex 3.38200855255127 -24.8978118896484 14.1069240570068
vertex 5.18120431900024 -25.501220703125 12.0467767715454
endloop
endfacet
facet normal -0.318367511034012 -0.947967350482941 -0.000385632738471031
outer loop
vertex 5.18120431900024 -25.501220703125 12.0467767715454
vertex 7.02858543395996 -26.1208305358887 10.0367431640625
vertex 5.2454514503479 -25.5228233337402 12.1135950088501
endloop
endfacet
facet normal -0.318367511034012 -0.947967290878296 -0.000385632709367201
outer loop
vertex 7.10889482498169 -26.1478366851807 10.1202659606934
vertex 5.2454514503479 -25.5228233337402 12.1135950088501
vertex 7.02858543395996 -26.1208305358887 10.0367431640625
endloop
endfacet
facet normal -0.318367511034012 -0.947967290878296 -0.000385632709367201
outer loop
vertex 8.97233772277832 -26.7728481292725 8.12693691253662
vertex 7.10889482498169 -26.1478366851807 10.1202659606934
vertex 8.87596702575684 -26.740442276001 8.02671051025391
endloop
endfacet
facet normal -0.318367511034012 -0.947967290878296 -0.000385632709367201
outer loop
vertex 7.02858543395996 -26.1208305358887 10.0367431640625
vertex 8.87596702575684 -26.740442276001 8.02671051025391
vertex 7.10889482498169 -26.1478366851807 10.1202659606934
endloop
endfacet
facet normal -0.318367511034012 -0.947967290878296 -0.000385632709367201
outer loop
vertex 8.97233772277832 -26.7728481292725 8.12693691253662
vertex 8.87596702575684 -26.740442276001 8.02671051025391
vertex 10.3466567993164 -27.2338047027588 6.65682601928711
endloop
endfacet
facet normal -0.318367511034012 -0.947967290878296 -0.000385632709367201
outer loop
vertex 10.2384614944458 -27.1974220275879 6.54425477981567
vertex 10.3466567993164 -27.2338047027588 6.65682601928711
vertex 8.87596702575684 -26.740442276001 8.02671051025391
endloop
endfacet
facet normal -0.318367481231689 -0.947967231273651 -0.00038563265115954
outer loop
vertex 10.3466567993164 -27.2338047027588 6.65682601928711
vertex 10.2384614944458 -27.1974220275879 6.54425477981567
vertex 11.1050271987915 -27.488166809082 5.84559535980225
endloop
endfacet
facet normal -0.318367511034012 -0.947967290878296 -0.000385632738471031
outer loop
vertex 10.9902877807617 -27.4495849609375 5.72623443603516
vertex 11.1050271987915 -27.488166809082 5.84559535980225
vertex 10.2384614944458 -27.1974220275879 6.54425477981567
endloop
endfacet
facet normal -1 0 0
outer loop
vertex -0.190209999680519 -20 -0.00999999977648258
vertex -0.190209999680519 -21 -0.00999999977648258
vertex -0.190209999680519 -20 0.159999996423721
endloop
endfacet
facet normal -1 0 0
outer loop
vertex -0.190209999680519 -21 0.159999996423721
vertex -0.190209999680519 -20 0.159999996423721
vertex -0.190209999680519 -21 -0.00999999977648258
endloop
endfacet
facet normal -0.70710676908493 -0 -0.70710676908493
outer loop
vertex -0.0700000002980232 -20 -0.130209997296333
vertex -0.0700000002980232 -21 -0.130209997296333
vertex -0.190209999680519 -20 -0.00999999977648258
endloop
endfacet
facet normal -0.70710676908493 0 -0.70710676908493
outer loop
vertex -0.190209999680519 -21 -0.00999999977648258
vertex -0.190209999680519 -20 -0.00999999977648258
vertex -0.0700000002980232 -21 -0.130209997296333
endloop
endfacet
facet normal -0.70710676908493 0 0.70710676908493
outer loop
vertex -0.190209999680519 -20 0.159999996423721
vertex -0.190209999680519 -21 0.159999996423721
vertex -0.0700000002980232 -20 0.280209988355637
endloop
endfacet
facet normal -0.70710676908493 0 0.70710676908493
outer loop
vertex -0.0700000002980232 -21 0.280209988355637
vertex -0.0700000002980232 -20 0.280209988355637
vertex -0.190209999680519 -21 0.159999996423721
endloop
endfacet
facet normal -0 -0 -1
outer loop
vertex 0.100000001490116 -20 -0.130209997296333
vertex 0.100000001490116 -21 -0.130209997296333
vertex -0.0700000002980232 -20 -0.130209997296333
endloop
endfacet
facet normal 0 0 -1
outer loop
vertex -0.0700000002980232 -21 -0.130209997296333
vertex -0.0700000002980232 -20 -0.130209997296333
vertex 0.100000001490116 -21 -0.130209997296333
endloop
endfacet
facet normal 0 -0 1
outer loop
vertex 0.100000001490116 -21 0.280209988355637
vertex 0.100000001490116 -20 0.280209988355637
vertex -0.0700000002980232 -21 0.280209988355637
endloop
endfacet
facet normal -0 0 1
outer loop
vertex -0.0700000002980232 -20 0.280209988355637
vertex -0.0700000002980232 -21 0.280209988355637
vertex 0.100000001490116 -20 0.280209988355637
endloop
endfacet
facet normal 0.70710676908493 0 -0.70710676908493
outer loop
vertex 0.100000001490116 -21 -0.130209997296333
vertex 0.100000001490116 -20 -0.130209997296333
vertex 0.220210000872612 -21 -0.00999999977648258
endloop
endfacet
facet normal 0.70710676908493 0 -0.70710676908493
outer loop
vertex 0.220210000872612 -20 -0.00999999977648258
vertex 0.220210000872612 -21 -0.00999999977648258
vertex 0.100000001490116 -20 -0.130209997296333
endloop
endfacet
facet normal 0.70710676908493 0 0.70710676908493
outer loop
vertex 0.220210000872612 -20 0.159999996423721
vertex 0.100000001490116 -20 0.280209988355637
vertex 0.220210000872612 -21 0.159999996423721
endloop
endfacet
facet normal 0.70710676908493 -0 0.70710676908493
outer loop
vertex 0.100000001490116 -21 0.280209988355637
vertex 0.220210000872612 -21 0.159999996423721
vertex 0.100000001490116 -20 0.280209988355637
endloop
endfacet
facet normal 1 0 0
outer loop
vertex 0.220210000872612 -20 0.159999996423721
vertex 0.220210000872612 -21 0.159999996423721
vertex 0.220210000872612 -20 -0.00999999977648258
endloop
endfacet
facet normal 1 0 0
outer loop
vertex 0.220210000872612 -21 -0.00999999977648258
vertex 0.220210000872612 -20 -0.00999999977648258
vertex 0.220210000872612 -21 0.159999996423721
endloop
endfacet
facet normal -0 0.00651036202907562 0.999978840351105
outer loop
vertex -0.0700000002980232 -19.9995765686035 0.280207246541977
vertex 0.100000001490116 -19.9995765686035 0.280207246541977
vertex -0.06638003885746 -18.9653224945068 0.273473739624023
endloop
endfacet
facet normal 2.8421528800628e-16 0.00651036156341434 0.99997878074646
outer loop
vertex 0.0963800400495529 -18.9653224945068 0.273473739624023
vertex -0.06638003885746 -18.9653224945068 0.273473739624023
vertex 0.100000001490116 -19.9995765686035 0.280207246541977
endloop
endfacet
facet normal 2.84215340945839e-16 0.00651036249473691 0.999978840351105
outer loop
vertex -0.06638003885746 -18.9653224945068 0.273473739624023
vertex 0.0963800400495529 -18.9653224945068 0.273473739624023
vertex -0.0610066056251526 -17.4300899505615 0.263478606939316
endloop
endfacet
facet normal 1.52154222381184e-16 0.00651036249473691 0.99997878074646
outer loop
vertex 0.0910066068172455 -17.4300899505615 0.263478606939316
vertex -0.0610066056251526 -17.4300899505615 0.263478606939316
vertex 0.0963800400495529 -18.9653224945068 0.273473739624023
endloop
endfacet
facet normal 1.52154222381184e-16 0.00651036156341434 0.99997878074646
outer loop
vertex 0.0910066068172455 -17.4300899505615 0.263478606939316
vertex 0.0830303505063057 -15.1512069702148 0.248641937971115
vertex -0.0610066056251526 -17.4300899505615 0.263478606939316
endloop
endfacet
facet normal 1.02001414809147e-16 0.00651036249473691 0.999978840351105
outer loop
vertex -0.0530303455889225 -15.1512069702148 0.248641937971115
vertex -0.0610066056251526 -17.4300899505615 0.263478606939316
vertex 0.0830303505063057 -15.1512069702148 0.248641937971115
endloop
endfacet
facet normal 1.02001401574257e-16 0.00651036156341434 0.99997878074646
outer loop
vertex -0.0530303455889225 -15.1512069702148 0.248641937971115
vertex 0.0830303505063057 -15.1512069702148 0.248641937971115
vertex -0.0428801253437996 -12.2512044906616 0.229761466383934
endloop
endfacet
facet normal -1.99712716928292e-17 0.00651036202907562 0.99997878074646
outer loop
vertex 0.0728801265358925 -12.2512044906616 0.229761466383934
vertex -0.0428801253437996 -12.2512044906616 0.229761466383934
vertex 0.0830303505063057 -15.1512069702148 0.248641937971115
endloop
endfacet
facet normal -1.99712733471904e-17 0.00651036202907562 0.999978840351105
outer loop
vertex 0.0728801265358925 -12.2512044906616 0.229761466383934
vertex 0.0626969337463379 -9.34178256988525 0.21081967651844
vertex -0.0428801253437996 -12.2512044906616 0.229761466383934
endloop
endfacet
facet normal -4.84906774666182e-16 0.00651036249473691 0.999978840351105
outer loop
vertex -0.032696932554245 -9.34178256988525 0.21081967651844
vertex -0.0428801253437996 -12.2512044906616 0.229761466383934
vertex 0.0626969337463379 -9.34178256988525 0.21081967651844
endloop
endfacet
facet normal -4.84906774666182e-16 0.00651036249473691 0.999978840351105
outer loop
vertex -0.032696932554245 -9.34178256988525 0.21081967651844
vertex 0.0626969337463379 -9.34178256988525 0.21081967651844
vertex -0.0225137416273355 -6.4323616027832 0.191877886652946
endloop
endfacet
facet normal -1.51053736000288e-15 0.00651036156341434 0.99997878074646
outer loop
vertex 0.0525137409567833 -6.4323616027832 0.191877886652946
vertex -0.0225137416273355 -6.4323616027832 0.191877886652946
vertex 0.0626969337463379 -9.34178256988525 0.21081967651844
endloop
endfacet
facet normal -1.51053757176112e-15 0.00651036202907562 0.999978840351105
outer loop
vertex 0.0525137409567833 -6.4323616027832 0.191877886652946
vertex 0.0431845746934414 -3.76694107055664 0.174524664878845
vertex -0.0225137416273355 -6.4323616027832 0.191877886652946
endloop
endfacet
facet normal 2.46205293303174e-16 0.00651036156341434 0.99997878074646
outer loop
vertex -0.0131845735013485 -3.76694107055664 0.174524664878845
vertex -0.0225137416273355 -6.4323616027832 0.191877886652946
vertex 0.0431845746934414 -3.76694107055664 0.174524664878845
endloop
endfacet
facet normal 2.46205266833395e-16 0.00651036202907562 0.99997878074646
outer loop
vertex -0.0131845735013485 -3.76694107055664 0.174524664878845
vertex 0.0431845746934414 -3.76694107055664 0.174524664878845
vertex -0.00738738523796201 -2.11063671112061 0.163741305470467
endloop
endfacet
facet normal 2.84123279052385e-16 0.00651036202907562 0.99997878074646
outer loop
vertex 0.0373873859643936 -2.11063671112061 0.163741305470467
vertex -0.00738738523796201 -2.11063671112061 0.163741305470467
vertex 0.0431845746934414 -3.76694107055664 0.174524664878845
endloop
endfacet
facet normal 2.84123279052385e-16 0.00651036202907562 0.99997878074646
outer loop
vertex 0.0373873859643936 -2.11063671112061 0.163741305470467
vertex 0.0339532531797886 -1.12947690486908 0.157353460788727
vertex -0.00738738523796201 -2.11063671112061 0.163741305470467
endloop
endfacet
facet normal -7.70331519842022e-16 0.00651036156341434 0.99997878074646
outer loop
vertex -0.00395325291901827 -1.12947690486908 0.157353460788727
vertex -0.00738738523796201 -2.11063671112061 0.163741305470467
vertex 0.0339532531797886 -1.12947690486908 0.157353460788727
endloop
endfacet
facet normal -7.70331572781582e-16 0.00651036202907562 0.99997878074646
outer loop
vertex -0.00395325291901827 -1.12947690486908 0.157353460788727
vertex 0.0339532531797886 -1.12947690486908 0.157353460788727
vertex -0.00191894557792693 -0.548258543014526 0.153569430112839
endloop
endfacet
facet normal 4.78465406739668e-16 0.00651036202907562 0.99997878074646
outer loop
vertex 0.0319189466536045 -0.548258543014526 0.153569430112839
vertex -0.00191894557792693 -0.548258543014526 0.153569430112839
vertex 0.0339532531797886 -1.12947690486908 0.157353460788727
endloop
endfacet
facet normal 4.78465406739668e-16 0.00651036202907562 0.999978840351105
outer loop
vertex 0.0319189466536045 -0.548258543014526 0.153569430112839
vertex 0.030713863670826 -0.203956991434097 0.151327863335609
vertex -0.00191894557792693 -0.548258543014526 0.153569430112839
endloop
endfacet
facet normal 4.02476406827925e-17 0.00651036202907562 0.999978840351105
outer loop
vertex -0.000713864574208856 -0.203956991434097 0.151327863335609
vertex -0.00191894557792693 -0.548258543014526 0.153569430112839
vertex 0.030713863670826 -0.203956991434097 0.151327863335609
endloop
endfacet
facet normal 4.02476406827925e-17 0.00651036202907562 0.99997878074646
outer loop
vertex -0.000713864574208856 -0.203956991434097 0.151327863335609
vertex 0.030713863670826 -0.203956991434097 0.151327863335609
vertex 0 0 0.150000005960464
endloop
endfacet
facet normal 0 0.00651036249473691 0.999978840351105
outer loop
vertex 0.0299999993294477 0 0.150000005960464
vertex 0 0 0.150000005960464
vertex 0.030713863670826 -0.203956991434097 0.151327863335609
endloop
endfacet
facet normal -0.999954760074615 -0.00951007008552551 0
outer loop
vertex 0.220201402902603 -19.999095916748 -0.00999999977648258
vertex 0.220201402902603 -19.999095916748 0.159999996423721
vertex 0.210566565394402 -18.9860210418701 -0.00949344038963318
endloop
endfacet
facet normal -0.99995481967926 -0.00951007101684809 -0
outer loop
vertex 0.210566565394402 -18.9860210418701 0.159493446350098
vertex 0.210566565394402 -18.9860210418701 -0.00949344038963318
vertex 0.220201402902603 -19.999095916748 0.159999996423721
endloop
endfacet
facet normal -0.999954760074615 -0.00951006915420294 -0
outer loop
vertex 0.210566565394402 -18.9860210418701 0.159493446350098
vertex 0.196590781211853 -17.5165119171143 0.158758655190468
vertex 0.210566565394402 -18.9860210418701 -0.00949344038963318
endloop
endfacet
facet normal -0.999954760074615 -0.00951007008552551 -1.65680319462321e-16
outer loop
vertex 0.196590781211853 -17.5165119171143 -0.00875865202397108
vertex 0.210566565394402 -18.9860210418701 -0.00949344038963318
vertex 0.196590781211853 -17.5165119171143 0.158758655190468
endloop
endfacet
facet normal -0.999954760074615 -0.00951006915420294 -1.65680306227431e-16
outer loop
vertex 0.196590781211853 -17.5165119171143 -0.00875865202397108
vertex 0.196590781211853 -17.5165119171143 0.158758655190468
vertex 0.176318287849426 -15.3849201202393 -0.00769280781969428
endloop
endfacet
facet normal -0.999954760074615 -0.00951007008552551 1.67815795401467e-16
outer loop
vertex 0.176318287849426 -15.3849201202393 0.157692804932594
vertex 0.176318287849426 -15.3849201202393 -0.00769280781969428
vertex 0.196590781211853 -17.5165119171143 0.158758655190468
endloop
endfacet
facet normal -0.999954760074615 -0.00951007008552551 1.67815795401467e-16
outer loop
vertex 0.176318287849426 -15.3849201202393 0.157692804932594
vertex 0.149791613221169 -12.595721244812 0.156298145651817
vertex 0.176318287849426 -15.3849201202393 -0.00769280781969428
endloop
endfacet
facet normal -0.99995481967926 -0.00951007008552551 -3.78488810956042e-16
outer loop
vertex 0.149791613221169 -12.595721244812 -0.00629814574494958
vertex 0.176318287849426 -15.3849201202393 -0.00769280781969428
vertex 0.149791613221169 -12.595721244812 0.156298145651817
endloop
endfacet
facet normal -0.999954760074615 -0.00951007008552551 -3.78488784486263e-16
outer loop
vertex 0.149791613221169 -12.595721244812 -0.00629814574494958
vertex 0.149791613221169 -12.595721244812 0.156298145651817
vertex 0.122942045331001 -9.77257251739502 -0.0048865070566535
endloop
endfacet
facet normal -0.99995481967926 -0.00951007008552551 -4.91004419269678e-17
outer loop
vertex 0.122942045331001 -9.77257251739502 0.154886513948441
vertex 0.122942045331001 -9.77257251739502 -0.0048865070566535
vertex 0.149791613221169 -12.595721244812 0.156298145651817
endloop
endfacet
facet normal -0.99995481967926 -0.00951007008552551 -4.91004419269678e-17
outer loop
vertex 0.122942045331001 -9.77257251739502 0.154886513948441
vertex 0.0960924848914146 -6.94942235946655 0.153474867343903
vertex 0.122942045331001 -9.77257251739502 -0.0048865070566535
endloop
endfacet
facet normal -0.999954760074615 -0.00951007008552551 3.8337985050873e-18
outer loop
vertex 0.0960924848914146 -6.94942235946655 -0.00347486836835742
vertex 0.122942045331001 -9.77257251739502 -0.0048865070566535
vertex 0.0960924848914146 -6.94942235946655 0.153474867343903
endloop
endfacet
facet normal -0.999954760074615 -0.00951007008552551 3.8337985050873e-18
outer loop
vertex 0.0960924848914146 -6.94942235946655 -0.00347486836835742
vertex 0.0960924848914146 -6.94942235946655 0.153474867343903
vertex 0.0701383650302887 -4.22042655944824 -0.00211030873470008
endloop
endfacet
facet normal -0.99995481967926 -0.00951007008552551 3.52126816296884e-17
outer loop
vertex 0.0701383650302887 -4.22042655944824 0.152110308408737
vertex 0.0701383650302887 -4.22042655944824 -0.00211030873470008
vertex 0.0960924848914146 -6.94942235946655 0.153474867343903
endloop
endfacet
facet normal -0.99995481967926 -0.00951007008552551 3.52126816296884e-17
outer loop
vertex 0.0701383650302887 -4.22042655944824 0.152110308408737
vertex 0.0513529404997826 -2.24519634246826 0.151122644543648
vertex 0.0701383650302887 -4.22042655944824 -0.00211030873470008
endloop
endfacet
facet normal -0.99995481967926 -0.00951007008552551 9.90545392091739e-18
outer loop
vertex 0.0513529404997826 -2.24519634246826 -0.00112264894414693
vertex 0.0701383650302887 -4.22042655944824 -0.00211030873470008
vertex 0.0513529404997826 -2.24519634246826 0.151122644543648
endloop
endfacet
facet normal -0.99995481967926 -0.00951007008552551 9.90545392091739e-18
outer loop
vertex 0.0513529404997826 -2.24519634246826 -0.00112264894414693
vertex 0.0513529404997826 -2.24519634246826 0.151122644543648
vertex 0.0386244617402554 -0.906835734844208 -0.000453438377007842
endloop
endfacet
facet normal -0.99995481967926 -0.00951007101684809 7.09687415124853e-17
outer loop
vertex 0.0386244617402554 -0.906835734844208 0.150453433394432
vertex 0.0386244617402554 -0.906835734844208 -0.000453438377007842
vertex 0.0513529404997826 -2.24519634246826 0.151122644543648
endloop
endfacet
facet normal -0.99995481967926 -0.00951007008552551 7.09687415124853e-17
outer loop
vertex 0.0386244617402554 -0.906835734844208 -0.000453438377007842
vertex 0.0386244617402554 -0.906835734844208 0.150453433394432
vertex 0.0299999993294477 0 0
endloop
endfacet
facet normal -0.999954760074615 -0.00951007008552551 -0
outer loop
vertex 0.0299999993294477 0 0.150000005960464
vertex 0.0299999993294477 0 0
vertex 0.0386244617402554 -0.906835734844208 0.150453433394432
endloop
endfacet
facet normal 0.707089066505432 0.00707831466570497 0.707089066505432
outer loop
vertex 0.220209628343582 -19.9998149871826 0.159998521208763
vertex 0.20937480032444 -18.86057472229 0.159428983926773
vertex 0.0999980866909027 -19.999454498291 0.280206441879272
endloop
endfacet
facet normal 0.707089006900787 0.00707831420004368 0.707089006900787
outer loop
vertex 0.0960107743740082 -18.860221862793 0.272789478302002
vertex 0.0999980866909027 -19.999454498291 0.280206441879272
vertex 0.20937480032444 -18.86057472229 0.159428983926773
endloop
endfacet
facet normal 0.707089066505432 0.00707831513136625 0.707089066505432
outer loop
vertex 0.20937480032444 -18.86057472229 0.159428983926773
vertex 0.189739435911179 -16.7959899902344 0.15839684009552
vertex 0.0960107743740082 -18.860221862793 0.272789478302002
endloop
endfacet
facet normal 0.707089066505432 0.00707831513136625 0.707089066505432
outer loop
vertex 0.0887849703431129 -16.7957057952881 0.259348452091217
vertex 0.0960107743740082 -18.860221862793 0.272789478302002
vertex 0.189739435911179 -16.7959899902344 0.15839684009552
endloop
endfacet
facet normal 0.707089066505432 0.00707831513136625 0.707089066505432
outer loop
vertex 0.0887849703431129 -16.7957057952881 0.259348452091217
vertex 0.189739435911179 -16.7959899902344 0.15839684009552
vertex 0.0789874717593193 -13.9964208602905 0.24112369120121
endloop
endfacet
facet normal 0.707089066505432 0.00707831513136625 0.707089066505432
outer loop
vertex 0.163116186857224 -13.9966592788696 0.156997367739677
vertex 0.0789874717593193 -13.9964208602905 0.24112369120121
vertex 0.189739435911179 -16.7959899902344 0.15839684009552
endloop
endfacet
facet normal 0.707089066505432 0.00707831513136625 0.707089066505432
outer loop
vertex 0.163116186857224 -13.9966592788696 0.156997367739677
vertex 0.13649295270443 -11.1973276138306 0.155597895383835
vertex 0.0789874717593193 -13.9964208602905 0.24112369120121
endloop
endfacet
facet normal 0.707089066505432 0.00707831513136625 0.707089066505432
outer loop
vertex 0.0691899806261063 -11.1971368789673 0.222898960113525
vertex 0.0789874717593193 -13.9964208602905 0.24112369120121
vertex 0.13649295270443 -11.1973276138306 0.155597895383835
endloop
endfacet
facet normal 0.707089066505432 0.00707831513136625 0.707089066505432
outer loop
vertex 0.0691899806261063 -11.1971368789673 0.222898960113525
vertex 0.13649295270443 -11.1973276138306 0.155597895383835
vertex 0.0593924820423126 -8.39785289764404 0.20467421412468
endloop
endfacet
facet normal 0.707089066505432 0.00707831513136625 0.707089066505432
outer loop
vertex 0.109869711101055 -8.39799499511719 0.154198423027992
vertex 0.0593924820423126 -8.39785289764404 0.20467421412468
vertex 0.13649295270443 -11.1973276138306 0.155597895383835
endloop
endfacet
facet normal 0.707089066505432 0.00707831513136625 0.707089066505432
outer loop
vertex 0.109869711101055 -8.39799499511719 0.154198423027992
vertex 0.0832464769482613 -5.59866380691528 0.15279895067215
vertex 0.0593924820423126 -8.39785289764404 0.20467421412468
endloop
endfacet
facet normal 0.707089066505432 0.00707831513136625 0.707089066505432
outer loop
vertex 0.0495949909090996 -5.59856843948364 0.186449483036995
vertex 0.0593924820423126 -8.39785289764404 0.20467421412468
vertex 0.0832464769482613 -5.59866380691528 0.15279895067215
endloop
endfacet
facet normal 0.707089066505432 0.00707831513136625 0.707089066505432
outer loop
vertex 0.0495949909090996 -5.59856843948364 0.186449483036995
vertex 0.0832464769482613 -5.59866380691528 0.15279895067215
vertex 0.0397974960505962 -2.79928421974182 0.168224737048149
endloop
endfacet
facet normal 0.707089066505432 0.00707831513136625 0.707089066505432
outer loop
vertex 0.0566232390701771 -2.79933190345764 0.151399478316307
vertex 0.0397974960505962 -2.79928421974182 0.168224737048149
vertex 0.0832464769482613 -5.59866380691528 0.15279895067215
endloop
endfacet
facet normal 0.707089066505432 0.00707831513136625 0.707089066505432
outer loop
vertex 0.0397974960505962 -2.79928421974182 0.168224737048149
vertex 0.0566232390701771 -2.79933190345764 0.151399478316307
vertex 0.0299999993294477 0 0.150000005960464
endloop
endfacet
facet normal 0.707090795040131 0.00672478694468737 -0.707090795040131
outer loop
vertex 0.246823519468307 -22.7983303070068 -0.00999999977648258
vertex 0.229999080300331 -22.7984867095947 -0.0268259197473526
vertex 0.220201402902603 -19.999095916748 -0.00999999977648258
endloop
endfacet
facet normal 0.707090795040131 0.00672478694468737 -0.707090795040131
outer loop
vertex 0.273445636034012 -25.597562789917 -0.00999999977648258
vertex 0.23979677259922 -25.5978775024414 -0.0436518378555775
vertex 0.246823519468307 -22.7983303070068 -0.00999999977648258
endloop
endfacet
facet normal 0.707090795040131 0.00672478694468737 -0.707090795040131
outer loop
vertex 0.229999080300331 -22.7984867095947 -0.0268259197473526
vertex 0.246823519468307 -22.7983303070068 -0.00999999977648258
vertex 0.23979677259922 -25.5978775024414 -0.0436518378555775
endloop
endfacet
facet normal 0.707090795040131 0.00672478694468737 -0.707090795040131
outer loop
vertex 0.273445636034012 -25.597562789917 -0.00999999977648258
vertex 0.300067752599716 -28.3967971801758 -0.00999999977648258
vertex 0.23979677259922 -25.5978775024414 -0.0436518378555775
endloop
endfacet
facet normal 0.707090795040131 0.00672478694468737 -0.707090795040131
outer loop
vertex 0.249594464898109 -28.3972682952881 -0.0604777596890926
vertex 0.23979677259922 -25.5978775024414 -0.0436518378555775
vertex 0.300067752599716 -28.3967971801758 -0.00999999977648258
endloop
endfacet
facet normal 0.707090795040131 0.00672478694468737 -0.707090795040131
outer loop
vertex 0.249594464898109 -28.3972682952881 -0.0604777596890926
vertex 0.300067752599716 -28.3967971801758 -0.00999999977648258
vertex 0.259392142295837 -31.1966590881348 -0.0773036777973175
endloop
endfacet
facet normal 0.707090795040131 0.00672478694468737 -0.707090795040131
outer loop
vertex 0.326689869165421 -31.1960315704346 -0.00999999977648258
vertex 0.259392142295837 -31.1966590881348 -0.0773036777973175
vertex 0.300067752599716 -28.3967971801758 -0.00999999977648258
endloop
endfacet
facet normal 0.707090795040131 0.00672478694468737 -0.707090795040131
outer loop
vertex 0.326689869165421 -31.1960315704346 -0.00999999977648258
vertex 0.353311985731125 -33.9952659606934 -0.00999999977648258
vertex 0.259392142295837 -31.1966590881348 -0.0773036777973175
endloop
endfacet
facet normal 0.707090795040131 0.00672478694468737 -0.707090795040131
outer loop
vertex 0.269189834594727 -33.9960517883301 -0.0941295996308327
vertex 0.259392142295837 -31.1966590881348 -0.0773036777973175
vertex 0.353311985731125 -33.9952659606934 -0.00999999977648258
endloop
endfacet
facet normal 0.707090795040131 0.00672478694468737 -0.707090795040131
outer loop
vertex 0.379934102296829 -36.7944984436035 -0.00999999977648258
vertex 0.278987526893616 -36.7954406738281 -0.110955514013767
vertex 0.353311985731125 -33.9952659606934 -0.00999999977648258
endloop
endfacet
facet normal 0.707090795040131 0.00672478694468737 -0.707090795040131
outer loop
vertex 0.269189834594727 -33.9960517883301 -0.0941295996308327
vertex 0.353311985731125 -33.9952659606934 -0.00999999977648258
vertex 0.278987526893616 -36.7954406738281 -0.110955514013767
endloop
endfacet
facet normal 0.707090795040131 0.00672478694468737 -0.707090795040131
outer loop
vertex 0.379934102296829 -36.7944984436035 -0.00999999977648258
vertex 0.399568319320679 -38.8589782714844 -0.00999999977648258
vertex 0.278987526893616 -36.7954406738281 -0.110955514013767
endloop
endfacet
facet normal 0.707090795040131 0.00672478694468737 -0.707090795040131
outer loop
vertex 0.286213606595993 -38.8600692749023 -0.123365096747875
vertex 0.278987526893616 -36.7954406738281 -0.110955514013767
vertex 0.399568319320679 -38.8589782714844 -0.00999999977648258
endloop
endfacet
facet normal 0.707090795040131 0.00672478694468737 -0.707090795040131
outer loop
vertex 0.399568319320679 -38.8589782714844 -0.00999999977648258
vertex 0.410402804613113 -39.9981918334961 -0.00999999977648258
vertex 0.286213606595993 -38.8600692749023 -0.123365096747875
endloop
endfacet
facet normal 0.707090735435486 0.00672478647902608 -0.707090735435486
outer loop
vertex 0.29020094871521 -39.9993324279785 -0.130212724208832
vertex 0.286213606595993 -38.8600692749023 -0.123365096747875
vertex 0.410402804613113 -39.9981918334961 -0.00999999977648258
endloop
endfacet
facet normal 0.214358314871788 0.67384946346283 -0.707090735435486
outer loop
vertex 35.5484390258789 -35.1247253417969 -0.200200945138931
vertex 35.509822845459 -35.2385711669922 -0.320402801036835
vertex 34.4639778137207 -34.775562286377 -0.196213603019714
endloop
endfacet
facet normal 0.214358329772949 0.67384946346283 -0.707090795040131
outer loop
vertex 34.4275512695313 -34.8829193115234 -0.3095683157444
vertex 34.4639778137207 -34.775562286377 -0.196213603019714
vertex 35.509822845459 -35.2385711669922 -0.320402801036835
endloop
endfacet
facet normal 0.214358314871788 0.673849523067474 -0.707090795040131
outer loop
vertex 34.4639778137207 -34.775562286377 -0.196213603019714
vertex 34.4275512695313 -34.8829193115234 -0.3095683157444
vertex 32.498664855957 -34.1427955627441 -0.188987538218498
endloop
endfacet
facet normal 0.214358329772949 0.67384946346283 -0.707090795040131
outer loop
vertex 32.4662551879883 -34.238410949707 -0.289934098720551
vertex 32.498664855957 -34.1427955627441 -0.188987538218498
vertex 34.4275512695313 -34.8829193115234 -0.3095683157444
endloop
endfacet
facet normal 0.214358329772949 0.673849523067474 -0.707090795040131
outer loop
vertex 32.4662551879883 -34.238410949707 -0.289934098720551
vertex 29.8069267272949 -33.3645172119141 -0.263311982154846
vertex 32.498664855957 -34.1427955627441 -0.188987538218498
endloop
endfacet
facet normal 0.214358314871788 0.67384946346283 -0.707090795040131
outer loop
vertex 29.8339366912842 -33.2848358154297 -0.179189845919609
vertex 32.498664855957 -34.1427955627441 -0.188987538218498
vertex 29.8069267272949 -33.3645172119141 -0.263311982154846
endloop
endfacet
facet normal 0.214358314871788 0.67384946346283 -0.707090795040131
outer loop
vertex 29.8339366912842 -33.2848358154297 -0.179189845919609
vertex 29.8069267272949 -33.3645172119141 -0.263311982154846
vertex 27.1692085266113 -32.4268760681152 -0.16939215362072
endloop
endfacet
facet normal 0.214358314871788 0.67384946346283 -0.707090795040131
outer loop
vertex 27.1476001739502 -32.4906196594238 -0.236689865589142
vertex 27.1692085266113 -32.4268760681152 -0.16939215362072
vertex 29.8069267272949 -33.3645172119141 -0.263311982154846
endloop
endfacet
facet normal 0.214358314871788 0.67384946346283 -0.707090795040131
outer loop
vertex 27.1476001739502 -32.4906196594238 -0.236689865589142
vertex 24.4882736206055 -31.6167278289795 -0.210067749023438
vertex 27.1692085266113 -32.4268760681152 -0.16939215362072
endloop
endfacet
facet normal 0.214358329772949 0.673849523067474 -0.707090795040131
outer loop
vertex 24.5044784545898 -31.568920135498 -0.159594461321831
vertex 27.1692085266113 -32.4268760681152 -0.16939215362072
vertex 24.4882736206055 -31.6167278289795 -0.210067749023438
endloop
endfacet
facet normal 0.214358329772949 0.673849523067474 -0.707090795040131
outer loop
vertex 24.5044784545898 -31.568920135498 -0.159594461321831
vertex 24.4882736206055 -31.6167278289795 -0.210067749023438
vertex 21.839750289917 -30.7109603881836 -0.149796769022942
endloop
endfacet
facet normal 0.214358314871788 0.67384946346283 -0.707090795040131
outer loop
vertex 21.8289451599121 -30.7428321838379 -0.183445632457733
vertex 21.839750289917 -30.7109603881836 -0.149796769022942
vertex 24.4882736206055 -31.6167278289795 -0.210067749023438
endloop
endfacet
facet normal 0.214358314871788 0.67384946346283 -0.707090795040131
outer loop
vertex 21.8289451599121 -30.7428321838379 -0.183445632457733
vertex 19.1696186065674 -29.8689384460449 -0.156823515892029
vertex 21.839750289917 -30.7109603881836 -0.149796769022942
endloop
endfacet
facet normal 0.214358314871788 0.67384946346283 -0.707090795040131
outer loop
vertex 19.1750202178955 -29.8530025482178 -0.139999091625214
vertex 21.839750289917 -30.7109603881836 -0.149796769022942
vertex 19.1696186065674 -29.8689384460449 -0.156823515892029
endloop
endfacet
facet normal 0.214358314871788 0.67384946346283 -0.707090795040131
outer loop
vertex 19.1696186065674 -29.8689384460449 -0.156823515892029
vertex 16.5102920532227 -28.995044708252 -0.130201399326324
vertex 19.1750202178955 -29.8530025482178 -0.139999091625214
endloop
endfacet
endsolid COMSOL mesh mesh1
