solid COMSOL mesh mesh1
facet normal -0.0140634933486581 0.999901115894318 0
outer loop
vertex 0 0 0.150000005960464
vertex 0 0 0
vertex -0.955103814601898 -0.0134334247559309 0.150382086634636
endloop
endfacet
facet normal -0.0140634933486581 0.999901056289673 -2.99377541721602e-17
outer loop
vertex -0.955103814601898 -0.0134334247559309 -0.000382079306291416
vertex -0.955103814601898 -0.0134334247559309 0.150382086634636
vertex 0 0 0
endloop
endfacet
facet normal -0.0140634942799807 0.999901175498962 9.11640385306122e-18
outer loop
vertex -2.47659087181091 -0.0348329618573189 -0.000990734319202602
vertex -2.47659087181091 -0.0348329618573189 0.15099073946476
vertex -0.955103814601898 -0.0134334247559309 -0.000382079306291416
endloop
endfacet
facet normal -0.0140634933486581 0.999901115894318 -2.99377508634377e-17
outer loop
vertex -0.955103814601898 -0.0134334247559309 0.150382086634636
vertex -0.955103814601898 -0.0134334247559309 -0.000382079306291416
vertex -2.47659087181091 -0.0348329618573189 0.15099073946476
endloop
endfacet
facet normal -0.0140634933486581 0.999901115894318 9.11640468024183e-18
outer loop
vertex -2.47659087181091 -0.0348329618573189 -0.000990734319202602
vertex -4.90033054351807 -0.0689225792884827 -0.00196032598614693
vertex -2.47659087181091 -0.0348329618573189 0.15099073946476
endloop
endfacet
facet normal -0.0140634924173355 0.999901115894318 -9.00154982500823e-18
outer loop
vertex -4.90033054351807 -0.0689225792884827 0.151960328221321
vertex -2.47659087181091 -0.0348329618573189 0.15099073946476
vertex -4.90033054351807 -0.0689225792884827 -0.00196032598614693
endloop
endfacet
facet normal -0.0140634924173355 0.999901115894318 -3.71851460781358e-16
outer loop
vertex -8.47081470489502 -0.119141027331352 -0.00338866119273007
vertex -8.47081470489502 -0.119141027331352 0.153388664126396
vertex -4.90033054351807 -0.0689225792884827 -0.00196032598614693
endloop
endfacet
facet normal -0.0140634924173355 0.999901115894318 -9.00154982500823e-18
outer loop
vertex -4.90033054351807 -0.0689225792884827 0.151960328221321
vertex -4.90033054351807 -0.0689225792884827 -0.00196032598614693
vertex -8.47081470489502 -0.119141027331352 0.153388664126396
endloop
endfacet
facet normal -0.0140634924173355 0.999901056289673 -4.51757081484201e-16
outer loop
vertex -12.2031688690186 -0.171636164188385 -0.00488175032660365
vertex -12.2031688690186 -0.171636164188385 0.154881745576859
vertex -8.47081470489502 -0.119141027331352 -0.00338866119273007
endloop
endfacet
facet normal -0.0140634924173355 0.999901115894318 -3.71851487251137e-16
outer loop
vertex -8.47081470489502 -0.119141027331352 0.153388664126396
vertex -8.47081470489502 -0.119141027331352 -0.00338866119273007
vertex -12.2031688690186 -0.171636164188385 0.154881745576859
endloop
endfacet
facet normal -0.0140634924173355 0.999901056289673 -4.51757081484201e-16
outer loop
vertex -12.2031688690186 -0.171636164188385 -0.00488175032660365
vertex -15.9355239868164 -0.224131286144257 -0.00637483969330788
vertex -12.2031688690186 -0.171636164188385 0.154881745576859
endloop
endfacet
facet normal -0.0140634933486581 0.999901115894318 -2.55917028969257e-16
outer loop
vertex -15.9355239868164 -0.224131286144257 0.156374841928482
vertex -12.2031688690186 -0.171636164188385 0.154881745576859
vertex -15.9355239868164 -0.224131286144257 -0.00637483969330788
endloop
endfacet
facet normal -0.0140634924173355 0.999901056289673 6.69002503609207e-17
outer loop
vertex -19.6010818481445 -0.275686919689178 -0.00784120801836252
vertex -19.6010818481445 -0.275686919689178 0.157841205596924
vertex -15.9355239868164 -0.224131286144257 -0.00637483969330788
endloop
endfacet
facet normal -0.0140634933486581 0.999901115894318 -2.55917055439037e-16
outer loop
vertex -15.9355239868164 -0.224131286144257 0.156374841928482
vertex -15.9355239868164 -0.224131286144257 -0.00637483969330788
vertex -19.6010818481445 -0.275686919689178 0.157841205596924
endloop
endfacet
facet normal -0.0140634924173355 0.999901115894318 3.30290571614464e-17
outer loop
vertex -22.241060256958 -0.312817931175232 -0.00889730453491211
vertex -22.241060256958 -0.312817931175232 0.158897310495377
vertex -19.6010818481445 -0.275686919689178 -0.00784120801836252
endloop
endfacet
facet normal -0.0140634933486581 0.999901056289673 6.69002569783656e-17
outer loop
vertex -19.6010818481445 -0.275686919689178 0.157841205596924
vertex -19.6010818481445 -0.275686919689178 -0.00784120801836252
vertex -22.241060256958 -0.312817931175232 0.158897310495377
endloop
endfacet
facet normal -0.0140634933486581 0.999901115894318 3.30290604701688e-17
outer loop
vertex -22.241060256958 -0.312817931175232 -0.00889730453491211
vertex -23.9243011474609 -0.336492508649826 -0.00957066658884287
vertex -22.241060256958 -0.312817931175232 0.158897310495377
endloop
endfacet
facet normal -0.0140634933486581 0.999901115894318 3.27660765923811e-17
outer loop
vertex -23.9243011474609 -0.336492508649826 0.159570664167404
vertex -22.241060256958 -0.312817931175232 0.158897310495377
vertex -23.9243011474609 -0.336492508649826 -0.00957066658884287
endloop
endfacet
facet normal -0.0140634933486581 0.999901115894318 3.27660765923811e-17
outer loop
vertex -23.9243011474609 -0.336492508649826 -0.00957066658884287
vertex -24.9975280761719 -0.351587325334549 -0.00999999977648258
vertex -23.9243011474609 -0.336492508649826 0.159570664167404
endloop
endfacet
facet normal -0.0140634933486581 0.999901115894318 0
outer loop
vertex -24.9975280761719 -0.351587325334549 0.159999996423721
vertex -23.9243011474609 -0.336492508649826 0.159570664167404
vertex -24.9975280761719 -0.351587325334549 -0.00999999977648258
endloop
endfacet
facet normal 0.000326792447594926 0.00520741380751133 0.999986410140991
outer loop
vertex -22.454309463501 -2.86629366874695 0.1722641736269
vertex -22.4372119903564 -2.84899759292603 0.172168523073196
vertex -24.9975280761719 -0.351587325334549 0.159999996423721
endloop
endfacet
facet normal 0.000326792447594926 0.00520741380751133 0.999986410140991
outer loop
vertex -19.9110927581787 -5.38100004196167 0.184528365731239
vertex -19.876895904541 -5.34640789031982 0.184337049722672
vertex -22.454309463501 -2.86629366874695 0.1722641736269
endloop
endfacet
facet normal 0.000326792447594926 0.00520741380751133 0.999986410140991
outer loop
vertex -22.4372119903564 -2.84899759292603 0.172168523073196
vertex -22.454309463501 -2.86629366874695 0.1722641736269
vertex -19.876895904541 -5.34640789031982 0.184337049722672
endloop
endfacet
facet normal 0.000326792447594926 0.00520741380751133 0.999986410140991
outer loop
vertex -19.9110927581787 -5.38100004196167 0.184528365731239
vertex -17.3678760528564 -7.89570617675781 0.196792542934418
vertex -19.876895904541 -5.34640789031982 0.184337049722672
endloop
endfacet
facet normal 0.000326792418491095 0.00520741427317262 0.999986410140991
outer loop
vertex -17.3165798187256 -7.84381818771362 0.196505576372147
vertex -19.876895904541 -5.34640789031982 0.184337049722672
vertex -17.3678760528564 -7.89570617675781 0.196792542934418
endloop
endfacet
facet normal 0.000326792447594926 0.00520741380751133 0.999986410140991
outer loop
vertex -14.8246583938599 -10.4104127883911 0.209056720137596
vertex -14.7562646865845 -10.3412284851074 0.208674088120461
vertex -17.3678760528564 -7.89570617675781 0.196792542934418
endloop
endfacet
facet normal 0.000326792418491095 0.00520741427317262 0.999986410140991
outer loop
vertex -17.3165798187256 -7.84381818771362 0.196505576372147
vertex -17.3678760528564 -7.89570617675781 0.196792542934418
vertex -14.7562646865845 -10.3412284851074 0.208674088120461
endloop
endfacet
facet normal 0.000326792447594926 0.00520741380751133 0.999986410140991
outer loop
vertex -14.8246583938599 -10.4104127883911 0.209056720137596
vertex -12.2814407348633 -12.9251184463501 0.221320897340775
vertex -14.7562646865845 -10.3412284851074 0.208674088120461
endloop
endfacet
facet normal 0.000326792418491095 0.00520741380751133 0.999986350536346
outer loop
vertex -12.195948600769 -12.8386392593384 0.220842614769936
vertex -14.7562646865845 -10.3412284851074 0.208674088120461
vertex -12.2814407348633 -12.9251184463501 0.221320897340775
endloop
endfacet
facet normal 0.000326792418491095 0.00520741427317262 0.999986410140991
outer loop
vertex -9.75517749786377 -15.4230613708496 0.233503326773643
vertex -9.65269470214844 -15.3194065093994 0.232930049300194
vertex -12.2814407348633 -12.9251184463501 0.221320897340775
endloop
endfacet
facet normal 0.000326792447594926 0.00520741427317262 0.999986410140991
outer loop
vertex -12.195948600769 -12.8386392593384 0.220842614769936
vertex -12.2814407348633 -12.9251184463501 0.221320897340775
vertex -9.65269470214844 -15.3194065093994 0.232930049300194
endloop
endfacet
facet normal 0.000326792476698756 0.00520741427317262 0.999986410140991
outer loop
vertex -9.75517749786377 -15.4230613708496 0.233503326773643
vertex -8.07789993286133 -17.0815353393555 0.241591662168503
vertex -9.65269470214844 -15.3194065093994 0.232930049300194
endloop
endfacet
facet normal 0.000326792447594926 0.00520741427317262 0.999986410140991
outer loop
vertex -7.96412467956543 -16.9664897918701 0.240955397486687
vertex -9.65269470214844 -15.3194065093994 0.232930049300194
vertex -8.07789993286133 -17.0815353393555 0.241591662168503
endloop
endfacet
facet normal 0.000326792447594926 0.00520741380751133 0.999986410140991
outer loop
vertex -8.07789993286133 -17.0815353393555 0.241591662168503
vertex -7.22059726715088 -17.9292259216309 0.245725840330124
vertex -7.96412467956543 -16.9664897918701 0.240955397486687
endloop
endfacet
facet normal 0.000326792476698756 0.0052074147388339 0.999986410140991
outer loop
vertex -7.10106611251831 -17.8083438873291 0.245057284832001
vertex -7.96412467956543 -16.9664897918701 0.240955397486687
vertex -7.22059726715088 -17.9292259216309 0.245725840330124
endloop
endfacet
facet normal -0.707119941711426 0.00509722158312798 0.707075178623199
outer loop
vertex -16.8248176574707 -0.0748433917760849 -16.8253440856934
vertex -17.6773052215576 -0.0786355957388878 -17.6778583526611
vertex -16.8250484466553 -0.236642360687256 -16.8244094848633
endloop
endfacet
facet normal -0.707120060920715 0.00509722204878926 0.707075178623199
outer loop
vertex -17.6775398254395 -0.248632550239563 -17.6768684387207
vertex -16.8250484466553 -0.236642360687256 -16.8244094848633
vertex -17.6773052215576 -0.0786355957388878 -17.6778583526611
endloop
endfacet
facet normal -0.707120001316071 0.00509722204878926 0.707075178623199
outer loop
vertex -16.8250484466553 -0.236642360687256 -16.8244094848633
vertex -15.1571455001831 -0.213183492422104 -15.156569480896
vertex -16.8248176574707 -0.0748433917760849 -16.8253440856934
endloop
endfacet
facet normal -0.707120001316071 0.00509722204878926 0.707075178623199
outer loop
vertex -15.1569509506226 -0.0674240663647652 -15.1574258804321
vertex -16.8248176574707 -0.0748433917760849 -16.8253440856934
vertex -15.1571455001831 -0.213183492422104 -15.156569480896
endloop
endfacet
facet normal -0.707120060920715 0.00509722251445055 0.707075238227844
outer loop
vertex -15.1569509506226 -0.0674240663647652 -15.1574258804321
vertex -15.1571455001831 -0.213183492422104 -15.156569480896
vertex -12.6448431015015 -0.0562492273747921 -12.6452398300171
endloop
endfacet
facet normal -0.707120001316071 0.00509722204878926 0.707075119018555
outer loop
vertex -12.6450004577637 -0.177850469946861 -12.6445207595825
vertex -12.6448431015015 -0.0562492273747921 -12.6452398300171
vertex -15.1571455001831 -0.213183492422104 -15.156569480896
endloop
endfacet
facet normal -0.707120001316071 0.00509722158312798 0.707075178623199
outer loop
vertex -12.6450004577637 -0.177850469946861 -12.6445207595825
vertex -10.1160011291504 -0.142280369997025 -10.1156167984009
vertex -12.6448431015015 -0.0562492273747921 -12.6452398300171
endloop
endfacet
facet normal -0.707120001316071 0.00509722158312798 0.707075178623199
outer loop
vertex -10.1158742904663 -0.0449993833899498 -10.1161918640137
vertex -12.6448431015015 -0.0562492273747921 -12.6452398300171
vertex -10.1160011291504 -0.142280369997025 -10.1156167984009
endloop
endfacet
facet normal -0.707120001316071 0.00509722158312798 0.707075178623199
outer loop
vertex -10.1158742904663 -0.0449993833899498 -10.1161918640137
vertex -10.1160011291504 -0.142280369997025 -10.1156167984009
vertex -7.58690595626831 -0.0337495356798172 -7.58714389801025
endloop
endfacet
facet normal -0.707119941711426 0.00509722111746669 0.707075119018555
outer loop
vertex -7.58700037002563 -0.106710277497768 -7.58671236038208
vertex -7.58690595626831 -0.0337495356798172 -7.58714389801025
vertex -10.1160011291504 -0.142280369997025 -10.1156167984009
endloop
endfacet
facet normal -0.707119941711426 0.00509722111746669 0.707075119018555
outer loop
vertex -7.58700037002563 -0.106710277497768 -7.58671236038208
vertex -5.0580005645752 -0.0711401849985123 -5.05780839920044
vertex -7.58690595626831 -0.0337495356798172 -7.58714389801025
endloop
endfacet
facet normal -0.707120001316071 0.00509722158312798 0.707075178623199
outer loop
vertex -5.05793714523315 -0.0224996916949749 -5.05809593200684
vertex -7.58690595626831 -0.0337495356798172 -7.58714389801025
vertex -5.0580005645752 -0.0711401849985123 -5.05780839920044
endloop
endfacet
facet normal -0.707120001316071 0.00509722158312798 0.707075178623199
outer loop
vertex -5.05793714523315 -0.0224996916949749 -5.05809593200684
vertex -5.0580005645752 -0.0711401849985123 -5.05780839920044
vertex -2.52896857261658 -0.0112498458474874 -2.52904796600342
endloop
endfacet
facet normal -0.707120001316071 0.00509722158312798 0.707075178623199
outer loop
vertex -2.5290002822876 -0.0355700924992561 -2.52890419960022
vertex -2.52896857261658 -0.0112498458474874 -2.52904796600342
vertex -5.0580005645752 -0.0711401849985123 -5.05780839920044
endloop
endfacet
facet normal -0.707120001316071 0.00509722158312798 0.707075178623199
outer loop
vertex -2.52896857261658 -0.0112498458474874 -2.52904796600342
vertex -2.5290002822876 -0.0355700924992561 -2.52890419960022
vertex 0 0 0
endloop
endfacet
facet normal 0.707088351249695 0.00651118811219931 -0.707095205783844
outer loop
vertex -0.148049965500832 -0.000658584351185709 -0.148054599761963
vertex 0 0 0
vertex -0.147775396704674 -0.0318298898637295 -0.148067072033882
endloop
endfacet
facet normal 0.70708841085434 0.00651118857786059 -0.707095205783844
outer loop
vertex 0.000264242757111788 -0.0299988333135843 -1.19998812806443e-05
vertex -0.147775396704674 -0.0318298898637295 -0.148067072033882
vertex 0 0 0
endloop
endfacet
facet normal 0.70708841085434 0.00651118811219931 -0.707095205783844
outer loop
vertex -0.147775396704674 -0.0318298898637295 -0.148067072033882
vertex -0.391920387744904 -0.0348496399819851 -0.392237514257431
vertex -0.148049965500832 -0.000658584351185709 -0.148054599761963
endloop
endfacet
facet normal 0.707088351249695 0.00651118811219931 -0.707095205783844
outer loop
vertex -0.392212003469467 -0.00174471293576062 -0.392224282026291
vertex -0.148049965500832 -0.000658584351185709 -0.148054599761963
vertex -0.391920387744904 -0.0348496399819851 -0.392237514257431
endloop
endfacet
facet normal 0.707088351249695 0.00651118811219931 -0.707095146179199
outer loop
vertex -0.79488080739975 -0.00353594194166362 -0.794905722141266
vertex -0.392212003469467 -0.00174471293576062 -0.392224282026291
vertex -0.794561088085175 -0.0398297719657421 -0.794920206069946
endloop
endfacet
facet normal 0.70708841085434 0.00651118764653802 -0.707095146179199
outer loop
vertex -0.391920387744904 -0.0348496399819851 -0.392237514257431
vertex -0.794561088085175 -0.0398297719657421 -0.794920206069946
vertex -0.392212003469467 -0.00174471293576062 -0.392224282026291
endloop
endfacet
facet normal 0.70708841085434 0.00651118857786059 -0.707095265388489
outer loop
vertex -0.79488080739975 -0.00353594194166362 -0.794905722141266
vertex -0.794561088085175 -0.0398297719657421 -0.794920206069946
vertex -1.45895683765411 -0.00649001263082027 -1.45900249481201
endloop
endfacet
facet normal 0.707088351249695 0.00651118857786059 -0.707095205783844
outer loop
vertex -1.45859086513519 -0.0480429381132126 -1.45901918411255
vertex -1.45895683765411 -0.00649001263082027 -1.45900249481201
vertex -0.794561088085175 -0.0398297719657421 -0.794920206069946
endloop
endfacet
facet normal 0.70708841085434 0.00651118811219931 -0.707095205783844
outer loop
vertex -2.55414223670959 -0.0113618271425366 -2.55422234535217
vertex -1.45895683765411 -0.00649001263082027 -1.45900249481201
vertex -2.55369973182678 -0.0615879856050014 -2.55424237251282
endloop
endfacet
facet normal 0.70708841085434 0.00651118857786059 -0.707095265388489
outer loop
vertex -1.45859086513519 -0.0480429381132126 -1.45901918411255
vertex -2.55369973182678 -0.0615879856050014 -2.55424237251282
vertex -1.45895683765411 -0.00649001263082027 -1.45900249481201
endloop
endfacet
facet normal 0.707088351249695 0.00651118811219931 -0.707095146179199
outer loop
vertex -2.55414223670959 -0.0113618271425366 -2.55422234535217
vertex -2.55369973182678 -0.0615879856050014 -2.55424237251282
vertex -4.36030769348145 -0.0193963591009378 -4.36044406890869
endloop
endfacet
facet normal 0.70708841085434 0.00651118811219931 -0.707095146179199
outer loop
vertex -4.35973930358887 -0.083926297724247 -4.36046981811523
vertex -4.36030769348145 -0.0193963591009378 -4.36044406890869
vertex -2.55369973182678 -0.0615879856050014 -2.55424237251282
endloop
endfacet
facet normal 0.70708841085434 0.00651118857786059 -0.707095205783844
outer loop
vertex -6.84589195251465 -0.0304532144218683 -6.84610605239868
vertex -4.36030769348145 -0.0193963591009378 -4.36044406890869
vertex -6.84514999389648 -0.114667542278767 -6.84613990783691
endloop
endfacet
facet normal 0.70708841085434 0.00651118811219931 -0.707095205783844
outer loop
vertex -4.35973930358887 -0.083926297724247 -4.36046981811523
vertex -6.84514999389648 -0.114667542278767 -6.84613990783691
vertex -4.36030769348145 -0.0193963591009378 -4.36044406890869
endloop
endfacet
facet normal 0.70708841085434 0.00651118811219931 -0.707095205783844
outer loop
vertex -6.84589195251465 -0.0304532144218683 -6.84610605239868
vertex -6.84514999389648 -0.114667542278767 -6.84613990783691
vertex -9.34267616271973 -0.0415598936378956 -9.34296894073486
endloop
endfacet
facet normal 0.70708841085434 0.00651118811219931 -0.707095146179199
outer loop
vertex -9.34176063537598 -0.145547315478325 -9.34301090240479
vertex -9.34267616271973 -0.0415598936378956 -9.34296894073486
vertex -6.84514999389648 -0.114667542278767 -6.84613990783691
endloop
endfacet
facet normal 0.70708841085434 0.00651118811219931 -0.707095146179199
outer loop
vertex -9.34267616271973 -0.0415598936378956 -9.34296894073486
vertex -9.34176063537598 -0.145547315478325 -9.34301090240479
vertex -11.8394613265991 -0.0526665709912777 -11.8398323059082
endloop
endfacet
facet normal 0.70708841085434 0.00651118857786059 -0.707095205783844
outer loop
vertex -11.8383712768555 -0.176427081227303 -11.8398818969727
vertex -11.8394613265991 -0.0526665709912777 -11.8398323059082
vertex -9.34176063537598 -0.145547315478325 -9.34301090240479
endloop
endfacet
facet normal 0.707088351249695 0.00651118811219931 -0.707095205783844
outer loop
vertex -11.8394613265991 -0.0526665709912777 -11.8398323059082
vertex -11.8383712768555 -0.176427081227303 -11.8398818969727
vertex -14.1967725753784 -0.0631528198719025 -14.1972169876099
endloop
endfacet
facet normal 0.707088351249695 0.00651118857786059 -0.707095205783844
outer loop
vertex -14.195517539978 -0.205581858754158 -14.1972742080688
vertex -14.1967725753784 -0.0631528198719025 -14.1972169876099
vertex -11.8383712768555 -0.176427081227303 -11.8398818969727
endloop
endfacet
facet normal 0.707088351249695 0.00651118811219931 -0.707095205783844
outer loop
vertex -15.8421602249146 -0.0704721510410309 -15.8426570892334
vertex -14.1967725753784 -0.0631528198719025 -14.1972169876099
vertex -15.8407917022705 -0.225931718945503 -15.842719078064
endloop
endfacet
facet normal 0.707088351249695 0.00651118857786059 -0.707095205783844
outer loop
vertex -14.195517539978 -0.205581858754158 -14.1972742080688
vertex -15.8407917022705 -0.225931718945503 -15.842719078064
vertex -14.1967725753784 -0.0631528198719025 -14.1972169876099
endloop
endfacet
facet normal 0.70708841085434 0.00651118857786059 -0.707095205783844
outer loop
vertex -16.9420852661133 -0.0753650516271591 -16.9426174163818
vertex -15.8421602249146 -0.0704721510410309 -15.8426570892334
vertex -16.9406394958496 -0.239535376429558 -16.9426822662354
endloop
endfacet
facet normal 0.707088351249695 0.00651118811219931 -0.707095205783844
outer loop
vertex -15.8407917022705 -0.225931718945503 -15.842719078064
vertex -16.9406394958496 -0.239535376429558 -16.9426822662354
vertex -15.8421602249146 -0.0704721510410309 -15.8426570892334
endloop
endfacet
facet normal 0.707088351249695 0.00651118811219931 -0.707095146179199
outer loop
vertex -16.9420852661133 -0.0753650516271591 -16.9426174163818
vertex -16.9406394958496 -0.239535376429558 -16.9426822662354
vertex -17.6773738861084 -0.0786359012126923 -17.6779289245605
endloop
endfacet
facet normal 0.707088351249695 0.00651118811219931 -0.707095205783844
outer loop
vertex -17.6758766174316 -0.248629286885262 -17.6779956817627
vertex -17.6773738861084 -0.0786359012126923 -17.6779289245605
vertex -16.9406394958496 -0.239535376429558 -16.9426822662354
endloop
endfacet
facet normal -0.32136070728302 -0.946956872940063 -0
outer loop
vertex -3.17114472389221 -28.3499870300293 0.0900000035762787
vertex -3.17114472389221 -28.3499870300293 0.0599999986588955
vertex -2.9728729724884 -28.417272567749 0.0905862599611282
endloop
endfacet
facet normal -0.32136070728302 -0.946956813335419 -2.11270101890468e-13
outer loop
vertex -2.9728729724884 -28.417272567749 0.0594137422740459
vertex -2.9728729724884 -28.417272567749 0.0905862599611282
vertex -3.17114472389221 -28.3499870300293 0.0599999986588955
endloop
endfacet
facet normal -0.321360677480698 -0.946956813335419 -2.11270074785413e-13
outer loop
vertex -2.9728729724884 -28.417272567749 0.0905862599611282
vertex -2.9728729724884 -28.417272567749 0.0594137422740459
vertex -2.64588594436646 -28.5282402038574 0.0915531069040298
endloop
endfacet
facet normal -0.32136070728302 -0.946956872940063 1.05931160111067e-13
outer loop
vertex -2.64588594436646 -28.5282402038574 0.0584468953311443
vertex -2.64588594436646 -28.5282402038574 0.0915531069040298
vertex -2.9728729724884 -28.417272567749 0.0594137422740459
endloop
endfacet
facet normal -0.32136070728302 -0.946956872940063 1.05931160111067e-13
outer loop
vertex -2.64588594436646 -28.5282402038574 0.0915531069040298
vertex -2.64588594436646 -28.5282402038574 0.0584468953311443
vertex -2.10662317276001 -28.7112445831299 0.0931476205587387
endloop
endfacet
facet normal -0.321360737085342 -0.946956872940063 -8.4827686595932e-14
outer loop
vertex -2.10662317276001 -28.7112445831299 0.0568523816764355
vertex -2.10662317276001 -28.7112445831299 0.0931476205587387
vertex -2.64588594436646 -28.5282402038574 0.0584468953311443
endloop
endfacet
facet normal -0.32136070728302 -0.946956813335419 -3.26263233823339e-14
outer loop
vertex -1.21727812290192 -29.013053894043 0.0957772731781006
vertex -2.10662317276001 -28.7112445831299 0.0931476205587387
vertex -1.21727812290192 -29.013053894043 0.0542227290570736
endloop
endfacet
facet normal -0.321360737085342 -0.946956872940063 -8.48276798196684e-14
outer loop
vertex -2.10662317276001 -28.7112445831299 0.0568523816764355
vertex -1.21727812290192 -29.013053894043 0.0542227290570736
vertex -2.10662317276001 -28.7112445831299 0.0931476205587387
endloop
endfacet
facet normal -0.321360737085342 -0.946956932544708 -3.26263233823339e-14
outer loop
vertex -1.21727812290192 -29.013053894043 0.0957772731781006
vertex -1.21727812290192 -29.013053894043 0.0542227290570736
vertex 0.249417796730995 -29.5107936859131 0.100114054977894
endloop
endfacet
facet normal -0.32136070728302 -0.946956813335419 -2.14872844723265e-14
outer loop
vertex 0.249417796730995 -29.5107936859131 0.0498859435319901
vertex 0.249417796730995 -29.5107936859131 0.100114054977894
vertex -1.21727812290192 -29.013053894043 0.0542227290570736
endloop
endfacet
facet normal -0.32136070728302 -0.946956813335419 3.88640061430544e-14
outer loop
vertex 2.66827321052551 -30.3316612243652 0.10726622492075
vertex 0.249417796730995 -29.5107936859131 0.100114054977894
vertex 2.66827321052551 -30.3316612243652 0.0427337735891342
endloop
endfacet
facet normal -0.32136070728302 -0.946956872940063 -2.14872844723265e-14
outer loop
vertex 0.249417796730995 -29.5107936859131 0.0498859435319901
vertex 2.66827321052551 -30.3316612243652 0.0427337735891342
vertex 0.249417796730995 -29.5107936859131 0.100114054977894
endloop
endfacet
facet normal -0.32136070728302 -0.946956813335419 3.88640061430544e-14
outer loop
vertex 2.66827321052551 -30.3316612243652 0.10726622492075
vertex 2.66827321052551 -30.3316612243652 0.0427337735891342
vertex 5.99702167510986 -31.4613094329834 0.117108799517155
endloop
endfacet
facet normal -0.32136070728302 -0.946956813335419 8.66729106020758e-14
outer loop
vertex 5.99702167510986 -31.4613094329834 0.0328911989927292
vertex 5.99702167510986 -31.4613094329834 0.117108799517155
vertex 2.66827321052551 -30.3316612243652 0.0427337735891342
endloop
endfacet
facet normal -0.32136070728302 -0.946956872940063 1.0978810769573e-14
outer loop
vertex 9.34076976776123 -32.5960502624512 0.126995727419853
vertex 5.99702167510986 -31.4613094329834 0.117108799517155
vertex 9.34076976776123 -32.5960502624512 0.0230042710900307
endloop
endfacet
facet normal -0.32136070728302 -0.946956872940063 8.66729038258122e-14
outer loop
vertex 5.99702167510986 -31.4613094329834 0.0328911989927292
vertex 9.34076976776123 -32.5960502624512 0.0230042710900307
vertex 5.99702167510986 -31.4613094329834 0.117108799517155
endloop
endfacet
facet normal -0.32136070728302 -0.946956872940063 1.0978810769573e-14
outer loop
vertex 9.34076976776123 -32.5960502624512 0.126995727419853
vertex 9.34076976776123 -32.5960502624512 0.0230042710900307
vertex 12.6845178604126 -33.7307891845703 0.136882662773132
endloop
endfacet
facet normal -0.32136070728302 -0.946956872940063 1.84494770399642e-14
outer loop
vertex 12.6845178604126 -33.7307891845703 0.0131173422560096
vertex 12.6845178604126 -33.7307891845703 0.136882662773132
vertex 9.34076976776123 -32.5960502624512 0.0230042710900307
endloop
endfacet
facet normal -0.32136070728302 -0.946956872940063 -3.92238359034434e-14
outer loop
vertex 15.8414793014526 -34.8021392822266 0.146217286586761
vertex 12.6845178604126 -33.7307891845703 0.136882662773132
vertex 15.8414793014526 -34.8021392822266 0.00378271099179983
endloop
endfacet
facet normal -0.32136070728302 -0.946956872940063 1.84494753458983e-14
outer loop
vertex 12.6845178604126 -33.7307891845703 0.0131173422560096
vertex 15.8414793014526 -34.8021392822266 0.00378271099179983
vertex 12.6845178604126 -33.7307891845703 0.136882662773132
endloop
endfacet
facet normal -0.321360737085342 -0.946956872940063 -3.92238392915752e-14
outer loop
vertex 15.8414793014526 -34.8021392822266 0.146217286586761
vertex 15.8414793014526 -34.8021392822266 0.00378271099179983
vertex 18.0450191497803 -35.549934387207 0.15273280441761
endloop
endfacet
facet normal -0.321360737085342 -0.946956932544708 -4.32798836645567e-14
outer loop
vertex 18.0450191497803 -35.549934387207 -0.00273280264809728
vertex 18.0450191497803 -35.549934387207 0.15273280441761
vertex 15.8414793014526 -34.8021392822266 0.00378271099179983
endloop
endfacet
facet normal -0.32136070728302 -0.946956872940063 -6.18458057119117e-14
outer loop
vertex 19.5180625915527 -36.0498313903809 -0.00708835665136576
vertex 19.5180625915527 -36.0498313903809 0.157088354229927
vertex 18.0450191497803 -35.549934387207 -0.00273280264809728
endloop
endfacet
facet normal -0.32136070728302 -0.946956813335419 -4.32798836645567e-14
outer loop
vertex 18.0450191497803 -35.549934387207 0.15273280441761
vertex 18.0450191497803 -35.549934387207 -0.00273280264809728
vertex 19.5180625915527 -36.0498313903809 0.157088354229927
endloop
endfacet
facet normal -0.32136070728302 -0.946956872940063 -6.18458057119117e-14
outer loop
vertex 19.5180625915527 -36.0498313903809 -0.00708835665136576
vertex 20.5027770996094 -36.3840026855469 -0.00999999977648258
vertex 19.5180625915527 -36.0498313903809 0.157088354229927
endloop
endfacet
facet normal -0.32136070728302 -0.946956813335419 -0
outer loop
vertex 20.5027770996094 -36.3840026855469 0.159999996423721
vertex 19.5180625915527 -36.0498313903809 0.157088354229927
vertex 20.5027770996094 -36.3840026855469 -0.00999999977648258
endloop
endfacet
facet normal 0.00721725495532155 -0.00240741320885718 0.999971091747284
outer loop
vertex -3.17114472389221 -28.3499870300293 0.0599999986588955
vertex -2.26517367362976 -28.652587890625 0.0527326799929142
vertex -3.12368106842041 -28.2076950073242 0.0599999986588955
endloop
endfacet
facet normal 0.00721725495532155 -0.00240741320885718 0.999971151351929
outer loop
vertex -2.21746826171875 -28.5095710754395 0.0527326799929142
vertex -3.12368106842041 -28.2076950073242 0.0599999986588955
vertex -2.26517367362976 -28.652587890625 0.0527326799929142
endloop
endfacet
facet normal 0.00721725448966026 -0.00240741297602654 0.999971091747284
outer loop
vertex -0.773864984512329 -28.9904632568359 0.0411557890474796
vertex -2.21746826171875 -28.5095710754395 0.0527326799929142
vertex -0.821955621242523 -29.134635925293 0.0411557890474796
endloop
endfacet
facet normal 0.00721725448966026 -0.00240741274319589 0.999971032142639
outer loop
vertex -2.26517367362976 -28.652587890625 0.0527326799929142
vertex -0.821955621242523 -29.134635925293 0.0411557890474796
vertex -2.21746826171875 -28.5095710754395 0.0527326799929142
endloop
endfacet
facet normal 0.00721725495532155 -0.00240741297602654 0.999971091747284
outer loop
vertex -0.773864984512329 -28.9904632568359 0.0411557890474796
vertex -0.821955621242523 -29.134635925293 0.0411557890474796
vertex 1.52580511569977 -29.7565269470215 0.0227137170732021
endloop
endfacet
facet normal 0.00721725448966026 -0.00240741274319589 0.999971032142639
outer loop
vertex 1.4771009683609 -29.9025382995605 0.0227137170732021
vertex 1.52580511569977 -29.7565269470215 0.0227137170732021
vertex -0.821955621242523 -29.134635925293 0.0411557890474796
endloop
endfacet
facet normal 0.00721725495532155 -0.00240741297602654 0.999971032142639
outer loop
vertex 1.4771009683609 -29.9025382995605 0.0227137170732021
vertex 4.86391067504883 -31.0337600708008 -0.00445385742932558
vertex 1.52580511569977 -29.7565269470215 0.0227137170732021
endloop
endfacet
facet normal 0.00721725448966026 -0.00240741274319589 0.999971032142639
outer loop
vertex 4.91351890563965 -30.8850383758545 -0.00445385742932558
vertex 1.52580511569977 -29.7565269470215 0.0227137170732021
vertex 4.86391067504883 -31.0337600708008 -0.00445385742932558
endloop
endfacet
facet normal 0.00721725448966026 -0.00240741274319589 0.999971032142639
outer loop
vertex 8.4548168182373 -32.0647125244141 -0.0328530892729759
vertex 4.91351890563965 -30.8850383758545 -0.00445385742932558
vertex 8.40426349639893 -32.2162666320801 -0.0328530892729759
endloop
endfacet
facet normal 0.00721725402399898 -0.00240741297602654 0.999971091747284
outer loop
vertex 4.86391067504883 -31.0337600708008 -0.00445385742932558
vertex 8.40426349639893 -32.2162666320801 -0.0328530892729759
vertex 4.91351890563965 -30.8850383758545 -0.00445385742932558
endloop
endfacet
facet normal 0.00721725448966026 -0.00240741274319589 0.999971032142639
outer loop
vertex 8.4548168182373 -32.0647125244141 -0.0328530892729759
vertex 8.40426349639893 -32.2162666320801 -0.0328530892729759
vertex 11.996114730835 -33.244384765625 -0.0612523183226585
endloop
endfacet
facet normal 0.00721725495532155 -0.00240741297602654 0.999971032142639
outer loop
vertex 11.944616317749 -33.3987731933594 -0.0612523183226585
vertex 11.996114730835 -33.244384765625 -0.0612523183226585
vertex 8.40426349639893 -32.2162666320801 -0.0328530892729759
endloop
endfacet
facet normal 0.00721725495532155 -0.00240741320885718 0.999971151351929
outer loop
vertex 11.996114730835 -33.244384765625 -0.0612523183226585
vertex 11.944616317749 -33.3987731933594 -0.0612523183226585
vertex 15.4740352630615 -34.402946472168 -0.0891432985663414
endloop
endfacet
facet normal 0.00721725448966026 -0.00240741274319589 0.999971032142639
outer loop
vertex 15.4216089248657 -34.560115814209 -0.0891432985663414
vertex 15.4740352630615 -34.402946472168 -0.0891432985663414
vertex 11.944616317749 -33.3987731933594 -0.0612523183226585
endloop
endfacet
facet normal 0.00721725402399898 -0.00240741297602654 0.999971091747284
outer loop
vertex 17.9788761138916 -35.2373580932617 -0.109230726957321
vertex 15.4740352630615 -34.402946472168 -0.0891432985663414
vertex 17.92578125 -35.3965301513672 -0.109230726957321
endloop
endfacet
facet normal 0.00721725448966026 -0.00240741274319589 0.999971032142639
outer loop
vertex 15.4216089248657 -34.560115814209 -0.0891432985663414
vertex 17.92578125 -35.3965301513672 -0.109230726957321
vertex 15.4740352630615 -34.402946472168 -0.0891432985663414
endloop
endfacet
facet normal 0.00721725495532155 -0.00240741320885718 0.999971091747284
outer loop
vertex 17.9788761138916 -35.2373580932617 -0.109230726957321
vertex 17.92578125 -35.3965301513672 -0.109230726957321
vertex 19.5759525299072 -35.7693748474121 -0.122038386762142
endloop
endfacet
facet normal 0.00721725402399898 -0.00240741274319589 0.999971032142639
outer loop
vertex 19.5224323272705 -35.9298248291016 -0.122038386762142
vertex 19.5759525299072 -35.7693748474121 -0.122038386762142
vertex 17.92578125 -35.3965301513672 -0.109230726957321
endloop
endfacet
facet normal 0.00721725402399898 -0.00240741274319589 0.999971032142639
outer loop
vertex 19.5759525299072 -35.7693748474121 -0.122038386762142
vertex 19.5224323272705 -35.9298248291016 -0.122038386762142
vertex 20.5942401885986 -36.108585357666 -0.130204498767853
endloop
endfacet
facet normal 0.00721725495532155 -0.00240741297602654 0.999971091747284
outer loop
vertex 20.5404491424561 -36.2698516845703 -0.130204498767853
vertex 20.5942401885986 -36.108585357666 -0.130204498767853
vertex 19.5224323272705 -35.9298248291016 -0.122038386762142
endloop
endfacet
facet normal -0.229113921523094 -0.668971538543701 -0.707095444202423
outer loop
vertex 20.5409965515137 -36.2700309753418 -0.130209758877754
vertex 20.5026836395264 -36.3839721679688 -0.00999877601861954
vertex 19.3974761962891 -35.8880882263184 -0.121036879718304
endloop
endfacet
facet normal -0.229113921523094 -0.668971478939056 -0.707095444202423
outer loop
vertex 19.3610000610352 -35.9965286254883 -0.00662304507568479
vertex 19.3974761962891 -35.8880882263184 -0.121036879718304
vertex 20.5026836395264 -36.3839721679688 -0.00999877601861954
endloop
endfacet
facet normal -0.229113921523094 -0.668971538543701 -0.707095444202423
outer loop
vertex 19.3974761962891 -35.8880882263184 -0.121036879718304
vertex 19.3610000610352 -35.9965286254883 -0.00662304507568479
vertex 17.1601829528809 -35.1408157348633 -0.103090167045593
endloop
endfacet
facet normal -0.229113921523094 -0.668971478939056 -0.707095503807068
outer loop
vertex 17.1273422241211 -35.2385139465332 -1.85670523933368e-05
vertex 17.1601829528809 -35.1408157348633 -0.103090167045593
vertex 19.3610000610352 -35.9965286254883 -0.00662304507568479
endloop
endfacet
facet normal -0.229113906621933 -0.668971478939056 -0.707095444202423
outer loop
vertex 17.1273422241211 -35.2385139465332 -1.85670523933368e-05
vertex 13.7630767822266 -34.096809387207 0.00992889516055584
vertex 17.1601829528809 -35.1408157348633 -0.103090167045593
endloop
endfacet
facet normal -0.229113936424255 -0.668971478939056 -0.707095444202423
outer loop
vertex 13.7904672622681 -34.0153007507324 -0.0760595947504044
vertex 17.1601829528809 -35.1408157348633 -0.103090167045593
vertex 13.7630767822266 -34.096809387207 0.00992889516055584
endloop
endfacet
facet normal -0.229113906621933 -0.668971478939056 -0.707095444202423
outer loop
vertex 13.7904672622681 -34.0153007507324 -0.0760595947504044
vertex 13.7630767822266 -34.096809387207 0.00992889516055584
vertex 10.3981447219849 -32.8822402954102 -0.0488476753234863
endloop
endfacet
facet normal -0.229113906621933 -0.668971538543701 -0.707095444202423
outer loop
vertex 10.3762321472168 -32.9474449157715 0.0199431162327528
vertex 10.3981447219849 -32.8822402954102 -0.0488476753234863
vertex 13.7630767822266 -34.096809387207 0.00992889516055584
endloop
endfacet
facet normal -0.229113906621933 -0.668971538543701 -0.707095444202423
outer loop
vertex 10.3762321472168 -32.9474449157715 0.0199431162327528
vertex 6.98938798904419 -31.7980804443359 0.0299573373049498
vertex 10.3981447219849 -32.8822402954102 -0.0488476753234863
endloop
endfacet
facet normal -0.229113921523094 -0.668971478939056 -0.707095444202423
outer loop
vertex 7.00582265853882 -31.7491760253906 -0.0216357558965683
vertex 10.3981447219849 -32.8822402954102 -0.0488476753234863
vertex 6.98938798904419 -31.7980804443359 0.0299573373049498
endloop
endfacet
facet normal -0.229113921523094 -0.668971478939056 -0.707095444202423
outer loop
vertex 7.00582265853882 -31.7491760253906 -0.0216357558965683
vertex 6.98938798904419 -31.7980804443359 0.0299573373049498
vertex 3.61350011825562 -30.6161136627197 0.00557616259902716
endloop
endfacet
facet normal -0.229113906621933 -0.668971538543701 -0.707095444202423
outer loop
vertex 3.60254383087158 -30.6487159729004 0.0399715565145016
vertex 3.61350011825562 -30.6161136627197 0.00557616259902716
vertex 6.98938798904419 -31.7980804443359 0.0299573373049498
endloop
endfacet
facet normal -0.229113906621933 -0.668971538543701 -0.707095444202423
outer loop
vertex 3.60254383087158 -30.6487159729004 0.0399715565145016
vertex 0.215699583292007 -29.4993515014648 0.0499857775866985
vertex 3.61350011825562 -30.6161136627197 0.00557616259902716
endloop
endfacet
facet normal -0.229113906621933 -0.668971538543701 -0.707095444202423
outer loop
vertex 0.221177771687508 -29.4830493927002 0.0327880829572678
vertex 3.61350011825562 -30.6161136627197 0.00557616259902716
vertex 0.215699583292007 -29.4993515014648 0.0499857775866985
endloop
endfacet
facet normal -0.229113906621933 -0.668971538543701 -0.707095444202423
outer loop
vertex 0.215699583292007 -29.4993515014648 0.0499857775866985
vertex -3.17114472389221 -28.3499870300293 0.0599999986588955
vertex 0.221177771687508 -29.4830493927002 0.0327880829572678
endloop
endfacet
facet normal -0.948523938655853 0.316392987966537 0.0140634933486581
outer loop
vertex -2.84078693389893 -28.470724105835 25.0875282287598
vertex -2.78699469566345 -28.3094596862793 25.0875282287598
vertex -2.8549702167511 -28.465539932251 24.0143013000488
endloop
endfacet
facet normal -0.948523938655853 0.31639301776886 0.0140634933486581
outer loop
vertex -2.8014497756958 -28.3050899505615 24.0143013000488
vertex -2.8549702167511 -28.465539932251 24.0143013000488
vertex -2.78699469566345 -28.3094596862793 25.0875282287598
endloop
endfacet
facet normal -0.948523938655853 0.31639301776886 0.0140634933486581
outer loop
vertex -2.8549702167511 -28.465539932251 24.0143013000488
vertex -2.8014497756958 -28.3050899505615 24.0143013000488
vertex -2.87721538543701 -28.4574108123779 22.3310604095459
endloop
endfacet
facet normal -0.948523938655853 0.31639301776886 0.0140634933486581
outer loop
vertex -2.82412099838257 -28.2982368469238 22.3310604095459
vertex -2.87721538543701 -28.4574108123779 22.3310604095459
vertex -2.8014497756958 -28.3050899505615 24.0143013000488
endloop
endfacet
facet normal -0.948523938655853 0.316392987966537 0.0140634924173355
outer loop
vertex -2.82412099838257 -28.2982368469238 22.3310604095459
vertex -2.85967826843262 -28.2874889373779 19.6910820007324
vertex -2.87721538543701 -28.4574108123779 22.3310604095459
endloop
endfacet
facet normal -0.948523998260498 0.31639301776886 0.0140634942799807
outer loop
vertex -2.91210412979126 -28.4446582794189 19.6910820007324
vertex -2.87721538543701 -28.4574108123779 22.3310604095459
vertex -2.85967826843262 -28.2874889373779 19.6910820007324
endloop
endfacet
facet normal -0.948523938655853 0.31639301776886 0.0140634924173355
outer loop
vertex -2.91210412979126 -28.4446582794189 19.6910820007324
vertex -2.85967826843262 -28.2874889373779 19.6910820007324
vertex -2.96054697036743 -28.4269542694092 16.0255241394043
endloop
endfacet
facet normal -0.948523998260498 0.316392987966537 0.0140634933486581
outer loop
vertex -2.90904879570007 -28.2725677490234 16.0255241394043
vertex -2.96054697036743 -28.4269542694092 16.0255241394043
vertex -2.85967826843262 -28.2874889373779 19.6910820007324
endloop
endfacet
facet normal -0.948523938655853 0.316392987966537 0.0140634933486581
outer loop
vertex -2.96054697036743 -28.4269542694092 16.0255241394043
vertex -2.90904879570007 -28.2725677490234 16.0255241394043
vertex -3.00987219810486 -28.4089279174805 12.2931690216064
endloop
endfacet
facet normal -0.948523998260498 0.31639301776886 0.0140634933486581
outer loop
vertex -2.95931911468506 -28.2573738098145 12.2931690216064
vertex -3.00987219810486 -28.4089279174805 12.2931690216064
vertex -2.90904879570007 -28.2725677490234 16.0255241394043
endloop
endfacet
facet normal -0.948523998260498 0.31639301776886 0.0140634933486581
outer loop
vertex -2.95931911468506 -28.2573738098145 12.2931690216064
vertex -3.00958943367004 -28.2421779632568 8.56081485748291
vertex -3.00987219810486 -28.4089279174805 12.2931690216064
endloop
endfacet
facet normal -0.948523938655853 0.316392987966537 0.0140634924173355
outer loop
vertex -3.05919766426086 -28.3908996582031 8.56081485748291
vertex -3.00987219810486 -28.4089279174805 12.2931690216064
vertex -3.00958943367004 -28.2421779632568 8.56081485748291
endloop
endfacet
facet normal -0.948523938655853 0.316392987966537 0.0140634924173355
outer loop
vertex -3.00958943367004 -28.2421779632568 8.56081485748291
vertex -3.05767941474915 -28.2276439666748 4.99033069610596
vertex -3.05919766426086 -28.3908996582031 8.56081485748291
endloop
endfacet
facet normal -0.948523879051208 0.316392958164215 0.0140634914860129
outer loop
vertex -3.10638380050659 -28.3736553192139 4.99033069610596
vertex -3.05919766426086 -28.3908996582031 8.56081485748291
vertex -3.05767941474915 -28.2276439666748 4.99033069610596
endloop
endfacet
facet normal -0.948523938655853 0.316392987966537 0.0140634924173355
outer loop
vertex -3.10638380050659 -28.3736553192139 4.99033069610596
vertex -3.05767941474915 -28.2276439666748 4.99033069610596
vertex -3.13841485977173 -28.3619480133057 2.5665910243988
endloop
endfacet
facet normal -0.948523998260498 0.31639301776886 0.0140634933486581
outer loop
vertex -3.09032440185547 -28.2177772521973 2.5665910243988
vertex -3.13841485977173 -28.3619480133057 2.5665910243988
vertex -3.05767941474915 -28.2276439666748 4.99033069610596
endloop
endfacet
facet normal -0.948523998260498 0.31639301776886 0.0140634942799807
outer loop
vertex -3.09032440185547 -28.2177772521973 2.5665910243988
vertex -3.11081695556641 -28.2115821838379 1.04510378837585
vertex -3.13841485977173 -28.3619480133057 2.5665910243988
endloop
endfacet
facet normal -0.948523938655853 0.316392987966537 0.0140634924173355
outer loop
vertex -3.15852236747742 -28.3545989990234 1.04510378837585
vertex -3.13841485977173 -28.3619480133057 2.5665910243988
vertex -3.11081695556641 -28.2115821838379 1.04510378837585
endloop
endfacet
facet normal -0.948523998260498 0.316392987966537 0.0140634933486581
outer loop
vertex -3.11081695556641 -28.2115821838379 1.04510378837585
vertex -3.12368106842041 -28.2076950073242 0.0900000035762787
vertex -3.15852236747742 -28.3545989990234 1.04510378837585
endloop
endfacet
facet normal -0.948523938655853 0.316392987966537 0.0140634933486581
outer loop
vertex -3.17114472389221 -28.3499870300293 0.0900000035762787
vertex -3.15852236747742 -28.3545989990234 1.04510378837585
vertex -3.12368106842041 -28.2076950073242 0.0900000035762787
endloop
endfacet
facet normal 0.217565461993217 0.672823369503021 -0.707088351249695
outer loop
vertex 2.70592069625854 -11.5167055130005 17.7658767700195
vertex 2.46462273597717 -12.2113599777222 17.0306396484375
vertex 2.54464030265808 -11.4629793167114 17.7673740386963
endloop
endfacet
facet normal 0.217565476894379 0.672823309898376 -0.707088351249695
outer loop
vertex 2.30886697769165 -12.1594743728638 17.0320854187012
vertex 2.54464030265808 -11.4629793167114 17.7673740386963
vertex 2.46462273597717 -12.2113599777222 17.0306396484375
endloop
endfacet
facet normal 0.217565476894379 0.672823369503021 -0.70708841085434
outer loop
vertex 2.30886697769165 -12.1594743728638 17.0320854187012
vertex 2.46462273597717 -12.2113599777222 17.0306396484375
vertex 1.95617163181305 -13.2013673782349 15.9321603775024
endloop
endfacet
facet normal 0.217565461993217 0.672823369503021 -0.70708841085434
outer loop
vertex 2.10366296768188 -13.2504997253418 15.9307909011841
vertex 1.95617163181305 -13.2013673782349 15.9321603775024
vertex 2.46462273597717 -12.2113599777222 17.0306396484375
endloop
endfacet
facet normal 0.217565461993217 0.672823369503021 -0.707088351249695
outer loop
vertex 1.95617163181305 -13.2013673782349 15.9321603775024
vertex 2.10366296768188 -13.2504997253418 15.9307909011841
vertex 1.42857122421265 -14.7599449157715 14.2867727279663
endloop
endfacet
facet normal 0.217565461993217 0.672823369503021 -0.707088351249695
outer loop
vertex 1.56369996070862 -14.8049583435059 14.2855176925659
vertex 1.42857122421265 -14.7599449157715 14.2867727279663
vertex 2.10366296768188 -13.2504997253418 15.9307909011841
endloop
endfacet
facet normal 0.217565476894379 0.672823369503021 -0.707088351249695
outer loop
vertex 1.56369996070862 -14.8049583435059 14.2855176925659
vertex 0.790107071399689 -17.0319976806641 11.9283714294434
vertex 1.42857122421265 -14.7599449157715 14.2867727279663
endloop
endfacet
facet normal 0.217565461993217 0.672823429107666 -0.707088351249695
outer loop
vertex 0.672689974308014 -16.992883682251 11.929461479187
vertex 1.42857122421265 -14.7599449157715 14.2867727279663
vertex 0.790107071399689 -17.0319976806641 11.9283714294434
endloop
endfacet
facet normal 0.217565476894379 0.672823369503021 -0.70708841085434
outer loop
vertex 0.672689974308014 -16.992883682251 11.929461479187
vertex 0.790107071399689 -17.0319976806641 11.9283714294434
vertex -0.127914115786552 -19.3579387664795 9.43267631530762
endloop
endfacet
facet normal 0.217565461993217 0.672823369503021 -0.70708841085434
outer loop
vertex -0.0292566400021315 -19.3908023834229 9.43176078796387
vertex -0.127914115786552 -19.3579387664795 9.43267631530762
vertex 0.790107071399689 -17.0319976806641 11.9283714294434
endloop
endfacet
facet normal 0.217565461993217 0.672823369503021 -0.70708841085434
outer loop
vertex -0.0292566400021315 -19.3908023834229 9.43176078796387
vertex -0.848620355129242 -21.7496070861816 6.93515014648438
vertex -0.127914115786552 -19.3579387664795 9.43267631530762
endloop
endfacet
facet normal 0.217565461993217 0.672823369503021 -0.70708841085434
outer loop
vertex -0.928518235683441 -21.7229919433594 6.93589162826538
vertex -0.127914115786552 -19.3579387664795 9.43267631530762
vertex -0.848620355129242 -21.7496070861816 6.93515014648438
endloop
endfacet
facet normal 0.217565447092056 0.672823369503021 -0.707088351249695
outer loop
vertex -0.928518235683441 -21.7229919433594 6.93589162826538
vertex -0.848620355129242 -21.7496070861816 6.93515014648438
vertex -1.72553086280823 -24.0774364471436 4.45030736923218
endloop
endfacet
facet normal 0.217565476894379 0.672823369503021 -0.70708841085434
outer loop
vertex -1.66430842876434 -24.0978317260742 4.4497389793396
vertex -1.72553086280823 -24.0774364471436 4.45030736923218
vertex -0.848620355129242 -21.7496070861816 6.93515014648438
endloop
endfacet
facet normal 0.217565461993217 0.672823369503021 -0.70708841085434
outer loop
vertex -1.66430842876434 -24.0978317260742 4.4497389793396
vertex -2.25703310966492 -25.8041820526123 2.64369988441467
vertex -1.72553086280823 -24.0774364471436 4.45030736923218
endloop
endfacet
facet normal 0.217565461993217 0.672823369503021 -0.707088351249695
outer loop
vertex -2.30468487739563 -25.78830909729 2.64414215087891
vertex -1.72553086280823 -24.0774364471436 4.45030736923218
vertex -2.25703310966492 -25.8041820526123 2.64369988441467
endloop
endfacet
facet normal 0.217565447092056 0.672823369503021 -0.70708841085434
outer loop
vertex -2.30468487739563 -25.78830909729 2.64414215087891
vertex -2.25703310966492 -25.8041820526123 2.64369988441467
vertex -2.65586066246033 -26.8257122039795 1.54895687103271
endloop
endfacet
facet normal 0.217565461993217 0.672823369503021 -0.707088351249695
outer loop
vertex -2.61643743515015 -26.8388442993164 1.5485907793045
vertex -2.65586066246033 -26.8257122039795 1.54895687103271
vertex -2.25703310966492 -25.8041820526123 2.64369988441467
endloop
endfacet
facet normal 0.217565461993217 0.672823369503021 -0.707088351249695
outer loop
vertex -2.61643743515015 -26.8388442993164 1.5485907793045
vertex -2.83436560630798 -27.4662227630615 0.884561121463776
vertex -2.65586066246033 -26.8257122039795 1.54895687103271
endloop
endfacet
facet normal 0.217565447092056 0.672823309898376 -0.707088351249695
outer loop
vertex -2.86879920959473 -27.4547519683838 0.884880781173706
vertex -2.65586066246033 -26.8257122039795 1.54895687103271
vertex -2.83436560630798 -27.4662227630615 0.884561121463776
endloop
endfacet
facet normal 0.217565461993217 0.672823369503021 -0.707088351249695
outer loop
vertex -2.86879920959473 -27.4547519683838 0.884880781173706
vertex -2.83436560630798 -27.4662227630615 0.884561121463776
vertex -2.99791669845581 -27.8361759185791 0.482212007045746
endloop
endfacet
facet normal 0.217565461993217 0.672823369503021 -0.70708841085434
outer loop
vertex -2.96650862693787 -27.8466377258301 0.481920391321182
vertex -2.99791669845581 -27.8361759185791 0.482212007045746
vertex -2.83436560630798 -27.4662227630615 0.884561121463776
endloop
endfacet
facet normal 0.217565461993217 0.672823369503021 -0.707088351249695
outer loop
vertex -2.99791669845581 -27.8361759185791 0.482212007045746
vertex -2.96650862693787 -27.8466377258301 0.481920391321182
vertex -3.07620811462402 -28.067455291748 0.23804996907711
endloop
endfacet
facet normal 0.217565461993217 0.672823369503021 -0.70708841085434
outer loop
vertex -3.04663467407227 -28.0773067474365 0.237775385379791
vertex -3.07620811462402 -28.067455291748 0.23804996907711
vertex -2.96650862693787 -27.8466377258301 0.481920391321182
endloop
endfacet
facet normal 0.217565461993217 0.672823369503021 -0.707088351249695
outer loop
vertex -3.07620811462402 -28.067455291748 0.23804996907711
vertex -3.04663467407227 -28.0773067474365 0.237775385379791
vertex -3.12368106842041 -28.2076950073242 0.0900000035762787
endloop
endfacet
facet normal 0.217565476894379 0.672823369503021 -0.70708841085434
outer loop
vertex -3.09521985054016 -28.2171745300293 0.0897357538342476
vertex -3.12368106842041 -28.2076950073242 0.0900000035762787
vertex -3.04663467407227 -28.0773067474365 0.237775385379791
endloop
endfacet
facet normal -0.228571072220802 -0.669131219387054 0.707120060920715
outer loop
vertex 2.70556664466858 -11.5177764892578 17.7675399780273
vertex 2.54461812973022 -11.4630451202393 17.7673053741455
vertex 2.42445397377014 -12.322639465332 16.9150485992432
endloop
endfacet
facet normal -0.228571057319641 -0.669131219387054 0.707119941711426
outer loop
vertex 2.27126431465149 -12.2705554962158 16.9148178100586
vertex 2.42445397377014 -12.322639465332 16.9150485992432
vertex 2.54461812973022 -11.4630451202393 17.7673053741455
endloop
endfacet
facet normal -0.228571072220802 -0.669131219387054 0.707120001316071
outer loop
vertex 2.42445397377014 -12.322639465332 16.9150485992432
vertex 2.27126431465149 -12.2705554962158 16.9148178100586
vertex 1.87445545196533 -13.8973588943481 15.247145652771
endloop
endfacet
facet normal -0.228571072220802 -0.66913115978241 0.707120001316071
outer loop
vertex 1.73645639419556 -13.8504257202148 15.2469511032104
vertex 1.87445545196533 -13.8973588943481 15.247145652771
vertex 2.27126431465149 -12.2705554962158 16.9148178100586
endloop
endfacet
facet normal -0.228571102023125 -0.669131219387054 0.707120060920715
outer loop
vertex 1.73645639419556 -13.8504257202148 15.2469511032104
vertex 0.930938959121704 -16.2299938201904 12.7348432540894
vertex 1.87445545196533 -13.8973588943481 15.247145652771
endloop
endfacet
facet normal -0.228571087121964 -0.669131219387054 0.707120060920715
outer loop
vertex 1.04606449604034 -16.2691535949707 12.7350006103516
vertex 1.87445545196533 -13.8973588943481 15.247145652771
vertex 0.930938959121704 -16.2299938201904 12.7348432540894
endloop
endfacet
facet normal -0.228571072220802 -0.669131219387054 0.707120060920715
outer loop
vertex 1.04606449604034 -16.2691535949707 12.7350006103516
vertex 0.930938959121704 -16.2299938201904 12.7348432540894
vertex 0.212115421891212 -18.6568622589111 10.206000328064
endloop
endfacet
facet normal -0.228571087121964 -0.66913115978241 0.707120001316071
outer loop
vertex 0.120014972984791 -18.6255340576172 10.2058744430542
vertex 0.212115421891212 -18.6568622589111 10.206000328064
vertex 0.930938959121704 -16.2299938201904 12.7348432540894
endloop
endfacet
facet normal -0.228571087121964 -0.66913115978241 0.707120001316071
outer loop
vertex 0.120014972984791 -18.6255340576172 10.2058744430542
vertex -0.690909028053284 -21.0210742950439 7.6769061088562
vertex 0.212115421891212 -18.6568622589111 10.206000328064
endloop
endfacet
facet normal -0.228571057319641 -0.66913115978241 0.707119941711426
outer loop
vertex -0.621833682060242 -21.0445690155029 7.67700052261353
vertex 0.212115421891212 -18.6568622589111 10.206000328064
vertex -0.690909028053284 -21.0210742950439 7.6769061088562
endloop
endfacet
facet normal -0.228571057319641 -0.66913115978241 0.707119941711426
outer loop
vertex -0.621833682060242 -21.0445690155029 7.67700052261353
vertex -0.690909028053284 -21.0210742950439 7.6769061088562
vertex -1.45578277111053 -23.4322776794434 5.14800024032593
endloop
endfacet
facet normal -0.228571087121964 -0.66913115978241 0.707120001316071
outer loop
vertex -1.50183296203613 -23.4166145324707 5.14793729782104
vertex -1.45578277111053 -23.4322776794434 5.14800024032593
vertex -0.690909028053284 -21.0210742950439 7.6769061088562
endloop
endfacet
facet normal -0.228571087121964 -0.66913115978241 0.707120001316071
outer loop
vertex -1.50183296203613 -23.4166145324707 5.14793729782104
vertex -2.31275701522827 -25.8121547698975 2.61896872520447
vertex -1.45578277111053 -23.4322776794434 5.14800024032593
endloop
endfacet
facet normal -0.228571087121964 -0.66913115978241 0.707120001316071
outer loop
vertex -2.28973197937012 -25.8199863433838 2.61900019645691
vertex -1.45578277111053 -23.4322776794434 5.14800024032593
vertex -2.31275701522827 -25.8121547698975 2.61896872520447
endloop
endfacet
facet normal -0.228571087121964 -0.66913115978241 0.707120001316071
outer loop
vertex -2.31275701522827 -25.8121547698975 2.61896872520447
vertex -3.12368106842041 -28.2076950073242 0.0900000035762787
vertex -2.28973197937012 -25.8199863433838 2.61900019645691
endloop
endfacet
facet normal -0.321359843015671 -0.946957111358643 -0.000326792447594926
outer loop
vertex -0.459172517061234 -29.2780723571777 22.5443096160889
vertex -2.84078693389893 -28.470724105835 25.0875282287598
vertex -0.475549459457397 -29.2725086212158 22.5272121429443
endloop
endfacet
facet normal -0.321359843015671 -0.946957111358643 -0.000326792447594926
outer loop
vertex -0.475549459457397 -29.2725086212158 22.5272121429443
vertex 1.88968789577484 -30.0742931365967 19.9668960571289
vertex -0.459172517061234 -29.2780723571777 22.5443096160889
endloop
endfacet
facet normal -0.321359843015671 -0.946957111358643 -0.000326792447594926
outer loop
vertex 1.92244184017181 -30.0854206085205 20.0010929107666
vertex -0.459172517061234 -29.2780723571777 22.5443096160889
vertex 1.88968789577484 -30.0742931365967 19.9668960571289
endloop
endfacet
facet normal -0.321359813213348 -0.946957051753998 -0.000326792418491095
outer loop
vertex 4.25492525100708 -30.8760776519775 17.4065799713135
vertex 4.30405616760254 -30.8927688598633 17.4578762054443
vertex 1.88968789577484 -30.0742931365967 19.9668960571289
endloop
endfacet
facet normal -0.321359843015671 -0.946957111358643 -0.000326792447594926
outer loop
vertex 1.92244184017181 -30.0854206085205 20.0010929107666
vertex 1.88968789577484 -30.0742931365967 19.9668960571289
vertex 4.30405616760254 -30.8927688598633 17.4578762054443
endloop
endfacet
facet normal -0.321359813213348 -0.946957051753998 -0.000326792418491095
outer loop
vertex 4.25492525100708 -30.8760776519775 17.4065799713135
vertex 6.62016296386719 -31.6778621673584 14.8462648391724
vertex 4.30405616760254 -30.8927688598633 17.4578762054443
endloop
endfacet
facet normal -0.321359843015671 -0.946957111358643 -0.000326792447594926
outer loop
vertex 6.68567037582397 -31.7001171112061 14.9146575927734
vertex 4.30405616760254 -30.8927688598633 17.4578762054443
vertex 6.62016296386719 -31.6778621673584 14.8462648391724
endloop
endfacet
facet normal -0.321359843015671 -0.946957111358643 -0.000326792447594926
outer loop
vertex 6.62016296386719 -31.6778621673584 14.8462648391724
vertex 8.98540019989014 -32.4796447753906 12.2859487533569
vertex 6.68567037582397 -31.7001171112061 14.9146575927734
endloop
endfacet
facet normal -0.321359813213348 -0.946957111358643 -0.000326792418491095
outer loop
vertex 9.06728458404541 -32.5074653625488 12.3714408874512
vertex 6.68567037582397 -31.7001171112061 14.9146575927734
vertex 8.98540019989014 -32.4796447753906 12.2859487533569
endloop
endfacet
facet normal -0.321359813213348 -0.946957111358643 -0.000326792418491095
outer loop
vertex 11.4330224990845 -33.3094291687012 9.84517669677734
vertex 9.06728458404541 -32.5074653625488 12.3714408874512
vertex 11.3348751068115 -33.2760887145996 9.74269485473633
endloop
endfacet
facet normal -0.321359843015671 -0.946957111358643 -0.000326792447594926
outer loop
vertex 8.98540019989014 -32.4796447753906 12.2859487533569
vertex 11.3348751068115 -33.2760887145996 9.74269485473633
vertex 9.06728458404541 -32.5074653625488 12.3714408874512
endloop
endfacet
facet normal -0.321359813213348 -0.946957111358643 -0.000326792447594926
outer loop
vertex 11.4330224990845 -33.3094291687012 9.84517669677734
vertex 11.3348751068115 -33.2760887145996 9.74269485473633
vertex 13.0037212371826 -33.8418846130371 8.16790008544922
endloop
endfacet
facet normal -0.321359843015671 -0.946957111358643 -0.000326792447594926
outer loop
vertex 12.8947887420654 -33.8048782348633 8.05412483215332
vertex 13.0037212371826 -33.8418846130371 8.16790008544922
vertex 11.3348751068115 -33.2760887145996 9.74269485473633
endloop
endfacet
facet normal -0.321359813213348 -0.946957051753998 -0.000326792447594926
outer loop
vertex 13.0037212371826 -33.8418846130371 8.16790008544922
vertex 12.8947887420654 -33.8048782348633 8.05412483215332
vertex 13.8065481185913 -34.1140365600586 7.31059741973877
endloop
endfacet
facet normal -0.321359843015671 -0.946957170963287 -0.000326792476698756
outer loop
vertex 13.6920881271362 -34.0751533508301 7.1910662651062
vertex 13.8065481185913 -34.1140365600586 7.31059741973877
vertex 12.8947887420654 -33.8048782348633 8.05412483215332
endloop
endfacet
facet normal -1 0 0
outer loop
vertex -0.190209999680519 -26 0.159999996423721
vertex -0.190209999680519 -25 0.159999996423721
vertex -0.190209999680519 -26 -0.00999999977648258
endloop
endfacet
facet normal -1 0 0
outer loop
vertex -0.190209999680519 -25 -0.00999999977648258
vertex -0.190209999680519 -26 -0.00999999977648258
vertex -0.190209999680519 -25 0.159999996423721
endloop
endfacet
facet normal -0.70710676908493 0 -0.70710676908493
outer loop
vertex -0.190209999680519 -26 -0.00999999977648258
vertex -0.190209999680519 -25 -0.00999999977648258
vertex -0.0700000002980232 -26 -0.130209997296333
endloop
endfacet
facet normal -0.70710676908493 -0 -0.70710676908493
outer loop
vertex -0.0700000002980232 -25 -0.130209997296333
vertex -0.0700000002980232 -26 -0.130209997296333
vertex -0.190209999680519 -25 -0.00999999977648258
endloop
endfacet
facet normal -0.70710676908493 0 0.70710676908493
outer loop
vertex -0.0700000002980232 -26 0.280209988355637
vertex -0.0700000002980232 -25 0.280209988355637
vertex -0.190209999680519 -26 0.159999996423721
endloop
endfacet
facet normal -0.70710676908493 0 0.70710676908493
outer loop
vertex -0.190209999680519 -25 0.159999996423721
vertex -0.190209999680519 -26 0.159999996423721
vertex -0.0700000002980232 -25 0.280209988355637
endloop
endfacet
facet normal -0 -0 -1
outer loop
vertex 0.100000001490116 -25 -0.130209997296333
vertex 0.100000001490116 -26 -0.130209997296333
vertex -0.0700000002980232 -25 -0.130209997296333
endloop
endfacet
facet normal 0 0 -1
outer loop
vertex -0.0700000002980232 -26 -0.130209997296333
vertex -0.0700000002980232 -25 -0.130209997296333
vertex 0.100000001490116 -26 -0.130209997296333
endloop
endfacet
facet normal 0 -0 1
outer loop
vertex 0.100000001490116 -26 0.280209988355637
vertex 0.100000001490116 -25 0.280209988355637
vertex -0.0700000002980232 -26 0.280209988355637
endloop
endfacet
facet normal -0 0 1
outer loop
vertex -0.0700000002980232 -25 0.280209988355637
vertex -0.0700000002980232 -26 0.280209988355637
vertex 0.100000001490116 -25 0.280209988355637
endloop
endfacet
facet normal 0.70710676908493 0 -0.70710676908493
outer loop
vertex 0.220210000872612 -25 -0.00999999977648258
vertex 0.220210000872612 -26 -0.00999999977648258
vertex 0.100000001490116 -25 -0.130209997296333
endloop
endfacet
facet normal 0.70710676908493 0 -0.70710676908493
outer loop
vertex 0.100000001490116 -26 -0.130209997296333
vertex 0.100000001490116 -25 -0.130209997296333
vertex 0.220210000872612 -26 -0.00999999977648258
endloop
endfacet
facet normal 0.70710676908493 0 0.70710676908493
outer loop
vertex 0.100000001490116 -25 0.280209988355637
vertex 0.100000001490116 -26 0.280209988355637
vertex 0.220210000872612 -25 0.159999996423721
endloop
endfacet
facet normal 0.70710676908493 -0 0.70710676908493
outer loop
vertex 0.220210000872612 -26 0.159999996423721
vertex 0.220210000872612 -25 0.159999996423721
vertex 0.100000001490116 -26 0.280209988355637
endloop
endfacet
facet normal 1 0 0
outer loop
vertex 0.220210000872612 -25 0.159999996423721
vertex 0.220210000872612 -26 0.159999996423721
vertex 0.220210000872612 -25 -0.00999999977648258
endloop
endfacet
facet normal 1 0 0
outer loop
vertex 0.220210000872612 -26 -0.00999999977648258
vertex 0.220210000872612 -25 -0.00999999977648258
vertex 0.220210000872612 -26 0.159999996423721
endloop
endfacet
facet normal -0 0.00520832929760218 0.999986410140991
outer loop
vertex -0.0700000002980232 -24.9996604919434 0.280208230018616
vertex 0.100000001490116 -24.9996604919434 0.280208230018616
vertex -0.067088358104229 -23.9598026275635 0.274792224168777
endloop
endfacet
facet normal 2.25407722772325e-16 0.00520832976326346 0.999986469745636
outer loop
vertex 0.0970883592963219 -23.9598026275635 0.274792224168777
vertex -0.067088358104229 -23.9598026275635 0.274792224168777
vertex 0.100000001490116 -24.9996604919434 0.280208230018616
endloop
endfacet
facet normal 2.25407722772325e-16 0.00520832976326346 0.999986469745636
outer loop
vertex 0.0970883592963219 -23.9598026275635 0.274792224168777
vertex 0.0927328020334244 -22.4042682647705 0.266690403223038
vertex -0.067088358104229 -23.9598026275635 0.274792224168777
endloop
endfacet
facet normal -1.19016639123371e-16 0.00520832929760218 0.999986469745636
outer loop
vertex -0.0627328008413315 -22.4042682647705 0.266690403223038
vertex -0.067088358104229 -23.9598026275635 0.274792224168777
vertex 0.0927328020334244 -22.4042682647705 0.266690403223038
endloop
endfacet
facet normal -1.19016639123371e-16 0.00520832929760218 0.999986469745636
outer loop
vertex -0.0627328008413315 -22.4042682647705 0.266690403223038
vertex 0.0927328020334244 -22.4042682647705 0.266690403223038
vertex -0.0562172904610634 -20.0773315429688 0.254570782184601
endloop
endfacet
facet normal 2.59820395018221e-16 0.00520832929760218 0.999986410140991
outer loop
vertex 0.0862172916531563 -20.0773315429688 0.254570782184601
vertex -0.0562172904610634 -20.0773315429688 0.254570782184601
vertex 0.0927328020334244 -22.4042682647705 0.266690403223038
endloop
endfacet
facet normal 2.59820395018221e-16 0.00520832976326346 0.999986469745636
outer loop
vertex 0.0862172916531563 -20.0773315429688 0.254570782184601
vertex 0.0768826603889465 -16.743579864502 0.237207263708115
vertex -0.0562172904610634 -20.0773315429688 0.254570782184601
endloop
endfacet
facet normal -7.47503201055021e-17 0.00520832929760218 0.999986410140991
outer loop
vertex -0.0468826591968536 -16.743579864502 0.237207263708115
vertex -0.0562172904610634 -20.0773315429688 0.254570782184601
vertex 0.0768826603889465 -16.743579864502 0.237207263708115
endloop
endfacet
facet normal -7.47503134880572e-17 0.00520832929760218 0.999986410140991
outer loop
vertex -0.0468826591968536 -16.743579864502 0.237207263708115
vertex 0.0768826603889465 -16.743579864502 0.237207263708115
vertex -0.0369957275688648 -13.2125816345215 0.218816414475441
endloop
endfacet
facet normal -3.55859425797637e-16 0.00520832929760218 0.999986469745636
outer loop
vertex 0.066995732486248 -13.2125816345215 0.218816414475441
vertex -0.0369957275688648 -13.2125816345215 0.218816414475441
vertex 0.0768826603889465 -16.743579864502 0.237207263708115
endloop
endfacet
facet normal -3.55859425797637e-16 0.00520832929760218 0.999986469745636
outer loop
vertex 0.066995732486248 -13.2125816345215 0.218816414475441
vertex 0.0571088008582592 -9.68158340454102 0.200425565242767
vertex -0.0369957275688648 -13.2125816345215 0.218816414475441
endloop
endfacet
facet normal -2.19704570529123e-16 0.00520832929760218 0.999986469745636
outer loop
vertex -0.0271088015288115 -9.68158340454102 0.200425565242767
vertex -0.0369957275688648 -13.2125816345215 0.218816414475441
vertex 0.0571088008582592 -9.68158340454102 0.200425565242767
endloop
endfacet
facet normal -2.19704570529123e-16 0.00520832883194089 0.999986410140991
outer loop
vertex -0.0271088015288115 -9.68158340454102 0.200425565242767
vertex 0.0571088008582592 -9.68158340454102 0.200425565242767
vertex -0.0172662250697613 -6.1664252281189 0.182117208838463
endloop
endfacet
facet normal 3.58418550559309e-16 0.00520832883194089 0.999986410140991
outer loop
vertex 0.0472662262618542 -6.1664252281189 0.182117208838463
vertex -0.0172662250697613 -6.1664252281189 0.182117208838463
vertex 0.0571088008582592 -9.68158340454102 0.200425565242767
endloop
endfacet
facet normal 3.58418577029089e-16 0.00520832929760218 0.999986469745636
outer loop
vertex 0.0472662262618542 -6.1664252281189 0.182117208838463
vertex 0.0401140563189983 -3.61211395263672 0.168813332915306
vertex -0.0172662250697613 -6.1664252281189 0.182117208838463
endloop
endfacet
facet normal -2.3023874871721e-16 0.00520832929760218 0.999986410140991
outer loop
vertex -0.010114056058228 -3.61211395263672 0.168813332915306
vertex -0.0172662250697613 -6.1664252281189 0.182117208838463
vertex 0.0401140563189983 -3.61211395263672 0.168813332915306
endloop
endfacet
facet normal -2.3023877518699e-16 0.00520832929760218 0.999986410140991
outer loop
vertex -0.010114056058228 -3.61211395263672 0.168813332915306
vertex 0.0401140563189983 -3.61211395263672 0.168813332915306
vertex -0.00577727053314447 -2.06328296661377 0.160746410489082
endloop
endfacet
facet normal 5.00947990500402e-16 0.00520832883194089 0.999986469745636
outer loop
vertex 0.0357772707939148 -2.06328296661377 0.160746410489082
vertex -0.00577727053314447 -2.06328296661377 0.160746410489082
vertex 0.0401140563189983 -3.61211395263672 0.168813332915306
endloop
endfacet
facet normal 5.00947990500402e-16 0.00520832929760218 0.999986469745636
outer loop
vertex 0.0357772707939148 -2.06328296661377 0.160746410489082
vertex 0.0331476181745529 -1.12413465976715 0.155854940414429
vertex -0.00577727053314447 -2.06328296661377 0.160746410489082
endloop
endfacet
facet normal -8.28432633128188e-16 0.00520832976326346 0.999986469745636
outer loop
vertex -0.00314761977642775 -1.12413465976715 0.155854940414429
vertex -0.00577727053314447 -2.06328296661377 0.160746410489082
vertex 0.0331476181745529 -1.12413465976715 0.155854940414429
endloop
endfacet
facet normal -8.28432739007306e-16 0.00520832976326346 0.999986469745636
outer loop
vertex -0.00314761977642775 -1.12413465976715 0.155854940414429
vertex 0.0331476181745529 -1.12413465976715 0.155854940414429
vertex -0.00155310623813421 -0.554673254489899 0.15288895368576
endloop
endfacet
facet normal -6.46239763701169e-16 0.00520832929760218 0.999986469745636
outer loop
vertex 0.0315531045198441 -0.554673254489899 0.15288895368576
vertex -0.00155310623813421 -0.554673254489899 0.15288895368576
vertex 0.0331476181745529 -1.12413465976715 0.155854940414429
endloop
endfacet
facet normal -6.46239763701169e-16 0.00520832929760218 0.999986410140991
outer loop
vertex 0.0315531045198441 -0.554673254489899 0.15288895368576
vertex 0.0305862575769424 -0.20937491953373 0.151090502738953
vertex -0.00155310623813421 -0.554673254489899 0.15288895368576
endloop
endfacet
facet normal 1.40975430944413e-15 0.00520832929760218 0.999986410140991
outer loop
vertex -0.000586257723625749 -0.20937491953373 0.151090502738953
vertex -0.00155310623813421 -0.554673254489899 0.15288895368576
vertex 0.0305862575769424 -0.20937491953373 0.151090502738953
endloop
endfacet
facet normal 1.40975420356501e-15 0.00520832929760218 0.999986469745636
outer loop
vertex -0.000586257723625749 -0.20937491953373 0.151090502738953
vertex 0.0305862575769424 -0.20937491953373 0.151090502738953
vertex 0 0 0.150000005960464
endloop
endfacet
facet normal 0 0.00520832929760218 0.999986410140991
outer loop
vertex 0.0299999993294477 0 0.150000005960464
vertex 0 0 0.150000005960464
vertex 0.0305862575769424 -0.20937491953373 0.151090502738953
endloop
endfacet
facet normal -0.999971091747284 -0.00760817946866155 0
outer loop
vertex 0.22020448744297 -24.9992771148682 -0.00999999977648258
vertex 0.22020448744297 -24.9992771148682 0.159999996423721
vertex 0.21203838288784 -23.9259738922119 -0.00957066658884287
endloop
endfacet
facet normal -0.999971032142639 -0.00760817900300026 1.59805312175055e-16
outer loop
vertex 0.21203838288784 -23.9259738922119 0.159570664167404
vertex 0.21203838288784 -23.9259738922119 -0.00957066658884287
vertex 0.22020448744297 -24.9992771148682 0.159999996423721
endloop
endfacet
facet normal -0.999971032142639 -0.00760817946866155 1.59805312175055e-16
outer loop
vertex 0.21203838288784 -23.9259738922119 0.159570664167404
vertex 0.1992307305336 -22.2426166534424 0.158897310495377
vertex 0.21203838288784 -23.9259738922119 -0.00957066658884287
endloop
endfacet
facet normal -0.999971091747284 -0.00760817993432283 -1.61087931815435e-16
outer loop
vertex 0.1992307305336 -22.2426166534424 -0.00889730453491211
vertex 0.21203838288784 -23.9259738922119 -0.00957066658884287
vertex 0.1992307305336 -22.2426166534424 0.158897310495377
endloop
endfacet
facet normal -0.999971091747284 -0.00760817993432283 -1.61087918580545e-16
outer loop
vertex 0.1992307305336 -22.2426166534424 -0.00889730453491211
vertex 0.1992307305336 -22.2426166534424 0.158897310495377
vertex 0.179143294692039 -19.6024532318115 -0.00784120801836252
endloop
endfacet
facet normal -0.999971032142639 -0.00760817993432283 -1.58765168950716e-16
outer loop
vertex 0.179143294692039 -19.6024532318115 0.157841205596924
vertex 0.179143294692039 -19.6024532318115 -0.00784120801836252
vertex 0.1992307305336 -22.2426166534424 0.158897310495377
endloop
endfacet
facet normal -0.999971032142639 -0.00760817993432283 -1.58765168950716e-16
outer loop
vertex 0.179143294692039 -19.6024532318115 -0.00784120801836252
vertex 0.179143294692039 -19.6024532318115 0.157841205596924
vertex 0.151252314448357 -15.9366388320923 -0.00637483969330788
endloop
endfacet
facet normal -0.999971151351929 -0.00760818039998412 9.19511438968483e-17
outer loop
vertex 0.151252314448357 -15.9366388320923 0.156374841928482
vertex 0.151252314448357 -15.9366388320923 -0.00637483969330788
vertex 0.179143294692039 -19.6024532318115 0.157841205596924
endloop
endfacet
facet normal -0.999971032142639 -0.00760817993432283 9.19511372794034e-17
outer loop
vertex 0.151252314448357 -15.9366388320923 0.156374841928482
vertex 0.122853085398674 -12.2040233612061 0.154881745576859
vertex 0.151252314448357 -15.9366388320923 -0.00637483969330788
endloop
endfacet
facet normal -0.999971032142639 -0.00760817946866155 4.53850758332634e-18
outer loop
vertex 0.122853085398674 -12.2040233612061 -0.00488175032660365
vertex 0.151252314448357 -15.9366388320923 -0.00637483969330788
vertex 0.122853085398674 -12.2040233612061 0.154881745576859
endloop
endfacet
facet normal -0.999971032142639 -0.00760817946866155 4.53850758332634e-18
outer loop
vertex 0.122853085398674 -12.2040233612061 -0.00488175032660365
vertex 0.122853085398674 -12.2040233612061 0.154881745576859
vertex 0.0944538563489914 -8.47140789031982 -0.00338866119273007
endloop
endfacet
facet normal -0.999971091747284 -0.00760817946866155 1.38748620699879e-17
outer loop
vertex 0.0944538563489914 -8.47140789031982 0.153388664126396
vertex 0.0944538563489914 -8.47140789031982 -0.00338866119273007
vertex 0.122853085398674 -12.2040233612061 0.154881745576859
endloop
endfacet
facet normal -0.999971032142639 -0.00760817946866155 1.38748604156266e-17
outer loop
vertex 0.0944538563489914 -8.47140789031982 -0.00338866119273007
vertex 0.0944538563489914 -8.47140789031982 0.153388664126396
vertex 0.0672862827777863 -4.90067338943481 -0.00196032598614693
endloop
endfacet
facet normal -0.999971032142639 -0.00760817946866155 2.35539513988352e-18
outer loop
vertex 0.0672862827777863 -4.90067338943481 0.151960328221321
vertex 0.0672862827777863 -4.90067338943481 -0.00196032598614693
vertex 0.0944538563489914 -8.47140789031982 0.153388664126396
endloop
endfacet
facet normal -0.999971032142639 -0.00760817946866155 2.35539513988352e-18
outer loop
vertex 0.0672862827777863 -4.90067338943481 0.151960328221321
vertex 0.0488442108035088 -2.47676420211792 0.15099073946476
vertex 0.0672862827777863 -4.90067338943481 -0.00196032598614693
endloop
endfacet
facet normal -0.999971091747284 -0.00760818039998412 2.34237961838112e-17
outer loop
vertex 0.0488442108035088 -2.47676420211792 -0.000990734319202602
vertex 0.0672862827777863 -4.90067338943481 -0.00196032598614693
vertex 0.0488442108035088 -2.47676420211792 0.15099073946476
endloop
endfacet
facet normal -0.999971091747284 -0.00760817993432283 2.34237928750888e-17
outer loop
vertex 0.0488442108035088 -2.47676420211792 -0.000990734319202602
vertex 0.0488442108035088 -2.47676420211792 0.15099073946476
vertex 0.0372673198580742 -0.955170631408691 -0.000382079306291416
endloop
endfacet
facet normal -0.999971032142639 -0.00760817993432283 -2.04149895713761e-17
outer loop
vertex 0.0372673198580742 -0.955170631408691 0.150382086634636
vertex 0.0372673198580742 -0.955170631408691 -0.000382079306291416
vertex 0.0488442108035088 -2.47676420211792 0.15099073946476
endloop
endfacet
facet normal -0.999971151351929 -0.00760818039998412 -2.04149912257374e-17
outer loop
vertex 0.0372673198580742 -0.955170631408691 0.150382086634636
vertex 0.0299999993294477 0 0.150000005960464
vertex 0.0372673198580742 -0.955170631408691 -0.000382079306291416
endloop
endfacet
facet normal -0.999971091747284 -0.00760818039998412 0
outer loop
vertex 0.0299999993294477 0 0
vertex 0.0372673198580742 -0.955170631408691 -0.000382079306291416
vertex 0.0299999993294477 0 0.150000005960464
endloop
endfacet
facet normal 0.707095503807068 0.00566270388662815 0.707095503807068
outer loop
vertex 0.220209762454033 -24.9998531341553 0.159999057650566
vertex 0.211036875844002 -23.7942314147949 0.159516856074333
vertex 0.0999987795948982 -24.9995632171631 0.280207723379135
endloop
endfacet
facet normal 0.707095444202423 0.00566270342096686 0.707095444202423
outer loop
vertex 0.0966230481863022 -23.7939453125 0.273928374052048
vertex 0.0999987795948982 -24.9995632171631 0.280207723379135
vertex 0.211036875844002 -23.7942314147949 0.159516856074333
endloop
endfacet
facet normal 0.707095444202423 0.00566270295530558 0.707095444202423
outer loop
vertex 0.211036875844002 -23.7942314147949 0.159516856074333
vertex 0.193090170621872 -21.4354419708252 0.158573418855667
vertex 0.0966230481863022 -23.7939453125 0.273928374052048
endloop
endfacet
facet normal 0.707095503807068 0.00566270342096686 0.707095503807068
outer loop
vertex 0.0900185704231262 -21.4352016448975 0.26164311170578
vertex 0.0966230481863022 -23.7939453125 0.273928374052048
vertex 0.193090170621872 -21.4354419708252 0.158573418855667
endloop
endfacet
facet normal 0.707095503807068 0.00566270342096686 0.707095503807068
outer loop
vertex 0.0900185704231262 -21.4352016448975 0.26164311170578
vertex 0.193090170621872 -21.4354419708252 0.158573418855667
vertex 0.0800711065530777 -17.8825378417969 0.243139401078224
endloop
endfacet
facet normal 0.707095444202423 0.00566270342096686 0.707095444202423
outer loop
vertex 0.166059598326683 -17.8827304840088 0.157152459025383
vertex 0.0800711065530777 -17.8825378417969 0.243139401078224
vertex 0.193090170621872 -21.4354419708252 0.158573418855667
endloop
endfacet
facet normal 0.707095384597778 0.00566270248964429 0.707095384597778
outer loop
vertex 0.166059598326683 -17.8827304840088 0.157152459025383
vertex 0.138847678899765 -14.3061838150024 0.155721962451935
vertex 0.0800711065530777 -17.8825378417969 0.243139401078224
endloop
endfacet
facet normal 0.707095444202423 0.00566270295530558 0.707095444202423
outer loop
vertex 0.0700568854808807 -14.3060302734375 0.22451151907444
vertex 0.0800711065530777 -17.8825378417969 0.243139401078224
vertex 0.138847678899765 -14.3061838150024 0.155721962451935
endloop
endfacet
facet normal 0.707095444202423 0.00566270295530558 0.707095444202423
outer loop
vertex 0.0700568854808807 -14.3060302734375 0.22451151907444
vertex 0.138847678899765 -14.3061838150024 0.155721962451935
vertex 0.0600426644086838 -10.7295227050781 0.205883637070656
endloop
endfacet
facet normal 0.707095444202423 0.00566270342096686 0.707095444202423
outer loop
vertex 0.111635759472847 -10.7296380996704 0.154291480779648
vertex 0.0600426644086838 -10.7295227050781 0.205883637070656
vertex 0.138847678899765 -14.3061838150024 0.155721962451935
endloop
endfacet
facet normal 0.707095444202423 0.00566270342096686 0.707095444202423
outer loop
vertex 0.111635759472847 -10.7296380996704 0.154291480779648
vertex 0.084423840045929 -7.15309190750122 0.1528609842062
vertex 0.0600426644086838 -10.7295227050781 0.205883637070656
endloop
endfacet
facet normal 0.707095444202423 0.00566270295530558 0.707095444202423
outer loop
vertex 0.0500284433364868 -7.15301513671875 0.187255769968033
vertex 0.0600426644086838 -10.7295227050781 0.205883637070656
vertex 0.084423840045929 -7.15309190750122 0.1528609842062
endloop
endfacet
facet normal 0.707095444202423 0.00566270295530558 0.707095444202423
outer loop
vertex 0.0500284433364868 -7.15301513671875 0.187255769968033
vertex 0.084423840045929 -7.15309190750122 0.1528609842062
vertex 0.0400142222642899 -3.57650756835938 0.168627887964249
endloop
endfacet
facet normal 0.707095444202423 0.00566270295530558 0.707095444202423
outer loop
vertex 0.0572119168937206 -3.57654595375061 0.151430487632751
vertex 0.0400142222642899 -3.57650756835938 0.168627887964249
vertex 0.084423840045929 -7.15309190750122 0.1528609842062
endloop
endfacet
facet normal 0.707095444202423 0.00566270295530558 0.707095444202423
outer loop
vertex 0.0400142222642899 -3.57650756835938 0.168627887964249
vertex 0.0572119168937206 -3.57654595375061 0.151430487632751
vertex 0.0299999993294477 0 0.150000005960464
endloop
endfacet
facet normal 0.707096517086029 0.0053798733279109 -0.707096517086029
outer loop
vertex 0.24741567671299 -28.5757427215576 -0.00999999977648258
vertex 0.230218842625618 -28.575870513916 -0.0271978136152029
vertex 0.22020448744297 -24.9992771148682 -0.00999999977648258
endloop
endfacet
facet normal 0.707096517086029 0.0053798733279109 -0.707096517086029
outer loop
vertex 0.274626880884171 -32.1522102355957 -0.00999999977648258
vertex 0.240233182907104 -32.1524658203125 -0.0443956293165684
vertex 0.24741567671299 -28.5757427215576 -0.00999999977648258
endloop
endfacet
facet normal 0.707096517086029 0.0053798733279109 -0.707096517086029
outer loop
vertex 0.230218842625618 -28.575870513916 -0.0271978136152029
vertex 0.24741567671299 -28.5757427215576 -0.00999999977648258
vertex 0.240233182907104 -32.1524658203125 -0.0443956293165684
endloop
endfacet
facet normal 0.707096517086029 0.0053798733279109 -0.707096517086029
outer loop
vertex 0.274626880884171 -32.1522102355957 -0.00999999977648258
vertex 0.30183807015419 -35.7286758422852 -0.00999999977648258
vertex 0.240233182907104 -32.1524658203125 -0.0443956293165684
endloop
endfacet
facet normal 0.707096636295319 0.00537987379357219 -0.707096636295319
outer loop
vertex 0.250247538089752 -35.729061126709 -0.0615934431552887
vertex 0.240233182907104 -32.1524658203125 -0.0443956293165684
vertex 0.30183807015419 -35.7286758422852 -0.00999999977648258
endloop
endfacet
facet normal 0.707096636295319 0.00537987379357219 -0.707096636295319
outer loop
vertex 0.250247538089752 -35.729061126709 -0.0615934431552887
vertex 0.30183807015419 -35.7286758422852 -0.00999999977648258
vertex 0.2602618932724 -39.3056526184082 -0.0787912532687187
endloop
endfacet
facet normal 0.707096517086029 0.0053798733279109 -0.707096517086029
outer loop
vertex 0.32904925942421 -39.3051414489746 -0.00999999977648258
vertex 0.2602618932724 -39.3056526184082 -0.0787912532687187
vertex 0.30183807015419 -35.7286758422852 -0.00999999977648258
endloop
endfacet
facet normal 0.707096517086029 0.0053798733279109 -0.707096517086029
outer loop
vertex 0.32904925942421 -39.3051414489746 -0.00999999977648258
vertex 0.356260418891907 -42.8816070556641 -0.00999999977648258
vertex 0.2602618932724 -39.3056526184082 -0.0787912532687187
endloop
endfacet
facet normal 0.707096576690674 0.0053798733279109 -0.707096576690674
outer loop
vertex 0.270276218652725 -42.8822479248047 -0.0959890708327293
vertex 0.2602618932724 -39.3056526184082 -0.0787912532687187
vertex 0.356260418891907 -42.8816070556641 -0.00999999977648258
endloop
endfacet
facet normal 0.707096576690674 0.00537987425923347 -0.707096576690674
outer loop
vertex 0.383290231227875 -46.4342346191406 -0.00999999977648258
vertex 0.280223846435547 -46.4350090026855 -0.113072276115417
vertex 0.356260418891907 -42.8816070556641 -0.00999999977648258
endloop
endfacet
facet normal 0.707096576690674 0.00537987379357219 -0.707096576690674
outer loop
vertex 0.270276218652725 -42.8822479248047 -0.0959890708327293
vertex 0.356260418891907 -42.8816070556641 -0.00999999977648258
vertex 0.280223846435547 -46.4350090026855 -0.113072276115417
endloop
endfacet
facet normal 0.707096576690674 0.0053798733279109 -0.707096576690674
outer loop
vertex 0.383290231227875 -46.4342346191406 -0.00999999977648258
vertex 0.401236265897751 -48.7929496765137 -0.00999999977648258
vertex 0.280223846435547 -46.4350090026855 -0.113072276115417
endloop
endfacet
facet normal 0.707096517086029 0.00537987379357219 -0.707096517086029
outer loop
vertex 0.286828458309174 -48.793830871582 -0.124414518475533
vertex 0.280223846435547 -46.4350090026855 -0.113072276115417
vertex 0.401236265897751 -48.7929496765137 -0.00999999977648258
endloop
endfacet
facet normal 0.707096576690674 0.0053798733279109 -0.707096576690674
outer loop
vertex 0.401236265897751 -48.7929496765137 -0.00999999977648258
vertex 0.41040900349617 -49.9985542297363 -0.00999999977648258
vertex 0.286828458309174 -48.793830871582 -0.124414518475533
endloop
endfacet
facet normal 0.707096576690674 0.00537987379357219 -0.707096576690674
outer loop
vertex 0.29020419716835 -49.9994659423828 -0.130211740732193
vertex 0.286828458309174 -48.793830871582 -0.124414518475533
vertex 0.41040900349617 -49.9985542297363 -0.00999999977648258
endloop
endfacet
facet normal 0.218639075756073 0.672466695308685 -0.707096576690674
outer loop
vertex 44.3479042053223 -43.9052200317383 -0.200204208493233
vertex 44.3089981079102 -44.0189628601074 -0.320408999919891
vertex 43.2023811340332 -43.529224395752 -0.196828469634056
endloop
endfacet
facet normal 0.218639090657234 0.672466695308685 -0.707096576690674
outer loop
vertex 43.165340423584 -43.6374816894531 -0.311236262321472
vertex 43.2023811340332 -43.529224395752 -0.196828469634056
vertex 44.3089981079102 -44.0189628601074 -0.320408999919891
endloop
endfacet
facet normal 0.218639090657234 0.672466695308685 -0.707096517086029
outer loop
vertex 43.2023811340332 -43.529224395752 -0.196828469634056
vertex 43.165340423584 -43.6374816894531 -0.311236262321472
vertex 40.9611701965332 -42.7935943603516 -0.190223842859268
endloop
endfacet
facet normal 0.218639090657234 0.672466695308685 -0.707096576690674
outer loop
vertex 40.9278221130371 -42.8911285400391 -0.293290227651596
vertex 40.9611701965332 -42.7935943603516 -0.190223842859268
vertex 43.165340423584 -43.6374816894531 -0.311236262321472
endloop
endfacet
facet normal 0.218639090657234 0.672466695308685 -0.707096576690674
outer loop
vertex 40.9278221130371 -42.8911285400391 -0.293290227651596
vertex 37.5577392578125 -41.7669906616211 -0.26626044511795
vertex 40.9611701965332 -42.7935943603516 -0.190223842859268
endloop
endfacet
facet normal 0.218639090657234 0.67246675491333 -0.707096576690674
outer loop
vertex 37.5855560302734 -41.6856231689453 -0.180276229977608
vertex 40.9611701965332 -42.7935943603516 -0.190223842859268
vertex 37.5577392578125 -41.7669906616211 -0.26626044511795
endloop
endfacet
facet normal 0.218639090657234 0.672466635704041 -0.707096576690674
outer loop
vertex 37.5855560302734 -41.6856231689453 -0.180276229977608
vertex 37.5577392578125 -41.7669906616211 -0.26626044511795
vertex 34.1872940063477 -40.5702133178711 -0.17026187479496
endloop
endfacet
facet normal 0.218639075756073 0.672466695308685 -0.707096517086029
outer loop
vertex 34.1650390625 -40.635311126709 -0.23904924094677
vertex 34.1872940063477 -40.5702133178711 -0.17026187479496
vertex 37.5577392578125 -41.7669906616211 -0.26626044511795
endloop
endfacet
facet normal 0.218639075756073 0.672466695308685 -0.707096517086029
outer loop
vertex 34.1650390625 -40.635311126709 -0.23904924094677
vertex 30.7723407745361 -39.5036277770996 -0.21183805167675
vertex 34.1872940063477 -40.5702133178711 -0.17026187479496
endloop
endfacet
facet normal 0.218639105558395 0.67246675491333 -0.707096636295319
outer loop
vertex 30.7890300750732 -39.4548072814941 -0.160247534513474
vertex 34.1872940063477 -40.5702133178711 -0.17026187479496
vertex 30.7723407745361 -39.5036277770996 -0.21183805167675
endloop
endfacet
facet normal 0.218639105558395 0.67246675491333 -0.707096636295319
outer loop
vertex 30.7890300750732 -39.4548072814941 -0.160247534513474
vertex 30.7723407745361 -39.5036277770996 -0.21183805167675
vertex 27.3907661437988 -38.3394012451172 -0.150233194231987
endloop
endfacet
facet normal 0.218639075756073 0.672466695308685 -0.707096517086029
outer loop
vertex 27.3796405792236 -38.3719482421875 -0.184626877307892
vertex 27.3907661437988 -38.3394012451172 -0.150233194231987
vertex 30.7723407745361 -39.5036277770996 -0.21183805167675
endloop
endfacet
facet normal 0.218639075756073 0.672466695308685 -0.707096517086029
outer loop
vertex 27.3796405792236 -38.3719482421875 -0.184626877307892
vertex 23.9869403839111 -37.2402687072754 -0.157415688037872
vertex 27.3907661437988 -38.3394012451172 -0.150233194231987
endloop
endfacet
facet normal 0.218639075756073 0.672466695308685 -0.707096517086029
outer loop
vertex 23.992504119873 -37.2239952087402 -0.140218839049339
vertex 27.3907661437988 -38.3394012451172 -0.150233194231987
vertex 23.9869403839111 -37.2402687072754 -0.157415688037872
endloop
endfacet
facet normal 0.218639075756073 0.672466695308685 -0.707096517086029
outer loop
vertex 23.9869403839111 -37.2402687072754 -0.157415688037872
vertex 20.5942401885986 -36.108585357666 -0.130204498767853
vertex 23.992504119873 -37.2239952087402 -0.140218839049339
endloop
endfacet
endsolid COMSOL mesh mesh1
