solid COMSOL mesh mesh1
facet normal -0.0157595537602901 0.999875783920288 0
outer loop
vertex 0 0 0.150000005960464
vertex 0 0 0
vertex -0.945385038852692 -0.0149006964638829 0.150945499539375
endloop
endfacet
facet normal -0.015759551897645 0.999875783920288 -1.06212819609504e-17
outer loop
vertex -0.945385038852692 -0.0149006964638829 -0.000945502426475286
vertex -0.945385038852692 -0.0149006964638829 0.150945499539375
vertex 0 0 0
endloop
endfacet
facet normal -0.0157595537602901 0.999875843524933 -1.0621282788131e-17
outer loop
vertex -0.945385038852692 -0.0149006964638829 0.150945499539375
vertex -0.945385038852692 -0.0149006964638829 -0.000945502426475286
vertex -2.42330598831177 -0.0381949655711651 0.152423605322838
endloop
endfacet
facet normal -0.0157595537602901 0.999875783920288 -4.44142056765037e-17
outer loop
vertex -2.42330598831177 -0.0381949655711651 -0.00242360704578459
vertex -2.42330598831177 -0.0381949655711651 0.152423605322838
vertex -0.945385038852692 -0.0149006964638829 -0.000945502426475286
endloop
endfacet
facet normal -0.015759551897645 0.999875783920288 8.24530590568204e-17
outer loop
vertex -4.73374080657959 -0.0746109113097191 0.154734328389168
vertex -2.42330598831177 -0.0381949655711651 0.152423605322838
vertex -4.73374080657959 -0.0746109113097191 -0.00473432894796133
endloop
endfacet
facet normal -0.0157595537602901 0.999875783920288 -4.44142089852262e-17
outer loop
vertex -2.42330598831177 -0.0381949655711651 -0.00242360704578459
vertex -4.73374080657959 -0.0746109113097191 -0.00473432894796133
vertex -2.42330598831177 -0.0381949655711651 0.152423605322838
endloop
endfacet
facet normal -0.0157595537602901 0.999875843524933 8.24530722917102e-17
outer loop
vertex -4.73374080657959 -0.0746109113097191 0.154734328389168
vertex -4.73374080657959 -0.0746109113097191 -0.00473432894796133
vertex -8.1679801940918 -0.128739714622498 0.158169001340866
endloop
endfacet
facet normal -0.0157595537602901 0.999875843524933 1.66841800156354e-16
outer loop
vertex -8.1679801940918 -0.128739714622498 -0.00816899538040161
vertex -8.1679801940918 -0.128739714622498 0.158169001340866
vertex -4.73374080657959 -0.0746109113097191 -0.00473432894796133
endloop
endfacet
facet normal -0.015759551897645 0.999875783920288 1.66841786921464e-16
outer loop
vertex -8.1679801940918 -0.128739714622498 0.158169001340866
vertex -8.1679801940918 -0.128739714622498 -0.00816899538040161
vertex -11.8285026550293 -0.18643507361412 0.161829978227615
endloop
endfacet
facet normal -0.0157595556229353 0.999875843524933 0
outer loop
vertex -11.8285026550293 -0.18643507361412 -0.0118299713358283
vertex -11.8285026550293 -0.18643507361412 0.161829978227615
vertex -8.1679801940918 -0.128739714622498 -0.00816899538040161
endloop
endfacet
facet normal -0.0157595537602901 0.999875843524933 4.62705511723054e-16
outer loop
vertex -15.4890241622925 -0.244130417704582 0.165490955114365
vertex -11.8285026550293 -0.18643507361412 0.161829978227615
vertex -15.4890241622925 -0.244130417704582 -0.0154909482225776
endloop
endfacet
facet normal -0.0157595556229353 0.999875843524933 0
outer loop
vertex -11.8285026550293 -0.18643507361412 -0.0118299713358283
vertex -15.4890241622925 -0.244130417704582 -0.0154909482225776
vertex -11.8285026550293 -0.18643507361412 0.161829978227615
endloop
endfacet
facet normal -0.015759551897645 0.999875783920288 4.62705458783495e-16
outer loop
vertex -15.4890241622925 -0.244130417704582 0.165490955114365
vertex -15.4890241622925 -0.244130417704582 -0.0154909482225776
vertex -19.1263179779053 -0.301459670066833 0.169128701090813
endloop
endfacet
facet normal -0.0157595537602901 0.999875783920288 -2.97407614401529e-16
outer loop
vertex -19.1263179779053 -0.301459670066833 -0.0191286932677031
vertex -19.1263179779053 -0.301459670066833 0.169128701090813
vertex -15.4890241622925 -0.244130417704582 -0.0154909482225776
endloop
endfacet
facet normal -0.015759551897645 0.999875843524933 -2.97407614401529e-16
outer loop
vertex -19.1263179779053 -0.301459670066833 0.169128701090813
vertex -19.1263179779053 -0.301459670066833 -0.0191286932677031
vertex -21.9155197143555 -0.345421701669693 0.171918243169785
endloop
endfacet
facet normal -0.0157595537602901 0.999875783920288 -2.86345787626861e-16
outer loop
vertex -21.9155197143555 -0.345421701669693 -0.0219182409346104
vertex -21.9155197143555 -0.345421701669693 0.171918243169785
vertex -19.1263179779053 -0.301459670066833 -0.0191286932677031
endloop
endfacet
facet normal -0.0157595537602901 0.999875843524933 5.64407593029576e-16
outer loop
vertex -23.7673759460449 -0.374609768390656 0.173770323395729
vertex -21.9155197143555 -0.345421701669693 0.171918243169785
vertex -23.7673759460449 -0.374609768390656 -0.0237703286111355
endloop
endfacet
facet normal -0.0157595537602901 0.999875783920288 -2.86345787626861e-16
outer loop
vertex -21.9155197143555 -0.345421701669693 -0.0219182409346104
vertex -23.7673759460449 -0.374609768390656 -0.0237703286111355
vertex -21.9155197143555 -0.345421701669693 0.171918243169785
endloop
endfacet
facet normal -0.0157595537602901 0.999875843524933 5.64407540090017e-16
outer loop
vertex -23.7673759460449 -0.374609768390656 0.173770323395729
vertex -23.7673759460449 -0.374609768390656 -0.0237703286111355
vertex -24.9968948364258 -0.393988817930222 0.174999997019768
endloop
endfacet
facet normal -0.0157595537602901 0.999875843524933 0
outer loop
vertex -24.9968948364258 -0.393988817930222 -0.025000000372529
vertex -24.9968948364258 -0.393988817930222 0.174999997019768
vertex -23.7673759460449 -0.374609768390656 -0.0237703286111355
endloop
endfacet
facet normal 0.000895230798050761 0.00665360642597079 0.999977469444275
outer loop
vertex -22.4922485351563 -2.86782574653625 0.189218014478683
vertex -22.4724617004395 -2.84778690338135 0.189066976308823
vertex -24.9968948364258 -0.393988817930222 0.174999997019768
endloop
endfacet
facet normal 0.000895230798050761 0.00665360642597079 0.999977469444275
outer loop
vertex -19.9876022338867 -5.34166240692139 0.20343604683876
vertex -19.9480266571045 -5.30158472061157 0.203133940696716
vertex -22.4922485351563 -2.86782574653625 0.189218014478683
endloop
endfacet
facet normal 0.000895230798050761 0.00665360642597079 0.999977469444275
outer loop
vertex -22.4724617004395 -2.84778690338135 0.189066976308823
vertex -22.4922485351563 -2.86782574653625 0.189218014478683
vertex -19.9480266571045 -5.30158472061157 0.203133940696716
endloop
endfacet
facet normal 0.000895230798050761 0.00665360642597079 0.999977469444275
outer loop
vertex -19.9876022338867 -5.34166240692139 0.20343604683876
vertex -17.4829559326172 -7.8154993057251 0.217654064297676
vertex -19.9480266571045 -5.30158472061157 0.203133940696716
endloop
endfacet
facet normal 0.0008952307398431 0.00665360549464822 0.999977469444275
outer loop
vertex -17.4235916137695 -7.75538301467896 0.217200919985771
vertex -19.9480266571045 -5.30158472061157 0.203133940696716
vertex -17.4829559326172 -7.8154993057251 0.217654064297676
endloop
endfacet
facet normal 0.000895230798050761 0.00665360642597079 0.999977469444275
outer loop
vertex -14.978310585022 -10.2893362045288 0.231872081756592
vertex -14.8991575241089 -10.2091808319092 0.231267884373665
vertex -17.4829559326172 -7.8154993057251 0.217654064297676
endloop
endfacet
facet normal 0.0008952307398431 0.00665360549464822 0.999977469444275
outer loop
vertex -17.4235916137695 -7.75538301467896 0.217200919985771
vertex -17.4829559326172 -7.8154993057251 0.217654064297676
vertex -14.8991575241089 -10.2091808319092 0.231267884373665
endloop
endfacet
facet normal 0.000895230798050761 0.00665360642597079 0.999977469444275
outer loop
vertex -14.978310585022 -10.2893362045288 0.231872081756592
vertex -12.4736642837524 -12.7631731033325 0.246090099215508
vertex -14.8991575241089 -10.2091808319092 0.231267884373665
endloop
endfacet
facet normal 0.0008952307398431 0.00665360596030951 0.999977469444275
outer loop
vertex -12.3747224807739 -12.6629791259766 0.245334848761559
vertex -14.8991575241089 -10.2091808319092 0.231267884373665
vertex -12.4736642837524 -12.7631731033325 0.246090099215508
endloop
endfacet
facet normal 0.000895230798050761 0.00665360642597079 0.99997740983963
outer loop
vertex -9.97072410583496 -15.2353248596191 0.260298430919647
vertex -9.85200500488281 -15.1151075363159 0.259392261505127
vertex -12.4736642837524 -12.7631731033325 0.246090099215508
endloop
endfacet
facet normal 0.000895230798050761 0.00665360596030951 0.999977469444275
outer loop
vertex -12.3747224807739 -12.6629791259766 0.245334848761559
vertex -12.4736642837524 -12.7631731033325 0.246090099215508
vertex -9.85200500488281 -15.1151075363159 0.259392261505127
endloop
endfacet
facet normal 0.0008952307398431 0.00665360596030951 0.999977469444275
outer loop
vertex -9.97072410583496 -15.2353248596191 0.260298430919647
vertex -8.17914390563965 -17.0048675537109 0.27046862244606
vertex -9.85200500488281 -15.1151075363159 0.259392261505127
endloop
endfacet
facet normal 0.000895230798050761 0.00665360642597079 0.999977469444275
outer loop
vertex -8.04624557495117 -16.87034034729 0.269454538822174
vertex -9.85200500488281 -15.1151075363159 0.259392261505127
vertex -8.17914390563965 -17.0048675537109 0.27046862244606
endloop
endfacet
facet normal 0.0008952307398431 0.00665360596030951 0.99997740983963
outer loop
vertex -8.17914390563965 -17.0048675537109 0.27046862244606
vertex -7.21031332015991 -17.9617805480957 0.275968343019485
vertex -8.04624557495117 -16.87034034729 0.269454538822174
endloop
endfacet
facet normal 0.000895230798050761 0.00665360596030951 0.999977469444275
outer loop
vertex -7.06976985931396 -17.8194923400879 0.274895787239075
vertex -8.04624557495117 -16.87034034729 0.269454538822174
vertex -7.21031332015991 -17.9617805480957 0.275968343019485
endloop
endfacet
facet normal -0.707120060920715 0.00569717446342111 0.707070589065552
outer loop
vertex -16.7143955230713 -0.074347548186779 -16.7149658203125
vertex -17.6772804260254 -0.0786305665969849 -17.6778831481934
vertex -16.7147483825684 -0.263449668884277 -16.713794708252
endloop
endfacet
facet normal -0.707120001316071 0.00569717446342111 0.707070529460907
outer loop
vertex -17.677640914917 -0.278626322746277 -17.6766338348389
vertex -16.7147483825684 -0.263449668884277 -16.713794708252
vertex -17.6772804260254 -0.0786305665969849 -17.6778831481934
endloop
endfacet
facet normal -0.707120060920715 0.00569717399775982 0.707070529460907
outer loop
vertex -16.7147483825684 -0.263449668884277 -16.713794708252
vertex -14.9341115951538 -0.235384151339531 -14.9332599639893
vertex -16.7143955230713 -0.074347548186779 -16.7149658203125
endloop
endfacet
facet normal -0.707120060920715 0.00569717446342111 0.707070589065552
outer loop
vertex -14.9338188171387 -0.0664273425936699 -14.9343290328979
vertex -16.7143955230713 -0.074347548186779 -16.7149658203125
vertex -14.9341115951538 -0.235384151339531 -14.9332599639893
endloop
endfacet
facet normal -0.707120060920715 0.00569717446342111 0.707070589065552
outer loop
vertex -14.9338188171387 -0.0664273425936699 -14.9343290328979
vertex -14.9341115951538 -0.235384151339531 -14.9332599639893
vertex -12.4462623596191 -0.0553623996675014 -12.4466867446899
endloop
endfacet
facet normal -0.707120060920715 0.00569717446342111 0.707070589065552
outer loop
vertex -12.4465036392212 -0.196175694465637 -12.4457931518555
vertex -12.4462623596191 -0.0553623996675014 -12.4466867446899
vertex -14.9341115951538 -0.235384151339531 -14.9332599639893
endloop
endfacet
facet normal -0.707120060920715 0.00569717446342111 0.707070589065552
outer loop
vertex -12.4465036392212 -0.196175694465637 -12.4457931518555
vertex -9.95720291137695 -0.156940564513206 -9.95663452148438
vertex -12.4462623596191 -0.0553623996675014 -12.4466867446899
endloop
endfacet
facet normal -0.707120060920715 0.00569717446342111 0.707070589065552
outer loop
vertex -9.95700931549072 -0.0442899204790592 -9.95734882354736
vertex -12.4462623596191 -0.0553623996675014 -12.4466867446899
vertex -9.95720291137695 -0.156940564513206 -9.95663452148438
endloop
endfacet
facet normal -0.707120060920715 0.00569717446342111 0.707070589065552
outer loop
vertex -9.95700931549072 -0.0442899204790592 -9.95734882354736
vertex -9.95720291137695 -0.156940564513206 -9.95663452148438
vertex -7.46775722503662 -0.033217441290617 -7.4680118560791
endloop
endfacet
facet normal -0.707120001316071 0.00569717399775982 0.707070529460907
outer loop
vertex -7.46790218353271 -0.117705419659615 -7.46747636795044
vertex -7.46775722503662 -0.033217441290617 -7.4680118560791
vertex -9.95720291137695 -0.156940564513206 -9.95663452148438
endloop
endfacet
facet normal -0.707120001316071 0.00569717399775982 0.707070529460907
outer loop
vertex -7.46790218353271 -0.117705419659615 -7.46747636795044
vertex -4.97860145568848 -0.0784702822566032 -4.97831726074219
vertex -7.46775722503662 -0.033217441290617 -7.4680118560791
endloop
endfacet
facet normal -0.707120060920715 0.00569717446342111 0.707070589065552
outer loop
vertex -4.97850465774536 -0.0221449602395296 -4.97867441177368
vertex -7.46775722503662 -0.033217441290617 -7.4680118560791
vertex -4.97860145568848 -0.0784702822566032 -4.97831726074219
endloop
endfacet
facet normal -0.707120060920715 0.00569717446342111 0.707070589065552
outer loop
vertex -4.97850465774536 -0.0221449602395296 -4.97867441177368
vertex -4.97860145568848 -0.0784702822566032 -4.97831726074219
vertex -2.48925232887268 -0.0110724801197648 -2.48933720588684
endloop
endfacet
facet normal -0.707120060920715 0.00569717446342111 0.707070589065552
outer loop
vertex -2.48930072784424 -0.0392351411283016 -2.48915863037109
vertex -2.48925232887268 -0.0110724801197648 -2.48933720588684
vertex -4.97860145568848 -0.0784702822566032 -4.97831726074219
endloop
endfacet
facet normal -0.707120060920715 0.00569717446342111 0.707070589065552
outer loop
vertex -2.48925232887268 -0.0110724801197648 -2.48933720588684
vertex -2.48930072784424 -0.0392351411283016 -2.48915863037109
vertex 0 0 0
endloop
endfacet
facet normal 0.707078754901886 0.0079595185816288 -0.707089960575104
outer loop
vertex 0 0 0
vertex 0.000307689129840583 -0.0299984067678452 -2.99996372632449e-05
vertex -0.141924381256104 -0.000631295901257545 -0.141929224133492
endloop
endfacet
facet normal 0.707078754901886 0.00795951951295137 -0.707090020179749
outer loop
vertex -0.141602694988251 -0.031994491815567 -0.141960591077805
vertex -0.141924381256104 -0.000631295901257545 -0.141929224133492
vertex 0.000307689129840583 -0.0299984067678452 -2.99996372632449e-05
endloop
endfacet
facet normal 0.707078754901886 0.00795951951295137 -0.707090020179749
outer loop
vertex -0.39222839474678 -0.00174467684701085 -0.392241775989532
vertex -0.141924381256104 -0.000631295901257545 -0.141929224133492
vertex -0.391882002353668 -0.0355148687958717 -0.392275542020798
endloop
endfacet
facet normal 0.707078814506531 0.00795951951295137 -0.707090020179749
outer loop
vertex -0.141602694988251 -0.031994491815567 -0.141960591077805
vertex -0.391882002353668 -0.0355148687958717 -0.392275542020798
vertex -0.141924381256104 -0.000631295901257545 -0.141929224133492
endloop
endfacet
facet normal 0.707078814506531 0.00795951951295137 -0.707090020179749
outer loop
vertex -0.833675384521484 -0.0037082836497575 -0.833703815937042
vertex -0.39222839474678 -0.00174467684701085 -0.392241775989532
vertex -0.833285450935364 -0.0417235605418682 -0.833741843700409
endloop
endfacet
facet normal 0.707078754901886 0.0079595185816288 -0.707090020179749
outer loop
vertex -0.391882002353668 -0.0355148687958717 -0.392275542020798
vertex -0.833285450935364 -0.0417235605418682 -0.833741843700409
vertex -0.39222839474678 -0.00174467684701085 -0.392241775989532
endloop
endfacet
facet normal 0.707078695297241 0.0079595185816288 -0.707090020179749
outer loop
vertex -0.833675384521484 -0.0037082836497575 -0.833703815937042
vertex -0.833285450935364 -0.0417235605418682 -0.833741843700409
vertex -1.61223042011261 -0.00717138545587659 -1.61228537559509
endloop
endfacet
facet normal 0.707078754901886 0.0079595185816288 -0.707090020179749
outer loop
vertex -1.61176371574402 -0.0526734814047813 -1.6123309135437
vertex -1.61223042011261 -0.00717138545587659 -1.61228537559509
vertex -0.833285450935364 -0.0417235605418682 -0.833741843700409
endloop
endfacet
facet normal 0.707078754901886 0.00795951951295137 -0.707090079784393
outer loop
vertex -2.98532390594482 -0.0132790626958013 -2.9854257106781
vertex -1.61223042011261 -0.00717138545587659 -1.61228537559509
vertex -2.98472166061401 -0.0719852298498154 -2.98548436164856
endloop
endfacet
facet normal 0.707078754901886 0.00795951951295137 -0.707090079784393
outer loop
vertex -1.61176371574402 -0.0526734814047813 -1.6123309135437
vertex -2.98472166061401 -0.0719852298498154 -2.98548436164856
vertex -1.61223042011261 -0.00717138545587659 -1.61228537559509
endloop
endfacet
facet normal 0.707078695297241 0.0079595185816288 -0.707090020179749
outer loop
vertex -5.33046197891235 -0.0237105060368776 -5.33064413070679
vertex -2.98532390594482 -0.0132790626958013 -2.9854257106781
vertex -5.32962894439697 -0.104968227446079 -5.33072519302368
endloop
endfacet
facet normal 0.707078754901886 0.0079595185816288 -0.707089960575104
outer loop
vertex -2.98472166061401 -0.0719852298498154 -2.98548436164856
vertex -5.32962894439697 -0.104968227446079 -5.33072519302368
vertex -2.98532390594482 -0.0132790626958013 -2.9854257106781
endloop
endfacet
facet normal 0.707078754901886 0.00795951951295137 -0.707090020179749
outer loop
vertex -5.33046197891235 -0.0237105060368776 -5.33064413070679
vertex -5.32962894439697 -0.104968227446079 -5.33072519302368
vertex -7.99342012405396 -0.035555649548769 -7.99369287490845
endloop
endfacet
facet normal 0.707078695297241 0.0079595185816288 -0.707090020179749
outer loop
vertex -7.9923243522644 -0.142421171069145 -7.99379968643188
vertex -7.99342012405396 -0.035555649548769 -7.99369287490845
vertex -5.32962894439697 -0.104968227446079 -5.33072519302368
endloop
endfacet
facet normal 0.707078695297241 0.0079595185816288 -0.707090020179749
outer loop
vertex -7.99342012405396 -0.035555649548769 -7.99369287490845
vertex -7.9923243522644 -0.142421171069145 -7.99379968643188
vertex -10.6563777923584 -0.0474007911980152 -10.6567420959473
endloop
endfacet
facet normal 0.707078754901886 0.0079595185816288 -0.707089960575104
outer loop
vertex -10.6550197601318 -0.179874107241631 -10.6568746566772
vertex -10.6563777923584 -0.0474007911980152 -10.6567420959473
vertex -7.9923243522644 -0.142421171069145 -7.99379968643188
endloop
endfacet
facet normal 0.707078754901886 0.0079595185816288 -0.707090020179749
outer loop
vertex -13.317455291748 -0.0592375695705414 -13.317910194397
vertex -10.6563777923584 -0.0474007911980152 -10.6567420959473
vertex -13.3158340454102 -0.217300593852997 -13.3180675506592
endloop
endfacet
facet normal 0.707078754901886 0.00795951951295137 -0.707090020179749
outer loop
vertex -10.6550197601318 -0.179874107241631 -10.6568746566772
vertex -13.3158340454102 -0.217300593852997 -13.3180675506592
vertex -10.6563777923584 -0.0474007911980152 -10.6567420959473
endloop
endfacet
facet normal 0.707078695297241 0.0079595185816288 -0.707089960575104
outer loop
vertex -13.317455291748 -0.0592375695705414 -13.317910194397
vertex -13.3158340454102 -0.217300593852997 -13.3180675506592
vertex -15.4251556396484 -0.0686128586530685 -15.4256820678711
endloop
endfacet
facet normal 0.707078814506531 0.00795951951295137 -0.707090079784393
outer loop
vertex -15.4233264923096 -0.246944159269333 -15.4258604049683
vertex -15.4251556396484 -0.0686128586530685 -15.4256820678711
vertex -13.3158340454102 -0.217300593852997 -13.3180675506592
endloop
endfacet
facet normal 0.707078695297241 0.0079595185816288 -0.707090020179749
outer loop
vertex -16.7915573120117 -0.0746907740831375 -16.7921314239502
vertex -15.4251556396484 -0.0686128586530685 -15.4256820678711
vertex -16.7895946502686 -0.266161799430847 -16.7923221588135
endloop
endfacet
facet normal 0.707078754901886 0.00795951951295137 -0.707090020179749
outer loop
vertex -15.4233264923096 -0.246944159269333 -15.4258604049683
vertex -16.7895946502686 -0.266161799430847 -16.7923221588135
vertex -15.4251556396484 -0.0686128586530685 -15.4256820678711
endloop
endfacet
facet normal 0.707078754901886 0.0079595185816288 -0.707090020179749
outer loop
vertex -16.7915573120117 -0.0746907740831375 -16.7921314239502
vertex -16.7895946502686 -0.266161799430847 -16.7923221588135
vertex -17.6773834228516 -0.0786310210824013 -17.6779861450195
endloop
endfacet
facet normal 0.707078754901886 0.00795951951295137 -0.707090079784393
outer loop
vertex -17.6753311157227 -0.278620392084122 -17.678186416626
vertex -17.6773834228516 -0.0786310210824013 -17.6779861450195
vertex -16.7895946502686 -0.266161799430847 -16.7923221588135
endloop
endfacet
facet normal -0.320911794900894 -0.94710910320282 -9.81920640174931e-14
outer loop
vertex -2.96270108222961 -28.4059181213379 0.0906824320554733
vertex -3.15279984474182 -28.3415069580078 0.0900000035762787
vertex -2.96270108222961 -28.4059181213379 0.0593175701797009
endloop
endfacet
facet normal -0.320911794900894 -0.947109043598175 0
outer loop
vertex -3.15279984474182 -28.3415069580078 0.0599999986588955
vertex -2.96270108222961 -28.4059181213379 0.0593175701797009
vertex -3.15279984474182 -28.3415069580078 0.0900000035762787
endloop
endfacet
facet normal -0.320911794900894 -0.94710910320282 -9.81920707937567e-14
outer loop
vertex -2.96270108222961 -28.4059181213379 0.0906824320554733
vertex -2.96270108222961 -28.4059181213379 0.0593175701797009
vertex -2.62743496894836 -28.5195178985596 0.0918859913945198
endloop
endfacet
facet normal -0.320911824703217 -0.947109043598175 9.96330906774708e-14
outer loop
vertex -2.62743496894836 -28.5195178985596 0.0581140071153641
vertex -2.62743496894836 -28.5195178985596 0.0918859913945198
vertex -2.96270108222961 -28.4059181213379 0.0593175701797009
endloop
endfacet
facet normal -0.320911794900894 -0.94710910320282 1.8826049931215e-13
outer loop
vertex -2.03614473342896 -28.7198657989502 0.0559913516044617
vertex -2.03614473342896 -28.7198657989502 0.0940086469054222
vertex -2.62743496894836 -28.5195178985596 0.0581140071153641
endloop
endfacet
facet normal -0.320911765098572 -0.947109043598175 9.96330906774708e-14
outer loop
vertex -2.62743496894836 -28.5195178985596 0.0918859913945198
vertex -2.62743496894836 -28.5195178985596 0.0581140071153641
vertex -2.03614473342896 -28.7198657989502 0.0940086469054222
endloop
endfacet
facet normal -0.320911794900894 -0.947109043598175 1.8826049931215e-13
outer loop
vertex -2.03614473342896 -28.7198657989502 0.0559913516044617
vertex -0.993319988250732 -29.0732097625732 0.0522477440536022
vertex -2.03614473342896 -28.7198657989502 0.0940086469054222
endloop
endfacet
facet normal -0.320911824703217 -0.947109043598175 1.51803781133983e-13
outer loop
vertex -0.993319988250732 -29.0732097625732 0.097752258181572
vertex -2.03614473342896 -28.7198657989502 0.0940086469054222
vertex -0.993319988250732 -29.0732097625732 0.0522477440536022
endloop
endfacet
facet normal -0.320911824703217 -0.94710910320282 2.87905753382743e-14
outer loop
vertex 0.845851123332977 -29.6963806152344 0.0456453561782837
vertex 0.845851123332977 -29.6963806152344 0.1043546423316
vertex -0.993319988250732 -29.0732097625732 0.0522477440536022
endloop
endfacet
facet normal -0.320911794900894 -0.947109043598175 1.51803767581456e-13
outer loop
vertex -0.993319988250732 -29.0732097625732 0.097752258181572
vertex -0.993319988250732 -29.0732097625732 0.0522477440536022
vertex 0.845851123332977 -29.6963806152344 0.1043546423316
endloop
endfacet
facet normal -0.320911824703217 -0.947109043598175 1.15930943095149e-14
outer loop
vertex 3.98701453208923 -30.7607116699219 0.034368984401226
vertex 3.98701453208923 -30.7607116699219 0.115631014108658
vertex 0.845851123332977 -29.6963806152344 0.0456453561782837
endloop
endfacet
facet normal -0.320911794900894 -0.947109043598175 2.87905753382743e-14
outer loop
vertex 0.845851123332977 -29.6963806152344 0.1043546423316
vertex 0.845851123332977 -29.6963806152344 0.0456453561782837
vertex 3.98701453208923 -30.7607116699219 0.115631014108658
endloop
endfacet
facet normal -0.320911794900894 -0.947109162807465 1.15930943095149e-14
outer loop
vertex 3.98701453208923 -30.7607116699219 0.034368984401226
vertex 7.55387687683105 -31.9692821502686 0.0215644054114819
vertex 3.98701453208923 -30.7607116699219 0.115631014108658
endloop
endfacet
facet normal -0.320911794900894 -0.947109043598175 -4.48197692338743e-14
outer loop
vertex 7.55387687683105 -31.9692821502686 0.128435596823692
vertex 3.98701453208923 -30.7607116699219 0.115631014108658
vertex 7.55387687683105 -31.9692821502686 0.0215644054114819
endloop
endfacet
facet normal -0.320911794900894 -0.947109043598175 -4.48197692338743e-14
outer loop
vertex 7.55387687683105 -31.9692821502686 0.0215644054114819
vertex 11.1207399368286 -33.1778526306152 0.00875982642173767
vertex 7.55387687683105 -31.9692821502686 0.128435596823692
endloop
endfacet
facet normal -0.320911794900894 -0.947109043598175 3.78882851741896e-14
outer loop
vertex 11.1207399368286 -33.1778526306152 0.141240179538727
vertex 7.55387687683105 -31.9692821502686 0.128435596823692
vertex 11.1207399368286 -33.1778526306152 0.00875982642173767
endloop
endfacet
facet normal -0.320911824703217 -0.94710910320282 -3.60630587688975e-15
outer loop
vertex 14.6850824356079 -34.385570526123 -0.00403570802882314
vertex 14.6850824356079 -34.385570526123 0.154035702347755
vertex 11.1207399368286 -33.1778526306152 0.00875982642173767
endloop
endfacet
facet normal -0.320911794900894 -0.94710910320282 3.78882885623214e-14
outer loop
vertex 11.1207399368286 -33.1778526306152 0.141240179538727
vertex 11.1207399368286 -33.1778526306152 0.00875982642173767
vertex 14.6850824356079 -34.385570526123 0.154035702347755
endloop
endfacet
facet normal -0.320911794900894 -0.94710910320282 -3.60630630040623e-15
outer loop
vertex 14.6850824356079 -34.385570526123 -0.00403570802882314
vertex 17.5082130432129 -35.3421401977539 -0.0141703831031919
vertex 14.6850824356079 -34.385570526123 0.154035702347755
endloop
endfacet
facet normal -0.320911824703217 -0.94710910320282 6.39286173775627e-15
outer loop
vertex 17.5082130432129 -35.3421401977539 0.164170384407043
vertex 14.6850824356079 -34.385570526123 0.154035702347755
vertex 17.5082130432129 -35.3421401977539 -0.0141703831031919
endloop
endfacet
facet normal -0.320911794900894 -0.947109043598175 -2.32367429334537e-14
outer loop
vertex 19.3384208679199 -35.962272644043 -0.02074059471488
vertex 19.3384208679199 -35.962272644043 0.170740589499474
vertex 17.5082130432129 -35.3421401977539 -0.0141703831031919
endloop
endfacet
facet normal -0.320911794900894 -0.947109043598175 6.3928613142398e-15
outer loop
vertex 17.5082130432129 -35.3421401977539 0.164170384407043
vertex 17.5082130432129 -35.3421401977539 -0.0141703831031919
vertex 19.3384208679199 -35.962272644043 0.170740589499474
endloop
endfacet
facet normal -0.320911794900894 -0.94710910320282 -2.32367446275196e-14
outer loop
vertex 19.3384208679199 -35.962272644043 -0.02074059471488
vertex 20.5249271392822 -36.3642997741699 -0.025000000372529
vertex 19.3384208679199 -35.962272644043 0.170740589499474
endloop
endfacet
facet normal -0.320911824703217 -0.947109162807465 -0
outer loop
vertex 20.5249271392822 -36.3642997741699 0.174999997019768
vertex 19.3384208679199 -35.962272644043 0.170740589499474
vertex 20.5249271392822 -36.3642997741699 -0.025000000372529
endloop
endfacet
facet normal 0.00859658233821392 -0.00284915347583592 0.999959051609039
outer loop
vertex -3.15279984474182 -28.3415069580078 0.0599999986588955
vertex -2.25564026832581 -28.6398468017578 0.0514371246099472
vertex -3.10560989379883 -28.1991233825684 0.0599999986588955
endloop
endfacet
facet normal 0.00859658233821392 -0.00284915347583592 0.999958992004395
outer loop
vertex -2.20785522460938 -28.4956684112549 0.0514371246099472
vertex -3.10560989379883 -28.1991233825684 0.0599999986588955
vertex -2.25564026832581 -28.6398468017578 0.0514371246099472
endloop
endfacet
facet normal 0.00859658233821392 -0.00284915347583592 0.999958992004395
outer loop
vertex -0.853109955787659 -29.1062431335449 0.0380507744848728
vertex -0.804394960403442 -28.9592571258545 0.0380507744848728
vertex -2.25564026832581 -28.6398468017578 0.0514371246099472
endloop
endfacet
facet normal 0.00859658233821392 -0.00284915347583592 0.999958992004395
outer loop
vertex -2.20785522460938 -28.4956684112549 0.0514371246099472
vertex -2.25564026832581 -28.6398468017578 0.0514371246099472
vertex -0.804394960403442 -28.9592571258545 0.0380507744848728
endloop
endfacet
facet normal 0.00859658140689135 -0.00284915347583592 0.99995893239975
outer loop
vertex -0.853109955787659 -29.1062431335449 0.0380507744848728
vertex 1.33946657180786 -29.8353595733643 0.0171238873153925
vertex -0.804394960403442 -28.9592571258545 0.0380507744848728
endloop
endfacet
facet normal 0.00859658233821392 -0.00284915347583592 0.999958992004395
outer loop
vertex 1.38963544368744 -29.683988571167 0.0171238873153925
vertex -0.804394960403442 -28.9592571258545 0.0380507744848728
vertex 1.33946657180786 -29.8353595733643 0.0171238873153925
endloop
endfacet
facet normal 0.00859658233821392 -0.00284915347583592 0.999958992004395
outer loop
vertex 4.59852075576782 -30.9191226959229 -0.0139819206669927
vertex 4.65085077285767 -30.76123046875 -0.0139819206669927
vertex 1.33946657180786 -29.8353595733643 0.0171238873153925
endloop
endfacet
facet normal 0.00859658140689135 -0.00284915324300528 0.999958992004395
outer loop
vertex 1.38963544368744 -29.683988571167 0.0171238873153925
vertex 1.33946657180786 -29.8353595733643 0.0171238873153925
vertex 4.65085077285767 -30.76123046875 -0.0139819206669927
endloop
endfacet
facet normal 0.00859658233821392 -0.00284915370866656 0.999958992004395
outer loop
vertex 4.59852075576782 -30.9191226959229 -0.0139819206669927
vertex 8.07231426239014 -32.0742950439453 -0.0471372939646244
vertex 4.65085077285767 -30.76123046875 -0.0139819206669927
endloop
endfacet
facet normal 0.00859658233821392 -0.00284915347583592 0.999959051609039
outer loop
vertex 8.1269474029541 -31.9094505310059 -0.0471372939646244
vertex 4.65085077285767 -30.76123046875 -0.0139819206669927
vertex 8.07231426239014 -32.0742950439453 -0.0471372939646244
endloop
endfacet
facet normal 0.00859658233821392 -0.00284915347583592 0.999959051609039
outer loop
vertex 8.07231426239014 -32.0742950439453 -0.0471372939646244
vertex 11.5461082458496 -33.2294654846191 -0.0802926644682884
vertex 8.1269474029541 -31.9094505310059 -0.0471372939646244
endloop
endfacet
facet normal 0.00859658140689135 -0.00284915324300528 0.999958992004395
outer loop
vertex 11.6030445098877 -33.0576705932617 -0.0802926644682884
vertex 8.1269474029541 -31.9094505310059 -0.0471372939646244
vertex 11.5461082458496 -33.2294654846191 -0.0802926644682884
endloop
endfacet
facet normal 0.00859658140689135 -0.00284915347583592 0.999958992004395
outer loop
vertex 15.0570840835571 -34.1986083984375 -0.113237649202347
vertex 11.6030445098877 -33.0576705932617 -0.0802926644682884
vertex 14.9978590011597 -34.3773078918457 -0.113237649202347
endloop
endfacet
facet normal 0.00859658233821392 -0.00284915347583592 0.999958992004395
outer loop
vertex 11.5461082458496 -33.2294654846191 -0.0802926644682884
vertex 14.9978590011597 -34.3773078918457 -0.113237649202347
vertex 11.6030445098877 -33.0576705932617 -0.0802926644682884
endloop
endfacet
facet normal 0.00859658233821392 -0.00284915370866656 0.999959051609039
outer loop
vertex 15.0570840835571 -34.1986083984375 -0.113237649202347
vertex 14.9978590011597 -34.3773078918457 -0.113237649202347
vertex 17.7057590484619 -35.0735168457031 -0.138500988483429
endloop
endfacet
facet normal 0.00859658233821392 -0.00284915370866656 0.999958992004395
outer loop
vertex 17.6447792053223 -35.257511138916 -0.138500988483429
vertex 17.7057590484619 -35.0735168457031 -0.138500988483429
vertex 14.9978590011597 -34.3773078918457 -0.113237649202347
endloop
endfacet
facet normal 0.00859658233821392 -0.00284915324300528 0.99995893239975
outer loop
vertex 19.4021701812744 -35.841911315918 -0.155274286866188
vertex 19.4643154144287 -35.6543998718262 -0.155274286866188
vertex 17.6447792053223 -35.257511138916 -0.138500988483429
endloop
endfacet
facet normal 0.00859658233821392 -0.00284915347583592 0.999958992004395
outer loop
vertex 17.7057590484619 -35.0735168457031 -0.138500988483429
vertex 17.6447792053223 -35.257511138916 -0.138500988483429
vertex 19.4643154144287 -35.6543998718262 -0.155274286866188
endloop
endfacet
facet normal 0.00859658140689135 -0.00284915347583592 0.999959051609039
outer loop
vertex 19.4021701812744 -35.841911315918 -0.155274286866188
vertex 20.5689697265625 -36.2299156188965 -0.166410714387894
vertex 19.4643154144287 -35.6543998718262 -0.155274286866188
endloop
endfacet
facet normal 0.00859658140689135 -0.00284915347583592 0.999958992004395
outer loop
vertex 20.6318893432617 -36.0400733947754 -0.166410714387894
vertex 19.4643154144287 -35.6543998718262 -0.155274286866188
vertex 20.5689697265625 -36.2299156188965 -0.166410714387894
endloop
endfacet
facet normal -0.229200229048729 -0.668948888778687 -0.707088887691498
outer loop
vertex 20.5697174072266 -36.2301635742188 -0.166419565677643
vertex 20.5247898101807 -36.3642539978027 -0.0249976254999638
vertex 19.2775707244873 -35.8004760742188 -0.1540866792202
endloop
endfacet
facet normal -0.229200214147568 -0.668948829174042 -0.707088887691498
outer loop
vertex 19.2350769042969 -35.9272575378418 -0.0203678235411644
vertex 19.2775707244873 -35.8004760742188 -0.1540866792202
vertex 20.5247898101807 -36.3642539978027 -0.0249976254999638
endloop
endfacet
facet normal -0.22920024394989 -0.668948829174042 -0.707088947296143
outer loop
vertex 19.2775707244873 -35.8004760742188 -0.1540866792202
vertex 19.2350769042969 -35.9272575378418 -0.0203678235411644
vertex 16.888053894043 -35.0058670043945 -0.131279930472374
endloop
endfacet
facet normal -0.229200229048729 -0.668948829174042 -0.707088887691498
outer loop
vertex 16.8501167297363 -35.1191558837891 -0.0118063129484653
vertex 16.888053894043 -35.0058670043945 -0.131279930472374
vertex 19.2350769042969 -35.9272575378418 -0.0203678235411644
endloop
endfacet
facet normal -0.22920024394989 -0.668948888778687 -0.707088947296143
outer loop
vertex 16.8501167297363 -35.1191558837891 -0.0118063129484653
vertex 13.5181903839111 -33.9901885986328 0.000154611741891131
vertex 16.888053894043 -35.0058670043945 -0.131279930472374
endloop
endfacet
facet normal -0.22920024394989 -0.668948829174042 -0.707088887691498
outer loop
vertex 13.5498056411743 -33.8957710266113 -0.0994180217385292
vertex 16.888053894043 -35.0058670043945 -0.131279930472374
vertex 13.5181903839111 -33.9901885986328 0.000154611741891131
endloop
endfacet
facet normal -0.229200229048729 -0.668948769569397 -0.707088887691498
outer loop
vertex 13.5498056411743 -33.8957710266113 -0.0994180217385292
vertex 13.5181903839111 -33.9901885986328 0.000154611741891131
vertex 10.2092847824097 -32.7849159240723 -0.0675344169139862
endloop
endfacet
facet normal -0.22920024394989 -0.668948829174042 -0.707088887691498
outer loop
vertex 10.1839923858643 -32.8604507446289 0.0121236890554428
vertex 10.2092847824097 -32.7849159240723 -0.0675344169139862
vertex 13.5181903839111 -33.9901885986328 0.000154611741891131
endloop
endfacet
facet normal -0.22920024394989 -0.668948829174042 -0.707088887691498
outer loop
vertex 10.1839923858643 -32.8604507446289 0.0121236890554428
vertex 6.84979438781738 -31.7307147979736 0.0240927673876286
vertex 10.2092847824097 -32.7849159240723 -0.0675344169139862
endloop
endfacet
facet normal -0.229200229048729 -0.668948829174042 -0.707088887691498
outer loop
vertex 6.86876344680786 -31.6740646362305 -0.0356508120894432
vertex 10.2092847824097 -32.7849159240723 -0.0675344169139862
vertex 6.84979438781738 -31.7307147979736 0.0240927673876286
endloop
endfacet
facet normal -0.229200229048729 -0.668948829174042 -0.707088887691498
outer loop
vertex 6.86876344680786 -31.6740646362305 -0.0356508120894432
vertex 6.84979438781738 -31.7307147979736 0.0240927673876286
vertex 3.52824258804321 -30.56321144104 -0.00376720819622278
endloop
endfacet
facet normal -0.22920024394989 -0.668948829174042 -0.707088887691498
outer loop
vertex 3.51559615135193 -30.6009788513184 0.0360618457198143
vertex 3.52824258804321 -30.56321144104 -0.00376720819622278
vertex 6.84979438781738 -31.7307147979736 0.0240927673876286
endloop
endfacet
facet normal -0.22920024394989 -0.668948829174042 -0.707088887691498
outer loop
vertex 3.51559615135193 -30.6009788513184 0.0360618457198143
vertex 0.18139822781086 -29.4712429046631 0.048030924052
vertex 3.52824258804321 -30.56321144104 -0.00376720819622278
endloop
endfacet
facet normal -0.22920024394989 -0.668948829174042 -0.707088887691498
outer loop
vertex 0.187721341848373 -29.4523582458496 0.0281163956969976
vertex 3.52824258804321 -30.56321144104 -0.00376720819622278
vertex 0.18139822781086 -29.4712429046631 0.048030924052
endloop
endfacet
facet normal -0.22920024394989 -0.668948829174042 -0.707088887691498
outer loop
vertex 0.18139822781086 -29.4712429046631 0.048030924052
vertex -3.15279984474182 -28.3415069580078 0.0599999986588955
vertex 0.187721341848373 -29.4523582458496 0.0281163956969976
endloop
endfacet
facet normal -0.949106454849243 0.314561069011688 0.0157595537602901
outer loop
vertex -2.72376108169556 -28.2993412017822 25.0868949890137
vertex -2.74254298210144 -28.2944107055664 23.8573760986328
vertex -2.78668093681335 -28.489185333252 25.0868949890137
endloop
endfacet
facet normal -0.949106395244598 0.314561039209366 0.0157595537602901
outer loop
vertex -2.80468916893005 -28.4819221496582 23.8573760986328
vertex -2.78668093681335 -28.489185333252 25.0868949890137
vertex -2.74254298210144 -28.2944107055664 23.8573760986328
endloop
endfacet
facet normal -0.949106454849243 0.314561069011688 0.0157595537602901
outer loop
vertex -2.80468916893005 -28.4819221496582 23.8573760986328
vertex -2.74254298210144 -28.2944107055664 23.8573760986328
vertex -2.83181262016296 -28.4709815979004 22.0055198669434
endloop
endfacet
facet normal -0.949106395244598 0.314561039209366 0.0157595537602901
outer loop
vertex -2.77083158493042 -28.2869873046875 22.0055198669434
vertex -2.83181262016296 -28.4709815979004 22.0055198669434
vertex -2.74254298210144 -28.2944107055664 23.8573760986328
endloop
endfacet
facet normal -0.949106395244598 0.314561039209366 0.0157595537602901
outer loop
vertex -2.83181262016296 -28.4709815979004 22.0055198669434
vertex -2.77083158493042 -28.2869873046875 22.0055198669434
vertex -2.87266492843628 -28.4545021057129 19.2163181304932
endloop
endfacet
facet normal -0.949106395244598 0.314561039209366 0.015759551897645
outer loop
vertex -2.81343913078308 -28.2758045196533 19.2163181304932
vertex -2.87266492843628 -28.4545021057129 19.2163181304932
vertex -2.77083158493042 -28.2869873046875 22.0055198669434
endloop
endfacet
facet normal -0.949106395244598 0.314561039209366 0.0157595537602901
outer loop
vertex -2.81343913078308 -28.2758045196533 19.2163181304932
vertex -2.86900186538696 -28.2612209320068 15.5790243148804
vertex -2.87266492843628 -28.4545021057129 19.2163181304932
endloop
endfacet
facet normal -0.949106454849243 0.314561069011688 0.0157595537602901
outer loop
vertex -2.92593884468079 -28.4330139160156 15.5790243148804
vertex -2.87266492843628 -28.4545021057129 19.2163181304932
vertex -2.86900186538696 -28.2612209320068 15.5790243148804
endloop
endfacet
facet normal -0.949106454849243 0.314561069011688 0.0157595556229353
outer loop
vertex -2.97955274581909 -28.4113883972168 11.9185028076172
vertex -2.92593884468079 -28.4330139160156 15.5790243148804
vertex -2.92491936683655 -28.246545791626 11.9185028076172
endloop
endfacet
facet normal -0.949106454849243 0.314561069011688 0.0157595537602901
outer loop
vertex -2.86900186538696 -28.2612209320068 15.5790243148804
vertex -2.92491936683655 -28.246545791626 11.9185028076172
vertex -2.92593884468079 -28.4330139160156 15.5790243148804
endloop
endfacet
facet normal -0.949106454849243 0.314561069011688 0.0157595556229353
outer loop
vertex -2.92491936683655 -28.246545791626 11.9185028076172
vertex -2.98083686828613 -28.2318706512451 8.25798034667969
vertex -2.97955274581909 -28.4113883972168 11.9185028076172
endloop
endfacet
facet normal -0.949106395244598 0.314561039209366 0.015759551897645
outer loop
vertex -3.03316688537598 -28.389762878418 8.25798034667969
vertex -2.97955274581909 -28.4113883972168 11.9185028076172
vertex -2.98083686828613 -28.2318706512451 8.25798034667969
endloop
endfacet
facet normal -0.949106454849243 0.314561039209366 0.0157595537602901
outer loop
vertex -3.03316688537598 -28.389762878418 8.25798034667969
vertex -2.98083686828613 -28.2318706512451 8.25798034667969
vertex -3.08346676826477 -28.3694725036621 4.82374095916748
endloop
endfacet
facet normal -0.949106454849243 0.314561069011688 0.0157595537602901
outer loop
vertex -3.0332977771759 -28.2181015014648 4.82374095916748
vertex -3.08346676826477 -28.3694725036621 4.82374095916748
vertex -2.98083686828613 -28.2318706512451 8.25798034667969
endloop
endfacet
facet normal -0.949106454849243 0.314561039209366 0.0157595537602901
outer loop
vertex -3.0332977771759 -28.2181015014648 4.82374095916748
vertex -3.06859183311462 -28.2088375091553 2.51330614089966
vertex -3.08346676826477 -28.3694725036621 4.82374095916748
endloop
endfacet
facet normal -0.949106395244598 0.314561039209366 0.0157595537602901
outer loop
vertex -3.11730670928955 -28.3558235168457 2.51330614089966
vertex -3.08346676826477 -28.3694725036621 4.82374095916748
vertex -3.06859183311462 -28.2088375091553 2.51330614089966
endloop
endfacet
facet normal -0.949106395244598 0.314561039209366 0.0157595537602901
outer loop
vertex -3.11730670928955 -28.3558235168457 2.51330614089966
vertex -3.06859183311462 -28.2088375091553 2.51330614089966
vertex -3.13895320892334 -28.3470916748047 1.03538501262665
endloop
endfacet
facet normal -0.949106454849243 0.314561039209366 0.0157595537602901
outer loop
vertex -3.09116816520691 -28.2029132843018 1.03538501262665
vertex -3.13895320892334 -28.3470916748047 1.03538501262665
vertex -3.06859183311462 -28.2088375091553 2.51330614089966
endloop
endfacet
facet normal -0.949106454849243 0.314561069011688 0.0157595537602901
outer loop
vertex -3.13895320892334 -28.3470916748047 1.03538501262665
vertex -3.09116816520691 -28.2029132843018 1.03538501262665
vertex -3.15279984474182 -28.3415069580078 0.0900000035762787
endloop
endfacet
facet normal -0.949106395244598 0.314561039209366 0.0157595537602901
outer loop
vertex -3.10560989379883 -28.1991233825684 0.0900000035762787
vertex -3.15279984474182 -28.3415069580078 0.0900000035762787
vertex -3.09116816520691 -28.2029132843018 1.03538501262665
endloop
endfacet
facet normal 0.214895218610764 0.673691093921661 -0.707078754901886
outer loop
vertex 2.2480947971344 -12.2831220626831 16.8815574645996
vertex 2.53052520751953 -11.4434862136841 17.7673835754395
vertex 2.42990398406982 -12.3431768417358 16.8795928955078
endloop
endfacet
facet normal 0.214895248413086 0.673691153526306 -0.707078754901886
outer loop
vertex 2.72042274475098 -11.5062131881714 17.7653312683105
vertex 2.42990398406982 -12.3431768417358 16.8795928955078
vertex 2.53052520751953 -11.4434862136841 17.7673835754395
endloop
endfacet
facet normal 0.214895218610764 0.673691093921661 -0.707078695297241
outer loop
vertex 2.2480947971344 -12.2831220626831 16.8815574645996
vertex 2.42990398406982 -12.3431768417358 16.8795928955078
vertex 1.8124406337738 -13.578275680542 15.5151557922363
endloop
endfacet
facet normal 0.214895218610764 0.673691093921661 -0.707078754901886
outer loop
vertex 1.98177313804626 -13.6342096328735 15.5133266448975
vertex 1.8124406337738 -13.578275680542 15.5151557922363
vertex 2.42990398406982 -12.3431768417358 16.8795928955078
endloop
endfacet
facet normal 0.214895248413086 0.673691093921661 -0.707078814506531
outer loop
vertex 1.98177313804626 -13.6342096328735 15.5133266448975
vertex 1.29052293300629 -15.6256513595581 13.405834197998
vertex 1.8124406337738 -13.578275680542 15.5151557922363
endloop
endfacet
facet normal 0.214895218610764 0.673691034317017 -0.707078695297241
outer loop
vertex 1.14043593406677 -15.5760746002197 13.4074554443359
vertex 1.8124406337738 -13.578275680542 15.5151557922363
vertex 1.29052293300629 -15.6256513595581 13.405834197998
endloop
endfacet
facet normal 0.214895233511925 0.673691034317017 -0.707078754901886
outer loop
vertex 1.14043593406677 -15.5760746002197 13.4074554443359
vertex 1.29052293300629 -15.6256513595581 13.405834197998
vertex 0.291996449232101 -18.0983963012695 10.7463779449463
endloop
endfacet
facet normal 0.214895233511925 0.673691093921661 -0.707078754901886
outer loop
vertex 0.417784988880157 -18.1399459838867 10.7450199127197
vertex 0.291996449232101 -18.0983963012695 10.7463779449463
vertex 1.29052293300629 -15.6256513595581 13.405834197998
endloop
endfacet
facet normal 0.214895218610764 0.673691093921661 -0.707078695297241
outer loop
vertex -0.5570427775383 -20.622501373291 8.08341979980469
vertex 0.291996449232101 -18.0983963012695 10.7463779449463
vertex -0.455569803714752 -20.6560192108154 8.08232402801514
endloop
endfacet
facet normal 0.214895233511925 0.673691093921661 -0.707078754901886
outer loop
vertex 0.417784988880157 -18.1399459838867 10.7450199127197
vertex -0.455569803714752 -20.6560192108154 8.08232402801514
vertex 0.291996449232101 -18.0983963012695 10.7463779449463
endloop
endfacet
facet normal 0.214895218610764 0.673691093921661 -0.707078695297241
outer loop
vertex -0.455569803714752 -20.6560192108154 8.08232402801514
vertex -1.32892453670502 -23.1720924377441 5.41962862014771
vertex -0.5570427775383 -20.622501373291 8.08341979980469
endloop
endfacet
facet normal 0.214895218610764 0.673691093921661 -0.707078695297241
outer loop
vertex -1.40608191490173 -23.1466045379639 5.42046213150024
vertex -0.5570427775383 -20.622501373291 8.08341979980469
vertex -1.32892453670502 -23.1720924377441 5.41962862014771
endloop
endfacet
facet normal 0.214895233511925 0.673691093921661 -0.707078695297241
outer loop
vertex -1.40608191490173 -23.1466045379639 5.42046213150024
vertex -1.32892453670502 -23.1720924377441 5.41962862014771
vertex -2.15378975868225 -25.3694610595703 3.07532382011414
endloop
endfacet
facet normal 0.214895218610764 0.673691034317017 -0.707078754901886
outer loop
vertex -2.09804582595825 -25.3878746032715 3.07472157478333
vertex -2.15378975868225 -25.3694610595703 3.07532382011414
vertex -1.32892453670502 -23.1720924377441 5.41962862014771
endloop
endfacet
facet normal 0.214895233511925 0.673691153526306 -0.707078754901886
outer loop
vertex -2.15378975868225 -25.3694610595703 3.07532382011414
vertex -2.09804582595825 -25.3878746032715 3.07472157478333
vertex -2.59157729148865 -26.6709575653076 1.70223045349121
endloop
endfacet
facet normal 0.214895248413086 0.673691093921661 -0.707078754901886
outer loop
vertex -2.54837131500244 -26.685230255127 1.70176374912262
vertex -2.59157729148865 -26.6709575653076 1.70223045349121
vertex -2.09804582595825 -25.3878746032715 3.07472157478333
endloop
endfacet
facet normal 0.214895218610764 0.673691034317017 -0.707078695297241
outer loop
vertex -2.54837131500244 -26.685230255127 1.70176374912262
vertex -2.80370950698853 -27.420841217041 0.92328542470932
vertex -2.59157729148865 -26.6709575653076 1.70223045349121
endloop
endfacet
facet normal 0.214895248413086 0.673691093921661 -0.707078754901886
outer loop
vertex -2.83980655670166 -27.4089164733887 0.923675358295441
vertex -2.59157729148865 -26.6709575653076 1.70223045349121
vertex -2.80370950698853 -27.420841217041 0.92328542470932
endloop
endfacet
facet normal 0.214895233511925 0.673691093921661 -0.707078754901886
outer loop
vertex -2.83980655670166 -27.4089164733887 0.923675358295441
vertex -2.80370950698853 -27.420841217041 0.92328542470932
vertex -2.9805543422699 -27.8273468017578 0.482228368520737
endloop
endfacet
facet normal 0.214895233511925 0.673691093921661 -0.707078754901886
outer loop
vertex -2.94848823547363 -27.8379383087158 0.481882005929947
vertex -2.9805543422699 -27.8273468017578 0.482228368520737
vertex -2.80370950698853 -27.420841217041 0.92328542470932
endloop
endfacet
facet normal 0.214895233511925 0.673691093921661 -0.707078754901886
outer loop
vertex -2.9805543422699 -27.8273468017578 0.482228368520737
vertex -2.94848823547363 -27.8379383087158 0.481882005929947
vertex -3.06035947799683 -28.0645980834961 0.231924384832382
endloop
endfacet
facet normal 0.214895248413086 0.673691153526306 -0.707078814506531
outer loop
vertex -3.03057909011841 -28.0744361877441 0.231602698564529
vertex -3.06035947799683 -28.0645980834961 0.231924384832382
vertex -2.94848823547363 -27.8379383087158 0.481882005929947
endloop
endfacet
facet normal 0.214895233511925 0.673691153526306 -0.707078754901886
outer loop
vertex -3.03057909011841 -28.0744361877441 0.231602698564529
vertex -3.07712507247925 -28.208532333374 0.0896923094987869
vertex -3.06035947799683 -28.0645980834961 0.231924384832382
endloop
endfacet
facet normal 0.214895233511925 0.673691093921661 -0.707078754901886
outer loop
vertex -3.10560989379883 -28.1991233825684 0.0900000035762787
vertex -3.06035947799683 -28.0645980834961 0.231924384832382
vertex -3.07712507247925 -28.208532333374 0.0896923094987869
endloop
endfacet
facet normal -0.227852374315262 -0.669376194477081 0.707120001316071
outer loop
vertex 2.7199399471283 -11.5076885223389 17.7676410675049
vertex 2.53049254417419 -11.4435834884644 17.7672805786133
vertex 2.40262484550476 -12.4168634414673 16.8047485351563
endloop
endfacet
facet normal -0.227852389216423 -0.669376254081726 0.707120060920715
outer loop
vertex 2.22349309921265 -12.3562602996826 16.8043956756592
vertex 2.40262484550476 -12.4168634414673 16.8047485351563
vertex 2.53049254417419 -11.4435834884644 17.7672805786133
endloop
endfacet
facet normal -0.227852389216423 -0.669376254081726 0.707120060920715
outer loop
vertex 2.40262484550476 -12.4168634414673 16.8047485351563
vertex 2.22349309921265 -12.3562602996826 16.8043956756592
vertex 1.8158278465271 -14.0981616973877 15.0241117477417
endloop
endfacet
facet normal -0.227852389216423 -0.669376254081726 0.707120060920715
outer loop
vertex 1.65578627586365 -14.0439929962158 15.0238189697266
vertex 1.8158278465271 -14.0981616973877 15.0241117477417
vertex 2.22349309921265 -12.3562602996826 16.8043956756592
endloop
endfacet
facet normal -0.227852374315262 -0.669376254081726 0.707120060920715
outer loop
vertex 1.65578627586365 -14.0439929962158 15.0238189697266
vertex 0.862670600414276 -16.4018421173096 12.5362615585327
vertex 1.8158278465271 -14.0981616973877 15.0241117477417
endloop
endfacet
facet normal -0.227852374315262 -0.669376254081726 0.707120060920715
outer loop
vertex 0.996053099632263 -16.4469890594482 12.5365037918091
vertex 1.8158278465271 -14.0981616973877 15.0241117477417
vertex 0.862670600414276 -16.4018421173096 12.5362615585327
endloop
endfacet
facet normal -0.227852374315262 -0.669376254081726 0.707120060920715
outer loop
vertex 0.996053099632263 -16.4469890594482 12.5365037918091
vertex 0.862670600414276 -16.4018421173096 12.5362615585327
vertex 0.175720497965813 -18.7974166870117 10.0472030639648
endloop
endfacet
facet normal -0.227852374315262 -0.669376254081726 0.707120001316071
outer loop
vertex 0.0690145269036293 -18.7612991333008 10.0470094680786
vertex 0.175720497965813 -18.7974166870117 10.0472030639648
vertex 0.862670600414276 -16.4018421173096 12.5362615585327
endloop
endfacet
facet normal -0.227852374315262 -0.669376254081726 0.707120001316071
outer loop
vertex 0.0690145269036293 -18.7612991333008 10.0470094680786
vertex -0.724641561508179 -21.1207542419434 7.55775737762451
vertex 0.175720497965813 -18.7974166870117 10.0472030639648
endloop
endfacet
facet normal -0.227852374315262 -0.669376254081726 0.707120001316071
outer loop
vertex -0.644612073898315 -21.1478424072266 7.55790233612061
vertex 0.175720497965813 -18.7974166870117 10.0472030639648
vertex -0.724641561508179 -21.1207542419434 7.55775737762451
endloop
endfacet
facet normal -0.227852374315262 -0.669376254081726 0.707120001316071
outer loop
vertex -0.644612073898315 -21.1478424072266 7.55790233612061
vertex -0.724641561508179 -21.1207542419434 7.55775737762451
vertex -1.46494460105896 -23.49827003479 5.06860160827637
endloop
endfacet
facet normal -0.227852374315262 -0.669376254081726 0.707120001316071
outer loop
vertex -1.51829767227173 -23.4802112579346 5.06850481033325
vertex -1.46494460105896 -23.49827003479 5.06860160827637
vertex -0.724641561508179 -21.1207542419434 7.55775737762451
endloop
endfacet
facet normal -0.227852374315262 -0.669376254081726 0.707120001316071
outer loop
vertex -1.51829767227173 -23.4802112579346 5.06850481033325
vertex -2.31195378303528 -25.8396663665771 2.57925248146057
vertex -1.46494460105896 -23.49827003479 5.06860160827637
endloop
endfacet
facet normal -0.227852374315262 -0.669376254081726 0.707120001316071
outer loop
vertex -2.2852771282196 -25.8486957550049 2.57930064201355
vertex -1.46494460105896 -23.49827003479 5.06860160827637
vertex -2.31195378303528 -25.8396663665771 2.57925248146057
endloop
endfacet
facet normal -0.227852374315262 -0.669376254081726 0.707120001316071
outer loop
vertex -2.31195378303528 -25.8396663665771 2.57925248146057
vertex -3.10560989379883 -28.1991233825684 0.0900000035762787
vertex -2.2852771282196 -25.8486957550049 2.57930064201355
endloop
endfacet
facet normal -0.320908814668655 -0.947109699249268 -0.000895230798050761
outer loop
vertex -0.442927926778793 -29.2809505462646 22.5822486877441
vertex -2.78668093681335 -28.489185333252 25.0868949890137
vertex -0.461901813745499 -29.2745037078857 22.5624599456787
endloop
endfacet
facet normal -0.320908814668655 -0.947109699249268 -0.000895230798050761
outer loop
vertex -0.461901813745499 -29.2745037078857 22.5624599456787
vertex 1.862877368927 -30.0598220825195 20.0380268096924
vertex -0.442927926778793 -29.2809505462646 22.5822486877441
endloop
endfacet
facet normal -0.320908814668655 -0.947109699249268 -0.000895230798050761
outer loop
vertex 1.90082514286041 -30.0727157592773 20.0776023864746
vertex -0.442927926778793 -29.2809505462646 22.5822486877441
vertex 1.862877368927 -30.0598220825195 20.0380268096924
endloop
endfacet
facet normal -0.320908784866333 -0.947109699249268 -0.0008952307398431
outer loop
vertex 4.18765640258789 -30.8451385498047 17.5135917663574
vertex 4.24457836151123 -30.8644828796387 17.5729560852051
vertex 1.862877368927 -30.0598220825195 20.0380268096924
endloop
endfacet
facet normal -0.320908814668655 -0.947109699249268 -0.000895230798050761
outer loop
vertex 1.90082514286041 -30.0727157592773 20.0776023864746
vertex 1.862877368927 -30.0598220825195 20.0380268096924
vertex 4.24457836151123 -30.8644828796387 17.5729560852051
endloop
endfacet
facet normal -0.320908784866333 -0.947109699249268 -0.0008952307398431
outer loop
vertex 4.18765640258789 -30.8451385498047 17.5135917663574
vertex 6.51243591308594 -31.6304569244385 14.9891576766968
vertex 4.24457836151123 -30.8644828796387 17.5729560852051
endloop
endfacet
facet normal -0.320908814668655 -0.947109699249268 -0.000895230798050761
outer loop
vertex 6.58833122253418 -31.6562480926514 15.0683107376099
vertex 4.24457836151123 -30.8644828796387 17.5729560852051
vertex 6.51243591308594 -31.6304569244385 14.9891576766968
endloop
endfacet
facet normal -0.320908814668655 -0.947109699249268 -0.000895230798050761
outer loop
vertex 6.51243591308594 -31.6304569244385 14.9891576766968
vertex 8.83721542358398 -32.4157752990723 12.4647226333618
vertex 6.58833122253418 -31.6562480926514 15.0683107376099
endloop
endfacet
facet normal -0.320908814668655 -0.947109699249268 -0.000895230798050761
outer loop
vertex 8.93208408355713 -32.4480133056641 12.5636644363403
vertex 6.58833122253418 -31.6562480926514 15.0683107376099
vertex 8.83721542358398 -32.4157752990723 12.4647226333618
endloop
endfacet
facet normal -0.320908784866333 -0.947109639644623 -0.000895230798050761
outer loop
vertex 11.2742414474487 -33.2392387390137 10.0607242584229
vertex 8.93208408355713 -32.4480133056641 12.5636644363403
vertex 11.1604127883911 -33.2005577087402 9.9420051574707
endloop
endfacet
facet normal -0.320908784866333 -0.947109699249268 -0.000895230798050761
outer loop
vertex 8.83721542358398 -32.4157752990723 12.4647226333618
vertex 11.1604127883911 -33.2005577087402 9.9420051574707
vertex 8.93208408355713 -32.4480133056641 12.5636644363403
endloop
endfacet
facet normal -0.320908784866333 -0.947109639644623 -0.0008952307398431
outer loop
vertex 11.2742414474487 -33.2392387390137 10.0607242584229
vertex 11.1604127883911 -33.2005577087402 9.9420051574707
vertex 12.9507331848145 -33.805591583252 8.26914405822754
endloop
endfacet
facet normal -0.320908784866333 -0.947109699249268 -0.000895230798050761
outer loop
vertex 12.823356628418 -33.7623062133789 8.13624572753906
vertex 12.9507331848145 -33.805591583252 8.26914405822754
vertex 11.1604127883911 -33.2005577087402 9.9420051574707
endloop
endfacet
facet normal -0.320908814668655 -0.947109699249268 -0.000895230856258422
outer loop
vertex 12.9507331848145 -33.805591583252 8.26914405822754
vertex 12.823356628418 -33.7623062133789 8.13624572753906
vertex 13.8573293685913 -34.1118583679199 7.30031299591064
endloop
endfacet
facet normal -0.320908784866333 -0.947109639644623 -0.000895230798050761
outer loop
vertex 13.7226037979126 -34.0660743713379 7.15977001190186
vertex 13.8573293685913 -34.1118583679199 7.30031299591064
vertex 12.823356628418 -33.7623062133789 8.13624572753906
endloop
endfacet
facet normal -1 -0 -0
outer loop
vertex -0.226420000195503 -25 0.174999997019768
vertex -0.226420000195503 -25 -0.025000000372529
vertex -0.226420000195503 -26 0.174999997019768
endloop
endfacet
facet normal -1 0 0
outer loop
vertex -0.226420000195503 -26 -0.025000000372529
vertex -0.226420000195503 -26 0.174999997019768
vertex -0.226420000195503 -25 -0.025000000372529
endloop
endfacet
facet normal -0.70710676908493 0 -0.70710676908493
outer loop
vertex -0.226420000195503 -26 -0.025000000372529
vertex -0.226420000195503 -25 -0.025000000372529
vertex -0.0850000008940697 -26 -0.166419997811317
endloop
endfacet
facet normal -0.70710676908493 -0 -0.70710676908493
outer loop
vertex -0.0850000008940697 -25 -0.166419997811317
vertex -0.0850000008940697 -26 -0.166419997811317
vertex -0.226420000195503 -25 -0.025000000372529
endloop
endfacet
facet normal -0.70710676908493 0 0.70710676908493
outer loop
vertex -0.0850000008940697 -26 0.316419988870621
vertex -0.0850000008940697 -25 0.316419988870621
vertex -0.226420000195503 -26 0.174999997019768
endloop
endfacet
facet normal -0.70710676908493 0 0.70710676908493
outer loop
vertex -0.226420000195503 -25 0.174999997019768
vertex -0.226420000195503 -26 0.174999997019768
vertex -0.0850000008940697 -25 0.316419988870621
endloop
endfacet
facet normal -0 -0 -1
outer loop
vertex 0.115000002086163 -25 -0.166419997811317
vertex 0.115000002086163 -26 -0.166419997811317
vertex -0.0850000008940697 -25 -0.166419997811317
endloop
endfacet
facet normal 0 0 -1
outer loop
vertex -0.0850000008940697 -26 -0.166419997811317
vertex -0.0850000008940697 -25 -0.166419997811317
vertex 0.115000002086163 -26 -0.166419997811317
endloop
endfacet
facet normal 0 -0 1
outer loop
vertex 0.115000002086163 -26 0.316419988870621
vertex 0.115000002086163 -25 0.316419988870621
vertex -0.0850000008940697 -26 0.316419988870621
endloop
endfacet
facet normal -0 0 1
outer loop
vertex -0.0850000008940697 -25 0.316419988870621
vertex -0.0850000008940697 -26 0.316419988870621
vertex 0.115000002086163 -25 0.316419988870621
endloop
endfacet
facet normal 0.70710676908493 0 -0.70710676908493
outer loop
vertex 0.256419986486435 -25 -0.025000000372529
vertex 0.256419986486435 -26 -0.025000000372529
vertex 0.115000002086163 -25 -0.166419997811317
endloop
endfacet
facet normal 0.70710676908493 0 -0.70710676908493
outer loop
vertex 0.115000002086163 -26 -0.166419997811317
vertex 0.115000002086163 -25 -0.166419997811317
vertex 0.256419986486435 -26 -0.025000000372529
endloop
endfacet
facet normal 0.70710676908493 0 0.70710676908493
outer loop
vertex 0.115000002086163 -25 0.316419988870621
vertex 0.115000002086163 -26 0.316419988870621
vertex 0.256419986486435 -25 0.174999997019768
endloop
endfacet
facet normal 0.70710676908493 -0 0.70710676908493
outer loop
vertex 0.256419986486435 -26 0.174999997019768
vertex 0.256419986486435 -25 0.174999997019768
vertex 0.115000002086163 -26 0.316419988870621
endloop
endfacet
facet normal 1 0 -0
outer loop
vertex 0.256419986486435 -25 -0.025000000372529
vertex 0.256419986486435 -25 0.174999997019768
vertex 0.256419986486435 -26 -0.025000000372529
endloop
endfacet
facet normal 1 -0 0
outer loop
vertex 0.256419986486435 -26 0.174999997019768
vertex 0.256419986486435 -26 -0.025000000372529
vertex 0.256419986486435 -25 0.174999997019768
endloop
endfacet
facet normal 0 0.00665665278211236 0.999977886676788
outer loop
vertex 0.115000002086163 -24.9994468688965 0.316416323184967
vertex 0.110740594565868 -23.7467079162598 0.308077096939087
vertex -0.0850000008940697 -24.9994468688965 0.316416323184967
endloop
endfacet
facet normal 1.23506549018529e-16 0.00665665278211236 0.999977886676788
outer loop
vertex -0.0807405933737755 -23.7467079162598 0.308077096939087
vertex -0.0850000008940697 -24.9994468688965 0.316416323184967
vertex 0.110740594565868 -23.7467079162598 0.308077096939087
endloop
endfacet
facet normal 1.23506549018529e-16 0.00665665278211236 0.999977827072144
outer loop
vertex -0.0807405933737755 -23.7467079162598 0.308077096939087
vertex 0.110740594565868 -23.7467079162598 0.308077096939087
vertex -0.0741703808307648 -21.8143348693848 0.295213669538498
endloop
endfacet
facet normal -1.32606700426915e-16 0.00665665278211236 0.999977886676788
outer loop
vertex 0.104170382022858 -21.8143348693848 0.295213669538498
vertex -0.0741703808307648 -21.8143348693848 0.295213669538498
vertex 0.110740594565868 -23.7467079162598 0.308077096939087
endloop
endfacet
facet normal -1.32606713661805e-16 0.00665665324777365 0.999977886676788
outer loop
vertex 0.104170382022858 -21.8143348693848 0.295213669538498
vertex 0.0940357074141502 -18.8336143493652 0.275371611118317
vertex -0.0741703808307648 -21.8143348693848 0.295213669538498
endloop
endfacet
facet normal 5.52729020390189e-16 0.00665665231645107 0.999977886676788
outer loop
vertex -0.0640357062220573 -18.8336143493652 0.275371611118317
vertex -0.0741703808307648 -21.8143348693848 0.295213669538498
vertex 0.0940357074141502 -18.8336143493652 0.275371611118317
endloop
endfacet
facet normal 5.52729020390189e-16 0.00665665185078979 0.999977827072144
outer loop
vertex -0.0640357062220573 -18.8336143493652 0.275371611118317
vertex 0.0940357074141502 -18.8336143493652 0.275371611118317
vertex -0.0512401722371578 -15.0703048706055 0.250320017337799
endloop
endfacet
facet normal 8.9255428454987e-17 0.00665665278211236 0.999977886676788
outer loop
vertex 0.0812401697039604 -15.0703048706055 0.250320017337799
vertex -0.0512401722371578 -15.0703048706055 0.250320017337799
vertex 0.0940357074141502 -18.8336143493652 0.275371611118317
endloop
endfacet
facet normal 8.92554218375421e-17 0.00665665231645107 0.999977827072144
outer loop
vertex 0.0812401697039604 -15.0703048706055 0.250320017337799
vertex 0.0684355944395065 -11.3043365478516 0.225250706076622
vertex -0.0512401722371578 -15.0703048706055 0.250320017337799
endloop
endfacet
facet normal -3.31930162702552e-16 0.00665665231645107 0.999977886676788
outer loop
vertex -0.0384355932474136 -11.3043365478516 0.225250706076622
vertex -0.0512401722371578 -15.0703048706055 0.250320017337799
vertex 0.0684355944395065 -11.3043365478516 0.225250706076622
endloop
endfacet
facet normal -3.31930162702552e-16 0.00665665231645107 0.999977886676788
outer loop
vertex -0.0384355932474136 -11.3043365478516 0.225250706076622
vertex 0.0684355944395065 -11.3043365478516 0.225250706076622
vertex -0.0256310161203146 -7.53836727142334 0.200181409716606
endloop
endfacet
facet normal 1.01050395332728e-16 0.00665665278211236 0.999977886676788
outer loop
vertex 0.0556310154497623 -7.53836727142334 0.200181409716606
vertex -0.0256310161203146 -7.53836727142334 0.200181409716606
vertex 0.0684355944395065 -11.3043365478516 0.225250706076622
endloop
endfacet
facet normal 1.01050395332728e-16 0.00665665231645107 0.999977886676788
outer loop
vertex 0.0556310154497623 -7.53836727142334 0.200181409716606
vertex 0.0443546436727047 -4.22186040878296 0.178104087710381
vertex -0.0256310161203146 -7.53836727142334 0.200181409716606
endloop
endfacet
facet normal -2.32179724715843e-16 0.00665665278211236 0.999977886676788
outer loop
vertex -0.0143546434119344 -4.22186040878296 0.178104087710381
vertex -0.0256310161203146 -7.53836727142334 0.200181409716606
vertex 0.0443546436727047 -4.22186040878296 0.178104087710381
endloop
endfacet
facet normal -2.32179698246064e-16 0.00665665231645107 0.999977827072144
outer loop
vertex -0.0143546434119344 -4.22186040878296 0.178104087710381
vertex 0.0443546436727047 -4.22186040878296 0.178104087710381
vertex -0.00775225553661585 -2.28002452850342 0.165177673101425
endloop
endfacet
facet normal 6.49638337818239e-17 0.00665665185078979 0.999977827072144
outer loop
vertex 0.0377522557973862 -2.28002452850342 0.165177673101425
vertex -0.00775225553661585 -2.28002452850342 0.165177673101425
vertex 0.0443546436727047 -4.22186040878296 0.178104087710381
endloop
endfacet
facet normal 6.49638337818239e-17 0.00665665231645107 0.999977827072144
outer loop
vertex 0.0377522557973862 -2.28002452850342 0.165177673101425
vertex 0.0340086482465267 -1.17898797988892 0.157848283648491
vertex -0.00775225553661585 -2.28002452850342 0.165177673101425
endloop
endfacet
facet normal -5.74545465677467e-16 0.00665665231645107 0.999977827072144
outer loop
vertex -0.0040086479857564 -1.17898797988892 0.157848283648491
vertex -0.00775225553661585 -2.28002452850342 0.165177673101425
vertex 0.0340086482465267 -1.17898797988892 0.157848283648491
endloop
endfacet
facet normal -5.74545465677467e-16 0.00665665231645107 0.999977767467499
outer loop
vertex -0.0040086479857564 -1.17898797988892 0.157848283648491
vertex 0.0340086482465267 -1.17898797988892 0.157848283648491
vertex -0.00188599259126931 -0.554691433906555 0.153692469000816
endloop
endfacet
facet normal -6.56494076909528e-17 0.00665665278211236 0.999977827072144
outer loop
vertex 0.0318859927356243 -0.554691433906555 0.153692469000816
vertex -0.00188599259126931 -0.554691433906555 0.153692469000816
vertex 0.0340086482465267 -1.17898797988892 0.157848283648491
endloop
endfacet
facet normal -6.56494010735079e-17 0.00665665278211236 0.999977886676788
outer loop
vertex 0.0318859927356243 -0.554691433906555 0.153692469000816
vertex 0.0306824296712875 -0.200710192322731 0.151336088776588
vertex -0.00188599259126931 -0.554691433906555 0.153692469000816
endloop
endfacet
facet normal -2.23648313579892e-15 0.00665665231645107 0.999977827072144
outer loop
vertex -0.000682429817970842 -0.200710192322731 0.151336088776588
vertex -0.00188599259126931 -0.554691433906555 0.153692469000816
vertex 0.0306824296712875 -0.200710192322731 0.151336088776588
endloop
endfacet
facet normal -2.23648313579892e-15 0.00665665231645107 0.999977827072144
outer loop
vertex -0.000682429817970842 -0.200710192322731 0.151336088776588
vertex 0.0306824296712875 -0.200710192322731 0.151336088776588
vertex 0 0 0.150000005960464
endloop
endfacet
facet normal 0 0.00665665231645107 0.999977827072144
outer loop
vertex 0.0299999993294477 0 0.150000005960464
vertex 0 0 0.150000005960464
vertex 0.0306824296712875 -0.200710192322731 0.151336088776588
endloop
endfacet
facet normal -0.999958992004395 -0.00905642844736576 0
outer loop
vertex 0.256410717964172 -24.9989738464355 -0.025000000372529
vertex 0.256410717964172 -24.9989738464355 0.174999997019768
vertex 0.245274275541306 -23.7693538665771 -0.0237703286111355
endloop
endfacet
facet normal -0.999959051609039 -0.00905642844736576 3.25754710181917e-16
outer loop
vertex 0.245274275541306 -23.7693538665771 0.173770323395729
vertex 0.245274275541306 -23.7693538665771 -0.0237703286111355
vertex 0.256410717964172 -24.9989738464355 0.174999997019768
endloop
endfacet
facet normal -0.99995893239975 -0.00905642844736576 3.25754683712137e-16
outer loop
vertex 0.245274275541306 -23.7693538665771 0.173770323395729
vertex 0.228500992059708 -21.9173431396484 0.171918243169785
vertex 0.245274275541306 -23.7693538665771 -0.0237703286111355
endloop
endfacet
facet normal -0.999958992004395 -0.00905642844736576 0
outer loop
vertex 0.228500992059708 -21.9173431396484 -0.0219182409346104
vertex 0.245274275541306 -23.7693538665771 -0.0237703286111355
vertex 0.228500992059708 -21.9173431396484 0.171918243169785
endloop
endfacet
facet normal -0.999958992004395 -0.00905642937868834 0
outer loop
vertex 0.228500992059708 -21.9173431396484 -0.0219182409346104
vertex 0.228500992059708 -21.9173431396484 0.171918243169785
vertex 0.203237652778625 -19.127908706665 -0.0191286932677031
endloop
endfacet
facet normal -0.999959051609039 -0.00905642937868834 -1.17404708954967e-16
outer loop
vertex 0.203237652778625 -19.127908706665 0.169128701090813
vertex 0.203237652778625 -19.127908706665 -0.0191286932677031
vertex 0.228500992059708 -21.9173431396484 0.171918243169785
endloop
endfacet
facet normal -0.999958992004395 -0.00905642844736576 -1.17404695720077e-16
outer loop
vertex 0.203237652778625 -19.127908706665 -0.0191286932677031
vertex 0.203237652778625 -19.127908706665 0.169128701090813
vertex 0.170292660593987 -15.4903125762939 -0.0154909482225776
endloop
endfacet
facet normal -0.999958992004395 -0.00905642844736576 -2.91094333738508e-16
outer loop
vertex 0.170292660593987 -15.4903125762939 0.165490955114365
vertex 0.170292660593987 -15.4903125762939 -0.0154909482225776
vertex 0.203237652778625 -19.127908706665 0.169128701090813
endloop
endfacet
facet normal -0.999958992004395 -0.00905642844736576 -2.91094333738508e-16
outer loop
vertex 0.170292660593987 -15.4903125762939 0.165490955114365
vertex 0.137137293815613 -11.8294858932495 0.161829978227615
vertex 0.170292660593987 -15.4903125762939 -0.0154909482225776
endloop
endfacet
facet normal -0.999959051609039 -0.00905642844736576 -2.36184681778919e-16
outer loop
vertex 0.137137293815613 -11.8294858932495 -0.0118299713358283
vertex 0.170292660593987 -15.4903125762939 -0.0154909482225776
vertex 0.137137293815613 -11.8294858932495 0.161829978227615
endloop
endfacet
facet normal -0.999959051609039 -0.00905642844736576 -2.36184681778919e-16
outer loop
vertex 0.137137293815613 -11.8294858932495 -0.0118299713358283
vertex 0.137137293815613 -11.8294858932495 0.161829978227615
vertex 0.103981919586658 -8.16866016387939 -0.00816899538040161
endloop
endfacet
facet normal -0.999958992004395 -0.00905642937868834 1.13705345497393e-16
outer loop
vertex 0.103981919586658 -8.16866016387939 0.158169001340866
vertex 0.103981919586658 -8.16866016387939 -0.00816899538040161
vertex 0.137137293815613 -11.8294858932495 0.161829978227615
endloop
endfacet
facet normal -0.999958992004395 -0.00905642844736576 1.13705332262503e-16
outer loop
vertex 0.103981919586658 -8.16866016387939 -0.00816899538040161
vertex 0.103981919586658 -8.16866016387939 0.158169001340866
vertex 0.0728761106729507 -4.73413467407227 -0.00473432894796133
endloop
endfacet
facet normal -0.999958992004395 -0.00905642844736576 6.81625610629012e-17
outer loop
vertex 0.0728761106729507 -4.73413467407227 0.154734328389168
vertex 0.0728761106729507 -4.73413467407227 -0.00473432894796133
vertex 0.103981919586658 -8.16866016387939 0.158169001340866
endloop
endfacet
facet normal -0.999958992004395 -0.00905642937868834 6.81625610629012e-17
outer loop
vertex 0.0728761106729507 -4.73413467407227 0.154734328389168
vertex 0.0519492253661156 -2.42350769042969 0.152423605322838
vertex 0.0728761106729507 -4.73413467407227 -0.00473432894796133
endloop
endfacet
facet normal -0.99995893239975 -0.00905642844736576 -2.59730990028894e-17
outer loop
vertex 0.0519492253661156 -2.42350769042969 -0.00242360704578459
vertex 0.0728761106729507 -4.73413467407227 -0.00473432894796133
vertex 0.0519492253661156 -2.42350769042969 0.152423605322838
endloop
endfacet
facet normal -0.999958992004395 -0.00905642844736576 -2.59730990028894e-17
outer loop
vertex 0.0519492253661156 -2.42350769042969 -0.00242360704578459
vertex 0.0519492253661156 -2.42350769042969 0.152423605322838
vertex 0.0385628752410412 -0.94546365737915 -0.000945502426475286
endloop
endfacet
facet normal -0.999958992004395 -0.00905642937868834 -2.18271341151532e-17
outer loop
vertex 0.0385628752410412 -0.94546365737915 0.150945499539375
vertex 0.0385628752410412 -0.94546365737915 -0.000945502426475286
vertex 0.0519492253661156 -2.42350769042969 0.152423605322838
endloop
endfacet
facet normal -0.999958992004395 -0.00905642937868834 -2.18271357695144e-17
outer loop
vertex 0.0385628752410412 -0.94546365737915 0.150945499539375
vertex 0.0299999993294477 0 0.150000005960464
vertex 0.0385628752410412 -0.94546365737915 -0.000945502426475286
endloop
endfacet
facet normal -0.999959051609039 -0.00905642844736576 0
outer loop
vertex 0.0299999993294477 0 0
vertex 0.0385628752410412 -0.94546365737915 -0.000945502426475286
vertex 0.0299999993294477 0 0.150000005960464
endloop
endfacet
facet normal 0.707088887691498 0.00711105158552527 0.707088887691498
outer loop
vertex 0.256419569253922 -24.9997615814209 0.174998044967651
vertex 0.244086682796478 -23.6380462646484 0.173636421561241
vertex 0.114997625350952 -24.9993019104004 0.316415339708328
endloop
endfacet
facet normal 0.707088887691498 0.00711105158552527 0.707088887691498
outer loop
vertex 0.110367827117443 -23.6375961303711 0.307350754737854
vertex 0.114997625350952 -24.9993019104004 0.316415339708328
vertex 0.244086682796478 -23.6380462646484 0.173636421561241
endloop
endfacet
facet normal 0.707088947296143 0.00711105205118656 0.707088947296143
outer loop
vertex 0.244086682796478 -23.6380462646484 0.173636421561241
vertex 0.221279934048653 -21.1198749542236 0.171118423342705
vertex 0.110367827117443 -23.6375961303711 0.307350754737854
endloop
endfacet
facet normal 0.707088887691498 0.00711105158552527 0.707088887691498
outer loop
vertex 0.101806312799454 -21.1195030212402 0.290588319301605
vertex 0.110367827117443 -23.6375961303711 0.307350754737854
vertex 0.221279934048653 -21.1198749542236 0.171118423342705
endloop
endfacet
facet normal 0.707088947296143 0.00711105205118656 0.707088947296143
outer loop
vertex 0.101806312799454 -21.1195030212402 0.290588319301605
vertex 0.221279934048653 -21.1198749542236 0.171118423342705
vertex 0.0898453891277313 -17.6015853881836 0.26717022061348
endloop
endfacet
facet normal 0.707088887691498 0.00711105158552527 0.707088887691498
outer loop
vertex 0.189418017864227 -17.6018905639648 0.167600676417351
vertex 0.0898453891277313 -17.6015853881836 0.26717022061348
vertex 0.221279934048653 -21.1198749542236 0.171118423342705
endloop
endfacet
facet normal 0.707088887691498 0.00711105158552527 0.707088887691498
outer loop
vertex 0.189418017864227 -17.6018905639648 0.167600676417351
vertex 0.157534420490265 -14.0815134048462 0.164080545306206
vertex 0.0898453891277313 -17.6015853881836 0.26717022061348
endloop
endfacet
facet normal 0.707088887691498 0.00711105158552527 0.707088887691498
outer loop
vertex 0.0778763070702553 -14.0812673568726 0.243736177682877
vertex 0.0898453891277313 -17.6015853881836 0.26717022061348
vertex 0.157534420490265 -14.0815134048462 0.164080545306206
endloop
endfacet
facet normal 0.707088887691498 0.00711105158552527 0.707088887691498
outer loop
vertex 0.0778763070702553 -14.0812673568726 0.243736177682877
vertex 0.157534420490265 -14.0815134048462 0.164080545306206
vertex 0.0659072324633598 -10.5609512329102 0.220302134752274
endloop
endfacet
facet normal 0.707088887691498 0.00711105158552527 0.707088887691498
outer loop
vertex 0.125650808215141 -10.5611343383789 0.160560414195061
vertex 0.0659072324633598 -10.5609512329102 0.220302134752274
vertex 0.157534420490265 -14.0815134048462 0.164080545306206
endloop
endfacet
facet normal 0.707088887691498 0.00711105158552527 0.707088887691498
outer loop
vertex 0.125650808215141 -10.5611343383789 0.160560414195061
vertex 0.0937672108411789 -7.0407567024231 0.157040268182755
vertex 0.0659072324633598 -10.5609512329102 0.220302134752274
endloop
endfacet
facet normal 0.707088887691498 0.00711105158552527 0.707088887691498
outer loop
vertex 0.0539381541311741 -7.04063367843628 0.196868091821671
vertex 0.0659072324633598 -10.5609512329102 0.220302134752274
vertex 0.0937672108411789 -7.0407567024231 0.157040268182755
endloop
endfacet
facet normal 0.707088887691498 0.00711105158552527 0.707088887691498
outer loop
vertex 0.0539381541311741 -7.04063367843628 0.196868091821671
vertex 0.0937672108411789 -7.0407567024231 0.157040268182755
vertex 0.0419690757989883 -3.52031683921814 0.173434048891068
endloop
endfacet
facet normal 0.707088887691498 0.00711105158552527 0.707088887691498
outer loop
vertex 0.0618836022913456 -3.52037835121155 0.153520137071609
vertex 0.0419690757989883 -3.52031683921814 0.173434048891068
vertex 0.0937672108411789 -7.0407567024231 0.157040268182755
endloop
endfacet
facet normal 0.707088887691498 0.00711105158552527 0.707088887691498
outer loop
vertex 0.0419690757989883 -3.52031683921814 0.173434048891068
vertex 0.0618836022913456 -3.52037835121155 0.153520137071609
vertex 0.0299999993294477 0 0.150000005960464
endloop
endfacet
facet normal 0.70709228515625 0.00640399334952235 -0.70709228515625
outer loop
vertex 0.288293093442917 -28.5192451477051 -0.025000000372529
vertex 0.268380045890808 -28.5194225311279 -0.0449146740138531
vertex 0.256410717964172 -24.9989738464355 -0.025000000372529
endloop
endfacet
facet normal 0.70709228515625 0.00640399334952235 -0.70709228515625
outer loop
vertex 0.320175498723984 -32.0395164489746 -0.025000000372529
vertex 0.280349344015121 -32.0398712158203 -0.0648293495178223
vertex 0.288293093442917 -28.5192451477051 -0.025000000372529
endloop
endfacet
facet normal 0.70709228515625 0.00640399334952235 -0.70709228515625
outer loop
vertex 0.268380045890808 -28.5194225311279 -0.0449146740138531
vertex 0.288293093442917 -28.5192451477051 -0.025000000372529
vertex 0.280349344015121 -32.0398712158203 -0.0648293495178223
endloop
endfacet
facet normal 0.70709228515625 0.00640399334952235 -0.70709228515625
outer loop
vertex 0.320175498723984 -32.0395164489746 -0.025000000372529
vertex 0.352057874202728 -35.5597877502441 -0.025000000372529
vertex 0.280349344015121 -32.0398712158203 -0.0648293495178223
endloop
endfacet
facet normal 0.70709228515625 0.00640399334952235 -0.70709228515625
outer loop
vertex 0.292318671941757 -35.5603179931641 -0.0847440212965012
vertex 0.280349344015121 -32.0398712158203 -0.0648293495178223
vertex 0.352057874202728 -35.5597877502441 -0.025000000372529
endloop
endfacet
facet normal 0.70709228515625 0.00640399334952235 -0.70709228515625
outer loop
vertex 0.292318671941757 -35.5603179931641 -0.0847440212965012
vertex 0.352057874202728 -35.5597877502441 -0.025000000372529
vertex 0.304287970066071 -39.0807647705078 -0.10465869307518
endloop
endfacet
facet normal 0.70709228515625 0.00640399334952235 -0.70709228515625
outer loop
vertex 0.383940279483795 -39.0800590515137 -0.025000000372529
vertex 0.304287970066071 -39.0807647705078 -0.10465869307518
vertex 0.352057874202728 -35.5597877502441 -0.025000000372529
endloop
endfacet
facet normal 0.70709228515625 0.00640399334952235 -0.70709228515625
outer loop
vertex 0.383940279483795 -39.0800590515137 -0.025000000372529
vertex 0.41582265496254 -42.6003303527832 -0.025000000372529
vertex 0.304287970066071 -39.0807647705078 -0.10465869307518
endloop
endfacet
facet normal 0.70709228515625 0.00640399334952235 -0.70709228515625
outer loop
vertex 0.316257297992706 -42.6012115478516 -0.124573364853859
vertex 0.304287970066071 -39.0807647705078 -0.10465869307518
vertex 0.41582265496254 -42.6003303527832 -0.025000000372529
endloop
endfacet
facet normal 0.70709228515625 0.00640399334952235 -0.70709228515625
outer loop
vertex 0.447683334350586 -46.1182022094727 -0.025000000372529
vertex 0.32821848988533 -46.1192665100098 -0.144474491477013
vertex 0.41582265496254 -42.6003303527832 -0.025000000372529
endloop
endfacet
facet normal 0.70709228515625 0.00640399381518364 -0.70709228515625
outer loop
vertex 0.316257297992706 -42.6012115478516 -0.124573364853859
vertex 0.41582265496254 -42.6003303527832 -0.025000000372529
vertex 0.32821848988533 -46.1192665100098 -0.144474491477013
endloop
endfacet
facet normal 0.70709228515625 0.00640399381518364 -0.70709228515625
outer loop
vertex 0.447683334350586 -46.1182022094727 -0.025000000372529
vertex 0.470488876104355 -48.6362609863281 -0.025000000372529
vertex 0.32821848988533 -46.1192665100098 -0.144474491477013
endloop
endfacet
facet normal 0.70709228515625 0.00640399334952235 -0.70709228515625
outer loop
vertex 0.336780279874802 -48.6374855041504 -0.158719703555107
vertex 0.32821848988533 -46.1192665100098 -0.144474491477013
vertex 0.470488876104355 -48.6362609863281 -0.025000000372529
endloop
endfacet
facet normal 0.707092344760895 0.00640399381518364 -0.707092344760895
outer loop
vertex 0.470488876104355 -48.6362609863281 -0.025000000372529
vertex 0.482821434736252 -49.9979476928711 -0.025000000372529
vertex 0.336780279874802 -48.6374855041504 -0.158719703555107
endloop
endfacet
facet normal 0.707092225551605 0.00640399288386106 -0.707092225551605
outer loop
vertex 0.341410130262375 -49.9992294311523 -0.16642290353775
vertex 0.336780279874802 -48.6374855041504 -0.158719703555107
vertex 0.482821434736252 -49.9979476928711 -0.025000000372529
endloop
endfacet
facet normal 0.21637250483036 0.673203885555267 -0.70709228515625
outer loop
vertex 44.4072303771973 -43.7709121704102 -0.251410126686096
vertex 44.3615226745605 -43.9047508239746 -0.392821431159973
vertex 43.1122093200684 -43.3498191833496 -0.246780276298523
endloop
endfacet
facet normal 0.216372489929199 0.673203945159912 -0.707092344760895
outer loop
vertex 43.068977355957 -43.4763641357422 -0.380488902330399
vertex 43.1122093200684 -43.3498191833496 -0.246780276298523
vertex 44.3615226745605 -43.9047508239746 -0.392821431159973
endloop
endfacet
facet normal 0.21637250483036 0.673203885555267 -0.707092344760895
outer loop
vertex 43.1122093200684 -43.3498191833496 -0.246780276298523
vertex 43.068977355957 -43.4763641357422 -0.380488902330399
vertex 40.7173690795898 -42.5711097717285 -0.23821847140789
endloop
endfacet
facet normal 0.216372489929199 0.673203825950623 -0.707092225551605
outer loop
vertex 40.6787719726563 -42.6841850280762 -0.357683330774307
vertex 40.7173690795898 -42.5711097717285 -0.23821847140789
vertex 43.068977355957 -43.4763641357422 -0.380488902330399
endloop
endfacet
facet normal 0.216372475028038 0.673203825950623 -0.70709228515625
outer loop
vertex 40.6787719726563 -42.6841850280762 -0.357683330774307
vertex 37.3395233154297 -41.5774612426758 -0.325822651386261
vertex 40.7173690795898 -42.5711097717285 -0.23821847140789
endloop
endfacet
facet normal 0.216372475028038 0.673203885555267 -0.707092225551605
outer loop
vertex 37.3716888427734 -41.4832229614258 -0.226257294416428
vertex 40.7173690795898 -42.5711097717285 -0.23821847140789
vertex 37.3395233154297 -41.5774612426758 -0.325822651386261
endloop
endfacet
facet normal 0.216372475028038 0.673203825950623 -0.70709228515625
outer loop
vertex 37.3716888427734 -41.4832229614258 -0.226257294416428
vertex 37.3395233154297 -41.5774612426758 -0.325822651386261
vertex 34.0237274169922 -40.3945922851563 -0.214287981390953
endloop
endfacet
facet normal 0.216372489929199 0.673203885555267 -0.70709228515625
outer loop
vertex 33.9979972839355 -40.4699821472168 -0.293940275907516
vertex 34.0237274169922 -40.3945922851563 -0.214287981390953
vertex 37.3395233154297 -41.5774612426758 -0.325822651386261
endloop
endfacet
facet normal 0.216372489929199 0.673203885555267 -0.70709228515625
outer loop
vertex 33.9979972839355 -40.4699821472168 -0.293940275907516
vertex 30.6564693450928 -39.3625068664551 -0.26205787062645
vertex 34.0237274169922 -40.3945922851563 -0.214287981390953
endloop
endfacet
facet normal 0.216372489929199 0.673203885555267 -0.70709228515625
outer loop
vertex 30.6757678985596 -39.3059616088867 -0.202318668365479
vertex 34.0237274169922 -40.3945922851563 -0.214287981390953
vertex 30.6564693450928 -39.3625068664551 -0.26205787062645
endloop
endfacet
facet normal 0.216372489929199 0.673203885555267 -0.70709228515625
outer loop
vertex 30.6757678985596 -39.3059616088867 -0.202318668365479
vertex 30.6564693450928 -39.3625068664551 -0.26205787062645
vertex 27.327808380127 -38.2173309326172 -0.190349355340004
endloop
endfacet
facet normal 0.216372489929199 0.673203885555267 -0.70709228515625
outer loop
vertex 27.3149433135986 -38.2550277709961 -0.230175495147705
vertex 27.327808380127 -38.2173309326172 -0.190349355340004
vertex 30.6564693450928 -39.3625068664551 -0.26205787062645
endloop
endfacet
facet normal 0.216372489929199 0.673203885555267 -0.70709228515625
outer loop
vertex 27.3149433135986 -38.2550277709961 -0.230175495147705
vertex 23.9734153747559 -37.1475486755371 -0.198293104767799
vertex 27.327808380127 -38.2173309326172 -0.190349355340004
endloop
endfacet
facet normal 0.216372489929199 0.673203885555267 -0.70709228515625
outer loop
vertex 23.9798488616943 -37.1287002563477 -0.178380027413368
vertex 27.327808380127 -38.2173309326172 -0.190349355340004
vertex 23.9734153747559 -37.1475486755371 -0.198293104767799
endloop
endfacet
facet normal 0.216372489929199 0.673203885555267 -0.70709228515625
outer loop
vertex 23.9734153747559 -37.1475486755371 -0.198293104767799
vertex 20.6318893432617 -36.0400733947754 -0.166410714387894
vertex 23.9798488616943 -37.1287002563477 -0.178380027413368
endloop
endfacet
endsolid COMSOL mesh mesh1
