solid COMSOL mesh mesh1
facet normal -0.0129326619207859 0.999916434288025 0
outer loop
vertex 0 0 0
vertex -0.962550759315491 -0.0124493837356567 0
vertex 0 0 0.150000005960464
endloop
endfacet
facet normal -0.0129326619207859 0.999916434288025 -2.43661827897679e-18
outer loop
vertex -0.962550759315491 -0.0124493837356567 0.150000005960464
vertex 0 0 0.150000005960464
vertex -0.962550759315491 -0.0124493837356567 0
endloop
endfacet
facet normal -0.0129326609894633 0.99991637468338 -2.43661807218163e-18
outer loop
vertex -0.962550759315491 -0.0124493837356567 0
vertex -2.51886796951294 -0.0325783900916576 0
vertex -0.962550759315491 -0.0124493837356567 0.150000005960464
endloop
endfacet
facet normal -0.0129326609894633 0.99991637468338 7.01565891173011e-17
outer loop
vertex -2.51886796951294 -0.0325783900916576 0.150000005960464
vertex -0.962550759315491 -0.0124493837356567 0.150000005960464
vertex -2.51886796951294 -0.0325783900916576 0
endloop
endfacet
facet normal -0.0129326609894633 0.99991637468338 7.01565891173011e-17
outer loop
vertex -2.51886796951294 -0.0325783900916576 0
vertex -5.03522729873657 -0.0651243329048157 0
vertex -2.51886796951294 -0.0325783900916576 0.150000005960464
endloop
endfacet
facet normal -0.0129326609894633 0.99991637468338 -7.65767348980192e-17
outer loop
vertex -5.03522729873657 -0.0651243329048157 0.150000005960464
vertex -2.51886796951294 -0.0325783900916576 0.150000005960464
vertex -5.03522729873657 -0.0651243329048157 0
endloop
endfacet
facet normal -0.0129326609894633 0.99991637468338 -7.65767415154641e-17
outer loop
vertex -5.03522729873657 -0.0651243329048157 0
vertex -8.70742321014404 -0.112619578838348 0
vertex -5.03522729873657 -0.0651243329048157 0.150000005960464
endloop
endfacet
facet normal -0.0129326609894633 0.99991637468338 3.49620425953623e-17
outer loop
vertex -8.70742321014404 -0.112619578838348 0.150000005960464
vertex -5.03522729873657 -0.0651243329048157 0.150000005960464
vertex -8.70742321014404 -0.112619578838348 0
endloop
endfacet
facet normal -0.0129326619207859 0.99991637468338 3.49620459040848e-17
outer loop
vertex -8.70742321014404 -0.112619578838348 0
vertex -12.4989547729492 -0.161658257246017 0
vertex -8.70742321014404 -0.112619578838348 0.150000005960464
endloop
endfacet
facet normal -0.0129326619207859 0.99991637468338 -2.42570516107828e-16
outer loop
vertex -12.4989547729492 -0.161658257246017 0.150000005960464
vertex -8.70742321014404 -0.112619578838348 0.150000005960464
vertex -12.4989547729492 -0.161658257246017 0
endloop
endfacet
facet normal -0.0129326619207859 0.99991637468338 -2.42570516107828e-16
outer loop
vertex -12.4989547729492 -0.161658257246017 0.150000005960464
vertex -12.4989547729492 -0.161658257246017 0
vertex -16.2904853820801 -0.210696950554848 0.150000005960464
endloop
endfacet
facet normal -0.0129326619207859 0.99991637468338 1.27472899908056e-16
outer loop
vertex -16.2904853820801 -0.210696950554848 0
vertex -16.2904853820801 -0.210696950554848 0.150000005960464
vertex -12.4989547729492 -0.161658257246017 0
endloop
endfacet
facet normal -0.0129326609894633 0.99991637468338 1.27472886673166e-16
outer loop
vertex -16.2904853820801 -0.210696950554848 0
vertex -19.962682723999 -0.258192181587219 0
vertex -16.2904853820801 -0.210696950554848 0.150000005960464
endloop
endfacet
facet normal -0.0129326609894633 0.99991637468338 -3.06306966061856e-16
outer loop
vertex -19.962682723999 -0.258192181587219 0.150000005960464
vertex -16.2904853820801 -0.210696950554848 0.150000005960464
vertex -19.962682723999 -0.258192181587219 0
endloop
endfacet
facet normal -0.0129326609894633 0.99991637468338 -3.06306939592077e-16
outer loop
vertex -19.962682723999 -0.258192181587219 0.150000005960464
vertex -19.962682723999 -0.258192181587219 0
vertex -22.4790420532227 -0.290738135576248 0.150000005960464
endloop
endfacet
facet normal -0.0129326609894633 0.99991637468338 3.06306939592077e-16
outer loop
vertex -22.4790420532227 -0.290738135576248 0
vertex -22.4790420532227 -0.290738135576248 0.150000005960464
vertex -19.962682723999 -0.258192181587219 0
endloop
endfacet
facet normal -0.0129326609894633 0.99991637468338 3.06306966061856e-16
outer loop
vertex -22.4790420532227 -0.290738135576248 0.150000005960464
vertex -22.4790420532227 -0.290738135576248 0
vertex -24.0353584289551 -0.310867130756378 0.150000005960464
endloop
endfacet
facet normal -0.0129326609894633 0.99991637468338 -4.9751628945416e-16
outer loop
vertex -24.0353584289551 -0.310867130756378 0
vertex -24.0353584289551 -0.310867130756378 0.150000005960464
vertex -22.4790420532227 -0.290738135576248 0
endloop
endfacet
facet normal -0.0129326619207859 0.999916434288025 -4.9751634239372e-16
outer loop
vertex -24.0353584289551 -0.310867130756378 0.150000005960464
vertex -24.0353584289551 -0.310867130756378 0
vertex -24.9979095458984 -0.323316514492035 0.150000005960464
endloop
endfacet
facet normal -0.0129326619207859 0.999916434288025 0
outer loop
vertex -24.9979095458984 -0.323316514492035 0
vertex -24.9979095458984 -0.323316514492035 0.150000005960464
vertex -24.0353584289551 -0.310867130756378 0
endloop
endfacet
facet normal -0.707119584083557 0.00469725392758846 0.707078397274017
outer loop
vertex -2.56114459037781 -0.0113933905959129 -2.56121802330017
vertex -2.56116676330566 -0.0331254713237286 -2.56109571456909
vertex 0 0 0
endloop
endfacet
facet normal -0.707119584083557 0.00469725392758846 0.707078397274017
outer loop
vertex -5.12228918075562 -0.0227867811918259 -5.12243604660034
vertex -5.12233352661133 -0.0662509426474571 -5.12219142913818
vertex -2.56114459037781 -0.0113933905959129 -2.56121802330017
endloop
endfacet
facet normal -0.707119584083557 0.00469725392758846 0.707078397274017
outer loop
vertex -2.56116676330566 -0.0331254713237286 -2.56109571456909
vertex -2.56114459037781 -0.0113933905959129 -2.56121802330017
vertex -5.12233352661133 -0.0662509426474571 -5.12219142913818
endloop
endfacet
facet normal -0.707119584083557 0.00469725392758846 0.707078397274017
outer loop
vertex -5.12228918075562 -0.0227867811918259 -5.12243604660034
vertex -7.683434009552 -0.0341801717877388 -7.68365430831909
vertex -5.12233352661133 -0.0662509426474571 -5.12219142913818
endloop
endfacet
facet normal -0.707119584083557 0.00469725392758846 0.707078397274017
outer loop
vertex -7.68350028991699 -0.099376417696476 -7.68328714370728
vertex -5.12233352661133 -0.0662509426474571 -5.12219142913818
vertex -7.683434009552 -0.0341801717877388 -7.68365430831909
endloop
endfacet
facet normal -0.707119584083557 0.00469725392758846 0.707078397274017
outer loop
vertex -10.2445783615112 -0.0455735623836517 -10.2448720932007
vertex -10.2446670532227 -0.132501885294914 -10.2443828582764
vertex -7.683434009552 -0.0341801717877388 -7.68365430831909
endloop
endfacet
facet normal -0.707119584083557 0.00469725392758846 0.707078397274017
outer loop
vertex -7.68350028991699 -0.099376417696476 -7.68328714370728
vertex -7.683434009552 -0.0341801717877388 -7.68365430831909
vertex -10.2446670532227 -0.132501885294914 -10.2443828582764
endloop
endfacet
facet normal -0.707119584083557 0.00469725392758846 0.707078397274017
outer loop
vertex -10.2445783615112 -0.0455735623836517 -10.2448720932007
vertex -12.8057231903076 -0.0569669529795647 -12.8060903549194
vertex -10.2446670532227 -0.132501885294914 -10.2443828582764
endloop
endfacet
facet normal -0.707119524478912 0.00469725346192718 0.707078397274017
outer loop
vertex -12.8058338165283 -0.165627360343933 -12.8054790496826
vertex -10.2446670532227 -0.132501885294914 -10.2443828582764
vertex -12.8057231903076 -0.0569669529795647 -12.8060903549194
endloop
endfacet
facet normal -0.707119584083557 0.00469725392758846 0.707078397274017
outer loop
vertex -15.3286285400391 -0.0681902319192886 -15.3290672302246
vertex -15.3287677764893 -0.198258340358734 -15.3283424377441
vertex -12.8057231903076 -0.0569669529795647 -12.8060903549194
endloop
endfacet
facet normal -0.707119584083557 0.00469725392758846 0.707078456878662
outer loop
vertex -12.8058338165283 -0.165627360343933 -12.8054790496826
vertex -12.8057231903076 -0.0569669529795647 -12.8060903549194
vertex -15.3287677764893 -0.198258340358734 -15.3283424377441
endloop
endfacet
facet normal -0.707119524478912 0.00469725346192718 0.707078337669373
outer loop
vertex -15.3286285400391 -0.0681902319192886 -15.3290672302246
vertex -16.9043121337891 -0.0751997455954552 -16.9047966003418
vertex -15.3287677764893 -0.198258340358734 -15.3283424377441
endloop
endfacet
facet normal -0.707119524478912 0.00469725392758846 0.707078397274017
outer loop
vertex -16.9044761657715 -0.218638151884079 -16.9040069580078
vertex -15.3287677764893 -0.198258340358734 -15.3283424377441
vertex -16.9043121337891 -0.0751997455954552 -16.9047966003418
endloop
endfacet
facet normal -0.707119584083557 0.00469725392758846 0.707078397274017
outer loop
vertex -16.9043121337891 -0.0751997455954552 -16.9047966003418
vertex -17.6773281097412 -0.0786385536193848 -17.6778354644775
vertex -16.9044761657715 -0.218638151884079 -16.9040069580078
endloop
endfacet
facet normal -0.707119584083557 0.00469725392758846 0.707078397274017
outer loop
vertex -17.6774940490723 -0.228636160492897 -17.6770038604736
vertex -16.9044761657715 -0.218638151884079 -16.9040069580078
vertex -17.6773281097412 -0.0786385536193848 -17.6778354644775
endloop
endfacet
facet normal 0.70709365606308 0.00554561242461205 -0.707098066806793
outer loop
vertex 0.000235277562751435 -0.0299990773200989 0
vertex -0.146566346287727 -0.0316487289965153 -0.1468136459589
vertex 0 0 0
endloop
endfacet
facet normal 0.707093715667725 0.00554561335593462 -0.707098126411438
outer loop
vertex -0.146809443831444 -0.000653089722618461 -0.1468136459589
vertex 0 0 0
vertex -0.146566346287727 -0.0316487289965153 -0.1468136459589
endloop
endfacet
facet normal 0.707093715667725 0.00554561335593462 -0.707098126411438
outer loop
vertex -0.146566346287727 -0.0316487289965153 -0.1468136459589
vertex -0.391830146312714 -0.0344048254191875 -0.392097532749176
vertex -0.146809443831444 -0.000653089722618461 -0.1468136459589
endloop
endfacet
facet normal 0.707093715667725 0.00554561289027333 -0.707098126411438
outer loop
vertex -0.392086297273636 -0.00174421700648963 -0.392097532749176
vertex -0.146809443831444 -0.000653089722618461 -0.1468136459589
vertex -0.391830146312714 -0.0344048254191875 -0.392097532749176
endloop
endfacet
facet normal 0.707093715667725 0.00554561335593462 -0.707098126411438
outer loop
vertex -0.801874220371246 -0.00356718082912266 -0.80189722776413
vertex -0.392086297273636 -0.00174421700648963 -0.392097532749176
vertex -0.801596283912659 -0.0390094816684723 -0.80189722776413
endloop
endfacet
facet normal 0.707093715667725 0.00554561335593462 -0.707098126411438
outer loop
vertex -0.391830146312714 -0.0344048254191875 -0.392097532749176
vertex -0.801596283912659 -0.0390094816684723 -0.80189722776413
vertex -0.392086297273636 -0.00174421700648963 -0.392097532749176
endloop
endfacet
facet normal 0.707093715667725 0.00554561289027333 -0.707098066806793
outer loop
vertex -1.48651349544525 -0.00661283545196056 -1.48655605316162
vertex -0.801874220371246 -0.00356718082912266 -0.80189722776413
vertex -1.48619902133942 -0.0467025563120842 -1.48655605316162
endloop
endfacet
facet normal 0.707093775272369 0.00554561382159591 -0.707098126411438
outer loop
vertex -0.801596283912659 -0.0390094816684723 -0.80189722776413
vertex -1.48619902133942 -0.0467025563120842 -1.48655605316162
vertex -0.801874220371246 -0.00356718082912266 -0.80189722776413
endloop
endfacet
facet normal 0.70709365606308 0.00554561289027333 -0.707098066806793
outer loop
vertex -1.48651349544525 -0.00661283545196056 -1.48655605316162
vertex -1.48619902133942 -0.0467025563120842 -1.48655605316162
vertex -2.63035106658936 -0.0117012588307261 -2.63042640686035
endloop
endfacet
facet normal 0.70709365606308 0.00554561289027333 -0.707098066806793
outer loop
vertex -2.62997579574585 -0.0595554932951927 -2.63042640686035
vertex -2.63035106658936 -0.0117012588307261 -2.63042640686035
vertex -1.48619902133942 -0.0467025563120842 -1.48655605316162
endloop
endfacet
facet normal 0.707093715667725 0.00554561335593462 -0.707098126411438
outer loop
vertex -4.54206228256226 -0.020205607637763 -4.54219245910645
vertex -2.63035106658936 -0.0117012588307261 -2.63042640686035
vertex -4.54158496856689 -0.0810367837548256 -4.54219245910645
endloop
endfacet
facet normal 0.707093715667725 0.00554561335593462 -0.707098126411438
outer loop
vertex -2.62997579574585 -0.0595554932951927 -2.63042640686035
vertex -4.54158496856689 -0.0810367837548256 -4.54219245910645
vertex -2.63035106658936 -0.0117012588307261 -2.63042640686035
endloop
endfacet
facet normal 0.70709365606308 0.00554561335593462 -0.707098126411438
outer loop
vertex -4.54206228256226 -0.020205607637763 -4.54219245910645
vertex -4.54158496856689 -0.0810367837548256 -4.54219245910645
vertex -7.07100677490234 -0.0314557552337646 -7.07120943069458
endloop
endfacet
facet normal 0.70709365606308 0.00554561335593462 -0.707098126411438
outer loop
vertex -7.07039546966553 -0.109453730285168 -7.07120943069458
vertex -7.07100677490234 -0.0314557552337646 -7.07120943069458
vertex -4.54158496856689 -0.0810367837548256 -4.54219245910645
endloop
endfacet
facet normal 0.70709365606308 0.00554561335593462 -0.707098126411438
outer loop
vertex -7.07100677490234 -0.0314557552337646 -7.07120943069458
vertex -7.07039546966553 -0.109453730285168 -7.07120943069458
vertex -9.59995174407959 -0.0427059046924114 -9.60022640228271
endloop
endfacet
facet normal 0.70709365606308 0.00554561289027333 -0.707098066806793
outer loop
vertex -9.59920501708984 -0.13787068426609 -9.60022640228271
vertex -9.59995174407959 -0.0427059046924114 -9.60022640228271
vertex -7.07039546966553 -0.109453730285168 -7.07120943069458
endloop
endfacet
facet normal 0.70709365606308 0.00554561289027333 -0.707098066806793
outer loop
vertex -9.59995174407959 -0.0427059046924114 -9.60022640228271
vertex -9.59920501708984 -0.13787068426609 -9.60022640228271
vertex -12.1288967132568 -0.0539560504257679 -12.129243850708
endloop
endfacet
facet normal 0.70709365606308 0.00554561289027333 -0.707098126411438
outer loop
vertex -12.1280155181885 -0.166287630796432 -12.129243850708
vertex -12.1288967132568 -0.0539560504257679 -12.129243850708
vertex -9.59920501708984 -0.13787068426609 -9.60022640228271
endloop
endfacet
facet normal 0.70709365606308 0.00554561335593462 -0.707098126411438
outer loop
vertex -14.4475908279419 -0.0642708837985992 -14.4480047225952
vertex -12.1288967132568 -0.0539560504257679 -12.129243850708
vertex -14.4465856552124 -0.192342042922974 -14.4480047225952
endloop
endfacet
facet normal 0.707093715667725 0.00554561289027333 -0.707098066806793
outer loop
vertex -12.1280155181885 -0.166287630796432 -12.129243850708
vertex -14.4465856552124 -0.192342042922974 -14.4480047225952
vertex -12.1288967132568 -0.0539560504257679 -12.129243850708
endloop
endfacet
facet normal 0.707093715667725 0.00554561335593462 -0.707098066806793
outer loop
vertex -14.4475908279419 -0.0642708837985992 -14.4480047225952
vertex -14.4465856552124 -0.192342042922974 -14.4480047225952
vertex -16.002269744873 -0.0711869597434998 -16.0027294158936
endloop
endfacet
facet normal 0.70709365606308 0.00554561289027333 -0.707098066806793
outer loop
vertex -16.0011825561523 -0.209811493754387 -16.0027294158936
vertex -16.002269744873 -0.0711869597434998 -16.0027294158936
vertex -14.4465856552124 -0.192342042922974 -14.4480047225952
endloop
endfacet
facet normal 0.70709365606308 0.00554561335593462 -0.707098126411438
outer loop
vertex -17.0161628723145 -0.0756973177194595 -17.0166511535645
vertex -16.002269744873 -0.0711869597434998 -16.0027294158936
vertex -17.015022277832 -0.221204280853271 -17.0166511535645
endloop
endfacet
facet normal 0.707093715667725 0.00554561335593462 -0.707098126411438
outer loop
vertex -16.0011825561523 -0.209811493754387 -16.0027294158936
vertex -17.015022277832 -0.221204280853271 -17.0166511535645
vertex -16.002269744873 -0.0711869597434998 -16.0027294158936
endloop
endfacet
facet normal 0.707093715667725 0.00554561335593462 -0.707098126411438
outer loop
vertex -17.0161628723145 -0.0756973177194595 -17.0166511535645
vertex -17.015022277832 -0.221204280853271 -17.0166511535645
vertex -17.6773796081543 -0.0786387771368027 -17.6778869628906
endloop
endfacet
facet normal 0.707093715667725 0.00554561335593462 -0.707098126411438
outer loop
vertex -17.6762027740479 -0.228634163737297 -17.6778869628906
vertex -17.6773796081543 -0.0786387771368027 -17.6778869628906
vertex -17.015022277832 -0.221204280853271 -17.0166511535645
endloop
endfacet
facet normal -0.321660488843918 -0.946855068206787 -0
outer loop
vertex -3.18337345123291 -28.3556118011475 0.0900000035762787
vertex -3.18337345123291 -28.3556118011475 0.0599999986588955
vertex -2.98678421974182 -28.4223957061768 0.090498298406601
endloop
endfacet
facet normal -0.32166051864624 -0.946855068206787 2.07833113241053e-13
outer loop
vertex -2.98678421974182 -28.4223957061768 0.0595017038285732
vertex -2.98678421974182 -28.4223957061768 0.090498298406601
vertex -3.18337345123291 -28.3556118011475 0.0599999986588955
endloop
endfacet
facet normal -0.321660488843918 -0.946855068206787 2.07833099688526e-13
outer loop
vertex -2.98678421974182 -28.4223957061768 0.090498298406601
vertex -2.98678421974182 -28.4223957061768 0.0595017038285732
vertex -2.65833950042725 -28.5339736938477 0.0913308039307594
endloop
endfacet
facet normal -0.32166051864624 -0.946855068206787 -2.23479275449773e-13
outer loop
vertex -2.65833950042725 -28.5339736938477 0.0586691945791245
vertex -2.65833950042725 -28.5339736938477 0.0913308039307594
vertex -2.98678421974182 -28.4223957061768 0.0595017038285732
endloop
endfacet
facet normal -0.321660488843918 -0.946855068206787 -2.23479275449773e-13
outer loop
vertex -2.65833950042725 -28.5339736938477 0.0913308039307594
vertex -2.65833950042725 -28.5339736938477 0.0586691945791245
vertex -2.1096019744873 -28.7203884124756 0.0927216932177544
endloop
endfacet
facet normal -0.321660459041595 -0.946855008602142 1.02969736415822e-13
outer loop
vertex -2.1096019744873 -28.7203884124756 0.0572783052921295
vertex -2.1096019744873 -28.7203884124756 0.0927216932177544
vertex -2.65833950042725 -28.5339736938477 0.0586691945791245
endloop
endfacet
facet normal -0.32166051864624 -0.946855068206787 1.03503597565554e-13
outer loop
vertex -1.19281709194183 -29.0318336486816 0.0549545250833035
vertex -1.19281709194183 -29.0318336486816 0.0950454771518707
vertex -2.1096019744873 -28.7203884124756 0.0572783052921295
endloop
endfacet
facet normal -0.321660488843918 -0.946855068206787 1.02969736415822e-13
outer loop
vertex -2.1096019744873 -28.7203884124756 0.0927216932177544
vertex -2.1096019744873 -28.7203884124756 0.0572783052921295
vertex -1.19281709194183 -29.0318336486816 0.0950454771518707
endloop
endfacet
facet normal -0.321660488843918 -0.946855068206787 1.0350359078929e-13
outer loop
vertex -1.19281709194183 -29.0318336486816 0.0549545250833035
vertex 0.33886981010437 -29.5521697998047 0.051072146743536
vertex -1.19281709194183 -29.0318336486816 0.0950454771518707
endloop
endfacet
facet normal -0.32166051864624 -0.946855127811432 -1.32058679109767e-14
outer loop
vertex 0.33886981010437 -29.5521697998047 0.0989278554916382
vertex -1.19281709194183 -29.0318336486816 0.0950454771518707
vertex 0.33886981010437 -29.5521697998047 0.051072146743536
endloop
endfacet
facet normal -0.321660488843918 -0.946855068206787 1.04512557801335e-14
outer loop
vertex 2.89879870414734 -30.4218139648438 0.0445834770798683
vertex 2.89879870414734 -30.4218139648438 0.105416521430016
vertex 0.33886981010437 -29.5521697998047 0.051072146743536
endloop
endfacet
facet normal -0.321660459041595 -0.946855008602142 -1.32058653698778e-14
outer loop
vertex 0.33886981010437 -29.5521697998047 0.0989278554916382
vertex 0.33886981010437 -29.5521697998047 0.051072146743536
vertex 2.89879870414734 -30.4218139648438 0.105416521430016
endloop
endfacet
facet normal -0.321660488843918 -0.946855068206787 1.04512557801335e-14
outer loop
vertex 2.89879870414734 -30.4218139648438 0.0445834770798683
vertex 6.28525114059448 -31.5722427368164 0.0359998121857643
vertex 2.89879870414734 -30.4218139648438 0.105416521430016
endloop
endfacet
facet normal -0.321660488843918 -0.946855127811432 1.54764083357605e-14
outer loop
vertex 6.28525114059448 -31.5722427368164 0.11400018632412
vertex 2.89879870414734 -30.4218139648438 0.105416521430016
vertex 6.28525114059448 -31.5722427368164 0.0359998121857643
endloop
endfacet
facet normal -0.321660488843918 -0.946855068206787 4.20277724568711e-14
outer loop
vertex 9.67170333862305 -32.7226676940918 0.122583851218224
vertex 6.28525114059448 -31.5722427368164 0.11400018632412
vertex 9.67170333862305 -32.7226676940918 0.0274161491543055
endloop
endfacet
facet normal -0.321660488843918 -0.946855127811432 1.54764083357605e-14
outer loop
vertex 6.28525114059448 -31.5722427368164 0.0359998121857643
vertex 9.67170333862305 -32.7226676940918 0.0274161491543055
vertex 6.28525114059448 -31.5722427368164 0.11400018632412
endloop
endfacet
facet normal -0.321660488843918 -0.946855068206787 4.20277724568711e-14
outer loop
vertex 9.67170333862305 -32.7226676940918 0.122583851218224
vertex 9.67170333862305 -32.7226676940918 0.0274161491543055
vertex 13.0581560134888 -33.8730964660645 0.131167516112328
endloop
endfacet
facet normal -0.321660488843918 -0.946855068206787 3.0518556431991e-14
outer loop
vertex 13.0581560134888 -33.8730964660645 0.0188324842602015
vertex 13.0581560134888 -33.8730964660645 0.131167516112328
vertex 9.67170333862305 -32.7226676940918 0.0274161491543055
endloop
endfacet
facet normal -0.32166051864624 -0.946855068206787 6.14528298582308e-14
outer loop
vertex 16.1630668640137 -34.9278793334961 0.0109624480828643
vertex 16.1630668640137 -34.9278793334961 0.139037549495697
vertex 13.0581560134888 -33.8730964660645 0.0188324842602015
endloop
endfacet
facet normal -0.321660488843918 -0.946855068206787 3.05185530438592e-14
outer loop
vertex 13.0581560134888 -33.8730964660645 0.131167516112328
vertex 13.0581560134888 -33.8730964660645 0.0188324842602015
vertex 16.1630668640137 -34.9278793334961 0.139037549495697
endloop
endfacet
facet normal -0.321660488843918 -0.946855068206787 6.14528298582308e-14
outer loop
vertex 16.1630668640137 -34.9278793334961 0.0109624480828643
vertex 18.2449016571045 -35.6351089477539 0.00568560371175408
vertex 16.1630668640137 -34.9278793334961 0.139037549495697
endloop
endfacet
facet normal -0.321660459041595 -0.946855068206787 -8.24336360619442e-15
outer loop
vertex 18.2449016571045 -35.6351089477539 0.144314393401146
vertex 16.1630668640137 -34.9278793334961 0.139037549495697
vertex 18.2449016571045 -35.6351089477539 0.00568560371175408
endloop
endfacet
facet normal -0.32166051864624 -0.946855127811432 0
outer loop
vertex 19.6025829315186 -36.0963363647461 0.00224427925422788
vertex 19.6025829315186 -36.0963363647461 0.147755727171898
vertex 18.2449016571045 -35.6351089477539 0.00568560371175408
endloop
endfacet
facet normal -0.321660488843918 -0.946855068206787 -8.24336445322737e-15
outer loop
vertex 18.2449016571045 -35.6351089477539 0.144314393401146
vertex 18.2449016571045 -35.6351089477539 0.00568560371175408
vertex 19.6025829315186 -36.0963363647461 0.147755727171898
endloop
endfacet
facet normal -0.32166051864624 -0.946855127811432 0
outer loop
vertex 19.6025829315186 -36.0963363647461 0.00224427925422788
vertex 20.4880027770996 -36.3971252441406 1.27675647831893e-15
vertex 19.6025829315186 -36.0963363647461 0.147755727171898
endloop
endfacet
facet normal -0.321660488843918 -0.946855127811432 -0
outer loop
vertex 20.4880027770996 -36.3971252441406 0.150000005960464
vertex 19.6025829315186 -36.0963363647461 0.147755727171898
vertex 20.4880027770996 -36.3971252441406 1.27675647831893e-15
endloop
endfacet
facet normal 0.00629863888025284 -0.0021099743898958 0.999977886676788
outer loop
vertex -3.18337345123291 -28.3556118011475 0.0599999986588955
vertex -2.27061581611633 -28.6613750457764 0.0536055751144886
vertex -3.1357274055481 -28.2133808135986 0.0599999986588955
endloop
endfacet
facet normal 0.00629863888025284 -0.0021099743898958 0.999977886676788
outer loop
vertex -2.22296977043152 -28.5191440582275 0.0536055751144886
vertex -3.1357274055481 -28.2133808135986 0.0599999986588955
vertex -2.27061581611633 -28.6613750457764 0.0536055751144886
endloop
endfacet
facet normal 0.00629863888025284 -0.00210997462272644 0.999977886676788
outer loop
vertex -2.27061581611633 -28.6613750457764 0.0536055751144886
vertex -0.794807314872742 -29.1557559967041 0.0432666316628456
vertex -2.22296977043152 -28.5191440582275 0.0536055751144886
endloop
endfacet
facet normal 0.00629863888025284 -0.00210997462272644 0.999977886676788
outer loop
vertex -0.747161269187927 -29.0135231018066 0.0432666316628456
vertex -2.22296977043152 -28.5191440582275 0.0536055751144886
vertex -0.794807314872742 -29.1557559967041 0.0432666316628456
endloop
endfacet
facet normal 0.00629863934591413 -0.00210997462272644 0.999977886676788
outer loop
vertex -0.794807314872742 -29.1557559967041 0.0432666316628456
vertex 1.59137976169586 -29.9551010131836 0.0265499334782362
vertex -0.747161269187927 -29.0135231018066 0.0432666316628456
endloop
endfacet
facet normal 0.00629863934591413 -0.00210997462272644 0.999977886676788
outer loop
vertex 1.63902580738068 -29.8128700256348 0.0265499334782362
vertex -0.747161269187927 -29.0135231018066 0.0432666316628456
vertex 1.59137976169586 -29.9551010131836 0.0265499334782362
endloop
endfacet
facet normal 0.00629863934591413 -0.00210997462272644 0.999977946281433
outer loop
vertex 1.59137976169586 -29.9551010131836 0.0265499334782362
vertex 5.07361221313477 -31.1216106414795 0.00215476565063
vertex 1.63902580738068 -29.8128700256348 0.0265499334782362
endloop
endfacet
facet normal 0.00629863934591413 -0.00210997462272644 0.999977946281433
outer loop
vertex 5.12125825881958 -30.9793796539307 0.00215476565063
vertex 1.63902580738068 -29.8128700256348 0.0265499334782362
vertex 5.07361221313477 -31.1216106414795 0.00215476565063
endloop
endfacet
facet normal 0.00629863888025284 -0.00210997462272644 0.999977886676788
outer loop
vertex 5.12125825881958 -30.9793796539307 0.00215476565063
vertex 5.07361221313477 -31.1216106414795 0.00215476565063
vertex 8.71665191650391 -32.1837959289551 -0.0230331681668758
endloop
endfacet
facet normal 0.00629863888025284 -0.00210997462272644 0.999977886676788
outer loop
vertex 8.66900634765625 -32.3260269165039 -0.0230331681668758
vertex 8.71665191650391 -32.1837959289551 -0.0230331681668758
vertex 5.07361221313477 -31.1216106414795 0.00215476565063
endloop
endfacet
facet normal 0.00629863888025284 -0.00210997462272644 0.999977886676788
outer loop
vertex 8.71665191650391 -32.1837959289551 -0.0230331681668758
vertex 8.66900634765625 -32.3260269165039 -0.0230331681668758
vertex 12.3120460510254 -33.3882141113281 -0.0482211001217365
endloop
endfacet
facet normal 0.00629863888025284 -0.00210997462272644 0.999977886676788
outer loop
vertex 12.2643995285034 -33.530445098877 -0.0482211001217365
vertex 12.3120460510254 -33.3882141113281 -0.0482211001217365
vertex 8.66900634765625 -32.3260269165039 -0.0230331681668758
endloop
endfacet
facet normal 0.00629863934591413 -0.00210997462272644 0.999977946281433
outer loop
vertex 12.2643995285034 -33.530445098877 -0.0482211001217365
vertex 15.7466325759888 -34.6969566345215 -0.072616271674633
vertex 12.3120460510254 -33.3882141113281 -0.0482211001217365
endloop
endfacet
facet normal 0.00629863934591413 -0.00210997462272644 0.999977946281433
outer loop
vertex 15.7942781448364 -34.5547218322754 -0.072616271674633
vertex 12.3120460510254 -33.3882141113281 -0.0482211001217365
vertex 15.7466325759888 -34.6969566345215 -0.072616271674633
endloop
endfacet
facet normal 0.00629863934591413 -0.00210997462272644 0.999977886676788
outer loop
vertex 18.1804656982422 -35.3540687561035 -0.0893329679965973
vertex 15.7942781448364 -34.5547218322754 -0.072616271674633
vertex 18.1328201293945 -35.4962997436523 -0.0893329679965973
endloop
endfacet
facet normal 0.00629863934591413 -0.00210997462272644 0.999977886676788
outer loop
vertex 15.7466325759888 -34.6969566345215 -0.072616271674633
vertex 18.1328201293945 -35.4962997436523 -0.0893329679965973
vertex 15.7942781448364 -34.5547218322754 -0.072616271674633
endloop
endfacet
facet normal 0.00629863888025284 -0.00210997462272644 0.999977886676788
outer loop
vertex 18.1328201293945 -35.4962997436523 -0.0893329679965973
vertex 19.6086273193359 -35.9906806945801 -0.09967190772295
vertex 18.1804656982422 -35.3540687561035 -0.0893329679965973
endloop
endfacet
facet normal 0.00629863888025284 -0.00210997462272644 0.999977886676788
outer loop
vertex 19.6562747955322 -35.8484497070313 -0.09967190772295
vertex 18.1804656982422 -35.3540687561035 -0.0893329679965973
vertex 19.6086273193359 -35.9906806945801 -0.09967190772295
endloop
endfacet
facet normal 0.00629863888025284 -0.0021099743898958 0.999977886676788
outer loop
vertex 19.6562747955322 -35.8484497070313 -0.09967190772295
vertex 19.6086273193359 -35.9906806945801 -0.09967190772295
vertex 20.5690307617188 -36.1542129516602 -0.106066338717937
endloop
endfacet
facet normal 0.00629863888025284 -0.0021099743898958 0.999977886676788
outer loop
vertex 20.5213851928711 -36.296443939209 -0.106066338717937
vertex 20.5690307617188 -36.1542129516602 -0.106066338717937
vertex 19.6086273193359 -35.9906806945801 -0.09967190772295
endloop
endfacet
facet normal -0.229056984186172 -0.668987214565277 -0.707098960876465
outer loop
vertex 20.5218124389648 -36.2965888977051 -0.106069847941399
vertex 20.4879360198975 -36.397102355957 7.12827841198305e-07
vertex 19.485179901123 -35.9493255615234 -0.098807580769062
endloop
endfacet
facet normal -0.229056999087334 -0.668987274169922 -0.70709902048111
outer loop
vertex 19.4527740478516 -36.0454406738281 0.00262451753951609
vertex 19.485179901123 -35.9493255615234 -0.098807580769062
vertex 20.4879360198975 -36.397102355957 7.12827841198305e-07
endloop
endfacet
facet normal -0.229056984186172 -0.668987214565277 -0.707098960876465
outer loop
vertex 19.485179901123 -35.9493255615234 -0.098807580769062
vertex 19.4527740478516 -36.0454406738281 0.00262451753951609
vertex 17.3721466064453 -35.2414855957031 -0.0840044468641281
endloop
endfacet
facet normal -0.229056999087334 -0.668987214565277 -0.707098960876465
outer loop
vertex 17.3427753448486 -35.3286437988281 0.00797269865870476
vertex 17.3721466064453 -35.2414855957031 -0.0840044468641281
vertex 19.4527740478516 -36.0454406738281 0.00262451753951609
endloop
endfacet
facet normal -0.229057013988495 -0.668987214565277 -0.70709902048111
outer loop
vertex 17.3427753448486 -35.3286437988281 0.00797269865870476
vertex 13.9644136428833 -34.180965423584 0.0165357775986195
vertex 17.3721466064453 -35.2414855957031 -0.0840044468641281
endloop
endfacet
facet normal -0.229057013988495 -0.668987274169922 -0.707098960876465
outer loop
vertex 13.9889430999756 -34.1081466674805 -0.0603029578924179
vertex 17.3721466064453 -35.2414855957031 -0.0840044468641281
vertex 13.9644136428833 -34.180965423584 0.0165357775986195
endloop
endfacet
facet normal -0.229056999087334 -0.668987214565277 -0.707098960876465
outer loop
vertex 13.9889430999756 -34.1081466674805 -0.0603029578924179
vertex 13.9644136428833 -34.180965423584 0.0165357775986195
vertex 10.554479598999 -32.9576416015625 -0.0362423658370972
endloop
endfacet
facet normal -0.229057013988495 -0.668987274169922 -0.70709902048111
outer loop
vertex 10.5348567962646 -33.0158958435059 0.0252286214381456
vertex 10.554479598999 -32.9576416015625 -0.0362423658370972
vertex 13.9644136428833 -34.180965423584 0.0165357775986195
endloop
endfacet
facet normal -0.229057013988495 -0.668987274169922 -0.70709902048111
outer loop
vertex 10.5348567962646 -33.0158958435059 0.0252286214381456
vertex 7.10529899597168 -31.8508243560791 0.0339214652776718
vertex 10.554479598999 -32.9576416015625 -0.0362423658370972
endloop
endfacet
facet normal -0.229057013988495 -0.668987214565277 -0.707098960876465
outer loop
vertex 7.12001657485962 -31.8071346282959 -0.012181774713099
vertex 10.554479598999 -32.9576416015625 -0.0362423658370972
vertex 7.10529899597168 -31.8508243560791 0.0339214652776718
endloop
endfacet
facet normal -0.229057013988495 -0.668987214565277 -0.707098960876465
outer loop
vertex 7.12001657485962 -31.8071346282959 -0.012181774713099
vertex 7.10529899597168 -31.8508243560791 0.0339214652776718
vertex 3.68555331230164 -30.6566257476807 0.0118788164108992
endloop
endfacet
facet normal -0.229057013988495 -0.668987274169922 -0.70709902048111
outer loop
vertex 3.67574167251587 -30.6857528686523 0.0426143109798431
vertex 3.68555331230164 -30.6566257476807 0.0118788164108992
vertex 7.10529899597168 -31.8508243560791 0.0339214652776718
endloop
endfacet
facet normal -0.229057013988495 -0.668987274169922 -0.70709902048111
outer loop
vertex 3.67574167251587 -30.6857528686523 0.0426143109798431
vertex 0.246184051036835 -29.5206832885742 0.0513071566820145
vertex 3.68555331230164 -30.6566257476807 0.0118788164108992
endloop
endfacet
facet normal -0.229057013988495 -0.668987274169922 -0.70709902048111
outer loop
vertex 0.25108990073204 -29.5061187744141 0.0359394066035748
vertex 3.68555331230164 -30.6566257476807 0.0118788164108992
vertex 0.246184051036835 -29.5206832885742 0.0513071566820145
endloop
endfacet
facet normal -0.229057013988495 -0.668987274169922 -0.70709902048111
outer loop
vertex 0.246184051036835 -29.5206832885742 0.0513071566820145
vertex -3.18337345123291 -28.3556118011475 0.0599999986588955
vertex 0.25108990073204 -29.5061187744141 0.0359394066035748
endloop
endfacet
facet normal -0.948132038116455 0.317613780498505 0.0129326619207859
outer loop
vertex -2.87680101394653 -28.4583110809326 25.0879096984863
vertex -2.82915496826172 -28.3160781860352 25.0879096984863
vertex -2.88860583305359 -28.4543552398682 24.125358581543
endloop
endfacet
facet normal -0.948132038116455 0.317613780498505 0.0129326619207859
outer loop
vertex -2.84095978736877 -28.3121242523193 24.125358581543
vertex -2.88860583305359 -28.4543552398682 24.125358581543
vertex -2.82915496826172 -28.3160781860352 25.0879096984863
endloop
endfacet
facet normal -0.94813197851181 0.317613750696182 0.0129326609894633
outer loop
vertex -2.88860583305359 -28.4543552398682 24.125358581543
vertex -2.84095978736877 -28.3121242523193 24.125358581543
vertex -2.90769219398499 -28.447961807251 22.5690402984619
endloop
endfacet
facet normal -0.94813197851181 0.317613750696182 0.0129326609894633
outer loop
vertex -2.86004614830017 -28.3057308197021 22.5690402984619
vertex -2.90769219398499 -28.447961807251 22.5690402984619
vertex -2.84095978736877 -28.3121242523193 24.125358581543
endloop
endfacet
facet normal -0.948132038116455 0.317613780498505 0.0129326619207859
outer loop
vertex -2.86004614830017 -28.3057308197021 22.5690402984619
vertex -2.89090657234192 -28.2953929901123 20.0526828765869
vertex -2.90769219398499 -28.447961807251 22.5690402984619
endloop
endfacet
facet normal -0.948132038116455 0.317613780498505 0.0129326619207859
outer loop
vertex -2.93855261802673 -28.4376239776611 20.0526828765869
vertex -2.90769219398499 -28.447961807251 22.5690402984619
vertex -2.89090657234192 -28.2953929901123 20.0526828765869
endloop
endfacet
facet normal -0.948132038116455 0.317613750696182 0.0129326609894633
outer loop
vertex -2.89090657234192 -28.2953929901123 20.0526828765869
vertex -2.93594217300415 -28.2803058624268 16.380485534668
vertex -2.93855261802673 -28.4376239776611 20.0526828765869
endloop
endfacet
facet normal -0.948132038116455 0.317613750696182 0.0129326609894633
outer loop
vertex -2.98358821868896 -28.4225387573242 16.380485534668
vertex -2.93855261802673 -28.4376239776611 20.0526828765869
vertex -2.93594217300415 -28.2803058624268 16.380485534668
endloop
endfacet
facet normal -0.948131918907166 0.31761372089386 0.0129326600581408
outer loop
vertex -2.93594217300415 -28.2803058624268 16.380485534668
vertex -2.98244118690491 -28.2647304534912 12.5889549255371
vertex -2.98358821868896 -28.4225387573242 16.380485534668
endloop
endfacet
facet normal -0.948131918907166 0.31761372089386 0.0129326600581408
outer loop
vertex -3.03008723258972 -28.40696144104 12.5889549255371
vertex -2.98358821868896 -28.4225387573242 16.380485534668
vertex -2.98244118690491 -28.2647304534912 12.5889549255371
endloop
endfacet
facet normal -0.948131918907166 0.31761372089386 0.0129326600581408
outer loop
vertex -2.98244118690491 -28.2647304534912 12.5889549255371
vertex -3.02894020080566 -28.249153137207 8.79742336273193
vertex -3.03008723258972 -28.40696144104 12.5889549255371
endloop
endfacet
facet normal -0.948131918907166 0.31761372089386 0.0129326600581408
outer loop
vertex -3.07658624649048 -28.3913841247559 8.79742336273193
vertex -3.03008723258972 -28.40696144104 12.5889549255371
vertex -3.02894020080566 -28.249153137207 8.79742336273193
endloop
endfacet
facet normal -0.948132038116455 0.317613750696182 0.0129326609894633
outer loop
vertex -3.12162184715271 -28.3762989044189 5.12522745132446
vertex -3.07658624649048 -28.3913841247559 8.79742336273193
vertex -3.0739758014679 -28.2340660095215 5.12522745132446
endloop
endfacet
facet normal -0.948132038116455 0.317613750696182 0.0129326609894633
outer loop
vertex -3.02894020080566 -28.249153137207 8.79742336273193
vertex -3.0739758014679 -28.2340660095215 5.12522745132446
vertex -3.07658624649048 -28.3913841247559 8.79742336273193
endloop
endfacet
facet normal -0.948132038116455 0.317613780498505 0.0129326619207859
outer loop
vertex -3.12162184715271 -28.3762989044189 5.12522745132446
vertex -3.0739758014679 -28.2340660095215 5.12522745132446
vertex -3.15248227119446 -28.3659610748291 2.60886812210083
endloop
endfacet
facet normal -0.948132038116455 0.317613780498505 0.0129326619207859
outer loop
vertex -3.10483622550964 -28.2237281799316 2.60886812210083
vertex -3.15248227119446 -28.3659610748291 2.60886812210083
vertex -3.0739758014679 -28.2340660095215 5.12522745132446
endloop
endfacet
facet normal -0.94813197851181 0.317613750696182 0.0129326609894633
outer loop
vertex -3.12392282485962 -28.2173347473145 1.05255079269409
vertex -3.17156887054443 -28.3595657348633 1.05255079269409
vertex -3.10483622550964 -28.2237281799316 2.60886812210083
endloop
endfacet
facet normal -0.94813197851181 0.317613750696182 0.0129326609894633
outer loop
vertex -3.15248227119446 -28.3659610748291 2.60886812210083
vertex -3.10483622550964 -28.2237281799316 2.60886812210083
vertex -3.17156887054443 -28.3595657348633 1.05255079269409
endloop
endfacet
facet normal -0.948132038116455 0.317613780498505 0.0129326619207859
outer loop
vertex -3.12392282485962 -28.2173347473145 1.05255079269409
vertex -3.1357274055481 -28.2133808135986 0.0900000035762787
vertex -3.17156887054443 -28.3595657348633 1.05255079269409
endloop
endfacet
facet normal -0.948132038116455 0.317613780498505 0.0129326619207859
outer loop
vertex -3.18337345123291 -28.3556118011475 0.0900000035762787
vertex -3.17156887054443 -28.3595657348633 1.05255079269409
vertex -3.1357274055481 -28.2133808135986 0.0900000035762787
endloop
endfacet
facet normal 0.321660578250885 0.946855008602142 -5.48764946870506e-05
outer loop
vertex 20.4875965118408 -36.3969764709473 0.30000501871109
vertex 20.4879360198975 -36.397102355957 0.14999982714653
vertex 19.4524612426758 -36.0453262329102 0.290821462869644
endloop
endfacet
facet normal 0.321660608053207 0.946855008602142 -5.48764946870506e-05
outer loop
vertex 19.4527740478516 -36.0454406738281 0.147376000881195
vertex 19.4524612426758 -36.0453262329102 0.290821462869644
vertex 20.4879360198975 -36.397102355957 0.14999982714653
endloop
endfacet
facet normal 0.321660578250885 0.946855008602142 -5.48764910490718e-05
outer loop
vertex 19.4524612426758 -36.0453262329102 0.290821462869644
vertex 19.4527740478516 -36.0454406738281 0.147376000881195
vertex 17.3424777984619 -35.3285369873047 0.272102028131485
endloop
endfacet
facet normal 0.321660608053207 0.946855008602142 -5.48764910490718e-05
outer loop
vertex 17.3427753448486 -35.3286437988281 0.142027765512466
vertex 17.3424777984619 -35.3285369873047 0.272102028131485
vertex 19.4527740478516 -36.0454406738281 0.147376000881195
endloop
endfacet
facet normal 0.321660608053207 0.946855068206787 -5.48764946870506e-05
outer loop
vertex 17.3427753448486 -35.3286437988281 0.142027765512466
vertex 13.9644136428833 -34.180965423584 0.133464619517326
vertex 17.3424777984619 -35.3285369873047 0.272102028131485
endloop
endfacet
facet normal 0.32166063785553 0.946855068206787 -5.48764946870506e-05
outer loop
vertex 13.9641571044922 -34.1808738708496 0.242130115628242
vertex 17.3424777984619 -35.3285369873047 0.272102028131485
vertex 13.9644136428833 -34.180965423584 0.133464619517326
endloop
endfacet
facet normal 0.32166063785553 0.946855008602142 -5.48764910490718e-05
outer loop
vertex 13.9641571044922 -34.1808738708496 0.242130115628242
vertex 13.9644136428833 -34.180965423584 0.133464619517326
vertex 10.5346508026123 -33.0158195495605 0.211704105138779
endloop
endfacet
facet normal 0.32166063785553 0.946855068206787 -5.48764946870506e-05
outer loop
vertex 10.5348567962646 -33.0158958435059 0.124771691858768
vertex 10.5346508026123 -33.0158195495605 0.211704105138779
vertex 13.9644136428833 -34.180965423584 0.133464619517326
endloop
endfacet
facet normal 0.32166063785553 0.946855068206787 -5.48764946870506e-05
outer loop
vertex 10.5348567962646 -33.0158958435059 0.124771691858768
vertex 7.10529899597168 -31.8508243560791 0.116078771650791
vertex 10.5346508026123 -33.0158195495605 0.211704105138779
endloop
endfacet
facet normal 0.321660608053207 0.946855068206787 -5.48764910490718e-05
outer loop
vertex 7.10514497756958 -31.8507690429688 0.181278079748154
vertex 10.5346508026123 -33.0158195495605 0.211704105138779
vertex 7.10529899597168 -31.8508243560791 0.116078771650791
endloop
endfacet
facet normal 0.321660608053207 0.946855068206787 -5.48764910490718e-05
outer loop
vertex 7.10514497756958 -31.8507690429688 0.181278079748154
vertex 7.10529899597168 -31.8508243560791 0.116078771650791
vertex 3.6756386756897 -30.6857166290283 0.150852054357529
endloop
endfacet
facet normal 0.32166063785553 0.946855068206787 -5.48764946870506e-05
outer loop
vertex 3.67574167251587 -30.6857528686523 0.107385843992233
vertex 3.6756386756897 -30.6857166290283 0.150852054357529
vertex 7.10529899597168 -31.8508243560791 0.116078771650791
endloop
endfacet
facet normal 0.32166063785553 0.946855068206787 -5.48764946870506e-05
outer loop
vertex 3.67574167251587 -30.6857528686523 0.107385843992233
vertex 0.246184051036835 -29.5206832885742 0.098692923784256
vertex 3.6756386756897 -30.6857166290283 0.150852054357529
endloop
endfacet
facet normal 0.32166063785553 0.946855068206787 -5.48764946870506e-05
outer loop
vertex 0.246132671833038 -29.5206642150879 0.120426021516323
vertex 3.6756386756897 -30.6857166290283 0.150852054357529
vertex 0.246184051036835 -29.5206832885742 0.098692923784256
endloop
endfacet
facet normal 0.32166063785553 0.946855068206787 -5.48764946870506e-05
outer loop
vertex 0.246184051036835 -29.5206832885742 0.098692923784256
vertex -3.18337345123291 -28.3556118011475 0.0900000035762787
vertex 0.246132671833038 -29.5206642150879 0.120426021516323
endloop
endfacet
facet normal 0.219344452023506 0.672239899635315 -0.707093715667725
outer loop
vertex 2.55404806137085 -11.4759883880615 17.7673797607422
vertex 2.69627547264099 -11.5236330032349 17.7662029266357
vertex 2.34122395515442 -12.1020450592041 17.1061630249023
endloop
endfacet
facet normal 0.219344466924667 0.67223995923996 -0.707093715667725
outer loop
vertex 2.47919535636902 -12.1482639312744 17.1050224304199
vertex 2.34122395515442 -12.1020450592041 17.1061630249023
vertex 2.69627547264099 -11.5236330032349 17.7662029266357
endloop
endfacet
facet normal 0.219344437122345 0.672239899635315 -0.70709365606308
outer loop
vertex 2.34122395515442 -12.1020450592041 17.1061630249023
vertex 2.47919535636902 -12.1482639312744 17.1050224304199
vertex 2.01488471031189 -13.0620250701904 16.0922698974609
endloop
endfacet
facet normal 0.219344452023506 0.672239899635315 -0.707093715667725
outer loop
vertex 2.14632987976074 -13.1060571670532 16.0911827087402
vertex 2.01488471031189 -13.0620250701904 16.0922698974609
vertex 2.47919535636902 -12.1482639312744 17.1050224304199
endloop
endfacet
facet normal 0.219344437122345 0.672239899635315 -0.70709365606308
outer loop
vertex 2.14632987976074 -13.1060571670532 16.0911827087402
vertex 1.63592219352722 -14.5747156143188 14.5365858078003
vertex 2.01488471031189 -13.0620250701904 16.0922698974609
endloop
endfacet
facet normal 0.219344452023506 0.672239899635315 -0.707093715667725
outer loop
vertex 1.51448369026184 -14.5340347290039 14.5375900268555
vertex 2.01488471031189 -13.0620250701904 16.0922698974609
vertex 1.63592219352722 -14.5747156143188 14.5365858078003
endloop
endfacet
facet normal 0.219344466924667 0.672239899635315 -0.70709365606308
outer loop
vertex 1.51448369026184 -14.5340347290039 14.5375900268555
vertex 1.63592219352722 -14.5747156143188 14.5365858078003
vertex 0.76817125082016 -16.7294330596924 12.2188968658447
endloop
endfacet
facet normal 0.219344452023506 0.672239899635315 -0.707093715667725
outer loop
vertex 0.874685347080231 -16.7651138305664 12.2180156707764
vertex 0.76817125082016 -16.7294330596924 12.2188968658447
vertex 1.63592219352722 -14.5747156143188 14.5365858078003
endloop
endfacet
facet normal 0.219344466924667 0.672239899635315 -0.707093715667725
outer loop
vertex 0.76817125082016 -16.7294330596924 12.2188968658447
vertex 0.874685347080231 -16.7651138305664 12.2180156707764
vertex -0.0458141043782234 -19.1239013671875 9.68995189666748
endloop
endfacet
facet normal 0.219344452023506 0.672239899635315 -0.70709365606308
outer loop
vertex 0.0444222092628479 -19.1541309356689 9.68920516967773
vertex -0.0458141043782234 -19.1239013671875 9.68995189666748
vertex 0.874685347080231 -16.7651138305664 12.2180156707764
endloop
endfacet
facet normal 0.219344452023506 0.672239899635315 -0.70709365606308
outer loop
vertex 0.0444222092628479 -19.1541309356689 9.68920516967773
vertex -0.785840928554535 -21.5431461334229 7.16039514541626
vertex -0.0458141043782234 -19.1239013671875 9.68995189666748
endloop
endfacet
facet normal 0.219344466924667 0.672239899635315 -0.70709365606308
outer loop
vertex -0.859799444675446 -21.5183715820313 7.16100692749023
vertex -0.0458141043782234 -19.1239013671875 9.68995189666748
vertex -0.785840928554535 -21.5431461334229 7.16039514541626
endloop
endfacet
facet normal 0.219344466924667 0.672239899635315 -0.70709365606308
outer loop
vertex -0.785840928554535 -21.5431461334229 7.16039514541626
vertex -1.61610400676727 -23.9321632385254 4.63158512115479
vertex -0.859799444675446 -21.5183715820313 7.16100692749023
endloop
endfacet
facet normal 0.219344466924667 0.67223995923996 -0.707093715667725
outer loop
vertex -1.67378485202789 -23.9128398895264 4.63206195831299
vertex -0.859799444675446 -21.5183715820313 7.16100692749023
vertex -1.61610400676727 -23.9321632385254 4.63158512115479
endloop
endfacet
facet normal 0.219344452023506 0.672239899635315 -0.707093715667725
outer loop
vertex -1.67378485202789 -23.9128398895264 4.63206195831299
vertex -1.61610400676727 -23.9321632385254 4.63158512115479
vertex -2.28910255432129 -25.7228965759277 2.72035098075867
endloop
endfacet
facet normal 0.219344452023506 0.672239899635315 -0.707093715667725
outer loop
vertex -2.24372673034668 -25.7380981445313 2.71997570991516
vertex -2.28910255432129 -25.7228965759277 2.72035098075867
vertex -1.61610400676727 -23.9321632385254 4.63158512115479
endloop
endfacet
facet normal 0.219344481825829 0.67223995923996 -0.707093715667725
outer loop
vertex -2.24372673034668 -25.7380981445313 2.71997570991516
vertex -2.61925339698792 -26.8186454772949 1.57619905471802
vertex -2.28910255432129 -25.7228965759277 2.72035098075867
endloop
endfacet
facet normal 0.219344466924667 0.67223995923996 -0.707093775272369
outer loop
vertex -2.65726685523987 -26.8059120178223 1.57651340961456
vertex -2.28910255432129 -25.7228965759277 2.72035098075867
vertex -2.61925339698792 -26.8186454772949 1.57619905471802
endloop
endfacet
facet normal 0.219344437122345 0.672239899635315 -0.707093715667725
outer loop
vertex -2.65726685523987 -26.8059120178223 1.57651340961456
vertex -2.61925339698792 -26.8186454772949 1.57619905471802
vertex -2.87762999534607 -27.4541454315186 0.891874253749847
endloop
endfacet
facet normal 0.219344481825829 0.67223995923996 -0.707093775272369
outer loop
vertex -2.84402322769165 -27.4654026031494 0.891596257686615
vertex -2.87762999534607 -27.4541454315186 0.891874253749847
vertex -2.61925339698792 -26.8186454772949 1.57619905471802
endloop
endfacet
facet normal 0.219344466924667 0.67223995923996 -0.707093715667725
outer loop
vertex -2.87762999534607 -27.4541454315186 0.891874253749847
vertex -2.84402322769165 -27.4654026031494 0.891596257686615
vertex -3.00952744483948 -27.8421440124512 0.482086300849915
endloop
endfacet
facet normal 0.219344437122345 0.672239899635315 -0.70709365606308
outer loop
vertex -2.97855830192566 -27.852518081665 0.481830149888992
vertex -3.00952744483948 -27.8421440124512 0.482086300849915
vertex -2.84402322769165 -27.4654026031494 0.891596257686615
endloop
endfacet
facet normal 0.219344466924667 0.67223995923996 -0.707093715667725
outer loop
vertex -3.05908370018005 -28.0842227935791 0.236566349864006
vertex -3.08847427368164 -28.0743770599365 0.236809432506561
vertex -2.97855830192566 -27.852518081665 0.481830149888992
endloop
endfacet
facet normal 0.219344466924667 0.67223995923996 -0.707093715667725
outer loop
vertex -3.00952744483948 -27.8421440124512 0.482086300849915
vertex -2.97855830192566 -27.852518081665 0.481830149888992
vertex -3.08847427368164 -28.0743770599365 0.236809432506561
endloop
endfacet
facet normal 0.219344466924667 0.672239899635315 -0.707093715667725
outer loop
vertex -3.05908370018005 -28.0842227935791 0.236566349864006
vertex -3.10728192329407 -28.2229099273682 0.0897647216916084
vertex -3.08847427368164 -28.0743770599365 0.236809432506561
endloop
endfacet
facet normal 0.219344437122345 0.672239899635315 -0.70709365606308
outer loop
vertex -3.1357274055481 -28.2133808135986 0.0900000035762787
vertex -3.08847427368164 -28.0743770599365 0.236809432506561
vertex -3.10728192329407 -28.2229099273682 0.0897647216916084
endloop
endfacet
facet normal -0.229050621390343 -0.668967723846436 0.707119584083557
outer loop
vertex 2.6959969997406 -11.5244703292847 17.7674942016602
vertex 2.55403184890747 -11.4760360717773 17.7673282623291
vertex 2.44098210334778 -12.2542581558228 16.9944763183594
endloop
endfacet
facet normal -0.229050606489182 -0.668967664241791 0.707119584083557
outer loop
vertex 2.3052225112915 -12.2079486846924 16.994312286377
vertex 2.44098210334778 -12.2542581558228 16.9944763183594
vertex 2.55403184890747 -11.4760360717773 17.7673282623291
endloop
endfacet
facet normal -0.22905059158802 -0.668967664241791 0.707119524478912
outer loop
vertex 2.44098210334778 -12.2542581558228 16.9944763183594
vertex 2.3052225112915 -12.2079486846924 16.994312286377
vertex 1.92116296291351 -13.7418479919434 15.4187669754028
endloop
endfacet
facet normal -0.229050576686859 -0.668967664241791 0.707119524478912
outer loop
vertex 1.79806113243103 -13.6998462677002 15.4186277389526
vertex 1.92116296291351 -13.7418479919434 15.4187669754028
vertex 2.3052225112915 -12.2079486846924 16.994312286377
endloop
endfacet
facet normal -0.22905059158802 -0.668967723846436 0.707119584083557
outer loop
vertex 1.79806113243103 -13.6998462677002 15.4186277389526
vertex 0.986019909381866 -16.0885963439941 12.8957233428955
vertex 1.92116296291351 -13.7418479919434 15.4187669754028
endloop
endfacet
facet normal -0.22905059158802 -0.668967664241791 0.707119584083557
outer loop
vertex 1.08885872364044 -16.1236915588379 12.8958339691162
vertex 1.92116296291351 -13.7418479919434 15.4187669754028
vertex 0.986019909381866 -16.0885963439941 12.8957233428955
endloop
endfacet
facet normal -0.229050576686859 -0.668967664241791 0.707119524478912
outer loop
vertex 1.08885872364044 -16.1236915588379 12.8958339691162
vertex 0.986019909381866 -16.0885963439941 12.8957233428955
vertex 0.243941470980644 -18.5416278839111 10.3346672058105
endloop
endfacet
facet normal -0.229050606489182 -0.668967664241791 0.707119584083557
outer loop
vertex 0.161670431494713 -18.5135536193848 10.3345785140991
vertex 0.243941470980644 -18.5416278839111 10.3346672058105
vertex 0.986019909381866 -16.0885963439941 12.8957233428955
endloop
endfacet
facet normal -0.229050606489182 -0.668967664241791 0.707119584083557
outer loop
vertex 0.161670431494713 -18.5135536193848 10.3345785140991
vertex -0.662679016590118 -20.9385089874268 7.77343416213989
vertex 0.243941470980644 -18.5416278839111 10.3346672058105
endloop
endfacet
facet normal -0.22905059158802 -0.668967664241791 0.707119584083557
outer loop
vertex -0.600975751876831 -20.959566116333 7.77350044250488
vertex 0.243941470980644 -18.5416278839111 10.3346672058105
vertex -0.662679016590118 -20.9385089874268 7.77343416213989
endloop
endfacet
facet normal -0.22905059158802 -0.668967664241791 0.707119584083557
outer loop
vertex -0.600975751876831 -20.959566116333 7.77350044250488
vertex -0.662679016590118 -20.9385089874268 7.77343416213989
vertex -1.44589293003082 -23.3775043487549 5.21233367919922
endloop
endfacet
facet normal -0.229050606489182 -0.668967664241791 0.707119584083557
outer loop
vertex -1.48702847957611 -23.3634662628174 5.21228933334351
vertex -1.44589293003082 -23.3775043487549 5.21233367919922
vertex -0.662679016590118 -20.9385089874268 7.77343416213989
endloop
endfacet
facet normal -0.229050606489182 -0.668967664241791 0.707119584083557
outer loop
vertex -1.48702847957611 -23.3634662628174 5.21228933334351
vertex -2.31137800216675 -25.788423538208 2.6511447429657
vertex -1.44589293003082 -23.3775043487549 5.21233367919922
endloop
endfacet
facet normal -0.229050606489182 -0.668967664241791 0.707119584083557
outer loop
vertex -2.29081010818481 -25.7954425811768 2.65116667747498
vertex -1.44589293003082 -23.3775043487549 5.21233367919922
vertex -2.31137800216675 -25.788423538208 2.6511447429657
endloop
endfacet
facet normal -0.229050606489182 -0.668967664241791 0.707119584083557
outer loop
vertex -2.31137800216675 -25.788423538208 2.6511447429657
vertex -3.1357274055481 -28.2133808135986 0.0900000035762787
vertex -2.29081010818481 -25.7954425811768 2.65116667747498
endloop
endfacet
facet normal 5.48764983250294e-05 -0.0042428937740624 -0.999990999698639
outer loop
vertex -0.210005030035973 -24.9993438720703 0.256058990955353
vertex -0.200821459293365 -23.9061164855957 0.251421004533768
vertex -0.0599998272955418 -24.9997024536133 0.256068736314774
endloop
endfacet
facet normal 5.48764946870506e-05 -0.00424289330840111 -0.999990999698639
outer loop
vertex -0.0573759973049164 -23.9064502716064 0.251430302858353
vertex -0.0599998272955418 -24.9997024536133 0.256068736314774
vertex -0.200821459293365 -23.9061164855957 0.251421004533768
endloop
endfacet
facet normal 5.48764910490718e-05 -0.00424289330840111 -0.999990940093994
outer loop
vertex -0.200821459293365 -23.9061164855957 0.251421004533768
vertex -0.182102039456367 -21.6777248382568 0.241967111825943
vertex -0.0573759973049164 -23.9064502716064 0.251430302858353
endloop
endfacet
facet normal 5.48764837731142e-05 -0.00424289330840111 -0.999990940093994
outer loop
vertex -0.0520277693867683 -21.6780414581299 0.241975590586662
vertex -0.0573759973049164 -23.9064502716064 0.251430302858353
vertex -0.182102039456367 -21.6777248382568 0.241967111825943
endloop
endfacet
facet normal 5.48764946870506e-05 -0.0042428937740624 -0.999990999698639
outer loop
vertex -0.0520277693867683 -21.6780414581299 0.241975590586662
vertex -0.182102039456367 -21.6777248382568 0.241967111825943
vertex -0.0434646122157574 -18.1100921630859 0.226837500929832
endloop
endfacet
facet normal 5.48764946870506e-05 -0.0042428937740624 -0.999990999698639
outer loop
vertex -0.152130126953125 -18.1098194122314 0.226830378174782
vertex -0.0434646122157574 -18.1100921630859 0.226837500929832
vertex -0.182102039456367 -21.6777248382568 0.241967111825943
endloop
endfacet
facet normal 5.48764910490718e-05 -0.00424289330840111 -0.999990999698639
outer loop
vertex -0.152130126953125 -18.1098194122314 0.226830378174782
vertex -0.1217041015625 -14.4878559112549 0.211464300751686
vertex -0.0434646122157574 -18.1100921630859 0.226837500929832
endloop
endfacet
facet normal 5.48764946870506e-05 -0.00424289330840111 -0.999990999698639
outer loop
vertex -0.0347716920077801 -14.4880743026733 0.211470007896423
vertex -0.0434646122157574 -18.1100921630859 0.226837500929832
vertex -0.1217041015625 -14.4878559112549 0.211464300751686
endloop
endfacet
facet normal 5.48764946870506e-05 -0.00424289330840111 -0.999990999698639
outer loop
vertex -0.0347716920077801 -14.4880743026733 0.211470007896423
vertex -0.1217041015625 -14.4878559112549 0.211464300751686
vertex -0.0260787680745125 -10.8660554885864 0.196102499961853
endloop
endfacet
facet normal 5.4876487411093e-05 -0.00424289330840111 -0.999990999698639
outer loop
vertex -0.091278076171875 -10.865891456604 0.19609822332859
vertex -0.0260787680745125 -10.8660554885864 0.196102499961853
vertex -0.1217041015625 -14.4878559112549 0.211464300751686
endloop
endfacet
facet normal 5.4876487411093e-05 -0.00424289330840111 -0.999990999698639
outer loop
vertex -0.091278076171875 -10.865891456604 0.19609822332859
vertex -0.06085205078125 -7.24392795562744 0.180732145905495
vertex -0.0260787680745125 -10.8660554885864 0.196102499961853
endloop
endfacet
facet normal 5.48764946870506e-05 -0.00424289330840111 -0.999990999698639
outer loop
vertex -0.01738584600389 -7.24403715133667 0.180735006928444
vertex -0.0260787680745125 -10.8660554885864 0.196102499961853
vertex -0.06085205078125 -7.24392795562744 0.180732145905495
endloop
endfacet
facet normal 5.48764946870506e-05 -0.00424289330840111 -0.999990999698639
outer loop
vertex -0.01738584600389 -7.24403715133667 0.180735006928444
vertex -0.06085205078125 -7.24392795562744 0.180732145905495
vertex -0.00869292300194502 -3.62201857566833 0.165367498993874
endloop
endfacet
facet normal 5.48764946870506e-05 -0.00424289330840111 -0.999990999698639
outer loop
vertex -0.030426025390625 -3.62196397781372 0.165366068482399
vertex -0.00869292300194502 -3.62201857566833 0.165367498993874
vertex -0.06085205078125 -7.24392795562744 0.180732145905495
endloop
endfacet
facet normal 5.48764946870506e-05 -0.00424289330840111 -0.999990999698639
outer loop
vertex -0.00869292300194502 -3.62201857566833 0.165367498993874
vertex -0.030426025390625 -3.62196397781372 0.165366068482399
vertex 0 0 0.150000005960464
endloop
endfacet
facet normal -1 0 0
outer loop
vertex -0.166069999337196 -26 0.150000005960464
vertex -0.166069999337196 -25 0.150000005960464
vertex -0.166069999337196 -26 0
endloop
endfacet
facet normal -1 0 0
outer loop
vertex -0.166069999337196 -25 0
vertex -0.166069999337196 -26 0
vertex -0.166069999337196 -25 0.150000005960464
endloop
endfacet
facet normal -0.707106828689575 0 -0.707106828689575
outer loop
vertex -0.0599999986588955 -26 -0.106069996953011
vertex -0.166069999337196 -26 0
vertex -0.0599999986588955 -25 -0.106069996953011
endloop
endfacet
facet normal -0.707106828689575 -0 -0.707106828689575
outer loop
vertex -0.166069999337196 -25 0
vertex -0.0599999986588955 -25 -0.106069996953011
vertex -0.166069999337196 -26 0
endloop
endfacet
facet normal -0.707106828689575 0 0.707106828689575
outer loop
vertex -0.0599999986588955 -26 0.256069988012314
vertex -0.0599999986588955 -25 0.256069988012314
vertex -0.166069999337196 -26 0.150000005960464
endloop
endfacet
facet normal -0.707106828689575 0 0.707106828689575
outer loop
vertex -0.166069999337196 -25 0.150000005960464
vertex -0.166069999337196 -26 0.150000005960464
vertex -0.0599999986588955 -25 0.256069988012314
endloop
endfacet
facet normal 0 0 -1
outer loop
vertex 0.0900000035762787 -26 -0.106069996953011
vertex -0.0599999986588955 -26 -0.106069996953011
vertex 0.0900000035762787 -25 -0.106069996953011
endloop
endfacet
facet normal 0 0 -1
outer loop
vertex -0.0599999986588955 -25 -0.106069996953011
vertex 0.0900000035762787 -25 -0.106069996953011
vertex -0.0599999986588955 -26 -0.106069996953011
endloop
endfacet
facet normal 0 -0 1
outer loop
vertex 0.0900000035762787 -26 0.256069988012314
vertex 0.0900000035762787 -25 0.256069988012314
vertex -0.0599999986588955 -26 0.256069988012314
endloop
endfacet
facet normal -0 0 1
outer loop
vertex -0.0599999986588955 -25 0.256069988012314
vertex -0.0599999986588955 -26 0.256069988012314
vertex 0.0900000035762787 -25 0.256069988012314
endloop
endfacet
facet normal 0.707106828689575 0 -0.707106828689575
outer loop
vertex 0.196070000529289 -26 0
vertex 0.0900000035762787 -26 -0.106069996953011
vertex 0.196070000529289 -25 0
endloop
endfacet
facet normal 0.707106828689575 0 -0.707106828689575
outer loop
vertex 0.0900000035762787 -25 -0.106069996953011
vertex 0.196070000529289 -25 0
vertex 0.0900000035762787 -26 -0.106069996953011
endloop
endfacet
facet normal 0.707106828689575 -0 0.707106828689575
outer loop
vertex 0.196070000529289 -26 0.150000005960464
vertex 0.196070000529289 -25 0.150000005960464
vertex 0.0900000035762787 -26 0.256069988012314
endloop
endfacet
facet normal 0.707106828689575 0 0.707106828689575
outer loop
vertex 0.0900000035762787 -25 0.256069988012314
vertex 0.0900000035762787 -26 0.256069988012314
vertex 0.196070000529289 -25 0.150000005960464
endloop
endfacet
facet normal 1 0 0
outer loop
vertex 0.196070000529289 -26 0
vertex 0.196070000529289 -25 0
vertex 0.196070000529289 -26 0.150000005960464
endloop
endfacet
facet normal 1 0 0
outer loop
vertex 0.196070000529289 -25 0.150000005960464
vertex 0.196070000529289 -26 0.150000005960464
vertex 0.196070000529289 -25 0
endloop
endfacet
facet normal -0 0.00424276199191809 0.999991059303284
outer loop
vertex -0.0599999986588955 -24.9997749328613 0.256069034337997
vertex 0.0900000035762787 -24.9997749328613 0.256069034337997
vertex -0.0577557198703289 -24.0646667480469 0.252101570367813
endloop
endfacet
facet normal 4.52207385374785e-16 0.00424276199191809 0.999990999698639
outer loop
vertex 0.0877557173371315 -24.0646667480469 0.252101570367813
vertex -0.0577557198703289 -24.0646667480469 0.252101570367813
vertex 0.0900000035762787 -24.9997749328613 0.256069034337997
endloop
endfacet
facet normal 4.52207385374785e-16 0.00424276199191809 0.999990999698639
outer loop
vertex 0.0877557173371315 -24.0646667480469 0.252101570367813
vertex 0.0843143984675407 -22.6307945251465 0.246017932891846
vertex -0.0577557198703289 -24.0646667480469 0.252101570367813
endloop
endfacet
facet normal -0 0.00424276199191809 0.999990999698639
outer loop
vertex -0.0543143972754478 -22.6307945251465 0.246017932891846
vertex -0.0577557198703289 -24.0646667480469 0.252101570367813
vertex 0.0843143984675407 -22.6307945251465 0.246017932891846
endloop
endfacet
facet normal -0 0.0042427615262568 0.999990999698639
outer loop
vertex -0.0543143972754478 -22.6307945251465 0.246017932891846
vertex 0.0843143984675407 -22.6307945251465 0.246017932891846
vertex -0.0490375533699989 -20.43212890625 0.236689433455467
endloop
endfacet
facet normal -9.90200838279386e-17 0.00424276199191809 0.999990999698639
outer loop
vertex 0.0790375545620918 -20.43212890625 0.236689433455467
vertex -0.0490375533699989 -20.43212890625 0.236689433455467
vertex 0.0843143984675407 -22.6307945251465 0.246017932891846
endloop
endfacet
facet normal -9.90200838279386e-17 0.00424276199191809 0.999990999698639
outer loop
vertex 0.0790375545620918 -20.43212890625 0.236689433455467
vertex 0.0711675137281418 -17.1529769897461 0.222776651382446
vertex -0.0490375533699989 -20.43212890625 0.236689433455467
endloop
endfacet
facet normal 1.34181811131894e-16 0.00424276199191809 0.999990999698639
outer loop
vertex -0.0411675162613392 -17.1529769897461 0.222776651382446
vertex -0.0490375533699989 -20.43212890625 0.236689433455467
vertex 0.0711675137281418 -17.1529769897461 0.222776651382446
endloop
endfacet
facet normal 1.34181811131894e-16 0.00424276199191809 0.999990999698639
outer loop
vertex -0.0411675162613392 -17.1529769897461 0.222776651382446
vertex 0.0711675137281418 -17.1529769897461 0.222776651382446
vertex -0.0325838513672352 -13.5764827728271 0.207602292299271
endloop
endfacet
facet normal 3.95967256413296e-16 0.00424276199191809 0.999990999698639
outer loop
vertex 0.0625838488340378 -13.5764827728271 0.207602292299271
vertex -0.0325838513672352 -13.5764827728271 0.207602292299271
vertex 0.0711675137281418 -17.1529769897461 0.222776651382446
endloop
endfacet
facet normal 3.95967256413296e-16 0.00424276199191809 0.999990999698639
outer loop
vertex 0.0625838488340378 -13.5764827728271 0.207602292299271
vertex 0.0540001876652241 -9.99998760223389 0.192427948117256
vertex -0.0325838513672352 -13.5764827728271 0.207602292299271
endloop
endfacet
facet normal 1.93246742032916e-16 0.00424276199191809 0.999990999698639
outer loop
vertex -0.0240001864731312 -9.99998760223389 0.192427948117256
vertex -0.0325838513672352 -13.5764827728271 0.207602292299271
vertex 0.0540001876652241 -9.99998760223389 0.192427948117256
endloop
endfacet
facet normal 1.93246742032916e-16 0.00424276199191809 0.999990999698639
outer loop
vertex -0.0240001864731312 -9.99998760223389 0.192427948117256
vertex 0.0540001876652241 -9.99998760223389 0.192427948117256
vertex -0.0154165225103498 -6.42349338531494 0.177253603935242
endloop
endfacet
facet normal -8.11253375589772e-16 0.00424276199191809 0.999990999698639
outer loop
vertex 0.0454165227711201 -6.42349338531494 0.177253603935242
vertex -0.0154165225103498 -6.42349338531494 0.177253603935242
vertex 0.0540001876652241 -9.99998760223389 0.192427948117256
endloop
endfacet
facet normal -8.11253428529331e-16 0.00424276199191809 0.999991059303284
outer loop
vertex 0.0454165227711201 -6.42349338531494 0.177253603935242
vertex 0.0389278531074524 -3.71990561485291 0.165782809257507
vertex -0.0154165225103498 -6.42349338531494 0.177253603935242
endloop
endfacet
facet normal -8.44984556890043e-16 0.0042427615262568 0.999990999698639
outer loop
vertex -0.00892785377800465 -3.71990561485291 0.165782809257507
vertex -0.0154165225103498 -6.42349338531494 0.177253603935242
vertex 0.0389278531074524 -3.71990561485291 0.165782809257507
endloop
endfacet
facet normal -8.44984556890043e-16 0.0042427615262568 0.999990940093994
outer loop
vertex -0.00892785377800465 -3.71990561485291 0.165782809257507
vertex 0.0389278531074524 -3.71990561485291 0.165782809257507
vertex -0.00504547683522105 -2.1022629737854 0.158919483423233
endloop
endfacet
facet normal -1.61960428690666e-15 0.00424276245757937 0.999991059303284
outer loop
vertex 0.0350454784929752 -2.1022629737854 0.158919483423233
vertex -0.00504547683522105 -2.1022629737854 0.158919483423233
vertex 0.0389278531074524 -3.71990561485291 0.165782809257507
endloop
endfacet
facet normal -1.61960407514842e-15 0.00424276199191809 0.999990999698639
outer loop
vertex 0.0350454784929752 -2.1022629737854 0.158919483423233
vertex 0.0327216945588589 -1.1340297460556 0.154811456799507
vertex -0.00504547683522105 -2.1022629737854 0.158919483423233
endloop
endfacet
facet normal -6.50189266575979e-16 0.0042427615262568 0.999990999698639
outer loop
vertex -0.00272169592790306 -1.1340297460556 0.154811456799507
vertex -0.00504547683522105 -2.1022629737854 0.158919483423233
vertex 0.0327216945588589 -1.1340297460556 0.154811456799507
endloop
endfacet
facet normal -6.50189319515538e-16 0.00424276199191809 0.999990999698639
outer loop
vertex -0.00272169592790306 -1.1340297460556 0.154811456799507
vertex 0.0327216945588589 -1.1340297460556 0.154811456799507
vertex -0.00133080687373877 -0.554497838020325 0.15235261619091
endloop
endfacet
facet normal -1.0805339904283e-15 0.0042427615262568 0.999990940093994
outer loop
vertex 0.0313308052718639 -0.554497838020325 0.15235261619091
vertex -0.00133080687373877 -0.554497838020325 0.15235261619091
vertex 0.0327216945588589 -1.1340297460556 0.154811456799507
endloop
endfacet
facet normal -1.08053409630742e-15 0.00424276199191809 0.999991059303284
outer loop
vertex 0.0313308052718639 -0.554497838020325 0.15235261619091
vertex 0.0304982960224152 -0.207621425390244 0.1508809030056
vertex -0.00133080687373877 -0.554497838020325 0.15235261619091
endloop
endfacet
facet normal 7.54863427675738e-16 0.00424276199191809 0.999990999698639
outer loop
vertex -0.000498295936267823 -0.207621425390244 0.1508809030056
vertex -0.00133080687373877 -0.554497838020325 0.15235261619091
vertex 0.0304982960224152 -0.207621425390244 0.1508809030056
endloop
endfacet
facet normal 7.54863480615297e-16 0.00424276199191809 0.999990999698639
outer loop
vertex -0.000498295936267823 -0.207621425390244 0.1508809030056
vertex 0.0304982960224152 -0.207621425390244 0.1508809030056
vertex 0 0 0.150000005960464
endloop
endfacet
facet normal 0 0.0042427615262568 0.999990940093994
outer loop
vertex 0.0299999993294477 0 0.150000005960464
vertex 0 0 0.150000005960464
vertex 0.0304982960224152 -0.207621425390244 0.1508809030056
endloop
endfacet
facet normal -0.999977886676788 -0.00664265314117074 -0
outer loop
vertex 0.0299999993294477 0 0.150000005960464
vertex 0.0299999993294477 0 0
vertex 0.0363944247364998 -0.962610065937042 0.150000005960464
endloop
endfacet
facet normal -0.999977886676788 -0.00664265314117074 -9.87579271307634e-17
outer loop
vertex 0.0363944247364998 -0.962610065937042 0
vertex 0.0363944247364998 -0.962610065937042 0.150000005960464
vertex 0.0299999993294477 0 0
endloop
endfacet
facet normal -0.999977886676788 -0.00664265360683203 -9.87579337482083e-17
outer loop
vertex 0.0363944247364998 -0.962610065937042 0.150000005960464
vertex 0.0363944247364998 -0.962610065937042 0
vertex 0.0467333681881428 -2.51902318000793 0.150000005960464
endloop
endfacet
facet normal -0.999977886676788 -0.00664265360683203 2.43693016742675e-17
outer loop
vertex 0.0467333681881428 -2.51902318000793 0
vertex 0.0467333681881428 -2.51902318000793 0.150000005960464
vertex 0.0363944247364998 -0.962610065937042 0
endloop
endfacet
facet normal -0.999977886676788 -0.00664265314117074 2.43693000199063e-17
outer loop
vertex 0.0467333681881428 -2.51902318000793 0.150000005960464
vertex 0.0467333681881428 -2.51902318000793 0
vertex 0.0634500682353973 -5.0355372428894 0.150000005960464
endloop
endfacet
facet normal -0.999977886676788 -0.00664265314117074 7.86648166967888e-17
outer loop
vertex 0.0634500682353973 -5.0355372428894 0
vertex 0.0634500682353973 -5.0355372428894 0.150000005960464
vertex 0.0467333681881428 -2.51902318000793 0
endloop
endfacet
facet normal -0.999977946281433 -0.00664265360683203 7.86648233142337e-17
outer loop
vertex 0.0634500682353973 -5.0355372428894 0.150000005960464
vertex 0.0634500682353973 -5.0355372428894 0
vertex 0.0878452360630035 -8.70795917510986 0.150000005960464
endloop
endfacet
facet normal -0.999977946281433 -0.00664265360683203 -5.54069000042965e-17
outer loop
vertex 0.0878452360630035 -8.70795917510986 0
vertex 0.0878452360630035 -8.70795917510986 0.150000005960464
vertex 0.0634500682353973 -5.0355372428894 0
endloop
endfacet
facet normal -0.999977886676788 -0.00664265314117074 -5.54069000042965e-17
outer loop
vertex 0.0878452360630035 -8.70795917510986 0.150000005960464
vertex 0.0878452360630035 -8.70795917510986 0
vertex 0.113033168017864 -12.4997243881226 0.150000005960464
endloop
endfacet
facet normal -0.999977886676788 -0.00664265314117074 -2.77034500021483e-17
outer loop
vertex 0.113033168017864 -12.4997243881226 0
vertex 0.113033168017864 -12.4997243881226 0.150000005960464
vertex 0.0878452360630035 -8.70795917510986 0
endloop
endfacet
facet normal -0.999977886676788 -0.00664265314117074 -2.77034500021483e-17
outer loop
vertex 0.113033168017864 -12.4997243881226 0.150000005960464
vertex 0.113033168017864 -12.4997243881226 0
vertex 0.138221099972725 -16.2914886474609 0.150000005960464
endloop
endfacet
facet normal -0.999977886676788 -0.00664265314117074 -1.85033076778281e-16
outer loop
vertex 0.138221099972725 -16.2914886474609 0
vertex 0.138221099972725 -16.2914886474609 0.150000005960464
vertex 0.113033168017864 -12.4997243881226 0
endloop
endfacet
facet normal -0.999977946281433 -0.00664265360683203 -1.85033103248061e-16
outer loop
vertex 0.138221099972725 -16.2914886474609 0.150000005960464
vertex 0.138221099972725 -16.2914886474609 0
vertex 0.162616267800331 -19.9639110565186 0.150000005960464
endloop
endfacet
facet normal -0.999977946281433 -0.00664265360683203 -2.77034500021483e-17
outer loop
vertex 0.162616267800331 -19.9639110565186 0
vertex 0.162616267800331 -19.9639110565186 0.150000005960464
vertex 0.138221099972725 -16.2914886474609 0
endloop
endfacet
facet normal -0.999977886676788 -0.00664265314117074 -2.77034500021483e-17
outer loop
vertex 0.162616267800331 -19.9639110565186 0.150000005960464
vertex 0.162616267800331 -19.9639110565186 0
vertex 0.179332971572876 -22.4804248809814 0.150000005960464
endloop
endfacet
facet normal -0.999977886676788 -0.00664265314117074 -2.77034500021483e-17
outer loop
vertex 0.179332971572876 -22.4804248809814 0
vertex 0.179332971572876 -22.4804248809814 0.150000005960464
vertex 0.162616267800331 -19.9639110565186 0
endloop
endfacet
facet normal -0.999977886676788 -0.00664265360683203 -2.77034500021483e-17
outer loop
vertex 0.179332971572876 -22.4804248809814 0.150000005960464
vertex 0.179332971572876 -22.4804248809814 0
vertex 0.189671903848648 -24.0368385314941 0.150000005960464
endloop
endfacet
facet normal -0.999977886676788 -0.00664265360683203 0
outer loop
vertex 0.189671903848648 -24.0368385314941 0
vertex 0.189671903848648 -24.0368385314941 0.150000005960464
vertex 0.179332971572876 -22.4804248809814 0
endloop
endfacet
facet normal -0.999977886676788 -0.00664265314117074 -0
outer loop
vertex 0.189671903848648 -24.0368385314941 0.150000005960464
vertex 0.189671903848648 -24.0368385314941 0
vertex 0.196066334843636 -24.9994487762451 0.150000005960464
endloop
endfacet
facet normal -0.999977886676788 -0.00664265314117074 0
outer loop
vertex 0.196066334843636 -24.9994487762451 0
vertex 0.196066334843636 -24.9994487762451 0.150000005960464
vertex 0.189671903848648 -24.0368385314941 0
endloop
endfacet
facet normal 0.70709902048111 0.00469711748883128 0.70709902048111
outer loop
vertex 0.196069851517677 -24.9998989105225 0.149999484419823
vertex 0.18880757689476 -23.9066486358643 0.149999499320984
vertex 0.0899992883205414 -24.9997024536133 0.256068736314774
endloop
endfacet
facet normal 0.707098960876465 0.00469711655750871 0.707098960876465
outer loop
vertex 0.0873754844069481 -23.9064502716064 0.251430302858353
vertex 0.0899992883205414 -24.9997024536133 0.256068736314774
vertex 0.18880757689476 -23.9066486358643 0.149999499320984
endloop
endfacet
facet normal 0.707098960876465 0.00469711702316999 0.707098960876465
outer loop
vertex 0.18880757689476 -23.9066486358643 0.149999499320984
vertex 0.174004450440407 -21.6782073974609 0.149999544024467
vertex 0.0873754844069481 -23.9064502716064 0.251430302858353
endloop
endfacet
facet normal 0.707098960876465 0.00469711702316999 0.707098960876465
outer loop
vertex 0.0820273011922836 -21.6780414581299 0.241975590586662
vertex 0.0873754844069481 -23.9064502716064 0.251430302858353
vertex 0.174004450440407 -21.6782073974609 0.149999544024467
endloop
endfacet
facet normal 0.707098960876465 0.00469711702316999 0.707098960876465
outer loop
vertex 0.0820273011922836 -21.6780414581299 0.241975590586662
vertex 0.174004450440407 -21.6782073974609 0.149999544024467
vertex 0.0734642222523689 -18.1100921630859 0.226837500929832
endloop
endfacet
facet normal 0.707098960876465 0.00469711748883128 0.707098960876465
outer loop
vertex 0.150302961468697 -18.110221862793 0.149999618530273
vertex 0.0734642222523689 -18.1100921630859 0.226837500929832
vertex 0.174004450440407 -21.6782073974609 0.149999544024467
endloop
endfacet
facet normal 0.707098960876465 0.00469711702316999 0.707098960876465
outer loop
vertex 0.150302961468697 -18.110221862793 0.149999618530273
vertex 0.126242369413376 -14.4881772994995 0.149999693036079
vertex 0.0734642222523689 -18.1100921630859 0.226837500929832
endloop
endfacet
facet normal 0.70709902048111 0.00469711702316999 0.70709902048111
outer loop
vertex 0.0647713765501976 -14.4880743026733 0.211470007896423
vertex 0.0734642222523689 -18.1100921630859 0.226837500929832
vertex 0.126242369413376 -14.4881772994995 0.149999693036079
endloop
endfacet
facet normal 0.70709902048111 0.00469711702316999 0.70709902048111
outer loop
vertex 0.0647713765501976 -14.4880743026733 0.211470007896423
vertex 0.126242369413376 -14.4881772994995 0.149999693036079
vertex 0.0560785345733166 -10.8660554885864 0.196102499961853
endloop
endfacet
facet normal 0.707098960876465 0.00469711655750871 0.707098960876465
outer loop
vertex 0.102181777358055 -10.8661327362061 0.149999767541885
vertex 0.0560785345733166 -10.8660554885864 0.196102499961853
vertex 0.126242369413376 -14.4881772994995 0.149999693036079
endloop
endfacet
facet normal 0.707098960876465 0.00469711655750871 0.707098960876465
outer loop
vertex 0.102181777358055 -10.8661327362061 0.149999767541885
vertex 0.0781211853027344 -7.24408864974976 0.149999842047691
vertex 0.0560785345733166 -10.8660554885864 0.196102499961853
endloop
endfacet
facet normal 0.70709902048111 0.00469711702316999 0.70709902048111
outer loop
vertex 0.0473856888711452 -7.24403715133667 0.180735006928444
vertex 0.0560785345733166 -10.8660554885864 0.196102499961853
vertex 0.0781211853027344 -7.24408864974976 0.149999842047691
endloop
endfacet
facet normal 0.70709902048111 0.00469711702316999 0.70709902048111
outer loop
vertex 0.0473856888711452 -7.24403715133667 0.180735006928444
vertex 0.0781211853027344 -7.24408864974976 0.149999842047691
vertex 0.0386928431689739 -3.62201857566833 0.165367498993874
endloop
endfacet
facet normal 0.70709902048111 0.00469711702316999 0.70709902048111
outer loop
vertex 0.0540605932474136 -3.62204432487488 0.149999931454659
vertex 0.0386928431689739 -3.62201857566833 0.165367498993874
vertex 0.0781211853027344 -7.24408864974976 0.149999842047691
endloop
endfacet
facet normal 0.70709902048111 0.00469711702316999 0.70709902048111
outer loop
vertex 0.0386928431689739 -3.62201857566833 0.165367498993874
vertex 0.0540605932474136 -3.62204432487488 0.149999931454659
vertex 0.0299999993294477 0 0.150000005960464
endloop
endfacet
facet normal 0.70709902048111 0.00469711702316999 -0.70709902048111
outer loop
vertex 0.220126435160637 -28.6214294433594 0
vertex 0.204759255051613 -28.6215305328369 -0.015367841348052
vertex 0.196066334843636 -24.9994487762451 0
endloop
endfacet
facet normal 0.70709902048111 0.00469711702316999 -0.70709902048111
outer loop
vertex 0.244186535477638 -32.2434120178223 0
vertex 0.21345217525959 -32.2436103820801 -0.030735682696104
vertex 0.220126435160637 -28.6214294433594 0
endloop
endfacet
facet normal 0.70709902048111 0.00469711702316999 -0.70709902048111
outer loop
vertex 0.204759255051613 -28.6215305328369 -0.015367841348052
vertex 0.220126435160637 -28.6214294433594 0
vertex 0.21345217525959 -32.2436103820801 -0.030735682696104
endloop
endfacet
facet normal 0.70709902048111 0.00469711702316999 -0.70709902048111
outer loop
vertex 0.244186535477638 -32.2434120178223 0
vertex 0.268246620893478 -35.8653945922852 0
vertex 0.21345217525959 -32.2436103820801 -0.030735682696104
endloop
endfacet
facet normal 0.707098960876465 0.00469711655750871 -0.707098960876465
outer loop
vertex 0.222145095467567 -35.8656921386719 -0.0461035259068012
vertex 0.21345217525959 -32.2436103820801 -0.030735682696104
vertex 0.268246620893478 -35.8653945922852 0
endloop
endfacet
facet normal 0.707098960876465 0.00469711655750871 -0.707098960876465
outer loop
vertex 0.222145095467567 -35.8656921386719 -0.0461035259068012
vertex 0.268246620893478 -35.8653945922852 0
vertex 0.230838015675545 -39.4877738952637 -0.0614713653922081
endloop
endfacet
facet normal 0.70709902048111 0.00469711702316999 -0.70709902048111
outer loop
vertex 0.29230672121048 -39.4873733520508 0
vertex 0.230838015675545 -39.4877738952637 -0.0614713653922081
vertex 0.268246620893478 -35.8653945922852 0
endloop
endfacet
facet normal 0.70709902048111 0.00469711702316999 -0.70709902048111
outer loop
vertex 0.29230672121048 -39.4873733520508 0
vertex 0.316366821527481 -43.1093559265137 0
vertex 0.230838015675545 -39.4877738952637 -0.0614713653922081
endloop
endfacet
facet normal 0.707098960876465 0.00469711702316999 -0.707098960876465
outer loop
vertex 0.239530935883522 -43.1098556518555 -0.0768392086029053
vertex 0.230838015675545 -39.4877738952637 -0.0614713653922081
vertex 0.316366821527481 -43.1093559265137 0
endloop
endfacet
facet normal 0.707098960876465 0.00469711702316999 -0.707098960876465
outer loop
vertex 0.340067774057388 -46.6772689819336 0
vertex 0.248094111680984 -46.6778755187988 -0.0919776856899261
vertex 0.316366821527481 -43.1093559265137 0
endloop
endfacet
facet normal 0.707098960876465 0.00469711748883128 -0.707098960876465
outer loop
vertex 0.239530935883522 -43.1098556518555 -0.0768392086029053
vertex 0.316366821527481 -43.1093559265137 0
vertex 0.248094111680984 -46.6778755187988 -0.0919776856899261
endloop
endfacet
facet normal 0.707098960876465 0.00469711702316999 -0.707098960876465
outer loop
vertex 0.340067774057388 -46.6772689819336 0
vertex 0.354870498180389 -48.9056549072266 0
vertex 0.248094111680984 -46.6778755187988 -0.0919776856899261
endloop
endfacet
facet normal 0.707098960876465 0.00469711702316999 -0.707098960876465
outer loop
vertex 0.253442376852036 -48.9063377380371 -0.101432658731937
vertex 0.248094111680984 -46.6778755187988 -0.0919776856899261
vertex 0.354870498180389 -48.9056549072266 0
endloop
endfacet
facet normal 0.707098960876465 0.00469711655750871 -0.707098960876465
outer loop
vertex 0.354870498180389 -48.9056549072266 0
vertex 0.362132668495178 -49.9988975524902 0
vertex 0.253442376852036 -48.9063377380371 -0.101432658731937
endloop
endfacet
facet normal 0.70709902048111 0.00469711748883128 -0.70709902048111
outer loop
vertex 0.256066173315048 -49.9996032714844 -0.106071166694164
vertex 0.253442376852036 -48.9063377380371 -0.101432658731937
vertex 0.362132668495178 -49.9988975524902 0
endloop
endfacet
facet normal 0.220149308443069 0.671971261501312 -0.70709902048111
outer loop
vertex 44.3081512451172 -43.9946899414063 -0.166066184639931
vertex 44.2737922668457 -44.0950469970703 -0.2721326649189
vertex 43.2700347900391 -43.6518249511719 -0.163442373275757
endloop
endfacet
facet normal 0.220149278640747 0.671971201896667 -0.70709902048111
outer loop
vertex 43.2371673583984 -43.7477874755859 -0.264870494604111
vertex 43.2700347900391 -43.6518249511719 -0.163442373275757
vertex 44.2737922668457 -44.0950469970703 -0.2721326649189
endloop
endfacet
facet normal 0.220149278640747 0.671971201896667 -0.707098960876465
outer loop
vertex 43.2700347900391 -43.6518249511719 -0.163442373275757
vertex 43.2371673583984 -43.7477874755859 -0.264870494604111
vertex 41.1539764404297 -42.9529418945313 -0.158094108104706
endloop
endfacet
facet normal 0.220149278640747 0.671971261501312 -0.707098960876465
outer loop
vertex 41.1241874694824 -43.0399627685547 -0.25006777048111
vertex 41.1539764404297 -42.9529418945313 -0.158094108104706
vertex 43.2371673583984 -43.7477874755859 -0.264870494604111
endloop
endfacet
facet normal 0.220149293541908 0.671971201896667 -0.70709902048111
outer loop
vertex 41.1241874694824 -43.0399627685547 -0.25006777048111
vertex 37.7410507202148 -41.9066505432129 -0.226366832852364
vertex 41.1539764404297 -42.9529418945313 -0.158094108104706
endloop
endfacet
facet normal 0.220149293541908 0.671971261501312 -0.707098960876465
outer loop
vertex 37.7659301757813 -41.8339500427246 -0.149530932307243
vertex 41.1539764404297 -42.9529418945313 -0.158094108104706
vertex 37.7410507202148 -41.9066505432129 -0.226366832852364
endloop
endfacet
facet normal 0.220149293541908 0.671971201896667 -0.707098960876465
outer loop
vertex 37.7659301757813 -41.8339500427246 -0.149530932307243
vertex 37.7410507202148 -41.9066505432129 -0.226366832852364
vertex 34.3265495300293 -40.6980018615723 -0.140838012099266
endloop
endfacet
facet normal 0.220149293541908 0.671971261501312 -0.70709902048111
outer loop
vertex 34.3066482543945 -40.7561645507813 -0.202306732535362
vertex 34.3265495300293 -40.6980018615723 -0.140838012099266
vertex 37.7410507202148 -41.9066505432129 -0.226366832852364
endloop
endfacet
facet normal 0.220149293541908 0.671971261501312 -0.70709902048111
outer loop
vertex 34.3066482543945 -40.7561645507813 -0.202306732535362
vertex 30.8722438812256 -39.6056747436523 -0.178246632218361
vertex 34.3265495300293 -40.6980018615723 -0.140838012099266
endloop
endfacet
facet normal 0.220149278640747 0.671971201896667 -0.707098960876465
outer loop
vertex 30.887170791626 -39.5620536804199 -0.132145091891289
vertex 34.3265495300293 -40.6980018615723 -0.140838012099266
vertex 30.8722438812256 -39.6056747436523 -0.178246632218361
endloop
endfacet
facet normal 0.220149278640747 0.671971201896667 -0.707098960876465
outer loop
vertex 30.887170791626 -39.5620536804199 -0.132145091891289
vertex 30.8722438812256 -39.6056747436523 -0.178246632218361
vertex 27.447790145874 -38.4261054992676 -0.123452171683311
endloop
endfacet
facet normal 0.220149293541908 0.671971261501312 -0.70709902048111
outer loop
vertex 27.4378395080566 -38.4551887512207 -0.15418653190136
vertex 27.447790145874 -38.4261054992676 -0.123452171683311
vertex 30.8722438812256 -39.6056747436523 -0.178246632218361
endloop
endfacet
facet normal 0.220149293541908 0.671971261501312 -0.70709902048111
outer loop
vertex 27.4378395080566 -38.4551887512207 -0.15418653190136
vertex 24.0034351348877 -37.3046989440918 -0.130126431584358
vertex 27.447790145874 -38.4261054992676 -0.123452171683311
endloop
endfacet
facet normal 0.220149293541908 0.671971261501312 -0.70709902048111
outer loop
vertex 24.0084114074707 -37.2901611328125 -0.114759258925915
vertex 27.447790145874 -38.4261054992676 -0.123452171683311
vertex 24.0034351348877 -37.3046989440918 -0.130126431584358
endloop
endfacet
facet normal 0.220149293541908 0.671971261501312 -0.70709902048111
outer loop
vertex 24.0034351348877 -37.3046989440918 -0.130126431584358
vertex 20.5690307617188 -36.1542129516602 -0.106066338717937
vertex 24.0084114074707 -37.2901611328125 -0.114759258925915
endloop
endfacet
endsolid COMSOL mesh mesh1
