solid COMSOL mesh mesh1
facet normal -0.0151942260563374 0.999884605407715 0
outer loop
vertex 0 0 0.150000005960464
vertex 0 0 0
vertex -0.948382318019867 -0.0144115993753076 0.150758787989616
endloop
endfacet
facet normal -0.0151942269876599 0.999884605407715 2.21345971488391e-17
outer loop
vertex -0.948382318019867 -0.0144115993753076 -0.000758793437853456
vertex -0.948382318019867 -0.0144115993753076 0.150758787989616
vertex 0 0 0
endloop
endfacet
facet normal -0.0151942260563374 0.99988454580307 2.21345954944779e-17
outer loop
vertex -0.948382318019867 -0.0144115993753076 0.150758787989616
vertex -0.948382318019867 -0.0144115993753076 -0.000758793437853456
vertex -2.43949556350708 -0.0370705276727676 0.151951819658279
endloop
endfacet
facet normal -0.0151942260563374 0.99988454580307 1.30291097637579e-16
outer loop
vertex -2.43949556350708 -0.0370705276727676 -0.00195182173047215
vertex -2.43949556350708 -0.0370705276727676 0.151951819658279
vertex -0.948382318019867 -0.0144115993753076 -0.000758793437853456
endloop
endfacet
facet normal -0.0151942260563374 0.99988454580307 7.8349336628606e-17
outer loop
vertex -4.78392839431763 -0.0726964846253395 0.153827577829361
vertex -2.43949556350708 -0.0370705276727676 0.151951819658279
vertex -4.78392839431763 -0.0726964846253395 -0.00382758467458189
endloop
endfacet
facet normal -0.0151942260563374 0.99988454580307 1.30291097637579e-16
outer loop
vertex -2.43949556350708 -0.0370705276727676 -0.00195182173047215
vertex -4.78392839431763 -0.0726964846253395 -0.00382758467458189
vertex -2.43949556350708 -0.0370705276727676 0.151951819658279
endloop
endfacet
facet normal -0.0151942260563374 0.99988454580307 7.83493432460509e-17
outer loop
vertex -4.78392839431763 -0.0726964846253395 0.153827577829361
vertex -4.78392839431763 -0.0726964846253395 -0.00382758467458189
vertex -8.26150035858154 -0.125541597604752 0.15660996735096
endloop
endfacet
facet normal -0.0151942260563374 0.999884605407715 3.40061070191263e-16
outer loop
vertex -8.26150035858154 -0.125541597604752 -0.00660996325314045
vertex -8.26150035858154 -0.125541597604752 0.15660996735096
vertex -4.78392839431763 -0.0726964846253395 -0.00382758467458189
endloop
endfacet
facet normal -0.0151942260563374 0.99988454580307 3.40061043721483e-16
outer loop
vertex -8.26150035858154 -0.125541597604752 0.15660996735096
vertex -8.26150035858154 -0.125541597604752 -0.00660996325314045
vertex -11.9454164505005 -0.181522309780121 0.159557431936264
endloop
endfacet
facet normal -0.0151942260563374 0.99988454580307 1.55091997340058e-16
outer loop
vertex -11.9454164505005 -0.181522309780121 -0.00955743622034788
vertex -11.9454164505005 -0.181522309780121 0.159557431936264
vertex -8.26150035858154 -0.125541597604752 -0.00660996325314045
endloop
endfacet
facet normal -0.0151942260563374 0.99988454580307 -2.61243721389519e-17
outer loop
vertex -15.6293315887451 -0.23750302195549 0.162504911422729
vertex -11.9454164505005 -0.181522309780121 0.159557431936264
vertex -15.6293315887451 -0.23750302195549 -0.0125049091875553
endloop
endfacet
facet normal -0.0151942260563374 0.99988454580307 1.55091997340058e-16
outer loop
vertex -11.9454164505005 -0.181522309780121 -0.00955743622034788
vertex -15.6293315887451 -0.23750302195549 -0.0125049091875553
vertex -11.9454164505005 -0.181522309780121 0.159557431936264
endloop
endfacet
facet normal -0.0151942269876599 0.99988454580307 -2.61243737933131e-17
outer loop
vertex -15.6293315887451 -0.23750302195549 0.162504911422729
vertex -15.6293315887451 -0.23750302195549 -0.0125049091875553
vertex -19.2783393859863 -0.292953252792358 0.165424451231956
endloop
endfacet
facet normal -0.0151942260563374 0.999884605407715 -3.15339222485564e-16
outer loop
vertex -19.2783393859863 -0.292953252792358 -0.01542445179075
vertex -19.2783393859863 -0.292953252792358 0.165424451231956
vertex -15.6293315887451 -0.23750302195549 -0.0125049091875553
endloop
endfacet
facet normal -0.0151942260563374 0.99988454580307 -3.15339196015784e-16
outer loop
vertex -19.2783393859863 -0.292953252792358 0.165424451231956
vertex -19.2783393859863 -0.292953252792358 -0.01542445179075
vertex -22.0209102630615 -0.334629327058792 0.16761876642704
endloop
endfacet
facet normal -0.0151942260563374 0.99988454580307 -1.64546258151233e-17
outer loop
vertex -22.0209102630615 -0.334629327058792 -0.0176187623292208
vertex -22.0209102630615 -0.334629327058792 0.16761876642704
vertex -19.2783393859863 -0.292953252792358 -0.01542445179075
endloop
endfacet
facet normal -0.0151942269876599 0.99988454580307 2.95058633220115e-16
outer loop
vertex -23.8186740875244 -0.361948102712631 0.16905714571476
vertex -22.0209102630615 -0.334629327058792 0.16761876642704
vertex -23.8186740875244 -0.361948102712631 -0.0190571397542953
endloop
endfacet
facet normal -0.0151942269876599 0.99988454580307 -1.64546274694845e-17
outer loop
vertex -22.0209102630615 -0.334629327058792 -0.0176187623292208
vertex -23.8186740875244 -0.361948102712631 -0.0190571397542953
vertex -22.0209102630615 -0.334629327058792 0.16761876642704
endloop
endfacet
facet normal -0.0151942260563374 0.99988454580307 2.95058633220115e-16
outer loop
vertex -23.8186740875244 -0.361948102712631 0.16905714571476
vertex -23.8186740875244 -0.361948102712631 -0.0190571397542953
vertex -24.9971141815186 -0.379855662584305 0.170000001788139
endloop
endfacet
facet normal -0.0151942260563374 0.99988454580307 0
outer loop
vertex -24.9971141815186 -0.379855662584305 -0.0199999995529652
vertex -24.9971141815186 -0.379855662584305 0.170000001788139
vertex -23.8186740875244 -0.361948102712631 -0.0190571397542953
endloop
endfacet
facet normal 0.000706293154507875 0.00617162091657519 0.999980747699738
outer loop
vertex -22.4801235198975 -2.86679911613464 0.183570995926857
vertex -22.4612255096436 -2.84766817092896 0.183439582586288
vertex -24.9971141815186 -0.379855662584305 0.170000001788139
endloop
endfacet
facet normal 0.000706293154507875 0.00617162091657519 0.999980747699738
outer loop
vertex -19.963134765625 -5.3537425994873 0.197142004966736
vertex -19.9253368377686 -5.31548023223877 0.196879163384438
vertex -22.4801235198975 -2.86679911613464 0.183570995926857
endloop
endfacet
facet normal 0.000706293154507875 0.00617162091657519 0.999980747699738
outer loop
vertex -22.4612255096436 -2.84766817092896 0.183439582586288
vertex -22.4801235198975 -2.86679911613464 0.183570995926857
vertex -19.9253368377686 -5.31548023223877 0.196879163384438
endloop
endfacet
facet normal 0.000706293154507875 0.00617162091657519 0.999980747699738
outer loop
vertex -19.963134765625 -5.3537425994873 0.197142004966736
vertex -17.4461441040039 -7.84068584442139 0.210712999105453
vertex -19.9253368377686 -5.31548023223877 0.196879163384438
endloop
endfacet
facet normal 0.000706293096300215 0.00617162045091391 0.999980688095093
outer loop
vertex -17.3894481658936 -7.78329277038574 0.210318744182587
vertex -19.9253368377686 -5.31548023223877 0.196879163384438
vertex -17.4461441040039 -7.84068584442139 0.210712999105453
endloop
endfacet
facet normal 0.000706293154507875 0.00617162091657519 0.999980747699738
outer loop
vertex -14.9291553497314 -10.3276290893555 0.224284008145332
vertex -14.8535604476929 -10.2511053085327 0.223758324980736
vertex -17.4461441040039 -7.84068584442139 0.210712999105453
endloop
endfacet
facet normal 0.000706293096300215 0.00617162045091391 0.999980688095093
outer loop
vertex -17.3894481658936 -7.78329277038574 0.210318744182587
vertex -17.4461441040039 -7.84068584442139 0.210712999105453
vertex -14.8535604476929 -10.2511053085327 0.223758324980736
endloop
endfacet
facet normal 0.000706293154507875 0.00617162091657519 0.999980747699738
outer loop
vertex -14.9291553497314 -10.3276290893555 0.224284008145332
vertex -12.4121656417847 -12.8145723342896 0.23785500228405
vertex -14.8535604476929 -10.2511053085327 0.223758324980736
endloop
endfacet
facet normal 0.000706293096300215 0.00617162045091391 0.999980688095093
outer loop
vertex -12.3176727294922 -12.7189178466797 0.237197905778885
vertex -14.8535604476929 -10.2511053085327 0.223758324980736
vertex -12.4121656417847 -12.8145723342896 0.23785500228405
endloop
endfacet
facet normal 0.000706293096300215 0.00617162091657519 0.999980747699738
outer loop
vertex -9.90067291259766 -15.2960844039917 0.251396358013153
vertex -9.78731822967529 -15.1813440322876 0.250608146190643
vertex -12.4121656417847 -12.8145723342896 0.23785500228405
endloop
endfacet
facet normal 0.000706293096300215 0.00617162091657519 0.999980747699738
outer loop
vertex -12.3176727294922 -12.7189178466797 0.237197905778885
vertex -12.4121656417847 -12.8145723342896 0.23785500228405
vertex -9.78731822967529 -15.1813440322876 0.250608146190643
endloop
endfacet
facet normal 0.000706293096300215 0.00617162045091391 0.999980688095093
outer loop
vertex -9.90067291259766 -15.2960844039917 0.251396358013153
vertex -8.14605140686035 -17.0297603607178 0.260856866836548
vertex -9.78731822967529 -15.1813440322876 0.250608146190643
endloop
endfacet
facet normal 0.000706293096300215 0.00617162045091391 0.999980688095093
outer loop
vertex -8.01949977874756 -16.901704788208 0.259977161884308
vertex -9.78731822967529 -15.1813440322876 0.250608146190643
vertex -8.14605140686035 -17.0297603607178 0.260856866836548
endloop
endfacet
facet normal 0.000706293096300215 0.00617162045091391 0.999980688095093
outer loop
vertex -8.14605140686035 -17.0297603607178 0.260856866836548
vertex -7.21374940872192 -17.9509334564209 0.265883594751358
vertex -8.01949977874756 -16.901704788208 0.259977161884308
endloop
endfacet
facet normal 0.000706293096300215 0.00617162045091391 0.999980747699738
outer loop
vertex -7.08020734786987 -17.8157825469971 0.264955163002014
vertex -8.01949977874756 -16.901704788208 0.259977161884308
vertex -7.21374940872192 -17.9509334564209 0.265883594751358
endloop
endfacet
facet normal -0.70712012052536 0.00549719016999006 0.707072079181671
outer loop
vertex -16.750545501709 -0.0745099782943726 -16.7511043548584
vertex -17.6772880554199 -0.0786323249340057 -17.6778774261475
vertex -16.7508544921875 -0.254545658826828 -16.7500133514404
endloop
endfacet
facet normal -0.70712012052536 0.00549719016999006 0.707072079181671
outer loop
vertex -17.6776027679443 -0.268628507852554 -17.6767158508301
vertex -16.7508544921875 -0.254545658826828 -16.7500133514404
vertex -17.6772880554199 -0.0786323249340057 -17.6778774261475
endloop
endfacet
facet normal -0.70712012052536 0.00549719016999006 0.707072079181671
outer loop
vertex -16.7508544921875 -0.254545658826828 -16.7500133514404
vertex -15.006646156311 -0.228040710091591 -15.0058927536011
vertex -16.750545501709 -0.0745099782943726 -16.7511043548584
endloop
endfacet
facet normal -0.70712012052536 0.00549719016999006 0.707072079181671
outer loop
vertex -15.0063886642456 -0.0667515993118286 -15.0068893432617
vertex -16.750545501709 -0.0745099782943726 -16.7511043548584
vertex -15.006646156311 -0.228040710091591 -15.0058927536011
endloop
endfacet
facet normal -0.70712012052536 0.00549718970432878 0.707072079181671
outer loop
vertex -15.0063886642456 -0.0667515993118286 -15.0068893432617
vertex -15.006646156311 -0.228040710091591 -15.0058927536011
vertex -12.509877204895 -0.0556465908885002 -12.5102939605713
endloop
endfacet
facet normal -0.70712012052536 0.00549719016999006 0.707072079181671
outer loop
vertex -12.5100889205933 -0.190103068947792 -12.5094604492188
vertex -12.509877204895 -0.0556465908885002 -12.5102939605713
vertex -15.006646156311 -0.228040710091591 -15.0058927536011
endloop
endfacet
facet normal -0.70712012052536 0.00549719016999006 0.707072079181671
outer loop
vertex -12.5100889205933 -0.190103068947792 -12.5094604492188
vertex -10.0080709457397 -0.152082458138466 -10.007568359375
vertex -12.509877204895 -0.0556465908885002 -12.5102939605713
endloop
endfacet
facet normal -0.70712012052536 0.00549719016999006 0.707072079181671
outer loop
vertex -10.0079021453857 -0.0445172712206841 -10.0082359313965
vertex -12.509877204895 -0.0556465908885002 -12.5102939605713
vertex -10.0080709457397 -0.152082458138466 -10.007568359375
endloop
endfacet
facet normal -0.70712012052536 0.00549719016999006 0.707072079181671
outer loop
vertex -10.0079021453857 -0.0445172712206841 -10.0082359313965
vertex -10.0080709457397 -0.152082458138466 -10.007568359375
vertex -7.50592613220215 -0.0333879552781582 -7.50617647171021
endloop
endfacet
facet normal -0.70712012052536 0.00549719016999006 0.707072079181671
outer loop
vertex -7.50605344772339 -0.114061839878559 -7.50567674636841
vertex -7.50592613220215 -0.0333879552781582 -7.50617647171021
vertex -10.0080709457397 -0.152082458138466 -10.007568359375
endloop
endfacet
facet normal -0.70712012052536 0.00549719016999006 0.707072079181671
outer loop
vertex -7.50605344772339 -0.114061839878559 -7.50567674636841
vertex -5.00403547286987 -0.0760412290692329 -5.0037841796875
vertex -7.50592613220215 -0.0333879552781582 -7.50617647171021
endloop
endfacet
facet normal -0.70712012052536 0.00549719016999006 0.707072079181671
outer loop
vertex -5.00395107269287 -0.022258635610342 -5.00411796569824
vertex -7.50592613220215 -0.0333879552781582 -7.50617647171021
vertex -5.00403547286987 -0.0760412290692329 -5.0037841796875
endloop
endfacet
facet normal -0.70712012052536 0.00549719016999006 0.707072079181671
outer loop
vertex -5.00395107269287 -0.022258635610342 -5.00411796569824
vertex -5.00403547286987 -0.0760412290692329 -5.0037841796875
vertex -2.50197553634644 -0.011129317805171 -2.50205898284912
endloop
endfacet
facet normal -0.70712012052536 0.00549719016999006 0.707072079181671
outer loop
vertex -2.50201773643494 -0.0380206145346165 -2.50189208984375
vertex -2.50197553634644 -0.011129317805171 -2.50205898284912
vertex -5.00403547286987 -0.0760412290692329 -5.0037841796875
endloop
endfacet
facet normal -0.70712012052536 0.00549719016999006 0.707072079181671
outer loop
vertex -2.50197553634644 -0.011129317805171 -2.50205898284912
vertex -2.50201773643494 -0.0380206145346165 -2.50189208984375
vertex 0 0 0
endloop
endfacet
facet normal 0.707082092761993 0.00747674610465765 -0.707091808319092
outer loop
vertex 0 0 0
vertex 0.000293207238428295 -0.0299985576421022 -2.399972800049e-05
vertex -0.141377598047256 -0.000628877605777234 -0.141382321715355
endloop
endfacet
facet normal 0.707082152366638 0.00747674657031894 -0.707091867923737
outer loop
vertex -0.141071885824203 -0.0319069996476173 -0.141407340764999
vertex -0.141377598047256 -0.000628877605777234 -0.141382321715355
vertex 0.000293207238428295 -0.0299985576421022 -2.399972800049e-05
endloop
endfacet
facet normal 0.707082152366638 0.00747674610465765 -0.707091808319092
outer loop
vertex -0.392188102006912 -0.00174453586805612 -0.39220118522644
vertex -0.141377598047256 -0.000628877605777234 -0.141382321715355
vertex -0.39186018705368 -0.0352926626801491 -0.392228007316589
endloop
endfacet
facet normal 0.707082211971283 0.00747674657031894 -0.707091867923737
outer loop
vertex -0.141071885824203 -0.0319069996476173 -0.141407340764999
vertex -0.39186018705368 -0.0352926626801491 -0.392228007316589
vertex -0.141377598047256 -0.000628877605777234 -0.141382321715355
endloop
endfacet
facet normal 0.707082211971283 0.00747674703598022 -0.707091867923737
outer loop
vertex -0.837137639522552 -0.00372376595623791 -0.837165594100952
vertex -0.392188102006912 -0.00174453586805612 -0.39220118522644
vertex -0.836770415306091 -0.0412989892065525 -0.837195634841919
endloop
endfacet
facet normal 0.707082211971283 0.00747674657031894 -0.707091867923737
outer loop
vertex -0.39186018705368 -0.0352926626801491 -0.392228007316589
vertex -0.836770415306091 -0.0412989892065525 -0.837195634841919
vertex -0.392188102006912 -0.00174453586805612 -0.39220118522644
endloop
endfacet
facet normal 0.707082211971283 0.00747674657031894 -0.707091808319092
outer loop
vertex -0.837137639522552 -0.00372376595623791 -0.837165594100952
vertex -0.836770415306091 -0.0412989892065525 -0.837195634841919
vertex -1.6264990568161 -0.00723501294851303 -1.62655329704285
endloop
endfacet
facet normal 0.707082211971283 0.00747674703598022 -0.707091867923737
outer loop
vertex -1.62606191635132 -0.0519544929265976 -1.62658905982971
vertex -1.6264990568161 -0.00723501294851303 -1.62655329704285
vertex -0.836770415306091 -0.0412989892065525 -0.837195634841919
endloop
endfacet
facet normal 0.707082152366638 0.00747674703598022 -0.707091867923737
outer loop
vertex -3.02686309814453 -0.0134641295298934 -3.02696418762207
vertex -1.6264990568161 -0.00723501294851303 -1.62655329704285
vertex -3.02630209922791 -0.070857860147953 -3.02700996398926
endloop
endfacet
facet normal 0.707082152366638 0.00747674610465765 -0.707091808319092
outer loop
vertex -1.62606191635132 -0.0519544929265976 -1.62658905982971
vertex -3.02630209922791 -0.070857860147953 -3.02700996398926
vertex -1.6264990568161 -0.00723501294851303 -1.62655329704285
endloop
endfacet
facet normal 0.707082211971283 0.00747674657031894 -0.707091808319092
outer loop
vertex -3.02686309814453 -0.0134641295298934 -3.02696418762207
vertex -3.02630209922791 -0.070857860147953 -3.02700996398926
vertex -5.41306591033936 -0.0240784659981728 -5.41324615478516
endloop
endfacet
facet normal 0.707082152366638 0.00747674703598022 -0.707091867923737
outer loop
vertex -5.41229391098022 -0.103068955242634 -5.4133095741272
vertex -5.41306591033936 -0.0240784659981728 -5.41324615478516
vertex -3.02630209922791 -0.070857860147953 -3.02700996398926
endloop
endfacet
facet normal 0.707082152366638 0.00747674657031894 -0.707091808319092
outer loop
vertex -5.41306591033936 -0.0240784659981728 -5.41324615478516
vertex -5.41229391098022 -0.103068955242634 -5.4133095741272
vertex -8.08979034423828 -0.0359851084649563 -8.09006023406982
endloop
endfacet
facet normal 0.707082211971283 0.00747674657031894 -0.707091808319092
outer loop
vertex -8.08878231048584 -0.139201775193214 -8.09014320373535
vertex -8.08979034423828 -0.0359851084649563 -8.09006023406982
vertex -5.41229391098022 -0.103068955242634 -5.4133095741272
endloop
endfacet
facet normal 0.707082211971283 0.00747674657031894 -0.707091808319092
outer loop
vertex -8.08979034423828 -0.0359851084649563 -8.09006023406982
vertex -8.08878231048584 -0.139201775193214 -8.09014320373535
vertex -10.7665157318115 -0.0478917472064495 -10.7668752670288
endloop
endfacet
facet normal 0.707082211971283 0.00747674657031894 -0.707091867923737
outer loop
vertex -10.7652702331543 -0.175334602594376 -10.7669773101807
vertex -10.7665157318115 -0.0478917472064495 -10.7668752670288
vertex -8.08878231048584 -0.139201775193214 -8.09014320373535
endloop
endfacet
facet normal 0.707082152366638 0.00747674657031894 -0.707091808319092
outer loop
vertex -10.7652702331543 -0.175334602594376 -10.7669773101807
vertex -13.4362649917603 -0.211393266916275 -13.4383163452148
vertex -10.7665157318115 -0.0478917472064495 -10.7668752670288
endloop
endfacet
facet normal 0.707082152366638 0.00747674657031894 -0.707091867923737
outer loop
vertex -13.4377470016479 -0.0597739517688751 -13.4381952285767
vertex -10.7665157318115 -0.0478917472064495 -10.7668752670288
vertex -13.4362649917603 -0.211393266916275 -13.4383163452148
endloop
endfacet
facet normal 0.707082211971283 0.00747674657031894 -0.707091808319092
outer loop
vertex -15.5039863586426 -0.239307686686516 -15.5063047409058
vertex -15.5056505203247 -0.0689724236726761 -15.5061683654785
vertex -13.4362649917603 -0.211393266916275 -13.4383163452148
endloop
endfacet
facet normal 0.707082152366638 0.00747674703598022 -0.707091867923737
outer loop
vertex -13.4377470016479 -0.0597739517688751 -13.4381952285767
vertex -13.4362649917603 -0.211393266916275 -13.4383163452148
vertex -15.5056505203247 -0.0689724236726761 -15.5061683654785
endloop
endfacet
facet normal 0.707082152366638 0.00747674657031894 -0.707091808319092
outer loop
vertex -15.5039863586426 -0.239307686686516 -15.5063047409058
vertex -16.8278770446777 -0.257180333137512 -16.8303661346436
vertex -15.5056505203247 -0.0689724236726761 -15.5061683654785
endloop
endfacet
facet normal 0.707082152366638 0.00747674657031894 -0.707091867923737
outer loop
vertex -16.8296604156494 -0.0748618990182877 -16.8302211761475
vertex -15.5056505203247 -0.0689724236726761 -15.5061683654785
vertex -16.8278770446777 -0.257180333137512 -16.8303661346436
endloop
endfacet
facet normal 0.707082211971283 0.00747674703598022 -0.707091867923737
outer loop
vertex -16.8278770446777 -0.257180333137512 -16.8303661346436
vertex -17.6755199432373 -0.26862359046936 -17.6781196594238
vertex -16.8296604156494 -0.0748618990182877 -16.8302211761475
endloop
endfacet
facet normal 0.707082211971283 0.00747674703598022 -0.707091867923737
outer loop
vertex -17.6773777008057 -0.078632727265358 -17.6779670715332
vertex -16.8296604156494 -0.0748618990182877 -16.8302211761475
vertex -17.6755199432373 -0.26862359046936 -17.6781196594238
endloop
endfacet
facet normal -0.321061342954636 -0.947058439254761 1.83224569956335e-13
outer loop
vertex -2.96955871582031 -28.4085330963135 0.0906398147344589
vertex -3.1589150428772 -28.3443393707275 0.0900000035762787
vertex -2.96955871582031 -28.4085330963135 0.0593601875007153
endloop
endfacet
facet normal -0.321061372756958 -0.947058439254761 0
outer loop
vertex -3.1589150428772 -28.3443393707275 0.0599999986588955
vertex -2.96955871582031 -28.4085330963135 0.0593601875007153
vertex -3.1589150428772 -28.3443393707275 0.0900000035762787
endloop
endfacet
facet normal -0.321061342954636 -0.947058379650116 1.83224556403808e-13
outer loop
vertex -2.96955871582031 -28.4085330963135 0.0906398147344589
vertex -2.96955871582031 -28.4085330963135 0.0593601875007153
vertex -2.63363194465637 -28.5224151611328 0.0917748734354973
endloop
endfacet
facet normal -0.321061372756958 -0.947058439254761 2.09075093934689e-13
outer loop
vertex -2.63363194465637 -28.5224151611328 0.0582251287996769
vertex -2.63363194465637 -28.5224151611328 0.0917748734354973
vertex -2.96955871582031 -28.4085330963135 0.0593601875007153
endloop
endfacet
facet normal -0.321061342954636 -0.947058439254761 2.09075080382162e-13
outer loop
vertex -2.63363194465637 -28.5224151611328 0.0917748734354973
vertex -2.63363194465637 -28.5224151611328 0.0582251287996769
vertex -2.037682056427 -28.7244472503662 0.0937885120511055
endloop
endfacet
facet normal -0.321061342954636 -0.947058439254761 3.27803187155293e-13
outer loop
vertex -2.037682056427 -28.7244472503662 0.0562114864587784
vertex -2.037682056427 -28.7244472503662 0.0937885120511055
vertex -2.63363194465637 -28.5224151611328 0.0582251287996769
endloop
endfacet
facet normal -0.321061372756958 -0.947058439254761 -4.6228371472631e-14
outer loop
vertex -0.980439186096191 -29.0828609466553 0.0973608121275902
vertex -2.037682056427 -28.7244472503662 0.0937885120511055
vertex -0.980439186096191 -29.0828609466553 0.0526391826570034
endloop
endfacet
facet normal -0.321061372756958 -0.947058439254761 3.27803214260347e-13
outer loop
vertex -2.037682056427 -28.7244472503662 0.0562114864587784
vertex -0.980439186096191 -29.0828609466553 0.0526391826570034
vertex -2.037682056427 -28.7244472503662 0.0937885120511055
endloop
endfacet
facet normal -0.321061342954636 -0.947058439254761 -4.6228371472631e-14
outer loop
vertex -0.980439186096191 -29.0828609466553 0.0973608121275902
vertex -0.980439186096191 -29.0828609466553 0.0526391826570034
vertex 0.895159423351288 -29.7187061309814 0.103698246181011
endloop
endfacet
facet normal -0.321061342954636 -0.947058379650116 -1.12029397531747e-13
outer loop
vertex 0.895159423351288 -29.7187061309814 0.046301756054163
vertex 0.895159423351288 -29.7187061309814 0.103698246181011
vertex -0.980439186096191 -29.0828609466553 0.0526391826570034
endloop
endfacet
facet normal -0.321061342954636 -0.947058379650116 -1.1202940430801e-13
outer loop
vertex 0.895159423351288 -29.7187061309814 0.103698246181011
vertex 0.895159423351288 -29.7187061309814 0.046301756054163
vertex 4.09115552902222 -30.8021774291992 0.114497140049934
endloop
endfacet
facet normal -0.321061342954636 -0.947058379650116 -7.9449945564582e-15
outer loop
vertex 4.09115552902222 -30.8021774291992 0.0355028547346592
vertex 4.09115552902222 -30.8021774291992 0.114497140049934
vertex 0.895159423351288 -29.7187061309814 0.046301756054163
endloop
endfacet
facet normal -0.321061313152313 -0.947058439254761 2.65159344269928e-14
outer loop
vertex 7.67626714706421 -32.0175628662109 0.126610815525055
vertex 4.09115552902222 -30.8021774291992 0.114497140049934
vertex 7.67626714706421 -32.0175628662109 0.0233891811221838
endloop
endfacet
facet normal -0.321061342954636 -0.947058379650116 -7.9449945564582e-15
outer loop
vertex 4.09115552902222 -30.8021774291992 0.0355028547346592
vertex 7.67626714706421 -32.0175628662109 0.0233891811221838
vertex 4.09115552902222 -30.8021774291992 0.114497140049934
endloop
endfacet
facet normal -0.321061313152313 -0.947058439254761 2.65159344269928e-14
outer loop
vertex 7.67626714706421 -32.0175628662109 0.0233891811221838
vertex 11.2613792419434 -33.2329483032227 0.0112755075097084
vertex 7.67626714706421 -32.0175628662109 0.126610815525055
endloop
endfacet
facet normal -0.321061342954636 -0.947058379650116 -2.68493079603072e-14
outer loop
vertex 11.2613792419434 -33.2329483032227 0.138724491000175
vertex 7.67626714706421 -32.0175628662109 0.126610815525055
vertex 11.2613792419434 -33.2329483032227 0.0112755075097084
endloop
endfacet
facet normal -0.321061342954636 -0.947058379650116 -2.68493079603072e-14
outer loop
vertex 11.2613792419434 -33.2329483032227 0.138724491000175
vertex 11.2613792419434 -33.2329483032227 0.0112755075097084
vertex 14.83913230896 -34.4458389282227 0.150813296437263
endloop
endfacet
facet normal -0.321061342954636 -0.947058439254761 1.06811911745885e-13
outer loop
vertex 14.83913230896 -34.4458389282227 -0.00081330316606909
vertex 14.83913230896 -34.4458389282227 0.150813296437263
vertex 11.2613792419434 -33.2329483032227 0.0112755075097084
endloop
endfacet
facet normal -0.321061342954636 -0.947058379650116 7.23119684248839e-14
outer loop
vertex 17.6088104248047 -35.3847846984863 0.160171717405319
vertex 14.83913230896 -34.4458389282227 0.150813296437263
vertex 17.6088104248047 -35.3847846984863 -0.0101717235520482
endloop
endfacet
facet normal -0.321061342954636 -0.947058379650116 1.06811904969622e-13
outer loop
vertex 14.83913230896 -34.4458389282227 -0.00081330316606909
vertex 17.6088104248047 -35.3847846984863 -0.0101717235520482
vertex 14.83913230896 -34.4458389282227 0.150813296437263
endloop
endfacet
facet normal -0.321061342954636 -0.947058379650116 7.23119684248839e-14
outer loop
vertex 17.6088104248047 -35.3847846984863 0.160171717405319
vertex 17.6088104248047 -35.3847846984863 -0.0101717235520482
vertex 19.3821411132813 -35.9859619140625 0.166163608431816
endloop
endfacet
facet normal -0.321061342954636 -0.947058379650116 6.13031489720556e-14
outer loop
vertex 19.3821411132813 -35.9859619140625 -0.0161636024713516
vertex 19.3821411132813 -35.9859619140625 0.166163608431816
vertex 17.6088104248047 -35.3847846984863 -0.0101717235520482
endloop
endfacet
facet normal -0.321061342954636 -0.947058439254761 6.13031489720556e-14
outer loop
vertex 19.3821411132813 -35.9859619140625 0.166163608431816
vertex 19.3821411132813 -35.9859619140625 -0.0161636024713516
vertex 20.5175457000732 -36.3708724975586 0.170000001788139
endloop
endfacet
facet normal -0.321061342954636 -0.947058379650116 0
outer loop
vertex 20.5175457000732 -36.3708724975586 -0.0199999995529652
vertex 20.5175457000732 -36.3708724975586 0.170000001788139
vertex 19.3821411132813 -35.9859619140625 -0.0161636024713516
endloop
endfacet
facet normal 0.00813662074506283 -0.00270249578170478 0.999963223934174
outer loop
vertex -3.11163377761841 -28.2019863128662 0.0599999986588955
vertex -3.1589150428772 -28.3443393707275 0.0599999986588955
vertex -2.21128749847412 -28.5002269744873 0.0518679283559322
endloop
endfacet
facet normal 0.00813662074506283 -0.00270249601453543 0.999963283538818
outer loop
vertex -2.25904703140259 -28.6440200805664 0.0518679283559322
vertex -2.21128749847412 -28.5002269744873 0.0518679283559322
vertex -3.1589150428772 -28.3443393707275 0.0599999986588955
endloop
endfacet
facet normal 0.00813661981374025 -0.00270249578170478 0.999963283538818
outer loop
vertex -2.25904703140259 -28.6440200805664 0.0518679283559322
vertex -0.84421169757843 -29.1152000427246 0.0390821173787117
vertex -2.21128749847412 -28.5002269744873 0.0518679283559322
endloop
endfacet
facet normal 0.00813661981374025 -0.00270249578170478 0.999963223934174
outer loop
vertex -0.795700013637543 -28.9691429138184 0.0390821173787117
vertex -2.21128749847412 -28.5002269744873 0.0518679283559322
vertex -0.84421169757843 -29.1152000427246 0.0390821173787117
endloop
endfacet
facet normal 0.00813661981374025 -0.00270249578170478 0.999963223934174
outer loop
vertex 1.38029181957245 -29.8560237884521 0.0189793687313795
vertex 1.42998600006104 -29.7064056396484 0.0189793687313795
vertex -0.84421169757843 -29.1152000427246 0.0390821173787117
endloop
endfacet
facet normal 0.00813662074506283 -0.00270249578170478 0.999963223934174
outer loop
vertex -0.795700013637543 -28.9691429138184 0.0390821173787117
vertex -0.84421169757843 -29.1152000427246 0.0390821173787117
vertex 1.42998600006104 -29.7064056396484 0.0189793687313795
endloop
endfacet
facet normal 0.00813661981374025 -0.00270249554887414 0.999963283538818
outer loop
vertex 1.38029181957245 -29.8560237884521 0.0189793687313795
vertex 4.67996835708618 -30.9549083709717 -0.0108396764844656
vertex 1.42998600006104 -29.7064056396484 0.0189793687313795
endloop
endfacet
facet normal 0.00813662074506283 -0.00270249578170478 0.999963223934174
outer loop
vertex 4.73141670227051 -30.8000106811523 -0.0108396764844656
vertex 1.42998600006104 -29.7064056396484 0.0189793687313795
vertex 4.67996835708618 -30.9549083709717 -0.0108396764844656
endloop
endfacet
facet normal 0.00813661981374025 -0.00270249554887414 0.999963223934174
outer loop
vertex 4.67996835708618 -30.9549083709717 -0.0108396764844656
vertex 8.17543411254883 -32.1189994812012 -0.0424280576407909
vertex 4.73141670227051 -30.8000106811523 -0.0108396764844656
endloop
endfacet
facet normal 0.00813661981374025 -0.00270249554887414 0.999963164329529
outer loop
vertex 8.22874069213867 -31.9585037231445 -0.0424280576407909
vertex 4.73141670227051 -30.8000106811523 -0.0108396764844656
vertex 8.17543411254883 -32.1189994812012 -0.0424280576407909
endloop
endfacet
facet normal 0.00813661981374025 -0.00270249554887414 0.999963164329529
outer loop
vertex 8.17543411254883 -32.1189994812012 -0.0424280576407909
vertex 11.6708993911743 -33.283088684082 -0.0740164369344711
vertex 8.22874069213867 -31.9585037231445 -0.0424280576407909
endloop
endfacet
facet normal 0.00813662074506283 -0.00270249554887414 0.999963223934174
outer loop
vertex 11.7260637283325 -33.117000579834 -0.0740164369344711
vertex 8.22874069213867 -31.9585037231445 -0.0424280576407909
vertex 11.6708993911743 -33.283088684082 -0.0740164369344711
endloop
endfacet
facet normal 0.00813662074506283 -0.00270249578170478 0.999963223934174
outer loop
vertex 11.7260637283325 -33.117000579834 -0.0740164369344711
vertex 11.6708993911743 -33.283088684082 -0.0740164369344711
vertex 15.1902456283569 -34.2645149230957 -0.10530548542738
endloop
endfacet
facet normal 0.00813662074506283 -0.00270249578170478 0.999963223934174
outer loop
vertex 15.1332406997681 -34.4361457824707 -0.10530548542738
vertex 15.1902456283569 -34.2645149230957 -0.10530548542738
vertex 11.6708993911743 -33.283088684082 -0.0740164369344711
endloop
endfacet
facet normal 0.00813661981374025 -0.00270249554887414 0.999963164329529
outer loop
vertex 17.7939052581787 -35.1269836425781 -0.128822147846222
vertex 15.1902456283569 -34.2645149230957 -0.10530548542738
vertex 17.7355175018311 -35.3027763366699 -0.128822147846222
endloop
endfacet
facet normal 0.00813661981374025 -0.00270249578170478 0.999963223934174
outer loop
vertex 15.1332406997681 -34.4361457824707 -0.10530548542738
vertex 17.7355175018311 -35.3027763366699 -0.128822147846222
vertex 15.1902456283569 -34.2645149230957 -0.10530548542738
endloop
endfacet
facet normal 0.00813662074506283 -0.00270249578170478 0.999963283538818
outer loop
vertex 17.7939052581787 -35.1269836425781 -0.128822147846222
vertex 17.7355175018311 -35.3027763366699 -0.128822147846222
vertex 19.5006103515625 -35.6923332214355 -0.144237384200096
endloop
endfacet
facet normal 0.00813661981374025 -0.00270249578170478 0.999963283538818
outer loop
vertex 19.4413166046143 -35.8708572387695 -0.144237384200096
vertex 19.5006103515625 -35.6923332214355 -0.144237384200096
vertex 17.7355175018311 -35.3027763366699 -0.128822147846222
endloop
endfacet
facet normal 0.00813661981374025 -0.00270249554887414 0.999963223934174
outer loop
vertex 19.5006103515625 -35.6923332214355 -0.144237384200096
vertex 19.4413166046143 -35.8708572387695 -0.144237384200096
vertex 20.6193618774414 -36.0629196166992 -0.154342114925385
endloop
endfacet
facet normal 0.00813662074506283 -0.00270249578170478 0.999963283538818
outer loop
vertex 20.5594730377197 -36.2432327270508 -0.154342114925385
vertex 20.6193618774414 -36.0629196166992 -0.154342114925385
vertex 19.4413166046143 -35.8708572387695 -0.144237384200096
endloop
endfacet
facet normal -0.229171320796013 -0.668956220149994 -0.707091212272644
outer loop
vertex 20.5601501464844 -36.2434577941895 -0.154349640011787
vertex 20.5174236297607 -36.3708305358887 -0.0199980661273003
vertex 19.3166809082031 -35.829345703125 -0.143112376332283
endloop
endfacet
facet normal -0.229171335697174 -0.668956220149994 -0.707091271877289
outer loop
vertex 19.276180267334 -35.9500389099121 -0.0158041287213564
vertex 19.3166809082031 -35.829345703125 -0.143112376332283
vertex 20.5174236297607 -36.3708305358887 -0.0199980661273003
endloop
endfacet
facet normal -0.229171335697174 -0.668956279754639 -0.707091212272644
outer loop
vertex 19.3166809082031 -35.829345703125 -0.143112376332283
vertex 19.276180267334 -35.9500389099121 -0.0158041287213564
vertex 16.9763774871826 -35.0499610900879 -0.121963009238243
endloop
endfacet
facet normal -0.229171335697174 -0.668956279754639 -0.707091271877289
outer loop
vertex 16.9401206970215 -35.1580924987793 -0.00791100226342678
vertex 16.9763774871826 -35.0499610900879 -0.121963009238243
vertex 19.276180267334 -35.9500389099121 -0.0158041287213564
endloop
endfacet
facet normal -0.229171350598335 -0.668956279754639 -0.707091271877289
outer loop
vertex 16.9401206970215 -35.1580924987793 -0.00791100226342678
vertex 13.5963792800903 -34.0245361328125 0.00338689121417701
vertex 16.9763774871826 -35.0499610900879 -0.121963009238243
endloop
endfacet
facet normal -0.229171335697174 -0.668956279754639 -0.707091271877289
outer loop
vertex 13.6266002655029 -33.9343910217285 -0.0916910171508789
vertex 16.9763774871826 -35.0499610900879 -0.121963009238243
vertex 13.5963792800903 -34.0245361328125 0.00338689121417701
endloop
endfacet
facet normal -0.229171335697174 -0.668956220149994 -0.707091271877289
outer loop
vertex 13.6266002655029 -33.9343910217285 -0.0916910171508789
vertex 13.5963792800903 -34.0245361328125 0.00338689121417701
vertex 10.2694978713989 -32.8163795471191 -0.0613528154790401
endloop
endfacet
facet normal -0.229171320796013 -0.668956279754639 -0.707091212272644
outer loop
vertex 10.2453203201294 -32.8884963989258 0.0147095127031207
vertex 10.2694978713989 -32.8163795471191 -0.0613528154790401
vertex 13.5963792800903 -34.0245361328125 0.00338689121417701
endloop
endfacet
facet normal -0.229171320796013 -0.668956279754639 -0.707091212272644
outer loop
vertex 10.2453203201294 -32.8884963989258 0.0147095127031207
vertex 6.89426183700562 -31.7524566650391 0.0260321348905563
vertex 10.2694978713989 -32.8163795471191 -0.0613528154790401
endloop
endfacet
facet normal -0.229171320796013 -0.668956279754639 -0.707091212272644
outer loop
vertex 6.91239452362061 -31.6983699798584 -0.0310146119445562
vertex 10.2694978713989 -32.8163795471191 -0.0613528154790401
vertex 6.89426183700562 -31.7524566650391 0.0260321348905563
endloop
endfacet
facet normal -0.229171320796013 -0.668956279754639 -0.707091212272644
outer loop
vertex 6.91239452362061 -31.6983699798584 -0.0310146119445562
vertex 6.89426183700562 -31.7524566650391 0.0260321348905563
vertex 3.55529117584229 -30.580358505249 -0.000676407478749752
endloop
endfacet
facet normal -0.229171320796013 -0.668956279754639 -0.707091212272644
outer loop
vertex 3.54320287704468 -30.6164169311523 0.0373547561466694
vertex 3.55529117584229 -30.580358505249 -0.000676407478749752
vertex 6.89426183700562 -31.7524566650391 0.0260321348905563
endloop
endfacet
facet normal -0.229171320796013 -0.668956279754639 -0.707091212272644
outer loop
vertex 3.54320287704468 -30.6164169311523 0.0373547561466694
vertex 0.192143946886063 -29.4803771972656 0.0486773774027824
vertex 3.55529117584229 -30.580358505249 -0.000676407478749752
endloop
endfacet
facet normal -0.229171320796013 -0.668956279754639 -0.707091212272644
outer loop
vertex 0.19818814098835 -29.4623489379883 0.0296617969870567
vertex 3.55529117584229 -30.580358505249 -0.000676407478749752
vertex 0.192143946886063 -29.4803771972656 0.0486773774027824
endloop
endfacet
facet normal -0.229171320796013 -0.668956279754639 -0.707091212272644
outer loop
vertex 0.192143946886063 -29.4803771972656 0.0486773774027824
vertex -3.1589150428772 -28.3443393707275 0.0599999986588955
vertex 0.19818814098835 -29.4623489379883 0.0296617969870567
endloop
endfacet
facet normal -0.948912978172302 0.315171808004379 0.0151942260563374
outer loop
vertex -2.80472755432129 -28.4830532073975 25.0871143341064
vertex -2.74483799934387 -28.3027381896973 25.0871143341064
vertex -2.82142496109009 -28.4765129089355 23.9086742401123
endloop
endfacet
facet normal -0.948912978172302 0.315171808004379 0.0151942260563374
outer loop
vertex -2.76212978363037 -28.2979888916016 23.9086742401123
vertex -2.82142496109009 -28.4765129089355 23.9086742401123
vertex -2.74483799934387 -28.3027381896973 25.0871143341064
endloop
endfacet
facet normal -0.948913037776947 0.315171808004379 0.0151942269876599
outer loop
vertex -2.82142496109009 -28.4765129089355 23.9086742401123
vertex -2.76212978363037 -28.2979888916016 23.9086742401123
vertex -2.84689784049988 -28.4665374755859 22.1109104156494
endloop
endfacet
facet normal -0.948912978172302 0.315171778202057 0.0151942251250148
outer loop
vertex -2.78850936889648 -28.2907428741455 22.1109104156494
vertex -2.84689784049988 -28.4665374755859 22.1109104156494
vertex -2.76212978363037 -28.2979888916016 23.9086742401123
endloop
endfacet
facet normal -0.948912978172302 0.315171778202057 0.0151942260563374
outer loop
vertex -2.78850936889648 -28.2907428741455 22.1109104156494
vertex -2.8287525177002 -28.2796878814697 19.3683395385742
vertex -2.84689784049988 -28.4665374755859 22.1109104156494
endloop
endfacet
facet normal -0.948912978172302 0.315171808004379 0.0151942260563374
outer loop
vertex -2.88575768470764 -28.4513187408447 19.3683395385742
vertex -2.84689784049988 -28.4665374755859 22.1109104156494
vertex -2.8287525177002 -28.2796878814697 19.3683395385742
endloop
endfacet
facet normal -0.948913037776947 0.315171808004379 0.0151942260563374
outer loop
vertex -2.88575768470764 -28.4513187408447 19.3683395385742
vertex -2.8287525177002 -28.2796878814697 19.3683395385742
vertex -2.93746089935303 -28.4310684204102 15.719331741333
endloop
endfacet
facet normal -0.948912978172302 0.315171808004379 0.0151942269876599
outer loop
vertex -2.88229632377625 -28.2649803161621 15.719331741333
vertex -2.93746089935303 -28.4310684204102 15.719331741333
vertex -2.8287525177002 -28.2796878814697 19.3683395385742
endloop
endfacet
facet normal -0.948912978172302 0.315171808004379 0.0151942260563374
outer loop
vertex -2.88229632377625 -28.2649803161621 15.719331741333
vertex -2.93635225296021 -28.2501316070557 12.0354156494141
vertex -2.93746089935303 -28.4310684204102 15.719331741333
endloop
endfacet
facet normal -0.948912978172302 0.315171778202057 0.0151942260563374
outer loop
vertex -2.98965883255005 -28.4106254577637 12.0354156494141
vertex -2.93746089935303 -28.4310684204102 15.719331741333
vertex -2.93635225296021 -28.2501316070557 12.0354156494141
endloop
endfacet
facet normal -0.948912978172302 0.315171778202057 0.0151942260563374
outer loop
vertex -2.93635225296021 -28.2501316070557 12.0354156494141
vertex -2.99040842056274 -28.2352848052979 8.35150051116943
vertex -2.98965883255005 -28.4106254577637 12.0354156494141
endloop
endfacet
facet normal -0.948912918567657 0.315171778202057 0.0151942260563374
outer loop
vertex -3.04185676574707 -28.3901844024658 8.35150051116943
vertex -2.98965883255005 -28.4106254577637 12.0354156494141
vertex -2.99040842056274 -28.2352848052979 8.35150051116943
endloop
endfacet
facet normal -0.948913037776947 0.315171808004379 0.0151942260563374
outer loop
vertex -2.99040842056274 -28.2352848052979 8.35150051116943
vertex -3.04143667221069 -28.2212677001953 4.87392854690552
vertex -3.04185676574707 -28.3901844024658 8.35150051116943
endloop
endfacet
facet normal -0.948913037776947 0.315171778202057 0.0151942260563374
outer loop
vertex -3.09113073348999 -28.370885848999 4.87392854690552
vertex -3.04185676574707 -28.3901844024658 8.35150051116943
vertex -3.04143667221069 -28.2212677001953 4.87392854690552
endloop
endfacet
facet normal -0.948912918567657 0.315171808004379 0.0151942260563374
outer loop
vertex -3.09113073348999 -28.370885848999 4.87392854690552
vertex -3.04143667221069 -28.2212677001953 4.87392854690552
vertex -3.12434935569763 -28.3578758239746 2.52949547767639
endloop
endfacet
facet normal -0.948912978172302 0.315171808004379 0.0151942269876599
outer loop
vertex -3.0758376121521 -28.2118186950684 2.52949547767639
vertex -3.12434935569763 -28.3578758239746 2.52949547767639
vertex -3.04143667221069 -28.2212677001953 4.87392854690552
endloop
endfacet
facet normal -0.948913037776947 0.315171808004379 0.0151942269876599
outer loop
vertex -3.0758376121521 -28.2118186950684 2.52949547767639
vertex -3.09771752357483 -28.2058086395264 1.03838229179382
vertex -3.12434935569763 -28.3578758239746 2.52949547767639
endloop
endfacet
facet normal -0.948913037776947 0.315171808004379 0.0151942269876599
outer loop
vertex -3.14547729492188 -28.3496017456055 1.03838229179382
vertex -3.12434935569763 -28.3578758239746 2.52949547767639
vertex -3.09771752357483 -28.2058086395264 1.03838229179382
endloop
endfacet
facet normal -0.948912978172302 0.315171808004379 0.0151942269876599
outer loop
vertex -3.09771752357483 -28.2058086395264 1.03838229179382
vertex -3.11163377761841 -28.2019863128662 0.0900000035762787
vertex -3.14547729492188 -28.3496017456055 1.03838229179382
endloop
endfacet
facet normal -0.948912978172302 0.315171808004379 0.0151942260563374
outer loop
vertex -3.1589150428772 -28.3443393707275 0.0900000035762787
vertex -3.14547729492188 -28.3496017456055 1.03838229179382
vertex -3.11163377761841 -28.2019863128662 0.0900000035762787
endloop
endfacet
facet normal 0.215785533189774 0.673402845859528 -0.707082152366638
outer loop
vertex 2.71558427810669 -11.5097236633301 17.7655200958252
vertex 2.4375057220459 -12.3106527328491 16.9178771972656
vertex 2.53523063659668 -11.4499816894531 17.7673778533936
endloop
endfacet
facet normal 0.215785548090935 0.673402845859528 -0.707082211971283
outer loop
vertex 2.26443552970886 -12.2533235549927 16.9196605682373
vertex 2.53523063659668 -11.4499816894531 17.7673778533936
vertex 2.4375057220459 -12.3106527328491 16.9178771972656
endloop
endfacet
facet normal 0.215785548090935 0.673402845859528 -0.707082152366638
outer loop
vertex 2.26443552970886 -12.2533235549927 16.9196605682373
vertex 2.4375057220459 -12.3106527328491 16.9178771972656
vertex 1.84149384498596 -13.5080232620239 15.5956506729126
endloop
endfacet
facet normal 0.215785533189774 0.673402845859528 -0.707082152366638
outer loop
vertex 2.00318884849548 -13.5615844726563 15.5939855575562
vertex 1.84149384498596 -13.5080232620239 15.5956506729126
vertex 2.4375057220459 -12.3106527328491 16.9178771972656
endloop
endfacet
facet normal 0.215785548090935 0.673402845859528 -0.707082211971283
outer loop
vertex 2.00318884849548 -13.5615844726563 15.5939855575562
vertex 1.32485055923462 -15.5153532028198 13.5262651443481
vertex 1.84149384498596 -13.5080232620239 15.5956506729126
endloop
endfacet
facet normal 0.215785548090935 0.673402845859528 -0.707082152366638
outer loop
vertex 1.18092226982117 -15.467677116394 13.5277462005615
vertex 1.84149384498596 -13.5080232620239 15.5956506729126
vertex 1.32485055923462 -15.5153532028198 13.5262651443481
endloop
endfacet
facet normal 0.215785548090935 0.673402845859528 -0.707082152366638
outer loop
vertex 1.18092226982117 -15.467677116394 13.5277462005615
vertex 1.32485055923462 -15.5153532028198 13.5262651443481
vertex 0.327623784542084 -17.9990749359131 10.8565158843994
endloop
endfacet
facet normal 0.215785548090935 0.673402845859528 -0.707082152366638
outer loop
vertex 0.448602080345154 -18.0391483306885 10.8552703857422
vertex 0.327623784542084 -17.9990749359131 10.8565158843994
vertex 1.32485055923462 -15.5153532028198 13.5262651443481
endloop
endfacet
facet normal 0.215785548090935 0.673402845859528 -0.707082211971283
outer loop
vertex 0.448602080345154 -18.0391483306885 10.8552703857422
vertex -0.429448693990707 -20.5681343078613 8.17878150939941
vertex 0.327623784542084 -17.9990749359131 10.8565158843994
endloop
endfacet
facet normal 0.215785533189774 0.673402786254883 -0.707082152366638
outer loop
vertex -0.527429699897766 -20.5356788635254 8.17979049682617
vertex 0.327623784542084 -17.9990749359131 10.8565158843994
vertex -0.429448693990707 -20.5681343078613 8.17878150939941
endloop
endfacet
facet normal 0.215785533189774 0.673402786254883 -0.707082152366638
outer loop
vertex -0.429448693990707 -20.5681343078613 8.17878150939941
vertex -1.30749940872192 -23.0971202850342 5.50229358673096
vertex -0.527429699897766 -20.5356788635254 8.17979049682617
endloop
endfacet
facet normal 0.215785548090935 0.673402845859528 -0.707082152366638
outer loop
vertex -1.38248312473297 -23.0722827911377 5.50306558609009
vertex -0.527429699897766 -20.5356788635254 8.17979049682617
vertex -1.30749940872192 -23.0971202850342 5.50229358673096
endloop
endfacet
facet normal 0.215785548090935 0.673402845859528 -0.707082152366638
outer loop
vertex -1.38248312473297 -23.0722827911377 5.50306558609009
vertex -1.30749940872192 -23.0971202850342 5.50229358673096
vertex -2.1447319984436 -25.3335723876953 3.11686301231384
endloop
endfacet
facet normal 0.215785533189774 0.673402786254883 -0.707082211971283
outer loop
vertex -2.09024977684021 -25.351619720459 3.1163022518158
vertex -2.1447319984436 -25.3335723876953 3.11686301231384
vertex -1.30749940872192 -23.0971202850342 5.50229358673096
endloop
endfacet
facet normal 0.215785548090935 0.673402845859528 -0.707082152366638
outer loop
vertex -2.1447319984436 -25.3335723876953 3.11686301231384
vertex -2.09024977684021 -25.351619720459 3.1163022518158
vertex -2.59206461906433 -26.6606292724609 1.7164990901947
endloop
endfacet
facet normal 0.215785518288612 0.673402786254883 -0.707082152366638
outer loop
vertex -2.54961347579956 -26.6746921539307 1.71606194972992
vertex -2.59206461906433 -26.6606292724609 1.7164990901947
vertex -2.09024977684021 -25.351619720459 3.1163022518158
endloop
endfacet
facet normal 0.215785533189774 0.673402845859528 -0.707082152366638
outer loop
vertex -2.54961347579956 -26.6746921539307 1.71606194972992
vertex -2.80854916572571 -27.4204864501953 0.926770389080048
vertex -2.59206461906433 -26.6606292724609 1.7164990901947
endloop
endfacet
facet normal 0.215785548090935 0.673402845859528 -0.707082211971283
outer loop
vertex -2.84421825408936 -27.408670425415 0.927137672901154
vertex -2.59206461906433 -26.6606292724609 1.7164990901947
vertex -2.80854916572571 -27.4204864501953 0.926770389080048
endloop
endfacet
facet normal 0.215785533189774 0.673402845859528 -0.707082211971283
outer loop
vertex -2.84421825408936 -27.408670425415 0.927137672901154
vertex -2.80854916572571 -27.4204864501953 0.926770389080048
vertex -2.98635315895081 -27.8303279876709 0.482188075780869
endloop
endfacet
facet normal 0.215785548090935 0.673402845859528 -0.707082211971283
outer loop
vertex -2.95450663566589 -27.840877532959 0.481860190629959
vertex -2.98635315895081 -27.8303279876709 0.482188075780869
vertex -2.80854916572571 -27.4204864501953 0.926770389080048
endloop
endfacet
facet normal 0.215785533189774 0.673402845859528 -0.707082152366638
outer loop
vertex -2.98635315895081 -27.8303279876709 0.482188075780869
vertex -2.95450663566589 -27.840877532959 0.481860190629959
vertex -3.06647205352783 -28.0680084228516 0.231377601623535
endloop
endfacet
facet normal 0.215785533189774 0.673402845859528 -0.707082211971283
outer loop
vertex -3.03678059577942 -28.077844619751 0.231071889400482
vertex -3.06647205352783 -28.0680084228516 0.231377601623535
vertex -2.95450663566589 -27.840877532959 0.481860190629959
endloop
endfacet
facet normal 0.215785548090935 0.673402845859528 -0.707082211971283
outer loop
vertex -3.03678059577942 -28.077844619751 0.231071889400482
vertex -3.08315682411194 -28.2114181518555 0.0897067934274673
vertex -3.06647205352783 -28.0680084228516 0.231377601623535
endloop
endfacet
facet normal 0.215785562992096 0.673402905464172 -0.707082211971283
outer loop
vertex -3.11163377761841 -28.2019863128662 0.0900000035762787
vertex -3.06647205352783 -28.0680084228516 0.231377601623535
vertex -3.08315682411194 -28.2114181518555 0.0897067934274673
endloop
endfacet
facet normal -0.228091865777969 -0.669294595718384 0.70712012052536
outer loop
vertex 2.71514630317688 -11.5110578536987 17.7676029205322
vertex 2.53520178794861 -11.4500675201416 17.7672882080078
vertex 2.40967726707458 -12.386079788208 16.8408546447754
endloop
endfacet
facet normal -0.228091865777969 -0.669294595718384 0.70712012052536
outer loop
vertex 2.2391631603241 -12.3282957077026 16.8405456542969
vertex 2.40967726707458 -12.386079788208 16.8408546447754
vertex 2.53520178794861 -11.4500675201416 17.7672882080078
endloop
endfacet
facet normal -0.228091865777969 -0.669294595718384 0.707120060920715
outer loop
vertex 2.40967726707458 -12.386079788208 16.8408546447754
vertex 2.2391631603241 -12.3282957077026 16.8405456542969
vertex 1.8347624540329 -14.0329351425171 15.0966463088989
endloop
endfacet
facet normal -0.228091865777969 -0.669294595718384 0.70712012052536
outer loop
vertex 1.68200945854187 -13.9811496734619 15.0963888168335
vertex 1.8347624540329 -14.0329351425171 15.0966463088989
vertex 2.2391631603241 -12.3282957077026 16.8405456542969
endloop
endfacet
facet normal -0.228091865777969 -0.669294595718384 0.70712012052536
outer loop
vertex 1.68200945854187 -13.9811496734619 15.0963888168335
vertex 0.884523391723633 -16.3469734191895 12.5998773574829
vertex 1.8347624540329 -14.0329351425171 15.0966463088989
endloop
endfacet
facet normal -0.228091865777969 -0.669294595718384 0.70712012052536
outer loop
vertex 1.01186287403107 -16.3901462554932 12.6000890731812
vertex 1.8347624540329 -14.0329351425171 15.0966463088989
vertex 0.884523391723633 -16.3469734191895 12.5998773574829
endloop
endfacet
facet normal -0.228091880679131 -0.669294595718384 0.70712012052536
outer loop
vertex 1.01186287403107 -16.3901462554932 12.6000890731812
vertex 0.884523391723633 -16.3469734191895 12.5998773574829
vertex 0.187163591384888 -18.752513885498 10.0980710983276
endloop
endfacet
facet normal -0.228091865777969 -0.669294536113739 0.70712012052536
outer loop
vertex 0.0852919891476631 -18.7179756164551 10.0979013442993
vertex 0.187163591384888 -18.752513885498 10.0980710983276
vertex 0.884523391723633 -16.3469734191895 12.5998773574829
endloop
endfacet
facet normal -0.228091865777969 -0.669294536113739 0.70712012052536
outer loop
vertex 0.0852919891476631 -18.7179756164551 10.0979013442993
vertex -0.713939428329468 -21.0889778137207 7.59592628479004
vertex 0.187163591384888 -18.752513885498 10.0980710983276
endloop
endfacet
facet normal -0.228091880679131 -0.669294595718384 0.70712012052536
outer loop
vertex -0.637535750865936 -21.1148815155029 7.59605312347412
vertex 0.187163591384888 -18.752513885498 10.0980710983276
vertex -0.713939428329468 -21.0889778137207 7.59592628479004
endloop
endfacet
facet normal -0.228091880679131 -0.669294595718384 0.70712012052536
outer loop
vertex -0.637535750865936 -21.1148815155029 7.59605312347412
vertex -0.713939428329468 -21.0889778137207 7.59592628479004
vertex -1.46223509311676 -23.4772491455078 5.09403562545776
endloop
endfacet
facet normal -0.228091865777969 -0.669294536113739 0.70712012052536
outer loop
vertex -1.51317083835602 -23.4599800109863 5.0939507484436
vertex -1.46223509311676 -23.4772491455078 5.09403562545776
vertex -0.713939428329468 -21.0889778137207 7.59592628479004
endloop
endfacet
facet normal -0.228091865777969 -0.669294536113739 0.70712012052536
outer loop
vertex -1.51317083835602 -23.4599800109863 5.0939507484436
vertex -2.31240224838257 -25.830982208252 2.59197545051575
vertex -1.46223509311676 -23.4772491455078 5.09403562545776
endloop
endfacet
facet normal -0.228091865777969 -0.669294536113739 0.70712012052536
outer loop
vertex -2.28693437576294 -25.8396167755127 2.59201788902283
vertex -1.46223509311676 -23.4772491455078 5.09403562545776
vertex -2.31240224838257 -25.830982208252 2.59197545051575
endloop
endfacet
facet normal -0.228091865777969 -0.669294536113739 0.70712012052536
outer loop
vertex -2.31240224838257 -25.830982208252 2.59197545051575
vertex -3.11163377761841 -28.2019863128662 0.0900000035762787
vertex -2.28693437576294 -25.8396167755127 2.59201788902283
endloop
endfacet
facet normal -0.321059107780457 -0.947058916091919 -0.000706293096300215
outer loop
vertex -0.448839873075485 -29.2798366546631 22.5701236724854
vertex -2.80472755432129 -28.4830532073975 25.0871143341064
vertex -0.466954171657562 -29.273681640625 22.5512256622314
endloop
endfacet
facet normal -0.321059107780457 -0.947058916091919 -0.000706293096300215
outer loop
vertex -0.466954171657562 -29.273681640625 22.5512256622314
vertex 1.87081921100616 -30.0643119812012 20.0153369903564
vertex -0.448839873075485 -29.2798366546631 22.5701236724854
endloop
endfacet
facet normal -0.321059107780457 -0.947058916091919 -0.000706293096300215
outer loop
vertex 1.90704774856567 -30.0766201019287 20.0531349182129
vertex -0.448839873075485 -29.2798366546631 22.5701236724854
vertex 1.87081921100616 -30.0643119812012 20.0153369903564
endloop
endfacet
facet normal -0.321059137582779 -0.947058916091919 -0.000706293154507875
outer loop
vertex 4.20859241485596 -30.8549404144287 17.4794483184814
vertex 4.26293563842773 -30.873405456543 17.5361442565918
vertex 1.87081921100616 -30.0643119812012 20.0153369903564
endloop
endfacet
facet normal -0.321059107780457 -0.947058916091919 -0.000706293096300215
outer loop
vertex 1.90704774856567 -30.0766201019287 20.0531349182129
vertex 1.87081921100616 -30.0643119812012 20.0153369903564
vertex 4.26293563842773 -30.873405456543 17.5361442565918
endloop
endfacet
facet normal -0.321059137582779 -0.947058916091919 -0.000706293154507875
outer loop
vertex 4.20859241485596 -30.8549404144287 17.4794483184814
vertex 6.54636573791504 -31.6455688476563 14.9435606002808
vertex 4.26293563842773 -30.873405456543 17.5361442565918
endloop
endfacet
facet normal -0.321059107780457 -0.947058916091919 -0.000706293096300215
outer loop
vertex 6.61882305145264 -31.6701889038086 15.0191555023193
vertex 4.26293563842773 -30.873405456543 17.5361442565918
vertex 6.54636573791504 -31.6455688476563 14.9435606002808
endloop
endfacet
facet normal -0.321059107780457 -0.947058916091919 -0.000706293096300215
outer loop
vertex 6.54636573791504 -31.6455688476563 14.9435606002808
vertex 8.88413906097412 -32.4361991882324 12.4076719284058
vertex 6.61882305145264 -31.6701889038086 15.0191555023193
endloop
endfacet
facet normal -0.321059107780457 -0.947058856487274 -0.000706293096300215
outer loop
vertex 8.97471046447754 -32.4669723510742 12.5021648406982
vertex 6.61882305145264 -31.6701889038086 15.0191555023193
vertex 8.88413906097412 -32.4361991882324 12.4076719284058
endloop
endfacet
facet normal -0.321059137582779 -0.947058916091919 -0.000706293096300215
outer loop
vertex 11.3254528045654 -33.2620162963867 9.99067211151123
vertex 8.97471046447754 -32.4669723510742 12.5021648406982
vertex 11.2168102264404 -33.2251014709473 9.87731838226318
endloop
endfacet
facet normal -0.321059137582779 -0.947058916091919 -0.000706293096300215
outer loop
vertex 8.88413906097412 -32.4361991882324 12.4076719284058
vertex 11.2168102264404 -33.2251014709473 9.87731838226318
vertex 8.97471046447754 -32.4669723510742 12.5021648406982
endloop
endfacet
facet normal -0.321059107780457 -0.947058856487274 -0.000706293096300215
outer loop
vertex 11.3254528045654 -33.2620162963867 9.99067211151123
vertex 11.2168102264404 -33.2251014709473 9.87731838226318
vertex 12.9677686691284 -33.8174629211426 8.23605060577393
endloop
endfacet
facet normal -0.321059137582779 -0.947058856487274 -0.000706293096300215
outer loop
vertex 12.8465185165405 -33.7762641906738 8.10949993133545
vertex 12.9677686691284 -33.8174629211426 8.23605060577393
vertex 11.2168102264404 -33.2251014709473 9.87731838226318
endloop
endfacet
facet normal -0.321059137582779 -0.947058916091919 -0.000706293096300215
outer loop
vertex 12.9677686691284 -33.8174629211426 8.23605060577393
vertex 12.8465185165405 -33.7762641906738 8.10949993133545
vertex 13.8403978347778 -34.1125946044922 7.30374956130981
endloop
endfacet
facet normal -0.321059107780457 -0.947058916091919 -0.000706293096300215
outer loop
vertex 13.7124300003052 -34.0691146850586 7.17020750045776
vertex 13.8403978347778 -34.1125946044922 7.30374956130981
vertex 12.8465185165405 -33.7762641906738 8.10949993133545
endloop
endfacet
facet normal -1 0 0
outer loop
vertex -0.214350000023842 -26 0.170000001788139
vertex -0.214350000023842 -25 0.170000001788139
vertex -0.214350000023842 -26 -0.0199999995529652
endloop
endfacet
facet normal -1 0 0
outer loop
vertex -0.214350000023842 -25 -0.0199999995529652
vertex -0.214350000023842 -26 -0.0199999995529652
vertex -0.214350000023842 -25 0.170000001788139
endloop
endfacet
facet normal -0.70710676908493 0 -0.70710676908493
outer loop
vertex -0.214350000023842 -26 -0.0199999995529652
vertex -0.214350000023842 -25 -0.0199999995529652
vertex -0.0799999982118607 -26 -0.154349997639656
endloop
endfacet
facet normal -0.70710676908493 -0 -0.70710676908493
outer loop
vertex -0.0799999982118607 -25 -0.154349997639656
vertex -0.0799999982118607 -26 -0.154349997639656
vertex -0.214350000023842 -25 -0.0199999995529652
endloop
endfacet
facet normal -0.70710676908493 0 0.70710676908493
outer loop
vertex -0.0799999982118607 -26 0.304349988698959
vertex -0.0799999982118607 -25 0.304349988698959
vertex -0.214350000023842 -26 0.170000001788139
endloop
endfacet
facet normal -0.70710676908493 0 0.70710676908493
outer loop
vertex -0.214350000023842 -25 0.170000001788139
vertex -0.214350000023842 -26 0.170000001788139
vertex -0.0799999982118607 -25 0.304349988698959
endloop
endfacet
facet normal -0 -0 -1
outer loop
vertex 0.109999999403954 -25 -0.154349997639656
vertex 0.109999999403954 -26 -0.154349997639656
vertex -0.0799999982118607 -25 -0.154349997639656
endloop
endfacet
facet normal 0 0 -1
outer loop
vertex -0.0799999982118607 -26 -0.154349997639656
vertex -0.0799999982118607 -25 -0.154349997639656
vertex 0.109999999403954 -26 -0.154349997639656
endloop
endfacet
facet normal 0 -0 1
outer loop
vertex 0.109999999403954 -26 0.304349988698959
vertex 0.109999999403954 -25 0.304349988698959
vertex -0.0799999982118607 -26 0.304349988698959
endloop
endfacet
facet normal -0 0 1
outer loop
vertex -0.0799999982118607 -25 0.304349988698959
vertex -0.0799999982118607 -26 0.304349988698959
vertex 0.109999999403954 -25 0.304349988698959
endloop
endfacet
facet normal 0.70710676908493 0 -0.70710676908493
outer loop
vertex 0.244350001215935 -25 -0.0199999995529652
vertex 0.244350001215935 -26 -0.0199999995529652
vertex 0.109999999403954 -25 -0.154349997639656
endloop
endfacet
facet normal 0.70710676908493 0 -0.70710676908493
outer loop
vertex 0.109999999403954 -26 -0.154349997639656
vertex 0.109999999403954 -25 -0.154349997639656
vertex 0.244350001215935 -26 -0.0199999995529652
endloop
endfacet
facet normal 0.70710676908493 0 0.70710676908493
outer loop
vertex 0.109999999403954 -25 0.304349988698959
vertex 0.109999999403954 -26 0.304349988698959
vertex 0.244350001215935 -25 0.170000001788139
endloop
endfacet
facet normal 0.70710676908493 -0 0.70710676908493
outer loop
vertex 0.244350001215935 -26 0.170000001788139
vertex 0.244350001215935 -25 0.170000001788139
vertex 0.109999999403954 -26 0.304349988698959
endloop
endfacet
facet normal 1 0 0
outer loop
vertex 0.244350001215935 -25 0.170000001788139
vertex 0.244350001215935 -26 0.170000001788139
vertex 0.244350001215935 -25 -0.0199999995529652
endloop
endfacet
facet normal 1 0 0
outer loop
vertex 0.244350001215935 -26 -0.0199999995529652
vertex 0.244350001215935 -25 -0.0199999995529652
vertex 0.244350001215935 -26 0.170000001788139
endloop
endfacet
facet normal -0 0.00617388170212507 0.999980926513672
outer loop
vertex -0.0799999982118607 -24.9995231628418 0.304347068071365
vertex 0.109999999403954 -24.9995231628418 0.304347068071365
vertex -0.0761636048555374 -23.8006725311279 0.296945363283157
endloop
endfacet
facet normal 6.72758618274247e-16 0.00617388216778636 0.999980926513672
outer loop
vertex 0.10616360604763 -23.8006725311279 0.296945363283157
vertex -0.0761636048555374 -23.8006725311279 0.296945363283157
vertex 0.109999999403954 -24.9995231628418 0.304347068071365
endloop
endfacet
facet normal 6.72758671213807e-16 0.00617388263344765 0.999980986118317
outer loop
vertex -0.0761636048555374 -23.8006725311279 0.296945363283157
vertex 0.10616360604763 -23.8006725311279 0.296945363283157
vertex -0.0701717212796211 -21.9282455444336 0.285384982824326
endloop
endfacet
facet normal -3.25871600728638e-16 0.00617388216778636 0.999980926513672
outer loop
vertex 0.100171722471714 -21.9282455444336 0.285384982824326
vertex -0.0701717212796211 -21.9282455444336 0.285384982824326
vertex 0.10616360604763 -23.8006725311279 0.296945363283157
endloop
endfacet
facet normal -3.25871600728638e-16 0.00617388263344765 0.999980926513672
outer loop
vertex 0.100171722471714 -21.9282455444336 0.285384982824326
vertex 0.0908133015036583 -19.0037956237793 0.267329424619675
vertex -0.0701717212796211 -21.9282455444336 0.285384982824326
endloop
endfacet
facet normal 7.67808499859728e-17 0.00617388170212507 0.999980926513672
outer loop
vertex -0.0608133040368557 -19.0037956237793 0.267329424619675
vertex -0.0701717212796211 -21.9282455444336 0.285384982824326
vertex 0.0908133015036583 -19.0037956237793 0.267329424619675
endloop
endfacet
facet normal 7.67808566034177e-17 0.00617388216778636 0.999980986118317
outer loop
vertex -0.0608133040368557 -19.0037956237793 0.267329424619675
vertex 0.0908133015036583 -19.0037956237793 0.267329424619675
vertex -0.0487244911491871 -15.226113319397 0.244006022810936
endloop
endfacet
facet normal 3.09120280117043e-16 0.00617388216778636 0.999980926513672
outer loop
vertex 0.0787244960665703 -15.226113319397 0.244006022810936
vertex -0.0487244911491871 -15.226113319397 0.244006022810936
vertex 0.0908133015036583 -19.0037956237793 0.267329424619675
endloop
endfacet
facet normal 3.09120306586823e-16 0.00617388263344765 0.999980986118317
outer loop
vertex 0.0787244960665703 -15.226113319397 0.244006022810936
vertex 0.0666108205914497 -11.4406623840332 0.220634654164314
vertex -0.0487244911491871 -15.226113319397 0.244006022810936
endloop
endfacet
facet normal -2.62348523667979e-16 0.00617388263344765 0.999980926513672
outer loop
vertex -0.0366108193993568 -11.4406623840332 0.220634654164314
vertex -0.0487244911491871 -15.226113319397 0.244006022810936
vertex 0.0666108205914497 -11.4406623840332 0.220634654164314
endloop
endfacet
facet normal -2.62348523667979e-16 0.00617388263344765 0.999980926513672
outer loop
vertex -0.0366108193993568 -11.4406623840332 0.220634654164314
vertex 0.0666108205914497 -11.4406623840332 0.220634654164314
vertex -0.0244971439242363 -7.65521144866943 0.197263270616531
endloop
endfacet
facet normal -4.12226715580332e-16 0.00617388216778636 0.999980986118317
outer loop
vertex 0.0544971451163292 -7.65521144866943 0.197263270616531
vertex -0.0244971439242363 -7.65521144866943 0.197263270616531
vertex 0.0666108205914497 -11.4406623840332 0.220634654164314
endloop
endfacet
facet normal -4.12226662640773e-16 0.00617388170212507 0.999980866909027
outer loop
vertex 0.0544971451163292 -7.65521144866943 0.197263270616531
vertex 0.0436982437968254 -4.28062009811401 0.1764285415411
vertex -0.0244971439242363 -7.65521144866943 0.197263270616531
endloop
endfacet
facet normal -8.96571867697815e-17 0.00617388263344765 0.999980926513672
outer loop
vertex -0.0136982444673777 -4.28062009811401 0.1764285415411
vertex -0.0244971439242363 -7.65521144866943 0.197263270616531
vertex 0.0436982437968254 -4.28062009811401 0.1764285415411
endloop
endfacet
facet normal -8.96571801523366e-17 0.00617388216778636 0.999980926513672
outer loop
vertex -0.0136982444673777 -4.28062009811401 0.1764285415411
vertex 0.0436982437968254 -4.28062009811401 0.1764285415411
vertex -0.00736081600189209 -2.30021119117737 0.164201498031616
endloop
endfacet
facet normal -9.88460662028812e-16 0.00617388216778636 0.999980926513672
outer loop
vertex 0.037360817193985 -2.30021119117737 0.164201498031616
vertex -0.00736081600189209 -2.30021119117737 0.164201498031616
vertex 0.0436982437968254 -4.28062009811401 0.1764285415411
endloop
endfacet
facet normal -9.88460662028812e-16 0.00617388263344765 0.999980986118317
outer loop
vertex 0.037360817193985 -2.30021119117737 0.164201498031616
vertex 0.03378851339221 -1.18388843536377 0.157309323549271
vertex -0.00736081600189209 -2.30021119117737 0.164201498031616
endloop
endfacet
facet normal 6.38153563670206e-16 0.00617388263344765 0.999980926513672
outer loop
vertex -0.00378851499408484 -1.18388843536377 0.157309323549271
vertex -0.00736081600189209 -2.30021119117737 0.164201498031616
vertex 0.03378851339221 -1.18388843536377 0.157309323549271
endloop
endfacet
facet normal 6.38153563670206e-16 0.00617388216778636 0.999980926513672
outer loop
vertex -0.00378851499408484 -1.18388843536377 0.157309323549271
vertex 0.03378851339221 -1.18388843536377 0.157309323549271
vertex -0.00177486997563392 -0.554636299610138 0.153424322605133
endloop
endfacet
facet normal 9.29433159396146e-16 0.00617388216778636 0.999980926513672
outer loop
vertex 0.0317748710513115 -0.554636299610138 0.153424322605133
vertex -0.00177486997563392 -0.554636299610138 0.153424322605133
vertex 0.03378851339221 -1.18388843536377 0.157309323549271
endloop
endfacet
facet normal 9.29433159396146e-16 0.00617388216778636 0.999980926513672
outer loop
vertex 0.0317748710513115 -0.554636299610138 0.153424322605133
vertex 0.0306398123502731 -0.199937611818314 0.151234418153763
vertex -0.00177486997563392 -0.554636299610138 0.153424322605133
endloop
endfacet
facet normal -1.75306107754037e-16 0.00617388216778636 0.999980926513672
outer loop
vertex -0.000639812555164099 -0.199937611818314 0.151234418153763
vertex -0.00177486997563392 -0.554636299610138 0.153424322605133
vertex 0.0306398123502731 -0.199937611818314 0.151234418153763
endloop
endfacet
facet normal -1.75306094519147e-16 0.00617388263344765 0.999980926513672
outer loop
vertex -0.000639812555164099 -0.199937611818314 0.151234418153763
vertex 0.0306398123502731 -0.199937611818314 0.151234418153763
vertex 0 0 0.150000005960464
endloop
endfacet
facet normal 0 0.00617388309910893 0.999980986118317
outer loop
vertex 0.0299999993294477 0 0.150000005960464
vertex 0 0 0.150000005960464
vertex 0.0306398123502731 -0.199937611818314 0.151234418153763
endloop
endfacet
facet normal -0.999963283538818 -0.00857368484139442 -0
outer loop
vertex 0.244342118501663 -24.999080657959 0.170000001788139
vertex 0.234237387776375 -23.8205490112305 0.16905714571476
vertex 0.244342118501663 -24.999080657959 -0.0199999995529652
endloop
endfacet
facet normal -0.999963223934174 -0.00857368484139442 1.43811090125795e-17
outer loop
vertex 0.234237387776375 -23.8205490112305 -0.0190571397542953
vertex 0.244342118501663 -24.999080657959 -0.0199999995529652
vertex 0.234237387776375 -23.8205490112305 0.16905714571476
endloop
endfacet
facet normal -0.999963283538818 -0.00857368484139442 1.43811090125795e-17
outer loop
vertex 0.234237387776375 -23.8205490112305 0.16905714571476
vertex 0.218822151422501 -22.0226440429688 0.16761876642704
vertex 0.234237387776375 -23.8205490112305 -0.0190571397542953
endloop
endfacet
facet normal -0.999963283538818 -0.008573685772717 1.93645615141734e-16
outer loop
vertex 0.218822151422501 -22.0226440429688 -0.0176187623292208
vertex 0.234237387776375 -23.8205490112305 -0.0190571397542953
vertex 0.218822151422501 -22.0226440429688 0.16761876642704
endloop
endfacet
facet normal -0.999963164329529 -0.00857368484139442 1.93645588671955e-16
outer loop
vertex 0.218822151422501 -22.0226440429688 -0.0176187623292208
vertex 0.218822151422501 -22.0226440429688 0.16761876642704
vertex 0.195305481553078 -19.2798557281494 -0.01542445179075
endloop
endfacet
facet normal -0.999963223934174 -0.00857368484139442 1.6842704878692e-16
outer loop
vertex 0.195305481553078 -19.2798557281494 0.165424451231956
vertex 0.195305481553078 -19.2798557281494 -0.01542445179075
vertex 0.218822151422501 -22.0226440429688 0.16761876642704
endloop
endfacet
facet normal -0.999963223934174 -0.00857368484139442 1.6842704878692e-16
outer loop
vertex 0.195305481553078 -19.2798557281494 -0.01542445179075
vertex 0.195305481553078 -19.2798557281494 0.165424451231956
vertex 0.16401644051075 -15.6305618286133 -0.0125049091875553
endloop
endfacet
facet normal -0.999963223934174 -0.00857368484139442 -3.01719170921731e-16
outer loop
vertex 0.16401644051075 -15.6305618286133 0.162504911422729
vertex 0.16401644051075 -15.6305618286133 -0.0125049091875553
vertex 0.195305481553078 -19.2798557281494 0.165424451231956
endloop
endfacet
facet normal -0.999963223934174 -0.00857368484139442 -3.01719170921731e-16
outer loop
vertex 0.16401644051075 -15.6305618286133 0.162504911422729
vertex 0.13242806494236 -11.9463558197021 0.159557431936264
vertex 0.16401644051075 -15.6305618286133 -0.0125049091875553
endloop
endfacet
facet normal -0.999963164329529 -0.00857368484139442 3.19935428398157e-17
outer loop
vertex 0.13242806494236 -11.9463558197021 -0.00955743622034788
vertex 0.16401644051075 -15.6305618286133 -0.0125049091875553
vertex 0.13242806494236 -11.9463558197021 0.159557431936264
endloop
endfacet
facet normal -0.999963164329529 -0.00857368484139442 3.19935428398157e-17
outer loop
vertex 0.13242806494236 -11.9463558197021 -0.00955743622034788
vertex 0.13242806494236 -11.9463558197021 0.159557431936264
vertex 0.100839674472809 -8.26215076446533 -0.00660996325314045
endloop
endfacet
facet normal -0.999963223934174 -0.00857368391007185 -9.33092090265378e-17
outer loop
vertex 0.100839674472809 -8.26215076446533 0.15660996735096
vertex 0.100839674472809 -8.26215076446533 -0.00660996325314045
vertex 0.13242806494236 -11.9463558197021 0.159557431936264
endloop
endfacet
facet normal -0.999963223934174 -0.00857368484139442 -9.33092222614276e-17
outer loop
vertex 0.100839674472809 -8.26215076446533 -0.00660996325314045
vertex 0.100839674472809 -8.26215076446533 0.15660996735096
vertex 0.071020632982254 -4.78430509567261 -0.00382758467458189
endloop
endfacet
facet normal -0.999963283538818 -0.00857368484139442 -1.58886400541292e-16
outer loop
vertex 0.071020632982254 -4.78430509567261 0.153827577829361
vertex 0.071020632982254 -4.78430509567261 -0.00382758467458189
vertex 0.100839674472809 -8.26215076446533 0.15660996735096
endloop
endfacet
facet normal -0.999963223934174 -0.00857368484139442 -1.58886413776182e-16
outer loop
vertex 0.071020632982254 -4.78430509567261 0.153827577829361
vertex 0.0509178824722767 -2.43968749046326 0.151951819658279
vertex 0.071020632982254 -4.78430509567261 -0.00382758467458189
endloop
endfacet
facet normal -0.999963223934174 -0.00857368484139442 -1.59504675035784e-17
outer loop
vertex 0.0509178824722767 -2.43968749046326 -0.00195182173047215
vertex 0.071020632982254 -4.78430509567261 -0.00382758467458189
vertex 0.0509178824722767 -2.43968749046326 0.151951819658279
endloop
endfacet
facet normal -0.999963223934174 -0.00857368484139442 -1.59504658492172e-17
outer loop
vertex 0.0509178824722767 -2.43968749046326 -0.00195182173047215
vertex 0.0509178824722767 -2.43968749046326 0.151951819658279
vertex 0.0381320714950562 -0.948456943035126 -0.000758793437853456
endloop
endfacet
facet normal -0.999963283538818 -0.00857368484139442 2.81066976556357e-18
outer loop
vertex 0.0381320714950562 -0.948456943035126 0.150758787989616
vertex 0.0381320714950562 -0.948456943035126 -0.000758793437853456
vertex 0.0509178824722767 -2.43968749046326 0.151951819658279
endloop
endfacet
facet normal -0.999963283538818 -0.008573685772717 2.81066997235873e-18
outer loop
vertex 0.0381320714950562 -0.948456943035126 0.150758787989616
vertex 0.0299999993294477 0 0.150000005960464
vertex 0.0381320714950562 -0.948456943035126 -0.000758793437853456
endloop
endfacet
facet normal -0.999963223934174 -0.00857368484139442 0
outer loop
vertex 0.0299999993294477 0 0
vertex 0.0381320714950562 -0.948456943035126 -0.000758793437853456
vertex 0.0299999993294477 0 0.150000005960464
endloop
endfacet
facet normal 0.707091212272644 0.00662827352061868 0.707091212272644
outer loop
vertex 0.244349643588066 -24.9997959136963 0.169998437166214
vertex 0.233112379908562 -23.6891822814941 0.168950021266937
vertex 0.109998062252998 -24.9993953704834 0.304346263408661
endloop
endfacet
facet normal 0.707091271877289 0.00662827352061868 0.707091271877289
outer loop
vertex 0.10580413043499 -23.6887893676758 0.296254575252533
vertex 0.109998062252998 -24.9993953704834 0.304346263408661
vertex 0.233112379908562 -23.6891822814941 0.168950021266937
endloop
endfacet
facet normal 0.707091212272644 0.00662827352061868 0.707091212272644
outer loop
vertex 0.233112379908562 -23.6891822814941 0.168950021266937
vertex 0.211963012814522 -21.2225131988525 0.166976824402809
vertex 0.10580413043499 -23.6887893676758 0.296254575252533
endloop
endfacet
facet normal 0.707091271877289 0.00662827352061868 0.707091271877289
outer loop
vertex 0.09791100025177 -21.222188949585 0.281025797128677
vertex 0.10580413043499 -23.6887893676758 0.296254575252533
vertex 0.211963012814522 -21.2225131988525 0.166976824402809
endloop
endfacet
facet normal 0.707091271877289 0.00662827352061868 0.707091271877289
outer loop
vertex 0.09791100025177 -21.222188949585 0.281025797128677
vertex 0.211963012814522 -21.2225131988525 0.166976824402809
vertex 0.0866131111979485 -17.6915969848633 0.259227931499481
endloop
endfacet
facet normal 0.707091271877289 0.00662827352061868 0.707091271877289
outer loop
vertex 0.181691020727158 -17.6918621063232 0.164152503013611
vertex 0.0866131111979485 -17.6915969848633 0.259227931499481
vertex 0.211963012814522 -21.2225131988525 0.166976824402809
endloop
endfacet
facet normal 0.707091271877289 0.00662827305495739 0.707091271877289
outer loop
vertex 0.181691020727158 -17.6918621063232 0.164152503013611
vertex 0.151352807879448 -14.1534900665283 0.161321997642517
vertex 0.0866131111979485 -17.6915969848633 0.259227931499481
endloop
endfacet
facet normal 0.707091271877289 0.00662827398627996 0.707091271877289
outer loop
vertex 0.0752904862165451 -14.1532773971558 0.237382337450981
vertex 0.0866131111979485 -17.6915969848633 0.259227931499481
vertex 0.151352807879448 -14.1534900665283 0.161321997642517
endloop
endfacet
facet normal 0.707091271877289 0.00662827398627996 0.707091271877289
outer loop
vertex 0.0752904862165451 -14.1532773971558 0.237382337450981
vertex 0.151352807879448 -14.1534900665283 0.161321997642517
vertex 0.0639678686857224 -10.6149578094482 0.215536743402481
endloop
endfacet
facet normal 0.707091271877289 0.00662827398627996 0.707091271877289
outer loop
vertex 0.121014609932899 -10.6151170730591 0.158491507172585
vertex 0.0639678686857224 -10.6149578094482 0.215536743402481
vertex 0.151352807879448 -14.1534900665283 0.161321997642517
endloop
endfacet
facet normal 0.707091271877289 0.00662827398627996 0.707091271877289
outer loop
vertex 0.121014609932899 -10.6151170730591 0.158491507172585
vertex 0.0906764045357704 -7.07674503326416 0.155661001801491
vertex 0.0639678686857224 -10.6149578094482 0.215536743402481
endloop
endfacet
facet normal 0.707091271877289 0.00662827398627996 0.707091271877289
outer loop
vertex 0.052645243704319 -7.07663869857788 0.193691164255142
vertex 0.0639678686857224 -10.6149578094482 0.215536743402481
vertex 0.0906764045357704 -7.07674503326416 0.155661001801491
endloop
endfacet
facet normal 0.707091271877289 0.00662827398627996 0.707091271877289
outer loop
vertex 0.052645243704319 -7.07663869857788 0.193691164255142
vertex 0.0906764045357704 -7.07674503326416 0.155661001801491
vertex 0.0413226224482059 -3.53831934928894 0.171845585107803
endloop
endfacet
facet normal 0.707091271877289 0.00662827398627996 0.707091271877289
outer loop
vertex 0.0603382028639317 -3.53837251663208 0.152830496430397
vertex 0.0413226224482059 -3.53831934928894 0.171845585107803
vertex 0.0906764045357704 -7.07674503326416 0.155661001801491
endloop
endfacet
facet normal 0.707091271877289 0.00662827398627996 0.707091271877289
outer loop
vertex 0.0413226224482059 -3.53831934928894 0.171845585107803
vertex 0.0603382028639317 -3.53837251663208 0.152830496430397
vertex 0.0299999993294477 0 0.150000005960464
endloop
endfacet
facet normal 0.707093775272369 0.00606262218207121 -0.707093775272369
outer loop
vertex 0.27467930316925 -28.5373554229736 -0.0199999995529652
vertex 0.255664944648743 -28.5375156402588 -0.0390157178044319
vertex 0.244342118501663 -24.999080657959 -0.0199999995529652
endloop
endfacet
facet normal 0.707093775272369 0.00606262218207121 -0.707093775272369
outer loop
vertex 0.305016458034515 -32.0756301879883 -0.0199999995529652
vertex 0.266987770795822 -32.0759506225586 -0.058031439781189
vertex 0.27467930316925 -28.5373554229736 -0.0199999995529652
endloop
endfacet
facet normal 0.707093775272369 0.00606262218207121 -0.707093775272369
outer loop
vertex 0.255664944648743 -28.5375156402588 -0.0390157178044319
vertex 0.27467930316925 -28.5373554229736 -0.0199999995529652
vertex 0.266987770795822 -32.0759506225586 -0.058031439781189
endloop
endfacet
facet normal 0.707093775272369 0.00606262218207121 -0.707093775272369
outer loop
vertex 0.305016458034515 -32.0756301879883 -0.0199999995529652
vertex 0.33535361289978 -35.6139068603516 -0.0199999995529652
vertex 0.266987770795822 -32.0759506225586 -0.058031439781189
endloop
endfacet
facet normal 0.707093775272369 0.00606262171640992 -0.707093775272369
outer loop
vertex 0.278310567140579 -35.6143836975098 -0.0770471543073654
vertex 0.266987770795822 -32.0759506225586 -0.058031439781189
vertex 0.33535361289978 -35.6139068603516 -0.0199999995529652
endloop
endfacet
facet normal 0.707093775272369 0.00606262171640992 -0.707093775272369
outer loop
vertex 0.278310567140579 -35.6143836975098 -0.0770471543073654
vertex 0.33535361289978 -35.6139068603516 -0.0199999995529652
vertex 0.289633393287659 -39.1528205871582 -0.0960628762841225
endloop
endfacet
facet normal 0.707093775272369 0.00606262218207121 -0.707093775272369
outer loop
vertex 0.365690797567368 -39.1521797180176 -0.0199999995529652
vertex 0.289633393287659 -39.1528205871582 -0.0960628762841225
vertex 0.33535361289978 -35.6139068603516 -0.0199999995529652
endloop
endfacet
facet normal 0.707093775272369 0.00606262218207121 -0.707093775272369
outer loop
vertex 0.365690797567368 -39.1521797180176 -0.0199999995529652
vertex 0.396027952432632 -42.6904563903809 -0.0199999995529652
vertex 0.289633393287659 -39.1528205871582 -0.0960628762841225
endloop
endfacet
facet normal 0.707093775272369 0.00606262218207121 -0.707093775272369
outer loop
vertex 0.300956219434738 -42.6912536621094 -0.11507859826088
vertex 0.289633393287659 -39.1528205871582 -0.0960628762841225
vertex 0.396027952432632 -42.6904563903809 -0.0199999995529652
endloop
endfacet
facet normal 0.707093775272369 0.00606262218207121 -0.707093775272369
outer loop
vertex 0.426298886537552 -46.2210006713867 -0.0199999995529652
vertex 0.312254309654236 -46.2219657897949 -0.134052813053131
vertex 0.396027952432632 -42.6904563903809 -0.0199999995529652
endloop
endfacet
facet normal 0.707093775272369 0.00606262218207121 -0.707093775272369
outer loop
vertex 0.300956219434738 -42.6912536621094 -0.11507859826088
vertex 0.396027952432632 -42.6904563903809 -0.0199999995529652
vertex 0.312254309654236 -46.2219657897949 -0.134052813053131
endloop
endfacet
facet normal 0.707093834877014 0.00606262218207121 -0.707093834877014
outer loop
vertex 0.426298886537552 -46.2210006713867 -0.0199999995529652
vertex 0.447447240352631 -48.687572479248 -0.0199999995529652
vertex 0.312254309654236 -46.2219657897949 -0.134052813053131
endloop
endfacet
facet normal 0.707093775272369 0.00606262218207121 -0.707093775272369
outer loop
vertex 0.320147693157196 -48.6886787414551 -0.147309049963951
vertex 0.312254309654236 -46.2219657897949 -0.134052813053131
vertex 0.447447240352631 -48.687572479248 -0.0199999995529652
endloop
endfacet
facet normal 0.707093775272369 0.00606262218207121 -0.707093775272369
outer loop
vertex 0.447447240352631 -48.687572479248 -0.0199999995529652
vertex 0.458684235811234 -49.998161315918 -0.0199999995529652
vertex 0.320147693157196 -48.6886787414551 -0.147309049963951
endloop
endfacet
facet normal 0.707093775272369 0.00606262171640992 -0.707093775272369
outer loop
vertex 0.324341654777527 -49.9993133544922 -0.154352471232414
vertex 0.320147693157196 -48.6886787414551 -0.147309049963951
vertex 0.458684235811234 -49.998161315918 -0.0199999995529652
endloop
endfacet
facet normal 0.217128172516823 0.67295891046524 -0.707093775272369
outer loop
vertex 44.3874969482422 -43.8156929016113 -0.234341651201248
vertex 44.3440551757813 -43.9428367614746 -0.368684232234955
vertex 43.1414527893066 -43.4092559814453 -0.230147674679756
endloop
endfacet
facet normal 0.217128202319145 0.67295891046524 -0.707093775272369
outer loop
vertex 43.1002769470215 -43.529727935791 -0.357447266578674
vertex 43.1414527893066 -43.4092559814453 -0.230147674679756
vertex 44.3440551757813 -43.9428367614746 -0.368684232234955
endloop
endfacet
facet normal 0.217128172516823 0.67295891046524 -0.707093775272369
outer loop
vertex 43.1414527893066 -43.4092559814453 -0.230147674679756
vertex 43.1002769470215 -43.529727935791 -0.357447266578674
vertex 40.7963066101074 -42.6443099975586 -0.222254320979118
endloop
endfacet
facet normal 0.217128187417984 0.672958970069885 -0.707093834877014
outer loop
vertex 40.7594451904297 -42.7522430419922 -0.336298882961273
vertex 40.7963066101074 -42.6443099975586 -0.222254320979118
vertex 43.1002769470215 -43.529727935791 -0.357447266578674
endloop
endfacet
facet normal 0.217128187417984 0.672958970069885 -0.707093775272369
outer loop
vertex 40.7594451904297 -42.7522430419922 -0.336298882961273
vertex 37.4088745117188 -41.6393852233887 -0.306027948856354
vertex 40.7963066101074 -42.6443099975586 -0.222254320979118
endloop
endfacet
facet normal 0.217128202319145 0.67295891046524 -0.707093834877014
outer loop
vertex 37.4396018981934 -41.5494041442871 -0.210956215858459
vertex 40.7963066101074 -42.6443099975586 -0.222254320979118
vertex 37.4088745117188 -41.6393852233887 -0.306027948856354
endloop
endfacet
facet normal 0.217128187417984 0.672958970069885 -0.707093775272369
outer loop
vertex 37.4396018981934 -41.5494041442871 -0.210956215858459
vertex 37.4088745117188 -41.6393852233887 -0.306027948856354
vertex 34.075553894043 -40.4521102905273 -0.19963338971138
endloop
endfacet
facet normal 0.217128187417984 0.67295891046524 -0.707093775272369
outer loop
vertex 34.0509719848633 -40.5240936279297 -0.275690793991089
vertex 34.075553894043 -40.4521102905273 -0.19963338971138
vertex 37.4088745117188 -41.6393852233887 -0.306027948856354
endloop
endfacet
facet normal 0.217128187417984 0.67295891046524 -0.707093775272369
outer loop
vertex 34.0509719848633 -40.5240936279297 -0.275690793991089
vertex 30.6930694580078 -39.4087982177734 -0.245353624224663
vertex 34.075553894043 -40.4521102905273 -0.19963338971138
endloop
endfacet
facet normal 0.217128187417984 0.67295891046524 -0.707093775272369
outer loop
vertex 30.7115058898926 -39.3548126220703 -0.188310578465462
vertex 34.075553894043 -40.4521102905273 -0.19963338971138
vertex 30.6930694580078 -39.4087982177734 -0.245353624224663
endloop
endfacet
facet normal 0.217128187417984 0.67295891046524 -0.707093775272369
outer loop
vertex 30.7115058898926 -39.3548126220703 -0.188310578465462
vertex 30.6930694580078 -39.4087982177734 -0.245353624224663
vertex 27.3474578857422 -38.2575149536133 -0.176987752318382
endloop
endfacet
facet normal 0.217128187417984 0.67295891046524 -0.707093775272369
outer loop
vertex 27.3351669311523 -38.2935066223145 -0.215016454458237
vertex 27.3474578857422 -38.2575149536133 -0.176987752318382
vertex 30.6930694580078 -39.4087982177734 -0.245353624224663
endloop
endfacet
facet normal 0.217128187417984 0.67295891046524 -0.707093775272369
outer loop
vertex 27.3351669311523 -38.2935066223145 -0.215016454458237
vertex 23.9772644042969 -37.1782150268555 -0.184679284691811
vertex 27.3474578857422 -38.2575149536133 -0.176987752318382
endloop
endfacet
facet normal 0.217128187417984 0.67295891046524 -0.707093775272369
outer loop
vertex 23.9834098815918 -37.1602172851563 -0.165664941072464
vertex 27.3474578857422 -38.2575149536133 -0.176987752318382
vertex 23.9772644042969 -37.1782150268555 -0.184679284691811
endloop
endfacet
facet normal 0.217128187417984 0.67295891046524 -0.707093775272369
outer loop
vertex 23.9772644042969 -37.1782150268555 -0.184679284691811
vertex 20.6193618774414 -36.0629196166992 -0.154342114925385
vertex 23.9834098815918 -37.1602172851563 -0.165664941072464
endloop
endfacet
endsolid COMSOL mesh mesh1
