solid COMSOL mesh mesh1
facet normal -0.0121912425383925 0.999925673007965 0
outer loop
vertex 0 0 0
vertex -0.944622278213501 -0.0115169752389193 -0.000472346262540668
vertex 0 0 0.150000005960464
endloop
endfacet
facet normal -0.0121912425383925 0.999925673007965 1.75834576903785e-17
outer loop
vertex -0.944622278213501 -0.0115169752389193 0.150472342967987
vertex 0 0 0.150000005960464
vertex -0.944622278213501 -0.0115169752389193 -0.000472346262540668
endloop
endfacet
facet normal -0.01219124160707 0.999925673007965 1.75834576903785e-17
outer loop
vertex -0.944622278213501 -0.0115169752389193 0.150472342967987
vertex -0.944622278213501 -0.0115169752389193 -0.000472346262540668
vertex -2.4013397693634 -0.029277490451932 0.151200756430626
endloop
endfacet
facet normal -0.0121912425383925 0.99992573261261 1.65522447079332e-17
outer loop
vertex -2.4013397693634 -0.029277490451932 -0.00120075908489525
vertex -2.4013397693634 -0.029277490451932 0.151200756430626
vertex -0.944622278213501 -0.0115169752389193 -0.000472346262540668
endloop
endfacet
facet normal -0.0121912425383925 0.99992573261261 -2.31165382909172e-17
outer loop
vertex -4.64776706695557 -0.0566662661731243 0.152324050664902
vertex -2.4013397693634 -0.029277490451932 0.151200756430626
vertex -4.64776706695557 -0.0566662661731243 -0.00232405634596944
endloop
endfacet
facet normal -0.01219124160707 0.999925673007965 1.65522430535719e-17
outer loop
vertex -2.4013397693634 -0.029277490451932 -0.00120075908489525
vertex -4.64776706695557 -0.0566662661731243 -0.00232405634596944
vertex -2.4013397693634 -0.029277490451932 0.151200756430626
endloop
endfacet
facet normal -0.0121912425383925 0.99992573261261 -2.31165366365559e-17
outer loop
vertex -4.64776706695557 -0.0566662661731243 0.152324050664902
vertex -4.64776706695557 -0.0566662661731243 -0.00232405634596944
vertex -8.11828517913818 -0.0989793390035629 0.154059439897537
endloop
endfacet
facet normal -0.0121912434697151 0.99992573261261 -2.3137713452854e-16
outer loop
vertex -8.11828517913818 -0.0989793390035629 -0.00405944418162107
vertex -8.11828517913818 -0.0989793390035629 0.154059439897537
vertex -4.64776706695557 -0.0566662661731243 -0.00232405634596944
endloop
endfacet
facet normal -0.0121912425383925 0.999925673007965 -2.3137713452854e-16
outer loop
vertex -8.11828517913818 -0.0989793390035629 0.154059439897537
vertex -8.11828517913818 -0.0989793390035629 -0.00405944418162107
vertex -12.3515901565552 -0.150592416524887 0.156176254153252
endloop
endfacet
facet normal -0.0121912425383925 0.999925673007965 1.37265394871704e-16
outer loop
vertex -12.3515901565552 -0.150592416524887 -0.00617625424638391
vertex -12.3515901565552 -0.150592416524887 0.156176254153252
vertex -8.11828517913818 -0.0989793390035629 -0.00405944418162107
endloop
endfacet
facet normal -0.0121912434697151 0.99992573261261 -3.28246608320845e-17
outer loop
vertex -16.5848941802979 -0.202205508947372 0.158293068408966
vertex -12.3515901565552 -0.150592416524887 0.156176254153252
vertex -16.5848941802979 -0.202205508947372 -0.00829306337982416
endloop
endfacet
facet normal -0.0121912425383925 0.999925673007965 1.37265394871704e-16
outer loop
vertex -12.3515901565552 -0.150592416524887 -0.00617625424638391
vertex -16.5848941802979 -0.202205508947372 -0.00829306337982416
vertex -12.3515901565552 -0.150592416524887 0.156176254153252
endloop
endfacet
facet normal -0.0121912434697151 0.99992573261261 -3.28246608320845e-17
outer loop
vertex -16.5848941802979 -0.202205508947372 0.158293068408966
vertex -16.5848941802979 -0.202205508947372 -0.00829306337982416
vertex -20.8181991577148 -0.253818601369858 0.160409867763519
endloop
endfacet
facet normal -0.0121912425383925 0.999925673007965 3.93801002737918e-17
outer loop
vertex -20.8181991577148 -0.253818601369858 -0.0104098739102483
vertex -20.8181991577148 -0.253818601369858 0.160409867763519
vertex -16.5848941802979 -0.202205508947372 -0.00829306337982416
endloop
endfacet
facet normal -0.0121912425383925 0.999925673007965 3.93801002737918e-17
outer loop
vertex -20.8181991577148 -0.253818601369858 0.160409867763519
vertex -20.8181991577148 -0.253818601369858 -0.0104098739102483
vertex -24.6352596282959 -0.30035674571991 0.162318542599678
endloop
endfacet
facet normal -0.0121912434697151 0.999925673007965 3.56361451637563e-16
outer loop
vertex -24.6352596282959 -0.30035674571991 -0.0123185450211167
vertex -24.6352596282959 -0.30035674571991 0.162318542599678
vertex -20.8181991577148 -0.253818601369858 -0.0104098739102483
endloop
endfacet
facet normal -0.0121912425383925 0.999925673007965 4.88857759848649e-16
outer loop
vertex -27.1946983337402 -0.331561803817749 0.163598358631134
vertex -24.6352596282959 -0.30035674571991 0.162318542599678
vertex -27.1946983337402 -0.331561803817749 -0.0135983601212502
endloop
endfacet
facet normal -0.01219124160707 0.999925673007965 3.56361425167783e-16
outer loop
vertex -24.6352596282959 -0.30035674571991 -0.0123185450211167
vertex -27.1946983337402 -0.331561803817749 -0.0135983601212502
vertex -24.6352596282959 -0.30035674571991 0.162318542599678
endloop
endfacet
facet normal -0.0121912434697151 0.99992573261261 0
outer loop
vertex -28.8834762573242 -0.35215163230896 0.164442807435989
vertex -27.1946983337402 -0.331561803817749 0.163598358631134
vertex -28.8834762573242 -0.35215163230896 -0.0144428107887506
endloop
endfacet
facet normal -0.0121912425383925 0.99992573261261 4.88857759848649e-16
outer loop
vertex -27.1946983337402 -0.331561803817749 -0.0135983601212502
vertex -28.8834762573242 -0.35215163230896 -0.0144428107887506
vertex -27.1946983337402 -0.331561803817749 0.163598358631134
endloop
endfacet
facet normal -0.0121912425383925 0.999925673007965 0
outer loop
vertex -28.8834762573242 -0.35215163230896 0.164442807435989
vertex -28.8834762573242 -0.35215163230896 -0.0144428107887506
vertex -29.9977703094482 -0.365737289190292 0.165000006556511
endloop
endfacet
facet normal -0.0121912425383925 0.99992561340332 0
outer loop
vertex -29.9977703094482 -0.365737289190292 -0.0149999996647239
vertex -29.9977703094482 -0.365737289190292 0.165000006556511
vertex -28.8834762573242 -0.35215163230896 -0.0144428107887506
endloop
endfacet
facet normal 0.000442222342826426 0.00474150758236647 0.999988675117493
outer loop
vertex -26.9091339111328 -3.4245593547821 0.178137719631195
vertex -26.8907833099365 -3.40602564811707 0.178041711449623
vertex -29.9977703094482 -0.365737289190292 0.165000006556511
endloop
endfacet
facet normal 0.000442222342826426 0.00474150758236647 0.999988675117493
outer loop
vertex -23.8204975128174 -6.48338174819946 0.191275417804718
vertex -23.7837944030762 -6.44631385803223 0.191083431243896
vertex -26.9091339111328 -3.4245593547821 0.178137719631195
endloop
endfacet
facet normal 0.000442222342826426 0.00474150758236647 0.999988675117493
outer loop
vertex -26.8907833099365 -3.40602564811707 0.178041711449623
vertex -26.9091339111328 -3.4245593547821 0.178137719631195
vertex -23.7837944030762 -6.44631385803223 0.191083431243896
endloop
endfacet
facet normal 0.000442222342826426 0.00474150758236647 0.999988675117493
outer loop
vertex -23.8204975128174 -6.48338174819946 0.191275417804718
vertex -20.7318592071533 -9.54220390319824 0.204413130879402
vertex -23.7837944030762 -6.44631385803223 0.191083431243896
endloop
endfacet
facet normal 0.000442222342826426 0.00474150758236647 0.999988675117493
outer loop
vertex -20.6768074035645 -9.48660278320313 0.20412515103817
vertex -23.7837944030762 -6.44631385803223 0.191083431243896
vertex -20.7318592071533 -9.54220390319824 0.204413130879402
endloop
endfacet
facet normal 0.000442222342826426 0.00474150758236647 0.999988675117493
outer loop
vertex -17.6432228088379 -12.6010255813599 0.217550843954086
vertex -17.5698184967041 -12.5268907546997 0.217166870832443
vertex -20.7318592071533 -9.54220390319824 0.204413130879402
endloop
endfacet
facet normal 0.000442222342826426 0.00474150758236647 0.999988675117493
outer loop
vertex -20.6768074035645 -9.48660278320313 0.20412515103817
vertex -20.7318592071533 -9.54220390319824 0.204413130879402
vertex -17.5698184967041 -12.5268907546997 0.217166870832443
endloop
endfacet
facet normal 0.000442222342826426 0.00474150758236647 0.999988675117493
outer loop
vertex -17.6432228088379 -12.6010255813599 0.217550843954086
vertex -14.5545864105225 -15.6598482131958 0.23068855702877
vertex -17.5698184967041 -12.5268907546997 0.217166870832443
endloop
endfacet
facet normal 0.000442222342826426 0.00474150711670518 0.999988615512848
outer loop
vertex -14.4628314971924 -15.5671787261963 0.230208590626717
vertex -17.5698184967041 -12.5268907546997 0.217166870832443
vertex -14.5545864105225 -15.6598482131958 0.23068855702877
endloop
endfacet
facet normal 0.000442222342826426 0.00474150758236647 0.999988675117493
outer loop
vertex -11.5126676559448 -18.6724033355713 0.243627548217773
vertex -11.4028301239014 -18.5614891052246 0.243053078651428
vertex -14.5545864105225 -15.6598482131958 0.23068855702877
endloop
endfacet
facet normal 0.000442222342826426 0.00474150758236647 0.999988675117493
outer loop
vertex -14.4628314971924 -15.5671787261963 0.230208590626717
vertex -14.5545864105225 -15.6598482131958 0.23068855702877
vertex -11.4028301239014 -18.5614891052246 0.243053078651428
endloop
endfacet
facet normal 0.000442222313722596 0.00474150711670518 0.999988615512848
outer loop
vertex -11.5126676559448 -18.6724033355713 0.243627548217773
vertex -9.61393642425537 -20.5528049468994 0.251703917980194
vertex -11.4028301239014 -18.5614891052246 0.243053078651428
endloop
endfacet
facet normal 0.000442222342826426 0.00474150758236647 0.999988675117493
outer loop
vertex -9.49280452728271 -20.4305114746094 0.251070499420166
vertex -11.4028301239014 -18.5614891052246 0.243053078651428
vertex -9.61393642425537 -20.5528049468994 0.251703917980194
endloop
endfacet
facet normal 0.000442222371930256 0.00474150758236647 0.999988734722137
outer loop
vertex -9.61393642425537 -20.5528049468994 0.251703917980194
vertex -8.68203258514404 -21.4757137298584 0.255667835474014
vertex -9.49280452728271 -20.4305114746094 0.251070499420166
endloop
endfacet
facet normal 0.000442222313722596 0.00474150711670518 0.999988615512848
outer loop
vertex -8.55537128448486 -21.3478202819824 0.255005419254303
vertex -9.49280452728271 -20.4305114746094 0.251070499420166
vertex -8.68203258514404 -21.4757137298584 0.255667835474014
endloop
endfacet
facet normal -0.707116067409515 0.00441430555656552 0.707083761692047
outer loop
vertex -3.07373642921448 -0.011394296772778 -3.07380557060242
vertex -3.07376742362976 -0.0374758280813694 -3.07367372512817
vertex 0 0 0
endloop
endfacet
facet normal -0.707116067409515 0.00441430555656552 0.707083761692047
outer loop
vertex -6.14747285842896 -0.0227885935455561 -6.14761114120483
vertex -6.14753484725952 -0.0749516561627388 -6.14734745025635
vertex -3.07373642921448 -0.011394296772778 -3.07380557060242
endloop
endfacet
facet normal -0.707116067409515 0.00441430555656552 0.707083761692047
outer loop
vertex -3.07376742362976 -0.0374758280813694 -3.07367372512817
vertex -3.07373642921448 -0.011394296772778 -3.07380557060242
vertex -6.14753484725952 -0.0749516561627388 -6.14734745025635
endloop
endfacet
facet normal -0.707116067409515 0.00441430555656552 0.707083761692047
outer loop
vertex -6.14747285842896 -0.0227885935455561 -6.14761114120483
vertex -9.22120952606201 -0.0341828875243664 -9.22141647338867
vertex -6.14753484725952 -0.0749516561627388 -6.14734745025635
endloop
endfacet
facet normal -0.707116007804871 0.00441430602222681 0.707083761692047
outer loop
vertex -9.2213020324707 -0.112427487969398 -9.22102165222168
vertex -6.14753484725952 -0.0749516561627388 -6.14734745025635
vertex -9.22120952606201 -0.0341828875243664 -9.22141647338867
endloop
endfacet
facet normal -0.707116067409515 0.00441430555656552 0.707083761692047
outer loop
vertex -12.2949457168579 -0.0455771870911121 -12.2952222824097
vertex -12.295069694519 -0.149903312325478 -12.2946949005127
vertex -9.22120952606201 -0.0341828875243664 -9.22141647338867
endloop
endfacet
facet normal -0.707116007804871 0.00441430602222681 0.707083761692047
outer loop
vertex -9.2213020324707 -0.112427487969398 -9.22102165222168
vertex -9.22120952606201 -0.0341828875243664 -9.22141647338867
vertex -12.295069694519 -0.149903312325478 -12.2946949005127
endloop
endfacet
facet normal -0.707116067409515 0.00441430555656552 0.707083761692047
outer loop
vertex -12.2949457168579 -0.0455771870911121 -12.2952222824097
vertex -15.3686819076538 -0.0569714829325676 -15.3690280914307
vertex -12.295069694519 -0.149903312325478 -12.2946949005127
endloop
endfacet
facet normal -0.707116007804871 0.00441430602222681 0.707083702087402
outer loop
vertex -15.3688364028931 -0.187379136681557 -15.368369102478
vertex -12.295069694519 -0.149903312325478 -12.2946949005127
vertex -15.3686819076538 -0.0569714829325676 -15.3690280914307
endloop
endfacet
facet normal -0.707116007804871 0.00441430555656552 0.707083702087402
outer loop
vertex -18.395923614502 -0.0681934282183647 -18.3963375091553
vertex -18.3961181640625 -0.224288210272789 -18.3955574035645
vertex -15.3686819076538 -0.0569714829325676 -15.3690280914307
endloop
endfacet
facet normal -0.707116067409515 0.00441430555656552 0.707083761692047
outer loop
vertex -15.3688364028931 -0.187379136681557 -15.368369102478
vertex -15.3686819076538 -0.0569714829325676 -15.3690280914307
vertex -18.3961181640625 -0.224288210272789 -18.3955574035645
endloop
endfacet
facet normal -0.707116067409515 0.00441430602222681 0.707083761692047
outer loop
vertex -18.395923614502 -0.0681934282183647 -18.3963375091553
vertex -20.2854881286621 -0.0751980096101761 -20.285945892334
vertex -18.3961181640625 -0.224288210272789 -18.3955574035645
endloop
endfacet
facet normal -0.707116007804871 0.00441430602222681 0.707083761692047
outer loop
vertex -20.2857151031494 -0.247326448559761 -20.2850971221924
vertex -18.3961181640625 -0.224288210272789 -18.3955574035645
vertex -20.2854881286621 -0.0751980096101761 -20.285945892334
endloop
endfacet
facet normal -0.707116007804871 0.00441430602222681 0.707083761692047
outer loop
vertex -20.2854881286621 -0.0751980096101761 -20.285945892334
vertex -21.2128925323486 -0.0786358863115311 -21.2133693695068
vertex -20.2857151031494 -0.247326448559761 -20.2850971221924
endloop
endfacet
facet normal -0.707116067409515 0.00441430602222681 0.707083761692047
outer loop
vertex -21.2131195068359 -0.258633524179459 -21.212474822998
vertex -20.2857151031494 -0.247326448559761 -20.2850971221924
vertex -21.2128925323486 -0.0786358863115311 -21.2133693695068
endloop
endfacet
facet normal 0.707091927528381 0.00582834985107183 -0.707097589969635
outer loop
vertex 0 0 0
vertex 0.000232273683650419 -0.0299990978091955 -1.49998895722092e-05
vertex -0.145440936088562 -0.000539147469680756 -0.145444214344025
endloop
endfacet
facet normal 0.707091927528381 0.00582834985107183 -0.707097589969635
outer loop
vertex -0.145200699567795 -0.0315666496753693 -0.145459726452827
vertex -0.145440936088562 -0.000539147469680756 -0.145444214344025
vertex 0.000232273683650419 -0.0299990978091955 -1.49998895722092e-05
endloop
endfacet
facet normal 0.707091927528381 0.00582834985107183 -0.707097589969635
outer loop
vertex -0.145440936088562 -0.000539147469680756 -0.145444214344025
vertex -0.145200699567795 -0.0315666496753693 -0.145459726452827
vertex -0.395142316818237 -0.00146478693932295 -0.395151227712631
endloop
endfacet
facet normal 0.707091927528381 0.00582834985107183 -0.707097589969635
outer loop
vertex -0.394888430833817 -0.0342579111456871 -0.395167618989944
vertex -0.395142316818237 -0.00146478693932295 -0.395151227712631
vertex -0.145200699567795 -0.0315666496753693 -0.145459726452827
endloop
endfacet
facet normal 0.707091927528381 0.00582834985107183 -0.70709764957428
outer loop
vertex -0.823844075202942 -0.00305397808551788 -0.823862612247467
vertex -0.395142316818237 -0.00146478693932295 -0.395151227712631
vertex -0.823566675186157 -0.0388784259557724 -0.823880553245544
endloop
endfacet
facet normal 0.707091927528381 0.00582835031673312 -0.707097589969635
outer loop
vertex -0.394888430833817 -0.0342579111456871 -0.395167618989944
vertex -0.823566675186157 -0.0388784259557724 -0.823880553245544
vertex -0.395142316818237 -0.00146478693932295 -0.395151227712631
endloop
endfacet
facet normal 0.707091927528381 0.00582835031673312 -0.707097589969635
outer loop
vertex -1.55986392498016 -0.00578239280730486 -1.55989909172058
vertex -0.823844075202942 -0.00305397808551788 -0.823862612247467
vertex -1.55954623222351 -0.0468111895024776 -1.55991959571838
endloop
endfacet
facet normal 0.707091927528381 0.00582835031673312 -0.70709764957428
outer loop
vertex -0.823566675186157 -0.0388784259557724 -0.823880553245544
vertex -1.55954623222351 -0.0468111895024776 -1.55991959571838
vertex -0.823844075202942 -0.00305397808551788 -0.823862612247467
endloop
endfacet
facet normal 0.707091927528381 0.00582834985107183 -0.70709764957428
outer loop
vertex -1.55986392498016 -0.00578239280730486 -1.55989909172058
vertex -1.55954623222351 -0.0468111895024776 -1.55991959571838
vertex -2.82350516319275 -0.010466692969203 -2.82356882095337
endloop
endfacet
facet normal 0.707091867923737 0.00582834985107183 -0.707097589969635
outer loop
vertex -2.82311844825745 -0.0604306161403656 -2.82359385490417
vertex -2.82350516319275 -0.010466692969203 -2.82356882095337
vertex -1.55954623222351 -0.0468111895024776 -1.55991959571838
endloop
endfacet
facet normal 0.707091927528381 0.00582835031673312 -0.707097589969635
outer loop
vertex -4.99299764633179 -0.0185089688748121 -4.99311017990112
vertex -2.82350516319275 -0.010466692969203 -2.82356882095337
vertex -4.99249172210693 -0.0838132351636887 -4.99314260482788
endloop
endfacet
facet normal 0.707091927528381 0.00582835031673312 -0.70709764957428
outer loop
vertex -2.82311844825745 -0.0604306161403656 -2.82359385490417
vertex -4.99249172210693 -0.0838132351636887 -4.99314260482788
vertex -2.82350516319275 -0.010466692969203 -2.82356882095337
endloop
endfacet
facet normal 0.707091927528381 0.00582834985107183 -0.707097589969635
outer loop
vertex -4.99299764633179 -0.0185089688748121 -4.99311017990112
vertex -4.99249172210693 -0.0838132351636887 -4.99314260482788
vertex -8.070481300354 -0.0299171600490808 -8.07066345214844
endloop
endfacet
facet normal 0.707091927528381 0.00582834985107183 -0.707097589969635
outer loop
vertex -8.06980800628662 -0.116982124745846 -8.07070732116699
vertex -8.070481300354 -0.0299171600490808 -8.07066345214844
vertex -4.99249172210693 -0.0838132351636887 -4.99314260482788
endloop
endfacet
facet normal 0.707091927528381 0.00582835078239441 -0.70709764957428
outer loop
vertex -8.070481300354 -0.0299171600490808 -8.07066345214844
vertex -8.06980800628662 -0.116982124745846 -8.07070732116699
vertex -11.1747274398804 -0.0414245538413525 -11.1749792098999
endloop
endfacet
facet normal 0.707091867923737 0.00582834985107183 -0.70709764957428
outer loop
vertex -11.1738834381104 -0.150439441204071 -11.1750335693359
vertex -11.1747274398804 -0.0414245538413525 -11.1749792098999
vertex -8.06980800628662 -0.116982124745846 -8.07070732116699
endloop
endfacet
facet normal 0.707091867923737 0.00582834985107183 -0.70709764957428
outer loop
vertex -11.1747274398804 -0.0414245538413525 -11.1749792098999
vertex -11.1738834381104 -0.150439441204071 -11.1750335693359
vertex -14.2789735794067 -0.0529319494962692 -14.2792949676514
endloop
endfacet
facet normal 0.707091927528381 0.00582835031673312 -0.70709764957428
outer loop
vertex -14.2779598236084 -0.183896765112877 -14.2793607711792
vertex -14.2789735794067 -0.0529319494962692 -14.2792949676514
vertex -11.1738834381104 -0.150439441204071 -11.1750335693359
endloop
endfacet
facet normal 0.707091927528381 0.00582834938541055 -0.707097589969635
outer loop
vertex -17.1937084197998 -0.0637368261814117 -17.1940956115723
vertex -14.2789735794067 -0.0529319494962692 -14.2792949676514
vertex -17.1925354003906 -0.215311542153358 -17.1941719055176
endloop
endfacet
facet normal 0.707091867923737 0.00582834938541055 -0.707097589969635
outer loop
vertex -14.2779598236084 -0.183896765112877 -14.2793607711792
vertex -17.1925354003906 -0.215311542153358 -17.1941719055176
vertex -14.2789735794067 -0.0529319494962692 -14.2792949676514
endloop
endfacet
facet normal 0.707091927528381 0.00582834985107183 -0.707097589969635
outer loop
vertex -17.1937084197998 -0.0637368261814117 -17.1940956115723
vertex -17.1925354003906 -0.215311542153358 -17.1941719055176
vertex -19.1558246612549 -0.0710103660821915 -19.1562557220459
endloop
endfacet
facet normal 0.707091927528381 0.00582834985107183 -0.707097589969635
outer loop
vertex -19.1545429229736 -0.236459076404572 -19.1563377380371
vertex -19.1558246612549 -0.0710103660821915 -19.1562557220459
vertex -17.1925354003906 -0.215311542153358 -17.1941719055176
endloop
endfacet
facet normal 0.707091927528381 0.00582834985107183 -0.70709753036499
outer loop
vertex -20.4105682373047 -0.0756616815924644 -20.4110279083252
vertex -19.1558246612549 -0.0710103660821915 -19.1562557220459
vertex -20.4092178344727 -0.249982610344887 -20.4111156463623
endloop
endfacet
facet normal 0.707091927528381 0.00582835031673312 -0.707097589969635
outer loop
vertex -19.1545429229736 -0.236459076404572 -19.1563377380371
vertex -20.4092178344727 -0.249982610344887 -20.4111156463623
vertex -19.1558246612549 -0.0710103660821915 -19.1562557220459
endloop
endfacet
facet normal 0.707091927528381 0.00582835031673312 -0.707097589969635
outer loop
vertex -20.4105682373047 -0.0756616815924644 -20.4110279083252
vertex -20.4092178344727 -0.249982610344887 -20.4111156463623
vertex -21.2129573822021 -0.0786361321806908 -21.213436126709
endloop
endfacet
facet normal 0.707091927528381 0.00582834985107183 -0.70709764957428
outer loop
vertex -21.2115650177002 -0.258630722761154 -21.2135257720947
vertex -21.2129573822021 -0.0786361321806908 -21.213436126709
vertex -20.4092178344727 -0.249982610344887 -20.4111156463623
endloop
endfacet
facet normal -0.323230594396591 -0.946320176124573 0
outer loop
vertex -3.79685831069946 -33.7936782836914 0.0599999986588955
vertex -3.60221266746521 -33.8601608276367 0.0594857819378376
vertex -3.79685831069946 -33.7936782836914 0.0900000035762787
endloop
endfacet
facet normal -0.323230564594269 -0.946320235729218 -1.38785484434011e-14
outer loop
vertex -3.60221266746521 -33.8601608276367 0.0905142202973366
vertex -3.79685831069946 -33.7936782836914 0.0900000035762787
vertex -3.60221266746521 -33.8601608276367 0.0594857819378376
endloop
endfacet
facet normal -0.323230594396591 -0.946320235729218 5.80094511922619e-13
outer loop
vertex -3.26803374290466 -33.9743041992188 0.0913970544934273
vertex -3.60221266746521 -33.8601608276367 0.0905142202973366
vertex -3.26803374290466 -33.9743041992188 0.0586029440164566
endloop
endfacet
facet normal -0.323230594396591 -0.946320235729218 -1.38785484434011e-14
outer loop
vertex -3.60221266746521 -33.8601608276367 0.0594857819378376
vertex -3.26803374290466 -33.9743041992188 0.0586029440164566
vertex -3.60221266746521 -33.8601608276367 0.0905142202973366
endloop
endfacet
facet normal -0.323230564594269 -0.946320235729218 5.80094511922619e-13
outer loop
vertex -3.26803374290466 -33.9743041992188 0.0913970544934273
vertex -3.26803374290466 -33.9743041992188 0.0586029440164566
vertex -2.69429612159729 -34.1702728271484 0.0929127633571625
endloop
endfacet
facet normal -0.323230564594269 -0.946320295333862 -2.00336522680278e-14
outer loop
vertex -2.69429612159729 -34.1702728271484 0.0570872388780117
vertex -2.69429612159729 -34.1702728271484 0.0929127633571625
vertex -3.26803374290466 -33.9743041992188 0.0586029440164566
endloop
endfacet
facet normal -0.323230594396591 -0.946320235729218 -2.00336522680278e-14
outer loop
vertex -2.69429612159729 -34.1702728271484 0.0929127633571625
vertex -2.69429612159729 -34.1702728271484 0.0570872388780117
vertex -1.70927011966705 -34.5067253112793 0.0955150127410889
endloop
endfacet
facet normal -0.323230594396591 -0.946320235729218 -6.29728474227376e-14
outer loop
vertex -1.70927011966705 -34.5067253112793 0.054484985768795
vertex -1.70927011966705 -34.5067253112793 0.0955150127410889
vertex -2.69429612159729 -34.1702728271484 0.0570872388780117
endloop
endfacet
facet normal -0.323230594396591 -0.946320235729218 2.05405123790935e-13
outer loop
vertex -0.0181207060813904 -35.0843620300293 0.0999827161431313
vertex -1.70927011966705 -34.5067253112793 0.0955150127410889
vertex -0.0181207060813904 -35.0843620300293 0.0500172860920429
endloop
endfacet
facet normal -0.323230594396591 -0.946320295333862 -6.29728541990011e-14
outer loop
vertex -1.70927011966705 -34.5067253112793 0.054484985768795
vertex -0.0181207060813904 -35.0843620300293 0.0500172860920429
vertex -1.70927011966705 -34.5067253112793 0.0955150127410889
endloop
endfacet
facet normal -0.323230594396591 -0.946320235729218 2.05405110238407e-13
outer loop
vertex -0.0181207060813904 -35.0843620300293 0.0999827161431313
vertex -0.0181207060813904 -35.0843620300293 0.0500172860920429
vertex 2.88534212112427 -36.0760879516602 0.107653118669987
endloop
endfacet
facet normal -0.323230594396591 -0.946320176124573 -4.83560369209709e-14
outer loop
vertex 2.88534212112427 -36.0760879516602 0.0423468835651875
vertex 2.88534212112427 -36.0760879516602 0.107653118669987
vertex -0.0181207060813904 -35.0843620300293 0.0500172860920429
endloop
endfacet
facet normal -0.323230564594269 -0.946320235729218 -4.83560369209709e-14
outer loop
vertex 2.88534212112427 -36.0760879516602 0.0423468835651875
vertex 7.00398349761963 -37.4828758239746 0.0314662083983421
vertex 2.88534212112427 -36.0760879516602 0.107653118669987
endloop
endfacet
facet normal -0.323230564594269 -0.946320176124573 3.43628019105775e-14
outer loop
vertex 7.00398349761963 -37.4828758239746 0.118533790111542
vertex 2.88534212112427 -36.0760879516602 0.107653118669987
vertex 7.00398349761963 -37.4828758239746 0.0314662083983421
endloop
endfacet
facet normal -0.323230564594269 -0.946320235729218 1.42770147646461e-14
outer loop
vertex 11.1584405899048 -38.9018936157227 0.129509091377258
vertex 7.00398349761963 -37.4828758239746 0.118533790111542
vertex 11.1584405899048 -38.9018936157227 0.0204909145832062
endloop
endfacet
facet normal -0.323230564594269 -0.946320235729218 3.43628019105775e-14
outer loop
vertex 7.00398349761963 -37.4828758239746 0.0314662083983421
vertex 11.1584405899048 -38.9018936157227 0.0204909145832062
vertex 7.00398349761963 -37.4828758239746 0.118533790111542
endloop
endfacet
facet normal -0.323230564594269 -0.946320235729218 1.42770147646461e-14
outer loop
vertex 11.1584405899048 -38.9018936157227 0.129509091377258
vertex 11.1584405899048 -38.9018936157227 0.0204909145832062
vertex 15.3128976821899 -40.320915222168 0.140484377741814
endloop
endfacet
facet normal -0.323230534791946 -0.946320176124573 2.06522488997371e-14
outer loop
vertex 15.3128976821899 -40.320915222168 0.00951562076807022
vertex 15.3128976821899 -40.320915222168 0.140484377741814
vertex 11.1584405899048 -38.9018936157227 0.0204909145832062
endloop
endfacet
facet normal -0.323230564594269 -0.946320176124573 2.06522488997371e-14
outer loop
vertex 15.3128976821899 -40.320915222168 0.140484377741814
vertex 15.3128976821899 -40.320915222168 0.00951562076807022
vertex 19.2137279510498 -41.6533050537109 0.150789648294449
endloop
endfacet
facet normal -0.323230594396591 -0.946320235729218 6.59917541619148e-14
outer loop
vertex 19.2137279510498 -41.6533050537109 -0.000789641111623496
vertex 19.2137279510498 -41.6533050537109 0.150789648294449
vertex 15.3128976821899 -40.320915222168 0.00951562076807022
endloop
endfacet
facet normal -0.323230594396591 -0.946320235729218 3.3699243075962e-14
outer loop
vertex 21.839656829834 -42.5502319335938 0.157726854085922
vertex 19.2137279510498 -41.6533050537109 0.150789648294449
vertex 21.839656829834 -42.5502319335938 -0.00772684952244163
endloop
endfacet
facet normal -0.323230594396591 -0.946320235729218 6.59917541619148e-14
outer loop
vertex 19.2137279510498 -41.6533050537109 -0.000789641111623496
vertex 21.839656829834 -42.5502319335938 -0.00772684952244163
vertex 19.2137279510498 -41.6533050537109 0.150789648294449
endloop
endfacet
facet normal -0.323230594396591 -0.946320235729218 3.36992396878302e-14
outer loop
vertex 21.839656829834 -42.5502319335938 0.157726854085922
vertex 21.839656829834 -42.5502319335938 -0.00772684952244163
vertex 23.5188980102539 -43.1238021850586 0.162163093686104
endloop
endfacet
facet normal -0.323230564594269 -0.946320176124573 -4.51587653718926e-14
outer loop
vertex 23.5188980102539 -43.1238021850586 -0.0121630905196071
vertex 23.5188980102539 -43.1238021850586 0.162163093686104
vertex 21.839656829834 -42.5502319335938 -0.00772684952244163
endloop
endfacet
facet normal -0.323230564594269 -0.946320235729218 -4.51587653718926e-14
outer loop
vertex 23.5188980102539 -43.1238021850586 0.162163093686104
vertex 23.5188980102539 -43.1238021850586 -0.0121630905196071
vertex 24.5927486419678 -43.490592956543 0.165000006556511
endloop
endfacet
facet normal -0.323230594396591 -0.946320295333862 0
outer loop
vertex 24.5927486419678 -43.490592956543 -0.0149999996647239
vertex 24.5927486419678 -43.490592956543 0.165000006556511
vertex 23.5188980102539 -43.1238021850586 -0.0121630905196071
endloop
endfacet
facet normal 0.00639084121212363 -0.00214910134673119 0.999977290630341
outer loop
vertex 24.6329898834229 -43.3698425292969 -0.142275407910347
vertex 24.6903629302979 -43.1992340087891 -0.142275407910347
vertex 23.5769386291504 -43.0141296386719 -0.134761691093445
endloop
endfacet
facet normal 0.00639084121212363 -0.00214910134673119 0.999977290630341
outer loop
vertex 23.6339550018311 -42.8445739746094 -0.134761691093445
vertex 23.5769386291504 -43.0141296386719 -0.134761691093445
vertex 24.6903629302979 -43.1992340087891 -0.142275407910347
endloop
endfacet
facet normal 0.00639084167778492 -0.00214910134673119 0.999977290630341
outer loop
vertex 23.5769386291504 -43.0141296386719 -0.134761691093445
vertex 23.6339550018311 -42.8445739746094 -0.134761691093445
vertex 21.9764289855957 -42.4750213623047 -0.123374246060848
endloop
endfacet
facet normal 0.00639084121212363 -0.00214910134673119 0.999977290630341
outer loop
vertex 22.0329093933105 -42.3070678710938 -0.123374246060848
vertex 21.9764289855957 -42.4750213623047 -0.123374246060848
vertex 23.6339550018311 -42.8445739746094 -0.134761691093445
endloop
endfacet
facet normal 0.00639084074646235 -0.00214910134673119 0.999977290630341
outer loop
vertex 22.0329093933105 -42.3070678710938 -0.123374246060848
vertex 19.6064300537109 -41.4924468994141 -0.106115914881229
vertex 21.9764289855957 -42.4750213623047 -0.123374246060848
endloop
endfacet
facet normal 0.00639084121212363 -0.00214910134673119 0.999977290630341
outer loop
vertex 19.5507678985596 -41.6579742431641 -0.106115914881229
vertex 21.9764289855957 -42.4750213623047 -0.123374246060848
vertex 19.6064300537109 -41.4924468994141 -0.106115914881229
endloop
endfacet
facet normal 0.00639084121212363 -0.00214910157956183 0.999977290630341
outer loop
vertex 19.5507678985596 -41.6579742431641 -0.106115914881229
vertex 19.6064300537109 -41.4924468994141 -0.106115914881229
vertex 15.933217048645 -40.4394569396973 -0.080377422273159
endloop
endfacet
facet normal 0.00639084121212363 -0.00214910157956183 0.999977231025696
outer loop
vertex 15.9876642227173 -40.2775459289551 -0.080377422273159
vertex 15.933217048645 -40.4394569396973 -0.080377422273159
vertex 19.6064300537109 -41.4924468994141 -0.106115914881229
endloop
endfacet
facet normal 0.00639084074646235 -0.00214910134673119 0.999977231025696
outer loop
vertex 15.933217048645 -40.4394569396973 -0.080377422273159
vertex 15.9876642227173 -40.2775459289551 -0.080377422273159
vertex 11.921178817749 -39.088062286377 -0.0518321879208088
endloop
endfacet
facet normal 0.00639084121212363 -0.00214910134673119 0.999977290630341
outer loop
vertex 11.9742755889893 -38.9301643371582 -0.0518321879208088
vertex 11.921178817749 -39.088062286377 -0.0518321879208088
vertex 15.9876642227173 -40.2775459289551 -0.080377422273159
endloop
endfacet
facet normal 0.00639084121212363 -0.00214910134673119 0.999977290630341
outer loop
vertex 11.9742755889893 -38.9301643371582 -0.0518321879208088
vertex 7.96088743209839 -37.5827827453613 -0.0232869517058134
vertex 11.921178817749 -39.088062286377 -0.0518321879208088
endloop
endfacet
facet normal 0.00639084121212363 -0.00214910134673119 0.999977290630341
outer loop
vertex 7.90913963317871 -37.7366676330566 -0.0232869517058134
vertex 11.921178817749 -39.088062286377 -0.0518321879208088
vertex 7.96088743209839 -37.5827827453613 -0.0232869517058134
endloop
endfacet
facet normal 0.00639084074646235 -0.00214910134673119 0.999977231025696
outer loop
vertex 3.89710068702698 -36.3852691650391 0.00525828590616584
vertex 7.90913963317871 -37.7366676330566 -0.0232869517058134
vertex 3.94749927520752 -36.2353973388672 0.00525828590616584
endloop
endfacet
facet normal 0.00639084121212363 -0.00214910134673119 0.999977290630341
outer loop
vertex 7.96088743209839 -37.5827827453613 -0.0232869517058134
vertex 3.94749927520752 -36.2353973388672 0.00525828590616584
vertex 7.90913963317871 -37.7366676330566 -0.0232869517058134
endloop
endfacet
facet normal 0.00639084167778492 -0.00214910157956183 0.999977290630341
outer loop
vertex 3.89710068702698 -36.3852691650391 0.00525828590616584
vertex 3.94749927520752 -36.2353973388672 0.00525828590616584
vertex 0.607979476451874 -35.2773780822754 0.0286600384861231
endloop
endfacet
facet normal 0.00639084121212363 -0.00214910157956183 0.999977231025696
outer loop
vertex 0.657271802425385 -35.1307983398438 0.0286600384861231
vertex 0.607979476451874 -35.2773780822754 0.0286600384861231
vertex 3.94749927520752 -36.2353973388672 0.00525828590616584
endloop
endfacet
facet normal 0.00639084074646235 -0.00214910157956183 0.999977290630341
outer loop
vertex 0.657271802425385 -35.1307983398438 0.0286600384861231
vertex -1.4724555015564 -34.4158020019531 0.0438077300786972
vertex 0.607979476451874 -35.2773780822754 0.0286600384861231
endloop
endfacet
facet normal 0.00639084074646235 -0.00214910134673119 0.999977290630341
outer loop
vertex -1.52103185653687 -34.5602531433105 0.0438077300786972
vertex 0.607979476451874 -35.2773780822754 0.0286600384861231
vertex -1.4724555015564 -34.4158020019531 0.0438077300786972
endloop
endfacet
facet normal 0.00639084074646235 -0.00214910134673119 0.999977231025696
outer loop
vertex -1.52103185653687 -34.5602531433105 0.0438077300786972
vertex -1.4724555015564 -34.4158020019531 0.0438077300786972
vertex -2.90160965919495 -34.0952262878418 0.0536303967237473
endloop
endfacet
facet normal 0.00639084121212363 -0.00214910134673119 0.999977290630341
outer loop
vertex -2.85349750518799 -33.9521560668945 0.0536303967237473
vertex -2.90160965919495 -34.0952262878418 0.0536303967237473
vertex -1.4724555015564 -34.4158020019531 0.0438077300786972
endloop
endfacet
facet normal 0.00639084121212363 -0.00214910157956183 0.999977350234985
outer loop
vertex -2.90160965919495 -34.0952262878418 0.0536303967237473
vertex -2.85349750518799 -33.9521560668945 0.0536303967237473
vertex -3.79685831069946 -33.7936782836914 0.0599999986588955
endloop
endfacet
facet normal 0.00639084121212363 -0.00214910134673119 0.999977290630341
outer loop
vertex -3.74904751777649 -33.6515007019043 0.0599999986588955
vertex -3.79685831069946 -33.7936782836914 0.0599999986588955
vertex -2.85349750518799 -33.9521560668945 0.0536303967237473
endloop
endfacet
facet normal -0.230233654379845 -0.668584764003754 -0.707097470760345
outer loop
vertex 24.6334991455078 -43.3700141906738 -0.142279788851738
vertex 24.5926609039307 -43.4905624389648 -0.014998922124505
vertex 23.3905620574951 -42.9513511657715 -0.133436396718025
endloop
endfacet
facet normal -0.230233639478683 -0.668584764003754 -0.707097470760345
outer loop
vertex 23.3514976501465 -43.0666236877441 -0.0117200398817658
vertex 23.3905620574951 -42.9513511657715 -0.133436396718025
vertex 24.5926609039307 -43.4905624389648 -0.014998922124505
endloop
endfacet
facet normal -0.230233639478683 -0.668584764003754 -0.707097470760345
outer loop
vertex 23.3905620574951 -42.9513511657715 -0.133436396718025
vertex 23.3514976501465 -43.0666236877441 -0.0117200398817658
vertex 20.8580684661865 -42.098316192627 -0.115417897701263
endloop
endfacet
facet normal -0.230233654379845 -0.668584764003754 -0.707097470760345
outer loop
vertex 20.8226585388184 -42.2028617858887 -0.00503939902409911
vertex 20.8580684661865 -42.098316192627 -0.115417897701263
vertex 23.3514976501465 -43.0666236877441 -0.0117200398817658
endloop
endfacet
facet normal -0.230233654379845 -0.668584704399109 -0.707097470760345
outer loop
vertex 20.8226585388184 -42.2028617858887 -0.00503939902409911
vertex 16.7712574005127 -40.8190383911133 0.00566351972520351
vertex 20.8580684661865 -42.098316192627 -0.115417897701263
endloop
endfacet
facet normal -0.230233654379845 -0.668584764003754 -0.70709753036499
outer loop
vertex 16.8008308410645 -40.7316970825195 -0.0865509659051895
vertex 20.8580684661865 -42.098316192627 -0.115417897701263
vertex 16.7712574005127 -40.8190383911133 0.00566351972520351
endloop
endfacet
facet normal -0.230233669281006 -0.668584764003754 -0.70709753036499
outer loop
vertex 16.8008308410645 -40.7316970825195 -0.0865509659051895
vertex 16.7712574005127 -40.8190383911133 0.00566351972520351
vertex 12.6812934875488 -39.3440933227539 -0.0572407729923725
endloop
endfacet
facet normal -0.230233654379845 -0.668584823608398 -0.707097470760345
outer loop
vertex 12.6576337814331 -39.4139671325684 0.0165308155119419
vertex 12.6812934875488 -39.3440933227539 -0.0572407729923725
vertex 16.7712574005127 -40.8190383911133 0.00566351972520351
endloop
endfacet
facet normal -0.230233654379845 -0.668584823608398 -0.707097470760345
outer loop
vertex 12.6576337814331 -39.4139671325684 0.0165308155119419
vertex 8.54401111602783 -38.0088958740234 0.0273981112986803
vertex 12.6812934875488 -39.3440933227539 -0.0572407729923725
endloop
endfacet
facet normal -0.230233639478683 -0.668584764003754 -0.707097470760345
outer loop
vertex 8.56175518035889 -37.9564895629883 -0.0279305800795555
vertex 12.6812934875488 -39.3440933227539 -0.0572407729923725
vertex 8.54401111602783 -38.0088958740234 0.0273981112986803
endloop
endfacet
facet normal -0.230233639478683 -0.668584764003754 -0.707097470760345
outer loop
vertex 8.56175518035889 -37.9564895629883 -0.0279305800795555
vertex 8.54401111602783 -38.0088958740234 0.0273981112986803
vertex 4.4422173500061 -36.5688858032227 0.0013796134153381
endloop
endfacet
facet normal -0.230233654379845 -0.668584823608398 -0.707097470760345
outer loop
vertex 4.4303879737854 -36.6038208007813 0.0382654070854187
vertex 4.4422173500061 -36.5688858032227 0.0013796134153381
vertex 8.54401111602783 -38.0088958740234 0.0273981112986803
endloop
endfacet
facet normal -0.230233654379845 -0.668584823608398 -0.707097470760345
outer loop
vertex 4.4303879737854 -36.6038208007813 0.0382654070854187
vertex 0.316764712333679 -35.1987495422363 0.0491327047348022
vertex 4.4422173500061 -36.5688858032227 0.0013796134153381
endloop
endfacet
facet normal -0.230233654379845 -0.668584823608398 -0.707097470760345
outer loop
vertex 0.322679430246353 -35.181282043457 0.0306898076087236
vertex 4.4422173500061 -36.5688858032227 0.0013796134153381
vertex 0.316764712333679 -35.1987495422363 0.0491327047348022
endloop
endfacet
facet normal -0.230233654379845 -0.668584823608398 -0.707097470760345
outer loop
vertex 0.316764712333679 -35.1987495422363 0.0491327047348022
vertex -3.79685831069946 -33.7936782836914 0.0599999986588955
vertex 0.322679430246353 -35.181282043457 0.0306898076087236
endloop
endfacet
facet normal -0.947772085666656 0.318715214729309 0.01219124160707
outer loop
vertex -3.74904751777649 -33.6515007019043 0.0900000035762787
vertex -3.79685831069946 -33.7936782836914 0.0900000035762787
vertex -3.73798084259033 -33.6547241210938 1.0346223115921
endloop
endfacet
facet normal -0.947772145271301 0.318715214729309 0.0121912425383925
outer loop
vertex -3.78609275817871 -33.797794342041 1.0346223115921
vertex -3.73798084259033 -33.6547241210938 1.0346223115921
vertex -3.79685831069946 -33.7936782836914 0.0900000035762787
endloop
endfacet
facet normal -0.947772085666656 0.318715214729309 0.01219124160707
outer loop
vertex -3.73798084259033 -33.6547241210938 1.0346223115921
vertex -3.78609275817871 -33.797794342041 1.0346223115921
vertex -3.72091436386108 -33.6596946716309 2.49133968353271
endloop
endfacet
facet normal -0.947772085666656 0.318715214729309 0.01219124160707
outer loop
vertex -3.76949071884155 -33.8041458129883 2.49133968353271
vertex -3.72091436386108 -33.6596946716309 2.49133968353271
vertex -3.78609275817871 -33.797794342041 1.0346223115921
endloop
endfacet
facet normal -0.947772085666656 0.318715244531631 0.0121912425383925
outer loop
vertex -3.6945960521698 -33.6673583984375 4.73776721954346
vertex -3.72091436386108 -33.6596946716309 2.49133968353271
vertex -3.74388837814331 -33.8139419555664 4.73776721954346
endloop
endfacet
facet normal -0.947772085666656 0.318715214729309 0.01219124160707
outer loop
vertex -3.76949071884155 -33.8041458129883 2.49133968353271
vertex -3.74388837814331 -33.8139419555664 4.73776721954346
vertex -3.72091436386108 -33.6596946716309 2.49133968353271
endloop
endfacet
facet normal -0.947772145271301 0.318715244531631 0.0121912425383925
outer loop
vertex -3.6945960521698 -33.6673583984375 4.73776721954346
vertex -3.74388837814331 -33.8139419555664 4.73776721954346
vertex -3.65393686294556 -33.67919921875 8.20828533172607
endloop
endfacet
facet normal -0.947772085666656 0.318715184926987 0.01219124160707
outer loop
vertex -3.7043354511261 -33.8290710449219 8.20828533172607
vertex -3.65393686294556 -33.67919921875 8.20828533172607
vertex -3.74388837814331 -33.8139419555664 4.73776721954346
endloop
endfacet
facet normal -0.947772085666656 0.318715214729309 0.0121912425383925
outer loop
vertex -3.7043354511261 -33.8290710449219 8.20828533172607
vertex -3.65608906745911 -33.8475303649902 12.4415903091431
vertex -3.65393686294556 -33.67919921875 8.20828533172607
endloop
endfacet
facet normal -0.947772085666656 0.318715214729309 0.0121912425383925
outer loop
vertex -3.60434103012085 -33.6936454772949 12.4415903091431
vertex -3.65393686294556 -33.67919921875 8.20828533172607
vertex -3.65608906745911 -33.8475303649902 12.4415903091431
endloop
endfacet
facet normal -0.947772085666656 0.318715214729309 0.0121912425383925
outer loop
vertex -3.55474519729614 -33.7080917358398 16.6748943328857
vertex -3.60434103012085 -33.6936454772949 12.4415903091431
vertex -3.60784268379211 -33.8659858703613 16.6748943328857
endloop
endfacet
facet normal -0.947772085666656 0.318715214729309 0.0121912425383925
outer loop
vertex -3.65608906745911 -33.8475303649902 12.4415903091431
vertex -3.60784268379211 -33.8659858703613 16.6748943328857
vertex -3.60434103012085 -33.6936454772949 12.4415903091431
endloop
endfacet
facet normal -0.947772085666656 0.318715214729309 0.0121912425383925
outer loop
vertex -3.55474519729614 -33.7080917358398 16.6748943328857
vertex -3.60784268379211 -33.8659858703613 16.6748943328857
vertex -3.50514960289001 -33.7225341796875 20.9081993103027
endloop
endfacet
facet normal -0.947772145271301 0.318715244531631 0.0121912425383925
outer loop
vertex -3.55959630012512 -33.8844451904297 20.9081993103027
vertex -3.50514960289001 -33.7225341796875 20.9081993103027
vertex -3.60784268379211 -33.8659858703613 16.6748943328857
endloop
endfacet
facet normal -0.947772085666656 0.318715214729309 0.0121912425383925
outer loop
vertex -3.50514960289001 -33.7225341796875 20.9081993103027
vertex -3.55959630012512 -33.8844451904297 20.9081993103027
vertex -3.46043038368225 -33.7355575561523 24.7252597808838
endloop
endfacet
facet normal -0.947772145271301 0.318715244531631 0.0121912434697151
outer loop
vertex -3.51609396934509 -33.9010887145996 24.7252597808838
vertex -3.46043038368225 -33.7355575561523 24.7252597808838
vertex -3.55959630012512 -33.8844451904297 20.9081993103027
endloop
endfacet
facet normal -0.947772085666656 0.318715214729309 0.01219124160707
outer loop
vertex -3.43044495582581 -33.7442932128906 27.2846984863281
vertex -3.46043038368225 -33.7355575561523 24.7252597808838
vertex -3.48692440986633 -33.9122467041016 27.2846984863281
endloop
endfacet
facet normal -0.947772085666656 0.318715214729309 0.01219124160707
outer loop
vertex -3.51609396934509 -33.9010887145996 24.7252597808838
vertex -3.48692440986633 -33.9122467041016 27.2846984863281
vertex -3.46043038368225 -33.7355575561523 24.7252597808838
endloop
endfacet
facet normal -0.947772085666656 0.318715184926987 0.01219124160707
outer loop
vertex -3.43044495582581 -33.7442932128906 27.2846984863281
vertex -3.48692440986633 -33.9122467041016 27.2846984863281
vertex -3.41065979003906 -33.7500534057617 28.9734764099121
endloop
endfacet
facet normal -0.947772145271301 0.318715244531631 0.0121912434697151
outer loop
vertex -3.4676775932312 -33.9196090698242 28.9734764099121
vertex -3.41065979003906 -33.7500534057617 28.9734764099121
vertex -3.48692440986633 -33.9122467041016 27.2846984863281
endloop
endfacet
facet normal -0.947772145271301 0.318715244531631 0.0121912425383925
outer loop
vertex -3.41065979003906 -33.7500534057617 28.9734764099121
vertex -3.4676775932312 -33.9196090698242 28.9734764099121
vertex -3.39760518074036 -33.7538566589355 30.0877704620361
endloop
endfacet
facet normal -0.947772085666656 0.318715214729309 0.0121912425383925
outer loop
vertex -3.45497822761536 -33.9244689941406 30.0877704620361
vertex -3.39760518074036 -33.7538566589355 30.0877704620361
vertex -3.4676775932312 -33.9196090698242 28.9734764099121
endloop
endfacet
facet normal 0.219855159521103 0.672074913978577 -0.707091927528381
outer loop
vertex -3.7206084728241 -33.6610488891602 0.089767724275589
vertex -3.74904751777649 -33.6515007019043 0.0900000035762787
vertex -3.67276358604431 -33.5236892700195 0.235200703144073
endloop
endfacet
facet normal 0.219855159521103 0.672074913978577 -0.707091927528381
outer loop
vertex -3.70217776298523 -33.5138130187988 0.235440939664841
vertex -3.67276358604431 -33.5236892700195 0.235200703144073
vertex -3.74904751777649 -33.6515007019043 0.0900000035762787
endloop
endfacet
facet normal 0.219855159521103 0.672074913978577 -0.707091927528381
outer loop
vertex -3.59062123298645 -33.2878608703613 0.484888404607773
vertex -3.67276358604431 -33.5236892700195 0.235200703144073
vertex -3.62170910835266 -33.2774276733398 0.485142320394516
endloop
endfacet
facet normal 0.219855159521103 0.672074913978577 -0.707091927528381
outer loop
vertex -3.70217776298523 -33.5138130187988 0.235440939664841
vertex -3.62170910835266 -33.2774276733398 0.485142320394516
vertex -3.67276358604431 -33.5236892700195 0.235200703144073
endloop
endfacet
facet normal 0.219855189323425 0.672074913978577 -0.707091927528381
outer loop
vertex -3.59062123298645 -33.2878608703613 0.484888404607773
vertex -3.62170910835266 -33.2774276733398 0.485142320394516
vertex -3.44959425926208 -32.882984161377 0.913566708564758
endloop
endfacet
facet normal 0.219855159521103 0.672074913978577 -0.707091927528381
outer loop
vertex -3.48355579376221 -32.87158203125 0.913844048976898
vertex -3.44959425926208 -32.882984161377 0.913566708564758
vertex -3.62170910835266 -33.2774276733398 0.485142320394516
endloop
endfacet
facet normal 0.219855174422264 0.672074913978577 -0.707091927528381
outer loop
vertex -3.44959425926208 -32.882984161377 0.913566708564758
vertex -3.48355579376221 -32.87158203125 0.913844048976898
vertex -3.20747089385986 -32.1878623962402 1.64954626560211
endloop
endfacet
facet normal 0.219855159521103 0.672074913978577 -0.707091927528381
outer loop
vertex -3.24636626243591 -32.1748046875 1.64986395835876
vertex -3.20747089385986 -32.1878623962402 1.64954626560211
vertex -3.48355579376221 -32.87158203125 0.913844048976898
endloop
endfacet
facet normal 0.219855159521103 0.672074913978577 -0.707091867923737
outer loop
vertex -2.79177975654602 -30.9944400787354 2.91311836242676
vertex -3.20747089385986 -32.1878623962402 1.64954626560211
vertex -2.83914542198181 -30.978536605835 2.91350531578064
endloop
endfacet
facet normal 0.219855159521103 0.672074913978577 -0.707091927528381
outer loop
vertex -3.24636626243591 -32.1748046875 1.64986395835876
vertex -2.83914542198181 -30.978536605835 2.91350531578064
vertex -3.20747089385986 -32.1878623962402 1.64954626560211
endloop
endfacet
facet normal 0.219855189323425 0.672074973583221 -0.707091927528381
outer loop
vertex -2.79177975654602 -30.9944400787354 2.91311836242676
vertex -2.83914542198181 -30.978536605835 2.91350531578064
vertex -2.07809686660767 -28.9455013275146 5.08249187469482
endloop
endfacet
facet normal 0.219855159521103 0.672074913978577 -0.707091927528381
outer loop
vertex -2.14000558853149 -28.9247169494629 5.08299732208252
vertex -2.07809686660767 -28.9455013275146 5.08249187469482
vertex -2.83914542198181 -30.978536605835 2.91350531578064
endloop
endfacet
facet normal 0.219855159521103 0.672074913978577 -0.707091927528381
outer loop
vertex -2.14000558853149 -28.9247169494629 5.08299732208252
vertex -1.14825630187988 -26.0113182067871 8.16048145294189
vertex -2.07809686660767 -28.9455013275146 5.08249187469482
endloop
endfacet
facet normal 0.219855159521103 0.672074913978577 -0.707091987133026
outer loop
vertex -1.06571853160858 -26.0390281677246 8.1598072052002
vertex -2.07809686660767 -28.9455013275146 5.08249187469482
vertex -1.14825630187988 -26.0113182067871 8.16048145294189
endloop
endfacet
facet normal 0.219855189323425 0.672074973583221 -0.707091927528381
outer loop
vertex -0.0445365086197853 -23.1072788238525 11.2638835906982
vertex -1.06571853160858 -26.0390281677246 8.1598072052002
vertex -0.147882834076881 -23.072582244873 11.2647275924683
endloop
endfacet
facet normal 0.219855174422264 0.672074973583221 -0.707091927528381
outer loop
vertex -1.14825630187988 -26.0113182067871 8.16048145294189
vertex -0.147882834076881 -23.072582244873 11.2647275924683
vertex -1.06571853160858 -26.0390281677246 8.1598072052002
endloop
endfacet
facet normal 0.219855189323425 0.672074973583221 -0.707091927528381
outer loop
vertex -0.0445365086197853 -23.1072788238525 11.2638835906982
vertex -0.147882834076881 -23.072582244873 11.2647275924683
vertex 0.976645529270172 -20.1755294799805 14.3679599761963
endloop
endfacet
facet normal 0.219855174422264 0.672074973583221 -0.707091927528381
outer loop
vertex 0.852490603923798 -20.1338481903076 14.3689737319946
vertex 0.976645529270172 -20.1755294799805 14.3679599761963
vertex -0.147882834076881 -23.072582244873 11.2647275924683
endloop
endfacet
facet normal 0.219855174422264 0.672074913978577 -0.707091987133026
outer loop
vertex 0.976645529270172 -20.1755294799805 14.3679599761963
vertex 0.852490603923798 -20.1338481903076 14.3689737319946
vertex 1.9354852437973 -17.4227619171143 17.2825336456299
endloop
endfacet
facet normal 0.219855144619942 0.672074913978577 -0.707091927528381
outer loop
vertex 1.79179215431213 -17.3745212554932 17.2837085723877
vertex 1.9354852437973 -17.4227619171143 17.2825336456299
vertex 0.852490603923798 -20.1338481903076 14.3689737319946
endloop
endfacet
facet normal 0.219855159521103 0.672074913978577 -0.707091927528381
outer loop
vertex 2.58094882965088 -15.569676399231 19.2445430755615
vertex 1.9354852437973 -17.4227619171143 17.2825336456299
vertex 2.42410326004028 -15.5170192718506 19.2458248138428
endloop
endfacet
facet normal 0.219855159521103 0.672074913978577 -0.707091927528381
outer loop
vertex 1.79179215431213 -17.3745212554932 17.2837085723877
vertex 2.42410326004028 -15.5170192718506 19.2458248138428
vertex 1.9354852437973 -17.4227619171143 17.2825336456299
endloop
endfacet
facet normal 0.219855159521103 0.672074973583221 -0.707091927528381
outer loop
vertex 2.58094882965088 -15.569676399231 19.2445430755615
vertex 2.42410326004028 -15.5170192718506 19.2458248138428
vertex 2.99371314048767 -14.3846559524536 20.4992179870605
endloop
endfacet
facet normal 0.219855159521103 0.672074913978577 -0.707091927528381
outer loop
vertex 2.82845664024353 -14.3291759490967 20.5005683898926
vertex 2.99371314048767 -14.3846559524536 20.4992179870605
vertex 2.42410326004028 -15.5170192718506 19.2458248138428
endloop
endfacet
facet normal 0.219855174422264 0.672074973583221 -0.707091927528381
outer loop
vertex 2.99371314048767 -14.3846559524536 20.4992179870605
vertex 2.82845664024353 -14.3291759490967 20.5005683898926
vertex 3.25766968727112 -13.6268529891968 21.3015651702881
endloop
endfacet
facet normal 0.219855159521103 0.672074973583221 -0.707091927528381
outer loop
vertex 3.08703470230103 -13.5695676803589 21.30295753479
vertex 3.25766968727112 -13.6268529891968 21.3015651702881
vertex 2.82845664024353 -14.3291759490967 20.5005683898926
endloop
endfacet
facet normal -0.229559183120728 -0.668797016143799 0.707116067409515
outer loop
vertex -2.75850605964661 -30.7416477203369 3.16373634338379
vertex -3.74904751777649 -33.6515007019043 0.0900000035762787
vertex -2.73382687568665 -30.7500858306885 3.16376733779907
endloop
endfacet
facet normal -0.229559183120728 -0.668797016143799 0.707116067409515
outer loop
vertex -1.76796460151672 -27.8317966461182 6.23747301101685
vertex -2.75850605964661 -30.7416477203369 3.16373634338379
vertex -1.71860635280609 -27.8486728668213 6.23753452301025
endloop
endfacet
facet normal -0.229559183120728 -0.668797016143799 0.707116067409515
outer loop
vertex -2.73382687568665 -30.7500858306885 3.16376733779907
vertex -1.71860635280609 -27.8486728668213 6.23753452301025
vertex -2.75850605964661 -30.7416477203369 3.16373634338379
endloop
endfacet
facet normal -0.229559183120728 -0.668797016143799 0.707116067409515
outer loop
vertex -1.76796460151672 -27.8317966461182 6.23747301101685
vertex -1.71860635280609 -27.8486728668213 6.23753452301025
vertex -0.777423143386841 -24.9219436645508 9.3112096786499
endloop
endfacet
facet normal -0.229559168219566 -0.668797016143799 0.707116007804871
outer loop
vertex -0.703385710716248 -24.9472579956055 9.31130218505859
vertex -0.777423143386841 -24.9219436645508 9.3112096786499
vertex -1.71860635280609 -27.8486728668213 6.23753452301025
endloop
endfacet
facet normal -0.229559183120728 -0.668797016143799 0.707116067409515
outer loop
vertex 0.213118314743042 -22.012092590332 12.3849458694458
vertex -0.777423143386841 -24.9219436645508 9.3112096786499
vertex 0.311834901571274 -22.0458450317383 12.3850698471069
endloop
endfacet
facet normal -0.229559168219566 -0.668797016143799 0.707116007804871
outer loop
vertex -0.703385710716248 -24.9472579956055 9.31130218505859
vertex 0.311834901571274 -22.0458450317383 12.3850698471069
vertex -0.777423143386841 -24.9219436645508 9.3112096786499
endloop
endfacet
facet normal -0.229559183120728 -0.668797016143799 0.707116067409515
outer loop
vertex 0.213118314743042 -22.012092590332 12.3849458694458
vertex 0.311834901571274 -22.0458450317383 12.3850698471069
vertex 1.20365977287292 -19.1022396087646 15.4586820602417
endloop
endfacet
facet normal -0.229559183120728 -0.668797016143799 0.707116007804871
outer loop
vertex 1.32705557346344 -19.1444320678711 15.458836555481
vertex 1.20365977287292 -19.1022396087646 15.4586820602417
vertex 0.311834901571274 -22.0458450317383 12.3850698471069
endloop
endfacet
facet normal -0.229559153318405 -0.668797016143799 0.707116007804871
outer loop
vertex 2.17921805381775 -16.2364044189453 18.4859237670898
vertex 1.20365977287292 -19.1022396087646 15.4586820602417
vertex 2.32692241668701 -16.2868976593018 18.4861183166504
endloop
endfacet
facet normal -0.229559183120728 -0.668797016143799 0.707116067409515
outer loop
vertex 1.32705557346344 -19.1444320678711 15.458836555481
vertex 2.32692241668701 -16.2868976593018 18.4861183166504
vertex 1.20365977287292 -19.1022396087646 15.4586820602417
endloop
endfacet
facet normal -0.229559183120728 -0.668797075748444 0.707116067409515
outer loop
vertex 2.17921805381775 -16.2364044189453 18.4859237670898
vertex 2.32692241668701 -16.2868976593018 18.4861183166504
vertex 2.7881486415863 -14.4475860595703 20.37548828125
endloop
endfacet
facet normal -0.229559168219566 -0.668797075748444 0.707116007804871
outer loop
vertex 2.95102882385254 -14.5032539367676 20.3757152557373
vertex 2.7881486415863 -14.4475860595703 20.37548828125
vertex 2.32692241668701 -16.2868976593018 18.4861183166504
endloop
endfacet
facet normal -0.229559183120728 -0.668797075748444 0.707116007804871
outer loop
vertex 2.7881486415863 -14.4475860595703 20.37548828125
vertex 2.95102882385254 -14.5032539367676 20.3757152557373
vertex 3.08701324462891 -13.5696306228638 21.3028907775879
endloop
endfacet
facet normal -0.229559153318405 -0.668797016143799 0.707116007804871
outer loop
vertex 3.25733733177185 -13.6278514862061 21.3031196594238
vertex 3.08701324462891 -13.5696306228638 21.3028907775879
vertex 2.95102882385254 -14.5032539367676 20.3757152557373
endloop
endfacet
facet normal -0.323229491710663 -0.946320474147797 -0.000442222313722596
outer loop
vertex -0.559883892536163 -34.9118881225586 26.9991340637207
vertex -3.45497822761536 -33.9244689941406 30.0877704620361
vertex -0.57742041349411 -34.9058876037598 26.9807834625244
endloop
endfacet
facet normal -0.323229491710663 -0.946320474147797 -0.000442222313722596
outer loop
vertex 2.33521032333374 -35.8993034362793 23.9104976654053
vertex -0.559883892536163 -34.9118881225586 26.9991340637207
vertex 2.30013728141785 -35.8873100280762 23.8737945556641
endloop
endfacet
facet normal -0.323229491710663 -0.946320474147797 -0.000442222313722596
outer loop
vertex -0.57742041349411 -34.9058876037598 26.9807834625244
vertex 2.30013728141785 -35.8873100280762 23.8737945556641
vertex -0.559883892536163 -34.9118881225586 26.9991340637207
endloop
endfacet
facet normal -0.323229491710663 -0.946320474147797 -0.000442222313722596
outer loop
vertex 2.33521032333374 -35.8993034362793 23.9104976654053
vertex 2.30013728141785 -35.8873100280762 23.8737945556641
vertex 5.23030471801758 -36.8867225646973 20.8218593597412
endloop
endfacet
facet normal -0.323229491710663 -0.946320474147797 -0.000442222284618765
outer loop
vertex 5.17769527435303 -36.8687286376953 20.7668075561523
vertex 5.23030471801758 -36.8867225646973 20.8218593597412
vertex 2.30013728141785 -35.8873100280762 23.8737945556641
endloop
endfacet
facet normal -0.323229491710663 -0.946320474147797 -0.000442222284618765
outer loop
vertex 5.17769527435303 -36.8687286376953 20.7668075561523
vertex 8.05525302886963 -37.8501472473145 17.659818649292
vertex 5.23030471801758 -36.8867225646973 20.8218593597412
endloop
endfacet
facet normal -0.323229491710663 -0.946320474147797 -0.000442222313722596
outer loop
vertex 8.12539863586426 -37.8741416931152 17.7332229614258
vertex 5.23030471801758 -36.8867225646973 20.8218593597412
vertex 8.05525302886963 -37.8501472473145 17.659818649292
endloop
endfacet
facet normal -0.323229491710663 -0.946320474147797 -0.000442222313722596
outer loop
vertex 8.12539863586426 -37.8741416931152 17.7332229614258
vertex 8.05525302886963 -37.8501472473145 17.659818649292
vertex 11.0204935073853 -38.8615608215332 14.6445865631104
endloop
endfacet
facet normal -0.323229491710663 -0.946320533752441 -0.000442222342826426
outer loop
vertex 10.9328107833862 -38.8315658569336 14.552830696106
vertex 11.0204935073853 -38.8615608215332 14.6445865631104
vertex 8.05525302886963 -37.8501472473145 17.659818649292
endloop
endfacet
facet normal -0.323229521512985 -0.946320533752441 -0.000442222342826426
outer loop
vertex 13.8717966079712 -39.834041595459 11.6026678085327
vertex 11.0204935073853 -38.8615608215332 14.6445865631104
vertex 13.7668514251709 -39.7981452941895 11.4928302764893
endloop
endfacet
facet normal -0.323229521512985 -0.946320533752441 -0.000442222342826426
outer loop
vertex 10.9328107833862 -38.8315658569336 14.552830696106
vertex 13.7668514251709 -39.7981452941895 11.4928302764893
vertex 11.0204935073853 -38.8615608215332 14.6445865631104
endloop
endfacet
facet normal -0.323229491710663 -0.946320474147797 -0.000442222313722596
outer loop
vertex 13.8717966079712 -39.834041595459 11.6026678085327
vertex 13.7668514251709 -39.7981452941895 11.4928302764893
vertex 15.6515483856201 -40.4410552978516 9.70393657684326
endloop
endfacet
facet normal -0.323229521512985 -0.946320533752441 -0.000442222342826426
outer loop
vertex 15.535834312439 -40.4014739990234 9.58280372619629
vertex 15.6515483856201 -40.4410552978516 9.70393657684326
vertex 13.7668514251709 -39.7981452941895 11.4928302764893
endloop
endfacet
facet normal -0.323229491710663 -0.946320474147797 -0.000442222313722596
outer loop
vertex 15.6515483856201 -40.4410552978516 9.70393657684326
vertex 15.535834312439 -40.4014739990234 9.58280372619629
vertex 16.5250568389893 -40.7389793395996 8.77203273773193
endloop
endfacet
facet normal -0.323229491710663 -0.946320474147797 -0.000442222313722596
outer loop
vertex 16.4040451049805 -40.6975860595703 8.64537143707275
vertex 16.5250568389893 -40.7389793395996 8.77203273773193
vertex 15.535834312439 -40.4014739990234 9.58280372619629
endloop
endfacet
facet normal -1 0 0
outer loop
vertex -0.20227999985218 -31 0.165000006556511
vertex -0.20227999985218 -30 0.165000006556511
vertex -0.20227999985218 -31 -0.0149999996647239
endloop
endfacet
facet normal -1 0 0
outer loop
vertex -0.20227999985218 -30 -0.0149999996647239
vertex -0.20227999985218 -31 -0.0149999996647239
vertex -0.20227999985218 -30 0.165000006556511
endloop
endfacet
facet normal -0.70710676908493 0 -0.70710676908493
outer loop
vertex -0.20227999985218 -31 -0.0149999996647239
vertex -0.20227999985218 -30 -0.0149999996647239
vertex -0.0750000029802322 -31 -0.142279997467995
endloop
endfacet
facet normal -0.70710676908493 -0 -0.70710676908493
outer loop
vertex -0.0750000029802322 -30 -0.142279997467995
vertex -0.0750000029802322 -31 -0.142279997467995
vertex -0.20227999985218 -30 -0.0149999996647239
endloop
endfacet
facet normal -0.70710676908493 0 0.70710676908493
outer loop
vertex -0.0750000029802322 -31 0.292279988527298
vertex -0.0750000029802322 -30 0.292279988527298
vertex -0.20227999985218 -31 0.165000006556511
endloop
endfacet
facet normal -0.70710676908493 0 0.70710676908493
outer loop
vertex -0.20227999985218 -30 0.165000006556511
vertex -0.20227999985218 -31 0.165000006556511
vertex -0.0750000029802322 -30 0.292279988527298
endloop
endfacet
facet normal 0 0 -1
outer loop
vertex -0.0750000029802322 -31 -0.142279997467995
vertex -0.0750000029802322 -30 -0.142279997467995
vertex 0.104999996721745 -31 -0.142279997467995
endloop
endfacet
facet normal -0 -0 -1
outer loop
vertex 0.104999996721745 -30 -0.142279997467995
vertex 0.104999996721745 -31 -0.142279997467995
vertex -0.0750000029802322 -30 -0.142279997467995
endloop
endfacet
facet normal -0 0 1
outer loop
vertex -0.0750000029802322 -30 0.292279988527298
vertex -0.0750000029802322 -31 0.292279988527298
vertex 0.104999996721745 -30 0.292279988527298
endloop
endfacet
facet normal 0 -0 1
outer loop
vertex 0.104999996721745 -31 0.292279988527298
vertex 0.104999996721745 -30 0.292279988527298
vertex -0.0750000029802322 -31 0.292279988527298
endloop
endfacet
facet normal 0.70710676908493 0 -0.70710676908493
outer loop
vertex 0.232280001044273 -30 -0.0149999996647239
vertex 0.232280001044273 -31 -0.0149999996647239
vertex 0.104999996721745 -30 -0.142279997467995
endloop
endfacet
facet normal 0.70710676908493 0 -0.70710676908493
outer loop
vertex 0.104999996721745 -31 -0.142279997467995
vertex 0.104999996721745 -30 -0.142279997467995
vertex 0.232280001044273 -31 -0.0149999996647239
endloop
endfacet
facet normal 0.70710676908493 0 0.70710676908493
outer loop
vertex 0.104999996721745 -30 0.292279988527298
vertex 0.104999996721745 -31 0.292279988527298
vertex 0.232280001044273 -30 0.165000006556511
endloop
endfacet
facet normal 0.70710676908493 -0 0.70710676908493
outer loop
vertex 0.232280001044273 -31 0.165000006556511
vertex 0.232280001044273 -30 0.165000006556511
vertex 0.104999996721745 -31 0.292279988527298
endloop
endfacet
facet normal 1 0 0
outer loop
vertex 0.232280001044273 -30 0.165000006556511
vertex 0.232280001044273 -31 0.165000006556511
vertex 0.232280001044273 -30 -0.0149999996647239
endloop
endfacet
facet normal 1 0 0
outer loop
vertex 0.232280001044273 -31 -0.0149999996647239
vertex 0.232280001044273 -30 -0.0149999996647239
vertex 0.232280001044273 -31 0.165000006556511
endloop
endfacet
facet normal -0 0.00474261352792382 0.999988794326782
outer loop
vertex -0.0750000029802322 -29.999662399292 0.292278409004211
vertex 0.104999996721745 -29.999662399292 0.292278409004211
vertex -0.0721630901098251 -28.8649120330811 0.286896646022797
endloop
endfacet
facet normal 3.18429066328249e-16 0.00474261306226254 0.999988794326782
outer loop
vertex 0.102163091301918 -28.8649120330811 0.286896646022797
vertex -0.0721630901098251 -28.8649120330811 0.286896646022797
vertex 0.104999996721745 -29.999662399292 0.292278409004211
endloop
endfacet
facet normal 3.18429066328249e-16 0.00474261306226254 0.999988734722137
outer loop
vertex 0.102163091301918 -28.8649120330811 0.286896646022797
vertex 0.0977268517017365 -27.0904350280762 0.278480917215347
vertex -0.0721630901098251 -28.8649120330811 0.286896646022797
endloop
endfacet
facet normal -2.03672063252392e-16 0.00474261352792382 0.999988734722137
outer loop
vertex -0.0677268505096436 -27.0904350280762 0.278480917215347
vertex -0.0721630901098251 -28.8649120330811 0.286896646022797
vertex 0.0977268517017365 -27.0904350280762 0.278480917215347
endloop
endfacet
facet normal -2.03672063252392e-16 0.00474261352792382 0.999988794326782
outer loop
vertex -0.0677268505096436 -27.0904350280762 0.278480917215347
vertex 0.0977268517017365 -27.0904350280762 0.278480917215347
vertex -0.0607896409928799 -24.3155822753906 0.265320718288422
endloop
endfacet
facet normal -1.11157324808264e-16 0.00474261259660125 0.999988734722137
outer loop
vertex 0.0907896384596825 -24.3155822753906 0.265320718288422
vertex -0.0607896409928799 -24.3155822753906 0.265320718288422
vertex 0.0977268517017365 -27.0904350280762 0.278480917215347
endloop
endfacet
facet normal -1.11157324808264e-16 0.00474261352792382 0.999988734722137
outer loop
vertex 0.0907896384596825 -24.3155822753906 0.265320718288422
vertex 0.0804843828082085 -20.1935253143311 0.245771154761314
vertex -0.0607896409928799 -24.3155822753906 0.265320718288422
endloop
endfacet
facet normal 2.95195455510876e-16 0.00474261352792382 0.999988734722137
outer loop
vertex -0.0504843778908253 -20.1935253143311 0.245771154761314
vertex -0.0607896409928799 -24.3155822753906 0.265320718288422
vertex 0.0804843828082085 -20.1935253143311 0.245771154761314
endloop
endfacet
facet normal 2.95195402571317e-16 0.00474261306226254 0.999988675117493
outer loop
vertex -0.0504843778908253 -20.1935253143311 0.245771154761314
vertex 0.0804843828082085 -20.1935253143311 0.245771154761314
vertex -0.0395090840756893 -15.8034563064575 0.224950522184372
endloop
endfacet
facet normal -7.72767811591452e-17 0.00474261352792382 0.999988734722137
outer loop
vertex 0.0695090889930725 -15.8034563064575 0.224950522184372
vertex -0.0395090840756893 -15.8034563064575 0.224950522184372
vertex 0.0804843828082085 -20.1935253143311 0.245771154761314
endloop
endfacet
facet normal -7.72767811591452e-17 0.00474261352792382 0.999988734722137
outer loop
vertex 0.0695090889930725 -15.8034563064575 0.224950522184372
vertex 0.0585337914526463 -11.4133882522583 0.20412988960743
vertex -0.0395090840756893 -15.8034563064575 0.224950522184372
endloop
endfacet
facet normal 1.25260330735819e-16 0.00474261306226254 0.999988675117493
outer loop
vertex -0.0285337921231985 -11.4133882522583 0.20412988960743
vertex -0.0395090840756893 -15.8034563064575 0.224950522184372
vertex 0.0585337914526463 -11.4133882522583 0.20412988960743
endloop
endfacet
facet normal 1.25260357205599e-16 0.00474261352792382 0.999988734722137
outer loop
vertex -0.0285337921231985 -11.4133882522583 0.20412988960743
vertex 0.0585337914526463 -11.4133882522583 0.20412988960743
vertex -0.0176531169563532 -7.06116724014282 0.183488756418228
endloop
endfacet
facet normal -7.47504405429993e-16 0.00474261306226254 0.999988794326782
outer loop
vertex 0.0476531162858009 -7.06116724014282 0.183488756418228
vertex -0.0176531169563532 -7.06116724014282 0.183488756418228
vertex 0.0585337914526463 -11.4133882522583 0.20412988960743
endloop
endfacet
facet normal -7.47504458369552e-16 0.00474261306226254 0.999988794326782
outer loop
vertex 0.0476531162858009 -7.06116724014282 0.183488756418228
vertex 0.0399827137589455 -3.9930408000946 0.168937668204308
vertex -0.0176531169563532 -7.06116724014282 0.183488756418228
endloop
endfacet
facet normal -5.55489394886172e-16 0.00474261352792382 0.999988734722137
outer loop
vertex -0.00998271442949772 -3.9930408000946 0.168937668204308
vertex -0.0176531169563532 -7.06116724014282 0.183488756418228
vertex 0.0399827137589455 -3.9930408000946 0.168937668204308
endloop
endfacet
facet normal -5.55489341946613e-16 0.00474261306226254 0.999988734722137
outer loop
vertex -0.00998271442949772 -3.9930408000946 0.168937668204308
vertex 0.0399827137589455 -3.9930408000946 0.168937668204308
vertex -0.0055150156840682 -2.20598149299622 0.160462230443954
endloop
endfacet
facet normal -9.84452608001523e-16 0.00474261306226254 0.999988734722137
outer loop
vertex 0.0355150140821934 -2.20598149299622 0.160462230443954
vertex -0.0055150156840682 -2.20598149299622 0.160462230443954
vertex 0.0399827137589455 -3.9930408000946 0.168937668204308
endloop
endfacet
facet normal -9.84452608001523e-16 0.00474261306226254 0.999988734722137
outer loop
vertex 0.0355150140821934 -2.20598149299622 0.160462230443954
vertex 0.0329127609729767 -1.16509187221527 0.155525639653206
vertex -0.0055150156840682 -2.20598149299622 0.160462230443954
endloop
endfacet
facet normal -1.00988996031963e-15 0.00474261306226254 0.999988734722137
outer loop
vertex -0.00291276234202087 -1.16509187221527 0.155525639653206
vertex -0.0055150156840682 -2.20598149299622 0.160462230443954
vertex 0.0329127609729767 -1.16509187221527 0.155525639653206
endloop
endfacet
facet normal -1.00988996031963e-15 0.00474261306226254 0.999988794326782
outer loop
vertex -0.00291276234202087 -1.16509187221527 0.155525639653206
vertex 0.0329127609729767 -1.16509187221527 0.155525639653206
vertex -0.0013970552245155 -0.558815836906433 0.152650281786919
endloop
endfacet
facet normal -2.56892890333833e-16 0.00474261306226254 0.999988734722137
outer loop
vertex 0.0313970558345318 -0.558815836906433 0.152650281786919
vertex -0.0013970552245155 -0.558815836906433 0.152650281786919
vertex 0.0329127609729767 -1.16509187221527 0.155525639653206
endloop
endfacet
facet normal -2.56892863864053e-16 0.00474261352792382 0.999988734722137
outer loop
vertex 0.0313970558345318 -0.558815836906433 0.152650281786919
vertex 0.0305142179131508 -0.205684617161751 0.150975495576859
vertex -0.0013970552245155 -0.558815836906433 0.152650281786919
endloop
endfacet
facet normal -2.84238475533211e-16 0.00474261306226254 0.999988794326782
outer loop
vertex -0.000514217303134501 -0.205684617161751 0.150975495576859
vertex -0.0013970552245155 -0.558815836906433 0.152650281786919
vertex 0.0305142179131508 -0.205684617161751 0.150975495576859
endloop
endfacet
facet normal -2.84238502002991e-16 0.00474261352792382 0.999988734722137
outer loop
vertex -0.000514217303134501 -0.205684617161751 0.150975495576859
vertex 0.0305142179131508 -0.205684617161751 0.150975495576859
vertex 0 0 0.150000005960464
endloop
endfacet
facet normal 0 0.00474261352792382 0.999988734722137
outer loop
vertex 0.0299999993294477 0 0.150000005960464
vertex 0 0 0.150000005960464
vertex 0.0305142179131508 -0.205684617161751 0.150975495576859
endloop
endfacet
facet normal -0.999977290630341 -0.0067425137385726 0
outer loop
vertex 0.232275396585464 -29.9993171691895 -0.0149999996647239
vertex 0.232275396585464 -29.9993171691895 0.165000006556511
vertex 0.224761694669724 -28.8849658966064 -0.0144428107887506
endloop
endfacet
facet normal -0.999977290630341 -0.0067425137385726 -1.76401374294396e-16
outer loop
vertex 0.224761694669724 -28.8849658966064 0.164442807435989
vertex 0.224761694669724 -28.8849658966064 -0.0144428107887506
vertex 0.232275396585464 -29.9993171691895 0.165000006556511
endloop
endfacet
facet normal -0.999977290630341 -0.00674251420423388 -1.76401387529286e-16
outer loop
vertex 0.224761694669724 -28.8849658966064 0.164442807435989
vertex 0.213374242186546 -27.1961002349854 0.163598358631134
vertex 0.224761694669724 -28.8849658966064 -0.0144428107887506
endloop
endfacet
facet normal -0.999977290630341 -0.00674251327291131 -2.91817858694141e-16
outer loop
vertex 0.213374242186546 -27.1961002349854 -0.0135983601212502
vertex 0.224761694669724 -28.8849658966064 -0.0144428107887506
vertex 0.213374242186546 -27.1961002349854 0.163598358631134
endloop
endfacet
facet normal -0.999977290630341 -0.00674251280725002 -2.91817832224361e-16
outer loop
vertex 0.213374242186546 -27.1961002349854 0.163598358631134
vertex 0.196115911006927 -24.6365299224854 0.162318542599678
vertex 0.213374242186546 -27.1961002349854 -0.0135983601212502
endloop
endfacet
facet normal -0.999977290630341 -0.0067425137385726 -1.154021377792e-16
outer loop
vertex 0.196115911006927 -24.6365299224854 -0.0123185450211167
vertex 0.213374242186546 -27.1961002349854 -0.0135983601212502
vertex 0.196115911006927 -24.6365299224854 0.162318542599678
endloop
endfacet
facet normal -0.999977290630341 -0.0067425137385726 -1.1540215101409e-16
outer loop
vertex 0.196115911006927 -24.6365299224854 -0.0123185450211167
vertex 0.196115911006927 -24.6365299224854 0.162318542599678
vertex 0.170377418398857 -20.8192729949951 -0.0104098739102483
endloop
endfacet
facet normal -0.999977231025696 -0.00674251327291131 -1.62480890732084e-16
outer loop
vertex 0.170377418398857 -20.8192729949951 0.160409867763519
vertex 0.170377418398857 -20.8192729949951 -0.0104098739102483
vertex 0.196115911006927 -24.6365299224854 0.162318542599678
endloop
endfacet
facet normal -0.999977231025696 -0.00674251327291131 -1.62480890732084e-16
outer loop
vertex 0.170377418398857 -20.8192729949951 -0.0104098739102483
vertex 0.170377418398857 -20.8192729949951 0.160409867763519
vertex 0.141832187771797 -16.585750579834 -0.00829306337982416
endloop
endfacet
facet normal -0.999977290630341 -0.00674251327291131 2.87589602570345e-16
outer loop
vertex 0.141832187771797 -16.585750579834 0.158293068408966
vertex 0.141832187771797 -16.585750579834 -0.00829306337982416
vertex 0.170377418398857 -20.8192729949951 0.160409867763519
endloop
endfacet
facet normal -0.999977290630341 -0.00674251327291131 2.87589602570345e-16
outer loop
vertex 0.141832187771797 -16.585750579834 0.158293068408966
vertex 0.113286949694157 -12.3522272109985 0.156176254153252
vertex 0.141832187771797 -16.585750579834 -0.00829306337982416
endloop
endfacet
facet normal -0.999977290630341 -0.00674251280725002 7.37722485143296e-17
outer loop
vertex 0.113286949694157 -12.3522272109985 -0.00617625424638391
vertex 0.141832187771797 -16.585750579834 -0.00829306337982416
vertex 0.113286949694157 -12.3522272109985 0.156176254153252
endloop
endfacet
facet normal -0.999977290630341 -0.00674251280725002 7.37722485143296e-17
outer loop
vertex 0.113286949694157 -12.3522272109985 -0.00617625424638391
vertex 0.113286949694157 -12.3522272109985 0.156176254153252
vertex 0.0847417116165161 -8.11870384216309 -0.00405944418162107
endloop
endfacet
facet normal -0.999977231025696 -0.00674251327291131 -8.77660599835832e-17
outer loop
vertex 0.0847417116165161 -8.11870384216309 0.154059439897537
vertex 0.0847417116165161 -8.11870384216309 -0.00405944418162107
vertex 0.113286949694157 -12.3522272109985 0.156176254153252
endloop
endfacet
facet normal -0.999977290630341 -0.0067425137385726 -8.77660666010281e-17
outer loop
vertex 0.0847417116165161 -8.11870384216309 -0.00405944418162107
vertex 0.0847417116165161 -8.11870384216309 0.154059439897537
vertex 0.0613399595022202 -4.64800691604614 -0.00232405634596944
endloop
endfacet
facet normal -0.999977231025696 -0.0067425137385726 -2.45766014075794e-17
outer loop
vertex 0.0613399595022202 -4.64800691604614 0.152324050664902
vertex 0.0613399595022202 -4.64800691604614 -0.00232405634596944
vertex 0.0847417116165161 -8.11870384216309 0.154059439897537
endloop
endfacet
facet normal -0.999977290630341 -0.00674251327291131 -2.45766030619406e-17
outer loop
vertex 0.0613399595022202 -4.64800691604614 0.152324050664902
vertex 0.0461922697722912 -2.40146350860596 0.151200756430626
vertex 0.0613399595022202 -4.64800691604614 -0.00232405634596944
endloop
endfacet
facet normal -0.999977290630341 -0.0067425137385726 -5.27071578472133e-17
outer loop
vertex 0.0461922697722912 -2.40146350860596 -0.00120075908489525
vertex 0.0613399595022202 -4.64800691604614 -0.00232405634596944
vertex 0.0461922697722912 -2.40146350860596 0.151200756430626
endloop
endfacet
facet normal -0.999977231025696 -0.00674251327291131 -5.27071578472133e-17
outer loop
vertex 0.0461922697722912 -2.40146350860596 -0.00120075908489525
vertex 0.0461922697722912 -2.40146350860596 0.151200756430626
vertex 0.0363696031272411 -0.944671034812927 -0.000472346262540668
endloop
endfacet
facet normal -0.999977290630341 -0.00674251327291131 -3.10910457781285e-17
outer loop
vertex 0.0363696031272411 -0.944671034812927 0.150472342967987
vertex 0.0363696031272411 -0.944671034812927 -0.000472346262540668
vertex 0.0461922697722912 -2.40146350860596 0.151200756430626
endloop
endfacet
facet normal -0.999977350234985 -0.0067425137385726 -3.10910457781285e-17
outer loop
vertex 0.0363696031272411 -0.944671034812927 0.150472342967987
vertex 0.0299999993294477 0 0.150000005960464
vertex 0.0363696031272411 -0.944671034812927 -0.000472346262540668
endloop
endfacet
facet normal -0.999977290630341 -0.00674251327291131 0
outer loop
vertex 0.0299999993294477 0 0
vertex 0.0363696031272411 -0.944671034812927 -0.000472346262540668
vertex 0.0299999993294477 0 0.150000005960464
endloop
endfacet
facet normal 0.707097470760345 0.00512127159163356 0.707097470760345
outer loop
vertex 0.232279792428017 -29.9998550415039 0.164999142289162
vertex 0.223436385393143 -28.6883010864258 0.164343401789665
vertex 0.104998923838139 -29.999568939209 0.292277961969376
endloop
endfacet
facet normal 0.707097470760345 0.00512127112597227 0.707097470760345
outer loop
vertex 0.101720042526722 -28.6880168914795 0.286057710647583
vertex 0.104998923838139 -29.999568939209 0.292277961969376
vertex 0.223436385393143 -28.6883010864258 0.164343401789665
endloop
endfacet
facet normal 0.707097470760345 0.00512127159163356 0.707097470760345
outer loop
vertex 0.223436385393143 -28.6883010864258 0.164343401789665
vertex 0.205417901277542 -26.0160007476807 0.163007318973541
vertex 0.101720042526722 -28.6880168914795 0.286057710647583
endloop
endfacet
facet normal 0.70709753036499 0.00512127205729485 0.70709753036499
outer loop
vertex 0.0950393974781036 -26.0157604217529 0.273384064435959
vertex 0.101720042526722 -28.6880168914795 0.286057710647583
vertex 0.205417901277542 -26.0160007476807 0.163007318973541
endloop
endfacet
facet normal 0.707097470760345 0.00512127159163356 0.707097470760345
outer loop
vertex 0.0950393974781036 -26.0157604217529 0.273384064435959
vertex 0.205417901277542 -26.0160007476807 0.163007318973541
vertex 0.08433648198843 -21.7345924377441 0.253079921007156
endloop
endfacet
facet normal 0.70709753036499 0.00512127205729485 0.70709753036499
outer loop
vertex 0.176550969481468 -21.7347831726074 0.16086682677269
vertex 0.08433648198843 -21.7345924377441 0.253079921007156
vertex 0.205417901277542 -26.0160007476807 0.163007318973541
endloop
endfacet
facet normal 0.70709753036499 0.00512127159163356 0.70709753036499
outer loop
vertex 0.176550969481468 -21.7347831726074 0.16086682677269
vertex 0.147240772843361 -17.3878269195557 0.158693462610245
vertex 0.08433648198843 -21.7345924377441 0.253079921007156
endloop
endfacet
facet normal 0.707097470760345 0.00512127205729485 0.707097470760345
outer loop
vertex 0.0734691843390465 -17.387674331665 0.23246394097805
vertex 0.08433648198843 -21.7345924377441 0.253079921007156
vertex 0.147240772843361 -17.3878269195557 0.158693462610245
endloop
endfacet
facet normal 0.707097470760345 0.00512127205729485 0.707097470760345
outer loop
vertex 0.0734691843390465 -17.387674331665 0.23246394097805
vertex 0.147240772843361 -17.3878269195557 0.158693462610245
vertex 0.0626018866896629 -13.0407552719116 0.211847960948944
endloop
endfacet
facet normal 0.707097470760345 0.00512127112597227 0.707097470760345
outer loop
vertex 0.117930576205254 -13.0408706665039 0.1565200984478
vertex 0.0626018866896629 -13.0407552719116 0.211847960948944
vertex 0.147240772843361 -17.3878269195557 0.158693462610245
endloop
endfacet
facet normal 0.707097470760345 0.00512127112597227 0.707097470760345
outer loop
vertex 0.117930576205254 -13.0408706665039 0.1565200984478
vertex 0.0886203870177269 -8.69391345977783 0.154346734285355
vertex 0.0626018866896629 -13.0407552719116 0.211847960948944
endloop
endfacet
facet normal 0.707097470760345 0.00512127205729485 0.707097470760345
outer loop
vertex 0.0517345927655697 -8.69383716583252 0.191231966018677
vertex 0.0626018866896629 -13.0407552719116 0.211847960948944
vertex 0.0886203870177269 -8.69391345977783 0.154346734285355
endloop
endfacet
facet normal 0.707097470760345 0.00512127205729485 0.707097470760345
outer loop
vertex 0.0517345927655697 -8.69383716583252 0.191231966018677
vertex 0.0886203870177269 -8.69391345977783 0.154346734285355
vertex 0.0408672951161861 -4.34691858291626 0.170615985989571
endloop
endfacet
facet normal 0.707097470760345 0.00512127205729485 0.707097470760345
outer loop
vertex 0.0593101941049099 -4.34695672988892 0.15217337012291
vertex 0.0408672951161861 -4.34691858291626 0.170615985989571
vertex 0.0886203870177269 -8.69391345977783 0.154346734285355
endloop
endfacet
facet normal 0.707097470760345 0.00512127205729485 0.707097470760345
outer loop
vertex 0.0408672951161861 -4.34691858291626 0.170615985989571
vertex 0.0593101941049099 -4.34695672988892 0.15217337012291
vertex 0.0299999993294477 0 0.150000005960464
endloop
endfacet
facet normal 0.707098722457886 0.0047677312977612 -0.707098722457886
outer loop
vertex 0.261584967374802 -34.3461990356445 -0.0149999996647239
vertex 0.243142813444138 -34.346321105957 -0.0334429889917374
vertex 0.232275396585464 -29.9993171691895 -0.0149999996647239
endloop
endfacet
facet normal 0.707098722457886 0.0047677312977612 -0.707098722457886
outer loop
vertex 0.290894567966461 -38.6930809020996 -0.0149999996647239
vertex 0.254010230302811 -38.6933250427246 -0.0518859773874283
vertex 0.261584967374802 -34.3461990356445 -0.0149999996647239
endloop
endfacet
facet normal 0.707098722457886 0.0047677312977612 -0.707098722457886
outer loop
vertex 0.243142813444138 -34.346321105957 -0.0334429889917374
vertex 0.261584967374802 -34.3461990356445 -0.0149999996647239
vertex 0.254010230302811 -38.6933250427246 -0.0518859773874283
endloop
endfacet
facet normal 0.707098722457886 0.0047677312977612 -0.707098722457886
outer loop
vertex 0.290894567966461 -38.6930809020996 -0.0149999996647239
vertex 0.320204138755798 -43.0399627685547 -0.0149999996647239
vertex 0.254010230302811 -38.6933250427246 -0.0518859773874283
endloop
endfacet
facet normal 0.707098722457886 0.00476773083209991 -0.707098722457886
outer loop
vertex 0.264877617359161 -43.0403289794922 -0.0703289657831192
vertex 0.254010230302811 -38.6933250427246 -0.0518859773874283
vertex 0.320204138755798 -43.0399627685547 -0.0149999996647239
endloop
endfacet
facet normal 0.707098722457886 0.00476773083209991 -0.707098722457886
outer loop
vertex 0.264877617359161 -43.0403289794922 -0.0703289657831192
vertex 0.320204138755798 -43.0399627685547 -0.0149999996647239
vertex 0.275745034217834 -47.3873329162598 -0.0887719541788101
endloop
endfacet
facet normal 0.707098722457886 0.0047677312977612 -0.707098722457886
outer loop
vertex 0.349513709545135 -47.3868446350098 -0.0149999996647239
vertex 0.275745034217834 -47.3873329162598 -0.0887719541788101
vertex 0.320204138755798 -43.0399627685547 -0.0149999996647239
endloop
endfacet
facet normal 0.707098722457886 0.0047677312977612 -0.707098722457886
outer loop
vertex 0.349513709545135 -47.3868446350098 -0.0149999996647239
vertex 0.378823280334473 -51.7337303161621 -0.0149999996647239
vertex 0.275745034217834 -47.3873329162598 -0.0887719541788101
endloop
endfacet
facet normal 0.707098722457886 0.00476773083209991 -0.707098722457886
outer loop
vertex 0.286612451076508 -51.7343368530273 -0.107214942574501
vertex 0.275745034217834 -47.3873329162598 -0.0887719541788101
vertex 0.378823280334473 -51.7337303161621 -0.0149999996647239
endloop
endfacet
facet normal 0.707098782062531 0.0047677312977612 -0.707098782062531
outer loop
vertex 0.407689541578293 -56.0148620605469 -0.0149999996647239
vertex 0.297315508127213 -56.0155982971191 -0.125379011034966
vertex 0.378823280334473 -51.7337303161621 -0.0149999996647239
endloop
endfacet
facet normal 0.707098782062531 0.0047677312977612 -0.707098782062531
outer loop
vertex 0.286612451076508 -51.7343368530273 -0.107214942574501
vertex 0.378823280334473 -51.7337303161621 -0.0149999996647239
vertex 0.297315508127213 -56.0155982971191 -0.125379011034966
endloop
endfacet
facet normal 0.707098722457886 0.00476773083209991 -0.707098722457886
outer loop
vertex 0.407689541578293 -56.0148620605469 -0.0149999996647239
vertex 0.425707519054413 -58.6870956420898 -0.0149999996647239
vertex 0.297315508127213 -56.0155982971191 -0.125379011034966
endloop
endfacet
facet normal 0.707098722457886 0.00476773083209991 -0.707098722457886
outer loop
vertex 0.30399626493454 -58.6879272460938 -0.13671687245369
vertex 0.297315508127213 -56.0155982971191 -0.125379011034966
vertex 0.425707519054413 -58.6870956420898 -0.0149999996647239
endloop
endfacet
facet normal 0.707098782062531 0.00476773176342249 -0.707098782062531
outer loop
vertex 0.425707519054413 -58.6870956420898 -0.0149999996647239
vertex 0.434550791978836 -59.9986343383789 -0.0149999996647239
vertex 0.30399626493454 -58.6879272460938 -0.13671687245369
endloop
endfacet
facet normal 0.707098722457886 0.00476773083209991 -0.707098722457886
outer loop
vertex 0.307275146245956 -59.9994926452637 -0.14228144288063
vertex 0.30399626493454 -58.6879272460938 -0.13671687245369
vertex 0.434550791978836 -59.9986343383789 -0.0149999996647239
endloop
endfacet
facet normal 0.220860823988914 0.671737909317017 -0.707098722457886
outer loop
vertex 53.1663780212402 -52.640811920166 -0.217275142669678
vertex 53.1249923706055 -52.7611808776855 -0.34455081820488
vertex 51.921443939209 -52.2280387878418 -0.213996261358261
endloop
endfacet
facet normal 0.220860853791237 0.671737968921661 -0.707098782062531
outer loop
vertex 51.8818588256836 -52.3431434631348 -0.335707515478134
vertex 51.921443939209 -52.2280387878418 -0.213996261358261
vertex 53.1249923706055 -52.7611808776855 -0.34455081820488
endloop
endfacet
facet normal 0.220860823988914 0.671737909317017 -0.707098722457886
outer loop
vertex 51.921443939209 -52.2280387878418 -0.213996261358261
vertex 51.8818588256836 -52.3431434631348 -0.335707515478134
vertex 49.3848838806152 -51.3870124816895 -0.207315504550934
endloop
endfacet
facet normal 0.220860823988914 0.671737909317017 -0.707098722457886
outer loop
vertex 49.3490028381348 -51.491397857666 -0.317689538002014
vertex 49.3848838806152 -51.3870124816895 -0.207315504550934
vertex 51.8818588256836 -52.3431434631348 -0.335707515478134
endloop
endfacet
facet normal 0.220860823988914 0.671737968921661 -0.707098782062531
outer loop
vertex 49.3490028381348 -51.491397857666 -0.317689538002014
vertex 45.2911643981934 -50.1268348693848 -0.288823276758194
vertex 49.3848838806152 -51.3870124816895 -0.207315504550934
endloop
endfacet
facet normal 0.220860838890076 0.671737968921661 -0.707098782062531
outer loop
vertex 45.3211288452148 -50.039623260498 -0.196612432599068
vertex 49.3848838806152 -51.3870124816895 -0.207315504550934
vertex 45.2911643981934 -50.1268348693848 -0.288823276758194
endloop
endfacet
facet normal 0.220860838890076 0.671737968921661 -0.707098722457886
outer loop
vertex 45.3211288452148 -50.039623260498 -0.196612432599068
vertex 45.2911643981934 -50.1268348693848 -0.288823276758194
vertex 41.1949768066406 -48.6715431213379 -0.185745030641556
endloop
endfacet
facet normal 0.220860838890076 0.671737968921661 -0.707098722457886
outer loop
vertex 41.1710014343262 -48.7413139343262 -0.259513705968857
vertex 41.1949768066406 -48.6715431213379 -0.185745030641556
vertex 45.2911643981934 -50.1268348693848 -0.288823276758194
endloop
endfacet
facet normal 0.220860838890076 0.671737968921661 -0.707098722457886
outer loop
vertex 41.1710014343262 -48.7413139343262 -0.259513705968857
vertex 37.0508422851563 -47.3557929992676 -0.23020413517952
vertex 41.1949768066406 -48.6715431213379 -0.185745030641556
endloop
endfacet
facet normal 0.220860823988914 0.671737909317017 -0.707098722457886
outer loop
vertex 37.0688247680664 -47.303466796875 -0.174877628684044
vertex 41.1949768066406 -48.6715431213379 -0.185745030641556
vertex 37.0508422851563 -47.3557929992676 -0.23020413517952
endloop
endfacet
facet normal 0.220860823988914 0.671737909317017 -0.707098722457886
outer loop
vertex 37.0688247680664 -47.303466796875 -0.174877628684044
vertex 37.0508422851563 -47.3557929992676 -0.23020413517952
vertex 32.9426689147949 -45.9353904724121 -0.164010211825371
endloop
endfacet
facet normal 0.220860838890076 0.671737968921661 -0.707098722457886
outer loop
vertex 32.9306831359863 -45.970272064209 -0.200894549489021
vertex 32.9426689147949 -45.9353904724121 -0.164010211825371
vertex 37.0508422851563 -47.3557929992676 -0.23020413517952
endloop
endfacet
facet normal 0.220860838890076 0.671737968921661 -0.707098722457886
outer loop
vertex 32.9306831359863 -45.970272064209 -0.200894549489021
vertex 28.8105239868164 -44.5847511291504 -0.171584978699684
vertex 32.9426689147949 -45.9353904724121 -0.164010211825371
endloop
endfacet
facet normal 0.220860838890076 0.671737968921661 -0.707098722457886
outer loop
vertex 28.8165168762207 -44.567310333252 -0.153142809867859
vertex 32.9426689147949 -45.9353904724121 -0.164010211825371
vertex 28.8105239868164 -44.5847511291504 -0.171584978699684
endloop
endfacet
facet normal 0.220860838890076 0.671737968921661 -0.707098722457886
outer loop
vertex 28.8105239868164 -44.5847511291504 -0.171584978699684
vertex 24.6903629302979 -43.1992340087891 -0.142275407910347
vertex 28.8165168762207 -44.567310333252 -0.153142809867859
endloop
endfacet
endsolid COMSOL mesh mesh1
