solid COMSOL mesh mesh1
facet normal -0.013133630156517 0.99991375207901 0
outer loop
vertex 0 0 0.150000005960464
vertex 0 0 0
vertex -0.939787864685059 -0.0123438909649849 0.150783225893974
endloop
endfacet
facet normal -0.0131336310878396 0.999913811683655 1.87400712536869e-17
outer loop
vertex -0.939787864685059 -0.0123438909649849 -0.000783224124461412
vertex -0.939787864685059 -0.0123438909649849 0.150783225893974
vertex 0 0 0
endloop
endfacet
facet normal -0.013133630156517 0.999913692474365 1.87400679449645e-17
outer loop
vertex -0.939787864685059 -0.0123438909649849 0.150783225893974
vertex -0.939787864685059 -0.0123438909649849 -0.000783224124461412
vertex -2.37310934066772 -0.031170230358839 0.151977762579918
endloop
endfacet
facet normal -0.0131336292251945 0.999913692474365 7.37970374629266e-17
outer loop
vertex -2.37310934066772 -0.031170230358839 -0.00197776174172759
vertex -2.37310934066772 -0.031170230358839 0.151977762579918
vertex -0.939787864685059 -0.0123438909649849 -0.000783224124461412
endloop
endfacet
facet normal -0.013133630156517 0.99991375207901 1.74173677643117e-16
outer loop
vertex -4.5591459274292 -0.0598833002150059 0.153799623250961
vertex -2.37310934066772 -0.031170230358839 0.151977762579918
vertex -4.5591459274292 -0.0598833002150059 -0.00379961589351296
endloop
endfacet
facet normal -0.0131336310878396 0.99991375207901 7.37970506978164e-17
outer loop
vertex -2.37310934066772 -0.031170230358839 -0.00197776174172759
vertex -4.5591459274292 -0.0598833002150059 -0.00379961589351296
vertex -2.37310934066772 -0.031170230358839 0.151977762579918
endloop
endfacet
facet normal -0.0131336310878396 0.99991375207901 1.74173690878007e-16
outer loop
vertex -4.5591459274292 -0.0598833002150059 0.153799623250961
vertex -4.5591459274292 -0.0598833002150059 -0.00379961589351296
vertex -7.90060758590698 -0.103772610425949 0.156584411859512
endloop
endfacet
facet normal -0.0131336292251945 0.99991375207901 7.38825348510401e-17
outer loop
vertex -7.90060758590698 -0.103772610425949 -0.006584407761693
vertex -7.90060758590698 -0.103772610425949 0.156584411859512
vertex -4.5591459274292 -0.0598833002150059 -0.00379961589351296
endloop
endfacet
facet normal -0.0131336310878396 0.99991375207901 7.38825348510401e-17
outer loop
vertex -7.90060758590698 -0.103772610425949 0.156584411859512
vertex -7.90060758590698 -0.103772610425949 -0.006584407761693
vertex -12.0794668197632 -0.158660933375359 0.160067096352577
endloop
endfacet
facet normal -0.013133630156517 0.99991375207901 2.07984890322014e-16
outer loop
vertex -12.0794668197632 -0.158660933375359 -0.0100670903921127
vertex -12.0794668197632 -0.158660933375359 0.160067096352577
vertex -7.90060758590698 -0.103772610425949 -0.006584407761693
endloop
endfacet
facet normal -0.0131336310878396 0.999913811683655 3.56514314614763e-16
outer loop
vertex -16.2583255767822 -0.213549271225929 0.163549780845642
vertex -12.0794668197632 -0.158660933375359 0.160067096352577
vertex -16.2583255767822 -0.213549271225929 -0.013549773953855
endloop
endfacet
facet normal -0.013133630156517 0.99991375207901 2.07984890322014e-16
outer loop
vertex -12.0794668197632 -0.158660933375359 -0.0100670903921127
vertex -16.2583255767822 -0.213549271225929 -0.013549773953855
vertex -12.0794668197632 -0.158660933375359 0.160067096352577
endloop
endfacet
facet normal -0.0131336310878396 0.999913811683655 3.56514314614763e-16
outer loop
vertex -16.2583255767822 -0.213549271225929 0.163549780845642
vertex -16.2583255767822 -0.213549271225929 -0.013549773953855
vertex -20.4371852874756 -0.268437594175339 0.167032450437546
endloop
endfacet
facet normal -0.013133630156517 0.99991375207901 1.44182861489023e-16
outer loop
vertex -20.4371852874756 -0.268437594175339 -0.0170324575155973
vertex -20.4371852874756 -0.268437594175339 0.167032450437546
vertex -16.2583255767822 -0.213549271225929 -0.013549773953855
endloop
endfacet
facet normal -0.0131336310878396 0.99991375207901 1.44182848254133e-16
outer loop
vertex -20.4371852874756 -0.268437594175339 0.167032450437546
vertex -20.4371852874756 -0.268437594175339 -0.0170324575155973
vertex -24.3043346405029 -0.319231688976288 0.170255362987518
endloop
endfacet
facet normal -0.0131336310878396 0.99991375207901 -1.9848591874437e-16
outer loop
vertex -24.3043346405029 -0.319231688976288 -0.020255358889699
vertex -24.3043346405029 -0.319231688976288 0.170255362987518
vertex -20.4371852874756 -0.268437594175339 -0.0170324575155973
endloop
endfacet
facet normal -0.0131336310878396 0.999913811683655 4.53734440194896e-17
outer loop
vertex -26.9780254364014 -0.354349970817566 0.172483623027802
vertex -24.3043346405029 -0.319231688976288 0.170255362987518
vertex -26.9780254364014 -0.354349970817566 -0.0224836263805628
endloop
endfacet
facet normal -0.013133630156517 0.99991375207901 -1.9848591874437e-16
outer loop
vertex -24.3043346405029 -0.319231688976288 -0.020255358889699
vertex -26.9780254364014 -0.354349970817566 -0.0224836263805628
vertex -24.3043346405029 -0.319231688976288 0.170255362987518
endloop
endfacet
facet normal -0.0131336310878396 0.99991375207901 1.34053737103291e-16
outer loop
vertex -28.7812538146973 -0.378034949302673 0.173986449837685
vertex -26.9780254364014 -0.354349970817566 0.172483623027802
vertex -28.7812538146973 -0.378034949302673 -0.0239864457398653
endloop
endfacet
facet normal -0.013133630156517 0.999913692474365 4.53734374020447e-17
outer loop
vertex -26.9780254364014 -0.354349970817566 -0.0224836263805628
vertex -28.7812538146973 -0.378034949302673 -0.0239864457398653
vertex -26.9780254364014 -0.354349970817566 0.172483623027802
endloop
endfacet
facet normal -0.0131336310878396 0.99991375207901 1.34053723868401e-16
outer loop
vertex -28.7812538146973 -0.378034949302673 0.173986449837685
vertex -28.7812538146973 -0.378034949302673 -0.0239864457398653
vertex -29.9974117279053 -0.394008904695511 0.174999997019768
endloop
endfacet
facet normal -0.0131336310878396 0.99991375207901 0
outer loop
vertex -29.9974117279053 -0.394008904695511 -0.025000000372529
vertex -29.9974117279053 -0.394008904695511 0.174999997019768
vertex -28.7812538146973 -0.378034949302673 -0.0239864457398653
endloop
endfacet
facet normal 0.000760558759793639 0.00554509181529284 0.999984323978424
outer loop
vertex -26.9407863616943 -3.41927671432495 0.18945087492466
vertex -26.9206199645996 -3.39889740943909 0.189322531223297
vertex -29.9974117279053 -0.394008904695511 0.174999997019768
endloop
endfacet
facet normal 0.000760558759793639 0.00554509181529284 0.999984323978424
outer loop
vertex -23.8841590881348 -6.44454431533813 0.203901737928391
vertex -23.8438262939453 -6.40378570556641 0.203645050525665
vertex -26.9407863616943 -3.41927671432495 0.18945087492466
endloop
endfacet
facet normal 0.000760558759793639 0.00554509181529284 0.999984323978424
outer loop
vertex -26.9206199645996 -3.39889740943909 0.189322531223297
vertex -26.9407863616943 -3.41927671432495 0.18945087492466
vertex -23.8438262939453 -6.40378570556641 0.203645050525665
endloop
endfacet
facet normal 0.000760558759793639 0.00554509181529284 0.999984323978424
outer loop
vertex -23.8841590881348 -6.44454431533813 0.203901737928391
vertex -20.8275318145752 -9.46981239318848 0.218352600932121
vertex -23.8438262939453 -6.40378570556641 0.203645050525665
endloop
endfacet
facet normal 0.000760558759793639 0.00554509181529284 0.999984383583069
outer loop
vertex -20.7670345306396 -9.4086742401123 0.217967569828033
vertex -23.8438262939453 -6.40378570556641 0.203645050525665
vertex -20.8275318145752 -9.46981239318848 0.218352600932121
endloop
endfacet
facet normal 0.000760558759793639 0.00554509181529284 0.999984323978424
outer loop
vertex -17.7709045410156 -12.4950799942017 0.232803478837013
vertex -17.6902408599854 -12.4135627746582 0.232290104031563
vertex -20.8275318145752 -9.46981239318848 0.218352600932121
endloop
endfacet
facet normal 0.000760558759793639 0.00554509181529284 0.999984383583069
outer loop
vertex -20.7670345306396 -9.4086742401123 0.217967569828033
vertex -20.8275318145752 -9.46981239318848 0.218352600932121
vertex -17.6902408599854 -12.4135627746582 0.232290104031563
endloop
endfacet
facet normal 0.000760558759793639 0.00554509181529284 0.999984323978424
outer loop
vertex -17.7709045410156 -12.4950799942017 0.232803478837013
vertex -14.7142782211304 -15.5203475952148 0.247254341840744
vertex -17.6902408599854 -12.4135627746582 0.232290104031563
endloop
endfacet
facet normal 0.000760558701585978 0.00554509134963155 0.999984323978424
outer loop
vertex -14.6134481430054 -15.4184513092041 0.246612623333931
vertex -17.6902408599854 -12.4135627746582 0.232290104031563
vertex -14.7142782211304 -15.5203475952148 0.247254341840744
endloop
endfacet
facet normal 0.000760558759793639 0.00554509181529284 0.999984383583069
outer loop
vertex -11.6815280914307 -18.5219841003418 0.261592328548431
vertex -11.5606822967529 -18.3998737335205 0.260823309421539
vertex -14.7142782211304 -15.5203475952148 0.247254341840744
endloop
endfacet
facet normal 0.000760558701585978 0.00554509134963155 0.999984323978424
outer loop
vertex -14.6134481430054 -15.4184513092041 0.246612623333931
vertex -14.7142782211304 -15.5203475952148 0.247254341840744
vertex -11.5606822967529 -18.3998737335205 0.260823309421539
endloop
endfacet
facet normal 0.000760558701585978 0.00554509181529284 0.999984383583069
outer loop
vertex -11.6815280914307 -18.5219841003418 0.261592328548431
vertex -9.68776798248291 -20.495288848877 0.271018266677856
vertex -11.5606822967529 -18.3998737335205 0.260823309421539
endloop
endfacet
facet normal 0.000760558759793639 0.00554509134963155 0.999984383583069
outer loop
vertex -9.55374908447266 -20.3599052429199 0.270165592432022
vertex -11.5606822967529 -18.3998737335205 0.260823309421539
vertex -9.68776798248291 -20.495288848877 0.271018266677856
endloop
endfacet
facet normal 0.000760558701585978 0.00554509134963155 0.999984323978424
outer loop
vertex -9.68776798248291 -20.495288848877 0.271018266677856
vertex -8.6752347946167 -21.4974346160889 0.275805234909058
vertex -9.55374908447266 -20.3599052429199 0.270165592432022
endloop
endfacet
facet normal 0.000760558643378317 0.00554509134963155 0.999984323978424
outer loop
vertex -8.53454494476318 -21.3552913665771 0.274910032749176
vertex -9.55374908447266 -20.3599052429199 0.270165592432022
vertex -8.6752347946167 -21.4974346160889 0.275805234909058
endloop
endfacet
facet normal -0.707116007804871 0.00474760541692376 0.707081615924835
outer loop
vertex -20.2055282592773 -0.074898935854435 -20.2060070037842
vertex -21.2128791809082 -0.078633040189743 -21.2133827209473
vertex -20.2058258056641 -0.265398740768433 -20.2050247192383
endloop
endfacet
facet normal -0.707116007804871 0.00474760541692376 0.707081615924835
outer loop
vertex -21.2131805419922 -0.27863010764122 -21.2123394012451
vertex -20.2058258056641 -0.265398740768433 -20.2050247192383
vertex -21.2128791809082 -0.078633040189743 -21.2133827209473
endloop
endfacet
facet normal -0.707116007804871 0.00474760541692376 0.70708167552948
outer loop
vertex -20.2058258056641 -0.265398740768433 -20.2050247192383
vertex -18.2222309112549 -0.23934468626976 -18.2215099334717
vertex -20.2055282592773 -0.074898935854435 -20.2060070037842
endloop
endfacet
facet normal -0.707115948200226 0.00474760541692376 0.70708167552948
outer loop
vertex -18.2219791412354 -0.0675462111830711 -18.222412109375
vertex -20.2055282592773 -0.074898935854435 -20.2060070037842
vertex -18.2222309112549 -0.23934468626976 -18.2215099334717
endloop
endfacet
facet normal -0.707116007804871 0.00474760541692376 0.707081615924835
outer loop
vertex -18.2219791412354 -0.0675462111830711 -18.222412109375
vertex -18.2222309112549 -0.23934468626976 -18.2215099334717
vertex -15.2047777175903 -0.0563618876039982 -15.2051382064819
endloop
endfacet
facet normal -0.707116007804871 0.00474760541692376 0.707081615924835
outer loop
vertex -15.2049808502197 -0.199713826179504 -15.2043790817261
vertex -15.2047777175903 -0.0563618876039982 -15.2051382064819
vertex -18.2222309112549 -0.23934468626976 -18.2215099334717
endloop
endfacet
facet normal -0.707115948200226 0.00474760541692376 0.707081615924835
outer loop
vertex -15.2049808502197 -0.199713826179504 -15.2043790817261
vertex -12.1639852523804 -0.159771054983139 -12.1635026931763
vertex -15.2047777175903 -0.0563618876039982 -15.2051382064819
endloop
endfacet
facet normal -0.707115948200226 0.00474760541692376 0.707081615924835
outer loop
vertex -12.1638221740723 -0.0450895093381405 -12.1641101837158
vertex -15.2047777175903 -0.0563618876039982 -15.2051382064819
vertex -12.1639852523804 -0.159771054983139 -12.1635026931763
endloop
endfacet
facet normal -0.707115948200226 0.00474760541692376 0.707081615924835
outer loop
vertex -12.1638221740723 -0.0450895093381405 -12.1641101837158
vertex -12.1639852523804 -0.159771054983139 -12.1635026931763
vertex -9.1228666305542 -0.0338171310722828 -9.12308311462402
endloop
endfacet
facet normal -0.707116007804871 0.00474760541692376 0.707081615924835
outer loop
vertex -9.1229887008667 -0.119828298687935 -9.12262725830078
vertex -9.1228666305542 -0.0338171310722828 -9.12308311462402
vertex -12.1639852523804 -0.159771054983139 -12.1635026931763
endloop
endfacet
facet normal -0.707116007804871 0.00474760541692376 0.707081615924835
outer loop
vertex -9.1229887008667 -0.119828298687935 -9.12262725830078
vertex -6.08199262619019 -0.0798855274915695 -6.08175134658813
vertex -9.1228666305542 -0.0338171310722828 -9.12308311462402
endloop
endfacet
facet normal -0.707115948200226 0.00474760541692376 0.707081615924835
outer loop
vertex -6.08191108703613 -0.0225447546690702 -6.08205509185791
vertex -9.1228666305542 -0.0338171310722828 -9.12308311462402
vertex -6.08199262619019 -0.0798855274915695 -6.08175134658813
endloop
endfacet
facet normal -0.707115948200226 0.00474760541692376 0.707081615924835
outer loop
vertex -6.08191108703613 -0.0225447546690702 -6.08205509185791
vertex -6.08199262619019 -0.0798855274915695 -6.08175134658813
vertex -3.04095554351807 -0.0112723773345351 -3.04102754592896
endloop
endfacet
facet normal -0.707115948200226 0.00474760541692376 0.707081615924835
outer loop
vertex -3.04099631309509 -0.0399427637457848 -3.04087567329407
vertex -3.04095554351807 -0.0112723773345351 -3.04102754592896
vertex -6.08199262619019 -0.0798855274915695 -6.08175134658813
endloop
endfacet
facet normal -0.707115948200226 0.00474760541692376 0.707081615924835
outer loop
vertex -3.04095554351807 -0.0112723773345351 -3.04102754592896
vertex -3.04099631309509 -0.0399427637457848 -3.04087567329407
vertex 0 0 0
endloop
endfacet
facet normal 0.707087278366089 0.00663299346342683 -0.707095146179199
outer loop
vertex 0.000256411411100999 -0.0299988929182291 -2.49997901846655e-05
vertex -0.146482333540916 -0.0317188650369644 -0.146778255701065
vertex 0 0 0
endloop
endfacet
facet normal 0.707087337970734 0.00663299392908812 -0.707095146179199
outer loop
vertex -0.146748796105385 -0.000543976319022477 -0.146752268075943
vertex 0 0 0
vertex -0.146482333540916 -0.0317188650369644 -0.146778255701065
endloop
endfacet
facet normal 0.707087337970734 0.00663299392908812 -0.707095146179199
outer loop
vertex -0.146748796105385 -0.000543976319022477 -0.146752268075943
vertex -0.146482333540916 -0.0317188650369644 -0.146778255701065
vertex -0.395870983600616 -0.0014674358535558 -0.395880371332169
endloop
endfacet
facet normal 0.707087278366089 0.00663299392908812 -0.707095086574554
outer loop
vertex -0.395587474107742 -0.0346387103199959 -0.395908027887344
vertex -0.395870983600616 -0.0014674358535558 -0.395880371332169
vertex -0.146482333540916 -0.0317188650369644 -0.146778255701065
endloop
endfacet
facet normal 0.707087278366089 0.00663299392908812 -0.707095146179199
outer loop
vertex -0.818783283233643 -0.00303510995581746 -0.818802714347839
vertex -0.395870983600616 -0.0014674358535558 -0.395880371332169
vertex -0.81847083568573 -0.0395954661071301 -0.81883317232132
endloop
endfacet
facet normal 0.707087278366089 0.00663299392908812 -0.707095146179199
outer loop
vertex -0.395587474107742 -0.0346387103199959 -0.395908027887344
vertex -0.81847083568573 -0.0395954661071301 -0.81883317232132
vertex -0.395870983600616 -0.0014674358535558 -0.395880371332169
endloop
endfacet
facet normal 0.707087337970734 0.00663299392908812 -0.707095146179199
outer loop
vertex -1.53672349452972 -0.00569640891626477 -1.53675985336304
vertex -0.818783283233643 -0.00303510995581746 -0.818802714347839
vertex -1.53636181354523 -0.0480100996792316 -1.53679513931274
endloop
endfacet
facet normal 0.707087278366089 0.00663299346342683 -0.707095086574554
outer loop
vertex -0.81847083568573 -0.0395954661071301 -0.81883317232132
vertex -1.53636181354523 -0.0480100996792316 -1.53679513931274
vertex -0.818783283233643 -0.00303510995581746 -0.818802714347839
endloop
endfacet
facet normal 0.707087278366089 0.00663299346342683 -0.707095146179199
outer loop
vertex -1.53672349452972 -0.00569640891626477 -1.53675985336304
vertex -1.53636181354523 -0.0480100996792316 -1.53679513931274
vertex -2.75550580024719 -0.0102142561227083 -2.75557088851929
endloop
endfacet
facet normal 0.707087337970734 0.0066329943947494 -0.707095146179199
outer loop
vertex -2.75506067276001 -0.0622948668897152 -2.75561451911926
vertex -2.75550580024719 -0.0102142561227083 -2.75557088851929
vertex -1.53636181354523 -0.0480100996792316 -1.53679513931274
endloop
endfacet
facet normal 0.707087337970734 0.00663299392908812 -0.707095146179199
outer loop
vertex -4.82452249526978 -0.01788379997015 -4.82463693618774
vertex -2.75550580024719 -0.0102142561227083 -2.75557088851929
vertex -4.82393550872803 -0.0865448340773582 -4.82469415664673
endloop
endfacet
facet normal 0.707087278366089 0.00663299346342683 -0.707095146179199
outer loop
vertex -2.75506067276001 -0.0622948668897152 -2.75561451911926
vertex -4.82393550872803 -0.0865448340773582 -4.82469415664673
vertex -2.75550580024719 -0.0102142561227083 -2.75557088851929
endloop
endfacet
facet normal 0.707087337970734 0.00663299392908812 -0.707095146179199
outer loop
vertex -4.82452249526978 -0.01788379997015 -4.82463693618774
vertex -4.82393550872803 -0.0865448340773582 -4.82469415664673
vertex -7.84264755249023 -0.0290715470910072 -7.84283351898193
endloop
endfacet
facet normal 0.707087337970734 0.00663299392908812 -0.707095146179199
outer loop
vertex -7.84185361862183 -0.121918842196465 -7.84291076660156
vertex -7.84264755249023 -0.0290715470910072 -7.84283351898193
vertex -4.82393550872803 -0.0865448340773582 -4.82469415664673
endloop
endfacet
facet normal 0.707087278366089 0.00663299346342683 -0.707095086574554
outer loop
vertex -7.84264755249023 -0.0290715470910072 -7.84283351898193
vertex -7.84185361862183 -0.121918842196465 -7.84291076660156
vertex -10.914345741272 -0.0404578819870949 -10.9146041870117
endloop
endfacet
facet normal 0.707087337970734 0.0066329943947494 -0.707095146179199
outer loop
vertex -10.9133415222168 -0.157920762896538 -10.9147024154663
vertex -10.914345741272 -0.0404578819870949 -10.9146041870117
vertex -7.84185361862183 -0.121918842196465 -7.84291076660156
endloop
endfacet
facet normal 0.707087337970734 0.0066329943947494 -0.707095146179199
outer loop
vertex -10.914345741272 -0.0404578819870949 -10.9146041870117
vertex -10.9133415222168 -0.157920762896538 -10.9147024154663
vertex -13.9860439300537 -0.0518442206084728 -13.9863758087158
endloop
endfacet
facet normal 0.707087278366089 0.00663299346342683 -0.707095146179199
outer loop
vertex -13.9848299026489 -0.193922683596611 -13.9864940643311
vertex -13.9860439300537 -0.0518442206084728 -13.9863758087158
vertex -10.9133415222168 -0.157920762896538 -10.9147024154663
endloop
endfacet
facet normal 0.707087278366089 0.00663299346342683 -0.707095146179199
outer loop
vertex -13.9848299026489 -0.193922683596611 -13.9864940643311
vertex -16.9289226531982 -0.228431358933449 -16.9308776855469
vertex -13.9860439300537 -0.0518442206084728 -13.9863758087158
endloop
endfacet
facet normal 0.707087337970734 0.0066329943947494 -0.707095146179199
outer loop
vertex -16.9303379058838 -0.0627582892775536 -16.9307403564453
vertex -13.9860439300537 -0.0518442206084728 -13.9863758087158
vertex -16.9289226531982 -0.228431358933449 -16.9308776855469
endloop
endfacet
facet normal 0.707087278366089 0.00663299346342683 -0.707095086574554
outer loop
vertex -18.9874172210693 -0.252559632062912 -18.9895763397217
vertex -18.9889736175537 -0.0703893452882767 -18.9894237518311
vertex -16.9289226531982 -0.228431358933449 -16.9308776855469
endloop
endfacet
facet normal 0.707087278366089 0.00663299392908812 -0.707095146179199
outer loop
vertex -16.9303379058838 -0.0627582892775536 -16.9307403564453
vertex -16.9289226531982 -0.228431358933449 -16.9308776855469
vertex -18.9889736175537 -0.0703893452882767 -18.9894237518311
endloop
endfacet
facet normal 0.707087278366089 0.00663299392908812 -0.707095146179199
outer loop
vertex -18.9874172210693 -0.252559632062912 -18.9895763397217
vertex -20.3324298858643 -0.268324971199036 -20.3347206115723
vertex -18.9889736175537 -0.0703893452882767 -18.9894237518311
endloop
endfacet
facet normal 0.707087337970734 0.00663299392908812 -0.707095146179199
outer loop
vertex -20.334077835083 -0.0753754526376724 -20.3345603942871
vertex -18.9889736175537 -0.0703893452882767 -18.9894237518311
vertex -20.3324298858643 -0.268324971199036 -20.3347206115723
endloop
endfacet
facet normal 0.707087337970734 0.0066329943947494 -0.707095146179199
outer loop
vertex -20.3324298858643 -0.268324971199036 -20.3347206115723
vertex -21.211254119873 -0.278625965118408 -21.2136344909668
vertex -20.334077835083 -0.0753754526376724 -20.3345603942871
endloop
endfacet
facet normal 0.707087278366089 0.00663299392908812 -0.707095146179199
outer loop
vertex -21.2129650115967 -0.0786333531141281 -21.2134666442871
vertex -20.334077835083 -0.0753754526376724 -20.3345603942871
vertex -21.211254119873 -0.278625965118408 -21.2136344909668
endloop
endfacet
facet normal -0.322980672121048 -0.946405529975891 0
outer loop
vertex -3.78463888168335 -33.7880363464355 0.0599999986588955
vertex -3.58822512626648 -33.8550643920898 0.0594119802117348
vertex -3.78463888168335 -33.7880363464355 0.0900000035762787
endloop
endfacet
facet normal -0.322980672121048 -0.946405529975891 3.22050396875558e-14
outer loop
vertex -3.58822512626648 -33.8550643920898 0.0905880182981491
vertex -3.78463888168335 -33.7880363464355 0.0900000035762787
vertex -3.58822512626648 -33.8550643920898 0.0594119802117348
endloop
endfacet
facet normal -0.322980672121048 -0.946405589580536 3.22050396875558e-14
outer loop
vertex -3.58822512626648 -33.8550643920898 0.0594119802117348
vertex -3.25479125976563 -33.9688568115234 0.0584137514233589
vertex -3.58822512626648 -33.8550643920898 0.0905880182981491
endloop
endfacet
facet normal -0.322980672121048 -0.946405529975891 -3.88137872536776e-13
outer loop
vertex -3.25479125976563 -33.9688568115234 0.091586247086525
vertex -3.58822512626648 -33.8550643920898 0.0905880182981491
vertex -3.25479125976563 -33.9688568115234 0.0584137514233589
endloop
endfacet
facet normal -0.322980672121048 -0.946405589580536 3.6392723144936e-13
outer loop
vertex -2.68875098228455 -34.1620292663574 0.0567191503942013
vertex -2.68875098228455 -34.1620292663574 0.0932808518409729
vertex -3.25479125976563 -33.9688568115234 0.0584137514233589
endloop
endfacet
facet normal -0.322980672121048 -0.946405589580536 -3.88137872536776e-13
outer loop
vertex -3.25479125976563 -33.9688568115234 0.091586247086525
vertex -3.25479125976563 -33.9688568115234 0.0584137514233589
vertex -2.68875098228455 -34.1620292663574 0.0932808518409729
endloop
endfacet
facet normal -0.322980672121048 -0.946405589580536 -1.65696314091343e-13
outer loop
vertex -1.72783493995667 -34.4899635314941 0.0538423731923103
vertex -1.72783493995667 -34.4899635314941 0.0961576253175735
vertex -2.68875098228455 -34.1620292663574 0.0567191503942013
endloop
endfacet
facet normal -0.322980672121048 -0.946405589580536 3.6392723144936e-13
outer loop
vertex -2.68875098228455 -34.1620292663574 0.0932808518409729
vertex -2.68875098228455 -34.1620292663574 0.0567191503942013
vertex -1.72783493995667 -34.4899635314941 0.0961576253175735
endloop
endfacet
facet normal -0.32298070192337 -0.946405589580536 -1.65696300538816e-13
outer loop
vertex -1.72783493995667 -34.4899635314941 0.0538423731923103
vertex -0.0965744704008102 -35.0466651916504 0.0489587336778641
vertex -1.72783493995667 -34.4899635314941 0.0961576253175735
endloop
endfacet
facet normal -0.322980642318726 -0.946405529975891 1.11878856060097e-14
outer loop
vertex -0.0965744704008102 -35.0466651916504 0.10104126483202
vertex -1.72783493995667 -34.4899635314941 0.0961576253175735
vertex -0.0965744704008102 -35.0466651916504 0.0489587336778641
endloop
endfacet
facet normal -0.322980672121048 -0.946405649185181 -2.25116244547373e-13
outer loop
vertex 2.67266941070557 -35.9917259216309 0.0406682156026363
vertex 2.67266941070557 -35.9917259216309 0.109331779181957
vertex -0.0965744704008102 -35.0466651916504 0.0489587336778641
endloop
endfacet
facet normal -0.322980672121048 -0.946405529975891 1.11878856060097e-14
outer loop
vertex -0.0965744704008102 -35.0466651916504 0.10104126483202
vertex -0.0965744704008102 -35.0466651916504 0.0489587336778641
vertex 2.67266941070557 -35.9917259216309 0.109331779181957
endloop
endfacet
facet normal -0.322980642318726 -0.946405529975891 -2.25116203889791e-13
outer loop
vertex 2.67266941070557 -35.9917259216309 0.0406682156026363
vertex 6.71223258972168 -37.3703117370605 0.0285746399313211
vertex 2.67266941070557 -35.9917259216309 0.109331779181957
endloop
endfacet
facet normal -0.322980642318726 -0.946405529975891 -3.53496732211599e-14
outer loop
vertex 6.71223258972168 -37.3703117370605 0.121425360441208
vertex 2.67266941070557 -35.9917259216309 0.109331779181957
vertex 6.71223258972168 -37.3703117370605 0.0285746399313211
endloop
endfacet
facet normal -0.322980642318726 -0.946405529975891 6.21309102256939e-14
outer loop
vertex 10.8234996795654 -38.7733688354492 0.133733600378036
vertex 6.71223258972168 -37.3703117370605 0.121425360441208
vertex 10.8234996795654 -38.7733688354492 0.0162663944065571
endloop
endfacet
facet normal -0.322980672121048 -0.946405529975891 -3.53496732211599e-14
outer loop
vertex 6.71223258972168 -37.3703117370605 0.0285746399313211
vertex 10.8234996795654 -38.7733688354492 0.0162663944065571
vertex 6.71223258972168 -37.3703117370605 0.121425360441208
endloop
endfacet
facet normal -0.322980642318726 -0.946405529975891 6.21309102256939e-14
outer loop
vertex 10.8234996795654 -38.7733688354492 0.133733600378036
vertex 10.8234996795654 -38.7733688354492 0.0162663944065571
vertex 14.9347677230835 -40.1764221191406 0.146041855216026
endloop
endfacet
facet normal -0.322980672121048 -0.946405589580536 -2.71387323421204e-14
outer loop
vertex 14.9347677230835 -40.1764221191406 0.0039581498131156
vertex 14.9347677230835 -40.1764221191406 0.146041855216026
vertex 10.8234996795654 -38.7733688354492 0.0162663944065571
endloop
endfacet
facet normal -0.32298070192337 -0.946405589580536 -2.71387340361863e-14
outer loop
vertex 14.9347677230835 -40.1764221191406 0.146041855216026
vertex 14.9347677230835 -40.1764221191406 0.0039581498131156
vertex 18.8755130767822 -41.5212860107422 0.157839581370354
endloop
endfacet
facet normal -0.322980642318726 -0.946405529975891 -6.73247875092493e-14
outer loop
vertex 18.8755130767822 -41.5212860107422 -0.00783958751708269
vertex 18.8755130767822 -41.5212860107422 0.157839581370354
vertex 14.9347677230835 -40.1764221191406 0.0039581498131156
endloop
endfacet
facet normal -0.322980642318726 -0.946405529975891 1.25971739414537e-14
outer loop
vertex 21.6308631896973 -42.4616050720215 0.166088506579399
vertex 18.8755130767822 -41.5212860107422 0.157839581370354
vertex 21.6308631896973 -42.4616050720215 -0.0160885080695152
endloop
endfacet
facet normal -0.322980672121048 -0.946405589580536 -6.73247942855129e-14
outer loop
vertex 18.8755130767822 -41.5212860107422 -0.00783958751708269
vertex 21.6308631896973 -42.4616050720215 -0.0160885080695152
vertex 18.8755130767822 -41.5212860107422 0.157839581370354
endloop
endfacet
facet normal -0.32298070192337 -0.946405589580536 1.25971756355196e-14
outer loop
vertex 21.6308631896973 -42.4616050720215 0.166088506579399
vertex 21.6308631896973 -42.4616050720215 -0.0160885080695152
vertex 23.4311962127686 -43.0760078430176 0.171478316187859
endloop
endfacet
facet normal -0.322980642318726 -0.946405589580536 -5.94671339081143e-15
outer loop
vertex 23.4311962127686 -43.0760078430176 -0.0214783195406199
vertex 23.4311962127686 -43.0760078430176 0.171478316187859
vertex 21.6308631896973 -42.4616050720215 -0.0160885080695152
endloop
endfacet
facet normal -0.32298070192337 -0.946405589580536 -5.9467138143279e-15
outer loop
vertex 23.4311962127686 -43.0760078430176 0.171478316187859
vertex 23.4311962127686 -43.0760078430176 -0.0214783195406199
vertex 24.6075286865234 -43.4774551391602 0.174999997019768
endloop
endfacet
facet normal -0.322980672121048 -0.946405589580536 0
outer loop
vertex 24.6075286865234 -43.4774551391602 -0.025000000372529
vertex 24.6075286865234 -43.4774551391602 0.174999997019768
vertex 23.4311962127686 -43.0760078430176 -0.0214783195406199
endloop
endfacet
facet normal 0.00715604657307267 -0.00239791395142674 0.999971568584442
outer loop
vertex -2.89374566078186 -34.0873908996582 0.0529066994786263
vertex -2.84558916091919 -33.943675994873 0.0529066994786263
vertex -3.78463888168335 -33.7880363464355 0.0599999986588955
endloop
endfacet
facet normal 0.00715604657307267 -0.0023979137185961 0.999971449375153
outer loop
vertex -3.73697996139526 -33.645809173584 0.0599999986588955
vertex -3.78463888168335 -33.7880363464355 0.0599999986588955
vertex -2.84558916091919 -33.943675994873 0.0529066994786263
endloop
endfacet
facet normal 0.00715604657307267 -0.00239791395142674 0.999971508979797
outer loop
vertex -2.89374566078186 -34.0873908996582 0.0529066994786263
vertex -1.53499603271484 -34.5439529418945 0.0420883186161518
vertex -2.84558916091919 -33.943675994873 0.0529066994786263
endloop
endfacet
facet normal 0.00715604657307267 -0.0023979137185961 0.999971508979797
outer loop
vertex -1.48608040809631 -34.3979721069336 0.0420883186161518
vertex -2.84558916091919 -33.943675994873 0.0529066994786263
vertex -1.53499603271484 -34.5439529418945 0.0420883186161518
endloop
endfacet
facet normal 0.0071560456417501 -0.00239791348576546 0.999971449375153
outer loop
vertex 0.537306725978851 -35.2402801513672 0.0255886185914278
vertex 0.587380051612854 -35.0908470153809 0.0255886185914278
vertex -1.53499603271484 -34.5439529418945 0.0420883186161518
endloop
endfacet
facet normal 0.00715604750439525 -0.00239791395142674 0.999971568584442
outer loop
vertex -1.48608040809631 -34.3979721069336 0.0420883186161518
vertex -1.53499603271484 -34.5439529418945 0.0420883186161518
vertex 0.587380051612854 -35.0908470153809 0.0255886185914278
endloop
endfacet
facet normal 0.00715604750439525 -0.00239791418425739 0.999971568584442
outer loop
vertex 0.537306725978851 -35.2402801513672 0.0255886185914278
vertex 3.70492124557495 -36.3046493530273 0.000368034496204928
vertex 0.587380051612854 -35.0908470153809 0.0255886185914278
endloop
endfacet
facet normal 0.00715604657307267 -0.0023979137185961 0.999971449375153
outer loop
vertex 3.75676417350769 -36.1499366760254 0.000368034496204928
vertex 0.587380051612854 -35.0908470153809 0.0255886185914278
vertex 3.70492124557495 -36.3046493530273 0.000368034496204928
endloop
endfacet
facet normal 0.00715604703873396 -0.00239791395142674 0.999971568584442
outer loop
vertex 7.66636562347412 -37.6357612609863 -0.0311730317771435
vertex 7.7204213142395 -37.4744415283203 -0.0311730317771435
vertex 3.70492124557495 -36.3046493530273 0.000368034496204928
endloop
endfacet
facet normal 0.00715604657307267 -0.0023979137185961 0.999971508979797
outer loop
vertex 3.75676417350769 -36.1499366760254 0.000368034496204928
vertex 3.70492124557495 -36.3046493530273 0.000368034496204928
vertex 7.7204213142395 -37.4744415283203 -0.0311730317771435
endloop
endfacet
facet normal 0.00715604703873396 -0.00239791395142674 0.999971568584442
outer loop
vertex 7.66636562347412 -37.6357612609863 -0.0311730317771435
vertex 11.6278095245361 -38.966869354248 -0.0627140998840332
vertex 7.7204213142395 -37.4744415283203 -0.0311730317771435
endloop
endfacet
facet normal 0.00715604750439525 -0.00239791395142674 0.999971568584442
outer loop
vertex 11.6840791702271 -38.7989463806152 -0.0627140998840332
vertex 7.7204213142395 -37.4744415283203 -0.0311730317771435
vertex 11.6278095245361 -38.966869354248 -0.0627140998840332
endloop
endfacet
facet normal 0.00715604703873396 -0.00239791395142674 0.999971568584442
outer loop
vertex 15.5892543792725 -40.297981262207 -0.0942551642656326
vertex 15.6477355957031 -40.1234512329102 -0.0942551642656326
vertex 11.6278095245361 -38.966869354248 -0.0627140998840332
endloop
endfacet
facet normal 0.00715604750439525 -0.00239791395142674 0.999971568584442
outer loop
vertex 11.6840791702271 -38.7989463806152 -0.0627140998840332
vertex 11.6278095245361 -38.966869354248 -0.0627140998840332
vertex 15.6477355957031 -40.1234512329102 -0.0942551642656326
endloop
endfacet
facet normal 0.00715604703873396 -0.0023979137185961 0.999971508979797
outer loop
vertex 15.5892543792725 -40.297981262207 -0.0942551642656326
vertex 19.2552070617676 -41.5298004150391 -0.123443521559238
vertex 15.6477355957031 -40.1234512329102 -0.0942551642656326
endloop
endfacet
facet normal 0.00715604703873396 -0.00239791395142674 0.999971508979797
outer loop
vertex 19.3157367706299 -41.3491592407227 -0.123443521559238
vertex 15.6477355957031 -40.1234512329102 -0.0942551642656326
vertex 19.2552070617676 -41.5298004150391 -0.123443521559238
endloop
endfacet
facet normal 0.00715604703873396 -0.00239791395142674 0.999971508979797
outer loop
vertex 21.7897911071777 -42.381462097168 -0.143623903393745
vertex 21.8517360687256 -42.1965980529785 -0.143623903393745
vertex 19.2552070617676 -41.5298004150391 -0.123443521559238
endloop
endfacet
facet normal 0.00715604703873396 -0.00239791395142674 0.999971568584442
outer loop
vertex 19.3157367706299 -41.3491592407227 -0.123443521559238
vertex 19.2552070617676 -41.5298004150391 -0.123443521559238
vertex 21.8517360687256 -42.1965980529785 -0.143623903393745
endloop
endfacet
facet normal 0.00715604703873396 -0.00239791395142674 0.999971508979797
outer loop
vertex 23.4992008209229 -42.9558525085449 -0.157234266400337
vertex 23.5621032714844 -42.768138885498 -0.157234266400337
vertex 21.7897911071777 -42.381462097168 -0.143623903393745
endloop
endfacet
facet normal 0.00715604610741138 -0.0023979137185961 0.999971508979797
outer loop
vertex 21.8517360687256 -42.1965980529785 -0.143623903393745
vertex 21.7897911071777 -42.381462097168 -0.143623903393745
vertex 23.5621032714844 -42.768138885498 -0.157234266400337
endloop
endfacet
facet normal 0.00715604657307267 -0.0023979137185961 0.999971508979797
outer loop
vertex 23.4992008209229 -42.9558525085449 -0.157234266400337
vertex 24.6520881652832 -43.3432388305664 -0.166413545608521
vertex 23.5621032714844 -42.768138885498 -0.157234266400337
endloop
endfacet
facet normal 0.00715604703873396 -0.00239791395142674 0.999971508979797
outer loop
vertex 24.715633392334 -43.1536026000977 -0.166413545608521
vertex 23.5621032714844 -42.768138885498 -0.157234266400337
vertex 24.6520881652832 -43.3432388305664 -0.166413545608521
endloop
endfacet
facet normal -0.230280965566635 -0.668571829795837 -0.707094430923462
outer loop
vertex 24.6527099609375 -43.343448638916 -0.166419699788094
vertex 24.6074142456055 -43.4774169921875 -0.024998351931572
vertex 23.3023090362549 -42.8896903991699 -0.15566773712635
endloop
endfacet
facet normal -0.230280935764313 -0.668571770191193 -0.707094371318817
outer loop
vertex 23.2591514587402 -43.0172920227051 -0.0209620073437691
vertex 23.3023090362549 -42.8896903991699 -0.15566773712635
vertex 24.6074142456055 -43.4774169921875 -0.024998351931572
endloop
endfacet
facet normal -0.230280950665474 -0.668571770191193 -0.707094371318817
outer loop
vertex 23.3023090362549 -42.8896903991699 -0.15566773712635
vertex 23.2591514587402 -43.0172920227051 -0.0209620073437691
vertex 20.6432113647461 -41.9961891174316 -0.134495854377747
endloop
endfacet
facet normal -0.230280950665474 -0.668571770191193 -0.707094371318817
outer loop
vertex 20.6043128967285 -42.1112747192383 -0.0130141144618392
vertex 20.6432113647461 -41.9961891174316 -0.134495854377747
vertex 23.2591514587402 -43.0172920227051 -0.0209620073437691
endloop
endfacet
facet normal -0.230280935764313 -0.668571829795837 -0.707094371318817
outer loop
vertex 20.6043128967285 -42.1112747192383 -0.0130141144618392
vertex 16.5659828186035 -40.7331085205078 -0.000924416002817452
vertex 20.6432113647461 -41.9961891174316 -0.134495854377747
endloop
endfacet
facet normal -0.230280935764313 -0.668571770191193 -0.707094311714172
outer loop
vertex 16.5984325408936 -40.6370811462402 -0.102291114628315
vertex 20.6432113647461 -41.9961891174316 -0.134495854377747
vertex 16.5659828186035 -40.7331085205078 -0.000924416002817452
endloop
endfacet
facet normal -0.230280950665474 -0.668571829795837 -0.707094371318817
outer loop
vertex 16.5984325408936 -40.6370811462402 -0.102291114628315
vertex 16.5659828186035 -40.7331085205078 -0.000924416002817452
vertex 12.5218191146851 -39.2672691345215 -0.0698328912258148
endloop
endfacet
facet normal -0.230280935764313 -0.668571770191193 -0.707094371318817
outer loop
vertex 12.4958581924438 -39.3440933227539 0.0112604675814509
vertex 12.5218191146851 -39.2672691345215 -0.0698328912258148
vertex 16.5659828186035 -40.7331085205078 -0.000924416002817452
endloop
endfacet
facet normal -0.230280935764313 -0.668571770191193 -0.707094371318817
outer loop
vertex 12.4958581924438 -39.3440933227539 0.0112604675814509
vertex 8.42573356628418 -37.955078125 0.023445351049304
vertex 12.5218191146851 -39.2672691345215 -0.0698328912258148
endloop
endfacet
facet normal -0.230280965566635 -0.668571829795837 -0.707094430923462
outer loop
vertex 8.44520473480225 -37.8974609375 -0.0373746678233147
vertex 12.5218191146851 -39.2672691345215 -0.0698328912258148
vertex 8.42573356628418 -37.955078125 0.023445351049304
endloop
endfacet
facet normal -0.230280965566635 -0.668571829795837 -0.707094430923462
outer loop
vertex 8.44520473480225 -37.8974609375 -0.0373746678233147
vertex 8.42573356628418 -37.955078125 0.023445351049304
vertex 4.36858987808228 -36.5276527404785 -0.0049164448864758
endloop
endfacet
facet normal -0.230280935764313 -0.668571770191193 -0.707094371318817
outer loop
vertex 4.35560941696167 -36.5660629272461 0.0356302335858345
vertex 4.36858987808228 -36.5276527404785 -0.0049164448864758
vertex 8.42573356628418 -37.955078125 0.023445351049304
endloop
endfacet
facet normal -0.230280935764313 -0.668571770191193 -0.707094371318817
outer loop
vertex 4.35560941696167 -36.5660629272461 0.0356302335858345
vertex 0.285485416650772 -35.1770515441895 0.0478151179850101
vertex 4.36858987808228 -36.5276527404785 -0.0049164448864758
endloop
endfacet
facet normal -0.230280935764313 -0.668571770191193 -0.707094371318817
outer loop
vertex 0.291975557804108 -35.157844543457 0.0275417771190405
vertex 4.36858987808228 -36.5276527404785 -0.0049164448864758
vertex 0.285485416650772 -35.1770515441895 0.0478151179850101
endloop
endfacet
facet normal -0.230280935764313 -0.668571770191193 -0.707094371318817
outer loop
vertex 0.285485416650772 -35.1770515441895 0.0478151179850101
vertex -3.78463888168335 -33.7880363464355 0.0599999986588955
vertex 0.291975557804108 -35.157844543457 0.0275417771190405
endloop
endfacet
facet normal -0.948100864887238 0.317698359489441 0.0131336310878396
outer loop
vertex -3.73697996139526 -33.645809173584 0.0900000035762787
vertex -3.78463888168335 -33.7880363464355 0.0900000035762787
vertex -3.72502684593201 -33.6489868164063 1.02978789806366
endloop
endfacet
facet normal -0.948100864887238 0.317698329687119 0.013133630156517
outer loop
vertex -3.77318334579468 -33.7926979064941 1.02978789806366
vertex -3.72502684593201 -33.6489868164063 1.02978789806366
vertex -3.78463888168335 -33.7880363464355 0.0900000035762787
endloop
endfacet
facet normal -0.948100864887238 0.317698359489441 0.013133630156517
outer loop
vertex -3.70679640769958 -33.6538352966309 2.46310949325562
vertex -3.72502684593201 -33.6489868164063 1.02978789806366
vertex -3.75571203231812 -33.7998123168945 2.46310949325562
endloop
endfacet
facet normal -0.948100864887238 0.317698359489441 0.013133630156517
outer loop
vertex -3.77318334579468 -33.7926979064941 1.02978789806366
vertex -3.75571203231812 -33.7998123168945 2.46310949325562
vertex -3.72502684593201 -33.6489868164063 1.02978789806366
endloop
endfacet
facet normal -0.948100924491882 0.317698359489441 0.0131336310878396
outer loop
vertex -3.70679640769958 -33.6538352966309 2.46310949325562
vertex -3.75571203231812 -33.7998123168945 2.46310949325562
vertex -3.67899250984192 -33.6612319946289 4.64914608001709
endloop
endfacet
facet normal -0.948100924491882 0.317698359489441 0.0131336310878396
outer loop
vertex -3.72906565666199 -33.8106651306152 4.64914608001709
vertex -3.67899250984192 -33.6612319946289 4.64914608001709
vertex -3.75571203231812 -33.7998123168945 2.46310949325562
endloop
endfacet
facet normal -0.948100924491882 0.317698359489441 0.0131336310878396
outer loop
vertex -3.63649249076843 -33.672534942627 7.99060773849487
vertex -3.67899250984192 -33.6612319946289 4.64914608001709
vertex -3.68833541870117 -33.8272476196289 7.99060773849487
endloop
endfacet
facet normal -0.948100924491882 0.317698359489441 0.0131336310878396
outer loop
vertex -3.72906565666199 -33.8106651306152 4.64914608001709
vertex -3.68833541870117 -33.8272476196289 7.99060773849487
vertex -3.67899250984192 -33.6612319946289 4.64914608001709
endloop
endfacet
facet normal -0.948100864887238 0.317698359489441 0.0131336310878396
outer loop
vertex -3.63649249076843 -33.672534942627 7.99060773849487
vertex -3.68833541870117 -33.8272476196289 7.99060773849487
vertex -3.58334183692932 -33.6866722106934 12.1694669723511
endloop
endfacet
facet normal -0.948100924491882 0.317698359489441 0.0131336310878396
outer loop
vertex -3.63739776611328 -33.8479919433594 12.1694669723511
vertex -3.58334183692932 -33.6866722106934 12.1694669723511
vertex -3.68833541870117 -33.8272476196289 7.99060773849487
endloop
endfacet
facet normal -0.948100924491882 0.317698359489441 0.0131336310878396
outer loop
vertex -3.53019118309021 -33.7008094787598 16.3483257293701
vertex -3.58334183692932 -33.6866722106934 12.1694669723511
vertex -3.58646011352539 -33.8687324523926 16.3483257293701
endloop
endfacet
facet normal -0.948100924491882 0.317698359489441 0.0131336310878396
outer loop
vertex -3.63739776611328 -33.8479919433594 12.1694669723511
vertex -3.58646011352539 -33.8687324523926 16.3483257293701
vertex -3.58334183692932 -33.6866722106934 12.1694669723511
endloop
endfacet
facet normal -0.948100924491882 0.317698359489441 0.0131336310878396
outer loop
vertex -3.53019118309021 -33.7008094787598 16.3483257293701
vertex -3.58646011352539 -33.8687324523926 16.3483257293701
vertex -3.4770405292511 -33.7149467468262 20.5271854400635
endloop
endfacet
facet normal -0.948100924491882 0.317698389291763 0.0131336320191622
outer loop
vertex -3.53552269935608 -33.8894729614258 20.5271854400635
vertex -3.4770405292511 -33.7149467468262 20.5271854400635
vertex -3.58646011352539 -33.8687324523926 16.3483257293701
endloop
endfacet
facet normal -0.948100864887238 0.317698359489441 0.0131336310878396
outer loop
vertex -3.42785429954529 -33.7280311584473 24.3943347930908
vertex -3.4770405292511 -33.7149467468262 20.5271854400635
vertex -3.48838448524475 -33.9086685180664 24.3943347930908
endloop
endfacet
facet normal -0.948100864887238 0.317698329687119 0.013133630156517
outer loop
vertex -3.53552269935608 -33.8894729614258 20.5271854400635
vertex -3.48838448524475 -33.9086685180664 24.3943347930908
vertex -3.4770405292511 -33.7149467468262 20.5271854400635
endloop
endfacet
facet normal -0.948100924491882 0.317698359489441 0.013133630156517
outer loop
vertex -3.42785429954529 -33.7280311584473 24.3943347930908
vertex -3.48838448524475 -33.9086685180664 24.3943347930908
vertex -3.39384794235229 -33.7370758056641 27.0680236816406
endloop
endfacet
facet normal -0.948100864887238 0.317698329687119 0.0131336292251945
outer loop
vertex -3.45579385757446 -33.9219398498535 27.0680236816406
vertex -3.39384794235229 -33.7370758056641 27.0680236816406
vertex -3.48838448524475 -33.9086685180664 24.3943347930908
endloop
endfacet
facet normal -0.948100924491882 0.317698389291763 0.0131336320191622
outer loop
vertex -3.43381381034851 -33.9308891296387 28.8712520599365
vertex -3.37091279029846 -33.7431755065918 28.8712520599365
vertex -3.45579385757446 -33.9219398498535 27.0680236816406
endloop
endfacet
facet normal -0.948100864887238 0.317698329687119 0.013133630156517
outer loop
vertex -3.39384794235229 -33.7370758056641 27.0680236816406
vertex -3.45579385757446 -33.9219398498535 27.0680236816406
vertex -3.37091279029846 -33.7431755065918 28.8712520599365
endloop
endfacet
facet normal -0.948100805282593 0.317698329687119 0.013133630156517
outer loop
vertex -3.43381381034851 -33.9308891296387 28.8712520599365
vertex -3.41898965835571 -33.9369277954102 30.0874118804932
vertex -3.37091279029846 -33.7431755065918 28.8712520599365
endloop
endfacet
facet normal -0.948100924491882 0.317698359489441 0.0131336310878396
outer loop
vertex -3.35544443130493 -33.7472915649414 30.0874118804932
vertex -3.37091279029846 -33.7431755065918 28.8712520599365
vertex -3.41898965835571 -33.9369277954102 30.0874118804932
endloop
endfacet
facet normal 0.218373045325279 0.672562837600708 -0.707087278366089
outer loop
vertex -3.70852756500244 -33.6553153991699 0.0897435918450356
vertex -3.73697996139526 -33.645809173584 0.0900000035762787
vertex -3.66026949882507 -33.5167121887207 0.236482322216034
endloop
endfacet
facet normal 0.218373045325279 0.672562837600708 -0.707087337970734
outer loop
vertex -3.68983721733093 -33.5068321228027 0.236748784780502
vertex -3.66026949882507 -33.5167121887207 0.236482322216034
vertex -3.73697996139526 -33.645809173584 0.0900000035762787
endloop
endfacet
facet normal 0.218373045325279 0.672562837600708 -0.707087337970734
outer loop
vertex -3.68983721733093 -33.5068321228027 0.236748784780502
vertex -3.60980725288391 -33.2709083557129 0.485870987176895
vertex -3.66026949882507 -33.5167121887207 0.236482322216034
endloop
endfacet
facet normal 0.218373045325279 0.672562837600708 -0.707087278366089
outer loop
vertex -3.57834601402283 -33.281421661377 0.485587477684021
vertex -3.66026949882507 -33.5167121887207 0.236482322216034
vertex -3.60980725288391 -33.2709083557129 0.485870987176895
endloop
endfacet
facet normal 0.21837306022644 0.672562837600708 -0.707087278366089
outer loop
vertex -3.47394752502441 -32.8703956604004 0.908783316612244
vertex -3.43927192687988 -32.8819847106934 0.908470809459686
vertex -3.60980725288391 -33.2709083557129 0.485870987176895
endloop
endfacet
facet normal 0.218373030424118 0.672562837600708 -0.707087278366089
outer loop
vertex -3.57834601402283 -33.281421661377 0.485587477684021
vertex -3.60980725288391 -33.2709083557129 0.485870987176895
vertex -3.43927192687988 -32.8819847106934 0.908470809459686
endloop
endfacet
facet normal 0.218373030424118 0.672562837600708 -0.707087337970734
outer loop
vertex -3.24331045150757 -32.190486907959 1.62672340869904
vertex -3.20317816734314 -32.2038993835449 1.62636172771454
vertex -3.47394752502441 -32.8703956604004 0.908783316612244
endloop
endfacet
facet normal 0.218373045325279 0.672562837600708 -0.707087278366089
outer loop
vertex -3.43927192687988 -32.8819847106934 0.908470809459686
vertex -3.47394752502441 -32.8703956604004 0.908783316612244
vertex -3.20317816734314 -32.2038993835449 1.62636172771454
endloop
endfacet
facet normal 0.218373045325279 0.672562837600708 -0.707087337970734
outer loop
vertex -3.24331045150757 -32.190486907959 1.62672340869904
vertex -2.8517792224884 -31.0362682342529 2.8455057144165
vertex -3.20317816734314 -32.2038993835449 1.62636172771454
endloop
endfacet
facet normal 0.218373030424118 0.672562837600708 -0.707087278366089
outer loop
vertex -2.80238342285156 -31.0527744293213 2.84506058692932
vertex -3.20317816734314 -32.2038993835449 1.62636172771454
vertex -2.8517792224884 -31.0362682342529 2.8455057144165
endloop
endfacet
facet normal 0.218373045325279 0.672562837600708 -0.707087337970734
outer loop
vertex -2.18711137771606 -29.0768527984619 4.91452264785767
vertex -2.12199020385742 -29.0986137390137 4.91393566131592
vertex -2.8517792224884 -31.0362682342529 2.8455057144165
endloop
endfacet
facet normal 0.218373045325279 0.672562837600708 -0.707087278366089
outer loop
vertex -2.80238342285156 -31.0527744293213 2.84506058692932
vertex -2.8517792224884 -31.0362682342529 2.8455057144165
vertex -2.12199020385742 -29.0986137390137 4.91393566131592
endloop
endfacet
facet normal 0.218373045325279 0.672562837600708 -0.707087337970734
outer loop
vertex -2.18711137771606 -29.0768527984619 4.91452264785767
vertex -1.21754467487335 -26.2186050415039 7.93264722824097
vertex -2.12199020385742 -29.0986137390137 4.91393566131592
endloop
endfacet
facet normal 0.218373045325279 0.672562837600708 -0.707087337970734
outer loop
vertex -1.12948393821716 -26.2480316162109 7.93185377120972
vertex -2.12199020385742 -29.0986137390137 4.91393566131592
vertex -1.21754467487335 -26.2186050415039 7.93264722824097
endloop
endfacet
facet normal 0.218373045325279 0.672562897205353 -0.707087337970734
outer loop
vertex -0.119360215961933 -23.346851348877 11.0033416748047
vertex -1.12948393821716 -26.2480316162109 7.93185377120972
vertex -0.230767577886581 -23.3096237182617 11.0043458938599
endloop
endfacet
facet normal 0.218373030424118 0.672562837600708 -0.707087278366089
outer loop
vertex -1.21754467487335 -26.2186050415039 7.93264722824097
vertex -0.230767577886581 -23.3096237182617 11.0043458938599
vertex -1.12948393821716 -26.2480316162109 7.93185377120972
endloop
endfacet
facet normal 0.218373045325279 0.672562897205353 -0.707087337970734
outer loop
vertex -0.119360215961933 -23.346851348877 11.0033416748047
vertex -0.230767577886581 -23.3096237182617 11.0043458938599
vertex 0.890763521194458 -20.445671081543 14.0748300552368
endloop
endfacet
facet normal 0.218373030424118 0.672562837600708 -0.707087278366089
outer loop
vertex 0.756009578704834 -20.4006404876709 14.0760440826416
vertex 0.890763521194458 -20.445671081543 14.0748300552368
vertex -0.230767577886581 -23.3096237182617 11.0043458938599
endloop
endfacet
facet normal 0.218373045325279 0.672562837600708 -0.707087337970734
outer loop
vertex 0.890763521194458 -20.445671081543 14.0748300552368
vertex 0.756009578704834 -20.4006404876709 14.0760440826416
vertex 1.85899043083191 -17.6648216247559 17.0189228057861
endloop
endfacet
facet normal 0.218373045325279 0.672562777996063 -0.707087278366089
outer loop
vertex 1.70185828208923 -17.6123142242432 17.0203380584717
vertex 1.85899043083191 -17.6648216247559 17.0189228057861
vertex 0.756009578704834 -20.4006404876709 14.0760440826416
endloop
endfacet
facet normal 0.218373045325279 0.672562777996063 -0.707087278366089
outer loop
vertex 2.53596997261047 -15.7204656600952 19.0774173736572
vertex 1.85899043083191 -17.6648216247559 17.0189228057861
vertex 2.3631911277771 -15.6627292633057 19.0789737701416
endloop
endfacet
facet normal 0.218373045325279 0.672562837600708 -0.707087278366089
outer loop
vertex 1.70185828208923 -17.6123142242432 17.0203380584717
vertex 2.3631911277771 -15.6627292633057 19.0789737701416
vertex 1.85899043083191 -17.6648216247559 17.0189228057861
endloop
endfacet
facet normal 0.218373030424118 0.672562777996063 -0.707087278366089
outer loop
vertex 2.53596997261047 -15.7204656600952 19.0774173736572
vertex 2.3631911277771 -15.6627292633057 19.0789737701416
vertex 2.97830581665039 -14.4500312805176 20.4224300384521
endloop
endfacet
facet normal 0.218373045325279 0.672562777996063 -0.707087337970734
outer loop
vertex 2.79530310630798 -14.3888788223267 20.4240779876709
vertex 2.97830581665039 -14.4500312805176 20.4224300384521
vertex 2.3631911277771 -15.6627292633057 19.0789737701416
endloop
endfacet
facet normal 0.21837306022644 0.672562837600708 -0.707087337970734
outer loop
vertex 2.97830581665039 -14.4500312805176 20.4224300384521
vertex 2.79530310630798 -14.3888788223267 20.4240779876709
vertex 3.26732611656189 -13.6199350357056 21.3012542724609
endloop
endfacet
facet normal 0.218373045325279 0.672562837600708 -0.707087278366089
outer loop
vertex 3.07764363288879 -13.5565500259399 21.3029651641846
vertex 3.26732611656189 -13.6199350357056 21.3012542724609
vertex 2.79530310630798 -14.3888788223267 20.4240779876709
endloop
endfacet
facet normal -0.229159638285637 -0.668934166431427 0.707116007804871
outer loop
vertex -2.76007890701294 -30.7659397125244 3.13095545768738
vertex -3.73697996139526 -33.645809173584 0.0900000035762787
vertex -2.73294234275818 -30.7751922607422 3.1309962272644
endloop
endfacet
facet normal -0.229159638285637 -0.668934166431427 0.707116007804871
outer loop
vertex -1.78317785263062 -27.8860721588135 6.17191123962402
vertex -2.76007890701294 -30.7659397125244 3.13095545768738
vertex -1.72890484333038 -27.904577255249 6.17199230194092
endloop
endfacet
facet normal -0.229159638285637 -0.668934166431427 0.707116007804871
outer loop
vertex -2.73294234275818 -30.7751922607422 3.1309962272644
vertex -1.72890484333038 -27.904577255249 6.17199230194092
vertex -2.76007890701294 -30.7659397125244 3.13095545768738
endloop
endfacet
facet normal -0.229159638285637 -0.668934166431427 0.707116007804871
outer loop
vertex -1.78317785263062 -27.8860721588135 6.17191123962402
vertex -1.72890484333038 -27.904577255249 6.17199230194092
vertex -0.806276798248291 -25.0062026977539 9.21286678314209
endloop
endfacet
facet normal -0.229159638285637 -0.668934106826782 0.707116007804871
outer loop
vertex -0.724867224693298 -25.0339622497559 9.21298885345459
vertex -0.806276798248291 -25.0062026977539 9.21286678314209
vertex -1.72890484333038 -27.904577255249 6.17199230194092
endloop
endfacet
facet normal -0.229159638285637 -0.668934166431427 0.707116007804871
outer loop
vertex 0.170624226331711 -22.126335144043 12.2538223266602
vertex -0.806276798248291 -25.0062026977539 9.21286678314209
vertex 0.279170334339142 -22.1633472442627 12.2539844512939
endloop
endfacet
facet normal -0.229159638285637 -0.668934106826782 0.707116007804871
outer loop
vertex -0.724867224693298 -25.0339622497559 9.21298885345459
vertex 0.279170334339142 -22.1633472442627 12.2539844512939
vertex -0.806276798248291 -25.0062026977539 9.21286678314209
endloop
endfacet
facet normal -0.229159638285637 -0.668934166431427 0.707116007804871
outer loop
vertex 0.170624226331711 -22.126335144043 12.2538223266602
vertex 0.279170334339142 -22.1633472442627 12.2539844512939
vertex 1.14752531051636 -19.246467590332 15.2947778701782
endloop
endfacet
facet normal -0.229159623384476 -0.668934106826782 0.707115948200226
outer loop
vertex 1.28320789337158 -19.2927341461182 15.2949810028076
vertex 1.14752531051636 -19.246467590332 15.2947778701782
vertex 0.279170334339142 -22.1633472442627 12.2539844512939
endloop
endfacet
facet normal -0.229159638285637 -0.668934106826782 0.707116007804871
outer loop
vertex 2.11679553985596 -16.3890933990479 18.3119792938232
vertex 1.14752531051636 -19.246467590332 15.2947778701782
vertex 2.27940535545349 -16.4445343017578 18.3122310638428
endloop
endfacet
facet normal -0.229159653186798 -0.668934106826782 0.707116007804871
outer loop
vertex 1.28320789337158 -19.2927341461182 15.2949810028076
vertex 2.27940535545349 -16.4445343017578 18.3122310638428
vertex 1.14752531051636 -19.246467590332 15.2947778701782
endloop
endfacet
facet normal -0.229159638285637 -0.668934106826782 0.707115948200226
outer loop
vertex 2.11679553985596 -16.3890933990479 18.3119792938232
vertex 2.27940535545349 -16.4445343017578 18.3122310638428
vertex 2.75400686264038 -14.5106191635132 20.2955284118652
endloop
endfacet
facet normal -0.229159638285637 -0.668934106826782 0.707116007804871
outer loop
vertex 2.93432307243347 -14.5720777511597 20.295825958252
vertex 2.75400686264038 -14.5106191635132 20.2955284118652
vertex 2.27940535545349 -16.4445343017578 18.3122310638428
endloop
endfacet
facet normal -0.229159653186798 -0.668934106826782 0.707116007804871
outer loop
vertex 2.75400686264038 -14.5106191635132 20.2955284118652
vertex 2.93432307243347 -14.5720777511597 20.295825958252
vertex 3.0776162147522 -13.5566301345825 21.3028793334961
endloop
endfacet
facet normal -0.229159638285637 -0.668934106826782 0.707116007804871
outer loop
vertex 3.26691889762878 -13.6211624145508 21.3031806945801
vertex 3.0776162147522 -13.5566301345825 21.3028793334961
vertex 2.93432307243347 -14.5720777511597 20.295825958252
endloop
endfacet
facet normal -0.322978556156158 -0.946406006813049 -0.000760558759793639
outer loop
vertex -0.555074512958527 -34.9118347167969 27.0307865142822
vertex -3.41898965835571 -33.9369277954102 30.0874118804932
vertex -0.574357032775879 -34.9052352905273 27.0106201171875
endloop
endfacet
facet normal -0.322978556156158 -0.946406006813049 -0.000760558759793639
outer loop
vertex 2.30884051322937 -35.8867416381836 23.9741592407227
vertex -0.555074512958527 -34.9118347167969 27.0307865142822
vertex 2.27027535438538 -35.8735466003418 23.9338264465332
endloop
endfacet
facet normal -0.322978556156158 -0.946406006813049 -0.000760558759793639
outer loop
vertex -0.574357032775879 -34.9052352905273 27.0106201171875
vertex 2.27027535438538 -35.8735466003418 23.9338264465332
vertex -0.555074512958527 -34.9118347167969 27.0307865142822
endloop
endfacet
facet normal -0.322978556156158 -0.946406006813049 -0.000760558759793639
outer loop
vertex 2.30884051322937 -35.8867416381836 23.9741592407227
vertex 2.27027535438538 -35.8735466003418 23.9338264465332
vertex 5.1727557182312 -36.8616485595703 20.9175319671631
endloop
endfacet
facet normal -0.322978556156158 -0.946406006813049 -0.000760558759793639
outer loop
vertex 5.11490774154663 -36.8418579101563 20.8570327758789
vertex 5.1727557182312 -36.8616485595703 20.9175319671631
vertex 2.27027535438538 -35.8735466003418 23.9338264465332
endloop
endfacet
facet normal -0.322978556156158 -0.946406006813049 -0.000760558759793639
outer loop
vertex 5.11490774154663 -36.8418579101563 20.8570327758789
vertex 7.95954036712646 -37.8101692199707 17.7802410125732
vertex 5.1727557182312 -36.8616485595703 20.9175319671631
endloop
endfacet
facet normal -0.322978556156158 -0.946406006813049 -0.000760558759793639
outer loop
vertex 8.03667068481445 -37.836555480957 17.8609046936035
vertex 5.1727557182312 -36.8616485595703 20.9175319671631
vertex 7.95954036712646 -37.8101692199707 17.7802410125732
endloop
endfacet
facet normal -0.322978556156158 -0.946406006813049 -0.000760558759793639
outer loop
vertex 7.95954036712646 -37.8101692199707 17.7802410125732
vertex 10.8041725158691 -38.7784805297852 14.7034482955933
vertex 8.03667068481445 -37.836555480957 17.8609046936035
endloop
endfacet
facet normal -0.322978556156158 -0.946406006813049 -0.000760558701585978
outer loop
vertex 10.9005861282349 -38.8114624023438 14.8042783737183
vertex 8.03667068481445 -37.836555480957 17.8609046936035
vertex 10.8041725158691 -38.7784805297852 14.7034482955933
endloop
endfacet
facet normal -0.322978526353836 -0.946406006813049 -0.000760558701585978
outer loop
vertex 13.7421283721924 -39.7787551879883 11.7715282440186
vertex 10.9005861282349 -38.8114624023438 14.8042783737183
vertex 13.6265907287598 -39.7392311096191 11.6506824493408
endloop
endfacet
facet normal -0.322978526353836 -0.946406006813049 -0.000760558701585978
outer loop
vertex 10.8041725158691 -38.7784805297852 14.7034482955933
vertex 13.6265907287598 -39.7392311096191 11.6506824493408
vertex 10.9005861282349 -38.8114624023438 14.8042783737183
endloop
endfacet
facet normal -0.322978526353836 -0.946406006813049 -0.000760558701585978
outer loop
vertex 13.7421283721924 -39.7787551879883 11.7715282440186
vertex 13.6265907287598 -39.7392311096191 11.6506824493408
vertex 15.6101884841919 -40.414665222168 9.7777681350708
endloop
endfacet
facet normal -0.322978556156158 -0.946406006813049 -0.000760558759793639
outer loop
vertex 15.4820899963379 -40.3708381652832 9.64374923706055
vertex 15.6101884841919 -40.414665222168 9.7777681350708
vertex 13.6265907287598 -39.7392311096191 11.6506824493408
endloop
endfacet
facet normal -0.322978526353836 -0.94640588760376 -0.000760558701585978
outer loop
vertex 15.6101884841919 -40.414665222168 9.7777681350708
vertex 15.4820899963379 -40.3708381652832 9.64374923706055
vertex 16.5588836669922 -40.7376098632813 8.76523494720459
endloop
endfacet
facet normal -0.322978526353836 -0.946405947208405 -0.000760558643378317
outer loop
vertex 16.4243907928467 -40.6915969848633 8.62454509735107
vertex 16.5588836669922 -40.7376098632813 8.76523494720459
vertex 15.4820899963379 -40.3708381652832 9.64374923706055
endloop
endfacet
facet normal -1 -0 -0
outer loop
vertex -0.226420000195503 -30 0.174999997019768
vertex -0.226420000195503 -30 -0.025000000372529
vertex -0.226420000195503 -31 0.174999997019768
endloop
endfacet
facet normal -1 0 0
outer loop
vertex -0.226420000195503 -31 -0.025000000372529
vertex -0.226420000195503 -31 0.174999997019768
vertex -0.226420000195503 -30 -0.025000000372529
endloop
endfacet
facet normal -0.70710676908493 0 -0.70710676908493
outer loop
vertex -0.226420000195503 -31 -0.025000000372529
vertex -0.226420000195503 -30 -0.025000000372529
vertex -0.0850000008940697 -31 -0.166419997811317
endloop
endfacet
facet normal -0.70710676908493 -0 -0.70710676908493
outer loop
vertex -0.0850000008940697 -30 -0.166419997811317
vertex -0.0850000008940697 -31 -0.166419997811317
vertex -0.226420000195503 -30 -0.025000000372529
endloop
endfacet
facet normal -0.70710676908493 0 0.70710676908493
outer loop
vertex -0.0850000008940697 -31 0.316419988870621
vertex -0.0850000008940697 -30 0.316419988870621
vertex -0.226420000195503 -31 0.174999997019768
endloop
endfacet
facet normal -0.70710676908493 0 0.70710676908493
outer loop
vertex -0.226420000195503 -30 0.174999997019768
vertex -0.226420000195503 -31 0.174999997019768
vertex -0.0850000008940697 -30 0.316419988870621
endloop
endfacet
facet normal -0 -0 -1
outer loop
vertex 0.115000002086163 -30 -0.166419997811317
vertex 0.115000002086163 -31 -0.166419997811317
vertex -0.0850000008940697 -30 -0.166419997811317
endloop
endfacet
facet normal 0 0 -1
outer loop
vertex -0.0850000008940697 -31 -0.166419997811317
vertex -0.0850000008940697 -30 -0.166419997811317
vertex 0.115000002086163 -31 -0.166419997811317
endloop
endfacet
facet normal 0 -0 1
outer loop
vertex 0.115000002086163 -31 0.316419988870621
vertex 0.115000002086163 -30 0.316419988870621
vertex -0.0850000008940697 -31 0.316419988870621
endloop
endfacet
facet normal -0 0 1
outer loop
vertex -0.0850000008940697 -30 0.316419988870621
vertex -0.0850000008940697 -31 0.316419988870621
vertex 0.115000002086163 -30 0.316419988870621
endloop
endfacet
facet normal 0.70710676908493 0 -0.70710676908493
outer loop
vertex 0.256419986486435 -30 -0.025000000372529
vertex 0.256419986486435 -31 -0.025000000372529
vertex 0.115000002086163 -30 -0.166419997811317
endloop
endfacet
facet normal 0.70710676908493 0 -0.70710676908493
outer loop
vertex 0.115000002086163 -31 -0.166419997811317
vertex 0.115000002086163 -30 -0.166419997811317
vertex 0.256419986486435 -31 -0.025000000372529
endloop
endfacet
facet normal 0.70710676908493 0 0.70710676908493
outer loop
vertex 0.115000002086163 -30 0.316419988870621
vertex 0.115000002086163 -31 0.316419988870621
vertex 0.256419986486435 -30 0.174999997019768
endloop
endfacet
facet normal 0.70710676908493 -0 0.70710676908493
outer loop
vertex 0.256419986486435 -31 0.174999997019768
vertex 0.256419986486435 -30 0.174999997019768
vertex 0.115000002086163 -31 0.316419988870621
endloop
endfacet
facet normal 1 0 -0
outer loop
vertex 0.256419986486435 -30 -0.025000000372529
vertex 0.256419986486435 -30 0.174999997019768
vertex 0.256419986486435 -31 -0.025000000372529
endloop
endfacet
facet normal 1 -0 0
outer loop
vertex 0.256419986486435 -31 0.174999997019768
vertex 0.256419986486435 -31 -0.025000000372529
vertex 0.256419986486435 -30 0.174999997019768
endloop
endfacet
facet normal -0 0.00554724829271436 0.999984681606293
outer loop
vertex -0.0850000008940697 -29.9995384216309 0.316417425870895
vertex 0.115000002086163 -29.9995384216309 0.316417425870895
vertex -0.0814783200621605 -28.7566108703613 0.30952250957489
endloop
endfacet
facet normal 0 0.00554724829271436 0.999984681606293
outer loop
vertex 0.111478321254253 -28.7566108703613 0.30952250957489
vertex -0.0814783200621605 -28.7566108703613 0.30952250957489
vertex 0.115000002086163 -29.9995384216309 0.316417425870895
endloop
endfacet
facet normal 0 0.00554724829271436 0.999984562397003
outer loop
vertex 0.111478321254253 -28.7566108703613 0.30952250957489
vertex 0.106088504195213 -26.8543548583984 0.29897004365921
vertex -0.0814783200621605 -28.7566108703613 0.30952250957489
endloop
endfacet
facet normal 1.0817930916695e-16 0.00554724829271436 0.999984622001648
outer loop
vertex -0.076088510453701 -26.8543548583984 0.29897004365921
vertex -0.0814783200621605 -28.7566108703613 0.30952250957489
vertex 0.106088504195213 -26.8543548583984 0.29897004365921
endloop
endfacet
facet normal 1.08179302549506e-16 0.00554724782705307 0.999984622001648
outer loop
vertex -0.076088510453701 -26.8543548583984 0.29897004365921
vertex 0.106088504195213 -26.8543548583984 0.29897004365921
vertex -0.0678395852446556 -23.9430160522461 0.282819896936417
endloop
endfacet
facet normal -2.18075332433581e-17 0.00554724782705307 0.999984622001648
outer loop
vertex 0.0978395864367485 -23.9430160522461 0.282819896936417
vertex -0.0678395852446556 -23.9430160522461 0.282819896936417
vertex 0.106088504195213 -26.8543548583984 0.29897004365921
endloop
endfacet
facet normal -2.18075348977194e-17 0.00554724782705307 0.999984622001648
outer loop
vertex 0.0978395864367485 -23.9430160522461 0.282819896936417
vertex 0.0860418528318405 -19.7791728973389 0.259721666574478
vertex -0.0678395852446556 -23.9430160522461 0.282819896936417
endloop
endfacet
facet normal 3.90687276536586e-16 0.00554724782705307 0.999984562397003
outer loop
vertex -0.0560418516397476 -19.7791728973389 0.259721666574478
vertex -0.0678395852446556 -23.9430160522461 0.282819896936417
vertex 0.0860418528318405 -19.7791728973389 0.259721666574478
endloop
endfacet
facet normal 3.90687329476146e-16 0.00554724829271436 0.999984622001648
outer loop
vertex -0.0560418516397476 -19.7791728973389 0.259721666574478
vertex 0.0860418528318405 -19.7791728973389 0.259721666574478
vertex -0.0437336042523384 -15.435152053833 0.235623940825462
endloop
endfacet
facet normal -3.20166277963509e-16 0.00554724782705307 0.999984562397003
outer loop
vertex 0.0737336054444313 -15.435152053833 0.235623940825462
vertex -0.0437336042523384 -15.435152053833 0.235623940825462
vertex 0.0860418528318405 -19.7791728973389 0.259721666574478
endloop
endfacet
facet normal -3.20166277963509e-16 0.00554724782705307 0.999984562397003
outer loop
vertex 0.0737336054444313 -15.435152053833 0.235623940825462
vertex 0.0614253580570221 -11.0911331176758 0.211526215076447
vertex -0.0437336042523384 -15.435152053833 0.235623940825462
endloop
endfacet
facet normal -2.1225236142429e-16 0.00554724782705307 0.999984622001648
outer loop
vertex -0.0314253605902195 -11.0911331176758 0.211526215076447
vertex -0.0437336042523384 -15.435152053833 0.235623940825462
vertex 0.0614253580570221 -11.0911331176758 0.211526215076447
endloop
endfacet
facet normal -2.1225236142429e-16 0.00554724829271436 0.999984681606293
outer loop
vertex -0.0314253605902195 -11.0911331176758 0.211526215076447
vertex 0.0614253580570221 -11.0911331176758 0.211526215076447
vertex -0.0193317830562592 -6.82287693023682 0.187848776578903
endloop
endfacet
facet normal -4.83148969542392e-16 0.00554724782705307 0.999984622001648
outer loop
vertex 0.0493317842483521 -6.82287693023682 0.187848776578903
vertex -0.0193317830562592 -6.82287693023682 0.187848776578903
vertex 0.0614253580570221 -11.0911331176758 0.211526215076447
endloop
endfacet
facet normal -4.83148969542392e-16 0.00554724829271436 0.999984622001648
outer loop
vertex 0.0493317842483521 -6.82287693023682 0.187848776578903
vertex 0.0410412661731243 -3.89685750007629 0.171617165207863
vertex -0.0193317830562592 -6.82287693023682 0.187848776578903
endloop
endfacet
facet normal 7.00032285082448e-16 0.00554724736139178 0.999984562397003
outer loop
vertex -0.011041265912354 -3.89685750007629 0.171617165207863
vertex -0.0193317830562592 -6.82287693023682 0.187848776578903
vertex 0.0410412661731243 -3.89685750007629 0.171617165207863
endloop
endfacet
facet normal 7.00032390961566e-16 0.00554724829271436 0.999984622001648
outer loop
vertex -0.011041265912354 -3.89685750007629 0.171617165207863
vertex 0.0410412661731243 -3.89685750007629 0.171617165207863
vertex -0.00615762546658516 -2.17324614524841 0.162055715918541
endloop
endfacet
facet normal 6.13221466505131e-16 0.00554724782705307 0.999984562397003
outer loop
vertex 0.0361576266586781 -2.17324614524841 0.162055715918541
vertex -0.00615762546658516 -2.17324614524841 0.162055715918541
vertex 0.0410412661731243 -3.89685750007629 0.171617165207863
endloop
endfacet
facet normal 6.1322151944469e-16 0.00554724829271436 0.999984681606293
outer loop
vertex 0.0361576266586781 -2.17324614524841 0.162055715918541
vertex 0.0332808494567871 -1.15792965888977 0.156423419713974
vertex -0.00615762546658516 -2.17324614524841 0.162055715918541
endloop
endfacet
facet normal -2.02135545486072e-16 0.00554724829271436 0.999984622001648
outer loop
vertex -0.00328085129149258 -1.15792965888977 0.156423419713974
vertex -0.00615762546658516 -2.17324614524841 0.162055715918541
vertex 0.0332808494567871 -1.15792965888977 0.156423419713974
endloop
endfacet
facet normal -2.02135532251182e-16 0.00554724782705307 0.999984562397003
outer loop
vertex -0.00328085129149258 -1.15792965888977 0.156423419713974
vertex 0.0332808494567871 -1.15792965888977 0.156423419713974
vertex -0.00158624851610512 -0.559843838214874 0.153105646371841
endloop
endfacet
facet normal -1.11393766114556e-16 0.00554724782705307 0.999984622001648
outer loop
vertex 0.0315862484276295 -0.559843838214874 0.153105646371841
vertex -0.00158624851610512 -0.559843838214874 0.153105646371841
vertex 0.0332808494567871 -1.15792965888977 0.156423419713974
endloop
endfacet
facet normal -1.11393766114556e-16 0.00554724829271436 0.999984622001648
outer loop
vertex 0.0315862484276295 -0.559843838214874 0.153105646371841
vertex 0.0305880196392536 -0.207533270120621 0.15115125477314
vertex -0.00158624851610512 -0.559843838214874 0.153105646371841
endloop
endfacet
facet normal 1.7015252901586e-15 0.00554724736139178 0.999984562397003
outer loop
vertex -0.000588020018767565 -0.207533270120621 0.15115125477314
vertex -0.00158624851610512 -0.559843838214874 0.153105646371841
vertex 0.0305880196392536 -0.207533270120621 0.15115125477314
endloop
endfacet
facet normal 1.70152539603771e-15 0.00554724782705307 0.999984622001648
outer loop
vertex -0.000588020018767565 -0.207533270120621 0.15115125477314
vertex 0.0305880196392536 -0.207533270120621 0.15115125477314
vertex 0 0 0.150000005960464
endloop
endfacet
facet normal 0 0.00554724736139178 0.999984622001648
outer loop
vertex 0.0299999993294477 0 0.150000005960464
vertex 0 0 0.150000005960464
vertex 0.0305880196392536 -0.207533270120621 0.15115125477314
endloop
endfacet
facet normal -0.999971508979797 -0.00754711823537946 0
outer loop
vertex 0.256413549184799 -29.9991455078125 -0.025000000372529
vertex 0.256413549184799 -29.9991455078125 0.174999997019768
vertex 0.247234255075455 -28.7829151153564 -0.0239864457398653
endloop
endfacet
facet normal -0.999971508979797 -0.00754711870104074 4.75840072787406e-18
outer loop
vertex 0.247234255075455 -28.7829151153564 0.173986449837685
vertex 0.247234255075455 -28.7829151153564 -0.0239864457398653
vertex 0.256413549184799 -29.9991455078125 0.174999997019768
endloop
endfacet
facet normal -0.999971508979797 -0.00754711870104074 4.75840114146437e-18
outer loop
vertex 0.247234255075455 -28.7829151153564 0.173986449837685
vertex 0.233623906970024 -26.9795837402344 0.172483623027802
vertex 0.247234255075455 -28.7829151153564 -0.0239864457398653
endloop
endfacet
facet normal -0.999971508979797 -0.00754711823537946 -1.37524375195327e-16
outer loop
vertex 0.233623906970024 -26.9795837402344 -0.0224836263805628
vertex 0.247234255075455 -28.7829151153564 -0.0239864457398653
vertex 0.233623906970024 -26.9795837402344 0.172483623027802
endloop
endfacet
facet normal -0.999971508979797 -0.00754711870104074 -1.37524388430216e-16
outer loop
vertex 0.233623906970024 -26.9795837402344 0.172483623027802
vertex 0.213443517684937 -24.3057403564453 0.170255362987518
vertex 0.233623906970024 -26.9795837402344 -0.0224836263805628
endloop
endfacet
facet normal -0.999971568584442 -0.00754711870104074 -1.35796639741165e-16
outer loop
vertex 0.213443517684937 -24.3057403564453 -0.020255358889699
vertex 0.233623906970024 -26.9795837402344 -0.0224836263805628
vertex 0.213443517684937 -24.3057403564453 0.170255362987518
endloop
endfacet
facet normal -0.999971508979797 -0.00754711870104074 -1.35796652976054e-16
outer loop
vertex 0.213443517684937 -24.3057403564453 -0.020255358889699
vertex 0.213443517684937 -24.3057403564453 0.170255362987518
vertex 0.184255167841911 -20.4383659362793 -0.0170324575155973
endloop
endfacet
facet normal -0.999971508979797 -0.00754711870104074 2.55897338761956e-17
outer loop
vertex 0.184255167841911 -20.4383659362793 0.167032450437546
vertex 0.184255167841911 -20.4383659362793 -0.0170324575155973
vertex 0.213443517684937 -24.3057403564453 0.170255362987518
endloop
endfacet
facet normal -0.999971568584442 -0.00754711916670203 2.55897355305568e-17
outer loop
vertex 0.184255167841911 -20.4383659362793 -0.0170324575155973
vertex 0.184255167841911 -20.4383659362793 0.167032450437546
vertex 0.152714103460312 -16.2592658996582 -0.013549773953855
endloop
endfacet
facet normal -0.999971568584442 -0.00754711870104074 -1.24803144702539e-16
outer loop
vertex 0.152714103460312 -16.2592658996582 0.163549780845642
vertex 0.152714103460312 -16.2592658996582 -0.013549773953855
vertex 0.184255167841911 -20.4383659362793 0.167032450437546
endloop
endfacet
facet normal -0.999971568584442 -0.00754711870104074 -1.24803144702539e-16
outer loop
vertex 0.152714103460312 -16.2592658996582 0.163549780845642
vertex 0.121173031628132 -12.0801649093628 0.160067096352577
vertex 0.152714103460312 -16.2592658996582 -0.013549773953855
endloop
endfacet
facet normal -0.999971568584442 -0.00754711870104074 -5.66508075920089e-17
outer loop
vertex 0.121173031628132 -12.0801649093628 -0.0100670903921127
vertex 0.152714103460312 -16.2592658996582 -0.013549773953855
vertex 0.121173031628132 -12.0801649093628 0.160067096352577
endloop
endfacet
facet normal -0.999971568584442 -0.00754711870104074 -5.66508075920089e-17
outer loop
vertex 0.121173031628132 -12.0801649093628 -0.0100670903921127
vertex 0.121173031628132 -12.0801649093628 0.160067096352577
vertex 0.0896319672465324 -7.90106439590454 -0.006584407761693
endloop
endfacet
facet normal -0.999971508979797 -0.00754711823537946 -6.48424896946848e-17
outer loop
vertex 0.0896319672465324 -7.90106439590454 0.156584411859512
vertex 0.0896319672465324 -7.90106439590454 -0.006584407761693
vertex 0.121173031628132 -12.0801649093628 0.160067096352577
endloop
endfacet
facet normal -0.999971449375153 -0.00754711776971817 -6.48424830772399e-17
outer loop
vertex 0.0896319672465324 -7.90106439590454 -0.006584407761693
vertex 0.0896319672465324 -7.90106439590454 0.156584411859512
vertex 0.0644113793969154 -4.55940914154053 -0.00379961589351296
endloop
endfacet
facet normal -0.999971568584442 -0.00754711870104074 5.97740521606488e-18
outer loop
vertex 0.0644113793969154 -4.55940914154053 0.153799623250961
vertex 0.0644113793969154 -4.55940914154053 -0.00379961589351296
vertex 0.0896319672465324 -7.90106439590454 0.156584411859512
endloop
endfacet
facet normal -0.999971449375153 -0.00754711776971817 5.97740397529397e-18
outer loop
vertex 0.0644113793969154 -4.55940914154053 0.153799623250961
vertex 0.0479116812348366 -2.37324643135071 0.151977762579918
vertex 0.0644113793969154 -4.55940914154053 -0.00379961589351296
endloop
endfacet
facet normal -0.999971568584442 -0.00754711870104074 9.1783108772853e-18
outer loop
vertex 0.0479116812348366 -2.37324643135071 -0.00197776174172759
vertex 0.0644113793969154 -4.55940914154053 -0.00379961589351296
vertex 0.0479116812348366 -2.37324643135071 0.151977762579918
endloop
endfacet
facet normal -0.999971508979797 -0.00754711776971817 9.1783108772853e-18
outer loop
vertex 0.0479116812348366 -2.37324643135071 -0.00197776174172759
vertex 0.0479116812348366 -2.37324643135071 0.151977762579918
vertex 0.0370933003723621 -0.939842164516449 -0.000783224124461412
endloop
endfacet
facet normal -0.999971508979797 -0.00754711870104074 -7.42879526128645e-17
outer loop
vertex 0.0370933003723621 -0.939842164516449 0.150783225893974
vertex 0.0370933003723621 -0.939842164516449 -0.000783224124461412
vertex 0.0479116812348366 -2.37324643135071 0.151977762579918
endloop
endfacet
facet normal -0.999971568584442 -0.00754711870104074 -7.42879526128645e-17
outer loop
vertex 0.0370933003723621 -0.939842164516449 0.150783225893974
vertex 0.0299999993294477 0 0.150000005960464
vertex 0.0370933003723621 -0.939842164516449 -0.000783224124461412
endloop
endfacet
facet normal -0.999971449375153 -0.00754711776971817 0
outer loop
vertex 0.0299999993294477 0 0
vertex 0.0370933003723621 -0.939842164516449 -0.000783224124461412
vertex 0.0299999993294477 0 0.150000005960464
endloop
endfacet
facet normal 0.707094430923462 0.00592592265456915 0.707094430923462
outer loop
vertex 0.256419688463211 -29.9998016357422 0.174998641014099
vertex 0.245667740702629 -28.5752048492432 0.173811540007591
vertex 0.11499834805727 -29.999418258667 0.316416770219803
endloop
endfacet
facet normal 0.707094371318817 0.00592592218890786 0.707094371318817
outer loop
vertex 0.110962003469467 -28.5748252868652 0.308514088392258
vertex 0.11499834805727 -29.999418258667 0.316416770219803
vertex 0.245667740702629 -28.5752048492432 0.173811540007591
endloop
endfacet
facet normal 0.707094371318817 0.00592592265456915 0.707094371318817
outer loop
vertex 0.245667740702629 -28.5752048492432 0.173811540007591
vertex 0.224495857954025 -25.7700061798096 0.171473979949951
vertex 0.110962003469467 -28.5748252868652 0.308514088392258
endloop
endfacet
facet normal 0.707094371318817 0.00592592218890786 0.707094371318817
outer loop
vertex 0.10301411151886 -25.7696876525879 0.292953044176102
vertex 0.110962003469467 -28.5748252868652 0.308514088392258
vertex 0.224495857954025 -25.7700061798096 0.171473979949951
endloop
endfacet
facet normal 0.707094371318817 0.00592592218890786 0.707094371318817
outer loop
vertex 0.10301411151886 -25.7696876525879 0.292953044176102
vertex 0.224495857954025 -25.7700061798096 0.171473979949951
vertex 0.0909244194626808 -21.5027351379395 0.269282847642899
endloop
endfacet
facet normal 0.707094311714172 0.00592592218890786 0.707094311714172
outer loop
vertex 0.192291110754013 -21.5029926300049 0.167918309569359
vertex 0.0909244194626808 -21.5027351379395 0.269282847642899
vertex 0.224495857954025 -25.7700061798096 0.171473979949951
endloop
endfacet
facet normal 0.707094371318817 0.00592592218890786 0.707094371318817
outer loop
vertex 0.192291110754013 -21.5029926300049 0.167918309569359
vertex 0.159832894802094 -17.2023944854736 0.164334639906883
vertex 0.0909244194626808 -21.5027351379395 0.269282847642899
endloop
endfacet
facet normal 0.707094371318817 0.00592592218890786 0.707094371318817
outer loop
vertex 0.0787395313382149 -17.2021884918213 0.245426267385483
vertex 0.0909244194626808 -21.5027351379395 0.269282847642899
vertex 0.159832894802094 -17.2023944854736 0.164334639906883
endloop
endfacet
facet normal 0.707094371318817 0.00592592218890786 0.707094371318817
outer loop
vertex 0.0787395313382149 -17.2021884918213 0.245426267385483
vertex 0.159832894802094 -17.2023944854736 0.164334639906883
vertex 0.0665546506643295 -12.9016408920288 0.221569702029228
endloop
endfacet
facet normal 0.707094430923462 0.00592592218890786 0.707094430923462
outer loop
vertex 0.127374663949013 -12.9017953872681 0.160750985145569
vertex 0.0665546506643295 -12.9016408920288 0.221569702029228
vertex 0.159832894802094 -17.2023944854736 0.164334639906883
endloop
endfacet
facet normal 0.707094430923462 0.00592592218890786 0.707094430923462
outer loop
vertex 0.127374663949013 -12.9017953872681 0.160750985145569
vertex 0.0949164479970932 -8.60119724273682 0.157167315483093
vertex 0.0665546506643295 -12.9016408920288 0.221569702029228
endloop
endfacet
facet normal 0.707094371318817 0.00592592218890786 0.707094371318817
outer loop
vertex 0.0543697662651539 -8.60109424591064 0.197713136672974
vertex 0.0665546506643295 -12.9016408920288 0.221569702029228
vertex 0.0949164479970932 -8.60119724273682 0.157167315483093
endloop
endfacet
facet normal 0.707094371318817 0.00592592218890786 0.707094371318817
outer loop
vertex 0.0543697662651539 -8.60109424591064 0.197713136672974
vertex 0.0949164479970932 -8.60119724273682 0.157167315483093
vertex 0.0421848818659782 -4.30054712295532 0.173856571316719
endloop
endfacet
facet normal 0.707094371318817 0.00592592218890786 0.707094371318817
outer loop
vertex 0.0624582208693027 -4.30059862136841 0.153583660721779
vertex 0.0421848818659782 -4.30054712295532 0.173856571316719
vertex 0.0949164479970932 -8.60119724273682 0.157167315483093
endloop
endfacet
facet normal 0.707094371318817 0.00592592218890786 0.707094371318817
outer loop
vertex 0.0421848818659782 -4.30054712295532 0.173856571316719
vertex 0.0624582208693027 -4.30059862136841 0.153583660721779
vertex 0.0299999993294477 0 0.150000005960464
endloop
endfacet
facet normal 0.707096695899963 0.00533669488504529 -0.707096695899963
outer loop
vertex 0.288870930671692 -34.2996520996094 -0.025000000372529
vertex 0.268598616123199 -34.2998046875 -0.045273445546627
vertex 0.256413549184799 -29.9991455078125 -0.025000000372529
endloop
endfacet
facet normal 0.707096695899963 0.00533669488504529 -0.707096695899963
outer loop
vertex 0.321328282356262 -38.6001625061035 -0.025000000372529
vertex 0.280783653259277 -38.6004600524902 -0.0655468851327896
vertex 0.288870930671692 -34.2996520996094 -0.025000000372529
endloop
endfacet
facet normal 0.707096695899963 0.00533669488504529 -0.707096695899963
outer loop
vertex 0.268598616123199 -34.2998046875 -0.045273445546627
vertex 0.288870930671692 -34.2996520996094 -0.025000000372529
vertex 0.280783653259277 -38.6004600524902 -0.0655468851327896
endloop
endfacet
facet normal 0.707096695899963 0.00533669488504529 -0.707096695899963
outer loop
vertex 0.321328282356262 -38.6001625061035 -0.025000000372529
vertex 0.353785663843155 -42.9006690979004 -0.025000000372529
vertex 0.280783653259277 -38.6004600524902 -0.0655468851327896
endloop
endfacet
facet normal 0.707096755504608 0.00533669488504529 -0.707096755504608
outer loop
vertex 0.292968720197678 -42.9011192321777 -0.0858203321695328
vertex 0.280783653259277 -38.6004600524902 -0.0655468851327896
vertex 0.353785663843155 -42.9006690979004 -0.025000000372529
endloop
endfacet
facet normal 0.707096755504608 0.00533669488504529 -0.707096755504608
outer loop
vertex 0.292968720197678 -42.9011192321777 -0.0858203321695328
vertex 0.353785663843155 -42.9006690979004 -0.025000000372529
vertex 0.305153757333755 -47.201774597168 -0.106093779206276
endloop
endfacet
facet normal 0.707096695899963 0.00533669488504529 -0.707096695899963
outer loop
vertex 0.386243015527725 -47.2011756896973 -0.025000000372529
vertex 0.305153757333755 -47.201774597168 -0.106093779206276
vertex 0.353785663843155 -42.9006690979004 -0.025000000372529
endloop
endfacet
facet normal 0.707096695899963 0.00533669488504529 -0.707096695899963
outer loop
vertex 0.386243015527725 -47.2011756896973 -0.025000000372529
vertex 0.418700397014618 -51.5016860961914 -0.025000000372529
vertex 0.305153757333755 -47.201774597168 -0.106093779206276
endloop
endfacet
facet normal 0.707096755504608 0.005336694419384 -0.707096755504608
outer loop
vertex 0.317338794469833 -51.5024337768555 -0.126367226243019
vertex 0.305153757333755 -47.201774597168 -0.106093779206276
vertex 0.418700397014618 -51.5016860961914 -0.025000000372529
endloop
endfacet
facet normal 0.707096695899963 0.00533669395372272 -0.707096695899963
outer loop
vertex 0.450904220342636 -55.7686004638672 -0.025000000372529
vertex 0.32942870259285 -55.7695045471191 -0.146482348442078
vertex 0.418700397014618 -51.5016860961914 -0.025000000372529
endloop
endfacet
facet normal 0.707096695899963 0.005336694419384 -0.707096695899963
outer loop
vertex 0.317338794469833 -51.5024337768555 -0.126367226243019
vertex 0.418700397014618 -51.5016860961914 -0.025000000372529
vertex 0.32942870259285 -55.7695045471191 -0.146482348442078
endloop
endfacet
facet normal 0.707096695899963 0.00533669488504529 -0.707096695899963
outer loop
vertex 0.450904220342636 -55.7686004638672 -0.025000000372529
vertex 0.472075343132019 -58.5737113952637 -0.025000000372529
vertex 0.32942870259285 -55.7695045471191 -0.146482348442078
endloop
endfacet
facet normal 0.707096695899963 0.005336694419384 -0.707096695899963
outer loop
vertex 0.337376773357391 -58.5747413635254 -0.159706324338913
vertex 0.32942870259285 -55.7695045471191 -0.146482348442078
vertex 0.472075343132019 -58.5737113952637 -0.025000000372529
endloop
endfacet
facet normal 0.707096695899963 0.005336694419384 -0.707096695899963
outer loop
vertex 0.472075343132019 -58.5737113952637 -0.025000000372529
vertex 0.482827097177505 -59.998291015625 -0.025000000372529
vertex 0.337376773357391 -58.5747413635254 -0.159706324338913
endloop
endfacet
facet normal 0.707096695899963 0.005336694419384 -0.707096695899963
outer loop
vertex 0.341413140296936 -59.9993591308594 -0.166422009468079
vertex 0.337376773357391 -58.5747413635254 -0.159706324338913
vertex 0.482827097177505 -59.998291015625 -0.025000000372529
endloop
endfacet
facet normal 0.219602659344673 0.672152400016785 -0.707096695899963
outer loop
vertex 53.2062492370605 -52.5513496398926 -0.251413136720657
vertex 53.1603012084961 -52.6851043701172 -0.392827093601227
vertex 51.8533172607422 -52.1050796508789 -0.247376784682274
endloop
endfacet
facet normal 0.219602659344673 0.672152400016785 -0.707096695899963
outer loop
vertex 51.8095397949219 -52.232479095459 -0.38207533955574
vertex 51.8533172607422 -52.1050796508789 -0.247376784682274
vertex 53.1603012084961 -52.6851043701172 -0.392827093601227
endloop
endfacet
facet normal 0.219602674245834 0.672152459621429 -0.707096695899963
outer loop
vertex 51.8533172607422 -52.1050796508789 -0.247376784682274
vertex 51.8095397949219 -52.232479095459 -0.38207533955574
vertex 49.1892395019531 -51.2263221740723 -0.239428699016571
endloop
endfacet
facet normal 0.219602659344673 0.672152459621429 -0.707096636295319
outer loop
vertex 49.1497802734375 -51.3412246704102 -0.360904216766357
vertex 49.1892395019531 -51.2263221740723 -0.239428699016571
vertex 51.8095397949219 -52.232479095459 -0.38207533955574
endloop
endfacet
facet normal 0.219602674245834 0.672152459621429 -0.707096755504608
outer loop
vertex 49.1497802734375 -51.3412246704102 -0.360904216766357
vertex 45.1039695739746 -49.9855155944824 -0.328700393438339
vertex 49.1892395019531 -51.2263221740723 -0.239428699016571
endloop
endfacet
facet normal 0.219602659344673 0.672152459621429 -0.707096695899963
outer loop
vertex 45.1368827819824 -49.8896369934082 -0.227338805794716
vertex 49.1892395019531 -51.2263221740723 -0.239428699016571
vertex 45.1039695739746 -49.9855155944824 -0.328700393438339
endloop
endfacet
facet normal 0.219602689146996 0.672152459621429 -0.707096755504608
outer loop
vertex 45.1368827819824 -49.8896369934082 -0.227338805794716
vertex 45.1039695739746 -49.9855155944824 -0.328700393438339
vertex 41.0526351928711 -48.5424308776855 -0.215153753757477
endloop
endfacet
facet normal 0.219602689146996 0.672152459621429 -0.707096695899963
outer loop
vertex 41.0263023376465 -48.6191329956055 -0.296243011951447
vertex 41.0526351928711 -48.5424308776855 -0.215153753757477
vertex 45.1039695739746 -49.9855155944824 -0.328700393438339
endloop
endfacet
facet normal 0.219602689146996 0.672152459621429 -0.707096695899963
outer loop
vertex 41.0263023376465 -48.6191329956055 -0.296243011951447
vertex 36.9486351013184 -47.2527503967285 -0.263785660266876
vertex 41.0526351928711 -48.5424308776855 -0.215153753757477
endloop
endfacet
facet normal 0.219602689146996 0.672152459621429 -0.707096755504608
outer loop
vertex 36.9683837890625 -47.1952247619629 -0.202968701720238
vertex 41.0526351928711 -48.5424308776855 -0.215153753757477
vertex 36.9486351013184 -47.2527503967285 -0.263785660266876
endloop
endfacet
facet normal 0.219602689146996 0.672152459621429 -0.707096755504608
outer loop
vertex 36.9683837890625 -47.1952247619629 -0.202968701720238
vertex 36.9486351013184 -47.2527503967285 -0.263785660266876
vertex 32.8841323852539 -45.8480186462402 -0.190783649682999
endloop
endfacet
facet normal 0.219602689146996 0.672152459621429 -0.707096695899963
outer loop
vertex 32.8709678649902 -45.8863677978516 -0.231328278779984
vertex 32.8841323852539 -45.8480186462402 -0.190783649682999
vertex 36.9486351013184 -47.2527503967285 -0.263785660266876
endloop
endfacet
facet normal 0.219602689146996 0.672152459621429 -0.707096695899963
outer loop
vertex 32.8709678649902 -45.8863677978516 -0.231328278779984
vertex 28.7933006286621 -44.5199851989746 -0.198870912194252
vertex 32.8841323852539 -45.8480186462402 -0.190783649682999
endloop
endfacet
facet normal 0.219602689146996 0.672152459621429 -0.707096695899963
outer loop
vertex 28.7998828887939 -44.5008125305176 -0.17859859764576
vertex 32.8841323852539 -45.8480186462402 -0.190783649682999
vertex 28.7933006286621 -44.5199851989746 -0.198870912194252
endloop
endfacet
facet normal 0.219602689146996 0.672152459621429 -0.707096695899963
outer loop
vertex 28.7933006286621 -44.5199851989746 -0.198870912194252
vertex 24.715633392334 -43.1536026000977 -0.166413545608521
vertex 28.7998828887939 -44.5008125305176 -0.17859859764576
endloop
endfacet
endsolid COMSOL mesh mesh1
