solid COMSOL mesh mesh1
facet normal -0.0126624451950192 0.999919891357422 0
outer loop
vertex 0 0 0.150000005960464
vertex 0 0 0
vertex -0.942140817642212 -0.0119307627901435 0.15062814950943
endloop
endfacet
facet normal -0.0126624451950192 0.999919891357422 1.72405483130834e-17
outer loop
vertex -0.942140817642212 -0.0119307627901435 -0.000628144247457385
vertex -0.942140817642212 -0.0119307627901435 0.15062814950943
vertex 0 0 0
endloop
endfacet
facet normal -0.0126624451950192 0.999919891357422 1.72405466587222e-17
outer loop
vertex -0.942140817642212 -0.0119307627901435 0.15062814950943
vertex -0.942140817642212 -0.0119307627901435 -0.000628144247457385
vertex -2.38674545288086 -0.0302244555205107 0.151591286063194
endloop
endfacet
facet normal -0.0126624442636967 0.999919831752777 -1.40622126884668e-17
outer loop
vertex -2.38674545288086 -0.0302244555205107 -0.00159129127860069
vertex -2.38674545288086 -0.0302244555205107 0.151591286063194
vertex -0.942140817642212 -0.0119307627901435 -0.000628144247457385
endloop
endfacet
facet normal -0.0126624442636967 0.999919891357422 2.75923976961906e-17
outer loop
vertex -4.60178899765015 -0.0582745671272278 0.153068110346794
vertex -2.38674545288086 -0.0302244555205107 0.151591286063194
vertex -4.60178899765015 -0.0582745671272278 -0.00306810531765223
endloop
endfacet
facet normal -0.0126624442636967 0.999919831752777 -1.40622126884668e-17
outer loop
vertex -2.38674545288086 -0.0302244555205107 -0.00159129127860069
vertex -4.60178899765015 -0.0582745671272278 -0.00306810531765223
vertex -2.38674545288086 -0.0302244555205107 0.151591286063194
endloop
endfacet
facet normal -0.0126624433323741 0.999919831752777 2.75923943874681e-17
outer loop
vertex -4.60178899765015 -0.0582745671272278 0.153068110346794
vertex -4.60178899765015 -0.0582745671272278 -0.00306810531765223
vertex -8.00607299804688 -0.101384580135345 0.155337810516357
endloop
endfacet
facet normal -0.0126624442636967 0.999919831752777 8.35475447386811e-17
outer loop
vertex -8.00607299804688 -0.101384580135345 -0.00533781014382839
vertex -8.00607299804688 -0.101384580135345 0.155337810516357
vertex -4.60178899765015 -0.0582745671272278 -0.00306810531765223
endloop
endfacet
facet normal -0.0126624442636967 0.999919831752777 8.35475381212362e-17
outer loop
vertex -8.00607299804688 -0.101384580135345 0.155337810516357
vertex -8.00607299804688 -0.101384580135345 -0.00533781014382839
vertex -12.2113122940063 -0.154637455940247 0.158141523599625
endloop
endfacet
facet normal -0.0126624442636967 0.999919891357422 1.12364942328142e-16
outer loop
vertex -12.2113122940063 -0.154637455940247 -0.00814152788370848
vertex -12.2113122940063 -0.154637455940247 0.158141523599625
vertex -8.00607299804688 -0.101384580135345 -0.00533781014382839
endloop
endfacet
facet normal -0.0126624424010515 0.999919772148132 1.39302138532936e-16
outer loop
vertex -16.4165515899658 -0.207890331745148 0.160945251584053
vertex -12.2113122940063 -0.154637455940247 0.158141523599625
vertex -16.4165515899658 -0.207890331745148 -0.010945244692266
endloop
endfacet
facet normal -0.0126624442636967 0.999919891357422 1.12364942328142e-16
outer loop
vertex -12.2113122940063 -0.154637455940247 -0.00814152788370848
vertex -16.4165515899658 -0.207890331745148 -0.010945244692266
vertex -12.2113122940063 -0.154637455940247 0.158141523599625
endloop
endfacet
facet normal -0.0126624424010515 0.999919772148132 1.39302138532936e-16
outer loop
vertex -16.4165515899658 -0.207890331745148 0.160945251584053
vertex -16.4165515899658 -0.207890331745148 -0.010945244692266
vertex -20.621789932251 -0.261143207550049 0.16374896466732
endloop
endfacet
facet normal -0.0126624442636967 0.999919831752777 4.4761884908083e-16
outer loop
vertex -20.621789932251 -0.261143207550049 -0.0137489624321461
vertex -20.621789932251 -0.261143207550049 0.16374896466732
vertex -16.4165515899658 -0.207890331745148 -0.010945244692266
endloop
endfacet
facet normal -0.0126624442636967 0.999919831752777 4.4761884908083e-16
outer loop
vertex -20.621789932251 -0.261143207550049 0.16374896466732
vertex -20.621789932251 -0.261143207550049 -0.0137489624321461
vertex -24.4664649963379 -0.309830069541931 0.166312277317047
endloop
endfacet
facet normal -0.0126624433323741 0.999919772148132 1.3111441366231e-16
outer loop
vertex -24.4664649963379 -0.309830069541931 -0.0163122843950987
vertex -24.4664649963379 -0.309830069541931 0.166312277317047
vertex -20.621789932251 -0.261143207550049 -0.0137489624321461
endloop
endfacet
facet normal -0.0126624451950192 0.999919831752777 4.8341959656904e-16
outer loop
vertex -27.0847625732422 -0.342986792325974 0.168057963252068
vertex -24.4664649963379 -0.309830069541931 0.166312277317047
vertex -27.0847625732422 -0.342986792325974 -0.0180579554289579
endloop
endfacet
facet normal -0.0126624433323741 0.999919772148132 1.3111441366231e-16
outer loop
vertex -24.4664649963379 -0.309830069541931 -0.0163122843950987
vertex -27.0847625732422 -0.342986792325974 -0.0180579554289579
vertex -24.4664649963379 -0.309830069541931 0.166312277317047
endloop
endfacet
facet normal -0.0126624442636967 0.999919831752777 -5.58286562375802e-17
outer loop
vertex -28.8318424224854 -0.365110874176025 0.169222772121429
vertex -27.0847625732422 -0.342986792325974 0.168057963252068
vertex -28.8318424224854 -0.365110874176025 -0.0192227698862553
endloop
endfacet
facet normal -0.0126624442636967 0.999919831752777 4.8341959656904e-16
outer loop
vertex -27.0847625732422 -0.342986792325974 -0.0180579554289579
vertex -28.8318424224854 -0.365110874176025 -0.0192227698862553
vertex -27.0847625732422 -0.342986792325974 0.168057963252068
endloop
endfacet
facet normal -0.0126624442636967 0.999919831752777 -5.58286628550251e-17
outer loop
vertex -28.8318424224854 -0.365110874176025 0.169222772121429
vertex -28.8318424224854 -0.365110874176025 -0.0192227698862553
vertex -29.997594833374 -0.379873335361481 0.170000001788139
endloop
endfacet
facet normal -0.0126624442636967 0.999919831752777 0
outer loop
vertex -29.997594833374 -0.379873335361481 -0.0199999995529652
vertex -29.997594833374 -0.379873335361481 0.170000001788139
vertex -28.8318424224854 -0.365110874176025 -0.0192227698862553
endloop
endfacet
facet normal 0.000601578911300749 0.00514332670718431 0.999986588954926
outer loop
vertex -26.9255790710449 -3.42130422592163 0.18379519879818
vertex -26.9063186645508 -3.40184617042542 0.183683529496193
vertex -29.997594833374 -0.379873335361481 0.170000001788139
endloop
endfacet
facet normal 0.000601578911300749 0.00514332670718431 0.999986588954926
outer loop
vertex -23.8535614013672 -6.46273469924927 0.19759039580822
vertex -23.8150424957275 -6.42381906509399 0.197367057204247
vertex -26.9255790710449 -3.42130422592163 0.18379519879818
endloop
endfacet
facet normal 0.000601578911300749 0.00514332670718431 0.999986588954926
outer loop
vertex -26.9063186645508 -3.40184617042542 0.183683529496193
vertex -26.9255790710449 -3.42130422592163 0.18379519879818
vertex -23.8150424957275 -6.42381906509399 0.197367057204247
endloop
endfacet
facet normal 0.000601578911300749 0.00514332670718431 0.999986588954926
outer loop
vertex -23.8535614013672 -6.46273469924927 0.19759039580822
vertex -20.7815456390381 -9.50416564941406 0.21138559281826
vertex -23.8150424957275 -6.42381906509399 0.197367057204247
endloop
endfacet
facet normal 0.000601578853093088 0.00514332670718431 0.999986588954926
outer loop
vertex -20.7237644195557 -9.44579124450684 0.2110505849123
vertex -23.8150424957275 -6.42381906509399 0.197367057204247
vertex -20.7815456390381 -9.50416564941406 0.21138559281826
endloop
endfacet
facet normal 0.000601578911300749 0.00514332670718431 0.999986588954926
outer loop
vertex -17.709529876709 -12.5455961227417 0.2251807898283
vertex -17.6324882507324 -12.4677648544312 0.224734127521515
vertex -20.7815456390381 -9.50416564941406 0.21138559281826
endloop
endfacet
facet normal 0.000601578853093088 0.00514332670718431 0.999986588954926
outer loop
vertex -20.7237644195557 -9.44579124450684 0.2110505849123
vertex -20.7815456390381 -9.50416564941406 0.21138559281826
vertex -17.6324882507324 -12.4677648544312 0.224734127521515
endloop
endfacet
facet normal 0.000601578911300749 0.00514332670718431 0.999986588954926
outer loop
vertex -17.709529876709 -12.5455961227417 0.2251807898283
vertex -14.6375131607056 -15.5870275497437 0.238975986838341
vertex -17.6324882507324 -12.4677648544312 0.224734127521515
endloop
endfacet
facet normal 0.000601578853093088 0.00514332670718431 0.999986588954926
outer loop
vertex -14.5412120819092 -15.4897375106812 0.238417655229568
vertex -17.6324882507324 -12.4677648544312 0.224734127521515
vertex -14.6375131607056 -15.5870275497437 0.238975986838341
endloop
endfacet
facet normal 0.000601578853093088 0.00514332670718431 0.999986588954926
outer loop
vertex -11.5993747711182 -18.5949172973633 0.252619057893753
vertex -11.4840173721313 -18.4783916473389 0.251950323581696
vertex -14.6375131607056 -15.5870275497437 0.238975986838341
endloop
endfacet
facet normal 0.000601578911300749 0.0051433271728456 0.99998664855957
outer loop
vertex -14.5412120819092 -15.4897375106812 0.238417655229568
vertex -14.6375131607056 -15.5870275497437 0.238975986838341
vertex -11.4840173721313 -18.4783916473389 0.251950323581696
endloop
endfacet
facet normal 0.000601578911300749 0.00514332670718431 0.999986588954926
outer loop
vertex -11.5993747711182 -18.5949172973633 0.252619057893753
vertex -9.65139007568359 -20.5235080718994 0.261366665363312
vertex -11.4840173721313 -18.4783916473389 0.251950323581696
endloop
endfacet
facet normal 0.000601578853093088 0.00514332670718431 0.999986588954926
outer loop
vertex -9.5238037109375 -20.3946590423584 0.260627210140228
vertex -11.4840173721313 -18.4783916473389 0.251950323581696
vertex -9.65139007568359 -20.5235080718994 0.261366665363312
endloop
endfacet
facet normal 0.000601578911300749 0.00514332670718431 0.999986588954926
outer loop
vertex -9.65139007568359 -20.5235080718994 0.261366665363312
vertex -8.67863750457764 -21.4865760803223 0.265734910964966
vertex -9.5238037109375 -20.3946590423584 0.260627210140228
endloop
endfacet
facet normal 0.000601578911300749 0.0051433271728456 0.999986588954926
outer loop
vertex -8.54496002197266 -21.3515586853027 0.264960050582886
vertex -9.5238037109375 -20.3946590423584 0.260627210140228
vertex -8.67863750457764 -21.4865760803223 0.265734910964966
endloop
endfacet
facet normal -0.707116067409515 0.00458095548674464 0.707082688808441
outer loop
vertex -20.2449703216553 -0.0750465095043182 -20.2454395294189
vertex -21.2128849029541 -0.0786344930529594 -21.2133769989014
vertex -20.245231628418 -0.256374657154083 -20.2445259094238
endloop
endfacet
facet normal -0.707116067409515 0.00458095595240593 0.707082748413086
outer loop
vertex -21.2131481170654 -0.268631845712662 -21.2124080657959
vertex -20.245231628418 -0.256374657154083 -20.2445259094238
vertex -21.2128849029541 -0.0786344930529594 -21.2133769989014
endloop
endfacet
facet normal -0.707116007804871 0.00458095595240593 0.707082688808441
outer loop
vertex -20.245231628418 -0.256374657154083 -20.2445259094238
vertex -18.3068981170654 -0.231828659772873 -18.3062591552734
vertex -20.2449703216553 -0.0750465095043182 -20.2454395294189
endloop
endfacet
facet normal -0.707116067409515 0.00458095548674464 0.707082688808441
outer loop
vertex -18.306676864624 -0.0678614005446434 -18.3071002960205
vertex -20.2449703216553 -0.0750465095043182 -20.2454395294189
vertex -18.3068981170654 -0.231828659772873 -18.3062591552734
endloop
endfacet
facet normal -0.707116067409515 0.00458095548674464 0.707082688808441
outer loop
vertex -18.306676864624 -0.0678614005446434 -18.3071002960205
vertex -18.3068981170654 -0.231828659772873 -18.3062591552734
vertex -15.2836542129517 -0.0566552989184856 -15.284008026123
endloop
endfacet
facet normal -0.707116007804871 0.00458095548674464 0.707082688808441
outer loop
vertex -15.2838325500488 -0.193546190857887 -15.283299446106
vertex -15.2836542129517 -0.0566552989184856 -15.284008026123
vertex -18.3068981170654 -0.231828659772873 -18.3062591552734
endloop
endfacet
facet normal -0.707116067409515 0.00458095595240593 0.707082688808441
outer loop
vertex -15.2838325500488 -0.193546190857887 -15.283299446106
vertex -12.2270660400391 -0.15483695268631 -12.2266397476196
vertex -15.2836542129517 -0.0566552989184856 -15.284008026123
endloop
endfacet
facet normal -0.707116067409515 0.00458095548674464 0.707082688808441
outer loop
vertex -12.2269229888916 -0.0453242398798466 -12.2272062301636
vertex -15.2836542129517 -0.0566552989184856 -15.284008026123
vertex -12.2270660400391 -0.15483695268631 -12.2266397476196
endloop
endfacet
facet normal -0.707116067409515 0.00458095548674464 0.707082688808441
outer loop
vertex -12.2269229888916 -0.0453242398798466 -12.2272062301636
vertex -12.2270660400391 -0.15483695268631 -12.2266397476196
vertex -9.17019271850586 -0.0339931808412075 -9.1704044342041
endloop
endfacet
facet normal -0.707116067409515 0.00458095595240593 0.707082688808441
outer loop
vertex -9.1702995300293 -0.116127714514732 -9.1699800491333
vertex -9.17019271850586 -0.0339931808412075 -9.1704044342041
vertex -12.2270660400391 -0.15483695268631 -12.2266397476196
endloop
endfacet
facet normal -0.707116067409515 0.00458095595240593 0.707082688808441
outer loop
vertex -9.1702995300293 -0.116127714514732 -9.1699800491333
vertex -6.11353302001953 -0.0774184763431549 -6.11331987380981
vertex -9.17019271850586 -0.0339931808412075 -9.1704044342041
endloop
endfacet
facet normal -0.707116067409515 0.00458095548674464 0.707082688808441
outer loop
vertex -6.1134614944458 -0.0226621199399233 -6.11360311508179
vertex -9.17019271850586 -0.0339931808412075 -9.1704044342041
vertex -6.11353302001953 -0.0774184763431549 -6.11331987380981
endloop
endfacet
facet normal -0.707116067409515 0.00458095548674464 0.707082688808441
outer loop
vertex -6.1134614944458 -0.0226621199399233 -6.11360311508179
vertex -6.11353302001953 -0.0774184763431549 -6.11331987380981
vertex -3.0567307472229 -0.0113310599699616 -3.05680155754089
endloop
endfacet
facet normal -0.707116067409515 0.00458095548674464 0.707082688808441
outer loop
vertex -3.05676651000977 -0.0387092381715775 -3.05665993690491
vertex -3.0567307472229 -0.0113310599699616 -3.05680155754089
vertex -6.11353302001953 -0.0774184763431549 -6.11331987380981
endloop
endfacet
facet normal -0.707116067409515 0.00458095548674464 0.707082688808441
outer loop
vertex -3.0567307472229 -0.0113310599699616 -3.05680155754089
vertex -3.05676651000977 -0.0387092381715775 -3.05665993690491
vertex 0 0 0
endloop
endfacet
facet normal 0.70708966255188 0.00623067328706384 -0.707096457481384
outer loop
vertex 0 0 0
vertex 0.00024434260558337 -0.0299989990890026 -1.99998430616688e-05
vertex -0.146115496754646 -0.00054163858294487 -0.146118879318237
endloop
endfacet
facet normal 0.707089722156525 0.00623067328706384 -0.70709639787674
outer loop
vertex -0.145862177014351 -0.0316426865756512 -0.146139606833458
vertex -0.146115496754646 -0.00054163858294487 -0.146118879318237
vertex 0.00024434260558337 -0.0299989990890026 -1.99998430616688e-05
endloop
endfacet
facet normal 0.70708966255188 0.00623067282140255 -0.70709639787674
outer loop
vertex -0.146115496754646 -0.00054163858294487 -0.146118879318237
vertex -0.145862177014351 -0.0316426865756512 -0.146139606833458
vertex -0.395517528057098 -0.00146615225821733 -0.395526677370071
endloop
endfacet
facet normal 0.707089722156525 0.00623067282140255 -0.707096338272095
outer loop
vertex -0.395248889923096 -0.0344482660293579 -0.395548671483994
vertex -0.395517528057098 -0.00146615225821733 -0.395526677370071
vertex -0.145862177014351 -0.0316426865756512 -0.146139606833458
endloop
endfacet
facet normal 0.70708966255188 0.00623067282140255 -0.70709639787674
outer loop
vertex -0.821217596530914 -0.00304418872110546 -0.821236610412598
vertex -0.395517528057098 -0.00146615225821733 -0.395526677370071
vertex -0.820922791957855 -0.0392370633780956 -0.821260750293732
endloop
endfacet
facet normal 0.70708966255188 0.00623067328706384 -0.70709639787674
outer loop
vertex -0.395248889923096 -0.0344482660293579 -0.395548671483994
vertex -0.820922791957855 -0.0392370633780956 -0.821260750293732
vertex -0.395517528057098 -0.00146615225821733 -0.395526677370071
endloop
endfacet
facet normal 0.707089722156525 0.00623067328706384 -0.70709639787674
outer loop
vertex -1.54783773422241 -0.00573771214112639 -1.54787361621857
vertex -0.821217596530914 -0.00304418872110546 -0.821236610412598
vertex -1.54749822616577 -0.0474109761416912 -1.54790139198303
endloop
endfacet
facet normal 0.70708966255188 0.00623067282140255 -0.707096338272095
outer loop
vertex -0.820922791957855 -0.0392370633780956 -0.821260750293732
vertex -1.54749822616577 -0.0474109761416912 -1.54790139198303
vertex -0.821217596530914 -0.00304418872110546 -0.821236610412598
endloop
endfacet
facet normal 0.707089722156525 0.00623067282140255 -0.70709639787674
outer loop
vertex -1.54783773422241 -0.00573771214112639 -1.54787361621857
vertex -1.54749822616577 -0.0474109761416912 -1.54790139198303
vertex -2.78809309005737 -0.0103352414444089 -2.78815770149231
endloop
endfacet
facet normal 0.70708966255188 0.00623067282140255 -0.70709639787674
outer loop
vertex -2.787677526474 -0.0613628961145878 -2.78819179534912
vertex -2.78809309005737 -0.0103352414444089 -2.78815770149231
vertex -1.54749822616577 -0.0474109761416912 -1.54790139198303
endloop
endfacet
facet normal 0.707089722156525 0.00623067375272512 -0.707096457481384
outer loop
vertex -4.90506410598755 -0.018182685598731 -4.9051775932312
vertex -2.78809309005737 -0.0103352414444089 -2.78815770149231
vertex -4.90451860427856 -0.0851771831512451 -4.90522241592407
endloop
endfacet
facet normal 0.707089722156525 0.00623067375272512 -0.707096457481384
outer loop
vertex -2.787677526474 -0.0613628961145878 -2.78819179534912
vertex -4.90451860427856 -0.0851771831512451 -4.90522241592407
vertex -2.78809309005737 -0.0103352414444089 -2.78815770149231
endloop
endfacet
facet normal 0.707089722156525 0.00623067375272512 -0.707096457481384
outer loop
vertex -4.90506410598755 -0.018182685598731 -4.9051775932312
vertex -4.90451860427856 -0.0851771831512451 -4.90522241592407
vertex -7.95303153991699 -0.0294812601059675 -7.95321607589722
endloop
endfacet
facet normal 0.707089722156525 0.00623067328706384 -0.70709639787674
outer loop
vertex -7.95229864120483 -0.119464464485645 -7.95327568054199
vertex -7.95303153991699 -0.0294812601059675 -7.95321607589722
vertex -4.90451860427856 -0.0851771831512451 -4.90522241592407
endloop
endfacet
facet normal 0.70708966255188 0.00623067328706384 -0.70709639787674
outer loop
vertex -7.95303153991699 -0.0294812601059675 -7.95321607589722
vertex -7.95229864120483 -0.119464464485645 -7.95327568054199
vertex -11.0404987335205 -0.0409262590110302 -11.0407552719116
endloop
endfacet
facet normal 0.70708966255188 0.00623067328706384 -0.70709639787674
outer loop
vertex -11.0395765304565 -0.154196083545685 -11.0408306121826
vertex -11.0404987335205 -0.0409262590110302 -11.0407552719116
vertex -7.95229864120483 -0.119464464485645 -7.95327568054199
endloop
endfacet
facet normal 0.70708966255188 0.00623067328706384 -0.70709639787674
outer loop
vertex -11.0404987335205 -0.0409262590110302 -11.0407552719116
vertex -11.0395765304565 -0.154196083545685 -11.0408306121826
vertex -14.1279668807983 -0.0523712560534477 -14.1282939910889
endloop
endfacet
facet normal 0.707089722156525 0.00623067328706384 -0.70709639787674
outer loop
vertex -14.1268539428711 -0.188927710056305 -14.1283845901489
vertex -14.1279668807983 -0.0523712560534477 -14.1282939910889
vertex -11.0395765304565 -0.154196083545685 -11.0408306121826
endloop
endfacet
facet normal 0.707089722156525 0.00623067375272512 -0.70709639787674
outer loop
vertex -17.0594654083252 -0.0632380917668343 -17.0598602294922
vertex -14.1279668807983 -0.0523712560534477 -14.1282939910889
vertex -17.0581741333008 -0.221904814243317 -17.0599670410156
endloop
endfacet
facet normal 0.707089722156525 0.00623067328706384 -0.707096457481384
outer loop
vertex -14.1268539428711 -0.188927710056305 -14.1283845901489
vertex -17.0581741333008 -0.221904814243317 -17.0599670410156
vertex -14.1279668807983 -0.0523712560534477 -14.1282939910889
endloop
endfacet
facet normal 0.707089722156525 0.00623067328706384 -0.707096457481384
outer loop
vertex -17.0594654083252 -0.0632380917668343 -17.0598602294922
vertex -17.0581741333008 -0.221904814243317 -17.0599670410156
vertex -19.0712661743164 -0.0706956833600998 -19.0717086791992
endloop
endfacet
facet normal 0.70708966255188 0.00623067282140255 -0.70709639787674
outer loop
vertex -19.0698509216309 -0.244536027312279 -19.0718250274658
vertex -19.0712661743164 -0.0706956833600998 -19.0717086791992
vertex -17.0581741333008 -0.221904814243317 -17.0599670410156
endloop
endfacet
facet normal 0.707089722156525 0.00623067375272512 -0.707096457481384
outer loop
vertex -20.3719863891602 -0.0755173489451408 -20.3724575042725
vertex -19.0712661743164 -0.0706956833600998 -19.0717086791992
vertex -20.370491027832 -0.259168118238449 -20.3725814819336
endloop
endfacet
facet normal 0.70708966255188 0.00623067328706384 -0.70709639787674
outer loop
vertex -19.0698509216309 -0.244536027312279 -19.0718250274658
vertex -20.370491027832 -0.259168118238449 -20.3725814819336
vertex -19.0712661743164 -0.0706956833600998 -19.0717086791992
endloop
endfacet
facet normal 0.707089722156525 0.00623067375272512 -0.70709639787674
outer loop
vertex -20.3719863891602 -0.0755173489451408 -20.3724575042725
vertex -20.370491027832 -0.259168118238449 -20.3725814819336
vertex -21.2129611968994 -0.0786347687244415 -21.213451385498
endloop
endfacet
facet normal 0.707089722156525 0.00623067328706384 -0.70709639787674
outer loop
vertex -21.2114124298096 -0.268628418445587 -21.2135791778564
vertex -21.2129611968994 -0.0786347687244415 -21.213451385498
vertex -20.370491027832 -0.259168118238449 -20.3725814819336
endloop
endfacet
facet normal -0.323105603456497 -0.946362972259521 -0
outer loop
vertex -3.79074859619141 -33.7908592224121 0.0900000035762787
vertex -3.79074859619141 -33.7908592224121 0.0599999986588955
vertex -3.59519147872925 -33.8576240539551 0.0905510410666466
endloop
endfacet
facet normal -0.323105603456497 -0.946362912654877 2.39268593002842e-13
outer loop
vertex -3.59519147872925 -33.8576240539551 0.0594489574432373
vertex -3.59519147872925 -33.8576240539551 0.0905510410666466
vertex -3.79074859619141 -33.7908592224121 0.0599999986588955
endloop
endfacet
facet normal -0.323105603456497 -0.946362972259521 2.39268593002842e-13
outer loop
vertex -3.59519147872925 -33.8576240539551 0.0594489574432373
vertex -3.26139807701111 -33.9715881347656 0.0585083924233913
vertex -3.59519147872925 -33.8576240539551 0.0905510410666466
endloop
endfacet
facet normal -0.323105573654175 -0.946362912654877 -3.04522744098024e-14
outer loop
vertex -3.26139807701111 -33.9715881347656 0.0914916098117828
vertex -3.59519147872925 -33.8576240539551 0.0905510410666466
vertex -3.26139807701111 -33.9715881347656 0.0585083924233913
endloop
endfacet
facet normal -0.323105573654175 -0.946362912654877 -2.37322016422362e-13
outer loop
vertex -2.69165205955505 -34.1661109924316 0.0569029599428177
vertex -2.69165205955505 -34.1661109924316 0.0930970385670662
vertex -3.26139807701111 -33.9715881347656 0.0585083924233913
endloop
endfacet
facet normal -0.323105603456497 -0.946362912654877 -3.04522777979342e-14
outer loop
vertex -3.26139807701111 -33.9715881347656 0.0914916098117828
vertex -3.26139807701111 -33.9715881347656 0.0585083924233913
vertex -2.69165205955505 -34.1661109924316 0.0930970385670662
endloop
endfacet
facet normal -0.323105603456497 -0.946362972259521 -7.74685017198608e-14
outer loop
vertex -1.71916198730469 -34.4981346130371 0.0541626699268818
vertex -1.71916198730469 -34.4981346130371 0.0958373248577118
vertex -2.69165205955505 -34.1661109924316 0.0569029599428177
endloop
endfacet
facet normal -0.323105603456497 -0.946362912654877 -2.37322043527416e-13
outer loop
vertex -2.69165205955505 -34.1661109924316 0.0930970385670662
vertex -2.69165205955505 -34.1661109924316 0.0569029599428177
vertex -1.71916198730469 -34.4981346130371 0.0958373248577118
endloop
endfacet
facet normal -0.323105573654175 -0.946362912654877 -7.74685084961244e-14
outer loop
vertex -1.71916198730469 -34.4981346130371 0.0541626699268818
vertex -0.0592355504631996 -35.0648651123047 0.0494853220880032
vertex -1.71916198730469 -34.4981346130371 0.0958373248577118
endloop
endfacet
facet normal -0.323105603456497 -0.946362972259521 1.688221096122e-13
outer loop
vertex -0.0592355504631996 -35.0648651123047 0.100514680147171
vertex -1.71916198730469 -34.4981346130371 0.0958373248577118
vertex -0.0592355504631996 -35.0648651123047 0.0494853220880032
endloop
endfacet
facet normal -0.323105573654175 -0.946362912654877 -1.24219292621172e-13
outer loop
vertex 2.77406454086304 -36.0322036743164 0.0415016338229179
vertex 2.77406454086304 -36.0322036743164 0.108498364686966
vertex -0.0592355504631996 -35.0648651123047 0.0494853220880032
endloop
endfacet
facet normal -0.323105573654175 -0.946362853050232 1.688221096122e-13
outer loop
vertex -0.0592355504631996 -35.0648651123047 0.100514680147171
vertex -0.0592355504631996 -35.0648651123047 0.0494853220880032
vertex 2.77406454086304 -36.0322036743164 0.108498364686966
endloop
endfacet
facet normal -0.323105603456497 -0.946362972259521 -1.24219292621172e-13
outer loop
vertex 2.77406454086304 -36.0322036743164 0.0415016338229179
vertex 6.85338687896729 -37.4249610900879 0.0300068948417902
vertex 2.77406454086304 -36.0322036743164 0.108498364686966
endloop
endfacet
facet normal -0.323105573654175 -0.946362912654877 3.46443183927951e-14
outer loop
vertex 6.85338687896729 -37.4249610900879 0.119993105530739
vertex 2.77406454086304 -36.0322036743164 0.108498364686966
vertex 6.85338687896729 -37.4249610900879 0.0300068948417902
endloop
endfacet
facet normal -0.323105603456497 -0.946362912654877 -5.57363637394056e-14
outer loop
vertex 10.98557472229 -38.835765838623 0.131636813282967
vertex 6.85338687896729 -37.4249610900879 0.119993105530739
vertex 10.98557472229 -38.835765838623 0.0183631926774979
endloop
endfacet
facet normal -0.323105573654175 -0.946362912654877 3.46443217809269e-14
outer loop
vertex 6.85338687896729 -37.4249610900879 0.0300068948417902
vertex 10.98557472229 -38.835765838623 0.0183631926774979
vertex 6.85338687896729 -37.4249610900879 0.119993105530739
endloop
endfacet
facet normal -0.323105603456497 -0.946362912654877 -5.57363637394056e-14
outer loop
vertex 10.98557472229 -38.835765838623 0.131636813282967
vertex 10.98557472229 -38.835765838623 0.0183631926774979
vertex 15.1177625656128 -40.2465705871582 0.143280506134033
endloop
endfacet
facet normal -0.323105603456497 -0.946362853050232 2.40230182074015e-14
outer loop
vertex 15.1177625656128 -40.2465705871582 0.0067194914445281
vertex 15.1177625656128 -40.2465705871582 0.143280506134033
vertex 10.98557472229 -38.835765838623 0.0183631926774979
endloop
endfacet
facet normal -0.323105603456497 -0.946362972259521 2.40230199014674e-14
outer loop
vertex 15.1177625656128 -40.2465705871582 0.143280506134033
vertex 15.1177625656128 -40.2465705871582 0.0067194914445281
vertex 19.0412082672119 -41.5861053466797 0.154336005449295
endloop
endfacet
facet normal -0.323105603456497 -0.946362912654877 -7.23443047546783e-15
outer loop
vertex 19.0412082672119 -41.5861053466797 -0.00433601159602404
vertex 19.0412082672119 -41.5861053466797 0.154336005449295
vertex 15.1177625656128 -40.2465705871582 0.0067194914445281
endloop
endfacet
facet normal -0.323105573654175 -0.946362912654877 -0
outer loop
vertex 21.7337493896484 -42.5053863525391 0.161923080682755
vertex 19.0412082672119 -41.5861053466797 0.154336005449295
vertex 21.7337493896484 -42.5053863525391 -0.01192307472229
endloop
endfacet
facet normal -0.323105573654175 -0.946362912654877 -7.23442962843488e-15
outer loop
vertex 19.0412082672119 -41.5861053466797 -0.00433601159602404
vertex 21.7337493896484 -42.5053863525391 -0.01192307472229
vertex 19.0412082672119 -41.5861053466797 0.154336005449295
endloop
endfacet
facet normal -0.323105573654175 -0.946362912654877 -0
outer loop
vertex 21.7337493896484 -42.5053863525391 0.161923080682755
vertex 21.7337493896484 -42.5053863525391 -0.01192307472229
vertex 23.4745998382568 -43.0997467041016 0.166828453540802
endloop
endfacet
facet normal -0.323105603456497 -0.946362972259521 -2.41129493894774e-14
outer loop
vertex 23.4745998382568 -43.0997467041016 -0.0168284513056278
vertex 23.4745998382568 -43.0997467041016 0.166828453540802
vertex 21.7337493896484 -42.5053863525391 -0.01192307472229
endloop
endfacet
facet normal -0.323105603456497 -0.946362972259521 -2.41129493894774e-14
outer loop
vertex 23.4745998382568 -43.0997467041016 0.166828453540802
vertex 23.4745998382568 -43.0997467041016 -0.0168284513056278
vertex 24.6001396179199 -43.4840240478516 0.170000001788139
endloop
endfacet
facet normal -0.323105573654175 -0.946362972259521 0
outer loop
vertex 24.6001396179199 -43.4840240478516 -0.0199999995529652
vertex 24.6001396179199 -43.4840240478516 0.170000001788139
vertex 23.4745998382568 -43.0997467041016 -0.0168284513056278
endloop
endfacet
facet normal 0.00677337870001793 -0.00227371207438409 0.999974489212036
outer loop
vertex 24.7030067443848 -43.1764221191406 -0.154344528913498
vertex 23.5975513458252 -42.8061599731445 -0.146014764904976
vertex 24.6425437927246 -43.3565444946289 -0.154344528913498
endloop
endfacet
facet normal 0.00677337823435664 -0.00227371230721474 0.999974489212036
outer loop
vertex 23.5375823974609 -42.984806060791 -0.146014764904976
vertex 24.6425437927246 -43.3565444946289 -0.154344528913498
vertex 23.5975513458252 -42.8061599731445 -0.146014764904976
endloop
endfacet
facet normal 0.00677337823435664 -0.00227371184155345 0.999974489212036
outer loop
vertex 23.5375823974609 -42.984806060791 -0.146014764904976
vertex 23.5975513458252 -42.8061599731445 -0.146014764904976
vertex 21.8816070556641 -42.4276962280273 -0.13353119790554
endloop
endfacet
facet normal 0.00677337823435664 -0.00227371184155345 0.999974429607391
outer loop
vertex 21.9408359527588 -42.2512550354004 -0.13353119790554
vertex 21.8816070556641 -42.4276962280273 -0.13353119790554
vertex 23.5975513458252 -42.8061599731445 -0.146014764904976
endloop
endfacet
facet normal 0.00677337776869535 -0.00227371207438409 0.999974429607391
outer loop
vertex 21.8816070556641 -42.4276962280273 -0.13353119790554
vertex 21.9408359527588 -42.2512550354004 -0.13353119790554
vertex 19.3998470306396 -41.5927696228027 -0.114822439849377
endloop
endfacet
facet normal 0.00677337870001793 -0.00227371230721474 0.999974489212036
outer loop
vertex 19.4579658508301 -41.4196357727051 -0.114822439849377
vertex 19.3998470306396 -41.5927696228027 -0.114822439849377
vertex 21.9408359527588 -42.2512550354004 -0.13353119790554
endloop
endfacet
facet normal 0.00677337823435664 -0.00227371207438409 0.999974429607391
outer loop
vertex 19.4579658508301 -41.4196357727051 -0.114822439849377
vertex 15.8121500015259 -40.1985015869141 -0.0873507410287857
vertex 19.3998470306396 -41.5927696228027 -0.114822439849377
endloop
endfacet
facet normal 0.00677337823435664 -0.00227371207438409 0.999974489212036
outer loop
vertex 15.7556638717651 -40.366771697998 -0.0873507410287857
vertex 19.3998470306396 -41.5927696228027 -0.114822439849377
vertex 15.8121500015259 -40.1985015869141 -0.0873507410287857
endloop
endfacet
facet normal 0.00677337823435664 -0.00227371207438409 0.999974548816681
outer loop
vertex 15.7556638717651 -40.366771697998 -0.0873507410287857
vertex 15.8121500015259 -40.1985015869141 -0.0873507410287857
vertex 11.769718170166 -39.0257987976074 -0.0573026686906815
endloop
endfacet
facet normal 0.00677337776869535 -0.00227371184155345 0.999974429607391
outer loop
vertex 11.8244199752808 -38.8628425598145 -0.0573026686906815
vertex 11.769718170166 -39.0257987976074 -0.0573026686906815
vertex 15.8121500015259 -40.1985015869141 -0.0873507410287857
endloop
endfacet
facet normal 0.00677337776869535 -0.00227371184155345 0.999974429607391
outer loop
vertex 11.8244199752808 -38.8628425598145 -0.0573026686906815
vertex 7.83668947219849 -37.5271835327148 -0.0272545926272869
vertex 11.769718170166 -39.0257987976074 -0.0573026686906815
endloop
endfacet
facet normal 0.00677337870001793 -0.00227371207438409 0.999974489212036
outer loop
vertex 7.78377246856689 -37.6848220825195 -0.0272545926272869
vertex 11.769718170166 -39.0257987976074 -0.0573026686906815
vertex 7.83668947219849 -37.5271835327148 -0.0272545926272869
endloop
endfacet
facet normal 0.00677337870001793 -0.00227371207438409 0.999974489212036
outer loop
vertex 7.78377246856689 -37.6848220825195 -0.0272545926272869
vertex 7.83668947219849 -37.5271835327148 -0.0272545926272869
vertex 3.79782676696777 -36.3438491821289 0.00279348157346249
endloop
endfacet
facet normal 0.00677337823435664 -0.00227371230721474 0.999974489212036
outer loop
vertex 3.84895896911621 -36.1915245056152 0.00279348157346249
vertex 3.79782676696777 -36.3438491821289 0.00279348157346249
vertex 7.83668947219849 -37.5271835327148 -0.0272545926272869
endloop
endfacet
facet normal 0.00677337870001793 -0.00227371207438409 0.999974489212036
outer loop
vertex 3.84895896911621 -36.1915245056152 0.00279348157346249
vertex 0.6207554936409 -35.1102638244629 0.0271184202283621
vertex 3.79782676696777 -36.3438491821289 0.00279348157346249
endloop
endfacet
facet normal 0.00677337823435664 -0.00227371184155345 0.999974429607391
outer loop
vertex 0.571067929267883 -35.2582855224609 0.0271184202283621
vertex 3.79782676696777 -36.3438491821289 0.00279348157346249
vertex 0.6207554936409 -35.1102638244629 0.0271184202283621
endloop
endfacet
facet normal 0.00677337870001793 -0.00227371207438409 0.999974489212036
outer loop
vertex 0.571067929267883 -35.2582855224609 0.0271184202283621
vertex 0.6207554936409 -35.1102638244629 0.0271184202283621
vertex -1.52846622467041 -34.5519485473633 0.0429457724094391
endloop
endfacet
facet normal 0.00677337823435664 -0.00227371207438409 0.999974429607391
outer loop
vertex -1.47971856594086 -34.4067268371582 0.0429457724094391
vertex -1.52846622467041 -34.5519485473633 0.0429457724094391
vertex 0.6207554936409 -35.1102638244629 0.0271184202283621
endloop
endfacet
facet normal 0.00677337823435664 -0.00227371207438409 0.999974489212036
outer loop
vertex -1.47971856594086 -34.4067268371582 0.0429457724094391
vertex -2.8496036529541 -33.9478950500488 0.0532680340111256
vertex -1.52846622467041 -34.5519485473633 0.0429457724094391
endloop
endfacet
facet normal 0.00677337823435664 -0.00227371207438409 0.999974489212036
outer loop
vertex -2.8977382183075 -34.0912895202637 0.0532680340111256
vertex -1.52846622467041 -34.5519485473633 0.0429457724094391
vertex -2.8496036529541 -33.9478950500488 0.0532680340111256
endloop
endfacet
facet normal 0.00677337823435664 -0.00227371207438409 0.999974489212036
outer loop
vertex -2.8977382183075 -34.0912895202637 0.0532680340111256
vertex -2.8496036529541 -33.9478950500488 0.0532680340111256
vertex -3.79074859619141 -33.7908592224121 0.0599999986588955
endloop
endfacet
facet normal 0.00677337823435664 -0.00227371184155345 0.999974489212036
outer loop
vertex -3.74301385879517 -33.6486549377441 0.0599999986588955
vertex -3.79074859619141 -33.7908592224121 0.0599999986588955
vertex -2.8496036529541 -33.9478950500488 0.0532680340111256
endloop
endfacet
facet normal -0.230257257819176 -0.668578267097473 -0.707096040248871
outer loop
vertex 24.6431083679199 -43.3567314147949 -0.154349744319916
vertex 24.6000385284424 -43.4839897155762 -0.0199986565858126
vertex 23.345724105835 -42.9202613830566 -0.144569382071495
endloop
endfacet
facet normal -0.230257242918015 -0.668578207492828 -0.707095980644226
outer loop
vertex 23.3046073913574 -43.0417060852051 -0.0163484364748001
vertex 23.345724105835 -42.9202613830566 -0.144569382071495
vertex 24.6000385284424 -43.4839897155762 -0.0199986565858126
endloop
endfacet
facet normal -0.230257257819176 -0.668578267097473 -0.707095980644226
outer loop
vertex 23.345724105835 -42.9202613830566 -0.144569382071495
vertex 23.3046073913574 -43.0417060852051 -0.0163484364748001
vertex 20.7476081848145 -42.0461883544922 -0.124983377754688
endloop
endfacet
facet normal -0.230257257819176 -0.668578207492828 -0.707095980644226
outer loop
vertex 20.7104473114014 -42.1560134887695 -0.00903869047760963
vertex 20.7476081848145 -42.0461883544922 -0.124983377754688
vertex 23.3046073913574 -43.0417060852051 -0.0163484364748001
endloop
endfacet
facet normal -0.230257242918015 -0.668578207492828 -0.707095980644226
outer loop
vertex 20.7104473114014 -42.1560134887695 -0.00903869047760963
vertex 16.6645107269287 -40.774658203125 0.00236182054504752
vertex 20.7476081848145 -42.0461883544922 -0.124983377754688
endloop
endfacet
facet normal -0.230257257819176 -0.668578207492828 -0.707095980644226
outer loop
vertex 16.6955261230469 -40.6829643249512 -0.0944365933537483
vertex 20.7476081848145 -42.0461883544922 -0.124983377754688
vertex 16.6645107269287 -40.774658203125 0.00236182054504752
endloop
endfacet
facet normal -0.230257257819176 -0.668578207492828 -0.707096040248871
outer loop
vertex 16.6955261230469 -40.6829643249512 -0.0944365933537483
vertex 16.6645107269287 -40.774658203125 0.00236182054504752
vertex 12.5982713699341 -39.3045425415039 -0.063549280166626
endloop
endfacet
facet normal -0.230257257819176 -0.668578207492828 -0.707095980644226
outer loop
vertex 12.5734586715698 -39.3778991699219 0.0138894561678171
vertex 12.5982713699341 -39.3045425415039 -0.063549280166626
vertex 16.6645107269287 -40.774658203125 0.00236182054504752
endloop
endfacet
facet normal -0.230257257819176 -0.668578207492828 -0.707095980644226
outer loop
vertex 12.5734586715698 -39.3778991699219 0.0138894561678171
vertex 8.48240661621094 -37.9811363220215 0.0254170931875706
vertex 12.5982713699341 -39.3045425415039 -0.063549280166626
endloop
endfacet
facet normal -0.230257257819176 -0.668578207492828 -0.707096040248871
outer loop
vertex 8.50101661682129 -37.9261207580566 -0.0326619558036327
vertex 12.5982713699341 -39.3045425415039 -0.063549280166626
vertex 8.48240661621094 -37.9811363220215 0.0254170931875706
endloop
endfacet
facet normal -0.230257257819176 -0.668578207492828 -0.707096040248871
outer loop
vertex 8.50101661682129 -37.9261207580566 -0.0326619558036327
vertex 8.48240661621094 -37.9811363220215 0.0254170931875706
vertex 4.40376138687134 -36.5476989746094 -0.00177463819272816
endloop
endfacet
facet normal -0.230257257819176 -0.668578207492828 -0.707095980644226
outer loop
vertex 4.39135503768921 -36.5843772888184 0.0369447283446789
vertex 4.40376138687134 -36.5476989746094 -0.00177463819272816
vertex 8.48240661621094 -37.9811363220215 0.0254170931875706
endloop
endfacet
facet normal -0.230257257819176 -0.668578207492828 -0.707095980644226
outer loop
vertex 4.39135503768921 -36.5843772888184 0.0369447283446789
vertex 0.300303131341934 -35.1876182556152 0.0484723635017872
vertex 4.40376138687134 -36.5476989746094 -0.00177463819272816
endloop
endfacet
facet normal -0.230257257819176 -0.668578207492828 -0.707095980644226
outer loop
vertex 0.306506305932999 -35.1692810058594 0.0291126817464828
vertex 4.40376138687134 -36.5476989746094 -0.00177463819272816
vertex 0.300303131341934 -35.1876182556152 0.0484723635017872
endloop
endfacet
facet normal -0.230257257819176 -0.668578207492828 -0.707095980644226
outer loop
vertex 0.300303131341934 -35.1876182556152 0.0484723635017872
vertex -3.79074859619141 -33.7908592224121 0.0599999986588955
vertex 0.306506305932999 -35.1692810058594 0.0291126817464828
endloop
endfacet
facet normal -0.947936773300171 0.318206816911697 0.0126624442636967
outer loop
vertex -3.77963805198669 -33.7952499389648 1.03214085102081
vertex -3.7315034866333 -33.65185546875 1.03214085102081
vertex -3.79074859619141 -33.7908592224121 0.0900000035762787
endloop
endfacet
facet normal -0.947936773300171 0.31820684671402 0.0126624451950192
outer loop
vertex -3.74301385879517 -33.6486549377441 0.0900000035762787
vertex -3.79074859619141 -33.7908592224121 0.0900000035762787
vertex -3.7315034866333 -33.65185546875 1.03214085102081
endloop
endfacet
facet normal -0.947936773300171 0.318206816911697 0.0126624442636967
outer loop
vertex -3.77963805198669 -33.7952499389648 1.03214085102081
vertex -3.76260185241699 -33.8019866943359 2.47674560546875
vertex -3.7315034866333 -33.65185546875 1.03214085102081
endloop
endfacet
facet normal -0.947936773300171 0.318206816911697 0.0126624442636967
outer loop
vertex -3.71385431289673 -33.6567649841309 2.47674560546875
vertex -3.7315034866333 -33.65185546875 1.03214085102081
vertex -3.76260185241699 -33.8019866943359 2.47674560546875
endloop
endfacet
facet normal -0.947936773300171 0.31820684671402 0.0126624442636967
outer loop
vertex -3.73647999763489 -33.812313079834 4.69178915023804
vertex -3.68679237365723 -33.6642913818359 4.69178915023804
vertex -3.76260185241699 -33.8019866943359 2.47674560546875
endloop
endfacet
facet normal -0.947936654090881 0.318206816911697 0.0126624433323741
outer loop
vertex -3.71385431289673 -33.6567649841309 2.47674560546875
vertex -3.76260185241699 -33.8019866943359 2.47674560546875
vertex -3.68679237365723 -33.6642913818359 4.69178915023804
endloop
endfacet
facet normal -0.947936713695526 0.318206816911697 0.0126624433323741
outer loop
vertex -3.73647999763489 -33.812313079834 4.69178915023804
vertex -3.69633340835571 -33.828182220459 8.09607315063477
vertex -3.68679237365723 -33.6642913818359 4.69178915023804
endloop
endfacet
facet normal -0.947936773300171 0.31820684671402 0.0126624442636967
outer loop
vertex -3.64520120620728 -33.6758613586426 8.09607315063477
vertex -3.68679237365723 -33.6642913818359 4.69178915023804
vertex -3.69633340835571 -33.828182220459 8.09607315063477
endloop
endfacet
facet normal -0.947936773300171 0.31820684671402 0.0126624442636967
outer loop
vertex -3.64674139022827 -33.847785949707 12.3013124465942
vertex -3.59382462501526 -33.6901473999023 12.3013124465942
vertex -3.69633340835571 -33.828182220459 8.09607315063477
endloop
endfacet
facet normal -0.947936713695526 0.318206787109375 0.0126624433323741
outer loop
vertex -3.64520120620728 -33.6758613586426 8.09607315063477
vertex -3.69633340835571 -33.828182220459 8.09607315063477
vertex -3.59382462501526 -33.6901473999023 12.3013124465942
endloop
endfacet
facet normal -0.947936773300171 0.31820684671402 0.0126624442636967
outer loop
vertex -3.64674139022827 -33.847785949707 12.3013124465942
vertex -3.59714913368225 -33.8673934936523 16.5065517425537
vertex -3.59382462501526 -33.6901473999023 12.3013124465942
endloop
endfacet
facet normal -0.947936713695526 0.318206816911697 0.0126624442636967
outer loop
vertex -3.54244804382324 -33.7044372558594 16.5065517425537
vertex -3.59382462501526 -33.6901473999023 12.3013124465942
vertex -3.59714913368225 -33.8673934936523 16.5065517425537
endloop
endfacet
facet normal -0.947936713695526 0.318206816911697 0.0126624442636967
outer loop
vertex -3.54755687713623 -33.8869972229004 20.7117900848389
vertex -3.49107146263123 -33.7187271118164 20.7117900848389
vertex -3.59714913368225 -33.8673934936523 16.5065517425537
endloop
endfacet
facet normal -0.947936713695526 0.318206816911697 0.0126624442636967
outer loop
vertex -3.54244804382324 -33.7044372558594 16.5065517425537
vertex -3.59714913368225 -33.8673934936523 16.5065517425537
vertex -3.49107146263123 -33.7187271118164 20.7117900848389
endloop
endfacet
facet normal -0.947936773300171 0.318206816911697 0.0126624442636967
outer loop
vertex -3.54755687713623 -33.8869972229004 20.7117900848389
vertex -3.50221705436707 -33.9049186706543 24.5564651489258
vertex -3.49107146263123 -33.7187271118164 20.7117900848389
endloop
endfacet
facet normal -0.947936713695526 0.318206816911697 0.0126624442636967
outer loop
vertex -3.44409990310669 -33.7317886352539 24.5564651489258
vertex -3.49107146263123 -33.7187271118164 20.7117900848389
vertex -3.50221705436707 -33.9049186706543 24.5564651489258
endloop
endfacet
facet normal -0.947936713695526 0.318206816911697 0.0126624442636967
outer loop
vertex -3.47133946418762 -33.9171257019043 27.1747627258301
vertex -3.41211128234863 -33.7406845092773 27.1747627258301
vertex -3.50221705436707 -33.9049186706543 24.5564651489258
endloop
endfacet
facet normal -0.947936713695526 0.31820684671402 0.0126624442636967
outer loop
vertex -3.44409990310669 -33.7317886352539 24.5564651489258
vertex -3.50221705436707 -33.9049186706543 24.5564651489258
vertex -3.41211128234863 -33.7406845092773 27.1747627258301
endloop
endfacet
facet normal -0.947936773300171 0.31820684671402 0.0126624451950192
outer loop
vertex -3.45073628425598 -33.9252700805664 28.9218425750732
vertex -3.39076685905457 -33.7466239929199 28.9218425750732
vertex -3.47133946418762 -33.9171257019043 27.1747627258301
endloop
endfacet
facet normal -0.947936713695526 0.318206816911697 0.0126624442636967
outer loop
vertex -3.41211128234863 -33.7406845092773 27.1747627258301
vertex -3.47133946418762 -33.9171257019043 27.1747627258301
vertex -3.39076685905457 -33.7466239929199 28.9218425750732
endloop
endfacet
facet normal -0.947936773300171 0.318206816911697 0.0126624442636967
outer loop
vertex -3.45073628425598 -33.9252700805664 28.9218425750732
vertex -3.43698859214783 -33.9307060241699 30.0875949859619
vertex -3.39076685905457 -33.7466239929199 28.9218425750732
endloop
endfacet
facet normal -0.947936713695526 0.318206816911697 0.0126624442636967
outer loop
vertex -3.37652444839478 -33.7505836486816 30.0875949859619
vertex -3.39076685905457 -33.7466239929199 28.9218425750732
vertex -3.43698859214783 -33.9307060241699 30.0875949859619
endloop
endfacet
facet normal 0.219114184379578 0.672319233417511 -0.70708966255188
outer loop
vertex -3.71456813812256 -33.6581840515137 0.089755654335022
vertex -3.74301385879517 -33.6486549377441 0.0900000035762787
vertex -3.66650986671448 -33.5201835632324 0.235862165689468
endloop
endfacet
facet normal 0.219114184379578 0.672319233417511 -0.707089722156525
outer loop
vertex -3.69600057601929 -33.5103073120117 0.236115485429764
vertex -3.66650986671448 -33.5201835632324 0.235862165689468
vertex -3.74301385879517 -33.6486549377441 0.0900000035762787
endloop
endfacet
facet normal 0.219114184379578 0.672319173812866 -0.70708966255188
outer loop
vertex -3.69600057601929 -33.5103073120117 0.236115485429764
vertex -3.6157546043396 -33.2741584777832 0.485517531633377
vertex -3.66650986671448 -33.5201835632324 0.235862165689468
endloop
endfacet
facet normal 0.219114169478416 0.672319173812866 -0.707089722156525
outer loop
vertex -3.58448004722595 -33.2846336364746 0.485248893499374
vertex -3.66650986671448 -33.5201835632324 0.235862165689468
vertex -3.6157546043396 -33.2741584777832 0.485517531633377
endloop
endfacet
facet normal 0.219114184379578 0.672319173812866 -0.70708966255188
outer loop
vertex -3.47878384590149 -32.8710823059082 0.911217570304871
vertex -3.44446492195129 -32.8825759887695 0.910922765731812
vertex -3.6157546043396 -33.2741584777832 0.485517531633377
endloop
endfacet
facet normal 0.219114184379578 0.672319233417511 -0.70708966255188
outer loop
vertex -3.58448004722595 -33.2846336364746 0.485248893499374
vertex -3.6157546043396 -33.2741584777832 0.485517531633377
vertex -3.44446492195129 -32.8825759887695 0.910922765731812
endloop
endfacet
facet normal 0.219114184379578 0.672319233417511 -0.707089722156525
outer loop
vertex -3.24499106407166 -32.1830787658691 1.63783776760101
vertex -3.20547533035278 -32.1963119506836 1.63749825954437
vertex -3.47878384590149 -32.8710823059082 0.911217570304871
endloop
endfacet
facet normal 0.219114184379578 0.672319173812866 -0.70708966255188
outer loop
vertex -3.44446492195129 -32.8825759887695 0.910922765731812
vertex -3.47878384590149 -32.8710823059082 0.911217570304871
vertex -3.20547533035278 -32.1963119506836 1.63749825954437
endloop
endfacet
facet normal 0.219114199280739 0.672319233417511 -0.707089722156525
outer loop
vertex -3.24499106407166 -32.1830787658691 1.63783776760101
vertex -2.84593391418457 -31.0087356567383 2.87809324264526
vertex -3.20547533035278 -32.1963119506836 1.63749825954437
endloop
endfacet
facet normal 0.219114169478416 0.672319173812866 -0.70708966255188
outer loop
vertex -2.79754829406738 -31.0249423980713 2.87767767906189
vertex -3.20547533035278 -32.1963119506836 1.63749825954437
vertex -2.84593391418457 -31.0087356567383 2.87809324264526
endloop
endfacet
facet normal 0.219114199280739 0.672319233417511 -0.707089722156525
outer loop
vertex -2.164790391922 -29.0042705535889 4.99506425857544
vertex -2.10126447677612 -29.0255489349365 4.9945182800293
vertex -2.84593391418457 -31.0087356567383 2.87809324264526
endloop
endfacet
facet normal 0.2191142141819 0.672319233417511 -0.707089722156525
outer loop
vertex -2.79754829406738 -31.0249423980713 2.87767767906189
vertex -2.84593391418457 -31.0087356567383 2.87809324264526
vertex -2.10126447677612 -29.0255489349365 4.9945182800293
endloop
endfacet
facet normal 0.2191142141819 0.672319293022156 -0.707089722156525
outer loop
vertex -2.164790391922 -29.0042705535889 4.99506425857544
vertex -1.18409478664398 -26.1182880401611 8.04303169250488
vertex -2.10126447677612 -29.0255489349365 4.9945182800293
endloop
endfacet
facet normal 0.219114184379578 0.672319173812866 -0.707089722156525
outer loop
vertex -1.09877038002014 -26.1468658447266 8.04229831695557
vertex -2.10126447677612 -29.0255489349365 4.9945182800293
vertex -1.18409478664398 -26.1182880401611 8.04303169250488
endloop
endfacet
facet normal 0.219114184379578 0.672319173812866 -0.70708966255188
outer loop
vertex -1.18409478664398 -26.1182880401611 8.04303169250488
vertex -0.190690010786057 -23.1949043273926 11.1304988861084
vertex -1.09877038002014 -26.1468658447266 8.04229831695557
endloop
endfacet
facet normal 0.219114199280739 0.672319233417511 -0.707089722156525
outer loop
vertex -0.0832847356796265 -23.2308788299561 11.1295766830444
vertex -1.09877038002014 -26.1468658447266 8.04229831695557
vertex -0.190690010786057 -23.1949043273926 11.1304988861084
endloop
endfacet
facet normal 0.219114199280739 0.672319233417511 -0.707089722156525
outer loop
vertex 0.802714705467224 -20.271520614624 14.2179660797119
vertex 0.932200968265533 -20.3148899078369 14.216854095459
vertex -0.190690010786057 -23.1949043273926 11.1304988861084
endloop
endfacet
facet normal 0.219114199280739 0.672319233417511 -0.707089722156525
outer loop
vertex -0.0832847356796265 -23.2308788299561 11.1295766830444
vertex -0.190690010786057 -23.1949043273926 11.1304988861084
vertex 0.932200968265533 -20.3148899078369 14.216854095459
endloop
endfacet
facet normal 0.219114184379578 0.672319233417511 -0.707089722156525
outer loop
vertex 1.74593615531921 -17.4958152770996 17.1494655609131
vertex 1.89638793468475 -17.5462074279785 17.1481742858887
vertex 0.802714705467224 -20.271520614624 14.2179660797119
endloop
endfacet
facet normal 0.219114199280739 0.672319233417511 -0.707089722156525
outer loop
vertex 0.932200968265533 -20.3148899078369 14.216854095459
vertex 0.802714705467224 -20.271520614624 14.2179660797119
vertex 1.89638793468475 -17.5462074279785 17.1481742858887
endloop
endfacet
facet normal 0.219114184379578 0.672319233417511 -0.707089722156525
outer loop
vertex 1.74593615531921 -17.4958152770996 17.1494655609131
vertex 2.3932409286499 -15.5909309387207 19.1612663269043
vertex 1.89638793468475 -17.5462074279785 17.1481742858887
endloop
endfacet
facet normal 0.219114184379578 0.672319173812866 -0.70708966255188
outer loop
vertex 2.55808067321777 -15.6461429595947 19.1598510742188
vertex 1.89638793468475 -17.5462074279785 17.1481742858887
vertex 2.3932409286499 -15.5909309387207 19.1612663269043
endloop
endfacet
facet normal 0.219114199280739 0.672319233417511 -0.707089722156525
outer loop
vertex 2.81175255775452 -14.3593378067017 20.461986541748
vertex 2.98589491844177 -14.4176654815674 20.4604911804199
vertex 2.3932409286499 -15.5909309387207 19.1612663269043
endloop
endfacet
facet normal 0.219114184379578 0.672319233417511 -0.70708966255188
outer loop
vertex 2.55808067321777 -15.6461429595947 19.1598510742188
vertex 2.3932409286499 -15.5909309387207 19.1612663269043
vertex 2.98589491844177 -14.4176654815674 20.4604911804199
endloop
endfacet
facet normal 0.219114199280739 0.672319233417511 -0.707089722156525
outer loop
vertex 2.81175255775452 -14.3593378067017 20.461986541748
vertex 3.0823392868042 -13.5630578994751 21.3029594421387
vertex 2.98589491844177 -14.4176654815674 20.4604911804199
endloop
endfacet
facet normal 0.219114184379578 0.672319233417511 -0.707089722156525
outer loop
vertex 3.26249599456787 -13.6233997344971 21.3014125823975
vertex 2.98589491844177 -14.4176654815674 20.4604911804199
vertex 3.0823392868042 -13.5630578994751 21.3029594421387
endloop
endfacet
facet normal -0.22935938835144 -0.668865561485291 0.707116067409515
outer loop
vertex -2.75949883460999 -30.7543754577637 3.14673089981079
vertex -3.74301385879517 -33.6486549377441 0.0900000035762787
vertex -2.7335889339447 -30.7632217407227 3.14676642417908
endloop
endfacet
facet normal -0.22935938835144 -0.668865561485291 0.707116067409515
outer loop
vertex -1.77598357200623 -27.8600940704346 6.20346164703369
vertex -2.75949883460999 -30.7543754577637 3.14673089981079
vertex -1.72416412830353 -27.8777885437012 6.20353317260742
endloop
endfacet
facet normal -0.22935938835144 -0.668865561485291 0.707116067409515
outer loop
vertex -2.7335889339447 -30.7632217407227 3.14676642417908
vertex -1.72416412830353 -27.8777885437012 6.20353317260742
vertex -2.75949883460999 -30.7543754577637 3.14673089981079
endloop
endfacet
facet normal -0.22935938835144 -0.668865561485291 0.707116067409515
outer loop
vertex -1.77598357200623 -27.8600940704346 6.20346164703369
vertex -1.72416412830353 -27.8777885437012 6.20353317260742
vertex -0.7924684882164 -24.9658126831055 9.26019287109375
endloop
endfacet
facet normal -0.229359358549118 -0.668865561485291 0.707116007804871
outer loop
vertex -0.714739203453064 -24.9923534393311 9.26029968261719
vertex -0.7924684882164 -24.9658126831055 9.26019287109375
vertex -1.72416412830353 -27.8777885437012 6.20353317260742
endloop
endfacet
facet normal -0.22935938835144 -0.668865561485291 0.707116067409515
outer loop
vertex 0.191046640276909 -22.0715312957764 12.3169231414795
vertex -0.7924684882164 -24.9658126831055 9.26019287109375
vertex 0.2946857213974 -22.1069202423096 12.317066192627
endloop
endfacet
facet normal -0.229359358549118 -0.668865561485291 0.707116007804871
outer loop
vertex -0.714739203453064 -24.9923534393311 9.26029968261719
vertex 0.2946857213974 -22.1069202423096 12.317066192627
vertex -0.7924684882164 -24.9658126831055 9.26019287109375
endloop
endfacet
facet normal -0.22935938835144 -0.668865561485291 0.707116067409515
outer loop
vertex 0.191046640276909 -22.0715312957764 12.3169231414795
vertex 0.2946857213974 -22.1069202423096 12.317066192627
vertex 1.1745617389679 -19.1772518157959 15.3736543655396
endloop
endfacet
facet normal -0.22935938835144 -0.668865621089935 0.707116067409515
outer loop
vertex 1.30411064624786 -19.2214851379395 15.3738327026367
vertex 1.1745617389679 -19.1772518157959 15.3736543655396
vertex 0.2946857213974 -22.1069202423096 12.317066192627
endloop
endfacet
facet normal -0.22935938835144 -0.668865561485291 0.707116067409515
outer loop
vertex 2.14723110198975 -16.3148880004883 18.3966770172119
vertex 1.1745617389679 -19.1772518157959 15.3736543655396
vertex 2.30240654945374 -16.3678646087646 18.3968982696533
endloop
endfacet
facet normal -0.22935938835144 -0.668865561485291 0.707116007804871
outer loop
vertex 1.30411064624786 -19.2214851379395 15.3738327026367
vertex 2.30240654945374 -16.3678646087646 18.3968982696533
vertex 1.1745617389679 -19.1772518157959 15.3736543655396
endloop
endfacet
facet normal -0.22935938835144 -0.668865621089935 0.707116067409515
outer loop
vertex 2.14723110198975 -16.3148880004883 18.3966770172119
vertex 2.30240654945374 -16.3678646087646 18.3968982696533
vertex 2.77088475227356 -14.479603767395 20.3349704742432
endloop
endfacet
facet normal -0.229359373450279 -0.668865621089935 0.707116007804871
outer loop
vertex 2.94249510765076 -14.5381746292114 20.3352317810059
vertex 2.77088475227356 -14.479603767395 20.3349704742432
vertex 2.30240654945374 -16.3678646087646 18.3968982696533
endloop
endfacet
facet normal -0.229359373450279 -0.668865561485291 0.707116067409515
outer loop
vertex 2.77088475227356 -14.479603767395 20.3349704742432
vertex 2.94249510765076 -14.5381746292114 20.3352317810059
vertex 3.08231496810913 -13.5631284713745 21.302885055542
endloop
endfacet
facet normal -0.229359403252602 -0.66886568069458 0.707116067409515
outer loop
vertex 3.26212692260742 -13.6245098114014 21.3031482696533
vertex 3.08231496810913 -13.5631284713745 21.302885055542
vertex 2.94249510765076 -14.5381746292114 20.3352317810059
endloop
endfacet
facet normal -0.323104023933411 -0.94636332988739 -0.000601578911300749
outer loop
vertex -0.558063507080078 -34.9116668701172 27.0155792236328
vertex -3.43698859214783 -33.9307060241699 30.0875949859619
vertex -0.57647442817688 -34.9053688049316 26.9963188171387
endloop
endfacet
facet normal -0.323104023933411 -0.94636332988739 -0.000601578911300749
outer loop
vertex 2.32086157798767 -35.8926239013672 23.9435615539551
vertex -0.558063507080078 -34.9116668701172 27.0155792236328
vertex 2.28403973579407 -35.8800277709961 23.9050407409668
endloop
endfacet
facet normal -0.323104023933411 -0.94636332988739 -0.000601578911300749
outer loop
vertex -0.57647442817688 -34.9053688049316 26.9963188171387
vertex 2.28403973579407 -35.8800277709961 23.9050407409668
vertex -0.558063507080078 -34.9116668701172 27.0155792236328
endloop
endfacet
facet normal -0.323104023933411 -0.94636332988739 -0.000601578911300749
outer loop
vertex 2.32086157798767 -35.8926239013672 23.9435615539551
vertex 2.28403973579407 -35.8800277709961 23.9050407409668
vertex 5.19978666305542 -36.8735847473145 20.871545791626
endloop
endfacet
facet normal -0.323104023933411 -0.946363270282745 -0.000601578853093088
outer loop
vertex 5.14455413818359 -36.8546905517578 20.8137645721436
vertex 5.19978666305542 -36.8735847473145 20.871545791626
vertex 2.28403973579407 -35.8800277709961 23.9050407409668
endloop
endfacet
facet normal -0.323104023933411 -0.946363270282745 -0.000601578853093088
outer loop
vertex 5.14455413818359 -36.8546905517578 20.8137645721436
vertex 8.00506782531738 -37.8293533325195 17.7224884033203
vertex 5.19978666305542 -36.8735847473145 20.871545791626
endloop
endfacet
facet normal -0.323104023933411 -0.94636332988739 -0.000601578911300749
outer loop
vertex 8.07871150970459 -37.8545455932617 17.7995300292969
vertex 5.19978666305542 -36.8735847473145 20.871545791626
vertex 8.00506782531738 -37.8293533325195 17.7224884033203
endloop
endfacet
facet normal -0.323104023933411 -0.94636332988739 -0.000601578911300749
outer loop
vertex 8.07871150970459 -37.8545455932617 17.7995300292969
vertex 8.00506782531738 -37.8293533325195 17.7224884033203
vertex 10.9576368331909 -38.8355026245117 14.7275133132935
endloop
endfacet
facet normal -0.323104023933411 -0.946363270282745 -0.000601578853093088
outer loop
vertex 10.8655824661255 -38.8040161132813 14.6312122344971
vertex 10.9576368331909 -38.8355026245117 14.7275133132935
vertex 8.00506782531738 -37.8293533325195 17.7224884033203
endloop
endfacet
facet normal -0.323103994131088 -0.946363270282745 -0.000601578853093088
outer loop
vertex 13.8048133850098 -39.8056449890137 11.6893739700317
vertex 10.9576368331909 -38.8355026245117 14.7275133132935
vertex 13.69455909729 -39.7679290771484 11.5740175247192
endloop
endfacet
facet normal -0.323103994131088 -0.946363270282745 -0.000601578853093088
outer loop
vertex 10.8655824661255 -38.8040161132813 14.6312122344971
vertex 13.69455909729 -39.7679290771484 11.5740175247192
vertex 10.9576368331909 -38.8355026245117 14.7275133132935
endloop
endfacet
facet normal -0.323103994131088 -0.946363270282745 -0.000601578911300749
outer loop
vertex 13.8048133850098 -39.8056449890137 11.6893739700317
vertex 13.69455909729 -39.7679290771484 11.5740175247192
vertex 15.6303577423096 -40.427677154541 9.74139022827148
endloop
endfacet
facet normal -0.323104023933411 -0.946363270282745 -0.000601578853093088
outer loop
vertex 15.5084438323975 -40.3859748840332 9.61380290985107
vertex 15.6303577423096 -40.427677154541 9.74139022827148
vertex 13.69455909729 -39.7679290771484 11.5740175247192
endloop
endfacet
facet normal -0.323104023933411 -0.946363270282745 -0.000601578853093088
outer loop
vertex 15.6303577423096 -40.427677154541 9.74139022827148
vertex 15.5084438323975 -40.3859748840332 9.61380290985107
vertex 16.5419673919678 -40.7383003234863 8.76863670349121
endloop
endfacet
facet normal -0.323104023933411 -0.94636332988739 -0.000601578911300749
outer loop
vertex 16.4142169952393 -40.6945991516113 8.63496017456055
vertex 16.5419673919678 -40.7383003234863 8.76863670349121
vertex 15.5084438323975 -40.3859748840332 9.61380290985107
endloop
endfacet
facet normal -1 0 0
outer loop
vertex -0.214350000023842 -31 0.170000001788139
vertex -0.214350000023842 -30 0.170000001788139
vertex -0.214350000023842 -31 -0.0199999995529652
endloop
endfacet
facet normal -1 0 0
outer loop
vertex -0.214350000023842 -30 -0.0199999995529652
vertex -0.214350000023842 -31 -0.0199999995529652
vertex -0.214350000023842 -30 0.170000001788139
endloop
endfacet
facet normal -0.70710676908493 0 -0.70710676908493
outer loop
vertex -0.214350000023842 -31 -0.0199999995529652
vertex -0.214350000023842 -30 -0.0199999995529652
vertex -0.0799999982118607 -31 -0.154349997639656
endloop
endfacet
facet normal -0.70710676908493 -0 -0.70710676908493
outer loop
vertex -0.0799999982118607 -30 -0.154349997639656
vertex -0.0799999982118607 -31 -0.154349997639656
vertex -0.214350000023842 -30 -0.0199999995529652
endloop
endfacet
facet normal -0.70710676908493 0 0.70710676908493
outer loop
vertex -0.0799999982118607 -31 0.304349988698959
vertex -0.0799999982118607 -30 0.304349988698959
vertex -0.214350000023842 -31 0.170000001788139
endloop
endfacet
facet normal -0.70710676908493 0 0.70710676908493
outer loop
vertex -0.214350000023842 -30 0.170000001788139
vertex -0.214350000023842 -31 0.170000001788139
vertex -0.0799999982118607 -30 0.304349988698959
endloop
endfacet
facet normal -0 -0 -1
outer loop
vertex 0.109999999403954 -30 -0.154349997639656
vertex 0.109999999403954 -31 -0.154349997639656
vertex -0.0799999982118607 -30 -0.154349997639656
endloop
endfacet
facet normal 0 0 -1
outer loop
vertex -0.0799999982118607 -31 -0.154349997639656
vertex -0.0799999982118607 -30 -0.154349997639656
vertex 0.109999999403954 -31 -0.154349997639656
endloop
endfacet
facet normal 0 -0 1
outer loop
vertex 0.109999999403954 -31 0.304349988698959
vertex 0.109999999403954 -30 0.304349988698959
vertex -0.0799999982118607 -31 0.304349988698959
endloop
endfacet
facet normal -0 0 1
outer loop
vertex -0.0799999982118607 -30 0.304349988698959
vertex -0.0799999982118607 -31 0.304349988698959
vertex 0.109999999403954 -30 0.304349988698959
endloop
endfacet
facet normal 0.70710676908493 0 -0.70710676908493
outer loop
vertex 0.109999999403954 -30 -0.154349997639656
vertex 0.244350001215935 -30 -0.0199999995529652
vertex 0.109999999403954 -31 -0.154349997639656
endloop
endfacet
facet normal 0.70710676908493 0 -0.70710676908493
outer loop
vertex 0.244350001215935 -31 -0.0199999995529652
vertex 0.109999999403954 -31 -0.154349997639656
vertex 0.244350001215935 -30 -0.0199999995529652
endloop
endfacet
facet normal 0.70710676908493 0 0.70710676908493
outer loop
vertex 0.109999999403954 -30 0.304349988698959
vertex 0.109999999403954 -31 0.304349988698959
vertex 0.244350001215935 -30 0.170000001788139
endloop
endfacet
facet normal 0.70710676908493 -0 0.70710676908493
outer loop
vertex 0.244350001215935 -31 0.170000001788139
vertex 0.244350001215935 -30 0.170000001788139
vertex 0.109999999403954 -31 0.304349988698959
endloop
endfacet
facet normal 1 0 0
outer loop
vertex 0.244350001215935 -30 0.170000001788139
vertex 0.244350001215935 -31 0.170000001788139
vertex 0.244350001215935 -30 -0.0199999995529652
endloop
endfacet
facet normal 1 0 0
outer loop
vertex 0.244350001215935 -31 -0.0199999995529652
vertex 0.244350001215935 -30 -0.0199999995529652
vertex 0.244350001215935 -31 0.170000001788139
endloop
endfacet
facet normal -0 0.00514493184164166 0.99998676776886
outer loop
vertex -0.0799999982118607 -29.9996032714844 0.304347962141037
vertex 0.109999999403954 -29.9996032714844 0.304347962141037
vertex -0.0768284499645233 -28.8102874755859 0.298228919506073
endloop
endfacet
facet normal 5.04976214499747e-16 0.00514493184164166 0.99998676776886
outer loop
vertex 0.106828451156616 -28.8102874755859 0.298228919506073
vertex -0.0768284499645233 -28.8102874755859 0.298228919506073
vertex 0.109999999403954 -29.9996032714844 0.304347962141037
endloop
endfacet
facet normal 5.04976214499747e-16 0.00514493230730295 0.99998676776886
outer loop
vertex 0.106828451156616 -28.8102874755859 0.298228919506073
vertex 0.101923070847988 -26.970796585083 0.288764744997025
vertex -0.0768284499645233 -28.8102874755859 0.298228919506073
endloop
endfacet
facet normal 3.88278165942085e-18 0.00514493184164166 0.99998676776886
outer loop
vertex -0.0719230771064758 -26.970796585083 0.288764744997025
vertex -0.0768284499645233 -28.8102874755859 0.298228919506073
vertex 0.101923070847988 -26.970796585083 0.288764744997025
endloop
endfacet
facet normal 3.88278165942085e-18 0.00514493137598038 0.99998676776886
outer loop
vertex -0.0719230771064758 -26.970796585083 0.288764744997025
vertex 0.101923070847988 -26.970796585083 0.288764744997025
vertex -0.064336009323597 -24.1256847381592 0.274126648902893
endloop
endfacet
facet normal 3.54097888434924e-16 0.00514493230730295 0.99998676776886
outer loop
vertex 0.0943360105156898 -24.1256847381592 0.274126648902893
vertex -0.064336009323597 -24.1256847381592 0.274126648902893
vertex 0.101923070847988 -26.970796585083 0.288764744997025
endloop
endfacet
facet normal 3.54097861965144e-16 0.00514493184164166 0.99998676776886
outer loop
vertex 0.0943360105156898 -24.1256847381592 0.274126648902893
vertex 0.083280511200428 -19.9799270629883 0.252796709537506
vertex -0.064336009323597 -24.1256847381592 0.274126648902893
endloop
endfacet
facet normal -6.74184757059628e-16 0.00514493184164166 0.999986708164215
outer loop
vertex -0.0532805100083351 -19.9799270629883 0.252796709537506
vertex -0.064336009323597 -24.1256847381592 0.274126648902893
vertex 0.083280511200428 -19.9799270629883 0.252796709537506
endloop
endfacet
facet normal -6.74184757059628e-16 0.00514493184164166 0.999986827373505
outer loop
vertex -0.0532805100083351 -19.9799270629883 0.252796709537506
vertex 0.083280511200428 -19.9799270629883 0.252796709537506
vertex -0.0416368059813976 -15.6135959625244 0.23033195734024
endloop
endfacet
facet normal -7.17442001756966e-17 0.00514493184164166 0.99998676776886
outer loop
vertex 0.0716368034482002 -15.6135959625244 0.23033195734024
vertex -0.0416368059813976 -15.6135959625244 0.23033195734024
vertex 0.083280511200428 -19.9799270629883 0.252796709537506
endloop
endfacet
facet normal -7.17442001756966e-17 0.00514493184164166 0.99998676776886
outer loop
vertex 0.0716368034482002 -15.6135959625244 0.23033195734024
vertex 0.059993103146553 -11.2472648620605 0.207867175340652
vertex -0.0416368059813976 -15.6135959625244 0.23033195734024
endloop
endfacet
facet normal -6.01874507264594e-16 0.00514493184164166 0.999986827373505
outer loop
vertex -0.0299931038171053 -11.2472648620605 0.207867175340652
vertex -0.0416368059813976 -15.6135959625244 0.23033195734024
vertex 0.059993103146553 -11.2472648620605 0.207867175340652
endloop
endfacet
facet normal -6.01874507264594e-16 0.00514493230730295 0.99998676776886
outer loop
vertex -0.0299931038171053 -11.2472648620605 0.207867175340652
vertex 0.059993103146553 -11.2472648620605 0.207867175340652
vertex -0.0184983666986227 -6.93679571151733 0.185689821839333
endloop
endfacet
facet normal 3.66220941613383e-16 0.00514493230730295 0.99998676776886
outer loop
vertex 0.0484983660280704 -6.93679571151733 0.185689821839333
vertex -0.0184983666986227 -6.93679571151733 0.185689821839333
vertex 0.059993103146553 -11.2472648620605 0.207867175340652
endloop
endfacet
facet normal 3.66220915143603e-16 0.00514493184164166 0.99998676776886
outer loop
vertex 0.0484983660280704 -6.93679571151733 0.185689821839333
vertex 0.0405146777629852 -3.94295215606689 0.170286491513252
vertex -0.0184983666986227 -6.93679571151733 0.185689821839333
endloop
endfacet
facet normal -3.15465873763513e-17 0.00514493137598038 0.999986708164215
outer loop
vertex -0.0105146784335375 -3.94295215606689 0.170286491513252
vertex -0.0184983666986227 -6.93679571151733 0.185689821839333
vertex 0.0405146777629852 -3.94295215606689 0.170286491513252
endloop
endfacet
facet normal -3.15465906850737e-17 0.00514493184164166 0.99998676776886
outer loop
vertex -0.0105146784335375 -3.94295215606689 0.170286491513252
vertex 0.0405146777629852 -3.94295215606689 0.170286491513252
vertex -0.00583732826635242 -2.18896913528442 0.16126224398613
endloop
endfacet
facet normal -1.01551263119796e-16 0.00514493184164166 0.99998676776886
outer loop
vertex 0.0358373299241066 -2.18896913528442 0.16126224398613
vertex -0.00583732826635242 -2.18896913528442 0.16126224398613
vertex 0.0405146777629852 -3.94295215606689 0.170286491513252
endloop
endfacet
facet normal -1.01551269737241e-16 0.00514493184164166 0.99998676776886
outer loop
vertex 0.0358373299241066 -2.18896913528442 0.16126224398613
vertex 0.0330970399081707 -1.16137492656708 0.155975267291069
vertex -0.00583732826635242 -2.18896913528442 0.16126224398613
endloop
endfacet
facet normal 1.1549280471527e-15 0.00514493137598038 0.999986708164215
outer loop
vertex -0.0030970408115536 -1.16137492656708 0.155975267291069
vertex -0.00583732826635242 -2.18896913528442 0.16126224398613
vertex 0.0330970399081707 -1.16137492656708 0.155975267291069
endloop
endfacet
facet normal 1.1549280471527e-15 0.00514493184164166 0.99998676776886
outer loop
vertex -0.0030970408115536 -1.16137492656708 0.155975267291069
vertex 0.0330970399081707 -1.16137492656708 0.155975267291069
vertex -0.0014916070504114 -0.559345245361328 0.15287783741951
endloop
endfacet
facet normal -5.02221028080566e-16 0.00514493184164166 0.99998676776886
outer loop
vertex 0.031491607427597 -0.559345245361328 0.15287783741951
vertex -0.0014916070504114 -0.559345245361328 0.15287783741951
vertex 0.0330970399081707 -1.16137492656708 0.155975267291069
endloop
endfacet
facet normal -5.02221028080566e-16 0.00514493230730295 0.99998676776886
outer loop
vertex 0.031491607427597 -0.559345245361328 0.15287783741951
vertex 0.0305510424077511 -0.206638142466545 0.151063159108162
vertex -0.0014916070504114 -0.559345245361328 0.15287783741951
endloop
endfacet
facet normal 1.12654937292525e-15 0.00514493184164166 0.99998676776886
outer loop
vertex -0.000551042321603745 -0.206638142466545 0.151063159108162
vertex -0.0014916070504114 -0.559345245361328 0.15287783741951
vertex 0.0305510424077511 -0.206638142466545 0.151063159108162
endloop
endfacet
facet normal 1.12654937292525e-15 0.00514493184164166 0.99998676776886
outer loop
vertex -0.000551042321603745 -0.206638142466545 0.151063159108162
vertex 0.0305510424077511 -0.206638142466545 0.151063159108162
vertex 0 0 0.150000005960464
endloop
endfacet
facet normal 0 0.00514493184164166 0.99998676776886
outer loop
vertex 0.0299999993294477 0 0.150000005960464
vertex 0 0 0.150000005960464
vertex 0.0305510424077511 -0.206638142466545 0.151063159108162
endloop
endfacet
facet normal -0.999974489212036 -0.00714481761679053 0
outer loop
vertex 0.244344532489777 -29.9992351531982 -0.0199999995529652
vertex 0.244344532489777 -29.9992351531982 0.170000001788139
vertex 0.236014768481255 -28.8334178924561 -0.0192227698862553
endloop
endfacet
facet normal -0.999974489212036 -0.00714481808245182 1.4728324030399e-16
outer loop
vertex 0.236014768481255 -28.8334178924561 0.169222772121429
vertex 0.236014768481255 -28.8334178924561 -0.0192227698862553
vertex 0.244344532489777 -29.9992351531982 0.170000001788139
endloop
endfacet
facet normal -0.999974489212036 -0.00714481715112925 1.47283213834211e-16
outer loop
vertex 0.236014768481255 -28.8334178924561 0.169222772121429
vertex 0.223531201481819 -27.0862426757813 0.168057963252068
vertex 0.236014768481255 -28.8334178924561 -0.0192227698862553
endloop
endfacet
facet normal -0.999974429607391 -0.00714481761679053 1.23643993349111e-16
outer loop
vertex 0.223531201481819 -27.0862426757813 -0.0180579554289579
vertex 0.236014768481255 -28.8334178924561 -0.0192227698862553
vertex 0.223531201481819 -27.0862426757813 0.168057963252068
endloop
endfacet
facet normal -0.999974429607391 -0.00714481715112925 1.23643993349111e-16
outer loop
vertex 0.223531201481819 -27.0862426757813 0.168057963252068
vertex 0.204822435975075 -24.4678020477295 0.166312277317047
vertex 0.223531201481819 -27.0862426757813 -0.0180579554289579
endloop
endfacet
facet normal -0.999974489212036 -0.00714481808245182 2.90970508109531e-16
outer loop
vertex 0.204822435975075 -24.4678020477295 -0.0163122843950987
vertex 0.223531201481819 -27.0862426757813 -0.0180579554289579
vertex 0.204822435975075 -24.4678020477295 0.166312277317047
endloop
endfacet
facet normal -0.999974429607391 -0.00714481808245182 2.90970481639752e-16
outer loop
vertex 0.204822435975075 -24.4678020477295 -0.0163122843950987
vertex 0.204822435975075 -24.4678020477295 0.166312277317047
vertex 0.177350744605064 -20.622917175293 -0.0137489624321461
endloop
endfacet
facet normal -0.999974489212036 -0.00714481761679053 -3.26094555682223e-16
outer loop
vertex 0.177350744605064 -20.622917175293 0.16374896466732
vertex 0.177350744605064 -20.622917175293 -0.0137489624321461
vertex 0.204822435975075 -24.4678020477295 0.166312277317047
endloop
endfacet
facet normal -0.999974548816681 -0.00714481808245182 -3.26094608621782e-16
outer loop
vertex 0.177350744605064 -20.622917175293 -0.0137489624321461
vertex 0.177350744605064 -20.622917175293 0.16374896466732
vertex 0.14730267226696 -16.4174480438232 -0.010945244692266
endloop
endfacet
facet normal -0.999974429607391 -0.00714481668546796 -1.47672438708364e-16
outer loop
vertex 0.14730267226696 -16.4174480438232 0.160945251584053
vertex 0.14730267226696 -16.4174480438232 -0.010945244692266
vertex 0.177350744605064 -20.622917175293 0.16374896466732
endloop
endfacet
facet normal -0.999974429607391 -0.00714481668546796 -1.47672438708364e-16
outer loop
vertex 0.14730267226696 -16.4174480438232 0.160945251584053
vertex 0.117254592478275 -12.2119798660278 0.158141523599625
vertex 0.14730267226696 -16.4174480438232 -0.010945244692266
endloop
endfacet
facet normal -0.999974489212036 -0.00714481761679053 -3.56526987021747e-17
outer loop
vertex 0.117254592478275 -12.2119798660278 -0.00814152788370848
vertex 0.14730267226696 -16.4174480438232 -0.010945244692266
vertex 0.117254592478275 -12.2119798660278 0.158141523599625
endloop
endfacet
facet normal -0.999974489212036 -0.00714481761679053 -3.56526987021747e-17
outer loop
vertex 0.117254592478275 -12.2119798660278 -0.00814152788370848
vertex 0.117254592478275 -12.2119798660278 0.158141523599625
vertex 0.0872065201401711 -8.00651073455811 -0.00533781014382839
endloop
endfacet
facet normal -0.999974489212036 -0.00714481808245182 1.13703399968592e-16
outer loop
vertex 0.0872065201401711 -8.00651073455811 0.155337810516357
vertex 0.0872065201401711 -8.00651073455811 -0.00533781014382839
vertex 0.117254592478275 -12.2119798660278 0.158141523599625
endloop
endfacet
facet normal -0.999974489212036 -0.00714481761679053 1.13703399968592e-16
outer loop
vertex 0.0872065201401711 -8.00651073455811 -0.00533781014382839
vertex 0.0872065201401711 -8.00651073455811 0.155337810516357
vertex 0.0628815814852715 -4.60204029083252 -0.00306810531765223
endloop
endfacet
facet normal -0.999974429607391 -0.00714481715112925 8.12863638162062e-17
outer loop
vertex 0.0628815814852715 -4.60204029083252 0.153068110346794
vertex 0.0628815814852715 -4.60204029083252 -0.00306810531765223
vertex 0.0872065201401711 -8.00651073455811 0.155337810516357
endloop
endfacet
facet normal -0.999974489212036 -0.00714481761679053 8.1286377051096e-17
outer loop
vertex 0.0628815814852715 -4.60204029083252 0.153068110346794
vertex 0.0470542274415493 -2.38687610626221 0.151591286063194
vertex 0.0628815814852715 -4.60204029083252 -0.00306810531765223
endloop
endfacet
facet normal -0.999974429607391 -0.00714481761679053 -4.52970356919469e-17
outer loop
vertex 0.0470542274415493 -2.38687610626221 -0.00159129127860069
vertex 0.0628815814852715 -4.60204029083252 -0.00306810531765223
vertex 0.0470542274415493 -2.38687610626221 0.151591286063194
endloop
endfacet
facet normal -0.999974489212036 -0.00714481761679053 -4.52970356919469e-17
outer loop
vertex 0.0470542274415493 -2.38687610626221 -0.00159129127860069
vertex 0.0470542274415493 -2.38687610626221 0.151591286063194
vertex 0.0367319658398628 -0.942192316055298 -0.000628144247457385
endloop
endfacet
facet normal -0.999974489212036 -0.00714481761679053 7.99343602660454e-17
outer loop
vertex 0.0367319658398628 -0.942192316055298 0.15062814950943
vertex 0.0367319658398628 -0.942192316055298 -0.000628144247457385
vertex 0.0470542274415493 -2.38687610626221 0.151591286063194
endloop
endfacet
facet normal -0.999974489212036 -0.00714481761679053 7.99343668834903e-17
outer loop
vertex 0.0367319658398628 -0.942192316055298 0.15062814950943
vertex 0.0299999993294477 0 0.150000005960464
vertex 0.0367319658398628 -0.942192316055298 -0.000628144247457385
endloop
endfacet
facet normal -0.999974489212036 -0.00714481761679053 0
outer loop
vertex 0.0299999993294477 0 0
vertex 0.0367319658398628 -0.942192316055298 -0.000628144247457385
vertex 0.0299999993294477 0 0.150000005960464
endloop
endfacet
facet normal 0.707096040248871 0.00552359875291586 0.707096040248871
outer loop
vertex 0.244349747896194 -29.999828338623 0.169998914003372
vertex 0.234569385647774 -28.6309947967529 0.169086396694183
vertex 0.109998658299446 -29.9994964599609 0.304347395896912
endloop
endfacet
facet normal 0.707095980644226 0.00552359782159328 0.707095980644226
outer loop
vertex 0.106348432600498 -28.6306629180908 0.297304749488831
vertex 0.109998658299446 -29.9994964599609 0.304347395896912
vertex 0.234569385647774 -28.6309947967529 0.169086396694183
endloop
endfacet
facet normal 0.707095980644226 0.00552359828725457 0.707095980644226
outer loop
vertex 0.234569385647774 -28.6309947967529 0.169086396694183
vertex 0.214983373880386 -25.8897876739502 0.167259022593498
vertex 0.106348432600498 -28.6306629180908 0.297304749488831
endloop
endfacet
facet normal 0.707095980644226 0.00552359828725457 0.707095980644226
outer loop
vertex 0.099038690328598 -25.8895092010498 0.283201515674591
vertex 0.106348432600498 -28.6306629180908 0.297304749488831
vertex 0.214983373880386 -25.8897876739502 0.167259022593498
endloop
endfacet
facet normal 0.707095980644226 0.00552359828725457 0.707095980644226
outer loop
vertex 0.099038690328598 -25.8895092010498 0.283201515674591
vertex 0.214983373880386 -25.8897876739502 0.167259022593498
vertex 0.0876381769776344 -21.6143169403076 0.261205673217773
endloop
endfacet
facet normal 0.707095980644226 0.00552359828725457 0.707095980644226
outer loop
vertex 0.184436589479446 -21.6145420074463 0.164408996701241
vertex 0.0876381769776344 -21.6143169403076 0.261205673217773
vertex 0.214983373880386 -25.8897876739502 0.167259022593498
endloop
endfacet
facet normal 0.707096040248871 0.00552359828725457 0.707096040248871
outer loop
vertex 0.184436589479446 -21.6145420074463 0.164408996701241
vertex 0.153549283742905 -17.291633605957 0.161527201533318
vertex 0.0876381769776344 -21.6143169403076 0.261205673217773
endloop
endfacet
facet normal 0.707095980644226 0.00552359828725457 0.707095980644226
outer loop
vertex 0.0761105418205261 -17.2914543151855 0.238964527845383
vertex 0.0876381769776344 -21.6143169403076 0.261205673217773
vertex 0.153549283742905 -17.291633605957 0.161527201533318
endloop
endfacet
facet normal 0.707095980644226 0.00552359828725457 0.707095980644226
outer loop
vertex 0.0761105418205261 -17.2914543151855 0.238964527845383
vertex 0.153549283742905 -17.291633605957 0.161527201533318
vertex 0.0645829066634178 -12.9685907363892 0.216723397374153
endloop
endfacet
facet normal 0.707095980644226 0.00552359782159328 0.707095980644226
outer loop
vertex 0.122661955654621 -12.9687242507935 0.158645391464233
vertex 0.0645829066634178 -12.9685907363892 0.216723397374153
vertex 0.153549283742905 -17.291633605957 0.161527201533318
endloop
endfacet
facet normal 0.707095980644226 0.00552359782159328 0.707095980644226
outer loop
vertex 0.122661955654621 -12.9687242507935 0.158645391464233
vertex 0.0917746350169182 -8.64581680297852 0.15576359629631
vertex 0.0645829066634178 -12.9685907363892 0.216723397374153
endloop
endfacet
facet normal 0.707095980644226 0.00552359828725457 0.707095980644226
outer loop
vertex 0.0530552715063095 -8.64572715759277 0.194482266902924
vertex 0.0645829066634178 -12.9685907363892 0.216723397374153
vertex 0.0917746350169182 -8.64581680297852 0.15576359629631
endloop
endfacet
facet normal 0.707095980644226 0.00552359828725457 0.707095980644226
outer loop
vertex 0.0530552715063095 -8.64572715759277 0.194482266902924
vertex 0.0917746350169182 -8.64581680297852 0.15576359629631
vertex 0.0415276363492012 -4.32286357879639 0.172241136431694
endloop
endfacet
facet normal 0.707095980644226 0.00552359828725457 0.707095980644226
outer loop
vertex 0.0608873181045055 -4.32290840148926 0.152881801128387
vertex 0.0415276363492012 -4.32286357879639 0.172241136431694
vertex 0.0917746350169182 -8.64581680297852 0.15576359629631
endloop
endfacet
facet normal 0.707095980644226 0.00552359828725457 0.707095980644226
outer loop
vertex 0.0415276363492012 -4.32286357879639 0.172241136431694
vertex 0.0608873181045055 -4.32290840148926 0.152881801128387
vertex 0.0299999993294477 0 0.150000005960464
endloop
endfacet
facet normal 0.707097768783569 0.00505221355706453 -0.707097768783569
outer loop
vertex 0.275231122970581 -34.3220596313477 -0.0199999995529652
vertex 0.255872309207916 -34.3221969604492 -0.0393597818911076
vertex 0.244344532489777 -29.9992351531982 -0.0199999995529652
endloop
endfacet
facet normal 0.707097768783569 0.00505221355706453 -0.707097768783569
outer loop
vertex 0.306117713451385 -38.6448860168457 -0.0199999995529652
vertex 0.267400085926056 -38.6451568603516 -0.05871956422925
vertex 0.275231122970581 -34.3220596313477 -0.0199999995529652
endloop
endfacet
facet normal 0.707097768783569 0.00505221355706453 -0.707097768783569
outer loop
vertex 0.255872309207916 -34.3221969604492 -0.0393597818911076
vertex 0.275231122970581 -34.3220596313477 -0.0199999995529652
vertex 0.267400085926056 -38.6451568603516 -0.05871956422925
endloop
endfacet
facet normal 0.707097768783569 0.00505221355706453 -0.707097768783569
outer loop
vertex 0.306117713451385 -38.6448860168457 -0.0199999995529652
vertex 0.33700430393219 -42.9677124023438 -0.0199999995529652
vertex 0.267400085926056 -38.6451568603516 -0.05871956422925
endloop
endfacet
facet normal 0.707097709178925 0.00505221309140325 -0.707097709178925
outer loop
vertex 0.278927862644196 -42.9681167602539 -0.0780793428421021
vertex 0.267400085926056 -38.6451568603516 -0.05871956422925
vertex 0.33700430393219 -42.9677124023438 -0.0199999995529652
endloop
endfacet
facet normal 0.707097709178925 0.00505221309140325 -0.707097709178925
outer loop
vertex 0.278927862644196 -42.9681167602539 -0.0780793428421021
vertex 0.33700430393219 -42.9677124023438 -0.0199999995529652
vertex 0.290455609560013 -47.2910766601563 -0.0974391251802444
endloop
endfacet
facet normal 0.707097768783569 0.00505221355706453 -0.707097768783569
outer loop
vertex 0.367890894412994 -47.2905387878418 -0.0199999995529652
vertex 0.290455609560013 -47.2910766601563 -0.0974391251802444
vertex 0.33700430393219 -42.9677124023438 -0.0199999995529652
endloop
endfacet
facet normal 0.707097768783569 0.00505221355706453 -0.707097768783569
outer loop
vertex 0.367890894412994 -47.2905387878418 -0.0199999995529652
vertex 0.398777484893799 -51.6133613586426 -0.0199999995529652
vertex 0.290455609560013 -47.2910766601563 -0.0974391251802444
endloop
endfacet
facet normal 0.707097768783569 0.00505221355706453 -0.707097768783569
outer loop
vertex 0.301983386278152 -51.6140365600586 -0.116798907518387
vertex 0.290455609560013 -47.2910766601563 -0.0974391251802444
vertex 0.398777484893799 -51.6133613586426 -0.0199999995529652
endloop
endfacet
facet normal 0.707097768783569 0.00505221355706453 -0.707097768783569
outer loop
vertex 0.429323464632034 -55.8885154724121 -0.0199999995529652
vertex 0.313384085893631 -55.8893394470215 -0.135945245623589
vertex 0.398777484893799 -51.6133613586426 -0.0199999995529652
endloop
endfacet
facet normal 0.707097709178925 0.00505221309140325 -0.707097709178925
outer loop
vertex 0.301983386278152 -51.6140365600586 -0.116798907518387
vertex 0.398777484893799 -51.6133613586426 -0.0199999995529652
vertex 0.313384085893631 -55.8893394470215 -0.135945245623589
endloop
endfacet
facet normal 0.707097768783569 0.00505221355706453 -0.707097768783569
outer loop
vertex 0.429323464632034 -55.8885154724121 -0.0199999995529652
vertex 0.44890883564949 -58.6296463012695 -0.0199999995529652
vertex 0.313384085893631 -55.8893394470215 -0.135945245623589
endloop
endfacet
facet normal 0.707097768783569 0.00505221309140325 -0.707097768783569
outer loop
vertex 0.320693969726563 -58.6305770874023 -0.148221507668495
vertex 0.313384085893631 -55.8893394470215 -0.135945245623589
vertex 0.44890883564949 -58.6296463012695 -0.0199999995529652
endloop
endfacet
facet normal 0.707097768783569 0.00505221355706453 -0.707097768783569
outer loop
vertex 0.44890883564949 -58.6296463012695 -0.0199999995529652
vertex 0.45868906378746 -59.9984703063965 -0.0199999995529652
vertex 0.320693969726563 -58.6305770874023 -0.148221507668495
endloop
endfacet
facet normal 0.707097709178925 0.00505221309140325 -0.707097709178925
outer loop
vertex 0.32434418797493 -59.9994277954102 -0.154351711273193
vertex 0.320693969726563 -58.6305770874023 -0.148221507668495
vertex 0.45868906378746 -59.9984703063965 -0.0199999995529652
endloop
endfacet
facet normal 0.220231831073761 0.671945512294769 -0.707097768783569
outer loop
vertex 53.1863288879395 -52.5960884094238 -0.234344199299812
vertex 53.1426658630371 -52.7231483459473 -0.368689060211182
vertex 51.8866882324219 -52.1662864685059 -0.230693966150284
endloop
endfacet
facet normal 0.2202318161726 0.671945452690125 -0.707097768783569
outer loop
vertex 51.8450050354004 -52.2875442504883 -0.358908832073212
vertex 51.8866882324219 -52.1662864685059 -0.230693966150284
vertex 53.1426658630371 -52.7231483459473 -0.368689060211182
endloop
endfacet
facet normal 0.220231801271439 0.671945452690125 -0.707097768783569
outer loop
vertex 51.8866882324219 -52.1662864685059 -0.230693966150284
vertex 51.8450050354004 -52.2875442504883 -0.358908832073212
vertex 49.2840538024902 -51.3055725097656 -0.223384082317352
endloop
endfacet
facet normal 0.2202318161726 0.671945452690125 -0.707097768783569
outer loop
vertex 49.2463760375977 -51.4152297973633 -0.339323461055756
vertex 49.2840538024902 -51.3055725097656 -0.223384082317352
vertex 51.8450050354004 -52.2875442504883 -0.358908832073212
endloop
endfacet
facet normal 0.2202318161726 0.671945512294769 -0.707097768783569
outer loop
vertex 49.2463760375977 -51.4152297973633 -0.339323461055756
vertex 45.1934776306152 -50.0547370910645 -0.30877748131752
vertex 49.2840538024902 -51.3055725097656 -0.223384082317352
endloop
endfacet
facet normal 0.2202318161726 0.671945512294769 -0.707097768783569
outer loop
vertex 45.2249221801758 -49.9631843566895 -0.211983397603035
vertex 49.2840538024902 -51.3055725097656 -0.223384082317352
vertex 45.1934776306152 -50.0547370910645 -0.30877748131752
endloop
endfacet
facet normal 0.2202318161726 0.671945512294769 -0.707097768783569
outer loop
vertex 45.2249221801758 -49.9631843566895 -0.211983397603035
vertex 45.1934776306152 -50.0547370910645 -0.30877748131752
vertex 41.1205406188965 -48.6058311462402 -0.200455620884895
endloop
endfacet
facet normal 0.2202318161726 0.671945452690125 -0.707097768783569
outer loop
vertex 41.0953826904297 -48.6790733337402 -0.277890890836716
vertex 41.1205406188965 -48.6058311462402 -0.200455620884895
vertex 45.1934776306152 -50.0547370910645 -0.30877748131752
endloop
endfacet
facet normal 0.2202318161726 0.671945452690125 -0.707097768783569
outer loop
vertex 41.0953826904297 -48.6790733337402 -0.277890890836716
vertex 36.9972877502441 -47.303409576416 -0.247004300355911
vertex 41.1205406188965 -48.6058311462402 -0.200455620884895
endloop
endfacet
facet normal 0.2202318161726 0.671945452690125 -0.707097768783569
outer loop
vertex 37.0161552429199 -47.2484817504883 -0.188927844166756
vertex 41.1205406188965 -48.6058311462402 -0.200455620884895
vertex 36.9972877502441 -47.303409576416 -0.247004300355911
endloop
endfacet
facet normal 0.2202318161726 0.671945452690125 -0.707097768783569
outer loop
vertex 37.0161552429199 -47.2484817504883 -0.188927844166756
vertex 36.9972877502441 -47.303409576416 -0.247004300355911
vertex 32.9117736816406 -45.8911285400391 -0.177400082349777
endloop
endfacet
facet normal 0.2202318161726 0.671945452690125 -0.707097768783569
outer loop
vertex 32.8991966247559 -45.9277496337891 -0.216117709875107
vertex 32.9117736816406 -45.8911285400391 -0.177400082349777
vertex 36.9972877502441 -47.303409576416 -0.247004300355911
endloop
endfacet
facet normal 0.2202318161726 0.671945452690125 -0.707097768783569
outer loop
vertex 32.8991966247559 -45.9277496337891 -0.216117709875107
vertex 28.8011016845703 -44.5520858764648 -0.185231119394302
vertex 32.9117736816406 -45.8911285400391 -0.177400082349777
endloop
endfacet
facet normal 0.2202318161726 0.671945452690125 -0.707097768783569
outer loop
vertex 28.8073902130127 -44.5337753295898 -0.165872305631638
vertex 32.9117736816406 -45.8911285400391 -0.177400082349777
vertex 28.8011016845703 -44.5520858764648 -0.185231119394302
endloop
endfacet
facet normal 0.2202318161726 0.671945452690125 -0.707097768783569
outer loop
vertex 28.8011016845703 -44.5520858764648 -0.185231119394302
vertex 24.7030067443848 -43.1764221191406 -0.154344528913498
vertex 28.8073902130127 -44.5337753295898 -0.165872305631638
endloop
endfacet
endsolid COMSOL mesh mesh1
