solid COMSOL mesh mesh1
facet normal -0.0108538288623095 0.999941110610962 0
outer loop
vertex 0 0 0
vertex -0.966322958469391 -0.0104889208450913 -0.000552217068616301
vertex 0 0 0.150000005960464
endloop
endfacet
facet normal -0.0108538279309869 0.999941110610962 -1.56943376443462e-17
outer loop
vertex -0.966322958469391 -0.0104889208450913 0.150552213191986
vertex 0 0 0.150000005960464
vertex -0.966322958469391 -0.0104889208450913 -0.000552217068616301
endloop
endfacet
facet normal -0.0108538279309869 0.999941110610962 -1.56943376443462e-17
outer loop
vertex -0.966322958469391 -0.0104889208450913 0.150552213191986
vertex -0.966322958469391 -0.0104889208450913 -0.000552217068616301
vertex -2.51968765258789 -0.0273498669266701 0.151439905166626
endloop
endfacet
facet normal -0.0108538279309869 0.999941110610962 4.67883993229881e-17
outer loop
vertex -2.51968765258789 -0.0273498669266701 -0.00143990630749613
vertex -2.51968765258789 -0.0273498669266701 0.151439905166626
vertex -0.966322958469391 -0.0104889208450913 -0.000552217068616301
endloop
endfacet
facet normal -0.0108538279309869 0.999941051006317 -2.4838018605287e-17
outer loop
vertex -5.01672220230103 -0.0544538460671902 0.152866870164871
vertex -2.51968765258789 -0.0273498669266701 0.151439905166626
vertex -5.01672220230103 -0.0544538460671902 -0.00286686723120511
endloop
endfacet
facet normal -0.0108538279309869 0.999941110610962 4.67884026317106e-17
outer loop
vertex -2.51968765258789 -0.0273498669266701 -0.00143990630749613
vertex -5.01672220230103 -0.0544538460671902 -0.00286686723120511
vertex -2.51968765258789 -0.0273498669266701 0.151439905166626
endloop
endfacet
facet normal -0.0108538279309869 0.999941110610962 -2.4838018605287e-17
outer loop
vertex -5.01672220230103 -0.0544538460671902 0.152866870164871
vertex -5.01672220230103 -0.0544538460671902 -0.00286686723120511
vertex -9.03181934356689 -0.0980355888605118 0.155161336064339
endloop
endfacet
facet normal -0.0108538279309869 0.999941110610962 7.66046936027235e-17
outer loop
vertex -9.03181934356689 -0.0980355888605118 -0.00516134360805154
vertex -9.03181934356689 -0.0980355888605118 0.155161336064339
vertex -5.01672220230103 -0.0544538460671902 -0.00286686723120511
endloop
endfacet
facet normal -0.0108538279309869 0.999941110610962 7.66046869852786e-17
outer loop
vertex -9.03181934356689 -0.0980355888605118 0.155161336064339
vertex -9.03181934356689 -0.0980355888605118 -0.00516134360805154
vertex -14.1303796768188 -0.153377741575241 0.158074975013733
endloop
endfacet
facet normal -0.0108538279309869 0.999941110610962 7.39179845033716e-17
outer loop
vertex -14.1303796768188 -0.153377741575241 -0.00807497836649418
vertex -14.1303796768188 -0.153377741575241 0.158074975013733
vertex -9.03181934356689 -0.0980355888605118 -0.00516134360805154
endloop
endfacet
facet normal -0.0108538269996643 0.999941051006317 1.69957425564371e-16
outer loop
vertex -19.2289390563965 -0.208719909191132 0.160988613963127
vertex -14.1303796768188 -0.153377741575241 0.158074975013733
vertex -19.2289390563965 -0.208719909191132 -0.0109886126592755
endloop
endfacet
facet normal -0.0108538279309869 0.999941110610962 7.39179845033716e-17
outer loop
vertex -14.1303796768188 -0.153377741575241 -0.00807497836649418
vertex -19.2289390563965 -0.208719909191132 -0.0109886126592755
vertex -14.1303796768188 -0.153377741575241 0.158074975013733
endloop
endfacet
facet normal -0.0108538269996643 0.999941051006317 1.69957425564371e-16
outer loop
vertex -19.2289390563965 -0.208719909191132 0.160988613963127
vertex -19.2289390563965 -0.208719909191132 -0.0109886126592755
vertex -24.3275012969971 -0.2640620470047 0.163902252912521
endloop
endfacet
facet normal -0.0108538288623095 0.999941170215607 -2.69353592020891e-16
outer loop
vertex -24.3275012969971 -0.2640620470047 -0.0139022478833795
vertex -24.3275012969971 -0.2640620470047 0.163902252912521
vertex -19.2289390563965 -0.208719909191132 -0.0109886126592755
endloop
endfacet
facet normal -0.0108538279309869 0.999941110610962 -2.69353618490671e-16
outer loop
vertex -24.3275012969971 -0.2640620470047 0.163902252912521
vertex -24.3275012969971 -0.2640620470047 -0.0139022478833795
vertex -28.9154853820801 -0.313862204551697 0.166524112224579
endloop
endfacet
facet normal -0.0108538279309869 0.999941110610962 6.73577910892479e-16
outer loop
vertex -28.9154853820801 -0.313862204551697 -0.0165241081267595
vertex -28.9154853820801 -0.313862204551697 0.166524112224579
vertex -24.3275012969971 -0.2640620470047 -0.0139022478833795
endloop
endfacet
facet normal -0.0108538279309869 0.999941051006317 -1.81782323145397e-16
outer loop
vertex -31.8984241485596 -0.346240401268005 0.16822874546051
vertex -28.9154853820801 -0.313862204551697 0.166524112224579
vertex -31.8984241485596 -0.346240401268005 -0.0182287450879812
endloop
endfacet
facet normal -0.0108538279309869 0.999941051006317 6.7357785795292e-16
outer loop
vertex -28.9154853820801 -0.313862204551697 -0.0165241081267595
vertex -31.8984241485596 -0.346240401268005 -0.0182287450879812
vertex -28.9154853820801 -0.313862204551697 0.166524112224579
endloop
endfacet
facet normal -0.0108538279309869 0.999941051006317 -2.2916749026695e-16
outer loop
vertex -33.7937126159668 -0.366812765598297 0.169311836361885
vertex -31.8984241485596 -0.346240401268005 0.16822874546051
vertex -33.7937126159668 -0.366812765598297 -0.0193118304014206
endloop
endfacet
facet normal -0.0108538269996643 0.999941051006317 -1.81782323145397e-16
outer loop
vertex -31.8984241485596 -0.346240401268005 -0.0182287450879812
vertex -33.7937126159668 -0.366812765598297 -0.0193118304014206
vertex -31.8984241485596 -0.346240401268005 0.16822874546051
endloop
endfacet
facet normal -0.0108538279309869 0.999941110610962 -2.2916749026695e-16
outer loop
vertex -33.7937126159668 -0.366812765598297 0.169311836361885
vertex -33.7937126159668 -0.366812765598297 -0.0193118304014206
vertex -34.9979400634766 -0.379883974790573 0.170000001788139
endloop
endfacet
facet normal -0.0108538279309869 0.999941051006317 0
outer loop
vertex -34.9979400634766 -0.379883974790573 -0.0199999995529652
vertex -34.9979400634766 -0.379883974790573 0.170000001788139
vertex -33.7937126159668 -0.366812765598297 -0.0193118304014206
endloop
endfacet
facet normal 0.000523601833265275 0.00440875953063369 0.999990165233612
outer loop
vertex -31.3595523834229 -3.98720216751099 0.183998867869377
vertex -31.3399715423584 -3.96744894981384 0.183901533484459
vertex -34.9979400634766 -0.379883974790573 0.170000001788139
endloop
endfacet
facet normal 0.000523601833265275 0.00440875953063369 0.999990165233612
outer loop
vertex -27.7211666107178 -7.5945200920105 0.197997748851776
vertex -27.6820049285889 -7.55501413345337 0.197803065180779
vertex -31.3595523834229 -3.98720216751099 0.183998867869377
endloop
endfacet
facet normal 0.000523601833265275 0.00440875953063369 0.999990165233612
outer loop
vertex -31.3399715423584 -3.96744894981384 0.183901533484459
vertex -31.3595523834229 -3.98720216751099 0.183998867869377
vertex -27.6820049285889 -7.55501413345337 0.197803065180779
endloop
endfacet
facet normal 0.000523601833265275 0.00440875953063369 0.999990165233612
outer loop
vertex -27.7211666107178 -7.5945200920105 0.197997748851776
vertex -24.0827808380127 -11.2018384933472 0.211996614933014
vertex -27.6820049285889 -7.55501413345337 0.197803065180779
endloop
endfacet
facet normal 0.000523601833265275 0.00440875953063369 0.999990105628967
outer loop
vertex -24.0240383148193 -11.1425790786743 0.211704596877098
vertex -27.6820049285889 -7.55501413345337 0.197803065180779
vertex -24.0827808380127 -11.2018384933472 0.211996614933014
endloop
endfacet
facet normal 0.000523601833265275 0.00440875953063369 0.999990165233612
outer loop
vertex -20.444393157959 -14.8091564178467 0.225995481014252
vertex -20.3660717010498 -14.7301435470581 0.225606128573418
vertex -24.0827808380127 -11.2018384933472 0.211996614933014
endloop
endfacet
facet normal 0.000523601833265275 0.00440875953063369 0.999990105628967
outer loop
vertex -24.0240383148193 -11.1425790786743 0.211704596877098
vertex -24.0827808380127 -11.2018384933472 0.211996614933014
vertex -20.3660717010498 -14.7301435470581 0.225606128573418
endloop
endfacet
facet normal 0.000523601833265275 0.00440875953063369 0.999990165233612
outer loop
vertex -20.444393157959 -14.8091564178467 0.225995481014252
vertex -16.8060073852539 -18.4164752960205 0.239994361996651
vertex -20.3660717010498 -14.7301435470581 0.225606128573418
endloop
endfacet
facet normal 0.000523601833265275 0.00440875953063369 0.999990105628967
outer loop
vertex -16.7081050872803 -18.3177089691162 0.239507660269737
vertex -20.3660717010498 -14.7301435470581 0.225606128573418
vertex -16.8060073852539 -18.4164752960205 0.239994361996651
endloop
endfacet
facet normal 0.000523601891472936 0.00440875999629498 0.999990165233612
outer loop
vertex -13.255521774292 -21.9366436004639 0.253655016422272
vertex -13.1385011672974 -21.8186130523682 0.253073364496231
vertex -16.8060073852539 -18.4164752960205 0.239994361996651
endloop
endfacet
facet normal 0.000523601833265275 0.00440875953063369 0.999990165233612
outer loop
vertex -16.7081050872803 -18.3177089691162 0.239507660269737
vertex -16.8060073852539 -18.4164752960205 0.239994361996651
vertex -13.1385011672974 -21.8186130523682 0.253073364496231
endloop
endfacet
facet normal 0.000523601833265275 0.00440875953063369 0.999990165233612
outer loop
vertex -13.255521774292 -21.9366436004639 0.253655016422272
vertex -11.1461610794067 -24.0279922485352 0.261770904064178
vertex -13.1385011672974 -21.8186130523682 0.253073364496231
endloop
endfacet
facet normal 0.000523601833265275 0.00440875953063369 0.999990105628967
outer loop
vertex -11.0177764892578 -23.8985214233398 0.26113286614418
vertex -13.1385011672974 -21.8186130523682 0.253073364496231
vertex -11.1461610794067 -24.0279922485352 0.261770904064178
endloop
endfacet
facet normal 0.000523601891472936 0.00440875953063369 0.999990165233612
outer loop
vertex -11.1461610794067 -24.0279922485352 0.261770904064178
vertex -10.1434049606323 -25.0221862792969 0.265629053115845
vertex -11.0177764892578 -23.8985214233398 0.26113286614418
endloop
endfacet
facet normal 0.000523601891472936 0.00440875999629498 0.999990105628967
outer loop
vertex -10.0096321105957 -24.8872623443604 0.264964163303375
vertex -11.0177764892578 -23.8985214233398 0.26113286614418
vertex -10.1434049606323 -25.0221862792969 0.265629053115845
endloop
endfacet
facet normal -0.707113564014435 0.00392651418223977 0.707089006900787
outer loop
vertex -3.62285804748535 -0.0115112727507949 -3.62291979789734
vertex -3.62288904190063 -0.0393245294690132 -3.62279629707336
vertex 0 0 0
endloop
endfacet
facet normal -0.707113564014435 0.00392651418223977 0.707089006900787
outer loop
vertex -7.2457160949707 -0.0230225455015898 -7.24583959579468
vertex -7.24577808380127 -0.0786490589380264 -7.24559259414673
vertex -3.62285804748535 -0.0115112727507949 -3.62291979789734
endloop
endfacet
facet normal -0.707113564014435 0.00392651418223977 0.707089006900787
outer loop
vertex -3.62288904190063 -0.0393245294690132 -3.62279629707336
vertex -3.62285804748535 -0.0115112727507949 -3.62291979789734
vertex -7.24577808380127 -0.0786490589380264 -7.24559259414673
endloop
endfacet
facet normal -0.707113564014435 0.00392651418223977 0.707089006900787
outer loop
vertex -7.2457160949707 -0.0230225455015898 -7.24583959579468
vertex -10.8685741424561 -0.0345338173210621 -10.8687591552734
vertex -7.24577808380127 -0.0786490589380264 -7.24559259414673
endloop
endfacet
facet normal -0.70711362361908 0.00392651464790106 0.707089066505432
outer loop
vertex -10.8686666488647 -0.11797359585762 -10.8683881759644
vertex -7.24577808380127 -0.0786490589380264 -7.24559259414673
vertex -10.8685741424561 -0.0345338173210621 -10.8687591552734
endloop
endfacet
facet normal -0.707113564014435 0.00392651418223977 0.707089006900787
outer loop
vertex -14.4914321899414 -0.0460450910031796 -14.4916791915894
vertex -14.4915561676025 -0.157298117876053 -14.4911851882935
vertex -10.8685741424561 -0.0345338173210621 -10.8687591552734
endloop
endfacet
facet normal -0.70711362361908 0.00392651464790106 0.707089066505432
outer loop
vertex -10.8686666488647 -0.11797359585762 -10.8683881759644
vertex -10.8685741424561 -0.0345338173210621 -10.8687591552734
vertex -14.4915561676025 -0.157298117876053 -14.4911851882935
endloop
endfacet
facet normal -0.707113564014435 0.00392651418223977 0.707089006900787
outer loop
vertex -14.4914321899414 -0.0460450910031796 -14.4916791915894
vertex -18.1142902374268 -0.057556364685297 -18.1145992279053
vertex -14.4915561676025 -0.157298117876053 -14.4911851882935
endloop
endfacet
facet normal -0.707113564014435 0.00392651464790106 0.707089066505432
outer loop
vertex -18.114444732666 -0.196622654795647 -18.1139812469482
vertex -14.4915561676025 -0.157298117876053 -14.4911851882935
vertex -18.1142902374268 -0.057556364685297 -18.1145992279053
endloop
endfacet
facet normal -0.707113564014435 0.00392651464790106 0.707089126110077
outer loop
vertex -21.6496257781982 -0.068789541721344 -21.6499938964844
vertex -21.6498203277588 -0.234997272491455 -21.6492652893066
vertex -18.1142902374268 -0.057556364685297 -18.1145992279053
endloop
endfacet
facet normal -0.70711362361908 0.00392651464790106 0.707089066505432
outer loop
vertex -18.114444732666 -0.196622654795647 -18.1139812469482
vertex -18.1142902374268 -0.057556364685297 -18.1145992279053
vertex -21.6498203277588 -0.234997272491455 -21.6492652893066
endloop
endfacet
facet normal -0.707113564014435 0.00392651464790106 0.707089066505432
outer loop
vertex -21.6496257781982 -0.068789541721344 -21.6499938964844
vertex -23.7499866485596 -0.0754632279276848 -23.7503910064697
vertex -21.6498203277588 -0.234997272491455 -21.6492652893066
endloop
endfacet
facet normal -0.707113564014435 0.00392651464790106 0.707089006900787
outer loop
vertex -23.7502117156982 -0.25779590010643 -23.7496032714844
vertex -21.6498203277588 -0.234997272491455 -21.6492652893066
vertex -23.7499866485596 -0.0754632279276848 -23.7503910064697
endloop
endfacet
facet normal -0.70711362361908 0.00392651511356235 0.707089126110077
outer loop
vertex -23.7499866485596 -0.0754632279276848 -23.7503910064697
vertex -24.7484645843506 -0.0786357969045639 -24.7488861083984
vertex -23.7502117156982 -0.25779590010643 -23.7496032714844
endloop
endfacet
facet normal -0.70711362361908 0.00392651464790106 0.707089066505432
outer loop
vertex -24.7486896514893 -0.268633842468262 -24.7480564117432
vertex -23.7502117156982 -0.25779590010643 -23.7496032714844
vertex -24.7484645843506 -0.0786357969045639 -24.7488861083984
endloop
endfacet
facet normal 0.707094252109528 0.00534060364589095 -0.707099199295044
outer loop
vertex 0 0 0
vertex 0.000209438207093626 -0.0299992635846138 -1.71427582245087e-05
vertex -0.14193195104599 -0.00045097473775968 -0.141934365034103
endloop
endfacet
facet normal 0.707094252109528 0.00534060318022966 -0.707099199295044
outer loop
vertex -0.141716107726097 -0.0313678123056889 -0.141952037811279
vertex -0.14193195104599 -0.00045097473775968 -0.141934365034103
vertex 0.000209438207093626 -0.0299992635846138 -1.71427582245087e-05
endloop
endfacet
facet normal 0.707094192504883 0.00534060364589095 -0.707099199295044
outer loop
vertex -0.393988281488419 -0.0338003970682621 -0.394240826368332
vertex -0.394215524196625 -0.0012525807833299 -0.394222229719162
vertex -0.141716107726097 -0.0313678123056889 -0.141952037811279
endloop
endfacet
facet normal 0.707094252109528 0.00534060364589095 -0.707099139690399
outer loop
vertex -0.14193195104599 -0.00045097473775968 -0.141934365034103
vertex -0.141716107726097 -0.0313678123056889 -0.141952037811279
vertex -0.394215524196625 -0.0012525807833299 -0.394222229719162
endloop
endfacet
facet normal 0.707094252109528 0.00534060364589095 -0.707099199295044
outer loop
vertex -0.393988281488419 -0.0338003970682621 -0.394240826368332
vertex -0.842401266098022 -0.0381243117153645 -0.8426833152771
vertex -0.394215524196625 -0.0012525807833299 -0.394222229719162
endloop
endfacet
facet normal 0.707094192504883 0.00534060318022966 -0.707099139690399
outer loop
vertex -0.842648684978485 -0.00267743272706866 -0.842663049697876
vertex -0.394215524196625 -0.0012525807833299 -0.394222229719162
vertex -0.842401266098022 -0.0381243117153645 -0.8426833152771
endloop
endfacet
facet normal 0.707094252109528 0.00534060364589095 -0.707099199295044
outer loop
vertex -0.842401266098022 -0.0381243117153645 -0.8426833152771
vertex -1.63945376873016 -0.0458100587129593 -1.63978826999664
vertex -0.842648684978485 -0.00267743272706866 -0.842663049697876
endloop
endfacet
facet normal 0.707094192504883 0.00534060318022966 -0.707099080085754
outer loop
vertex -1.63973712921143 -0.00521010253578424 -1.63976502418518
vertex -0.842648684978485 -0.00267743272706866 -0.842663049697876
vertex -1.63945376873016 -0.0458100587129593 -1.63978826999664
endloop
endfacet
facet normal 0.707094192504883 0.00534060318022966 -0.707099139690399
outer loop
vertex -3.0562117099762 -0.0594714432954788 -3.05663967132568
vertex -3.05655932426453 -0.00971191376447678 -3.05661129951477
vertex -1.63945376873016 -0.0458100587129593 -1.63978826999664
endloop
endfacet
facet normal 0.707094252109528 0.00534060364589095 -0.707099139690399
outer loop
vertex -1.63973712921143 -0.00521010253578424 -1.63976502418518
vertex -1.63945376873016 -0.0458100587129593 -1.63978826999664
vertex -3.05655932426453 -0.00971191376447678 -3.05661129951477
endloop
endfacet
facet normal 0.707094252109528 0.00534060318022966 -0.707099139690399
outer loop
vertex -3.0562117099762 -0.0594714432954788 -3.05663967132568
vertex -5.57449436187744 -0.0837545096874237 -5.5750880241394
vertex -3.05655932426453 -0.00971191376447678 -3.05661129951477
endloop
endfacet
facet normal 0.707094252109528 0.00534060411155224 -0.707099199295044
outer loop
vertex -5.57495546340942 -0.0177138689905405 -5.57505035400391
vertex -3.05655932426453 -0.00971191376447678 -3.05661129951477
vertex -5.57449436187744 -0.0837545096874237 -5.5750880241394
endloop
endfacet
facet normal 0.707094252109528 0.00534060364589095 -0.707099139690399
outer loop
vertex -5.57495546340942 -0.0177138689905405 -5.57505035400391
vertex -5.57449436187744 -0.0837545096874237 -5.5750880241394
vertex -9.25904846191406 -0.0294197089970112 -9.25920581817627
endloop
endfacet
facet normal 0.707094252109528 0.00534060318022966 -0.707099199295044
outer loop
vertex -9.25842094421387 -0.119277536869049 -9.25925731658936
vertex -9.25904846191406 -0.0294197089970112 -9.25920581817627
vertex -5.57449436187744 -0.0837545096874237 -5.5750880241394
endloop
endfacet
facet normal 0.707094192504883 0.00534060318022966 -0.707099139690399
outer loop
vertex -12.9858512878418 -0.155220061540604 -12.9869327545166
vertex -12.9866466522217 -0.041263785213232 -12.9868679046631
vertex -9.25842094421387 -0.119277536869049 -9.25925731658936
endloop
endfacet
facet normal 0.707094252109528 0.00534060364589095 -0.707099139690399
outer loop
vertex -9.25904846191406 -0.0294197089970112 -9.25920581817627
vertex -9.25842094421387 -0.119277536869049 -9.25925731658936
vertex -12.9866466522217 -0.041263785213232 -12.9868679046631
endloop
endfacet
facet normal 0.707094192504883 0.00534060318022966 -0.707099139690399
outer loop
vertex -12.9866466522217 -0.041263785213232 -12.9868679046631
vertex -12.9858512878418 -0.155220061540604 -12.9869327545166
vertex -16.7142467498779 -0.0531078614294529 -16.7145309448242
endloop
endfacet
facet normal 0.707094252109528 0.00534060411155224 -0.707099258899689
outer loop
vertex -16.7132816314697 -0.191162586212158 -16.7146091461182
vertex -16.7142467498779 -0.0531078614294529 -16.7145309448242
vertex -12.9858512878418 -0.155220061540604 -12.9869327545166
endloop
endfacet
facet normal 0.707094252109528 0.00534060318022966 -0.707099199295044
outer loop
vertex -16.7132816314697 -0.191162586212158 -16.7146091461182
vertex -20.2024078369141 -0.224807217717171 -20.2039642333984
vertex -16.7142467498779 -0.0531078614294529 -16.7145309448242
endloop
endfacet
facet normal 0.707094252109528 0.00534060318022966 -0.707099139690399
outer loop
vertex -20.2035293579102 -0.0641947165131569 -20.2038726806641
vertex -16.7142467498779 -0.0531078614294529 -16.7145309448242
vertex -20.2024078369141 -0.224807217717171 -20.2039642333984
endloop
endfacet
facet normal 0.707094252109528 0.00534060318022966 -0.707099139690399
outer loop
vertex -22.4804382324219 -0.246773585677147 -22.4821453094482
vertex -22.4816627502441 -0.0714332535862923 -22.4820442199707
vertex -20.2024078369141 -0.224807217717171 -20.2039642333984
endloop
endfacet
facet normal 0.707094192504883 0.00534060318022966 -0.707099139690399
outer loop
vertex -20.2035293579102 -0.0641947165131569 -20.2038726806641
vertex -20.2024078369141 -0.224807217717171 -20.2039642333984
vertex -22.4816627502441 -0.0714332535862923 -22.4820442199707
endloop
endfacet
facet normal 0.707094192504883 0.00534060318022966 -0.707099139690399
outer loop
vertex -22.4804382324219 -0.246773585677147 -22.4821453094482
vertex -23.8832950592041 -0.260300934314728 -23.8850936889648
vertex -22.4816627502441 -0.0714332535862923 -22.4820442199707
endloop
endfacet
facet normal 0.707094252109528 0.00534060364589095 -0.707099199295044
outer loop
vertex -23.8845825195313 -0.0758908987045288 -23.88498878479
vertex -22.4816627502441 -0.0714332535862923 -22.4820442199707
vertex -23.8832950592041 -0.260300934314728 -23.8850936889648
endloop
endfacet
facet normal 0.707094252109528 0.00534060364589095 -0.707099199295044
outer loop
vertex -23.8832950592041 -0.260300934314728 -23.8850936889648
vertex -24.7472019195557 -0.268631339073181 -24.7490577697754
vertex -23.8845825195313 -0.0758908987045288 -23.88498878479
endloop
endfacet
facet normal 0.707094192504883 0.00534060364589095 -0.707099139690399
outer loop
vertex -24.7485294342041 -0.07863599807024 -24.748950958252
vertex -23.8845825195313 -0.0758908987045288 -23.88498878479
vertex -24.7472019195557 -0.268631339073181 -24.7490577697754
endloop
endfacet
facet normal -0.324566066265106 -0.945863008499146 0
outer loop
vertex -4.42250490188599 -39.2373962402344 0.0599999986588955
vertex -4.23264741897583 -39.3025436401367 0.0595412030816078
vertex -4.42250490188599 -39.2373962402344 0.0900000035762787
endloop
endfacet
facet normal -0.324566066265106 -0.945863008499146 -4.53400961523617e-13
outer loop
vertex -4.23264741897583 -39.3025436401367 0.0904587954282761
vertex -4.42250490188599 -39.2373962402344 0.0900000035762787
vertex -4.23264741897583 -39.3025436401367 0.0595412030816078
endloop
endfacet
facet normal -0.324566066265106 -0.945863008499146 -4.53400961523617e-13
outer loop
vertex -4.23264741897583 -39.3025436401367 0.0595412030816078
vertex -3.89517688751221 -39.418342590332 0.0587256923317909
vertex -4.23264741897583 -39.3025436401367 0.0904587954282761
endloop
endfacet
facet normal -0.324566036462784 -0.945863008499146 -4.48394251416351e-13
outer loop
vertex -3.89517688751221 -39.418342590332 0.091274306178093
vertex -4.23264741897583 -39.3025436401367 0.0904587954282761
vertex -3.89517688751221 -39.418342590332 0.0587256923317909
endloop
endfacet
facet normal -0.324566036462784 -0.945863008499146 1.40802313927137e-13
outer loop
vertex -3.29532432556152 -39.6241798400879 0.0572761259973049
vertex -3.29532432556152 -39.6241798400879 0.0927238762378693
vertex -3.89517688751221 -39.418342590332 0.0587256923317909
endloop
endfacet
facet normal -0.324566066265106 -0.945863008499146 -4.48394224311296e-13
outer loop
vertex -3.89517688751221 -39.418342590332 0.091274306178093
vertex -3.89517688751221 -39.418342590332 0.0587256923317909
vertex -3.29532432556152 -39.6241798400879 0.0927238762378693
endloop
endfacet
facet normal -0.324566036462784 -0.945863008499146 -2.11683020287859e-13
outer loop
vertex -2.22908806800842 -39.9900512695313 0.0546995252370834
vertex -2.22908806800842 -39.9900512695313 0.0953004732728004
vertex -3.29532432556152 -39.6241798400879 0.0572761259973049
endloop
endfacet
facet normal -0.324566066265106 -0.94586306810379 1.40802341032191e-13
outer loop
vertex -3.29532432556152 -39.6241798400879 0.0927238762378693
vertex -3.29532432556152 -39.6241798400879 0.0572761259973049
vertex -2.22908806800842 -39.9900512695313 0.0953004732728004
endloop
endfacet
facet normal -0.324566066265106 -0.945863008499146 -2.11683047392913e-13
outer loop
vertex -2.22908806800842 -39.9900512695313 0.0546995252370834
vertex -0.333856791257858 -40.6403846740723 0.050119623541832
vertex -2.22908806800842 -39.9900512695313 0.0953004732728004
endloop
endfacet
facet normal -0.324566066265106 -0.94586306810379 9.12506290147441e-14
outer loop
vertex -0.333856791257858 -40.6403846740723 0.0998803749680519
vertex -2.22908806800842 -39.9900512695313 0.0953004732728004
vertex -0.333856791257858 -40.6403846740723 0.050119623541832
endloop
endfacet
facet normal -0.324566066265106 -0.945863008499146 1.12676977936845e-13
outer loop
vertex 3.03491044044495 -41.7963523864746 0.041978869587183
vertex 3.03491044044495 -41.7963523864746 0.108021132647991
vertex -0.333856791257858 -40.6403846740723 0.050119623541832
endloop
endfacet
facet normal -0.324566066265106 -0.945863008499146 9.12506290147441e-14
outer loop
vertex -0.333856791257858 -40.6403846740723 0.0998803749680519
vertex -0.333856791257858 -40.6403846740723 0.050119623541832
vertex 3.03491044044495 -41.7963523864746 0.108021132647991
endloop
endfacet
facet normal -0.324566036462784 -0.94586306810379 1.12676984713109e-13
outer loop
vertex 3.03491044044495 -41.7963523864746 0.041978869587183
vertex 7.96298694610596 -43.4873847961426 0.0300699844956398
vertex 3.03491044044495 -41.7963523864746 0.108021132647991
endloop
endfacet
facet normal -0.324566096067429 -0.94586306810379 -2.88721615517538e-14
outer loop
vertex 7.96298694610596 -43.4873847961426 0.119930014014244
vertex 3.03491044044495 -41.7963523864746 0.108021132647991
vertex 7.96298694610596 -43.4873847961426 0.0300699844956398
endloop
endfacet
facet normal -0.324566036462784 -0.945863008499146 -1.01184590762561e-14
outer loop
vertex 12.9492597579956 -45.1983909606934 0.131979539990425
vertex 7.96298694610596 -43.4873847961426 0.119930014014244
vertex 12.9492597579956 -45.1983909606934 0.0180204641073942
endloop
endfacet
facet normal -0.324566066265106 -0.94586306810379 -2.88721615517538e-14
outer loop
vertex 7.96298694610596 -43.4873847961426 0.0300699844956398
vertex 12.9492597579956 -45.1983909606934 0.0180204641073942
vertex 7.96298694610596 -43.4873847961426 0.119930014014244
endloop
endfacet
facet normal -0.324566036462784 -0.945863008499146 -1.01184590762561e-14
outer loop
vertex 12.9492597579956 -45.1983909606934 0.131979539990425
vertex 12.9492597579956 -45.1983909606934 0.0180204641073942
vertex 17.9355335235596 -46.9093933105469 0.144029051065445
endloop
endfacet
facet normal -0.324566096067429 -0.94586306810379 8.06569166924426e-14
outer loop
vertex 17.9355335235596 -46.9093933105469 0.00597094371914864
vertex 17.9355335235596 -46.9093933105469 0.144029051065445
vertex 12.9492597579956 -45.1983909606934 0.0180204641073942
endloop
endfacet
facet normal -0.324566066265106 -0.945863008499146 1.11172315385606e-13
outer loop
vertex 22.6030216217041 -48.5110092163086 -0.00530821876600385
vertex 22.6030216217041 -48.5110092163086 0.155308216810226
vertex 17.9355335235596 -46.9093933105469 0.00597094371914864
endloop
endfacet
facet normal -0.324566066265106 -0.945863008499146 8.06569166924426e-14
outer loop
vertex 17.9355335235596 -46.9093933105469 0.144029051065445
vertex 17.9355335235596 -46.9093933105469 0.00597094371914864
vertex 22.6030216217041 -48.5110092163086 0.155308216810226
endloop
endfacet
facet normal -0.324566066265106 -0.94586306810379 1.11172328938133e-13
outer loop
vertex 22.6030216217041 -48.5110092163086 -0.00530821876600385
vertex 25.6503963470459 -49.5566940307617 -0.0126723181456327
vertex 22.6030216217041 -48.5110092163086 0.155308216810226
endloop
endfacet
facet normal -0.324566066265106 -0.94586306810379 -0
outer loop
vertex 25.6503963470459 -49.5566940307617 0.162672325968742
vertex 22.6030216217041 -48.5110092163086 0.155308216810226
vertex 25.6503963470459 -49.5566940307617 -0.0126723181456327
endloop
endfacet
facet normal -0.324566066265106 -0.94586306810379 3.64437653503375e-14
outer loop
vertex 27.5270309448242 -50.2006454467773 -0.0172072798013687
vertex 27.5270309448242 -50.2006454467773 0.167207285761833
vertex 25.6503963470459 -49.5566940307617 -0.0126723181456327
endloop
endfacet
facet normal -0.324566036462784 -0.945863008499146 -0
outer loop
vertex 25.6503963470459 -49.5566940307617 0.162672325968742
vertex 25.6503963470459 -49.5566940307617 -0.0126723181456327
vertex 27.5270309448242 -50.2006454467773 0.167207285761833
endloop
endfacet
facet normal -0.324566066265106 -0.94586306810379 3.64437653503375e-14
outer loop
vertex 27.5270309448242 -50.2006454467773 -0.0172072798013687
vertex 28.6827011108398 -50.5972061157227 -0.0199999995529652
vertex 27.5270309448242 -50.2006454467773 0.167207285761833
endloop
endfacet
facet normal -0.324566036462784 -0.945863008499146 -0
outer loop
vertex 28.6827011108398 -50.5972061157227 0.170000001788139
vertex 27.5270309448242 -50.2006454467773 0.167207285761833
vertex 28.6827011108398 -50.5972061157227 -0.0199999995529652
endloop
endfacet
facet normal 0.00580133637413383 -0.00196213345043361 0.999981224536896
outer loop
vertex 28.7254467010498 -50.4698371887207 -0.154345974326134
vertex 28.786319732666 -50.2898559570313 -0.154345974326134
vertex 27.5848770141602 -50.0833473205566 -0.146970674395561
endloop
endfacet
facet normal 0.00580133590847254 -0.00196213345043361 0.999981224536896
outer loop
vertex 27.6453113555908 -49.9046669006348 -0.146970674395561
vertex 27.5848770141602 -50.0833473205566 -0.146970674395561
vertex 28.786319732666 -50.2898559570313 -0.154345974326134
endloop
endfacet
facet normal 0.00580133637413383 -0.00196213345043361 0.999981224536896
outer loop
vertex 27.5848770141602 -50.0833473205566 -0.146970674395561
vertex 27.6453113555908 -49.9046669006348 -0.146970674395561
vertex 25.7897720336914 -49.4750633239746 -0.135362908244133
endloop
endfacet
facet normal 0.00580133544281125 -0.00196213345043361 0.999981224536896
outer loop
vertex 25.8495101928711 -49.2984352111816 -0.135362908244133
vertex 25.7897720336914 -49.4750633239746 -0.135362908244133
vertex 27.6453113555908 -49.9046669006348 -0.146970674395561
endloop
endfacet
facet normal 0.00580133637413383 -0.00196213345043361 0.999981224536896
outer loop
vertex 25.8495101928711 -49.2984352111816 -0.135362908244133
vertex 23.023157119751 -48.3443031311035 -0.117093801498413
vertex 25.7897720336914 -49.4750633239746 -0.135362908244133
endloop
endfacet
facet normal 0.00580133590847254 -0.00196213321760297 0.999981224536896
outer loop
vertex 22.9645099639893 -48.5177001953125 -0.117093801498413
vertex 25.7897720336914 -49.4750633239746 -0.135362908244133
vertex 23.023157119751 -48.3443031311035 -0.117093801498413
endloop
endfacet
facet normal 0.00580133637413383 -0.00196213368326426 0.999981284141541
outer loop
vertex 22.9645099639893 -48.5177001953125 -0.117093801498413
vertex 23.023157119751 -48.3443031311035 -0.117093801498413
vertex 18.619047164917 -47.0452041625977 -0.0889945477247238
endloop
endfacet
facet normal 0.00580133637413383 -0.00196213345043361 0.999981224536896
outer loop
vertex 18.6760139465332 -46.8767738342285 -0.0889945477247238
vertex 18.619047164917 -47.0452041625977 -0.0889945477247238
vertex 23.023157119751 -48.3443031311035 -0.117093801498413
endloop
endfacet
facet normal 0.00580133590847254 -0.00196213345043361 0.999981284141541
outer loop
vertex 18.619047164917 -47.0452041625977 -0.0889945477247238
vertex 18.6760139465332 -46.8767738342285 -0.0889945477247238
vertex 13.7899951934814 -45.4088439941406 -0.0577682517468929
endloop
endfacet
facet normal 0.00580133637413383 -0.00196213345043361 0.999981224536896
outer loop
vertex 13.8450956344604 -45.2459335327148 -0.0577682517468929
vertex 13.7899951934814 -45.4088439941406 -0.0577682517468929
vertex 18.6760139465332 -46.8767738342285 -0.0889945477247238
endloop
endfacet
facet normal 0.00580133637413383 -0.00196213345043361 0.999981224536896
outer loop
vertex 13.8450956344604 -45.2459335327148 -0.0577682517468929
vertex 9.0141773223877 -43.6150894165039 -0.026541955769062
vertex 13.7899951934814 -45.4088439941406 -0.0577682517468929
endloop
endfacet
facet normal 0.00580133590847254 -0.00196213321760297 0.999981224536896
outer loop
vertex 8.96094417572021 -43.7724800109863 -0.026541955769062
vertex 13.7899951934814 -45.4088439941406 -0.0577682517468929
vertex 9.0141773223877 -43.6150894165039 -0.026541955769062
endloop
endfacet
facet normal 0.00580133637413383 -0.00196213345043361 0.999981284141541
outer loop
vertex 4.13189315795898 -42.1361198425293 0.0046843383461237
vertex 8.96094417572021 -43.7724800109863 -0.026541955769062
vertex 4.1832594871521 -41.9842491149902 0.0046843383461237
endloop
endfacet
facet normal 0.00580133590847254 -0.00196213321760297 0.999981224536896
outer loop
vertex 9.0141773223877 -43.6150894165039 -0.026541955769062
vertex 4.1832594871521 -41.9842491149902 0.0046843383461237
vertex 8.96094417572021 -43.7724800109863 -0.026541955769062
endloop
endfacet
facet normal 0.00580133637413383 -0.00196213345043361 0.999981224536896
outer loop
vertex 4.13189315795898 -42.1361198425293 0.0046843383461237
vertex 4.1832594871521 -41.9842491149902 0.0046843383461237
vertex 0.329033881425858 -40.8474922180176 0.0292749274522066
endloop
endfacet
facet normal 0.00580133590847254 -0.00196213345043361 0.999981224536896
outer loop
vertex 0.378929704427719 -40.6999664306641 0.0292749274522066
vertex 0.329033881425858 -40.8474922180176 0.0292749274522066
vertex 4.1832594871521 -41.9842491149902 0.0046843383461237
endloop
endfacet
facet normal 0.00580133637413383 -0.00196213345043361 0.999981224536896
outer loop
vertex 0.378929704427719 -40.6999664306641 0.0292749274522066
vertex -1.98702609539032 -39.9012565612793 0.044568095356226
vertex 0.329033881425858 -40.8474922180176 0.0292749274522066
endloop
endfacet
facet normal 0.00580133590847254 -0.00196213345043361 0.999981284141541
outer loop
vertex -2.03600764274597 -40.0460777282715 0.044568095356226
vertex 0.329033881425858 -40.8474922180176 0.0292749274522066
vertex -1.98702609539032 -39.9012565612793 0.044568095356226
endloop
endfacet
facet normal 0.00580133590847254 -0.00196213345043361 0.999981224536896
outer loop
vertex -2.03600764274597 -40.0460777282715 0.044568095356226
vertex -1.98702609539032 -39.9012565612793 0.044568095356226
vertex -3.5072615146637 -39.5475311279297 0.0540817230939865
endloop
endfacet
facet normal 0.00580133637413383 -0.00196213345043361 0.999981284141541
outer loop
vertex -3.45884895324707 -39.4043922424316 0.0540817230939865
vertex -3.5072615146637 -39.5475311279297 0.0540817230939865
vertex -1.98702609539032 -39.9012565612793 0.044568095356226
endloop
endfacet
facet normal 0.00580133590847254 -0.00196213345043361 0.999981224536896
outer loop
vertex -3.5072615146637 -39.5475311279297 0.0540817230939865
vertex -3.45884895324707 -39.4043922424316 0.0540817230939865
vertex -4.42250490188599 -39.2373962402344 0.0599999986588955
endloop
endfacet
facet normal 0.00580133637413383 -0.00196213368326426 0.999981284141541
outer loop
vertex -4.37444591522217 -39.0953025817871 0.0599999986588955
vertex -4.42250490188599 -39.2373962402344 0.0599999986588955
vertex -3.45884895324707 -39.4043922424316 0.0540817230939865
endloop
endfacet
facet normal -0.23103354871273 -0.668307304382324 -0.707098841667175
outer loop
vertex 28.7259292602539 -50.4700012207031 -0.154349818825722
vertex 28.6826152801514 -50.5971755981445 -0.0199990123510361
vertex 27.3885669708252 -50.0168266296387 -0.145701944828033
endloop
endfacet
facet normal -0.23103354871273 -0.668307363986969 -0.70709890127182
outer loop
vertex 27.3469886779785 -50.1388664245605 -0.0167714543640614
vertex 27.3885669708252 -50.0168266296387 -0.145701944828033
vertex 28.6826152801514 -50.5971755981445 -0.0199990123510361
endloop
endfacet
facet normal -0.23103354871273 -0.668307363986969 -0.707098841667175
outer loop
vertex 27.3885669708252 -50.0168266296387 -0.145701944828033
vertex 27.3469886779785 -50.1388664245605 -0.0167714543640614
vertex 24.5753040313721 -49.0635299682617 -0.127510368824005
endloop
endfacet
facet normal -0.23103354871273 -0.668307363986969 -0.707098841667175
outer loop
vertex 24.5374164581299 -49.1747817993164 -0.00998207833617926
vertex 24.5753040313721 -49.0635299682617 -0.127510368824005
vertex 27.3469886779785 -50.1388664245605 -0.0167714543640614
endloop
endfacet
facet normal -0.23103354871273 -0.668307304382324 -0.707098841667175
outer loop
vertex 24.5374164581299 -49.1747817993164 -0.00998207833617926
vertex 19.80832862854 -47.5520286560059 0.00144583336077631
vertex 24.5753040313721 -49.0635299682617 -0.127510368824005
endloop
endfacet
facet normal -0.231033563613892 -0.668307363986969 -0.70709890127182
outer loop
vertex 19.8400173187256 -47.4589385986328 -0.0968902781605721
vertex 24.5753040313721 -49.0635299682617 -0.127510368824005
vertex 19.80832862854 -47.5520286560059 0.00144583336077631
endloop
endfacet
facet normal -0.23103354871273 -0.668307363986969 -0.707098841667175
outer loop
vertex 19.8400173187256 -47.4589385986328 -0.0968902781605721
vertex 19.80832862854 -47.5520286560059 0.00144583336077631
vertex 14.987512588501 -45.8146324157715 -0.0655122250318527
endloop
endfacet
facet normal -0.231033533811569 -0.668307363986969 -0.707098841667175
outer loop
vertex 14.9621610641479 -45.889102935791 0.0131566664204001
vertex 14.987512588501 -45.8146324157715 -0.0655122250318527
vertex 19.80832862854 -47.5520286560059 0.00144583336077631
endloop
endfacet
facet normal -0.231033533811569 -0.668307363986969 -0.707098841667175
outer loop
vertex 14.9621610641479 -45.889102935791 0.0131566664204001
vertex 10.1159944534302 -44.2261772155762 0.0248674992471933
vertex 14.987512588501 -45.8146324157715 -0.0655122250318527
endloop
endfacet
facet normal -0.231033533811569 -0.668307304382324 -0.707098841667175
outer loop
vertex 10.1350078582764 -44.1703224182129 -0.0341341644525528
vertex 14.987512588501 -45.8146324157715 -0.0655122250318527
vertex 10.1159944534302 -44.2261772155762 0.0248674992471933
endloop
endfacet
facet normal -0.231033533811569 -0.668307304382324 -0.707098841667175
outer loop
vertex 10.1350078582764 -44.1703224182129 -0.0341341644525528
vertex 10.1159944534302 -44.2261772155762 0.0248674992471933
vertex 5.28250360488892 -42.5260124206543 -0.00275611085817218
endloop
endfacet
facet normal -0.231033533811569 -0.668307363986969 -0.707098841667175
outer loop
vertex 5.26982831954956 -42.5632476806641 0.0365783348679543
vertex 5.28250360488892 -42.5260124206543 -0.00275611085817218
vertex 10.1159944534302 -44.2261772155762 0.0248674992471933
endloop
endfacet
facet normal -0.231033533811569 -0.668307363986969 -0.707098841667175
outer loop
vertex 5.26982831954956 -42.5632476806641 0.0365783348679543
vertex 0.423661768436432 -40.9003219604492 0.0482891649007797
vertex 5.28250360488892 -42.5260124206543 -0.00275611085817218
endloop
endfacet
facet normal -0.231033533811569 -0.668307363986969 -0.707098841667175
outer loop
vertex 0.429999530315399 -40.8817024230957 0.028621943667531
vertex 5.28250360488892 -42.5260124206543 -0.00275611085817218
vertex 0.423661768436432 -40.9003219604492 0.0482891649007797
endloop
endfacet
facet normal -0.231033533811569 -0.668307363986969 -0.707098841667175
outer loop
vertex 0.423661768436432 -40.9003219604492 0.0482891649007797
vertex -4.42250490188599 -39.2373962402344 0.0599999986588955
vertex 0.429999530315399 -40.8817024230957 0.028621943667531
endloop
endfacet
facet normal -0.947229385375977 0.320372819900513 0.0108538288623095
outer loop
vertex -4.37444591522217 -39.0953025817871 0.0900000035762787
vertex -4.42250490188599 -39.2373962402344 0.0900000035762787
vertex -4.364333152771 -39.0981407165527 1.05632293224335
endloop
endfacet
facet normal -0.947229385375977 0.320372819900513 0.0108538279309869
outer loop
vertex -4.41274547576904 -39.2412796020508 1.05632293224335
vertex -4.364333152771 -39.0981407165527 1.05632293224335
vertex -4.42250490188599 -39.2373962402344 0.0900000035762787
endloop
endfacet
facet normal -0.947229385375977 0.320372819900513 0.0108538279309869
outer loop
vertex -4.39705801010132 -39.2475204467773 2.6096875667572
vertex -4.34807634353638 -39.1026992797852 2.6096875667572
vertex -4.41274547576904 -39.2412796020508 1.05632293224335
endloop
endfacet
facet normal -0.947229385375977 0.320372819900513 0.0108538288623095
outer loop
vertex -4.364333152771 -39.0981407165527 1.05632293224335
vertex -4.41274547576904 -39.2412796020508 1.05632293224335
vertex -4.34807634353638 -39.1026992797852 2.6096875667572
endloop
endfacet
facet normal -0.947229385375977 0.320372819900513 0.0108538279309869
outer loop
vertex -4.39705801010132 -39.2475204467773 2.6096875667572
vertex -4.37184000015259 -39.2575569152832 5.10672187805176
vertex -4.34807634353638 -39.1026992797852 2.6096875667572
endloop
endfacet
facet normal -0.947229325771332 0.32037279009819 0.0108538279309869
outer loop
vertex -4.32194423675537 -39.1100311279297 5.10672187805176
vertex -4.34807634353638 -39.1026992797852 2.6096875667572
vertex -4.37184000015259 -39.2575569152832 5.10672187805176
endloop
endfacet
facet normal -0.947229385375977 0.320372849702835 0.0108538288623095
outer loop
vertex -4.33129072189331 -39.2736930847168 9.12181949615479
vertex -4.27992486953735 -39.1218223571777 9.12181949615479
vertex -4.37184000015259 -39.2575569152832 5.10672187805176
endloop
endfacet
facet normal -0.947229385375977 0.320372819900513 0.0108538279309869
outer loop
vertex -4.32194423675537 -39.1100311279297 5.10672187805176
vertex -4.37184000015259 -39.2575569152832 5.10672187805176
vertex -4.27992486953735 -39.1218223571777 9.12181949615479
endloop
endfacet
facet normal -0.947229385375977 0.320372819900513 0.0108538288623095
outer loop
vertex -4.33129072189331 -39.2736930847168 9.12181949615479
vertex -4.27979946136475 -39.2941856384277 14.2203798294067
vertex -4.27992486953735 -39.1218223571777 9.12181949615479
endloop
endfacet
facet normal -0.947229385375977 0.320372849702835 0.0108538279309869
outer loop
vertex -4.22656631469727 -39.1367950439453 14.2203798294067
vertex -4.27992486953735 -39.1218223571777 9.12181949615479
vertex -4.27979946136475 -39.2941856384277 14.2203798294067
endloop
endfacet
facet normal -0.947229385375977 0.320372849702835 0.0108538279309869
outer loop
vertex -4.27979946136475 -39.2941856384277 14.2203798294067
vertex -4.22830820083618 -39.3146743774414 19.3189392089844
vertex -4.22656631469727 -39.1367950439453 14.2203798294067
endloop
endfacet
facet normal -0.947229325771332 0.320372819900513 0.0108538279309869
outer loop
vertex -4.17320823669434 -39.1517639160156 19.3189392089844
vertex -4.22656631469727 -39.1367950439453 14.2203798294067
vertex -4.22830820083618 -39.3146743774414 19.3189392089844
endloop
endfacet
facet normal -0.947229385375977 0.320372819900513 0.0108538279309869
outer loop
vertex -4.17681694030762 -39.3351669311523 24.4174995422363
vertex -4.11984968185425 -39.1667366027832 24.4174995422363
vertex -4.22830820083618 -39.3146743774414 19.3189392089844
endloop
endfacet
facet normal -0.947229325771332 0.320372819900513 0.0108538279309869
outer loop
vertex -4.17320823669434 -39.1517639160156 19.3189392089844
vertex -4.22830820083618 -39.3146743774414 19.3189392089844
vertex -4.11984968185425 -39.1667366027832 24.4174995422363
endloop
endfacet
facet normal -0.947229385375977 0.320372819900513 0.0108538279309869
outer loop
vertex -4.1304817199707 -39.3536071777344 29.005485534668
vertex -4.07183504104614 -39.1802062988281 29.005485534668
vertex -4.17681694030762 -39.3351669311523 24.4174995422363
endloop
endfacet
facet normal -0.947229385375977 0.32037279009819 0.0108538279309869
outer loop
vertex -4.11984968185425 -39.1667366027832 24.4174995422363
vertex -4.17681694030762 -39.3351669311523 24.4174995422363
vertex -4.07183504104614 -39.1802062988281 29.005485534668
endloop
endfacet
facet normal -0.947229325771332 0.32037279009819 0.0108538279309869
outer loop
vertex -4.1304817199707 -39.3536071777344 29.005485534668
vertex -4.1003565788269 -39.365592956543 31.9884243011475
vertex -4.07183504104614 -39.1802062988281 29.005485534668
endloop
endfacet
facet normal -0.947229325771332 0.320372819900513 0.0108538279309869
outer loop
vertex -4.0406174659729 -39.18896484375 31.9884243011475
vertex -4.07183504104614 -39.1802062988281 29.005485534668
vertex -4.1003565788269 -39.365592956543 31.9884243011475
endloop
endfacet
facet normal -0.947229325771332 0.320372819900513 0.0108538279309869
outer loop
vertex -4.08121585845947 -39.3732109069824 33.8837127685547
vertex -4.02078247070313 -39.1945304870605 33.8837127685547
vertex -4.1003565788269 -39.365592956543 31.9884243011475
endloop
endfacet
facet normal -0.947229325771332 0.320372819900513 0.0108538279309869
outer loop
vertex -4.0406174659729 -39.18896484375 31.9884243011475
vertex -4.1003565788269 -39.365592956543 31.9884243011475
vertex -4.02078247070313 -39.1945304870605 33.8837127685547
endloop
endfacet
facet normal -0.947229385375977 0.320372819900513 0.0108538288623095
outer loop
vertex -4.08121585845947 -39.3732109069824 33.8837127685547
vertex -4.0690541267395 -39.3780517578125 35.0879402160645
vertex -4.02078247070313 -39.1945304870605 33.8837127685547
endloop
endfacet
facet normal -0.947229385375977 0.320372849702835 0.0108538288623095
outer loop
vertex -4.00817966461182 -39.1980667114258 35.0879402160645
vertex -4.02078247070313 -39.1945304870605 33.8837127685547
vertex -4.0690541267395 -39.3780517578125 35.0879402160645
endloop
endfacet
facet normal 0.221489623188972 0.671535611152649 -0.707094252109528
outer loop
vertex 3.34999632835388 -16.4937210083008 23.9745826721191
vertex 3.62940263748169 -15.6761827468872 24.838529586792
vertex 3.52471899986267 -16.5527038574219 23.973295211792
endloop
endfacet
facet normal 0.221489608287811 0.671535611152649 -0.707094192504883
outer loop
vertex 3.80941724777222 -15.7369527816772 24.8372020721436
vertex 3.52471899986267 -16.5527038574219 23.973295211792
vertex 3.62940263748169 -15.6761827468872 24.838529586792
endloop
endfacet
facet normal 0.221489623188972 0.671535611152649 -0.707094252109528
outer loop
vertex 3.34999632835388 -16.4937210083008 23.9745826721191
vertex 3.52471899986267 -16.5527038574219 23.973295211792
vertex 2.89628195762634 -17.8212814331055 22.571662902832
endloop
endfacet
facet normal 0.221489638090134 0.671535611152649 -0.707094252109528
outer loop
vertex 3.06241130828857 -17.8773632049561 22.5704383850098
vertex 2.89628195762634 -17.8212814331055 22.571662902832
vertex 3.52471899986267 -16.5527038574219 23.973295211792
endloop
endfacet
facet normal 0.221489623188972 0.671535611152649 -0.707094252109528
outer loop
vertex 3.06241130828857 -17.8773632049561 22.5704383850098
vertex 2.31169295310974 -20.0284118652344 20.292407989502
vertex 2.89628195762634 -17.8212814331055 22.571662902832
endloop
endfacet
facet normal 0.221489608287811 0.671535611152649 -0.707094192504883
outer loop
vertex 2.15951776504517 -19.9770393371582 20.293529510498
vertex 2.89628195762634 -17.8212814331055 22.571662902832
vertex 2.31169295310974 -20.0284118652344 20.292407989502
endloop
endfacet
facet normal 0.221489623188972 0.671535611152649 -0.707094252109528
outer loop
vertex 2.15951776504517 -19.9770393371582 20.293529510498
vertex 2.31169295310974 -20.0284118652344 20.292407989502
vertex 1.03105890750885 -23.2788906097412 16.8042449951172
endloop
endfacet
facet normal 0.221489623188972 0.671535670757294 -0.707094252109528
outer loop
vertex 1.16186141967773 -23.3230476379395 16.8032817840576
vertex 1.03105890750885 -23.2788906097412 16.8042449951172
vertex 2.31169295310974 -20.0284118652344 20.292407989502
endloop
endfacet
facet normal 0.221489638090134 0.671535670757294 -0.707094252109528
outer loop
vertex 1.03105890750885 -23.2788906097412 16.8042449951172
vertex 1.16186141967773 -23.3230476379395 16.8032817840576
vertex -0.174472823739052 -26.8062553405762 13.0766468048096
endloop
endfacet
facet normal 0.221489623188972 0.671535611152649 -0.707094192504883
outer loop
vertex -0.0665028691291809 -26.8427047729492 13.0758514404297
vertex -0.174472823739052 -26.8062553405762 13.0766468048096
vertex 1.16186141967773 -23.3230476379395 16.8032817840576
endloop
endfacet
facet normal 0.221489623188972 0.671535611152649 -0.707094192504883
outer loop
vertex -0.0665028691291809 -26.8427047729492 13.0758514404297
vertex -1.29486703872681 -30.3623600006104 9.34842109680176
vertex -0.174472823739052 -26.8062553405762 13.0766468048096
endloop
endfacet
facet normal 0.221489608287811 0.671535611152649 -0.707094252109528
outer loop
vertex -1.38000452518463 -30.3336200714111 9.34904861450195
vertex -0.174472823739052 -26.8062553405762 13.0766468048096
vertex -1.29486703872681 -30.3623600006104 9.34842109680176
endloop
endfacet
facet normal 0.221489623188972 0.671535611152649 -0.707094252109528
outer loop
vertex -2.57146596908569 -33.8198127746582 5.66495561599731
vertex -1.38000452518463 -30.3336200714111 9.34904861450195
vertex -2.50889468193054 -33.8409385681152 5.66449451446533
endloop
endfacet
facet normal 0.221489638090134 0.671535611152649 -0.707094252109528
outer loop
vertex -1.29486703872681 -30.3623600006104 9.34842109680176
vertex -2.50889468193054 -33.8409385681152 5.66449451446533
vertex -1.38000452518463 -30.3336200714111 9.34904861450195
endloop
endfacet
facet normal 0.221489638090134 0.671535670757294 -0.707094252109528
outer loop
vertex -2.57146596908569 -33.8198127746582 5.66495561599731
vertex -2.50889468193054 -33.8409385681152 5.66449451446533
vertex -3.38593316078186 -36.2029304504395 3.14655923843384
endloop
endfacet
facet normal 0.221489623188972 0.671535670757294 -0.707094252109528
outer loop
vertex -3.33878755569458 -36.2188453674316 3.14621186256409
vertex -3.38593316078186 -36.2029304504395 3.14655923843384
vertex -2.50889468193054 -33.8409385681152 5.66449451446533
endloop
endfacet
facet normal 0.221489623188972 0.671535611152649 -0.707094192504883
outer loop
vertex -3.33878755569458 -36.2188453674316 3.14621186256409
vertex -3.80567622184753 -37.5566329956055 1.72945368289948
vertex -3.38593316078186 -36.2029304504395 3.14655923843384
endloop
endfacet
facet normal 0.221489608287811 0.671535551548004 -0.707094192504883
outer loop
vertex -3.84414339065552 -37.543643951416 1.72973716259003
vertex -3.38593316078186 -36.2029304504395 3.14655923843384
vertex -3.80567622184753 -37.5566329956055 1.72945368289948
endloop
endfacet
facet normal 0.221489608287811 0.671535611152649 -0.707094192504883
outer loop
vertex -3.84414339065552 -37.543643951416 1.72973716259003
vertex -3.80567622184753 -37.5566329956055 1.72945368289948
vertex -4.10192728042603 -38.2979164123535 0.932648718357086
endloop
endfacet
facet normal 0.221489608287811 0.671535611152649 -0.707094192504883
outer loop
vertex -4.06834268569946 -38.309253692627 0.932401239871979
vertex -4.10192728042603 -38.2979164123535 0.932648718357086
vertex -3.80567622184753 -37.5566329956055 1.72945368289948
endloop
endfacet
facet normal 0.221489608287811 0.671535611152649 -0.707094192504883
outer loop
vertex -4.10192728042603 -38.2979164123535 0.932648718357086
vertex -4.06834268569946 -38.309253692627 0.932401239871979
vertex -4.2469539642334 -38.7222633361816 0.484215527772903
endloop
endfacet
facet normal 0.221489623188972 0.671535611152649 -0.707094192504883
outer loop
vertex -4.21611595153809 -38.7326736450195 0.483988285064697
vertex -4.2469539642334 -38.7222633361816 0.484215527772903
vertex -4.06834268569946 -38.309253692627 0.932401239871979
endloop
endfacet
facet normal 0.221489623188972 0.671535611152649 -0.707094192504883
outer loop
vertex -4.21611595153809 -38.7326736450195 0.483988285064697
vertex -4.29925155639648 -38.9708824157715 0.231716111302376
vertex -4.2469539642334 -38.7222633361816 0.484215527772903
endloop
endfacet
facet normal 0.221489638090134 0.671535670757294 -0.707094252109528
outer loop
vertex -4.32854413986206 -38.960994720459 0.231931954622269
vertex -4.2469539642334 -38.7222633361816 0.484215527772903
vertex -4.29925155639648 -38.9708824157715 0.231716111302376
endloop
endfacet
facet normal 0.221489623188972 0.671535670757294 -0.707094252109528
outer loop
vertex -4.29925155639648 -38.9708824157715 0.231716111302376
vertex -4.346022605896 -39.1048965454102 0.0897905603051186
vertex -4.32854413986206 -38.960994720459 0.231931954622269
endloop
endfacet
facet normal 0.221489623188972 0.671535670757294 -0.707094252109528
outer loop
vertex -4.37444591522217 -39.0953025817871 0.0900000035762787
vertex -4.32854413986206 -38.960994720459 0.231931954622269
vertex -4.346022605896 -39.1048965454102 0.0897905603051186
endloop
endfacet
facet normal -0.230264976620674 -0.668556869029999 0.707113564014435
outer loop
vertex -3.20278811454773 -35.6670532226563 3.71285820007324
vertex -4.37444591522217 -39.0953025817871 0.0900000035762787
vertex -3.1764805316925 -35.6760787963867 3.71288895606995
endloop
endfacet
facet normal -0.230264976620674 -0.668556869029999 0.707113564014435
outer loop
vertex -2.03113031387329 -32.2388000488281 7.33571624755859
vertex -3.20278811454773 -35.6670532226563 3.71285820007324
vertex -1.97851526737213 -32.2568588256836 7.33577823638916
endloop
endfacet
facet normal -0.230264976620674 -0.668556869029999 0.707113564014435
outer loop
vertex -3.1764805316925 -35.6760787963867 3.71288895606995
vertex -1.97851526737213 -32.2568588256836 7.33577823638916
vertex -3.20278811454773 -35.6670532226563 3.71285820007324
endloop
endfacet
facet normal -0.230264976620674 -0.668556869029999 0.707113564014435
outer loop
vertex -2.03113031387329 -32.2388000488281 7.33571624755859
vertex -1.97851526737213 -32.2568588256836 7.33577823638916
vertex -0.859472393989563 -28.8105506896973 10.9585742950439
endloop
endfacet
facet normal -0.230264991521835 -0.668556928634644 0.70711362361908
outer loop
vertex -0.780549943447113 -28.8376369476318 10.9586668014526
vertex -0.859472393989563 -28.8105506896973 10.9585742950439
vertex -1.97851526737213 -32.2568588256836 7.33577823638916
endloop
endfacet
facet normal -0.230264976620674 -0.668556869029999 0.707113564014435
outer loop
vertex 0.312185436487198 -25.3823013305664 14.5814323425293
vertex -0.859472393989563 -28.8105506896973 10.9585742950439
vertex 0.417415380477905 -25.4184150695801 14.5815563201904
endloop
endfacet
facet normal -0.230264991521835 -0.668556928634644 0.70711362361908
outer loop
vertex -0.780549943447113 -28.8376369476318 10.9586668014526
vertex 0.417415380477905 -25.4184150695801 14.5815563201904
vertex -0.859472393989563 -28.8105506896973 10.9585742950439
endloop
endfacet
facet normal -0.230264976620674 -0.668556869029999 0.707113564014435
outer loop
vertex 0.312185436487198 -25.3823013305664 14.5814323425293
vertex 0.417415380477905 -25.4184150695801 14.5815563201904
vertex 1.4838433265686 -21.9540519714355 18.2042903900146
endloop
endfacet
facet normal -0.230264991521835 -0.668556988239288 0.707113564014435
outer loop
vertex 1.61538076400757 -21.9991931915283 18.2044448852539
vertex 1.4838433265686 -21.9540519714355 18.2042903900146
vertex 0.417415380477905 -25.4184150695801 14.5815563201904
endloop
endfacet
facet normal -0.230264991521835 -0.668556988239288 0.707113564014435
outer loop
vertex 2.62719535827637 -18.6086235046387 21.7396259307861
vertex 1.4838433265686 -21.9540519714355 18.2042903900146
vertex 2.78440833091736 -18.6625652313232 21.7398204803467
endloop
endfacet
facet normal -0.230265006422997 -0.668556928634644 0.70711362361908
outer loop
vertex 1.61538076400757 -21.9991931915283 18.2044448852539
vertex 2.78440833091736 -18.6625652313232 21.7398204803467
vertex 1.4838433265686 -21.9540519714355 18.2042903900146
endloop
endfacet
facet normal -0.230264991521835 -0.668556988239288 0.707113564014435
outer loop
vertex 2.62719535827637 -18.6086235046387 21.7396259307861
vertex 2.78440833091736 -18.6625652313232 21.7398204803467
vertex 3.30646681785583 -16.6210880279541 23.8399868011475
endloop
endfacet
facet normal -0.230264976620674 -0.668556928634644 0.707113564014435
outer loop
vertex 3.4789354801178 -16.6802520751953 23.8402099609375
vertex 3.30646681785583 -16.6210880279541 23.8399868011475
vertex 2.78440833091736 -18.6625652313232 21.7398204803467
endloop
endfacet
facet normal -0.230265006422997 -0.668556988239288 0.70711362361908
outer loop
vertex 3.30646681785583 -16.6210880279541 23.8399868011475
vertex 3.4789354801178 -16.6802520751953 23.8402099609375
vertex 3.62938165664673 -15.6762437820435 24.8384647369385
endloop
endfacet
facet normal -0.230264991521835 -0.668556928634644 0.70711362361908
outer loop
vertex 3.80909848213196 -15.7379035949707 24.8386898040771
vertex 3.62938165664673 -15.6762437820435 24.8384647369385
vertex 3.4789354801178 -16.6802520751953 23.8402099609375
endloop
endfacet
facet normal -0.324564903974533 -0.945863306522369 -0.000523601891472936
outer loop
vertex -0.656380355358124 -40.5470657348633 31.4495525360107
vertex -4.0690541267395 -39.3780517578125 35.0879402160645
vertex -0.675061047077179 -40.5406455993652 31.4299716949463
endloop
endfacet
facet normal -0.324564903974533 -0.945863306522369 -0.000523601891472936
outer loop
vertex 2.75629329681396 -41.7160835266113 27.8111667633057
vertex -0.656380355358124 -40.5470657348633 31.4495525360107
vertex 2.71893215179443 -41.703239440918 27.7720050811768
endloop
endfacet
facet normal -0.324564903974533 -0.945863306522369 -0.000523601891472936
outer loop
vertex -0.675061047077179 -40.5406455993652 31.4299716949463
vertex 2.71893215179443 -41.703239440918 27.7720050811768
vertex -0.656380355358124 -40.5470657348633 31.4495525360107
endloop
endfacet
facet normal -0.324564903974533 -0.945863306522369 -0.000523601891472936
outer loop
vertex 2.75629329681396 -41.7160835266113 27.8111667633057
vertex 2.71893215179443 -41.703239440918 27.7720050811768
vertex 6.16896724700928 -42.8850975036621 24.1727809906006
endloop
endfacet
facet normal -0.324564903974533 -0.945863306522369 -0.000523601891472936
outer loop
vertex 6.11292505264282 -42.865837097168 24.1140384674072
vertex 6.16896724700928 -42.8850975036621 24.1727809906006
vertex 2.71893215179443 -41.703239440918 27.7720050811768
endloop
endfacet
facet normal -0.324564903974533 -0.945863306522369 -0.000523601891472936
outer loop
vertex 6.11292505264282 -42.865837097168 24.1140384674072
vertex 9.50691795349121 -44.0284309387207 20.4560718536377
vertex 6.16896724700928 -42.8850975036621 24.1727809906006
endloop
endfacet
facet normal -0.324564903974533 -0.945863306522369 -0.000523601891472936
outer loop
vertex 9.58164119720459 -44.0541152954102 20.5343933105469
vertex 6.16896724700928 -42.8850975036621 24.1727809906006
vertex 9.50691795349121 -44.0284309387207 20.4560718536377
endloop
endfacet
facet normal -0.324564903974533 -0.945863306522369 -0.000523601891472936
outer loop
vertex 9.58164119720459 -44.0541152954102 20.5343933105469
vertex 9.50691795349121 -44.0284309387207 20.4560718536377
vertex 12.9943141937256 -45.2231292724609 16.8960075378418
endloop
endfacet
facet normal -0.324564903974533 -0.945863306522369 -0.000523601891472936
outer loop
vertex 12.9009113311768 -45.1910247802734 16.7981052398682
vertex 12.9943141937256 -45.2231292724609 16.8960075378418
vertex 9.50691795349121 -44.0284309387207 20.4560718536377
endloop
endfacet
facet normal -0.324564874172211 -0.945863306522369 -0.000523601891472936
outer loop
vertex 16.3245410919189 -46.3639030456543 13.3455219268799
vertex 12.9943141937256 -45.2231292724609 16.8960075378418
vertex 16.2129192352295 -46.3255348205566 13.2285003662109
endloop
endfacet
facet normal -0.324564903974533 -0.945863366127014 -0.000523601891472936
outer loop
vertex 12.9009113311768 -45.1910247802734 16.7981052398682
vertex 16.2129192352295 -46.3255348205566 13.2285003662109
vertex 12.9943141937256 -45.2231292724609 16.8960075378418
endloop
endfacet
facet normal -0.324564903974533 -0.945863306522369 -0.000523601891472936
outer loop
vertex 16.3245410919189 -46.3639030456543 13.3455219268799
vertex 16.2129192352295 -46.3255348205566 13.2285003662109
vertex 18.3030452728271 -47.0416412353516 11.2361612319946
endloop
endfacet
facet normal -0.324564874172211 -0.945863246917725 -0.000523601833265275
outer loop
vertex 18.1806030273438 -46.9995574951172 11.1077766418457
vertex 18.3030452728271 -47.0416412353516 11.2361612319946
vertex 16.2129192352295 -46.3255348205566 13.2285003662109
endloop
endfacet
facet normal -0.324564903974533 -0.945863366127014 -0.000523601891472936
outer loop
vertex 18.3030452728271 -47.0416412353516 11.2361612319946
vertex 18.1806030273438 -46.9995574951172 11.1077766418457
vertex 19.2435932159424 -47.363826751709 10.2334051132202
endloop
endfacet
facet normal -0.324564844369888 -0.945863246917725 -0.000523601833265275
outer loop
vertex 19.1159954071045 -47.3199691772461 10.0996322631836
vertex 19.2435932159424 -47.363826751709 10.2334051132202
vertex 18.1806030273438 -46.9995574951172 11.1077766418457
endloop
endfacet
facet normal -1 0 0
outer loop
vertex -0.214350000023842 -36 0.170000001788139
vertex -0.214350000023842 -35 0.170000001788139
vertex -0.214350000023842 -36 -0.0199999995529652
endloop
endfacet
facet normal -1 0 0
outer loop
vertex -0.214350000023842 -35 -0.0199999995529652
vertex -0.214350000023842 -36 -0.0199999995529652
vertex -0.214350000023842 -35 0.170000001788139
endloop
endfacet
facet normal -0.70710676908493 0 -0.70710676908493
outer loop
vertex -0.214350000023842 -36 -0.0199999995529652
vertex -0.214350000023842 -35 -0.0199999995529652
vertex -0.0799999982118607 -36 -0.154349997639656
endloop
endfacet
facet normal -0.70710676908493 -0 -0.70710676908493
outer loop
vertex -0.0799999982118607 -35 -0.154349997639656
vertex -0.0799999982118607 -36 -0.154349997639656
vertex -0.214350000023842 -35 -0.0199999995529652
endloop
endfacet
facet normal -0.70710676908493 0 0.70710676908493
outer loop
vertex -0.0799999982118607 -36 0.304349988698959
vertex -0.0799999982118607 -35 0.304349988698959
vertex -0.214350000023842 -36 0.170000001788139
endloop
endfacet
facet normal -0.70710676908493 0 0.70710676908493
outer loop
vertex -0.214350000023842 -35 0.170000001788139
vertex -0.214350000023842 -36 0.170000001788139
vertex -0.0799999982118607 -35 0.304349988698959
endloop
endfacet
facet normal 0 0 -1
outer loop
vertex -0.0799999982118607 -36 -0.154349997639656
vertex -0.0799999982118607 -35 -0.154349997639656
vertex 0.109999999403954 -36 -0.154349997639656
endloop
endfacet
facet normal -0 -0 -1
outer loop
vertex 0.109999999403954 -35 -0.154349997639656
vertex 0.109999999403954 -36 -0.154349997639656
vertex -0.0799999982118607 -35 -0.154349997639656
endloop
endfacet
facet normal 0 0 1
outer loop
vertex 0.109999999403954 -35 0.304349988698959
vertex -0.0799999982118607 -35 0.304349988698959
vertex 0.109999999403954 -36 0.304349988698959
endloop
endfacet
facet normal 0 0 1
outer loop
vertex -0.0799999982118607 -36 0.304349988698959
vertex 0.109999999403954 -36 0.304349988698959
vertex -0.0799999982118607 -35 0.304349988698959
endloop
endfacet
facet normal 0.70710676908493 0 -0.70710676908493
outer loop
vertex 0.109999999403954 -36 -0.154349997639656
vertex 0.109999999403954 -35 -0.154349997639656
vertex 0.244350001215935 -36 -0.0199999995529652
endloop
endfacet
facet normal 0.70710676908493 0 -0.70710676908493
outer loop
vertex 0.244350001215935 -35 -0.0199999995529652
vertex 0.244350001215935 -36 -0.0199999995529652
vertex 0.109999999403954 -35 -0.154349997639656
endloop
endfacet
facet normal 0.70710676908493 0 0.70710676908493
outer loop
vertex 0.109999999403954 -35 0.304349988698959
vertex 0.109999999403954 -36 0.304349988698959
vertex 0.244350001215935 -35 0.170000001788139
endloop
endfacet
facet normal 0.70710676908493 -0 0.70710676908493
outer loop
vertex 0.244350001215935 -36 0.170000001788139
vertex 0.244350001215935 -35 0.170000001788139
vertex 0.109999999403954 -36 0.304349988698959
endloop
endfacet
facet normal 1 0 0
outer loop
vertex 0.244350001215935 -35 0.170000001788139
vertex 0.244350001215935 -36 0.170000001788139
vertex 0.244350001215935 -35 -0.0199999995529652
endloop
endfacet
facet normal 1 0 0
outer loop
vertex 0.244350001215935 -36 -0.0199999995529652
vertex 0.244350001215935 -35 -0.0199999995529652
vertex 0.244350001215935 -36 0.170000001788139
endloop
endfacet
facet normal -0 0.00440995721146464 0.999990284442902
outer loop
vertex -0.0799999982118607 -34.9996604919434 0.30434849858284
vertex 0.109999999403954 -34.9996604919434 0.30434849858284
vertex -0.0772072821855545 -33.7778549194336 0.298960357904434
endloop
endfacet
facet normal -1.69914081300274e-16 0.00440995721146464 0.999990284442902
outer loop
vertex 0.107207275927067 -33.7778549194336 0.298960357904434
vertex -0.0772072821855545 -33.7778549194336 0.298960357904434
vertex 0.109999999403954 -34.9996604919434 0.30434849858284
endloop
endfacet
facet normal -1.69914081300274e-16 0.00440995721146464 0.999990284442902
outer loop
vertex 0.107207275927067 -33.7778549194336 0.298960357904434
vertex 0.102672316133976 -31.793830871582 0.290210783481598
vertex -0.0772072821855545 -33.7778549194336 0.298960357904434
endloop
endfacet
facet normal 7.71036939468408e-16 0.00440995674580336 0.999990224838257
outer loop
vertex -0.0726723149418831 -31.793830871582 0.290210783481598
vertex -0.0772072821855545 -33.7778549194336 0.298960357904434
vertex 0.102672316133976 -31.793830871582 0.290210783481598
endloop
endfacet
facet normal 7.71036992407967e-16 0.00440995721146464 0.999990284442902
outer loop
vertex -0.0726723149418831 -31.793830871582 0.290210783481598
vertex 0.102672316133976 -31.793830871582 0.290210783481598
vertex -0.0653082206845284 -28.5720672607422 0.276002824306488
endloop
endfacet
facet normal 7.44194677128156e-16 0.00440995767712593 0.999990344047546
outer loop
vertex 0.0953082218766212 -28.5720672607422 0.276002824306488
vertex -0.0653082206845284 -28.5720672607422 0.276002824306488
vertex 0.102672316133976 -31.793830871582 0.290210783481598
endloop
endfacet
facet normal 7.44194677128156e-16 0.00440995721146464 0.999990284442902
outer loop
vertex 0.0953082218766212 -28.5720672607422 0.276002824306488
vertex 0.0840290561318398 -23.6374816894531 0.254241287708282
vertex -0.0653082206845284 -28.5720672607422 0.276002824306488
endloop
endfacet
facet normal 1.7511453272417e-16 0.00440995721146464 0.999990284442902
outer loop
vertex -0.0540290549397469 -23.6374816894531 0.254241287708282
vertex -0.0653082206845284 -28.5720672607422 0.276002824306488
vertex 0.0840290561318398 -23.6374816894531 0.254241287708282
endloop
endfacet
facet normal 1.7511451948928e-16 0.00440995721146464 0.999990224838257
outer loop
vertex -0.0540290549397469 -23.6374816894531 0.254241287708282
vertex 0.0840290561318398 -23.6374816894531 0.254241287708282
vertex -0.0419795364141464 -18.3658676147461 0.23099347949028
endloop
endfacet
facet normal -4.12445832415875e-16 0.00440995674580336 0.999990284442902
outer loop
vertex 0.0719795376062393 -18.3658676147461 0.23099347949028
vertex -0.0419795364141464 -18.3658676147461 0.23099347949028
vertex 0.0840290561318398 -23.6374816894531 0.254241287708282
endloop
endfacet
facet normal -4.12445832415875e-16 0.00440995674580336 0.999990284442902
outer loop
vertex 0.0719795376062393 -18.3658676147461 0.23099347949028
vertex 0.0599300153553486 -13.0942544937134 0.207745656371117
vertex -0.0419795364141464 -18.3658676147461 0.23099347949028
endloop
endfacet
facet normal -2.61528675184376e-16 0.00440995767712593 0.999990284442902
outer loop
vertex -0.0299300160259008 -13.0942544937134 0.207745656371117
vertex -0.0419795364141464 -18.3658676147461 0.23099347949028
vertex 0.0599300153553486 -13.0942544937134 0.207745656371117
endloop
endfacet
facet normal -2.61528622244817e-16 0.00440995721146464 0.999990284442902
outer loop
vertex -0.0299300160259008 -13.0942544937134 0.207745656371117
vertex 0.0599300153553486 -13.0942544937134 0.207745656371117
vertex -0.0180211290717125 -7.88416767120361 0.184769183397293
endloop
endfacet
facet normal 1.8814461260535e-16 0.00440995721146464 0.999990284442902
outer loop
vertex 0.0480211302638054 -7.88416767120361 0.184769183397293
vertex -0.0180211290717125 -7.88416767120361 0.184769183397293
vertex 0.0599300153553486 -13.0942544937134 0.207745656371117
endloop
endfacet
facet normal 1.8814459937046e-16 0.00440995674580336 0.999990224838257
outer loop
vertex 0.0480211302638054 -7.88416767120361 0.184769183397293
vertex 0.0398803763091564 -4.32262182235718 0.16906276345253
vertex -0.0180211290717125 -7.88416767120361 0.184769183397293
endloop
endfacet
facet normal 6.78254477401582e-18 0.00440995674580336 0.999990224838257
outer loop
vertex -0.00988037418574095 -4.32262182235718 0.16906276345253
vertex -0.0180211290717125 -7.88416767120361 0.184769183397293
vertex 0.0398803763091564 -4.32262182235718 0.16906276345253
endloop
endfacet
facet normal 6.78254477401582e-18 0.00440995674580336 0.999990284442902
outer loop
vertex -0.00988037418574095 -4.32262182235718 0.16906276345253
vertex 0.0398803763091564 -4.32262182235718 0.16906276345253
vertex -0.00530047575011849 -2.31893563270569 0.160226508975029
endloop
endfacet
facet normal -6.35376566152633e-16 0.00440995721146464 0.999990284442902
outer loop
vertex 0.035300474613905 -2.31893563270569 0.160226508975029
vertex -0.00530047575011849 -2.31893563270569 0.160226508975029
vertex 0.0398803763091564 -4.32262182235718 0.16906276345253
endloop
endfacet
facet normal -6.35376460273514e-16 0.00440995674580336 0.999990224838257
outer loop
vertex 0.035300474613905 -2.31893563270569 0.160226508975029
vertex 0.0327238738536835 -1.19168365001678 0.155255317687988
vertex -0.00530047575011849 -2.31893563270569 0.160226508975029
endloop
endfacet
facet normal -0 0.00440995767712593 0.999990284442902
outer loop
vertex -0.00272387498989701 -1.19168365001678 0.155255317687988
vertex -0.00530047575011849 -2.31893563270569 0.160226508975029
vertex 0.0327238738536835 -1.19168365001678 0.155255317687988
endloop
endfacet
facet normal -0 0.00440995674580336 0.999990224838257
outer loop
vertex -0.00272387498989701 -1.19168365001678 0.155255317687988
vertex 0.0327238738536835 -1.19168365001678 0.155255317687988
vertex -0.00127430772408843 -0.557504236698151 0.152458593249321
endloop
endfacet
facet normal -4.01467094279377e-16 0.00440995721146464 0.999990224838257
outer loop
vertex 0.0312743075191975 -0.557504236698151 0.152458593249321
vertex -0.00127430772408843 -0.557504236698151 0.152458593249321
vertex 0.0327238738536835 -1.19168365001678 0.155255317687988
endloop
endfacet
facet normal -4.01467120749157e-16 0.00440995721146464 0.999990284442902
outer loop
vertex 0.0312743075191975 -0.557504236698151 0.152458593249321
vertex 0.0304587967693806 -0.200721830129623 0.150885179638863
vertex -0.00127430772408843 -0.557504236698151 0.152458593249321
endloop
endfacet
facet normal -2.80796546564131e-15 0.00440995721146464 0.999990284442902
outer loop
vertex -0.00045879723620601 -0.200721830129623 0.150885179638863
vertex -0.00127430772408843 -0.557504236698151 0.152458593249321
vertex 0.0304587967693806 -0.200721830129623 0.150885179638863
endloop
endfacet
facet normal -2.80796546564131e-15 0.00440995674580336 0.999990224838257
outer loop
vertex -0.00045879723620601 -0.200721830129623 0.150885179638863
vertex 0.0304587967693806 -0.200721830129623 0.150885179638863
vertex 0 0 0.150000005960464
endloop
endfacet
facet normal 0 0.00440995721146464 0.999990284442902
outer loop
vertex 0.0299999993294477 0 0.150000005960464
vertex 0 0 0.150000005960464
vertex 0.0304587967693806 -0.200721830129623 0.150885179638863
endloop
endfacet
facet normal -0.999981224536896 -0.00612417049705982 0
outer loop
vertex 0.244345977902412 -34.9993438720703 -0.0199999995529652
vertex 0.244345977902412 -34.9993438720703 0.170000001788139
vertex 0.23697067797184 -33.7950706481934 -0.0193118304014206
endloop
endfacet
facet normal -0.999981224536896 -0.00612417049705982 -2.3069667590432e-16
outer loop
vertex 0.23697067797184 -33.7950706481934 0.169311836361885
vertex 0.23697067797184 -33.7950706481934 -0.0193118304014206
vertex 0.244345977902412 -34.9993438720703 0.170000001788139
endloop
endfacet
facet normal -0.999981224536896 -0.00612417096272111 -2.3069667590432e-16
outer loop
vertex 0.23697067797184 -33.7950706481934 0.169311836361885
vertex 0.22536289691925 -31.8997039794922 0.16822874546051
vertex 0.23697067797184 -33.7950706481934 -0.0193118304014206
endloop
endfacet
facet normal -0.999981224536896 -0.00612417049705982 2.97709184600531e-16
outer loop
vertex 0.22536289691925 -31.8997039794922 -0.0182287450879812
vertex 0.23697067797184 -33.7950706481934 -0.0193118304014206
vertex 0.22536289691925 -31.8997039794922 0.16822874546051
endloop
endfacet
facet normal -0.999981224536896 -0.00612417096272111 2.97709211070311e-16
outer loop
vertex 0.22536289691925 -31.8997039794922 0.16822874546051
vertex 0.207093805074692 -28.9166469573975 0.166524112224579
vertex 0.22536289691925 -31.8997039794922 -0.0182287450879812
endloop
endfacet
facet normal -0.999981224536896 -0.00612417049705982 -5.33311167268743e-17
outer loop
vertex 0.207093805074692 -28.9166469573975 -0.0165241081267595
vertex 0.22536289691925 -31.8997039794922 -0.0182287450879812
vertex 0.207093805074692 -28.9166469573975 0.166524112224579
endloop
endfacet
facet normal -0.999981284141541 -0.00612417096272111 -5.33311233443192e-17
outer loop
vertex 0.207093805074692 -28.9166469573975 -0.0165241081267595
vertex 0.207093805074692 -28.9166469573975 0.166524112224579
vertex 0.178994551301003 -24.3284778594971 -0.0139022478833795
endloop
endfacet
facet normal -0.999981224536896 -0.00612417096272111 1.3492637956231e-16
outer loop
vertex 0.178994551301003 -24.3284778594971 0.163902252912521
vertex 0.178994551301003 -24.3284778594971 -0.0139022478833795
vertex 0.207093805074692 -28.9166469573975 0.166524112224579
endloop
endfacet
facet normal -0.999981284141541 -0.00612417096272111 1.349263927972e-16
outer loop
vertex 0.178994551301003 -24.3284778594971 -0.0139022478833795
vertex 0.178994551301003 -24.3284778594971 0.163902252912521
vertex 0.147768244147301 -19.2297115325928 -0.0109886126592755
endloop
endfacet
facet normal -0.999981224536896 -0.00612417096272111 1.29848149037002e-17
outer loop
vertex 0.147768244147301 -19.2297115325928 0.160988613963127
vertex 0.147768244147301 -19.2297115325928 -0.0109886126592755
vertex 0.178994551301003 -24.3284778594971 0.163902252912521
endloop
endfacet
facet normal -0.999981224536896 -0.00612417096272111 1.29848149037002e-17
outer loop
vertex 0.147768244147301 -19.2297115325928 0.160988613963127
vertex 0.116541959345341 -14.1309471130371 0.158074975013733
vertex 0.147768244147301 -19.2297115325928 -0.0109886126592755
endloop
endfacet
facet normal -0.999981224536896 -0.00612417096272111 7.89154855096169e-17
outer loop
vertex 0.116541959345341 -14.1309471130371 -0.00807497836649418
vertex 0.147768244147301 -19.2297115325928 -0.0109886126592755
vertex 0.116541959345341 -14.1309471130371 0.158074975013733
endloop
endfacet
facet normal -0.999981224536896 -0.00612417096272111 7.89154855096169e-17
outer loop
vertex 0.116541959345341 -14.1309471130371 -0.00807497836649418
vertex 0.116541959345341 -14.1309471130371 0.158074975013733
vertex 0.0853156596422195 -9.03218173980713 -0.00516134360805154
endloop
endfacet
facet normal -0.999981284141541 -0.00612417096272111 2.56692375135905e-17
outer loop
vertex 0.0853156596422195 -9.03218173980713 0.155161336064339
vertex 0.0853156596422195 -9.03218173980713 -0.00516134360805154
vertex 0.116541959345341 -14.1309471130371 0.158074975013733
endloop
endfacet
facet normal -0.999981224536896 -0.00612417049705982 2.56692375135905e-17
outer loop
vertex 0.0853156596422195 -9.03218173980713 -0.00516134360805154
vertex 0.0853156596422195 -9.03218173980713 0.155161336064339
vertex 0.0607250742614269 -5.01692342758179 -0.00286686723120511
endloop
endfacet
facet normal -0.999981224536896 -0.00612417096272111 -4.09705105113801e-17
outer loop
vertex 0.0607250742614269 -5.01692342758179 0.152866870164871
vertex 0.0607250742614269 -5.01692342758179 -0.00286686723120511
vertex 0.0853156596422195 -9.03218173980713 0.155161336064339
endloop
endfacet
facet normal -0.999981224536896 -0.00612417049705982 -4.09705105113801e-17
outer loop
vertex 0.0607250742614269 -5.01692342758179 0.152866870164871
vertex 0.0454319082200527 -2.51978874206543 0.151439905166626
vertex 0.0607250742614269 -5.01692342758179 -0.00286686723120511
endloop
endfacet
facet normal -0.999981284141541 -0.00612417096272111 -5.1543093040947e-17
outer loop
vertex 0.0454319082200527 -2.51978874206543 -0.00143990630749613
vertex 0.0607250742614269 -5.01692342758179 -0.00286686723120511
vertex 0.0454319082200527 -2.51978874206543 0.151439905166626
endloop
endfacet
facet normal -0.999981224536896 -0.00612417096272111 -5.15430897322246e-17
outer loop
vertex 0.0454319082200527 -2.51978874206543 -0.00143990630749613
vertex 0.0454319082200527 -2.51978874206543 0.151439905166626
vertex 0.0359182767570019 -0.96636176109314 -0.000552217068616301
endloop
endfacet
facet normal -0.999981284141541 -0.00612417096272111 -5.30723448527657e-17
outer loop
vertex 0.0359182767570019 -0.96636176109314 0.150552213191986
vertex 0.0359182767570019 -0.96636176109314 -0.000552217068616301
vertex 0.0454319082200527 -2.51978874206543 0.151439905166626
endloop
endfacet
facet normal -0.999981224536896 -0.00612417049705982 -5.30723415440432e-17
outer loop
vertex 0.0359182767570019 -0.96636176109314 0.150552213191986
vertex 0.0299999993294477 0 0.150000005960464
vertex 0.0359182767570019 -0.96636176109314 -0.000552217068616301
endloop
endfacet
facet normal -0.999981284141541 -0.00612417096272111 0
outer loop
vertex 0.0299999993294477 0 0
vertex 0.0359182767570019 -0.96636176109314 -0.000552217068616301
vertex 0.0299999993294477 0 0.150000005960464
endloop
endfacet
facet normal 0.707098841667175 0.0047345319762826 0.707098841667175
outer loop
vertex 0.244349822402 -34.9998550415039 0.169999197125435
vertex 0.235701948404312 -33.5877952575684 0.169192343950272
vertex 0.109999015927315 -34.999568939209 0.304348081350327
endloop
endfacet
facet normal 0.70709890127182 0.0047345319762826 0.70709890127182
outer loop
vertex 0.10677145421505 -33.5875129699707 0.29812091588974
vertex 0.109999015927315 -34.999568939209 0.304348081350327
vertex 0.235701948404312 -33.5877952575684 0.169192343950272
endloop
endfacet
facet normal 0.707098841667175 0.0047345319762826 0.707098841667175
outer loop
vertex 0.235701948404312 -33.5877952575684 0.169192343950272
vertex 0.217510357499123 -30.6174049377441 0.167495042085648
vertex 0.10677145421505 -33.5875129699707 0.29812091588974
endloop
endfacet
facet normal 0.707098841667175 0.00473453151062131 0.707098841667175
outer loop
vertex 0.0999820753931999 -30.6171588897705 0.285021662712097
vertex 0.10677145421505 -33.5875129699707 0.29812091588974
vertex 0.217510357499123 -30.6174049377441 0.167495042085648
endloop
endfacet
facet normal 0.707098841667175 0.0047345319762826 0.707098841667175
outer loop
vertex 0.0999820753931999 -30.6171588897705 0.285021662712097
vertex 0.217510357499123 -30.6174049377441 0.167495042085648
vertex 0.0885541662573814 -25.6174488067627 0.262972950935364
endloop
endfacet
facet normal 0.70709890127182 0.0047345319762826 0.70709890127182
outer loop
vertex 0.18689027428627 -25.6176414489746 0.164638131856918
vertex 0.0885541662573814 -25.6174488067627 0.262972950935364
vertex 0.217510357499123 -30.6174049377441 0.167495042085648
endloop
endfacet
facet normal 0.707098841667175 0.0047345319762826 0.707098841667175
outer loop
vertex 0.18689027428627 -25.6176414489746 0.164638131856918
vertex 0.155512228608131 -20.4941139221191 0.161710500717163
vertex 0.0885541662573814 -25.6174488067627 0.262972950935364
endloop
endfacet
facet normal 0.707098841667175 0.00473453151062131 0.707098841667175
outer loop
vertex 0.076843336224556 -20.4939575195313 0.240378350019455
vertex 0.0885541662573814 -25.6174488067627 0.262972950935364
vertex 0.155512228608131 -20.4941139221191 0.161710500717163
endloop
endfacet
facet normal 0.707098841667175 0.00473453151062131 0.707098841667175
outer loop
vertex 0.076843336224556 -20.4939575195313 0.240378350019455
vertex 0.155512228608131 -20.4941139221191 0.161710500717163
vertex 0.0651324987411499 -15.3704690933228 0.217783764004707
endloop
endfacet
facet normal 0.707098841667175 0.0047345319762826 0.707098841667175
outer loop
vertex 0.124134168028831 -15.370584487915 0.158782884478569
vertex 0.0651324987411499 -15.3704690933228 0.217783764004707
vertex 0.155512228608131 -20.4941139221191 0.161710500717163
endloop
endfacet
facet normal 0.707098841667175 0.0047345319762826 0.707098841667175
outer loop
vertex 0.124134168028831 -15.370584487915 0.158782884478569
vertex 0.0927561074495316 -10.2470569610596 0.155855253338814
vertex 0.0651324987411499 -15.3704690933228 0.217783764004707
endloop
endfacet
facet normal 0.707098841667175 0.00473453151062131 0.707098841667175
outer loop
vertex 0.0534216649830341 -10.2469787597656 0.19518917798996
vertex 0.0651324987411499 -15.3704690933228 0.217783764004707
vertex 0.0927561074495316 -10.2470569610596 0.155855253338814
endloop
endfacet
facet normal 0.707098841667175 0.00473453151062131 0.707098841667175
outer loop
vertex 0.0534216649830341 -10.2469787597656 0.19518917798996
vertex 0.0927561074495316 -10.2470569610596 0.155855253338814
vertex 0.0417108349502087 -5.12348937988281 0.172594591975212
endloop
endfacet
facet normal 0.707098841667175 0.00473453151062131 0.707098841667175
outer loop
vertex 0.0613780543208122 -5.12352848052979 0.152927622199059
vertex 0.0417108349502087 -5.12348937988281 0.172594591975212
vertex 0.0927561074495316 -10.2470569610596 0.155855253338814
endloop
endfacet
facet normal 0.707098841667175 0.00473453151062131 0.707098841667175
outer loop
vertex 0.0417108349502087 -5.12348937988281 0.172594591975212
vertex 0.0613780543208122 -5.12352848052979 0.152927622199059
vertex 0.0299999993294477 0 0.150000005960464
endloop
endfacet
facet normal 0.707100093364716 0.00433048326522112 -0.707100093364716
outer loop
vertex 0.275723487138748 -40.1227989196777 -0.0199999995529652
vertex 0.256056904792786 -40.122917175293 -0.039667297154665
vertex 0.244345977902412 -34.9993438720703 -0.0199999995529652
endloop
endfacet
facet normal 0.707100093364716 0.00433048326522112 -0.707100093364716
outer loop
vertex 0.307101011276245 -45.2462577819824 -0.0199999995529652
vertex 0.26776784658432 -45.2464904785156 -0.0593345910310745
vertex 0.275723487138748 -40.1227989196777 -0.0199999995529652
endloop
endfacet
facet normal 0.707100093364716 0.00433048326522112 -0.707100093364716
outer loop
vertex 0.256056904792786 -40.122917175293 -0.039667297154665
vertex 0.275723487138748 -40.1227989196777 -0.0199999995529652
vertex 0.26776784658432 -45.2464904785156 -0.0593345910310745
endloop
endfacet
facet normal 0.707100093364716 0.00433048326522112 -0.707100093364716
outer loop
vertex 0.307101011276245 -45.2462577819824 -0.0199999995529652
vertex 0.33847850561142 -50.3697128295898 -0.0199999995529652
vertex 0.26776784658432 -45.2464904785156 -0.0593345910310745
endloop
endfacet
facet normal 0.70710015296936 0.00433048326522112 -0.70710015296936
outer loop
vertex 0.279478788375854 -50.3700675964355 -0.0790018886327744
vertex 0.26776784658432 -45.2464904785156 -0.0593345910310745
vertex 0.33847850561142 -50.3697128295898 -0.0199999995529652
endloop
endfacet
facet normal 0.70710015296936 0.00433048326522112 -0.70710015296936
outer loop
vertex 0.279478788375854 -50.3700675964355 -0.0790018886327744
vertex 0.33847850561142 -50.3697128295898 -0.0199999995529652
vertex 0.291189730167389 -55.4936408996582 -0.0986691862344742
endloop
endfacet
facet normal 0.707100093364716 0.00433048326522112 -0.707100093364716
outer loop
vertex 0.369856029748917 -55.4931716918945 -0.0199999995529652
vertex 0.291189730167389 -55.4936408996582 -0.0986691862344742
vertex 0.33847850561142 -50.3697128295898 -0.0199999995529652
endloop
endfacet
facet normal 0.707100093364716 0.00433048326522112 -0.707100093364716
outer loop
vertex 0.369856029748917 -55.4931716918945 -0.0199999995529652
vertex 0.401233553886414 -60.616626739502 -0.0199999995529652
vertex 0.291189730167389 -55.4936408996582 -0.0986691862344742
endloop
endfacet
facet normal 0.70710015296936 0.00433048373088241 -0.70710015296936
outer loop
vertex 0.302900671958923 -60.6172142028809 -0.118336476385593
vertex 0.291189730167389 -55.4936408996582 -0.0986691862344742
vertex 0.401233553886414 -60.616626739502 -0.0199999995529652
endloop
endfacet
facet normal 0.70710015296936 0.00433048326522112 -0.70710015296936
outer loop
vertex 0.431852996349335 -65.6163101196289 -0.0199999995529652
vertex 0.314328700304031 -65.6170196533203 -0.13752868771553
vertex 0.401233553886414 -60.616626739502 -0.0199999995529652
endloop
endfacet
facet normal 0.70710015296936 0.00433048373088241 -0.70710015296936
outer loop
vertex 0.302900671958923 -60.6172142028809 -0.118336476385593
vertex 0.401233553886414 -60.616626739502 -0.0199999995529652
vertex 0.314328700304031 -65.6170196533203 -0.13752868771553
endloop
endfacet
facet normal 0.70710015296936 0.00433048326522112 -0.70710015296936
outer loop
vertex 0.431852996349335 -65.6163101196289 -0.0199999995529652
vertex 0.450044184923172 -68.5866394042969 -0.0199999995529652
vertex 0.314328700304031 -65.6170196533203 -0.13752868771553
endloop
endfacet
facet normal 0.70710015296936 0.00433048373088241 -0.70710015296936
outer loop
vertex 0.321118175983429 -68.5874404907227 -0.148930907249451
vertex 0.314328700304031 -65.6170196533203 -0.13752868771553
vertex 0.450044184923172 -68.5866394042969 -0.0199999995529652
endloop
endfacet
facet normal 0.70710015296936 0.00433048373088241 -0.70710015296936
outer loop
vertex 0.450044184923172 -68.5866394042969 -0.0199999995529652
vertex 0.458691954612732 -69.9986877441406 -0.0199999995529652
vertex 0.321118175983429 -68.5874404907227 -0.148930907249451
endloop
endfacet
facet normal 0.70710015296936 0.00433048373088241 -0.70710015296936
outer loop
vertex 0.324345737695694 -69.99951171875 -0.154351264238358
vertex 0.321118175983429 -68.5874404907227 -0.148930907249451
vertex 0.458691954612732 -69.9986877441406 -0.0199999995529652
endloop
endfacet
facet normal 0.22244681417942 0.67121297121048 -0.70710015296936
outer loop
vertex 61.984504699707 -61.3763465881348 -0.234345734119415
vertex 61.9406776428223 -61.5033531188965 -0.368691951036453
vertex 60.645133972168 -60.929069519043 -0.23111817240715
endloop
endfacet
facet normal 0.22244681417942 0.67121297121048 -0.70710015296936
outer loop
vertex 60.6030654907227 -61.0509452819824 -0.360044181346893
vertex 60.645133972168 -60.929069519043 -0.23111817240715
vertex 61.9406776428223 -61.5033531188965 -0.368691951036453
endloop
endfacet
facet normal 0.222446799278259 0.671212911605835 -0.70710015296936
outer loop
vertex 60.645133972168 -60.929069519043 -0.23111817240715
vertex 60.6030654907227 -61.0509452819824 -0.360044181346893
vertex 57.8276481628418 -59.9881706237793 -0.224328696727753
endloop
endfacet
facet normal 0.22244681417942 0.671212911605835 -0.70710015296936
outer loop
vertex 57.7893142700195 -60.0992736816406 -0.341853022575378
vertex 57.8276481628418 -59.9881706237793 -0.224328696727753
vertex 60.6030654907227 -61.0509452819824 -0.360044181346893
endloop
endfacet
facet normal 0.22244681417942 0.671212911605835 -0.70710015296936
outer loop
vertex 57.7893142700195 -60.0992736816406 -0.341853022575378
vertex 53.0531921386719 -58.4974212646484 -0.311233550310135
vertex 57.8276481628418 -59.9881706237793 -0.224328696727753
endloop
endfacet
facet normal 0.22244681417942 0.67121297121048 -0.70710015296936
outer loop
vertex 53.0852546691895 -58.4044532775879 -0.212900653481483
vertex 57.8276481628418 -59.9881706237793 -0.224328696727753
vertex 53.0531921386719 -58.4974212646484 -0.311233550310135
endloop
endfacet
facet normal 0.222446829080582 0.67121297121048 -0.70710015296936
outer loop
vertex 53.0852546691895 -58.4044532775879 -0.212900653481483
vertex 53.0531921386719 -58.4974212646484 -0.311233550310135
vertex 48.2254676818848 -56.7815361022949 -0.20118972659111
endloop
endfacet
facet normal 0.22244681417942 0.671212911605835 -0.707100093364716
outer loop
vertex 48.1998176574707 -56.8559074401855 -0.279856026172638
vertex 48.2254676818848 -56.7815361022949 -0.20118972659111
vertex 53.0531921386719 -58.4974212646484 -0.311233550310135
endloop
endfacet
facet normal 0.22244681417942 0.671212911605835 -0.707100093364716
outer loop
vertex 48.1998176574707 -56.8559074401855 -0.279856026172638
vertex 43.3464431762695 -55.2143936157227 -0.248478516936302
vertex 48.2254676818848 -56.7815361022949 -0.20118972659111
endloop
endfacet
facet normal 0.222446799278259 0.67121285200119 -0.70710015296936
outer loop
vertex 43.3656806945801 -55.1586151123047 -0.189478784799576
vertex 48.2254676818848 -56.7815361022949 -0.20118972659111
vertex 43.3464431762695 -55.2143936157227 -0.248478516936302
endloop
endfacet
facet normal 0.222446799278259 0.67121285200119 -0.70710015296936
outer loop
vertex 43.3656806945801 -55.1586151123047 -0.189478784799576
vertex 43.3464431762695 -55.2143936157227 -0.248478516936302
vertex 38.5058937072754 -53.5356941223145 -0.177767857909203
endloop
endfacet
facet normal 0.22244681417942 0.671212911605835 -0.707100093364716
outer loop
vertex 38.4930686950684 -53.5728797912598 -0.217101007699966
vertex 38.5058937072754 -53.5356941223145 -0.177767857909203
vertex 43.3464431762695 -55.2143936157227 -0.248478516936302
endloop
endfacet
facet normal 0.22244681417942 0.671212911605835 -0.707100093364716
outer loop
vertex 38.4930686950684 -53.5728797912598 -0.217101007699966
vertex 33.6396942138672 -51.9313659667969 -0.185723498463631
vertex 38.5058937072754 -53.5356941223145 -0.177767857909203
endloop
endfacet
facet normal 0.22244681417942 0.671212911605835 -0.707100093364716
outer loop
vertex 33.6461067199707 -51.9127731323242 -0.166056916117668
vertex 38.5058937072754 -53.5356941223145 -0.177767857909203
vertex 33.6396942138672 -51.9313659667969 -0.185723498463631
endloop
endfacet
facet normal 0.22244681417942 0.671212911605835 -0.707100093364716
outer loop
vertex 33.6396942138672 -51.9313659667969 -0.185723498463631
vertex 28.786319732666 -50.2898559570313 -0.154345974326134
vertex 33.6461067199707 -51.9127731323242 -0.166056916117668
endloop
endfacet
endsolid COMSOL mesh mesh1
