solid COMSOL mesh mesh1
facet normal -0.0104499030858278 0.999945402145386 0
outer loop
vertex 0 0 0
vertex -0.968125760555267 -0.0101173724979162 -0.000414933689171448
vertex 0 0 0.150000005960464
endloop
endfacet
facet normal -0.0104499030858278 0.999945402145386 1.65782396858632e-17
outer loop
vertex -0.968125760555267 -0.0101173724979162 0.150414928793907
vertex 0 0 0.150000005960464
vertex -0.968125760555267 -0.0101173724979162 -0.000414933689171448
endloop
endfacet
facet normal -0.0104499021545053 0.999945342540741 1.6578238031502e-17
outer loop
vertex -0.968125760555267 -0.0101173724979162 0.150414928793907
vertex -0.968125760555267 -0.0101173724979162 -0.000414933689171448
vertex -2.53418302536011 -0.0264834128320217 0.151086136698723
endloop
endfacet
facet normal -0.0104499021545053 0.999945402145386 2.25022607331455e-17
outer loop
vertex -2.53418302536011 -0.0264834128320217 -0.00108613772317767
vertex -2.53418302536011 -0.0264834128320217 0.151086136698723
vertex -0.968125760555267 -0.0101173724979162 -0.000414933689171448
endloop
endfacet
facet normal -0.0104499030858278 0.999945402145386 4.55385360348654e-17
outer loop
vertex -5.06746482849121 -0.0529574044048786 0.152171894907951
vertex -2.53418302536011 -0.0264834128320217 0.151086136698723
vertex -5.06746482849121 -0.0529574044048786 -0.00217188918031752
endloop
endfacet
facet normal -0.0104499040171504 0.999945402145386 2.25022623875067e-17
outer loop
vertex -2.53418302536011 -0.0264834128320217 -0.00108613772317767
vertex -5.06746482849121 -0.0529574044048786 -0.00217188918031752
vertex -2.53418302536011 -0.0264834128320217 0.151086136698723
endloop
endfacet
facet normal -0.0104499021545053 0.999945342540741 4.5538532726143e-17
outer loop
vertex -5.06746482849121 -0.0529574044048786 0.152171894907951
vertex -5.06746482849121 -0.0529574044048786 -0.00217188918031752
vertex -9.16619491577148 -0.0957910716533661 0.153928577899933
endloop
endfacet
facet normal -0.0104499030858278 0.999945402145386 5.93666533012573e-17
outer loop
vertex -9.16619491577148 -0.0957910716533661 -0.00392858358100057
vertex -9.16619491577148 -0.0957910716533661 0.153928577899933
vertex -5.06746482849121 -0.0529574044048786 -0.00217188918031752
endloop
endfacet
facet normal -0.0104499030858278 0.999945402145386 -1.11027376801983e-18
outer loop
vertex -14.298360824585 -0.149424642324448 -0.00612820358946919
vertex -14.298360824585 -0.149424642324448 0.156128197908401
vertex -9.16619491577148 -0.0957910716533661 -0.00392858358100057
endloop
endfacet
facet normal -0.0104499040171504 0.999945402145386 5.93666599187022e-17
outer loop
vertex -9.16619491577148 -0.0957910716533661 0.153928577899933
vertex -9.16619491577148 -0.0957910716533661 -0.00392858358100057
vertex -14.298360824585 -0.149424642324448 0.156128197908401
endloop
endfacet
facet normal -0.0104499030858278 0.999945402145386 -1.11027376801983e-18
outer loop
vertex -14.298360824585 -0.149424642324448 -0.00612820358946919
vertex -19.4305286407471 -0.203058212995529 -0.00832782406359911
vertex -14.298360824585 -0.149424642324448 0.156128197908401
endloop
endfacet
facet normal -0.0104499040171504 0.999945461750031 -1.12464865746139e-16
outer loop
vertex -19.4305286407471 -0.203058212995529 0.15832781791687
vertex -14.298360824585 -0.149424642324448 0.156128197908401
vertex -19.4305286407471 -0.203058212995529 -0.00832782406359911
endloop
endfacet
facet normal -0.0104499030858278 0.999945402145386 0
outer loop
vertex -24.5626945495605 -0.256691783666611 -0.0105274440720677
vertex -24.5626945495605 -0.256691783666611 0.160527437925339
vertex -19.4305286407471 -0.203058212995529 -0.00832782406359911
endloop
endfacet
facet normal -0.0104499040171504 0.999945461750031 -1.12464865746139e-16
outer loop
vertex -19.4305286407471 -0.203058212995529 0.15832781791687
vertex -19.4305286407471 -0.203058212995529 -0.00832782406359911
vertex -24.5626945495605 -0.256691783666611 0.160527437925339
endloop
endfacet
facet normal -0.0104499012231827 0.999945342540741 0
outer loop
vertex -29.1116924285889 -0.304230958223343 -0.0124771203845739
vertex -29.1116924285889 -0.304230958223343 0.162477120757103
vertex -24.5626945495605 -0.256691783666611 -0.0105274440720677
endloop
endfacet
facet normal -0.0104499021545053 0.999945402145386 0
outer loop
vertex -24.5626945495605 -0.256691783666611 0.160527437925339
vertex -24.5626945495605 -0.256691783666611 -0.0105274440720677
vertex -29.1116924285889 -0.304230958223343 0.162477120757103
endloop
endfacet
facet normal -0.0104499030858278 0.999945461750031 0
outer loop
vertex -29.1116924285889 -0.304230958223343 -0.0124771203845739
vertex -32.0216445922852 -0.334641367197037 -0.0137243112549186
vertex -29.1116924285889 -0.304230958223343 0.162477120757103
endloop
endfacet
facet normal -0.0104499021545053 0.999945402145386 0
outer loop
vertex -32.0216445922852 -0.334641367197037 0.163724318146706
vertex -29.1116924285889 -0.304230958223343 0.162477120757103
vertex -32.0216445922852 -0.334641367197037 -0.0137243112549186
endloop
endfacet
facet normal -0.0104499021545053 0.999945342540741 -1.04699830168528e-16
outer loop
vertex -33.8496971130371 -0.353745341300964 0.164507806301117
vertex -32.0216445922852 -0.334641367197037 0.163724318146706
vertex -33.8496971130371 -0.353745341300964 -0.0145078049972653
endloop
endfacet
facet normal -0.0104499030858278 0.999945402145386 0
outer loop
vertex -32.0216445922852 -0.334641367197037 -0.0137243112549186
vertex -33.8496971130371 -0.353745341300964 -0.0145078049972653
vertex -32.0216445922852 -0.334641367197037 0.163724318146706
endloop
endfacet
facet normal -0.0104499030858278 0.999945342540741 -1.04699836785973e-16
outer loop
vertex -33.8496971130371 -0.353745341300964 0.164507806301117
vertex -33.8496971130371 -0.353745341300964 -0.0145078049972653
vertex -34.9980888366699 -0.365746587514877 0.165000006556511
endloop
endfacet
facet normal -0.0104499030858278 0.999945461750031 0
outer loop
vertex -34.9980888366699 -0.365746587514877 -0.0149999996647239
vertex -34.9980888366699 -0.365746587514877 0.165000006556511
vertex -33.8496971130371 -0.353745341300964 -0.0145078049972653
endloop
endfacet
facet normal 0.00038611760828644 0.00406428193673491 0.999991714954376
outer loop
vertex -31.3399848937988 -3.99356555938721 0.178332135081291
vertex -31.3213291168213 -3.97475051879883 0.178248450160027
vertex -34.9980888366699 -0.365746587514877 0.165000006556511
endloop
endfacet
facet normal 0.00038611760828644 0.00406428193673491 0.999991714954376
outer loop
vertex -27.6818809509277 -7.6213846206665 0.191664263606071
vertex -27.6445693969727 -7.58375406265259 0.191496908664703
vertex -31.3399848937988 -3.99356555938721 0.178332135081291
endloop
endfacet
facet normal 0.00038611760828644 0.00406428193673491 0.999991714954376
outer loop
vertex -31.3213291168213 -3.97475051879883 0.178248450160027
vertex -31.3399848937988 -3.99356555938721 0.178332135081291
vertex -27.6445693969727 -7.58375406265259 0.191496908664703
endloop
endfacet
facet normal 0.00038611760828644 0.00406428193673491 0.999991714954376
outer loop
vertex -27.6818809509277 -7.6213846206665 0.191664263606071
vertex -24.0237770080566 -11.2492036819458 0.204996392130852
vertex -27.6445693969727 -7.58375406265259 0.191496908664703
endloop
endfacet
facet normal 0.00038611757918261 0.00406428147107363 0.999991655349731
outer loop
vertex -23.967809677124 -11.1927585601807 0.20474536716938
vertex -27.6445693969727 -7.58375406265259 0.191496908664703
vertex -24.0237770080566 -11.2492036819458 0.204996392130852
endloop
endfacet
facet normal 0.00038611760828644 0.00406428193673491 0.999991714954376
outer loop
vertex -20.3656730651855 -14.8770217895508 0.218328520655632
vertex -20.291051864624 -14.8017616271973 0.217993825674057
vertex -24.0237770080566 -11.2492036819458 0.204996392130852
endloop
endfacet
facet normal 0.00038611757918261 0.00406428147107363 0.999991655349731
outer loop
vertex -23.967809677124 -11.1927585601807 0.20474536716938
vertex -24.0237770080566 -11.2492036819458 0.204996392130852
vertex -20.291051864624 -14.8017616271973 0.217993825674057
endloop
endfacet
facet normal 0.00038611760828644 0.00406428193673491 0.999991714954376
outer loop
vertex -20.3656730651855 -14.8770217895508 0.218328520655632
vertex -16.7075691223145 -18.5048408508301 0.231660649180412
vertex -20.291051864624 -14.8017616271973 0.217993825674057
endloop
endfacet
facet normal 0.00038611760828644 0.00406428147107363 0.999991595745087
outer loop
vertex -16.6142921447754 -18.4107666015625 0.231242284178734
vertex -20.291051864624 -14.8017616271973 0.217993825674057
vertex -16.7075691223145 -18.5048408508301 0.231660649180412
endloop
endfacet
facet normal 0.00038611760828644 0.00406428193673491 0.999991714954376
outer loop
vertex -13.1588506698608 -22.0241794586182 0.244594126939774
vertex -13.0474643707275 -21.9118633270264 0.244094625115395
vertex -16.7075691223145 -18.5048408508301 0.231660649180412
endloop
endfacet
facet normal 0.00038611760828644 0.00406428193673491 0.999991714954376
outer loop
vertex -16.6142921447754 -18.4107666015625 0.231242284178734
vertex -16.7075691223145 -18.5048408508301 0.231660649180412
vertex -13.0474643707275 -21.9118633270264 0.244094625115395
endloop
endfacet
facet normal 0.00038611757918261 0.00406428147107363 0.999991655349731
outer loop
vertex -13.1588506698608 -22.0241794586182 0.244594126939774
vertex -11.1061239242554 -24.0599117279053 0.252075374126434
vertex -13.0474643707275 -21.9118633270264 0.244094625115395
endloop
endfacet
facet normal 0.00038611760828644 0.00406428147107363 0.999991655349731
outer loop
vertex -10.9842596054077 -23.937047958374 0.251528948545456
vertex -13.0474643707275 -21.9118633270264 0.244094625115395
vertex -11.1061239242554 -24.0599117279053 0.252075374126434
endloop
endfacet
facet normal 0.00038611757918261 0.00406428147107363 0.999991655349731
outer loop
vertex -11.1061239242554 -24.0599117279053 0.252075374126434
vertex -10.1467771530151 -25.0113162994385 0.255571752786636
vertex -10.9842596054077 -23.937047958374 0.251528948545456
endloop
endfacet
facet normal 0.00038611757918261 0.00406428147107363 0.999991655349731
outer loop
vertex -10.0200271606445 -24.8835105895996 0.255003362894058
vertex -10.9842596054077 -23.937047958374 0.251528948545456
vertex -10.1467771530151 -25.0113162994385 0.255571752786636
endloop
endfacet
facet normal -0.707113564014435 0.00378367374651134 0.707089900970459
outer loop
vertex -3.64296793937683 -0.0115753477439284 -3.64302825927734
vertex -3.64299488067627 -0.038071021437645 -3.64291334152222
vertex 0 0 0
endloop
endfacet
facet normal -0.707113564014435 0.00378367374651134 0.707089900970459
outer loop
vertex -7.28593587875366 -0.0231506954878569 -7.28605651855469
vertex -7.28598976135254 -0.0761420428752899 -7.28582668304443
vertex -3.64296793937683 -0.0115753477439284 -3.64302825927734
endloop
endfacet
facet normal -0.707113564014435 0.00378367374651134 0.707089900970459
outer loop
vertex -3.64299488067627 -0.038071021437645 -3.64291334152222
vertex -3.64296793937683 -0.0115753477439284 -3.64302825927734
vertex -7.28598976135254 -0.0761420428752899 -7.28582668304443
endloop
endfacet
facet normal -0.707113564014435 0.00378367374651134 0.707089900970459
outer loop
vertex -7.28593587875366 -0.0231506954878569 -7.28605651855469
vertex -10.9289045333862 -0.0347260423004627 -10.929084777832
vertex -7.28598976135254 -0.0761420428752899 -7.28582668304443
endloop
endfacet
facet normal -0.70711362361908 0.00378367397934198 0.707089841365814
outer loop
vertex -10.9289846420288 -0.114213064312935 -10.9287395477295
vertex -7.28598976135254 -0.0761420428752899 -7.28582668304443
vertex -10.9289045333862 -0.0347260423004627 -10.929084777832
endloop
endfacet
facet normal -0.707113564014435 0.00378367374651134 0.707089900970459
outer loop
vertex -14.5718717575073 -0.0463013909757137 -14.5721130371094
vertex -14.5719795227051 -0.15228408575058 -14.5716533660889
vertex -10.9289045333862 -0.0347260423004627 -10.929084777832
endloop
endfacet
facet normal -0.70711362361908 0.00378367397934198 0.707089841365814
outer loop
vertex -10.9289846420288 -0.114213064312935 -10.9287395477295
vertex -10.9289045333862 -0.0347260423004627 -10.929084777832
vertex -14.5719795227051 -0.15228408575058 -14.5716533660889
endloop
endfacet
facet normal -0.707113564014435 0.00378367374651134 0.707089900970459
outer loop
vertex -14.5718717575073 -0.0463013909757137 -14.5721130371094
vertex -18.2148399353027 -0.0578767396509647 -18.2151412963867
vertex -14.5719795227051 -0.15228408575058 -14.5716533660889
endloop
endfacet
facet normal -0.707113564014435 0.00378367397934198 0.707089900970459
outer loop
vertex -18.214973449707 -0.190355107188225 -18.2145671844482
vertex -14.5719795227051 -0.15228408575058 -14.5716533660889
vertex -18.2148399353027 -0.0578767396509647 -18.2151412963867
endloop
endfacet
facet normal -0.707113564014435 0.00378367397934198 0.707089900970459
outer loop
vertex -21.748872756958 -0.0691059455275536 -21.7492332458496
vertex -21.7490425109863 -0.227287799119949 -21.748556137085
vertex -18.2148399353027 -0.0578767396509647 -18.2151412963867
endloop
endfacet
facet normal -0.707113564014435 0.00378367374651134 0.707089841365814
outer loop
vertex -18.214973449707 -0.190355107188225 -18.2145671844482
vertex -18.2148399353027 -0.0578767396509647 -18.2151412963867
vertex -21.7490425109863 -0.227287799119949 -21.748556137085
endloop
endfacet
facet normal -0.70711362361908 0.00378367397934198 0.707089900970459
outer loop
vertex -21.748872756958 -0.0691059455275536 -21.7492332458496
vertex -23.793098449707 -0.0756013691425323 -23.7934913635254
vertex -21.7490425109863 -0.227287799119949 -21.748556137085
endloop
endfacet
facet normal -0.70711362361908 0.00378367397934198 0.707089841365814
outer loop
vertex -23.7932929992676 -0.248651191592216 -23.792760848999
vertex -21.7490425109863 -0.227287799119949 -21.748556137085
vertex -23.793098449707 -0.0756013691425323 -23.7934913635254
endloop
endfacet
facet normal -0.707113564014435 0.00378367397934198 0.707089900970459
outer loop
vertex -23.793098449707 -0.0756013691425323 -23.7934913635254
vertex -24.7484703063965 -0.0786370187997818 -24.7488803863525
vertex -23.7932929992676 -0.248651191592216 -23.792760848999
endloop
endfacet
facet normal -0.707113564014435 0.00378367374651134 0.707089841365814
outer loop
vertex -24.748664855957 -0.258635282516479 -24.7481117248535
vertex -23.7932929992676 -0.248651191592216 -23.792760848999
vertex -24.7484703063965 -0.0786370187997818 -24.7488803863525
endloop
endfacet
facet normal 0.707095861434937 0.00499575026333332 -0.707100093364716
outer loop
vertex 0.000199093163246289 -0.0299993362277746 -1.28570736706024e-05
vertex -0.14092592895031 -0.0313031412661076 -0.141146257519722
vertex 0 0 0
endloop
endfacet
facet normal 0.707095861434937 0.00499575026333332 -0.707100033760071
outer loop
vertex -0.141130700707436 -0.000448435690486804 -0.141133025288582
vertex 0 0 0
vertex -0.14092592895031 -0.0313031412661076 -0.141146257519722
endloop
endfacet
facet normal 0.707095861434937 0.00499575026333332 -0.707100033760071
outer loop
vertex -0.141130700707436 -0.000448435690486804 -0.141133025288582
vertex -0.14092592895031 -0.0313031412661076 -0.141146257519722
vertex -0.39355480670929 -0.00125050055794418 -0.39356130361557
endloop
endfacet
facet normal 0.707095980644226 0.00499575072899461 -0.707100093364716
outer loop
vertex -0.393339872360229 -0.0336351059377193 -0.393575191497803
vertex -0.39355480670929 -0.00125050055794418 -0.39356130361557
vertex -0.14092592895031 -0.0313031412661076 -0.141146257519722
endloop
endfacet
facet normal 0.707095861434937 0.00499575026333332 -0.707100033760071
outer loop
vertex -0.845036506652832 -0.00268506095744669 -0.845050513744354
vertex -0.39355480670929 -0.00125050055794418 -0.39356130361557
vertex -0.84480345249176 -0.0378060229122639 -0.845065534114838
endloop
endfacet
facet normal 0.707095861434937 0.00499575026333332 -0.707100033760071
outer loop
vertex -0.393339872360229 -0.0336351059377193 -0.393575191497803
vertex -0.84480345249176 -0.0378060229122639 -0.845065534114838
vertex -0.39355480670929 -0.00125050055794418 -0.39356130361557
endloop
endfacet
facet normal 0.707095861434937 0.00499575026333332 -0.707100033760071
outer loop
vertex -1.65254950523376 -0.00525089260190725 -1.65257680416107
vertex -0.845036506652832 -0.00268506095744669 -0.845050513744354
vertex -1.65228390693665 -0.0452660545706749 -1.65259397029877
endloop
endfacet
facet normal 0.707095921039581 0.00499575026333332 -0.707100033760071
outer loop
vertex -0.84480345249176 -0.0378060229122639 -0.845065534114838
vertex -1.65228390693665 -0.0452660545706749 -1.65259397029877
vertex -0.845036506652832 -0.00268506095744669 -0.845050513744354
endloop
endfacet
facet normal 0.707095921039581 0.00499575026333332 -0.707100093364716
outer loop
vertex -1.65254950523376 -0.00525089260190725 -1.65257680416107
vertex -1.65228390693665 -0.0452660545706749 -1.65259397029877
vertex -3.0968542098999 -0.00984009820967913 -3.09690546989441
endloop
endfacet
facet normal 0.707095861434937 0.00499575026333332 -0.707100033760071
outer loop
vertex -3.09653067588806 -0.0586089491844177 -3.09692645072937
vertex -3.0968542098999 -0.00984009820967913 -3.09690546989441
vertex -1.65228390693665 -0.0452660545706749 -1.65259397029877
endloop
endfacet
facet normal 0.707095861434937 0.00499575026333332 -0.707100033760071
outer loop
vertex -5.68011474609375 -0.0180482789874077 -5.68020868301392
vertex -3.0968542098999 -0.00984009820967913 -3.09690546989441
vertex -5.67968702316284 -0.0824738368391991 -5.68023633956909
endloop
endfacet
facet normal 0.707095921039581 0.00499575026333332 -0.707100033760071
outer loop
vertex -3.09653067588806 -0.0586089491844177 -3.09692645072937
vertex -5.67968702316284 -0.0824738368391991 -5.68023633956909
vertex -3.0968542098999 -0.00984009820967913 -3.09690546989441
endloop
endfacet
facet normal 0.707095861434937 0.00499575026333332 -0.707100033760071
outer loop
vertex -5.68011474609375 -0.0180482789874077 -5.68020868301392
vertex -5.67968702316284 -0.0824738368391991 -5.68023633956909
vertex -9.39971256256104 -0.0298671144992113 -9.39986801147461
endloop
endfacet
facet normal 0.707095861434937 0.00499575026333332 -0.707100033760071
outer loop
vertex -9.39913558959961 -0.116836532950401 -9.39990520477295
vertex -9.39971256256104 -0.0298671144992113 -9.39986801147461
vertex -5.67968702316284 -0.0824738368391991 -5.68023633956909
endloop
endfacet
facet normal 0.707095861434937 0.00499575072899461 -0.707100093364716
outer loop
vertex -9.39971256256104 -0.0298671144992113 -9.39986801147461
vertex -9.39913558959961 -0.116836532950401 -9.39990520477295
vertex -13.147406578064 -0.0417752228677273 -13.1476240158081
endloop
endfacet
facet normal 0.707095861434937 0.00499575026333332 -0.707099974155426
outer loop
vertex -13.1466779708862 -0.151458784937859 -13.1476707458496
vertex -13.147406578064 -0.0417752228677273 -13.1476240158081
vertex -9.39913558959961 -0.116836532950401 -9.39990520477295
endloop
endfacet
facet normal 0.707095861434937 0.00499575026333332 -0.707099974155426
outer loop
vertex -13.147406578064 -0.0417752228677273 -13.1476240158081
vertex -13.1466779708862 -0.151458784937859 -13.1476707458496
vertex -16.8950996398926 -0.0536833293735981 -16.8953800201416
endloop
endfacet
facet normal 0.707095861434937 0.00499575026333332 -0.707100033760071
outer loop
vertex -16.8942203521729 -0.186081036925316 -16.895435333252
vertex -16.8950996398926 -0.0536833293735981 -16.8953800201416
vertex -13.1466779708862 -0.151458784937859 -13.1476707458496
endloop
endfacet
facet normal 0.707095921039581 0.00499575026333332 -0.707100033760071
outer loop
vertex -20.3587322235107 -0.0646888464689255 -20.3590698242188
vertex -16.8950996398926 -0.0536833293735981 -16.8953800201416
vertex -20.3577156066895 -0.218079060316086 -20.3591346740723
endloop
endfacet
facet normal 0.707095861434937 0.00499575026333332 -0.707100033760071
outer loop
vertex -16.8942203521729 -0.186081036925316 -16.895435333252
vertex -20.3577156066895 -0.218079060316086 -20.3591346740723
vertex -16.8950996398926 -0.0536833293735981 -16.8953800201416
endloop
endfacet
facet normal 0.707095861434937 0.00499575026333332 -0.707100033760071
outer loop
vertex -20.3587322235107 -0.0646888464689255 -20.3590698242188
vertex -20.3577156066895 -0.218079060316086 -20.3591346740723
vertex -22.5756549835205 -0.0717330053448677 -22.5760288238525
endloop
endfacet
facet normal 0.707095921039581 0.00499575026333332 -0.707100093364716
outer loop
vertex -22.5745487213135 -0.238559618592262 -22.576099395752
vertex -22.5756549835205 -0.0717330053448677 -22.5760288238525
vertex -20.3577156066895 -0.218079060316086 -20.3591346740723
endloop
endfacet
facet normal 0.707095861434937 0.00499575026333332 -0.707100033760071
outer loop
vertex -23.9260101318359 -0.0760236904025078 -23.9264049530029
vertex -22.5756549835205 -0.0717330053448677 -22.5760288238525
vertex -23.9248485565186 -0.251034557819366 -23.9264812469482
endloop
endfacet
facet normal 0.707095861434937 0.00499575026333332 -0.707100033760071
outer loop
vertex -22.5745487213135 -0.238559618592262 -22.576099395752
vertex -23.9248485565186 -0.251034557819366 -23.9264812469482
vertex -22.5756549835205 -0.0717330053448677 -22.5760288238525
endloop
endfacet
facet normal 0.707095861434937 0.00499575026333332 -0.707100033760071
outer loop
vertex -23.9260101318359 -0.0760236904025078 -23.9264049530029
vertex -23.9248485565186 -0.251034557819366 -23.9264812469482
vertex -24.7485275268555 -0.0786371976137161 -24.7489356994629
endloop
endfacet
facet normal 0.707095861434937 0.00499575026333332 -0.707100033760071
outer loop
vertex -24.7473316192627 -0.258633226156235 -24.7490139007568
vertex -24.7485275268555 -0.0786371976137161 -24.7489356994629
vertex -23.9248485565186 -0.251034557819366 -23.9264812469482
endloop
endfacet
facet normal -0.324673384428024 -0.945826232433319 -0
outer loop
vertex -4.42861080169678 -39.2402076721191 0.0900000035762787
vertex -4.42861080169678 -39.2402076721191 0.0599999986588955
vertex -4.23983287811279 -39.3050079345703 0.0904276967048645
endloop
endfacet
facet normal -0.324673384428024 -0.945826232433319 1.99114786074081e-13
outer loop
vertex -4.23983287811279 -39.3050079345703 0.0595723055303097
vertex -4.23983287811279 -39.3050079345703 0.0904276967048645
vertex -4.42861080169678 -39.2402076721191 0.0599999986588955
endloop
endfacet
facet normal -0.324673384428024 -0.945826232433319 1.99114772521554e-13
outer loop
vertex -4.23983287811279 -39.3050079345703 0.0595723055303097
vertex -3.90218734741211 -39.4209136962891 0.0588073395192623
vertex -4.23983287811279 -39.3050079345703 0.0904276967048645
endloop
endfacet
facet normal -0.324673354625702 -0.945826172828674 -9.79470478790385e-14
outer loop
vertex -3.90218734741211 -39.4209136962891 0.0911926627159119
vertex -4.23983287811279 -39.3050079345703 0.0904276967048645
vertex -3.90218734741211 -39.4209136962891 0.0588073395192623
endloop
endfacet
facet normal -0.324673384428024 -0.945826172828674 -2.87368361799687e-14
outer loop
vertex -3.29828000068665 -39.6282157897949 0.0574391297996044
vertex -3.29828000068665 -39.6282157897949 0.0925608724355698
vertex -3.90218734741211 -39.4209136962891 0.0588073395192623
endloop
endfacet
facet normal -0.324673384428024 -0.945826172828674 -9.79470478790385e-14
outer loop
vertex -3.90218734741211 -39.4209136962891 0.0911926627159119
vertex -3.90218734741211 -39.4209136962891 0.0588073395192623
vertex -3.29828000068665 -39.6282157897949 0.0925608724355698
endloop
endfacet
facet normal -0.324673384428024 -0.945826172828674 -9.00788233067218e-14
outer loop
vertex -2.21814131736755 -39.9989929199219 0.0549919754266739
vertex -2.21814131736755 -39.9989929199219 0.09500802308321
vertex -3.29828000068665 -39.6282157897949 0.0574391297996044
endloop
endfacet
facet normal -0.324673384428024 -0.945826172828674 -2.87368361799687e-14
outer loop
vertex -3.29828000068665 -39.6282157897949 0.0925608724355698
vertex -3.29828000068665 -39.6282157897949 0.0574391297996044
vertex -2.21814131736755 -39.9989929199219 0.09500802308321
endloop
endfacet
facet normal -0.324673384428024 -0.945826232433319 -9.00788300829854e-14
outer loop
vertex -2.21814131736755 -39.9989929199219 0.0549919754266739
vertex -0.286222517490387 -40.6621627807617 0.0506150349974632
vertex -2.21814131736755 -39.9989929199219 0.09500802308321
endloop
endfacet
facet normal -0.324673384428024 -0.945826232433319 -1.09756747147891e-13
outer loop
vertex -0.286222517490387 -40.6621627807617 0.0993849635124207
vertex -2.21814131736755 -39.9989929199219 0.09500802308321
vertex -0.286222517490387 -40.6621627807617 0.0506150349974632
endloop
endfacet
facet normal -0.324673384428024 -0.945826172828674 -8.14374202838877e-14
outer loop
vertex 3.16917657852173 -41.8482971191406 0.0427865050733089
vertex 3.16917657852173 -41.8482971191406 0.107213489711285
vertex -0.286222517490387 -40.6621627807617 0.0506150349974632
endloop
endfacet
facet normal -0.324673384428024 -0.945826232433319 -1.09756753924155e-13
outer loop
vertex -0.286222517490387 -40.6621627807617 0.0993849635124207
vertex -0.286222517490387 -40.6621627807617 0.0506150349974632
vertex 3.16917657852173 -41.8482971191406 0.107213489711285
endloop
endfacet
facet normal -0.324673384428024 -0.945826232433319 -8.14374270601513e-14
outer loop
vertex 3.16917657852173 -41.8482971191406 0.0427865050733089
vertex 8.14455413818359 -43.5561904907227 0.0315143279731274
vertex 3.16917657852173 -41.8482971191406 0.107213489711285
endloop
endfacet
facet normal -0.324673384428024 -0.945826172828674 -6.86167092654559e-14
outer loop
vertex 8.14455413818359 -43.5561904907227 0.118485674262047
vertex 3.16917657852173 -41.8482971191406 0.107213489711285
vertex 8.14455413818359 -43.5561904907227 0.0315143279731274
endloop
endfacet
facet normal -0.324673354625702 -0.945826172828674 -6.86167092654559e-14
outer loop
vertex 8.14455413818359 -43.5561904907227 0.0315143279731274
vertex 13.1575126647949 -45.2769889831543 0.020157003775239
vertex 8.14455413818359 -43.5561904907227 0.118485674262047
endloop
endfacet
facet normal -0.324673384428024 -0.945826232433319 -1.45399344691002e-13
outer loop
vertex 13.1575126647949 -45.2769889831543 0.12984299659729
vertex 8.14455413818359 -43.5561904907227 0.118485674262047
vertex 13.1575126647949 -45.2769889831543 0.020157003775239
endloop
endfacet
facet normal -0.324673384428024 -0.945826172828674 2.31098184344395e-14
outer loop
vertex 18.1704711914063 -46.9977836608887 0.00879968050867319
vertex 18.1704711914063 -46.9977836608887 0.141200318932533
vertex 13.1575126647949 -45.2769889831543 0.020157003775239
endloop
endfacet
facet normal -0.324673384428024 -0.945826232433319 -1.45399344691002e-13
outer loop
vertex 13.1575126647949 -45.2769889831543 0.12984299659729
vertex 13.1575126647949 -45.2769889831543 0.020157003775239
vertex 18.1704711914063 -46.9977836608887 0.141200318932533
endloop
endfacet
facet normal -0.324673384428024 -0.945826232433319 -6.63711842647033e-14
outer loop
vertex 22.803466796875 -48.5881500244141 -0.00169680151157081
vertex 22.803466796875 -48.5881500244141 0.151696801185608
vertex 18.1704711914063 -46.9977836608887 0.00879968050867319
endloop
endfacet
facet normal -0.324673384428024 -0.945826172828674 2.31098184344395e-14
outer loop
vertex 18.1704711914063 -46.9977836608887 0.141200318932533
vertex 18.1704711914063 -46.9977836608887 0.00879968050867319
vertex 22.803466796875 -48.5881500244141 0.151696801185608
endloop
endfacet
facet normal -0.324673384428024 -0.945826172828674 -6.63711774884397e-14
outer loop
vertex 22.803466796875 -48.5881500244141 -0.00169680151157081
vertex 25.7688465118408 -49.6060752868652 -0.00841514766216278
vertex 22.803466796875 -48.5881500244141 0.151696801185608
endloop
endfacet
facet normal -0.324673384428024 -0.945826172828674 -9.4394977945278e-14
outer loop
vertex 25.7688465118408 -49.6060752868652 0.158415153622627
vertex 22.803466796875 -48.5881500244141 0.151696801185608
vertex 25.7688465118408 -49.6060752868652 -0.00841514766216278
endloop
endfacet
facet normal -0.324673384428024 -0.945826172828674 -3.18089060950474e-14
outer loop
vertex 27.5750980377197 -50.2261085510254 -0.0125073743984103
vertex 27.5750980377197 -50.2261085510254 0.162507370114326
vertex 25.7688465118408 -49.6060752868652 -0.00841514766216278
endloop
endfacet
facet normal -0.324673384428024 -0.945826172828674 -9.43949847215415e-14
outer loop
vertex 25.7688465118408 -49.6060752868652 0.158415153622627
vertex 25.7688465118408 -49.6060752868652 -0.00841514766216278
vertex 27.5750980377197 -50.2261085510254 0.162507370114326
endloop
endfacet
facet normal -0.324673384428024 -0.945826172828674 -3.18089060950474e-14
outer loop
vertex 27.5750980377197 -50.2261085510254 -0.0125073743984103
vertex 28.6753063201904 -50.6037750244141 -0.0149999996647239
vertex 27.5750980377197 -50.2261085510254 0.162507370114326
endloop
endfacet
facet normal -0.324673384428024 -0.945826172828674 -0
outer loop
vertex 28.6753063201904 -50.6037750244141 0.165000006556511
vertex 27.5750980377197 -50.2261085510254 0.162507370114326
vertex 28.6753063201904 -50.6037750244141 -0.0149999996647239
endloop
endfacet
facet normal 0.00547382608056068 -0.00185415882151574 0.999983251094818
outer loop
vertex 27.6282901763916 -50.1142158508301 -0.135639309883118
vertex 28.7158603668213 -50.4831314086914 -0.142276614904404
vertex 27.6857242584229 -49.9446640014648 -0.135639309883118
endloop
endfacet
facet normal 0.00547382608056068 -0.00185415882151574 0.999983251094818
outer loop
vertex 28.773609161377 -50.3126449584961 -0.142276614904404
vertex 27.6857242584229 -49.9446640014648 -0.135639309883118
vertex 28.7158603668213 -50.4831314086914 -0.142276614904404
endloop
endfacet
facet normal 0.00547382654622197 -0.00185415893793106 0.999983310699463
outer loop
vertex 27.6282901763916 -50.1142158508301 -0.135639309883118
vertex 27.6857242584229 -49.9446640014648 -0.135639309883118
vertex 25.8970603942871 -49.5269660949707 -0.125073820352554
endloop
endfacet
facet normal 0.00547382654622197 -0.00185415882151574 0.999983251094818
outer loop
vertex 25.9539890289307 -49.3588981628418 -0.125073820352554
vertex 25.8970603942871 -49.5269660949707 -0.125073820352554
vertex 27.6857242584229 -49.9446640014648 -0.135639309883118
endloop
endfacet
facet normal 0.00547382608056068 -0.00185415882151574 0.999983251094818
outer loop
vertex 25.8970603942871 -49.5269660949707 -0.125073820352554
vertex 25.9539890289307 -49.3588981628418 -0.125073820352554
vertex 23.141227722168 -48.5921592712402 -0.108255319297314
endloop
endfacet
facet normal 0.00547382608056068 -0.00185415893793106 0.999983251094818
outer loop
vertex 23.1973571777344 -48.426456451416 -0.108255319297314
vertex 23.141227722168 -48.5921592712402 -0.108255319297314
vertex 25.9539890289307 -49.3588981628418 -0.125073820352554
endloop
endfacet
facet normal 0.00547382608056068 -0.00185415882151574 0.999983310699463
outer loop
vertex 23.141227722168 -48.5921592712402 -0.108255319297314
vertex 23.1973571777344 -48.426456451416 -0.108255319297314
vertex 18.8331604003906 -47.1308212280273 -0.0819637179374695
endloop
endfacet
facet normal 0.00547382608056068 -0.00185415882151574 0.999983310699463
outer loop
vertex 18.8880386352539 -46.9688110351563 -0.0819637179374695
vertex 18.8331604003906 -47.1308212280273 -0.0819637179374695
vertex 23.1973571777344 -48.426456451416 -0.108255319297314
endloop
endfacet
facet normal 0.00547382654622197 -0.00185415893793106 0.999983310699463
outer loop
vertex 18.8331604003906 -47.1308212280273 -0.0819637179374695
vertex 18.8880386352539 -46.9688110351563 -0.0819637179374695
vertex 13.9728107452393 -45.4821472167969 -0.0523016043007374
endloop
endfacet
facet normal 0.00547382654622197 -0.00185415893793106 0.999983370304108
outer loop
vertex 14.0262775421143 -45.3242988586426 -0.0523016043007374
vertex 13.9728107452393 -45.4821472167969 -0.0523016043007374
vertex 18.8880386352539 -46.9688110351563 -0.0819637179374695
endloop
endfacet
facet normal 0.00547382654622197 -0.00185415893793106 0.999983370304108
outer loop
vertex 14.0262775421143 -45.3242988586426 -0.0523016043007374
vertex 9.16451644897461 -43.6797904968262 -0.0226394888013601
vertex 13.9728107452393 -45.4821472167969 -0.0523016043007374
endloop
endfacet
facet normal 0.00547382654622197 -0.00185415893793106 0.999983310699463
outer loop
vertex 9.11246109008789 -43.8334693908691 -0.0226394888013601
vertex 13.9728107452393 -45.4821472167969 -0.0523016043007374
vertex 9.16451644897461 -43.6797904968262 -0.0226394888013601
endloop
endfacet
facet normal 0.00547382608056068 -0.00185415882151574 0.999983310699463
outer loop
vertex 4.25211095809937 -42.1847915649414 0.00702262483537197
vertex 9.11246109008789 -43.8334693908691 -0.0226394888013601
vertex 4.30275583267212 -42.0352783203125 0.00702262483537197
endloop
endfacet
facet normal 0.00547382654622197 -0.00185415893793106 0.999983310699463
outer loop
vertex 9.16451644897461 -43.6797904968262 -0.0226394888013601
vertex 4.30275583267212 -42.0352783203125 0.00702262483537197
vertex 9.11246109008789 -43.8334693908691 -0.0226394888013601
endloop
endfacet
facet normal 0.00547382654622197 -0.00185415893793106 0.999983310699463
outer loop
vertex 4.25211095809937 -42.1847915649414 0.00702262483537197
vertex 4.30275583267212 -42.0352783203125 0.00702262483537197
vertex 0.370463937520981 -40.8680992126465 0.0307118389755487
endloop
endfacet
facet normal 0.0054738256148994 -0.00185415870510042 0.999983251094818
outer loop
vertex 0.419981390237808 -40.7219123840332 0.0307118389755487
vertex 0.370463937520981 -40.8680992126465 0.0307118389755487
vertex 4.30275583267212 -42.0352783203125 0.00702262483537197
endloop
endfacet
facet normal 0.00547382608056068 -0.00185415905434638 0.999983310699463
outer loop
vertex 0.419981390237808 -40.7219123840332 0.0307118389755487
vertex -1.97982585430145 -39.9101676940918 0.0453533157706261
vertex 0.370463937520981 -40.8680992126465 0.0307118389755487
endloop
endfacet
facet normal 0.00547382654622197 -0.00185415882151574 0.999983310699463
outer loop
vertex -2.02864670753479 -40.0542984008789 0.0453533157706261
vertex 0.370463937520981 -40.8680992126465 0.0307118389755487
vertex -1.97982585430145 -39.9101676940918 0.0453533157706261
endloop
endfacet
facet normal 0.00547382608056068 -0.00185415893793106 0.999983310699463
outer loop
vertex -2.02864670753479 -40.0542984008789 0.0453533157706261
vertex -1.97982585430145 -39.9101676940918 0.0453533157706261
vertex -3.51176023483276 -39.551212310791 0.0544045753777027
endloop
endfacet
facet normal 0.00547382608056068 -0.00185415893793106 0.999983310699463
outer loop
vertex -3.46337008476257 -39.4083557128906 0.0544045753777027
vertex -3.51176023483276 -39.551212310791 0.0544045753777027
vertex -1.97982585430145 -39.9101676940918 0.0453533157706261
endloop
endfacet
facet normal 0.00547382701188326 -0.0018541591707617 0.999983370304108
outer loop
vertex -3.51176023483276 -39.551212310791 0.0544045753777027
vertex -3.46337008476257 -39.4083557128906 0.0544045753777027
vertex -4.42861080169678 -39.2402076721191 0.0599999986588955
endloop
endfacet
facet normal 0.00547382608056068 -0.00185415882151574 0.999983251094818
outer loop
vertex -4.38048696517944 -39.0981369018555 0.0599999986588955
vertex -4.42861080169678 -39.2402076721191 0.0599999986588955
vertex -3.46337008476257 -39.4083557128906 0.0544045753777027
endloop
endfacet
facet normal -0.231013551354408 -0.668313086032867 -0.707099974155426
outer loop
vertex 28.7162971496582 -50.4832763671875 -0.142279848456383
vertex 28.6752300262451 -50.6037483215332 -0.0149992080405354
vertex 27.4367980957031 -50.049259185791 -0.134471207857132
endloop
endfacet
facet normal -0.231013551354408 -0.668313086032867 -0.707099974155426
outer loop
vertex 27.3973083496094 -50.1650772094727 -0.0121039794757962
vertex 27.4367980957031 -50.049259185791 -0.134471207857132
vertex 28.6752300262451 -50.6037483215332 -0.0149992080405354
endloop
endfacet
facet normal -0.231013536453247 -0.668313026428223 -0.707099974155426
outer loop
vertex 27.4367980957031 -50.049259185791 -0.134471207857132
vertex 27.3973083496094 -50.1650772094727 -0.0121039794757962
vertex 24.6990051269531 -49.1205749511719 -0.117762751877308
endloop
endfacet
facet normal -0.231013566255569 -0.668313086032867 -0.707099974155426
outer loop
vertex 24.6629180908203 -49.2264442443848 -0.00590901914983988
vertex 24.6990051269531 -49.1205749511719 -0.117762751877308
vertex 27.3973083496094 -50.1650772094727 -0.0121039794757962
endloop
endfacet
facet normal -0.231013566255569 -0.668313086032867 -0.707099974155426
outer loop
vertex 24.6629180908203 -49.2264442443848 -0.00590901914983988
vertex 19.9357566833496 -47.6037521362305 0.00480071967467666
vertex 24.6990051269531 -49.1205749511719 -0.117762751877308
endloop
endfacet
facet normal -0.231013551354408 -0.668313086032867 -0.707099914550781
outer loop
vertex 19.9659671783447 -47.515079498291 -0.0888775140047073
vertex 24.6990051269531 -49.1205749511719 -0.117762751877308
vertex 19.9357566833496 -47.6037521362305 0.00480071967467666
endloop
endfacet
facet normal -0.231013551354408 -0.668313086032867 -0.707099974155426
outer loop
vertex 19.9659671783447 -47.515079498291 -0.0888775140047073
vertex 19.9357566833496 -47.6037521362305 0.00480071967467666
vertex 15.0870513916016 -45.860107421875 -0.0591020137071609
endloop
endfacet
facet normal -0.231013551354408 -0.668313026428223 -0.707099914550781
outer loop
vertex 15.0628824234009 -45.9310455322266 0.0158405750989914
vertex 15.0870513916016 -45.860107421875 -0.0591020137071609
vertex 19.9357566833496 -47.6037521362305 0.00480071967467666
endloop
endfacet
facet normal -0.231013551354408 -0.668313026428223 -0.707099914550781
outer loop
vertex 15.0628824234009 -45.9310455322266 0.0158405750989914
vertex 10.1900091171265 -44.2583351135254 0.02688043192029
vertex 15.0870513916016 -45.860107421875 -0.0591020137071609
endloop
endfacet
facet normal -0.231013551354408 -0.668313086032867 -0.707099974155426
outer loop
vertex 10.2081356048584 -44.2051315307617 -0.0293265096843243
vertex 15.0870513916016 -45.860107421875 -0.0591020137071609
vertex 10.1900091171265 -44.2583351135254 0.02688043192029
endloop
endfacet
facet normal -0.231013551354408 -0.668313086032867 -0.707099974155426
outer loop
vertex 10.2081356048584 -44.2051315307617 -0.0293265096843243
vertex 10.1900091171265 -44.2583351135254 0.02688043192029
vertex 5.32922029495239 -42.5501556396484 0.000448993174359202
endloop
endfacet
facet normal -0.231013551354408 -0.668313026428223 -0.707099914550781
outer loop
vertex 5.31713581085205 -42.5856246948242 0.0379202887415886
vertex 5.32922029495239 -42.5501556396484 0.000448993174359202
vertex 10.1900091171265 -44.2583351135254 0.02688043192029
endloop
endfacet
facet normal -0.231013551354408 -0.668313026428223 -0.707099914550781
outer loop
vertex 5.31713581085205 -42.5856246948242 0.0379202887415886
vertex 0.444262564182281 -40.912914276123 0.0489601455628872
vertex 5.32922029495239 -42.5501556396484 0.000448993174359202
endloop
endfacet
facet normal -0.231013551354408 -0.668313026428223 -0.707099914550781
outer loop
vertex 0.45030477643013 -40.8951835632324 0.030224496498704
vertex 5.32922029495239 -42.5501556396484 0.000448993174359202
vertex 0.444262564182281 -40.912914276123 0.0489601455628872
endloop
endfacet
facet normal -0.231013551354408 -0.668313026428223 -0.707099914550781
outer loop
vertex 0.444262564182281 -40.912914276123 0.0489601455628872
vertex -4.42861080169678 -39.2402076721191 0.0599999986588955
vertex 0.45030477643013 -40.8951835632324 0.030224496498704
endloop
endfacet
facet normal -0.94708651304245 0.320808291435242 0.0104499030858278
outer loop
vertex -4.38048696517944 -39.0981369018555 0.0900000035762787
vertex -4.42861080169678 -39.2402076721191 0.0900000035762787
vertex -4.37077140808105 -39.1009902954102 1.05812573432922
endloop
endfacet
facet normal -0.94708651304245 0.320808291435242 0.0104499030858278
outer loop
vertex -4.41916131973267 -39.2438468933105 1.05812573432922
vertex -4.37077140808105 -39.1009902954102 1.05812573432922
vertex -4.42861080169678 -39.2402076721191 0.0900000035762787
endloop
endfacet
facet normal -0.94708651304245 0.320808291435242 0.0104499021545053
outer loop
vertex -4.37077140808105 -39.1009902954102 1.05812573432922
vertex -4.41916131973267 -39.2438468933105 1.05812573432922
vertex -4.35505485534668 -39.1056022644043 2.62418293952942
endloop
endfacet
facet normal -0.94708651304245 0.320808321237564 0.0104499030858278
outer loop
vertex -4.40387582778931 -39.2497329711914 2.62418293952942
vertex -4.35505485534668 -39.1056022644043 2.62418293952942
vertex -4.41916131973267 -39.2438468933105 1.05812573432922
endloop
endfacet
facet normal -0.94708651304245 0.320808291435242 0.0104499021545053
outer loop
vertex -4.32963228225708 -39.1130676269531 5.1574649810791
vertex -4.35505485534668 -39.1056022644043 2.62418293952942
vertex -4.37914943695068 -39.2592544555664 5.1574649810791
endloop
endfacet
facet normal -0.94708651304245 0.320808321237564 0.0104499040171504
outer loop
vertex -4.40387582778931 -39.2497329711914 2.62418293952942
vertex -4.37914943695068 -39.2592544555664 5.1574649810791
vertex -4.35505485534668 -39.1056022644043 2.62418293952942
endloop
endfacet
facet normal -0.947086453437805 0.320808291435242 0.0104499030858278
outer loop
vertex -4.32963228225708 -39.1130676269531 5.1574649810791
vertex -4.37914943695068 -39.2592544555664 5.1574649810791
vertex -4.288498878479 -39.1251487731934 9.25619506835938
endloop
endfacet
facet normal -0.94708651304245 0.320808291435242 0.0104499040171504
outer loop
vertex -4.33914375305176 -39.274658203125 9.25619506835938
vertex -4.288498878479 -39.1251487731934 9.25619506835938
vertex -4.37914943695068 -39.2592544555664 5.1574649810791
endloop
endfacet
facet normal -0.94708651304245 0.320808321237564 0.0104499040171504
outer loop
vertex -4.33914375305176 -39.274658203125 9.25619506835938
vertex -4.2890510559082 -39.2939491271973 14.3883609771729
vertex -4.288498878479 -39.1251487731934 9.25619506835938
endloop
endfacet
facet normal -0.94708651304245 0.320808321237564 0.0104499030858278
outer loop
vertex -4.23699474334717 -39.1402702331543 14.3883609771729
vertex -4.288498878479 -39.1251487731934 9.25619506835938
vertex -4.2890510559082 -39.2939491271973 14.3883609771729
endloop
endfacet
facet normal -0.94708651304245 0.320808321237564 0.0104499040171504
outer loop
vertex -4.18549108505249 -39.1553955078125 19.5205268859863
vertex -4.23699474334717 -39.1402702331543 14.3883609771729
vertex -4.23895835876465 -39.3132400512695 19.5205268859863
endloop
endfacet
facet normal -0.94708651304245 0.320808321237564 0.0104499030858278
outer loop
vertex -4.2890510559082 -39.2939491271973 14.3883609771729
vertex -4.23895835876465 -39.3132400512695 19.5205268859863
vertex -4.23699474334717 -39.1402702331543 14.3883609771729
endloop
endfacet
facet normal -0.94708651304245 0.320808321237564 0.0104499040171504
outer loop
vertex -4.18549108505249 -39.1553955078125 19.5205268859863
vertex -4.23895835876465 -39.3132400512695 19.5205268859863
vertex -4.13398694992065 -39.1705169677734 24.6526947021484
endloop
endfacet
facet normal -0.947086453437805 0.320808291435242 0.0104499030858278
outer loop
vertex -4.18886566162109 -39.3325309753418 24.6526947021484
vertex -4.13398694992065 -39.1705169677734 24.6526947021484
vertex -4.23895835876465 -39.3132400512695 19.5205268859863
endloop
endfacet
facet normal -0.94708651304245 0.320808291435242 0.0104499021545053
outer loop
vertex -4.13398694992065 -39.1705169677734 24.6526947021484
vertex -4.18886566162109 -39.3325309753418 24.6526947021484
vertex -4.08833503723145 -39.1839256286621 29.2016906738281
endloop
endfacet
facet normal -0.94708651304245 0.320808291435242 0.0104499021545053
outer loop
vertex -4.14446496963501 -39.3496284484863 29.2016906738281
vertex -4.08833503723145 -39.1839256286621 29.2016906738281
vertex -4.18886566162109 -39.3325309753418 24.6526947021484
endloop
endfacet
facet normal -0.94708651304245 0.320808291435242 0.0104499030858278
outer loop
vertex -4.08833503723145 -39.1839256286621 29.2016906738281
vertex -4.14446496963501 -39.3496284484863 29.2016906738281
vertex -4.05913209915161 -39.192497253418 32.111644744873
endloop
endfacet
facet normal -0.94708651304245 0.320808291435242 0.0104499021545053
outer loop
vertex -4.11606216430664 -39.3605690002441 32.111644744873
vertex -4.05913209915161 -39.192497253418 32.111644744873
vertex -4.14446496963501 -39.3496284484863 29.2016906738281
endloop
endfacet
facet normal -0.947086572647095 0.320808291435242 0.0104499030858278
outer loop
vertex -4.05913209915161 -39.192497253418 32.111644744873
vertex -4.11606216430664 -39.3605690002441 32.111644744873
vertex -4.04078674316406 -39.1978874206543 33.939697265625
endloop
endfacet
facet normal -0.947086453437805 0.320808291435242 0.0104499030858278
outer loop
vertex -4.09821939468384 -39.3674392700195 33.939697265625
vertex -4.04078674316406 -39.1978874206543 33.939697265625
vertex -4.11606216430664 -39.3605690002441 32.111644744873
endloop
endfacet
facet normal -0.94708651304245 0.320808291435242 0.0104499030858278
outer loop
vertex -4.04078674316406 -39.1978874206543 33.939697265625
vertex -4.09821939468384 -39.3674392700195 33.939697265625
vertex -4.02926206588745 -39.2012710571289 35.0880889892578
endloop
endfacet
facet normal -0.94708651304245 0.320808291435242 0.0104499030858278
outer loop
vertex -4.08701038360596 -39.371753692627 35.0880889892578
vertex -4.02926206588745 -39.2012710571289 35.0880889892578
vertex -4.09821939468384 -39.3674392700195 33.939697265625
endloop
endfacet
facet normal 0.222124263644218 0.671324193477631 -0.707095861434937
outer loop
vertex 3.63409090042114 -15.6827011108398 24.8385276794434
vertex 3.80459690093994 -15.7403755187988 24.8373317718506
vertex 3.36772632598877 -16.4609146118164 24.0160102844238
endloop
endfacet
facet normal 0.22212427854538 0.671324193477631 -0.707095861434937
outer loop
vertex 3.5335099697113 -16.5169906616211 24.0148487091064
vertex 3.36772632598877 -16.4609146118164 24.0160102844238
vertex 3.80459690093994 -15.7403755187988 24.8373317718506
endloop
endfacet
facet normal 0.22212427854538 0.671324253082275 -0.707095861434937
outer loop
vertex 3.36772632598877 -16.4609146118164 24.0160102844238
vertex 3.5335099697113 -16.5169906616211 24.0148487091064
vertex 2.93042683601379 -17.7385311126709 22.6656551361084
endloop
endfacet
facet normal 0.22212427854538 0.671324253082275 -0.707095921039581
outer loop
vertex 3.0884575843811 -17.7919845581055 22.6645469665527
vertex 2.93042683601379 -17.7385311126709 22.6656551361084
vertex 3.5335099697113 -16.5169906616211 24.0148487091064
endloop
endfacet
facet normal 0.22212427854538 0.671324253082275 -0.707095921039581
outer loop
vertex 3.0884575843811 -17.7919845581055 22.6645469665527
vertex 2.35780024528503 -19.8851871490479 20.4477138519287
vertex 2.93042683601379 -17.7385311126709 22.6656551361084
endloop
endfacet
facet normal 0.22212427854538 0.671324193477631 -0.707095861434937
outer loop
vertex 2.21249747276306 -19.8360366821289 20.4487323760986
vertex 2.93042683601379 -17.7385311126709 22.6656551361084
vertex 2.35780024528503 -19.8851871490479 20.4477138519287
endloop
endfacet
facet normal 0.222124293446541 0.671324253082275 -0.707095921039581
outer loop
vertex 2.21249747276306 -19.8360366821289 20.4487323760986
vertex 2.35780024528503 -19.8851871490479 20.4477138519287
vertex 1.09083247184753 -23.1131000518799 16.9850997924805
endloop
endfacet
facet normal 0.22212427854538 0.671324193477631 -0.707095861434937
outer loop
vertex 1.21624958515167 -23.1555233001709 16.9842205047607
vertex 1.09083247184753 -23.1131000518799 16.9850997924805
vertex 2.35780024528503 -19.8851871490479 20.4477138519287
endloop
endfacet
facet normal 0.222124263644218 0.671324193477631 -0.707095861434937
outer loop
vertex 1.09083247184753 -23.1131000518799 16.9850997924805
vertex 1.21624958515167 -23.1555233001709 16.9842205047607
vertex -0.122822925448418 -26.6589221954346 13.2374057769775
endloop
endfacet
facet normal 0.222124293446541 0.671324253082275 -0.707095921039581
outer loop
vertex -0.0189223475754261 -26.6940670013428 13.2366781234741
vertex -0.122822925448418 -26.6589221954346 13.2374057769775
vertex 1.21624958515167 -23.1555233001709 16.9842205047607
endloop
endfacet
facet normal 0.222124293446541 0.671324253082275 -0.707095921039581
outer loop
vertex -0.0189223475754261 -26.6940670013428 13.2366781234741
vertex -1.25409424304962 -30.2326107025146 9.4891357421875
vertex -0.122822925448418 -26.6589221954346 13.2374057769775
endloop
endfacet
facet normal 0.22212427854538 0.671324253082275 -0.707095861434937
outer loop
vertex -1.3364782333374 -30.2047443389893 9.48971271514893
vertex -0.122822925448418 -26.6589221954346 13.2374057769775
vertex -1.25409424304962 -30.2326107025146 9.4891357421875
endloop
endfacet
facet normal 0.22212427854538 0.671324193477631 -0.707095861434937
outer loop
vertex -2.54103517532349 -33.7239837646484 5.77011442184448
vertex -1.3364782333374 -30.2047443389893 9.48971271514893
vertex -2.48000645637512 -33.74462890625 5.76968717575073
endloop
endfacet
facet normal 0.22212427854538 0.671324253082275 -0.707095861434937
outer loop
vertex -1.25409424304962 -30.2326107025146 9.4891357421875
vertex -2.48000645637512 -33.74462890625 5.76968717575073
vertex -1.3364782333374 -30.2047443389893 9.48971271514893
endloop
endfacet
facet normal 0.22212427854538 0.671324193477631 -0.707095861434937
outer loop
vertex -2.54103517532349 -33.7239837646484 5.77011442184448
vertex -2.48000645637512 -33.74462890625 5.76968717575073
vertex -3.37759971618652 -36.1680946350098 3.18685436248779
endloop
endfacet
facet normal 0.22212427854538 0.671324193477631 -0.707095861434937
outer loop
vertex -3.33140206336975 -36.183723449707 3.18653059005737
vertex -3.37759971618652 -36.1680946350098 3.18685436248779
vertex -2.48000645637512 -33.74462890625 5.76968717575073
endloop
endfacet
facet normal 0.222124263644218 0.671324253082275 -0.707095861434937
outer loop
vertex -3.33140206336975 -36.183723449707 3.18653059005737
vertex -3.80741882324219 -37.5474243164063 1.74228394031525
vertex -3.37759971618652 -36.1680946350098 3.18685436248779
endloop
endfacet
facet normal 0.22212427854538 0.671324193477631 -0.707095861434937
outer loop
vertex -3.84532427787781 -37.5346031188965 1.74254953861237
vertex -3.37759971618652 -36.1680946350098 3.18685436248779
vertex -3.80741882324219 -37.5474243164063 1.74228394031525
endloop
endfacet
facet normal 0.22212427854538 0.671324253082275 -0.707095861434937
outer loop
vertex -3.84532427787781 -37.5346031188965 1.74254953861237
vertex -3.80741882324219 -37.5474243164063 1.74228394031525
vertex -4.10682964324951 -38.2986183166504 0.935036540031433
endloop
endfacet
facet normal 0.22212427854538 0.671324253082275 -0.707095921039581
outer loop
vertex -4.07356071472168 -38.309871673584 0.934803426265717
vertex -4.10682964324951 -38.2986183166504 0.935036540031433
vertex -3.80741882324219 -37.5474243164063 1.74228394031525
endloop
endfacet
facet normal 0.222124248743057 0.671324193477631 -0.707095801830292
outer loop
vertex -4.10682964324951 -38.2986183166504 0.935036540031433
vertex -4.07356071472168 -38.309871673584 0.934803426265717
vertex -4.25303792953491 -38.7257804870605 0.483554810285568
endloop
endfacet
facet normal 0.22212427854538 0.671324253082275 -0.707095861434937
outer loop
vertex -4.22236061096191 -38.736156463623 0.483339875936508
vertex -4.25303792953491 -38.7257804870605 0.483554810285568
vertex -4.07356071472168 -38.309871673584 0.934803426265717
endloop
endfacet
facet normal 0.22212427854538 0.671324253082275 -0.707095921039581
outer loop
vertex -4.22236061096191 -38.736156463623 0.483339875936508
vertex -4.30555486679077 -38.974494934082 0.230925932526588
vertex -4.25303792953491 -38.7257804870605 0.483554810285568
endloop
endfacet
facet normal 0.22212427854538 0.671324253082275 -0.707095861434937
outer loop
vertex -4.33478307723999 -38.9646072387695 0.231130704283714
vertex -4.25303792953491 -38.7257804870605 0.483554810285568
vertex -4.30555486679077 -38.974494934082 0.230925932526588
endloop
endfacet
facet normal 0.22212427854538 0.671324253082275 -0.707095861434937
outer loop
vertex -4.33478307723999 -38.9646072387695 0.231130704283714
vertex -4.30555486679077 -38.974494934082 0.230925932526588
vertex -4.38048696517944 -39.0981369018555 0.0900000035762787
endloop
endfacet
facet normal 0.22212427854538 0.671324253082275 -0.707095861434937
outer loop
vertex -4.35206937789917 -39.1077499389648 0.0898009091615677
vertex -4.38048696517944 -39.0981369018555 0.0900000035762787
vertex -4.30555486679077 -38.974494934082 0.230925932526588
endloop
endfacet
facet normal -0.230436325073242 -0.668497920036316 0.707113564014435
outer loop
vertex -3.20074582099915 -35.6513977050781 3.73296809196472
vertex -4.38048696517944 -39.0981369018555 0.0900000035762787
vertex -3.17568778991699 -35.6600074768066 3.73299479484558
endloop
endfacet
facet normal -0.230436325073242 -0.668497920036316 0.707113564014435
outer loop
vertex -2.02100491523743 -32.204662322998 7.37593603134155
vertex -3.20074582099915 -35.6513977050781 3.73296809196472
vertex -1.97088861465454 -32.2218780517578 7.37598943710327
endloop
endfacet
facet normal -0.230436325073242 -0.668497920036316 0.707113564014435
outer loop
vertex -3.17568778991699 -35.6600074768066 3.73299479484558
vertex -1.97088861465454 -32.2218780517578 7.37598943710327
vertex -3.20074582099915 -35.6513977050781 3.73296809196472
endloop
endfacet
facet normal -0.230436325073242 -0.668497920036316 0.707113564014435
outer loop
vertex -2.02100491523743 -32.204662322998 7.37593603134155
vertex -1.97088861465454 -32.2218780517578 7.37598943710327
vertex -0.841263949871063 -28.7579231262207 11.0189037322998
endloop
endfacet
facet normal -0.230436339974403 -0.668497920036316 0.707113564014435
outer loop
vertex -0.766089498996735 -28.7837505340576 11.0189847946167
vertex -0.841263949871063 -28.7579231262207 11.0189037322998
vertex -1.97088861465454 -32.2218780517578 7.37598943710327
endloop
endfacet
facet normal -0.230436325073242 -0.668497920036316 0.707113564014435
outer loop
vertex 0.338476985692978 -25.311185836792 14.6618719100952
vertex -0.841263949871063 -28.7579231262207 11.0189037322998
vertex 0.438709646463394 -25.3456230163574 14.661979675293
endloop
endfacet
facet normal -0.230436339974403 -0.668497920036316 0.707113564014435
outer loop
vertex -0.766089498996735 -28.7837505340576 11.0189847946167
vertex 0.438709646463394 -25.3456230163574 14.661979675293
vertex -0.841263949871063 -28.7579231262207 11.0189037322998
endloop
endfacet
facet normal -0.230436325073242 -0.668497920036316 0.707113564014435
outer loop
vertex 0.338476985692978 -25.311185836792 14.6618719100952
vertex 0.438709646463394 -25.3456230163574 14.661979675293
vertex 1.51821792125702 -21.8644485473633 18.3048400878906
endloop
endfacet
facet normal -0.230436354875565 -0.668497920036316 0.707113564014435
outer loop
vertex 1.64350879192352 -21.9074954986572 18.3049736022949
vertex 1.51821792125702 -21.8644485473633 18.3048400878906
vertex 0.438709646463394 -25.3456230163574 14.661979675293
endloop
endfacet
facet normal -0.230436339974403 -0.668497920036316 0.707113564014435
outer loop
vertex 2.66268110275269 -18.5207786560059 21.8388729095459
vertex 1.51821792125702 -21.8644485473633 18.3048400878906
vertex 2.81228446960449 -18.5721664428711 21.8390426635742
endloop
endfacet
facet normal -0.230436325073242 -0.668497920036316 0.707113564014435
outer loop
vertex 1.64350879192352 -21.9074954986572 18.3049736022949
vertex 2.81228446960449 -18.5721664428711 21.8390426635742
vertex 1.51821792125702 -21.8644485473633 18.3048400878906
endloop
endfacet
facet normal -0.230436339974403 -0.668497920036316 0.70711362361908
outer loop
vertex 2.66268110275269 -18.5207786560059 21.8388729095459
vertex 2.81228446960449 -18.5721664428711 21.8390426635742
vertex 3.32468438148499 -16.5866661071777 23.8830986022949
endloop
endfacet
facet normal -0.230436310172081 -0.668497860431671 0.707113564014435
outer loop
vertex 3.48835206031799 -16.6428756713867 23.8832931518555
vertex 3.32468438148499 -16.5866661071777 23.8830986022949
vertex 2.81228446960449 -18.5721664428711 21.8390426635742
endloop
endfacet
facet normal -0.230436339974403 -0.668497920036316 0.707113564014435
outer loop
vertex 3.32468438148499 -16.5866661071777 23.8830986022949
vertex 3.48835206031799 -16.6428756713867 23.8832931518555
vertex 3.63407254219055 -15.6827554702759 24.8384704589844
endloop
endfacet
facet normal -0.230436339974403 -0.668497979640961 0.70711362361908
outer loop
vertex 3.80430960655212 -15.7412300109863 24.8386650085449
vertex 3.63407254219055 -15.6827554702759 24.8384704589844
vertex 3.48835206031799 -16.6428756713867 23.8832931518555
endloop
endfacet
facet normal -0.324672549962997 -0.945826411247253 -0.000386117550078779
outer loop
vertex -0.655241906642914 -40.5482788085938 31.4299850463867
vertex -4.08701038360596 -39.371753692627 35.0880889892578
vertex -0.673035502433777 -40.542163848877 31.4113292694092
endloop
endfacet
facet normal -0.324672549962997 -0.945826411247253 -0.000386117550078779
outer loop
vertex 2.77652668952942 -41.7248039245605 27.7718811035156
vertex -0.655241906642914 -40.5482788085938 31.4299850463867
vertex 2.7409393787384 -41.712574005127 27.7345695495605
endloop
endfacet
facet normal -0.324672549962997 -0.945826411247253 -0.000386117550078779
outer loop
vertex -0.673035502433777 -40.542163848877 31.4113292694092
vertex 2.7409393787384 -41.712574005127 27.7345695495605
vertex -0.655241906642914 -40.5482788085938 31.4299850463867
endloop
endfacet
facet normal -0.324672549962997 -0.945826411247253 -0.000386117550078779
outer loop
vertex 2.77652668952942 -41.7248039245605 27.7718811035156
vertex 2.7409393787384 -41.712574005127 27.7345695495605
vertex 6.2082953453064 -42.9013290405273 24.1137771606445
endloop
endfacet
facet normal -0.324672549962997 -0.945826351642609 -0.00038611757918261
outer loop
vertex 6.15491437911987 -42.882984161377 24.0578098297119
vertex 6.2082953453064 -42.9013290405273 24.1137771606445
vertex 2.7409393787384 -41.712574005127 27.7345695495605
endloop
endfacet
facet normal -0.324672549962997 -0.945826351642609 -0.00038611757918261
outer loop
vertex 6.15491437911987 -42.882984161377 24.0578098297119
vertex 9.56888961791992 -44.053394317627 20.3810501098633
vertex 6.2082953453064 -42.9013290405273 24.1137771606445
endloop
endfacet
facet normal -0.324672549962997 -0.945826411247253 -0.000386117550078779
outer loop
vertex 9.64006423950195 -44.0778579711914 20.4556732177734
vertex 6.2082953453064 -42.9013290405273 24.1137771606445
vertex 9.56888961791992 -44.053394317627 20.3810501098633
endloop
endfacet
facet normal -0.324672549962997 -0.945826411247253 -0.000386117550078779
outer loop
vertex 9.64006423950195 -44.0778579711914 20.4556732177734
vertex 9.56888961791992 -44.053394317627 20.3810501098633
vertex 13.0718326568604 -45.2543830871582 16.7975692749023
endloop
endfacet
facet normal -0.324672549962997 -0.945826411247253 -0.00038611760828644
outer loop
vertex 12.9828643798828 -45.223804473877 16.7042922973633
vertex 13.0718326568604 -45.2543830871582 16.7975692749023
vertex 9.56888961791992 -44.053394317627 20.3810501098633
endloop
endfacet
facet normal -0.324672549962997 -0.945826411247253 -0.00038611757918261
outer loop
vertex 16.4009838104248 -46.3957252502441 13.2488508224487
vertex 13.0718326568604 -45.2543830871582 16.7975692749023
vertex 16.2947635650635 -46.3592185974121 13.1374645233154
endloop
endfacet
facet normal -0.32467257976532 -0.945826411247253 -0.00038611760828644
outer loop
vertex 12.9828643798828 -45.223804473877 16.7042922973633
vertex 16.2947635650635 -46.3592185974121 13.1374645233154
vertex 13.0718326568604 -45.2543830871582 16.7975692749023
endloop
endfacet
facet normal -0.324672549962997 -0.945826351642609 -0.00038611757918261
outer loop
vertex 16.4009838104248 -46.3957252502441 13.2488508224487
vertex 16.2947635650635 -46.3592185974121 13.1374645233154
vertex 18.3267040252686 -47.0559272766113 11.1961240768433
endloop
endfacet
facet normal -0.32467257976532 -0.945826411247253 -0.00038611760828644
outer loop
vertex 18.2105083465576 -47.0159912109375 11.0742597579956
vertex 18.3267040252686 -47.0559272766113 11.1961240768433
vertex 16.2947635650635 -46.3592185974121 13.1374645233154
endloop
endfacet
facet normal -0.32467257976532 -0.945826411247253 -0.00038611760828644
outer loop
vertex 18.3267040252686 -47.0559272766113 11.1961240768433
vertex 18.2105083465576 -47.0159912109375 11.0742597579956
vertex 19.226692199707 -47.3644752502441 10.236777305603
endloop
endfacet
facet normal -0.32467257976532 -0.945826411247253 -0.00038611760828644
outer loop
vertex 19.1058254241943 -47.3229331970215 10.1100273132324
vertex 19.226692199707 -47.3644752502441 10.236777305603
vertex 18.2105083465576 -47.0159912109375 11.0742597579956
endloop
endfacet
facet normal -1 0 0
outer loop
vertex -0.20227999985218 -36 0.165000006556511
vertex -0.20227999985218 -35 0.165000006556511
vertex -0.20227999985218 -36 -0.0149999996647239
endloop
endfacet
facet normal -1 0 0
outer loop
vertex -0.20227999985218 -35 -0.0149999996647239
vertex -0.20227999985218 -36 -0.0149999996647239
vertex -0.20227999985218 -35 0.165000006556511
endloop
endfacet
facet normal -0.70710676908493 0 -0.70710676908493
outer loop
vertex -0.20227999985218 -36 -0.0149999996647239
vertex -0.20227999985218 -35 -0.0149999996647239
vertex -0.0750000029802322 -36 -0.142279997467995
endloop
endfacet
facet normal -0.70710676908493 -0 -0.70710676908493
outer loop
vertex -0.0750000029802322 -35 -0.142279997467995
vertex -0.0750000029802322 -36 -0.142279997467995
vertex -0.20227999985218 -35 -0.0149999996647239
endloop
endfacet
facet normal -0.70710676908493 0 0.70710676908493
outer loop
vertex -0.0750000029802322 -36 0.292279988527298
vertex -0.0750000029802322 -35 0.292279988527298
vertex -0.20227999985218 -36 0.165000006556511
endloop
endfacet
facet normal -0.70710676908493 0 0.70710676908493
outer loop
vertex -0.20227999985218 -35 0.165000006556511
vertex -0.20227999985218 -36 0.165000006556511
vertex -0.0750000029802322 -35 0.292279988527298
endloop
endfacet
facet normal 0 0 -1
outer loop
vertex -0.0750000029802322 -36 -0.142279997467995
vertex -0.0750000029802322 -35 -0.142279997467995
vertex 0.104999996721745 -36 -0.142279997467995
endloop
endfacet
facet normal -0 -0 -1
outer loop
vertex 0.104999996721745 -35 -0.142279997467995
vertex 0.104999996721745 -36 -0.142279997467995
vertex -0.0750000029802322 -35 -0.142279997467995
endloop
endfacet
facet normal -0 0 1
outer loop
vertex -0.0750000029802322 -35 0.292279988527298
vertex -0.0750000029802322 -36 0.292279988527298
vertex 0.104999996721745 -35 0.292279988527298
endloop
endfacet
facet normal 0 -0 1
outer loop
vertex 0.104999996721745 -36 0.292279988527298
vertex 0.104999996721745 -35 0.292279988527298
vertex -0.0750000029802322 -36 0.292279988527298
endloop
endfacet
facet normal 0.70710676908493 0 -0.70710676908493
outer loop
vertex 0.104999996721745 -36 -0.142279997467995
vertex 0.104999996721745 -35 -0.142279997467995
vertex 0.232280001044273 -36 -0.0149999996647239
endloop
endfacet
facet normal 0.70710676908493 0 -0.70710676908493
outer loop
vertex 0.232280001044273 -35 -0.0149999996647239
vertex 0.232280001044273 -36 -0.0149999996647239
vertex 0.104999996721745 -35 -0.142279997467995
endloop
endfacet
facet normal 0.70710676908493 0 0.70710676908493
outer loop
vertex 0.104999996721745 -35 0.292279988527298
vertex 0.104999996721745 -36 0.292279988527298
vertex 0.232280001044273 -35 0.165000006556511
endloop
endfacet
facet normal 0.70710676908493 -0 0.70710676908493
outer loop
vertex 0.232280001044273 -36 0.165000006556511
vertex 0.232280001044273 -35 0.165000006556511
vertex 0.104999996721745 -36 0.292279988527298
endloop
endfacet
facet normal 1 0 0
outer loop
vertex 0.232280001044273 -35 0.165000006556511
vertex 0.232280001044273 -36 0.165000006556511
vertex 0.232280001044273 -35 -0.0149999996647239
endloop
endfacet
facet normal 1 0 0
outer loop
vertex 0.232280001044273 -36 -0.0149999996647239
vertex 0.232280001044273 -35 -0.0149999996647239
vertex 0.232280001044273 -36 0.165000006556511
endloop
endfacet
facet normal -0 0.00406510895118117 0.999991714954376
outer loop
vertex -0.0750000029802322 -34.9997100830078 0.292278826236725
vertex 0.104999996721745 -34.9997100830078 0.292278826236725
vertex -0.0725073739886284 -33.8364944458008 0.287550181150436
endloop
endfacet
facet normal 4.69314962750039e-16 0.00406510941684246 0.999991714954376
outer loop
vertex 0.102507375180721 -33.8364944458008 0.287550181150436
vertex -0.0725073739886284 -33.8364944458008 0.287550181150436
vertex 0.104999996721745 -34.9997100830078 0.292278826236725
endloop
endfacet
facet normal 4.69314962750039e-16 0.00406510941684246 0.999991714954376
outer loop
vertex 0.102507375180721 -33.8364944458008 0.287550181150436
vertex 0.0984151512384415 -31.9268054962158 0.27978703379631
vertex -0.0725073739886284 -33.8364944458008 0.287550181150436
endloop
endfacet
facet normal 1.59601441932563e-16 0.00406510941684246 0.999991774559021
outer loop
vertex -0.0684151500463486 -31.9268054962158 0.27978703379631
vertex -0.0725073739886284 -33.8364944458008 0.287550181150436
vertex 0.0984151512384415 -31.9268054962158 0.27978703379631
endloop
endfacet
facet normal 1.59601441932563e-16 0.00406510895118117 0.999991774559021
outer loop
vertex -0.0684151500463486 -31.9268054962158 0.27978703379631
vertex 0.0984151512384415 -31.9268054962158 0.27978703379631
vertex -0.0616968013346195 -28.7916030883789 0.267041981220245
endloop
endfacet
facet normal 3.61884027044322e-16 0.00406510941684246 0.999991774559021
outer loop
vertex 0.0916967988014221 -28.7916030883789 0.267041981220245
vertex -0.0616968013346195 -28.7916030883789 0.267041981220245
vertex 0.0984151512384415 -31.9268054962158 0.27978703379631
endloop
endfacet
facet normal 3.61884027044322e-16 0.00406510941684246 0.999991774559021
outer loop
vertex 0.0916967988014221 -28.7916030883789 0.267041981220245
vertex 0.0812003165483475 -23.8932857513428 0.247129619121552
vertex -0.0616968013346195 -28.7916030883789 0.267041981220245
endloop
endfacet
facet normal 5.1128809226445e-16 0.00406510895118117 0.999991714954376
outer loop
vertex -0.0512003190815449 -23.8932857513428 0.247129619121552
vertex -0.0616968013346195 -28.7916030883789 0.267041981220245
vertex 0.0812003165483475 -23.8932857513428 0.247129619121552
endloop
endfacet
facet normal 5.11288145204009e-16 0.00406510941684246 0.999991774559021
outer loop
vertex -0.0512003190815449 -23.8932857513428 0.247129619121552
vertex 0.0812003165483475 -23.8932857513428 0.247129619121552
vertex -0.0398429967463017 -18.5932445526123 0.22558419406414
endloop
endfacet
facet normal -1.41961252887053e-16 0.00406510941684246 0.999991714954376
outer loop
vertex 0.0698429942131042 -18.5932445526123 0.22558419406414
vertex -0.0398429967463017 -18.5932445526123 0.22558419406414
vertex 0.0812003165483475 -23.8932857513428 0.247129619121552
endloop
endfacet
facet normal -1.41961252887053e-16 0.00406510941684246 0.999991714954376
outer loop
vertex 0.0698429942131042 -18.5932445526123 0.22558419406414
vertex 0.058485671877861 -13.2932043075562 0.204038769006729
vertex -0.0398429967463017 -18.5932445526123 0.22558419406414
endloop
endfacet
facet normal 7.00471167263134e-17 0.00406510895118117 0.999991714954376
outer loop
vertex -0.0284856725484133 -13.2932043075562 0.204038769006729
vertex -0.0398429967463017 -18.5932445526123 0.22558419406414
vertex 0.058485671877861 -13.2932043075562 0.204038769006729
endloop
endfacet
facet normal 7.00471233437583e-17 0.00406510941684246 0.999991714954376
outer loop
vertex -0.0284856725484133 -13.2932043075562 0.204038769006729
vertex 0.058485671877861 -13.2932043075562 0.204038769006729
vertex -0.0172134935855865 -8.03289699554443 0.182654872536659
endloop
endfacet
facet normal 3.01197848612476e-16 0.00406510941684246 0.999991714954376
outer loop
vertex 0.0472134947776794 -8.03289699554443 0.182654872536659
vertex -0.0172134935855865 -8.03289699554443 0.182654872536659
vertex 0.058485671877861 -13.2932043075562 0.204038769006729
endloop
endfacet
facet normal 3.01197822142696e-16 0.00406510895118117 0.999991714954376
outer loop
vertex 0.0472134947776794 -8.03289699554443 0.182654872536659
vertex 0.0393849648535252 -4.37961435317993 0.167803764343262
vertex -0.0172134935855865 -8.03289699554443 0.182654872536659
endloop
endfacet
facet normal 6.19990530303113e-16 0.00406510941684246 0.999991714954376
outer loop
vertex -0.00938496552407742 -4.37961435317993 0.167803764343262
vertex -0.0172134935855865 -8.03289699554443 0.182654872536659
vertex 0.0393849648535252 -4.37961435317993 0.167803764343262
endloop
endfacet
facet normal 6.19990583242673e-16 0.00406510941684246 0.999991714954376
outer loop
vertex -0.00938496552407742 -4.37961435317993 0.167803764343262
vertex 0.0393849648535252 -4.37961435317993 0.167803764343262
vertex -0.00500802369788289 -2.33705854415894 0.159500479698181
endloop
endfacet
facet normal -5.41364167578641e-16 0.00406510941684246 0.999991774559021
outer loop
vertex 0.0350080244243145 -2.33705854415894 0.159500479698181
vertex -0.00500802369788289 -2.33705854415894 0.159500479698181
vertex 0.0393849648535252 -4.37961435317993 0.167803764343262
endloop
endfacet
facet normal -5.41364167578641e-16 0.00406510941684246 0.999991774559021
outer loop
vertex 0.0350080244243145 -2.33705854415894 0.159500479698181
vertex 0.032560870051384 -1.19506239891052 0.154858097434044
vertex -0.00500802369788289 -2.33705854415894 0.159500479698181
endloop
endfacet
facet normal -7.71005916886715e-17 0.00406510941684246 0.999991714954376
outer loop
vertex -0.00256086909212172 -1.19506239891052 0.154858097434044
vertex -0.00500802369788289 -2.33705854415894 0.159500479698181
vertex 0.032560870051384 -1.19506239891052 0.154858097434044
endloop
endfacet
facet normal -7.71005850712266e-17 0.00406510941684246 0.999991714954376
outer loop
vertex -0.00256086909212172 -1.19506239891052 0.154858097434044
vertex 0.032560870051384 -1.19506239891052 0.154858097434044
vertex -0.00119266135152429 -0.556570649147034 0.152262538671494
endloop
endfacet
facet normal 6.61932478417153e-16 0.00406510895118117 0.999991714954376
outer loop
vertex 0.0311926621943712 -0.556570649147034 0.152262538671494
vertex -0.00119266135152429 -0.556570649147034 0.152262538671494
vertex 0.032560870051384 -1.19506239891052 0.154858097434044
endloop
endfacet
facet normal 6.61932425477594e-16 0.00406510895118117 0.999991714954376
outer loop
vertex 0.0311926621943712 -0.556570649147034 0.152262538671494
vertex 0.0304276943206787 -0.199588999152184 0.150811359286308
vertex -0.00119266135152429 -0.556570649147034 0.152262538671494
endloop
endfacet
facet normal 8.37365760227287e-16 0.00406510941684246 0.999991714954376
outer loop
vertex -0.000427694234531373 -0.199588999152184 0.150811359286308
vertex -0.00119266135152429 -0.556570649147034 0.152262538671494
vertex 0.0304276943206787 -0.199588999152184 0.150811359286308
endloop
endfacet
facet normal 8.37365760227287e-16 0.00406510895118117 0.999991774559021
outer loop
vertex -0.000427694234531373 -0.199588999152184 0.150811359286308
vertex 0.0304276943206787 -0.199588999152184 0.150811359286308
vertex 0 0 0.150000005960464
endloop
endfacet
facet normal 0 0.00406510941684246 0.999991774559021
outer loop
vertex 0.0299999993294477 0 0.150000005960464
vertex 0 0 0.150000005960464
vertex 0.0304276943206787 -0.199588999152184 0.150811359286308
endloop
endfacet
facet normal -0.999983251094818 -0.00577933201566339 0
outer loop
vertex 0.232276618480682 -34.9994163513184 -0.0149999996647239
vertex 0.232276618480682 -34.9994163513184 0.165000006556511
vertex 0.225639313459396 -33.8509788513184 -0.0145078049972653
endloop
endfacet
facet normal -0.999983251094818 -0.0057793315500021 -7.4348330180136e-17
outer loop
vertex 0.225639313459396 -33.8509788513184 0.164507806301117
vertex 0.225639313459396 -33.8509788513184 -0.0145078049972653
vertex 0.232276618480682 -34.9994163513184 0.165000006556511
endloop
endfacet
facet normal -0.999983310699463 -0.00577933248132467 -7.4348330180136e-17
outer loop
vertex 0.225639313459396 -33.8509788513184 0.164507806301117
vertex 0.215073823928833 -32.0228576660156 0.163724318146706
vertex 0.225639313459396 -33.8509788513184 -0.0145078049972653
endloop
endfacet
facet normal -0.999983251094818 -0.00577933248132467 -7.50048733584867e-17
outer loop
vertex 0.215073823928833 -32.0228576660156 -0.0137243112549186
vertex 0.225639313459396 -33.8509788513184 -0.0145078049972653
vertex 0.215073823928833 -32.0228576660156 0.163724318146706
endloop
endfacet
facet normal -0.999983251094818 -0.00577933201566339 -7.50048733584867e-17
outer loop
vertex 0.215073823928833 -32.0228576660156 0.163724318146706
vertex 0.198255315423012 -29.1127948760986 0.162477120757103
vertex 0.215073823928833 -32.0228576660156 -0.0137243112549186
endloop
endfacet
facet normal -0.999983251094818 -0.00577933201566339 -1.58642124180238e-16
outer loop
vertex 0.198255315423012 -29.1127948760986 -0.0124771203845739
vertex 0.215073823928833 -32.0228576660156 -0.0137243112549186
vertex 0.198255315423012 -29.1127948760986 0.162477120757103
endloop
endfacet
facet normal -0.999983310699463 -0.0057793315500021 -1.58642110945348e-16
outer loop
vertex 0.198255315423012 -29.1127948760986 -0.0124771203845739
vertex 0.198255315423012 -29.1127948760986 0.162477120757103
vertex 0.171963721513748 -24.5636253356934 -0.0105274440720677
endloop
endfacet
facet normal -0.999983310699463 -0.00577933201566339 4.22250424068801e-17
outer loop
vertex 0.171963721513748 -24.5636253356934 0.160527437925339
vertex 0.171963721513748 -24.5636253356934 -0.0105274440720677
vertex 0.198255315423012 -29.1127948760986 0.162477120757103
endloop
endfacet
facet normal -0.999983370304108 -0.00577933201566339 4.33396682822953e-17
outer loop
vertex 0.142301604151726 -19.4312648773193 -0.00832782406359911
vertex 0.171963721513748 -24.5636253356934 -0.0105274440720677
vertex 0.142301604151726 -19.4312648773193 0.15832781791687
endloop
endfacet
facet normal -0.999983310699463 -0.00577933201566339 4.22250457156026e-17
outer loop
vertex 0.171963721513748 -24.5636253356934 0.160527437925339
vertex 0.142301604151726 -19.4312648773193 0.15832781791687
vertex 0.171963721513748 -24.5636253356934 -0.0105274440720677
endloop
endfacet
facet normal -0.999983370304108 -0.00577933201566339 4.33396682822953e-17
outer loop
vertex 0.142301604151726 -19.4312648773193 0.15832781791687
vertex 0.112639486789703 -14.298903465271 0.156128197908401
vertex 0.142301604151726 -19.4312648773193 -0.00832782406359911
endloop
endfacet
facet normal -0.999983310699463 -0.00577933248132467 -6.32711906379689e-17
outer loop
vertex 0.112639486789703 -14.298903465271 -0.00612820358946919
vertex 0.142301604151726 -19.4312648773193 -0.00832782406359911
vertex 0.112639486789703 -14.298903465271 0.156128197908401
endloop
endfacet
facet normal -0.999983310699463 -0.00577933248132467 -6.32711906379689e-17
outer loop
vertex 0.112639486789703 -14.298903465271 -0.00612820358946919
vertex 0.112639486789703 -14.298903465271 0.156128197908401
vertex 0.0829773768782616 -9.16654205322266 -0.00392858358100057
endloop
endfacet
facet normal -0.999983310699463 -0.00577933201566339 4.21568165499567e-17
outer loop
vertex 0.0829773768782616 -9.16654205322266 0.153928577899933
vertex 0.0829773768782616 -9.16654205322266 -0.00392858358100057
vertex 0.112639486789703 -14.298903465271 0.156128197908401
endloop
endfacet
facet normal -0.999983310699463 -0.00577933248132467 4.21568198586792e-17
outer loop
vertex 0.0829773768782616 -9.16654205322266 -0.00392858358100057
vertex 0.0829773768782616 -9.16654205322266 0.153928577899933
vertex 0.0592881590127945 -5.06765699386597 -0.00217188918031752
endloop
endfacet
facet normal -0.999983251094818 -0.0057793315500021 4.31164486309142e-17
outer loop
vertex 0.0592881590127945 -5.06765699386597 0.152171894907951
vertex 0.0592881590127945 -5.06765699386597 -0.00217188918031752
vertex 0.0829773768782616 -9.16654205322266 0.153928577899933
endloop
endfacet
facet normal -0.999983310699463 -0.00577933201566339 4.31164519396366e-17
outer loop
vertex 0.0592881590127945 -5.06765699386597 0.152171894907951
vertex 0.0446466840803623 -2.53427910804749 0.151086136698723
vertex 0.0592881590127945 -5.06765699386597 -0.00217188918031752
endloop
endfacet
facet normal -0.999983310699463 -0.00577933201566339 -5.05980259562154e-17
outer loop
vertex 0.0446466840803623 -2.53427910804749 -0.00108613772317767
vertex 0.0592881590127945 -5.06765699386597 -0.00217188918031752
vertex 0.0446466840803623 -2.53427910804749 0.151086136698723
endloop
endfacet
facet normal -0.999983310699463 -0.00577933201566339 -5.05980259562154e-17
outer loop
vertex 0.0446466840803623 -2.53427910804749 -0.00108613772317767
vertex 0.0446466840803623 -2.53427910804749 0.151086136698723
vertex 0.0355954244732857 -0.968162417411804 -0.000414933689171448
endloop
endfacet
facet normal -0.999983310699463 -0.00577933201566339 -4.63064243411106e-17
outer loop
vertex 0.0355954244732857 -0.968162417411804 0.150414928793907
vertex 0.0355954244732857 -0.968162417411804 -0.000414933689171448
vertex 0.0446466840803623 -2.53427910804749 0.151086136698723
endloop
endfacet
facet normal -0.999983370304108 -0.00577933294698596 -4.63064276498331e-17
outer loop
vertex 0.0355954244732857 -0.968162417411804 -0.000414933689171448
vertex 0.0355954244732857 -0.968162417411804 0.150414928793907
vertex 0.0299999993294477 0 0
endloop
endfacet
facet normal -0.999983251094818 -0.00577933201566339 -0
outer loop
vertex 0.0299999993294477 0 0.150000005960464
vertex 0.0299999993294477 0 0
vertex 0.0355954244732857 -0.968162417411804 0.150414928793907
endloop
endfacet
facet normal 0.707099974155426 0.00438967626541853 0.707099974155426
outer loop
vertex 0.232279852032661 -34.9998741149902 0.164999380707741
vertex 0.224471211433411 -33.6487693786621 0.16442035138607
vertex 0.104999206960201 -34.9996299743652 0.292278498411179
endloop
endfacet
facet normal 0.707099974155426 0.00438967626541853 0.707099974155426
outer loop
vertex 0.102103978395462 -33.6485252380371 0.286786049604416
vertex 0.104999206960201 -34.9996299743652 0.292278498411179
vertex 0.224471211433411 -33.6487693786621 0.16442035138607
endloop
endfacet
facet normal 0.707099974155426 0.00438967673107982 0.707099974155426
outer loop
vertex 0.224471211433411 -33.6487693786621 0.16442035138607
vertex 0.207762748003006 -30.757755279541 0.163181394338608
vertex 0.102103978395462 -33.6485252380371 0.286786049604416
endloop
endfacet
facet normal 0.707099974155426 0.00438967673107982 0.707099974155426
outer loop
vertex 0.095909021794796 -30.7575416564941 0.275033801794052
vertex 0.102103978395462 -33.6485252380371 0.286786049604416
vertex 0.207762748003006 -30.757755279541 0.163181394338608
endloop
endfacet
facet normal 0.707099974155426 0.00438967673107982 0.707099974155426
outer loop
vertex 0.095909021794796 -30.7575416564941 0.275033801794052
vertex 0.207762748003006 -30.757755279541 0.163181394338608
vertex 0.0851992815732956 -25.7596645355225 0.254716724157333
endloop
endfacet
facet normal 0.707099974155426 0.00438967673107982 0.707099974155426
outer loop
vertex 0.178877517580986 -25.7598304748535 0.161039501428604
vertex 0.0851992815732956 -25.7596645355225 0.254716724157333
vertex 0.207762748003006 -30.757755279541 0.163181394338608
endloop
endfacet
facet normal 0.707099974155426 0.00438967626541853 0.707099974155426
outer loop
vertex 0.178877517580986 -25.7598304748535 0.161039501428604
vertex 0.14910201728344 -20.6078643798828 0.158831611275673
vertex 0.0851992815732956 -25.7596645355225 0.254716724157333
endloop
endfacet
facet normal 0.707099914550781 0.00438967626541853 0.707099914550781
outer loop
vertex 0.0741594210267067 -20.6077308654785 0.233773365616798
vertex 0.0851992815732956 -25.7596645355225 0.254716724157333
vertex 0.14910201728344 -20.6078643798828 0.158831611275673
endloop
endfacet
facet normal 0.707099914550781 0.00438967626541853 0.707099914550781
outer loop
vertex 0.0741594210267067 -20.6077308654785 0.233773365616798
vertex 0.14910201728344 -20.6078643798828 0.158831611275673
vertex 0.0631195679306984 -15.4557981491089 0.212830021977425
endloop
endfacet
facet normal 0.707099974155426 0.00438967673107982 0.707099974155426
outer loop
vertex 0.119326509535313 -15.4558982849121 0.156623706221581
vertex 0.0631195679306984 -15.4557981491089 0.212830021977425
vertex 0.14910201728344 -20.6078643798828 0.158831611275673
endloop
endfacet
facet normal 0.707099974155426 0.00438967673107982 0.707099974155426
outer loop
vertex 0.119326509535313 -15.4558982849121 0.156623706221581
vertex 0.0895510092377663 -10.3039321899414 0.154415801167488
vertex 0.0631195679306984 -15.4557981491089 0.212830021977425
endloop
endfacet
facet normal 0.707099914550781 0.00438967626541853 0.707099914550781
outer loop
vertex 0.0520797111093998 -10.3038654327393 0.191886693239212
vertex 0.0631195679306984 -15.4557981491089 0.212830021977425
vertex 0.0895510092377663 -10.3039321899414 0.154415801167488
endloop
endfacet
facet normal 0.707099914550781 0.00438967626541853 0.707099914550781
outer loop
vertex 0.0520797111093998 -10.3038654327393 0.191886693239212
vertex 0.0895510092377663 -10.3039321899414 0.154415801167488
vertex 0.0410398542881012 -5.15193271636963 0.170943349599838
endloop
endfacet
facet normal 0.707099914550781 0.00438967626541853 0.707099914550781
outer loop
vertex 0.0597755052149296 -5.1519660949707 0.152207896113396
vertex 0.0410398542881012 -5.15193271636963 0.170943349599838
vertex 0.0895510092377663 -10.3039321899414 0.154415801167488
endloop
endfacet
facet normal 0.707099914550781 0.00438967626541853 0.707099914550781
outer loop
vertex 0.0410398542881012 -5.15193271636963 0.170943349599838
vertex 0.0597755052149296 -5.1519660949707 0.152207896113396
vertex 0.0299999993294477 0 0.150000005960464
endloop
endfacet
facet normal 0.707100868225098 0.00408663926646113 -0.707100868225098
outer loop
vertex 0.307276427745819 -69.9995651245117 -0.142281055450439
vertex 0.304381191730499 -68.6484527587891 -0.137367606163025
vertex 0.434553235769272 -69.9988327026367 -0.0149999996647239
endloop
endfacet
facet normal 0.707100927829742 0.00408663926646113 -0.707100927829742
outer loop
vertex 0.426744669675827 -68.6477355957031 -0.0149999996647239
vertex 0.434553235769272 -69.9988327026367 -0.0149999996647239
vertex 0.304381191730499 -68.6484527587891 -0.137367606163025
endloop
endfacet
facet normal 0.707100868225098 0.00408663926646113 -0.707100868225098
outer loop
vertex 0.304381191730499 -68.6484527587891 -0.137367606163025
vertex 0.298186153173447 -65.7574157714844 -0.126854106783867
vertex 0.426744669675827 -68.6477355957031 -0.0149999996647239
endloop
endfacet
facet normal 0.707100868225098 0.00408663880079985 -0.707100868225098
outer loop
vertex 0.410036534070969 -65.7567672729492 -0.0149999996647239
vertex 0.426744669675827 -68.6477355957031 -0.0149999996647239
vertex 0.298186153173447 -65.7574157714844 -0.126854106783867
endloop
endfacet
facet normal 0.707100927829742 0.00408663926646113 -0.707100927829742
outer loop
vertex 0.410036534070969 -65.7567672729492 -0.0149999996647239
vertex 0.298186153173447 -65.7574157714844 -0.126854106783867
vertex 0.381151854991913 -60.7589225769043 -0.0149999996647239
endloop
endfacet
facet normal 0.707100868225098 0.00408663880079985 -0.707100868225098
outer loop
vertex 0.287476301193237 -60.759449005127 -0.108678579330444
vertex 0.381151854991913 -60.7589225769043 -0.0149999996647239
vertex 0.298186153173447 -65.7574157714844 -0.126854106783867
endloop
endfacet
facet normal 0.707100868225098 0.00408663880079985 -0.707100868225098
outer loop
vertex 0.287476301193237 -60.759449005127 -0.108678579330444
vertex 0.276436388492584 -55.6074409484863 -0.0899428650736809
vertex 0.381151854991913 -60.7589225769043 -0.0149999996647239
endloop
endfacet
facet normal 0.707100868225098 0.00408663926646113 -0.707100868225098
outer loop
vertex 0.351376801729202 -55.6070213317871 -0.0149999996647239
vertex 0.381151854991913 -60.7589225769043 -0.0149999996647239
vertex 0.276436388492584 -55.6074409484863 -0.0899428650736809
endloop
endfacet
facet normal 0.707100868225098 0.00408663926646113 -0.707100868225098
outer loop
vertex 0.351376801729202 -55.6070213317871 -0.0149999996647239
vertex 0.276436388492584 -55.6074409484863 -0.0899428650736809
vertex 0.321601748466492 -50.4551200866699 -0.0149999996647239
endloop
endfacet
facet normal 0.707100868225098 0.00408663880079985 -0.707100868225098
outer loop
vertex 0.265396445989609 -50.455436706543 -0.0712071433663368
vertex 0.321601748466492 -50.4551200866699 -0.0149999996647239
vertex 0.276436388492584 -55.6074409484863 -0.0899428650736809
endloop
endfacet
facet normal 0.707100868225098 0.00408663880079985 -0.707100868225098
outer loop
vertex 0.265396445989609 -50.455436706543 -0.0712071433663368
vertex 0.254356503486633 -45.3034286499023 -0.0524714328348637
vertex 0.321601748466492 -50.4551200866699 -0.0149999996647239
endloop
endfacet
facet normal 0.707100868225098 0.00408663926646113 -0.707100868225098
outer loop
vertex 0.291826725006104 -45.3032188415527 -0.0149999996647239
vertex 0.321601748466492 -50.4551200866699 -0.0149999996647239
vertex 0.254356503486633 -45.3034286499023 -0.0524714328348637
endloop
endfacet
facet normal 0.707100868225098 0.00408663926646113 -0.707100868225098
outer loop
vertex 0.291826725006104 -45.3032188415527 -0.0149999996647239
vertex 0.254356503486633 -45.3034286499023 -0.0524714328348637
vertex 0.262051671743393 -40.1513175964355 -0.0149999996647239
endloop
endfacet
facet normal 0.707100868225098 0.00408663926646113 -0.707100868225098
outer loop
vertex 0.243316560983658 -40.1514205932617 -0.0337357148528099
vertex 0.262051671743393 -40.1513175964355 -0.0149999996647239
vertex 0.254356503486633 -45.3034286499023 -0.0524714328348637
endloop
endfacet
facet normal 0.707100868225098 0.00408663926646113 -0.707100868225098
outer loop
vertex 0.262051671743393 -40.1513175964355 -0.0149999996647239
vertex 0.243316560983658 -40.1514205932617 -0.0337357148528099
vertex 0.232276618480682 -34.9994163513184 -0.0149999996647239
endloop
endfacet
facet normal 0.222985595464706 0.671033382415771 -0.707100868225098
outer loop
vertex 61.9644241333008 -61.4210433959961 -0.217276439070702
vertex 61.9228935241699 -61.5413589477539 -0.344553232192993
vertex 60.6831550598145 -60.9922256469727 -0.214381203055382
endloop
endfacet
facet normal 0.222985610365868 0.671033382415771 -0.707100927829742
outer loop
vertex 60.6432151794434 -61.1078948974609 -0.336744666099548
vertex 60.6831550598145 -60.9922256469727 -0.214381203055382
vertex 61.9228935241699 -61.5413589477539 -0.344553232192993
endloop
endfacet
facet normal 0.222985595464706 0.671033322811127 -0.707100868225098
outer loop
vertex 60.6831550598145 -60.9922256469727 -0.214381203055382
vertex 60.6432151794434 -61.1078948974609 -0.336744666099548
vertex 57.9415702819824 -60.0746612548828 -0.208186164498329
endloop
endfacet
facet normal 0.222985595464706 0.671033382415771 -0.707100868225098
outer loop
vertex 57.9050750732422 -60.1803970336914 -0.320036560297012
vertex 57.9415702819824 -60.0746612548828 -0.208186164498329
vertex 60.6432151794434 -61.1078948974609 -0.336744666099548
endloop
endfacet
facet normal 0.222985610365868 0.671033382415771 -0.707100927829742
outer loop
vertex 57.9050750732422 -60.1803970336914 -0.320036560297012
vertex 53.1714210510254 -58.5769577026367 -0.291151851415634
vertex 57.9415702819824 -60.0746612548828 -0.208186164498329
endloop
endfacet
facet normal 0.222985610365868 0.671033382415771 -0.707100868225098
outer loop
vertex 53.201976776123 -58.4884033203125 -0.19747631251812
vertex 57.9415702819824 -60.0746612548828 -0.208186164498329
vertex 53.1714210510254 -58.5769577026367 -0.291151851415634
endloop
endfacet
facet normal 0.222985595464706 0.671033322811127 -0.707100868225098
outer loop
vertex 53.201976776123 -58.4884033203125 -0.19747631251812
vertex 53.1714210510254 -58.5769577026367 -0.291151851415634
vertex 48.3163032531738 -56.8532485961914 -0.186436370015144
endloop
endfacet
facet normal 0.222985625267029 0.671033382415771 -0.707100868225098
outer loop
vertex 48.2918586730957 -56.9240951538086 -0.261376798152924
vertex 48.3163032531738 -56.8532485961914 -0.186436370015144
vertex 53.1714210510254 -58.5769577026367 -0.291151851415634
endloop
endfacet
facet normal 0.222985625267029 0.671033382415771 -0.707100868225098
outer loop
vertex 48.2918586730957 -56.9240951538086 -0.261376798152924
vertex 43.412296295166 -55.2712326049805 -0.231601759791374
vertex 48.3163032531738 -56.8532485961914 -0.186436370015144
endloop
endfacet
facet normal 0.222985580563545 0.671033382415771 -0.707100868225098
outer loop
vertex 43.4306297302246 -55.2180976867676 -0.17539644241333
vertex 48.3163032531738 -56.8532485961914 -0.186436370015144
vertex 43.412296295166 -55.2712326049805 -0.231601759791374
endloop
endfacet
facet normal 0.222985580563545 0.671033382415771 -0.707100868225098
outer loop
vertex 43.4306297302246 -55.2180976867676 -0.17539644241333
vertex 43.412296295166 -55.2712326049805 -0.231601759791374
vertex 38.5449562072754 -53.5829467773438 -0.164356499910355
endloop
endfacet
facet normal 0.222985625267029 0.671033382415771 -0.707100868225098
outer loop
vertex 38.5327339172363 -53.6183700561523 -0.201826706528664
vertex 38.5449562072754 -53.5829467773438 -0.164356499910355
vertex 43.412296295166 -55.2712326049805 -0.231601759791374
endloop
endfacet
facet normal 0.222985625267029 0.671033382415771 -0.707100868225098
outer loop
vertex 38.5327339172363 -53.6183700561523 -0.201826706528664
vertex 33.6531715393066 -51.9655075073242 -0.172051668167114
vertex 38.5449562072754 -53.5829467773438 -0.164356499910355
endloop
endfacet
facet normal 0.222985625267029 0.671033382415771 -0.707100868225098
outer loop
vertex 33.6592826843262 -51.9477958679199 -0.153316557407379
vertex 38.5449562072754 -53.5829467773438 -0.164356499910355
vertex 33.6531715393066 -51.9655075073242 -0.172051668167114
endloop
endfacet
facet normal 0.222985625267029 0.671033382415771 -0.707100868225098
outer loop
vertex 33.6531715393066 -51.9655075073242 -0.172051668167114
vertex 28.773609161377 -50.3126449584961 -0.142276614904404
vertex 33.6592826843262 -51.9477958679199 -0.153316557407379
endloop
endfacet
endsolid COMSOL mesh mesh1
