solid COMSOL mesh mesh1
facet normal -0.00923807360231876 0.999957382678986 0
outer loop
vertex 0 0 0.150000005960464
vertex 0 0 0
vertex -0.973984360694885 -0.00899812206625938 0.150000005960464
endloop
endfacet
facet normal -0.00923807360231876 0.999957382678986 -9.20752110625639e-19
outer loop
vertex -0.973984360694885 -0.00899812206625938 2.77555756156289e-17
vertex -0.973984360694885 -0.00899812206625938 0.150000005960464
vertex 0 0 0
endloop
endfacet
facet normal -0.00923807267099619 0.999957323074341 -9.20752110625639e-19
outer loop
vertex -0.973984360694885 -0.00899812206625938 0.150000005960464
vertex -0.973984360694885 -0.00899812206625938 2.77555756156289e-17
vertex -2.5849404335022 -0.0238808877766132 0.150000005960464
endloop
endfacet
facet normal -0.00923807267099619 0.999957323074341 2.12871555743622e-17
outer loop
vertex -2.5849404335022 -0.0238808877766132 2.77555756156289e-17
vertex -2.5849404335022 -0.0238808877766132 0.150000005960464
vertex -0.973984360694885 -0.00899812206625938 2.77555756156289e-17
endloop
endfacet
facet normal -0.00923807267099619 0.999957323074341 2.1287153920001e-17
outer loop
vertex -2.5849404335022 -0.0238808877766132 0.150000005960464
vertex -2.5849404335022 -0.0238808877766132 2.77555756156289e-17
vertex -5.24943923950195 -0.0484967678785324 0.150000005960464
endloop
endfacet
facet normal -0.00923807267099619 0.999957323074341 7.15864932288297e-17
outer loop
vertex -5.24943923950195 -0.0484967678785324 2.77555756156289e-17
vertex -5.24943923950195 -0.0484967678785324 0.150000005960464
vertex -2.5849404335022 -0.0238808877766132 2.77555756156289e-17
endloop
endfacet
facet normal -0.00923807267099619 0.999957323074341 7.15864932288297e-17
outer loop
vertex -5.24943923950195 -0.0484967678785324 0.150000005960464
vertex -5.24943923950195 -0.0484967678785324 2.77555756156289e-17
vertex -9.6325101852417 -0.0889896228909492 0.150000005960464
endloop
endfacet
facet normal -0.00923807267099619 0.999957323074341 9.25146391824541e-17
outer loop
vertex -9.6325101852417 -0.0889896228909492 2.77555756156289e-17
vertex -9.6325101852417 -0.0889896228909492 0.150000005960464
vertex -5.24943923950195 -0.0484967678785324 2.77555756156289e-17
endloop
endfacet
facet normal -0.00923807267099619 0.999957323074341 9.25146391824541e-17
outer loop
vertex -9.6325101852417 -0.0889896228909492 0.150000005960464
vertex -9.6325101852417 -0.0889896228909492 2.77555756156289e-17
vertex -14.8770055770874 -0.137440726161003 0.150000005960464
endloop
endfacet
facet normal -0.00923807267099619 0.999957323074341 5.13231556422365e-16
outer loop
vertex -14.8770055770874 -0.137440726161003 2.77555756156289e-17
vertex -14.8770055770874 -0.137440726161003 0.150000005960464
vertex -9.6325101852417 -0.0889896228909492 2.77555756156289e-17
endloop
endfacet
facet normal -0.00923807267099619 0.999957323074341 5.13231556422365e-16
outer loop
vertex -14.8770055770874 -0.137440726161003 0.150000005960464
vertex -14.8770055770874 -0.137440726161003 2.77555756156289e-17
vertex -20.1215000152588 -0.185891821980476 0.150000005960464
endloop
endfacet
facet normal -0.00923807267099619 0.999957323074341 2.18801514293342e-16
outer loop
vertex -20.1215000152588 -0.185891821980476 2.77555756156289e-17
vertex -20.1215000152588 -0.185891821980476 0.150000005960464
vertex -14.8770055770874 -0.137440726161003 2.77555756156289e-17
endloop
endfacet
facet normal -0.00923807267099619 0.999957323074341 2.18801514293342e-16
outer loop
vertex -20.1215000152588 -0.185891821980476 0.150000005960464
vertex -20.1215000152588 -0.185891821980476 2.77555756156289e-17
vertex -25.3659954071045 -0.23434291779995 0.150000005960464
endloop
endfacet
facet normal -0.00923807267099619 0.999957323074341 -8.3712563962163e-17
outer loop
vertex -25.3659954071045 -0.23434291779995 2.77555756156289e-17
vertex -25.3659954071045 -0.23434291779995 0.150000005960464
vertex -20.1215000152588 -0.185891821980476 2.77555756156289e-17
endloop
endfacet
facet normal -0.00923807267099619 0.999957323074341 -8.3712563962163e-17
outer loop
vertex -25.3659954071045 -0.23434291779995 0.150000005960464
vertex -25.3659954071045 -0.23434291779995 2.77555756156289e-17
vertex -29.7490673065186 -0.274835765361786 0.150000005960464
endloop
endfacet
facet normal -0.00923807267099619 0.999957323074341 0
outer loop
vertex -29.7490673065186 -0.274835765361786 2.77555756156289e-17
vertex -29.7490673065186 -0.274835765361786 0.150000005960464
vertex -25.3659954071045 -0.23434291779995 2.77555756156289e-17
endloop
endfacet
facet normal -0.00923807267099619 0.999957323074341 0
outer loop
vertex -29.7490673065186 -0.274835765361786 0.150000005960464
vertex -29.7490673065186 -0.274835765361786 2.77555756156289e-17
vertex -32.4135665893555 -0.299451649188995 0.150000005960464
endloop
endfacet
facet normal -0.00923807267099619 0.999957323074341 5.72691945830637e-16
outer loop
vertex -32.4135665893555 -0.299451649188995 2.77555756156289e-17
vertex -32.4135665893555 -0.299451649188995 0.150000005960464
vertex -29.7490673065186 -0.274835765361786 2.77555756156289e-17
endloop
endfacet
facet normal -0.00923807267099619 0.999957323074341 5.72691945830637e-16
outer loop
vertex -32.4135665893555 -0.299451649188995 0.150000005960464
vertex -32.4135665893555 -0.299451649188995 2.77555756156289e-17
vertex -34.0245208740234 -0.31433442234993 0.150000005960464
endloop
endfacet
facet normal -0.00923807267099619 0.999957323074341 7.40117113459633e-16
outer loop
vertex -34.0245208740234 -0.31433442234993 2.77555756156289e-17
vertex -34.0245208740234 -0.31433442234993 0.150000005960464
vertex -32.4135665893555 -0.299451649188995 2.77555756156289e-17
endloop
endfacet
facet normal -0.00923807360231876 0.999957382678986 7.40117166399192e-16
outer loop
vertex -34.0245208740234 -0.31433442234993 0.150000005960464
vertex -34.0245208740234 -0.31433442234993 2.77555756156289e-17
vertex -34.9985046386719 -0.323332548141479 0.150000005960464
endloop
endfacet
facet normal -0.00923807360231876 0.999957382678986 0
outer loop
vertex -34.9985046386719 -0.323332548141479 0
vertex -34.9985046386719 -0.323332548141479 0.150000005960464
vertex -34.0245208740234 -0.31433442234993 2.77555756156289e-17
endloop
endfacet
facet normal -0.707113265991211 0.00335515174083412 0.70709228515625
outer loop
vertex -3.71083974838257 -0.0117915095761418 -3.71089386940002
vertex -3.71085572242737 -0.0342826172709465 -3.71080327033997
vertex 0 0 0
endloop
endfacet
facet normal -0.707113265991211 0.00335515174083412 0.70709228515625
outer loop
vertex -7.42167949676514 -0.0235830191522837 -7.42178773880005
vertex -7.42171144485474 -0.068565234541893 -7.42160654067993
vertex -3.71083974838257 -0.0117915095761418 -3.71089386940002
endloop
endfacet
facet normal -0.707113265991211 0.00335515174083412 0.70709228515625
outer loop
vertex -3.71085572242737 -0.0342826172709465 -3.71080327033997
vertex -3.71083974838257 -0.0117915095761418 -3.71089386940002
vertex -7.42171144485474 -0.068565234541893 -7.42160654067993
endloop
endfacet
facet normal -0.707113265991211 0.00335515174083412 0.70709228515625
outer loop
vertex -7.42167949676514 -0.0235830191522837 -7.42178773880005
vertex -11.1325187683105 -0.0353745296597481 -11.1326818466187
vertex -7.42171144485474 -0.068565234541893 -7.42160654067993
endloop
endfacet
facet normal -0.7071133852005 0.00335515174083412 0.707092344760895
outer loop
vertex -11.1325674057007 -0.10284785181284 -11.1324100494385
vertex -7.42171144485474 -0.068565234541893 -7.42160654067993
vertex -11.1325187683105 -0.0353745296597481 -11.1326818466187
endloop
endfacet
facet normal -0.707113265991211 0.00335515174083412 0.70709228515625
outer loop
vertex -14.8433589935303 -0.0471660383045673 -14.8435754776001
vertex -14.8434228897095 -0.137130469083786 -14.8432130813599
vertex -11.1325187683105 -0.0353745296597481 -11.1326818466187
endloop
endfacet
facet normal -0.7071133852005 0.00335515174083412 0.707092344760895
outer loop
vertex -11.1325674057007 -0.10284785181284 -11.1324100494385
vertex -11.1325187683105 -0.0353745296597481 -11.1326818466187
vertex -14.8434228897095 -0.137130469083786 -14.8432130813599
endloop
endfacet
facet normal -0.707113265991211 0.00335515174083412 0.70709228515625
outer loop
vertex -14.8433589935303 -0.0471660383045673 -14.8435754776001
vertex -18.55419921875 -0.0589575469493866 -18.5544700622559
vertex -14.8434228897095 -0.137130469083786 -14.8432130813599
endloop
endfacet
facet normal -0.707113265991211 0.00335515150800347 0.70709228515625
outer loop
vertex -18.5542793273926 -0.171413093805313 -18.5540161132813
vertex -14.8434228897095 -0.137130469083786 -14.8432130813599
vertex -18.55419921875 -0.0589575469493866 -18.5544700622559
endloop
endfacet
facet normal -0.707113265991211 0.00335515174083412 0.70709228515625
outer loop
vertex -22.0687446594238 -0.0701253190636635 -22.0690670013428
vertex -22.0688514709473 -0.203882351517677 -22.0685386657715
vertex -18.55419921875 -0.0589575469493866 -18.5544700622559
endloop
endfacet
facet normal -0.707113325595856 0.00335515174083412 0.70709228515625
outer loop
vertex -18.5542793273926 -0.171413093805313 -18.5540161132813
vertex -18.55419921875 -0.0589575469493866 -18.5544700622559
vertex -22.0688514709473 -0.203882351517677 -22.0685386657715
endloop
endfacet
facet normal -0.707113325595856 0.00335515174083412 0.707092344760895
outer loop
vertex -22.0687446594238 -0.0701253190636635 -22.0690670013428
vertex -23.9282722473145 -0.0760341212153435 -23.9286212921143
vertex -22.0688514709473 -0.203882351517677 -22.0685386657715
endloop
endfacet
facet normal -0.707113325595856 0.00335515150800347 0.70709228515625
outer loop
vertex -23.9283905029297 -0.221061646938324 -23.9280529022217
vertex -22.0688514709473 -0.203882351517677 -22.0685386657715
vertex -23.9282722473145 -0.0760341212153435 -23.9286212921143
endloop
endfacet
facet normal -0.707113325595856 0.00335515174083412 0.707092344760895
outer loop
vertex -23.9282722473145 -0.0760341212153435 -23.9286212921143
vertex -24.7484931945801 -0.0786404460668564 -24.7488555908203
vertex -23.9283905029297 -0.221061646938324 -23.9280529022217
endloop
endfacet
facet normal -0.707113325595856 0.00335515150800347 0.70709228515625
outer loop
vertex -24.7486114501953 -0.228639230132103 -24.7482624053955
vertex -23.9283905029297 -0.221061646938324 -23.9280529022217
vertex -24.7484931945801 -0.0786404460668564 -24.7488555908203
endloop
endfacet
facet normal 0.707100093364716 0.00396118126809597 -0.707102298736572
outer loop
vertex -0.149007648229599 -0.000473484484246001 -0.149009823799133
vertex 0 0 0
vertex -0.14883553981781 -0.0311955064535141 -0.149009823799133
endloop
endfacet
facet normal 0.707100093364716 0.00396118173375726 -0.707102298736572
outer loop
vertex 0.000168057653354481 -0.0299995299428701 0
vertex -0.14883553981781 -0.0311955064535141 -0.149009823799133
vertex 0 0 0
endloop
endfacet
facet normal 0.707100033760071 0.00396118126809597 -0.707102358341217
outer loop
vertex -0.399768143892288 -0.00127029733266681 -0.399773985147476
vertex -0.149007648229599 -0.000473484484246001 -0.149009823799133
vertex -0.399589240550995 -0.033208180218935 -0.399773985147476
endloop
endfacet
facet normal 0.707100093364716 0.00396118126809597 -0.707102358341217
outer loop
vertex -0.14883553981781 -0.0311955064535141 -0.149009823799133
vertex -0.399589240550995 -0.033208180218935 -0.399773985147476
vertex -0.149007648229599 -0.000473484484246001 -0.149009823799133
endloop
endfacet
facet normal 0.707100093364716 0.00396118173375726 -0.707102358341217
outer loop
vertex -0.399768143892288 -0.00127029733266681 -0.399773985147476
vertex -0.399589240550995 -0.033208180218935 -0.399773985147476
vertex -0.821765542030334 -0.00261122989468277 -0.821777522563934
endloop
endfacet
facet normal 0.707100093364716 0.00396118173375726 -0.707102358341217
outer loop
vertex -0.821575164794922 -0.0365952514111996 -0.821777522563934
vertex -0.821765542030334 -0.00261122989468277 -0.821777522563934
vertex -0.399589240550995 -0.033208180218935 -0.399773985147476
endloop
endfacet
facet normal 0.707100093364716 0.00396118173375726 -0.707102417945862
outer loop
vertex -1.5319322347641 -0.00486784521490335 -1.53195464611053
vertex -0.821765542030334 -0.00261122989468277 -0.821777522563934
vertex -1.53172254562378 -0.0422952510416508 -1.53195464611053
endloop
endfacet
facet normal 0.707100093364716 0.00396118173375726 -0.707102358341217
outer loop
vertex -0.821575164794922 -0.0365952514111996 -0.821777522563934
vertex -1.53172254562378 -0.0422952510416508 -1.53195464611053
vertex -0.821765542030334 -0.00261122989468277 -0.821777522563934
endloop
endfacet
facet normal 0.707100093364716 0.00396118126809597 -0.707102358341217
outer loop
vertex -2.72705078125 -0.00866543594747782 -2.72709059715271
vertex -1.5319322347641 -0.00486784521490335 -1.53195464611053
vertex -2.72680854797363 -0.0518876053392887 -2.72709059715271
endloop
endfacet
facet normal 0.707100093364716 0.00396118126809597 -0.707102358341217
outer loop
vertex -1.53172254562378 -0.0422952510416508 -1.53195464611053
vertex -2.72680854797363 -0.0518876053392887 -2.72709059715271
vertex -1.5319322347641 -0.00486784521490335 -1.53195464611053
endloop
endfacet
facet normal 0.70710015296936 0.00396118126809597 -0.707102358341217
outer loop
vertex -2.72705078125 -0.00866543594747782 -2.72709059715271
vertex -2.72680854797363 -0.0518876053392887 -2.72709059715271
vertex -4.73827981948853 -0.0150562878698111 -4.73834896087646
endloop
endfacet
facet normal 0.707100093364716 0.00396118173375726 -0.707102417945862
outer loop
vertex -4.73798322677612 -0.0680302977561951 -4.73834896087646
vertex -4.73827981948853 -0.0150562878698111 -4.73834896087646
vertex -2.72680854797363 -0.0518876053392887 -2.72709059715271
endloop
endfacet
facet normal 0.707100093364716 0.00396118173375726 -0.707102358341217
outer loop
vertex -7.97684192657471 -0.0253470949828625 -7.97695875167847
vertex -4.73827981948853 -0.0150562878698111 -4.73834896087646
vertex -7.9764575958252 -0.0940239131450653 -7.97695875167847
endloop
endfacet
facet normal 0.70710015296936 0.00396118173375726 -0.707102358341217
outer loop
vertex -4.73798322677612 -0.0680302977561951 -4.73834896087646
vertex -7.9764575958252 -0.0940239131450653 -7.97695875167847
vertex -4.73827981948853 -0.0150562878698111 -4.73834896087646
endloop
endfacet
facet normal 0.707100093364716 0.00396118126809597 -0.707102358341217
outer loop
vertex -7.97684192657471 -0.0253470949828625 -7.97695875167847
vertex -7.9764575958252 -0.0940239131450653 -7.97695875167847
vertex -11.5189018249512 -0.0366022922098637 -11.5190706253052
endloop
endfacet
facet normal 0.707100033760071 0.00396118173375726 -0.707102358341217
outer loop
vertex -11.5184211730957 -0.122453488409519 -11.5190706253052
vertex -11.5189018249512 -0.0366022922098637 -11.5190706253052
vertex -7.9764575958252 -0.0940239131450653 -7.97695875167847
endloop
endfacet
facet normal 0.707100033760071 0.00396118173375726 -0.707102358341217
outer loop
vertex -11.5189018249512 -0.0366022922098637 -11.5190706253052
vertex -11.5184211730957 -0.122453488409519 -11.5190706253052
vertex -15.060962677002 -0.0478574931621552 -15.061182975769
endloop
endfacet
facet normal 0.70710015296936 0.00396118219941854 -0.707102417945862
outer loop
vertex -15.0603857040405 -0.150883063673973 -15.061182975769
vertex -15.060962677002 -0.0478574931621552 -15.061182975769
vertex -11.5184211730957 -0.122453488409519 -11.5190706253052
endloop
endfacet
facet normal 0.707100093364716 0.00396118126809597 -0.707102358341217
outer loop
vertex -18.5956249237061 -0.0590891800820827 -18.5958957672119
vertex -15.060962677002 -0.0478574931621552 -15.061182975769
vertex -18.5949516296387 -0.179253250360489 -18.5958957672119
endloop
endfacet
facet normal 0.707100093364716 0.00396118173375726 -0.707102358341217
outer loop
vertex -15.0603857040405 -0.150883063673973 -15.061182975769
vertex -18.5949516296387 -0.179253250360489 -18.5958957672119
vertex -15.060962677002 -0.0478574931621552 -15.061182975769
endloop
endfacet
facet normal 0.70710015296936 0.00396118173375726 -0.707102358341217
outer loop
vertex -21.2901153564453 -0.0676511526107788 -21.2904262542725
vertex -18.5956249237061 -0.0590891800820827 -18.5958957672119
vertex -21.2893695831299 -0.200879991054535 -21.2904262542725
endloop
endfacet
facet normal 0.707100093364716 0.00396118173375726 -0.707102358341217
outer loop
vertex -18.5949516296387 -0.179253250360489 -18.5958957672119
vertex -21.2893695831299 -0.200879991054535 -21.2904262542725
vertex -18.5956249237061 -0.0590891800820827 -18.5958957672119
endloop
endfacet
facet normal 0.707100093364716 0.00396118173375726 -0.707102358341217
outer loop
vertex -21.2901153564453 -0.0676511526107788 -21.2904262542725
vertex -21.2893695831299 -0.200879991054535 -21.2904262542725
vertex -22.9927635192871 -0.073061466217041 -22.9930992126465
endloop
endfacet
facet normal 0.707100093364716 0.00396118126809597 -0.707102358341217
outer loop
vertex -22.9919719696045 -0.21454593539238 -22.9930992126465
vertex -22.9927635192871 -0.073061466217041 -22.9930992126465
vertex -21.2893695831299 -0.200879991054535 -21.2904262542725
endloop
endfacet
facet normal 0.707100093364716 0.00396118173375726 -0.707102358341217
outer loop
vertex -24.0686664581299 -0.0764802396297455 -24.069019317627
vertex -22.9927635192871 -0.073061466217041 -22.9930992126465
vertex -24.0678443908691 -0.223181441426277 -24.069019317627
endloop
endfacet
facet normal 0.70710015296936 0.00396118173375726 -0.707102358341217
outer loop
vertex -22.9919719696045 -0.21454593539238 -22.9930992126465
vertex -24.0678443908691 -0.223181441426277 -24.069019317627
vertex -22.9927635192871 -0.073061466217041 -22.9930992126465
endloop
endfacet
facet normal 0.707100093364716 0.00396118173375726 -0.707102358341217
outer loop
vertex -24.0686664581299 -0.0764802396297455 -24.069019317627
vertex -24.0678443908691 -0.223181441426277 -24.069019317627
vertex -24.7485294342041 -0.0786405652761459 -24.7488918304443
endloop
endfacet
facet normal 0.707100093364716 0.00396118173375726 -0.707102358341217
outer loop
vertex -24.7476902008057 -0.228638216853142 -24.7488918304443
vertex -24.7485294342041 -0.0786405652761459 -24.7488918304443
vertex -24.0678443908691 -0.223181441426277 -24.069019317627
endloop
endfacet
facet normal -0.324995636940002 -0.945715546607971 -2.28118359705404e-13
outer loop
vertex -4.24763679504395 -39.3171081542969 0.0596387460827827
vertex -4.24763679504395 -39.3171081542969 0.0903612524271011
vertex -4.44692754745483 -39.2486190795898 0.0599999986588955
endloop
endfacet
facet normal -0.324995636940002 -0.945715546607971 -0
outer loop
vertex -4.44692754745483 -39.2486190795898 0.0900000035762787
vertex -4.44692754745483 -39.2486190795898 0.0599999986588955
vertex -4.24763679504395 -39.3171081542969 0.0903612524271011
endloop
endfacet
facet normal -0.32499560713768 -0.945715546607971 -2.55585347807771e-13
outer loop
vertex -3.91225576400757 -39.4323616027832 0.0590308085083961
vertex -3.91225576400757 -39.4323616027832 0.0909691900014877
vertex -4.24763679504395 -39.3171081542969 0.0596387460827827
endloop
endfacet
facet normal -0.32499560713768 -0.945715487003326 -2.28118332600349e-13
outer loop
vertex -4.24763679504395 -39.3171081542969 0.0903612524271011
vertex -4.24763679504395 -39.3171081542969 0.0596387460827827
vertex -3.91225576400757 -39.4323616027832 0.0909691900014877
endloop
endfacet
facet normal -0.324995666742325 -0.945715546607971 -2.55585374912826e-13
outer loop
vertex -3.91225576400757 -39.4323616027832 0.0590308085083961
vertex -3.34785342216492 -39.6263160705566 0.058007724583149
vertex -3.91225576400757 -39.4323616027832 0.0909691900014877
endloop
endfacet
facet normal -0.324995636940002 -0.945715487003326 -2.82665302839616e-13
outer loop
vertex -3.34785342216492 -39.6263160705566 0.0919922739267349
vertex -3.91225576400757 -39.4323616027832 0.0909691900014877
vertex -3.34785342216492 -39.6263160705566 0.058007724583149
endloop
endfacet
facet normal -0.324995636940002 -0.945715487003326 -3.02933161411625e-13
outer loop
vertex -2.39803743362427 -39.9527206420898 0.0562860034406185
vertex -2.39803743362427 -39.9527206420898 0.0937139987945557
vertex -3.34785342216492 -39.6263160705566 0.058007724583149
endloop
endfacet
facet normal -0.324995636940002 -0.945715546607971 -2.82665275734562e-13
outer loop
vertex -3.34785342216492 -39.6263160705566 0.0919922739267349
vertex -3.34785342216492 -39.6263160705566 0.058007724583149
vertex -2.39803743362427 -39.9527206420898 0.0937139987945557
endloop
endfacet
facet normal -0.324995636940002 -0.945715487003326 -1.56939470642194e-13
outer loop
vertex -0.799620389938354 -40.5020179748535 0.0533885769546032
vertex -0.799620389938354 -40.5020179748535 0.096611425280571
vertex -2.39803743362427 -39.9527206420898 0.0562860034406185
endloop
endfacet
facet normal -0.324995636940002 -0.945715487003326 -3.02933134306571e-13
outer loop
vertex -2.39803743362427 -39.9527206420898 0.0937139987945557
vertex -2.39803743362427 -39.9527206420898 0.0562860034406185
vertex -0.799620389938354 -40.5020179748535 0.096611425280571
endloop
endfacet
facet normal -0.324995636940002 -0.945715546607971 -1.56939484194721e-13
outer loop
vertex -0.799620389938354 -40.5020179748535 0.0533885769546032
vertex 1.89030778408051 -41.4264144897461 0.0485125780105591
vertex -0.799620389938354 -40.5020179748535 0.096611425280571
endloop
endfacet
facet normal -0.324995636940002 -0.945715546607971 -1.83900055014848e-13
outer loop
vertex 1.89030778408051 -41.4264144897461 0.101487420499325
vertex -0.799620389938354 -40.5020179748535 0.096611425280571
vertex 1.89030778408051 -41.4264144897461 0.0485125780105591
endloop
endfacet
facet normal -0.32499560713768 -0.945715487003326 1.07552067769921e-14
outer loop
vertex 6.22173881530762 -42.9149131774902 0.0406610518693924
vertex 6.22173881530762 -42.9149131774902 0.109338946640491
vertex 1.89030778408051 -41.4264144897461 0.0485125780105591
endloop
endfacet
facet normal -0.324995636940002 -0.945715487003326 -1.83900055014848e-13
outer loop
vertex 1.89030778408051 -41.4264144897461 0.101487420499325
vertex 1.89030778408051 -41.4264144897461 0.0485125780105591
vertex 6.22173881530762 -42.9149131774902 0.109338946640491
endloop
endfacet
facet normal -0.32499560713768 -0.945715487003326 1.07552067769921e-14
outer loop
vertex 6.22173881530762 -42.9149131774902 0.0406610518693924
vertex 10.9590845108032 -44.5429039001465 0.0320737287402153
vertex 6.22173881530762 -42.9149131774902 0.109338946640491
endloop
endfacet
facet normal -0.32499560713768 -0.945715487003326 -1.00866241899665e-13
outer loop
vertex 10.9590845108032 -44.5429039001465 0.117926269769669
vertex 6.22173881530762 -42.9149131774902 0.109338946640491
vertex 10.9590845108032 -44.5429039001465 0.0320737287402153
endloop
endfacet
facet normal -0.32499560713768 -0.945715487003326 -1.00866241899665e-13
outer loop
vertex 10.9590845108032 -44.5429039001465 0.0320737287402153
vertex 15.6964302062988 -46.1708946228027 0.0234864074736834
vertex 10.9590845108032 -44.5429039001465 0.117926269769669
endloop
endfacet
facet normal -0.32499560713768 -0.945715487003326 -1.32464175804474e-13
outer loop
vertex 15.6964302062988 -46.1708946228027 0.126513585448265
vertex 10.9590845108032 -44.5429039001465 0.117926269769669
vertex 15.6964302062988 -46.1708946228027 0.0234864074736834
endloop
endfacet
facet normal -0.32499560713768 -0.945715487003326 -1.40666083924164e-13
outer loop
vertex 20.4238815307617 -47.7954864501953 0.0149170216172934
vertex 20.4238815307617 -47.7954864501953 0.135082975029945
vertex 15.6964302062988 -46.1708946228027 0.0234864074736834
endloop
endfacet
facet normal -0.324995636940002 -0.945715487003326 -1.32464175804474e-13
outer loop
vertex 15.6964302062988 -46.1708946228027 0.126513585448265
vertex 15.6964302062988 -46.1708946228027 0.0234864074736834
vertex 20.4238815307617 -47.7954864501953 0.135082975029945
endloop
endfacet
facet normal -0.324995636940002 -0.945715546607971 6.62080457190621e-14
outer loop
vertex 24.0276412963867 -49.0339202880859 0.00838453508913517
vertex 24.0276412963867 -49.0339202880859 0.141615465283394
vertex 20.4238815307617 -47.7954864501953 0.0149170216172934
endloop
endfacet
facet normal -0.324995636940002 -0.945715487003326 -1.40666097476691e-13
outer loop
vertex 20.4238815307617 -47.7954864501953 0.135082975029945
vertex 20.4238815307617 -47.7954864501953 0.0149170216172934
vertex 24.0276412963867 -49.0339202880859 0.141615465283394
endloop
endfacet
facet normal -0.32499560713768 -0.945715487003326 6.62080457190621e-14
outer loop
vertex 24.0276412963867 -49.0339202880859 0.00838453508913517
vertex 26.3048572540283 -49.8164863586426 0.00425665685907006
vertex 24.0276412963867 -49.0339202880859 0.141615465283394
endloop
endfacet
facet normal -0.324995636940002 -0.945715487003326 -3.11724048808991e-14
outer loop
vertex 26.3048572540283 -49.8164863586426 0.14574334025383
vertex 24.0276412963867 -49.0339202880859 0.141615465283394
vertex 26.3048572540283 -49.8164863586426 0.00425665685907006
endloop
endfacet
facet normal -0.324995636940002 -0.945715487003326 -1.29543741727613e-13
outer loop
vertex 27.7438297271729 -50.3109893798828 0.00164825131651014
vertex 27.7438297271729 -50.3109893798828 0.148351743817329
vertex 26.3048572540283 -49.8164863586426 0.00425665685907006
endloop
endfacet
facet normal -0.32499560713768 -0.945715487003326 -3.11724014927673e-14
outer loop
vertex 26.3048572540283 -49.8164863586426 0.14574334025383
vertex 26.3048572540283 -49.8164863586426 0.00425665685907006
vertex 27.7438297271729 -50.3109893798828 0.148351743817329
endloop
endfacet
facet normal -0.324995636940002 -0.945715487003326 -1.2954375528014e-13
outer loop
vertex 27.7438297271729 -50.3109893798828 0.00164825131651014
vertex 28.6531162261963 -50.6234664916992 1.77635683940025e-15
vertex 27.7438297271729 -50.3109893798828 0.148351743817329
endloop
endfacet
facet normal -0.324995636940002 -0.945715427398682 -0
outer loop
vertex 28.6531162261963 -50.6234664916992 0.150000005960464
vertex 27.7438297271729 -50.3109893798828 0.148351743817329
vertex 28.6531162261963 -50.6234664916992 1.77635683940025e-15
endloop
endfacet
facet normal 0.00449188752099872 -0.00152843468822539 0.999988794326782
outer loop
vertex 28.7353820800781 -50.380973815918 -0.106068134307861
vertex 27.8132858276367 -50.0672149658203 -0.101446568965912
vertex 28.6870632171631 -50.5229759216309 -0.106068134307861
endloop
endfacet
facet normal 0.00449188752099872 -0.00152843468822539 0.999988794326782
outer loop
vertex 27.7649669647217 -50.2092170715332 -0.101446568965912
vertex 28.6870632171631 -50.5229759216309 -0.106068134307861
vertex 27.8132858276367 -50.0672149658203 -0.101446568965912
endloop
endfacet
facet normal 0.00449188752099872 -0.00152843457181007 0.999988794326782
outer loop
vertex 26.2398319244385 -49.6902694702148 -0.0938025712966919
vertex 27.7649669647217 -50.2092170715332 -0.101446568965912
vertex 26.2881526947021 -49.5482635498047 -0.0938025712966919
endloop
endfacet
facet normal 0.00449188752099872 -0.00152843457181007 0.999988794326782
outer loop
vertex 27.8132858276367 -50.0672149658203 -0.101446568965912
vertex 26.2881526947021 -49.5482635498047 -0.0938025712966919
vertex 27.7649669647217 -50.2092170715332 -0.101446568965912
endloop
endfacet
facet normal 0.00449188705533743 -0.00152843457181007 0.999988734722137
outer loop
vertex 26.2398319244385 -49.6902694702148 -0.0938025712966919
vertex 26.2881526947021 -49.5482635498047 -0.0938025712966919
vertex 23.7172832489014 -48.8319320678711 -0.0811595097184181
endloop
endfacet
facet normal 0.00449188705533743 -0.00152843457181007 0.999988734722137
outer loop
vertex 23.7656021118164 -48.6899261474609 -0.0811595097184181
vertex 23.7172832489014 -48.8319320678711 -0.0811595097184181
vertex 26.2881526947021 -49.5482635498047 -0.0938025712966919
endloop
endfacet
facet normal 0.00449188705533743 -0.00152843457181007 0.999988734722137
outer loop
vertex 23.7172832489014 -48.8319320678711 -0.0811595097184181
vertex 23.7656021118164 -48.6899261474609 -0.0811595097184181
vertex 19.5677165985107 -47.4199752807617 -0.060361810028553
endloop
endfacet
facet normal 0.00449188705533743 -0.00152843457181007 0.999988734722137
outer loop
vertex 19.6160354614258 -47.2779731750488 -0.060361810028553
vertex 19.5677165985107 -47.4199752807617 -0.060361810028553
vertex 23.7656021118164 -48.6899261474609 -0.0811595097184181
endloop
endfacet
facet normal 0.00449188705533743 -0.00152843457181007 0.999988734722137
outer loop
vertex 19.5677165985107 -47.4199752807617 -0.060361810028553
vertex 19.6160354614258 -47.2779731750488 -0.060361810028553
vertex 14.6026172637939 -45.730525970459 -0.0354766473174095
endloop
endfacet
facet normal 0.00449188705533743 -0.00152843457181007 0.999988734722137
outer loop
vertex 14.650936126709 -45.5885200500488 -0.0354766473174095
vertex 14.6026172637939 -45.730525970459 -0.0354766473174095
vertex 19.6160354614258 -47.2779731750488 -0.060361810028553
endloop
endfacet
facet normal 0.00449188705533743 -0.00152843457181007 0.999988734722137
outer loop
vertex 9.68583679199219 -43.8990669250488 -0.0105914836749434
vertex 9.63751792907715 -44.041072845459 -0.0105914836749434
vertex 14.650936126709 -45.5885200500488 -0.0354766473174095
endloop
endfacet
facet normal 0.00449188705533743 -0.00152843457181007 0.999988734722137
outer loop
vertex 14.6026172637939 -45.730525970459 -0.0354766473174095
vertex 14.650936126709 -45.5885200500488 -0.0354766473174095
vertex 9.63751792907715 -44.041072845459 -0.0105914836749434
endloop
endfacet
facet normal 0.00449188705533743 -0.00152843457181007 0.999988734722137
outer loop
vertex 9.68583679199219 -43.8990669250488 -0.0105914836749434
vertex 4.72073793411255 -42.2096138000488 0.0142936799675226
vertex 9.63751792907715 -44.041072845459 -0.0105914836749434
endloop
endfacet
facet normal 0.00449188705533743 -0.00152843457181007 0.999988734722137
outer loop
vertex 4.67241859436035 -42.351619720459 0.0142936799675226
vertex 9.63751792907715 -44.041072845459 -0.0105914836749434
vertex 4.72073793411255 -42.2096138000488 0.0142936799675226
endloop
endfacet
facet normal 0.00449188705533743 -0.00152843457181007 0.999988734722137
outer loop
vertex 4.72073793411255 -42.2096138000488 0.0142936799675226
vertex 0.571171164512634 -40.7976608276367 0.0350913777947426
vertex 4.67241859436035 -42.351619720459 0.0142936799675226
endloop
endfacet
facet normal 0.00449188705533743 -0.00152843457181007 0.999988734722137
outer loop
vertex 0.522852003574371 -40.9396667480469 0.0350913777947426
vertex 4.67241859436035 -42.351619720459 0.0142936799675226
vertex 0.571171164512634 -40.7976608276367 0.0350913777947426
endloop
endfacet
facet normal 0.00449188705533743 -0.00152843457181007 0.999988734722137
outer loop
vertex 0.571171164512634 -40.7976608276367 0.0350913777947426
vertex -1.95137846469879 -39.939323425293 0.0477344393730164
vertex 0.522852003574371 -40.9396667480469 0.0350913777947426
endloop
endfacet
facet normal 0.00449188705533743 -0.00152843457181007 0.999988734722137
outer loop
vertex -1.9996976852417 -40.0813293457031 0.0477344393730164
vertex 0.522852003574371 -40.9396667480469 0.0350913777947426
vertex -1.95137846469879 -39.939323425293 0.0477344393730164
endloop
endfacet
facet normal 0.00449188752099872 -0.00152843457181007 0.999988794326782
outer loop
vertex -1.95137846469879 -39.939323425293 0.0477344393730164
vertex -3.47651243209839 -39.4203720092773 0.0553784370422363
vertex -1.9996976852417 -40.0813293457031 0.0477344393730164
endloop
endfacet
facet normal 0.00449188752099872 -0.00152843457181007 0.999988794326782
outer loop
vertex -3.52483153343201 -39.5623779296875 0.0553784370422363
vertex -1.9996976852417 -40.0813293457031 0.0477344393730164
vertex -3.47651243209839 -39.4203720092773 0.0553784370422363
endloop
endfacet
facet normal 0.00449188752099872 -0.00152843468822539 0.999988794326782
outer loop
vertex -3.47651243209839 -39.4203720092773 0.0553784370422363
vertex -4.39860868453979 -39.106616973877 0.0599999986588955
vertex -3.52483153343201 -39.5623779296875 0.0553784370422363
endloop
endfacet
facet normal 0.00449188752099872 -0.00152843468822539 0.999988794326782
outer loop
vertex -4.44692754745483 -39.2486190795898 0.0599999986588955
vertex -3.52483153343201 -39.5623779296875 0.0553784370422363
vertex -4.39860868453979 -39.106616973877 0.0599999986588955
endloop
endfacet
facet normal -0.230953946709633 -0.668330669403076 -0.707102835178375
outer loop
vertex 28.6873664855957 -50.523078918457 -0.106069922447205
vertex 28.6530666351318 -50.6234512329102 3.63690844551456e-07
vertex 27.5891914367676 -50.1494102478027 -0.10056584328413
endloop
endfacet
facet normal -0.230953931808472 -0.668330669403076 -0.70710277557373
outer loop
vertex 27.5560207366943 -50.2464485168457 0.00198895414359868
vertex 27.5891914367676 -50.1494102478027 -0.10056584328413
vertex 28.6530666351318 -50.6234512329102 3.63690844551456e-07
endloop
endfacet
facet normal -0.230953946709633 -0.668330729007721 -0.707102835178375
outer loop
vertex 27.5891914367676 -50.1494102478027 -0.10056584328413
vertex 27.5560207366943 -50.2464485168457 0.00198895414359868
vertex 25.0995235443115 -49.3022613525391 -0.0880875587463379
endloop
endfacet
facet normal -0.230953931808472 -0.668330729007721 -0.70710277557373
outer loop
vertex 25.0689373016357 -49.3917617797852 0.00649723783135414
vertex 25.0995235443115 -49.3022613525391 -0.0880875587463379
vertex 27.5560207366943 -50.2464485168457 0.00198895414359868
endloop
endfacet
facet normal -0.230953946709633 -0.668330669403076 -0.707102835178375
outer loop
vertex 25.0689373016357 -49.3917617797852 0.00649723783135414
vertex 20.3683795928955 -47.7764129638672 0.0150178344920278
vertex 25.0995235443115 -49.3022613525391 -0.0880875587463379
endloop
endfacet
facet normal -0.230953931808472 -0.668330729007721 -0.707102835178375
outer loop
vertex 20.3940849304199 -47.7011604309082 -0.0645037814974785
vertex 25.0995235443115 -49.3022613525391 -0.0880875587463379
vertex 20.3683795928955 -47.7764129638672 0.0150178344920278
endloop
endfacet
facet normal -0.230953961610794 -0.668330729007721 -0.707102835178375
outer loop
vertex 20.3940849304199 -47.7011604309082 -0.0645037814974785
vertex 20.3683795928955 -47.7764129638672 0.0150178344920278
vertex 15.4258813858032 -46.0106544494629 -0.0396030247211456
endloop
endfacet
facet normal -0.230953931808472 -0.668330669403076 -0.70710277557373
outer loop
vertex 15.4053182601929 -46.0708541870117 0.0240142680704594
vertex 15.4258813858032 -46.0106544494629 -0.0396030247211456
vertex 20.3683795928955 -47.7764129638672 0.0150178344920278
endloop
endfacet
facet normal -0.230953931808472 -0.668330669403076 -0.70710277557373
outer loop
vertex 15.4053182601929 -46.0708541870117 0.0240142680704594
vertex 10.4422569274902 -44.3652954101563 0.0330107025802135
vertex 15.4258813858032 -46.0106544494629 -0.0396030247211456
endloop
endfacet
facet normal -0.23095391690731 -0.668330609798431 -0.70710277557373
outer loop
vertex 10.4576797485352 -44.3201446533203 -0.0147022679448128
vertex 15.4258813858032 -46.0106544494629 -0.0396030247211456
vertex 10.4422569274902 -44.3652954101563 0.0330107025802135
endloop
endfacet
facet normal -0.23095391690731 -0.668330609798431 -0.70710277557373
outer loop
vertex 10.4576797485352 -44.3201446533203 -0.0147022679448128
vertex 10.4422569274902 -44.3652954101563 0.0330107025802135
vertex 5.48947715759277 -42.6296348571777 0.0101984879001975
endloop
endfacet
facet normal -0.230953931808472 -0.668330669403076 -0.70710277557373
outer loop
vertex 5.47919511795044 -42.6597366333008 0.0420071333646774
vertex 5.48947715759277 -42.6296348571777 0.0101984879001975
vertex 10.4422569274902 -44.3652954101563 0.0330107025802135
endloop
endfacet
facet normal -0.230953931808472 -0.668330669403076 -0.70710277557373
outer loop
vertex 5.47919511795044 -42.6597366333008 0.0420071333646774
vertex 0.516133785247803 -40.9541778564453 0.0510035678744316
vertex 5.48947715759277 -42.6296348571777 0.0101984879001975
endloop
endfacet
facet normal -0.230953931808472 -0.668330669403076 -0.70710277557373
outer loop
vertex 0.52127468585968 -40.9391288757324 0.0350992456078529
vertex 5.48947715759277 -42.6296348571777 0.0101984879001975
vertex 0.516133785247803 -40.9541778564453 0.0510035678744316
endloop
endfacet
facet normal -0.230953931808472 -0.668330669403076 -0.70710277557373
outer loop
vertex 0.516133785247803 -40.9541778564453 0.0510035678744316
vertex -4.44692754745483 -39.2486190795898 0.0599999986588955
vertex 0.52127468585968 -40.9391288757324 0.0350992456078529
endloop
endfacet
facet normal -0.946655690670013 0.32211434841156 0.00923807267099619
outer loop
vertex -4.44692754745483 -39.2486190795898 0.0900000035762787
vertex -4.43840932846069 -39.2515182495117 1.06398439407349
vertex -4.39860868453979 -39.106616973877 0.0900000035762787
endloop
endfacet
facet normal -0.946655690670013 0.32211434841156 0.00923807267099619
outer loop
vertex -4.3900899887085 -39.1095123291016 1.06398439407349
vertex -4.39860868453979 -39.106616973877 0.0900000035762787
vertex -4.43840932846069 -39.2515182495117 1.06398439407349
endloop
endfacet
facet normal -0.946655690670013 0.322114378213882 0.00923807267099619
outer loop
vertex -4.3900899887085 -39.1095123291016 1.06398439407349
vertex -4.43840932846069 -39.2515182495117 1.06398439407349
vertex -4.37600040435791 -39.1143074035645 2.67494058609009
endloop
endfacet
facet normal -0.946655690670013 0.322114378213882 0.00923807267099619
outer loop
vertex -4.42431974411011 -39.2563133239746 2.67494058609009
vertex -4.37600040435791 -39.1143074035645 2.67494058609009
vertex -4.43840932846069 -39.2515182495117 1.06398439407349
endloop
endfacet
facet normal -0.946655690670013 0.32211434841156 0.00923807267099619
outer loop
vertex -4.42431974411011 -39.2563133239746 2.67494058609009
vertex -4.4010157585144 -39.2642402648926 5.33943939208984
vertex -4.37600040435791 -39.1143074035645 2.67494058609009
endloop
endfacet
facet normal -0.946655690670013 0.32211434841156 0.00923807267099619
outer loop
vertex -4.35269689559937 -39.1222381591797 5.33943939208984
vertex -4.37600040435791 -39.1143074035645 2.67494058609009
vertex -4.4010157585144 -39.2642402648926 5.33943939208984
endloop
endfacet
facet normal -0.946655690670013 0.32211434841156 0.00923807267099619
outer loop
vertex -4.4010157585144 -39.2642402648926 5.33943939208984
vertex -4.36268138885498 -39.277286529541 9.72251033782959
vertex -4.35269689559937 -39.1222381591797 5.33943939208984
endloop
endfacet
facet normal -0.946655690670013 0.32211434841156 0.00923807267099619
outer loop
vertex -4.31436252593994 -39.1352806091309 9.72251033782959
vertex -4.35269689559937 -39.1222381591797 5.33943939208984
vertex -4.36268138885498 -39.277286529541 9.72251033782959
endloop
endfacet
facet normal -0.946655690670013 0.32211434841156 0.00923807267099619
outer loop
vertex -4.31436252593994 -39.1352806091309 9.72251033782959
vertex -4.36268138885498 -39.277286529541 9.72251033782959
vertex -4.26849365234375 -39.1508903503418 14.9670057296753
endloop
endfacet
facet normal -0.946655690670013 0.32211434841156 0.00923807267099619
outer loop
vertex -4.31681299209595 -39.2928924560547 14.9670057296753
vertex -4.26849365234375 -39.1508903503418 14.9670057296753
vertex -4.36268138885498 -39.277286529541 9.72251033782959
endloop
endfacet
facet normal -0.946655690670013 0.32211434841156 0.00923807267099619
outer loop
vertex -4.26849365234375 -39.1508903503418 14.9670057296753
vertex -4.31681299209595 -39.2928924560547 14.9670057296753
vertex -4.22262525558472 -39.1664962768555 20.2115001678467
endloop
endfacet
facet normal -0.946655690670013 0.32211434841156 0.00923807267099619
outer loop
vertex -4.27094459533691 -39.3085021972656 20.2115001678467
vertex -4.22262525558472 -39.1664962768555 20.2115001678467
vertex -4.31681299209595 -39.2928924560547 14.9670057296753
endloop
endfacet
facet normal -0.946655690670013 0.32211434841156 0.00923807267099619
outer loop
vertex -4.22262525558472 -39.1664962768555 20.2115001678467
vertex -4.27094459533691 -39.3085021972656 20.2115001678467
vertex -4.17675685882568 -39.1821022033691 25.4559955596924
endloop
endfacet
facet normal -0.946655690670013 0.32211434841156 0.00923807267099619
outer loop
vertex -4.22507619857788 -39.3241081237793 25.4559955596924
vertex -4.17675685882568 -39.1821022033691 25.4559955596924
vertex -4.27094459533691 -39.3085021972656 20.2115001678467
endloop
endfacet
facet normal -0.946655690670013 0.32211434841156 0.00923807267099619
outer loop
vertex -4.17675685882568 -39.1821022033691 25.4559955596924
vertex -4.22507619857788 -39.3241081237793 25.4559955596924
vertex -4.13842248916626 -39.1951484680176 29.8390674591064
endloop
endfacet
facet normal -0.946655690670013 0.32211434841156 0.00923807267099619
outer loop
vertex -4.18674182891846 -39.3371505737305 29.8390674591064
vertex -4.13842248916626 -39.1951484680176 29.8390674591064
vertex -4.22507619857788 -39.3241081237793 25.4559955596924
endloop
endfacet
facet normal -0.946655690670013 0.32211434841156 0.00923807267099619
outer loop
vertex -4.13842248916626 -39.1951484680176 29.8390674591064
vertex -4.18674182891846 -39.3371505737305 29.8390674591064
vertex -4.11511898040771 -39.2030792236328 32.5035667419434
endloop
endfacet
facet normal -0.946655690670013 0.32211434841156 0.00923807267099619
outer loop
vertex -4.16343784332275 -39.3450813293457 32.5035667419434
vertex -4.11511898040771 -39.2030792236328 32.5035667419434
vertex -4.18674182891846 -39.3371505737305 29.8390674591064
endloop
endfacet
facet normal -0.946655690670013 0.322114378213882 0.00923807267099619
outer loop
vertex -4.11511898040771 -39.2030792236328 32.5035667419434
vertex -4.16343784332275 -39.3450813293457 32.5035667419434
vertex -4.10102939605713 -39.2078704833984 34.1145210266113
endloop
endfacet
facet normal -0.946655690670013 0.322114378213882 0.00923807267099619
outer loop
vertex -4.14934873580933 -39.3498764038086 34.1145210266113
vertex -4.10102939605713 -39.2078704833984 34.1145210266113
vertex -4.16343784332275 -39.3450813293457 32.5035667419434
endloop
endfacet
facet normal -0.946655690670013 0.32211434841156 0.00923807267099619
outer loop
vertex -4.10102939605713 -39.2078704833984 34.1145210266113
vertex -4.14934873580933 -39.3498764038086 34.1145210266113
vertex -4.09251070022583 -39.2107696533203 35.0885047912598
endloop
endfacet
facet normal -0.946655690670013 0.32211434841156 0.00923807267099619
outer loop
vertex -4.14083003997803 -39.3527755737305 35.0885047912598
vertex -4.09251070022583 -39.2107696533203 35.0885047912598
vertex -4.14934873580933 -39.3498764038086 34.1145210266113
endloop
endfacet
facet normal 0.324995666742325 0.945715487003326 -2.79981468338519e-05
outer loop
vertex 28.6528244018555 -50.623363494873 0.300005316734314
vertex 28.6530666351318 -50.6234512329102 0.149999916553497
vertex 27.555793762207 -50.2463684082031 0.293045073747635
endloop
endfacet
facet normal 0.324995666742325 0.945715487003326 -2.79981486528413e-05
outer loop
vertex 27.5560207366943 -50.2464485168457 0.148011311888695
vertex 27.555793762207 -50.2463684082031 0.293045073747635
vertex 28.6530666351318 -50.6234512329102 0.149999916553497
endloop
endfacet
facet normal 0.324995696544647 0.945715487003326 -2.79981468338519e-05
outer loop
vertex 27.555793762207 -50.2463684082031 0.293045073747635
vertex 27.5560207366943 -50.2464485168457 0.148011311888695
vertex 25.0687217712402 -49.3916854858398 0.277265548706055
endloop
endfacet
facet normal 0.324995666742325 0.945715546607971 -2.79981486528413e-05
outer loop
vertex 25.0689373016357 -49.3917617797852 0.14350301027298
vertex 25.0687217712402 -49.3916854858398 0.277265548706055
vertex 27.5560207366943 -50.2464485168457 0.148011311888695
endloop
endfacet
facet normal 0.324995666742325 0.945715487003326 -2.79981468338519e-05
outer loop
vertex 25.0689373016357 -49.3917617797852 0.14350301027298
vertex 20.3683795928955 -47.7764129638672 0.134982377290726
vertex 25.0687217712402 -49.3916854858398 0.277265548706055
endloop
endfacet
facet normal 0.324995696544647 0.945715546607971 -2.79981468338519e-05
outer loop
vertex 20.3681869506836 -47.7763442993164 0.247442454099655
vertex 25.0687217712402 -49.3916854858398 0.277265548706055
vertex 20.3683795928955 -47.7764129638672 0.134982377290726
endloop
endfacet
facet normal 0.324995666742325 0.945715487003326 -2.79981468338519e-05
outer loop
vertex 20.3681869506836 -47.7763442993164 0.247442454099655
vertex 20.3683795928955 -47.7764129638672 0.134982377290726
vertex 15.4051647186279 -46.07080078125 0.215953961014748
endloop
endfacet
facet normal 0.324995696544647 0.945715487003326 -2.79981486528413e-05
outer loop
vertex 15.4053182601929 -46.0708541870117 0.125985890626907
vertex 15.4051647186279 -46.07080078125 0.215953961014748
vertex 20.3683795928955 -47.7764129638672 0.134982377290726
endloop
endfacet
facet normal 0.324995696544647 0.945715487003326 -2.79981486528413e-05
outer loop
vertex 15.4053182601929 -46.0708541870117 0.125985890626907
vertex 10.4422569274902 -44.3652954101563 0.116989426314831
vertex 15.4051647186279 -46.07080078125 0.215953961014748
endloop
endfacet
facet normal 0.324995696544647 0.945715487003326 -2.79981504718307e-05
outer loop
vertex 10.4421415328979 -44.3652534484863 0.18446546792984
vertex 15.4051647186279 -46.07080078125 0.215953961014748
vertex 10.4422569274902 -44.3652954101563 0.116989426314831
endloop
endfacet
facet normal 0.324995696544647 0.945715487003326 -2.79981504718307e-05
outer loop
vertex 10.4421415328979 -44.3652534484863 0.18446546792984
vertex 10.4422569274902 -44.3652954101563 0.116989426314831
vertex 5.47911834716797 -42.6597099304199 0.152976989746094
endloop
endfacet
facet normal 0.324995696544647 0.945715487003326 -2.79981486528413e-05
outer loop
vertex 5.47919511795044 -42.6597366333008 0.107992947101593
vertex 5.47911834716797 -42.6597099304199 0.152976989746094
vertex 10.4422569274902 -44.3652954101563 0.116989426314831
endloop
endfacet
facet normal 0.324995696544647 0.945715487003326 -2.79981486528413e-05
outer loop
vertex 5.47919511795044 -42.6597366333008 0.107992947101593
vertex 0.516133785247803 -40.9541778564453 0.0989964753389359
vertex 5.47911834716797 -42.6597099304199 0.152976989746094
endloop
endfacet
facet normal 0.324995696544647 0.945715487003326 -2.79981486528413e-05
outer loop
vertex 0.516095399856567 -40.9541664123535 0.121488489210606
vertex 5.47911834716797 -42.6597099304199 0.152976989746094
vertex 0.516133785247803 -40.9541778564453 0.0989964753389359
endloop
endfacet
facet normal 0.324995696544647 0.945715487003326 -2.79981486528413e-05
outer loop
vertex 0.516133785247803 -40.9541778564453 0.0989964753389359
vertex -4.44692754745483 -39.2486190795898 0.0900000035762787
vertex 0.516095399856567 -40.9541664123535 0.121488489210606
endloop
endfacet
facet normal 0.224027499556541 0.670687019824982 -0.707100093364716
outer loop
vertex 3.64815378189087 -15.7022686004639 24.838529586792
vertex 3.79015588760376 -15.7505865097046 24.8376903533936
vertex 3.4271023273468 -16.3452053070068 24.1586666107178
endloop
endfacet
facet normal 0.224027514457703 0.670687019824982 -0.707100093364716
outer loop
vertex 3.56598377227783 -16.3924617767334 24.157844543457
vertex 3.4271023273468 -16.3452053070068 24.1586666107178
vertex 3.79015588760376 -15.7505865097046 24.8376903533936
endloop
endfacet
facet normal 0.224027499556541 0.670687079429626 -0.707100093364716
outer loop
vertex 3.4271023273468 -16.3452053070068 24.1586666107178
vertex 3.56598377227783 -16.3924617767334 24.157844543457
vertex 3.0772819519043 -17.3626728057861 23.082763671875
endloop
endfacet
facet normal 0.22402748465538 0.670687019824982 -0.707100093364716
outer loop
vertex 3.21122479438782 -17.4082489013672 23.0819702148438
vertex 3.0772819519043 -17.3626728057861 23.082763671875
vertex 3.56598377227783 -16.3924617767334 24.157844543457
endloop
endfacet
facet normal 0.22402748465538 0.670687079429626 -0.707100093364716
outer loop
vertex 3.21122479438782 -17.4082489013672 23.0819702148438
vertex 2.64980840682983 -19.0157604217529 21.3793678283691
vertex 3.0772819519043 -17.3626728057861 23.082763671875
endloop
endfacet
facet normal 0.224027499556541 0.670687079429626 -0.707100093364716
outer loop
vertex 2.52368116378784 -18.9728450775146 21.3801155090332
vertex 3.0772819519043 -17.3626728057861 23.082763671875
vertex 2.64980840682983 -19.0157604217529 21.3793678283691
endloop
endfacet
facet normal 0.224027499556541 0.670687079429626 -0.70710015296936
outer loop
vertex 2.52368116378784 -18.9728450775146 21.3801155090332
vertex 2.64980840682983 -19.0157604217529 21.3793678283691
vertex 1.64759159088135 -21.5209884643555 18.6856250762939
endloop
endfacet
facet normal 0.224027499556541 0.670687019824982 -0.707100093364716
outer loop
vertex 1.76135051250458 -21.5596961975098 18.6849517822266
vertex 1.64759159088135 -21.5209884643555 18.6856250762939
vertex 2.64980840682983 -19.0157604217529 21.3793678283691
endloop
endfacet
facet normal 0.224027499556541 0.670687019824982 -0.707100093364716
outer loop
vertex 1.64759159088135 -21.5209884643555 18.6856250762939
vertex 1.76135051250458 -21.5596961975098 18.6849517822266
vertex 0.498328119516373 -24.8636684417725 15.1509628295898
endloop
endfacet
facet normal 0.224027499556541 0.670687019824982 -0.707100093364716
outer loop
vertex 0.595862030982971 -24.8968563079834 15.1503849029541
vertex 0.498328119516373 -24.8636684417725 15.1509628295898
vertex 1.76135051250458 -21.5596961975098 18.6849517822266
endloop
endfacet
facet normal 0.224027514457703 0.670687079429626 -0.70710015296936
outer loop
vertex 0.595862030982971 -24.8968563079834 15.1503849029541
vertex -0.572065949440002 -28.2410011291504 11.6084213256836
vertex 0.498328119516373 -24.8636684417725 15.1509628295898
endloop
endfacet
facet normal 0.224027514457703 0.670687079429626 -0.707100093364716
outer loop
vertex -0.653340935707092 -28.2133464813232 11.6089019775391
vertex 0.498328119516373 -24.8636684417725 15.1509628295898
vertex -0.572065949440002 -28.2410011291504 11.6084213256836
endloop
endfacet
facet normal 0.224027499556541 0.670687079429626 -0.70710015296936
outer loop
vertex -1.80500996112823 -31.563024520874 8.0668420791626
vertex -0.653340935707092 -28.2133464813232 11.6089019775391
vertex -1.73999392986298 -31.585147857666 8.06645774841309
endloop
endfacet
facet normal 0.224027514457703 0.670687079429626 -0.707100093364716
outer loop
vertex -0.572065949440002 -28.2410011291504 11.6084213256836
vertex -1.73999392986298 -31.585147857666 8.06645774841309
vertex -0.653340935707092 -28.2133464813232 11.6089019775391
endloop
endfacet
facet normal 0.224027499556541 0.670687079429626 -0.707100093364716
outer loop
vertex -1.80500996112823 -31.563024520874 8.0668420791626
vertex -1.73999392986298 -31.585147857666 8.06645774841309
vertex -2.85799932479858 -34.6256904602051 4.82827997207642
endloop
endfacet
facet normal 0.224027499556541 0.670687079429626 -0.70710015296936
outer loop
vertex -2.80784916877747 -34.6427536010742 4.82798290252686
vertex -2.85799932479858 -34.6256904602051 4.82827997207642
vertex -1.73999392986298 -31.585147857666 8.06645774841309
endloop
endfacet
facet normal 0.224027499556541 0.670687079429626 -0.707100093364716
outer loop
vertex -2.80784916877747 -34.6427536010742 4.82798290252686
vertex -3.47101426124573 -36.5416030883789 2.81680846214294
vertex -2.85799932479858 -34.6256904602051 4.82827997207642
endloop
endfacet
facet normal 0.224027499556541 0.670687019824982 -0.70710015296936
outer loop
vertex -3.51193237304688 -36.5276794433594 2.81705069541931
vertex -2.85799932479858 -34.6256904602051 4.82827997207642
vertex -3.47101426124573 -36.5416030883789 2.81680846214294
endloop
endfacet
facet normal 0.224027499556541 0.670687019824982 -0.707100093364716
outer loop
vertex -3.51193237304688 -36.5276794433594 2.81705069541931
vertex -3.47101426124573 -36.5416030883789 2.81680846214294
vertex -3.90051436424255 -37.657886505127 1.6219322681427
endloop
endfacet
facet normal 0.224027499556541 0.670687079429626 -0.707100093364716
outer loop
vertex -3.86508202552795 -37.6699447631836 1.62172257900238
vertex -3.90051436424255 -37.657886505127 1.6219322681427
vertex -3.47101426124573 -36.5416030883789 2.81680846214294
endloop
endfacet
facet normal 0.224027514457703 0.670687079429626 -0.707100093364716
outer loop
vertex -3.90051436424255 -37.657886505127 1.6219322681427
vertex -3.86508202552795 -37.6699447631836 1.62172257900238
vertex -4.13141870498657 -38.3294830322266 0.911765515804291
endloop
endfacet
facet normal 0.224027499556541 0.670687019824982 -0.707100093364716
outer loop
vertex -4.09924602508545 -38.3404312133789 0.911575138568878
vertex -4.13141870498657 -38.3294830322266 0.911765515804291
vertex -3.86508202552795 -37.6699447631836 1.62172257900238
endloop
endfacet
facet normal 0.224027499556541 0.670687079429626 -0.707100093364716
outer loop
vertex -4.09924602508545 -38.3404312133789 0.911575138568878
vertex -4.2383918762207 -38.7388496398926 0.489589244127274
vertex -4.13141870498657 -38.3294830322266 0.911765515804291
endloop
endfacet
facet normal 0.22402748465538 0.670687019824982 -0.707100093364716
outer loop
vertex -4.26862764358521 -38.7285614013672 0.489768147468567
vertex -4.13141870498657 -38.3294830322266 0.911765515804291
vertex -4.2383918762207 -38.7388496398926 0.489589244127274
endloop
endfacet
facet normal 0.22402748465538 0.670687019824982 -0.707100033760071
outer loop
vertex -4.26862764358521 -38.7285614013672 0.489768147468567
vertex -4.2383918762207 -38.7388496398926 0.489589244127274
vertex -4.35016012191772 -38.9657020568848 0.239007636904716
endloop
endfacet
facet normal 0.22402748465538 0.670687019824982 -0.707100093364716
outer loop
vertex -4.32107543945313 -38.9755973815918 0.238835543394089
vertex -4.35016012191772 -38.9657020568848 0.239007636904716
vertex -4.2383918762207 -38.7388496398926 0.489589244127274
endloop
endfacet
facet normal 0.224027499556541 0.670687019824982 -0.70710015296936
outer loop
vertex -4.35016012191772 -38.9657020568848 0.239007636904716
vertex -4.32107543945313 -38.9755973815918 0.238835543394089
vertex -4.39860868453979 -39.106616973877 0.0900000035762787
endloop
endfacet
facet normal 0.224027499556541 0.670687079429626 -0.707100093364716
outer loop
vertex -4.37020826339722 -39.1162796020508 0.0898319408297539
vertex -4.39860868453979 -39.106616973877 0.0900000035762787
vertex -4.32107543945313 -38.9755973815918 0.238835543394089
endloop
endfacet
facet normal -0.230950608849525 -0.668320715427399 0.707113265991211
outer loop
vertex -3.19206237792969 -35.5973243713379 3.80083966255188
vertex -4.39860868453979 -39.106616973877 0.0900000035762787
vertex -3.17079925537109 -35.6046562194824 3.80085587501526
endloop
endfacet
facet normal -0.230950608849525 -0.668320715427399 0.707113265991211
outer loop
vertex -1.98551607131958 -32.0880355834961 7.51167964935303
vertex -3.19206237792969 -35.5973243713379 3.80083966255188
vertex -1.94299006462097 -32.1026954650879 7.51171159744263
endloop
endfacet
facet normal -0.230950608849525 -0.668320715427399 0.707113265991211
outer loop
vertex -3.17079925537109 -35.6046562194824 3.80085587501526
vertex -1.94299006462097 -32.1026954650879 7.51171159744263
vertex -3.19206237792969 -35.5973243713379 3.80083966255188
endloop
endfacet
facet normal -0.230950608849525 -0.668320715427399 0.707113265991211
outer loop
vertex -1.98551607131958 -32.0880355834961 7.51167964935303
vertex -1.94299006462097 -32.1026954650879 7.51171159744263
vertex -0.778969883918762 -28.5787448883057 11.2225189208984
endloop
endfacet
facet normal -0.230950623750687 -0.668320775032043 0.7071133852005
outer loop
vertex -0.715180814266205 -28.600736618042 11.2225675582886
vertex -0.778969883918762 -28.5787448883057 11.2225189208984
vertex -1.94299006462097 -32.1026954650879 7.51171159744263
endloop
endfacet
facet normal -0.230950608849525 -0.668320715427399 0.707113265991211
outer loop
vertex 0.427576273679733 -25.0694541931152 14.9333591461182
vertex -0.778969883918762 -28.5787448883057 11.2225189208984
vertex 0.512628436088562 -25.0987777709961 14.9334230422974
endloop
endfacet
facet normal -0.230950623750687 -0.668320775032043 0.7071133852005
outer loop
vertex -0.715180814266205 -28.600736618042 11.2225675582886
vertex 0.512628436088562 -25.0987777709961 14.9334230422974
vertex -0.778969883918762 -28.5787448883057 11.2225189208984
endloop
endfacet
facet normal -0.230950608849525 -0.668320715427399 0.707113265991211
outer loop
vertex 0.427576273679733 -25.0694541931152 14.9333591461182
vertex 0.512628436088562 -25.0987777709961 14.9334230422974
vertex 1.63412249088287 -21.5601634979248 18.6441993713379
endloop
endfacet
facet normal -0.230950608849525 -0.668320715427399 0.707113265991211
outer loop
vertex 1.74043762683868 -21.5968170166016 18.6442794799805
vertex 1.63412249088287 -21.5601634979248 18.6441993713379
vertex 0.512628436088562 -25.0987777709961 14.9334230422974
endloop
endfacet
facet normal -0.230950593948364 -0.668320715427399 0.707113265991211
outer loop
vertex 2.77684569358826 -18.2365055084229 22.1587448120117
vertex 1.63412249088287 -21.5601634979248 18.6441993713379
vertex 2.90330243110657 -18.2800922393799 22.1588516235352
endloop
endfacet
facet normal -0.230950623750687 -0.668320715427399 0.707113325595856
outer loop
vertex 1.74043762683868 -21.5968170166016 18.6442794799805
vertex 2.90330243110657 -18.2800922393799 22.1588516235352
vertex 1.63412249088287 -21.5601634979248 18.6441993713379
endloop
endfacet
facet normal -0.230950623750687 -0.668320715427399 0.707113325595856
outer loop
vertex 2.77684569358826 -18.2365055084229 22.1587448120117
vertex 2.90330243110657 -18.2800922393799 22.1588516235352
vertex 3.38145399093628 -16.4779758453369 24.0182723999023
endloop
endfacet
facet normal -0.230950593948364 -0.668320775032043 0.707113325595856
outer loop
vertex 3.51856780052185 -16.5252323150635 24.0183906555176
vertex 3.38145399093628 -16.4779758453369 24.0182723999023
vertex 2.90330243110657 -18.2800922393799 22.1588516235352
endloop
endfacet
facet normal -0.230950608849525 -0.668320715427399 0.707113325595856
outer loop
vertex 3.38145399093628 -16.4779758453369 24.0182723999023
vertex 3.51856780052185 -16.5252323150635 24.0183906555176
vertex 3.64814186096191 -15.7023029327393 24.838493347168
endloop
endfacet
facet normal -0.230950608849525 -0.668320715427399 0.707113325595856
outer loop
vertex 3.78995370864868 -15.751184463501 24.8386116027832
vertex 3.64814186096191 -15.7023029327393 24.838493347168
vertex 3.51856780052185 -16.5252323150635 24.0183906555176
endloop
endfacet
facet normal 2.79981468338519e-05 -0.00303060514852405 -0.999995350837708
outer loop
vertex -0.210005328059196 -34.9995307922363 0.256064385175705
vertex -0.203045085072517 -33.8395347595215 0.252549082040787
vertex -0.0599999129772186 -34.9997863769531 0.256069362163544
endloop
endfacet
facet normal 2.79981486528413e-05 -0.00303060561418533 -0.999995410442352
outer loop
vertex -0.0580113120377064 -33.8397750854492 0.252553850412369
vertex -0.0599999129772186 -34.9997863769531 0.256069362163544
vertex -0.203045085072517 -33.8395347595215 0.252549082040787
endloop
endfacet
facet normal 2.79981468338519e-05 -0.00303060561418533 -0.999995410442352
outer loop
vertex -0.203045085072517 -33.8395347595215 0.252549082040787
vertex -0.187265560030937 -31.209716796875 0.244579523801804
vertex -0.0580113120377064 -33.8397750854492 0.252553850412369
endloop
endfacet
facet normal 2.79981486528413e-05 -0.00303060561418533 -0.999995410442352
outer loop
vertex -0.053503006696701 -31.2099437713623 0.244583964347839
vertex -0.0580113120377064 -33.8397750854492 0.252553850412369
vertex -0.187265560030937 -31.209716796875 0.244579523801804
endloop
endfacet
facet normal 2.79981468338519e-05 -0.00303060561418533 -0.999995410442352
outer loop
vertex -0.053503006696701 -31.2099437713623 0.244583964347839
vertex -0.187265560030937 -31.209716796875 0.244579523801804
vertex -0.044982373714447 -26.2395973205566 0.229520976543427
endloop
endfacet
facet normal 2.79981468338519e-05 -0.00303060538135469 -0.999995410442352
outer loop
vertex -0.157442450523376 -26.2393932342529 0.229517206549644
vertex -0.044982373714447 -26.2395973205566 0.229520976543427
vertex -0.187265560030937 -31.209716796875 0.244579523801804
endloop
endfacet
facet normal 2.79981504718307e-05 -0.00303060584701598 -0.999995470046997
outer loop
vertex -0.157442450523376 -26.2393932342529 0.229517206549644
vertex -0.12595397233963 -20.9915142059326 0.213613763451576
vertex -0.044982373714447 -26.2395973205566 0.229520976543427
endloop
endfacet
facet normal 2.79981468338519e-05 -0.00303060538135469 -0.999995410442352
outer loop
vertex -0.0359858982264996 -20.9916763305664 0.213616773486137
vertex -0.044982373714447 -26.2395973205566 0.229520976543427
vertex -0.12595397233963 -20.9915142059326 0.213613763451576
endloop
endfacet
facet normal 2.79981468338519e-05 -0.00303060538135469 -0.999995410442352
outer loop
vertex -0.0359858982264996 -20.9916763305664 0.213616773486137
vertex -0.12595397233963 -20.9915142059326 0.213613763451576
vertex -0.0269894227385521 -15.7437582015991 0.197712585330009
endloop
endfacet
facet normal 2.79981504718307e-05 -0.00303060561418533 -0.999995470046997
outer loop
vertex -0.094465471804142 -15.7436351776123 0.197710320353508
vertex -0.0269894227385521 -15.7437582015991 0.197712585330009
vertex -0.12595397233963 -20.9915142059326 0.213613763451576
endloop
endfacet
facet normal 2.79981504718307e-05 -0.00303060561418533 -0.999995470046997
outer loop
vertex -0.094465471804142 -15.7436351776123 0.197710320353508
vertex -0.0629769861698151 -10.4957571029663 0.18180687725544
vertex -0.0269894227385521 -15.7437582015991 0.197712585330009
endloop
endfacet
facet normal 2.79981468338519e-05 -0.00303060538135469 -0.999995410442352
outer loop
vertex -0.0179929491132498 -10.4958381652832 0.18180838227272
vertex -0.0269894227385521 -15.7437582015991 0.197712585330009
vertex -0.0629769861698151 -10.4957571029663 0.18180687725544
endloop
endfacet
facet normal 2.79981468338519e-05 -0.00303060538135469 -0.999995410442352
outer loop
vertex -0.0179929491132498 -10.4958381652832 0.18180838227272
vertex -0.0629769861698151 -10.4957571029663 0.18180687725544
vertex -0.00899647455662489 -5.2479190826416 0.165904194116592
endloop
endfacet
facet normal 2.79981468338519e-05 -0.00303060538135469 -0.999995410442352
outer loop
vertex -0.0314884930849075 -5.24787855148315 0.165903434157372
vertex -0.00899647455662489 -5.2479190826416 0.165904194116592
vertex -0.0629769861698151 -10.4957571029663 0.18180687725544
endloop
endfacet
facet normal 2.79981468338519e-05 -0.00303060538135469 -0.999995410442352
outer loop
vertex -0.00899647455662489 -5.2479190826416 0.165904194116592
vertex -0.0314884930849075 -5.24787855148315 0.165903434157372
vertex 0 0 0.150000005960464
endloop
endfacet
facet normal -1 0 0
outer loop
vertex -0.166069999337196 -35 0
vertex -0.166069999337196 -36 0
vertex -0.166069999337196 -35 0.150000005960464
endloop
endfacet
facet normal -1 0 0
outer loop
vertex -0.166069999337196 -36 0.150000005960464
vertex -0.166069999337196 -35 0.150000005960464
vertex -0.166069999337196 -36 0
endloop
endfacet
facet normal -0.707106828689575 -0 -0.707106828689575
outer loop
vertex -0.166069999337196 -35 0
vertex -0.0599999986588955 -35 -0.106069996953011
vertex -0.166069999337196 -36 0
endloop
endfacet
facet normal -0.707106828689575 0 -0.707106828689575
outer loop
vertex -0.0599999986588955 -36 -0.106069996953011
vertex -0.166069999337196 -36 0
vertex -0.0599999986588955 -35 -0.106069996953011
endloop
endfacet
facet normal -0.707106828689575 0 0.707106828689575
outer loop
vertex -0.166069999337196 -35 0.150000005960464
vertex -0.166069999337196 -36 0.150000005960464
vertex -0.0599999986588955 -35 0.256069988012314
endloop
endfacet
facet normal -0.707106828689575 0 0.707106828689575
outer loop
vertex -0.0599999986588955 -36 0.256069988012314
vertex -0.0599999986588955 -35 0.256069988012314
vertex -0.166069999337196 -36 0.150000005960464
endloop
endfacet
facet normal 0 0 -1
outer loop
vertex -0.0599999986588955 -35 -0.106069996953011
vertex 0.0900000035762787 -35 -0.106069996953011
vertex -0.0599999986588955 -36 -0.106069996953011
endloop
endfacet
facet normal 0 0 -1
outer loop
vertex 0.0900000035762787 -36 -0.106069996953011
vertex -0.0599999986588955 -36 -0.106069996953011
vertex 0.0900000035762787 -35 -0.106069996953011
endloop
endfacet
facet normal -0 0 1
outer loop
vertex -0.0599999986588955 -35 0.256069988012314
vertex -0.0599999986588955 -36 0.256069988012314
vertex 0.0900000035762787 -35 0.256069988012314
endloop
endfacet
facet normal 0 -0 1
outer loop
vertex 0.0900000035762787 -36 0.256069988012314
vertex 0.0900000035762787 -35 0.256069988012314
vertex -0.0599999986588955 -36 0.256069988012314
endloop
endfacet
facet normal 0.707106828689575 0 -0.707106828689575
outer loop
vertex 0.0900000035762787 -35 -0.106069996953011
vertex 0.196070000529289 -35 0
vertex 0.0900000035762787 -36 -0.106069996953011
endloop
endfacet
facet normal 0.707106828689575 0 -0.707106828689575
outer loop
vertex 0.196070000529289 -36 0
vertex 0.0900000035762787 -36 -0.106069996953011
vertex 0.196070000529289 -35 0
endloop
endfacet
facet normal 0.707106828689575 0 0.707106828689575
outer loop
vertex 0.0900000035762787 -35 0.256069988012314
vertex 0.0900000035762787 -36 0.256069988012314
vertex 0.196070000529289 -35 0.150000005960464
endloop
endfacet
facet normal 0.707106828689575 -0 0.707106828689575
outer loop
vertex 0.196070000529289 -36 0.150000005960464
vertex 0.196070000529289 -35 0.150000005960464
vertex 0.0900000035762787 -36 0.256069988012314
endloop
endfacet
facet normal 1 0 0
outer loop
vertex 0.196070000529289 -35 0.150000005960464
vertex 0.196070000529289 -36 0.150000005960464
vertex 0.196070000529289 -35 0
endloop
endfacet
facet normal 1 0 0
outer loop
vertex 0.196070000529289 -36 0
vertex 0.196070000529289 -35 0
vertex 0.196070000529289 -36 0.150000005960464
endloop
endfacet
facet normal -0 0.0030305574182421 0.999995350837708
outer loop
vertex -0.0599999986588955 -34.9998397827148 0.256069511175156
vertex 0.0900000035762787 -34.9998397827148 0.256069511175156
vertex -0.0583517476916313 -34.0383644104004 0.253155678510666
endloop
endfacet
facet normal -8.48247248393528e-17 0.0030305574182421 0.999995350837708
outer loop
vertex 0.0883517488837242 -34.0383644104004 0.253155678510666
vertex -0.0583517476916313 -34.0383644104004 0.253155678510666
vertex 0.0900000035762787 -34.9998397827148 0.256069511175156
endloop
endfacet
facet normal -8.48247314567977e-17 0.00303055765107274 0.999995410442352
outer loop
vertex -0.0583517476916313 -34.0383644104004 0.253155678510666
vertex 0.0883517488837242 -34.0383644104004 0.253155678510666
vertex -0.0557433441281319 -32.5167999267578 0.248544484376907
endloop
endfacet
facet normal 1.52193874111028e-16 0.00303055765107274 0.999995410442352
outer loop
vertex 0.0857433453202248 -32.5167999267578 0.248544484376907
vertex -0.0557433441281319 -32.5167999267578 0.248544484376907
vertex 0.0883517488837242 -34.0383644104004 0.253155678510666
endloop
endfacet
facet normal 1.52193874111028e-16 0.00303055765107274 0.999995350837708
outer loop
vertex 0.0857433453202248 -32.5167999267578 0.248544484376907
vertex 0.0816154628992081 -30.1088829040527 0.241247117519379
vertex -0.0557433441281319 -32.5167999267578 0.248544484376907
endloop
endfacet
facet normal 3.41111549864535e-17 0.00303055718541145 0.999995350837708
outer loop
vertex -0.0516154654324055 -30.1088829040527 0.241247117519379
vertex -0.0557433441281319 -32.5167999267578 0.248544484376907
vertex 0.0816154628992081 -30.1088829040527 0.241247117519379
endloop
endfacet
facet normal 3.4111158295176e-17 0.0030305574182421 0.999995410442352
outer loop
vertex -0.0516154654324055 -30.1088829040527 0.241247117519379
vertex 0.0816154628992081 -30.1088829040527 0.241247117519379
vertex -0.0450829789042473 -26.298282623291 0.229698821902275
endloop
endfacet
facet normal 3.78198755111167e-17 0.00303055765107274 0.999995350837708
outer loop
vertex 0.0750829800963402 -26.298282623291 0.229698821902275
vertex -0.0450829789042473 -26.298282623291 0.229698821902275
vertex 0.0816154628992081 -30.1088829040527 0.241247117519379
endloop
endfacet
facet normal 3.78198755111167e-17 0.00303055765107274 0.999995410442352
outer loop
vertex 0.0750829800963402 -26.298282623291 0.229698821902275
vertex 0.0665135905146599 -21.2994976043701 0.214549645781517
vertex -0.0450829789042473 -26.298282623291 0.229698821902275
endloop
endfacet
facet normal -1.04503517048112e-16 0.0030305574182421 0.999995350837708
outer loop
vertex -0.0365135930478573 -21.2994976043701 0.214549645781517
vertex -0.0450829789042473 -26.298282623291 0.229698821902275
vertex 0.0665135905146599 -21.2994976043701 0.214549645781517
endloop
endfacet
facet normal -1.04503510430667e-16 0.00303055718541145 0.999995350837708
outer loop
vertex -0.0365135930478573 -21.2994976043701 0.214549645781517
vertex 0.0665135905146599 -21.2994976043701 0.214549645781517
vertex -0.0279262699186802 -16.2902488708496 0.199368759989738
endloop
endfacet
facet normal 4.68239336786144e-16 0.00303055788390338 0.999995410442352
outer loop
vertex 0.0579262711107731 -16.2902488708496 0.199368759989738
vertex -0.0279262699186802 -16.2902488708496 0.199368759989738
vertex 0.0665135905146599 -21.2994976043701 0.214549645781517
endloop
endfacet
facet normal 4.68239336786144e-16 0.00303055788390338 0.999995410442352
outer loop
vertex 0.0579262711107731 -16.2902488708496 0.199368759989738
vertex 0.049338947981596 -11.2810010910034 0.18418787419796
vertex -0.0279262699186802 -16.2902488708496 0.199368759989738
endloop
endfacet
facet normal 1.81194905796476e-16 0.00303055765107274 0.999995410442352
outer loop
vertex -0.0193389467895031 -11.2810010910034 0.18418787419796
vertex -0.0279262699186802 -16.2902488708496 0.199368759989738
vertex 0.049338947981596 -11.2810010910034 0.18418787419796
endloop
endfacet
facet normal 1.81194892561586e-16 0.00303055718541145 0.999995350837708
outer loop
vertex -0.0193389467895031 -11.2810010910034 0.18418787419796
vertex 0.049338947981596 -11.2810010910034 0.18418787419796
vertex -0.0114874206483364 -6.70096492767334 0.170307755470276
endloop
endfacet
facet normal -1.54014550255327e-15 0.00303055765107274 0.999995410442352
outer loop
vertex 0.0414874218404293 -6.70096492767334 0.170307755470276
vertex -0.0114874206483364 -6.70096492767334 0.170307755470276
vertex 0.049338947981596 -11.2810010910034 0.18418787419796
endloop
endfacet
facet normal -1.54014550255327e-15 0.00303055765107274 0.999995470046997
outer loop
vertex 0.0414874218404293 -6.70096492767334 0.170307755470276
vertex 0.0366114228963852 -3.85664653778076 0.161687836050987
vertex -0.0114874206483364 -6.70096492767334 0.170307755470276
endloop
endfacet
facet normal -1.98556434237229e-16 0.00303055765107274 0.999995410442352
outer loop
vertex -0.00661142449826002 -3.85664653778076 0.161687836050987
vertex -0.0114874206483364 -6.70096492767334 0.170307755470276
vertex 0.0366114228963852 -3.85664653778076 0.161687836050987
endloop
endfacet
facet normal -1.98556447472119e-16 0.00303055765107274 0.999995410442352
outer loop
vertex -0.00661142449826002 -3.85664653778076 0.161687836050987
vertex 0.0366114228963852 -3.85664653778076 0.161687836050987
vertex -0.00371399568393826 -2.16648745536804 0.156565696001053
endloop
endfacet
facet normal 5.84187082897385e-16 0.00303055765107274 0.999995410442352
outer loop
vertex 0.0337139964103699 -2.16648745536804 0.156565696001053
vertex -0.00371399568393826 -2.16648745536804 0.156565696001053
vertex 0.0366114228963852 -3.85664653778076 0.161687836050987
endloop
endfacet
facet normal 5.84187082897385e-16 0.00303055765107274 0.999995470046997
outer loop
vertex 0.0337139964103699 -2.16648745536804 0.156565696001053
vertex 0.0319922752678394 -1.16215634346008 0.153521999716759
vertex -0.00371399568393826 -2.16648745536804 0.156565696001053
endloop
endfacet
facet normal -1.41072956200377e-15 0.0030305574182421 0.999995410442352
outer loop
vertex -0.0019922771025449 -1.16215634346008 0.153521999716759
vertex -0.00371399568393826 -2.16648745536804 0.156565696001053
vertex 0.0319922752678394 -1.16215634346008 0.153521999716759
endloop
endfacet
facet normal -1.41072956200377e-15 0.00303055765107274 0.999995410442352
outer loop
vertex -0.0019922771025449 -1.16215634346008 0.153521999716759
vertex 0.0319922752678394 -1.16215634346008 0.153521999716759
vertex -0.00096919247880578 -0.565359652042389 0.151713356375694
endloop
endfacet
facet normal -2.84435357753889e-16 0.0030305574182421 0.999995410442352
outer loop
vertex 0.0309691932052374 -0.565359652042389 0.151713356375694
vertex -0.00096919247880578 -0.565359652042389 0.151713356375694
vertex 0.0319922752678394 -1.16215634346008 0.153521999716759
endloop
endfacet
facet normal -2.84435357753889e-16 0.0030305574182421 0.999995410442352
outer loop
vertex 0.0309691932052374 -0.565359652042389 0.151713356375694
vertex 0.0303612519055605 -0.210729420185089 0.150638625025749
vertex -0.00096919247880578 -0.565359652042389 0.151713356375694
endloop
endfacet
facet normal -2.66098979094141e-15 0.0030305574182421 0.999995410442352
outer loop
vertex -0.00036125211045146 -0.210729420185089 0.150638625025749
vertex -0.00096919247880578 -0.565359652042389 0.151713356375694
vertex 0.0303612519055605 -0.210729420185089 0.150638625025749
endloop
endfacet
facet normal -2.66099000269964e-15 0.00303055765107274 0.999995410442352
outer loop
vertex -0.00036125211045146 -0.210729420185089 0.150638625025749
vertex 0.0303612519055605 -0.210729420185089 0.150638625025749
vertex 0 0 0.150000005960464
endloop
endfacet
facet normal 0 0.0030305574182421 0.999995410442352
outer loop
vertex 0.0299999993294477 0 0.150000005960464
vertex 0 0 0.150000005960464
vertex 0.0303612519055605 -0.210729420185089 0.150638625025749
endloop
endfacet
facet normal -0.999988794326782 -0.00474480399861932 -0
outer loop
vertex 0.0299999993294477 0 0.150000005960464
vertex 0.0299999993294477 0 0
vertex 0.0346215628087521 -0.974014937877655 0.150000005960464
endloop
endfacet
facet normal -0.999988794326782 -0.00474480399861932 -2.63967908388064e-17
outer loop
vertex 0.0346215628087521 -0.974014937877655 2.77555756156289e-17
vertex 0.0346215628087521 -0.974014937877655 0.150000005960464
vertex 0.0299999993294477 0 0
endloop
endfacet
facet normal -0.999988794326782 -0.00474480353295803 -2.63967891844452e-17
outer loop
vertex 0.0346215628087521 -0.974014937877655 0.150000005960464
vertex 0.0346215628087521 -0.974014937877655 2.77555756156289e-17
vertex 0.042265560477972 -2.58502173423767 0.150000005960464
endloop
endfacet
facet normal -0.999988794326782 -0.00474480353295803 -6.5348050077368e-18
outer loop
vertex 0.042265560477972 -2.58502173423767 2.77555756156289e-17
vertex 0.042265560477972 -2.58502173423767 0.150000005960464
vertex 0.0346215628087521 -0.974014937877655 2.77555756156289e-17
endloop
endfacet
facet normal -0.999988734722137 -0.00474480353295803 -6.5348045941465e-18
outer loop
vertex 0.042265560477972 -2.58502173423767 0.150000005960464
vertex 0.042265560477972 -2.58502173423767 2.77555756156289e-17
vertex 0.0549086220562458 -5.24960422515869 0.150000005960464
endloop
endfacet
facet normal -0.999988734722137 -0.00474480353295803 -3.63277806524139e-17
outer loop
vertex 0.0549086220562458 -5.24960422515869 2.77555756156289e-17
vertex 0.0549086220562458 -5.24960422515869 0.150000005960464
vertex 0.042265560477972 -2.58502173423767 2.77555756156289e-17
endloop
endfacet
facet normal -0.999988734722137 -0.00474480399861932 -3.63277806524139e-17
outer loop
vertex 0.0549086220562458 -5.24960422515869 0.150000005960464
vertex 0.0549086220562458 -5.24960422515869 2.77555756156289e-17
vertex 0.0757063180208206 -9.6328125 0.150000005960464
endloop
endfacet
facet normal -0.999988734722137 -0.00474480399861932 2.41224845452437e-16
outer loop
vertex 0.0757063180208206 -9.6328125 2.77555756156289e-17
vertex 0.0757063180208206 -9.6328125 0.150000005960464
vertex 0.0549086220562458 -5.24960422515869 2.77555756156289e-17
endloop
endfacet
facet normal -0.999988734722137 -0.00474480353295803 2.41224845452437e-16
outer loop
vertex 0.0757063180208206 -9.6328125 0.150000005960464
vertex 0.0757063180208206 -9.6328125 2.77555756156289e-17
vertex 0.100591480731964 -14.8774728775024 0.150000005960464
endloop
endfacet
facet normal -0.999988734722137 -0.00474480353295803 1.68569284147609e-16
outer loop
vertex 0.100591480731964 -14.8774728775024 2.77555756156289e-17
vertex 0.100591480731964 -14.8774728775024 0.150000005960464
vertex 0.0757063180208206 -9.6328125 2.77555756156289e-17
endloop
endfacet
facet normal -0.999988734722137 -0.00474480353295803 1.68569284147609e-16
outer loop
vertex 0.100591480731964 -14.8774728775024 0.150000005960464
vertex 0.100591480731964 -14.8774728775024 2.77555756156289e-17
vertex 0.125476643443108 -20.1221332550049 0.150000005960464
endloop
endfacet
facet normal -0.999988734722137 -0.00474480353295803 2.97414628893123e-16
outer loop
vertex 0.125476643443108 -20.1221332550049 2.77555756156289e-17
vertex 0.125476643443108 -20.1221332550049 0.150000005960464
vertex 0.100591480731964 -14.8774728775024 2.77555756156289e-17
endloop
endfacet
facet normal -0.999988734722137 -0.00474480353295803 2.97414628893123e-16
outer loop
vertex 0.125476643443108 -20.1221332550049 0.150000005960464
vertex 0.125476643443108 -20.1221332550049 2.77555756156289e-17
vertex 0.150361806154251 -25.366792678833 0.150000005960464
endloop
endfacet
facet normal -0.999988734722137 -0.00474480353295803 7.94479317437499e-17
outer loop
vertex 0.150361806154251 -25.366792678833 2.77555756156289e-17
vertex 0.150361806154251 -25.366792678833 0.150000005960464
vertex 0.125476643443108 -20.1221332550049 2.77555756156289e-17
endloop
endfacet
facet normal -0.999988734722137 -0.00474480399861932 7.94479317437499e-17
outer loop
vertex 0.150361806154251 -25.366792678833 0.150000005960464
vertex 0.150361806154251 -25.366792678833 2.77555756156289e-17
vertex 0.171159505844116 -29.7500019073486 0.150000005960464
endloop
endfacet
facet normal -0.999988734722137 -0.00474480399861932 1.85035088481531e-16
outer loop
vertex 0.171159505844116 -29.7500019073486 2.77555756156289e-17
vertex 0.171159505844116 -29.7500019073486 0.150000005960464
vertex 0.150361806154251 -25.366792678833 2.77555756156289e-17
endloop
endfacet
facet normal -0.999988734722137 -0.00474480353295803 1.85035088481531e-16
outer loop
vertex 0.171159505844116 -29.7500019073486 0.150000005960464
vertex 0.171159505844116 -29.7500019073486 2.77555756156289e-17
vertex 0.183802574872971 -32.4145851135254 0.150000005960464
endloop
endfacet
facet normal -0.999988734722137 -0.00474480353295803 7.94479383611948e-17
outer loop
vertex 0.183802574872971 -32.4145851135254 2.77555756156289e-17
vertex 0.183802574872971 -32.4145851135254 0.150000005960464
vertex 0.171159505844116 -29.7500019073486 2.77555756156289e-17
endloop
endfacet
facet normal -0.999988794326782 -0.00474480353295803 7.94479317437499e-17
outer loop
vertex 0.183802574872971 -32.4145851135254 0.150000005960464
vertex 0.183802574872971 -32.4145851135254 2.77555756156289e-17
vertex 0.191446572542191 -34.0255928039551 0.150000005960464
endloop
endfacet
facet normal -0.999988794326782 -0.00474480353295803 5.55105318384151e-16
outer loop
vertex 0.191446572542191 -34.0255928039551 2.77555756156289e-17
vertex 0.191446572542191 -34.0255928039551 0.150000005960464
vertex 0.183802574872971 -32.4145851135254 2.77555756156289e-17
endloop
endfacet
facet normal -0.999988794326782 -0.00474480399861932 5.55105318384151e-16
outer loop
vertex 0.191446572542191 -34.0255928039551 0.150000005960464
vertex 0.191446572542191 -34.0255928039551 2.77555756156289e-17
vertex 0.19606813788414 -34.9996070861816 0.150000005960464
endloop
endfacet
facet normal -0.999988794326782 -0.00474480399861932 0
outer loop
vertex 0.19606813788414 -34.9996070861816 0
vertex 0.19606813788414 -34.9996070861816 0.150000005960464
vertex 0.191446572542191 -34.0255928039551 2.77555756156289e-17
endloop
endfacet
facet normal 0.707102835178375 0.00335510191507638 0.707102835178375
outer loop
vertex 0.196069926023483 -34.999927520752 0.149999737739563
vertex 0.190565839409828 -33.8399200439453 0.149999737739563
vertex 0.0899996384978294 -34.9997863769531 0.256069362163544
endloop
endfacet
facet normal 0.70710277557373 0.00335510168224573 0.70710277557373
outer loop
vertex 0.0880110487341881 -33.8397750854492 0.252553850412369
vertex 0.0899996384978294 -34.9997863769531 0.256069362163544
vertex 0.190565839409828 -33.8399200439453 0.149999737739563
endloop
endfacet
facet normal 0.707102835178375 0.00335510191507638 0.707102835178375
outer loop
vertex 0.190565839409828 -33.8399200439453 0.149999737739563
vertex 0.178087562322617 -31.2100696563721 0.149999767541885
vertex 0.0880110487341881 -33.8397750854492 0.252553850412369
endloop
endfacet
facet normal 0.70710277557373 0.00335510191507638 0.70710277557373
outer loop
vertex 0.0835027620196342 -31.2099437713623 0.244583964347839
vertex 0.0880110487341881 -33.8397750854492 0.252553850412369
vertex 0.178087562322617 -31.2100696563721 0.149999767541885
endloop
endfacet
facet normal 0.707102835178375 0.00335510191507638 0.707102835178375
outer loop
vertex 0.0835027620196342 -31.2099437713623 0.244583964347839
vertex 0.178087562322617 -31.2100696563721 0.149999767541885
vertex 0.0749821662902832 -26.2395973205566 0.229520976543427
endloop
endfacet
facet normal 0.707102835178375 0.00335510168224573 0.707102835178375
outer loop
vertex 0.154503777623177 -26.2396907806396 0.149999797344208
vertex 0.0749821662902832 -26.2395973205566 0.229520976543427
vertex 0.178087562322617 -31.2100696563721 0.149999767541885
endloop
endfacet
facet normal 0.707102835178375 0.00335510214790702 0.707102835178375
outer loop
vertex 0.154503777623177 -26.2396907806396 0.149999797344208
vertex 0.129603028297424 -20.9917526245117 0.149999842047691
vertex 0.0749821662902832 -26.2395973205566 0.229520976543427
endloop
endfacet
facet normal 0.70710277557373 0.00335510168224573 0.70710277557373
outer loop
vertex 0.065985731780529 -20.9916763305664 0.213616773486137
vertex 0.0749821662902832 -26.2395973205566 0.229520976543427
vertex 0.129603028297424 -20.9917526245117 0.149999842047691
endloop
endfacet
facet normal 0.70710277557373 0.00335510168224573 0.70710277557373
outer loop
vertex 0.065985731780529 -20.9916763305664 0.213616773486137
vertex 0.129603028297424 -20.9917526245117 0.149999842047691
vertex 0.0569893009960651 -15.7437582015991 0.197712585330009
endloop
endfacet
facet normal 0.70710277557373 0.00335510144941509 0.70710277557373
outer loop
vertex 0.104702264070511 -15.7438135147095 0.149999886751175
vertex 0.0569893009960651 -15.7437582015991 0.197712585330009
vertex 0.129603028297424 -20.9917526245117 0.149999842047691
endloop
endfacet
facet normal 0.70710277557373 0.00335510144941509 0.70710277557373
outer loop
vertex 0.104702264070511 -15.7438135147095 0.149999886751175
vertex 0.0798015147447586 -10.4958763122559 0.149999916553497
vertex 0.0569893009960651 -15.7437582015991 0.197712585330009
endloop
endfacet
facet normal 0.70710277557373 0.00335510168224573 0.70710277557373
outer loop
vertex 0.047992866486311 -10.4958381652832 0.18180838227272
vertex 0.0569893009960651 -15.7437582015991 0.197712585330009
vertex 0.0798015147447586 -10.4958763122559 0.149999916553497
endloop
endfacet
facet normal 0.70710277557373 0.00335510168224573 0.70710277557373
outer loop
vertex 0.047992866486311 -10.4958381652832 0.18180838227272
vertex 0.0798015147447586 -10.4958763122559 0.149999916553497
vertex 0.0389964319765568 -5.2479190826416 0.165904194116592
endloop
endfacet
facet normal 0.70710277557373 0.00335510168224573 0.70710277557373
outer loop
vertex 0.0549007542431355 -5.24793815612793 0.149999961256981
vertex 0.0389964319765568 -5.2479190826416 0.165904194116592
vertex 0.0798015147447586 -10.4958763122559 0.149999916553497
endloop
endfacet
facet normal 0.70710277557373 0.00335510168224573 0.70710277557373
outer loop
vertex 0.0389964319765568 -5.2479190826416 0.165904194116592
vertex 0.0549007542431355 -5.24793815612793 0.149999961256981
vertex 0.0299999993294477 0 0.150000005960464
endloop
endfacet
facet normal 0.707102835178375 0.00335510191507638 -0.707102835178375
outer loop
vertex 0.256068050861359 -69.9997177124023 -0.106070600450039
vertex 0.254079461097717 -68.8396987915039 -0.102555081248283
vertex 0.362136274576187 -69.9992141723633 0
endloop
endfacet
facet normal 0.70710277557373 0.00335510168224573 -0.70710277557373
outer loop
vertex 0.356632202863693 -68.8392105102539 0
vertex 0.362136274576187 -69.9992141723633 0
vertex 0.254079461097717 -68.8396987915039 -0.102555081248283
endloop
endfacet
facet normal 0.707102835178375 0.00335510191507638 -0.707102835178375
outer loop
vertex 0.254079461097717 -68.8396987915039 -0.102555081248283
vertex 0.249571144580841 -66.2098388671875 -0.0945850759744644
vertex 0.356632202863693 -68.8392105102539 0
endloop
endfacet
facet normal 0.70710277557373 0.00335510191507638 -0.70710277557373
outer loop
vertex 0.344154089689255 -66.2093887329102 0
vertex 0.356632202863693 -68.8392105102539 0
vertex 0.249571144580841 -66.2098388671875 -0.0945850759744644
endloop
endfacet
facet normal 0.707102835178375 0.00335510191507638 -0.707102835178375
outer loop
vertex 0.344154089689255 -66.2093887329102 0
vertex 0.249571144580841 -66.2098388671875 -0.0945850759744644
vertex 0.3205706179142 -61.2390670776367 0
endloop
endfacet
facet normal 0.707102835178375 0.00335510168224573 -0.707102835178375
outer loop
vertex 0.241050496697426 -61.2394332885742 -0.0795218646526337
vertex 0.3205706179142 -61.2390670776367 0
vertex 0.249571144580841 -66.2098388671875 -0.0945850759744644
endloop
endfacet
facet normal 0.707102835178375 0.00335510214790702 -0.707102835178375
outer loop
vertex 0.241050496697426 -61.2394332885742 -0.0795218646526337
vertex 0.232054024934769 -55.9914665222168 -0.0636174902319908
vertex 0.3205706179142 -61.2390670776367 0
endloop
endfacet
facet normal 0.70710277557373 0.00335510168224573 -0.70710277557373
outer loop
vertex 0.295670121908188 -55.9911727905273 0
vertex 0.3205706179142 -61.2390670776367 0
vertex 0.232054024934769 -55.9914665222168 -0.0636174902319908
endloop
endfacet
facet normal 0.70710277557373 0.00335510168224573 -0.70710277557373
outer loop
vertex 0.295670121908188 -55.9911727905273 0
vertex 0.232054024934769 -55.9914665222168 -0.0636174902319908
vertex 0.270769625902176 -50.7432823181152 0
endloop
endfacet
facet normal 0.70710277557373 0.00335510144941509 -0.70710277557373
outer loop
vertex 0.223057553172112 -50.7435035705566 -0.0477131195366383
vertex 0.270769625902176 -50.7432823181152 0
vertex 0.232054024934769 -55.9914665222168 -0.0636174902319908
endloop
endfacet
facet normal 0.70710277557373 0.00335510144941509 -0.70710277557373
outer loop
vertex 0.223057553172112 -50.7435035705566 -0.0477131195366383
vertex 0.214061081409454 -45.4955368041992 -0.0318087451159954
vertex 0.270769625902176 -50.7432823181152 0
endloop
endfacet
facet normal 0.70710277557373 0.00335510168224573 -0.70710277557373
outer loop
vertex 0.245869129896164 -45.4953918457031 0
vertex 0.270769625902176 -50.7432823181152 0
vertex 0.214061081409454 -45.4955368041992 -0.0318087451159954
endloop
endfacet
facet normal 0.70710277557373 0.00335510168224573 -0.70710277557373
outer loop
vertex 0.245869129896164 -45.4953918457031 0
vertex 0.214061081409454 -45.4955368041992 -0.0318087451159954
vertex 0.220968633890152 -40.2474975585938 0
endloop
endfacet
facet normal 0.70710277557373 0.00335510168224573 -0.70710277557373
outer loop
vertex 0.205064609646797 -40.2475700378418 -0.0159043725579977
vertex 0.220968633890152 -40.2474975585938 0
vertex 0.214061081409454 -45.4955368041992 -0.0318087451159954
endloop
endfacet
facet normal 0.70710277557373 0.00335510168224573 -0.70710277557373
outer loop
vertex 0.220968633890152 -40.2474975585938 0
vertex 0.205064609646797 -40.2475700378418 -0.0159043725579977
vertex 0.19606813788414 -34.9996070861816 0
endloop
endfacet
facet normal 0.224601432681084 0.670492231845856 -0.707102835178375
outer loop
vertex 61.9040184020996 -61.5550727844238 -0.16606804728508
vertex 61.8693733215332 -61.6553268432617 -0.272136270999908
vertex 60.8047027587891 -61.1847305297852 -0.1640794724226
endloop
endfacet
facet normal 0.224601417779922 0.670492231845856 -0.70710277557373
outer loop
vertex 60.7711982727051 -61.2816581726074 -0.266632199287415
vertex 60.8047027587891 -61.1847305297852 -0.1640794724226
vertex 61.8693733215332 -61.6553268432617 -0.272136270999908
endloop
endfacet
facet normal 0.224601417779922 0.6704922914505 -0.707102835178375
outer loop
vertex 60.8047027587891 -61.1847305297852 -0.1640794724226
vertex 60.7711982727051 -61.2816581726074 -0.266632199287415
vertex 58.3124542236328 -60.3451232910156 -0.159571155905724
endloop
endfacet
facet normal 0.224601417779922 0.670492231845856 -0.70710277557373
outer loop
vertex 58.2815589904785 -60.4345207214355 -0.254154086112976
vertex 58.3124542236328 -60.3451232910156 -0.159571155905724
vertex 60.7711982727051 -61.2816581726074 -0.266632199287415
endloop
endfacet
facet normal 0.224601417779922 0.670492231845856 -0.707102835178375
outer loop
vertex 58.2815589904785 -60.4345207214355 -0.254154086112976
vertex 53.5761756896973 -58.833438873291 -0.230570614337921
vertex 58.3124542236328 -60.3451232910156 -0.159571155905724
endloop
endfacet
facet normal 0.224601432681084 0.670492231845856 -0.707102835178375
outer loop
vertex 53.6021385192871 -58.7582740783691 -0.151050493121147
vertex 58.3124542236328 -60.3451232910156 -0.159571155905724
vertex 53.5761756896973 -58.833438873291 -0.230570614337921
endloop
endfacet
facet normal 0.224601447582245 0.6704922914505 -0.707102835178375
outer loop
vertex 53.6021385192871 -58.7582740783691 -0.151050493121147
vertex 53.5761756896973 -58.833438873291 -0.230570614337921
vertex 48.6287879943848 -57.0828132629395 -0.14205402135849
endloop
endfacet
facet normal 0.224601417779922 0.670492231845856 -0.70710277557373
outer loop
vertex 48.6080169677734 -57.1429443359375 -0.205670118331909
vertex 48.6287879943848 -57.0828132629395 -0.14205402135849
vertex 53.5761756896973 -58.833438873291 -0.230570614337921
endloop
endfacet
facet normal 0.224601417779922 0.670492231845856 -0.70710277557373
outer loop
vertex 48.6080169677734 -57.1429443359375 -0.205670118331909
vertex 43.6398582458496 -55.4524536132813 -0.180769622325897
vertex 48.6287879943848 -57.0828132629395 -0.14205402135849
endloop
endfacet
facet normal 0.224601402878761 0.670492231845856 -0.70710277557373
outer loop
vertex 43.6554374694824 -55.4073524475098 -0.133057549595833
vertex 48.6287879943848 -57.0828132629395 -0.14205402135849
vertex 43.6398582458496 -55.4524536132813 -0.180769622325897
endloop
endfacet
facet normal 0.224601402878761 0.670492231845856 -0.70710277557373
outer loop
vertex 43.6554374694824 -55.4073524475098 -0.133057549595833
vertex 43.6398582458496 -55.4524536132813 -0.180769622325897
vertex 38.6820831298828 -53.7318916320801 -0.124061077833176
endloop
endfacet
facet normal 0.224601417779922 0.670492231845856 -0.70710277557373
outer loop
vertex 38.6716995239258 -53.7619590759277 -0.155869126319885
vertex 38.6820831298828 -53.7318916320801 -0.124061077833176
vertex 43.6398582458496 -55.4524536132813 -0.180769622325897
endloop
endfacet
facet normal 0.224601417779922 0.670492231845856 -0.70710277557373
outer loop
vertex 38.6716995239258 -53.7619590759277 -0.155869126319885
vertex 33.703540802002 -52.0714645385742 -0.130968630313873
vertex 38.6820831298828 -53.7318916320801 -0.124061077833176
endloop
endfacet
facet normal 0.224601417779922 0.670492231845856 -0.70710277557373
outer loop
vertex 33.7087326049805 -52.0564308166504 -0.115064606070518
vertex 38.6820831298828 -53.7318916320801 -0.124061077833176
vertex 33.703540802002 -52.0714645385742 -0.130968630313873
endloop
endfacet
facet normal 0.224601417779922 0.670492231845856 -0.70710277557373
outer loop
vertex 33.703540802002 -52.0714645385742 -0.130968630313873
vertex 28.7353820800781 -50.380973815918 -0.106068134307861
vertex 33.7087326049805 -52.0564308166504 -0.115064606070518
endloop
endfacet
endsolid COMSOL mesh mesh1
