solid COMSOL mesh mesh1
facet normal -0.00879035424441099 0.999961316585541 0
outer loop
vertex 0 0 0.150000005960464
vertex 0 0 0
vertex -0.966043710708618 -0.00849219411611557 0.150241523981094
endloop
endfacet
facet normal -0.00879035331308842 0.999961376190186 5.81175774890777e-18
outer loop
vertex -0.966043710708618 -0.00849219411611557 -0.000241520261624828
vertex -0.966043710708618 -0.00849219411611557 0.150241523981094
vertex 0 0 0
endloop
endfacet
facet normal -0.00879035424441099 0.999961376190186 5.81175774890777e-18
outer loop
vertex -0.966043710708618 -0.00849219411611557 0.150241523981094
vertex -0.966043710708618 -0.00849219411611557 -0.000241520261624828
vertex -2.47630262374878 -0.0217684172093868 0.150619104504585
endloop
endfacet
facet normal -0.00879035424441099 0.999961376190186 -5.15849086752728e-17
outer loop
vertex -2.47630262374878 -0.0217684172093868 -0.000619099591858685
vertex -2.47630262374878 -0.0217684172093868 0.150619104504585
vertex -0.966043710708618 -0.00849219411611557 -0.000241520261624828
endloop
endfacet
facet normal -0.00879035331308842 0.999961316585541 1.70997985687739e-17
outer loop
vertex -4.83735752105713 -0.0425237268209457 0.151209384202957
vertex -2.47630262374878 -0.0217684172093868 0.150619104504585
vertex -4.83735752105713 -0.0425237268209457 -0.00120938604231924
endloop
endfacet
facet normal -0.00879035517573357 0.99996143579483 -5.15849086752728e-17
outer loop
vertex -2.47630262374878 -0.0217684172093868 -0.000619099591858685
vertex -4.83735752105713 -0.0425237268209457 -0.00120938604231924
vertex -2.47630262374878 -0.0217684172093868 0.150619104504585
endloop
endfacet
facet normal -0.00879035424441099 0.999961316585541 1.70997985687739e-17
outer loop
vertex -4.83735752105713 -0.0425237268209457 0.151209384202957
vertex -4.83735752105713 -0.0425237268209457 -0.00120938604231924
vertex -8.52849864959717 -0.0749714151024818 0.152132213115692
endloop
endfacet
facet normal -0.00879035424441099 0.999961376190186 3.37904272844647e-17
outer loop
vertex -8.52849864959717 -0.0749714151024818 -0.00213220715522766
vertex -8.52849864959717 -0.0749714151024818 0.152132213115692
vertex -4.83735752105713 -0.0425237268209457 -0.00120938604231924
endloop
endfacet
facet normal -0.00879035424441099 0.999961376190186 3.37904305931871e-17
outer loop
vertex -8.52849864959717 -0.0749714151024818 0.152132213115692
vertex -8.52849864959717 -0.0749714151024818 -0.00213220715522766
vertex -13.8982028961182 -0.122174836695194 0.153474688529968
endloop
endfacet
facet normal -0.00879035424441099 0.999961376190186 1.10707909309658e-17
outer loop
vertex -13.8982028961182 -0.122174836695194 -0.00347468489781022
vertex -13.8982028961182 -0.122174836695194 0.153474688529968
vertex -8.52849864959717 -0.0749714151024818 -0.00213220715522766
endloop
endfacet
facet normal -0.00879035424441099 0.999961376190186 1.95496501245493e-16
outer loop
vertex -19.4894828796387 -0.171326071023941 0.154872566461563
vertex -13.8982028961182 -0.122174836695194 0.153474688529968
vertex -19.4894828796387 -0.171326071023941 -0.00487255910411477
endloop
endfacet
facet normal -0.00879035331308842 0.999961376190186 1.10707901037852e-17
outer loop
vertex -13.8982028961182 -0.122174836695194 -0.00347468489781022
vertex -19.4894828796387 -0.171326071023941 -0.00487255910411477
vertex -13.8982028961182 -0.122174836695194 0.153474688529968
endloop
endfacet
facet normal -0.00879035424441099 0.999961376190186 1.95496501245493e-16
outer loop
vertex -19.4894828796387 -0.171326071023941 0.154872566461563
vertex -19.4894828796387 -0.171326071023941 -0.00487255910411477
vertex -25.0807647705078 -0.220477312803268 0.156270429491997
endloop
endfacet
facet normal -0.00879035331308842 0.999961376190186 0
outer loop
vertex -25.0807647705078 -0.220477312803268 -0.00627043331041932
vertex -25.0807647705078 -0.220477312803268 0.156270429491997
vertex -19.4894828796387 -0.171326071023941 -0.00487255910411477
endloop
endfacet
facet normal -0.00879035331308842 0.999961316585541 -3.77849539308882e-16
outer loop
vertex -30.6024780273438 -0.2690170109272 -0.00765091506764293
vertex -30.6024780273438 -0.2690170109272 0.157650917768478
vertex -25.0807647705078 -0.220477312803268 -0.00627043331041932
endloop
endfacet
facet normal -0.00879035331308842 0.999961376190186 0
outer loop
vertex -25.0807647705078 -0.220477312803268 0.156270429491997
vertex -25.0807647705078 -0.220477312803268 -0.00627043331041932
vertex -30.6024780273438 -0.2690170109272 0.157650917768478
endloop
endfacet
facet normal -0.00879035331308842 0.999961376190186 -3.77849512839102e-16
outer loop
vertex -30.6024780273438 -0.2690170109272 -0.00765091506764293
vertex -34.6353187561035 -0.30446845293045 -0.00865916442126036
vertex -30.6024780273438 -0.2690170109272 0.157650917768478
endloop
endfacet
facet normal -0.00879035331308842 0.999961316585541 3.3175683858572e-16
outer loop
vertex -34.6353187561035 -0.30446845293045 0.158659160137177
vertex -30.6024780273438 -0.2690170109272 0.157650917768478
vertex -34.6353187561035 -0.30446845293045 -0.00865916442126036
endloop
endfacet
facet normal -0.00879035331308842 0.999961376190186 3.29197316777354e-16
outer loop
vertex -37.2370758056641 -0.327339708805084 -0.00930962804704905
vertex -37.2370758056641 -0.327339708805084 0.15930962562561
vertex -34.6353187561035 -0.30446845293045 -0.00865916442126036
endloop
endfacet
facet normal -0.00879035331308842 0.999961316585541 3.3175683858572e-16
outer loop
vertex -34.6353187561035 -0.30446845293045 0.158659160137177
vertex -34.6353187561035 -0.30446845293045 -0.00865916442126036
vertex -37.2370758056641 -0.327339708805084 0.15930962562561
endloop
endfacet
facet normal -0.00879035331308842 0.999961316585541 0
outer loop
vertex -38.9155807495117 -0.342094928026199 -0.00972927082329988
vertex -38.9155807495117 -0.342094928026199 0.159729272127151
vertex -37.2370758056641 -0.327339708805084 -0.00930962804704905
endloop
endfacet
facet normal -0.00879035424441099 0.999961376190186 3.29197316777354e-16
outer loop
vertex -37.2370758056641 -0.327339708805084 0.15930962562561
vertex -37.2370758056641 -0.327339708805084 -0.00930962804704905
vertex -38.9155807495117 -0.342094928026199 0.159729272127151
endloop
endfacet
facet normal -0.00879035424441099 0.999961376190186 0
outer loop
vertex -38.9155807495117 -0.342094928026199 -0.00972927082329988
vertex -39.9984550476074 -0.351614147424698 -0.00999999977648258
vertex -38.9155807495117 -0.342094928026199 0.159729272127151
endloop
endfacet
facet normal -0.00879035331308842 0.999961316585541 0
outer loop
vertex -39.9984550476074 -0.351614147424698 0.159999996423721
vertex -38.9155807495117 -0.342094928026199 0.159729272127151
vertex -39.9984550476074 -0.351614147424698 -0.00999999977648258
endloop
endfacet
facet normal 0.000221395981498063 0.00325484503991902 0.99999463558197
outer loop
vertex -35.7383613586426 -4.5818018913269 0.172825500369072
vertex -35.720386505127 -4.5636944770813 0.172762587666512
vertex -39.9984550476074 -0.351614147424698 0.159999996423721
endloop
endfacet
facet normal 0.000221395981498063 0.00325484503991902 0.99999463558197
outer loop
vertex -31.478271484375 -8.81198978424072 0.185651019215584
vertex -31.4423179626465 -8.77577495574951 0.185525178909302
vertex -35.7383613586426 -4.5818018913269 0.172825500369072
endloop
endfacet
facet normal 0.000221395981498063 0.00325484503991902 0.99999463558197
outer loop
vertex -35.720386505127 -4.5636944770813 0.172762587666512
vertex -35.7383613586426 -4.5818018913269 0.172825500369072
vertex -31.4423179626465 -8.77577495574951 0.185525178909302
endloop
endfacet
facet normal 0.000221395981498063 0.00325484503991902 0.99999463558197
outer loop
vertex -31.478271484375 -8.81198978424072 0.185651019215584
vertex -27.2181797027588 -13.0421772003174 0.198476523160934
vertex -31.4423179626465 -8.77577495574951 0.185525178909302
endloop
endfacet
facet normal 0.000221395981498063 0.00325484503991902 0.999994695186615
outer loop
vertex -27.164249420166 -12.9878549575806 0.198287770152092
vertex -31.4423179626465 -8.77577495574951 0.185525178909302
vertex -27.2181797027588 -13.0421772003174 0.198476523160934
endloop
endfacet
facet normal 0.000221395981498063 0.00325484503991902 0.99999463558197
outer loop
vertex -22.9580879211426 -17.2723636627197 0.211302027106285
vertex -22.8861808776855 -17.1999359130859 0.211050361394882
vertex -27.2181797027588 -13.0421772003174 0.198476523160934
endloop
endfacet
facet normal 0.000221395981498063 0.00325484503991902 0.999994695186615
outer loop
vertex -27.164249420166 -12.9878549575806 0.198287770152092
vertex -27.2181797027588 -13.0421772003174 0.198476523160934
vertex -22.8861808776855 -17.1999359130859 0.211050361394882
endloop
endfacet
facet normal 0.000221395981498063 0.00325484503991902 0.99999463558197
outer loop
vertex -22.9580879211426 -17.2723636627197 0.211302027106285
vertex -18.6979961395264 -21.5025520324707 0.224127531051636
vertex -22.8861808776855 -17.1999359130859 0.211050361394882
endloop
endfacet
facet normal 0.000221395981498063 0.00325484503991902 0.99999463558197
outer loop
vertex -18.6081123352051 -21.412015914917 0.223812952637672
vertex -22.8861808776855 -17.1999359130859 0.211050361394882
vertex -18.6979961395264 -21.5025520324707 0.224127531051636
endloop
endfacet
facet normal 0.000221395996049978 0.00325484550558031 0.99999475479126
outer loop
vertex -14.6701078414917 -25.5021667480469 0.236253961920738
vertex -14.5632152557373 -25.3945217132568 0.235879927873611
vertex -18.6979961395264 -21.5025520324707 0.224127531051636
endloop
endfacet
facet normal 0.000221395966946147 0.00325484503991902 0.99999463558197
outer loop
vertex -18.6081123352051 -21.412015914917 0.223812952637672
vertex -18.6979961395264 -21.5025520324707 0.224127531051636
vertex -14.5632152557373 -25.3945217132568 0.235879927873611
endloop
endfacet
facet normal 0.000221395981498063 0.00325484527274966 0.999994695186615
outer loop
vertex -14.6701078414917 -25.5021667480469 0.236253961920738
vertex -12.5486259460449 -27.608757019043 0.242640942335129
vertex -14.5632152557373 -25.3945217132568 0.235879927873611
endloop
endfacet
facet normal 0.000221395981498063 0.00325484503991902 0.99999463558197
outer loop
vertex -12.4327745437622 -27.4920997619629 0.242235586047173
vertex -14.5632152557373 -25.3945217132568 0.235879927873611
vertex -12.5486259460449 -27.608757019043 0.242640942335129
endloop
endfacet
facet normal 0.000221395996049978 0.00325484550558031 0.999994695186615
outer loop
vertex -12.5486259460449 -27.608757019043 0.242640942335129
vertex -11.6148023605347 -28.5360240936279 0.245452329516411
vertex -12.4327745437622 -27.4920997619629 0.242235586047173
endloop
endfacet
facet normal 0.000221395981498063 0.00325484527274966 0.999994695186615
outer loop
vertex -11.4950170516968 -28.4153938293457 0.245033159852028
vertex -12.4327745437622 -27.4920997619629 0.242235586047173
vertex -11.6148023605347 -28.5360240936279 0.245452329516411
endloop
endfacet
facet normal -0.707111954689026 0.00318572041578591 0.707094430923462
outer loop
vertex -4.24514818191528 -0.0118028922006488 -4.24520015716553
vertex -4.24516820907593 -0.0373179726302624 -4.24510526657104
vertex 0 0 0
endloop
endfacet
facet normal -0.707111954689026 0.00318572041578591 0.707094430923462
outer loop
vertex -8.49029636383057 -0.0236057844012976 -8.49040031433105
vertex -8.49033641815186 -0.0746359452605247 -8.49021053314209
vertex -4.24514818191528 -0.0118028922006488 -4.24520015716553
endloop
endfacet
facet normal -0.707111954689026 0.00318572041578591 0.707094430923462
outer loop
vertex -4.24516820907593 -0.0373179726302624 -4.24510526657104
vertex -4.24514818191528 -0.0118028922006488 -4.24520015716553
vertex -8.49033641815186 -0.0746359452605247 -8.49021053314209
endloop
endfacet
facet normal -0.707111954689026 0.00318572041578591 0.707094430923462
outer loop
vertex -8.49029636383057 -0.0236057844012976 -8.49040031433105
vertex -12.735445022583 -0.0354086756706238 -12.7356004714966
vertex -8.49033641815186 -0.0746359452605247 -8.49021053314209
endloop
endfacet
facet normal -0.707111954689026 0.00318572041578591 0.707094371318817
outer loop
vertex -12.7355051040649 -0.111953921616077 -12.7353162765503
vertex -8.49033641815186 -0.0746359452605247 -8.49021053314209
vertex -12.735445022583 -0.0354086756706238 -12.7356004714966
endloop
endfacet
facet normal -0.707111954689026 0.00318572041578591 0.707094430923462
outer loop
vertex -16.9805927276611 -0.0472115688025951 -16.9808006286621
vertex -16.9806728363037 -0.149271890521049 -16.9804210662842
vertex -12.735445022583 -0.0354086756706238 -12.7356004714966
endloop
endfacet
facet normal -0.707111954689026 0.00318572041578591 0.707094371318817
outer loop
vertex -12.7355051040649 -0.111953921616077 -12.7353162765503
vertex -12.735445022583 -0.0354086756706238 -12.7356004714966
vertex -16.9806728363037 -0.149271890521049 -16.9804210662842
endloop
endfacet
facet normal -0.707111954689026 0.00318572041578591 0.707094430923462
outer loop
vertex -16.9805927276611 -0.0472115688025951 -16.9808006286621
vertex -21.2257404327393 -0.0590144619345665 -21.2259998321533
vertex -16.9806728363037 -0.149271890521049 -16.9804210662842
endloop
endfacet
facet normal -0.707112014293671 0.0031857208814472 0.707094490528107
outer loop
vertex -21.2258415222168 -0.186589866876602 -21.2255268096924
vertex -16.9806728363037 -0.149271890521049 -16.9804210662842
vertex -21.2257404327393 -0.0590144619345665 -21.2259998321533
endloop
endfacet
facet normal -0.707111895084381 0.00318572041578591 0.707094430923462
outer loop
vertex -25.2394905090332 -0.0701739937067032 -25.2397994995117
vertex -25.2396221160889 -0.221873790025711 -25.2392482757568
vertex -21.2257404327393 -0.0590144619345665 -21.2259998321533
endloop
endfacet
facet normal -0.707111895084381 0.00318572041578591 0.707094430923462
outer loop
vertex -21.2258415222168 -0.186589866876602 -21.2255268096924
vertex -21.2257404327393 -0.0590144619345665 -21.2259998321533
vertex -25.2396221160889 -0.221873790025711 -25.2392482757568
endloop
endfacet
facet normal -0.707112014293671 0.00318572064861655 0.707094430923462
outer loop
vertex -25.2394905090332 -0.0701739937067032 -25.2397994995117
vertex -27.3535099029541 -0.076051652431488 -27.3538455963135
vertex -25.2396221160889 -0.221873790025711 -25.2392482757568
endloop
endfacet
facet normal -0.707111954689026 0.00318572041578591 0.707094430923462
outer loop
vertex -27.3536586761475 -0.240457624197006 -27.3532524108887
vertex -25.2396221160889 -0.221873790025711 -25.2392482757568
vertex -27.3535099029541 -0.076051652431488 -27.3538455963135
endloop
endfacet
facet normal -0.707112014293671 0.00318572064861655 0.707094430923462
outer loop
vertex -27.3535099029541 -0.076051652431488 -27.3538455963135
vertex -28.2840442657471 -0.0786388367414474 -28.2843894958496
vertex -27.3536586761475 -0.240457624197006 -27.3532524108887
endloop
endfacet
facet normal -0.707111954689026 0.00318572041578591 0.707094430923462
outer loop
vertex -28.2841892242432 -0.248637646436691 -28.2837696075439
vertex -27.3536586761475 -0.240457624197006 -27.3532524108887
vertex -28.2840442657471 -0.0786388367414474 -28.2843894958496
endloop
endfacet
facet normal 0.707099616527557 0.0040695434436202 -0.707102239131927
outer loop
vertex -0.147356390953064 -0.000409698695875704 -0.147358193993568
vertex 0 0 0
vertex -0.14718721807003 -0.031138613820076 -0.147365882992744
endloop
endfacet
facet normal 0.707099616527557 0.0040695434436202 -0.707102298736572
outer loop
vertex 0.000165155244758353 -0.0299995448440313 -7.49997070670361e-06
vertex -0.14718721807003 -0.031138613820076 -0.147365882992744
vertex 0 0 0
endloop
endfacet
facet normal 0.707099556922913 0.0040695434436202 -0.707102239131927
outer loop
vertex -0.400166392326355 -0.00111259263940156 -0.400171279907227
vertex -0.147356390953064 -0.000409698695875704 -0.147358193993568
vertex -0.399990320205688 -0.0330928415060043 -0.400179266929626
endloop
endfacet
facet normal 0.707099616527557 0.00406954390928149 -0.707102239131927
outer loop
vertex -0.14718721807003 -0.031138613820076 -0.147365882992744
vertex -0.399990320205688 -0.0330928415060043 -0.400179266929626
vertex -0.147356390953064 -0.000409698695875704 -0.147358193993568
endloop
endfacet
facet normal 0.707099616527557 0.00406954390928149 -0.707102298736572
outer loop
vertex -0.400166392326355 -0.00111259263940156 -0.400171279907227
vertex -0.399990320205688 -0.0330928415060043 -0.400179266929626
vertex -0.833896398544312 -0.00231850310228765 -0.833906590938568
endloop
endfacet
facet normal 0.707099616527557 0.0040695434436202 -0.707102298736572
outer loop
vertex -0.833708465099335 -0.0364455878734589 -0.833915114402771
vertex -0.833896398544312 -0.00231850310228765 -0.833906590938568
vertex -0.399990320205688 -0.0330928415060043 -0.400179266929626
endloop
endfacet
facet normal 0.707099616527557 0.00406954390928149 -0.707102298736572
outer loop
vertex -1.57801926136017 -0.00438740663230419 -1.57803857326508
vertex -0.833896398544312 -0.00231850310228765 -0.833906590938568
vertex -1.57781112194061 -0.0421976819634438 -1.57804811000824
endloop
endfacet
facet normal 0.707099616527557 0.00406954390928149 -0.707102298736572
outer loop
vertex -0.833708465099335 -0.0364455878734589 -0.833915114402771
vertex -1.57781112194061 -0.0421976819634438 -1.57804811000824
vertex -0.833896398544312 -0.00231850310228765 -0.833906590938568
endloop
endfacet
facet normal 0.707099616527557 0.00406954390928149 -0.707102298736572
outer loop
vertex -2.85466361045837 -0.00793689303100109 -2.8546986579895
vertex -1.57801926136017 -0.00438740663230419 -1.57803857326508
vertex -2.85442066192627 -0.0520661808550358 -2.85470962524414
endloop
endfacet
facet normal 0.707099616527557 0.00406954390928149 -0.707102298736572
outer loop
vertex -1.57781112194061 -0.0421976819634438 -1.57804811000824
vertex -2.85442066192627 -0.0520661808550358 -2.85470962524414
vertex -1.57801926136017 -0.00438740663230419 -1.57803857326508
endloop
endfacet
facet normal 0.707099616527557 0.00406954390928149 -0.707102239131927
outer loop
vertex -2.85466361045837 -0.00793689303100109 -2.8546986579895
vertex -2.85442066192627 -0.0520661808550358 -2.85470962524414
vertex -5.04492092132568 -0.0140265207737684 -5.04498291015625
endloop
endfacet
facet normal 0.707099616527557 0.00406954390928149 -0.707102239131927
outer loop
vertex -5.04461860656738 -0.06899693608284 -5.04499673843384
vertex -5.04492092132568 -0.0140265207737684 -5.04498291015625
vertex -2.85442066192627 -0.0520661808550358 -2.85470962524414
endloop
endfacet
facet normal 0.707099556922913 0.00406954390928149 -0.707102239131927
outer loop
vertex -8.69272422790527 -0.0241686012595892 -8.69283103942871
vertex -5.04492092132568 -0.0140265207737684 -5.04498291015625
vertex -8.69232273101807 -0.0971945598721504 -8.69284915924072
endloop
endfacet
facet normal 0.707099616527557 0.0040695434436202 -0.707102239131927
outer loop
vertex -5.04461860656738 -0.06899693608284 -5.04499673843384
vertex -8.69232273101807 -0.0971945598721504 -8.69284915924072
vertex -5.04492092132568 -0.0140265207737684 -5.04498291015625
endloop
endfacet
facet normal 0.707099616527557 0.00406954390928149 -0.707102239131927
outer loop
vertex -8.69272422790527 -0.0241686012595892 -8.69283103942871
vertex -8.69232273101807 -0.0971945598721504 -8.69284915924072
vertex -12.8086414337158 -0.0356121882796288 -12.808798789978
endloop
endfacet
facet normal 0.707099556922913 0.0040695434436202 -0.707102239131927
outer loop
vertex -12.8081274032593 -0.12901072204113 -12.8088216781616
vertex -12.8086414337158 -0.0356121882796288 -12.808798789978
vertex -8.69232273101807 -0.0971945598721504 -8.69284915924072
endloop
endfacet
facet normal 0.707099556922913 0.0040695434436202 -0.707102239131927
outer loop
vertex -12.8086414337158 -0.0356121882796288 -12.808798789978
vertex -12.8081274032593 -0.12901072204113 -12.8088216781616
vertex -16.9245586395264 -0.0470557771623135 -16.9247665405273
endloop
endfacet
facet normal 0.707099616527557 0.0040695434436202 -0.707102239131927
outer loop
vertex -16.9239330291748 -0.16082689166069 -16.9247951507568
vertex -16.9245586395264 -0.0470557771623135 -16.9247665405273
vertex -12.8081274032593 -0.12901072204113 -12.8088216781616
endloop
endfacet
facet normal 0.707099556922913 0.0040695434436202 -0.707102239131927
outer loop
vertex -21.0404758453369 -0.0584993623197079 -21.0407333374023
vertex -16.9245586395264 -0.0470557771623135 -16.9247665405273
vertex -21.039737701416 -0.192643046379089 -21.0407676696777
endloop
endfacet
facet normal 0.707099616527557 0.0040695434436202 -0.707102239131927
outer loop
vertex -16.9239330291748 -0.16082689166069 -16.9247951507568
vertex -21.039737701416 -0.192643046379089 -21.0407676696777
vertex -16.9245586395264 -0.0470557771623135 -16.9247665405273
endloop
endfacet
facet normal 0.707099616527557 0.0040695434436202 -0.707102298736572
outer loop
vertex -24.2610893249512 -0.0674537196755409 -24.2613868713379
vertex -21.0404758453369 -0.0584993623197079 -21.0407333374023
vertex -24.2602634429932 -0.217538490891457 -24.2614231109619
endloop
endfacet
facet normal 0.707099556922913 0.0040695434436202 -0.707102239131927
outer loop
vertex -21.039737701416 -0.192643046379089 -21.0407676696777
vertex -24.2602634429932 -0.217538490891457 -24.2614231109619
vertex -21.0404758453369 -0.0584993623197079 -21.0407333374023
endloop
endfacet
facet normal 0.707099616527557 0.0040695434436202 -0.707102239131927
outer loop
vertex -24.2610893249512 -0.0674537196755409 -24.2613868713379
vertex -24.2602634429932 -0.217538490891457 -24.2614231109619
vertex -26.2639122009277 -0.0730222165584564 -26.264232635498
endloop
endfacet
facet normal 0.707099616527557 0.00406954390928149 -0.707102239131927
outer loop
vertex -26.2630310058594 -0.23302036523819 -26.2642726898193
vertex -26.2639122009277 -0.0730222165584564 -26.264232635498
vertex -24.2602634429932 -0.217538490891457 -24.2614231109619
endloop
endfacet
facet normal 0.707099616527557 0.0040695434436202 -0.707102239131927
outer loop
vertex -27.5094718933105 -0.076485276222229 -27.5098075866699
vertex -26.2639122009277 -0.0730222165584564 -26.264232635498
vertex -27.5085563659668 -0.24264857172966 -27.5098495483398
endloop
endfacet
facet normal 0.707099556922913 0.0040695434436202 -0.707102239131927
outer loop
vertex -26.2630310058594 -0.23302036523819 -26.2642726898193
vertex -27.5085563659668 -0.24264857172966 -27.5098495483398
vertex -26.2639122009277 -0.0730222165584564 -26.264232635498
endloop
endfacet
facet normal 0.707099616527557 0.00406954390928149 -0.707102239131927
outer loop
vertex -27.5094718933105 -0.076485276222229 -27.5098075866699
vertex -27.5085563659668 -0.24264857172966 -27.5098495483398
vertex -28.284086227417 -0.078638955950737 -28.2844333648682
endloop
endfacet
facet normal 0.707099556922913 0.00406954390928149 -0.707102298736572
outer loop
vertex -28.2831516265869 -0.24863637983799 -28.2844753265381
vertex -28.284086227417 -0.078638955950737 -28.2844333648682
vertex -27.5085563659668 -0.24264857172966 -27.5098495483398
endloop
endfacet
facet normal -0.325849622488022 -0.945421636104584 -1.8093347458302e-13
outer loop
vertex -4.86939764022827 -44.7574615478516 0.0596353076398373
vertex -4.86939764022827 -44.7574615478516 0.0903646871447563
vertex -5.06641864776611 -44.6895561218262 0.0599999986588955
endloop
endfacet
facet normal -0.325849622488022 -0.945421576499939 -0
outer loop
vertex -5.06641864776611 -44.6895561218262 0.0900000035762787
vertex -5.06641864776611 -44.6895561218262 0.0599999986588955
vertex -4.86939764022827 -44.7574615478516 0.0903646871447563
endloop
endfacet
facet normal -0.325849622488022 -0.945421576499939 -2.10052204037588e-13
outer loop
vertex -4.53138113021851 -44.8739624023438 0.0590096339583397
vertex -4.53138113021851 -44.8739624023438 0.0909903645515442
vertex -4.86939764022827 -44.7574615478516 0.0596353076398373
endloop
endfacet
facet normal -0.325849622488022 -0.945421576499939 -1.8093347458302e-13
outer loop
vertex -4.86939764022827 -44.7574615478516 0.0903646871447563
vertex -4.86939764022827 -44.7574615478516 0.0596353076398373
vertex -4.53138113021851 -44.8739624023438 0.0909903645515442
endloop
endfacet
facet normal -0.325849652290344 -0.945421636104584 -2.10052231142642e-13
outer loop
vertex -4.53138113021851 -44.8739624023438 0.0590096339583397
vertex -3.9514684677124 -45.0738334655762 0.0579361990094185
vertex -4.53138113021851 -44.8739624023438 0.0909903645515442
endloop
endfacet
facet normal -0.325849652290344 -0.945421576499939 3.39212334707784e-14
outer loop
vertex -3.9514684677124 -45.0738334655762 0.0920637995004654
vertex -4.53138113021851 -44.8739624023438 0.0909903645515442
vertex -3.9514684677124 -45.0738334655762 0.0579361990094185
endloop
endfacet
facet normal -0.325849622488022 -0.945421636104584 1.01121720589084e-13
outer loop
vertex -2.9565486907959 -45.4167442321777 0.0560945756733418
vertex -2.9565486907959 -45.4167442321777 0.0939054265618324
vertex -3.9514684677124 -45.0738334655762 0.0579361990094185
endloop
endfacet
facet normal -0.325849652290344 -0.945421576499939 3.39212334707784e-14
outer loop
vertex -3.9514684677124 -45.0738334655762 0.0920637995004654
vertex -3.9514684677124 -45.0738334655762 0.0579361990094185
vertex -2.9565486907959 -45.4167442321777 0.0939054265618324
endloop
endfacet
facet normal -0.325849652290344 -0.945421636104584 -3.1151401851939e-14
outer loop
vertex -1.24962818622589 -46.0050506591797 0.0529350228607655
vertex -1.24962818622589 -46.0050506591797 0.0970649793744087
vertex -2.9565486907959 -45.4167442321777 0.0560945756733418
endloop
endfacet
facet normal -0.325849622488022 -0.945421576499939 1.01121720589084e-13
outer loop
vertex -2.9565486907959 -45.4167442321777 0.0939054265618324
vertex -2.9565486907959 -45.4167442321777 0.0560945756733418
vertex -1.24962818622589 -46.0050506591797 0.0970649793744087
endloop
endfacet
facet normal -0.325849652290344 -0.945421576499939 -3.1151401851939e-14
outer loop
vertex -1.24962818622589 -46.0050506591797 0.0529350228607655
vertex 1.67882645130157 -47.0143737792969 0.0475143752992153
vertex -1.24962818622589 -46.0050506591797 0.0970649793744087
endloop
endfacet
facet normal -0.325849652290344 -0.945421576499939 -2.10591991029819e-14
outer loop
vertex 1.67882645130157 -47.0143737792969 0.102485626935959
vertex -1.24962818622589 -46.0050506591797 0.0970649793744087
vertex 1.67882645130157 -47.0143737792969 0.0475143752992153
endloop
endfacet
facet normal -0.325849652290344 -0.945421636104584 -1.03877403369573e-13
outer loop
vertex 6.5560736656189 -48.695369720459 0.0384864658117294
vertex 6.5560736656189 -48.695369720459 0.111513532698154
vertex 1.67882645130157 -47.0143737792969 0.0475143752992153
endloop
endfacet
facet normal -0.325849652290344 -0.945421576499939 -2.10591991029819e-14
outer loop
vertex 1.67882645130157 -47.0143737792969 0.102485626935959
vertex 1.67882645130157 -47.0143737792969 0.0475143752992153
vertex 6.5560736656189 -48.695369720459 0.111513532698154
endloop
endfacet
facet normal -0.325849652290344 -0.945421576499939 -1.03877410145836e-13
outer loop
vertex 6.5560736656189 -48.695369720459 0.0384864658117294
vertex 12.0592060089111 -50.5920829772949 0.0283000227063894
vertex 6.5560736656189 -48.695369720459 0.111513532698154
endloop
endfacet
facet normal -0.325849682092667 -0.945421636104584 7.19232141834121e-14
outer loop
vertex 12.0592060089111 -50.5920829772949 0.121699973940849
vertex 6.5560736656189 -48.695369720459 0.111513532698154
vertex 12.0592060089111 -50.5920829772949 0.0283000227063894
endloop
endfacet
facet normal -0.325849682092667 -0.945421636104584 7.19232141834121e-14
outer loop
vertex 12.0592060089111 -50.5920829772949 0.0283000227063894
vertex 17.5623397827148 -52.4887962341309 0.0181135814636946
vertex 12.0592060089111 -50.5920829772949 0.121699973940849
endloop
endfacet
facet normal -0.325849592685699 -0.945421576499939 2.03502071151416e-14
outer loop
vertex 17.5623397827148 -52.4887962341309 0.131886422634125
vertex 12.0592060089111 -50.5920829772949 0.121699973940849
vertex 17.5623397827148 -52.4887962341309 0.0181135814636946
endloop
endfacet
facet normal -0.325849652290344 -0.945421636104584 1.26043530539015e-13
outer loop
vertex 23.0654716491699 -54.3855094909668 0.00792713928967714
vertex 23.0654716491699 -54.3855094909668 0.142072856426239
vertex 17.5623397827148 -52.4887962341309 0.0181135814636946
endloop
endfacet
facet normal -0.325849592685699 -0.945421576499939 2.03502071151416e-14
outer loop
vertex 17.5623397827148 -52.4887962341309 0.131886422634125
vertex 17.5623397827148 -52.4887962341309 0.0181135814636946
vertex 23.0654716491699 -54.3855094909668 0.142072856426239
endloop
endfacet
facet normal -0.325849622488022 -0.945421576499939 1.54263876520934e-14
outer loop
vertex 27.3715496063232 -55.8696479797363 -4.3524425564101e-05
vertex 27.3715496063232 -55.8696479797363 0.150043517351151
vertex 23.0654716491699 -54.3855094909668 0.00792713928967714
endloop
endfacet
facet normal -0.325849622488022 -0.945421516895294 1.26043530539015e-13
outer loop
vertex 23.0654716491699 -54.3855094909668 0.142072856426239
vertex 23.0654716491699 -54.3855094909668 0.00792713928967714
vertex 27.3715496063232 -55.8696479797363 0.150043517351151
endloop
endfacet
facet normal -0.325849652290344 -0.945421576499939 1.54263876520934e-14
outer loop
vertex 27.3715496063232 -55.8696479797363 -4.3524425564101e-05
vertex 30.0493984222412 -56.792594909668 -0.00500028999522328
vertex 27.3715496063232 -55.8696479797363 0.150043517351151
endloop
endfacet
facet normal -0.325849652290344 -0.945421636104584 -0
outer loop
vertex 30.0493984222412 -56.792594909668 0.155000284314156
vertex 27.3715496063232 -55.8696479797363 0.150043517351151
vertex 30.0493984222412 -56.792594909668 -0.00500028999522328
endloop
endfacet
facet normal -0.325849622488022 -0.945421576499939 -5.99539542360875e-14
outer loop
vertex 31.7147560119629 -57.3665771484375 -0.00808291137218475
vertex 31.7147560119629 -57.3665771484375 0.158082917332649
vertex 30.0493984222412 -56.792594909668 -0.00500028999522328
endloop
endfacet
facet normal -0.325849682092667 -0.945421636104584 -0
outer loop
vertex 30.0493984222412 -56.792594909668 0.155000284314156
vertex 30.0493984222412 -56.792594909668 -0.00500028999522328
vertex 31.7147560119629 -57.3665771484375 0.158082917332649
endloop
endfacet
facet normal -0.325849622488022 -0.945421576499939 -5.99539474598239e-14
outer loop
vertex 31.7147560119629 -57.3665771484375 -0.00808291137218475
vertex 32.7504463195801 -57.7235412597656 -0.00999999977648258
vertex 31.7147560119629 -57.3665771484375 0.158082917332649
endloop
endfacet
facet normal -0.325849652290344 -0.945421576499939 -0
outer loop
vertex 32.7504463195801 -57.7235412597656 0.159999996423721
vertex 31.7147560119629 -57.3665771484375 0.158082917332649
vertex 32.7504463195801 -57.7235412597656 -0.00999999977648258
endloop
endfacet
facet normal 0.00450068572536111 -0.00153483648318797 0.999988734722137
outer loop
vertex -4.10356140136719 -44.8591728210449 0.0554060935974121
vertex -5.01800298690796 -44.5475845336914 0.0599999986588955
vertex -4.15213298797607 -45.0016021728516 0.0554060935974121
endloop
endfacet
facet normal 0.00450068572536111 -0.00153483625035733 0.999988675117493
outer loop
vertex -5.06641864776611 -44.6895561218262 0.0599999986588955
vertex -4.15213298797607 -45.0016021728516 0.0554060935974121
vertex -5.01800298690796 -44.5475845336914 0.0599999986588955
endloop
endfacet
facet normal 0.00450068525969982 -0.00153483636677265 0.999988675117493
outer loop
vertex -4.10356140136719 -44.8591728210449 0.0554060935974121
vertex -4.15213298797607 -45.0016021728516 0.0554060935974121
vertex -2.67397475242615 -45.3462944030762 0.0482242405414581
endloop
endfacet
facet normal 0.00450068525969982 -0.00153483625035733 0.999988734722137
outer loop
vertex -2.72279000282288 -45.4894409179688 0.0482242405414581
vertex -2.67397475242615 -45.3462944030762 0.0482242405414581
vertex -4.15213298797607 -45.0016021728516 0.0554060935974121
endloop
endfacet
facet normal 0.00450068525969982 -0.00153483625035733 0.999988675117493
outer loop
vertex -0.488234758377075 -46.2520980834961 0.036996528506279
vertex -0.43903848528862 -46.107837677002 0.036996528506279
vertex -2.72279000282288 -45.4894409179688 0.0482242405414581
endloop
endfacet
facet normal 0.00450068525969982 -0.00153483625035733 0.999988675117493
outer loop
vertex -2.67397475242615 -45.3462944030762 0.0482242405414581
vertex -2.72279000282288 -45.4894409179688 0.0482242405414581
vertex -0.43903848528862 -46.107837677002 0.036996528506279
endloop
endfacet
facet normal 0.00450068525969982 -0.00153483636677265 0.999988675117493
outer loop
vertex -0.488234758377075 -46.2520980834961 0.036996528506279
vertex 3.00514435768127 -47.444393157959 0.0194437485188246
vertex -0.43903848528862 -46.107837677002 0.036996528506279
endloop
endfacet
facet normal 0.00450068525969982 -0.00153483636677265 0.999988675117493
outer loop
vertex 3.05493640899658 -47.2983856201172 0.0194437485188246
vertex -0.43903848528862 -46.107837677002 0.036996528506279
vertex 3.00514435768127 -47.444393157959 0.0194437485188246
endloop
endfacet
facet normal 0.00450068525969982 -0.00153483636677265 0.999988675117493
outer loop
vertex 8.0871524810791 -49.1788940429688 -0.00609123427420855
vertex 8.1378116607666 -49.030345916748 -0.00609123427420855
vertex 3.00514435768127 -47.444393157959 0.0194437485188246
endloop
endfacet
facet normal 0.00450068525969982 -0.00153483625035733 0.999988675117493
outer loop
vertex 3.05493640899658 -47.2983856201172 0.0194437485188246
vertex 3.00514435768127 -47.444393157959 0.0194437485188246
vertex 8.1378116607666 -49.030345916748 -0.00609123427420855
endloop
endfacet
facet normal 0.00450068525969982 -0.00153483648318797 0.999988734722137
outer loop
vertex 8.0871524810791 -49.1788940429688 -0.00609123427420855
vertex 13.378867149353 -50.9849662780762 -0.0326799005270004
vertex 8.1378116607666 -49.030345916748 -0.00609123427420855
endloop
endfacet
facet normal 0.00450068525969982 -0.00153483636677265 0.999988675117493
outer loop
vertex 13.4304275512695 -50.8337707519531 -0.0326799005270004
vertex 8.1378116607666 -49.030345916748 -0.00609123427420855
vertex 13.378867149353 -50.9849662780762 -0.0326799005270004
endloop
endfacet
facet normal 0.00450068572536111 -0.00153483648318797 0.999988734722137
outer loop
vertex 18.7230453491211 -52.6371955871582 -0.0592685639858246
vertex 13.4304275512695 -50.8337707519531 -0.0326799005270004
vertex 18.670581817627 -52.7910385131836 -0.0592685639858246
endloop
endfacet
facet normal 0.00450068525969982 -0.00153483636677265 0.999988675117493
outer loop
vertex 13.378867149353 -50.9849662780762 -0.0326799005270004
vertex 18.670581817627 -52.7910385131836 -0.0592685639858246
vertex 13.4304275512695 -50.8337707519531 -0.0326799005270004
endloop
endfacet
facet normal 0.00450068525969982 -0.00153483648318797 0.999988734722137
outer loop
vertex 18.7230453491211 -52.6371955871582 -0.0592685639858246
vertex 18.670581817627 -52.7910385131836 -0.0592685639858246
vertex 23.9498100280762 -54.4181823730469 -0.0855264142155647
endloop
endfacet
facet normal 0.00450068525969982 -0.00153483636677265 0.999988675117493
outer loop
vertex 23.8964557647705 -54.5746383666992 -0.0855264142155647
vertex 23.9498100280762 -54.4181823730469 -0.0855264142155647
vertex 18.670581817627 -52.7910385131836 -0.0592685639858246
endloop
endfacet
facet normal 0.00450068572536111 -0.00153483636677265 0.999988675117493
outer loop
vertex 27.7132244110107 -55.8773078918457 -0.104704096913338
vertex 27.7672309875488 -55.7189445495605 -0.104704096913338
vertex 23.8964557647705 -54.5746383666992 -0.0855264142155647
endloop
endfacet
facet normal 0.00450068572536111 -0.00153483648318797 0.999988734722137
outer loop
vertex 23.9498100280762 -54.4181823730469 -0.0855264142155647
vertex 23.8964557647705 -54.5746383666992 -0.0855264142155647
vertex 27.7672309875488 -55.7189445495605 -0.104704096913338
endloop
endfacet
facet normal 0.00450068572536111 -0.00153483636677265 0.999988675117493
outer loop
vertex 27.7132244110107 -55.8773078918457 -0.104704096913338
vertex 30.1755867004395 -56.717716217041 -0.117076441645622
vertex 27.7672309875488 -55.7189445495605 -0.104704096913338
endloop
endfacet
facet normal 0.00450068525969982 -0.00153483636677265 0.999988734722137
outer loop
vertex 30.2300109863281 -56.5581245422363 -0.117076441645622
vertex 27.7672309875488 -55.7189445495605 -0.104704096913338
vertex 30.1755867004395 -56.717716217041 -0.117076441645622
endloop
endfacet
facet normal 0.00450068479403853 -0.00153483625035733 0.999988675117493
outer loop
vertex 31.76416015625 -57.2599029541016 -0.125058367848396
vertex 31.8188571929932 -57.0995140075684 -0.125058367848396
vertex 30.1755867004395 -56.717716217041 -0.117076441645622
endloop
endfacet
facet normal 0.00450068525969982 -0.00153483636677265 0.999988734722137
outer loop
vertex 30.2300109863281 -56.5581245422363 -0.117076441645622
vertex 30.1755867004395 -56.717716217041 -0.117076441645622
vertex 31.8188571929932 -57.0995140075684 -0.125058367848396
endloop
endfacet
facet normal 0.00450068525969982 -0.00153483625035733 0.999988734722137
outer loop
vertex 31.76416015625 -57.2599029541016 -0.125058367848396
vertex 32.7890167236328 -57.6096878051758 -0.130207851529121
vertex 31.8188571929932 -57.0995140075684 -0.125058367848396
endloop
endfacet
facet normal 0.00450068479403853 -0.00153483636677265 0.999988675117493
outer loop
vertex 32.8438873291016 -57.448787689209 -0.130207851529121
vertex 31.8188571929932 -57.0995140075684 -0.125058367848396
vertex 32.7890167236328 -57.6096878051758 -0.130207851529121
endloop
endfacet
facet normal -0.231581479310989 -0.668114006519318 -0.707102358341217
outer loop
vertex 32.7893600463867 -57.6098022460938 -0.130209907889366
vertex 32.7503890991211 -57.723518371582 -0.0099995220080018
vertex 31.5439109802246 -57.1847305297852 -0.12395203858614
endloop
endfacet
facet normal -0.231581479310989 -0.668114006519318 -0.707102358341217
outer loop
vertex 31.5062141418457 -57.2947006225586 -0.00769653543829918
vertex 31.5439109802246 -57.1847305297852 -0.12395203858614
vertex 32.7503890991211 -57.723518371582 -0.0099995220080018
endloop
endfacet
facet normal -0.231581464409828 -0.668113946914673 -0.707102298736572
outer loop
vertex 31.5439109802246 -57.1847305297852 -0.12395203858614
vertex 31.5062141418457 -57.2947006225586 -0.00769653543829918
vertex 28.7144470214844 -56.2190284729004 -0.109735123813152
endloop
endfacet
facet normal -0.231581464409828 -0.668114006519318 -0.707102358341217
outer loop
vertex 28.6796684265137 -56.3205032348633 -0.00246455427259207
vertex 28.7144470214844 -56.2190284729004 -0.109735123813152
vertex 31.5062141418457 -57.2947006225586 -0.00769653543829918
endloop
endfacet
facet normal -0.231581464409828 -0.668114006519318 -0.707102358341217
outer loop
vertex 28.6796684265137 -56.3205032348633 -0.00246455427259207
vertex 23.3131332397461 -54.4708709716797 0.00746899051591754
vertex 28.7144470214844 -56.2190284729004 -0.109735123813152
endloop
endfacet
facet normal -0.231581449508667 -0.668113946914673 -0.707102358341217
outer loop
vertex 23.3423671722412 -54.3855247497559 -0.0827426090836525
vertex 28.7144470214844 -56.2190284729004 -0.109735123813152
vertex 23.3131332397461 -54.4708709716797 0.00746899051591754
endloop
endfacet
facet normal -0.231581479310989 -0.668113946914673 -0.707102358341217
outer loop
vertex 23.3423671722412 -54.3855247497559 -0.0827426090836525
vertex 23.3131332397461 -54.4708709716797 0.00746899051591754
vertex 17.6606101989746 -52.4463310241699 -0.0541940852999687
endloop
endfacet
facet normal -0.231581464409828 -0.668113946914673 -0.707102358341217
outer loop
vertex 17.6372222900391 -52.5146064758301 0.0179751925170422
vertex 17.6606101989746 -52.4463310241699 -0.0541940852999687
vertex 23.3131332397461 -54.4708709716797 0.00746899051591754
endloop
endfacet
facet normal -0.231581464409828 -0.668113946914673 -0.707102358341217
outer loop
vertex 17.6372222900391 -52.5146064758301 0.0179751925170422
vertex 11.9613122940063 -50.5583419799805 0.0284813940525055
vertex 17.6606101989746 -52.4463310241699 -0.0541940852999687
endloop
endfacet
facet normal -0.231581464409828 -0.668114006519318 -0.707102358341217
outer loop
vertex 11.9788522720337 -50.507137298584 -0.0256455633789301
vertex 17.6606101989746 -52.4463310241699 -0.0541940852999687
vertex 11.9613122940063 -50.5583419799805 0.0284813940525055
endloop
endfacet
facet normal -0.231581464409828 -0.668114006519318 -0.707102358341217
outer loop
vertex 11.9788522720337 -50.507137298584 -0.0256455633789301
vertex 11.9613122940063 -50.5583419799805 0.0284813940525055
vertex 6.29709529876709 -48.567943572998 0.00290295761078596
endloop
endfacet
facet normal -0.231581464409828 -0.668113946914673 -0.707102358341217
outer loop
vertex 6.28540182113647 -48.6020812988281 0.0389875955879688
vertex 6.29709529876709 -48.567943572998 0.00290295761078596
vertex 11.9613122940063 -50.5583419799805 0.0284813940525055
endloop
endfacet
facet normal -0.231581464409828 -0.668113946914673 -0.707102358341217
outer loop
vertex 6.28540182113647 -48.6020812988281 0.0389875955879688
vertex 0.609491765499115 -46.6458168029785 0.0494937971234322
vertex 6.29709529876709 -48.567943572998 0.00290295761078596
endloop
endfacet
facet normal -0.231581464409828 -0.668113946914673 -0.707102358341217
outer loop
vertex 0.615338504314423 -46.6287498474121 0.031451478600502
vertex 6.29709529876709 -48.567943572998 0.00290295761078596
vertex 0.609491765499115 -46.6458168029785 0.0494937971234322
endloop
endfacet
facet normal -0.231581464409828 -0.668113946914673 -0.707102358341217
outer loop
vertex 0.609491765499115 -46.6458168029785 0.0494937971234322
vertex -5.06641864776611 -44.6895561218262 0.0599999986588955
vertex 0.615338504314423 -46.6287498474121 0.031451478600502
endloop
endfacet
facet normal -0.946440756320953 0.322757869958878 0.00879035331308842
outer loop
vertex -5.00988721847534 -44.5500946044922 1.05604374408722
vertex -5.01800298690796 -44.5475845336914 0.0900000035762787
vertex -5.05845880508423 -44.6925239562988 1.05604374408722
endloop
endfacet
facet normal -0.946440756320953 0.3227578997612 0.00879035424441099
outer loop
vertex -5.06641864776611 -44.6895561218262 0.0900000035762787
vertex -5.05845880508423 -44.6925239562988 1.05604374408722
vertex -5.01800298690796 -44.5475845336914 0.0900000035762787
endloop
endfacet
facet normal -0.946440696716309 0.322757869958878 0.00879035331308842
outer loop
vertex -5.00988721847534 -44.5500946044922 1.05604374408722
vertex -5.05845880508423 -44.6925239562988 1.05604374408722
vertex -4.99719953536987 -44.5540237426758 2.56630253791809
endloop
endfacet
facet normal -0.946440756320953 0.322757869958878 0.00879035424441099
outer loop
vertex -5.0460147857666 -44.6971664428711 2.56630253791809
vertex -4.99719953536987 -44.5540237426758 2.56630253791809
vertex -5.05845880508423 -44.6925239562988 1.05604374408722
endloop
endfacet
facet normal -0.946440756320953 0.322757869958878 0.00879035424441099
outer loop
vertex -4.99719953536987 -44.5540237426758 2.56630253791809
vertex -5.0460147857666 -44.6971664428711 2.56630253791809
vertex -4.97736501693726 -44.5601615905762 4.92735719680786
endloop
endfacet
facet normal -0.946440756320953 0.322757869958878 0.00879035424441099
outer loop
vertex -5.02656126022339 -44.7044258117676 4.92735719680786
vertex -4.97736501693726 -44.5601615905762 4.92735719680786
vertex -5.0460147857666 -44.6971664428711 2.56630253791809
endloop
endfacet
facet normal -0.946440756320953 0.3227578997612 0.00879035424441099
outer loop
vertex -4.94635581970215 -44.5697631835938 8.61849880218506
vertex -4.97736501693726 -44.5601615905762 4.92735719680786
vertex -4.99614810943604 -44.7157707214355 8.61849880218506
endloop
endfacet
facet normal -0.946440756320953 0.3227578997612 0.00879035517573357
outer loop
vertex -5.02656126022339 -44.7044258117676 4.92735719680786
vertex -4.99614810943604 -44.7157707214355 8.61849880218506
vertex -4.97736501693726 -44.5601615905762 4.92735719680786
endloop
endfacet
facet normal -0.946440696716309 0.3227578997612 0.00879035424441099
outer loop
vertex -4.94635581970215 -44.5697631835938 8.61849880218506
vertex -4.99614810943604 -44.7157707214355 8.61849880218506
vertex -4.90124559402466 -44.5837287902832 13.9882030487061
endloop
endfacet
facet normal -0.946440756320953 0.3227578997612 0.00879035424441099
outer loop
vertex -4.951904296875 -44.7322769165039 13.9882030487061
vertex -4.90124559402466 -44.5837287902832 13.9882030487061
vertex -4.99614810943604 -44.7157707214355 8.61849880218506
endloop
endfacet
facet normal -0.946440756320953 0.3227578997612 0.00879035424441099
outer loop
vertex -4.951904296875 -44.7322769165039 13.9882030487061
vertex -4.90583515167236 -44.7494659423828 19.5794830322266
vertex -4.90124559402466 -44.5837287902832 13.9882030487061
endloop
endfacet
facet normal -0.946440756320953 0.322757869958878 0.00879035424441099
outer loop
vertex -4.85427379608154 -44.5982704162598 19.5794830322266
vertex -4.90124559402466 -44.5837287902832 13.9882030487061
vertex -4.90583515167236 -44.7494659423828 19.5794830322266
endloop
endfacet
facet normal -0.946440756320953 0.3227578997612 0.00879035424441099
outer loop
vertex -4.80730199813843 -44.6128120422363 25.1707649230957
vertex -4.85427379608154 -44.5982704162598 19.5794830322266
vertex -4.85976552963257 -44.7666511535645 25.1707649230957
endloop
endfacet
facet normal -0.946440756320953 0.322757869958878 0.00879035424441099
outer loop
vertex -4.90583515167236 -44.7494659423828 19.5794830322266
vertex -4.85976552963257 -44.7666511535645 25.1707649230957
vertex -4.85427379608154 -44.5982704162598 19.5794830322266
endloop
endfacet
facet normal -0.946440756320953 0.3227578997612 0.00879035331308842
outer loop
vertex -4.80730199813843 -44.6128120422363 25.1707649230957
vertex -4.85976552963257 -44.7666511535645 25.1707649230957
vertex -4.76091480255127 -44.6271705627441 30.6924781799316
endloop
endfacet
facet normal -0.946440696716309 0.3227578997612 0.00879035331308842
outer loop
vertex -4.81426954269409 -44.7836265563965 30.6924781799316
vertex -4.76091480255127 -44.6271705627441 30.6924781799316
vertex -4.85976552963257 -44.7666511535645 25.1707649230957
endloop
endfacet
facet normal -0.946440696716309 0.322757840156555 0.00879035331308842
outer loop
vertex -4.78104066848755 -44.7960243225098 34.7253189086914
vertex -4.72703552246094 -44.6376609802246 34.7253189086914
vertex -4.81426954269409 -44.7836265563965 30.6924781799316
endloop
endfacet
facet normal -0.946440815925598 0.3227578997612 0.00879035424441099
outer loop
vertex -4.76091480255127 -44.6271705627441 30.6924781799316
vertex -4.81426954269409 -44.7836265563965 30.6924781799316
vertex -4.72703552246094 -44.6376609802246 34.7253189086914
endloop
endfacet
facet normal -0.946440696716309 0.322757869958878 0.00879035331308842
outer loop
vertex -4.78104066848755 -44.7960243225098 34.7253189086914
vertex -4.75960350036621 -44.8040199279785 37.327075958252
vertex -4.72703552246094 -44.6376609802246 34.7253189086914
endloop
endfacet
facet normal -0.946440756320953 0.322757869958878 0.00879035331308842
outer loop
vertex -4.70517826080322 -44.6444282531738 37.327075958252
vertex -4.72703552246094 -44.6376609802246 34.7253189086914
vertex -4.75960350036621 -44.8040199279785 37.327075958252
endloop
endfacet
facet normal -0.946440696716309 0.322757840156555 0.00879035331308842
outer loop
vertex -4.74577379226685 -44.8091812133789 39.0055809020996
vertex -4.691077709198 -44.6487922668457 39.0055809020996
vertex -4.75960350036621 -44.8040199279785 37.327075958252
endloop
endfacet
facet normal -0.946440756320953 0.3227578997612 0.00879035424441099
outer loop
vertex -4.70517826080322 -44.6444282531738 37.327075958252
vertex -4.75960350036621 -44.8040199279785 37.327075958252
vertex -4.691077709198 -44.6487922668457 39.0055809020996
endloop
endfacet
facet normal -0.946440756320953 0.322757869958878 0.00879035424441099
outer loop
vertex -4.74577379226685 -44.8091812133789 39.0055809020996
vertex -4.73685121536255 -44.8125114440918 40.0884552001953
vertex -4.691077709198 -44.6487922668457 39.0055809020996
endloop
endfacet
facet normal -0.946440756320953 0.322757869958878 0.00879035331308842
outer loop
vertex -4.6819806098938 -44.6516075134277 40.0884552001953
vertex -4.691077709198 -44.6487922668457 39.0055809020996
vertex -4.73685121536255 -44.8125114440918 40.0884552001953
endloop
endfacet
facet normal 0.224379897117615 0.670569717884064 -0.707099556922913
outer loop
vertex 3.93373894691467 -18.5348606109619 27.5994720458984
vertex 4.18580341339111 -17.8023910522461 28.3740863800049
vertex 4.09102201461792 -18.5884532928467 27.5985565185547
endloop
endfacet
facet normal 0.224379912018776 0.670569777488708 -0.707099556922913
outer loop
vertex 4.34671592712402 -17.8572216033936 28.3731517791748
vertex 4.09102201461792 -18.5884532928467 27.5985565185547
vertex 4.18580341339111 -17.8023910522461 28.3740863800049
endloop
endfacet
facet normal 0.224379897117615 0.670569777488708 -0.707099616527557
outer loop
vertex 3.93373894691467 -18.5348606109619 27.5994720458984
vertex 4.09102201461792 -18.5884532928467 27.5985565185547
vertex 3.52842688560486 -19.7126502990723 26.3539123535156
endloop
endfacet
facet normal 0.224379897117615 0.670569717884064 -0.707099556922913
outer loop
vertex 3.67987442016602 -19.7642555236816 26.3530311584473
vertex 3.52842688560486 -19.7126502990723 26.3539123535156
vertex 4.09102201461792 -18.5884532928467 27.5985565185547
endloop
endfacet
facet normal 0.224379912018776 0.670569777488708 -0.707099616527557
outer loop
vertex 3.67987442016602 -19.7642555236816 26.3530311584473
vertex 3.01876068115234 -21.6549110412598 24.3502635955811
vertex 3.52842688560486 -19.7126502990723 26.3539123535156
endloop
endfacet
facet normal 0.224379912018776 0.670569837093353 -0.707099616527557
outer loop
vertex 2.87669658660889 -21.606502532959 24.3510894775391
vertex 3.52842688560486 -19.7126502990723 26.3539123535156
vertex 3.01876068115234 -21.6549110412598 24.3502635955811
endloop
endfacet
facet normal 0.224379912018776 0.670569777488708 -0.707099556922913
outer loop
vertex 2.87669658660889 -21.606502532959 24.3510894775391
vertex 3.01876068115234 -21.6549110412598 24.3502635955811
vertex 1.82869029045105 -24.6518878936768 21.1304759979248
endloop
endfacet
facet normal 0.224379897117615 0.670569777488708 -0.707099556922913
outer loop
vertex 1.95566511154175 -24.6951541900635 21.1297378540039
vertex 1.82869029045105 -24.6518878936768 21.1304759979248
vertex 3.01876068115234 -21.6549110412598 24.3502635955811
endloop
endfacet
facet normal 0.224379912018776 0.670569777488708 -0.707099556922913
outer loop
vertex 1.82869029045105 -24.6518878936768 21.1304759979248
vertex 1.95566511154175 -24.6951541900635 21.1297378540039
vertex 0.489346921443939 -28.5438632965088 17.0145587921143
endloop
endfacet
facet normal 0.224379897117615 0.670569777488708 -0.707099616527557
outer loop
vertex 0.597037851810455 -28.5805587768555 17.0139331817627
vertex 0.489346921443939 -28.5438632965088 17.0145587921143
vertex 1.95566511154175 -24.6951541900635 21.1297378540039
endloop
endfacet
facet normal 0.224379897117615 0.670569777488708 -0.707099616527557
outer loop
vertex 0.597037851810455 -28.5805587768555 17.0139331817627
vertex -0.761589288711548 -32.4659652709961 12.8981275558472
vertex 0.489346921443939 -28.5438632965088 17.0145587921143
endloop
endfacet
facet normal 0.224379912018776 0.670569777488708 -0.707099556922913
outer loop
vertex -0.849996447563171 -32.4358406066895 12.8986415863037
vertex 0.489346921443939 -28.5438632965088 17.0145587921143
vertex -0.761589288711548 -32.4659652709961 12.8981275558472
endloop
endfacet
facet normal 0.224379912018776 0.670569777488708 -0.707099616527557
outer loop
vertex -2.18933987617493 -36.3278160095215 8.78272438049316
vertex -0.849996447563171 -32.4358406066895 12.8986415863037
vertex -2.12021660804749 -36.3513679504395 8.78232288360596
endloop
endfacet
facet normal 0.224379912018776 0.670569777488708 -0.707099556922913
outer loop
vertex -0.761589288711548 -32.4659652709961 12.8981275558472
vertex -2.12021660804749 -36.3513679504395 8.78232288360596
vertex -0.849996447563171 -32.4358406066895 12.8986415863037
endloop
endfacet
facet normal 0.224379912018776 0.670569777488708 -0.707099556922913
outer loop
vertex -2.18933987617493 -36.3278160095215 8.78272438049316
vertex -2.12021660804749 -36.3513679504395 8.78232288360596
vertex -3.37635636329651 -39.7771492004395 5.13492107391357
endloop
endfacet
facet normal 0.224379912018776 0.670569777488708 -0.707099616527557
outer loop
vertex -3.3243236541748 -39.7948799133301 5.13461828231812
vertex -3.37635636329651 -39.7771492004395 5.13492107391357
vertex -2.12021660804749 -36.3513679504395 8.78232288360596
endloop
endfacet
facet normal 0.224379912018776 0.670569777488708 -0.707099616527557
outer loop
vertex -3.3243236541748 -39.7948799133301 5.13461828231812
vertex -4.04730796813965 -41.8624687194824 2.94442057609558
vertex -3.37635636329651 -39.7771492004395 5.13492107391357
endloop
endfacet
facet normal 0.224379912018776 0.670569777488708 -0.707099616527557
outer loop
vertex -4.08907890319824 -41.8482360839844 2.94466352462769
vertex -3.37635636329651 -39.7771492004395 5.13492107391357
vertex -4.04730796813965 -41.8624687194824 2.94442057609558
endloop
endfacet
facet normal 0.224379912018776 0.670569777488708 -0.707099616527557
outer loop
vertex -4.08907890319824 -41.8482360839844 2.94466352462769
vertex -4.04730796813965 -41.8624687194824 2.94442057609558
vertex -4.50450611114502 -43.055419921875 1.66801929473877
endloop
endfacet
facet normal 0.224379926919937 0.670569777488708 -0.707099616527557
outer loop
vertex -4.46871662139893 -43.0676155090332 1.66781115531921
vertex -4.50450611114502 -43.055419921875 1.66801929473877
vertex -4.04730796813965 -41.8624687194824 2.94442057609558
endloop
endfacet
facet normal 0.224379912018776 0.670569777488708 -0.707099556922913
outer loop
vertex -4.50450611114502 -43.055419921875 1.66801929473877
vertex -4.46871662139893 -43.0676155090332 1.66781115531921
vertex -4.74664831161499 -43.7590560913086 0.923896372318268
endloop
endfacet
facet normal 0.224379897117615 0.670569777488708 -0.707099556922913
outer loop
vertex -4.71434497833252 -43.7700653076172 0.923708498477936
vertex -4.74664831161499 -43.7590560913086 0.923896372318268
vertex -4.46871662139893 -43.0676155090332 1.66781115531921
endloop
endfacet
facet normal 0.224379897117615 0.670569777488708 -0.707099616527557
outer loop
vertex -4.71434497833252 -43.7700653076172 0.923708498477936
vertex -4.85751533508301 -44.1795043945313 0.489990323781967
vertex -4.74664831161499 -43.7590560913086 0.923896372318268
endloop
endfacet
facet normal 0.224379912018776 0.670569777488708 -0.707099616527557
outer loop
vertex -4.88778638839722 -44.169189453125 0.490166366100311
vertex -4.74664831161499 -43.7590560913086 0.923896372318268
vertex -4.85751533508301 -44.1795043945313 0.489990323781967
endloop
endfacet
facet normal 0.224379912018776 0.670569717884064 -0.707099556922913
outer loop
vertex -4.88778638839722 -44.169189453125 0.490166366100311
vertex -4.85751533508301 -44.1795043945313 0.489990323781967
vertex -4.97005224227905 -44.4082450866699 0.237356394529343
endloop
endfacet
facet normal 0.224379897117615 0.670569777488708 -0.707099556922913
outer loop
vertex -4.94096565246582 -44.418155670166 0.237187221646309
vertex -4.97005224227905 -44.4082450866699 0.237356394529343
vertex -4.85751533508301 -44.1795043945313 0.489990323781967
endloop
endfacet
facet normal 0.224379897117615 0.670569717884064 -0.707099556922913
outer loop
vertex -4.97005224227905 -44.4082450866699 0.237356394529343
vertex -4.94096565246582 -44.418155670166 0.237187221646309
vertex -5.01800298690796 -44.5475845336914 0.0900000035762787
endloop
endfacet
facet normal 0.224379912018776 0.670569717884064 -0.707099616527557
outer loop
vertex -4.98960638046265 -44.557258605957 0.0898348465561867
vertex -5.01800298690796 -44.5475845336914 0.0900000035762787
vertex -4.94096565246582 -44.418155670166 0.237187221646309
endloop
endfacet
facet normal -0.231244325637817 -0.668220579624176 0.707111954689026
outer loop
vertex -3.6366069316864 -40.5334053039551 4.33514833450317
vertex -5.01800298690796 -44.5475845336914 0.0900000035762787
vertex -3.61248803138733 -40.5417327880859 4.33516836166382
endloop
endfacet
facet normal -0.231244325637817 -0.668220579624176 0.707111954689026
outer loop
vertex -2.25521111488342 -36.519229888916 8.58029651641846
vertex -3.6366069316864 -40.5334053039551 4.33514833450317
vertex -2.20697331428528 -36.5358810424805 8.58033657073975
endloop
endfacet
facet normal -0.231244325637817 -0.668220579624176 0.707111954689026
outer loop
vertex -3.61248803138733 -40.5417327880859 4.33516836166382
vertex -2.20697331428528 -36.5358810424805 8.58033657073975
vertex -3.6366069316864 -40.5334053039551 4.33514833450317
endloop
endfacet
facet normal -0.231244325637817 -0.668220579624176 0.707111954689026
outer loop
vertex -2.25521111488342 -36.519229888916 8.58029651641846
vertex -2.20697331428528 -36.5358810424805 8.58033657073975
vertex -0.873815178871155 -32.505054473877 12.8254442214966
endloop
endfacet
facet normal -0.231244325637817 -0.668220579624176 0.707111954689026
outer loop
vertex -0.801458597183228 -32.530029296875 12.8255052566528
vertex -0.873815178871155 -32.505054473877 12.8254442214966
vertex -2.20697331428528 -36.5358810424805 8.58033657073975
endloop
endfacet
facet normal -0.231244325637817 -0.668220579624176 0.707111954689026
outer loop
vertex 0.507580697536469 -28.4908790588379 17.070592880249
vertex -0.873815178871155 -32.505054473877 12.8254442214966
vertex 0.604056179523468 -28.5241794586182 17.0706729888916
endloop
endfacet
facet normal -0.231244325637817 -0.668220579624176 0.707111954689026
outer loop
vertex -0.801458597183228 -32.530029296875 12.8255052566528
vertex 0.604056179523468 -28.5241794586182 17.0706729888916
vertex -0.873815178871155 -32.505054473877 12.8254442214966
endloop
endfacet
facet normal -0.231244325637817 -0.668220579624176 0.707111954689026
outer loop
vertex 0.507580697536469 -28.4908790588379 17.070592880249
vertex 0.604056179523468 -28.5241794586182 17.0706729888916
vertex 1.88897657394409 -24.4767036437988 21.3157405853271
endloop
endfacet
facet normal -0.23124435544014 -0.668220639228821 0.707112014293671
outer loop
vertex 2.00957083702087 -24.5183296203613 21.3158416748047
vertex 1.88897657394409 -24.4767036437988 21.3157405853271
vertex 0.604056179523468 -28.5241794586182 17.0706729888916
endloop
endfacet
facet normal -0.231244325637817 -0.668220579624176 0.707111895084381
outer loop
vertex 3.1950740814209 -20.6813354492188 25.3294906616211
vertex 1.88897657394409 -24.4767036437988 21.3157405853271
vertex 3.33847665786743 -20.7308216094971 25.3296222686768
endloop
endfacet
facet normal -0.231244340538979 -0.668220579624176 0.707111954689026
outer loop
vertex 2.00957083702087 -24.5183296203613 21.3158416748047
vertex 3.33847665786743 -20.7308216094971 25.3296222686768
vertex 1.88897657394409 -24.4767036437988 21.3157405853271
endloop
endfacet
facet normal -0.231244340538979 -0.668220579624176 0.707112014293671
outer loop
vertex 3.1950740814209 -20.6813354492188 25.3294906616211
vertex 3.33847665786743 -20.7308216094971 25.3296222686768
vertex 3.8829882144928 -18.682336807251 27.443510055542
endloop
endfacet
facet normal -0.231244325637817 -0.668220579624176 0.707111954689026
outer loop
vertex 4.03840351104736 -18.7359638214111 27.4436569213867
vertex 3.8829882144928 -18.682336807251 27.443510055542
vertex 3.33847665786743 -20.7308216094971 25.3296222686768
endloop
endfacet
facet normal -0.231244325637817 -0.668220579624176 0.707112014293671
outer loop
vertex 3.8829882144928 -18.682336807251 27.443510055542
vertex 4.03840351104736 -18.7359638214111 27.4436569213867
vertex 4.18578910827637 -17.8024311065674 28.374044418335
endloop
endfacet
facet normal -0.231244325637817 -0.668220579624176 0.707111954689026
outer loop
vertex 4.34648942947388 -17.857889175415 28.3741893768311
vertex 4.18578910827637 -17.8024311065674 28.374044418335
vertex 4.03840351104736 -18.7359638214111 27.4436569213867
endloop
endfacet
facet normal -0.325849235057831 -0.945421636104584 -0.000221395952394232
outer loop
vertex -0.73721444606781 -46.1900291442871 35.8283615112305
vertex -4.73685121536255 -44.8125114440918 40.0884552001953
vertex -0.754332363605499 -46.1841239929199 35.8103866577148
endloop
endfacet
facet normal -0.325849235057831 -0.945421636104584 -0.000221395952394232
outer loop
vertex 3.26242232322693 -47.5675468444824 31.5682716369629
vertex -0.73721444606781 -46.1900291442871 35.8283615112305
vertex 3.22818660736084 -47.555736541748 31.5323181152344
endloop
endfacet
facet normal -0.325849235057831 -0.945421636104584 -0.000221395952394232
outer loop
vertex -0.754332363605499 -46.1841239929199 35.8103866577148
vertex 3.22818660736084 -47.555736541748 31.5323181152344
vertex -0.73721444606781 -46.1900291442871 35.8283615112305
endloop
endfacet
facet normal -0.325849235057831 -0.945421636104584 -0.000221395952394232
outer loop
vertex 3.26242232322693 -47.5675468444824 31.5682716369629
vertex 3.22818660736084 -47.555736541748 31.5323181152344
vertex 7.26205921173096 -48.9450645446777 27.3081798553467
endloop
endfacet
facet normal -0.325849264860153 -0.945421695709229 -0.000221395981498063
outer loop
vertex 7.21070575714111 -48.9273529052734 27.2542495727539
vertex 7.26205921173096 -48.9450645446777 27.3081798553467
vertex 3.22818660736084 -47.555736541748 31.5323181152344
endloop
endfacet
facet normal -0.325849264860153 -0.945421695709229 -0.000221395981498063
outer loop
vertex 7.21070575714111 -48.9273529052734 27.2542495727539
vertex 11.1932249069214 -50.2989654541016 22.9761810302734
vertex 7.26205921173096 -48.9450645446777 27.3081798553467
endloop
endfacet
facet normal -0.325849235057831 -0.945421636104584 -0.000221395952394232
outer loop
vertex 11.2616958618164 -50.322582244873 23.0480880737305
vertex 7.26205921173096 -48.9450645446777 27.3081798553467
vertex 11.1932249069214 -50.2989654541016 22.9761810302734
endloop
endfacet
facet normal -0.325849235057831 -0.945421636104584 -0.000221395952394232
outer loop
vertex 11.2616958618164 -50.322582244873 23.0480880737305
vertex 11.1932249069214 -50.2989654541016 22.9761810302734
vertex 15.2613334655762 -51.7000999450684 18.7879962921143
endloop
endfacet
facet normal -0.325849294662476 -0.945421755313873 -0.000221395996049978
outer loop
vertex 15.1757440567017 -51.670581817627 18.698112487793
vertex 15.2613334655762 -51.7000999450684 18.7879962921143
vertex 11.1932249069214 -50.2989654541016 22.9761810302734
endloop
endfacet
facet normal -0.325849264860153 -0.945421695709229 -0.000221395981498063
outer loop
vertex 19.0429630279541 -53.0025367736816 14.7601079940796
vertex 15.2613334655762 -51.7000999450684 18.7879962921143
vertex 18.9412002563477 -52.9674377441406 14.6532144546509
endloop
endfacet
facet normal -0.325849264860153 -0.945421695709229 -0.000221395981498063
outer loop
vertex 15.1757440567017 -51.670581817627 18.698112487793
vertex 18.9412002563477 -52.9674377441406 14.6532144546509
vertex 15.2613334655762 -51.7000999450684 18.7879962921143
endloop
endfacet
facet normal -0.325849264860153 -0.945421695709229 -0.000221395981498063
outer loop
vertex 19.0429630279541 -53.0025367736816 14.7601079940796
vertex 18.9412002563477 -52.9674377441406 14.6532144546509
vertex 21.0347423553467 -53.6885261535645 12.6386260986328
endloop
endfacet
facet normal -0.325849264860153 -0.945421695709229 -0.000221395981498063
outer loop
vertex 20.9244594573975 -53.6504898071289 12.5227746963501
vertex 21.0347423553467 -53.6885261535645 12.6386260986328
vertex 18.9412002563477 -52.9674377441406 14.6532144546509
endloop
endfacet
facet normal -0.325849264860153 -0.945421695709229 -0.000221395981498063
outer loop
vertex 21.0347423553467 -53.6885261535645 12.6386260986328
vertex 20.9244594573975 -53.6504898071289 12.5227746963501
vertex 21.9114723205566 -53.9904823303223 11.7048025131226
endloop
endfacet
facet normal -0.325849264860153 -0.945421695709229 -0.000221395966946147
outer loop
vertex 21.7974319458008 -53.9511489868164 11.5850162506104
vertex 21.9114723205566 -53.9904823303223 11.7048025131226
vertex 20.9244594573975 -53.6504898071289 12.5227746963501
endloop
endfacet
facet normal -1 0 0
outer loop
vertex -0.190209999680519 -41 0.159999996423721
vertex -0.190209999680519 -40 0.159999996423721
vertex -0.190209999680519 -41 -0.00999999977648258
endloop
endfacet
facet normal -1 0 0
outer loop
vertex -0.190209999680519 -40 -0.00999999977648258
vertex -0.190209999680519 -41 -0.00999999977648258
vertex -0.190209999680519 -40 0.159999996423721
endloop
endfacet
facet normal -0.70710676908493 0 -0.70710676908493
outer loop
vertex -0.190209999680519 -41 -0.00999999977648258
vertex -0.190209999680519 -40 -0.00999999977648258
vertex -0.0700000002980232 -41 -0.130209997296333
endloop
endfacet
facet normal -0.70710676908493 -0 -0.70710676908493
outer loop
vertex -0.0700000002980232 -40 -0.130209997296333
vertex -0.0700000002980232 -41 -0.130209997296333
vertex -0.190209999680519 -40 -0.00999999977648258
endloop
endfacet
facet normal -0.70710676908493 0 0.70710676908493
outer loop
vertex -0.0700000002980232 -41 0.280209988355637
vertex -0.0700000002980232 -40 0.280209988355637
vertex -0.190209999680519 -41 0.159999996423721
endloop
endfacet
facet normal -0.70710676908493 0 0.70710676908493
outer loop
vertex -0.190209999680519 -40 0.159999996423721
vertex -0.190209999680519 -41 0.159999996423721
vertex -0.0700000002980232 -40 0.280209988355637
endloop
endfacet
facet normal 0 0 -1
outer loop
vertex -0.0700000002980232 -41 -0.130209997296333
vertex -0.0700000002980232 -40 -0.130209997296333
vertex 0.100000001490116 -41 -0.130209997296333
endloop
endfacet
facet normal -0 -0 -1
outer loop
vertex 0.100000001490116 -40 -0.130209997296333
vertex 0.100000001490116 -41 -0.130209997296333
vertex -0.0700000002980232 -40 -0.130209997296333
endloop
endfacet
facet normal -0 0 1
outer loop
vertex -0.0700000002980232 -40 0.280209988355637
vertex -0.0700000002980232 -41 0.280209988355637
vertex 0.100000001490116 -40 0.280209988355637
endloop
endfacet
facet normal 0 -0 1
outer loop
vertex 0.100000001490116 -41 0.280209988355637
vertex 0.100000001490116 -40 0.280209988355637
vertex -0.0700000002980232 -41 0.280209988355637
endloop
endfacet
facet normal 0.70710676908493 0 -0.70710676908493
outer loop
vertex 0.100000001490116 -41 -0.130209997296333
vertex 0.100000001490116 -40 -0.130209997296333
vertex 0.220210000872612 -41 -0.00999999977648258
endloop
endfacet
facet normal 0.70710676908493 0 -0.70710676908493
outer loop
vertex 0.220210000872612 -40 -0.00999999977648258
vertex 0.220210000872612 -41 -0.00999999977648258
vertex 0.100000001490116 -40 -0.130209997296333
endloop
endfacet
facet normal 0.70710676908493 0 0.70710676908493
outer loop
vertex 0.100000001490116 -40 0.280209988355637
vertex 0.100000001490116 -41 0.280209988355637
vertex 0.220210000872612 -40 0.159999996423721
endloop
endfacet
facet normal 0.70710676908493 -0 0.70710676908493
outer loop
vertex 0.220210000872612 -41 0.159999996423721
vertex 0.220210000872612 -40 0.159999996423721
vertex 0.100000001490116 -41 0.280209988355637
endloop
endfacet
facet normal 1 0 0
outer loop
vertex 0.220210000872612 -40 0.159999996423721
vertex 0.220210000872612 -41 0.159999996423721
vertex 0.220210000872612 -40 -0.00999999977648258
endloop
endfacet
facet normal 1 0 0
outer loop
vertex 0.220210000872612 -41 -0.00999999977648258
vertex 0.220210000872612 -40 -0.00999999977648258
vertex 0.220210000872612 -41 0.159999996423721
endloop
endfacet
facet normal 0 0.00325523247011006 0.99999463558197
outer loop
vertex 0.100000001490116 -39.9997863769531 0.280209302902222
vertex 0.0980829149484634 -38.9043159484863 0.2766432762146
vertex -0.0700000002980232 -39.9997863769531 0.280209302902222
endloop
endfacet
facet normal -1.39197212326595e-16 0.0032552327029407 0.999994695186615
outer loop
vertex -0.0680829137563705 -38.9043159484863 0.2766432762146
vertex -0.0700000002980232 -39.9997863769531 0.280209302902222
vertex 0.0980829149484634 -38.9043159484863 0.2766432762146
endloop
endfacet
facet normal -1.39197212326595e-16 0.0032552327029407 0.999994695186615
outer loop
vertex -0.0680829137563705 -38.9043159484863 0.2766432762146
vertex 0.0980829149484634 -38.9043159484863 0.2766432762146
vertex -0.0650002881884575 -37.1428260803223 0.270909190177917
endloop
endfacet
facet normal -5.78199049651219e-17 0.00325523293577135 0.999994695186615
outer loop
vertex 0.0950002893805504 -37.1428260803223 0.270909190177917
vertex -0.0650002881884575 -37.1428260803223 0.270909190177917
vertex 0.0980829149484634 -38.9043159484863 0.2766432762146
endloop
endfacet
facet normal -5.7819898347677e-17 0.0032552327029407 0.99999475479126
outer loop
vertex 0.0950002893805504 -37.1428260803223 0.270909190177917
vertex 0.0900435224175453 -34.3104019165039 0.261688947677612
vertex -0.0650002881884575 -37.1428260803223 0.270909190177917
endloop
endfacet
facet normal 2.77387355418463e-16 0.0032552327029407 0.999994695186615
outer loop
vertex -0.0600435249507427 -34.3104019165039 0.261688947677612
vertex -0.0650002881884575 -37.1428260803223 0.270909190177917
vertex 0.0900435224175453 -34.3104019165039 0.261688947677612
endloop
endfacet
facet normal 2.77387381888243e-16 0.0032552327029407 0.999994695186615
outer loop
vertex -0.0600435249507427 -34.3104019165039 0.261688947677612
vertex 0.0900435224175453 -34.3104019165039 0.261688947677612
vertex -0.0520728603005409 -29.7557621002197 0.246862441301346
endloop
endfacet
facet normal -2.93116598430298e-16 0.0032552327029407 0.99999463558197
outer loop
vertex 0.0820728614926338 -29.7557621002197 0.246862441301346
vertex -0.0520728603005409 -29.7557621002197 0.246862441301346
vertex 0.0900435224175453 -34.3104019165039 0.261688947677612
endloop
endfacet
facet normal -2.93116624900077e-16 0.0032552327029407 0.99999475479126
outer loop
vertex 0.0820728614926338 -29.7557621002197 0.246862441301346
vertex 0.071886420249939 -23.9349689483643 0.227914303541183
vertex -0.0520728603005409 -29.7557621002197 0.246862441301346
endloop
endfacet
facet normal -2.64290849625372e-16 0.00325523247011006 0.999994695186615
outer loop
vertex -0.0418864190578461 -23.9349689483643 0.227914303541183
vertex -0.0520728603005409 -29.7557621002197 0.246862441301346
vertex 0.071886420249939 -23.9349689483643 0.227914303541183
endloop
endfacet
facet normal -2.64290849625372e-16 0.00325523247011006 0.999994695186615
outer loop
vertex -0.0418864190578461 -23.9349689483643 0.227914303541183
vertex 0.071886420249939 -23.9349689483643 0.227914303541183
vertex -0.0316999778151512 -18.1141777038574 0.208966180682182
endloop
endfacet
facet normal 1.98098957036373e-16 0.0032552327029407 0.99999463558197
outer loop
vertex 0.0616999790072441 -18.1141777038574 0.208966180682182
vertex -0.0316999778151512 -18.1141777038574 0.208966180682182
vertex 0.071886420249939 -23.9349689483643 0.227914303541183
endloop
endfacet
facet normal 1.98098957036373e-16 0.0032552327029407 0.99999463558197
outer loop
vertex 0.0616999790072441 -18.1141777038574 0.208966180682182
vertex 0.051513534039259 -12.2933835983276 0.19001804292202
vertex -0.0316999778151512 -18.1141777038574 0.208966180682182
endloop
endfacet
facet normal -3.16826685132836e-17 0.00325523293577135 0.99999475479126
outer loop
vertex -0.0215135365724564 -12.2933835983276 0.19001804292202
vertex -0.0316999778151512 -18.1141777038574 0.208966180682182
vertex 0.051513534039259 -12.2933835983276 0.19001804292202
endloop
endfacet
facet normal -3.16826685132836e-17 0.0032552327029407 0.999994695186615
outer loop
vertex -0.0215135365724564 -12.2933835983276 0.19001804292202
vertex 0.051513534039259 -12.2933835983276 0.19001804292202
vertex -0.0124856242910028 -7.13460445404053 0.173224925994873
endloop
endfacet
facet normal 4.94369720873788e-16 0.00325523293577135 0.99999475479126
outer loop
vertex 0.0424856245517731 -7.13460445404053 0.173224925994873
vertex -0.0124856242910028 -7.13460445404053 0.173224925994873
vertex 0.051513534039259 -12.2933835983276 0.19001804292202
endloop
endfacet
facet normal 4.94369667934229e-16 0.0032552327029407 0.99999463558197
outer loop
vertex 0.0424856245517731 -7.13460445404053 0.173224925994873
vertex 0.0370649769902229 -4.03710889816284 0.163141801953316
vertex -0.0124856242910028 -7.13460445404053 0.173224925994873
endloop
endfacet
facet normal -1.17929189108929e-15 0.0032552327029407 0.99999475479126
outer loop
vertex -0.00706497812643647 -4.03710889816284 0.163141801953316
vertex -0.0124856242910028 -7.13460445404053 0.173224925994873
vertex 0.0370649769902229 -4.03710889816284 0.163141801953316
endloop
endfacet
facet normal -1.17929189108929e-15 0.00325523316860199 0.99999475479126
outer loop
vertex -0.00706497812643647 -4.03710889816284 0.163141801953316
vertex 0.0370649769902229 -4.03710889816284 0.163141801953316
vertex -0.00390542391687632 -2.23165893554688 0.157264605164528
endloop
endfacet
facet normal 7.79929832502512e-16 0.00325523247011006 0.99999463558197
outer loop
vertex 0.0339054241776466 -2.23165893554688 0.157264605164528
vertex -0.00390542391687632 -2.23165893554688 0.157264605164528
vertex 0.0370649769902229 -4.03710889816284 0.163141801953316
endloop
endfacet
facet normal 7.79929832502512e-16 0.00325523247011006 0.99999463558197
outer loop
vertex 0.0339054241776466 -2.23165893554688 0.157264605164528
vertex 0.0320638008415699 -1.17930901050568 0.153838947415352
vertex -0.00390542391687632 -2.23165893554688 0.157264605164528
endloop
endfacet
facet normal -1.78754275650169e-15 0.00325523293577135 0.999994695186615
outer loop
vertex -0.0020638017449528 -1.17930901050568 0.153838947415352
vertex -0.00390542391687632 -2.23165893554688 0.157264605164528
vertex 0.0320638008415699 -1.17930901050568 0.153838947415352
endloop
endfacet
facet normal -1.78754254474345e-15 0.0032552327029407 0.99999463558197
outer loop
vertex -0.0020638017449528 -1.17930901050568 0.153838947415352
vertex 0.0320638008415699 -1.17930901050568 0.153838947415352
vertex -0.000990367727354169 -0.565921425819397 0.151842221617699
endloop
endfacet
facet normal -8.22676991312036e-16 0.0032552327029407 0.999994695186615
outer loop
vertex 0.0309903677552938 -0.565921425819397 0.151842221617699
vertex -0.000990367727354169 -0.565921425819397 0.151842221617699
vertex 0.0320638008415699 -1.17930901050568 0.153838947415352
endloop
endfacet
facet normal -8.22676991312036e-16 0.0032552327029407 0.999994695186615
outer loop
vertex 0.0309903677552938 -0.565921425819397 0.151842221617699
vertex 0.030364690348506 -0.208393663167953 0.150678366422653
vertex -0.000990367727354169 -0.565921425819397 0.151842221617699
endloop
endfacet
facet normal -5.38635027422588e-16 0.0032552327029407 0.99999463558197
outer loop
vertex -0.000364690844435245 -0.208393663167953 0.150678366422653
vertex -0.000990367727354169 -0.565921425819397 0.151842221617699
vertex 0.030364690348506 -0.208393663167953 0.150678366422653
endloop
endfacet
facet normal -5.38635080362147e-16 0.0032552327029407 0.999994695186615
outer loop
vertex -0.000364690844435245 -0.208393663167953 0.150678366422653
vertex 0.030364690348506 -0.208393663167953 0.150678366422653
vertex 0 0 0.150000005960464
endloop
endfacet
facet normal 0 0.0032552327029407 0.999994695186615
outer loop
vertex 0.0299999993294477 0 0.150000005960464
vertex 0 0 0.150000005960464
vertex 0.030364690348506 -0.208393663167953 0.150678366422653
endloop
endfacet
facet normal -0.999988675117493 -0.00475519616156816 -0
outer loop
vertex 0.2202078551054 -39.9995460510254 0.159999996423721
vertex 0.215058371424675 -38.9166450500488 0.159729272127151
vertex 0.2202078551054 -39.9995460510254 -0.00999999977648258
endloop
endfacet
facet normal -0.999988734722137 -0.00475519616156816 1.63787928744147e-16
outer loop
vertex 0.215058371424675 -38.9166450500488 -0.00972927082329988
vertex 0.2202078551054 -39.9995460510254 -0.00999999977648258
vertex 0.215058371424675 -38.9166450500488 0.159729272127151
endloop
endfacet
facet normal -0.999988675117493 -0.00475519569590688 1.63787915509257e-16
outer loop
vertex 0.215058371424675 -38.9166450500488 -0.00972927082329988
vertex 0.215058371424675 -38.9166450500488 0.159729272127151
vertex 0.207076445221901 -37.238094329834 -0.00930962804704905
endloop
endfacet
facet normal -0.999988734722137 -0.00475519662722945 1.6460315825121e-16
outer loop
vertex 0.207076445221901 -37.238094329834 0.15930962562561
vertex 0.207076445221901 -37.238094329834 -0.00930962804704905
vertex 0.215058371424675 -38.9166450500488 0.159729272127151
endloop
endfacet
facet normal -0.999988734722137 -0.00475519616156816 1.6460314501632e-16
outer loop
vertex 0.207076445221901 -37.238094329834 -0.00930962804704905
vertex 0.207076445221901 -37.238094329834 0.15930962562561
vertex 0.194704100489616 -34.6362648010254 -0.00865916442126036
endloop
endfacet
facet normal -0.999988675117493 -0.00475519616156816 -3.60536695410261e-17
outer loop
vertex 0.194704100489616 -34.6362648010254 0.158659160137177
vertex 0.194704100489616 -34.6362648010254 -0.00865916442126036
vertex 0.207076445221901 -37.238094329834 0.15930962562561
endloop
endfacet
facet normal -0.999988675117493 -0.00475519616156816 -3.60536695410261e-17
outer loop
vertex 0.194704100489616 -34.6362648010254 0.158659160137177
vertex 0.175526410341263 -30.6033153533936 0.157650917768478
vertex 0.194704100489616 -34.6362648010254 -0.00865916442126036
endloop
endfacet
facet normal -0.999988734722137 -0.00475519662722945 -6.5706542710223e-17
outer loop
vertex 0.175526410341263 -30.6033153533936 -0.00765091506764293
vertex 0.194704100489616 -34.6362648010254 -0.00865916442126036
vertex 0.175526410341263 -30.6033153533936 0.157650917768478
endloop
endfacet
facet normal -0.999988675117493 -0.00475519616156816 -6.5706542710223e-17
outer loop
vertex 0.175526410341263 -30.6033153533936 -0.00765091506764293
vertex 0.175526410341263 -30.6033153533936 0.157650917768478
vertex 0.149268567562103 -25.081449508667 -0.00627043331041932
endloop
endfacet
facet normal -0.999988734722137 -0.00475519616156816 2.07872049651572e-16
outer loop
vertex 0.149268567562103 -25.081449508667 0.156270429491997
vertex 0.149268567562103 -25.081449508667 -0.00627043331041932
vertex 0.175526410341263 -30.6033153533936 0.157650917768478
endloop
endfacet
facet normal -0.999988734722137 -0.00475519616156816 2.07872049651572e-16
outer loop
vertex 0.149268567562103 -25.081449508667 -0.00627043331041932
vertex 0.149268567562103 -25.081449508667 0.156270429491997
vertex 0.122679896652699 -19.4900169372559 -0.00487255910411477
endloop
endfacet
facet normal -0.999988675117493 -0.00475519616156816 -1.05755028080015e-16
outer loop
vertex 0.122679896652699 -19.4900169372559 0.154872566461563
vertex 0.122679896652699 -19.4900169372559 -0.00487255910411477
vertex 0.149268567562103 -25.081449508667 0.156270429491997
endloop
endfacet
facet normal -0.999988675117493 -0.00475519616156816 -1.05755028080015e-16
outer loop
vertex 0.122679896652699 -19.4900169372559 0.154872566461563
vertex 0.0960912331938744 -13.8985824584961 0.153474688529968
vertex 0.122679896652699 -19.4900169372559 -0.00487255910411477
endloop
endfacet
facet normal -0.999988734722137 -0.00475519662722945 -8.84210745321619e-17
outer loop
vertex 0.0960912331938744 -13.8985824584961 -0.00347468489781022
vertex 0.122679896652699 -19.4900169372559 -0.00487255910411477
vertex 0.0960912331938744 -13.8985824584961 0.153474688529968
endloop
endfacet
facet normal -0.999988675117493 -0.00475519616156816 -8.8421067914717e-17
outer loop
vertex 0.0960912331938744 -13.8985824584961 -0.00347468489781022
vertex 0.0960912331938744 -13.8985824584961 0.153474688529968
vertex 0.070556253194809 -8.52873134613037 -0.00213220715522766
endloop
endfacet
facet normal -0.999988675117493 -0.00475519616156816 -1.56516054939017e-17
outer loop
vertex 0.070556253194809 -8.52873134613037 0.152132213115692
vertex 0.070556253194809 -8.52873134613037 -0.00213220715522766
vertex 0.0960912331938744 -13.8985824584961 0.153474688529968
endloop
endfacet
facet normal -0.999988675117493 -0.00475519662722945 -1.56516054939017e-17
outer loop
vertex 0.070556253194809 -8.52873134613037 -0.00213220715522766
vertex 0.070556253194809 -8.52873134613037 0.152132213115692
vertex 0.0530034713447094 -4.83748960494995 -0.00120938604231924
endloop
endfacet
facet normal -0.999988675117493 -0.00475519616156816 -7.52082274402767e-17
outer loop
vertex 0.0530034713447094 -4.83748960494995 0.151209384202957
vertex 0.0530034713447094 -4.83748960494995 -0.00120938604231924
vertex 0.070556253194809 -8.52873134613037 0.152132213115692
endloop
endfacet
facet normal -0.999988675117493 -0.00475519569590688 -7.52082208228318e-17
outer loop
vertex 0.0530034713447094 -4.83748960494995 0.151209384202957
vertex 0.0417757593095303 -2.47637033462524 0.150619104504585
vertex 0.0530034713447094 -4.83748960494995 -0.00120938604231924
endloop
endfacet
facet normal -0.999988675117493 -0.00475519569590688 -4.98712352915243e-17
outer loop
vertex 0.0417757593095303 -2.47637033462524 -0.000619099591858685
vertex 0.0530034713447094 -4.83748960494995 -0.00120938604231924
vertex 0.0417757593095303 -2.47637033462524 0.150619104504585
endloop
endfacet
facet normal -0.999988734722137 -0.00475519616156816 -4.98712419089692e-17
outer loop
vertex 0.0417757593095303 -2.47637033462524 -0.000619099591858685
vertex 0.0417757593095303 -2.47637033462524 0.150619104504585
vertex 0.0345939062535763 -0.966070115566254 -0.000241520261624828
endloop
endfacet
facet normal -0.999988675117493 -0.00475519569590688 6.26456104843073e-17
outer loop
vertex 0.0345939062535763 -0.966070115566254 0.150241523981094
vertex 0.0345939062535763 -0.966070115566254 -0.000241520261624828
vertex 0.0417757593095303 -2.47637033462524 0.150619104504585
endloop
endfacet
facet normal -0.999988734722137 -0.00475519662722945 6.26456171017522e-17
outer loop
vertex 0.0345939062535763 -0.966070115566254 0.150241523981094
vertex 0.0299999993294477 0 0.150000005960464
vertex 0.0345939062535763 -0.966070115566254 -0.000241520261624828
endloop
endfacet
facet normal -0.999988675117493 -0.00475519616156816 0
outer loop
vertex 0.0299999993294477 0 0
vertex 0.0345939062535763 -0.966070115566254 -0.000241520261624828
vertex 0.0299999993294477 0 0.150000005960464
endloop
endfacet
facet normal 0.707102358341217 0.00353922415524721 0.707102358341217
outer loop
vertex 0.220209911465645 -39.9999084472656 0.159999638795853
vertex 0.213952034711838 -38.6839179992676 0.159670650959015
vertex 0.0999995246529579 -39.9997253417969 0.280209124088287
endloop
endfacet
facet normal 0.707102358341217 0.00353922415524721 0.707102358341217
outer loop
vertex 0.0976965352892876 -38.6837348937988 0.27592521905899
vertex 0.0999995246529579 -39.9997253417969 0.280209124088287
vertex 0.213952034711838 -38.6839179992676 0.159670650959015
endloop
endfacet
facet normal 0.707102298736572 0.00353922415524721 0.707102298736572
outer loop
vertex 0.213952034711838 -38.6839179992676 0.159670650959015
vertex 0.19973511993885 -35.6941947937012 0.158923238515854
vertex 0.0976965352892876 -38.6837348937988 0.27592521905899
endloop
endfacet
facet normal 0.707102358341217 0.00353922392241657 0.707102358341217
outer loop
vertex 0.0924645513296127 -35.6940307617188 0.266193002462387
vertex 0.0976965352892876 -38.6837348937988 0.27592521905899
vertex 0.19973511993885 -35.6941947937012 0.158923238515854
endloop
endfacet
facet normal 0.707102358341217 0.00353922415524721 0.707102358341217
outer loop
vertex 0.0924645513296127 -35.6940307617188 0.266193002462387
vertex 0.19973511993885 -35.6941947937012 0.158923238515854
vertex 0.0825310125946999 -30.0177192687988 0.247715175151825
endloop
endfacet
facet normal 0.707102358341217 0.00353922392241657 0.707102358341217
outer loop
vertex 0.172742605209351 -30.01784324646 0.157504200935364
vertex 0.0825310125946999 -30.0177192687988 0.247715175151825
vertex 0.19973511993885 -35.6941947937012 0.158923238515854
endloop
endfacet
facet normal 0.707102358341217 0.00353922415524721 0.707102358341217
outer loop
vertex 0.172742605209351 -30.01784324646 0.157504200935364
vertex 0.144194081425667 -24.014274597168 0.156003355979919
vertex 0.0825310125946999 -30.0177192687988 0.247715175151825
endloop
endfacet
facet normal 0.707102358341217 0.00353922392241657 0.707102358341217
outer loop
vertex 0.0720248073339462 -24.0141754150391 0.228172138333321
vertex 0.0825310125946999 -30.0177192687988 0.247715175151825
vertex 0.144194081425667 -24.014274597168 0.156003355979919
endloop
endfacet
facet normal 0.707102358341217 0.00353922392241657 0.707102358341217
outer loop
vertex 0.0720248073339462 -24.0141754150391 0.228172138333321
vertex 0.144194081425667 -24.014274597168 0.156003355979919
vertex 0.0615186057984829 -18.0106315612793 0.208629116415977
endloop
endfacet
facet normal 0.707102358341217 0.00353922438807786 0.707102358341217
outer loop
vertex 0.115645565092564 -18.010705947876 0.154502525925636
vertex 0.0615186057984829 -18.0106315612793 0.208629116415977
vertex 0.144194081425667 -24.014274597168 0.156003355979919
endloop
endfacet
facet normal 0.707102358341217 0.00353922438807786 0.707102358341217
outer loop
vertex 0.115645565092564 -18.010705947876 0.154502525925636
vertex 0.0870970413088799 -12.007137298584 0.153001680970192
vertex 0.0615186057984829 -18.0106315612793 0.208629116415977
endloop
endfacet
facet normal 0.707102358341217 0.00353922392241657 0.707102358341217
outer loop
vertex 0.0510124042630196 -12.0070877075195 0.189086079597473
vertex 0.0615186057984829 -18.0106315612793 0.208629116415977
vertex 0.0870970413088799 -12.007137298584 0.153001680970192
endloop
endfacet
facet normal 0.707102358341217 0.00353922392241657 0.707102358341217
outer loop
vertex 0.0510124042630196 -12.0070877075195 0.189086079597473
vertex 0.0870970413088799 -12.007137298584 0.153001680970192
vertex 0.0405062027275562 -6.00354385375977 0.169543042778969
endloop
endfacet
facet normal 0.707102358341217 0.00353922392241657 0.707102358341217
outer loop
vertex 0.0585485212504864 -6.00356864929199 0.151500836014748
vertex 0.0405062027275562 -6.00354385375977 0.169543042778969
vertex 0.0870970413088799 -12.007137298584 0.153001680970192
endloop
endfacet
facet normal 0.707102358341217 0.00353922392241657 0.707102358341217
outer loop
vertex 0.0405062027275562 -6.00354385375977 0.169543042778969
vertex 0.0585485212504864 -6.00356864929199 0.151500836014748
vertex 0.0299999993294477 0 0.150000005960464
endloop
endfacet
facet normal 0.707102715969086 0.00336245005019009 -0.707102715969086
outer loop
vertex 0.24875608086586 -46.0030632019043 -0.00999999977648258
vertex 0.230714097619057 -46.0031471252441 -0.0280423685908318
vertex 0.2202078551054 -39.9995460510254 -0.00999999977648258
endloop
endfacet
facet normal 0.707102715969086 0.00336245005019009 -0.707102715969086
outer loop
vertex 0.277304291725159 -52.0065803527832 -0.00999999977648258
vertex 0.241220355033875 -52.0067481994629 -0.0460847355425358
vertex 0.24875608086586 -46.0030632019043 -0.00999999977648258
endloop
endfacet
facet normal 0.707102715969086 0.00336245005019009 -0.707102715969086
outer loop
vertex 0.230714097619057 -46.0031471252441 -0.0280423685908318
vertex 0.24875608086586 -46.0030632019043 -0.00999999977648258
vertex 0.241220355033875 -52.0067481994629 -0.0460847355425358
endloop
endfacet
facet normal 0.707102715969086 0.00336245005019009 -0.707102715969086
outer loop
vertex 0.277304291725159 -52.0065803527832 -0.00999999977648258
vertex 0.30585253238678 -58.0100975036621 -0.00999999977648258
vertex 0.241220355033875 -52.0067481994629 -0.0460847355425358
endloop
endfacet
facet normal 0.70710277557373 0.00336245051585138 -0.70710277557373
outer loop
vertex 0.251726597547531 -58.0103492736816 -0.0641271024942398
vertex 0.241220355033875 -52.0067481994629 -0.0460847355425358
vertex 0.30585253238678 -58.0100975036621 -0.00999999977648258
endloop
endfacet
facet normal 0.70710277557373 0.00336245051585138 -0.70710277557373
outer loop
vertex 0.251726597547531 -58.0103492736816 -0.0641271024942398
vertex 0.30585253238678 -58.0100975036621 -0.00999999977648258
vertex 0.26223286986351 -64.0139465332031 -0.0821694731712341
endloop
endfacet
facet normal 0.707102715969086 0.00336245005019009 -0.707102715969086
outer loop
vertex 0.334400743246078 -64.0136184692383 -0.00999999977648258
vertex 0.26223286986351 -64.0139465332031 -0.0821694731712341
vertex 0.30585253238678 -58.0100975036621 -0.00999999977648258
endloop
endfacet
facet normal 0.707102715969086 0.00336245005019009 -0.707102715969086
outer loop
vertex 0.334400743246078 -64.0136184692383 -0.00999999977648258
vertex 0.3629489839077 -70.0171356201172 -0.00999999977648258
vertex 0.26223286986351 -64.0139465332031 -0.0821694731712341
endloop
endfacet
facet normal 0.707102835178375 0.00336245074868202 -0.707102835178375
outer loop
vertex 0.272739112377167 -70.0175476074219 -0.100211836397648
vertex 0.26223286986351 -64.0139465332031 -0.0821694731712341
vertex 0.3629489839077 -70.0171356201172 -0.00999999977648258
endloop
endfacet
facet normal 0.70710277557373 0.00336245074868202 -0.70710277557373
outer loop
vertex 0.38994112610817 -75.6934204101563 -0.00999999977648258
vertex 0.282672733068466 -75.6939315795898 -0.117270827293396
vertex 0.3629489839077 -70.0171356201172 -0.00999999977648258
endloop
endfacet
facet normal 0.70710277557373 0.00336245028302073 -0.70710277557373
outer loop
vertex 0.272739112377167 -70.0175476074219 -0.100211836397648
vertex 0.3629489839077 -70.0171356201172 -0.00999999977648258
vertex 0.282672733068466 -75.6939315795898 -0.117270827293396
endloop
endfacet
facet normal 0.70710277557373 0.00336245051585138 -0.70710277557373
outer loop
vertex 0.38994112610817 -75.6934204101563 -0.00999999977648258
vertex 0.404157847166061 -78.68310546875 -0.00999999977648258
vertex 0.282672733068466 -75.6939315795898 -0.117270827293396
endloop
endfacet
facet normal 0.70710277557373 0.00336245051585138 -0.70710277557373
outer loop
vertex 0.287904739379883 -78.6836700439453 -0.126255765557289
vertex 0.282672733068466 -75.6939315795898 -0.117270827293396
vertex 0.404157847166061 -78.68310546875 -0.00999999977648258
endloop
endfacet
facet normal 0.70710277557373 0.00336245051585138 -0.70710277557373
outer loop
vertex 0.404157847166061 -78.68310546875 -0.00999999977648258
vertex 0.410415709018707 -79.9990921020508 -0.00999999977648258
vertex 0.287904739379883 -78.6836700439453 -0.126255765557289
endloop
endfacet
facet normal 0.70710277557373 0.00336245028302073 -0.70710277557373
outer loop
vertex 0.290207743644714 -79.9996643066406 -0.130210682749748
vertex 0.287904739379883 -78.6836700439453 -0.126255765557289
vertex 0.410415709018707 -79.9990921020508 -0.00999999977648258
endloop
endfacet
facet normal 0.225049316883087 0.670342028141022 -0.70710277557373
outer loop
vertex 70.7418975830078 -70.2458648681641 -0.200207740068436
vertex 70.7025527954102 -70.3594512939453 -0.320415705442429
vertex 69.4950561523438 -69.824836730957 -0.197904750704765
endloop
endfacet
facet normal 0.225049331784248 0.670342028141022 -0.70710277557373
outer loop
vertex 69.4570007324219 -69.9346923828125 -0.314157843589783
vertex 69.4950561523438 -69.824836730957 -0.197904750704765
vertex 70.7025527954102 -70.3594512939453 -0.320415705442429
endloop
endfacet
facet normal 0.22504934668541 0.670342028141022 -0.70710277557373
outer loop
vertex 69.4950561523438 -69.824836730957 -0.197904750704765
vertex 69.4570007324219 -69.9346923828125 -0.314157843589783
vertex 66.6624374389648 -68.8683471679688 -0.192672729492188
endloop
endfacet
facet normal 0.225049331784248 0.670342028141022 -0.70710277557373
outer loop
vertex 66.627326965332 -68.9697113037109 -0.299941122531891
vertex 66.6624374389648 -68.8683471679688 -0.192672729492188
vertex 69.4570007324219 -69.9346923828125 -0.314157843589783
endloop
endfacet
facet normal 0.22504934668541 0.670342087745667 -0.70710277557373
outer loop
vertex 66.627326965332 -68.9697113037109 -0.299941122531891
vertex 61.2548522949219 -67.1375732421875 -0.272948980331421
vertex 66.6624374389648 -68.8683471679688 -0.192672729492188
endloop
endfacet
facet normal 0.225049316883087 0.670342028141022 -0.70710277557373
outer loop
vertex 61.2843627929688 -67.0523223876953 -0.182739108800888
vertex 66.6624374389648 -68.8683471679688 -0.192672729492188
vertex 61.2548522949219 -67.1375732421875 -0.272948980331421
endloop
endfacet
facet normal 0.22504934668541 0.670342087745667 -0.707102835178375
outer loop
vertex 61.2843627929688 -67.0523223876953 -0.182739108800888
vertex 61.2548522949219 -67.1375732421875 -0.272948980331421
vertex 55.5962677001953 -65.1316146850586 -0.172232866287231
endloop
endfacet
facet normal 0.225049331784248 0.670342087745667 -0.70710277557373
outer loop
vertex 55.5726585388184 -65.1998138427734 -0.244400754570961
vertex 55.5962677001953 -65.1316146850586 -0.172232866287231
vertex 61.2548522949219 -67.1375732421875 -0.272948980331421
endloop
endfacet
facet normal 0.225049331784248 0.670342087745667 -0.70710277557373
outer loop
vertex 55.5726585388184 -65.1998138427734 -0.244400754570961
vertex 49.8904685974121 -63.2620582580566 -0.215852528810501
vertex 55.5962677001953 -65.1316146850586 -0.172232866287231
endloop
endfacet
facet normal 0.225049331784248 0.670342028141022 -0.70710277557373
outer loop
vertex 49.9081726074219 -63.2109069824219 -0.161726608872414
vertex 55.5962677001953 -65.1316146850586 -0.172232866287231
vertex 49.8904685974121 -63.2620582580566 -0.215852528810501
endloop
endfacet
facet normal 0.225049331784248 0.670342028141022 -0.70710277557373
outer loop
vertex 49.9081726074219 -63.2109069824219 -0.161726608872414
vertex 49.8904685974121 -63.2620582580566 -0.215852528810501
vertex 44.2200775146484 -61.2901992797852 -0.151220351457596
endloop
endfacet
facet normal 0.225049331784248 0.670342087745667 -0.70710277557373
outer loop
vertex 44.2082748413086 -61.3242988586426 -0.187304303050041
vertex 44.2200775146484 -61.2901992797852 -0.151220351457596
vertex 49.8904685974121 -63.2620582580566 -0.215852528810501
endloop
endfacet
facet normal 0.225049331784248 0.670342087745667 -0.70710277557373
outer loop
vertex 44.2082748413086 -61.3242988586426 -0.187304303050041
vertex 38.5260810852051 -59.3865432739258 -0.158756077289581
vertex 44.2200775146484 -61.2901992797852 -0.151220351457596
endloop
endfacet
facet normal 0.225049331784248 0.670342087745667 -0.70710277557373
outer loop
vertex 38.531982421875 -59.3694915771484 -0.140714108943939
vertex 44.2200775146484 -61.2901992797852 -0.151220351457596
vertex 38.5260810852051 -59.3865432739258 -0.158756077289581
endloop
endfacet
facet normal 0.225049331784248 0.670342087745667 -0.70710277557373
outer loop
vertex 38.5260810852051 -59.3865432739258 -0.158756077289581
vertex 32.8438873291016 -57.448787689209 -0.130207851529121
vertex 38.531982421875 -59.3694915771484 -0.140714108943939
endloop
endfacet
endsolid COMSOL mesh mesh1
