solid COMSOL mesh mesh1
facet normal -1 -2.77555756156289e-17 -0
outer loop
vertex -0.093639999628067 -6 0.119999997317791
vertex -0.093639999628067 -5.5 0.119999997317791
vertex -0.093639999628067 -6 0.0299999993294477
endloop
endfacet
facet normal -1 -2.77555756156289e-17 0
outer loop
vertex -0.093639999628067 -5.5 0.0299999993294477
vertex -0.093639999628067 -6 0.0299999993294477
vertex -0.093639999628067 -5.5 0.119999997317791
endloop
endfacet
facet normal -1 2.77555756156289e-17 0
outer loop
vertex -0.093639999628067 -5 0.0299999993294477
vertex -0.093639999628067 -5.5 0.0299999993294477
vertex -0.093639999628067 -5 0.119999997317791
endloop
endfacet
facet normal -1 2.77555756156289e-17 0
outer loop
vertex -0.093639999628067 -5.5 0.119999997317791
vertex -0.093639999628067 -5 0.119999997317791
vertex -0.093639999628067 -5.5 0.0299999993294477
endloop
endfacet
facet normal -0.70710676908493 -2.45326946606651e-17 -0.70710676908493
outer loop
vertex -0.093639999628067 -6 0.0299999993294477
vertex -0.093639999628067 -5.5 0.0299999993294477
vertex -0.0299999993294477 -6 -0.0336400009691715
endloop
endfacet
facet normal -0.70710676908493 4.90653884941496e-18 -0.70710676908493
outer loop
vertex -0.0299999993294477 -5.5 -0.0336400009691715
vertex -0.0299999993294477 -6 -0.0336400009691715
vertex -0.093639999628067 -5.5 0.0299999993294477
endloop
endfacet
facet normal -0.70710676908493 -4.90653884941496e-18 -0.70710676908493
outer loop
vertex -0.0299999993294477 -5.5 -0.0336400009691715
vertex -0.093639999628067 -5.5 0.0299999993294477
vertex -0.0299999993294477 -5 -0.0336400009691715
endloop
endfacet
facet normal -0.70710676908493 2.45326946606651e-17 -0.70710676908493
outer loop
vertex -0.093639999628067 -5 0.0299999993294477
vertex -0.0299999993294477 -5 -0.0336400009691715
vertex -0.093639999628067 -5.5 0.0299999993294477
endloop
endfacet
facet normal -0.70710676908493 -4.2798184436585e-33 0.70710676908493
outer loop
vertex -0.093639999628067 -6 0.119999997317791
vertex -0.0299999993294477 -6 0.183640003204346
vertex -0.093639999628067 -5.5 0.119999997317791
endloop
endfacet
facet normal -0.70710676908493 4.90653893213302e-17 0.70710676908493
outer loop
vertex -0.0299999993294477 -5.5 0.183640003204346
vertex -0.093639999628067 -5.5 0.119999997317791
vertex -0.0299999993294477 -6 0.183640003204346
endloop
endfacet
facet normal -0.70710676908493 -4.90653893213302e-17 0.70710676908493
outer loop
vertex -0.0299999993294477 -5.5 0.183640003204346
vertex -0.0299999993294477 -5 0.183640003204346
vertex -0.093639999628067 -5.5 0.119999997317791
endloop
endfacet
facet normal -0.70710676908493 4.2798184436585e-33 0.70710676908493
outer loop
vertex -0.093639999628067 -5 0.119999997317791
vertex -0.093639999628067 -5.5 0.119999997317791
vertex -0.0299999993294477 -5 0.183640003204346
endloop
endfacet
facet normal 0 0 -1
outer loop
vertex -0.0299999993294477 -6 -0.0336400009691715
vertex -0.0299999993294477 -5.5 -0.0336400009691715
vertex 0.0599999986588955 -6 -0.0336400009691715
endloop
endfacet
facet normal 0 0 -1
outer loop
vertex -0.0299999993294477 -5.5 -0.0336400009691715
vertex -0.0299999993294477 -5 -0.0336400009691715
vertex 0.0599999986588955 -5.5 -0.0336400009691715
endloop
endfacet
facet normal -0 -0 -1
outer loop
vertex 0.0599999986588955 -5.5 -0.0336400009691715
vertex 0.0599999986588955 -6 -0.0336400009691715
vertex -0.0299999993294477 -5.5 -0.0336400009691715
endloop
endfacet
facet normal -0 0 -1
outer loop
vertex 0.0599999986588955 -5 -0.0336400009691715
vertex 0.0599999986588955 -5.5 -0.0336400009691715
vertex -0.0299999993294477 -5 -0.0336400009691715
endloop
endfacet
facet normal 0 5.55111512312578e-17 1
outer loop
vertex 0.0599999986588955 -6 0.183640003204346
vertex 0.0599999986588955 -5.5 0.183640003204346
vertex -0.0299999993294477 -6 0.183640003204346
endloop
endfacet
facet normal -0 5.55111512312578e-17 1
outer loop
vertex -0.0299999993294477 -5.5 0.183640003204346
vertex -0.0299999993294477 -6 0.183640003204346
vertex 0.0599999986588955 -5.5 0.183640003204346
endloop
endfacet
facet normal 0 -5.55111512312578e-17 1
outer loop
vertex -0.0299999993294477 -5.5 0.183640003204346
vertex 0.0599999986588955 -5.5 0.183640003204346
vertex -0.0299999993294477 -5 0.183640003204346
endloop
endfacet
facet normal 0 -5.55111512312578e-17 1
outer loop
vertex 0.0599999986588955 -5 0.183640003204346
vertex -0.0299999993294477 -5 0.183640003204346
vertex 0.0599999986588955 -5.5 0.183640003204346
endloop
endfacet
facet normal 0.70710676908493 9.81307769882992e-18 -0.70710676908493
outer loop
vertex 0.0599999986588955 -6 -0.0336400009691715
vertex 0.0599999986588955 -5.5 -0.0336400009691715
vertex 0.12364000082016 -6 0.0299999993294477
endloop
endfacet
facet normal 0.70710676908493 -4.90653884941496e-18 -0.70710676908493
outer loop
vertex 0.12364000082016 -5.5 0.0299999993294477
vertex 0.12364000082016 -6 0.0299999993294477
vertex 0.0599999986588955 -5.5 -0.0336400009691715
endloop
endfacet
facet normal 0.70710676908493 -9.81307769882992e-18 -0.70710676908493
outer loop
vertex 0.0599999986588955 -5 -0.0336400009691715
vertex 0.12364000082016 -5 0.0299999993294477
vertex 0.0599999986588955 -5.5 -0.0336400009691715
endloop
endfacet
facet normal 0.70710676908493 4.90653884941496e-18 -0.70710676908493
outer loop
vertex 0.12364000082016 -5.5 0.0299999993294477
vertex 0.0599999986588955 -5.5 -0.0336400009691715
vertex 0.12364000082016 -5 0.0299999993294477
endloop
endfacet
facet normal 0.70710676908493 1.96261553976598e-17 0.70710676908493
outer loop
vertex 0.12364000082016 -6 0.119999997317791
vertex 0.12364000082016 -5.5 0.119999997317791
vertex 0.0599999986588955 -6 0.183640003204346
endloop
endfacet
facet normal 0.70710676908493 5.88784711560632e-17 0.70710676908493
outer loop
vertex 0.0599999986588955 -5.5 0.183640003204346
vertex 0.0599999986588955 -6 0.183640003204346
vertex 0.12364000082016 -5.5 0.119999997317791
endloop
endfacet
facet normal 0.70710676908493 -1.96261553976598e-17 0.70710676908493
outer loop
vertex 0.12364000082016 -5 0.119999997317791
vertex 0.0599999986588955 -5 0.183640003204346
vertex 0.12364000082016 -5.5 0.119999997317791
endloop
endfacet
facet normal 0.70710676908493 -5.88784711560632e-17 0.70710676908493
outer loop
vertex 0.0599999986588955 -5.5 0.183640003204346
vertex 0.12364000082016 -5.5 0.119999997317791
vertex 0.0599999986588955 -5 0.183640003204346
endloop
endfacet
facet normal 1 0 0
outer loop
vertex 0.12364000082016 -5.5 0.0299999993294477
vertex 0.12364000082016 -5 0.0299999993294477
vertex 0.12364000082016 -5.5 0.119999997317791
endloop
endfacet
facet normal 1 0 -0
outer loop
vertex 0.12364000082016 -5.5 0.0299999993294477
vertex 0.12364000082016 -5.5 0.119999997317791
vertex 0.12364000082016 -6 0.0299999993294477
endloop
endfacet
facet normal 1 0 0
outer loop
vertex 0.12364000082016 -6 0.119999997317791
vertex 0.12364000082016 -6 0.0299999993294477
vertex 0.12364000082016 -5.5 0.119999997317791
endloop
endfacet
facet normal 1 0 0
outer loop
vertex 0.12364000082016 -5 0.119999997317791
vertex 0.12364000082016 -5.5 0.119999997317791
vertex 0.12364000082016 -5 0.0299999993294477
endloop
endfacet
facet normal -0.707074403762817 -0.00899978447705507 0.707081913948059
outer loop
vertex -0.0638188645243645 -10.432165145874 0.0934057235717773
vertex -0.0599999986588955 -10.999773979187 0.0900000035762787
vertex -0.0565940998494625 -10.4321603775024 0.100630477070808
endloop
endfacet
facet normal -0.707074403762817 -0.00899978447705507 0.707081913948059
outer loop
vertex -0.0565940998494625 -10.4321603775024 0.100630477070808
vertex -0.0531882010400295 -9.86454772949219 0.111260958015919
vertex -0.0638188645243645 -10.432165145874 0.0934057235717773
endloop
endfacet
facet normal -0.707074403762817 -0.00899978447705507 0.707081913948059
outer loop
vertex -0.0676377341151237 -9.86455726623535 0.0968114510178566
vertex -0.0638188645243645 -10.432165145874 0.0934057235717773
vertex -0.0531882010400295 -9.86454772949219 0.111260958015919
endloop
endfacet
facet normal -0.707074403762817 -0.00899978447705507 0.707081913948059
outer loop
vertex -0.071456603705883 -9.29694938659668 0.100217178463936
vertex -0.0676377341151237 -9.86455726623535 0.0968114510178566
vertex -0.0497822985053062 -9.29693412780762 0.121891438961029
endloop
endfacet
facet normal -0.707074403762817 -0.00899978447705507 0.707081913948059
outer loop
vertex -0.0531882010400295 -9.86454772949219 0.111260958015919
vertex -0.0497822985053062 -9.29693412780762 0.121891438961029
vertex -0.0676377341151237 -9.86455726623535 0.0968114510178566
endloop
endfacet
facet normal -0.707074403762817 -0.00899978447705507 0.707081913948059
outer loop
vertex -0.071456603705883 -9.29694938659668 0.100217178463936
vertex -0.0497822985053062 -9.29693412780762 0.121891438961029
vertex -0.0752754732966423 -8.72934150695801 0.103622905910015
endloop
endfacet
facet normal -0.707074403762817 -0.00899978447705507 0.707081913948059
outer loop
vertex -0.0463763996958733 -8.72932147979736 0.132521912455559
vertex -0.0752754732966423 -8.72934150695801 0.103622905910015
vertex -0.0497822985053062 -9.29693412780762 0.121891438961029
endloop
endfacet
facet normal -0.707074403762817 -0.00899978447705507 0.707081913948059
outer loop
vertex -0.0752754732966423 -8.72934150695801 0.103622905910015
vertex -0.0463763996958733 -8.72932147979736 0.132521912455559
vertex -0.079094335436821 -8.16173267364502 0.107028633356094
endloop
endfacet
facet normal -0.707074344158173 -0.0089997835457325 0.707081854343414
outer loop
vertex -0.04297049716115 -8.16170883178711 0.14315240085125
vertex -0.079094335436821 -8.16173267364502 0.107028633356094
vertex -0.0463763996958733 -8.72932147979736 0.132521912455559
endloop
endfacet
facet normal -0.707074344158173 -0.0089997835457325 0.707081854343414
outer loop
vertex -0.079094335436821 -8.16173267364502 0.107028633356094
vertex -0.04297049716115 -8.16170883178711 0.14315240085125
vertex -0.0829132050275803 -7.59412479400635 0.110434353351593
endloop
endfacet
facet normal -0.707074403762817 -0.00899978447705507 0.707081913948059
outer loop
vertex -0.039564598351717 -7.59409523010254 0.153782874345779
vertex -0.0829132050275803 -7.59412479400635 0.110434353351593
vertex -0.04297049716115 -8.16170883178711 0.14315240085125
endloop
endfacet
facet normal -0.707074403762817 -0.00899978447705507 0.707081913948059
outer loop
vertex -0.0829132050275803 -7.59412479400635 0.110434353351593
vertex -0.039564598351717 -7.59409523010254 0.153782874345779
vertex -0.0867320746183395 -7.02651643753052 0.113840080797672
endloop
endfacet
facet normal -0.707074344158173 -0.0089997835457325 0.707081913948059
outer loop
vertex -0.036158699542284 -7.02648210525513 0.164413347840309
vertex -0.0867320746183395 -7.02651643753052 0.113840080797672
vertex -0.039564598351717 -7.59409523010254 0.153782874345779
endloop
endfacet
facet normal -0.707074403762817 -0.0089997835457325 0.707081913948059
outer loop
vertex -0.0867320746183395 -7.02651643753052 0.113840080797672
vertex -0.036158699542284 -7.02648210525513 0.164413347840309
vertex -0.0904553607106209 -6.47311544418335 0.117160566151142
endloop
endfacet
facet normal -0.707074403762817 -0.0089997835457325 0.707081913948059
outer loop
vertex -0.032838013023138 -6.47307062149048 0.174777865409851
vertex -0.0904553607106209 -6.47311544418335 0.117160566151142
vertex -0.036158699542284 -7.02648210525513 0.164413347840309
endloop
endfacet
facet normal -0.707074344158173 -0.0089997835457325 0.707081913948059
outer loop
vertex -0.0904553607106209 -6.47311544418335 0.117160566151142
vertex -0.032838013023138 -6.47307062149048 0.174777865409851
vertex -0.0936386361718178 -5.99997663497925 0.119999460875988
endloop
endfacet
facet normal -0.707074403762817 -0.00899978447705507 0.707081973552704
outer loop
vertex -0.0299989860504866 -5.9999303817749 0.183639019727707
vertex -0.0936386361718178 -5.99997663497925 0.119999460875988
vertex -0.032838013023138 -6.47307062149048 0.174777865409851
endloop
endfacet
facet normal -0.999977290630341 -0.00672784727066755 -3.08388284831938e-16
outer loop
vertex -0.0936392396688461 -5.99988698959351 0.119999997317791
vertex -0.0936392396688461 -5.99988698959351 0.0299999993294477
vertex -0.0904100984334946 -6.47984218597412 0.117120206356049
endloop
endfacet
facet normal -0.999977350234985 -0.00672784773632884 -3.06605015780171e-16
outer loop
vertex -0.0904100984334946 -6.47984218597412 0.0328797958791256
vertex -0.0904100984334946 -6.47984218597412 0.117120206356049
vertex -0.0936392396688461 -5.99988698959351 0.0299999993294477
endloop
endfacet
facet normal -0.99997740983963 -0.00672784773632884 -3.06605042249951e-16
outer loop
vertex -0.0904100984334946 -6.47984218597412 0.117120206356049
vertex -0.0904100984334946 -6.47984218597412 0.0328797958791256
vertex -0.0866322591900826 -7.04135179519653 0.113751068711281
endloop
endfacet
facet normal -0.99997740983963 -0.00672784773632884 1.79059244568872e-16
outer loop
vertex -0.0866322591900826 -7.04135179519653 0.0362489297986031
vertex -0.0866322591900826 -7.04135179519653 0.113751068711281
vertex -0.0904100984334946 -6.47984218597412 0.0328797958791256
endloop
endfacet
facet normal -0.99997740983963 -0.00672784773632884 1.79059231333982e-16
outer loop
vertex -0.0866322591900826 -7.04135179519653 0.0362489297986031
vertex -0.082739382982254 -7.61995983123779 0.0397206582129002
vertex -0.0866322591900826 -7.04135179519653 0.113751068711281
endloop
endfacet
facet normal -0.999977350234985 -0.00672784820199013 -8.46887892862083e-17
outer loop
vertex -0.082739382982254 -7.61995983123779 0.110279344022274
vertex -0.0866322591900826 -7.04135179519653 0.113751068711281
vertex -0.082739382982254 -7.61995983123779 0.0397206582129002
endloop
endfacet
facet normal -0.999977350234985 -0.00672784820199013 -8.46887892862083e-17
outer loop
vertex -0.082739382982254 -7.61995983123779 0.0397206582129002
vertex -0.0788465067744255 -8.19856834411621 0.0431923866271973
vertex -0.082739382982254 -7.61995983123779 0.110279344022274
endloop
endfacet
facet normal -0.999977350234985 -0.00672784773632884 -0
outer loop
vertex -0.0788465067744255 -8.19856834411621 0.106807611882687
vertex -0.082739382982254 -7.61995983123779 0.110279344022274
vertex -0.0788465067744255 -8.19856834411621 0.0431923866271973
endloop
endfacet
facet normal -0.999977350234985 -0.00672784773632884 -0
outer loop
vertex -0.0788465067744255 -8.19856834411621 0.106807611882687
vertex -0.0788465067744255 -8.19856834411621 0.0431923866271973
vertex -0.074953630566597 -8.77717685699463 0.10333588719368
endloop
endfacet
facet normal -0.99997740983963 -0.00672784773632884 -2.44874525133699e-16
outer loop
vertex -0.074953630566597 -8.77717685699463 0.0466641150414944
vertex -0.074953630566597 -8.77717685699463 0.10333588719368
vertex -0.0788465067744255 -8.19856834411621 0.0431923866271973
endloop
endfacet
facet normal -0.99997740983963 -0.00672784773632884 -2.44874525133699e-16
outer loop
vertex -0.074953630566597 -8.77717685699463 0.0466641150414944
vertex -0.0710607543587685 -9.35578441619873 0.0501358434557915
vertex -0.074953630566597 -8.77717685699463 0.10333588719368
endloop
endfacet
facet normal -0.99997740983963 -0.00672784773632884 -0
outer loop
vertex -0.0710607543587685 -9.35578441619873 0.0998641550540924
vertex -0.074953630566597 -8.77717685699463 0.10333588719368
vertex -0.0710607543587685 -9.35578441619873 0.0501358434557915
endloop
endfacet
facet normal -0.99997740983963 -0.00672784773632884 0
outer loop
vertex -0.0710607543587685 -9.35578441619873 0.0501358434557915
vertex -0.0671678781509399 -9.93439292907715 0.0536075718700886
vertex -0.0710607543587685 -9.35578441619873 0.0998641550540924
endloop
endfacet
facet normal -0.999977350234985 -0.00672784773632884 -2.79329151980264e-16
outer loop
vertex -0.0671678781509399 -9.93439292907715 0.0963924303650856
vertex -0.0710607543587685 -9.35578441619873 0.0998641550540924
vertex -0.0671678781509399 -9.93439292907715 0.0536075718700886
endloop
endfacet
facet normal -0.999977350234985 -0.00672784773632884 -2.79329151980264e-16
outer loop
vertex -0.0671678781509399 -9.93439292907715 0.0963924303650856
vertex -0.0671678781509399 -9.93439292907715 0.0536075718700886
vertex -0.0635698139667511 -10.4691829681396 0.0931836143136024
endloop
endfacet
facet normal -0.99997740983963 -0.00672784820199013 3.81592816130815e-16
outer loop
vertex -0.0635698139667511 -10.4691829681396 0.0568163841962814
vertex -0.0635698139667511 -10.4691829681396 0.0931836143136024
vertex -0.0671678781509399 -9.93439292907715 0.0536075718700886
endloop
endfacet
facet normal -0.999977350234985 -0.00672784727066755 3.81592816130815e-16
outer loop
vertex -0.0635698139667511 -10.4691829681396 0.0568163841962814
vertex -0.0613238401710987 -10.8030080795288 0.0588193796575069
vertex -0.0635698139667511 -10.4691829681396 0.0931836143136024
endloop
endfacet
facet normal -0.999977350234985 -0.00672784773632884 4.28830070123954e-16
outer loop
vertex -0.0613238401710987 -10.8030080795288 0.0911806225776672
vertex -0.0635698139667511 -10.4691829681396 0.0931836143136024
vertex -0.0613238401710987 -10.8030080795288 0.0588193796575069
endloop
endfacet
facet normal -0.99997740983963 -0.00672784820199013 4.28830070123954e-16
outer loop
vertex -0.0613238401710987 -10.8030080795288 0.0911806225776672
vertex -0.0613238401710987 -10.8030080795288 0.0588193796575069
vertex -0.0599999986588955 -10.999773979187 0.0900000035762787
endloop
endfacet
facet normal -0.999977350234985 -0.00672784773632884 0
outer loop
vertex -0.0599999986588955 -10.999773979187 0.0599999986588955
vertex -0.0599999986588955 -10.999773979187 0.0900000035762787
vertex -0.0613238401710987 -10.8030080795288 0.0588193796575069
endloop
endfacet
facet normal -0.707078158855438 -0.00899969134479761 -0.707078158855438
outer loop
vertex -0.0936460867524147 -5.99916696548462 0.0299983639270067
vertex -0.0300057996064425 -6.00074005126953 -0.0336218997836113
vertex -0.0904621109366417 -6.47238111495972 0.0328374579548836
endloop
endfacet
facet normal -0.707078158855438 -0.00899969134479761 -0.707078158855438
outer loop
vertex -0.0328442081809044 -6.47380828857422 -0.0247622821480036
vertex -0.0904621109366417 -6.47238111495972 0.0328374579548836
vertex -0.0300057996064425 -6.00074005126953 -0.0336218997836113
endloop
endfacet
facet normal -0.707078158855438 -0.00899969041347504 -0.707078158855438
outer loop
vertex -0.0904621109366417 -6.47238111495972 0.0328374579548836
vertex -0.0328442081809044 -6.47380828857422 -0.0247622821480036
vertex -0.0867379680275917 -7.02587747573853 0.0361582152545452
endloop
endfacet
facet normal -0.707078158855438 -0.00899969041347504 -0.707078158855438
outer loop
vertex -0.0361641086637974 -7.02712535858154 -0.014399760402739
vertex -0.0867379680275917 -7.02587747573853 0.0361582152545452
vertex -0.0328442081809044 -6.47380828857422 -0.0247622821480036
endloop
endfacet
facet normal -0.707078158855438 -0.00899969041347504 -0.707078158855438
outer loop
vertex -0.0867379680275917 -7.02587747573853 0.0361582152545452
vertex -0.0361641086637974 -7.02712535858154 -0.014399760402739
vertex -0.082918256521225 -7.59357690811157 0.0395641848444939
endloop
endfacet
facet normal -0.707078099250793 -0.00899969041347504 -0.707078099250793
outer loop
vertex -0.0395692363381386 -7.59464645385742 -0.00377122336067259
vertex -0.082918256521225 -7.59357690811157 0.0395641848444939
vertex -0.0361641086637974 -7.02712535858154 -0.014399760402739
endloop
endfacet
facet normal -0.707078099250793 -0.00899969041347504 -0.707078099250793
outer loop
vertex -0.082918256521225 -7.59357690811157 0.0395641848444939
vertex -0.0395692363381386 -7.59464645385742 -0.00377122336067259
vertex -0.0790985450148582 -8.16127681732178 0.0429701544344425
endloop
endfacet
facet normal -0.707078158855438 -0.00899969041347504 -0.707078158855438
outer loop
vertex -0.0429743640124798 -8.1621675491333 0.00685731368139386
vertex -0.0790985450148582 -8.16127681732178 0.0429701544344425
vertex -0.0395692363381386 -7.59464645385742 -0.00377122336067259
endloop
endfacet
facet normal -0.707078158855438 -0.00899969041347504 -0.707078158855438
outer loop
vertex -0.0790985450148582 -8.16127681732178 0.0429701544344425
vertex -0.0429743640124798 -8.1621675491333 0.00685731368139386
vertex -0.0752788409590721 -8.72897624969482 0.0463761240243912
endloop
endfacet
facet normal -0.707078158855438 -0.00899969041347504 -0.707078158855438
outer loop
vertex -0.046379491686821 -8.72968864440918 0.0174858514219522
vertex -0.0752788409590721 -8.72897624969482 0.0463761240243912
vertex -0.0429743640124798 -8.1621675491333 0.00685731368139386
endloop
endfacet
facet normal -0.707078158855438 -0.00899969041347504 -0.707078158855438
outer loop
vertex -0.0752788409590721 -8.72897624969482 0.0463761240243912
vertex -0.046379491686821 -8.72968864440918 0.0174858514219522
vertex -0.0714591294527054 -9.29667568206787 0.0497820936143398
endloop
endfacet
facet normal -0.707078099250793 -0.00899969041347504 -0.707078099250793
outer loop
vertex -0.0497846193611622 -9.29720973968506 0.0281143877655268
vertex -0.0714591294527054 -9.29667568206787 0.0497820936143398
vertex -0.046379491686821 -8.72968864440918 0.0174858514219522
endloop
endfacet
facet normal -0.707078099250793 -0.00899969041347504 -0.707078099250793
outer loop
vertex -0.0497846193611622 -9.29720973968506 0.0281143877655268
vertex -0.0531897470355034 -9.86473083496094 0.0387429259717464
vertex -0.0714591294527054 -9.29667568206787 0.0497820936143398
endloop
endfacet
facet normal -0.707078158855438 -0.00899969041347504 -0.707078158855438
outer loop
vertex -0.0676394179463387 -9.86437511444092 0.0531880632042885
vertex -0.0714591294527054 -9.29667568206787 0.0497820936143398
vertex -0.0531897470355034 -9.86473083496094 0.0387429259717464
endloop
endfacet
facet normal -0.707078158855438 -0.00899969041347504 -0.707078158855438
outer loop
vertex -0.0531897470355034 -9.86473083496094 0.0387429259717464
vertex -0.0565948709845543 -10.4322528839111 0.049371462315321
vertex -0.0676394179463387 -9.86437511444092 0.0531880632042885
endloop
endfacet
facet normal -0.707078158855438 -0.00899969041347504 -0.707078158855438
outer loop
vertex -0.0638197064399719 -10.432074546814 0.0565940290689468
vertex -0.0676394179463387 -9.86437511444092 0.0531880632042885
vertex -0.0565948709845543 -10.4322528839111 0.049371462315321
endloop
endfacet
facet normal -0.707078158855438 -0.00899969041347504 -0.707078158855438
outer loop
vertex -0.0565948709845543 -10.4322528839111 0.049371462315321
vertex -0.0599999986588955 -10.999773979187 0.0599999986588955
vertex -0.0638197064399719 -10.432074546814 0.0565940290689468
endloop
endfacet
facet normal -0.707081913948059 0.00899978447705507 -0.707074403762817
outer loop
vertex -0.00340572604909539 -0.567608177661896 -0.00381886772811413
vertex -0.0106304790824652 -0.567613065242767 0.00340590020641685
vertex 0 0 0
endloop
endfacet
facet normal -0.707081913948059 0.00899978447705507 -0.707074403762817
outer loop
vertex -0.00681145209819078 -1.13521635532379 -0.00763773545622826
vertex -0.0212609581649303 -1.13522613048553 0.00681180041283369
vertex -0.00340572604909539 -0.567608177661896 -0.00381886772811413
endloop
endfacet
facet normal -0.707081913948059 0.00899978447705507 -0.707074403762817
outer loop
vertex -0.0106304790824652 -0.567613065242767 0.00340590020641685
vertex -0.00340572604909539 -0.567608177661896 -0.00381886772811413
vertex -0.0212609581649303 -1.13522613048553 0.00681180041283369
endloop
endfacet
facet normal -0.707081913948059 0.00899978447705507 -0.707074403762817
outer loop
vertex -0.00681145209819078 -1.13521635532379 -0.00763773545622826
vertex -0.0102171776816249 -1.70282447338104 -0.0114566031843424
vertex -0.0212609581649303 -1.13522613048553 0.00681180041283369
endloop
endfacet
facet normal -0.707081913948059 0.00899978447705507 -0.707074403762817
outer loop
vertex -0.0318914391100407 -1.70283913612366 0.0102177001535892
vertex -0.0212609581649303 -1.13522613048553 0.00681180041283369
vertex -0.0102171776816249 -1.70282447338104 -0.0114566031843424
endloop
endfacet
facet normal -0.707081913948059 0.00899978447705507 -0.707074403762817
outer loop
vertex -0.0102171776816249 -1.70282447338104 -0.0114566031843424
vertex -0.0136229041963816 -2.27043271064758 -0.0152754709124565
vertex -0.0318914391100407 -1.70283913612366 0.0102177001535892
endloop
endfacet
facet normal -0.707081913948059 0.00899978447705507 -0.707074403762817
outer loop
vertex -0.0425219163298607 -2.27045226097107 0.0136236008256674
vertex -0.0318914391100407 -1.70283913612366 0.0102177001535892
vertex -0.0136229041963816 -2.27043271064758 -0.0152754709124565
endloop
endfacet
facet normal -0.707081913948059 0.00899978447705507 -0.707074403762817
outer loop
vertex -0.0136229041963816 -2.27043271064758 -0.0152754709124565
vertex -0.0170286297798157 -2.83804082870483 -0.0190943386405706
vertex -0.0425219163298607 -2.27045226097107 0.0136236008256674
endloop
endfacet
facet normal -0.707081854343414 0.0089997835457325 -0.707074344158173
outer loop
vertex -0.053152397274971 -2.83806538581848 0.0170295014977455
vertex -0.0425219163298607 -2.27045226097107 0.0136236008256674
vertex -0.0170286297798157 -2.83804082870483 -0.0190943386405706
endloop
endfacet
facet normal -0.707081854343414 0.0089997835457325 -0.707074344158173
outer loop
vertex -0.0170286297798157 -2.83804082870483 -0.0190943386405706
vertex -0.0204343553632498 -3.40564894676208 -0.0229132063686848
vertex -0.053152397274971 -2.83806538581848 0.0170295014977455
endloop
endfacet
facet normal -0.707081913948059 0.00899978447705507 -0.707074403762817
outer loop
vertex -0.0637828782200813 -3.40567827224731 0.0204354003071785
vertex -0.053152397274971 -2.83806538581848 0.0170295014977455
vertex -0.0204343553632498 -3.40564894676208 -0.0229132063686848
endloop
endfacet
facet normal -0.707081913948059 0.00899978447705507 -0.707074403762817
outer loop
vertex -0.0204343553632498 -3.40564894676208 -0.0229132063686848
vertex -0.023840082809329 -3.97325706481934 -0.0267320740967989
vertex -0.0637828782200813 -3.40567827224731 0.0204354003071785
endloop
endfacet
facet normal -0.707081913948059 0.0089997835457325 -0.707074344158173
outer loop
vertex -0.0744133517146111 -3.97329139709473 0.0238413009792566
vertex -0.0637828782200813 -3.40567827224731 0.0204354003071785
vertex -0.023840082809329 -3.97325706481934 -0.0267320740967989
endloop
endfacet
facet normal -0.707081913948059 0.0089997835457325 -0.707074403762817
outer loop
vertex -0.023840082809329 -3.97325706481934 -0.0267320740967989
vertex -0.0271605663001537 -4.52665853500366 -0.0304553583264351
vertex -0.0744133517146111 -3.97329139709473 0.0238413009792566
endloop
endfacet
facet normal -0.707081913948059 0.0089997835457325 -0.707074403762817
outer loop
vertex -0.0847778618335724 -4.52670288085938 0.0271619874984026
vertex -0.0744133517146111 -3.97329139709473 0.0238413009792566
vertex -0.0271605663001537 -4.52665853500366 -0.0304553583264351
endloop
endfacet
facet normal -0.707081913948059 0.0089997835457325 -0.707074344158173
outer loop
vertex -0.0271605663001537 -4.52665853500366 -0.0304553583264351
vertex -0.0299994591623545 -4.99979686737061 -0.033638633787632
vertex -0.0847778618335724 -4.52670288085938 0.0271619874984026
endloop
endfacet
facet normal -0.707081973552704 0.00899978447705507 -0.707074403762817
outer loop
vertex -0.0936390161514282 -4.99984312057495 0.0300010126084089
vertex -0.0847778618335724 -4.52670288085938 0.0271619874984026
vertex -0.0299994591623545 -4.99979686737061 -0.033638633787632
endloop
endfacet
facet normal 0.70710027217865 -0.00899977050721645 -0.707055985927582
outer loop
vertex -0.00340572441928089 -0.567607879638672 0.153818860650063
vertex -0.0106303300708532 -0.567612767219543 0.146593868732452
vertex 0 0 0.150000005960464
endloop
endfacet
facet normal 0.70710027217865 -0.00899977050721645 -0.707055985927582
outer loop
vertex -0.00681144883856177 -1.13521575927734 0.157637730240822
vertex -0.0212606601417065 -1.13522553443909 0.143187746405602
vertex -0.00340572441928089 -0.567607879638672 0.153818860650063
endloop
endfacet
facet normal 0.70710027217865 -0.00899977050721645 -0.707055985927582
outer loop
vertex -0.0106303300708532 -0.567612767219543 0.146593868732452
vertex -0.00340572441928089 -0.567607879638672 0.153818860650063
vertex -0.0212606601417065 -1.13522553443909 0.143187746405602
endloop
endfacet
facet normal 0.70710027217865 -0.00899977050721645 -0.707055985927582
outer loop
vertex -0.00681144883856177 -1.13521575927734 0.157637730240822
vertex -0.010217173025012 -1.70282363891602 0.161456599831581
vertex -0.0212606601417065 -1.13522553443909 0.143187746405602
endloop
endfacet
facet normal 0.70710027217865 -0.00899977143853903 -0.707056045532227
outer loop
vertex -0.0318909920752048 -1.70283830165863 0.139781609177589
vertex -0.0212606601417065 -1.13522553443909 0.143187746405602
vertex -0.010217173025012 -1.70282363891602 0.161456599831581
endloop
endfacet
facet normal 0.70710027217865 -0.00899977143853903 -0.707056045532227
outer loop
vertex -0.010217173025012 -1.70282363891602 0.161456599831581
vertex -0.0136228976771235 -2.27043151855469 0.16527546942234
vertex -0.0318909920752048 -1.70283830165863 0.139781609177589
endloop
endfacet
facet normal 0.70710027217865 -0.00899977050721645 -0.707055985927582
outer loop
vertex -0.0425213202834129 -2.27045106887817 0.136375471949577
vertex -0.0318909920752048 -1.70283830165863 0.139781609177589
vertex -0.0136228976771235 -2.27043151855469 0.16527546942234
endloop
endfacet
facet normal 0.70710027217865 -0.00899977050721645 -0.707055985927582
outer loop
vertex -0.0136228976771235 -2.27043151855469 0.16527546942234
vertex -0.0170286223292351 -2.83803939819336 0.169094324111938
vertex -0.0425213202834129 -2.27045106887817 0.136375471949577
endloop
endfacet
facet normal 0.707100331783295 -0.00899977050721645 -0.707055985927582
outer loop
vertex -0.0531516522169113 -2.83806395530701 0.132969349622726
vertex -0.0425213202834129 -2.27045106887817 0.136375471949577
vertex -0.0170286223292351 -2.83803939819336 0.169094324111938
endloop
endfacet
facet normal 0.707100331783295 -0.00899977050721645 -0.707055985927582
outer loop
vertex -0.0170286223292351 -2.83803939819336 0.169094324111938
vertex -0.020434346050024 -3.40564727783203 0.172913193702698
vertex -0.0531516522169113 -2.83806395530701 0.132969349622726
endloop
endfacet
facet normal 0.70710027217865 -0.00899977143853903 -0.707056045532227
outer loop
vertex -0.0637819841504097 -3.40567660331726 0.129563212394714
vertex -0.0531516522169113 -2.83806395530701 0.132969349622726
vertex -0.020434346050024 -3.40564727783203 0.172913193702698
endloop
endfacet
facet normal 0.70710027217865 -0.00899977143853903 -0.707056045532227
outer loop
vertex -0.020434346050024 -3.40564727783203 0.172913193702698
vertex -0.023840069770813 -3.9732551574707 0.176732063293457
vertex -0.0637819841504097 -3.40567660331726 0.129563212394714
endloop
endfacet
facet normal 0.70710027217865 -0.00899977050721645 -0.707055985927582
outer loop
vertex -0.0744123160839081 -3.97328948974609 0.126157090067863
vertex -0.0637819841504097 -3.40567660331726 0.129563212394714
vertex -0.023840069770813 -3.9732551574707 0.176732063293457
endloop
endfacet
facet normal 0.70710027217865 -0.00899977050721645 -0.707055985927582
outer loop
vertex -0.023840069770813 -3.9732551574707 0.176732063293457
vertex -0.0271605551242828 -4.52665662765503 0.180455341935158
vertex -0.0744123160839081 -3.97328948974609 0.126157090067863
endloop
endfacet
facet normal 0.70710027217865 -0.00899977050721645 -0.707055985927582
outer loop
vertex -0.0847766920924187 -4.5267014503479 0.122836172580719
vertex -0.0744123160839081 -3.97328948974609 0.126157090067863
vertex -0.0271605551242828 -4.52665662765503 0.180455341935158
endloop
endfacet
facet normal 0.70710027217865 -0.00899977050721645 -0.707055985927582
outer loop
vertex -0.0271605551242828 -4.52665662765503 0.180455341935158
vertex -0.0299994591623545 -4.99979686737061 0.183638632297516
vertex -0.0847766920924187 -4.5267014503479 0.122836172580719
endloop
endfacet
facet normal 0.70710027217865 -0.00899977143853903 -0.707056045532227
outer loop
vertex -0.0936377570033073 -4.99984312057495 0.119996942579746
vertex -0.0847766920924187 -4.5267014503479 0.122836172580719
vertex -0.0299994591623545 -4.99979686737061 0.183638632297516
endloop
endfacet
facet normal -0.999824643135071 0.0187251064926386 0
outer loop
vertex -0.0936255380511284 -4.99912357330322 0.119999997317791
vertex -0.084953173995018 -4.53606367111206 0.122778847813606
vertex -0.0936255380511284 -4.99912357330322 0.0299999993294477
endloop
endfacet
facet normal -0.999824643135071 0.0187251064926386 -1.7404390954862e-16
outer loop
vertex -0.084953173995018 -4.53606367111206 0.0272211544215679
vertex -0.0936255380511284 -4.99912357330322 0.0299999993294477
vertex -0.084953173995018 -4.53606367111206 0.122778847813606
endloop
endfacet
facet normal -0.999824702739716 0.0187251064926386 8.14486169477197e-17
outer loop
vertex -0.0747498571872711 -3.9912588596344 0.126048251986504
vertex -0.0747498571872711 -3.9912588596344 0.0239517521113157
vertex -0.084953173995018 -4.53606367111206 0.122778847813606
endloop
endfacet
facet normal -0.999824643135071 0.0187251064926386 -1.7404392278351e-16
outer loop
vertex -0.084953173995018 -4.53606367111206 0.0272211544215679
vertex -0.084953173995018 -4.53606367111206 0.122778847813606
vertex -0.0747498571872711 -3.9912588596344 0.0239517521113157
endloop
endfacet
facet normal -0.999824702739716 0.0187251064926386 8.14486103302748e-17
outer loop
vertex -0.0747498571872711 -3.9912588596344 0.126048251986504
vertex -0.0638172551989555 -3.4075140953064 0.129551336169243
vertex -0.0747498571872711 -3.9912588596344 0.0239517521113157
endloop
endfacet
facet normal -0.999824643135071 0.0187251064926386 0
outer loop
vertex -0.0638172551989555 -3.4075140953064 0.0204486697912216
vertex -0.0747498571872711 -3.9912588596344 0.0239517521113157
vertex -0.0638172551989555 -3.4075140953064 0.129551336169243
endloop
endfacet
facet normal -0.999824702739716 0.0187251083552837 -4.81579788068044e-17
outer loop
vertex -0.0523615628480911 -2.79583883285522 0.133222028613091
vertex -0.0523615628480911 -2.79583883285522 0.0167779736220837
vertex -0.0638172551989555 -3.4075140953064 0.129551336169243
endloop
endfacet
facet normal -0.999824643135071 0.0187251083552837 0
outer loop
vertex -0.0638172551989555 -3.4075140953064 0.0204486697912216
vertex -0.0638172551989555 -3.4075140953064 0.129551336169243
vertex -0.0523615628480911 -2.79583883285522 0.0167779736220837
endloop
endfacet
facet normal -0.999824643135071 0.0187251064926386 -4.8157975498082e-17
outer loop
vertex -0.0523615628480911 -2.79583883285522 0.133222028613091
vertex -0.0401662103831768 -2.14466953277588 0.137129724025726
vertex -0.0523615628480911 -2.79583883285522 0.0167779736220837
endloop
endfacet
facet normal -0.999824702739716 0.0187251083552837 4.43568986036661e-17
outer loop
vertex -0.0401662103831768 -2.14466953277588 0.0128702744841576
vertex -0.0523615628480911 -2.79583883285522 0.0167779736220837
vertex -0.0401662103831768 -2.14466953277588 0.137129724025726
endloop
endfacet
facet normal -0.999824702739716 0.0187251064926386 6.23663873967339e-17
outer loop
vertex -0.0272049158811569 -1.45260298252106 0.141282856464386
vertex -0.0272049158811569 -1.45260298252106 0.00871714577078819
vertex -0.0401662103831768 -2.14466953277588 0.137129724025726
endloop
endfacet
facet normal -0.999824702739716 0.0187251064926386 4.43568952949436e-17
outer loop
vertex -0.0401662103831768 -2.14466953277588 0.0128702744841576
vertex -0.0401662103831768 -2.14466953277588 0.137129724025726
vertex -0.0272049158811569 -1.45260298252106 0.00871714577078819
endloop
endfacet
facet normal -0.999824643135071 0.0187251064926386 6.23663873967339e-17
outer loop
vertex -0.0272049158811569 -1.45260298252106 0.141282856464386
vertex -0.0134807052090764 -0.719800531864166 0.145680442452431
vertex -0.0272049158811569 -1.45260298252106 0.00871714577078819
endloop
endfacet
facet normal -0.999824702739716 0.0187251083552837 9.83252306066982e-18
outer loop
vertex -0.0134807052090764 -0.719800531864166 0.00431956024840474
vertex -0.0272049158811569 -1.45260298252106 0.00871714577078819
vertex -0.0134807052090764 -0.719800531864166 0.145680442452431
endloop
endfacet
facet normal -0.999824643135071 0.0187251064926386 9.83252306066982e-18
outer loop
vertex -0.0134807052090764 -0.719800531864166 0.145680442452431
vertex 0 0 0.150000005960464
vertex -0.0134807052090764 -0.719800531864166 0.00431956024840474
endloop
endfacet
facet normal -0.999824702739716 0.0187251083552837 0
outer loop
vertex 0 0 0
vertex -0.0134807052090764 -0.719800531864166 0.00431956024840474
vertex 0 0 0.150000005960464
endloop
endfacet
facet normal -1.54170610781903e-16 0.0187247171998024 0.999824702739716
outer loop
vertex -0.0299999993294477 -6.00065040588379 -0.0336235836148262
vertex -0.0327783077955246 -6.46362018585205 -0.0249530784785748
vertex 0.0599999986588955 -6.00065040588379 -0.0336235836148262
endloop
endfacet
facet normal -2.75726456157795e-16 0.0187247153371572 0.999824643135071
outer loop
vertex 0.0627787411212921 -6.4636926651001 -0.0249517243355513
vertex 0.0599999986588955 -6.00065040588379 -0.0336235836148262
vertex -0.0327783077955246 -6.46362018585205 -0.0249530784785748
endloop
endfacet
facet normal -2.75719865182675e-16 0.0187247171998024 0.999824702739716
outer loop
vertex -0.0327783077955246 -6.46362018585205 -0.0249530784785748
vertex -0.0360471159219742 -7.00832605361938 -0.0147518329322338
vertex 0.0627787411212921 -6.4636926651001 -0.0249517243355513
endloop
endfacet
facet normal -1.52428806639883e-16 0.0187247153371572 0.999824702739716
outer loop
vertex 0.0660480037331581 -7.00847434997559 -0.014749052003026
vertex 0.0627787411212921 -6.4636926651001 -0.0249517243355513
vertex -0.0360471159219742 -7.00832605361938 -0.0147518329322338
endloop
endfacet
facet normal -5.6080272668518e-16 0.0187247171998024 0.999824643135071
outer loop
vertex 0.069550946354866 -7.59219598770142 -0.00381711474619806
vertex 0.0660480037331581 -7.00847434997559 -0.014749052003026
vertex -0.0395503304898739 -7.59209251403809 -0.0038190484046936
endloop
endfacet
facet normal -1.52452748555532e-16 0.0187247171998024 0.999824702739716
outer loop
vertex -0.0360471159219742 -7.00832605361938 -0.0147518329322338
vertex -0.0395503304898739 -7.59209251403809 -0.0038190484046936
vertex 0.0660480037331581 -7.00847434997559 -0.014749052003026
endloop
endfacet
facet normal -5.60791185861274e-16 0.0187247171998024 0.999824643135071
outer loop
vertex 0.069550946354866 -7.59219598770142 -0.00381711474619806
vertex -0.0395503304898739 -7.59209251403809 -0.0038190484046936
vertex 0.0732214897871017 -8.20384502410889 0.00763785094022751
endloop
endfacet
facet normal -6.71629311597321e-16 0.0187247153371572 0.999824643135071
outer loop
vertex -0.0432219281792641 -8.20391845703125 0.00763922370970249
vertex 0.0732214897871017 -8.20384502410889 0.00763785094022751
vertex -0.0395503304898739 -7.59209251403809 -0.0038190484046936
endloop
endfacet
facet normal -6.7158484236759e-16 0.0187247171998024 0.999824702739716
outer loop
vertex 0.0732214897871017 -8.20384502410889 0.00763785094022751
vertex -0.0432219281792641 -8.20391845703125 0.00763922370970249
vertex 0.0771291255950928 -8.85500431060791 0.0198327582329512
endloop
endfacet
facet normal -4.27490116940957e-16 0.0187247171998024 0.999824643135071
outer loop
vertex -0.0471307449042797 -8.85527420043945 0.0198378097265959
vertex 0.0771291255950928 -8.85500431060791 0.0198327582329512
vertex -0.0432219281792641 -8.20391845703125 0.00763922370970249
endloop
endfacet
facet normal -4.27433948068642e-16 0.0187247171998024 0.999824702739716
outer loop
vertex 0.0771291255950928 -8.85500431060791 0.0198327582329512
vertex -0.0471307449042797 -8.85527420043945 0.0198378097265959
vertex 0.0812823995947838 -9.54709529876709 0.0327942408621311
endloop
endfacet
facet normal -4.686463361173e-16 0.0187247171998024 0.999824702739716
outer loop
vertex -0.0512842126190662 -9.54739761352539 0.0327998958528042
vertex 0.0812823995947838 -9.54709529876709 0.0327942408621311
vertex -0.0471307449042797 -8.85527420043945 0.0198378097265959
endloop
endfacet
facet normal -4.68542045185669e-16 0.0187247153371572 0.999824643135071
outer loop
vertex 0.0812823995947838 -9.54709529876709 0.0327942408621311
vertex -0.0512842126190662 -9.54739761352539 0.0327998958528042
vertex 0.0856803432106972 -10.279956817627 0.0465192757546902
endloop
endfacet
facet normal 1.48405770717339e-16 0.0187247153371572 0.999824643135071
outer loop
vertex -0.0556812584400177 -10.2801094055176 0.0465221256017685
vertex 0.0856803432106972 -10.279956817627 0.0465192757546902
vertex -0.0512842126190662 -9.54739761352539 0.0327998958528042
endloop
endfacet
facet normal 1.48386712476026e-16 0.0187247171998024 0.999824643135071
outer loop
vertex 0.0856803432106972 -10.279956817627 0.0465192757546902
vertex -0.0556812584400177 -10.2801094055176 0.0465221256017685
vertex 0.0900000035762787 -10.999773979187 0.0599999986588955
endloop
endfacet
facet normal -9.25023638221638e-17 0.0187247153371572 0.999824643135071
outer loop
vertex -0.0599999986588955 -10.999773979187 0.0599999986588955
vertex 0.0900000035762787 -10.999773979187 0.0599999986588955
vertex -0.0556812584400177 -10.2801094055176 0.0465221256017685
endloop
endfacet
facet normal 9.79392856691099e-16 -0.0187251064926386 0.999824643135071
outer loop
vertex 0.0627787411212921 -6.4636926651001 0.174953490495682
vertex 0.0599999986588955 -6.00065040588379 0.183625534176826
vertex -0.0327783077955246 -6.46362066268921 0.17495484650135
endloop
endfacet
facet normal 0 -0.0187251083552837 0.999824702739716
outer loop
vertex -0.0299999993294477 -6.00065040588379 0.183625534176826
vertex -0.0327783077955246 -6.46362066268921 0.17495484650135
vertex 0.0599999986588955 -6.00065040588379 0.183625534176826
endloop
endfacet
facet normal 9.79458501744511e-16 -0.0187251083552837 0.999824702739716
outer loop
vertex -0.0327783077955246 -6.46362066268921 0.17495484650135
vertex -0.0360471159219742 -7.00832605361938 0.164753392338753
vertex 0.0627787411212921 -6.4636926651001 0.174953490495682
endloop
endfacet
facet normal 1.43825837101756e-16 -0.0187251083552837 0.999824702739716
outer loop
vertex 0.0660480037331581 -7.00847434997559 0.164750605821609
vertex 0.0627787411212921 -6.4636926651001 0.174953490495682
vertex -0.0360471159219742 -7.00832605361938 0.164753392338753
endloop
endfacet
facet normal -3.28065224156125e-17 -0.0187251064926386 0.999824643135071
outer loop
vertex 0.069550946354866 -7.59219598770142 0.153818443417549
vertex 0.0660480037331581 -7.00847434997559 0.164750605821609
vertex -0.0395503304898739 -7.59209299087524 0.153820380568504
endloop
endfacet
facet normal 1.43554111579254e-16 -0.0187251083552837 0.999824702739716
outer loop
vertex -0.0360471159219742 -7.00832605361938 0.164753392338753
vertex -0.0395503304898739 -7.59209299087524 0.153820380568504
vertex 0.0660480037331581 -7.00847434997559 0.164750605821609
endloop
endfacet
facet normal -3.28886151283247e-17 -0.0187251064926386 0.999824643135071
outer loop
vertex 0.069550946354866 -7.59219598770142 0.153818443417549
vertex -0.0395503304898739 -7.59209299087524 0.153820380568504
vertex 0.0732214897871017 -8.20384502410889 0.142363235354424
endloop
endfacet
facet normal 6.63406262805817e-16 -0.0187251064926386 0.999824643135071
outer loop
vertex -0.0432219281792641 -8.20391845703125 0.142361864447594
vertex 0.0732214897871017 -8.20384502410889 0.142363235354424
vertex -0.0395503304898739 -7.59209299087524 0.153820380568504
endloop
endfacet
facet normal 6.63358670142093e-16 -0.0187251064926386 0.999824643135071
outer loop
vertex 0.0732214897871017 -8.20384502410889 0.142363235354424
vertex -0.0432219281792641 -8.20391845703125 0.142361864447594
vertex 0.0771291255950928 -8.85500431060791 0.130168080329895
endloop
endfacet
facet normal 2.76840516241672e-16 -0.0187251083552837 0.999824643135071
outer loop
vertex -0.0471307449042797 -8.85527420043945 0.13016302883625
vertex 0.0771291255950928 -8.85500431060791 0.130168080329895
vertex -0.0432219281792641 -8.20391845703125 0.142361864447594
endloop
endfacet
facet normal 2.76856424579212e-16 -0.0187251064926386 0.999824702739716
outer loop
vertex 0.0771291255950928 -8.85500431060791 0.130168080329895
vertex -0.0471307449042797 -8.85527420043945 0.13016302883625
vertex 0.0812823995947838 -9.54709529876709 0.117206327617168
endloop
endfacet
facet normal 1.01310977078016e-16 -0.0187251083552837 0.999824702739716
outer loop
vertex -0.0512842126190662 -9.54739761352539 0.117200672626495
vertex 0.0812823995947838 -9.54709529876709 0.117206327617168
vertex -0.0471307449042797 -8.85527420043945 0.13016302883625
endloop
endfacet
facet normal 1.01368840016226e-16 -0.0187251083552837 0.999824702739716
outer loop
vertex 0.0812823995947838 -9.54709529876709 0.117206327617168
vertex -0.0512842126190662 -9.54739761352539 0.117200672626495
vertex 0.0856803432106972 -10.279956817627 0.103481009602547
endloop
endfacet
facet normal 1.28696558114373e-16 -0.0187251064926386 0.999824643135071
outer loop
vertex -0.0556812584400177 -10.2801094055176 0.103478156030178
vertex 0.0856803432106972 -10.279956817627 0.103481009602547
vertex -0.0512842126190662 -9.54739761352539 0.117200672626495
endloop
endfacet
facet normal 1.28686711356361e-16 -0.0187251064926386 0.999824643135071
outer loop
vertex 0.0856803432106972 -10.279956817627 0.103481009602547
vertex -0.0556812584400177 -10.2801094055176 0.103478156030178
vertex 0.0900000035762787 -10.999773979187 0.0900000035762787
endloop
endfacet
facet normal -9.25023638221638e-17 -0.0187251064926386 0.999824643135071
outer loop
vertex -0.0599999986588955 -10.999773979187 0.0900000035762787
vertex 0.0900000035762787 -10.999773979187 0.0900000035762787
vertex -0.0556812584400177 -10.2801094055176 0.103478156030178
endloop
endfacet
facet normal 1.11967539946453e-18 0.00672784820199013 -0.99997740983963
outer loop
vertex 0.0311806220561266 -0.19676573574543 -0.00132383988238871
vertex -0.00118062109686434 -0.19676573574543 -0.00132383988238871
vertex 0.0299999993294477 0 0
endloop
endfacet
facet normal 0 0.00672784773632884 -0.999977350234985
outer loop
vertex 0 0 0
vertex 0.0299999993294477 0 0
vertex -0.00118062109686434 -0.19676573574543 -0.00132383988238871
endloop
endfacet
facet normal 1.11967529606696e-18 0.00672784773632884 -0.999977350234985
outer loop
vertex 0.0311806220561266 -0.19676573574543 -0.00132383988238871
vertex 0.033183615654707 -0.53059059381485 -0.00356981344521046
vertex -0.00118062109686434 -0.19676573574543 -0.00132383988238871
endloop
endfacet
facet normal -2.05388515962998e-17 0.00672784727066755 -0.999977350234985
outer loop
vertex -0.00318361539393663 -0.53059059381485 -0.00356981344521046
vertex -0.00118062109686434 -0.19676573574543 -0.00132383988238871
vertex 0.033183615654707 -0.53059059381485 -0.00356981344521046
endloop
endfacet
facet normal 1.24033276125907e-17 0.00672784773632884 -0.999977350234985
outer loop
vertex 0.0363924279808998 -1.06538069248199 -0.00716788182035089
vertex -0.00639242911711335 -1.06538069248199 -0.00716788182035089
vertex 0.033183615654707 -0.53059059381485 -0.00356981344521046
endloop
endfacet
facet normal -2.05388515962998e-17 0.00672784820199013 -0.99997740983963
outer loop
vertex -0.00318361539393663 -0.53059059381485 -0.00356981344521046
vertex 0.033183615654707 -0.53059059381485 -0.00356981344521046
vertex -0.00639242911711335 -1.06538069248199 -0.00716788182035089
endloop
endfacet
facet normal 1.24033259582295e-17 0.00672784773632884 -0.999977350234985
outer loop
vertex 0.0363924279808998 -1.06538069248199 -0.00716788182035089
vertex 0.0398641563951969 -1.64398896694183 -0.0110607575625181
vertex -0.00639242911711335 -1.06538069248199 -0.00716788182035089
endloop
endfacet
facet normal -2.5198528731656e-17 0.00672784773632884 -0.99997740983963
outer loop
vertex -0.00986415706574917 -1.64398896694183 -0.0110607575625181
vertex -0.00639242911711335 -1.06538069248199 -0.00716788182035089
vertex 0.0398641563951969 -1.64398896694183 -0.0110607575625181
endloop
endfacet
facet normal 2.21111912462263e-17 0.00672784773632884 -0.99997740983963
outer loop
vertex 0.043335884809494 -2.22259712219238 -0.0149536337703466
vertex -0.0133358854800463 -2.22259712219238 -0.0149536337703466
vertex 0.0398641563951969 -1.64398896694183 -0.0110607575625181
endloop
endfacet
facet normal -2.5198528731656e-17 0.00672784773632884 -0.99997740983963
outer loop
vertex -0.00986415706574917 -1.64398896694183 -0.0110607575625181
vertex 0.0398641563951969 -1.64398896694183 -0.0110607575625181
vertex -0.0133358854800463 -2.22259712219238 -0.0149536337703466
endloop
endfacet
facet normal 2.21111912462263e-17 0.00672784773632884 -0.99997740983963
outer loop
vertex 0.043335884809494 -2.22259712219238 -0.0149536337703466
vertex 0.0468076132237911 -2.80120539665222 -0.0188465099781752
vertex -0.0133358854800463 -2.22259712219238 -0.0149536337703466
endloop
endfacet
facet normal -7.57057534176702e-18 0.00672784773632884 -0.999977350234985
outer loop
vertex -0.0168076138943434 -2.80120539665222 -0.0188465099781752
vertex -0.0133358854800463 -2.22259712219238 -0.0149536337703466
vertex 0.0468076132237911 -2.80120539665222 -0.0188465099781752
endloop
endfacet
facet normal -4.91699714205365e-17 0.00672784820199013 -0.999977350234985
outer loop
vertex 0.0502793416380882 -3.37981367111206 -0.0227393861860037
vertex -0.0202793404459953 -3.37981367111206 -0.0227393861860037
vertex 0.0468076132237911 -2.80120539665222 -0.0188465099781752
endloop
endfacet
facet normal -7.57057534176702e-18 0.00672784773632884 -0.999977350234985
outer loop
vertex -0.0168076138943434 -2.80120539665222 -0.0188465099781752
vertex 0.0468076132237911 -2.80120539665222 -0.0188465099781752
vertex -0.0202793404459953 -3.37981367111206 -0.0227393861860037
endloop
endfacet
facet normal -4.91699714205365e-17 0.00672784820199013 -0.999977350234985
outer loop
vertex 0.0502793416380882 -3.37981367111206 -0.0227393861860037
vertex 0.0537510700523853 -3.9584219455719 -0.0266322623938322
vertex -0.0202793404459953 -3.37981367111206 -0.0227393861860037
endloop
endfacet
facet normal 3.85507392131441e-17 0.00672784773632884 -0.99997740983963
outer loop
vertex -0.0237510688602924 -3.9584219455719 -0.0266322623938322
vertex -0.0202793404459953 -3.37981367111206 -0.0227393861860037
vertex 0.0537510700523853 -3.9584219455719 -0.0266322623938322
endloop
endfacet
facet normal 0 0.00672784773632884 -0.99997740983963
outer loop
vertex 0.0571202039718628 -4.51993179321289 -0.0304100997745991
vertex -0.0271202027797699 -4.51993179321289 -0.0304100997745991
vertex 0.0537510700523853 -3.9584219455719 -0.0266322623938322
endloop
endfacet
facet normal 3.85507392131441e-17 0.00672784773632884 -0.99997740983963
outer loop
vertex -0.0237510688602924 -3.9584219455719 -0.0266322623938322
vertex 0.0537510700523853 -3.9584219455719 -0.0266322623938322
vertex -0.0271202027797699 -4.51993179321289 -0.0304100997745991
endloop
endfacet
facet normal 0 0.00672784773632884 -0.999977350234985
outer loop
vertex 0.0571202039718628 -4.51993179321289 -0.0304100997745991
vertex 0.0599999986588955 -4.99988698959351 -0.0336392372846603
vertex -0.0271202027797699 -4.51993179321289 -0.0304100997745991
endloop
endfacet
facet normal 0 0.00672784727066755 -0.999977290630341
outer loop
vertex -0.0299999993294477 -4.99988698959351 -0.0336392372846603
vertex -0.0271202027797699 -4.51993179321289 -0.0304100997745991
vertex 0.0599999986588955 -4.99988698959351 -0.0336392372846603
endloop
endfacet
facet normal 0 0.00672784773632884 0.999977350234985
outer loop
vertex 0.0299999993294477 0 0.150000005960464
vertex 0 0 0.150000005960464
vertex 0.0311806220561266 -0.19676573574543 0.151323840022087
endloop
endfacet
facet normal 1.84650800221273e-16 0.00672784820199013 0.99997740983963
outer loop
vertex -0.00118062109686434 -0.19676573574543 0.151323840022087
vertex 0.0311806220561266 -0.19676573574543 0.151323840022087
vertex 0 0 0.150000005960464
endloop
endfacet
facet normal 6.1616551480177e-17 0.00672784727066755 0.999977350234985
outer loop
vertex 0.033183615654707 -0.53059059381485 0.15356981754303
vertex 0.0311806220561266 -0.19676573574543 0.151323840022087
vertex -0.00318361539393663 -0.53059059381485 0.15356981754303
endloop
endfacet
facet normal 1.84650800221273e-16 0.00672784773632884 0.999977350234985
outer loop
vertex -0.00118062109686434 -0.19676573574543 0.151323840022087
vertex -0.00318361539393663 -0.53059059381485 0.15356981754303
vertex 0.0311806220561266 -0.19676573574543 0.151323840022087
endloop
endfacet
facet normal 6.16165580976219e-17 0.00672784820199013 0.99997740983963
outer loop
vertex 0.033183615654707 -0.53059059381485 0.15356981754303
vertex -0.00318361539393663 -0.53059059381485 0.15356981754303
vertex 0.0363924279808998 -1.06538069248199 0.157167881727219
endloop
endfacet
facet normal 6.48709605896244e-16 0.00672784773632884 0.999977350234985
outer loop
vertex -0.00639242911711335 -1.06538069248199 0.157167881727219
vertex 0.0363924279808998 -1.06538069248199 0.157167881727219
vertex -0.00318361539393663 -0.53059059381485 0.15356981754303
endloop
endfacet
facet normal 1.20163521733953e-16 0.00672784773632884 0.99997740983963
outer loop
vertex 0.0398641563951969 -1.64398896694183 0.161060750484467
vertex 0.0363924279808998 -1.06538069248199 0.157167881727219
vertex -0.00986415706574917 -1.64398896694183 0.161060750484467
endloop
endfacet
facet normal 6.48709552956685e-16 0.00672784773632884 0.999977350234985
outer loop
vertex -0.00639242911711335 -1.06538069248199 0.157167881727219
vertex -0.00986415706574917 -1.64398896694183 0.161060750484467
vertex 0.0363924279808998 -1.06538069248199 0.157167881727219
endloop
endfacet
facet normal 1.20163521733953e-16 0.00672784773632884 0.99997740983963
outer loop
vertex 0.0398641563951969 -1.64398896694183 0.161060750484467
vertex -0.00986415706574917 -1.64398896694183 0.161060750484467
vertex 0.043335884809494 -2.22259712219238 0.164953634142876
endloop
endfacet
facet normal 5.95190093821777e-16 0.00672784773632884 0.99997740983963
outer loop
vertex -0.0133358854800463 -2.22259712219238 0.164953634142876
vertex 0.043335884809494 -2.22259712219238 0.164953634142876
vertex -0.00986415706574917 -1.64398896694183 0.161060750484467
endloop
endfacet
facet normal -2.95395540574886e-16 0.00672784773632884 0.999977350234985
outer loop
vertex 0.0468076132237911 -2.80120539665222 0.168846502900124
vertex 0.043335884809494 -2.22259712219238 0.164953634142876
vertex -0.0168076138943434 -2.80120539665222 0.168846502900124
endloop
endfacet
facet normal 5.95190093821777e-16 0.00672784773632884 0.99997740983963
outer loop
vertex -0.0133358854800463 -2.22259712219238 0.164953634142876
vertex -0.0168076138943434 -2.80120539665222 0.168846502900124
vertex 0.043335884809494 -2.22259712219238 0.164953634142876
endloop
endfacet
facet normal -2.95395540574886e-16 0.00672784773632884 0.999977350234985
outer loop
vertex 0.0468076132237911 -2.80120539665222 0.168846502900124
vertex -0.0168076138943434 -2.80120539665222 0.168846502900124
vertex 0.0502793416380882 -3.37981367111206 0.172739386558533
endloop
endfacet
facet normal 8.46887892862083e-17 0.00672784820199013 0.999977350234985
outer loop
vertex -0.0202793404459953 -3.37981367111206 0.172739386558533
vertex 0.0502793416380882 -3.37981367111206 0.172739386558533
vertex -0.0168076138943434 -2.80120539665222 0.168846502900124
endloop
endfacet
facet normal 1.92753689448275e-16 0.00672784773632884 0.99997740983963
outer loop
vertex 0.0537510700523853 -3.9584219455719 0.176632255315781
vertex 0.0502793416380882 -3.37981367111206 0.172739386558533
vertex -0.0237510688602924 -3.9584219455719 0.176632255315781
endloop
endfacet
facet normal 8.46887892862083e-17 0.00672784820199013 0.999977350234985
outer loop
vertex -0.0202793404459953 -3.37981367111206 0.172739386558533
vertex -0.0237510688602924 -3.9584219455719 0.176632255315781
vertex 0.0502793416380882 -3.37981367111206 0.172739386558533
endloop
endfacet
facet normal 1.92753689448275e-16 0.00672784773632884 0.99997740983963
outer loop
vertex -0.0237510688602924 -3.9584219455719 0.176632255315781
vertex -0.0271202027797699 -4.51993179321289 0.180410102009773
vertex 0.0537510700523853 -3.9584219455719 0.176632255315781
endloop
endfacet
facet normal -3.75209258202951e-16 0.00672784773632884 0.99997740983963
outer loop
vertex 0.0571202039718628 -4.51993179321289 0.180410102009773
vertex 0.0537510700523853 -3.9584219455719 0.176632255315781
vertex -0.0271202027797699 -4.51993179321289 0.180410102009773
endloop
endfacet
facet normal -3.75209231733172e-16 0.00672784773632884 0.999977350234985
outer loop
vertex 0.0571202039718628 -4.51993179321289 0.180410102009773
vertex -0.0271202027797699 -4.51993179321289 0.180410102009773
vertex 0.0599999986588955 -4.99988698959351 0.183639243245125
endloop
endfacet
facet normal -0 0.00672784727066755 0.999977290630341
outer loop
vertex -0.0299999993294477 -4.99988698959351 0.183639243245125
vertex 0.0599999986588955 -4.99988698959351 0.183639243245125
vertex -0.0271202027797699 -4.51993179321289 0.180410102009773
endloop
endfacet
facet normal -0.999824702739716 -0.0187247171998024 0
outer loop
vertex 0.0299999993294477 0 0
vertex 0.043480422347784 -0.719800531864166 0.00431956024840474
vertex 0.0299999993294477 0 0.150000005960464
endloop
endfacet
facet normal -0.999824643135071 -0.0187247171998024 2.94121139801072e-17
outer loop
vertex 0.043480422347784 -0.719800531864166 0.145680442452431
vertex 0.0299999993294477 0 0.150000005960464
vertex 0.043480422347784 -0.719800531864166 0.00431956024840474
endloop
endfacet
facet normal -0.999824702739716 -0.0187247171998024 2.94121139801072e-17
outer loop
vertex 0.043480422347784 -0.719800531864166 0.00431956024840474
vertex 0.0572043471038342 -1.45260298252106 0.00871714577078819
vertex 0.043480422347784 -0.719800531864166 0.145680442452431
endloop
endfacet
facet normal -0.999824643135071 -0.0187247153371572 -3.09950498136805e-17
outer loop
vertex 0.0572043471038342 -1.45260298252106 0.141282856464386
vertex 0.043480422347784 -0.719800531864166 0.145680442452431
vertex 0.0572043471038342 -1.45260298252106 0.00871714577078819
endloop
endfacet
facet normal -0.999824702739716 -0.0187247153371572 -3.0995053122403e-17
outer loop
vertex 0.0572043471038342 -1.45260298252106 0.141282856464386
vertex 0.0572043471038342 -1.45260298252106 0.00871714577078819
vertex 0.0701653733849525 -2.14466953277588 0.137129724025726
endloop
endfacet
facet normal -0.999824702739716 -0.0187247171998024 -1.56015686769039e-16
outer loop
vertex 0.0701653733849525 -2.14466953277588 0.0128702744841576
vertex 0.0701653733849525 -2.14466953277588 0.137129724025726
vertex 0.0572043471038342 -1.45260298252106 0.00871714577078819
endloop
endfacet
facet normal -0.999824702739716 -0.0187247171998024 -1.56015686769039e-16
outer loop
vertex 0.0701653733849525 -2.14466953277588 0.0128702744841576
vertex 0.0823604688048363 -2.79583883285522 0.0167779736220837
vertex 0.0701653733849525 -2.14466953277588 0.137129724025726
endloop
endfacet
facet normal -0.99982476234436 -0.0187247171998024 -2.32445808866567e-17
outer loop
vertex 0.0823604688048363 -2.79583883285522 0.133222028613091
vertex 0.0701653733849525 -2.14466953277588 0.137129724025726
vertex 0.0823604688048363 -2.79583883285522 0.0167779736220837
endloop
endfacet
facet normal -0.999824702739716 -0.0187247171998024 -2.32445808866567e-17
outer loop
vertex 0.0823604688048363 -2.79583883285522 0.133222028613091
vertex 0.0823604688048363 -2.79583883285522 0.0167779736220837
vertex 0.0938159227371216 -3.4075140953064 0.129551336169243
endloop
endfacet
facet normal -0.99982476234436 -0.0187247190624475 -2.52563486564734e-17
outer loop
vertex 0.0938159227371216 -3.4075140953064 0.0204486697912216
vertex 0.0938159227371216 -3.4075140953064 0.129551336169243
vertex 0.0823604688048363 -2.79583883285522 0.0167779736220837
endloop
endfacet
facet normal -0.999824643135071 -0.0187247171998024 -2.5256345347751e-17
outer loop
vertex 0.0938159227371216 -3.4075140953064 0.0204486697912216
vertex 0.104748293757439 -3.9912588596344 0.0239517521113157
vertex 0.0938159227371216 -3.4075140953064 0.129551336169243
endloop
endfacet
facet normal -0.999824702739716 -0.0187247153371572 1.90361734579678e-16
outer loop
vertex 0.104748293757439 -3.9912588596344 0.126048251986504
vertex 0.0938159227371216 -3.4075140953064 0.129551336169243
vertex 0.104748293757439 -3.9912588596344 0.0239517521113157
endloop
endfacet
facet normal -0.999824702739716 -0.0187247153371572 1.90361721344788e-16
outer loop
vertex 0.104748293757439 -3.9912588596344 0.126048251986504
vertex 0.104748293757439 -3.9912588596344 0.0239517521113157
vertex 0.114951401948929 -4.53606367111206 0.122778847813606
endloop
endfacet
facet normal -0.999824643135071 -0.0187247153371572 -1.16367609755282e-16
outer loop
vertex 0.114951401948929 -4.53606367111206 0.0272211544215679
vertex 0.114951401948929 -4.53606367111206 0.122778847813606
vertex 0.104748293757439 -3.9912588596344 0.0239517521113157
endloop
endfacet
facet normal -0.999824643135071 -0.0187247153371572 -1.16367609755282e-16
outer loop
vertex 0.114951401948929 -4.53606367111206 0.0272211544215679
vertex 0.123623579740524 -4.99912357330322 0.0299999993294477
vertex 0.114951401948929 -4.53606367111206 0.122778847813606
endloop
endfacet
facet normal -0.999824643135071 -0.0187247171998024 -0
outer loop
vertex 0.123623579740524 -4.99912357330322 0.119999997317791
vertex 0.114951401948929 -4.53606367111206 0.122778847813606
vertex 0.123623579740524 -4.99912357330322 0.0299999993294477
endloop
endfacet
facet normal 0.707078158855438 0.00899969041347504 -0.707078158855438
outer loop
vertex 0.0406285375356674 -0.567521214485168 0.00340512720867991
vertex 0.0334059707820415 -0.567699491977692 -0.00381970941089094
vertex 0.0299999993294477 0 0
endloop
endfacet
facet normal 0.707078158855438 0.00899969041347504 -0.707078158855438
outer loop
vertex 0.0334059707820415 -0.567699491977692 -0.00381970941089094
vertex 0.0406285375356674 -0.567521214485168 0.00340512720867991
vertex 0.0368119366466999 -1.13539898395538 -0.00763941882178187
endloop
endfacet
facet normal 0.707078158855438 0.00899969041347504 -0.707078158855438
outer loop
vertex 0.0512570738792419 -1.13504242897034 0.00681025441735983
vertex 0.0368119366466999 -1.13539898395538 -0.00763941882178187
vertex 0.0406285375356674 -0.567521214485168 0.00340512720867991
endloop
endfacet
facet normal 0.707078158855438 0.00899969041347504 -0.707078158855438
outer loop
vertex 0.0368119366466999 -1.13539898395538 -0.00763941882178187
vertex 0.0512570738792419 -1.13504242897034 0.00681025441735983
vertex 0.0402179062366486 -1.70309841632843 -0.0114591289311647
endloop
endfacet
facet normal 0.707078099250793 0.00899969041347504 -0.707078099250793
outer loop
vertex 0.0618856102228165 -1.70256364345551 0.010215382091701
vertex 0.0402179062366486 -1.70309841632843 -0.0114591289311647
vertex 0.0512570738792419 -1.13504242897034 0.00681025441735983
endloop
endfacet
facet normal 0.707078099250793 0.00899969041347504 -0.707078099250793
outer loop
vertex 0.0618856102228165 -1.70256364345551 0.010215382091701
vertex 0.072514146566391 -2.27008485794067 0.0136205088347197
vertex 0.0402179062366486 -1.70309841632843 -0.0114591289311647
endloop
endfacet
facet normal 0.707078158855438 0.00899969041347504 -0.707078158855438
outer loop
vertex 0.0436238758265972 -2.27079796791077 -0.0152788376435637
vertex 0.0402179062366486 -1.70309841632843 -0.0114591289311647
vertex 0.072514146566391 -2.27008485794067 0.0136205088347197
endloop
endfacet
facet normal 0.707078158855438 0.00899969041347504 -0.707078158855438
outer loop
vertex 0.072514146566391 -2.27008485794067 0.0136205088347197
vertex 0.0831426829099655 -2.83760595321655 0.0170256365090609
vertex 0.0436238758265972 -2.27079796791077 -0.0152788376435637
endloop
endfacet
facet normal 0.707078158855438 0.00899969041347504 -0.707078158855438
outer loop
vertex 0.0470298454165459 -2.83849740028381 -0.0190985482186079
vertex 0.0436238758265972 -2.27079796791077 -0.0152788376435637
vertex 0.0831426829099655 -2.83760595321655 0.0170256365090609
endloop
endfacet
facet normal 0.707078158855438 0.00899969041347504 -0.707078158855438
outer loop
vertex 0.0831426829099655 -2.83760595321655 0.0170256365090609
vertex 0.0937712267041206 -3.40512728691101 0.0204307641834021
vertex 0.0470298454165459 -2.83849740028381 -0.0190985482186079
endloop
endfacet
facet normal 0.707078099250793 0.00899969041347504 -0.707078099250793
outer loop
vertex 0.0504358150064945 -3.40619683265686 -0.0229182578623295
vertex 0.0470298454165459 -2.83849740028381 -0.0190985482186079
vertex 0.0937712267041206 -3.40512728691101 0.0204307641834021
endloop
endfacet
facet normal 0.707078099250793 0.00899969041347504 -0.707078099250793
outer loop
vertex 0.0937712267041206 -3.40512728691101 0.0204307641834021
vertex 0.104399763047695 -3.97264838218689 0.0238358899950981
vertex 0.0504358150064945 -3.40619683265686 -0.0229182578623295
endloop
endfacet
facet normal 0.707078158855438 0.00899969041347504 -0.707078158855438
outer loop
vertex 0.0538417845964432 -3.97389626502991 -0.0267379675060511
vertex 0.0504358150064945 -3.40619683265686 -0.0229182578623295
vertex 0.104399763047695 -3.97264838218689 0.0238358899950981
endloop
endfacet
facet normal 0.707078158855438 0.00899969041347504 -0.707078158855438
outer loop
vertex 0.104399763047695 -3.97264838218689 0.0238358899950981
vertex 0.114762283861637 -4.52596569061279 0.0271557923406363
vertex 0.0538417845964432 -3.97389626502991 -0.0267379675060511
endloop
endfacet
facet normal 0.707078158855438 0.00899969041347504 -0.707078158855438
outer loop
vertex 0.0571625418961048 -4.52739286422729 -0.0304621122777462
vertex 0.0538417845964432 -3.97389626502991 -0.0267379675060511
vertex 0.114762283861637 -4.52596569061279 0.0271557923406363
endloop
endfacet
facet normal 0.707078158855438 0.00899969134479761 -0.707078158855438
outer loop
vertex 0.114762283861637 -4.52596569061279 0.0271557923406363
vertex 0.123621895909309 -4.99903345108032 0.0299942009150982
vertex 0.0571625418961048 -4.52739286422729 -0.0304621122777462
endloop
endfacet
facet normal 0.707078158855438 0.00899969134479761 -0.707078158855438
outer loop
vertex 0.0600016377866268 -5.00060653686523 -0.0336460880935192
vertex 0.0571625418961048 -4.52739286422729 -0.0304621122777462
vertex 0.123621895909309 -4.99903345108032 0.0299942009150982
endloop
endfacet
facet normal 0.707078158855438 0.00899969041347504 0.707078158855438
outer loop
vertex 0.0334056466817856 -0.567607879638672 0.153818860650063
vertex 0.0406304784119129 -0.567612767219543 0.14659409224987
vertex 0.0299999993294477 0 0.150000005960464
endloop
endfacet
facet normal 0.707078158855438 0.00899969041347504 0.707078158855438
outer loop
vertex 0.0368112958967686 -1.13521575927734 0.157637730240822
vertex 0.0512609593570232 -1.13522553443909 0.143188193440437
vertex 0.0334056466817856 -0.567607879638672 0.153818860650063
endloop
endfacet
facet normal 0.707078158855438 0.00899969041347504 0.707078158855438
outer loop
vertex 0.0406304784119129 -0.567612767219543 0.14659409224987
vertex 0.0334056466817856 -0.567607879638672 0.153818860650063
vertex 0.0512609593570232 -1.13522553443909 0.143188193440437
endloop
endfacet
facet normal 0.707078158855438 0.00899969041347504 0.707078158855438
outer loop
vertex 0.0368112958967686 -1.13521575927734 0.157637730240822
vertex 0.0402169413864613 -1.70282363891602 0.161456599831581
vertex 0.0512609593570232 -1.13522553443909 0.143188193440437
endloop
endfacet
facet normal 0.707078099250793 0.00899969041347504 0.707078099250793
outer loop
vertex 0.0618914403021336 -1.70283830165863 0.139782294631004
vertex 0.0512609593570232 -1.13522553443909 0.143188193440437
vertex 0.0402169413864613 -1.70282363891602 0.161456599831581
endloop
endfacet
facet normal 0.707078099250793 0.00899969041347504 0.707078099250793
outer loop
vertex 0.0402169413864613 -1.70282363891602 0.161456599831581
vertex 0.0436225906014442 -2.27043151855469 0.16527546942234
vertex 0.0618914403021336 -1.70283830165863 0.139782294631004
endloop
endfacet
facet normal 0.707078158855438 0.00899969041347504 0.707078158855438
outer loop
vertex 0.0725219175219536 -2.27045106887817 0.13637638092041
vertex 0.0618914403021336 -1.70283830165863 0.139782294631004
vertex 0.0436225906014442 -2.27043151855469 0.16527546942234
endloop
endfacet
facet normal 0.707078158855438 0.00899969041347504 0.707078158855438
outer loop
vertex 0.0436225906014442 -2.27043151855469 0.16527546942234
vertex 0.0470282360911369 -2.83803939819336 0.169094324111938
vertex 0.0725219175219536 -2.27045106887817 0.13637638092041
endloop
endfacet
facet normal 0.707078158855438 0.00899969041347504 0.707078158855438
outer loop
vertex 0.0831523984670639 -2.83806395530701 0.132970482110977
vertex 0.0725219175219536 -2.27045106887817 0.13637638092041
vertex 0.0470282360911369 -2.83803939819336 0.169094324111938
endloop
endfacet
facet normal 0.707078158855438 0.00899969041347504 0.707078158855438
outer loop
vertex 0.0470282360911369 -2.83803939819336 0.169094324111938
vertex 0.0504338853061199 -3.40564727783203 0.172913193702698
vertex 0.0831523984670639 -2.83806395530701 0.132970482110977
endloop
endfacet
facet normal 0.707078099250793 0.00899969041347504 0.707078099250793
outer loop
vertex 0.0937828794121742 -3.40567660331726 0.129564568400383
vertex 0.0831523984670639 -2.83806395530701 0.132970482110977
vertex 0.0504338853061199 -3.40564727783203 0.172913193702698
endloop
endfacet
facet normal 0.707078099250793 0.00899969041347504 0.707078099250793
outer loop
vertex 0.0504338853061199 -3.40564727783203 0.172913193702698
vertex 0.0538395307958126 -3.9732551574707 0.176732063293457
vertex 0.0937828794121742 -3.40567660331726 0.129564568400383
endloop
endfacet
facet normal 0.707078158855438 0.00899969041347504 0.707078158855438
outer loop
vertex 0.104413360357285 -3.97328948974609 0.12615866959095
vertex 0.0937828794121742 -3.40567660331726 0.129564568400383
vertex 0.0538395307958126 -3.9732551574707 0.176732063293457
endloop
endfacet
facet normal 0.707078158855438 0.00899969041347504 0.707078158855438
outer loop
vertex 0.0538395307958126 -3.9732551574707 0.176732063293457
vertex 0.0571599416434765 -4.52665662765503 0.180455341935158
vertex 0.104413360357285 -3.97328948974609 0.12615866959095
endloop
endfacet
facet normal 0.707078158855438 0.00899969041347504 0.707078158855438
outer loop
vertex 0.114777877926826 -4.5267014503479 0.122837975621223
vertex 0.104413360357285 -3.97328948974609 0.12615866959095
vertex 0.0571599416434765 -4.52665662765503 0.180455341935158
endloop
endfacet
facet normal 0.707078158855438 0.00899969134479761 0.707078158855438
outer loop
vertex 0.0571599416434765 -4.52665662765503 0.180455341935158
vertex 0.0599987804889679 -4.99979686737061 0.183638632297516
vertex 0.114777877926826 -4.5267014503479 0.122837975621223
endloop
endfacet
facet normal 0.707078158855438 0.00899969134479761 0.707078158855438
outer loop
vertex 0.123639069497585 -4.99984312057495 0.119998939335346
vertex 0.114777877926826 -4.5267014503479 0.122837975621223
vertex 0.0599987804889679 -4.99979686737061 0.183638632297516
endloop
endfacet
facet normal 0.707078158855438 -0.00899969041347504 -0.707078158855438
outer loop
vertex 0.0938188657164574 -10.4321660995483 0.0565943531692028
vertex 0.0900000035762787 -10.999773979187 0.0599999986588955
vertex 0.0865940973162651 -10.4321613311768 0.0493695214390755
endloop
endfacet
facet normal 0.707078158855438 -0.00899969041347504 -0.707078158855438
outer loop
vertex 0.0865940973162651 -10.4321613311768 0.0493695214390755
vertex 0.0831881910562515 -9.86454772949219 0.0387390404939651
vertex 0.0938188657164574 -10.4321660995483 0.0565943531692028
endloop
endfacet
facet normal 0.707078158855438 -0.00899969041347504 -0.707078158855438
outer loop
vertex 0.0976377353072166 -9.86455821990967 0.0531887039542198
vertex 0.0938188657164574 -10.4321660995483 0.0565943531692028
vertex 0.0831881910562515 -9.86454772949219 0.0387390404939651
endloop
endfacet
facet normal 0.707078099250793 -0.00899969041347504 -0.707078099250793
outer loop
vertex 0.101456597447395 -9.296950340271 0.0497830584645271
vertex 0.0976377353072166 -9.86455821990967 0.0531887039542198
vertex 0.0797822847962379 -9.29693508148193 0.0281085614115
endloop
endfacet
facet normal 0.707078158855438 -0.00899969041347504 -0.707078158855438
outer loop
vertex 0.0831881910562515 -9.86454772949219 0.0387390404939651
vertex 0.0797822847962379 -9.29693508148193 0.0281085614115
vertex 0.0976377353072166 -9.86455821990967 0.0531887039542198
endloop
endfacet
facet normal 0.707078099250793 -0.00899969041347504 -0.707078099250793
outer loop
vertex 0.101456597447395 -9.296950340271 0.0497830584645271
vertex 0.0797822847962379 -9.29693508148193 0.0281085614115
vertex 0.105275459587574 -8.72934246063232 0.0463774092495441
endloop
endfacet
facet normal 0.707078158855438 -0.00899969041347504 -0.707078158855438
outer loop
vertex 0.076376385986805 -8.72932243347168 0.0174780804663897
vertex 0.105275459587574 -8.72934246063232 0.0463774092495441
vertex 0.0797822847962379 -9.29693508148193 0.0281085614115
endloop
endfacet
facet normal 0.707078158855438 -0.00899969041347504 -0.707078158855438
outer loop
vertex 0.105275459587574 -8.72934246063232 0.0463774092495441
vertex 0.076376385986805 -8.72932243347168 0.0174780804663897
vertex 0.109094329178333 -8.16173458099365 0.0429717637598515
endloop
endfacet
facet normal 0.707078158855438 -0.00899969041347504 -0.707078158855438
outer loop
vertex 0.0729704797267914 -8.16170978546143 0.00684760184958577
vertex 0.109094329178333 -8.16173458099365 0.0429717637598515
vertex 0.076376385986805 -8.72932243347168 0.0174780804663897
endloop
endfacet
facet normal 0.707078158855438 -0.00899969041347504 -0.707078158855438
outer loop
vertex 0.109094329178333 -8.16173458099365 0.0429717637598515
vertex 0.0729704797267914 -8.16170978546143 0.00684760184958577
vertex 0.112913191318512 -7.59412622451782 0.0395661182701588
endloop
endfacet
facet normal 0.707078099250793 -0.00899969041347504 -0.707078099250793
outer loop
vertex 0.0695645734667778 -7.59409713745117 -0.00378287793137133
vertex 0.112913191318512 -7.59412622451782 0.0395661182701588
vertex 0.0729704797267914 -8.16170978546143 0.00684760184958577
endloop
endfacet
facet normal 0.707078099250793 -0.00899969041347504 -0.707078099250793
outer loop
vertex 0.112913191318512 -7.59412622451782 0.0395661182701588
vertex 0.0695645734667778 -7.59409713745117 -0.00378287793137133
vertex 0.116732060909271 -7.02651834487915 0.0361604690551758
endloop
endfacet
facet normal 0.707078158855438 -0.00899969041347504 -0.707078158855438
outer loop
vertex 0.0661586672067642 -7.02648401260376 -0.0144133577123284
vertex 0.116732060909271 -7.02651834487915 0.0361604690551758
vertex 0.0695645734667778 -7.59409713745117 -0.00378287793137133
endloop
endfacet
facet normal 0.707078158855438 -0.00899969041347504 -0.707078158855438
outer loop
vertex 0.116732060909271 -7.02651834487915 0.0361604690551758
vertex 0.0661586672067642 -7.02648401260376 -0.0144133577123284
vertex 0.120455347001553 -6.47311687469482 0.0328400582075119
endloop
endfacet
facet normal 0.707078158855438 -0.00899969041347504 -0.707078158855438
outer loop
vertex 0.0628379806876183 -6.47307252883911 -0.0247778780758381
vertex 0.120455347001553 -6.47311687469482 0.0328400582075119
vertex 0.0661586672067642 -7.02648401260376 -0.0144133577123284
endloop
endfacet
facet normal 0.707078158855438 -0.00899969134479761 -0.707078158855438
outer loop
vertex 0.120455347001553 -6.47311687469482 0.0328400582075119
vertex 0.0628379806876183 -6.47307252883911 -0.0247778780758381
vertex 0.12363862991333 -5.99997663497925 0.0300012193620205
endloop
endfacet
facet normal 0.707078158855438 -0.00899969134479761 -0.707078158855438
outer loop
vertex 0.0599989369511604 -5.9999303817749 -0.0336390659213066
vertex 0.12363862991333 -5.99997663497925 0.0300012193620205
vertex 0.0628379806876183 -6.47307252883911 -0.0247778780758381
endloop
endfacet
facet normal -0.707056045532227 0.00899977143853903 -0.70710027217865
outer loop
vertex 0.0599969439208508 -5.9999303817749 0.183637753129005
vertex 0.12363862991333 -5.99997663497925 0.119999460875988
vertex 0.0628361701965332 -6.47307252883911 0.174776688218117
endloop
endfacet
facet normal -0.707055985927582 0.00899977050721645 -0.70710027217865
outer loop
vertex 0.120455347001553 -6.47311687469482 0.117160551249981
vertex 0.0628361701965332 -6.47307252883911 0.174776688218117
vertex 0.12363862991333 -5.99997663497925 0.119999460875988
endloop
endfacet
facet normal -0.707055985927582 0.00899977050721645 -0.70710027217865
outer loop
vertex 0.0628361701965332 -6.47307252883911 0.174776688218117
vertex 0.120455347001553 -6.47311687469482 0.117160551249981
vertex 0.0661570876836777 -7.02648401260376 0.164412319660187
endloop
endfacet
facet normal -0.707055985927582 0.00899977050721645 -0.70710027217865
outer loop
vertex 0.116732060909271 -7.02651834487915 0.113840073347092
vertex 0.0661570876836777 -7.02648401260376 0.164412319660187
vertex 0.120455347001553 -6.47311687469482 0.117160551249981
endloop
endfacet
facet normal -0.707055985927582 0.00899977050721645 -0.70710027217865
outer loop
vertex 0.0661570876836777 -7.02648401260376 0.164412319660187
vertex 0.116732060909271 -7.02651834487915 0.113840073347092
vertex 0.0695632174611092 -7.59409713745117 0.153781980276108
endloop
endfacet
facet normal -0.707056045532227 0.00899977143853903 -0.70710027217865
outer loop
vertex 0.112913191318512 -7.59412622451782 0.110434345901012
vertex 0.0695632174611092 -7.59409713745117 0.153781980276108
vertex 0.116732060909271 -7.02651834487915 0.113840073347092
endloop
endfacet
facet normal -0.707056045532227 0.00899977143853903 -0.70710027217865
outer loop
vertex 0.0695632174611092 -7.59409713745117 0.153781980276108
vertex 0.112913191318512 -7.59412622451782 0.110434345901012
vertex 0.0729693472385406 -8.16170978546143 0.14315165579319
endloop
endfacet
facet normal -0.707055985927582 0.00899977050721645 -0.707100331783295
outer loop
vertex 0.109094329178333 -8.16173458099365 0.107028618454933
vertex 0.0729693472385406 -8.16170978546143 0.14315165579319
vertex 0.112913191318512 -7.59412622451782 0.110434345901012
endloop
endfacet
facet normal -0.707055985927582 0.00899977050721645 -0.707100331783295
outer loop
vertex 0.0729693472385406 -8.16170978546143 0.14315165579319
vertex 0.109094329178333 -8.16173458099365 0.107028618454933
vertex 0.0763754770159721 -8.72932243347168 0.132521316409111
endloop
endfacet
facet normal -0.707055985927582 0.00899977050721645 -0.70710027217865
outer loop
vertex 0.105275459587574 -8.72934246063232 0.103622898459435
vertex 0.0763754770159721 -8.72932243347168 0.132521316409111
vertex 0.109094329178333 -8.16173458099365 0.107028618454933
endloop
endfacet
facet normal -0.707055985927582 0.00899977050721645 -0.70710027217865
outer loop
vertex 0.0763754770159721 -8.72932243347168 0.132521316409111
vertex 0.105275459587574 -8.72934246063232 0.103622898459435
vertex 0.0797816067934036 -9.29693508148193 0.121890991926193
endloop
endfacet
facet normal -0.707056045532227 0.00899977143853903 -0.70710027217865
outer loop
vertex 0.101456597447395 -9.296950340271 0.100217171013355
vertex 0.0797816067934036 -9.29693508148193 0.121890991926193
vertex 0.105275459587574 -8.72934246063232 0.103622898459435
endloop
endfacet
facet normal -0.707056045532227 0.00899977143853903 -0.70710027217865
outer loop
vertex 0.101456597447395 -9.296950340271 0.100217171013355
vertex 0.0976377353072166 -9.86455821990967 0.0968114510178566
vertex 0.0797816067934036 -9.29693508148193 0.121890991926193
endloop
endfacet
facet normal -0.707055985927582 0.00899977050721645 -0.70710027217865
outer loop
vertex 0.0831877365708351 -9.86454772949219 0.111260659992695
vertex 0.0797816067934036 -9.29693508148193 0.121890991926193
vertex 0.0976377353072166 -9.86455821990967 0.0968114510178566
endloop
endfacet
facet normal -0.707055985927582 0.00899977050721645 -0.70710027217865
outer loop
vertex 0.0976377353072166 -9.86455821990967 0.0968114510178566
vertex 0.0938188657164574 -10.4321660995483 0.0934057235717773
vertex 0.0831877365708351 -9.86454772949219 0.111260659992695
endloop
endfacet
facet normal -0.707055985927582 0.00899977050721645 -0.70710027217865
outer loop
vertex 0.0865938663482666 -10.4321613311768 0.100630328059196
vertex 0.0831877365708351 -9.86454772949219 0.111260659992695
vertex 0.0938188657164574 -10.4321660995483 0.0934057235717773
endloop
endfacet
facet normal -0.707055985927582 0.00899977050721645 -0.70710027217865
outer loop
vertex 0.0938188657164574 -10.4321660995483 0.0934057235717773
vertex 0.0900000035762787 -10.999773979187 0.0900000035762787
vertex 0.0865938663482666 -10.4321613311768 0.100630328059196
endloop
endfacet
facet normal 0.999977290630341 -0.00672784727066755 0
outer loop
vertex 0.123639240860939 -5.99988698959351 0.0299999993294477
vertex 0.123639240860939 -5.99988698959351 0.119999997317791
vertex 0.120410099625587 -6.47984218597412 0.0328797958791256
endloop
endfacet
facet normal 0.999977350234985 -0.00672784773632884 4.71341594955463e-16
outer loop
vertex 0.120410099625587 -6.47984218597412 0.117120206356049
vertex 0.120410099625587 -6.47984218597412 0.0328797958791256
vertex 0.123639240860939 -5.99988698959351 0.119999997317791
endloop
endfacet
facet normal 0.99997740983963 -0.00672784773632884 4.71341594955463e-16
outer loop
vertex 0.120410099625587 -6.47984218597412 0.0328797958791256
vertex 0.120410099625587 -6.47984218597412 0.117120206356049
vertex 0.116632260382175 -7.04135179519653 0.0362489297986031
endloop
endfacet
facet normal 0.99997740983963 -0.00672784773632884 0
outer loop
vertex 0.116632260382175 -7.04135179519653 0.113751068711281
vertex 0.116632260382175 -7.04135179519653 0.0362489297986031
vertex 0.120410099625587 -6.47984218597412 0.117120206356049
endloop
endfacet
facet normal 0.99997740983963 -0.00672784773632884 0
outer loop
vertex 0.116632260382175 -7.04135179519653 0.113751068711281
vertex 0.112739384174347 -7.61995983123779 0.110279344022274
vertex 0.116632260382175 -7.04135179519653 0.0362489297986031
endloop
endfacet
facet normal 0.999977350234985 -0.00672784820199013 -1.11991109630828e-16
outer loop
vertex 0.112739384174347 -7.61995983123779 0.0397206582129002
vertex 0.116632260382175 -7.04135179519653 0.0362489297986031
vertex 0.112739384174347 -7.61995983123779 0.110279344022274
endloop
endfacet
facet normal 0.999977350234985 -0.00672784820199013 -1.11991109630828e-16
outer loop
vertex 0.112739384174347 -7.61995983123779 0.0397206582129002
vertex 0.112739384174347 -7.61995983123779 0.110279344022274
vertex 0.108846507966518 -8.19856834411621 0.0431923866271973
endloop
endfacet
facet normal 0.999977350234985 -0.00672784773632884 -2.181470357578e-16
outer loop
vertex 0.108846507966518 -8.19856834411621 0.106807611882687
vertex 0.108846507966518 -8.19856834411621 0.0431923866271973
vertex 0.112739384174347 -7.61995983123779 0.110279344022274
endloop
endfacet
facet normal 0.999977350234985 -0.00672784773632884 -2.181470357578e-16
outer loop
vertex 0.108846507966518 -8.19856834411621 0.106807611882687
vertex 0.10495363175869 -8.77717685699463 0.10333588719368
vertex 0.108846507966518 -8.19856834411621 0.0431923866271973
endloop
endfacet
facet normal 0.99997740983963 -0.00672784773632884 2.44874525133699e-16
outer loop
vertex 0.10495363175869 -8.77717685699463 0.0466641150414944
vertex 0.108846507966518 -8.19856834411621 0.0431923866271973
vertex 0.10495363175869 -8.77717685699463 0.10333588719368
endloop
endfacet
facet normal 0.99997740983963 -0.00672784773632884 2.44874525133699e-16
outer loop
vertex 0.10495363175869 -8.77717685699463 0.0466641150414944
vertex 0.10495363175869 -8.77717685699463 0.10333588719368
vertex 0.101060755550861 -9.35578441619873 0.0501358434557915
endloop
endfacet
facet normal 0.99997740983963 -0.00672784773632884 2.79065830612786e-16
outer loop
vertex 0.101060755550861 -9.35578441619873 0.0998641550540924
vertex 0.101060755550861 -9.35578441619873 0.0501358434557915
vertex 0.10495363175869 -8.77717685699463 0.10333588719368
endloop
endfacet
facet normal 0.99997740983963 -0.00672784773632884 2.79065830612786e-16
outer loop
vertex 0.101060755550861 -9.35578441619873 0.0998641550540924
vertex 0.0971678793430328 -9.93439292907715 0.0963924303650856
vertex 0.101060755550861 -9.35578441619873 0.0501358434557915
endloop
endfacet
facet normal 0.999977350234985 -0.00672784773632884 -4.50256344242458e-17
outer loop
vertex 0.0971678793430328 -9.93439292907715 0.0536075718700886
vertex 0.101060755550861 -9.35578441619873 0.0501358434557915
vertex 0.0971678793430328 -9.93439292907715 0.0963924303650856
endloop
endfacet
facet normal 0.999977350234985 -0.00672784773632884 -4.50256344242458e-17
outer loop
vertex 0.0971678793430328 -9.93439292907715 0.0536075718700886
vertex 0.0971678793430328 -9.93439292907715 0.0963924303650856
vertex 0.093569815158844 -10.4691829681396 0.0568163841962814
endloop
endfacet
facet normal 0.99997740983963 -0.00672784820199013 -7.6318563226163e-16
outer loop
vertex 0.093569815158844 -10.4691829681396 0.0931836143136024
vertex 0.093569815158844 -10.4691829681396 0.0568163841962814
vertex 0.0971678793430328 -9.93439292907715 0.0963924303650856
endloop
endfacet
facet normal 0.999977350234985 -0.00672784727066755 -7.6318563226163e-16
outer loop
vertex 0.093569815158844 -10.4691829681396 0.0931836143136024
vertex 0.0913238376379013 -10.8030080795288 0.0911806225776672
vertex 0.093569815158844 -10.4691829681396 0.0568163841962814
endloop
endfacet
facet normal 0.999977350234985 -0.00672784773632884 -8.57660140247908e-16
outer loop
vertex 0.0913238376379013 -10.8030080795288 0.0588193796575069
vertex 0.093569815158844 -10.4691829681396 0.0568163841962814
vertex 0.0913238376379013 -10.8030080795288 0.0911806225776672
endloop
endfacet
facet normal 0.99997740983963 -0.00672784820199013 -8.57660140247908e-16
outer loop
vertex 0.0913238376379013 -10.8030080795288 0.0588193796575069
vertex 0.0913238376379013 -10.8030080795288 0.0911806225776672
vertex 0.0900000035762787 -10.999773979187 0.0599999986588955
endloop
endfacet
facet normal 0.999977350234985 -0.00672784773632884 0
outer loop
vertex 0.0900000035762787 -10.999773979187 0.0900000035762787
vertex 0.0900000035762787 -10.999773979187 0.0599999986588955
vertex 0.0913238376379013 -10.8030080795288 0.0911806225776672
endloop
endfacet
endsolid COMSOL mesh mesh1
