solid COMSOL mesh mesh1
facet normal -0.0645068436861038 0.997917294502258 0
outer loop
vertex 0 0 0.150000005960464
vertex 0 0 0
vertex -0.782222509384155 -0.0505640096962452 0.150000005960464
endloop
endfacet
facet normal -0.0645068436861038 0.997917294502258 -5.03863711169784e-18
outer loop
vertex -0.782222509384155 -0.0505640096962452 0
vertex -0.782222509384155 -0.0505640096962452 0.150000005960464
vertex 0 0 0
endloop
endfacet
facet normal -0.0645068362355232 0.997917294502258 -5.03863711169784e-18
outer loop
vertex -0.782222509384155 -0.0505640096962452 0
vertex -1.63177239894867 -0.105480164289474 0
vertex -0.782222509384155 -0.0505640096962452 0.150000005960464
endloop
endfacet
facet normal -0.0645068362355232 0.997917294502258 -1.65671332972146e-16
outer loop
vertex -1.63177239894867 -0.105480164289474 0.150000005960464
vertex -0.782222509384155 -0.0505640096962452 0.150000005960464
vertex -1.63177239894867 -0.105480164289474 0
endloop
endfacet
facet normal -0.0645068362355232 0.997917294502258 -1.65671332972146e-16
outer loop
vertex -1.63177239894867 -0.105480164289474 0.150000005960464
vertex -1.63177239894867 -0.105480164289474 0
vertex -2.494793176651 -0.161267101764679 0.150000005960464
endloop
endfacet
facet normal -0.0645068362355232 0.997917294502258 -1.78324986117611e-16
outer loop
vertex -2.494793176651 -0.161267101764679 0
vertex -2.494793176651 -0.161267101764679 0.150000005960464
vertex -1.63177239894867 -0.105480164289474 0
endloop
endfacet
facet normal -0.0645068362355232 0.997917294502258 -1.78324986117611e-16
outer loop
vertex -2.494793176651 -0.161267101764679 0.150000005960464
vertex -2.494793176651 -0.161267101764679 0
vertex -3.35781383514404 -0.217054024338722 0.150000005960464
endloop
endfacet
facet normal -0.0645068362355232 0.997917294502258 -3.69303585676017e-16
outer loop
vertex -3.35781383514404 -0.217054024338722 0
vertex -3.35781383514404 -0.217054024338722 0.150000005960464
vertex -2.494793176651 -0.161267101764679 0
endloop
endfacet
facet normal -0.0645068362355232 0.997917294502258 -3.69303585676017e-16
outer loop
vertex -3.35781383514404 -0.217054024338722 0
vertex -4.20736360549927 -0.271970182657242 0
vertex -3.35781383514404 -0.217054024338722 0.150000005960464
endloop
endfacet
facet normal -0.0645068362355232 0.997917294502258 -3.43996305854867e-16
outer loop
vertex -4.20736360549927 -0.271970182657242 0.150000005960464
vertex -3.35781383514404 -0.217054024338722 0.150000005960464
vertex -4.20736360549927 -0.271970182657242 0
endloop
endfacet
facet normal -0.0645068436861038 0.997917294502258 -3.43996332324647e-16
outer loop
vertex -4.20736360549927 -0.271970182657242 0.150000005960464
vertex -4.20736360549927 -0.271970182657242 0
vertex -4.989586353302 -0.322534203529358 0.150000005960464
endloop
endfacet
facet normal -0.0645068436861038 0.997917294502258 0
outer loop
vertex -4.989586353302 -0.322534203529358 0
vertex -4.989586353302 -0.322534203529358 0.150000005960464
vertex -4.20736360549927 -0.271970182657242 0
endloop
endfacet
facet normal -0.707425236701965 0.0234964210540056 0.706397473812103
outer loop
vertex -3.53466129302979 -0.228485688567162 -3.53220391273499
vertex -3.03283286094666 -0.196046769618988 -3.03072428703308
vertex -3.53383302688599 -0.0785456225275993 -3.53636169433594
endloop
endfacet
facet normal -0.707425236701965 0.0234964210540056 0.706397533416748
outer loop
vertex -3.03212237358093 -0.0673942193388939 -3.03429222106934
vertex -3.53383302688599 -0.0785456225275993 -3.53636169433594
vertex -3.03283286094666 -0.196046769618988 -3.03072428703308
endloop
endfacet
facet normal -0.707425236701965 0.0234964191913605 0.706397473812103
outer loop
vertex -3.03283286094666 -0.196046769618988 -3.03072428703308
vertex -2.52740979194641 -0.163375481963158 -2.52565288543701
vertex -3.03212237358093 -0.0673942193388939 -3.03429222106934
endloop
endfacet
facet normal -0.707425236701965 0.0234964229166508 0.706397473812103
outer loop
vertex -2.52681803703308 -0.0561629496514797 -2.52862620353699
vertex -3.03212237358093 -0.0673942193388939 -3.03429222106934
vertex -2.52740979194641 -0.163375481963158 -2.52565288543701
endloop
endfacet
facet normal -0.70742529630661 0.0234964229166508 0.706397533416748
outer loop
vertex -2.52740979194641 -0.163375481963158 -2.52565288543701
vertex -2.02192783355713 -0.130700394511223 -2.02052235603333
vertex -2.52681803703308 -0.0561629496514797 -2.52862620353699
endloop
endfacet
facet normal -0.707425236701965 0.0234964229166508 0.706397473812103
outer loop
vertex -2.02145433425903 -0.0449303612112999 -2.02290105819702
vertex -2.52681803703308 -0.0561629496514797 -2.52862620353699
vertex -2.02192783355713 -0.130700394511223 -2.02052235603333
endloop
endfacet
facet normal -0.707425236701965 0.0234964229166508 0.706397473812103
outer loop
vertex -2.02192783355713 -0.130700394511223 -2.02052235603333
vertex -1.51644587516785 -0.0980252921581268 -1.51539170742035
vertex -2.02145433425903 -0.0449303612112999 -2.02290105819702
endloop
endfacet
facet normal -0.707425236701965 0.0234964229166508 0.706397533416748
outer loop
vertex -1.51609086990356 -0.0336977690458298 -1.51717567443848
vertex -2.02145433425903 -0.0449303612112999 -2.02290105819702
vertex -1.51644587516785 -0.0980252921581268 -1.51539170742035
endloop
endfacet
facet normal -0.707425236701965 0.0234964229166508 0.706397533416748
outer loop
vertex -1.51644587516785 -0.0980252921581268 -1.51539170742035
vertex -1.01096391677856 -0.0653501972556114 -1.01026117801666
vertex -1.51609086990356 -0.0336977690458298 -1.51717567443848
endloop
endfacet
facet normal -0.707425236701965 0.0234964229166508 0.706397473812103
outer loop
vertex -1.01072716712952 -0.0224651806056499 -1.01145052909851
vertex -1.51609086990356 -0.0336977690458298 -1.51717567443848
vertex -1.01096391677856 -0.0653501972556114 -1.01026117801666
endloop
endfacet
facet normal -0.707425236701965 0.0234964229166508 0.706397473812103
outer loop
vertex -1.01096391677856 -0.0653501972556114 -1.01026117801666
vertex -0.505481958389282 -0.0326750986278057 -0.505130589008331
vertex -1.01072716712952 -0.0224651806056499 -1.01145052909851
endloop
endfacet
facet normal -0.707425236701965 0.0234964229166508 0.706397473812103
outer loop
vertex -0.505363583564758 -0.011232590302825 -0.505725264549255
vertex -1.01072716712952 -0.0224651806056499 -1.01145052909851
vertex -0.505481958389282 -0.0326750986278057 -0.505130589008331
endloop
endfacet
facet normal -0.707425236701965 0.0234964229166508 0.706397473812103
outer loop
vertex -0.505363583564758 -0.011232590302825 -0.505725264549255
vertex -0.505481958389282 -0.0326750986278057 -0.505130589008331
vertex 0 0 0
endloop
endfacet
facet normal 0.706780016422272 0.0277180094271898 -0.706890225410461
outer loop
vertex 0 0 0
vertex 0.00117561558727175 -0.0299769565463066 0
vertex -0.130506902933121 -0.00290074408985674 -0.130600288510323
endloop
endfacet
facet normal 0.706779956817627 0.0277180075645447 -0.706890225410461
outer loop
vertex -0.12915763258934 -0.037305660545826 -0.130600288510323
vertex -0.130506902933121 -0.00290074408985674 -0.130600288510323
vertex 0.00117561558727175 -0.0299769565463066 0
endloop
endfacet
facet normal 0.706779956817627 0.0277180057018995 -0.706890165805817
outer loop
vertex -0.326353371143341 -0.00725377444177866 -0.326586902141571
vertex -0.130506902933121 -0.00290074408985674 -0.130600288510323
vertex -0.324743509292603 -0.0483035519719124 -0.326586902141571
endloop
endfacet
facet normal 0.706779956817627 0.0277180075645447 -0.706890165805817
outer loop
vertex -0.12915763258934 -0.037305660545826 -0.130600288510323
vertex -0.324743509292603 -0.0483035519719124 -0.326586902141571
vertex -0.130506902933121 -0.00290074408985674 -0.130600288510323
endloop
endfacet
facet normal 0.706779956817627 0.0277180094271898 -0.706890165805817
outer loop
vertex -0.326353371143341 -0.00725377444177866 -0.326586902141571
vertex -0.324743509292603 -0.0483035519719124 -0.326586902141571
vertex -0.620252311229706 -0.0137861920520663 -0.620696127414703
endloop
endfacet
facet normal 0.706779956817627 0.0277180094271898 -0.706890225410461
outer loop
vertex -0.618251383304596 -0.0648076459765434 -0.620696127414703
vertex -0.620252311229706 -0.0137861920520663 -0.620696127414703
vertex -0.324743509292603 -0.0483035519719124 -0.326586902141571
endloop
endfacet
facet normal 0.706780016422272 0.0277180094271898 -0.706890225410461
outer loop
vertex -1.05875515937805 -0.0235326867550611 -1.05951285362244
vertex -0.620252311229706 -0.0137861920520663 -0.620696127414703
vertex -1.05617082118988 -0.0894320830702782 -1.05951285362244
endloop
endfacet
facet normal 0.706779956817627 0.0277180075645447 -0.706890165805817
outer loop
vertex -0.618251383304596 -0.0648076459765434 -0.620696127414703
vertex -1.05617082118988 -0.0894320830702782 -1.05951285362244
vertex -0.620252311229706 -0.0137861920520663 -0.620696127414703
endloop
endfacet
facet normal 0.706780016422272 0.0277180094271898 -0.706890225410461
outer loop
vertex -1.05875515937805 -0.0235326867550611 -1.05951285362244
vertex -1.05617082118988 -0.0894320830702782 -1.05951285362244
vertex -1.5550252199173 -0.0345631539821625 -1.55613791942596
endloop
endfacet
facet normal 0.706780016422272 0.0277180094271898 -0.706890225410461
outer loop
vertex -1.55178046226501 -0.11730045825243 -1.55613791942596
vertex -1.5550252199173 -0.0345631539821625 -1.55613791942596
vertex -1.05617082118988 -0.0894320830702782 -1.05951285362244
endloop
endfacet
facet normal 0.706780016422272 0.0277180094271898 -0.706890225410461
outer loop
vertex -1.5550252199173 -0.0345631539821625 -1.55613791942596
vertex -1.55178046226501 -0.11730045825243 -1.55613791942596
vertex -2.05129504203796 -0.045593623071909 -2.05276298522949
endloop
endfacet
facet normal 0.706779956817627 0.0277180075645447 -0.706890225410461
outer loop
vertex -2.04738998413086 -0.145168840885162 -2.05276298522949
vertex -2.05129504203796 -0.045593623071909 -2.05276298522949
vertex -1.55178046226501 -0.11730045825243 -1.55613791942596
endloop
endfacet
facet normal 0.706779956817627 0.0277180075645447 -0.706890165805817
outer loop
vertex -2.54299974441528 -0.173037216067314 -2.54938817024231
vertex -2.5475652217865 -0.0566240921616554 -2.54938817024231
vertex -2.04738998413086 -0.145168840885162 -2.05276298522949
endloop
endfacet
facet normal 0.706779956817627 0.0277180075645447 -0.706890225410461
outer loop
vertex -2.05129504203796 -0.045593623071909 -2.05276298522949
vertex -2.04738998413086 -0.145168840885162 -2.05276298522949
vertex -2.5475652217865 -0.0566240921616554 -2.54938817024231
endloop
endfacet
facet normal 0.706779956817627 0.0277180075645447 -0.706890165805817
outer loop
vertex -2.54299974441528 -0.173037216067314 -2.54938817024231
vertex -3.03724217414856 -0.200828731060028 -3.04464316368103
vertex -2.5475652217865 -0.0566240921616554 -2.54938817024231
endloop
endfacet
facet normal 0.706780016422272 0.0277180094271898 -0.706890225410461
outer loop
vertex -3.04246616363525 -0.0676241293549538 -3.04464316368103
vertex -2.5475652217865 -0.0566240921616554 -2.54938817024231
vertex -3.03724217414856 -0.200828731060028 -3.04464316368103
endloop
endfacet
facet normal 0.706780016422272 0.0277180094271898 -0.706890165805817
outer loop
vertex -3.03724217414856 -0.200828731060028 -3.04464316368103
vertex -3.52820944786072 -0.228436052799225 -3.53661632537842
vertex -3.04246616363525 -0.0676241293549538 -3.04464316368103
endloop
endfacet
facet normal 0.706779956817627 0.0277180094271898 -0.706890165805817
outer loop
vertex -3.53408741950989 -0.0785512775182724 -3.53661632537842
vertex -3.04246616363525 -0.0676241293549538 -3.04464316368103
vertex -3.52820944786072 -0.228436052799225 -3.53661632537842
endloop
endfacet
facet normal -0.275034964084625 -0.961434245109558 -0
outer loop
vertex -0.651040077209473 -6.57120513916016 0.0900000035762787
vertex -0.651040077209473 -6.57120513916016 0.0599999986588955
vertex -0.473520696163177 -6.62198781967163 0.0922156795859337
endloop
endfacet
facet normal -0.275034934282303 -0.961434245109558 -1.90669996338964e-14
outer loop
vertex -0.473520696163177 -6.62198781967163 0.0577843189239502
vertex -0.473520696163177 -6.62198781967163 0.0922156795859337
vertex -0.651040077209473 -6.57120513916016 0.0599999986588955
endloop
endfacet
facet normal -0.275034934282303 -0.961434185504913 -3.71640957212097e-15
outer loop
vertex -0.20712448656559 -6.69819498062134 0.0544593334197998
vertex -0.20712448656559 -6.69819498062134 0.0955406650900841
vertex -0.473520696163177 -6.62198781967163 0.0577843189239502
endloop
endfacet
facet normal -0.275034964084625 -0.961434245109558 -1.90670013279623e-14
outer loop
vertex -0.473520696163177 -6.62198781967163 0.0922156795859337
vertex -0.473520696163177 -6.62198781967163 0.0577843189239502
vertex -0.20712448656559 -6.69819498062134 0.0955406650900841
endloop
endfacet
facet normal -0.275034964084625 -0.961434245109558 -3.71640957212097e-15
outer loop
vertex -0.20712448656559 -6.69819498062134 0.0544593334197998
vertex 0.192645594477654 -6.81255626678467 0.0494696609675884
vertex -0.20712448656559 -6.69819498062134 0.0955406650900841
endloop
endfacet
facet normal -0.275034934282303 -0.961434245109558 -2.15078453500881e-14
outer loop
vertex 0.192645594477654 -6.81255626678467 0.100530341267586
vertex -0.20712448656559 -6.69819498062134 0.0955406650900841
vertex 0.192645594477654 -6.81255626678467 0.0494696609675884
endloop
endfacet
facet normal -0.275034964084625 -0.961434245109558 -1.57260712969638e-14
outer loop
vertex 0.78911030292511 -6.98318529129028 0.0420249737799168
vertex 0.78911030292511 -6.98318529129028 0.107975028455257
vertex 0.192645594477654 -6.81255626678467 0.0494696609675884
endloop
endfacet
facet normal -0.275034964084625 -0.961434245109558 -2.1507847044154e-14
outer loop
vertex 0.192645594477654 -6.81255626678467 0.100530341267586
vertex 0.192645594477654 -6.81255626678467 0.0494696609675884
vertex 0.78911030292511 -6.98318529129028 0.107975028455257
endloop
endfacet
facet normal -0.275034934282303 -0.961434185504913 -1.57260712969638e-14
outer loop
vertex 0.78911030292511 -6.98318529129028 0.0420249737799168
vertex 1.46415150165558 -7.17629241943359 0.0335995480418205
vertex 0.78911030292511 -6.98318529129028 0.107975028455257
endloop
endfacet
facet normal -0.275034964084625 -0.961434245109558 -2.21265800481678e-15
outer loop
vertex 1.46415150165558 -7.17629241943359 0.116400450468063
vertex 0.78911030292511 -6.98318529129028 0.107975028455257
vertex 1.46415150165558 -7.17629241943359 0.0335995480418205
endloop
endfacet
facet normal -0.275034964084625 -0.961434245109558 -2.21265800481678e-15
outer loop
vertex 1.46415150165558 -7.17629241943359 0.0335995480418205
vertex 2.13919281959534 -7.36940002441406 0.025174118578434
vertex 1.46415150165558 -7.17629241943359 0.116400450468063
endloop
endfacet
facet normal -0.275034934282303 -0.961434245109558 -1.34717659526799e-14
outer loop
vertex 2.13919281959534 -7.36940002441406 0.12482587993145
vertex 1.46415150165558 -7.17629241943359 0.116400450468063
vertex 2.13919281959534 -7.36940002441406 0.025174118578434
endloop
endfacet
facet normal -0.275034964084625 -0.961434245109558 4.18449818998206e-15
outer loop
vertex 2.81423401832581 -7.56250715255737 0.133251309394836
vertex 2.13919281959534 -7.36940002441406 0.12482587993145
vertex 2.81423401832581 -7.56250715255737 0.0167486909776926
endloop
endfacet
facet normal -0.275034934282303 -0.961434245109558 -1.34717659526799e-14
outer loop
vertex 2.13919281959534 -7.36940002441406 0.025174118578434
vertex 2.81423401832581 -7.56250715255737 0.0167486909776926
vertex 2.13919281959534 -7.36940002441406 0.12482587993145
endloop
endfacet
facet normal -0.275034964084625 -0.961434245109558 4.18449818998206e-15
outer loop
vertex 2.81423401832581 -7.56250715255737 0.133251309394836
vertex 2.81423401832581 -7.56250715255737 0.0167486909776926
vertex 3.48741316795349 -7.75508165359497 0.141653493046761
endloop
endfacet
facet normal -0.275034964084625 -0.961434245109558 5.3707343748103e-15
outer loop
vertex 3.48741316795349 -7.75508165359497 0.00834650546312332
vertex 3.48741316795349 -7.75508165359497 0.141653493046761
vertex 2.81423401832581 -7.56250715255737 0.0167486909776926
endloop
endfacet
facet normal -0.275034964084625 -0.961434245109558 5.3707343748103e-15
outer loop
vertex 3.48741316795349 -7.75508165359497 0.141653493046761
vertex 3.48741316795349 -7.75508165359497 0.00834650546312332
vertex 4.15613126754761 -7.94638013839722 0.150000005960464
endloop
endfacet
facet normal -0.275034964084625 -0.961434245109558 0
outer loop
vertex 4.15613126754761 -7.94638013839722 2.77555756156289e-16
vertex 4.15613126754761 -7.94638013839722 0.150000005960464
vertex 3.48741316795349 -7.75508165359497 0.00834650546312332
endloop
endfacet
facet normal 0.0321019403636456 -0.00845102034509182 0.999448895454407
outer loop
vertex -0.651040077209473 -6.57120513916016 0.0599999986588955
vertex 0.106570161879063 -6.7706503868103 0.0339793860912323
vertex -0.612852811813354 -6.4261474609375 0.0599999986588955
endloop
endfacet
facet normal 0.0321019403636456 -0.00845102034509182 0.999448895454407
outer loop
vertex 0.144757434725761 -6.62559270858765 0.0339793860912323
vertex -0.612852811813354 -6.4261474609375 0.0599999986588955
vertex 0.106570161879063 -6.7706503868103 0.0339793860912323
endloop
endfacet
facet normal 0.0321019366383553 -0.00845101941376925 0.999448895454407
outer loop
vertex 0.929389417171478 -6.98726224899292 0.00571912713348866
vertex 0.967576682567596 -6.84220457077026 0.00571912713348866
vertex 0.106570161879063 -6.7706503868103 0.0339793860912323
endloop
endfacet
facet normal 0.0321019366383553 -0.00845101941376925 0.999448895454407
outer loop
vertex 0.144757434725761 -6.62559270858765 0.0339793860912323
vertex 0.106570161879063 -6.7706503868103 0.0339793860912323
vertex 0.967576682567596 -6.84220457077026 0.00571912713348866
endloop
endfacet
facet normal 0.0321019366383553 -0.00845101848244667 0.999448835849762
outer loop
vertex 0.967576682567596 -6.84220457077026 0.00571912713348866
vertex 0.929389417171478 -6.98726224899292 0.00571912713348866
vertex 1.8034428358078 -7.06225109100342 -0.0229892376810312
endloop
endfacet
facet normal 0.0321019366383553 -0.00845101848244667 0.999448835849762
outer loop
vertex 1.76525557041168 -7.20730924606323 -0.0229892376810312
vertex 1.8034428358078 -7.06225109100342 -0.0229892376810312
vertex 0.929389417171478 -6.98726224899292 0.00571912713348866
endloop
endfacet
facet normal 0.0321019366383553 -0.00845101848244667 0.999448835849762
outer loop
vertex 1.76525557041168 -7.20730924606323 -0.0229892376810312
vertex 2.60112166404724 -7.42735576629639 -0.051697600632906
vertex 1.8034428358078 -7.06225109100342 -0.0229892376810312
endloop
endfacet
facet normal 0.0321019366383553 -0.00845101848244667 0.999448835849762
outer loop
vertex 2.63930916786194 -7.28229808807373 -0.051697600632906
vertex 1.8034428358078 -7.06225109100342 -0.0229892376810312
vertex 2.60112166404724 -7.42735576629639 -0.051697600632906
endloop
endfacet
facet normal 0.0321019366383553 -0.00845101941376925 0.999448895454407
outer loop
vertex 3.42394113540649 -7.643967628479 -0.0799578577280045
vertex 3.46212840080261 -7.49890995025635 -0.0799578577280045
vertex 2.60112166404724 -7.42735576629639 -0.051697600632906
endloop
endfacet
facet normal 0.0321019366383553 -0.00845101941376925 0.999448895454407
outer loop
vertex 2.63930916786194 -7.28229808807373 -0.051697600632906
vertex 2.60112166404724 -7.42735576629639 -0.051697600632906
vertex 3.46212840080261 -7.49890995025635 -0.0799578577280045
endloop
endfacet
facet normal 0.0321019403636456 -0.00845102034509182 0.999448895454407
outer loop
vertex 3.42394113540649 -7.643967628479 -0.0799578577280045
vertex 4.18155145645142 -7.84341287612915 -0.105978474020958
vertex 3.46212840080261 -7.49890995025635 -0.0799578577280045
endloop
endfacet
facet normal 0.0321019403636456 -0.00845102034509182 0.999448895454407
outer loop
vertex 4.21973848342896 -7.69835519790649 -0.105978474020958
vertex 3.46212840080261 -7.49890995025635 -0.0799578577280045
vertex 4.18155145645142 -7.84341287612915 -0.105978474020958
endloop
endfacet
facet normal -0.202672645449638 -0.677642583847046 -0.706911861896515
outer loop
vertex 0.0363685451447964 -6.76785039901733 0.0514221414923668
vertex -0.651040077209473 -6.57120513916016 0.0599999986588955
vertex 0.0403645411133766 -6.75321960449219 0.0362514145672321
endloop
endfacet
facet normal -0.202672645449638 -0.677642583847046 -0.706911861896515
outer loop
vertex 0.0363685451447964 -6.76785039901733 0.0514221414923668
vertex 0.0403645411133766 -6.75321960449219 0.0362514145672321
vertex 0.723777174949646 -6.96449565887451 0.0428442806005478
endloop
endfacet
facet normal -0.202672645449638 -0.677642583847046 -0.706911861896515
outer loop
vertex 0.731769144535065 -6.93523406982422 0.0125028314068913
vertex 0.723777174949646 -6.96449565887451 0.0428442806005478
vertex 0.0403645411133766 -6.75321960449219 0.0362514145672321
endloop
endfacet
facet normal -0.202672645449638 -0.677642583847046 -0.706911861896515
outer loop
vertex 0.723777174949646 -6.96449565887451 0.0428442806005478
vertex 0.731769144535065 -6.93523406982422 0.0125028314068913
vertex 1.41118574142456 -7.16114091873169 0.0342664197087288
endloop
endfacet
facet normal -0.202672645449638 -0.677642583847046 -0.706911861896515
outer loop
vertex 1.42317378520966 -7.11724805831909 -0.011245752684772
vertex 1.41118574142456 -7.16114091873169 0.0342664197087288
vertex 0.731769144535065 -6.93523406982422 0.0125028314068913
endloop
endfacet
facet normal -0.202672645449638 -0.677642583847046 -0.706911861896515
outer loop
vertex 1.41118574142456 -7.16114091873169 0.0342664197087288
vertex 1.42317378520966 -7.11724805831909 -0.011245752684772
vertex 2.09859442710876 -7.35778617858887 0.0256885606795549
endloop
endfacet
facet normal -0.202672645449638 -0.677642583847046 -0.706911861896515
outer loop
vertex 2.11457848548889 -7.29926252365112 -0.0349943377077579
vertex 2.09859442710876 -7.35778617858887 0.0256885606795549
vertex 1.42317378520966 -7.11724805831909 -0.011245752684772
endloop
endfacet
facet normal -0.202672645449638 -0.677642583847046 -0.706911861896515
outer loop
vertex 2.09859442710876 -7.35778617858887 0.0256885606795549
vertex 2.11457848548889 -7.29926252365112 -0.0349943377077579
vertex 2.78600311279297 -7.55443096160889 0.0171107016503811
endloop
endfacet
facet normal -0.202672645449638 -0.677642524242401 -0.706911861896515
outer loop
vertex 2.80598306655884 -7.48127698898315 -0.0587429217994213
vertex 2.78600311279297 -7.55443096160889 0.0171107016503811
vertex 2.11457848548889 -7.29926252365112 -0.0349943377077579
endloop
endfacet
facet normal -0.2026726603508 -0.677642583847046 -0.706911861896515
outer loop
vertex 2.78600311279297 -7.55443096160889 0.0171107016503811
vertex 2.80598306655884 -7.48127698898315 -0.0587429217994213
vertex 3.47333121299744 -7.75105333328247 0.00853384472429752
endloop
endfacet
facet normal -0.202672645449638 -0.677642524242401 -0.706911861896515
outer loop
vertex 3.49730706214905 -7.66326999664307 -0.0824887380003929
vertex 3.47333121299744 -7.75105333328247 0.00853384472429752
vertex 2.80598306655884 -7.48127698898315 -0.0587429217994213
endloop
endfacet
facet normal -0.202672645449638 -0.677642524242401 -0.70691180229187
outer loop
vertex 3.47333121299744 -7.75105333328247 0.00853384472429752
vertex 3.49730706214905 -7.66326999664307 -0.0824887380003929
vertex 4.15578508377075 -7.94628095626831 1.78130776475882e-05
endloop
endfacet
facet normal -0.202672645449638 -0.677642583847046 -0.70691180229187
outer loop
vertex 4.18372869491577 -7.84397268295288 -0.106066159904003
vertex 4.15578508377075 -7.94628095626831 1.78130776475882e-05
vertex 3.49730706214905 -7.66326999664307 -0.0824887380003929
endloop
endfacet
facet normal -0.965037107467651 0.254051566123962 0.0645068362355232
outer loop
vertex -0.651040077209473 -6.57120513916016 0.0900000035762787
vertex -0.602142095565796 -6.58407783508301 0.872222483158112
vertex -0.612852811813354 -6.4261474609375 0.0900000035762787
endloop
endfacet
facet normal -0.965037107467651 0.254051566123962 0.0645068362355232
outer loop
vertex -0.563954830169678 -6.43902015686035 0.872222483158112
vertex -0.612852811813354 -6.4261474609375 0.0900000035762787
vertex -0.602142095565796 -6.58407783508301 0.872222483158112
endloop
endfacet
facet normal -0.965037167072296 0.254051566123962 0.0645068362355232
outer loop
vertex -0.563954830169678 -6.43902015686035 0.872222483158112
vertex -0.602142095565796 -6.58407783508301 0.872222483158112
vertex -0.510848104953766 -6.45300102233887 1.72177243232727
endloop
endfacet
facet normal -0.965037167072296 0.254051566123962 0.0645068362355232
outer loop
vertex -0.549035370349884 -6.59805870056152 1.72177243232727
vertex -0.510848104953766 -6.45300102233887 1.72177243232727
vertex -0.602142095565796 -6.58407783508301 0.872222483158112
endloop
endfacet
facet normal -0.965037167072296 0.254051595926285 0.0645068362355232
outer loop
vertex -0.510848104953766 -6.45300102233887 1.72177243232727
vertex -0.549035370349884 -6.59805870056152 1.72177243232727
vertex -0.456899255514145 -6.46720314025879 2.58479309082031
endloop
endfacet
facet normal -0.965037167072296 0.254051595926285 0.0645068362355232
outer loop
vertex -0.495086520910263 -6.61226081848145 2.58479309082031
vertex -0.456899255514145 -6.46720314025879 2.58479309082031
vertex -0.549035370349884 -6.59805870056152 1.72177243232727
endloop
endfacet
facet normal -0.965037167072296 0.254051595926285 0.0645068362355232
outer loop
vertex -0.495086520910263 -6.61226081848145 2.58479309082031
vertex -0.441137731075287 -6.62646341323853 3.44781398773193
vertex -0.456899255514145 -6.46720314025879 2.58479309082031
endloop
endfacet
facet normal -0.965037167072296 0.254051595926285 0.0645068362355232
outer loop
vertex -0.402950435876846 -6.48140573501587 3.44781398773193
vertex -0.456899255514145 -6.46720314025879 2.58479309082031
vertex -0.441137731075287 -6.62646341323853 3.44781398773193
endloop
endfacet
facet normal -0.965037167072296 0.254051566123962 0.0645068362355232
outer loop
vertex -0.388030976057053 -6.64044380187988 4.29736375808716
vertex -0.349843710660934 -6.49538612365723 4.29736375808716
vertex -0.441137731075287 -6.62646341323853 3.44781398773193
endloop
endfacet
facet normal -0.965037167072296 0.254051566123962 0.0645068362355232
outer loop
vertex -0.402950435876846 -6.48140573501587 3.44781398773193
vertex -0.441137731075287 -6.62646341323853 3.44781398773193
vertex -0.349843710660934 -6.49538612365723 4.29736375808716
endloop
endfacet
facet normal -0.965037107467651 0.254051566123962 0.0645068362355232
outer loop
vertex -0.388030976057053 -6.64044380187988 4.29736375808716
vertex -0.339132994413376 -6.65331649780273 5.07958650588989
vertex -0.349843710660934 -6.49538612365723 4.29736375808716
endloop
endfacet
facet normal -0.965037107467651 0.254051566123962 0.0645068362355232
outer loop
vertex -0.300945729017258 -6.50825881958008 5.07958650588989
vertex -0.349843710660934 -6.49538612365723 4.29736375808716
vertex -0.339132994413376 -6.65331649780273 5.07958650588989
endloop
endfacet
facet normal 0.275050520896912 0.961428821086884 -0.00137205852661282
outer loop
vertex 0.0363685227930546 -6.76785039901733 0.0985797867178917
vertex -0.651040077209473 -6.57120513916016 0.0900000035762787
vertex 0.0361290462315083 -6.76775121688843 0.120030045509338
endloop
endfacet
facet normal 0.275050520896912 0.961428821086884 -0.00137205852661282
outer loop
vertex 0.0363685227930546 -6.76785039901733 0.0985797867178917
vertex 0.0361290462315083 -6.76775121688843 0.120030045509338
vertex 0.723777115345001 -6.96449565887451 0.107159577310085
endloop
endfacet
facet normal 0.275050520896912 0.961428821086884 -0.00137205852661282
outer loop
vertex 0.723298192024231 -6.9642972946167 0.150060087442398
vertex 0.723777115345001 -6.96449565887451 0.107159577310085
vertex 0.0361290462315083 -6.76775121688843 0.120030045509338
endloop
endfacet
facet normal 0.275050520896912 0.961428821086884 -0.00137205852661282
outer loop
vertex 0.723777115345001 -6.96449565887451 0.107159577310085
vertex 0.723298192024231 -6.9642972946167 0.150060087442398
vertex 1.41118574142456 -7.16114091873169 0.115739367902279
endloop
endfacet
facet normal 0.275050550699234 0.961428821086884 -0.00137205852661282
outer loop
vertex 1.41046726703644 -7.16084337234497 0.180090129375458
vertex 1.41118574142456 -7.16114091873169 0.115739367902279
vertex 0.723298192024231 -6.9642972946167 0.150060087442398
endloop
endfacet
facet normal 0.275050550699234 0.961428821086884 -0.00137205852661282
outer loop
vertex 1.41118574142456 -7.16114091873169 0.115739367902279
vertex 1.41046726703644 -7.16084337234497 0.180090129375458
vertex 2.09859442710876 -7.35778570175171 0.124319158494473
endloop
endfacet
facet normal 0.275050520896912 0.961428821086884 -0.00137205852661282
outer loop
vertex 2.09763646125793 -7.35738945007324 0.210120171308517
vertex 2.09859442710876 -7.35778570175171 0.124319158494473
vertex 1.41046726703644 -7.16084337234497 0.180090129375458
endloop
endfacet
facet normal 0.275050520896912 0.961428821086884 -0.00137205852661282
outer loop
vertex 2.09859442710876 -7.35778570175171 0.124319158494473
vertex 2.09763646125793 -7.35738945007324 0.210120171308517
vertex 2.78600287437439 -7.55443096160889 0.132898941636086
endloop
endfacet
facet normal 0.275050520896912 0.961428761482239 -0.0013720584101975
outer loop
vertex 2.78480553627014 -7.55393552780151 0.240150213241577
vertex 2.78600287437439 -7.55443096160889 0.132898941636086
vertex 2.09763646125793 -7.35738945007324 0.210120171308517
endloop
endfacet
facet normal 0.275050520896912 0.961428821086884 -0.00137205852661282
outer loop
vertex 2.78600287437439 -7.55443096160889 0.132898941636086
vertex 2.78480553627014 -7.55393552780151 0.240150213241577
vertex 3.47333121299744 -7.75105333328247 0.141477733850479
endloop
endfacet
facet normal 0.275050520896912 0.961428880691528 -0.00137205852661282
outer loop
vertex 3.47189474105835 -7.75045871734619 0.270176768302917
vertex 3.47333121299744 -7.75105333328247 0.141477733850479
vertex 2.78480553627014 -7.55393552780151 0.240150213241577
endloop
endfacet
facet normal 0.275050520896912 0.961428821086884 -0.0013720584101975
outer loop
vertex 3.47333121299744 -7.75105333328247 0.141477733850479
vertex 3.47189474105835 -7.75045871734619 0.270176768302917
vertex 4.15578508377075 -7.94628095626831 0.149995684623718
endloop
endfacet
facet normal 0.275050520896912 0.961428761482239 -0.0013720584101975
outer loop
vertex 4.1541109085083 -7.94558811187744 0.299990385770798
vertex 4.15578508377075 -7.94628095626831 0.149995684623718
vertex 3.47189474105835 -7.75045871734619 0.270176768302917
endloop
endfacet
facet normal 0.153156653046608 0.690655589103699 -0.706780016422272
outer loop
vertex -0.612852811813354 -6.4261474609375 0.0900000035762787
vertex -0.576799154281616 -6.30058908462524 0.220506906509399
vertex -0.58386355638504 -6.43377923965454 0.0888243839144707
endloop
endfacet
facet normal 0.153156653046608 0.690655529499054 -0.706779956817627
outer loop
vertex -0.543527841567993 -6.30934762954712 0.219157636165619
vertex -0.58386355638504 -6.43377923965454 0.0888243839144707
vertex -0.576799154281616 -6.30058908462524 0.220506906509399
endloop
endfacet
facet normal 0.153156653046608 0.690655529499054 -0.706780016422272
outer loop
vertex -0.522694945335388 -6.1121678352356 0.41635337471962
vertex -0.482997715473175 -6.12261867523193 0.414743512868881
vertex -0.576799154281616 -6.30058908462524 0.220506906509399
endloop
endfacet
facet normal 0.153156638145447 0.690655529499054 -0.706779956817627
outer loop
vertex -0.543527841567993 -6.30934762954712 0.219157636165619
vertex -0.576799154281616 -6.30058908462524 0.220506906509399
vertex -0.482997715473175 -6.12261867523193 0.414743512868881
endloop
endfacet
facet normal 0.153156653046608 0.690655529499054 -0.706779956817627
outer loop
vertex -0.522694945335388 -6.1121678352356 0.41635337471962
vertex -0.441502898931503 -5.82941246032715 0.710252285003662
vertex -0.482997715473175 -6.12261867523193 0.414743512868881
endloop
endfacet
facet normal 0.153156653046608 0.690655529499054 -0.706779956817627
outer loop
vertex -0.392162531614304 -5.8424015045166 0.708251357078552
vertex -0.482997715473175 -6.12261867523193 0.414743512868881
vertex -0.441502898931503 -5.82941246032715 0.710252285003662
endloop
endfacet
facet normal 0.153156653046608 0.690655529499054 -0.706780016422272
outer loop
vertex -0.32036280632019 -5.40753555297852 1.14875519275665
vertex -0.256634712219238 -5.42431211471558 1.14617085456848
vertex -0.441502898931503 -5.82941246032715 0.710252285003662
endloop
endfacet
facet normal 0.153156653046608 0.690655589103699 -0.706779956817627
outer loop
vertex -0.392162531614304 -5.8424015045166 0.708251357078552
vertex -0.441502898931503 -5.82941246032715 0.710252285003662
vertex -0.256634712219238 -5.42431211471558 1.14617085456848
endloop
endfacet
facet normal 0.153156638145447 0.690655529499054 -0.706779956817627
outer loop
vertex -0.32036280632019 -5.40753555297852 1.14875519275665
vertex -0.183264061808586 -4.93008136749268 1.64502513408661
vertex -0.256634712219238 -5.42431211471558 1.14617085456848
endloop
endfacet
facet normal 0.153156653046608 0.690655529499054 -0.706779956817627
outer loop
vertex -0.103252843022346 -4.95114517211914 1.64178037643433
vertex -0.256634712219238 -5.42431211471558 1.14617085456848
vertex -0.183264061808586 -4.93008136749268 1.64502513408661
endloop
endfacet
facet normal 0.153156653046608 0.690655529499054 -0.706779956817627
outer loop
vertex -0.183264061808586 -4.93008136749268 1.64502513408661
vertex -0.0461653135716915 -4.45262765884399 2.14129519462585
vertex -0.103252843022346 -4.95114517211914 1.64178037643433
endloop
endfacet
facet normal 0.153156638145447 0.690655529499054 -0.706779956817627
outer loop
vertex 0.0501290261745453 -4.47797775268555 2.13739013671875
vertex -0.103252843022346 -4.95114517211914 1.64178037643433
vertex -0.0461653135716915 -4.45262765884399 2.14129519462585
endloop
endfacet
facet normal 0.153156653046608 0.690655529499054 -0.706779956817627
outer loop
vertex 0.203510895371437 -4.00481081008911 2.63299965858459
vertex 0.0501290261745453 -4.47797775268555 2.13739013671875
vertex 0.0909334346652031 -3.97517395019531 2.63756513595581
endloop
endfacet
facet normal 0.153156638145447 0.690655529499054 -0.706779956817627
outer loop
vertex -0.0461653135716915 -4.45262765884399 2.14129519462585
vertex 0.0909334346652031 -3.97517395019531 2.63756513595581
vertex 0.0501290261745453 -4.47797775268555 2.13739013671875
endloop
endfacet
facet normal 0.153156667947769 0.690655589103699 -0.706780016422272
outer loop
vertex 0.203510895371437 -4.00481081008911 2.63299965858459
vertex 0.0909334346652031 -3.97517395019531 2.63756513595581
vertex 0.356469660997391 -3.53294897079468 3.12724208831787
endloop
endfacet
facet normal 0.153156667947769 0.690655589103699 -0.706780016422272
outer loop
vertex 0.227653980255127 -3.49903750419617 3.13246607780457
vertex 0.356469660997391 -3.53294897079468 3.12724208831787
vertex 0.0909334346652031 -3.97517395019531 2.63756513595581
endloop
endfacet
facet normal 0.153156653046608 0.690655529499054 -0.706780016422272
outer loop
vertex 0.356469660997391 -3.53294897079468 3.12724208831787
vertex 0.227653980255127 -3.49903750419617 3.13246607780457
vertex 0.508414745330811 -3.06421399116516 3.61820936203003
endloop
endfacet
facet normal 0.153156638145447 0.690655589103699 -0.706779956817627
outer loop
vertex 0.363468497991562 -3.02605605125427 3.6240873336792
vertex 0.508414745330811 -3.06421399116516 3.61820936203003
vertex 0.227653980255127 -3.49903750419617 3.13246607780457
endloop
endfacet
facet normal -0.20255820453167 -0.677140831947327 0.707425236701965
outer loop
vertex -0.473241865634918 -5.93994474411011 0.595363616943359
vertex -0.612852811813354 -6.4261474609375 0.0900000035762787
vertex -0.452657252550125 -5.94597911834717 0.595481991767883
endloop
endfacet
facet normal -0.20255820453167 -0.677140831947327 0.707425236701965
outer loop
vertex -0.473241865634918 -5.93994474411011 0.595363616943359
vertex -0.452657252550125 -5.94597911834717 0.595481991767883
vertex -0.333630949258804 -5.45374250411987 1.10072720050812
endloop
endfacet
facet normal -0.20255820453167 -0.677140831947327 0.707425236701965
outer loop
vertex -0.292461723089218 -5.46581029891968 1.10096395015717
vertex -0.333630949258804 -5.45374250411987 1.10072720050812
vertex -0.452657252550125 -5.94597911834717 0.595481991767883
endloop
endfacet
facet normal -0.20255820453167 -0.677140831947327 0.707425236701965
outer loop
vertex -0.333630949258804 -5.45374250411987 1.10072720050812
vertex -0.292461723089218 -5.46581029891968 1.10096395015717
vertex -0.194020003080368 -4.96753978729248 1.60609078407288
endloop
endfacet
facet normal -0.20255820453167 -0.677140831947327 0.707425236701965
outer loop
vertex -0.13226617872715 -4.98564147949219 1.60644590854645
vertex -0.194020003080368 -4.96753978729248 1.60609078407288
vertex -0.292461723089218 -5.46581029891968 1.10096395015717
endloop
endfacet
facet normal -0.20255820453167 -0.677140831947327 0.707425236701965
outer loop
vertex -0.194020003080368 -4.96753978729248 1.60609078407288
vertex -0.13226617872715 -4.98564147949219 1.60644590854645
vertex -0.0544090606272221 -4.48133707046509 2.11145448684692
endloop
endfacet
facet normal -0.20255820453167 -0.677140831947327 0.707425236701965
outer loop
vertex 0.0279293693602085 -4.50547313690186 2.11192798614502
vertex -0.0544090606272221 -4.48133707046509 2.11145448684692
vertex -0.13226617872715 -4.98564147949219 1.60644590854645
endloop
endfacet
facet normal -0.20255820453167 -0.677140831947327 0.707425236701965
outer loop
vertex -0.0544090606272221 -4.48133707046509 2.11145448684692
vertex 0.0279293693602085 -4.50547313690186 2.11192798614502
vertex 0.0852018743753433 -3.99513459205627 2.61681795120239
endloop
endfacet
facet normal -0.202558189630508 -0.677140772342682 0.707425236701965
outer loop
vertex 0.188124909996986 -4.02530431747437 2.6174099445343
vertex 0.0852018743753433 -3.99513459205627 2.61681795120239
vertex 0.0279293693602085 -4.50547313690186 2.11192798614502
endloop
endfacet
facet normal -0.202558189630508 -0.677140831947327 0.707425236701965
outer loop
vertex 0.0852018743753433 -3.99513459205627 2.61681795120239
vertex 0.188124909996986 -4.02530431747437 2.6174099445343
vertex 0.224796429276466 -3.50898885726929 3.12212228775024
endloop
endfacet
facet normal -0.202558174729347 -0.677140772342682 0.707425236701965
outer loop
vertex 0.348301738500595 -3.54519176483154 3.12283277511597
vertex 0.224796429276466 -3.50898885726929 3.12212228775024
vertex 0.188124909996986 -4.02530431747437 2.6174099445343
endloop
endfacet
facet normal -0.20255820453167 -0.677140831947327 0.707425236701965
outer loop
vertex 0.224796429276466 -3.50898885726929 3.12212228775024
vertex 0.348301738500595 -3.54519176483154 3.12283277511597
vertex 0.363398224115372 -3.02630066871643 3.6238329410553
endloop
endfacet
facet normal -0.20255820453167 -0.677140831947327 0.70742529630661
outer loop
vertex 0.507339417934418 -3.06849360466003 3.6246612071991
vertex 0.363398224115372 -3.02630066871643 3.6238329410553
vertex 0.348301738500595 -3.54519176483154 3.12283277511597
endloop
endfacet
facet normal 0.00137205852661282 -0.0212256703525782 -0.999773800373077
outer loop
vertex -0.209990367293358 -4.99672031402588 0.255794554948807
vertex -0.180176764726639 -4.28730583190918 0.240774258971214
vertex -0.0599956810474396 -4.99851560592651 0.256038516759872
endloop
endfacet
facet normal 0.0013720584101975 -0.021225668489933 -0.999773800373077
outer loop
vertex -0.0514777339994907 -4.28884601593018 0.240983575582504
vertex -0.0599956810474396 -4.99851560592651 0.256038516759872
vertex -0.180176764726639 -4.28730583190918 0.240774258971214
endloop
endfacet
facet normal 0.00137205852661282 -0.021225668489933 -0.999773800373077
outer loop
vertex -0.180176764726639 -4.28730583190918 0.240774258971214
vertex -0.15015022456646 -3.57282400131226 0.225646674633026
vertex -0.0514777339994907 -4.28884601593018 0.240983575582504
endloop
endfacet
facet normal 0.00137205852661282 -0.0212256703525782 -0.999773800373077
outer loop
vertex -0.0428989455103874 -3.5741081237793 0.225821122527122
vertex -0.0514777339994907 -4.28884601593018 0.240983575582504
vertex -0.15015022456646 -3.57282400131226 0.225646674633026
endloop
endfacet
facet normal 0.0013720584101975 -0.021225668489933 -0.999773740768433
outer loop
vertex -0.15015022456646 -3.57282400131226 0.225646674633026
vertex -0.120120175182819 -2.8582592010498 0.210517346858978
vertex -0.0428989455103874 -3.5741081237793 0.225821122527122
endloop
endfacet
facet normal 0.0013720584101975 -0.021225668489933 -0.999773740768433
outer loop
vertex -0.0343191586434841 -2.85928654670715 0.210656896233559
vertex -0.0428989455103874 -3.5741081237793 0.225821122527122
vertex -0.120120175182819 -2.8582592010498 0.210517346858978
endloop
endfacet
facet normal 0.0013720584101975 -0.021225668489933 -0.999773740768433
outer loop
vertex -0.120120175182819 -2.8582592010498 0.210517346858978
vertex -0.0900901332497597 -2.14369440078735 0.195388004183769
vertex -0.0343191586434841 -2.85928654670715 0.210656896233559
endloop
endfacet
facet normal 0.0013720584101975 -0.021225668489933 -0.999773740768433
outer loop
vertex -0.0257393680512905 -2.14446496963501 0.195492684841156
vertex -0.0343191586434841 -2.85928654670715 0.210656896233559
vertex -0.0900901332497597 -2.14369440078735 0.195388004183769
endloop
endfacet
facet normal 0.0013720584101975 -0.021225668489933 -0.999773740768433
outer loop
vertex -0.0900901332497597 -2.14369440078735 0.195388004183769
vertex -0.0600600875914097 -1.4291296005249 0.180258676409721
vertex -0.0257393680512905 -2.14446496963501 0.195492684841156
endloop
endfacet
facet normal 0.0013720584101975 -0.021225668489933 -0.999773740768433
outer loop
vertex -0.0171595793217421 -1.42964327335358 0.180328458547592
vertex -0.0257393680512905 -2.14446496963501 0.195492684841156
vertex -0.0600600875914097 -1.4291296005249 0.180258676409721
endloop
endfacet
facet normal 0.0013720584101975 -0.021225668489933 -0.999773740768433
outer loop
vertex -0.0600600875914097 -1.4291296005249 0.180258676409721
vertex -0.0300300437957048 -0.714564800262451 0.165129333734512
vertex -0.0171595793217421 -1.42964327335358 0.180328458547592
endloop
endfacet
facet normal 0.0013720584101975 -0.021225668489933 -0.999773740768433
outer loop
vertex -0.00857978966087103 -0.714821636676788 0.165164232254028
vertex -0.0171595793217421 -1.42964327335358 0.180328458547592
vertex -0.0300300437957048 -0.714564800262451 0.165129333734512
endloop
endfacet
facet normal 0.0013720584101975 -0.021225668489933 -0.999773740768433
outer loop
vertex -0.00857978966087103 -0.714821636676788 0.165164232254028
vertex -0.0300300437957048 -0.714564800262451 0.165129333734512
vertex 0 0 0.150000005960464
endloop
endfacet
facet normal -1 0 0
outer loop
vertex -0.166069999337196 -5 0
vertex -0.166069999337196 -6 0
vertex -0.166069999337196 -5 0.150000005960464
endloop
endfacet
facet normal -1 0 0
outer loop
vertex -0.166069999337196 -6 0.150000005960464
vertex -0.166069999337196 -5 0.150000005960464
vertex -0.166069999337196 -6 0
endloop
endfacet
facet normal -0.707106828689575 -0 -0.707106828689575
outer loop
vertex -0.166069999337196 -5 0
vertex -0.0599999986588955 -5 -0.106069996953011
vertex -0.166069999337196 -6 0
endloop
endfacet
facet normal -0.707106828689575 0 -0.707106828689575
outer loop
vertex -0.0599999986588955 -6 -0.106069996953011
vertex -0.166069999337196 -6 0
vertex -0.0599999986588955 -5 -0.106069996953011
endloop
endfacet
facet normal -0.707106828689575 0 0.707106828689575
outer loop
vertex -0.0599999986588955 -6 0.256069988012314
vertex -0.0599999986588955 -5 0.256069988012314
vertex -0.166069999337196 -6 0.150000005960464
endloop
endfacet
facet normal -0.707106828689575 0 0.707106828689575
outer loop
vertex -0.166069999337196 -5 0.150000005960464
vertex -0.166069999337196 -6 0.150000005960464
vertex -0.0599999986588955 -5 0.256069988012314
endloop
endfacet
facet normal 0 0 -1
outer loop
vertex -0.0599999986588955 -5 -0.106069996953011
vertex 0.0900000035762787 -5 -0.106069996953011
vertex -0.0599999986588955 -6 -0.106069996953011
endloop
endfacet
facet normal 0 0 -1
outer loop
vertex 0.0900000035762787 -6 -0.106069996953011
vertex -0.0599999986588955 -6 -0.106069996953011
vertex 0.0900000035762787 -5 -0.106069996953011
endloop
endfacet
facet normal 0 -0 1
outer loop
vertex 0.0900000035762787 -6 0.256069988012314
vertex 0.0900000035762787 -5 0.256069988012314
vertex -0.0599999986588955 -6 0.256069988012314
endloop
endfacet
facet normal -0 0 1
outer loop
vertex -0.0599999986588955 -5 0.256069988012314
vertex -0.0599999986588955 -6 0.256069988012314
vertex 0.0900000035762787 -5 0.256069988012314
endloop
endfacet
facet normal 0.707106828689575 0 -0.707106828689575
outer loop
vertex 0.0900000035762787 -5 -0.106069996953011
vertex 0.196070000529289 -5 0
vertex 0.0900000035762787 -6 -0.106069996953011
endloop
endfacet
facet normal 0.707106828689575 0 -0.707106828689575
outer loop
vertex 0.196070000529289 -6 0
vertex 0.0900000035762787 -6 -0.106069996953011
vertex 0.196070000529289 -5 0
endloop
endfacet
facet normal 0.707106828689575 -0 0.707106828689575
outer loop
vertex 0.196070000529289 -6 0.150000005960464
vertex 0.196070000529289 -5 0.150000005960464
vertex 0.0900000035762787 -6 0.256069988012314
endloop
endfacet
facet normal 0.707106828689575 0 0.707106828689575
outer loop
vertex 0.0900000035762787 -5 0.256069988012314
vertex 0.0900000035762787 -6 0.256069988012314
vertex 0.196070000529289 -5 0.150000005960464
endloop
endfacet
facet normal 1 0 0
outer loop
vertex 0.196070000529289 -6 0
vertex 0.196070000529289 -5 0
vertex 0.196070000529289 -6 0.150000005960464
endloop
endfacet
facet normal 1 0 0
outer loop
vertex 0.196070000529289 -5 0.150000005960464
vertex 0.196070000529289 -6 0.150000005960464
vertex 0.196070000529289 -5 0
endloop
endfacet
facet normal -0 0.0212092287838459 0.999775052070618
outer loop
vertex -0.0599999986588955 -4.9988751411438 0.256046146154404
vertex 0.0900000035762787 -4.9988751411438 0.256046146154404
vertex -0.0516534931957722 -4.30348968505859 0.241294234991074
endloop
endfacet
facet normal 2.16927202434635e-16 0.0212092287838459 0.999775111675262
outer loop
vertex 0.0816534981131554 -4.30348968505859 0.241294234991074
vertex -0.0516534931957722 -4.30348968505859 0.241294234991074
vertex 0.0900000035762787 -4.9988751411438 0.256046146154404
endloop
endfacet
facet normal 2.16927189199745e-16 0.0212092287838459 0.999775052070618
outer loop
vertex 0.0816534981131554 -4.30348968505859 0.241294234991074
vertex 0.0732513070106506 -3.60346508026123 0.226443901658058
vertex -0.0516534931957722 -4.30348968505859 0.241294234991074
endloop
endfacet
facet normal 1.52988033673528e-16 0.0212092269212008 0.999775052070618
outer loop
vertex -0.043251309543848 -3.60346508026123 0.226443901658058
vertex -0.0516534931957722 -4.30348968505859 0.241294234991074
vertex 0.0732513070106506 -3.60346508026123 0.226443901658058
endloop
endfacet
facet normal 1.52988033673528e-16 0.0212092269212008 0.999774992465973
outer loop
vertex -0.043251309543848 -3.60346508026123 0.226443901658058
vertex 0.0732513070106506 -3.60346508026123 0.226443901658058
vertex -0.0348258800804615 -2.9015040397644 0.211552500724792
endloop
endfacet
facet normal 2.78463034321917e-16 0.0212092269212008 0.999774992465973
outer loop
vertex 0.0648258775472641 -2.9015040397644 0.211552500724792
vertex -0.0348258800804615 -2.9015040397644 0.211552500724792
vertex 0.0732513070106506 -3.60346508026123 0.226443901658058
endloop
endfacet
facet normal 2.78463034321917e-16 0.0212092269212008 0.999774992465973
outer loop
vertex 0.0648258775472641 -2.9015040397644 0.211552500724792
vertex 0.0564004518091679 -2.19954299926758 0.196661099791527
vertex -0.0348258800804615 -2.9015040397644 0.211552500724792
endloop
endfacet
facet normal -3.35133191322815e-16 0.0212092269212008 0.999775111675262
outer loop
vertex -0.0264004524797201 -2.19954299926758 0.196661099791527
vertex -0.0348258800804615 -2.9015040397644 0.211552500724792
vertex 0.0564004518091679 -2.19954299926758 0.196661099791527
endloop
endfacet
facet normal -3.35133191322815e-16 0.0212092269212008 0.999775111675262
outer loop
vertex -0.0264004524797201 -2.19954299926758 0.196661099791527
vertex 0.0564004518091679 -2.19954299926758 0.196661099791527
vertex -0.0179750248789787 -1.49758183956146 0.181769698858261
endloop
endfacet
facet normal 2.06537377189606e-16 0.0212092306464911 0.999775111675262
outer loop
vertex 0.0479750260710716 -1.49758183956146 0.181769698858261
vertex -0.0179750248789787 -1.49758183956146 0.181769698858261
vertex 0.0564004518091679 -2.19954299926758 0.196661099791527
endloop
endfacet
facet normal 2.06537337484936e-16 0.0212092287838459 0.999775111675262
outer loop
vertex 0.0479750260710716 -1.49758183956146 0.181769698858261
vertex 0.0405303388834 -0.877330839633942 0.168611690402031
vertex -0.0179750248789787 -1.49758183956146 0.181769698858261
endloop
endfacet
facet normal -6.45619470885983e-16 0.0212092306464911 0.999775171279907
outer loop
vertex -0.0105303386226296 -0.877330839633942 0.168611690402031
vertex -0.0179750248789787 -1.49758183956146 0.181769698858261
vertex 0.0405303388834 -0.877330839633942 0.168611690402031
endloop
endfacet
facet normal -6.45619365006864e-16 0.0212092287838459 0.999775052070618
outer loop
vertex -0.0105303386226296 -0.877330839633942 0.168611690402031
vertex 0.0405303388834 -0.877330839633942 0.168611690402031
vertex -0.00554066710174084 -0.461618393659592 0.159792765974998
endloop
endfacet
facet normal -4.29884520264167e-16 0.0212092287838459 0.999775052070618
outer loop
vertex 0.0355406664311886 -0.461618393659592 0.159792765974998
vertex -0.00554066710174084 -0.461618393659592 0.159792765974998
vertex 0.0405303388834 -0.877330839633942 0.168611690402031
endloop
endfacet
facet normal -4.29884520264167e-16 0.0212092269212008 0.999775111675262
outer loop
vertex 0.0355406664311886 -0.461618393659592 0.159792765974998
vertex 0.0322156809270382 -0.18459863960743 0.153916075825691
vertex -0.00554066710174084 -0.461618393659592 0.159792765974998
endloop
endfacet
facet normal -9.74531205211215e-16 0.0212092287838459 0.999775111675262
outer loop
vertex -0.00221568206325173 -0.18459863960743 0.153916075825691
vertex -0.00554066710174084 -0.461618393659592 0.159792765974998
vertex 0.0322156809270382 -0.18459863960743 0.153916075825691
endloop
endfacet
facet normal -9.74531205211215e-16 0.0212092287838459 0.999775052070618
outer loop
vertex -0.00221568206325173 -0.18459863960743 0.153916075825691
vertex 0.0322156809270382 -0.18459863960743 0.153916075825691
vertex 0 0 0.150000005960464
endloop
endfacet
facet normal 0 0.0212092269212008 0.999775052070618
outer loop
vertex 0.0299999993294477 0 0.150000005960464
vertex 0 0 0.150000005960464
vertex 0.0322156809270382 -0.18459863960743 0.153916075825691
endloop
endfacet
facet normal -0.999448895454407 -0.0331956967711449 0
outer loop
vertex 0.195978477597237 -4.99724435806274 0
vertex 0.195978477597237 -4.99724435806274 0.150000005960464
vertex 0.169957861304283 -4.21382141113281 0
endloop
endfacet
facet normal -0.999448895454407 -0.0331956967711449 1.16228074312112e-17
outer loop
vertex 0.169957861304283 -4.21382141113281 0.150000005960464
vertex 0.169957861304283 -4.21382141113281 0
vertex 0.195978477597237 -4.99724435806274 0.150000005960464
endloop
endfacet
facet normal -0.999448895454407 -0.0331956967711449 1.16228074312112e-17
outer loop
vertex 0.169957861304283 -4.21382141113281 0.150000005960464
vertex 0.141697600483894 -3.3629674911499 0.150000005960464
vertex 0.169957861304283 -4.21382141113281 0
endloop
endfacet
facet normal -0.999448895454407 -0.0331956967711449 8.66561953597738e-17
outer loop
vertex 0.141697600483894 -3.3629674911499 0
vertex 0.169957861304283 -4.21382141113281 0
vertex 0.141697600483894 -3.3629674911499 0.150000005960464
endloop
endfacet
facet normal -0.999448835849762 -0.0331956893205643 8.6656182124884e-17
outer loop
vertex 0.141697600483894 -3.3629674911499 0.150000005960464
vertex 0.112989239394665 -2.49862217903137 0.150000005960464
vertex 0.141697600483894 -3.3629674911499 0
endloop
endfacet
facet normal -0.999448835849762 -0.0331956893205643 2.71591373658198e-16
outer loop
vertex 0.112989239394665 -2.49862217903137 0
vertex 0.141697600483894 -3.3629674911499 0
vertex 0.112989239394665 -2.49862217903137 0.150000005960464
endloop
endfacet
facet normal -0.999448835849762 -0.0331956893205643 2.71591373658198e-16
outer loop
vertex 0.112989239394665 -2.49862217903137 0
vertex 0.112989239394665 -2.49862217903137 0.150000005960464
vertex 0.0842808708548546 -1.63427686691284 0
endloop
endfacet
facet normal -0.999448835849762 -0.0331956893205643 8.6656182124884e-17
outer loop
vertex 0.0842808708548546 -1.63427686691284 0.150000005960464
vertex 0.0842808708548546 -1.63427686691284 0
vertex 0.112989239394665 -2.49862217903137 0.150000005960464
endloop
endfacet
facet normal -0.999448895454407 -0.0331956967711449 -2.9057018578028e-18
outer loop
vertex 0.0560206137597561 -0.783423066139221 0
vertex 0.0842808708548546 -1.63427686691284 0
vertex 0.0560206137597561 -0.783423066139221 0.150000005960464
endloop
endfacet
facet normal -0.999448895454407 -0.0331956967711449 8.66561953597738e-17
outer loop
vertex 0.0842808708548546 -1.63427686691284 0.150000005960464
vertex 0.0560206137597561 -0.783423066139221 0.150000005960464
vertex 0.0842808708548546 -1.63427686691284 0
endloop
endfacet
facet normal -0.999448895454407 -0.0331956967711449 -2.9057018578028e-18
outer loop
vertex 0.0560206137597561 -0.783423066139221 0
vertex 0.0560206137597561 -0.783423066139221 0.150000005960464
vertex 0.0299999993294477 0 0
endloop
endfacet
facet normal -0.999448895454407 -0.0331956967711449 -0
outer loop
vertex 0.0299999993294477 0 0.150000005960464
vertex 0.0299999993294477 0 0
vertex 0.0560206137597561 -0.783423066139221 0.150000005960464
endloop
endfacet
facet normal 0.706911861896515 0.0234793704003096 0.706911861896515
outer loop
vertex 0.196066156029701 -4.99949216842651 0.149986982345581
vertex 0.172488734126091 -4.2896842956543 0.149988830089569
vertex 0.0899821892380714 -4.99851560592651 0.256038516759872
endloop
endfacet
facet normal 0.70691180229187 0.0234793685376644 0.70691180229187
outer loop
vertex 0.0814661532640457 -4.28884649276733 0.240983590483665
vertex 0.0899821892380714 -4.99851560592651 0.256038516759872
vertex 0.172488734126091 -4.2896842956543 0.149988830089569
endloop
endfacet
facet normal 0.706911861896515 0.0234793685376644 0.706911861896515
outer loop
vertex 0.172488734126091 -4.2896842956543 0.149988830089569
vertex 0.148742914199829 -3.57480621337891 0.149990692734718
vertex 0.0814661532640457 -4.28884649276733 0.240983590483665
endloop
endfacet
facet normal 0.70691180229187 0.0234793685376644 0.70691180229187
outer loop
vertex 0.0728892982006073 -3.5741081237793 0.225821137428284
vertex 0.0814661532640457 -4.28884649276733 0.240983590483665
vertex 0.148742914199829 -3.57480621337891 0.149990692734718
endloop
endfacet
facet normal 0.706911861896515 0.0234793704003096 0.706911861896515
outer loop
vertex 0.148742914199829 -3.57480621337891 0.149990692734718
vertex 0.124994337558746 -2.85984492301941 0.149992555379868
vertex 0.0728892982006073 -3.5741081237793 0.225821137428284
endloop
endfacet
facet normal 0.706911861896515 0.0234793704003096 0.706911861896515
outer loop
vertex 0.0643114373087883 -2.85928654670715 0.21065691113472
vertex 0.0728892982006073 -3.5741081237793 0.225821137428284
vertex 0.124994337558746 -2.85984492301941 0.149992555379868
endloop
endfacet
facet normal 0.706911861896515 0.0234793704003096 0.706911861896515
outer loop
vertex 0.124994337558746 -2.85984492301941 0.149992555379868
vertex 0.101245753467083 -2.14488363265991 0.149994418025017
vertex 0.0643114373087883 -2.85928654670715 0.21065691113472
endloop
endfacet
facet normal 0.706911861896515 0.0234793704003096 0.706911861896515
outer loop
vertex 0.0557335801422596 -2.14446496963501 0.195492684841156
vertex 0.0643114373087883 -2.85928654670715 0.21065691113472
vertex 0.101245753467083 -2.14488363265991 0.149994418025017
endloop
endfacet
facet normal 0.706911861896515 0.0234793704003096 0.706911861896515
outer loop
vertex 0.101245753467083 -2.14488363265991 0.149994418025017
vertex 0.0774971693754196 -1.4299224615097 0.149996280670166
vertex 0.0557335801422596 -2.14446496963501 0.195492684841156
endloop
endfacet
facet normal 0.706911861896515 0.0234793704003096 0.706911861896515
outer loop
vertex 0.0471557192504406 -1.42964327335358 0.180328458547592
vertex 0.0557335801422596 -2.14446496963501 0.195492684841156
vertex 0.0774971693754196 -1.4299224615097 0.149996280670166
endloop
endfacet
facet normal 0.706911861896515 0.0234793704003096 0.706911861896515
outer loop
vertex 0.0774971693754196 -1.4299224615097 0.149996280670166
vertex 0.0537485852837563 -0.714961230754852 0.149998143315315
vertex 0.0471557192504406 -1.42964327335358 0.180328458547592
endloop
endfacet
facet normal 0.706911861896515 0.0234793704003096 0.706911861896515
outer loop
vertex 0.0385778583586216 -0.714821636676788 0.165164232254028
vertex 0.0471557192504406 -1.42964327335358 0.180328458547592
vertex 0.0537485852837563 -0.714961230754852 0.149998143315315
endloop
endfacet
facet normal 0.706911861896515 0.0234793704003096 0.706911861896515
outer loop
vertex 0.0385778583586216 -0.714821636676788 0.165164232254028
vertex 0.0537485852837563 -0.714961230754852 0.149998143315315
vertex 0.0299999993294477 0 0.150000005960464
endloop
endfacet
facet normal 0.706911861896515 0.0234793704003096 -0.706911861896515
outer loop
vertex 0.219714522361755 -5.71188402175903 0
vertex 0.204558327794075 -5.7123875617981 -0.0151729080826044
vertex 0.195978477597237 -4.99724435806274 0
endloop
endfacet
facet normal 0.706911861896515 0.0234793704003096 -0.706911861896515
outer loop
vertex 0.219714522361755 -5.71188402175903 0
vertex 0.243450567126274 -6.42652416229248 0
vertex 0.204558327794075 -5.7123875617981 -0.0151729080826044
endloop
endfacet
facet normal 0.706911861896515 0.0234793704003096 -0.706911861896515
outer loop
vertex 0.213138192892075 -6.42753076553345 -0.0303458161652088
vertex 0.204558327794075 -5.7123875617981 -0.0151729080826044
vertex 0.243450567126274 -6.42652416229248 0
endloop
endfacet
facet normal 0.706911861896515 0.0234793704003096 -0.706911861896515
outer loop
vertex 0.243450567126274 -6.42652416229248 0
vertex 0.267186611890793 -7.14116382598877 0
vertex 0.213138192892075 -6.42753076553345 -0.0303458161652088
endloop
endfacet
facet normal 0.706911861896515 0.0234793704003096 -0.706911861896515
outer loop
vertex 0.221718043088913 -7.1426739692688 -0.0455187261104584
vertex 0.213138192892075 -6.42753076553345 -0.0303458161652088
vertex 0.267186611890793 -7.14116382598877 0
endloop
endfacet
facet normal 0.706911861896515 0.0234793704003096 -0.706911861896515
outer loop
vertex 0.267186611890793 -7.14116382598877 0
vertex 0.290922671556473 -7.85580396652222 0
vertex 0.221718043088913 -7.1426739692688 -0.0455187261104584
endloop
endfacet
facet normal 0.706911861896515 0.0234793704003096 -0.706911861896515
outer loop
vertex 0.230297893285751 -7.85781717300415 -0.0606916323304176
vertex 0.221718043088913 -7.1426739692688 -0.0455187261104584
vertex 0.290922671556473 -7.85580396652222 0
endloop
endfacet
facet normal 0.706911861896515 0.0234793704003096 -0.706911861896515
outer loop
vertex 0.290922671556473 -7.85580396652222 0
vertex 0.31465870141983 -8.57044315338135 0
vertex 0.230297893285751 -7.85781717300415 -0.0606916323304176
endloop
endfacet
facet normal 0.706911861896515 0.0234793704003096 -0.706911861896515
outer loop
vertex 0.238877758383751 -8.57295989990234 -0.0758645385503769
vertex 0.230297893285751 -7.85781717300415 -0.0606916323304176
vertex 0.31465870141983 -8.57044315338135 0
endloop
endfacet
facet normal 0.70691180229187 0.0234793685376644 -0.70691180229187
outer loop
vertex 0.31465870141983 -8.57044315338135 0
vertex 0.338391989469528 -9.28499984741211 0
vertex 0.238877758383751 -8.57295989990234 -0.0758645385503769
endloop
endfacet
facet normal 0.706911861896515 0.0234793685376644 -0.706911861896515
outer loop
vertex 0.247456610202789 -9.28802013397217 -0.0910356789827347
vertex 0.238877758383751 -8.57295989990234 -0.0758645385503769
vertex 0.338391989469528 -9.28499984741211 0
endloop
endfacet
facet normal 0.70691180229187 0.0234793685376644 -0.70691180229187
outer loop
vertex 0.338391989469528 -9.28499984741211 0
vertex 0.36195695400238 -9.99448871612549 0
vertex 0.247456610202789 -9.28802013397217 -0.0910356789827347
endloop
endfacet
facet normal 0.706911861896515 0.0234793704003096 -0.706911861896515
outer loop
vertex 0.255974620580673 -9.99800872802734 -0.106099233031273
vertex 0.247456610202789 -9.28802013397217 -0.0910356789827347
vertex 0.36195695400238 -9.99448871612549 0
endloop
endfacet
facet normal 0.15726113319397 0.689597368240356 -0.70691180229187
outer loop
vertex 9.08274459838867 -8.86885547637939 -0.165974631905556
vertex 9.05233001708984 -8.97056293487549 -0.271956950426102
vertex 8.39231491088867 -8.70267200469971 -0.157456606626511
endloop
endfacet
facet normal 0.157261148095131 0.689597368240356 -0.706911861896515
outer loop
vertex 8.36621761322021 -8.78993988037109 -0.24839198589325
vertex 8.39231491088867 -8.70267200469971 -0.157456606626511
vertex 9.05233001708984 -8.97056293487549 -0.271956950426102
endloop
endfacet
facet normal 0.157261148095131 0.689597368240356 -0.70691192150116
outer loop
vertex 8.39231491088867 -8.70267200469971 -0.157456606626511
vertex 8.36621761322021 -8.78993988037109 -0.24839198589325
vertex 7.69695281982422 -8.53530216217041 -0.148877754807472
endloop
endfacet
facet normal 0.15726113319397 0.689597368240356 -0.70691180229187
outer loop
vertex 7.67520523071289 -8.6080265045166 -0.224658712744713
vertex 7.69695281982422 -8.53530216217041 -0.148877754807472
vertex 8.36621761322021 -8.78993988037109 -0.24839198589325
endloop
endfacet
facet normal 0.15726113319397 0.689597368240356 -0.706911861896515
outer loop
vertex 7.69695281982422 -8.53530216217041 -0.148877754807472
vertex 7.67520523071289 -8.6080265045166 -0.224658712744713
vertex 7.00150966644287 -8.36791324615479 -0.140297904610634
endloop
endfacet
facet normal 0.15726113319397 0.689597427845001 -0.706911861896515
outer loop
vertex 6.98411178588867 -8.42609214782715 -0.200922667980194
vertex 7.00150966644287 -8.36791324615479 -0.140297904610634
vertex 7.67520523071289 -8.6080265045166 -0.224658712744713
endloop
endfacet
facet normal 0.15726113319397 0.689597427845001 -0.706911861896515
outer loop
vertex 7.00150966644287 -8.36791324615479 -0.140297904610634
vertex 6.98411178588867 -8.42609214782715 -0.200922667980194
vertex 6.30606698989868 -8.20052337646484 -0.131718039512634
endloop
endfacet
facet normal 0.15726113319397 0.689597368240356 -0.706911861896515
outer loop
vertex 6.29301881790161 -8.2441577911377 -0.177186623215675
vertex 6.30606698989868 -8.20052337646484 -0.131718039512634
vertex 6.98411178588867 -8.42609214782715 -0.200922667980194
endloop
endfacet
facet normal 0.15726113319397 0.689597368240356 -0.706911861896515
outer loop
vertex 6.30606698989868 -8.20052337646484 -0.131718039512634
vertex 6.29301881790161 -8.2441577911377 -0.177186623215675
vertex 5.61062431335449 -8.03313446044922 -0.123138189315796
endloop
endfacet
facet normal 0.15726113319397 0.689597427845001 -0.706911861896515
outer loop
vertex 5.60192537307739 -8.06222343444824 -0.153450563549995
vertex 5.61062431335449 -8.03313446044922 -0.123138189315796
vertex 6.29301881790161 -8.2441577911377 -0.177186623215675
endloop
endfacet
facet normal 0.15726113319397 0.689597427845001 -0.706911861896515
outer loop
vertex 5.61062431335449 -8.03313446044922 -0.123138189315796
vertex 5.60192537307739 -8.06222343444824 -0.153450563549995
vertex 4.91518115997314 -7.86574459075928 -0.114558331668377
endloop
endfacet
facet normal 0.15726113319397 0.689597427845001 -0.706911861896515
outer loop
vertex 4.91083192825317 -7.88028955459595 -0.129714518785477
vertex 4.91518115997314 -7.86574459075928 -0.114558331668377
vertex 5.60192537307739 -8.06222343444824 -0.153450563549995
endloop
endfacet
facet normal 0.15726113319397 0.689597427845001 -0.706911861896515
outer loop
vertex 4.91083192825317 -7.88028955459595 -0.129714518785477
vertex 4.21973848342896 -7.69835519790649 -0.105978474020958
vertex 4.91518115997314 -7.86574459075928 -0.114558331668377
endloop
endfacet
endsolid COMSOL mesh mesh1
