solid COMSOL mesh mesh1
facet normal -0.999999821186066 0.000514799903612584 0
outer loop
vertex -0.0599999986588955 -10.9999990463257 0.0599999986588955
vertex -0.0599999986588955 -10.9999990463257 0.0900000035762787
vertex -0.05989620834589 -10.7983808517456 0.059395145624876
endloop
endfacet
facet normal -0.99999988079071 0.000514799903612584 -2.22331246168338e-16
outer loop
vertex -0.05989620834589 -10.7983808517456 0.0906048566102982
vertex -0.05989620834589 -10.7983808517456 0.059395145624876
vertex -0.0599999986588955 -10.9999990463257 0.0900000035762787
endloop
endfacet
facet normal -0.999999821186066 0.000514799961820245 -2.22331219698558e-16
outer loop
vertex -0.05989620834589 -10.7983808517456 0.059395145624876
vertex -0.05989620834589 -10.7983808517456 0.0906048566102982
vertex -0.059713888913393 -10.4442281723022 0.0583326853811741
endloop
endfacet
facet normal -0.999999821186066 0.000514799961820245 1.53292740541413e-16
outer loop
vertex -0.059713888913393 -10.4442281723022 0.0916673094034195
vertex -0.059713888913393 -10.4442281723022 0.0583326853811741
vertex -0.05989620834589 -10.7983808517456 0.0906048566102982
endloop
endfacet
facet normal -0.99999988079071 0.000514799903612584 3.28043472614737e-16
outer loop
vertex -0.0594226159155369 -9.87842750549316 0.0933647155761719
vertex -0.0594226159155369 -9.87842750549316 0.0566352866590023
vertex -0.059713888913393 -10.4442281723022 0.0916673094034195
endloop
endfacet
facet normal -0.99999988079071 0.000514799903612584 1.53292740541413e-16
outer loop
vertex -0.059713888913393 -10.4442281723022 0.0583326853811741
vertex -0.059713888913393 -10.4442281723022 0.0916673094034195
vertex -0.0594226159155369 -9.87842750549316 0.0566352866590023
endloop
endfacet
facet normal -0.999999940395355 0.000514799961820245 3.28043499084517e-16
outer loop
vertex -0.0594226159155369 -9.87842750549316 0.0933647155761719
vertex -0.0591151006519794 -9.28108310699463 0.0951567441225052
vertex -0.0594226159155369 -9.87842750549316 0.0566352866590023
endloop
endfacet
facet normal -0.999999821186066 0.000514799903612584 -1.7212331528028e-16
outer loop
vertex -0.0591151006519794 -9.28108310699463 0.0548432543873787
vertex -0.0594226159155369 -9.87842750549316 0.0566352866590023
vertex -0.0591151006519794 -9.28108310699463 0.0951567441225052
endloop
endfacet
facet normal -0.999999821186066 0.000514799903612584 -1.7212331528028e-16
outer loop
vertex -0.0591151006519794 -9.28108310699463 0.0951567441225052
vertex -0.0588075891137123 -8.68373870849609 0.0969487801194191
vertex -0.0591151006519794 -9.28108310699463 0.0548432543873787
endloop
endfacet
facet normal -0.99999988079071 0.000514799903612584 -1.58070125477935e-16
outer loop
vertex -0.0588075891137123 -8.68373870849609 0.0530512183904648
vertex -0.0591151006519794 -9.28108310699463 0.0548432543873787
vertex -0.0588075891137123 -8.68373870849609 0.0969487801194191
endloop
endfacet
facet normal -0.99999988079071 0.000514799961820245 -1.46138488510666e-16
outer loop
vertex -0.0585000775754452 -8.08639430999756 0.098740816116333
vertex -0.0585000775754452 -8.08639430999756 0.0512591861188412
vertex -0.0588075891137123 -8.68373870849609 0.0969487801194191
endloop
endfacet
facet normal -0.99999988079071 0.000514799903612584 -1.58070125477935e-16
outer loop
vertex -0.0588075891137123 -8.68373870849609 0.0530512183904648
vertex -0.0588075891137123 -8.68373870849609 0.0969487801194191
vertex -0.0585000775754452 -8.08639430999756 0.0512591861188412
endloop
endfacet
facet normal -0.99999988079071 0.000514799961820245 -1.46138488510666e-16
outer loop
vertex -0.0585000775754452 -8.08639430999756 0.098740816116333
vertex -0.0581925623118877 -7.48905038833618 0.100532844662666
vertex -0.0585000775754452 -8.08639430999756 0.0512591861188412
endloop
endfacet
facet normal -0.99999988079071 0.000514799961820245 -1.44835540079552e-16
outer loop
vertex -0.0581925623118877 -7.48905038833618 0.0494671538472176
vertex -0.0585000775754452 -8.08639430999756 0.0512591861188412
vertex -0.0581925623118877 -7.48905038833618 0.100532844662666
endloop
endfacet
facet normal -0.99999988079071 0.000514799961820245 -1.44835540079552e-16
outer loop
vertex -0.0581925623118877 -7.48905038833618 0.100532844662666
vertex -0.0578850507736206 -6.89170598983765 0.10232488065958
vertex -0.0581925623118877 -7.48905038833618 0.0494671538472176
endloop
endfacet
facet normal -0.99999988079071 0.000514799961820245 -8.36662832068907e-18
outer loop
vertex -0.0578850507736206 -6.89170598983765 0.0476751215755939
vertex -0.0581925623118877 -7.48905038833618 0.0494671538472176
vertex -0.0578850507736206 -6.89170598983765 0.10232488065958
endloop
endfacet
facet normal -0.99999988079071 0.000514799961820245 0
outer loop
vertex -0.0576138384640217 -6.36487674713135 0.103905364871025
vertex -0.0576138384640217 -6.36487674713135 0.0460946336388588
vertex -0.0578850507736206 -6.89170598983765 0.10232488065958
endloop
endfacet
facet normal -0.99999988079071 0.000514799903612584 -8.36662749350846e-18
outer loop
vertex -0.0578850507736206 -6.89170598983765 0.0476751215755939
vertex -0.0578850507736206 -6.89170598983765 0.10232488065958
vertex -0.0576138384640217 -6.36487674713135 0.0460946336388588
endloop
endfacet
facet normal -0.999999940395355 0.000514799961820245 0
outer loop
vertex -0.0576138384640217 -6.36487674713135 0.103905364871025
vertex -0.0574260018765926 -5.99999952316284 0.104999996721745
vertex -0.0576138384640217 -6.36487674713135 0.0460946336388588
endloop
endfacet
facet normal -0.999999940395355 0.000514799903612584 0
outer loop
vertex -0.0574260018765926 -5.99999952316284 0.0450000017881393
vertex -0.0576138384640217 -6.36487674713135 0.0460946336388588
vertex -0.0574260018765926 -5.99999952316284 0.104999996721745
endloop
endfacet
facet normal -0.70710563659668 -0.00175729882903397 -0.70710563659668
outer loop
vertex -0.0574274174869061 -5.99966192245483 0.0450005829334259
vertex -0.0150047894567251 -6.00053071975708 0.00258011231198907
vertex -0.0576142333447933 -6.36277055740356 0.0460897944867611
endloop
endfacet
facet normal -0.707105696201324 -0.00175729894544929 -0.707105696201324
outer loop
vertex -0.0182722341269255 -6.36358022689819 0.00674980692565441
vertex -0.0576142333447933 -6.36277055740356 0.0460897944867611
vertex -0.0150047894567251 -6.00053071975708 0.00258011231198907
endloop
endfacet
facet normal -0.707105696201324 -0.00175729917827994 -0.707105696201324
outer loop
vertex -0.0576142333447933 -6.36277055740356 0.0460897944867611
vertex -0.0182722341269255 -6.36358022689819 0.00674980692565441
vertex -0.0578852668404579 -6.88958024978638 0.047670055180788
endloop
endfacet
facet normal -0.70710563659668 -0.00175729894544929 -0.70710563659668
outer loop
vertex -0.023012638092041 -6.89029169082642 0.0127991950139403
vertex -0.0578852668404579 -6.88958024978638 0.047670055180788
vertex -0.0182722341269255 -6.36358022689819 0.00674980692565441
endloop
endfacet
facet normal -0.70710563659668 -0.00175729894544929 -0.70710563659668
outer loop
vertex -0.0578852668404579 -6.88958024978638 0.047670055180788
vertex -0.023012638092041 -6.89029169082642 0.0127991950139403
vertex -0.0581873692572117 -7.47678327560425 0.0494314767420292
endloop
endfacet
facet normal -0.707105696201324 -0.00175729906186461 -0.707105696201324
outer loop
vertex -0.028296547010541 -7.47739267349243 0.0195421669632196
vertex -0.0581873692572117 -7.47678327560425 0.0494314767420292
vertex -0.023012638092041 -6.89029169082642 0.0127991950139403
endloop
endfacet
facet normal -0.707105696201324 -0.00175729906186461 -0.707105696201324
outer loop
vertex -0.0581873692572117 -7.47678327560425 0.0494314767420292
vertex -0.028296547010541 -7.47739267349243 0.0195421669632196
vertex -0.0584894753992558 -8.06398582458496 0.05119289457798
endloop
endfacet
facet normal -0.707105696201324 -0.00175729906186461 -0.707105696201324
outer loop
vertex -0.0335804559290409 -8.06449413299561 0.0262851398438215
vertex -0.0584894753992558 -8.06398582458496 0.05119289457798
vertex -0.028296547010541 -7.47739267349243 0.0195421669632196
endloop
endfacet
facet normal -0.707105696201324 -0.00175729906186461 -0.707105696201324
outer loop
vertex -0.0335804559290409 -8.06449413299561 0.0262851398438215
vertex -0.038864366710186 -8.65159511566162 0.0330281108617783
vertex -0.0584894753992558 -8.06398582458496 0.05119289457798
endloop
endfacet
facet normal -0.707105696201324 -0.00175729906186461 -0.707105696201324
outer loop
vertex -0.0587915815412998 -8.65118789672852 0.0529543161392212
vertex -0.0584894753992558 -8.06398582458496 0.05119289457798
vertex -0.038864366710186 -8.65159511566162 0.0330281108617783
endloop
endfacet
facet normal -0.707105696201324 -0.00175729906186461 -0.707105696201324
outer loop
vertex -0.038864366710186 -8.65159511566162 0.0330281108617783
vertex -0.0441482737660408 -9.23869609832764 0.0397710837423801
vertex -0.0587915815412998 -8.65118789672852 0.0529543161392212
endloop
endfacet
facet normal -0.707105696201324 -0.00175729906186461 -0.707105696201324
outer loop
vertex -0.0590936839580536 -9.23839092254639 0.0547157377004623
vertex -0.0587915815412998 -8.65118789672852 0.0529543161392212
vertex -0.0441482737660408 -9.23869609832764 0.0397710837423801
endloop
endfacet
facet normal -0.707105696201324 -0.00175729906186461 -0.707105696201324
outer loop
vertex -0.0441482737660408 -9.23869609832764 0.0397710837423801
vertex -0.0494321808218956 -9.82579708099365 0.046514056622982
vertex -0.0590936839580536 -9.23839092254639 0.0547157377004623
endloop
endfacet
facet normal -0.707105696201324 -0.00175729906186461 -0.707105696201324
outer loop
vertex -0.0593957901000977 -9.82559299468994 0.0564771592617035
vertex -0.0590936839580536 -9.23839092254639 0.0547157377004623
vertex -0.0494321808218956 -9.82579708099365 0.046514056622982
endloop
endfacet
facet normal -0.707105696201324 -0.00175729906186461 -0.707105696201324
outer loop
vertex -0.0494321808218956 -9.82579708099365 0.046514056622982
vertex -0.0547160916030407 -10.4128980636597 0.0532570295035839
vertex -0.0593957901000977 -9.82559299468994 0.0564771592617035
endloop
endfacet
facet normal -0.707105696201324 -0.00175729906186461 -0.707105696201324
outer loop
vertex -0.0596978962421417 -10.4127960205078 0.0582385808229446
vertex -0.0593957901000977 -9.82559299468994 0.0564771592617035
vertex -0.0547160916030407 -10.4128980636597 0.0532570295035839
endloop
endfacet
facet normal -0.707105696201324 -0.00175729906186461 -0.707105696201324
outer loop
vertex -0.0547160916030407 -10.4128980636597 0.0532570295035839
vertex -0.0599999986588955 -10.9999990463257 0.0599999986588955
vertex -0.0596978962421417 -10.4127960205078 0.0582385808229446
endloop
endfacet
facet normal 2.03725237730889e-17 0.0114844422787428 0.999934077262878
outer loop
vertex 0.0483911968767643 -6.37710332870483 0.00690511986613274
vertex 0.0450000017881393 -6.000328540802 0.00257778726518154
vertex -0.0183925740420818 -6.37725639343262 0.00690687820315361
endloop
endfacet
facet normal -0 0.0114844432100654 0.999934136867523
outer loop
vertex -0.0149999996647239 -6.000328540802 0.00257778726518154
vertex -0.0183925740420818 -6.37725639343262 0.00690687820315361
vertex 0.0450000017881393 -6.000328540802 0.00257778726518154
endloop
endfacet
facet normal 2.0284524990803e-17 0.0114844432100654 0.999934077262878
outer loop
vertex 0.0483911968767643 -6.37710332870483 0.00690511986613274
vertex -0.0183925740420818 -6.37725639343262 0.00690687820315361
vertex 0.0533966571092606 -6.93322849273682 0.0132923340424895
endloop
endfacet
facet normal -1.17540164743356e-17 0.0114844422787428 0.999934017658234
outer loop
vertex -0.0234008450061083 -6.93369388580322 0.0132976779714227
vertex 0.0533966571092606 -6.93322849273682 0.0132923340424895
vertex -0.0183925740420818 -6.37725639343262 0.00690687820315361
endloop
endfacet
facet normal -1.17071881254977e-17 0.0114844432100654 0.999934077262878
outer loop
vertex 0.0533966571092606 -6.93322849273682 0.0132923340424895
vertex -0.0234008450061083 -6.93369388580322 0.0132976779714227
vertex 0.0588483363389969 -7.53893089294434 0.0202489458024502
endloop
endfacet
facet normal 2.25681023246712e-16 0.0114844422787428 0.999934017658234
outer loop
vertex -0.0288546197116375 -7.53962898254395 0.0202569626271725
vertex 0.0588483363389969 -7.53893089294434 0.0202489458024502
vertex -0.0234008450061083 -6.93369388580322 0.0132976779714227
endloop
endfacet
facet normal 2.25560003414373e-16 0.0114844432100654 0.999934077262878
outer loop
vertex 0.0588483363389969 -7.53893089294434 0.0202489458024502
vertex -0.0288546197116375 -7.53962898254395 0.0202569626271725
vertex 0.0643000155687332 -8.14463329315186 0.0272055584937334
endloop
endfacet
facet normal -1.89766416001546e-16 0.0114844422787428 0.999934017658234
outer loop
vertex -0.0343083925545216 -8.14556407928467 0.0272162482142448
vertex 0.0643000155687332 -8.14463329315186 0.0272055584937334
vertex -0.0288546197116375 -7.53962898254395 0.0202569626271725
endloop
endfacet
facet normal -1.89347597913798e-16 0.0114844422787428 0.999934017658234
outer loop
vertex 0.0643000155687332 -8.14463329315186 0.0272055584937334
vertex -0.0343083925545216 -8.14556407928467 0.0272162482142448
vertex 0.0699441507458687 -8.77171802520752 0.0344077497720718
endloop
endfacet
facet normal 4.57161786962393e-16 0.0114844441413879 0.999934077262878
outer loop
vertex -0.0399540066719055 -8.77281284332275 0.0344203263521194
vertex 0.0699441507458687 -8.77171802520752 0.0344077497720718
vertex -0.0343083925545216 -8.14556407928467 0.0272162482142448
endloop
endfacet
facet normal 4.56949658148665e-16 0.0114844422787428 0.999933958053589
outer loop
vertex 0.0699441507458687 -8.77171802520752 0.0344077497720718
vertex -0.0399540066719055 -8.77281284332275 0.0344203263521194
vertex 0.0761727318167686 -9.46373653411865 0.0423557236790657
endloop
endfacet
facet normal -2.79062204252981e-16 0.0114844432100654 0.999934077262878
outer loop
vertex -0.0461806766688824 -9.46461963653564 0.0423658639192581
vertex 0.0761727318167686 -9.46373653411865 0.0423557236790657
vertex -0.0399540066719055 -8.77281284332275 0.0344203263521194
endloop
endfacet
facet normal -2.79595490902616e-16 0.0114844432100654 0.999934077262878
outer loop
vertex 0.0761727318167686 -9.46373653411865 0.0423557236790657
vertex -0.0461806766688824 -9.46461963653564 0.0423658639192581
vertex 0.0830362588167191 -10.226300239563 0.0511139184236526
endloop
endfacet
facet normal -5.16035235477777e-16 0.0114844422787428 0.999934017658234
outer loop
vertex -0.053038127720356 -10.226508140564 0.051116306334734
vertex 0.0830362588167191 -10.226300239563 0.0511139184236526
vertex -0.0461806766688824 -9.46461963653564 0.0423658639192581
endloop
endfacet
facet normal -5.16022529983568e-16 0.0114844422787428 0.999934077262878
outer loop
vertex 0.0830362588167191 -10.226300239563 0.0511139184236526
vertex -0.053038127720356 -10.226508140564 0.051116306334734
vertex 0.0900000035762787 -10.9999990463257 0.0599999986588955
endloop
endfacet
facet normal -1.38768719534402e-16 0.0114844422787428 0.999934077262878
outer loop
vertex -0.0599999986588955 -10.9999990463257 0.0599999986588955
vertex 0.0900000035762787 -10.9999990463257 0.0599999986588955
vertex -0.053038127720356 -10.226508140564 0.051116306334734
endloop
endfacet
facet normal -0.70710563659668 -0.00175729929469526 0.707105696201324
outer loop
vertex -0.0596977286040783 -10.4128379821777 0.0917614847421646
vertex -0.0599999986588955 -10.9999990463257 0.0900000035762787
vertex -0.054715484380722 -10.4128561019897 0.096743680536747
endloop
endfacet
facet normal -0.70710563659668 -0.00175729929469526 0.707105696201324
outer loop
vertex -0.0593954585492611 -9.8256778717041 0.0935229584574699
vertex -0.0596977286040783 -10.4128379821777 0.0917614847421646
vertex -0.0494309663772583 -9.82571411132813 0.103487364947796
endloop
endfacet
facet normal -0.70710563659668 -0.00175729929469526 0.707105696201324
outer loop
vertex -0.054715484380722 -10.4128561019897 0.096743680536747
vertex -0.0494309663772583 -9.82571411132813 0.103487364947796
vertex -0.0596977286040783 -10.4128379821777 0.0917614847421646
endloop
endfacet
facet normal -0.70710563659668 -0.00175729929469526 0.707105696201324
outer loop
vertex -0.0593954585492611 -9.8256778717041 0.0935229584574699
vertex -0.0494309663772583 -9.82571411132813 0.103487364947796
vertex -0.0590931884944439 -9.23851776123047 0.0952844396233559
endloop
endfacet
facet normal -0.70710563659668 -0.00175729941111058 0.707105755805969
outer loop
vertex -0.0441464520990849 -9.2385721206665 0.110231049358845
vertex -0.0590931884944439 -9.23851776123047 0.0952844396233559
vertex -0.0494309663772583 -9.82571411132813 0.103487364947796
endloop
endfacet
facet normal -0.70710563659668 -0.00175729929469526 0.707105696201324
outer loop
vertex -0.0587909184396267 -8.65135765075684 0.0970459207892418
vertex -0.0590931884944439 -9.23851776123047 0.0952844396233559
vertex -0.0388619378209114 -8.65142917633057 0.116974726319313
endloop
endfacet
facet normal -0.70710563659668 -0.00175729941111058 0.707105755805969
outer loop
vertex -0.0441464520990849 -9.2385721206665 0.110231049358845
vertex -0.0388619378209114 -8.65142917633057 0.116974726319313
vertex -0.0590931884944439 -9.23851776123047 0.0952844396233559
endloop
endfacet
facet normal -0.70710563659668 -0.00175729929469526 0.707105696201324
outer loop
vertex -0.0587909184396267 -8.65135765075684 0.0970459207892418
vertex -0.0388619378209114 -8.65142917633057 0.116974726319313
vertex -0.0584886483848095 -8.0641975402832 0.0988074019551277
endloop
endfacet
facet normal -0.70710563659668 -0.00175729929469526 0.707105696201324
outer loop
vertex -0.0335774198174477 -8.06428718566895 0.123718410730362
vertex -0.0584886483848095 -8.0641975402832 0.0988074019551277
vertex -0.0388619378209114 -8.65142917633057 0.116974726319313
endloop
endfacet
facet normal -0.70710563659668 -0.00175729929469526 0.707105696201324
outer loop
vertex -0.0584886483848095 -8.0641975402832 0.0988074019551277
vertex -0.0335774198174477 -8.06428718566895 0.123718410730362
vertex -0.0581863783299923 -7.47703695297241 0.100568883121014
endloop
endfacet
facet normal -0.70710563659668 -0.00175729941111058 0.707105755805969
outer loop
vertex -0.0282929036766291 -7.47714471817017 0.130462095141411
vertex -0.0581863783299923 -7.47703695297241 0.100568883121014
vertex -0.0335774198174477 -8.06428718566895 0.123718410730362
endloop
endfacet
facet normal -0.70710563659668 -0.00175729941111058 0.707105755805969
outer loop
vertex -0.0581863783299923 -7.47703695297241 0.100568883121014
vertex -0.0282929036766291 -7.47714471817017 0.130462095141411
vertex -0.0578841082751751 -6.88987684249878 0.1023303642869
endloop
endfacet
facet normal -0.70710563659668 -0.00175729941111058 0.70710563659668
outer loop
vertex -0.0230083875358105 -6.89000225067139 0.13720577955246
vertex -0.0578841082751751 -6.88987684249878 0.1023303642869
vertex -0.0282929036766291 -7.47714471817017 0.130462095141411
endloop
endfacet
facet normal -0.707105696201324 -0.00175729941111058 0.707105755805969
outer loop
vertex -0.0578841082751751 -6.88987684249878 0.1023303642869
vertex -0.0230083875358105 -6.89000225067139 0.13720577955246
vertex -0.0576129294931889 -6.36311054229736 0.10391066968441
endloop
endfacet
facet normal -0.707105696201324 -0.00175729941111058 0.707105696201324
outer loop
vertex -0.0182673633098602 -6.36324501037598 0.143255904316902
vertex -0.0576129294931889 -6.36311054229736 0.10391066968441
vertex -0.0230083875358105 -6.89000225067139 0.13720577955246
endloop
endfacet
facet normal -0.70710563659668 -0.00175729941111058 0.70710563659668
outer loop
vertex -0.0576129294931889 -6.36311054229736 0.10391066968441
vertex -0.0182673633098602 -6.36324501037598 0.143255904316902
vertex -0.0574260130524635 -6.00002193450928 0.104999929666519
endloop
endfacet
facet normal -0.707105696201324 -0.00175729929469526 0.707105696201324
outer loop
vertex -0.0149995498359203 -6.00017118453979 0.147426024079323
vertex -0.0574260130524635 -6.00002193450928 0.104999929666519
vertex -0.0182673633098602 -6.36324501037598 0.143255904316902
endloop
endfacet
facet normal -3.42836505991839e-16 -0.0114848427474499 0.999934077262878
outer loop
vertex 0.0483911968767643 -6.37710332870483 0.143096730113029
vertex 0.0450000017881393 -6.000328540802 0.147424206137657
vertex -0.0183925740420818 -6.37725639343262 0.143094971776009
endloop
endfacet
facet normal -4.62562469034087e-16 -0.0114848436787724 0.999934136867523
outer loop
vertex -0.0149999996647239 -6.000328540802 0.147424206137657
vertex -0.0183925740420818 -6.37725639343262 0.143094971776009
vertex 0.0450000017881393 -6.000328540802 0.147424206137657
endloop
endfacet
facet normal -3.43291918549886e-16 -0.0114848427474499 0.999934077262878
outer loop
vertex 0.0483911968767643 -6.37710332870483 0.143096730113029
vertex -0.0183925740420818 -6.37725639343262 0.143094971776009
vertex 0.0533966571092606 -6.93322896957397 0.136709287762642
endloop
endfacet
facet normal -1.45439601625887e-15 -0.0114848427474499 0.999934017658234
outer loop
vertex -0.0234008450061083 -6.93369388580322 0.136703953146935
vertex 0.0533966571092606 -6.93322896957397 0.136709287762642
vertex -0.0183925740420818 -6.37725639343262 0.143094971776009
endloop
endfacet
facet normal -1.45434953532588e-15 -0.0114848427474499 0.999934077262878
outer loop
vertex 0.0533966571092606 -6.93322896957397 0.136709287762642
vertex -0.0234008450061083 -6.93369388580322 0.136703953146935
vertex 0.0588483363389969 -7.53893089294434 0.129752442240715
endloop
endfacet
facet normal -7.70955994882386e-16 -0.0114848427474499 0.999934017658234
outer loop
vertex -0.0288546197116375 -7.53962898254395 0.129744425415993
vertex 0.0588483363389969 -7.53893089294434 0.129752442240715
vertex -0.0234008450061083 -6.93369388580322 0.136703953146935
endloop
endfacet
facet normal -7.69627106067262e-16 -0.0114848436787724 0.999934077262878
outer loop
vertex 0.0588483363389969 -7.53893089294434 0.129752442240715
vertex -0.0288546197116375 -7.53962898254395 0.129744425415993
vertex 0.0643000155687332 -8.14463329315186 0.122795581817627
endloop
endfacet
facet normal -3.08905570499804e-17 -0.0114848427474499 0.999934017658234
outer loop
vertex -0.0343083925545216 -8.14556407928467 0.122784897685051
vertex 0.0643000155687332 -8.14463329315186 0.122795581817627
vertex -0.0288546197116375 -7.53962898254395 0.129744425415993
endloop
endfacet
facet normal -3.10762888760006e-17 -0.0114848418161273 0.999934017658234
outer loop
vertex 0.0643000155687332 -8.14463329315186 0.122795581817627
vertex -0.0343083925545216 -8.14556407928467 0.122784897685051
vertex 0.0699441507458687 -8.77171802520752 0.115593142807484
endloop
endfacet
facet normal -7.35361499916833e-16 -0.0114848427474499 0.999934077262878
outer loop
vertex -0.0399540066719055 -8.77281284332275 0.115580566227436
vertex 0.0699441507458687 -8.77171802520752 0.115593142807484
vertex -0.0343083925545216 -8.14556407928467 0.122784897685051
endloop
endfacet
facet normal -7.36014827016962e-16 -0.0114848427474499 0.999933958053589
outer loop
vertex 0.0699441507458687 -8.77171802520752 0.115593142807484
vertex -0.0399540066719055 -8.77281284332275 0.115580566227436
vertex 0.0761727318167686 -9.46373653411865 0.107644893229008
endloop
endfacet
facet normal -8.02892948642135e-16 -0.0114848427474499 0.999934077262878
outer loop
vertex -0.0461806766688824 -9.46461963653564 0.107634752988815
vertex 0.0761727318167686 -9.46373653411865 0.107644893229008
vertex -0.0399540066719055 -8.77281284332275 0.115580566227436
endloop
endfacet
facet normal -8.02750064771846e-16 -0.0114848418161273 0.999934077262878
outer loop
vertex 0.0761727318167686 -9.46373653411865 0.107644893229008
vertex -0.0461806766688824 -9.46461963653564 0.107634752988815
vertex 0.0830362588167191 -10.226300239563 0.0988863855600357
endloop
endfacet
facet normal 1.69369505289638e-16 -0.0114848427474499 0.999934017658234
outer loop
vertex -0.053038127720356 -10.226508140564 0.0988840013742447
vertex 0.0830362588167191 -10.226300239563 0.0988863855600357
vertex -0.0461806766688824 -9.46461963653564 0.107634752988815
endloop
endfacet
facet normal 1.69557176027014e-16 -0.0114848427474499 0.999934077262878
outer loop
vertex 0.0830362588167191 -10.226300239563 0.0988863855600357
vertex -0.053038127720356 -10.226508140564 0.0988840013742447
vertex 0.0900000035762787 -10.9999990463257 0.0900000035762787
endloop
endfacet
facet normal -9.25124818954166e-17 -0.0114848418161273 0.999934077262878
outer loop
vertex -0.0599999986588955 -10.9999990463257 0.0900000035762787
vertex 0.0900000035762787 -10.9999990463257 0.0900000035762787
vertex -0.053038127720356 -10.226508140564 0.0988840013742447
endloop
endfacet
facet normal -1 0 -0
outer loop
vertex -0.0574259981513023 -5 0.104999996721745
vertex -0.0574259981513023 -5 0.0450000017881393
vertex -0.0574259981513023 -5.30323505401611 0.104999996721745
endloop
endfacet
facet normal -1 0 0
outer loop
vertex -0.0574259981513023 -5.30323505401611 0.0450000017881393
vertex -0.0574259981513023 -5.30323505401611 0.104999996721745
vertex -0.0574259981513023 -5 0.0450000017881393
endloop
endfacet
facet normal -1 0 0
outer loop
vertex -0.0574259981513023 -5.30323505401611 0.0450000017881393
vertex -0.0574259981513023 -5.69676494598389 0.0450000017881393
vertex -0.0574259981513023 -5.30323505401611 0.104999996721745
endloop
endfacet
facet normal -1 0 0
outer loop
vertex -0.0574259981513023 -5.69676494598389 0.104999996721745
vertex -0.0574259981513023 -5.30323505401611 0.104999996721745
vertex -0.0574259981513023 -5.69676494598389 0.0450000017881393
endloop
endfacet
facet normal -1 0 0
outer loop
vertex -0.0574259981513023 -6 0.104999996721745
vertex -0.0574259981513023 -5.69676494598389 0.104999996721745
vertex -0.0574259981513023 -6 0.0450000017881393
endloop
endfacet
facet normal -1 -0 0
outer loop
vertex -0.0574259981513023 -5.69676494598389 0.0450000017881393
vertex -0.0574259981513023 -6 0.0450000017881393
vertex -0.0574259981513023 -5.69676494598389 0.104999996721745
endloop
endfacet
facet normal -0.707106709480286 -0 -0.707106709480286
outer loop
vertex -0.0574259981513023 -5 0.0450000017881393
vertex -0.0149999996647239 -5 0.00257400004193187
vertex -0.0574259981513023 -5.30323505401611 0.0450000017881393
endloop
endfacet
facet normal -0.707106709480286 0 -0.707106709480286
outer loop
vertex -0.0149999996647239 -5.30323505401611 0.00257400004193187
vertex -0.0574259981513023 -5.30323505401611 0.0450000017881393
vertex -0.0149999996647239 -5 0.00257400004193187
endloop
endfacet
facet normal -0.707106828689575 -3.11700907438738e-18 -0.707106828689575
outer loop
vertex -0.0149999996647239 -5.30323505401611 0.00257400004193187
vertex -0.0149999996647239 -5.69676494598389 0.00257400004193187
vertex -0.0574259981513023 -5.30323505401611 0.0450000017881393
endloop
endfacet
facet normal -0.707106828689575 -1.24680362975495e-17 -0.707106828689575
outer loop
vertex -0.0574259981513023 -5.69676494598389 0.0450000017881393
vertex -0.0574259981513023 -5.30323505401611 0.0450000017881393
vertex -0.0149999996647239 -5.69676494598389 0.00257400004193187
endloop
endfacet
facet normal -0.707106709480286 4.04515845443593e-18 -0.707106709480286
outer loop
vertex -0.0149999996647239 -5.69676494598389 0.00257400004193187
vertex -0.0149999996647239 -6 0.00257400004193187
vertex -0.0574259981513023 -5.69676494598389 0.0450000017881393
endloop
endfacet
facet normal -0.707106709480286 1.61806338177437e-17 -0.707106709480286
outer loop
vertex -0.0574259981513023 -6 0.0450000017881393
vertex -0.0574259981513023 -5.69676494598389 0.0450000017881393
vertex -0.0149999996647239 -6 0.00257400004193187
endloop
endfacet
facet normal -0.707106709480286 -6.47225352709748e-17 0.707106709480286
outer loop
vertex -0.0574259981513023 -5 0.104999996721745
vertex -0.0574259981513023 -5.30323505401611 0.104999996721745
vertex -0.0149999996647239 -5 0.147425994277
endloop
endfacet
facet normal -0.707106709480286 -8.09031690887185e-18 0.707106709480286
outer loop
vertex -0.0149999996647239 -5.30323505401611 0.147425994277
vertex -0.0149999996647239 -5 0.147425994277
vertex -0.0574259981513023 -5.30323505401611 0.104999996721745
endloop
endfacet
facet normal -0.707106828689575 2.4936072595099e-17 0.707106828689575
outer loop
vertex -0.0574259981513023 -5.30323505401611 0.104999996721745
vertex -0.0574259981513023 -5.69676494598389 0.104999996721745
vertex -0.0149999996647239 -5.30323505401611 0.147425994277
endloop
endfacet
facet normal -0.707106828689575 6.23401814877476e-18 0.707106828689575
outer loop
vertex -0.0149999996647239 -5.69676494598389 0.147425994277
vertex -0.0149999996647239 -5.30323505401611 0.147425994277
vertex -0.0574259981513023 -5.69676494598389 0.104999996721745
endloop
endfacet
facet normal -0.707106709480286 0 0.707106709480286
outer loop
vertex -0.0149999996647239 -6 0.147425994277
vertex -0.0149999996647239 -5.69676494598389 0.147425994277
vertex -0.0574259981513023 -6 0.104999996721745
endloop
endfacet
facet normal -0.707106709480286 3.23612676354874e-17 0.707106709480286
outer loop
vertex -0.0574259981513023 -5.69676494598389 0.104999996721745
vertex -0.0574259981513023 -6 0.104999996721745
vertex -0.0149999996647239 -5.69676494598389 0.147425994277
endloop
endfacet
facet normal -0 -0 -1
outer loop
vertex 0.0450000017881393 -5 0.00257400004193187
vertex 0.0450000017881393 -5.30323505401611 0.00257400004193187
vertex -0.0149999996647239 -5 0.00257400004193187
endloop
endfacet
facet normal 0 0 -1
outer loop
vertex -0.0149999996647239 -5.30323505401611 0.00257400004193187
vertex -0.0149999996647239 -5 0.00257400004193187
vertex 0.0450000017881393 -5.30323505401611 0.00257400004193187
endloop
endfacet
facet normal 0 -0 -1
outer loop
vertex 0.0450000017881393 -5.30323505401611 0.00257400004193187
vertex 0.0450000017881393 -5.69676494598389 0.00257400004193187
vertex -0.0149999996647239 -5.30323505401611 0.00257400004193187
endloop
endfacet
facet normal 0 0 -1
outer loop
vertex -0.0149999996647239 -5.69676494598389 0.00257400004193187
vertex -0.0149999996647239 -5.30323505401611 0.00257400004193187
vertex 0.0450000017881393 -5.69676494598389 0.00257400004193187
endloop
endfacet
facet normal 0 -0 -1
outer loop
vertex -0.0149999996647239 -5.69676494598389 0.00257400004193187
vertex 0.0450000017881393 -5.69676494598389 0.00257400004193187
vertex -0.0149999996647239 -6 0.00257400004193187
endloop
endfacet
facet normal 0 0 -1
outer loop
vertex 0.0450000017881393 -6 0.00257400004193187
vertex -0.0149999996647239 -6 0.00257400004193187
vertex 0.0450000017881393 -5.69676494598389 0.00257400004193187
endloop
endfacet
facet normal 0 0 1
outer loop
vertex 0.0450000017881393 -5.30323505401611 0.147425994277
vertex 0.0450000017881393 -5 0.147425994277
vertex -0.0149999996647239 -5.30323505401611 0.147425994277
endloop
endfacet
facet normal -0 0 1
outer loop
vertex -0.0149999996647239 -5 0.147425994277
vertex -0.0149999996647239 -5.30323505401611 0.147425994277
vertex 0.0450000017881393 -5 0.147425994277
endloop
endfacet
facet normal 0 0 1
outer loop
vertex -0.0149999996647239 -5.30323505401611 0.147425994277
vertex -0.0149999996647239 -5.69676494598389 0.147425994277
vertex 0.0450000017881393 -5.30323505401611 0.147425994277
endloop
endfacet
facet normal 0 -0 1
outer loop
vertex 0.0450000017881393 -5.69676494598389 0.147425994277
vertex 0.0450000017881393 -5.30323505401611 0.147425994277
vertex -0.0149999996647239 -5.69676494598389 0.147425994277
endloop
endfacet
facet normal 0 -0 1
outer loop
vertex 0.0450000017881393 -6 0.147425994277
vertex 0.0450000017881393 -5.69676494598389 0.147425994277
vertex -0.0149999996647239 -6 0.147425994277
endloop
endfacet
facet normal -0 0 1
outer loop
vertex -0.0149999996647239 -5.69676494598389 0.147425994277
vertex -0.0149999996647239 -6 0.147425994277
vertex 0.0450000017881393 -5.69676494598389 0.147425994277
endloop
endfacet
facet normal 0.707106709480286 -3.23612676354874e-17 -0.707106709480286
outer loop
vertex 0.0874259993433952 -5 0.0450000017881393
vertex 0.0874259993433952 -5.30323505401611 0.0450000017881393
vertex 0.0450000017881393 -5 0.00257400004193187
endloop
endfacet
facet normal 0.707106709480286 0 -0.707106709480286
outer loop
vertex 0.0450000017881393 -5.30323505401611 0.00257400004193187
vertex 0.0450000017881393 -5 0.00257400004193187
vertex 0.0874259993433952 -5.30323505401611 0.0450000017881393
endloop
endfacet
facet normal 0.707106828689575 0 -0.707106828689575
outer loop
vertex 0.0874259993433952 -5.30323505401611 0.0450000017881393
vertex 0.0874259993433952 -5.69676494598389 0.0450000017881393
vertex 0.0450000017881393 -5.30323505401611 0.00257400004193187
endloop
endfacet
facet normal 0.707106709480286 3.23612676354874e-17 -0.707106709480286
outer loop
vertex 0.0874259993433952 -5.69676494598389 0.0450000017881393
vertex 0.0874259993433952 -6 0.0450000017881393
vertex 0.0450000017881393 -5.69676494598389 0.00257400004193187
endloop
endfacet
facet normal 0.707106828689575 0 -0.707106828689575
outer loop
vertex 0.0450000017881393 -5.69676494598389 0.00257400004193187
vertex 0.0450000017881393 -5.30323505401611 0.00257400004193187
vertex 0.0874259993433952 -5.69676494598389 0.0450000017881393
endloop
endfacet
facet normal 0.707106709480286 0 -0.707106709480286
outer loop
vertex 0.0450000017881393 -6 0.00257400004193187
vertex 0.0450000017881393 -5.69676494598389 0.00257400004193187
vertex 0.0874259993433952 -6 0.0450000017881393
endloop
endfacet
facet normal 0.707106709480286 -6.47225352709748e-17 0.707106709480286
outer loop
vertex 0.0874259993433952 -5.30323505401611 0.104999996721745
vertex 0.0874259993433952 -5 0.104999996721745
vertex 0.0450000017881393 -5.30323505401611 0.147425994277
endloop
endfacet
facet normal 0.707106828689575 2.4936072595099e-17 0.707106828689575
outer loop
vertex 0.0874259993433952 -5.30323505401611 0.104999996721745
vertex 0.0450000017881393 -5.30323505401611 0.147425994277
vertex 0.0874259993433952 -5.69676494598389 0.104999996721745
endloop
endfacet
facet normal 0.707106709480286 1.61806338177437e-17 0.707106709480286
outer loop
vertex 0.0450000017881393 -5 0.147425994277
vertex 0.0450000017881393 -5.30323505401611 0.147425994277
vertex 0.0874259993433952 -5 0.104999996721745
endloop
endfacet
facet normal 0.707106828689575 -1.24680362975495e-17 0.707106828689575
outer loop
vertex 0.0450000017881393 -5.69676494598389 0.147425994277
vertex 0.0874259993433952 -5.69676494598389 0.104999996721745
vertex 0.0450000017881393 -5.30323505401611 0.147425994277
endloop
endfacet
facet normal 0.707106709480286 3.23612676354874e-17 0.707106709480286
outer loop
vertex 0.0874259993433952 -6 0.104999996721745
vertex 0.0874259993433952 -5.69676494598389 0.104999996721745
vertex 0.0450000017881393 -6 0.147425994277
endloop
endfacet
facet normal 0.707106709480286 0 0.707106709480286
outer loop
vertex 0.0450000017881393 -5.69676494598389 0.147425994277
vertex 0.0450000017881393 -6 0.147425994277
vertex 0.0874259993433952 -5.69676494598389 0.104999996721745
endloop
endfacet
facet normal 1 -4.5765742696799e-17 0
outer loop
vertex 0.0874259993433952 -5 0.0450000017881393
vertex 0.0874259993433952 -5 0.104999996721745
vertex 0.0874259993433952 -5.30323505401611 0.0450000017881393
endloop
endfacet
facet normal 1 -4.5765742696799e-17 -6.77469085706582e-31
outer loop
vertex 0.0874259993433952 -5.30323505401611 0.104999996721745
vertex 0.0874259993433952 -5.30323505401611 0.0450000017881393
vertex 0.0874259993433952 -5 0.104999996721745
endloop
endfacet
facet normal 1 0 0
outer loop
vertex 0.0874259993433952 -5.30323505401611 0.104999996721745
vertex 0.0874259993433952 -5.69676494598389 0.104999996721745
vertex 0.0874259993433952 -5.30323505401611 0.0450000017881393
endloop
endfacet
facet normal 1 0 0
outer loop
vertex 0.0874259993433952 -5.69676494598389 0.0450000017881393
vertex 0.0874259993433952 -5.30323505401611 0.0450000017881393
vertex 0.0874259993433952 -5.69676494598389 0.104999996721745
endloop
endfacet
facet normal 1 4.5765742696799e-17 -6.77469085706582e-31
outer loop
vertex 0.0874259993433952 -5.69676494598389 0.104999996721745
vertex 0.0874259993433952 -6 0.104999996721745
vertex 0.0874259993433952 -5.69676494598389 0.0450000017881393
endloop
endfacet
facet normal 1 4.5765742696799e-17 -0
outer loop
vertex 0.0874259993433952 -6 0.0450000017881393
vertex 0.0874259993433952 -5.69676494598389 0.0450000017881393
vertex 0.0874259993433952 -6 0.104999996721745
endloop
endfacet
facet normal -0.707105696201324 0.00175729929469526 -0.70710563659668
outer loop
vertex -0.0017614810494706 -0.587160289287567 0.000302270113024861
vertex -0.00674368208274245 -0.58714234828949 0.0052845161408186
vertex 0 0 0
endloop
endfacet
facet normal -0.707105696201324 0.00175729929469526 -0.70710563659668
outer loop
vertex -0.00352296209894121 -1.17432057857513 0.000604540226049721
vertex -0.0134873641654849 -1.17428469657898 0.0105690322816372
vertex -0.0017614810494706 -0.587160289287567 0.000302270113024861
endloop
endfacet
facet normal -0.707105696201324 0.00175729929469526 -0.70710563659668
outer loop
vertex -0.00674368208274245 -0.58714234828949 0.0052845161408186
vertex -0.0017614810494706 -0.587160289287567 0.000302270113024861
vertex -0.0134873641654849 -1.17428469657898 0.0105690322816372
endloop
endfacet
facet normal -0.707105696201324 0.00175729929469526 -0.70710563659668
outer loop
vertex -0.00352296209894121 -1.17432057857513 0.000604540226049721
vertex -0.00528444303199649 -1.76148080825806 0.000906810280866921
vertex -0.0134873641654849 -1.17428469657898 0.0105690322816372
endloop
endfacet
facet normal -0.707105755805969 0.00175729941111058 -0.70710563659668
outer loop
vertex -0.0202310457825661 -1.76142704486847 0.0158535484224558
vertex -0.0134873641654849 -1.17428469657898 0.0105690322816372
vertex -0.00528444303199649 -1.76148080825806 0.000906810280866921
endloop
endfacet
facet normal -0.707105696201324 0.00175729929469526 -0.70710563659668
outer loop
vertex -0.00704592419788241 -2.34864115715027 0.00120908045209944
vertex -0.0269747283309698 -2.34856939315796 0.0211380645632744
vertex -0.00528444303199649 -1.76148080825806 0.000906810280866921
endloop
endfacet
facet normal -0.707105755805969 0.00175729941111058 -0.70710563659668
outer loop
vertex -0.0202310457825661 -1.76142704486847 0.0158535484224558
vertex -0.00528444303199649 -1.76148080825806 0.000906810280866921
vertex -0.0269747283309698 -2.34856939315796 0.0211380645632744
endloop
endfacet
facet normal -0.707105696201324 0.00175729929469526 -0.70710563659668
outer loop
vertex -0.00704592419788241 -2.34864115715027 0.00120908045209944
vertex -0.00880740489810705 -2.9358012676239 0.00151135050691664
vertex -0.0269747283309698 -2.34856939315796 0.0211380645632744
endloop
endfacet
facet normal -0.707105696201324 0.00175729929469526 -0.70710563659668
outer loop
vertex -0.0337184108793736 -2.93571162223816 0.0264225788414478
vertex -0.0269747283309698 -2.34856939315796 0.0211380645632744
vertex -0.00880740489810705 -2.9358012676239 0.00151135050691664
endloop
endfacet
facet normal -0.707105696201324 0.00175729929469526 -0.70710563659668
outer loop
vertex -0.00880740489810705 -2.9358012676239 0.00151135050691664
vertex -0.010568886063993 -3.52296161651611 0.00181362056173384
vertex -0.0337184108793736 -2.93571162223816 0.0264225788414478
endloop
endfacet
facet normal -0.707105755805969 0.00175729941111058 -0.70710563659668
outer loop
vertex -0.0404620915651321 -3.52285408973694 0.0317070968449116
vertex -0.0337184108793736 -2.93571162223816 0.0264225788414478
vertex -0.010568886063993 -3.52296161651611 0.00181362056173384
endloop
endfacet
facet normal -0.707105755805969 0.00175729941111058 -0.70710563659668
outer loop
vertex -0.010568886063993 -3.52296161651611 0.00181362056173384
vertex -0.0123303672298789 -4.11012172698975 0.00211589061655104
vertex -0.0404620915651321 -3.52285408973694 0.0317070968449116
endloop
endfacet
facet normal -0.70710563659668 0.00175729941111058 -0.70710563659668
outer loop
vertex -0.047205775976181 -4.10999631881714 0.036991611123085
vertex -0.0404620915651321 -3.52285408973694 0.0317070968449116
vertex -0.0123303672298789 -4.11012172698975 0.00211589061655104
endloop
endfacet
facet normal -0.707105755805969 0.00175729941111058 -0.707105696201324
outer loop
vertex -0.0123303672298789 -4.11012172698975 0.00211589061655104
vertex -0.0139106661081314 -4.63688802719116 0.00238706986419857
vertex -0.047205775976181 -4.10999631881714 0.036991611123085
endloop
endfacet
facet normal -0.707105696201324 0.00175729941111058 -0.707105696201324
outer loop
vertex -0.0532558970153332 -4.63675355911255 0.0417326390743256
vertex -0.047205775976181 -4.10999631881714 0.036991611123085
vertex -0.0139106661081314 -4.63688802719116 0.00238706986419857
endloop
endfacet
facet normal -0.70710563659668 0.00175729941111058 -0.70710563659668
outer loop
vertex -0.0139106661081314 -4.63688802719116 0.00238706986419857
vertex -0.0149999326094985 -4.99997663497925 0.00257398816756904
vertex -0.0532558970153332 -4.63675355911255 0.0417326390743256
endloop
endfacet
facet normal -0.707105696201324 0.00175729929469526 -0.707105696201324
outer loop
vertex -0.0574260205030441 -4.99982786178589 0.0450004488229752
vertex -0.0532558970153332 -4.63675355911255 0.0417326390743256
vertex -0.0149999326094985 -4.99997663497925 0.00257398816756904
endloop
endfacet
facet normal 0.707113742828369 -0.00175732770003378 -0.707097589969635
outer loop
vertex -0.00176148244645447 -0.587160766124725 0.149697735905647
vertex -0.00674358289688826 -0.587142825126648 0.14471547305584
vertex 0 0 0.150000005960464
endloop
endfacet
facet normal 0.707113742828369 -0.00175732770003378 -0.707097589969635
outer loop
vertex -0.00352296489290893 -1.17432153224945 0.14939546585083
vertex -0.0134871657937765 -1.1742856502533 0.139430940151215
vertex -0.00176148244645447 -0.587160766124725 0.149697735905647
endloop
endfacet
facet normal 0.707113742828369 -0.00175732770003378 -0.707097589969635
outer loop
vertex -0.00674358289688826 -0.587142825126648 0.14471547305584
vertex -0.00176148244645447 -0.587160766124725 0.149697735905647
vertex -0.0134871657937765 -1.1742856502533 0.139430940151215
endloop
endfacet
facet normal 0.707113742828369 -0.00175732770003378 -0.707097589969635
outer loop
vertex -0.00352296489290893 -1.17432153224945 0.14939546585083
vertex -0.00528444722294807 -1.76148223876953 0.149093195796013
vertex -0.0134871657937765 -1.1742856502533 0.139430940151215
endloop
endfacet
facet normal 0.707113742828369 -0.00175732770003378 -0.70709764957428
outer loop
vertex -0.0202307496219873 -1.76142847537994 0.13414640724659
vertex -0.0134871657937765 -1.1742856502533 0.139430940151215
vertex -0.00528444722294807 -1.76148223876953 0.149093195796013
endloop
endfacet
facet normal 0.707113742828369 -0.00175732770003378 -0.707097589969635
outer loop
vertex -0.00704592978581786 -2.3486430644989 0.148790925741196
vertex -0.026974331587553 -2.34857130050659 0.128861889243126
vertex -0.00528444722294807 -1.76148223876953 0.149093195796013
endloop
endfacet
facet normal 0.707113742828369 -0.00175732770003378 -0.70709764957428
outer loop
vertex -0.0202307496219873 -1.76142847537994 0.13414640724659
vertex -0.00528444722294807 -1.76148223876953 0.149093195796013
vertex -0.026974331587553 -2.34857130050659 0.128861889243126
endloop
endfacet
facet normal 0.707113742828369 -0.00175732770003378 -0.707097589969635
outer loop
vertex -0.00704592978581786 -2.3486430644989 0.148790925741196
vertex -0.00880741234868765 -2.93580365180969 0.148488640785217
vertex -0.026974331587553 -2.34857130050659 0.128861889243126
endloop
endfacet
facet normal 0.707113802433014 -0.00175732770003378 -0.707097589969635
outer loop
vertex -0.0337179154157639 -2.93571400642395 0.123577356338501
vertex -0.026974331587553 -2.34857130050659 0.128861889243126
vertex -0.00880741234868765 -2.93580365180969 0.148488640785217
endloop
endfacet
facet normal 0.707113802433014 -0.00175732770003378 -0.707097589969635
outer loop
vertex -0.00880741234868765 -2.93580365180969 0.148488640785217
vertex -0.0105688944458961 -3.52296447753906 0.1481863707304
vertex -0.0337179154157639 -2.93571400642395 0.123577356338501
endloop
endfacet
facet normal 0.707113742828369 -0.00175732770003378 -0.70709764957428
outer loop
vertex -0.0404614992439747 -3.52285695075989 0.118292823433876
vertex -0.0337179154157639 -2.93571400642395 0.123577356338501
vertex -0.0105688944458961 -3.52296447753906 0.1481863707304
endloop
endfacet
facet normal 0.707113742828369 -0.00175732770003378 -0.70709764957428
outer loop
vertex -0.0105688944458961 -3.52296447753906 0.1481863707304
vertex -0.0123303774744272 -4.11012506484985 0.147884100675583
vertex -0.0404614992439747 -3.52285695075989 0.118292823433876
endloop
endfacet
facet normal 0.707113742828369 -0.00175732770003378 -0.707097589969635
outer loop
vertex -0.0472050830721855 -4.10999965667725 0.113008297979832
vertex -0.0404614992439747 -3.52285695075989 0.118292823433876
vertex -0.0123303774744272 -4.11012506484985 0.147884100675583
endloop
endfacet
facet normal 0.707113742828369 -0.00175732770003378 -0.707097589969635
outer loop
vertex -0.0123303774744272 -4.11012506484985 0.147884100675583
vertex -0.013910673558712 -4.63689041137695 0.147612929344177
vertex -0.0472050830721855 -4.10999965667725 0.113008297979832
endloop
endfacet
facet normal 0.707113802433014 -0.00175732781644911 -0.70709764957428
outer loop
vertex -0.0532550998032093 -4.63675594329834 0.108267270028591
vertex -0.0472050830721855 -4.10999965667725 0.113008297979832
vertex -0.013910673558712 -4.63689041137695 0.147612929344177
endloop
endfacet
facet normal 0.707113742828369 -0.00175732781644911 -0.70709764957428
outer loop
vertex -0.013910673558712 -4.63689041137695 0.147612929344177
vertex -0.0149999326094985 -4.99997663497925 0.147426009178162
vertex -0.0532550998032093 -4.63675594329834 0.108267270028591
endloop
endfacet
facet normal 0.707113802433014 -0.00175732770003378 -0.70709764957428
outer loop
vertex -0.0574251301586628 -4.99982786178589 0.104999475181103
vertex -0.0532550998032093 -4.63675594329834 0.108267270028591
vertex -0.0149999326094985 -4.99997663497925 0.147426009178162
endloop
endfacet
facet normal -0.999934136867523 0.0114848436787724 0
outer loop
vertex -0.0574242137372494 -4.99967002868652 0.0450000017881393
vertex -0.0574242137372494 -4.99967002868652 0.104999996721745
vertex -0.0530949719250202 -4.62274265289307 0.0416074246168137
endloop
endfacet
facet normal -0.999934077262878 0.0114848436787724 5.50464213107908e-17
outer loop
vertex -0.0530949719250202 -4.62274265289307 0.10839257389307
vertex -0.0530949719250202 -4.62274265289307 0.0416074246168137
vertex -0.0574242137372494 -4.99967002868652 0.104999996721745
endloop
endfacet
facet normal -0.999934017658234 0.0114848418161273 8.49500327759873e-17
outer loop
vertex -0.0467039495706558 -4.0663046836853 0.0365991555154324
vertex -0.0530949719250202 -4.62274265289307 0.0416074246168137
vertex -0.0467039495706558 -4.0663046836853 0.113400846719742
endloop
endfacet
facet normal -0.999934017658234 0.0114848427474499 5.50464146933459e-17
outer loop
vertex -0.0530949719250202 -4.62274265289307 0.10839257389307
vertex -0.0467039495706558 -4.0663046836853 0.113400846719742
vertex -0.0530949719250202 -4.62274265289307 0.0416074246168137
endloop
endfacet
facet normal -0.999934017658234 0.0114848418161273 8.49500327759873e-17
outer loop
vertex -0.0467039495706558 -4.0663046836853 0.0365991555154324
vertex -0.0467039495706558 -4.0663046836853 0.113400846719742
vertex -0.0397444218397141 -3.46036958694458 0.0311453808099031
endloop
endfacet
facet normal -0.999934017658234 0.0114848427474499 -2.0957216389072e-17
outer loop
vertex -0.0397444218397141 -3.46036958694458 0.118854619562626
vertex -0.0397444218397141 -3.46036958694458 0.0311453808099031
vertex -0.0467039495706558 -4.0663046836853 0.113400846719742
endloop
endfacet
facet normal -0.999934017658234 0.0114848427474499 -8.89967922384988e-17
outer loop
vertex -0.0327848941087723 -2.85443449020386 0.0256916061043739
vertex -0.0397444218397141 -3.46036958694458 0.0311453808099031
vertex -0.0327848941087723 -2.85443449020386 0.12430839240551
endloop
endfacet
facet normal -0.999934017658234 0.0114848427474499 -2.0957216389072e-17
outer loop
vertex -0.0397444218397141 -3.46036958694458 0.118854619562626
vertex -0.0327848941087723 -2.85443449020386 0.12430839240551
vertex -0.0397444218397141 -3.46036958694458 0.0311453808099031
endloop
endfacet
facet normal -0.999934077262878 0.0114848427474499 -8.89967922384988e-17
outer loop
vertex -0.0327848941087723 -2.85443449020386 0.0256916061043739
vertex -0.0327848941087723 -2.85443449020386 0.12430839240551
vertex -0.0255805645138025 -2.22718572616577 0.0200459938496351
endloop
endfacet
facet normal -0.999934077262878 0.0114848427474499 -4.64051235318005e-17
outer loop
vertex -0.0255805645138025 -2.22718572616577 0.129954010248184
vertex -0.0255805645138025 -2.22718572616577 0.0200459938496351
vertex -0.0327848941087723 -2.85443449020386 0.12430839240551
endloop
endfacet
facet normal -0.999934077262878 0.0114848427474499 -7.34189563659857e-17
outer loop
vertex -0.0176347512751818 -1.53537917137146 0.0138193238526583
vertex -0.0255805645138025 -2.22718572616577 0.0200459938496351
vertex -0.0176347512751818 -1.53537917137146 0.13618066906929
endloop
endfacet
facet normal -0.999934077262878 0.0114848427474499 -4.6405120223078e-17
outer loop
vertex -0.0255805645138025 -2.22718572616577 0.129954010248184
vertex -0.0176347512751818 -1.53537917137146 0.13618066906929
vertex -0.0255805645138025 -2.22718572616577 0.0200459938496351
endloop
endfacet
facet normal -0.999934077262878 0.0114848436787724 -7.56813681332122e-18
outer loop
vertex -0.00888400245457888 -0.773490488529205 0.00696187373250723
vertex -0.0176347512751818 -1.53537917137146 0.0138193238526583
vertex -0.00888400245457888 -0.773490488529205 0.143038123846054
endloop
endfacet
facet normal -0.999934077262878 0.0114848427474499 -7.34189563659857e-17
outer loop
vertex -0.0176347512751818 -1.53537917137146 0.13618066906929
vertex -0.00888400245457888 -0.773490488529205 0.143038123846054
vertex -0.0176347512751818 -1.53537917137146 0.0138193238526583
endloop
endfacet
facet normal -0.999934017658234 0.0114848418161273 -7.56813515895999e-18
outer loop
vertex -0.00888400245457888 -0.773490488529205 0.00696187373250723
vertex -0.00888400245457888 -0.773490488529205 0.143038123846054
vertex 0 0 0
endloop
endfacet
facet normal -0.999934077262878 0.0114848418161273 0
outer loop
vertex 0 0 0.150000005960464
vertex 0 0 0
vertex -0.00888400245457888 -0.773490488529205 0.143038123846054
endloop
endfacet
facet normal -2.6354033769546e-19 -0.000514799903612584 -0.99999988079071
outer loop
vertex 0.0306048542261124 -0.201617836952209 0.000103792859590612
vertex -0.000604853557888418 -0.201617836952209 0.000103792859590612
vertex 0.0299999993294477 0 0
endloop
endfacet
facet normal 0 -0.000514799903612584 -0.999999821186066
outer loop
vertex 0 0 0
vertex 0.0299999993294477 0 0
vertex -0.000604853557888418 -0.201617836952209 0.000103792859590612
endloop
endfacet
facet normal -2.6354033769546e-19 -0.000514799961820245 -0.999999821186066
outer loop
vertex 0.0306048542261124 -0.201617836952209 0.000103792859590612
vertex 0.0316673144698143 -0.555770933628082 0.00028611088055186
vertex -0.000604853557888418 -0.201617836952209 0.000103792859590612
endloop
endfacet
facet normal -1.32482611754504e-18 -0.000514799961820245 -0.999999821186066
outer loop
vertex -0.00166731304489076 -0.555770933628082 0.00028611088055186
vertex -0.000604853557888418 -0.201617836952209 0.000103792859590612
vertex 0.0316673144698143 -0.555770933628082 0.00028611088055186
endloop
endfacet
facet normal -1.12221763567964e-18 -0.000514799903612584 -0.99999988079071
outer loop
vertex 0.0333647131919861 -1.12157130241394 0.000577384897042066
vertex -0.00336471409536898 -1.12157130241394 0.000577384897042066
vertex 0.0316673144698143 -0.555770933628082 0.00028611088055186
endloop
endfacet
facet normal -1.32482611754504e-18 -0.000514799903612584 -0.99999988079071
outer loop
vertex -0.00166731304489076 -0.555770933628082 0.00028611088055186
vertex 0.0316673144698143 -0.555770933628082 0.00028611088055186
vertex -0.00336471409536898 -1.12157130241394 0.000577384897042066
endloop
endfacet
facet normal -1.12221773907722e-18 -0.000514799961820245 -0.999999940395355
outer loop
vertex 0.0333647131919861 -1.12157130241394 0.000577384897042066
vertex 0.0351567454636097 -1.7189154624939 0.000884897715877742
vertex -0.00336471409536898 -1.12157130241394 0.000577384897042066
endloop
endfacet
facet normal -1.16851079866117e-18 -0.000514799903612584 -0.999999821186066
outer loop
vertex -0.00515674706548452 -1.7189154624939 0.000884897715877742
vertex -0.00336471409536898 -1.12157130241394 0.000577384897042066
vertex 0.0351567454636097 -1.7189154624939 0.000884897715877742
endloop
endfacet
facet normal -1.01476598488984e-17 -0.000514799903612584 -0.99999988079071
outer loop
vertex 0.0369487814605236 -2.31625962257385 0.00119241047650576
vertex -0.00694878026843071 -2.31625962257385 0.00119241047650576
vertex 0.0351567454636097 -1.7189154624939 0.000884897715877742
endloop
endfacet
facet normal -1.16851079866117e-18 -0.000514799903612584 -0.999999821186066
outer loop
vertex -0.00515674706548452 -1.7189154624939 0.000884897715877742
vertex 0.0351567454636097 -1.7189154624939 0.000884897715877742
vertex -0.00694878026843071 -2.31625962257385 0.00119241047650576
endloop
endfacet
facet normal -1.01476598488984e-17 -0.000514799903612584 -0.99999988079071
outer loop
vertex 0.0369487814605236 -2.31625962257385 0.00119241047650576
vertex 0.0387408137321472 -2.91360402107239 0.00149992329534143
vertex -0.00694878026843071 -2.31625962257385 0.00119241047650576
endloop
endfacet
facet normal 0 -0.000514799961820245 -0.99999988079071
outer loop
vertex -0.0087408134713769 -2.91360402107239 0.00149992329534143
vertex -0.00694878026843071 -2.31625962257385 0.00119241047650576
vertex 0.0387408137321472 -2.91360402107239 0.00149992329534143
endloop
endfacet
facet normal 3.55444803169956e-18 -0.000514799961820245 -0.99999988079071
outer loop
vertex 0.0405328460037708 -3.51094818115234 0.00180743611417711
vertex -0.0105328457430005 -3.51094818115234 0.00180743611417711
vertex 0.0387408137321472 -2.91360402107239 0.00149992329534143
endloop
endfacet
facet normal 0 -0.000514799961820245 -0.99999988079071
outer loop
vertex -0.0087408134713769 -2.91360402107239 0.00149992329534143
vertex 0.0387408137321472 -2.91360402107239 0.00149992329534143
vertex -0.0105328457430005 -3.51094818115234 0.00180743611417711
endloop
endfacet
facet normal 3.55444803169956e-18 -0.000514799961820245 -0.99999988079071
outer loop
vertex 0.0405328460037708 -3.51094818115234 0.00180743611417711
vertex 0.0423248782753944 -4.10829257965088 0.00211494904942811
vertex -0.0105328457430005 -3.51094818115234 0.00180743611417711
endloop
endfacet
facet normal 7.93563992458873e-18 -0.000514799961820245 -0.99999988079071
outer loop
vertex -0.0123248789459467 -4.10829257965088 0.00211494904942811
vertex -0.0105328457430005 -3.51094818115234 0.00180743611417711
vertex 0.0423248782753944 -4.10829257965088 0.00211494904942811
endloop
endfacet
facet normal -7.90915691009723e-18 -0.000514799961820245 -0.99999988079071
outer loop
vertex 0.0439053662121296 -4.63512182235718 0.0023861606605351
vertex -0.0139053668826818 -4.63512182235718 0.0023861606605351
vertex 0.0423248782753944 -4.10829257965088 0.00211494904942811
endloop
endfacet
facet normal 7.93563992458873e-18 -0.000514799903612584 -0.99999988079071
outer loop
vertex -0.0123248789459467 -4.10829257965088 0.00211494904942811
vertex 0.0423248782753944 -4.10829257965088 0.00211494904942811
vertex -0.0139053668826818 -4.63512182235718 0.0023861606605351
endloop
endfacet
facet normal -7.90915691009723e-18 -0.000514799961820245 -0.999999940395355
outer loop
vertex 0.0439053662121296 -4.63512182235718 0.0023861606605351
vertex 0.0450000017881393 -4.99999952316284 0.00257399957627058
vertex -0.0139053668826818 -4.63512182235718 0.0023861606605351
endloop
endfacet
facet normal 0 -0.000514799903612584 -0.999999940395355
outer loop
vertex -0.0149999996647239 -4.99999952316284 0.00257399957627058
vertex -0.0139053668826818 -4.63512182235718 0.0023861606605351
vertex 0.0450000017881393 -4.99999952316284 0.00257399957627058
endloop
endfacet
facet normal 0 -0.000514799903612584 0.999999940395355
outer loop
vertex 0.0450000017881393 -4.99999952316284 0.147425994277
vertex 0.0439053662121296 -4.63512182235718 0.14761383831501
vertex -0.0149999996647239 -4.99999952316284 0.147425994277
endloop
endfacet
facet normal 7.90915691009723e-18 -0.000514799961820245 0.999999940395355
outer loop
vertex -0.0139053668826818 -4.63512182235718 0.14761383831501
vertex -0.0149999996647239 -4.99999952316284 0.147425994277
vertex 0.0439053662121296 -4.63512182235718 0.14761383831501
endloop
endfacet
facet normal 7.90915691009723e-18 -0.000514799961820245 0.99999988079071
outer loop
vertex 0.0439053662121296 -4.63512182235718 0.14761383831501
vertex 0.0423248782753944 -4.10829257965088 0.147885054349899
vertex -0.0139053668826818 -4.63512182235718 0.14761383831501
endloop
endfacet
facet normal 0 -0.000514799903612584 0.99999988079071
outer loop
vertex -0.0123248789459467 -4.10829257965088 0.147885054349899
vertex -0.0139053668826818 -4.63512182235718 0.14761383831501
vertex 0.0423248782753944 -4.10829257965088 0.147885054349899
endloop
endfacet
facet normal 0 -0.000514799961820245 0.99999988079071
outer loop
vertex 0.0423248782753944 -4.10829257965088 0.147885054349899
vertex 0.0405328460037708 -3.51094818115234 0.148192569613457
vertex -0.0123248789459467 -4.10829257965088 0.147885054349899
endloop
endfacet
facet normal 5.5695756768156e-16 -0.000514799961820245 0.99999988079071
outer loop
vertex -0.0105328457430005 -3.51094818115234 0.148192569613457
vertex -0.0123248789459467 -4.10829257965088 0.147885054349899
vertex 0.0405328460037708 -3.51094818115234 0.148192569613457
endloop
endfacet
facet normal 5.5695756768156e-16 -0.000514799961820245 0.99999988079071
outer loop
vertex -0.0105328457430005 -3.51094818115234 0.148192569613457
vertex 0.0405328460037708 -3.51094818115234 0.148192569613457
vertex -0.0087408134713769 -2.91360402107239 0.148500069975853
endloop
endfacet
facet normal 0 -0.000514799961820245 0.99999988079071
outer loop
vertex 0.0387408137321472 -2.91360402107239 0.148500069975853
vertex -0.0087408134713769 -2.91360402107239 0.148500069975853
vertex 0.0405328460037708 -3.51094818115234 0.148192569613457
endloop
endfacet
facet normal 0 -0.000514799961820245 0.99999988079071
outer loop
vertex 0.0387408137321472 -2.91360402107239 0.148500069975853
vertex 0.0369487814605236 -2.31625962257385 0.14880758523941
vertex -0.0087408134713769 -2.91360402107239 0.148500069975853
endloop
endfacet
facet normal -6.27072519835547e-16 -0.000514799903612584 0.99999988079071
outer loop
vertex -0.00694878026843071 -2.31625962257385 0.14880758523941
vertex -0.0087408134713769 -2.91360402107239 0.148500069975853
vertex 0.0369487814605236 -2.31625962257385 0.14880758523941
endloop
endfacet
facet normal -6.27072519835547e-16 -0.000514799903612584 0.99999988079071
outer loop
vertex -0.00694878026843071 -2.31625962257385 0.14880758523941
vertex 0.0369487814605236 -2.31625962257385 0.14880758523941
vertex -0.00515674706548452 -1.7189154624939 0.149115100502968
endloop
endfacet
facet normal 2.26839261392744e-17 -0.000514799903612584 0.999999821186066
outer loop
vertex 0.0351567454636097 -1.7189154624939 0.149115100502968
vertex -0.00515674706548452 -1.7189154624939 0.149115100502968
vertex 0.0369487814605236 -2.31625962257385 0.14880758523941
endloop
endfacet
facet normal 2.26839261392744e-17 -0.000514799903612584 0.999999821186066
outer loop
vertex 0.0351567454636097 -1.7189154624939 0.149115100502968
vertex 0.0333647131919861 -1.12157130241394 0.149422615766525
vertex -0.00515674706548452 -1.7189154624939 0.149115100502968
endloop
endfacet
facet normal 2.17852523063784e-17 -0.000514799961820245 0.999999940395355
outer loop
vertex -0.00336471409536898 -1.12157130241394 0.149422615766525
vertex -0.00515674706548452 -1.7189154624939 0.149115100502968
vertex 0.0333647131919861 -1.12157130241394 0.149422615766525
endloop
endfacet
facet normal 2.17852506520172e-17 -0.000514799903612584 0.99999988079071
outer loop
vertex -0.00336471409536898 -1.12157130241394 0.149422615766525
vertex 0.0333647131919861 -1.12157130241394 0.149422615766525
vertex -0.00166731304489076 -0.555770933628082 0.149713888764381
endloop
endfacet
facet normal 2.57184249815354e-17 -0.000514799903612584 0.99999988079071
outer loop
vertex 0.0316673144698143 -0.555770933628082 0.149713888764381
vertex -0.00166731304489076 -0.555770933628082 0.149713888764381
vertex 0.0333647131919861 -1.12157130241394 0.149422615766525
endloop
endfacet
facet normal 2.57184249815354e-17 -0.000514799961820245 0.999999821186066
outer loop
vertex 0.0316673144698143 -0.555770933628082 0.149713888764381
vertex 0.0306048542261124 -0.201617836952209 0.149896204471588
vertex -0.00166731304489076 -0.555770933628082 0.149713888764381
endloop
endfacet
facet normal 9.11300513336036e-16 -0.000514799961820245 0.999999821186066
outer loop
vertex -0.000604853557888418 -0.201617836952209 0.149896204471588
vertex -0.00166731304489076 -0.555770933628082 0.149713888764381
vertex 0.0306048542261124 -0.201617836952209 0.149896204471588
endloop
endfacet
facet normal 9.11300513336036e-16 -0.000514799903612584 0.99999988079071
outer loop
vertex -0.000604853557888418 -0.201617836952209 0.149896204471588
vertex 0.0306048542261124 -0.201617836952209 0.149896204471588
vertex 0 0 0.150000005960464
endloop
endfacet
facet normal 0 -0.000514799903612584 0.999999821186066
outer loop
vertex 0.0299999993294477 0 0.150000005960464
vertex 0 0 0.150000005960464
vertex 0.0306048542261124 -0.201617836952209 0.149896204471588
endloop
endfacet
facet normal -0.999934077262878 -0.0114844422787428 -0
outer loop
vertex 0.0299999993294477 0 0.150000005960464
vertex 0.0299999993294477 0 0
vertex 0.0388836935162544 -0.773490488529205 0.143038123846054
endloop
endfacet
facet normal -0.999934017658234 -0.0114844432100654 1.08972588609279e-16
outer loop
vertex 0.0388836935162544 -0.773490488529205 0.00696187373250723
vertex 0.0388836935162544 -0.773490488529205 0.143038123846054
vertex 0.0299999993294477 0 0
endloop
endfacet
facet normal -0.999934017658234 -0.0114844422787428 1.08972581991834e-16
outer loop
vertex 0.0388836935162544 -0.773490488529205 0.00696187373250723
vertex 0.0476341359317303 -1.53537917137146 0.0138193238526583
vertex 0.0388836935162544 -0.773490488529205 0.143038123846054
endloop
endfacet
facet normal -0.999934077262878 -0.0114844432100654 2.08403920167999e-17
outer loop
vertex 0.0476341359317303 -1.53537917137146 0.13618066906929
vertex 0.0388836935162544 -0.773490488529205 0.143038123846054
vertex 0.0476341359317303 -1.53537917137146 0.0138193238526583
endloop
endfacet
facet normal -0.999934077262878 -0.0114844432100654 2.08403920167999e-17
outer loop
vertex 0.0476341359317303 -1.53537917137146 0.0138193238526583
vertex 0.0555796734988689 -2.22718572616577 0.0200459938496351
vertex 0.0476341359317303 -1.53537917137146 0.13618066906929
endloop
endfacet
facet normal -0.999934077262878 -0.0114844422787428 1.29515440451021e-17
outer loop
vertex 0.0555796734988689 -2.22718572616577 0.129954010248184
vertex 0.0476341359317303 -1.53537917137146 0.13618066906929
vertex 0.0555796734988689 -2.22718572616577 0.0200459938496351
endloop
endfacet
facet normal -0.999934077262878 -0.0114844422787428 1.29515440451021e-17
outer loop
vertex 0.0555796734988689 -2.22718572616577 0.129954010248184
vertex 0.0555796734988689 -2.22718572616577 0.0200459938496351
vertex 0.0627837553620338 -2.85443449020386 0.12430839240551
endloop
endfacet
facet normal -0.999934077262878 -0.0114844422787428 3.72820757640592e-17
outer loop
vertex 0.0627837553620338 -2.85443449020386 0.0256916061043739
vertex 0.0627837553620338 -2.85443449020386 0.12430839240551
vertex 0.0555796734988689 -2.22718572616577 0.0200459938496351
endloop
endfacet
facet normal -0.999934017658234 -0.0114844422787428 3.72820757640592e-17
outer loop
vertex 0.0627837553620338 -2.85443449020386 0.0256916061043739
vertex 0.0697430372238159 -3.46036958694458 0.0311453808099031
vertex 0.0627837553620338 -2.85443449020386 0.12430839240551
endloop
endfacet
facet normal -0.999934017658234 -0.0114844432100654 8.38369785437359e-17
outer loop
vertex 0.0697430372238159 -3.46036958694458 0.118854619562626
vertex 0.0627837553620338 -2.85443449020386 0.12430839240551
vertex 0.0697430372238159 -3.46036958694458 0.0311453808099031
endloop
endfacet
facet normal -0.999934017658234 -0.0114844432100654 8.38369785437359e-17
outer loop
vertex 0.0697430372238159 -3.46036958694458 0.118854619562626
vertex 0.0697430372238159 -3.46036958694458 0.0311453808099031
vertex 0.076702319085598 -4.0663046836853 0.113400846719742
endloop
endfacet
facet normal -0.999934017658234 -0.0114844432100654 -4.78718437980325e-17
outer loop
vertex 0.076702319085598 -4.0663046836853 0.0365991555154324
vertex 0.076702319085598 -4.0663046836853 0.113400846719742
vertex 0.0697430372238159 -3.46036958694458 0.0311453808099031
endloop
endfacet
facet normal -0.999934077262878 -0.0114844432100654 -4.78718437980325e-17
outer loop
vertex 0.076702319085598 -4.0663046836853 0.0365991555154324
vertex 0.0830931216478348 -4.62274265289307 0.0416074246168137
vertex 0.076702319085598 -4.0663046836853 0.113400846719742
endloop
endfacet
facet normal -0.999934017658234 -0.0114844422787428 -9.76803291682885e-17
outer loop
vertex 0.0830931216478348 -4.62274265289307 0.10839257389307
vertex 0.076702319085598 -4.0663046836853 0.113400846719742
vertex 0.0830931216478348 -4.62274265289307 0.0416074246168137
endloop
endfacet
facet normal -0.999934077262878 -0.0114844432100654 -9.76803357857334e-17
outer loop
vertex 0.0830931216478348 -4.62274265289307 0.0416074246168137
vertex 0.087422214448452 -4.99967002868652 0.0450000017881393
vertex 0.0830931216478348 -4.62274265289307 0.10839257389307
endloop
endfacet
facet normal -0.999934136867523 -0.0114844432100654 -0
outer loop
vertex 0.087422214448452 -4.99967002868652 0.104999996721745
vertex 0.0830931216478348 -4.62274265289307 0.10839257389307
vertex 0.087422214448452 -4.99967002868652 0.0450000017881393
endloop
endfacet
facet normal 0.707105696201324 0.00175729906186461 -0.707105696201324
outer loop
vertex 0.0367429703474045 -0.587100982666016 0.00528390891849995
vertex 0.0317614190280437 -0.587202608585358 0.000302104861475527
vertex 0.0299999993294477 0 0
endloop
endfacet
facet normal 0.707105696201324 0.00175729906186461 -0.707105696201324
outer loop
vertex 0.0317614190280437 -0.587202608585358 0.000302104861475527
vertex 0.0367429703474045 -0.587100982666016 0.00528390891849995
vertex 0.0335228405892849 -1.17440521717072 0.000604209722951055
endloop
endfacet
facet normal 0.707105696201324 0.00175729906186461 -0.707105696201324
outer loop
vertex 0.0434859432280064 -1.17420196533203 0.0105678178369999
vertex 0.0335228405892849 -1.17440521717072 0.000604209722951055
vertex 0.0367429703474045 -0.587100982666016 0.00528390891849995
endloop
endfacet
facet normal 0.707105696201324 0.00175729906186461 -0.707105696201324
outer loop
vertex 0.0335228405892849 -1.17440521717072 0.000604209722951055
vertex 0.0434859432280064 -1.17420196533203 0.0105678178369999
vertex 0.035284262150526 -1.76160776615143 0.000906314584426582
endloop
endfacet
facet normal 0.707105696201324 0.00175729906186461 -0.707105696201324
outer loop
vertex 0.0502289161086082 -1.76130294799805 0.0158517267554998
vertex 0.035284262150526 -1.76160776615143 0.000906314584426582
vertex 0.0434859432280064 -1.17420196533203 0.0105678178369999
endloop
endfacet
facet normal 0.707105696201324 0.00175729906186461 -0.707105696201324
outer loop
vertex 0.035284262150526 -1.76160776615143 0.000906314584426582
vertex 0.0502289161086082 -1.76130294799805 0.0158517267554998
vertex 0.0370456837117672 -2.34881043434143 0.00120841944590211
endloop
endfacet
facet normal 0.707105696201324 0.00175729906186461 -0.707105696201324
outer loop
vertex 0.0569718889892101 -2.34840393066406 0.0211356356739998
vertex 0.0370456837117672 -2.34881043434143 0.00120841944590211
vertex 0.0502289161086082 -1.76130294799805 0.0158517267554998
endloop
endfacet
facet normal 0.707105696201324 0.00175729906186461 -0.707105696201324
outer loop
vertex 0.0370456837117672 -2.34881043434143 0.00120841944590211
vertex 0.0569718889892101 -2.34840393066406 0.0211356356739998
vertex 0.0388071052730083 -2.93601298332214 0.00151052430737764
endloop
endfacet
facet normal 0.707105696201324 0.00175729906186461 -0.707105696201324
outer loop
vertex 0.063714861869812 -2.93550491333008 0.0264195445924997
vertex 0.0388071052730083 -2.93601298332214 0.00151052430737764
vertex 0.0569718889892101 -2.34840393066406 0.0211356356739998
endloop
endfacet
facet normal 0.707105696201324 0.00175729906186461 -0.707105696201324
outer loop
vertex 0.063714861869812 -2.93550491333008 0.0264195445924997
vertex 0.0704578310251236 -3.52260589599609 0.0317034535109997
vertex 0.0388071052730083 -2.93601298332214 0.00151052430737764
endloop
endfacet
facet normal 0.707105696201324 0.00175729906186461 -0.707105696201324
outer loop
vertex 0.0405685231089592 -3.52321553230286 0.00181262916885316
vertex 0.0388071052730083 -2.93601298332214 0.00151052430737764
vertex 0.0704578310251236 -3.52260589599609 0.0317034535109997
endloop
endfacet
facet normal 0.707105696201324 0.00175729906186461 -0.707105696201324
outer loop
vertex 0.0704578310251236 -3.52260589599609 0.0317034535109997
vertex 0.0772008076310158 -4.10970687866211 0.0369873605668545
vertex 0.0405685231089592 -3.52321553230286 0.00181262916885316
endloop
endfacet
facet normal 0.70710563659668 0.00175729894544929 -0.70710563659668
outer loop
vertex 0.0423299446702003 -4.11041831970215 0.00211473414674401
vertex 0.0405685231089592 -3.52321553230286 0.00181262916885316
vertex 0.0772008076310158 -4.10970687866211 0.0369873605668545
endloop
endfacet
facet normal 0.70710563659668 0.00175729894544929 -0.70710563659668
outer loop
vertex 0.0772008076310158 -4.10970687866211 0.0369873605668545
vertex 0.0832501947879791 -4.63641834259033 0.0417277663946152
vertex 0.0423299446702003 -4.11041831970215 0.00211473414674401
endloop
endfacet
facet normal 0.707105696201324 0.00175729917827994 -0.707105696201324
outer loop
vertex 0.0439102053642273 -4.63722801208496 0.00238576787523925
vertex 0.0423299446702003 -4.11041831970215 0.00211473414674401
vertex 0.0832501947879791 -4.63641834259033 0.0417277663946152
endloop
endfacet
facet normal 0.707105696201324 0.00175729894544929 -0.707105696201324
outer loop
vertex 0.0832501947879791 -4.63641834259033 0.0417277663946152
vertex 0.0874198898673058 -4.99946784973145 0.0449952110648155
vertex 0.0439102053642273 -4.63722801208496 0.00238576787523925
endloop
endfacet
facet normal 0.70710563659668 0.00175729882903397 -0.70710563659668
outer loop
vertex 0.0449994169175625 -5.00033664703369 0.00257258070632815
vertex 0.0439102053642273 -4.63722801208496 0.00238576787523925
vertex 0.0874198898673058 -4.99946784973145 0.0449952110648155
endloop
endfacet
facet normal 0.70710563659668 0.00175729882903397 0.70710563659668
outer loop
vertex 0.0874256119132042 -4.99982786178589 0.104999959468842
vertex 0.0832555443048477 -4.63675594329834 0.108267717063427
vertex 0.0449999310076237 -4.99997663497925 0.147426009178162
endloop
endfacet
facet normal 0.707105696201324 0.00175729894544929 0.707105696201324
outer loop
vertex 0.0439106710255146 -4.63689041137695 0.147612929344177
vertex 0.0449999310076237 -4.99997663497925 0.147426009178162
vertex 0.0832555443048477 -4.63675594329834 0.108267717063427
endloop
endfacet
facet normal 0.707105696201324 0.00175729917827994 0.707105696201324
outer loop
vertex 0.0832555443048477 -4.63675594329834 0.108267717063427
vertex 0.07720547914505 -4.10999965667725 0.113008692860603
vertex 0.0439106710255146 -4.63689041137695 0.147612929344177
endloop
endfacet
facet normal 0.70710563659668 0.00175729894544929 0.70710563659668
outer loop
vertex 0.042330376803875 -4.11012506484985 0.147884100675583
vertex 0.0439106710255146 -4.63689041137695 0.147612929344177
vertex 0.07720547914505 -4.10999965667725 0.113008692860603
endloop
endfacet
facet normal 0.70710563659668 0.00175729894544929 0.70710563659668
outer loop
vertex 0.07720547914505 -4.10999965667725 0.113008692860603
vertex 0.0704618394374847 -3.52285695075989 0.118293166160583
vertex 0.042330376803875 -4.11012506484985 0.147884100675583
endloop
endfacet
facet normal 0.707105696201324 0.00175729906186461 0.707105696201324
outer loop
vertex 0.0405688919126987 -3.52296447753906 0.1481863707304
vertex 0.042330376803875 -4.11012506484985 0.147884100675583
vertex 0.0704618394374847 -3.52285695075989 0.118293166160583
endloop
endfacet
facet normal 0.707105696201324 0.00175729906186461 0.707105696201324
outer loop
vertex 0.0704618394374847 -3.52285695075989 0.118293166160583
vertex 0.0637181997299194 -2.93571400642395 0.123577639460564
vertex 0.0405688919126987 -3.52296447753906 0.1481863707304
endloop
endfacet
facet normal 0.707105696201324 0.00175729906186461 0.707105696201324
outer loop
vertex 0.0388074107468128 -2.93580365180969 0.148488640785217
vertex 0.0405688919126987 -3.52296447753906 0.1481863707304
vertex 0.0637181997299194 -2.93571400642395 0.123577639460564
endloop
endfacet
facet normal 0.707105696201324 0.00175729906186461 0.707105696201324
outer loop
vertex 0.0637181997299194 -2.93571400642395 0.123577639460564
vertex 0.0569745600223541 -2.34857130050659 0.128862112760544
vertex 0.0388074107468128 -2.93580365180969 0.148488640785217
endloop
endfacet
facet normal 0.707105696201324 0.00175729906186461 0.707105696201324
outer loop
vertex 0.0370459295809269 -2.3486430644989 0.148790925741196
vertex 0.0388074107468128 -2.93580365180969 0.148488640785217
vertex 0.0569745600223541 -2.34857130050659 0.128862112760544
endloop
endfacet
facet normal 0.707105696201324 0.00175729906186461 0.707105696201324
outer loop
vertex 0.0370459295809269 -2.3486430644989 0.148790925741196
vertex 0.0569745600223541 -2.34857130050659 0.128862112760544
vertex 0.035284448415041 -1.76148223876953 0.149093195796013
endloop
endfacet
facet normal 0.707105696201324 0.00175729906186461 0.707105696201324
outer loop
vertex 0.0502309203147888 -1.76142847537994 0.134146586060524
vertex 0.035284448415041 -1.76148223876953 0.149093195796013
vertex 0.0569745600223541 -2.34857130050659 0.128862112760544
endloop
endfacet
facet normal 0.707105696201324 0.00175729906186461 0.707105696201324
outer loop
vertex 0.0502309203147888 -1.76142847537994 0.134146586060524
vertex 0.0434872806072235 -1.1742856502533 0.139431059360504
vertex 0.035284448415041 -1.76148223876953 0.149093195796013
endloop
endfacet
facet normal 0.707105696201324 0.00175729906186461 0.707105696201324
outer loop
vertex 0.0335229635238647 -1.17432153224945 0.14939546585083
vertex 0.035284448415041 -1.76148223876953 0.149093195796013
vertex 0.0434872806072235 -1.1742856502533 0.139431059360504
endloop
endfacet
facet normal 0.707105696201324 0.00175729906186461 0.707105696201324
outer loop
vertex 0.0335229635238647 -1.17432153224945 0.14939546585083
vertex 0.0434872806072235 -1.1742856502533 0.139431059360504
vertex 0.0317614823579788 -0.587160766124725 0.149697735905647
endloop
endfacet
facet normal 0.707105696201324 0.00175729906186461 0.707105696201324
outer loop
vertex 0.0367436408996582 -0.587142825126648 0.144715532660484
vertex 0.0317614823579788 -0.587160766124725 0.149697735905647
vertex 0.0434872806072235 -1.1742856502533 0.139431059360504
endloop
endfacet
facet normal 0.707105696201324 0.00175729906186461 0.707105696201324
outer loop
vertex 0.0317614823579788 -0.587160766124725 0.149697735905647
vertex 0.0367436408996582 -0.587142825126648 0.144715532660484
vertex 0.0299999993294477 0 0.150000005960464
endloop
endfacet
facet normal 0.707105696201324 -0.00175729906186461 -0.707105696201324
outer loop
vertex 0.0896977260708809 -10.4128379821777 0.0582385174930096
vertex 0.0900000035762787 -10.9999990463257 0.0599999986588955
vertex 0.0847155302762985 -10.4128561019897 0.0532563589513302
endloop
endfacet
facet normal 0.707105696201324 -0.00175729906186461 -0.707105696201324
outer loop
vertex 0.0893954560160637 -9.82567691802979 0.0564770363271236
vertex 0.0896977260708809 -10.4128379821777 0.0582385174930096
vertex 0.0794310569763184 -9.82571315765381 0.0465127192437649
endloop
endfacet
facet normal 0.707105696201324 -0.00175729906186461 -0.707105696201324
outer loop
vertex 0.0847155302762985 -10.4128561019897 0.0532563589513302
vertex 0.0794310569763184 -9.82571315765381 0.0465127192437649
vertex 0.0896977260708809 -10.4128379821777 0.0582385174930096
endloop
endfacet
facet normal 0.707105696201324 -0.00175729906186461 -0.707105696201324
outer loop
vertex 0.0893954560160637 -9.82567691802979 0.0564770363271236
vertex 0.0794310569763184 -9.82571315765381 0.0465127192437649
vertex 0.0890931859612465 -9.23851680755615 0.0547155514359474
endloop
endfacet
facet normal 0.707105696201324 -0.00175729906186461 -0.707105696201324
outer loop
vertex 0.0741465836763382 -9.23857021331787 0.0397690795361996
vertex 0.0890931859612465 -9.23851680755615 0.0547155514359474
vertex 0.0794310569763184 -9.82571315765381 0.0465127192437649
endloop
endfacet
facet normal 0.707105696201324 -0.00175729906186461 -0.707105696201324
outer loop
vertex 0.0887909159064293 -8.6513557434082 0.0529540702700615
vertex 0.0890931859612465 -9.23851680755615 0.0547155514359474
vertex 0.068862110376358 -8.65142726898193 0.0330254398286343
endloop
endfacet
facet normal 0.707105696201324 -0.00175729906186461 -0.707105696201324
outer loop
vertex 0.0741465836763382 -9.23857021331787 0.0397690795361996
vertex 0.068862110376358 -8.65142726898193 0.0330254398286343
vertex 0.0890931859612465 -9.23851680755615 0.0547155514359474
endloop
endfacet
facet normal 0.707105696201324 -0.00175729906186461 -0.707105696201324
outer loop
vertex 0.0887909159064293 -8.6513557434082 0.0529540702700615
vertex 0.068862110376358 -8.65142726898193 0.0330254398286343
vertex 0.0884886458516121 -8.06419467926025 0.0511925891041756
endloop
endfacet
facet normal 0.707105696201324 -0.00175729906186461 -0.707105696201324
outer loop
vertex 0.0635776370763779 -8.064284324646 0.0262818019837141
vertex 0.0884886458516121 -8.06419467926025 0.0511925891041756
vertex 0.068862110376358 -8.65142726898193 0.0330254398286343
endloop
endfacet
facet normal 0.707105696201324 -0.00175729906186461 -0.707105696201324
outer loop
vertex 0.0884886458516121 -8.06419467926025 0.0511925891041756
vertex 0.0635776370763779 -8.064284324646 0.0262818019837141
vertex 0.0881863757967949 -7.47703409194946 0.0494311079382896
endloop
endfacet
facet normal 0.707105696201324 -0.00175729906186461 -0.707105696201324
outer loop
vertex 0.0582931637763977 -7.47714185714722 0.0195381622761488
vertex 0.0881863757967949 -7.47703409194946 0.0494311079382896
vertex 0.0635776370763779 -8.064284324646 0.0262818019837141
endloop
endfacet
facet normal 0.707105696201324 -0.00175729906186461 -0.707105696201324
outer loop
vertex 0.0881863757967949 -7.47703409194946 0.0494311079382896
vertex 0.0582931637763977 -7.47714185714722 0.0195381622761488
vertex 0.0878841057419777 -6.88987350463867 0.0476696230471134
endloop
endfacet
facet normal 0.70710563659668 -0.00175729894544929 -0.70710563659668
outer loop
vertex 0.0530086942017078 -6.88999891281128 0.0127945216372609
vertex 0.0878841057419777 -6.88987350463867 0.0476696230471134
vertex 0.0582931637763977 -7.47714185714722 0.0195381622761488
endloop
endfacet
facet normal 0.70710563659668 -0.00175729894544929 -0.70710563659668
outer loop
vertex 0.0878841057419777 -6.88987350463867 0.0476696230471134
vertex 0.0530086942017078 -6.88999891281128 0.0127945216372609
vertex 0.0876129269599915 -6.36310815811157 0.0460893288254738
endloop
endfacet
facet normal 0.707105696201324 -0.00175729917827994 -0.707105696201324
outer loop
vertex 0.0482677184045315 -6.36324262619019 0.00674445321783423
vertex 0.0876129269599915 -6.36310815811157 0.0460893288254738
vertex 0.0530086942017078 -6.88999891281128 0.0127945216372609
endloop
endfacet
facet normal 0.707105696201324 -0.00175729894544929 -0.707105696201324
outer loop
vertex 0.0876129269599915 -6.36310815811157 0.0460893288254738
vertex 0.0482677184045315 -6.36324262619019 0.00674445321783423
vertex 0.0874260142445564 -6.00002193450928 0.0450000688433647
endloop
endfacet
facet normal 0.70710563659668 -0.00175729882903397 -0.70710563659668
outer loop
vertex 0.0449999570846558 -6.00017118453979 0.0025743858423084
vertex 0.0874260142445564 -6.00002193450928 0.0450000688433647
vertex 0.0482677184045315 -6.36324262619019 0.00674445321783423
endloop
endfacet
facet normal -0.70709764957428 0.00175732770003378 -0.707113802433014
outer loop
vertex 0.044999472796917 -6.00017118453979 0.147425130009651
vertex 0.0874260142445564 -6.00002193450928 0.104999929666519
vertex 0.0482672713696957 -6.36324262619019 0.143255099654198
endloop
endfacet
facet normal -0.70709764957428 0.00175732781644911 -0.707113742828369
outer loop
vertex 0.0876129269599915 -6.36310815811157 0.10391066968441
vertex 0.0482672713696957 -6.36324262619019 0.143255099654198
vertex 0.0874260142445564 -6.00002193450928 0.104999929666519
endloop
endfacet
facet normal -0.707097589969635 0.00175732770003378 -0.707113742828369
outer loop
vertex 0.0878841057419777 -6.88987350463867 0.102330379188061
vertex 0.0530082955956459 -6.88999891281128 0.137205079197884
vertex 0.0876129269599915 -6.36310815811157 0.10391066968441
endloop
endfacet
facet normal -0.70709764957428 0.00175732781644911 -0.707113802433014
outer loop
vertex 0.0482672713696957 -6.36324262619019 0.143255099654198
vertex 0.0876129269599915 -6.36310815811157 0.10391066968441
vertex 0.0530082955956459 -6.88999891281128 0.137205079197884
endloop
endfacet
facet normal -0.707097589969635 0.00175732770003378 -0.707113742828369
outer loop
vertex 0.0530082955956459 -6.88999891281128 0.137205079197884
vertex 0.0878841057419777 -6.88987350463867 0.102330379188061
vertex 0.0582928247749805 -7.47714185714722 0.130461499094963
endloop
endfacet
facet normal -0.70709764957428 0.00175732770003378 -0.707113742828369
outer loop
vertex 0.0881863757967949 -7.47703409194946 0.100568898022175
vertex 0.0582928247749805 -7.47714185714722 0.130461499094963
vertex 0.0878841057419777 -6.88987350463867 0.102330379188061
endloop
endfacet
facet normal -0.70709764957428 0.00175732770003378 -0.707113742828369
outer loop
vertex 0.0582928247749805 -7.47714185714722 0.130461499094963
vertex 0.0881863757967949 -7.47703409194946 0.100568898022175
vertex 0.0635773539543152 -8.064284324646 0.123717918992043
endloop
endfacet
facet normal -0.707097589969635 0.00175732770003378 -0.707113802433014
outer loop
vertex 0.0884886458516121 -8.06419467926025 0.0988074094057083
vertex 0.0635773539543152 -8.064284324646 0.123717918992043
vertex 0.0881863757967949 -7.47703409194946 0.100568898022175
endloop
endfacet
facet normal -0.707097589969635 0.00175732770003378 -0.707113802433014
outer loop
vertex 0.0635773539543152 -8.064284324646 0.123717918992043
vertex 0.0884886458516121 -8.06419467926025 0.0988074094057083
vertex 0.0688618794083595 -8.65142726898193 0.116974331438541
endloop
endfacet
facet normal -0.707097589969635 0.00175732770003378 -0.707113742828369
outer loop
vertex 0.0887909159064293 -8.6513557434082 0.0970459282398224
vertex 0.0688618794083595 -8.65142726898193 0.116974331438541
vertex 0.0884886458516121 -8.06419467926025 0.0988074094057083
endloop
endfacet
facet normal -0.707097589969635 0.00175732770003378 -0.707113742828369
outer loop
vertex 0.0887909159064293 -8.6513557434082 0.0970459282398224
vertex 0.0890931859612465 -9.23851680755615 0.0952844470739365
vertex 0.0688618794083595 -8.65142726898193 0.116974331438541
endloop
endfacet
facet normal -0.70709764957428 0.00175732770003378 -0.707113742828369
outer loop
vertex 0.0741464123129845 -9.23857021331787 0.110230751335621
vertex 0.0688618794083595 -8.65142726898193 0.116974331438541
vertex 0.0890931859612465 -9.23851680755615 0.0952844470739365
endloop
endfacet
facet normal -0.70709764957428 0.00175732770003378 -0.707113742828369
outer loop
vertex 0.0741464123129845 -9.23857021331787 0.110230751335621
vertex 0.0890931859612465 -9.23851680755615 0.0952844470739365
vertex 0.0794309377670288 -9.82571315765381 0.10348716378212
endloop
endfacet
facet normal -0.707097589969635 0.00175732770003378 -0.707113742828369
outer loop
vertex 0.0893954560160637 -9.82567691802979 0.0935229659080505
vertex 0.0794309377670288 -9.82571315765381 0.10348716378212
vertex 0.0890931859612465 -9.23851680755615 0.0952844470739365
endloop
endfacet
facet normal -0.707097589969635 0.00175732770003378 -0.707113742828369
outer loop
vertex 0.0893954560160637 -9.82567691802979 0.0935229659080505
vertex 0.0896977260708809 -10.4128379821777 0.0917614847421646
vertex 0.0794309377670288 -9.82571315765381 0.10348716378212
endloop
endfacet
facet normal -0.707097589969635 0.00175732770003378 -0.707113742828369
outer loop
vertex 0.0847154706716537 -10.4128561019897 0.0967435836791992
vertex 0.0794309377670288 -9.82571315765381 0.10348716378212
vertex 0.0896977260708809 -10.4128379821777 0.0917614847421646
endloop
endfacet
facet normal -0.707097589969635 0.00175732770003378 -0.707113742828369
outer loop
vertex 0.0896977260708809 -10.4128379821777 0.0917614847421646
vertex 0.0900000035762787 -10.9999990463257 0.0900000035762787
vertex 0.0847154706716537 -10.4128561019897 0.0967435836791992
endloop
endfacet
facet normal 0.999999940395355 0.000514799961820245 2.4796468661374e-16
outer loop
vertex 0.0876138359308243 -6.36487674713135 0.0460946336388588
vertex 0.0874259993433952 -5.99999952316284 0.0450000017881393
vertex 0.0876138359308243 -6.36487674713135 0.103905364871025
endloop
endfacet
facet normal 0.999999940395355 0.000514799903612584 0
outer loop
vertex 0.0874259993433952 -5.99999952316284 0.104999996721745
vertex 0.0876138359308243 -6.36487674713135 0.103905364871025
vertex 0.0874259993433952 -5.99999952316284 0.0450000017881393
endloop
endfacet
facet normal 0.99999988079071 0.000514799961820245 2.4796468661374e-16
outer loop
vertex 0.0876138359308243 -6.36487674713135 0.0460946336388588
vertex 0.0876138359308243 -6.36487674713135 0.103905364871025
vertex 0.0878850519657135 -6.89170598983765 0.0476751215755939
endloop
endfacet
facet normal 0.99999988079071 0.000514799903612584 2.62307098462903e-16
outer loop
vertex 0.0878850519657135 -6.89170598983765 0.10232488065958
vertex 0.0878850519657135 -6.89170598983765 0.0476751215755939
vertex 0.0876138359308243 -6.36487674713135 0.103905364871025
endloop
endfacet
facet normal 0.99999988079071 0.000514799961820245 2.62307124932682e-16
outer loop
vertex 0.0878850519657135 -6.89170598983765 0.10232488065958
vertex 0.0881925672292709 -7.48905038833618 0.100532844662666
vertex 0.0878850519657135 -6.89170598983765 0.0476751215755939
endloop
endfacet
facet normal 0.99999988079071 0.000514799961820245 2.71763400755829e-16
outer loop
vertex 0.0881925672292709 -7.48905038833618 0.0494671538472176
vertex 0.0878850519657135 -6.89170598983765 0.0476751215755939
vertex 0.0881925672292709 -7.48905038833618 0.100532844662666
endloop
endfacet
facet normal 0.99999988079071 0.000514799961820245 2.71763400755829e-16
outer loop
vertex 0.0881925672292709 -7.48905038833618 0.0494671538472176
vertex 0.0881925672292709 -7.48905038833618 0.100532844662666
vertex 0.0885000750422478 -8.08639430999756 0.0512591861188412
endloop
endfacet
facet normal 0.99999988079071 0.000514799961820245 0
outer loop
vertex 0.0885000750422478 -8.08639430999756 0.098740816116333
vertex 0.0885000750422478 -8.08639430999756 0.0512591861188412
vertex 0.0881925672292709 -7.48905038833618 0.100532844662666
endloop
endfacet
facet normal 0.99999988079071 0.000514799961820245 -0
outer loop
vertex 0.0885000750422478 -8.08639430999756 0.0512591861188412
vertex 0.0885000750422478 -8.08639430999756 0.098740816116333
vertex 0.0888075903058052 -8.68373870849609 0.0530512183904648
endloop
endfacet
facet normal 0.99999988079071 0.000514799903612584 -3.1614025095587e-16
outer loop
vertex 0.0888075903058052 -8.68373870849609 0.0969487801194191
vertex 0.0888075903058052 -8.68373870849609 0.0530512183904648
vertex 0.0885000750422478 -8.08639430999756 0.098740816116333
endloop
endfacet
facet normal 0.99999988079071 0.000514799903612584 -3.1614025095587e-16
outer loop
vertex 0.0888075903058052 -8.68373870849609 0.0969487801194191
vertex 0.0891151055693626 -9.28108310699463 0.0951567441225052
vertex 0.0888075903058052 -8.68373870849609 0.0530512183904648
endloop
endfacet
facet normal 0.999999821186066 0.000514799903612584 3.4424663056056e-16
outer loop
vertex 0.0891151055693626 -9.28108310699463 0.0548432543873787
vertex 0.0888075903058052 -8.68373870849609 0.0530512183904648
vertex 0.0891151055693626 -9.28108310699463 0.0951567441225052
endloop
endfacet
facet normal 0.999999821186066 0.000514799903612584 3.4424663056056e-16
outer loop
vertex 0.0891151055693626 -9.28108310699463 0.0548432543873787
vertex 0.0891151055693626 -9.28108310699463 0.0951567441225052
vertex 0.0894226133823395 -9.87842750549316 0.0566352866590023
endloop
endfacet
facet normal 0.999999940395355 0.000514799961820245 2.48974316799642e-17
outer loop
vertex 0.0894226133823395 -9.87842750549316 0.0933647155761719
vertex 0.0894226133823395 -9.87842750549316 0.0566352866590023
vertex 0.0891151055693626 -9.28108310699463 0.0951567441225052
endloop
endfacet
facet normal 0.99999988079071 0.000514799903612584 2.4897430025603e-17
outer loop
vertex 0.0894226133823395 -9.87842750549316 0.0566352866590023
vertex 0.0894226133823395 -9.87842750549316 0.0933647155761719
vertex 0.0897138863801956 -10.4442281723022 0.0583326853811741
endloop
endfacet
facet normal 0.99999988079071 0.000514799903612584 -8.60067831400478e-16
outer loop
vertex 0.0897138863801956 -10.4442281723022 0.0916673094034195
vertex 0.0897138863801956 -10.4442281723022 0.0583326853811741
vertex 0.0894226133823395 -9.87842750549316 0.0933647155761719
endloop
endfacet
facet normal 0.999999821186066 0.000514799961820245 -8.60067831400478e-16
outer loop
vertex 0.0897138863801956 -10.4442281723022 0.0583326853811741
vertex 0.0897138863801956 -10.4442281723022 0.0916673094034195
vertex 0.0898962095379829 -10.7983808517456 0.059395145624876
endloop
endfacet
facet normal 0.999999821186066 0.000514799961820245 -1.27538597901027e-15
outer loop
vertex 0.0898962095379829 -10.7983808517456 0.0906048566102982
vertex 0.0898962095379829 -10.7983808517456 0.059395145624876
vertex 0.0897138863801956 -10.4442281723022 0.0916673094034195
endloop
endfacet
facet normal 0.99999988079071 0.000514799903612584 -1.27538597901027e-15
outer loop
vertex 0.0898962095379829 -10.7983808517456 0.059395145624876
vertex 0.0898962095379829 -10.7983808517456 0.0906048566102982
vertex 0.0900000035762787 -10.9999990463257 0.0599999986588955
endloop
endfacet
facet normal 0.999999821186066 0.000514799903612584 0
outer loop
vertex 0.0900000035762787 -10.9999990463257 0.0900000035762787
vertex 0.0900000035762787 -10.9999990463257 0.0599999986588955
vertex 0.0898962095379829 -10.7983808517456 0.0906048566102982
endloop
endfacet
endsolid COMSOL mesh mesh1
