solid COMSOL mesh mesh1
facet normal -1 0 0
outer loop
vertex -0.105710998177528 -6 0.025000000372529
vertex -0.105710998177528 -6 0.125
vertex -0.105710998177528 -5.5 0.025000000372529
endloop
endfacet
facet normal -1 -0 -0
outer loop
vertex -0.105710998177528 -5.5 0.125
vertex -0.105710998177528 -5.5 0.025000000372529
vertex -0.105710998177528 -6 0.125
endloop
endfacet
facet normal -1 0 0
outer loop
vertex -0.105710998177528 -5 0.025000000372529
vertex -0.105710998177528 -5.5 0.025000000372529
vertex -0.105710998177528 -5 0.125
endloop
endfacet
facet normal -1 0 0
outer loop
vertex -0.105710998177528 -5.5 0.125
vertex -0.105710998177528 -5 0.125
vertex -0.105710998177528 -5.5 0.025000000372529
endloop
endfacet
facet normal -0.70710676908493 0 -0.70710676908493
outer loop
vertex -0.105710998177528 -6 0.025000000372529
vertex -0.105710998177528 -5.5 0.025000000372529
vertex -0.0350000001490116 -6 -0.0457109995186329
endloop
endfacet
facet normal -0.70710676908493 -0 -0.70710676908493
outer loop
vertex -0.0350000001490116 -5.5 -0.0457109995186329
vertex -0.0350000001490116 -6 -0.0457109995186329
vertex -0.105710998177528 -5.5 0.025000000372529
endloop
endfacet
facet normal -0.70710676908493 0 -0.70710676908493
outer loop
vertex -0.105710998177528 -5.5 0.025000000372529
vertex -0.105710998177528 -5 0.025000000372529
vertex -0.0350000001490116 -5.5 -0.0457109995186329
endloop
endfacet
facet normal -0.70710676908493 -0 -0.70710676908493
outer loop
vertex -0.0350000001490116 -5 -0.0457109995186329
vertex -0.0350000001490116 -5.5 -0.0457109995186329
vertex -0.105710998177528 -5 0.025000000372529
endloop
endfacet
facet normal -0.70710676908493 1.17756929077237e-16 0.70710676908493
outer loop
vertex -0.0350000001490116 -6 0.195711001753807
vertex -0.0350000001490116 -5.5 0.195711001753807
vertex -0.105710998177528 -6 0.125
endloop
endfacet
facet normal -0.70710676908493 0 0.70710676908493
outer loop
vertex -0.105710998177528 -5.5 0.125
vertex -0.105710998177528 -6 0.125
vertex -0.0350000001490116 -5.5 0.195711001753807
endloop
endfacet
facet normal -0.70710676908493 -1.17756929077237e-16 0.70710676908493
outer loop
vertex -0.0350000001490116 -5.5 0.195711001753807
vertex -0.0350000001490116 -5 0.195711001753807
vertex -0.105710998177528 -5.5 0.125
endloop
endfacet
facet normal -0.70710676908493 0 0.70710676908493
outer loop
vertex -0.105710998177528 -5 0.125
vertex -0.105710998177528 -5.5 0.125
vertex -0.0350000001490116 -5 0.195711001753807
endloop
endfacet
facet normal 0 0 -1
outer loop
vertex -0.0350000001490116 -6 -0.0457109995186329
vertex -0.0350000001490116 -5.5 -0.0457109995186329
vertex 0.0649999976158142 -6 -0.0457109995186329
endloop
endfacet
facet normal 0 0 -1
outer loop
vertex -0.0350000001490116 -5.5 -0.0457109995186329
vertex -0.0350000001490116 -5 -0.0457109995186329
vertex 0.0649999976158142 -5.5 -0.0457109995186329
endloop
endfacet
facet normal -0 -0 -1
outer loop
vertex 0.0649999976158142 -5.5 -0.0457109995186329
vertex 0.0649999976158142 -6 -0.0457109995186329
vertex -0.0350000001490116 -5.5 -0.0457109995186329
endloop
endfacet
facet normal -0 -0 -1
outer loop
vertex 0.0649999976158142 -5 -0.0457109995186329
vertex 0.0649999976158142 -5.5 -0.0457109995186329
vertex -0.0350000001490116 -5 -0.0457109995186329
endloop
endfacet
facet normal 0 1.66533453693773e-16 1
outer loop
vertex 0.0649999976158142 -6 0.195711001753807
vertex 0.0649999976158142 -5.5 0.195711001753807
vertex -0.0350000001490116 -6 0.195711001753807
endloop
endfacet
facet normal -0 1.66533453693773e-16 1
outer loop
vertex -0.0350000001490116 -5.5 0.195711001753807
vertex -0.0350000001490116 -6 0.195711001753807
vertex 0.0649999976158142 -5.5 0.195711001753807
endloop
endfacet
facet normal 0 -1.66533453693773e-16 1
outer loop
vertex 0.0649999976158142 -5.5 0.195711001753807
vertex 0.0649999976158142 -5 0.195711001753807
vertex -0.0350000001490116 -5.5 0.195711001753807
endloop
endfacet
facet normal 0 -1.66533453693773e-16 1
outer loop
vertex -0.0350000001490116 -5 0.195711001753807
vertex -0.0350000001490116 -5.5 0.195711001753807
vertex 0.0649999976158142 -5 0.195711001753807
endloop
endfacet
facet normal 0.70710676908493 0 -0.70710676908493
outer loop
vertex 0.0649999976158142 -6 -0.0457109995186329
vertex 0.0649999976158142 -5.5 -0.0457109995186329
vertex 0.135710999369621 -6 0.025000000372529
endloop
endfacet
facet normal 0.70710676908493 0 -0.70710676908493
outer loop
vertex 0.0649999976158142 -5.5 -0.0457109995186329
vertex 0.0649999976158142 -5 -0.0457109995186329
vertex 0.135710999369621 -5.5 0.025000000372529
endloop
endfacet
facet normal 0.70710676908493 0 -0.70710676908493
outer loop
vertex 0.135710999369621 -5.5 0.025000000372529
vertex 0.135710999369621 -6 0.025000000372529
vertex 0.0649999976158142 -5.5 -0.0457109995186329
endloop
endfacet
facet normal 0.70710676908493 0 -0.70710676908493
outer loop
vertex 0.135710999369621 -5 0.025000000372529
vertex 0.135710999369621 -5.5 0.025000000372529
vertex 0.0649999976158142 -5 -0.0457109995186329
endloop
endfacet
facet normal 0.70710676908493 -0 0.70710676908493
outer loop
vertex 0.135710999369621 -6 0.125
vertex 0.135710999369621 -5.5 0.125
vertex 0.0649999976158142 -6 0.195711001753807
endloop
endfacet
facet normal 0.70710676908493 1.17756929077237e-16 0.70710676908493
outer loop
vertex 0.0649999976158142 -5.5 0.195711001753807
vertex 0.0649999976158142 -6 0.195711001753807
vertex 0.135710999369621 -5.5 0.125
endloop
endfacet
facet normal 0.70710676908493 -0 0.70710676908493
outer loop
vertex 0.135710999369621 -5.5 0.125
vertex 0.135710999369621 -5 0.125
vertex 0.0649999976158142 -5.5 0.195711001753807
endloop
endfacet
facet normal 0.70710676908493 -1.17756929077237e-16 0.70710676908493
outer loop
vertex 0.0649999976158142 -5 0.195711001753807
vertex 0.0649999976158142 -5.5 0.195711001753807
vertex 0.135710999369621 -5 0.125
endloop
endfacet
facet normal 1 0 0
outer loop
vertex 0.135710999369621 -6 0.025000000372529
vertex 0.135710999369621 -5.5 0.025000000372529
vertex 0.135710999369621 -6 0.125
endloop
endfacet
facet normal 1 0 0
outer loop
vertex 0.135710999369621 -5.5 0.125
vertex 0.135710999369621 -6 0.125
vertex 0.135710999369621 -5.5 0.025000000372529
endloop
endfacet
facet normal 1 0 -0
outer loop
vertex 0.135710999369621 -5 0.025000000372529
vertex 0.135710999369621 -5 0.125
vertex 0.135710999369621 -5.5 0.025000000372529
endloop
endfacet
facet normal 1 -0 0
outer loop
vertex 0.135710999369621 -5.5 0.125
vertex 0.135710999369621 -5.5 0.025000000372529
vertex 0.135710999369621 -5 0.125
endloop
endfacet
facet normal -0.999958157539368 -0.00914181768894196 -0
outer loop
vertex -0.0599999986588955 -10.9995822906494 0.0900000035762787
vertex -0.0617881864309311 -10.8039855957031 0.0913692340254784
vertex -0.0599999986588955 -10.9995822906494 0.0599999986588955
endloop
endfacet
facet normal -0.999958217144012 -0.00914181768894196 2.11940375367014e-16
outer loop
vertex -0.0617881864309311 -10.8039855957031 0.0586307644844055
vertex -0.0599999986588955 -10.9995822906494 0.0599999986588955
vertex -0.0617881864309311 -10.8039855957031 0.0913692340254784
endloop
endfacet
facet normal -0.999958157539368 -0.00914181768894196 2.11940375367014e-16
outer loop
vertex -0.0617881864309311 -10.8039855957031 0.0913692340254784
vertex -0.0647971481084824 -10.4748563766479 0.0936732292175293
vertex -0.0617881864309311 -10.8039855957031 0.0586307644844055
endloop
endfacet
facet normal -0.999958157539368 -0.00914181768894196 3.71580224949779e-16
outer loop
vertex -0.0647971481084824 -10.4748563766479 0.0563267692923546
vertex -0.0617881864309311 -10.8039855957031 0.0586307644844055
vertex -0.0647971481084824 -10.4748563766479 0.0936732292175293
endloop
endfacet
facet normal -0.999958217144012 -0.00914181768894196 -4.15887830206382e-16
outer loop
vertex -0.0696159675717354 -9.9477596282959 0.0973630622029305
vertex -0.0696159675717354 -9.9477596282959 0.0526369363069534
vertex -0.0647971481084824 -10.4748563766479 0.0936732292175293
endloop
endfacet
facet normal -0.999958157539368 -0.00914181768894196 3.7158019848e-16
outer loop
vertex -0.0647971481084824 -10.4748563766479 0.0563267692923546
vertex -0.0647971481084824 -10.4748563766479 0.0936732292175293
vertex -0.0696159675717354 -9.9477596282959 0.0526369363069534
endloop
endfacet
facet normal -0.999958217144012 -0.00914181768894196 -4.15887830206382e-16
outer loop
vertex -0.0696159675717354 -9.9477596282959 0.0973630622029305
vertex -0.0748643651604652 -9.37367534637451 0.101381823420525
vertex -0.0696159675717354 -9.9477596282959 0.0526369363069534
endloop
endfacet
facet normal -0.999958157539368 -0.00914181862026453 -6.15542442659726e-16
outer loop
vertex -0.0748643651604652 -9.37367534637451 0.0486181788146496
vertex -0.0696159675717354 -9.9477596282959 0.0526369363069534
vertex -0.0748643651604652 -9.37367534637451 0.101381823420525
endloop
endfacet
facet normal -0.999958157539368 -0.00914181862026453 -6.15542442659726e-16
outer loop
vertex -0.0748643651604652 -9.37367534637451 0.101381823420525
vertex -0.0801127552986145 -8.79959106445313 0.105400577187538
vertex -0.0748643651604652 -9.37367534637451 0.0486181788146496
endloop
endfacet
facet normal -0.999958157539368 -0.00914181768894196 2.28239195096318e-16
outer loop
vertex -0.0801127552986145 -8.79959106445313 0.0445994213223457
vertex -0.0748643651604652 -9.37367534637451 0.0486181788146496
vertex -0.0801127552986145 -8.79959106445313 0.105400577187538
endloop
endfacet
facet normal -0.999958217144012 -0.00914181768894196 -6.8621983792558e-17
outer loop
vertex -0.0853611454367638 -8.22550773620605 0.109419338405132
vertex -0.0853611454367638 -8.22550773620605 0.0405806638300419
vertex -0.0801127552986145 -8.79959106445313 0.105400577187538
endloop
endfacet
facet normal -0.999958157539368 -0.00914181768894196 2.28239195096318e-16
outer loop
vertex -0.0801127552986145 -8.79959106445313 0.0445994213223457
vertex -0.0801127552986145 -8.79959106445313 0.105400577187538
vertex -0.0853611454367638 -8.22550773620605 0.0405806638300419
endloop
endfacet
facet normal -0.999958217144012 -0.00914181768894196 -6.8621983792558e-17
outer loop
vertex -0.0853611454367638 -8.22550773620605 0.109419338405132
vertex -0.090609535574913 -7.65142297744751 0.113438092172146
vertex -0.0853611454367638 -8.22550773620605 0.0405806638300419
endloop
endfacet
facet normal -0.999958217144012 -0.00914181768894196 -1.36342473066331e-16
outer loop
vertex -0.090609535574913 -7.65142297744751 0.036561906337738
vertex -0.0853611454367638 -8.22550773620605 0.0405806638300419
vertex -0.090609535574913 -7.65142297744751 0.113438092172146
endloop
endfacet
facet normal -0.999958217144012 -0.00914181768894196 -1.36342473066331e-16
outer loop
vertex -0.090609535574913 -7.65142297744751 0.113438092172146
vertex -0.0958579331636429 -7.07733917236328 0.117456845939159
vertex -0.090609535574913 -7.65142297744751 0.036561906337738
endloop
endfacet
facet normal -0.999958217144012 -0.00914181768894196 -2.78155693710962e-17
outer loop
vertex -0.0958579331636429 -7.07733917236328 0.0325431525707245
vertex -0.090609535574913 -7.65142297744751 0.036561906337738
vertex -0.0958579331636429 -7.07733917236328 0.117456845939159
endloop
endfacet
facet normal -0.999958157539368 -0.00914181768894196 8.7470405780322e-17
outer loop
vertex -0.101024836301804 -6.51216793060303 0.121413208544254
vertex -0.101024836301804 -6.51216793060303 0.0285867899656296
vertex -0.0958579331636429 -7.07733917236328 0.117456845939159
endloop
endfacet
facet normal -0.999958157539368 -0.00914181675761938 -2.78155693710962e-17
outer loop
vertex -0.0958579331636429 -7.07733917236328 0.0325431525707245
vertex -0.0958579331636429 -7.07733917236328 0.117456845939159
vertex -0.101024836301804 -6.51216793060303 0.0285867899656296
endloop
endfacet
facet normal -0.999958276748657 -0.00914181768894196 8.74704190152118e-17
outer loop
vertex -0.101024836301804 -6.51216793060303 0.121413208544254
vertex -0.105709090828896 -5.99979114532471 0.125
vertex -0.101024836301804 -6.51216793060303 0.0285867899656296
endloop
endfacet
facet normal -0.999958276748657 -0.00914181862026453 0
outer loop
vertex -0.105709090828896 -5.99979114532471 0.025000000372529
vertex -0.101024836301804 -6.51216793060303 0.0285867899656296
vertex -0.105709090828896 -5.99979114532471 0.125
endloop
endfacet
facet normal -0.707060694694519 -0.0114135155454278 -0.707060694694519
outer loop
vertex -0.105719737708569 -5.99891376495361 0.0249979458749294
vertex -0.0350058972835541 -6.00076150894165 -0.045686062425375
vertex -0.101111814379692 -6.5029125213623 0.028525672852993
endloop
endfacet
facet normal -0.707060694694519 -0.0114135146141052 -0.707060694694519
outer loop
vertex -0.0375249683856964 -6.50457572937012 -0.0350343212485313
vertex -0.101111814379692 -6.5029125213623 0.028525672852993
vertex -0.0350058972835541 -6.00076150894165 -0.045686062425375
endloop
endfacet
facet normal -0.707060754299164 -0.0114135164767504 -0.707060754299164
outer loop
vertex -0.101111814379692 -6.5029125213623 0.028525672852993
vertex -0.0375249683856964 -6.50457572937012 -0.0350343212485313
vertex -0.0960313454270363 -7.05859708786011 0.0324151739478111
endloop
endfacet
facet normal -0.707060694694519 -0.0114135155454278 -0.707060694694519
outer loop
vertex -0.0403023473918438 -7.06005144119263 -0.0232903454452753
vertex -0.0960313454270363 -7.05859708786011 0.0324151739478111
vertex -0.0375249683856964 -6.50457572937012 -0.0350343212485313
endloop
endfacet
facet normal -0.707060754299164 -0.0114135164767504 -0.707060754299164
outer loop
vertex -0.0960313454270363 -7.05859708786011 0.0324151739478111
vertex -0.0403023473918438 -7.06005144119263 -0.0232903454452753
vertex -0.0908840075135231 -7.62159490585327 0.0363558642566204
endloop
endfacet
facet normal -0.707060754299164 -0.0114135164767504 -0.707060754299164
outer loop
vertex -0.0431162975728512 -7.62284135818481 -0.0113917244598269
vertex -0.0908840075135231 -7.62159490585327 0.0363558642566204
vertex -0.0403023473918438 -7.06005144119263 -0.0232903454452753
endloop
endfacet
facet normal -0.707060754299164 -0.0114135164767504 -0.707060754299164
outer loop
vertex -0.0908840075135231 -7.62159490585327 0.0363558642566204
vertex -0.0431162975728512 -7.62284135818481 -0.0113917244598269
vertex -0.0857366770505905 -8.18459320068359 0.0402965508401394
endloop
endfacet
facet normal -0.707060694694519 -0.0114135155454278 -0.707060694694519
outer loop
vertex -0.0459302477538586 -8.18563175201416 0.000506896467413753
vertex -0.0857366770505905 -8.18459320068359 0.0402965508401394
vertex -0.0431162975728512 -7.62284135818481 -0.0113917244598269
endloop
endfacet
facet normal -0.707060694694519 -0.0114135155454278 -0.707060694694519
outer loop
vertex -0.0857366770505905 -8.18459320068359 0.0402965508401394
vertex -0.0459302477538586 -8.18563175201416 0.000506896467413753
vertex -0.0805893391370773 -8.74759101867676 0.0442372411489487
endloop
endfacet
facet normal -0.707060694694519 -0.0114135155454278 -0.707060694694519
outer loop
vertex -0.048744197934866 -8.74842166900635 0.0124055175110698
vertex -0.0805893391370773 -8.74759101867676 0.0442372411489487
vertex -0.0459302477538586 -8.18563175201416 0.000506896467413753
endloop
endfacet
facet normal -0.707060694694519 -0.0114135155454278 -0.707060694694519
outer loop
vertex -0.0805893391370773 -8.74759101867676 0.0442372411489487
vertex -0.048744197934866 -8.74842166900635 0.0124055175110698
vertex -0.0754420012235641 -9.31058883666992 0.0481779314577579
endloop
endfacet
facet normal -0.707060754299164 -0.0114135164767504 -0.707060754299164
outer loop
vertex -0.0515581481158733 -9.31121158599854 0.0243041384965181
vertex -0.0754420012235641 -9.31058883666992 0.0481779314577579
vertex -0.048744197934866 -8.74842166900635 0.0124055175110698
endloop
endfacet
facet normal -0.707060754299164 -0.0114135164767504 -0.707060754299164
outer loop
vertex -0.0754420012235641 -9.31058883666992 0.0481779314577579
vertex -0.0515581481158733 -9.31121158599854 0.0243041384965181
vertex -0.0702946707606316 -9.87358665466309 0.0521186217665672
endloop
endfacet
facet normal -0.707060694694519 -0.0114135155454278 -0.707060694694519
outer loop
vertex -0.0543720982968807 -9.87400150299072 0.0362027585506439
vertex -0.0702946707606316 -9.87358665466309 0.0521186217665672
vertex -0.0515581481158733 -9.31121158599854 0.0243041384965181
endloop
endfacet
facet normal -0.707060694694519 -0.0114135155454278 -0.707060694694519
outer loop
vertex -0.0543720982968807 -9.87400150299072 0.0362027585506439
vertex -0.0571860484778881 -10.4367923736572 0.0481013804674149
vertex -0.0702946707606316 -9.87358665466309 0.0521186217665672
endloop
endfacet
facet normal -0.707060694694519 -0.0114135155454278 -0.707060694694519
outer loop
vertex -0.0651473328471184 -10.4365844726563 0.0560593120753765
vertex -0.0702946707606316 -9.87358665466309 0.0521186217665672
vertex -0.0571860484778881 -10.4367923736572 0.0481013804674149
endloop
endfacet
facet normal -0.707060694694519 -0.0114135155454278 -0.707060694694519
outer loop
vertex -0.0571860484778881 -10.4367923736572 0.0481013804674149
vertex -0.0599999986588955 -10.9995822906494 0.0599999986588955
vertex -0.0651473328471184 -10.4365844726563 0.0560593120753765
endloop
endfacet
facet normal -0.707068026065826 0.0114137064665556 -0.707053422927856
outer loop
vertex -0.00394036527723074 -0.562885761260986 -0.00514601450413465
vertex -0.0119013404473662 -0.562902569770813 0.00281485449522734
vertex 0 0 0
endloop
endfacet
facet normal -0.707068026065826 0.0114137064665556 -0.707053422927856
outer loop
vertex -0.00788073055446148 -1.12577152252197 -0.0102920290082693
vertex -0.0238026808947325 -1.12580513954163 0.00562970899045467
vertex -0.00394036527723074 -0.562885761260986 -0.00514601450413465
endloop
endfacet
facet normal -0.707068026065826 0.0114137064665556 -0.707053422927856
outer loop
vertex -0.0119013404473662 -0.562902569770813 0.00281485449522734
vertex -0.00394036527723074 -0.562885761260986 -0.00514601450413465
vertex -0.0238026808947325 -1.12580513954163 0.00562970899045467
endloop
endfacet
facet normal -0.707068026065826 0.0114137064665556 -0.707053422927856
outer loop
vertex -0.00788073055446148 -1.12577152252197 -0.0102920290082693
vertex -0.0118210949003696 -1.68865728378296 -0.015438043512404
vertex -0.0238026808947325 -1.12580513954163 0.00562970899045467
endloop
endfacet
facet normal -0.707068026065826 0.0114137064665556 -0.707053422927856
outer loop
vertex -0.0357040204107761 -1.68870770931244 0.00844456348568201
vertex -0.0238026808947325 -1.12580513954163 0.00562970899045467
vertex -0.0118210949003696 -1.68865728378296 -0.015438043512404
endloop
endfacet
facet normal -0.707068026065826 0.0114137064665556 -0.707053422927856
outer loop
vertex -0.0118210949003696 -1.68865728378296 -0.015438043512404
vertex -0.015761461108923 -2.25154304504395 -0.0205840580165386
vertex -0.0357040204107761 -1.68870770931244 0.00844456348568201
endloop
endfacet
facet normal -0.707068026065826 0.0114137064665556 -0.707053422927856
outer loop
vertex -0.047605361789465 -2.25161027908325 0.0112594179809093
vertex -0.0357040204107761 -1.68870770931244 0.00844456348568201
vertex -0.015761461108923 -2.25154304504395 -0.0205840580165386
endloop
endfacet
facet normal -0.707068026065826 0.0114137064665556 -0.707053422927856
outer loop
vertex -0.015761461108923 -2.25154304504395 -0.0205840580165386
vertex -0.0197018254548311 -2.81442880630493 -0.0257300715893507
vertex -0.047605361789465 -2.25161027908325 0.0112594179809093
endloop
endfacet
facet normal -0.707068026065826 0.0114137073978782 -0.707053482532501
outer loop
vertex -0.0595067031681538 -2.81451272964478 0.0140742734074593
vertex -0.047605361789465 -2.25161027908325 0.0112594179809093
vertex -0.0197018254548311 -2.81442880630493 -0.0257300715893507
endloop
endfacet
facet normal -0.707068026065826 0.0114137073978782 -0.707053482532501
outer loop
vertex -0.0197018254548311 -2.81442880630493 -0.0257300715893507
vertex -0.0236421898007393 -3.37731456756592 -0.0308760870248079
vertex -0.0595067031681538 -2.81451272964478 0.0140742734074593
endloop
endfacet
facet normal -0.707068026065826 0.0114137064665556 -0.707053422927856
outer loop
vertex -0.0714080408215523 -3.37741541862488 0.016889126971364
vertex -0.0595067031681538 -2.81451272964478 0.0140742734074593
vertex -0.0236421898007393 -3.37731456756592 -0.0308760870248079
endloop
endfacet
facet normal -0.707068026065826 0.0114137064665556 -0.707053422927856
outer loop
vertex -0.0236421898007393 -3.37731456756592 -0.0308760870248079
vertex -0.0275825560092926 -3.94020056724548 -0.03602210059762
vertex -0.0714080408215523 -3.37741541862488 0.016889126971364
endloop
endfacet
facet normal -0.707068026065826 0.0114137064665556 -0.707053422927856
outer loop
vertex -0.0833093822002411 -3.9403178691864 0.0197039823979139
vertex -0.0714080408215523 -3.37741541862488 0.016889126971364
vertex -0.0275825560092926 -3.94020056724548 -0.03602210059762
endloop
endfacet
facet normal -0.707068026065826 0.0114137064665556 -0.707053363323212
outer loop
vertex -0.0275825560092926 -3.94020056724548 -0.03602210059762
vertex -0.0314717069268227 -4.49577045440674 -0.0411012321710587
vertex -0.0833093822002411 -3.9403178691864 0.0197039823979139
endloop
endfacet
facet normal -0.707068085670471 0.0114137064665556 -0.707053363323212
outer loop
vertex -0.0950561240315437 -4.49590826034546 0.0224822703748941
vertex -0.0833093822002411 -3.9403178691864 0.0197039823979139
vertex -0.0314717069268227 -4.49577045440674 -0.0411012321710587
endloop
endfacet
facet normal -0.707068085670471 0.0114137073978782 -0.707053482532501
outer loop
vertex -0.0314717069268227 -4.49577045440674 -0.0411012321710587
vertex -0.034999143332243 -4.99966859817505 -0.0457079708576202
vertex -0.0950561240315437 -4.49590826034546 0.0224822703748941
endloop
endfacet
facet normal -0.707068026065826 0.011413705535233 -0.707053363323212
outer loop
vertex -0.105710230767727 -4.99982023239136 0.0250021368265152
vertex -0.0950561240315437 -4.49590826034546 0.0224822703748941
vertex -0.034999143332243 -4.99966859817505 -0.0457079708576202
endloop
endfacet
facet normal 0.707080781459808 -0.0114136794582009 -0.707040667533875
outer loop
vertex -0.00394036388024688 -0.562885582447052 0.155146017670631
vertex -0.0119012286886573 -0.562902390956879 0.14718496799469
vertex 0 0 0.150000005960464
endloop
endfacet
facet normal 0.707080781459808 -0.0114136794582009 -0.707040667533875
outer loop
vertex -0.00788072776049376 -1.1257711648941 0.160292029380798
vertex -0.0238024573773146 -1.12580478191376 0.144369930028915
vertex -0.00394036388024688 -0.562885582447052 0.155146017670631
endloop
endfacet
facet normal 0.707080781459808 -0.0114136794582009 -0.707040667533875
outer loop
vertex -0.0119012286886573 -0.562902390956879 0.14718496799469
vertex -0.00394036388024688 -0.562885582447052 0.155146017670631
vertex -0.0238024573773146 -1.12580478191376 0.144369930028915
endloop
endfacet
facet normal 0.707080781459808 -0.0114136794582009 -0.707040667533875
outer loop
vertex -0.00788072776049376 -1.1257711648941 0.160292029380798
vertex -0.0118210911750793 -1.68865668773651 0.165438041090965
vertex -0.0238024573773146 -1.12580478191376 0.144369930028915
endloop
endfacet
facet normal 0.707080781459808 -0.0114136803895235 -0.707040667533875
outer loop
vertex -0.0357036851346493 -1.68870711326599 0.141554906964302
vertex -0.0238024573773146 -1.12580478191376 0.144369930028915
vertex -0.0118210911750793 -1.68865668773651 0.165438041090965
endloop
endfacet
facet normal 0.707080781459808 -0.0114136803895235 -0.707040667533875
outer loop
vertex -0.0118210911750793 -1.68865668773651 0.165438041090965
vertex -0.0157614555209875 -2.25154232978821 0.170584052801132
vertex -0.0357036851346493 -1.68870711326599 0.141554906964302
endloop
endfacet
facet normal 0.707080781459808 -0.0114136794582009 -0.707040667533875
outer loop
vertex -0.0476049147546291 -2.25160956382751 0.138739868998528
vertex -0.0357036851346493 -1.68870711326599 0.141554906964302
vertex -0.0157614555209875 -2.25154232978821 0.170584052801132
endloop
endfacet
facet normal 0.707080781459808 -0.0114136794582009 -0.707040667533875
outer loop
vertex -0.0157614555209875 -2.25154232978821 0.170584052801132
vertex -0.0197018180042505 -2.81442785263062 0.175730064511299
vertex -0.0476049147546291 -2.25160956382751 0.138739868998528
endloop
endfacet
facet normal 0.707080781459808 -0.0114136794582009 -0.707040667533875
outer loop
vertex -0.059506144374609 -2.81451177597046 0.135924831032753
vertex -0.0476049147546291 -2.25160956382751 0.138739868998528
vertex -0.0197018180042505 -2.81442785263062 0.175730064511299
endloop
endfacet
facet normal 0.707080781459808 -0.0114136794582009 -0.707040667533875
outer loop
vertex -0.0197018180042505 -2.81442785263062 0.175730064511299
vertex -0.0236421823501587 -3.37731337547302 0.180876076221466
vertex -0.059506144374609 -2.81451177597046 0.135924831032753
endloop
endfacet
facet normal 0.707080781459808 -0.0114136803895235 -0.707040667533875
outer loop
vertex -0.0714073702692986 -3.37741422653198 0.133109793066978
vertex -0.059506144374609 -2.81451177597046 0.135924831032753
vertex -0.0236421823501587 -3.37731337547302 0.180876076221466
endloop
endfacet
facet normal 0.707080781459808 -0.0114136803895235 -0.707040667533875
outer loop
vertex -0.0236421823501587 -3.37731337547302 0.180876076221466
vertex -0.0275825466960669 -3.94019913673401 0.186022087931633
vertex -0.0714073702692986 -3.37741422653198 0.133109793066978
endloop
endfacet
facet normal 0.707080781459808 -0.0114136794582009 -0.707040667533875
outer loop
vertex -0.0833085998892784 -3.94031643867493 0.130294770002365
vertex -0.0714073702692986 -3.37741422653198 0.133109793066978
vertex -0.0275825466960669 -3.94019913673401 0.186022087931633
endloop
endfacet
facet normal 0.707080781459808 -0.0114136803895235 -0.707040667533875
outer loop
vertex -0.0275825466960669 -3.94019913673401 0.186022087931633
vertex -0.0314716957509518 -4.49576902389526 0.191101223230362
vertex -0.0833085998892784 -3.94031643867493 0.130294770002365
endloop
endfacet
facet normal 0.707080841064453 -0.0114136794582009 -0.707040727138519
outer loop
vertex -0.0950552374124527 -4.49590682983398 0.12751629948616
vertex -0.0833085998892784 -3.94031643867493 0.130294770002365
vertex -0.0314716957509518 -4.49576902389526 0.191101223230362
endloop
endfacet
facet normal 0.707080781459808 -0.0114136794582009 -0.707040667533875
outer loop
vertex -0.0314716957509518 -4.49576902389526 0.191101223230362
vertex -0.034999143332243 -4.99966859817505 0.195707976818085
vertex -0.0950552374124527 -4.49590682983398 0.12751629948616
endloop
endfacet
facet normal 0.707080781459808 -0.0114136785268784 -0.70704060792923
outer loop
vertex -0.10570927709341 -4.99982023239136 0.124996267259121
vertex -0.0950552374124527 -4.49590682983398 0.12751629948616
vertex -0.034999143332243 -4.99966859817505 0.195707976818085
endloop
endfacet
facet normal -0.707053422927856 -0.0114137064665556 0.707068026065826
outer loop
vertex -0.0651460140943527 -10.4366960525513 0.0939403623342514
vertex -0.0599999986588955 -10.9995822906494 0.0900000035762787
vertex -0.0571851469576359 -10.4366798400879 0.101901337504387
endloop
endfacet
facet normal -0.707053422927856 -0.0114137064665556 0.707068026065826
outer loop
vertex -0.0571851469576359 -10.4366798400879 0.101901337504387
vertex -0.054370291531086 -9.87377738952637 0.113802678883076
vertex -0.0651460140943527 -10.4366960525513 0.0939403623342514
endloop
endfacet
facet normal -0.707053422927856 -0.0114137064665556 0.707068026065826
outer loop
vertex -0.0702920258045197 -9.87381076812744 0.0978807285428047
vertex -0.0651460140943527 -10.4366960525513 0.0939403623342514
vertex -0.054370291531086 -9.87377738952637 0.113802678883076
endloop
endfacet
facet normal -0.707053422927856 -0.0114137064665556 0.707068026065826
outer loop
vertex -0.0702920258045197 -9.87381076812744 0.0978807285428047
vertex -0.054370291531086 -9.87377738952637 0.113802678883076
vertex -0.0754380449652672 -9.3109245300293 0.101821094751358
endloop
endfacet
facet normal -0.707053422927856 -0.0114137064665556 0.707068026065826
outer loop
vertex -0.0515554361045361 -9.31087398529053 0.125704020261765
vertex -0.0754380449652672 -9.3109245300293 0.101821094751358
vertex -0.054370291531086 -9.87377738952637 0.113802678883076
endloop
endfacet
facet normal -0.707053422927856 -0.0114137064665556 0.707068026065826
outer loop
vertex -0.0754380449652672 -9.3109245300293 0.101821094751358
vertex -0.0515554361045361 -9.31087398529053 0.125704020261765
vertex -0.0805840566754341 -8.74803924560547 0.105761460959911
endloop
endfacet
facet normal -0.707053422927856 -0.0114137064665556 0.707068026065826
outer loop
vertex -0.0487405806779861 -8.747971534729 0.137605354189873
vertex -0.0805840566754341 -8.74803924560547 0.105761460959911
vertex -0.0515554361045361 -9.31087398529053 0.125704020261765
endloop
endfacet
facet normal -0.707053422927856 -0.0114137064665556 0.707068026065826
outer loop
vertex -0.0805840566754341 -8.74803924560547 0.105761460959911
vertex -0.0487405806779861 -8.747971534729 0.137605354189873
vertex -0.085730068385601 -8.18515300750732 0.109701827168465
endloop
endfacet
facet normal -0.707053482532501 -0.0114137073978782 0.707068026065826
outer loop
vertex -0.0459257252514362 -8.18506908416748 0.149506703019142
vertex -0.085730068385601 -8.18515300750732 0.109701827168465
vertex -0.0487405806779861 -8.747971534729 0.137605354189873
endloop
endfacet
facet normal -0.707053482532501 -0.0114137073978782 0.707068026065826
outer loop
vertex -0.085730068385601 -8.18515300750732 0.109701827168465
vertex -0.0459257252514362 -8.18506908416748 0.149506703019142
vertex -0.0908760875463486 -7.62226724624634 0.113642193377018
endloop
endfacet
facet normal -0.707053422927856 -0.0114137064665556 0.707068026065826
outer loop
vertex -0.0431108735501766 -7.62216663360596 0.16140803694725
vertex -0.0908760875463486 -7.62226724624634 0.113642193377018
vertex -0.0459257252514362 -8.18506908416748 0.149506703019142
endloop
endfacet
facet normal -0.707053422927856 -0.0114137064665556 0.707068026065826
outer loop
vertex -0.0908760875463486 -7.62226724624634 0.113642193377018
vertex -0.0431108735501766 -7.62216663360596 0.16140803694725
vertex -0.0960220992565155 -7.05938148498535 0.117582552134991
endloop
endfacet
facet normal -0.707053422927856 -0.0114137064665556 0.707068026065826
outer loop
vertex -0.0402960181236267 -7.05926418304443 0.17330938577652
vertex -0.0960220992565155 -7.05938148498535 0.117582552134991
vertex -0.0431108735501766 -7.62216663360596 0.16140803694725
endloop
endfacet
facet normal -0.707053363323212 -0.0114137064665556 0.707068026065826
outer loop
vertex -0.0960220992565155 -7.05938148498535 0.117582552134991
vertex -0.0402960181236267 -7.05926418304443 0.17330938577652
vertex -0.101101227104664 -6.50381183624268 0.121471703052521
endloop
endfacet
facet normal -0.707053363323212 -0.0114137064665556 0.707068085670471
outer loop
vertex -0.0375177301466465 -6.50367403030396 0.185056120157242
vertex -0.101101227104664 -6.50381183624268 0.121471703052521
vertex -0.0402960181236267 -7.05926418304443 0.17330938577652
endloop
endfacet
facet normal -0.707053482532501 -0.0114137073978782 0.707068085670471
outer loop
vertex -0.101101227104664 -6.50381183624268 0.121471703052521
vertex -0.0375177301466465 -6.50367403030396 0.185056120157242
vertex -0.105707973241806 -5.99991369247437 0.124999143183231
endloop
endfacet
facet normal -0.707053363323212 -0.011413705535233 0.707068026065826
outer loop
vertex -0.0349978655576706 -5.99976205825806 0.195710226893425
vertex -0.105707973241806 -5.99991369247437 0.124999143183231
vertex -0.0375177301466465 -6.50367403030396 0.185056120157242
endloop
endfacet
facet normal -0.999776601791382 0.021138085052371 0
outer loop
vertex -0.105690412223339 -4.99888277053833 0.025000000372529
vertex -0.105690412223339 -4.99888277053833 0.125
vertex -0.0938718616962433 -4.43989610671997 0.02220444008708
endloop
endfacet
facet normal -0.999776542186737 0.0211380831897259 -1.69811603548546e-16
outer loop
vertex -0.0938655510544777 -4.43959712982178 0.127797052264214
vertex -0.0938718616962433 -4.43989610671997 0.02220444008708
vertex -0.105690412223339 -4.99888277053833 0.125
endloop
endfacet
facet normal -0.999776542186737 0.0211380813270807 -1.69862756397626e-16
outer loop
vertex -0.0938718616962433 -4.43989610671997 0.02220444008708
vertex -0.0938655510544777 -4.43959712982178 0.127797052264214
vertex -0.0802900269627571 -3.79751014709473 0.01899179443717
endloop
endfacet
facet normal -0.999776542186737 0.0211380813270807 -1.02567854857734e-16
outer loop
vertex -0.0802577883005142 -3.79598546028137 0.131015837192535
vertex -0.0802900269627571 -3.79751014709473 0.01899179443717
vertex -0.0938655510544777 -4.43959712982178 0.127797052264214
endloop
endfacet
facet normal -0.999776601791382 0.021138085052371 -1.02174844805097e-16
outer loop
vertex -0.0802900269627571 -3.79751014709473 0.01899179443717
vertex -0.0802577883005142 -3.79598546028137 0.131015837192535
vertex -0.0658121630549431 -3.11274480819702 0.0155672021210194
endloop
endfacet
facet normal -0.999776601791382 0.0211380831897259 1.54832831727978e-16
outer loop
vertex -0.0657700821757317 -3.11075448989868 0.134442746639252
vertex -0.0658121630549431 -3.11274480819702 0.0155672021210194
vertex -0.0802577883005142 -3.79598546028137 0.131015837192535
endloop
endfacet
facet normal -0.999776482582092 0.0211380813270807 1.54862385236903e-16
outer loop
vertex -0.0658121630549431 -3.11274480819702 0.0155672021210194
vertex -0.0657700821757317 -3.11075448989868 0.134442746639252
vertex -0.050454393029213 -2.38636207580566 0.0119344769045711
endloop
endfacet
facet normal -0.999776542186737 0.0211380831897259 -6.15498079309113e-17
outer loop
vertex -0.0504192970693111 -2.38470220565796 0.138073831796646
vertex -0.050454393029213 -2.38636207580566 0.0119344769045711
vertex -0.0657700821757317 -3.11075448989868 0.134442746639252
endloop
endfacet
facet normal -0.999776482582092 0.0211380813270807 -6.1741025618754e-17
outer loop
vertex -0.050454393029213 -2.38636207580566 0.0119344769045711
vertex -0.0504192970693111 -2.38470220565796 0.138073831796646
vertex -0.0341600589454174 -1.61568224430084 0.00808021705597639
endloop
endfacet
facet normal -0.999776542186737 0.0211380831897259 1.74159445173498e-18
outer loop
vertex -0.0341349579393864 -1.61449503898621 0.141925722360611
vertex -0.0341600589454174 -1.61568224430084 0.00808021705597639
vertex -0.0504192970693111 -2.38470220565796 0.138073831796646
endloop
endfacet
facet normal -0.999776482582092 0.0211380813270807 1.82588477653959e-18
outer loop
vertex -0.0341600589454174 -1.61568224430084 0.00808021705597639
vertex -0.0341349579393864 -1.61449503898621 0.141925722360611
vertex -0.0168705973774195 -0.797935545444489 0.00399056915193796
endloop
endfacet
facet normal -0.999776542186737 0.0211380831897259 1.48276624662662e-17
outer loop
vertex -0.0168578550219536 -0.79733282327652 0.14601244032383
vertex -0.0168705973774195 -0.797935545444489 0.00399056915193796
vertex -0.0341349579393864 -1.61449503898621 0.141925722360611
endloop
endfacet
facet normal -0.999776601791382 0.021138085052371 1.4810668867762e-17
outer loop
vertex -0.0168705973774195 -0.797935545444489 0.00399056915193796
vertex -0.0168578550219536 -0.79733282327652 0.14601244032383
vertex 0 0 0
endloop
endfacet
facet normal -0.999776601791382 0.0211380831897259 0
outer loop
vertex 0 0 0.150000005960464
vertex 0 0 0
vertex -0.0168578550219536 -0.79733282327652 0.14601244032383
endloop
endfacet
facet normal -0 0.0211374778300524 0.999776601791382
outer loop
vertex -0.0350000001490116 -6.00069904327393 -0.0456873811781406
vertex -0.0377954244613647 -6.55965948104858 -0.0338697358965874
vertex 0.0649999976158142 -6.00069904327393 -0.0456873811781406
endloop
endfacet
facet normal -1.77539389528812e-16 0.0211374778300524 0.999776601791382
outer loop
vertex 0.0677955597639084 -6.55968570709229 -0.0338691808283329
vertex 0.0649999976158142 -6.00069904327393 -0.0456873811781406
vertex -0.0377954244613647 -6.55965948104858 -0.0338697358965874
endloop
endfacet
facet normal -8.70083625424846e-17 0.0211374778300524 0.999776601791382
outer loop
vertex -0.0410079620778561 -7.20202350616455 -0.0202887430787086
vertex 0.0710081979632378 -7.20207023620605 -0.0202877521514893
vertex -0.0377954244613647 -6.55965948104858 -0.0338697358965874
endloop
endfacet
facet normal -1.77536239625039e-16 0.0211374778300524 0.999776601791382
outer loop
vertex 0.0677955597639084 -6.55968570709229 -0.0338691808283329
vertex -0.0377954244613647 -6.55965948104858 -0.0338697358965874
vertex 0.0710081979632378 -7.20207023620605 -0.0202877521514893
endloop
endfacet
facet normal -8.70361094889521e-17 0.0211374759674072 0.999776542186737
outer loop
vertex -0.0410079620778561 -7.20202350616455 -0.0202887430787086
vertex -0.0444326587021351 -7.88680982589722 -0.00581085542216897
vertex 0.0710081979632378 -7.20207023620605 -0.0202877521514893
endloop
endfacet
facet normal -2.41461591161195e-16 0.0211374778300524 0.999776601791382
outer loop
vertex 0.0744327828288078 -7.8868350982666 -0.00581032130867243
vertex 0.0710081979632378 -7.20207023620605 -0.0202877521514893
vertex -0.0444326587021351 -7.88680982589722 -0.00581085542216897
endloop
endfacet
facet normal 3.26891640155369e-16 0.0211374759674072 0.999776601791382
outer loop
vertex -0.0480656772851944 -8.61325073242188 0.0095477057620883
vertex 0.0780655071139336 -8.6132173538208 0.00954699236899614
vertex -0.0444326587021351 -7.88680982589722 -0.00581085542216897
endloop
endfacet
facet normal -2.41468261545654e-16 0.0211374759674072 0.999776542186737
outer loop
vertex 0.0744327828288078 -7.8868350982666 -0.00581032130867243
vertex -0.0444326587021351 -7.88680982589722 -0.00581085542216897
vertex 0.0780655071139336 -8.6132173538208 0.00954699236899614
endloop
endfacet
facet normal 3.2691350419332e-16 0.0211374796926975 0.999776661396027
outer loop
vertex -0.0480656772851944 -8.61325073242188 0.0095477057620883
vertex -0.0519200749695301 -9.383957862854 0.0258421543985605
vertex 0.0780655071139336 -8.6132173538208 0.00954699236899614
endloop
endfacet
facet normal 9.72781208672408e-17 0.0211374759674072 0.999776542186737
outer loop
vertex 0.0819197669625282 -9.38389682769775 0.0258408673107624
vertex 0.0780655071139336 -8.6132173538208 0.00954699236899614
vertex -0.0519200749695301 -9.383957862854 0.0258421543985605
endloop
endfacet
facet normal -3.72936377637892e-16 0.0211374759674072 0.999776601791382
outer loop
vertex -0.056009616702795 -10.2016839981079 0.0431306734681129
vertex 0.0860094279050827 -10.2016458511353 0.0431298725306988
vertex -0.0519200749695301 -9.383957862854 0.0258421543985605
endloop
endfacet
facet normal 9.72634301395618e-17 0.0211374778300524 0.999776601791382
outer loop
vertex 0.0819197669625282 -9.38389682769775 0.0258408673107624
vertex -0.0519200749695301 -9.383957862854 0.0258421543985605
vertex 0.0860094279050827 -10.2016458511353 0.0431298725306988
endloop
endfacet
facet normal -3.72959221057689e-16 0.0211374759674072 0.999776542186737
outer loop
vertex -0.056009616702795 -10.2016839981079 0.0431306734681129
vertex -0.0599999986588955 -10.9995822906494 0.0599999986588955
vertex 0.0860094279050827 -10.2016458511353 0.0431298725306988
endloop
endfacet
facet normal -4.62489584495954e-17 0.0211374759674072 0.999776601791382
outer loop
vertex 0.0900000035762787 -10.9995822906494 0.0599999986588955
vertex 0.0860094279050827 -10.2016458511353 0.0431298725306988
vertex -0.0599999986588955 -10.9995822906494 0.0599999986588955
endloop
endfacet
facet normal 0 -0.0211380831897259 0.999776601791382
outer loop
vertex -0.0350000001490116 -6.00069952011108 0.195690408349037
vertex -0.0377954244613647 -6.55965948104858 0.183872431516647
vertex 0.0649999976158142 -6.00069952011108 0.195690408349037
endloop
endfacet
facet normal 2.23430694933874e-16 -0.0211380831897259 0.999776542186737
outer loop
vertex 0.0677955597639084 -6.55968570709229 0.183871880173683
vertex 0.0649999976158142 -6.00069952011108 0.195690408349037
vertex -0.0377954244613647 -6.55965948104858 0.183872431516647
endloop
endfacet
facet normal 1.63148037538707e-18 -0.0211380831897259 0.999776601791382
outer loop
vertex -0.0410079620778561 -7.20202350616455 0.170291051268578
vertex 0.0710081979632378 -7.20207071304321 0.170290052890778
vertex -0.0377954244613647 -6.55965948104858 0.183872431516647
endloop
endfacet
facet normal 2.23429556733351e-16 -0.0211380831897259 0.999776542186737
outer loop
vertex 0.0677955597639084 -6.55968570709229 0.183871880173683
vertex -0.0377954244613647 -6.55965948104858 0.183872431516647
vertex 0.0710081979632378 -7.20207071304321 0.170290052890778
endloop
endfacet
facet normal 1.67669055215162e-18 -0.0211380813270807 0.999776542186737
outer loop
vertex -0.0410079620778561 -7.20202350616455 0.170291051268578
vertex -0.0444326587021351 -7.88680982589722 0.155812740325928
vertex 0.0710081979632378 -7.20207071304321 0.170290052890778
endloop
endfacet
facet normal -3.14079975660572e-16 -0.021138085052371 0.999776601791382
outer loop
vertex 0.0744327828288078 -7.8868350982666 0.155812203884125
vertex 0.0710081979632378 -7.20207071304321 0.170290052890778
vertex -0.0444326587021351 -7.88680982589722 0.155812740325928
endloop
endfacet
facet normal -9.44927933100269e-16 -0.0211380831897259 0.999776601791382
outer loop
vertex -0.0480656772851944 -8.61325073242188 0.140453740954399
vertex 0.0780655071139336 -8.6132173538208 0.140454456210136
vertex -0.0444326587021351 -7.88680982589722 0.155812740325928
endloop
endfacet
facet normal -3.14113486401548e-16 -0.0211380831897259 0.999776542186737
outer loop
vertex 0.0744327828288078 -7.8868350982666 0.155812203884125
vertex -0.0444326587021351 -7.88680982589722 0.155812740325928
vertex 0.0780655071139336 -8.6132173538208 0.140454456210136
endloop
endfacet
facet normal -9.44980978538591e-16 -0.0211380831897259 0.999776542186737
outer loop
vertex -0.0480656772851944 -8.61325073242188 0.140453740954399
vertex -0.0519200749695301 -9.383957862854 0.124158829450607
vertex 0.0780655071139336 -8.6132173538208 0.140454456210136
endloop
endfacet
facet normal -3.76372631486226e-16 -0.0211380831897259 0.999776542186737
outer loop
vertex 0.0819197669625282 -9.38389682769775 0.12416011095047
vertex 0.0780655071139336 -8.6132173538208 0.140454456210136
vertex -0.0519200749695301 -9.383957862854 0.124158829450607
endloop
endfacet
facet normal -2.37068190082464e-16 -0.021138085052371 0.999776601791382
outer loop
vertex -0.056009616702795 -10.2016839981079 0.10686980932951
vertex 0.0860094279050827 -10.2016458511353 0.106870613992214
vertex -0.0519200749695301 -9.383957862854 0.124158829450607
endloop
endfacet
facet normal -3.7640492461734e-16 -0.0211380813270807 0.999776542186737
outer loop
vertex 0.0819197669625282 -9.38389682769775 0.12416011095047
vertex -0.0519200749695301 -9.383957862854 0.124158829450607
vertex 0.0860094279050827 -10.2016458511353 0.106870613992214
endloop
endfacet
facet normal -2.37048787734016e-16 -0.0211380831897259 0.999776542186737
outer loop
vertex -0.056009616702795 -10.2016839981079 0.10686980932951
vertex -0.0599999986588955 -10.9995822906494 0.0900000035762787
vertex 0.0860094279050827 -10.2016458511353 0.106870613992214
endloop
endfacet
facet normal 0 -0.0211380831897259 0.999776601791382
outer loop
vertex 0.0900000035762787 -10.9995822906494 0.0900000035762787
vertex 0.0860094279050827 -10.2016458511353 0.106870613992214
vertex -0.0599999986588955 -10.9995822906494 0.0900000035762787
endloop
endfacet
facet normal 0 0.00914181768894196 -0.999958157539368
outer loop
vertex 0 0 0
vertex 0.0299999993294477 0 0
vertex -0.00136923545505852 -0.195596888661385 -0.00178818590939045
endloop
endfacet
facet normal 6.05776457180349e-18 0.00914181768894196 -0.999958217144012
outer loop
vertex 0.0313692353665829 -0.195596888661385 -0.00178818590939045
vertex -0.00136923545505852 -0.195596888661385 -0.00178818590939045
vertex 0.0299999993294477 0 0
endloop
endfacet
facet normal 7.90544369632748e-18 0.00914181768894196 -0.999958157539368
outer loop
vertex -0.00367323216050863 -0.524725556373596 -0.00479714572429657
vertex -0.00136923545505852 -0.195596888661385 -0.00178818590939045
vertex 0.0336732305586338 -0.524725556373596 -0.00479714572429657
endloop
endfacet
facet normal 6.05776457180349e-18 0.00914181768894196 -0.999958157539368
outer loop
vertex 0.0313692353665829 -0.195596888661385 -0.00178818590939045
vertex 0.0336732305586338 -0.524725556373596 -0.00479714572429657
vertex -0.00136923545505852 -0.195596888661385 -0.00178818590939045
endloop
endfacet
facet normal 7.90544369632748e-18 0.00914181768894196 -0.999958157539368
outer loop
vertex -0.00367323216050863 -0.524725556373596 -0.00479714572429657
vertex 0.0336732305586338 -0.524725556373596 -0.00479714572429657
vertex -0.0073630646802485 -1.05182242393494 -0.00961597077548504
endloop
endfacet
facet normal 1.03971957551595e-16 0.00914181768894196 -0.999958217144012
outer loop
vertex 0.037363063544035 -1.05182242393494 -0.00961597077548504
vertex -0.0073630646802485 -1.05182242393494 -0.00961597077548504
vertex 0.0336732305586338 -0.524725556373596 -0.00479714572429657
endloop
endfacet
facet normal 8.74365774019911e-17 0.00914181862026453 -0.999958157539368
outer loop
vertex -0.0113818217068911 -1.62590658664703 -0.0148643627762794
vertex -0.0073630646802485 -1.05182242393494 -0.00961597077548504
vertex 0.0413818210363388 -1.62590658664703 -0.0148643627762794
endloop
endfacet
facet normal 1.03971957551595e-16 0.00914181768894196 -0.999958217144012
outer loop
vertex 0.037363063544035 -1.05182242393494 -0.00961597077548504
vertex 0.0413818210363388 -1.62590658664703 -0.0148643627762794
vertex -0.0073630646802485 -1.05182242393494 -0.00961597077548504
endloop
endfacet
facet normal 8.74365774019911e-17 0.00914181862026453 -0.999958157539368
outer loop
vertex -0.0113818217068911 -1.62590658664703 -0.0148643627762794
vertex 0.0413818210363388 -1.62590658664703 -0.0148643627762794
vertex -0.0154005782678723 -2.19999074935913 -0.0201127547770739
endloop
endfacet
facet normal 1.23831267039793e-16 0.00914181768894196 -0.999958157539368
outer loop
vertex 0.0454005785286427 -2.19999074935913 -0.0201127547770739
vertex -0.0154005782678723 -2.19999074935913 -0.0201127547770739
vertex 0.0413818210363388 -1.62590658664703 -0.0148643627762794
endloop
endfacet
facet normal 8.57774797406975e-18 0.00914181768894196 -0.999958217144012
outer loop
vertex -0.0194193348288536 -2.77407479286194 -0.0253611467778683
vertex -0.0154005782678723 -2.19999074935913 -0.0201127547770739
vertex 0.0494193360209465 -2.77407479286194 -0.0253611467778683
endloop
endfacet
facet normal 1.23831267039793e-16 0.00914181768894196 -0.999958157539368
outer loop
vertex 0.0454005785286427 -2.19999074935913 -0.0201127547770739
vertex 0.0494193360209465 -2.77407479286194 -0.0253611467778683
vertex -0.0154005782678723 -2.19999074935913 -0.0201127547770739
endloop
endfacet
facet normal 8.57774797406975e-18 0.00914181768894196 -0.999958217144012
outer loop
vertex -0.0194193348288536 -2.77407479286194 -0.0253611467778683
vertex 0.0494193360209465 -2.77407479286194 -0.0253611467778683
vertex -0.0234380923211575 -3.34815883636475 -0.0306095387786627
endloop
endfacet
facet normal 7.68093198882956e-18 0.00914181768894196 -0.999958217144012
outer loop
vertex 0.0534380935132504 -3.34815883636475 -0.0306095387786627
vertex -0.0234380923211575 -3.34815883636475 -0.0306095387786627
vertex 0.0494193360209465 -2.77407479286194 -0.0253611467778683
endloop
endfacet
facet normal -3.39029073041596e-17 0.00914181768894196 -0.999958217144012
outer loop
vertex -0.0274568479508162 -3.92224311828613 -0.0358579307794571
vertex -0.0234380923211575 -3.34815883636475 -0.0306095387786627
vertex 0.0574568472802639 -3.92224311828613 -0.0358579307794571
endloop
endfacet
facet normal 7.68093198882956e-18 0.00914181768894196 -0.999958217144012
outer loop
vertex 0.0534380935132504 -3.34815883636475 -0.0306095387786627
vertex 0.0574568472802639 -3.92224311828613 -0.0358579307794571
vertex -0.0234380923211575 -3.34815883636475 -0.0306095387786627
endloop
endfacet
facet normal -3.39029039954372e-17 0.00914181675761938 -0.999958157539368
outer loop
vertex -0.0274568479508162 -3.92224311828613 -0.0358579307794571
vertex 0.0574568472802639 -3.92224311828613 -0.0358579307794571
vertex -0.0314132086932659 -4.48741388320923 -0.0410248376429081
endloop
endfacet
facet normal -1.27222553695667e-17 0.00914181768894196 -0.999958157539368
outer loop
vertex 0.0614132098853588 -4.48741388320923 -0.0410248376429081
vertex -0.0314132086932659 -4.48741388320923 -0.0410248376429081
vertex 0.0574568472802639 -3.92224311828613 -0.0358579307794571
endloop
endfacet
facet normal -1.27222561967473e-17 0.00914181768894196 -0.999958276748657
outer loop
vertex -0.0314132086932659 -4.48741388320923 -0.0410248376429081
vertex 0.0614132098853588 -4.48741388320923 -0.0410248376429081
vertex -0.0350000001490116 -4.99979114532471 -0.0457090884447098
endloop
endfacet
facet normal 0 0.00914181862026453 -0.999958276748657
outer loop
vertex 0.0649999976158142 -4.99979114532471 -0.0457090884447098
vertex -0.0350000001490116 -4.99979114532471 -0.0457090884447098
vertex 0.0614132098853588 -4.48741388320923 -0.0410248376429081
endloop
endfacet
facet normal 0 0.00914181768894196 0.999958157539368
outer loop
vertex 0.0299999993294477 0 0.150000005960464
vertex 0 0 0.150000005960464
vertex 0.0313692353665829 -0.195596888661385 0.15178819000721
endloop
endfacet
facet normal -1.78259314594419e-16 0.00914181768894196 0.999958217144012
outer loop
vertex -0.00136923545505852 -0.195596888661385 0.15178819000721
vertex 0.0313692353665829 -0.195596888661385 0.15178819000721
vertex 0 0 0.150000005960464
endloop
endfacet
facet normal -5.4352969333508e-17 0.00914181768894196 0.999958157539368
outer loop
vertex 0.0336732305586338 -0.524725556373596 0.154797151684761
vertex 0.0313692353665829 -0.195596888661385 0.15178819000721
vertex -0.00367323216050863 -0.524725556373596 0.154797151684761
endloop
endfacet
facet normal -1.78259327829309e-16 0.00914181768894196 0.999958157539368
outer loop
vertex -0.00136923545505852 -0.195596888661385 0.15178819000721
vertex -0.00367323216050863 -0.524725556373596 0.154797151684761
vertex 0.0313692353665829 -0.195596888661385 0.15178819000721
endloop
endfacet
facet normal -5.4352969333508e-17 0.00914181768894196 0.999958157539368
outer loop
vertex 0.0336732305586338 -0.524725556373596 0.154797151684761
vertex -0.00367323216050863 -0.524725556373596 0.154797151684761
vertex 0.037363063544035 -1.05182242393494 0.159615963697433
endloop
endfacet
facet normal -1.81539634971118e-16 0.00914181768894196 0.999958217144012
outer loop
vertex -0.0073630646802485 -1.05182242393494 0.159615963697433
vertex 0.037363063544035 -1.05182242393494 0.159615963697433
vertex -0.00367323216050863 -0.524725556373596 0.154797151684761
endloop
endfacet
facet normal -9.75085164758719e-16 0.00914181862026453 0.999958157539368
outer loop
vertex 0.0413818210363388 -1.62590658664703 0.164864361286163
vertex 0.037363063544035 -1.05182242393494 0.159615963697433
vertex -0.0113818217068911 -1.62590658664703 0.164864361286163
endloop
endfacet
facet normal -1.81539634971118e-16 0.00914181768894196 0.999958217144012
outer loop
vertex -0.0073630646802485 -1.05182242393494 0.159615963697433
vertex -0.0113818217068911 -1.62590658664703 0.164864361286163
vertex 0.037363063544035 -1.05182242393494 0.159615963697433
endloop
endfacet
facet normal -9.75085164758719e-16 0.00914181862026453 0.999958157539368
outer loop
vertex 0.0413818210363388 -1.62590658664703 0.164864361286163
vertex -0.0113818217068911 -1.62590658664703 0.164864361286163
vertex 0.0454005785286427 -2.19999074935913 0.170112758874893
endloop
endfacet
facet normal -6.67714682657136e-17 0.00914181768894196 0.999958157539368
outer loop
vertex -0.0154005782678723 -2.19999074935913 0.170112758874893
vertex 0.0454005785286427 -2.19999074935913 0.170112758874893
vertex -0.0113818217068911 -1.62590658664703 0.164864361286163
endloop
endfacet
facet normal -5.89753240796258e-17 0.00914181768894196 0.999958217144012
outer loop
vertex 0.0494193360209465 -2.77407479286194 0.175361141562462
vertex 0.0454005785286427 -2.19999074935913 0.170112758874893
vertex -0.0194193348288536 -2.77407479286194 0.175361141562462
endloop
endfacet
facet normal -6.67714682657136e-17 0.00914181768894196 0.999958157539368
outer loop
vertex -0.0154005782678723 -2.19999074935913 0.170112758874893
vertex -0.0194193348288536 -2.77407479286194 0.175361141562462
vertex 0.0454005785286427 -2.19999074935913 0.170112758874893
endloop
endfacet
facet normal -5.89753240796258e-17 0.00914181768894196 0.999958217144012
outer loop
vertex 0.0494193360209465 -2.77407479286194 0.175361141562462
vertex -0.0194193348288536 -2.77407479286194 0.175361141562462
vertex 0.0534380935132504 -3.34815883636475 0.180609539151192
endloop
endfacet
facet normal -4.13836872273504e-16 0.00914181768894196 0.999958217144012
outer loop
vertex -0.0234380923211575 -3.34815883636475 0.180609539151192
vertex 0.0534380935132504 -3.34815883636475 0.180609539151192
vertex -0.0194193348288536 -2.77407479286194 0.175361141562462
endloop
endfacet
facet normal -4.78106919897077e-17 0.00914181768894196 0.999958217144012
outer loop
vertex 0.0574568472802639 -3.92224311828613 0.185857936739922
vertex 0.0534380935132504 -3.34815883636475 0.180609539151192
vertex -0.0274568479508162 -3.92224311828613 0.185857936739922
endloop
endfacet
facet normal -4.13836872273504e-16 0.00914181768894196 0.999958217144012
outer loop
vertex -0.0234380923211575 -3.34815883636475 0.180609539151192
vertex -0.0274568479508162 -3.92224311828613 0.185857936739922
vertex 0.0534380935132504 -3.34815883636475 0.180609539151192
endloop
endfacet
facet normal -4.78106886809853e-17 0.00914181675761938 0.999958157539368
outer loop
vertex 0.0574568472802639 -3.92224311828613 0.185857936739922
vertex -0.0274568479508162 -3.92224311828613 0.185857936739922
vertex 0.0614132098853588 -4.48741388320923 0.191024839878082
endloop
endfacet
facet normal 3.8646304381929e-16 0.00914181768894196 0.999958157539368
outer loop
vertex -0.0314132086932659 -4.48741388320923 0.191024839878082
vertex 0.0614132098853588 -4.48741388320923 0.191024839878082
vertex -0.0274568479508162 -3.92224311828613 0.185857936739922
endloop
endfacet
facet normal 3.8646304381929e-16 0.00914181768894196 0.999958276748657
outer loop
vertex 0.0614132098853588 -4.48741388320923 0.191024839878082
vertex -0.0314132086932659 -4.48741388320923 0.191024839878082
vertex 0.0649999976158142 -4.99979114532471 0.195709094405174
endloop
endfacet
facet normal -0 0.00914181862026453 0.999958276748657
outer loop
vertex -0.0350000001490116 -4.99979114532471 0.195709094405174
vertex 0.0649999976158142 -4.99979114532471 0.195709094405174
vertex -0.0314132086932659 -4.48741388320923 0.191024839878082
endloop
endfacet
facet normal -0.999776601791382 -0.0211374759674072 0
outer loop
vertex 0.135687381029129 -4.99888277053833 0.025000000372529
vertex 0.135687381029129 -4.99888277053833 0.125
vertex 0.12386916577816 -4.43989610671997 0.02220444008708
endloop
endfacet
facet normal -0.999776542186737 -0.0211374759674072 -9.21043642160727e-17
outer loop
vertex 0.123862855136395 -4.43959760665894 0.127797052264214
vertex 0.12386916577816 -4.43989610671997 0.02220444008708
vertex 0.135687381029129 -4.99888277053833 0.125
endloop
endfacet
facet normal -0.999776542186737 -0.0211374759674072 -9.20599743956806e-17
outer loop
vertex 0.12386916577816 -4.43989610671997 0.02220444008708
vertex 0.123862855136395 -4.43959760665894 0.127797052264214
vertex 0.110287718474865 -3.79751038551331 0.01899179443717
endloop
endfacet
facet normal -0.999776601791382 -0.0211374759674072 5.41735009190861e-17
outer loop
vertex 0.110255487263203 -3.79598546028137 0.131015837192535
vertex 0.110287718474865 -3.79751038551331 0.01899179443717
vertex 0.123862855136395 -4.43959760665894 0.127797052264214
endloop
endfacet
facet normal -0.999776601791382 -0.0211374778300524 5.41782787143042e-17
outer loop
vertex 0.110287718474865 -3.79751038551331 0.01899179443717
vertex 0.110255487263203 -3.79598546028137 0.131015837192535
vertex 0.0958102717995644 -3.11274480819702 0.0155672021210194
endloop
endfacet
facet normal -0.999776601791382 -0.0211374759674072 3.06504960013277e-17
outer loop
vertex 0.0957681909203529 -3.11075448989868 0.134442746639252
vertex 0.0958102717995644 -3.11274480819702 0.0155672021210194
vertex 0.110255487263203 -3.79598546028137 0.131015837192535
endloop
endfacet
facet normal -0.999776601791382 -0.0211374759674072 3.0360562579183e-17
outer loop
vertex 0.0958102717995644 -3.11274480819702 0.0155672021210194
vertex 0.0957681909203529 -3.11075448989868 0.134442746639252
vertex 0.0804529413580894 -2.38636207580566 0.0119344769045711
endloop
endfacet
facet normal -0.999776542186737 -0.0211374759674072 8.29664735194198e-17
outer loop
vertex 0.0804178491234779 -2.38470220565796 0.138073831796646
vertex 0.0804529413580894 -2.38636207580566 0.0119344769045711
vertex 0.0957681909203529 -3.11075448989868 0.134442746639252
endloop
endfacet
facet normal -0.999776601791382 -0.0211374759674072 8.37615264369813e-17
outer loop
vertex 0.0804529413580894 -2.38636207580566 0.0119344769045711
vertex 0.0804178491234779 -2.38470220565796 0.138073831796646
vertex 0.0641590803861618 -1.61568224430084 0.00808021705597639
endloop
endfacet
facet normal -0.999776542186737 -0.0211374759674072 7.40670556846435e-17
outer loop
vertex 0.0641339793801308 -1.61449503898621 0.141925722360611
vertex 0.0641590803861618 -1.61568224430084 0.00808021705597639
vertex 0.0804178491234779 -2.38470220565796 0.138073831796646
endloop
endfacet
facet normal -0.999776601791382 -0.0211374778300524 7.36543388810938e-17
outer loop
vertex 0.0641590803861618 -1.61568224430084 0.00808021705597639
vertex 0.0641339793801308 -1.61449503898621 0.141925722360611
vertex 0.0468701124191284 -0.797935545444489 0.00399056915193796
endloop
endfacet
facet normal -0.999776542186737 -0.0211374778300524 1.64373969664528e-16
outer loop
vertex 0.0468573719263077 -0.79733282327652 0.14601244032383
vertex 0.0468701124191284 -0.797935545444489 0.00399056915193796
vertex 0.0641339793801308 -1.61449503898621 0.141925722360611
endloop
endfacet
facet normal -0.999776601791382 -0.0211374759674072 1.64426816579503e-16
outer loop
vertex 0.0468701124191284 -0.797935545444489 0.00399056915193796
vertex 0.0468573719263077 -0.79733282327652 0.14601244032383
vertex 0.0299999993294477 0 0
endloop
endfacet
facet normal -0.999776601791382 -0.0211374759674072 -0
outer loop
vertex 0.0299999993294477 0 0.150000005960464
vertex 0.0299999993294477 0 0
vertex 0.0468573719263077 -0.79733282327652 0.14601244032383
endloop
endfacet
facet normal 0.707060694694519 0.0114135155454278 -0.707060694694519
outer loop
vertex 0.0418986193835735 -0.562790095806122 0.00281395041383803
vertex 0.0339406877756119 -0.562997877597809 -0.00514733465388417
vertex 0.0299999993294477 0 0
endloop
endfacet
facet normal 0.707060694694519 0.0114135155454278 -0.707060694694519
outer loop
vertex 0.0537972413003445 -1.12558019161224 0.00562790082767606
vertex 0.0378813780844212 -1.12599575519562 -0.0102946693077683
vertex 0.0418986193835735 -0.562790095806122 0.00281395041383803
endloop
endfacet
facet normal 0.707060694694519 0.0114135155454278 -0.707060694694519
outer loop
vertex 0.0339406877756119 -0.562997877597809 -0.00514733465388417
vertex 0.0418986193835735 -0.562790095806122 0.00281395041383803
vertex 0.0378813780844212 -1.12599575519562 -0.0102946693077683
endloop
endfacet
facet normal 0.707060694694519 0.0114135155454278 -0.707060694694519
outer loop
vertex 0.0537972413003445 -1.12558019161224 0.00562790082767606
vertex 0.0656958594918251 -1.68837022781372 0.00844185147434473
vertex 0.0378813780844212 -1.12599575519562 -0.0102946693077683
endloop
endfacet
facet normal 0.707060754299164 0.0114135164767504 -0.707060754299164
outer loop
vertex 0.0418220683932304 -1.68899357318878 -0.0154420044273138
vertex 0.0378813780844212 -1.12599575519562 -0.0102946693077683
vertex 0.0656958594918251 -1.68837022781372 0.00844185147434473
endloop
endfacet
facet normal 0.707060754299164 0.0114135164767504 -0.707060754299164
outer loop
vertex 0.0656958594918251 -1.68837022781372 0.00844185147434473
vertex 0.077594481408596 -2.25116038322449 0.0112558016553521
vertex 0.0418220683932304 -1.68899357318878 -0.0154420044273138
endloop
endfacet
facet normal 0.707060694694519 0.0114135155454278 -0.707060694694519
outer loop
vertex 0.0457627587020397 -2.25199151039124 -0.0205893386155367
vertex 0.0418220683932304 -1.68899357318878 -0.0154420044273138
vertex 0.077594481408596 -2.25116038322449 0.0112558016553521
endloop
endfacet
facet normal 0.707060694694519 0.0114135155454278 -0.707060694694519
outer loop
vertex 0.077594481408596 -2.25116038322449 0.0112558016553521
vertex 0.089493103325367 -2.81395053863525 0.0140697527676821
vertex 0.0457627587020397 -2.25199151039124 -0.0205893386155367
endloop
endfacet
facet normal 0.707060694694519 0.0114135155454278 -0.707060694694519
outer loop
vertex 0.049703449010849 -2.8149893283844 -0.0257366746664047
vertex 0.0457627587020397 -2.25199151039124 -0.0205893386155367
vertex 0.089493103325367 -2.81395053863525 0.0140697527676821
endloop
endfacet
facet normal 0.707060694694519 0.0114135155454278 -0.707060694694519
outer loop
vertex 0.089493103325367 -2.81395053863525 0.0140697527676821
vertex 0.101391725242138 -3.37674045562744 0.0168837029486895
vertex 0.049703449010849 -2.8149893283844 -0.0257366746664047
endloop
endfacet
facet normal 0.707060754299164 0.0114135164767504 -0.707060754299164
outer loop
vertex 0.053644135594368 -3.37798714637756 -0.0308840088546276
vertex 0.049703449010849 -2.8149893283844 -0.0257366746664047
vertex 0.101391725242138 -3.37674045562744 0.0168837029486895
endloop
endfacet
facet normal 0.707060754299164 0.0114135164767504 -0.707060754299164
outer loop
vertex 0.101391725242138 -3.37674045562744 0.0168837029486895
vertex 0.113290347158909 -3.93953061103821 0.0196976531296968
vertex 0.053644135594368 -3.37798714637756 -0.0308840088546276
endloop
endfacet
facet normal 0.707060754299164 0.0114135164767504 -0.707060754299164
outer loop
vertex 0.0575848259031773 -3.94098520278931 -0.0360313430428505
vertex 0.053644135594368 -3.37798714637756 -0.0308840088546276
vertex 0.113290347158909 -3.93953061103821 0.0196976531296968
endloop
endfacet
facet normal 0.707060694694519 0.0114135155454278 -0.707060694694519
outer loop
vertex 0.113290347158909 -3.93953061103821 0.0196976531296968
vertex 0.125034317374229 -4.49500608444214 0.0224750302731991
vertex 0.0575848259031773 -3.94098520278931 -0.0360313430428505
endloop
endfacet
facet normal 0.707060754299164 0.0114135164767504 -0.707060754299164
outer loop
vertex 0.0614743269979954 -4.49666976928711 -0.0411118157207966
vertex 0.0575848259031773 -3.94098520278931 -0.0360313430428505
vertex 0.125034317374229 -4.49500608444214 0.0224750302731991
endloop
endfacet
facet normal 0.707060694694519 0.0114135146141052 -0.707060694694519
outer loop
vertex 0.125034317374229 -4.49500608444214 0.0224750302731991
vertex 0.135686054825783 -4.99882030487061 0.0249941013753414
vertex 0.0614743269979954 -4.49666976928711 -0.0411118157207966
endloop
endfacet
facet normal 0.707060694694519 0.0114135155454278 -0.707060694694519
outer loop
vertex 0.065002053976059 -5.0006685256958 -0.0457197353243828
vertex 0.0614743269979954 -4.49666976928711 -0.0411118157207966
vertex 0.135686054825783 -4.99882030487061 0.0249941013753414
endloop
endfacet
facet normal 0.707060694694519 0.0114135155454278 0.707060694694519
outer loop
vertex 0.0339401997625828 -0.562885582447052 0.155146017670631
vertex 0.0419012904167175 -0.562902390956879 0.147185191512108
vertex 0.0299999993294477 0 0.150000005960464
endloop
endfacet
facet normal 0.707060694694519 0.0114135155454278 0.707060694694519
outer loop
vertex 0.0378803983330727 -1.1257711648941 0.160292029380798
vertex 0.0538025796413422 -1.12580478191376 0.144370391964912
vertex 0.0339401997625828 -0.562885582447052 0.155146017670631
endloop
endfacet
facet normal 0.707060694694519 0.0114135155454278 0.707060694694519
outer loop
vertex 0.0419012904167175 -0.562902390956879 0.147185191512108
vertex 0.0339401997625828 -0.562885582447052 0.155146017670631
vertex 0.0538025796413422 -1.12580478191376 0.144370391964912
endloop
endfacet
facet normal 0.707060694694519 0.0114135155454278 0.707060694694519
outer loop
vertex 0.0378803983330727 -1.1257711648941 0.160292029380798
vertex 0.0418205969035625 -1.68865668773651 0.165438041090965
vertex 0.0538025796413422 -1.12580478191376 0.144370391964912
endloop
endfacet
facet normal 0.707060754299164 0.0114135164767504 0.707060754299164
outer loop
vertex 0.0657038688659668 -1.68870711326599 0.141555577516556
vertex 0.0538025796413422 -1.12580478191376 0.144370391964912
vertex 0.0418205969035625 -1.68865668773651 0.165438041090965
endloop
endfacet
facet normal 0.707060754299164 0.0114135164767504 0.707060754299164
outer loop
vertex 0.0418205969035625 -1.68865668773651 0.165438041090965
vertex 0.0457607954740524 -2.25154232978821 0.170584052801132
vertex 0.0657038688659668 -1.68870711326599 0.141555577516556
endloop
endfacet
facet normal 0.707060694694519 0.0114135155454278 0.707060694694519
outer loop
vertex 0.0776051580905914 -2.25160956382751 0.138740763068199
vertex 0.0657038688659668 -1.68870711326599 0.141555577516556
vertex 0.0457607954740524 -2.25154232978821 0.170584052801132
endloop
endfacet
facet normal 0.707060694694519 0.0114135155454278 0.707060694694519
outer loop
vertex 0.0457607954740524 -2.25154232978821 0.170584052801132
vertex 0.0497009940445423 -2.81442785263062 0.175730064511299
vertex 0.0776051580905914 -2.25160956382751 0.138740763068199
endloop
endfacet
facet normal 0.707060694694519 0.0114135155454278 0.707060694694519
outer loop
vertex 0.0895064473152161 -2.81451177597046 0.135925963521004
vertex 0.0776051580905914 -2.25160956382751 0.138740763068199
vertex 0.0497009940445423 -2.81442785263062 0.175730064511299
endloop
endfacet
facet normal 0.707060694694519 0.0114135155454278 0.707060694694519
outer loop
vertex 0.0497009940445423 -2.81442785263062 0.175730064511299
vertex 0.0536411926150322 -3.37731337547302 0.180876076221466
vertex 0.0895064473152161 -2.81451177597046 0.135925963521004
endloop
endfacet
facet normal 0.707060754299164 0.0114135164767504 0.707060754299164
outer loop
vertex 0.101407736539841 -3.37741422653198 0.133111149072647
vertex 0.0895064473152161 -2.81451177597046 0.135925963521004
vertex 0.0536411926150322 -3.37731337547302 0.180876076221466
endloop
endfacet
facet normal 0.707060754299164 0.0114135164767504 0.707060754299164
outer loop
vertex 0.0536411926150322 -3.37731337547302 0.180876076221466
vertex 0.0575813949108124 -3.94019913673401 0.186022087931633
vertex 0.101407736539841 -3.37741422653198 0.133111149072647
endloop
endfacet
facet normal 0.707060754299164 0.0114135164767504 0.707060754299164
outer loop
vertex 0.113309033215046 -3.94031643867493 0.130296349525452
vertex 0.101407736539841 -3.37741422653198 0.133111149072647
vertex 0.0575813949108124 -3.94019913673401 0.186022087931633
endloop
endfacet
facet normal 0.707060694694519 0.0114135155454278 0.707060694694519
outer loop
vertex 0.0575813949108124 -3.94019913673401 0.186022087931633
vertex 0.0614703819155693 -4.49576902389526 0.191101223230362
vertex 0.113309033215046 -3.94031643867493 0.130296349525452
endloop
endfacet
facet normal 0.707060754299164 0.0114135164767504 0.707060754299164
outer loop
vertex 0.125055730342865 -4.49590682983398 0.127518102526665
vertex 0.113309033215046 -3.94031643867493 0.130296349525452
vertex 0.0614703819155693 -4.49576902389526 0.191101223230362
endloop
endfacet
facet normal 0.707060694694519 0.0114135146141052 0.707060694694519
outer loop
vertex 0.0614703819155693 -4.49576902389526 0.191101223230362
vertex 0.0649976804852486 -4.99966859817505 0.195707976818085
vertex 0.125055730342865 -4.49590682983398 0.127518102526665
endloop
endfacet
facet normal 0.707060694694519 0.0114135155454278 0.707060694694519
outer loop
vertex 0.135709822177887 -4.99982023239136 0.124998271465302
vertex 0.125055730342865 -4.49590682983398 0.127518102526665
vertex 0.0649976804852486 -4.99966859817505 0.195707976818085
endloop
endfacet
facet normal 0.707060694694519 -0.0114135155454278 -0.707060694694519
outer loop
vertex 0.0951460152864456 -10.4366970062256 0.0560598000884056
vertex 0.0900000035762787 -10.9995822906494 0.0599999986588955
vertex 0.0871851891279221 -10.4366798400879 0.0480987094342709
endloop
endfacet
facet normal 0.707060694694519 -0.0114135155454278 -0.707060694694519
outer loop
vertex 0.0871851891279221 -10.4366798400879 0.0480987094342709
vertex 0.084370382130146 -9.87377738952637 0.0361974202096462
vertex 0.0951460152864456 -10.4366970062256 0.0560598000884056
endloop
endfacet
facet normal 0.707060694694519 -0.0114135155454278 -0.707060694694519
outer loop
vertex 0.100292026996613 -9.87381076812744 0.0521196015179157
vertex 0.0951460152864456 -10.4366970062256 0.0560598000884056
vertex 0.084370382130146 -9.87377738952637 0.0361974202096462
endloop
endfacet
facet normal 0.707060694694519 -0.0114135155454278 -0.707060694694519
outer loop
vertex 0.100292026996613 -9.87381076812744 0.0521196015179157
vertex 0.084370382130146 -9.87377738952637 0.0361974202096462
vertex 0.105438038706779 -9.31092548370361 0.0481794029474258
endloop
endfacet
facet normal 0.707060754299164 -0.0114135164767504 -0.707060754299164
outer loop
vertex 0.08155557513237 -9.31087493896484 0.0242961291223764
vertex 0.105438038706779 -9.31092548370361 0.0481794029474258
vertex 0.084370382130146 -9.87377738952637 0.0361974202096462
endloop
endfacet
facet normal 0.707060754299164 -0.0114135164767504 -0.707060754299164
outer loop
vertex 0.105438038706779 -9.31092548370361 0.0481794029474258
vertex 0.08155557513237 -9.31087493896484 0.0242961291223764
vertex 0.110584050416946 -8.74804019927979 0.044239204376936
endloop
endfacet
facet normal 0.707060694694519 -0.0114135155454278 -0.707060694694519
outer loop
vertex 0.078740768134594 -8.74797248840332 0.0123948398977518
vertex 0.110584050416946 -8.74804019927979 0.044239204376936
vertex 0.08155557513237 -9.31087493896484 0.0242961291223764
endloop
endfacet
facet normal 0.707060694694519 -0.0114135155454278 -0.707060694694519
outer loop
vertex 0.110584050416946 -8.74804019927979 0.044239204376936
vertex 0.078740768134594 -8.74797248840332 0.0123948398977518
vertex 0.115730062127113 -8.18515396118164 0.0402990058064461
endloop
endfacet
facet normal 0.707060694694519 -0.0114135155454278 -0.707060694694519
outer loop
vertex 0.0759259611368179 -8.1850700378418 0.000493550032842904
vertex 0.115730062127113 -8.18515396118164 0.0402990058064461
vertex 0.078740768134594 -8.74797248840332 0.0123948398977518
endloop
endfacet
facet normal 0.707060694694519 -0.0114135155454278 -0.707060694694519
outer loop
vertex 0.115730062127113 -8.18515396118164 0.0402990058064461
vertex 0.0759259611368179 -8.1850700378418 0.000493550032842904
vertex 0.12087607383728 -7.62226867675781 0.0363588072359562
endloop
endfacet
facet normal 0.707060754299164 -0.0114135164767504 -0.707060754299164
outer loop
vertex 0.0731111541390419 -7.62216806411743 -0.01140773948282
vertex 0.12087607383728 -7.62226867675781 0.0363588072359562
vertex 0.0759259611368179 -8.1850700378418 0.000493550032842904
endloop
endfacet
facet normal 0.707060754299164 -0.0114135164767504 -0.707060754299164
outer loop
vertex 0.12087607383728 -7.62226867675781 0.0363588072359562
vertex 0.0731111541390419 -7.62216806411743 -0.01140773948282
vertex 0.126022085547447 -7.05938291549683 0.032418604940176
endloop
endfacet
facet normal 0.707060754299164 -0.0114135164767504 -0.707060754299164
outer loop
vertex 0.0702963471412659 -7.05926561355591 -0.0233090296387672
vertex 0.126022085547447 -7.05938291549683 0.032418604940176
vertex 0.0731111541390419 -7.62216806411743 -0.01140773948282
endloop
endfacet
facet normal 0.707060694694519 -0.0114135155454278 -0.707060694694519
outer loop
vertex 0.126022085547447 -7.05938291549683 0.032418604940176
vertex 0.0702963471412659 -7.05926561355591 -0.0233090296387672
vertex 0.131101220846176 -6.50381326675415 0.0285296179354191
endloop
endfacet
facet normal 0.707060754299164 -0.0114135164767504 -0.707060754299164
outer loop
vertex 0.0675181075930595 -6.50367498397827 -0.035055723041296
vertex 0.131101220846176 -6.50381326675415 0.0285296179354191
vertex 0.0702963471412659 -7.05926561355591 -0.0233090296387672
endloop
endfacet
facet normal 0.707060694694519 -0.0114135146141052 -0.707060694694519
outer loop
vertex 0.131101220846176 -6.50381326675415 0.0285296179354191
vertex 0.0675181075930595 -6.50367498397827 -0.035055723041296
vertex 0.135707974433899 -5.99991369247437 0.0250023193657398
endloop
endfacet
facet normal 0.707060694694519 -0.0114135155454278 -0.707060694694519
outer loop
vertex 0.0649982765316963 -5.99976205825806 -0.0457098223268986
vertex 0.135707974433899 -5.99991369247437 0.0250023193657398
vertex 0.0675181075930595 -6.50367498397827 -0.035055723041296
endloop
endfacet
facet normal -0.70704060792923 0.0114136785268784 -0.707080781459808
outer loop
vertex 0.0649962648749352 -5.99976205825806 0.195709273219109
vertex 0.135707974433899 -5.99991369247437 0.124999143183231
vertex 0.0675162971019745 -6.50367498397827 0.185055240988731
endloop
endfacet
facet normal -0.707040667533875 0.0114136794582009 -0.707080781459808
outer loop
vertex 0.131101220846176 -6.50381326675415 0.12147169560194
vertex 0.0675162971019745 -6.50367498397827 0.185055240988731
vertex 0.135707974433899 -5.99991369247437 0.124999143183231
endloop
endfacet
facet normal -0.707040727138519 0.0114136794582009 -0.707080841064453
outer loop
vertex 0.0675162971019745 -6.50367498397827 0.185055240988731
vertex 0.131101220846176 -6.50381326675415 0.12147169560194
vertex 0.0702947676181793 -7.05926561355591 0.173308596014977
endloop
endfacet
facet normal -0.707040667533875 0.0114136803895235 -0.707080781459808
outer loop
vertex 0.126022085547447 -7.05938291549683 0.11758254468441
vertex 0.0702947676181793 -7.05926561355591 0.173308596014977
vertex 0.131101220846176 -6.50381326675415 0.12147169560194
endloop
endfacet
facet normal -0.707040667533875 0.0114136794582009 -0.707080781459808
outer loop
vertex 0.0702947676181793 -7.05926561355591 0.173308596014977
vertex 0.126022085547447 -7.05938291549683 0.11758254468441
vertex 0.0731097981333733 -7.62216806411743 0.161407366394997
endloop
endfacet
facet normal -0.707040667533875 0.0114136803895235 -0.707080781459808
outer loop
vertex 0.12087607383728 -7.62226867675781 0.113642185926437
vertex 0.0731097981333733 -7.62216806411743 0.161407366394997
vertex 0.126022085547447 -7.05938291549683 0.11758254468441
endloop
endfacet
facet normal -0.707040667533875 0.0114136803895235 -0.707080781459808
outer loop
vertex 0.0731097981333733 -7.62216806411743 0.161407366394997
vertex 0.12087607383728 -7.62226867675781 0.113642185926437
vertex 0.0759248360991478 -8.1850700378418 0.149506136775017
endloop
endfacet
facet normal -0.707040667533875 0.0114136794582009 -0.707080781459808
outer loop
vertex 0.115730062127113 -8.18515396118164 0.109701819717884
vertex 0.0759248360991478 -8.1850700378418 0.149506136775017
vertex 0.12087607383728 -7.62226867675781 0.113642185926437
endloop
endfacet
facet normal -0.707040667533875 0.0114136794582009 -0.707080781459808
outer loop
vertex 0.0759248360991478 -8.1850700378418 0.149506136775017
vertex 0.115730062127113 -8.18515396118164 0.109701819717884
vertex 0.0787398666143417 -8.74797248840332 0.137604922056198
endloop
endfacet
facet normal -0.707040667533875 0.0114136794582009 -0.707080781459808
outer loop
vertex 0.110584050416946 -8.74804019927979 0.105761453509331
vertex 0.0787398666143417 -8.74797248840332 0.137604922056198
vertex 0.115730062127113 -8.18515396118164 0.109701819717884
endloop
endfacet
facet normal -0.707040667533875 0.0114136794582009 -0.707080781459808
outer loop
vertex 0.0787398666143417 -8.74797248840332 0.137604922056198
vertex 0.110584050416946 -8.74804019927979 0.105761453509331
vertex 0.0815548971295357 -9.31087493896484 0.125703692436218
endloop
endfacet
facet normal -0.707040667533875 0.0114136803895235 -0.707080781459808
outer loop
vertex 0.105438038706779 -9.31092548370361 0.101821094751358
vertex 0.0815548971295357 -9.31087493896484 0.125703692436218
vertex 0.110584050416946 -8.74804019927979 0.105761453509331
endloop
endfacet
facet normal -0.707040667533875 0.0114136803895235 -0.707080781459808
outer loop
vertex 0.0815548971295357 -9.31087493896484 0.125703692436218
vertex 0.105438038706779 -9.31092548370361 0.101821094751358
vertex 0.0843699350953102 -9.87377738952637 0.113802455365658
endloop
endfacet
facet normal -0.707040667533875 0.0114136794582009 -0.707080781459808
outer loop
vertex 0.100292026996613 -9.87381076812744 0.0978807285428047
vertex 0.0843699350953102 -9.87377738952637 0.113802455365658
vertex 0.105438038706779 -9.31092548370361 0.101821094751358
endloop
endfacet
facet normal -0.707040667533875 0.0114136794582009 -0.707080781459808
outer loop
vertex 0.100292026996613 -9.87381076812744 0.0978807285428047
vertex 0.0951460152864456 -10.4366970062256 0.0939403623342514
vertex 0.0843699350953102 -9.87377738952637 0.113802455365658
endloop
endfacet
facet normal -0.707040667533875 0.0114136794582009 -0.707080781459808
outer loop
vertex 0.0871849656105042 -10.4366798400879 0.101901225745678
vertex 0.0843699350953102 -9.87377738952637 0.113802455365658
vertex 0.0951460152864456 -10.4366970062256 0.0939403623342514
endloop
endfacet
facet normal -0.707040667533875 0.0114136794582009 -0.707080781459808
outer loop
vertex 0.0951460152864456 -10.4366970062256 0.0939403623342514
vertex 0.0900000035762787 -10.9995822906494 0.0900000035762787
vertex 0.0871849656105042 -10.4366798400879 0.101901225745678
endloop
endfacet
facet normal 0.999958276748657 -0.00914181862026453 0
outer loop
vertex 0.135709092020988 -5.99979114532471 0.125
vertex 0.131024837493896 -6.51216793060303 0.121413208544254
vertex 0.135709092020988 -5.99979114532471 0.025000000372529
endloop
endfacet
facet normal 0.999958276748657 -0.00914181768894196 2.11522219023757e-16
outer loop
vertex 0.131024837493896 -6.51216793060303 0.0285867899656296
vertex 0.135709092020988 -5.99979114532471 0.025000000372529
vertex 0.131024837493896 -6.51216793060303 0.121413208544254
endloop
endfacet
facet normal 0.999958157539368 -0.00914181768894196 2.11522219023757e-16
outer loop
vertex 0.131024837493896 -6.51216793060303 0.0285867899656296
vertex 0.131024837493896 -6.51216793060303 0.121413208544254
vertex 0.125857934355736 -7.07733917236328 0.0325431525707245
endloop
endfacet
facet normal 0.999958157539368 -0.00914181675761938 1.91242754723941e-16
outer loop
vertex 0.125857934355736 -7.07733917236328 0.117456845939159
vertex 0.125857934355736 -7.07733917236328 0.0325431525707245
vertex 0.131024837493896 -6.51216793060303 0.121413208544254
endloop
endfacet
facet normal 0.999958217144012 -0.00914181768894196 1.91242767958831e-16
outer loop
vertex 0.125857934355736 -7.07733917236328 0.0325431525707245
vertex 0.125857934355736 -7.07733917236328 0.117456845939159
vertex 0.120609536767006 -7.65142297744751 0.036561906337738
endloop
endfacet
facet normal 0.999958217144012 -0.00914181768894196 4.97369964512522e-16
outer loop
vertex 0.120609536767006 -7.65142297744751 0.113438092172146
vertex 0.120609536767006 -7.65142297744751 0.036561906337738
vertex 0.125857934355736 -7.07733917236328 0.117456845939159
endloop
endfacet
facet normal 0.999958217144012 -0.00914181768894196 4.97369964512522e-16
outer loop
vertex 0.120609536767006 -7.65142297744751 0.113438092172146
vertex 0.115361146628857 -8.22550773620605 0.109419338405132
vertex 0.120609536767006 -7.65142297744751 0.036561906337738
endloop
endfacet
facet normal 0.999958217144012 -0.00914181768894196 2.7021229814095e-16
outer loop
vertex 0.115361146628857 -8.22550773620605 0.0405806638300419
vertex 0.120609536767006 -7.65142297744751 0.036561906337738
vertex 0.115361146628857 -8.22550773620605 0.109419338405132
endloop
endfacet
facet normal 0.999958217144012 -0.00914181768894196 2.7021229814095e-16
outer loop
vertex 0.115361146628857 -8.22550773620605 0.0405806638300419
vertex 0.115361146628857 -8.22550773620605 0.109419338405132
vertex 0.110112756490707 -8.79959106445313 0.0445994213223457
endloop
endfacet
facet normal 0.999958157539368 -0.00914181768894196 -6.84717558819176e-16
outer loop
vertex 0.110112756490707 -8.79959106445313 0.105400577187538
vertex 0.110112756490707 -8.79959106445313 0.0445994213223457
vertex 0.115361146628857 -8.22550773620605 0.109419338405132
endloop
endfacet
facet normal 0.999958157539368 -0.00914181768894196 -6.84717558819176e-16
outer loop
vertex 0.110112756490707 -8.79959106445313 0.105400577187538
vertex 0.104864366352558 -9.37367534637451 0.101381823420525
vertex 0.110112756490707 -8.79959106445313 0.0445994213223457
endloop
endfacet
facet normal 0.999958157539368 -0.00914181862026453 8.95284245269091e-17
outer loop
vertex 0.104864366352558 -9.37367534637451 0.0486181788146496
vertex 0.110112756490707 -8.79959106445313 0.0445994213223457
vertex 0.104864366352558 -9.37367534637451 0.101381823420525
endloop
endfacet
facet normal 0.999958157539368 -0.00914181862026453 8.95284245269091e-17
outer loop
vertex 0.104864366352558 -9.37367534637451 0.0486181788146496
vertex 0.104864366352558 -9.37367534637451 0.101381823420525
vertex 0.0996159687638283 -9.9477596282959 0.0526369363069534
endloop
endfacet
facet normal 0.999958217144012 -0.00914181768894196 7.26158539884474e-16
outer loop
vertex 0.0996159687638283 -9.9477596282959 0.0973630622029305
vertex 0.0996159687638283 -9.9477596282959 0.0526369363069534
vertex 0.104864366352558 -9.37367534637451 0.101381823420525
endloop
endfacet
facet normal 0.999958217144012 -0.00914181768894196 7.26158539884474e-16
outer loop
vertex 0.0996159687638283 -9.9477596282959 0.0973630622029305
vertex 0.0947971493005753 -10.4748563766479 0.0936732292175293
vertex 0.0996159687638283 -9.9477596282959 0.0526369363069534
endloop
endfacet
facet normal 0.999958157539368 -0.00914181768894196 -3.7158019848e-16
outer loop
vertex 0.0947971493005753 -10.4748563766479 0.0563267692923546
vertex 0.0996159687638283 -9.9477596282959 0.0526369363069534
vertex 0.0947971493005753 -10.4748563766479 0.0936732292175293
endloop
endfacet
facet normal 0.999958157539368 -0.00914181768894196 -3.71580224949779e-16
outer loop
vertex 0.0947971493005753 -10.4748563766479 0.0563267692923546
vertex 0.0947971493005753 -10.4748563766479 0.0936732292175293
vertex 0.091788187623024 -10.8039855957031 0.0586307644844055
endloop
endfacet
facet normal 0.999958157539368 -0.00914181768894196 0
outer loop
vertex 0.091788187623024 -10.8039855957031 0.0913692340254784
vertex 0.091788187623024 -10.8039855957031 0.0586307644844055
vertex 0.0947971493005753 -10.4748563766479 0.0936732292175293
endloop
endfacet
facet normal 0.999958217144012 -0.00914181768894196 0
outer loop
vertex 0.091788187623024 -10.8039855957031 0.0913692340254784
vertex 0.0900000035762787 -10.9995822906494 0.0900000035762787
vertex 0.091788187623024 -10.8039855957031 0.0586307644844055
endloop
endfacet
facet normal 0.999958157539368 -0.00914181768894196 0
outer loop
vertex 0.0900000035762787 -10.9995822906494 0.0599999986588955
vertex 0.091788187623024 -10.8039855957031 0.0586307644844055
vertex 0.0900000035762787 -10.9995822906494 0.0900000035762787
endloop
endfacet
endsolid COMSOL mesh mesh1
