solid COMSOL mesh mesh1
facet normal -0.0784837976098061 0.996915400028229 0
outer loop
vertex -4.98457717895508 -0.392419010400772 0.174999997019768
vertex -3.92828392982483 -0.309260606765747 0.169702187180519
vertex -4.98457717895508 -0.392419010400772 -0.025000000372529
endloop
endfacet
facet normal -0.0784837976098061 0.996915400028229 -1.51714506402441e-16
outer loop
vertex -3.92828392982483 -0.309260606765747 -0.0197021942585707
vertex -4.98457717895508 -0.392419010400772 -0.025000000372529
vertex -3.92828392982483 -0.309260606765747 0.169702187180519
endloop
endfacet
facet normal -0.0784837976098061 0.996915340423584 -1.51714506402441e-16
outer loop
vertex -3.92828392982483 -0.309260606765747 0.169702187180519
vertex -2.84031558036804 -0.223608508706093 0.164245516061783
vertex -3.92828392982483 -0.309260606765747 -0.0197021942585707
endloop
endfacet
facet normal -0.0784837976098061 0.996915400028229 -3.04074028394216e-16
outer loop
vertex -2.84031558036804 -0.223608508706093 -0.0142455203458667
vertex -3.92828392982483 -0.309260606765747 -0.0197021942585707
vertex -2.84031558036804 -0.223608508706093 0.164245516061783
endloop
endfacet
facet normal -0.0784837976098061 0.996915400028229 -3.04074028394216e-16
outer loop
vertex -2.84031558036804 -0.223608508706093 -0.0142455203458667
vertex -2.84031558036804 -0.223608508706093 0.164245516061783
vertex -1.80768465995789 -0.142312943935394 -0.00906638894230127
endloop
endfacet
facet normal -0.0784837976098061 0.996915400028229 -1.21844842429584e-16
outer loop
vertex -1.80768465995789 -0.142312943935394 0.159066393971443
vertex -1.80768465995789 -0.142312943935394 -0.00906638894230127
vertex -2.84031558036804 -0.223608508706093 0.164245516061783
endloop
endfacet
facet normal -0.0784837976098061 0.996915340423584 2.60342822440775e-17
outer loop
vertex -0.840508699417114 -0.0661704242229462 -0.00421554688364267
vertex -1.80768465995789 -0.142312943935394 -0.00906638894230127
vertex -0.840508699417114 -0.0661704242229462 0.154215544462204
endloop
endfacet
facet normal -0.0784838050603867 0.996915400028229 -1.21844842429584e-16
outer loop
vertex -1.80768465995789 -0.142312943935394 0.159066393971443
vertex -0.840508699417114 -0.0661704242229462 0.154215544462204
vertex -1.80768465995789 -0.142312943935394 -0.00906638894230127
endloop
endfacet
facet normal -0.0784837976098061 0.996915340423584 2.60342838984387e-17
outer loop
vertex -0.840508699417114 -0.0661704242229462 -0.00421554688364267
vertex -0.840508699417114 -0.0661704242229462 0.154215544462204
vertex 0 0 0
endloop
endfacet
facet normal -0.0784838050603867 0.996915400028229 0
outer loop
vertex 0 0 0.150000005960464
vertex 0 0 0
vertex -0.840508699417114 -0.0661704242229462 0.154215544462204
endloop
endfacet
facet normal 0.00239701382815838 0.0332247577607632 0.999445021152496
outer loop
vertex -4.39815473556519 -0.943561494350433 0.191915303468704
vertex -4.37609672546387 -0.920121252536774 0.191083163022995
vertex -4.98457717895508 -0.392419010400772 0.174999997019768
endloop
endfacet
facet normal 0.00239701382815838 0.0332247577607632 0.999445021152496
outer loop
vertex -4.39815473556519 -0.943561494350433 0.191915303468704
vertex -3.81173253059387 -1.49470400810242 0.208830609917641
vertex -4.37609672546387 -0.920121252536774 0.191083163022995
endloop
endfacet
facet normal 0.00239701382815838 0.0332247577607632 0.999445021152496
outer loop
vertex -3.81173253059387 -1.49470400810242 0.208830609917641
vertex -3.76761698722839 -1.4478235244751 0.207166343927383
vertex -4.37609672546387 -0.920121252536774 0.191083163022995
endloop
endfacet
facet normal 0.00239701382815838 0.0332247577607632 0.999445021152496
outer loop
vertex -3.81173253059387 -1.49470400810242 0.208830609917641
vertex -3.22531032562256 -2.04584646224976 0.225745901465416
vertex -3.76761698722839 -1.4478235244751 0.207166343927383
endloop
endfacet
facet normal 0.00239701382815838 0.0332247577607632 0.999444961547852
outer loop
vertex -3.15913677215576 -1.97552585601807 0.223249509930611
vertex -3.76761698722839 -1.4478235244751 0.207166343927383
vertex -3.22531032562256 -2.04584646224976 0.225745901465416
endloop
endfacet
facet normal 0.00239701382815838 0.0332247577607632 0.999444961547852
outer loop
vertex -3.22531032562256 -2.04584646224976 0.225745901465416
vertex -2.63888788223267 -2.59698915481567 0.242661207914352
vertex -3.15913677215576 -1.97552585601807 0.223249509930611
endloop
endfacet
facet normal 0.00239701382815838 0.0332247577607632 0.999445021152496
outer loop
vertex -2.55065679550171 -2.50322818756104 0.239332675933838
vertex -3.15913677215576 -1.97552585601807 0.223249509930611
vertex -2.63888788223267 -2.59698915481567 0.242661207914352
endloop
endfacet
facet normal 0.00239701382815838 0.0332247577607632 0.999445021152496
outer loop
vertex -2.63888788223267 -2.59698915481567 0.242661207914352
vertex -2.03210997581482 -3.1672625541687 0.26016366481781
vertex -2.55065679550171 -2.50322818756104 0.239332675933838
endloop
endfacet
facet normal 0.00239701382815838 0.0332247577607632 0.999445021152496
outer loop
vertex -1.92108952999115 -3.04921817779541 0.255973219871521
vertex -2.55065679550171 -2.50322818756104 0.239332675933838
vertex -2.03210997581482 -3.1672625541687 0.26016366481781
endloop
endfacet
facet normal 0.00239701382815838 0.0332247577607632 0.999445080757141
outer loop
vertex -2.03210997581482 -3.1672625541687 0.26016366481781
vertex -1.34195053577423 -3.81590151786804 0.280071258544922
vertex -1.92108952999115 -3.04921817779541 0.255973219871521
endloop
endfacet
facet normal 0.00239701382815838 0.0332247577607632 0.999445080757141
outer loop
vertex -1.20494890213013 -3.67028880119324 0.274902045726776
vertex -1.92108952999115 -3.04921817779541 0.255973219871521
vertex -1.34195053577423 -3.81590151786804 0.280071258544922
endloop
endfacet
facet normal -0.70743590593338 0.028504516929388 0.706202447414398
outer loop
vertex -0.568869292736053 -0.0126274805516005 -0.569353222846985
vertex -0.569163680076599 -0.0448083467781544 -0.568349242210388
vertex 0 0 0
endloop
endfacet
facet normal -0.70743590593338 0.028504516929388 0.706202447414398
outer loop
vertex -0.568869292736053 -0.0126274805516005 -0.569353222846985
vertex -1.13773858547211 -0.0252549611032009 -1.13870644569397
vertex -0.569163680076599 -0.0448083467781544 -0.568349242210388
endloop
endfacet
facet normal -0.70743590593338 0.028504516929388 0.706202447414398
outer loop
vertex -1.13773858547211 -0.0252549611032009 -1.13870644569397
vertex -1.1383273601532 -0.0896166935563087 -1.13669848442078
vertex -0.569163680076599 -0.0448083467781544 -0.568349242210388
endloop
endfacet
facet normal -0.70743590593338 0.028504516929388 0.706202447414398
outer loop
vertex -1.13773858547211 -0.0252549611032009 -1.13870644569397
vertex -1.70660793781281 -0.0378824435174465 -1.70805966854095
vertex -1.1383273601532 -0.0896166935563087 -1.13669848442078
endloop
endfacet
facet normal -0.707435965538025 0.028504516929388 0.706202447414398
outer loop
vertex -1.7074910402298 -0.134425029158592 -1.70504760742188
vertex -1.1383273601532 -0.0896166935563087 -1.13669848442078
vertex -1.70660793781281 -0.0378824435174465 -1.70805966854095
endloop
endfacet
facet normal -0.707435965538025 0.028504516929388 0.706202447414398
outer loop
vertex -1.70660793781281 -0.0378824435174465 -1.70805966854095
vertex -2.27547717094421 -0.0505099222064018 -2.27741289138794
vertex -1.7074910402298 -0.134425029158592 -1.70504760742188
endloop
endfacet
facet normal -0.70743590593338 0.028504516929388 0.706202447414398
outer loop
vertex -2.2766547203064 -0.179233387112617 -2.27339696884155
vertex -1.7074910402298 -0.134425029158592 -1.70504760742188
vertex -2.27547717094421 -0.0505099222064018 -2.27741289138794
endloop
endfacet
facet normal -0.707435965538025 0.0285045187920332 0.706202507019043
outer loop
vertex -2.27547717094421 -0.0505099222064018 -2.27741289138794
vertex -2.864093542099 -0.0635757371783257 -2.86652994155884
vertex -2.2766547203064 -0.179233387112617 -2.27339696884155
endloop
endfacet
facet normal -0.70743590593338 0.0285045150667429 0.706202447414398
outer loop
vertex -2.86554360389709 -0.225594624876976 -2.86144304275513
vertex -2.2766547203064 -0.179233387112617 -2.27339696884155
vertex -2.864093542099 -0.0635757371783257 -2.86652994155884
endloop
endfacet
facet normal -0.70743590593338 0.0285045150667429 0.706202387809753
outer loop
vertex -2.864093542099 -0.0635757371783257 -2.86652994155884
vertex -3.5335955619812 -0.078437015414238 -3.53660154342651
vertex -2.86554360389709 -0.225594624876976 -2.86144304275513
endloop
endfacet
facet normal -0.707435965538025 0.0285045187920332 0.706202447414398
outer loop
vertex -3.53541207313538 -0.278331130743027 -3.53035306930542
vertex -2.86554360389709 -0.225594624876976 -2.86144304275513
vertex -3.5335955619812 -0.078437015414238 -3.53660154342651
endloop
endfacet
facet normal 0.706406593322754 0.0397687591612339 -0.706688225269318
outer loop
vertex 0.00153666536789387 -0.0299602430313826 -0.000149954736116342
vertex -0.133937805891037 -0.0394989922642708 -0.136107236146927
vertex 0 0 0
endloop
endfacet
facet normal 0.706406593322754 0.0397687628865242 -0.706688165664673
outer loop
vertex -0.13580909371376 -0.003014623420313 -0.135924637317657
vertex 0 0 0
vertex -0.133937805891037 -0.0394989922642708 -0.136107236146927
endloop
endfacet
facet normal 0.706406593322754 0.0397687628865242 -0.706688225269318
outer loop
vertex -0.354713439941406 -0.00787375401705503 -0.355015188455582
vertex -0.13580909371376 -0.003014623420313 -0.135924637317657
vertex -0.35230278968811 -0.0548740550875664 -0.355250418186188
endloop
endfacet
facet normal 0.706406593322754 0.0397687666118145 -0.706688225269318
outer loop
vertex -0.133937805891037 -0.0394989922642708 -0.136107236146927
vertex -0.35230278968811 -0.0548740550875664 -0.355250418186188
vertex -0.13580909371376 -0.003014623420313 -0.135924637317657
endloop
endfacet
facet normal 0.706406533718109 0.0397687591612339 -0.706688165664673
outer loop
vertex -0.354713439941406 -0.00787375401705503 -0.355015188455582
vertex -0.35230278968811 -0.0548740550875664 -0.355250418186188
vertex -0.707555115222931 -0.0157059598714113 -0.708157002925873
endloop
endfacet
facet normal 0.706406533718109 0.0397687554359436 -0.706688106060028
outer loop
vertex -0.704275071620941 -0.0796563997864723 -0.708477079868317
vertex -0.707555115222931 -0.0157059598714113 -0.708157002925873
vertex -0.35230278968811 -0.0548740550875664 -0.355250418186188
endloop
endfacet
facet normal 0.706406593322754 0.0397687628865242 -0.706688225269318
outer loop
vertex -1.21556448936462 -0.0269825011491776 -1.21659851074219
vertex -0.707555115222931 -0.0157059598714113 -0.708157002925873
vertex -1.21103274822235 -0.115337178111076 -1.21704077720642
endloop
endfacet
facet normal 0.706406593322754 0.0397687628865242 -0.706688165664673
outer loop
vertex -0.704275071620941 -0.0796563997864723 -0.708477079868317
vertex -1.21103274822235 -0.115337178111076 -1.21704077720642
vertex -0.707555115222931 -0.0157059598714113 -0.708157002925873
endloop
endfacet
facet normal 0.706406652927399 0.0397687628865242 -0.706688225269318
outer loop
vertex -1.21556448936462 -0.0269825011491776 -1.21659851074219
vertex -1.21103274822235 -0.115337178111076 -1.21704077720642
vertex -1.75207674503326 -0.0388917364180088 -1.75356721878052
endloop
endfacet
facet normal 0.706406593322754 0.0397687628865242 -0.706688165664673
outer loop
vertex -1.74622309207916 -0.153019890189171 -1.75413846969604
vertex -1.75207674503326 -0.0388917364180088 -1.75356721878052
vertex -1.21103274822235 -0.115337178111076 -1.21704077720642
endloop
endfacet
facet normal 0.706406533718109 0.0397687591612339 -0.706688165664673
outer loop
vertex -1.75207674503326 -0.0388917364180088 -1.75356721878052
vertex -1.74622309207916 -0.153019890189171 -1.75413846969604
vertex -2.30843615531921 -0.0512415319681168 -2.31040000915527
endloop
endfacet
facet normal 0.706406593322754 0.0397687591612339 -0.706688165664673
outer loop
vertex -2.30121183395386 -0.19209660589695 -2.31110501289368
vertex -2.30843615531921 -0.0512415319681168 -2.31040000915527
vertex -1.74622309207916 -0.153019890189171 -1.75413846969604
endloop
endfacet
facet normal 0.706406533718109 0.0397687591612339 -0.706688165664673
outer loop
vertex -2.89562177658081 -0.0642755851149559 -2.89808487892151
vertex -2.30843615531921 -0.0512415319681168 -2.31040000915527
vertex -2.88695049285889 -0.233338430523872 -2.89893126487732
endloop
endfacet
facet normal 0.706406533718109 0.0397687591612339 -0.706688165664673
outer loop
vertex -2.30121183395386 -0.19209660589695 -2.31110501289368
vertex -2.88695049285889 -0.233338430523872 -2.89893126487732
vertex -2.30843615531921 -0.0512415319681168 -2.31040000915527
endloop
endfacet
facet normal 0.706406652927399 0.0397687628865242 -0.706688165664673
outer loop
vertex -2.89562177658081 -0.0642755851149559 -2.89808487892151
vertex -2.88695049285889 -0.233338430523872 -2.89893126487732
vertex -3.53410601615906 -0.0784483477473259 -3.53711247444153
endloop
endfacet
facet normal 0.706406533718109 0.0397687591612339 -0.706688165664673
outer loop
vertex -3.52386164665222 -0.278183311223984 -3.5381121635437
vertex -3.53410601615906 -0.0784483477473259 -3.53711247444153
vertex -2.88695049285889 -0.233338430523872 -2.89893126487732
endloop
endfacet
facet normal -0.271526038646698 -0.962431013584137 0
outer loop
vertex -0.619839787483215 -6.55609798431396 0.0599999986588955
vertex -0.434917658567429 -6.60826921463013 0.0567336082458496
vertex -0.619839787483215 -6.55609798431396 0.0900000035762787
endloop
endfacet
facet normal -0.27152606844902 -0.962431073188782 1.80349001520624e-14
outer loop
vertex -0.434917658567429 -6.60826921463013 0.0932663902640343
vertex -0.619839787483215 -6.55609798431396 0.0900000035762787
vertex -0.434917658567429 -6.60826921463013 0.0567336082458496
endloop
endfacet
facet normal -0.271526038646698 -0.962431073188782 1.2810767698664e-15
outer loop
vertex -0.136850282549858 -6.69236135482788 0.0514686666429043
vertex -0.136850282549858 -6.69236135482788 0.0985313355922699
vertex -0.434917658567429 -6.60826921463013 0.0567336082458496
endloop
endfacet
facet normal -0.27152606844902 -0.962431073188782 1.80349001520624e-14
outer loop
vertex -0.434917658567429 -6.60826921463013 0.0932663902640343
vertex -0.434917658567429 -6.60826921463013 0.0567336082458496
vertex -0.136850282549858 -6.69236135482788 0.0985313355922699
endloop
endfacet
facet normal -0.27152606844902 -0.962431073188782 1.28107687574552e-15
outer loop
vertex -0.136850282549858 -6.69236135482788 0.0514686666429043
vertex 0.343590557575226 -6.82790565490723 0.0429823473095894
vertex -0.136850282549858 -6.69236135482788 0.0985313355922699
endloop
endfacet
facet normal -0.27152606844902 -0.962431132793427 -1.09952364324862e-14
outer loop
vertex 0.343590557575226 -6.82790565490723 0.107017651200294
vertex -0.136850282549858 -6.69236135482788 0.0985313355922699
vertex 0.343590557575226 -6.82790565490723 0.0429823473095894
endloop
endfacet
facet normal -0.27152606844902 -0.962431073188782 -2.83043564036937e-14
outer loop
vertex 1.03531289100647 -7.02305793762207 0.0307640414685011
vertex 1.03531289100647 -7.02305793762207 0.119235962629318
vertex 0.343590557575226 -6.82790565490723 0.0429823473095894
endloop
endfacet
facet normal -0.271526038646698 -0.962431013584137 -1.09952355854532e-14
outer loop
vertex 0.343590557575226 -6.82790565490723 0.107017651200294
vertex 0.343590557575226 -6.82790565490723 0.0429823473095894
vertex 1.03531289100647 -7.02305793762207 0.119235962629318
endloop
endfacet
facet normal -0.271526098251343 -0.962431073188782 -2.83043564036937e-14
outer loop
vertex 1.03531289100647 -7.02305793762207 0.0307640414685011
vertex 1.76584565639496 -7.22915983200073 0.0178602002561092
vertex 1.03531289100647 -7.02305793762207 0.119235962629318
endloop
endfacet
facet normal -0.27152606844902 -0.962431073188782 6.67053184336044e-15
outer loop
vertex 1.76584565639496 -7.22915983200073 0.132139801979065
vertex 1.03531289100647 -7.02305793762207 0.119235962629318
vertex 1.76584565639496 -7.22915983200073 0.0178602002561092
endloop
endfacet
facet normal -0.271526038646698 -0.962431013584137 6.67053184336044e-15
outer loop
vertex 1.76584565639496 -7.22915983200073 0.0178602002561092
vertex 2.52340316772461 -7.4428858757019 0.00447900732979178
vertex 1.76584565639496 -7.22915983200073 0.132139801979065
endloop
endfacet
facet normal -0.27152606844902 -0.962431073188782 7.46601944764252e-15
outer loop
vertex 2.52340316772461 -7.4428858757019 0.145520985126495
vertex 1.76584565639496 -7.22915983200073 0.132139801979065
vertex 2.52340316772461 -7.4428858757019 0.00447900732979178
endloop
endfacet
facet normal -0.27152606844902 -0.962431073188782 -8.67435683964699e-15
outer loop
vertex 3.3229341506958 -7.66845369338989 -0.00964359287172556
vertex 3.3229341506958 -7.66845369338989 0.159643590450287
vertex 2.52340316772461 -7.4428858757019 0.00447900732979178
endloop
endfacet
facet normal -0.27152606844902 -0.962431132793427 7.46602029467547e-15
outer loop
vertex 2.52340316772461 -7.4428858757019 0.145520985126495
vertex 2.52340316772461 -7.4428858757019 0.00447900732979178
vertex 3.3229341506958 -7.66845369338989 0.159643590450287
endloop
endfacet
facet normal -0.27152606844902 -0.962431132793427 -8.67435683964699e-15
outer loop
vertex 3.3229341506958 -7.66845369338989 -0.00964359287172556
vertex 4.19231557846069 -7.9137282371521 -0.025000000372529
vertex 3.3229341506958 -7.66845369338989 0.159643590450287
endloop
endfacet
facet normal -0.27152606844902 -0.962431132793427 -0
outer loop
vertex 4.19231557846069 -7.9137282371521 0.174999997019768
vertex 3.3229341506958 -7.66845369338989 0.159643590450287
vertex 4.19231557846069 -7.9137282371521 -0.025000000372529
endloop
endfacet
facet normal 0.0439226217567921 -0.0108280796557665 0.998976230621338
outer loop
vertex -0.619839787483215 -6.55609798431396 0.0599999986588955
vertex 0.196914032101631 -6.76179075241089 0.021859722211957
vertex -0.583935797214508 -6.41045808792114 0.0599999986588955
endloop
endfacet
facet normal 0.0439226217567921 -0.0108280796557665 0.998976230621338
outer loop
vertex 0.234836101531982 -6.60796499252319 0.021859722211957
vertex -0.583935797214508 -6.41045808792114 0.0599999986588955
vertex 0.196914032101631 -6.76179075241089 0.021859722211957
endloop
endfacet
facet normal 0.0439226217567921 -0.0108280796557665 0.998976230621338
outer loop
vertex 0.234836101531982 -6.60796499252319 0.021859722211957
vertex 0.196914032101631 -6.76179075241089 0.021859722211957
vertex 1.17699944972992 -6.8352370262146 -0.0220284126698971
endloop
endfacet
facet normal 0.0439226217567921 -0.0108280787244439 0.998976230621338
outer loop
vertex 1.1367552280426 -6.99848222732544 -0.0220284126698971
vertex 1.17699944972992 -6.8352370262146 -0.0220284126698971
vertex 0.196914032101631 -6.76179075241089 0.021859722211957
endloop
endfacet
facet normal 0.0439226254820824 -0.0108280796557665 0.998976290225983
outer loop
vertex 2.1829252243042 -7.07788991928101 -0.0688867419958115
vertex 1.17699944972992 -6.8352370262146 -0.0220284126698971
vertex 2.14020156860352 -7.25119256973267 -0.0688867419958115
endloop
endfacet
facet normal 0.0439226217567921 -0.0108280796557665 0.998976230621338
outer loop
vertex 1.1367552280426 -6.99848222732544 -0.0220284126698971
vertex 2.14020156860352 -7.25119256973267 -0.0688867419958115
vertex 1.17699944972992 -6.8352370262146 -0.0220284126698971
endloop
endfacet
facet normal 0.0439226217567921 -0.0108280796557665 0.998976230621338
outer loop
vertex 2.1829252243042 -7.07788991928101 -0.0688867419958115
vertex 2.14020156860352 -7.25119256973267 -0.0688867419958115
vertex 3.24275708198547 -7.33354616165161 -0.118256151676178
endloop
endfacet
facet normal 0.0439226254820824 -0.0108280796557665 0.998976230621338
outer loop
vertex 3.19742131233215 -7.51744508743286 -0.118256151676178
vertex 3.24275708198547 -7.33354616165161 -0.118256151676178
vertex 2.14020156860352 -7.25119256973267 -0.0688867419958115
endloop
endfacet
facet normal 0.0439226292073727 -0.0108280815184116 0.998976290225983
outer loop
vertex 3.24275708198547 -7.33354616165161 -0.118256151676178
vertex 3.19742131233215 -7.51744508743286 -0.118256151676178
vertex 4.27173280715942 -7.58175945281982 -0.166188210248947
endloop
endfacet
facet normal 0.0439226217567921 -0.0108280796557665 0.998976230621338
outer loop
vertex 4.22386074066162 -7.77594566345215 -0.166188210248947
vertex 4.27173280715942 -7.58175945281982 -0.166188210248947
vertex 3.19742131233215 -7.51744508743286 -0.118256151676178
endloop
endfacet
facet normal -0.203646928071976 -0.677612841129303 -0.706660211086273
outer loop
vertex 0.154751777648926 -6.77462959289551 0.0463254936039448
vertex -0.619839787483215 -6.55609798431396 0.0599999986588955
vertex 0.160560816526413 -6.75262403488159 0.0235505271703005
endloop
endfacet
facet normal -0.203646928071976 -0.677612841129303 -0.706660211086273
outer loop
vertex 0.154751777648926 -6.77462959289551 0.0463254936039448
vertex 0.160560816526413 -6.75262403488159 0.0235505271703005
vertex 0.929343342781067 -6.99316167831421 0.0326509885489941
endloop
endfacet
facet normal -0.203646928071976 -0.677612841129303 -0.706660211086273
outer loop
vertex 0.929343342781067 -6.99316167831421 0.0326509885489941
vertex 0.160560816526413 -6.75262403488159 0.0235505271703005
vertex 0.940961420536041 -6.94915056228638 -0.0128989461809397
endloop
endfacet
facet normal -0.203646928071976 -0.677612841129303 -0.706660211086273
outer loop
vertex 0.929343342781067 -6.99316167831421 0.0326509885489941
vertex 0.940961420536041 -6.94915056228638 -0.0128989461809397
vertex 1.70393490791321 -7.21169328689575 0.0189764834940434
endloop
endfacet
facet normal -0.203646928071976 -0.677612900733948 -0.706660211086273
outer loop
vertex 1.72136211395264 -7.14567708969116 -0.0493484176695347
vertex 1.70393490791321 -7.21169328689575 0.0189764834940434
vertex 0.940961420536041 -6.94915056228638 -0.0128989461809397
endloop
endfacet
facet normal -0.203646928071976 -0.677612900733948 -0.706660211086273
outer loop
vertex 1.70393490791321 -7.21169328689575 0.0189764834940434
vertex 1.72136211395264 -7.14567708969116 -0.0493484176695347
vertex 2.47852659225464 -7.43022489547729 0.00530197890475392
endloop
endfacet
facet normal -0.203646928071976 -0.677612841129303 -0.706660211086273
outer loop
vertex 2.5017626285553 -7.34220314025879 -0.0857978910207748
vertex 2.47852659225464 -7.43022489547729 0.00530197890475392
vertex 1.72136211395264 -7.14567708969116 -0.0493484176695347
endloop
endfacet
facet normal -0.203646928071976 -0.677612900733948 -0.706660211086273
outer loop
vertex 2.47852659225464 -7.43022489547729 0.00530197890475392
vertex 2.5017626285553 -7.34220314025879 -0.0857978910207748
vertex 3.28000545501709 -7.65634250640869 -0.00884719006717205
endloop
endfacet
facet normal -0.203646942973137 -0.677612900733948 -0.706660211086273
outer loop
vertex 3.3092086315155 -7.54554033279419 -0.123510539531708
vertex 3.28000545501709 -7.65634250640869 -0.00884719006717205
vertex 2.5017626285553 -7.34220314025879 -0.0857978910207748
endloop
endfacet
facet normal -0.203646928071976 -0.677612900733948 -0.706660211086273
outer loop
vertex 3.28000545501709 -7.65634250640869 -0.00884719006717205
vertex 3.3092086315155 -7.54554033279419 -0.123510539531708
vertex 4.19162130355835 -7.91353225708008 -0.0249406974762678
endloop
endfacet
facet normal -0.203646928071976 -0.677612960338593 -0.706660270690918
outer loop
vertex 4.22768831253052 -7.77683877944946 -0.166409149765968
vertex 4.19162130355835 -7.91353225708008 -0.0249406974762678
vertex 3.3092086315155 -7.54554033279419 -0.123510539531708
endloop
endfacet
facet normal -0.967935919761658 0.238621607422829 0.0784837976098061
outer loop
vertex -0.619839787483215 -6.55609798431396 0.0900000035762787
vertex -0.556601941585541 -6.5760293006897 0.930508673191071
vertex -0.583935797214508 -6.41045808792114 0.0900000035762787
endloop
endfacet
facet normal -0.967935919761658 0.238621637225151 0.0784837976098061
outer loop
vertex -0.518679857254028 -6.422203540802 0.930508673191071
vertex -0.583935797214508 -6.41045808792114 0.0900000035762787
vertex -0.556601941585541 -6.5760293006897 0.930508673191071
endloop
endfacet
facet normal -0.967935860157013 0.23862162232399 0.0784837976098061
outer loop
vertex -0.518679857254028 -6.422203540802 0.930508673191071
vertex -0.556601941585541 -6.5760293006897 0.930508673191071
vertex -0.44358965754509 -6.43571949005127 1.8976845741272
endloop
endfacet
facet normal -0.967935979366302 0.238621637225151 0.0784838050603867
outer loop
vertex -0.483833909034729 -6.59896469116211 1.8976845741272
vertex -0.44358965754509 -6.43571949005127 1.8976845741272
vertex -0.556601941585541 -6.5760293006897 0.930508673191071
endloop
endfacet
facet normal -0.967935919761658 0.238621637225151 0.0784837976098061
outer loop
vertex -0.363417595624924 -6.45014953613281 2.93031549453735
vertex -0.44358965754509 -6.43571949005127 1.8976845741272
vertex -0.406141191720963 -6.62345218658447 2.93031549453735
endloop
endfacet
facet normal -0.967935979366302 0.23862162232399 0.0784837976098061
outer loop
vertex -0.483833909034729 -6.59896469116211 1.8976845741272
vertex -0.406141191720963 -6.62345218658447 2.93031549453735
vertex -0.44358965754509 -6.43571949005127 1.8976845741272
endloop
endfacet
facet normal -0.967935979366302 0.23862162232399 0.0784837976098061
outer loop
vertex -0.363417595624924 -6.45014953613281 2.93031549453735
vertex -0.406141191720963 -6.62345218658447 2.93031549453735
vertex -0.278949230909348 -6.46535348892212 4.01828384399414
endloop
endfacet
facet normal -0.967935979366302 0.23862162232399 0.0784838050603867
outer loop
vertex -0.324285060167313 -6.64925193786621 4.01828384399414
vertex -0.278949230909348 -6.46535348892212 4.01828384399414
vertex -0.406141191720963 -6.62345218658447 2.93031549453735
endloop
endfacet
facet normal -0.967935919761658 0.238621607422829 0.0784837901592255
outer loop
vertex -0.278949230909348 -6.46535348892212 4.01828384399414
vertex -0.324285060167313 -6.64925193786621 4.01828384399414
vertex -0.196940079331398 -6.48011445999146 5.07457685470581
endloop
endfacet
facet normal -0.967935919761658 0.23862162232399 0.0784837976098061
outer loop
vertex -0.244812071323395 -6.67430067062378 5.07457685470581
vertex -0.196940079331398 -6.48011445999146 5.07457685470581
vertex -0.324285060167313 -6.64925193786621 4.01828384399414
endloop
endfacet
facet normal 0.130540147423744 0.695664465427399 -0.706406593322754
outer loop
vertex -0.583935797214508 -6.41045808792114 0.0900000035762787
vertex -0.5484738945961 -6.27920627593994 0.225809097290039
vertex -0.554810583591461 -6.41748380661011 0.0884633362293243
endloop
endfacet
facet normal 0.130540132522583 0.695664465427399 -0.706406593322754
outer loop
vertex -0.513006389141083 -6.28776216506958 0.223937809467316
vertex -0.554810583591461 -6.41748380661011 0.0884633362293243
vertex -0.5484738945961 -6.27920627593994 0.225809097290039
endloop
endfacet
facet normal 0.130540132522583 0.695664465427399 -0.706406593322754
outer loop
vertex -0.49131453037262 -6.0676474571228 0.444713443517685
vertex -0.445624172687531 -6.07866907119751 0.442302793264389
vertex -0.5484738945961 -6.27920627593994 0.225809097290039
endloop
endfacet
facet normal 0.130540132522583 0.695664465427399 -0.706406533718109
outer loop
vertex -0.513006389141083 -6.28776216506958 0.223937809467316
vertex -0.5484738945961 -6.27920627593994 0.225809097290039
vertex -0.445624172687531 -6.07866907119751 0.442302793264389
endloop
endfacet
facet normal 0.130540132522583 0.695664465427399 -0.706406593322754
outer loop
vertex -0.49131453037262 -6.0676474571228 0.444713443517685
vertex -0.399181991815567 -5.72664594650269 0.797555088996887
vertex -0.445624172687531 -6.07866907119751 0.442302793264389
endloop
endfacet
facet normal 0.130540117621422 0.695664346218109 -0.706406533718109
outer loop
vertex -0.337013900279999 -5.74164247512817 0.794275045394897
vertex -0.445624172687531 -6.07866907119751 0.442302793264389
vertex -0.399181991815567 -5.72664594650269 0.797555088996887
endloop
endfacet
facet normal 0.130540132522583 0.695664465427399 -0.706406593322754
outer loop
vertex -0.266532689332962 -5.23568344116211 1.30556452274323
vertex -0.180640563368797 -5.25640296936035 1.30103278160095
vertex -0.399181991815567 -5.72664594650269 0.797555088996887
endloop
endfacet
facet normal 0.130540132522583 0.695664405822754 -0.706406593322754
outer loop
vertex -0.337013900279999 -5.74164247512817 0.794275045394897
vertex -0.399181991815567 -5.72664594650269 0.797555088996887
vertex -0.180640563368797 -5.25640296936035 1.30103278160095
endloop
endfacet
facet normal 0.130540147423744 0.695664465427399 -0.706406652927399
outer loop
vertex -0.266532689332962 -5.23568344116211 1.30556452274323
vertex -0.126440852880478 -4.7171745300293 1.84207677841187
vertex -0.180640563368797 -5.25640296936035 1.30103278160095
endloop
endfacet
facet normal 0.130540132522583 0.695664465427399 -0.706406593322754
outer loop
vertex -0.0154935754835606 -4.74393796920776 1.83622312545776
vertex -0.180640563368797 -5.25640296936035 1.30103278160095
vertex -0.126440852880478 -4.7171745300293 1.84207677841187
endloop
endfacet
facet normal 0.130540132522583 0.695664465427399 -0.706406533718109
outer loop
vertex -0.126440852880478 -4.7171745300293 1.84207677841187
vertex 0.0188334099948406 -4.17948484420776 2.3984363079071
vertex -0.0154935754835606 -4.74393796920776 1.83622312545776
endloop
endfacet
facet normal 0.130540147423744 0.695664465427399 -0.706406593322754
outer loop
vertex 0.155762702226639 -4.21251535415649 2.39121174812317
vertex -0.0154935754835606 -4.74393796920776 1.83622312545776
vertex 0.0188334099948406 -4.17948484420776 2.3984363079071
endloop
endfacet
facet normal 0.130540132522583 0.695664465427399 -0.706406533718109
outer loop
vertex 0.172156825661659 -3.61200284957886 2.98562169075012
vertex 0.336507707834244 -3.65164828300476 2.9769504070282
vertex 0.0188334099948406 -4.17948484420776 2.3984363079071
endloop
endfacet
facet normal 0.130540132522583 0.695664465427399 -0.706406593322754
outer loop
vertex 0.155762702226639 -4.21251535415649 2.39121174812317
vertex 0.0188334099948406 -4.17948484420776 2.3984363079071
vertex 0.336507707834244 -3.65164828300476 2.9769504070282
endloop
endfacet
facet normal 0.130540132522583 0.695664465427399 -0.706406652927399
outer loop
vertex 0.172156825661659 -3.61200284957886 2.98562169075012
vertex 0.338875204324722 -2.99494385719299 3.62410616874695
vertex 0.336507707834244 -3.65164828300476 2.9769504070282
endloop
endfacet
facet normal 0.130540132522583 0.695664405822754 -0.706406533718109
outer loop
vertex 0.533043324947357 -3.04178166389465 3.61386156082153
vertex 0.336507707834244 -3.65164828300476 2.9769504070282
vertex 0.338875204324722 -2.99494385719299 3.62410616874695
endloop
endfacet
facet normal -0.196712493896484 -0.678850948810577 0.70743590593338
outer loop
vertex -0.435395032167435 -5.86067819595337 0.658869326114655
vertex -0.583935797214508 -6.41045808792114 0.0900000035762787
vertex -0.404389977455139 -5.86935567855835 0.6591637134552
endloop
endfacet
facet normal -0.196712493896484 -0.678850948810577 0.70743590593338
outer loop
vertex -0.435395032167435 -5.86067819595337 0.658869326114655
vertex -0.404389977455139 -5.86935567855835 0.6591637134552
vertex -0.286854267120361 -5.31089782714844 1.22773861885071
endloop
endfacet
facet normal -0.196712493896484 -0.678850948810577 0.70743590593338
outer loop
vertex -0.286854267120361 -5.31089782714844 1.22773861885071
vertex -0.404389977455139 -5.86935567855835 0.6591637134552
vertex -0.224844112992287 -5.32825326919556 1.2283273935318
endloop
endfacet
facet normal -0.196712493896484 -0.678850948810577 0.70743590593338
outer loop
vertex -0.286854267120361 -5.31089782714844 1.22773861885071
vertex -0.224844112992287 -5.32825326919556 1.2283273935318
vertex -0.138313487172127 -4.76111793518066 1.79660785198212
endloop
endfacet
facet normal -0.196712508797646 -0.678850948810577 0.707435965538025
outer loop
vertex -0.0452982634305954 -4.78715085983276 1.7974910736084
vertex -0.138313487172127 -4.76111793518066 1.79660785198212
vertex -0.224844112992287 -5.32825326919556 1.2283273935318
endloop
endfacet
facet normal -0.196712508797646 -0.678850948810577 0.707435965538025
outer loop
vertex -0.138313487172127 -4.76111793518066 1.79660785198212
vertex -0.0452982634305954 -4.78715085983276 1.7974910736084
vertex 0.0102272955700755 -4.21133756637573 2.3654773235321
endloop
endfacet
facet normal -0.196712493896484 -0.678850948810577 0.70743590593338
outer loop
vertex 0.134247586131096 -4.24604845046997 2.36665463447571
vertex 0.0102272955700755 -4.21133756637573 2.3654773235321
vertex -0.0452982634305954 -4.78715085983276 1.7974910736084
endloop
endfacet
facet normal -0.196712508797646 -0.678850948810577 0.707435965538025
outer loop
vertex 0.0102272955700755 -4.21133756637573 2.3654773235321
vertex 0.134247586131096 -4.24604845046997 2.36665463447571
vertex 0.163924306631088 -3.6424732208252 2.95409345626831
endloop
endfacet
facet normal -0.196712493896484 -0.678850948810577 0.70743590593338
outer loop
vertex 0.320015877485275 -3.68619298934937 2.95554375648499
vertex 0.163924306631088 -3.6424732208252 2.95409345626831
vertex 0.134247586131096 -4.24604845046997 2.36665463447571
endloop
endfacet
facet normal -0.196712493896484 -0.678850948810577 0.70743590593338
outer loop
vertex 0.163924306631088 -3.6424732208252 2.95409345626831
vertex 0.320015877485275 -3.68619298934937 2.95554375648499
vertex 0.338741898536682 -2.99543714523315 3.62359547615051
endloop
endfacet
facet normal -0.196712493896484 -0.678850948810577 0.70743590593338
outer loop
vertex 0.53132963180542 -3.04935073852539 3.62541222572327
vertex 0.338741898536682 -2.99543714523315 3.62359547615051
vertex 0.320015877485275 -3.68619298934937 2.95554375648499
endloop
endfacet
facet normal -0.271486073732376 -0.962439358234406 -0.00239701382815838
outer loop
vertex 2.9138605594635 -7.55588912963867 1.29494893550873
vertex 3.0540030002594 -7.59576225280762 1.43195056915283
vertex 2.31537461280823 -7.38885116577148 2.01108956336975
endloop
endfacet
facet normal -0.271486103534698 -0.96243941783905 -0.00239701406098902
outer loop
vertex 2.42898464202881 -7.42117500305176 2.12211012840271
vertex 2.31537461280823 -7.38885116577148 2.01108956336975
vertex 3.0540030002594 -7.59576225280762 1.43195056915283
endloop
endfacet
facet normal -0.271486103534698 -0.962439477443695 -0.00239701406098902
outer loop
vertex 2.31537461280823 -7.38885116577148 2.01108956336975
vertex 2.42898464202881 -7.42117500305176 2.12211012840271
vertex 1.78923904895782 -7.24200630187988 2.64065670967102
endloop
endfacet
facet normal -0.271486043930054 -0.962439358234406 -0.00239701382815838
outer loop
vertex 1.87947773933411 -7.26768064498901 2.72888803482056
vertex 1.78923904895782 -7.24200630187988 2.64065670967102
vertex 2.42898464202881 -7.42117500305176 2.12211012840271
endloop
endfacet
facet normal -0.271486043930054 -0.962439358234406 -0.00239701359532773
outer loop
vertex 1.78923904895782 -7.24200630187988 2.64065670967102
vertex 1.87947773933411 -7.26768064498901 2.72888803482056
vertex 1.280726313591 -7.10008001327515 3.24913692474365
endloop
endfacet
facet normal -0.271486043930054 -0.962439358234406 -0.00239701382815838
outer loop
vertex 1.34840536117554 -7.11933565139771 3.31531023979187
vertex 1.280726313591 -7.10008001327515 3.24913692474365
vertex 1.87947773933411 -7.26768064498901 2.72888803482056
endloop
endfacet
facet normal -0.271486043930054 -0.962439358234406 -0.00239701382815838
outer loop
vertex 1.280726313591 -7.10008001327515 3.24913692474365
vertex 1.34840536117554 -7.11933565139771 3.31531023979187
vertex 0.772213518619537 -6.95815324783325 3.85761690139771
endloop
endfacet
facet normal -0.271486043930054 -0.962439358234406 -0.00239701359532773
outer loop
vertex 0.817332863807678 -6.9709906578064 3.90173244476318
vertex 0.772213518619537 -6.95815324783325 3.85761690139771
vertex 1.34840536117554 -7.11933565139771 3.31531023979187
endloop
endfacet
facet normal -0.271486043930054 -0.962439358234406 -0.00239701359532773
outer loop
vertex 0.817332863807678 -6.9709906578064 3.90173244476318
vertex 0.263700693845749 -6.81622695922852 4.46609687805176
vertex 0.772213518619537 -6.95815324783325 3.85761690139771
endloop
endfacet
facet normal -0.271486043930054 -0.962439358234406 -0.00239701359532773
outer loop
vertex 0.286260396242142 -6.82264566421509 4.48815488815308
vertex 0.263700693845749 -6.81622695922852 4.46609687805176
vertex 0.817332863807678 -6.9709906578064 3.90173244476318
endloop
endfacet
facet normal -0.271486043930054 -0.962439358234406 -0.00239701359532773
outer loop
vertex 0.286260396242142 -6.82264566421509 4.48815488815308
vertex -0.244812071323395 -6.67430067062378 5.07457685470581
vertex 0.263700693845749 -6.81622695922852 4.46609687805176
endloop
endfacet
facet normal -1 0 0
outer loop
vertex -0.226420000195503 -6 -0.025000000372529
vertex -0.226420000195503 -6 0.174999997019768
vertex -0.226420000195503 -5 -0.025000000372529
endloop
endfacet
facet normal -1 -0 -0
outer loop
vertex -0.226420000195503 -5 0.174999997019768
vertex -0.226420000195503 -5 -0.025000000372529
vertex -0.226420000195503 -6 0.174999997019768
endloop
endfacet
facet normal -0.70710676908493 0 -0.70710676908493
outer loop
vertex -0.226420000195503 -6 -0.025000000372529
vertex -0.226420000195503 -5 -0.025000000372529
vertex -0.0850000008940697 -6 -0.166419997811317
endloop
endfacet
facet normal -0.70710676908493 -0 -0.70710676908493
outer loop
vertex -0.0850000008940697 -5 -0.166419997811317
vertex -0.0850000008940697 -6 -0.166419997811317
vertex -0.226420000195503 -5 -0.025000000372529
endloop
endfacet
facet normal -0.70710676908493 0 0.70710676908493
outer loop
vertex -0.0850000008940697 -6 0.316419988870621
vertex -0.0850000008940697 -5 0.316419988870621
vertex -0.226420000195503 -6 0.174999997019768
endloop
endfacet
facet normal -0.70710676908493 0 0.70710676908493
outer loop
vertex -0.226420000195503 -5 0.174999997019768
vertex -0.226420000195503 -6 0.174999997019768
vertex -0.0850000008940697 -5 0.316419988870621
endloop
endfacet
facet normal -0 -0 -1
outer loop
vertex 0.115000002086163 -5 -0.166419997811317
vertex 0.115000002086163 -6 -0.166419997811317
vertex -0.0850000008940697 -5 -0.166419997811317
endloop
endfacet
facet normal 0 0 -1
outer loop
vertex -0.0850000008940697 -6 -0.166419997811317
vertex -0.0850000008940697 -5 -0.166419997811317
vertex 0.115000002086163 -6 -0.166419997811317
endloop
endfacet
facet normal 0 -0 1
outer loop
vertex 0.115000002086163 -6 0.316419988870621
vertex 0.115000002086163 -5 0.316419988870621
vertex -0.0850000008940697 -6 0.316419988870621
endloop
endfacet
facet normal -0 0 1
outer loop
vertex -0.0850000008940697 -5 0.316419988870621
vertex -0.0850000008940697 -6 0.316419988870621
vertex 0.115000002086163 -5 0.316419988870621
endloop
endfacet
facet normal 0.70710676908493 0 -0.70710676908493
outer loop
vertex 0.115000002086163 -6 -0.166419997811317
vertex 0.115000002086163 -5 -0.166419997811317
vertex 0.256419986486435 -6 -0.025000000372529
endloop
endfacet
facet normal 0.70710676908493 0 -0.70710676908493
outer loop
vertex 0.256419986486435 -5 -0.025000000372529
vertex 0.256419986486435 -6 -0.025000000372529
vertex 0.115000002086163 -5 -0.166419997811317
endloop
endfacet
facet normal 0.70710676908493 -0 0.70710676908493
outer loop
vertex 0.256419986486435 -6 0.174999997019768
vertex 0.256419986486435 -5 0.174999997019768
vertex 0.115000002086163 -6 0.316419988870621
endloop
endfacet
facet normal 0.70710676908493 0 0.70710676908493
outer loop
vertex 0.115000002086163 -5 0.316419988870621
vertex 0.115000002086163 -6 0.316419988870621
vertex 0.256419986486435 -5 0.174999997019768
endloop
endfacet
facet normal 1 0 -0
outer loop
vertex 0.256419986486435 -5 -0.025000000372529
vertex 0.256419986486435 -5 0.174999997019768
vertex 0.256419986486435 -6 -0.025000000372529
endloop
endfacet
facet normal 1 -0 0
outer loop
vertex 0.256419986486435 -6 0.174999997019768
vertex 0.256419986486435 -6 -0.025000000372529
vertex 0.256419986486435 -5 0.174999997019768
endloop
endfacet
facet normal -0 0.0332655794918537 0.99944657087326
outer loop
vertex -0.0850000008940697 -4.99723291397095 0.316327899694443
vertex 0.115000002086163 -4.99723291397095 0.316327899694443
vertex -0.0696435943245888 -4.09441471099854 0.286278486251831
endloop
endfacet
facet normal 0 0.0332655794918537 0.999446511268616
outer loop
vertex 0.0996435955166817 -4.09441471099854 0.286278486251831
vertex -0.0696435943245888 -4.09441471099854 0.286278486251831
vertex 0.115000002086163 -4.99723291397095 0.316327899694443
endloop
endfacet
facet normal -0 0.0332655794918537 0.99944657087326
outer loop
vertex -0.0696435943245888 -4.09441471099854 0.286278486251831
vertex 0.0996435955166817 -4.09441471099854 0.286278486251831
vertex -0.0555209927260876 -3.26413321495056 0.258643418550491
endloop
endfacet
facet normal 4.4223857520921e-16 0.0332655794918537 0.99944657087326
outer loop
vertex 0.0855209901928902 -3.26413321495056 0.258643418550491
vertex -0.0555209927260876 -3.26413321495056 0.258643418550491
vertex 0.0996435955166817 -4.09441471099854 0.286278486251831
endloop
endfacet
facet normal 4.4223854873943e-16 0.0332655757665634 0.999446511268616
outer loop
vertex 0.0855209901928902 -3.26413321495056 0.258643418550491
vertex 0.0721397995948792 -2.47743988037109 0.232459113001823
vertex -0.0555209927260876 -3.26413321495056 0.258643418550491
endloop
endfacet
facet normal -2.4273984328794e-16 0.0332655794918537 0.99944657087326
outer loop
vertex -0.0421397984027863 -2.47743988037109 0.232459113001823
vertex -0.0555209927260876 -3.26413321495056 0.258643418550491
vertex 0.0721397995948792 -2.47743988037109 0.232459113001823
endloop
endfacet
facet normal -2.4273984328794e-16 0.0332655794918537 0.999446511268616
outer loop
vertex -0.0421397984027863 -2.47743988037109 0.232459113001823
vertex 0.0721397995948792 -2.47743988037109 0.232459113001823
vertex -0.0292359590530396 -1.7188104391098 0.207208886742592
endloop
endfacet
facet normal -7.51402133415902e-16 0.0332655794918537 0.99944657087326
outer loop
vertex 0.0592359602451324 -1.7188104391098 0.207208886742592
vertex -0.0292359590530396 -1.7188104391098 0.207208886742592
vertex 0.0721397995948792 -2.47743988037109 0.232459113001823
endloop
endfacet
facet normal -7.51402080476343e-16 0.0332655794918537 0.99944657087326
outer loop
vertex 0.0592359602451324 -1.7188104391098 0.207208886742592
vertex 0.047017652541399 -1.00048422813416 0.183300122618675
vertex -0.0292359590530396 -1.7188104391098 0.207208886742592
endloop
endfacet
facet normal 4.33201871862529e-16 0.0332655794918537 0.999446511268616
outer loop
vertex -0.0170176513493061 -1.00048422813416 0.183300122618675
vertex -0.0292359590530396 -1.7188104391098 0.207208886742592
vertex 0.047017652541399 -1.00048422813416 0.183300122618675
endloop
endfacet
facet normal 4.33201898332309e-16 0.033265583217144 0.99944657087326
outer loop
vertex -0.0170176513493061 -1.00048422813416 0.183300122618675
vertex 0.047017652541399 -1.00048422813416 0.183300122618675
vertex -0.00853133480995893 -0.501565456390381 0.166694104671478
endloop
endfacet
facet normal 0 0.0332655794918537 0.99944657087326
outer loop
vertex 0.0385313332080841 -0.501565456390381 0.166694104671478
vertex -0.00853133480995893 -0.501565456390381 0.166694104671478
vertex 0.047017652541399 -1.00048422813416 0.183300122618675
endloop
endfacet
facet normal 0 0.0332655794918537 0.99944657087326
outer loop
vertex 0.0385313332080841 -0.501565456390381 0.166694104671478
vertex 0.0332663916051388 -0.192034319043159 0.15639166533947
vertex -0.00853133480995893 -0.501565456390381 0.166694104671478
endloop
endfacet
facet normal -5.82410537169637e-16 0.0332655794918537 0.999446511268616
outer loop
vertex -0.00326639134436846 -0.192034319043159 0.15639166533947
vertex -0.00853133480995893 -0.501565456390381 0.166694104671478
vertex 0.0332663916051388 -0.192034319043159 0.15639166533947
endloop
endfacet
facet normal -5.82410537169637e-16 0.0332655794918537 0.999446511268616
outer loop
vertex -0.00326639134436846 -0.192034319043159 0.15639166533947
vertex 0.0332663916051388 -0.192034319043159 0.15639166533947
vertex 0 0 0.150000005960464
endloop
endfacet
facet normal 0 0.0332655794918537 0.99944657087326
outer loop
vertex 0.0299999993294477 0 0.150000005960464
vertex 0 0 0.150000005960464
vertex 0.0332663916051388 -0.192034319043159 0.15639166533947
endloop
endfacet
facet normal -0.998976230621338 -0.0452376417815685 -0
outer loop
vertex 0.256188213825226 -4.99488115310669 0.174999997019768
vertex 0.208256155252457 -3.93640470504761 0.169702187180519
vertex 0.256188213825226 -4.99488115310669 -0.025000000372529
endloop
endfacet
facet normal -0.998976290225983 -0.0452376417815685 -1.82321644904781e-16
outer loop
vertex 0.208256155252457 -3.93640470504761 -0.0197021942585707
vertex 0.256188213825226 -4.99488115310669 -0.025000000372529
vertex 0.208256155252457 -3.93640470504761 0.169702187180519
endloop
endfacet
facet normal -0.998976230621338 -0.0452376417815685 -1.82321618435002e-16
outer loop
vertex 0.208256155252457 -3.93640470504761 0.169702187180519
vertex 0.15888674557209 -2.84618711471558 0.164245516061783
vertex 0.208256155252457 -3.93640470504761 -0.0197021942585707
endloop
endfacet
facet normal -0.998976230621338 -0.0452376417815685 5.86074404652765e-17
outer loop
vertex 0.15888674557209 -2.84618711471558 -0.0142455203458667
vertex 0.208256155252457 -3.93640470504761 -0.0197021942585707
vertex 0.15888674557209 -2.84618711471558 0.164245516061783
endloop
endfacet
facet normal -0.998976290225983 -0.0452376380562782 5.86074404652765e-17
outer loop
vertex 0.15888674557209 -2.84618711471558 -0.0142455203458667
vertex 0.15888674557209 -2.84618711471558 0.164245516061783
vertex 0.112028412520885 -1.81142151355743 -0.00906638894230127
endloop
endfacet
facet normal -0.998976230621338 -0.0452376380562782 1.99467338762662e-16
outer loop
vertex 0.112028412520885 -1.81142151355743 0.159066393971443
vertex 0.112028412520885 -1.81142151355743 -0.00906638894230127
vertex 0.15888674557209 -2.84618711471558 0.164245516061783
endloop
endfacet
facet normal -0.998976230621338 -0.0452376380562782 7.85952739683303e-17
outer loop
vertex 0.0681402757763863 -0.842246234416962 -0.00421554688364267
vertex 0.112028412520885 -1.81142151355743 -0.00906638894230127
vertex 0.0681402757763863 -0.842246234416962 0.154215544462204
endloop
endfacet
facet normal -0.998976230621338 -0.0452376380562782 1.99467325527772e-16
outer loop
vertex 0.112028412520885 -1.81142151355743 0.159066393971443
vertex 0.0681402757763863 -0.842246234416962 0.154215544462204
vertex 0.112028412520885 -1.81142151355743 -0.00906638894230127
endloop
endfacet
facet normal -0.998976230621338 -0.0452376380562782 7.85952739683303e-17
outer loop
vertex 0.0681402757763863 -0.842246234416962 -0.00421554688364267
vertex 0.0681402757763863 -0.842246234416962 0.154215544462204
vertex 0.0299999993294477 0 0
endloop
endfacet
facet normal -0.998976230621338 -0.0452376380562782 -0
outer loop
vertex 0.0299999993294477 0 0.150000005960464
vertex 0.0299999993294477 0 0
vertex 0.0681402757763863 -0.842246234416962 0.154215544462204
endloop
endfacet
facet normal 0.706660211086273 0.0355337001383305 0.706660211086273
outer loop
vertex 0.256409168243408 -4.9988112449646 0.174951076507568
vertex 0.213510543107986 -4.05166721343994 0.170223504304886
vertex 0.114940695464611 -4.99651145935059 0.316303879022598
endloop
endfacet
facet normal 0.706660211086273 0.0355337038636208 0.706660211086273
outer loop
vertex 0.0988471880555153 -4.04983472824097 0.284794688224792
vertex 0.114940695464611 -4.99651145935059 0.316303879022598
vertex 0.213510543107986 -4.05166721343994 0.170223504304886
endloop
endfacet
facet normal 0.706660211086273 0.0355337001383305 0.706660211086273
outer loop
vertex 0.213510543107986 -4.05166721343994 0.170223504304886
vertex 0.175797894597054 -3.21902251243591 0.166067436337471
vertex 0.0988471880555153 -4.04983472824097 0.284794688224792
endloop
endfacet
facet normal 0.706660211086273 0.0355337001383305 0.706660211086273
outer loop
vertex 0.0846980214118958 -3.21753072738647 0.257092297077179
vertex 0.0988471880555153 -4.04983472824097 0.284794688224792
vertex 0.175797894597054 -3.21902251243591 0.166067436337471
endloop
endfacet
facet normal 0.706660211086273 0.0355337001383305 0.706660211086273
outer loop
vertex 0.175797894597054 -3.21902251243591 0.166067436337471
vertex 0.139348417520523 -2.41426682472229 0.162050575017929
vertex 0.0846980214118958 -3.21753072738647 0.257092297077179
endloop
endfacet
facet normal 0.706660211086273 0.0355337038636208 0.706660211086273
outer loop
vertex 0.071023516356945 -2.41314792633057 0.23031921684742
vertex 0.0846980214118958 -3.21753072738647 0.257092297077179
vertex 0.139348417520523 -2.41426682472229 0.162050575017929
endloop
endfacet
facet normal 0.706660211086273 0.0355337038636208 0.706660211086273
outer loop
vertex 0.139348417520523 -2.41426682472229 0.162050575017929
vertex 0.102898947894573 -1.60951125621796 0.158033713698387
vertex 0.071023516356945 -2.41314792633057 0.23031921684742
endloop
endfacet
facet normal 0.706660211086273 0.0355337001383305 0.706660211086273
outer loop
vertex 0.0573490113019943 -1.60876536369324 0.203546151518822
vertex 0.071023516356945 -2.41314792633057 0.23031921684742
vertex 0.102898947894573 -1.60951125621796 0.158033713698387
endloop
endfacet
facet normal 0.706660211086273 0.0355337001383305 0.706660211086273
outer loop
vertex 0.0573490113019943 -1.60876536369324 0.203546151518822
vertex 0.102898947894573 -1.60951125621796 0.158033713698387
vertex 0.0664494708180428 -0.804755628108978 0.154016852378845
endloop
endfacet
facet normal 0.706660211086273 0.0355337001383305 0.706660211086273
outer loop
vertex 0.0436745062470436 -0.804382681846619 0.176773071289063
vertex 0.0573490113019943 -1.60876536369324 0.203546151518822
vertex 0.0664494708180428 -0.804755628108978 0.154016852378845
endloop
endfacet
facet normal 0.706660211086273 0.0355337001383305 0.706660211086273
outer loop
vertex 0.0436745062470436 -0.804382681846619 0.176773071289063
vertex 0.0664494708180428 -0.804755628108978 0.154016852378845
vertex 0.0299999993294477 0 0.150000005960464
endloop
endfacet
facet normal 0.70674455165863 0.0320042222738266 -0.70674455165863
outer loop
vertex 0.292601972818375 -5.79900169372559 -0.025000000372529
vertex 0.269869953393936 -5.80003356933594 -0.0477787777781487
vertex 0.256188213825226 -4.99488115310669 -0.025000000372529
endloop
endfacet
facet normal 0.70674455165863 0.0320042222738266 -0.70674455165863
outer loop
vertex 0.292601972818375 -5.79900169372559 -0.025000000372529
vertex 0.329015761613846 -6.60312175750732 -0.025000000372529
vertex 0.269869953393936 -5.80003356933594 -0.0477787777781487
endloop
endfacet
facet normal 0.70674455165863 0.0320042222738266 -0.70674455165863
outer loop
vertex 0.329015761613846 -6.60312175750732 -0.025000000372529
vertex 0.283551692962646 -6.60518598556519 -0.0705575570464134
vertex 0.269869953393936 -5.80003356933594 -0.0477787777781487
endloop
endfacet
facet normal 0.70674455165863 0.0320042222738266 -0.70674455165863
outer loop
vertex 0.329015761613846 -6.60312175750732 -0.025000000372529
vertex 0.365429550409317 -7.40724182128906 -0.025000000372529
vertex 0.283551692962646 -6.60518598556519 -0.0705575570464134
endloop
endfacet
facet normal 0.70674455165863 0.0320042185485363 -0.70674455165863
outer loop
vertex 0.297233432531357 -7.41033840179443 -0.0933363288640976
vertex 0.283551692962646 -6.60518598556519 -0.0705575570464134
vertex 0.365429550409317 -7.40724182128906 -0.025000000372529
endloop
endfacet
facet normal 0.70674455165863 0.0320042185485363 -0.70674455165863
outer loop
vertex 0.365429550409317 -7.40724182128906 -0.025000000372529
vertex 0.401843309402466 -8.2113618850708 -0.025000000372529
vertex 0.297233432531357 -7.41033840179443 -0.0933363288640976
endloop
endfacet
facet normal 0.70674455165863 0.0320042222738266 -0.70674455165863
outer loop
vertex 0.310915172100067 -8.21549034118652 -0.116115108132362
vertex 0.297233432531357 -7.41033840179443 -0.0933363288640976
vertex 0.401843309402466 -8.2113618850708 -0.025000000372529
endloop
endfacet
facet normal 0.70674455165863 0.0320042185485363 -0.70674455165863
outer loop
vertex 0.401843309402466 -8.2113618850708 -0.025000000372529
vertex 0.439521074295044 -9.04339408874512 -0.025000000372529
vertex 0.310915172100067 -8.21549034118652 -0.116115108132362
endloop
endfacet
facet normal 0.70674455165863 0.0320042185485363 -0.70674455165863
outer loop
vertex 0.325071066617966 -9.04854583740234 -0.139683291316032
vertex 0.310915172100067 -8.21549034118652 -0.116115108132362
vertex 0.439521074295044 -9.04339408874512 -0.025000000372529
endloop
endfacet
facet normal 0.70674455165863 0.0320042222738266 -0.70674455165863
outer loop
vertex 0.439521074295044 -9.04339408874512 -0.025000000372529
vertex 0.482376396656036 -9.98976230621338 -0.025000000372529
vertex 0.325071066617966 -9.04854583740234 -0.139683291316032
endloop
endfacet
facet normal 0.70674455165863 0.0320042185485363 -0.70674455165863
outer loop
vertex 0.341173559427261 -9.99615669250488 -0.166492402553558
vertex 0.325071066617966 -9.04854583740234 -0.139683291316032
vertex 0.482376396656036 -9.98976230621338 -0.025000000372529
endloop
endfacet
facet normal 0.138092458248138 0.693860650062561 -0.70674455165863
outer loop
vertex 9.1614933013916 -8.6414852142334 -0.251173555850983
vertex 9.12141704559326 -8.77733421325684 -0.392376393079758
vertex 8.23501110076904 -8.44069480895996 -0.235071048140526
endloop
endfacet
facet normal 0.138092458248138 0.693860650062561 -0.70674455165863
outer loop
vertex 8.20255947113037 -8.55081176757813 -0.349521070718765
vertex 8.23501110076904 -8.44069480895996 -0.235071048140526
vertex 9.12141704559326 -8.77733421325684 -0.392376393079758
endloop
endfacet
facet normal 0.138092458248138 0.693860650062561 -0.70674455165863
outer loop
vertex 8.23501110076904 -8.44069480895996 -0.235071048140526
vertex 8.20255947113037 -8.55081176757813 -0.349521070718765
vertex 7.42053127288818 -8.26417827606201 -0.220915168523788
endloop
endfacet
facet normal 0.138092458248138 0.693860650062561 -0.70674455165863
outer loop
vertex 7.39471340179443 -8.35165596008301 -0.311843305826187
vertex 7.42053127288818 -8.26417827606201 -0.220915168523788
vertex 8.20255947113037 -8.55081176757813 -0.349521070718765
endloop
endfacet
facet normal 0.138092458248138 0.693860650062561 -0.70674455165863
outer loop
vertex 7.42053127288818 -8.26417827606201 -0.220915168523788
vertex 7.39471340179443 -8.35165596008301 -0.311843305826187
vertex 6.63333129882813 -8.09357357025146 -0.207233428955078
endloop
endfacet
facet normal 0.138092458248138 0.693860650062561 -0.70674455165863
outer loop
vertex 6.61396837234497 -8.15918159484863 -0.275429546833038
vertex 6.63333129882813 -8.09357357025146 -0.207233428955078
vertex 7.39471340179443 -8.35165596008301 -0.311843305826187
endloop
endfacet
facet normal 0.138092458248138 0.693860650062561 -0.70674455165863
outer loop
vertex 6.63333129882813 -8.09357357025146 -0.207233428955078
vertex 6.61396837234497 -8.15918159484863 -0.275429546833038
vertex 5.84613180160522 -7.92296886444092 -0.193551689386368
endloop
endfacet
facet normal 0.138092458248138 0.693860650062561 -0.70674455165863
outer loop
vertex 5.83322286605835 -7.96670770645142 -0.239015758037567
vertex 5.84613180160522 -7.92296886444092 -0.193551689386368
vertex 6.61396837234497 -8.15918159484863 -0.275429546833038
endloop
endfacet
facet normal 0.138092458248138 0.693860650062561 -0.70674455165863
outer loop
vertex 5.83322286605835 -7.96670770645142 -0.239015758037567
vertex 5.05893230438232 -7.75236415863037 -0.179869949817657
vertex 5.84613180160522 -7.92296886444092 -0.193551689386368
endloop
endfacet
facet normal 0.138092458248138 0.693860650062561 -0.70674455165863
outer loop
vertex 5.05247783660889 -7.7742338180542 -0.202601984143257
vertex 5.05893230438232 -7.75236415863037 -0.179869949817657
vertex 5.83322286605835 -7.96670770645142 -0.239015758037567
endloop
endfacet
facet normal 0.138092458248138 0.693860650062561 -0.70674455165863
outer loop
vertex 5.05247783660889 -7.7742338180542 -0.202601984143257
vertex 4.27173280715942 -7.58175945281982 -0.166188210248947
vertex 5.05893230438232 -7.75236415863037 -0.179869949817657
endloop
endfacet
endsolid COMSOL mesh mesh1
