solid COMSOL mesh mesh1
facet normal -0.707100331783295 -0.00417147483676672 0.707100868225098
outer loop
vertex -0.061100646853447 -10.4205121994019 0.0923178866505623
vertex -0.0599999986588955 -10.999981880188 0.0900000035762787
vertex -0.0553641021251678 -10.420524597168 0.0980543494224548
endloop
endfacet
facet normal -0.707100331783295 -0.00417147483676672 0.707100868225098
outer loop
vertex -0.0553641021251678 -10.420524597168 0.0980543494224548
vertex -0.0507282018661499 -9.84106731414795 0.106108702719212
vertex -0.061100646853447 -10.4205121994019 0.0923178866505623
endloop
endfacet
facet normal -0.707100331783295 -0.00417147483676672 0.707100868225098
outer loop
vertex -0.0622012913227081 -9.84104251861572 0.0946357697248459
vertex -0.061100646853447 -10.4205121994019 0.0923178866505623
vertex -0.0507282018661499 -9.84106731414795 0.106108702719212
endloop
endfacet
facet normal -0.707100391387939 -0.00417147530242801 0.707100868225098
outer loop
vertex -0.0633019357919693 -9.26157188415527 0.0969536527991295
vertex -0.0622012913227081 -9.84104251861572 0.0946357697248459
vertex -0.0460923053324223 -9.26161003112793 0.114163048565388
endloop
endfacet
facet normal -0.707100331783295 -0.00417147483676672 0.707100868225098
outer loop
vertex -0.0507282018661499 -9.84106731414795 0.106108702719212
vertex -0.0460923053324223 -9.26161003112793 0.114163048565388
vertex -0.0622012913227081 -9.84104251861572 0.0946357697248459
endloop
endfacet
facet normal -0.707100391387939 -0.00417147530242801 0.707100868225098
outer loop
vertex -0.0633019357919693 -9.26157188415527 0.0969536527991295
vertex -0.0460923053324223 -9.26161003112793 0.114163048565388
vertex -0.0644025802612305 -8.68210220336914 0.0992715358734131
endloop
endfacet
facet normal -0.707100331783295 -0.00417147483676672 0.707100868225098
outer loop
vertex -0.0414564050734043 -8.68215179443359 0.122217401862144
vertex -0.0644025802612305 -8.68210220336914 0.0992715358734131
vertex -0.0460923053324223 -9.26161003112793 0.114163048565388
endloop
endfacet
facet normal -0.707100331783295 -0.00417147483676672 0.707100868225098
outer loop
vertex -0.0644025802612305 -8.68210220336914 0.0992715358734131
vertex -0.0414564050734043 -8.68215179443359 0.122217401862144
vertex -0.0655032247304916 -8.10263252258301 0.101589418947697
endloop
endfacet
facet normal -0.707100391387939 -0.00417147530242801 0.707100987434387
outer loop
vertex -0.0368205085396767 -8.10269451141357 0.130271747708321
vertex -0.0655032247304916 -8.10263252258301 0.101589418947697
vertex -0.0414564050734043 -8.68215179443359 0.122217401862144
endloop
endfacet
facet normal -0.707100391387939 -0.00417147530242801 0.707100987434387
outer loop
vertex -0.0655032247304916 -8.10263252258301 0.101589418947697
vertex -0.0368205085396767 -8.10269451141357 0.130271747708321
vertex -0.0666038691997528 -7.52316236495972 0.10390730202198
endloop
endfacet
facet normal -0.707100391387939 -0.00417147530242801 0.707100868225098
outer loop
vertex -0.0321846082806587 -7.52323722839355 0.138326093554497
vertex -0.0666038691997528 -7.52316236495972 0.10390730202198
vertex -0.0368205085396767 -8.10269451141357 0.130271747708321
endloop
endfacet
facet normal -0.707100391387939 -0.00417147530242801 0.707100868225098
outer loop
vertex -0.0666038691997528 -7.52316236495972 0.10390730202198
vertex -0.0321846082806587 -7.52323722839355 0.138326093554497
vertex -0.067704513669014 -6.94369220733643 0.106225185096264
endloop
endfacet
facet normal -0.707100391387939 -0.00417147530242801 0.707100868225098
outer loop
vertex -0.0275487098842859 -6.94377994537354 0.146380454301834
vertex -0.067704513669014 -6.94369220733643 0.106225185096264
vertex -0.0321846082806587 -7.52323722839355 0.138326093554497
endloop
endfacet
facet normal -0.707100331783295 -0.00417147530242801 0.707100927829742
outer loop
vertex -0.067704513669014 -6.94369220733643 0.106225185096264
vertex -0.0275487098842859 -6.94377994537354 0.146380454301834
vertex -0.0687311291694641 -6.40320062637329 0.108387157320976
endloop
endfacet
facet normal -0.707100331783295 -0.00417147483676672 0.707100868225098
outer loop
vertex -0.0232245903462172 -6.40329265594482 0.153893113136292
vertex -0.0687311291694641 -6.40320062637329 0.108387157320976
vertex -0.0275487098842859 -6.94377994537354 0.146380454301834
endloop
endfacet
facet normal -0.707100331783295 -0.00417147483676672 0.707100868225098
outer loop
vertex -0.0687311291694641 -6.40320062637329 0.108387157320976
vertex -0.0232245903462172 -6.40329265594482 0.153893113136292
vertex -0.0694969072937965 -6.00003099441528 0.109999842941761
endloop
endfacet
facet normal -0.707100391387939 -0.00417147483676672 0.707100868225098
outer loop
vertex -0.019999161362648 -6.00013494491577 0.159496933221817
vertex -0.0694969072937965 -6.00003099441528 0.109999842941761
vertex -0.0232245903462172 -6.40329265594482 0.153893113136292
endloop
endfacet
facet normal -1 -2.77555756156289e-17 0
outer loop
vertex -0.0694969967007637 -5.5 0.0399999991059303
vertex -0.0694969967007637 -6 0.0399999991059303
vertex -0.0694969967007637 -5.5 0.109999999403954
endloop
endfacet
facet normal -1 -2.77555756156289e-17 -0
outer loop
vertex -0.0694969967007637 -6 0.109999999403954
vertex -0.0694969967007637 -5.5 0.109999999403954
vertex -0.0694969967007637 -6 0.0399999991059303
endloop
endfacet
facet normal -1 2.77555756156289e-17 0
outer loop
vertex -0.0694969967007637 -5 0.0399999991059303
vertex -0.0694969967007637 -5.5 0.0399999991059303
vertex -0.0694969967007637 -5 0.109999999403954
endloop
endfacet
facet normal -1 2.77555756156289e-17 0
outer loop
vertex -0.0694969967007637 -5.5 0.109999999403954
vertex -0.0694969967007637 -5 0.109999999403954
vertex -0.0694969967007637 -5.5 0.0399999991059303
endloop
endfacet
facet normal -0.70710676908493 -4.90653884941496e-18 -0.70710676908493
outer loop
vertex -0.0199999995529652 -5.5 -0.00949699990451336
vertex -0.0199999995529652 -6 -0.00949699990451336
vertex -0.0694969967007637 -5.5 0.0399999991059303
endloop
endfacet
facet normal -0.70710676908493 -9.81307769882992e-18 -0.70710676908493
outer loop
vertex -0.0694969967007637 -6 0.0399999991059303
vertex -0.0694969967007637 -5.5 0.0399999991059303
vertex -0.0199999995529652 -6 -0.00949699990451336
endloop
endfacet
facet normal -0.70710676908493 9.81307769882992e-18 -0.70710676908493
outer loop
vertex -0.0694969967007637 -5.5 0.0399999991059303
vertex -0.0694969967007637 -5 0.0399999991059303
vertex -0.0199999995529652 -5.5 -0.00949699990451336
endloop
endfacet
facet normal -0.70710676908493 4.90653884941496e-18 -0.70710676908493
outer loop
vertex -0.0199999995529652 -5 -0.00949699990451336
vertex -0.0199999995529652 -5.5 -0.00949699990451336
vertex -0.0694969967007637 -5 0.0399999991059303
endloop
endfacet
facet normal -0.70710676908493 -3.92523107953197e-17 0.70710676908493
outer loop
vertex -0.0694969967007637 -6 0.109999999403954
vertex -0.0199999995529652 -6 0.159496992826462
vertex -0.0694969967007637 -5.5 0.109999999403954
endloop
endfacet
facet normal -0.70710676908493 -4.90653884941496e-18 0.70710676908493
outer loop
vertex -0.0199999995529652 -5.5 0.159496992826462
vertex -0.0694969967007637 -5.5 0.109999999403954
vertex -0.0199999995529652 -6 0.159496992826462
endloop
endfacet
facet normal -0.70710676908493 4.90653884941496e-18 0.70710676908493
outer loop
vertex -0.0199999995529652 -5.5 0.159496992826462
vertex -0.0199999995529652 -5 0.159496992826462
vertex -0.0694969967007637 -5.5 0.109999999403954
endloop
endfacet
facet normal -0.70710676908493 3.92523107953197e-17 0.70710676908493
outer loop
vertex -0.0694969967007637 -5 0.109999999403954
vertex -0.0694969967007637 -5.5 0.109999999403954
vertex -0.0199999995529652 -5 0.159496992826462
endloop
endfacet
facet normal 0 0 -1
outer loop
vertex -0.0199999995529652 -5.5 -0.00949699990451336
vertex -0.0199999995529652 -5 -0.00949699990451336
vertex 0.0500000007450581 -5.5 -0.00949699990451336
endloop
endfacet
facet normal 0 0 -1
outer loop
vertex 0.0500000007450581 -6 -0.00949699990451336
vertex -0.0199999995529652 -6 -0.00949699990451336
vertex 0.0500000007450581 -5.5 -0.00949699990451336
endloop
endfacet
facet normal 0 0 -1
outer loop
vertex -0.0199999995529652 -5.5 -0.00949699990451336
vertex 0.0500000007450581 -5.5 -0.00949699990451336
vertex -0.0199999995529652 -6 -0.00949699990451336
endloop
endfacet
facet normal -0 -0 -1
outer loop
vertex 0.0500000007450581 -5 -0.00949699990451336
vertex 0.0500000007450581 -5.5 -0.00949699990451336
vertex -0.0199999995529652 -5 -0.00949699990451336
endloop
endfacet
facet normal 0 -0 1
outer loop
vertex -0.0199999995529652 -6 0.159496992826462
vertex 0.0500000007450581 -6 0.159496992826462
vertex -0.0199999995529652 -5.5 0.159496992826462
endloop
endfacet
facet normal 0 0 1
outer loop
vertex 0.0500000007450581 -5.5 0.159496992826462
vertex -0.0199999995529652 -5.5 0.159496992826462
vertex 0.0500000007450581 -6 0.159496992826462
endloop
endfacet
facet normal 0 0 1
outer loop
vertex -0.0199999995529652 -5.5 0.159496992826462
vertex 0.0500000007450581 -5.5 0.159496992826462
vertex -0.0199999995529652 -5 0.159496992826462
endloop
endfacet
facet normal 0 0 1
outer loop
vertex 0.0500000007450581 -5 0.159496992826462
vertex -0.0199999995529652 -5 0.159496992826462
vertex 0.0500000007450581 -5.5 0.159496992826462
endloop
endfacet
facet normal 0.70710676908493 -9.81307769882992e-18 -0.70710676908493
outer loop
vertex 0.0500000007450581 -6 -0.00949699990451336
vertex 0.0500000007450581 -5.5 -0.00949699990451336
vertex 0.0994969978928566 -6 0.0399999991059303
endloop
endfacet
facet normal 0.70710676908493 2.94392322693091e-17 -0.70710676908493
outer loop
vertex 0.0994969978928566 -5.5 0.0399999991059303
vertex 0.0994969978928566 -6 0.0399999991059303
vertex 0.0500000007450581 -5.5 -0.00949699990451336
endloop
endfacet
facet normal 0.70710676908493 9.81307769882992e-18 -0.70710676908493
outer loop
vertex 0.0500000007450581 -5 -0.00949699990451336
vertex 0.0994969978928566 -5 0.0399999991059303
vertex 0.0500000007450581 -5.5 -0.00949699990451336
endloop
endfacet
facet normal 0.70710676908493 -2.94392322693091e-17 -0.70710676908493
outer loop
vertex 0.0994969978928566 -5.5 0.0399999991059303
vertex 0.0500000007450581 -5.5 -0.00949699990451336
vertex 0.0994969978928566 -5 0.0399999991059303
endloop
endfacet
facet normal 0.70710676908493 0 0.70710676908493
outer loop
vertex 0.0994969978928566 -6 0.109999999403954
vertex 0.0994969978928566 -5.5 0.109999999403954
vertex 0.0500000007450581 -6 0.159496992826462
endloop
endfacet
facet normal 0.70710676908493 -9.81307769882992e-18 0.70710676908493
outer loop
vertex 0.0500000007450581 -5.5 0.159496992826462
vertex 0.0500000007450581 -6 0.159496992826462
vertex 0.0994969978928566 -5.5 0.109999999403954
endloop
endfacet
facet normal 0.70710676908493 0 0.70710676908493
outer loop
vertex 0.0994969978928566 -5 0.109999999403954
vertex 0.0500000007450581 -5 0.159496992826462
vertex 0.0994969978928566 -5.5 0.109999999403954
endloop
endfacet
facet normal 0.70710676908493 9.81307769882992e-18 0.70710676908493
outer loop
vertex 0.0500000007450581 -5.5 0.159496992826462
vertex 0.0994969978928566 -5.5 0.109999999403954
vertex 0.0500000007450581 -5 0.159496992826462
endloop
endfacet
facet normal 1 2.77555756156289e-17 -0
outer loop
vertex 0.0994969978928566 -5.5 0.0399999991059303
vertex 0.0994969978928566 -5.5 0.109999999403954
vertex 0.0994969978928566 -6 0.0399999991059303
endloop
endfacet
facet normal 1 2.77555756156289e-17 0
outer loop
vertex 0.0994969978928566 -6 0.109999999403954
vertex 0.0994969978928566 -6 0.0399999991059303
vertex 0.0994969978928566 -5.5 0.109999999403954
endloop
endfacet
facet normal 1 -2.77555756156289e-17 0
outer loop
vertex 0.0994969978928566 -5.5 0.0399999991059303
vertex 0.0994969978928566 -5 0.0399999991059303
vertex 0.0994969978928566 -5.5 0.109999999403954
endloop
endfacet
facet normal 1 -2.77555756156289e-17 0
outer loop
vertex 0.0994969978928566 -5 0.109999999403954
vertex 0.0994969978928566 -5.5 0.109999999403954
vertex 0.0994969978928566 -5 0.0399999991059303
endloop
endfacet
facet normal -0.999998211860657 -0.00189939653500915 0
outer loop
vertex -0.0694969817996025 -5.99999094009399 0.0399999991059303
vertex -0.0687246471643448 -6.40661001205444 0.0416264794766903
vertex -0.0694969817996025 -5.99999094009399 0.109999999403954
endloop
endfacet
facet normal -0.999998152256012 -0.00189939641859382 -0
outer loop
vertex -0.0687246471643448 -6.40661001205444 0.108373522758484
vertex -0.0694969817996025 -5.99999094009399 0.109999999403954
vertex -0.0687246471643448 -6.40661001205444 0.0416264794766903
endloop
endfacet
facet normal -0.999998152256012 -0.00189939653500915 -0
outer loop
vertex -0.0687246471643448 -6.40661001205444 0.108373522758484
vertex -0.0687246471643448 -6.40661001205444 0.0416264794766903
vertex -0.0676913037896156 -6.95064783096313 0.106197364628315
endloop
endfacet
facet normal -0.999998152256012 -0.0018993963021785 -1.95381212120438e-16
outer loop
vertex -0.0676913037896156 -6.95064783096313 0.0438026338815689
vertex -0.0676913037896156 -6.95064783096313 0.106197364628315
vertex -0.0687246471643448 -6.40661001205444 0.0416264794766903
endloop
endfacet
facet normal -0.999998152256012 -0.00189939653500915 -1.95381225355328e-16
outer loop
vertex -0.0676913037896156 -6.95064783096313 0.0438026338815689
vertex -0.0665707066655159 -7.54062223434448 0.0461625345051289
vertex -0.0676913037896156 -6.95064783096313 0.106197364628315
endloop
endfacet
facet normal -0.999998152256012 -0.0018993963021785 2.92501917208387e-17
outer loop
vertex -0.0665707066655159 -7.54062223434448 0.103837467730045
vertex -0.0676913037896156 -6.95064783096313 0.106197364628315
vertex -0.0665707066655159 -7.54062223434448 0.0461625345051289
endloop
endfacet
facet normal -0.999998152256012 -0.0018993963021785 2.92501917208387e-17
outer loop
vertex -0.0665707066655159 -7.54062223434448 0.0461625345051289
vertex -0.0654501095414162 -8.13059616088867 0.0485224351286888
vertex -0.0665707066655159 -7.54062223434448 0.103837467730045
endloop
endfacet
facet normal -0.999998211860657 -0.00189939665142447 -1.98352034599144e-16
outer loop
vertex -0.0654501095414162 -8.13059616088867 0.101477563381195
vertex -0.0665707066655159 -7.54062223434448 0.103837467730045
vertex -0.0654501095414162 -8.13059616088867 0.0485224351286888
endloop
endfacet
facet normal -0.999998211860657 -0.00189939665142447 -1.98352034599144e-16
outer loop
vertex -0.0654501095414162 -8.13059616088867 0.101477563381195
vertex -0.0654501095414162 -8.13059616088867 0.0485224351286888
vertex -0.0643295124173164 -8.72057056427002 0.0991176590323448
endloop
endfacet
facet normal -0.999998211860657 -0.00189939653500915 0
outer loop
vertex -0.0643295124173164 -8.72057056427002 0.0508823394775391
vertex -0.0643295124173164 -8.72057056427002 0.0991176590323448
vertex -0.0654501095414162 -8.13059616088867 0.0485224351286888
endloop
endfacet
facet normal -0.999998211860657 -0.00189939653500915 0
outer loop
vertex -0.0643295124173164 -8.72057056427002 0.0508823394775391
vertex -0.0632089152932167 -9.31054496765137 0.053242240101099
vertex -0.0643295124173164 -8.72057056427002 0.0991176590323448
endloop
endfacet
facet normal -0.999998211860657 -0.00189939653500915 -0
outer loop
vertex -0.0632089152932167 -9.31054496765137 0.0967577621340752
vertex -0.0643295124173164 -8.72057056427002 0.0991176590323448
vertex -0.0632089152932167 -9.31054496765137 0.053242240101099
endloop
endfacet
facet normal -0.999998211860657 -0.00189939653500915 0
outer loop
vertex -0.0632089152932167 -9.31054496765137 0.053242240101099
vertex -0.062088318169117 -9.90051937103271 0.055602140724659
vertex -0.0632089152932167 -9.31054496765137 0.0967577621340752
endloop
endfacet
facet normal -0.999998211860657 -0.00189939676783979 1.78856883103817e-16
outer loop
vertex -0.062088318169117 -9.90051937103271 0.0943978577852249
vertex -0.0632089152932167 -9.31054496765137 0.0967577621340752
vertex -0.062088318169117 -9.90051937103271 0.055602140724659
endloop
endfacet
facet normal -0.999998152256012 -0.00189939653500915 1.78856883103817e-16
outer loop
vertex -0.062088318169117 -9.90051937103271 0.0943978577852249
vertex -0.062088318169117 -9.90051937103271 0.055602140724659
vertex -0.0610364824533463 -10.454291343689 0.0921827629208565
endloop
endfacet
facet normal -0.999998152256012 -0.00189939641859382 3.00093926454187e-16
outer loop
vertex -0.0610364824533463 -10.454291343689 0.0578172355890274
vertex -0.0610364824533463 -10.454291343689 0.0921827629208565
vertex -0.062088318169117 -9.90051937103271 0.055602140724659
endloop
endfacet
facet normal -0.999998211860657 -0.00189939665142447 3.00093952923966e-16
outer loop
vertex -0.0610364824533463 -10.454291343689 0.0578172355890274
vertex -0.0603793226182461 -10.8002758026123 0.0592011734843254
vertex -0.0610364824533463 -10.454291343689 0.0921827629208565
endloop
endfacet
facet normal -0.999998211860657 -0.00189939676783979 -6.52762923246652e-16
outer loop
vertex -0.0603793226182461 -10.8002758026123 0.0907988250255585
vertex -0.0610364824533463 -10.454291343689 0.0921827629208565
vertex -0.0603793226182461 -10.8002758026123 0.0592011734843254
endloop
endfacet
facet normal -0.999998211860657 -0.00189939653500915 -6.52762870307093e-16
outer loop
vertex -0.0603793226182461 -10.8002758026123 0.0592011734843254
vertex -0.0599999986588955 -10.999981880188 0.0599999986588955
vertex -0.0603793226182461 -10.8002758026123 0.0907988250255585
endloop
endfacet
facet normal -0.999998211860657 -0.00189939665142447 -0
outer loop
vertex -0.0599999986588955 -10.999981880188 0.0900000035762787
vertex -0.0603793226182461 -10.8002758026123 0.0907988250255585
vertex -0.0599999986588955 -10.999981880188 0.0599999986588955
endloop
endfacet
facet normal -0.707100629806519 -0.00417146924883127 -0.707100629806519
outer loop
vertex -0.0694994032382965 -5.99954080581665 0.0399998053908348
vertex -0.0200051423162222 -6.00062465667725 -0.0094880647957325
vertex -0.0687334388494492 -6.40274381637573 0.0416124910116196
endloop
endfacet
facet normal -0.707100570201874 -0.00417146924883127 -0.707100570201874
outer loop
vertex -0.0232300981879234 -6.40374422073364 -0.00388494692742825
vertex -0.0687334388494492 -6.40274381637573 0.0416124910116196
vertex -0.0200051423162222 -6.00062465667725 -0.0094880647957325
endloop
endfacet
facet normal -0.707100629806519 -0.00417146971449256 -0.707100629806519
outer loop
vertex -0.0687334388494492 -6.40274381637573 0.0416124910116196
vertex -0.0232300981879234 -6.40374422073364 -0.00388494692742825
vertex -0.0677065476775169 -6.94329452514648 0.0437745228409767
endloop
endfacet
facet normal -0.707100629806519 -0.00417146924883127 -0.707100629806519
outer loop
vertex -0.0275535117834806 -6.94417095184326 0.00362665997818112
vertex -0.0677065476775169 -6.94329452514648 0.0437745228409767
vertex -0.0232300981879234 -6.40374422073364 -0.00388494692742825
endloop
endfacet
facet normal -0.707100629806519 -0.00417146924883127 -0.707100629806519
outer loop
vertex -0.0677065476775169 -6.94329452514648 0.0437745228409767
vertex -0.0275535117834806 -6.94417095184326 0.00362665997818112
vertex -0.0666056126356125 -7.5228214263916 0.0460924506187439
endloop
endfacet
facet normal -0.707100629806519 -0.00417146971449256 -0.707100629806519
outer loop
vertex -0.0321887247264385 -7.52357244491577 0.01167999394238
vertex -0.0666056126356125 -7.5228214263916 0.0460924506187439
vertex -0.0275535117834806 -6.94417095184326 0.00362665997818112
endloop
endfacet
facet normal -0.707100629806519 -0.00417146971449256 -0.707100629806519
outer loop
vertex -0.0666056126356125 -7.5228214263916 0.0460924506187439
vertex -0.0321887247264385 -7.52357244491577 0.01167999394238
vertex -0.065504677593708 -8.10234832763672 0.0484103746712208
endloop
endfacet
facet normal -0.707100629806519 -0.00417146971449256 -0.707100629806519
outer loop
vertex -0.0368239358067513 -8.10297393798828 0.0197333283722401
vertex -0.065504677593708 -8.10234832763672 0.0484103746712208
vertex -0.0321887247264385 -7.52357244491577 0.01167999394238
endloop
endfacet
facet normal -0.707100629806519 -0.00417146971449256 -0.707100629806519
outer loop
vertex -0.065504677593708 -8.10234832763672 0.0484103746712208
vertex -0.0368239358067513 -8.10297393798828 0.0197333283722401
vertex -0.0644037425518036 -8.68187522888184 0.0507282987236977
endloop
endfacet
facet normal -0.707100629806519 -0.00417146971449256 -0.707100629806519
outer loop
vertex -0.0414591506123543 -8.68237590789795 0.0277866628021002
vertex -0.0644037425518036 -8.68187522888184 0.0507282987236977
vertex -0.0368239358067513 -8.10297393798828 0.0197333283722401
endloop
endfacet
facet normal -0.707100629806519 -0.00417146971449256 -0.707100629806519
outer loop
vertex -0.0414591506123543 -8.68237590789795 0.0277866628021002
vertex -0.046094361692667 -9.2617769241333 0.0358399972319603
vertex -0.0644037425518036 -8.68187522888184 0.0507282987236977
endloop
endfacet
facet normal -0.707100629806519 -0.00417146971449256 -0.707100629806519
outer loop
vertex -0.0633028075098991 -9.26140213012695 0.0530462227761745
vertex -0.0644037425518036 -8.68187522888184 0.0507282987236977
vertex -0.046094361692667 -9.2617769241333 0.0358399972319603
endloop
endfacet
facet normal -0.707100629806519 -0.00417146971449256 -0.707100629806519
outer loop
vertex -0.046094361692667 -9.2617769241333 0.0358399972319603
vertex -0.05072957649827 -9.84117889404297 0.0438933297991753
vertex -0.0633028075098991 -9.26140213012695 0.0530462227761745
endloop
endfacet
facet normal -0.707100629806519 -0.00417146971449256 -0.707100629806519
outer loop
vertex -0.0622018687427044 -9.84092807769775 0.0553641505539417
vertex -0.0633028075098991 -9.26140213012695 0.0530462227761745
vertex -0.05072957649827 -9.84117889404297 0.0438933297991753
endloop
endfacet
facet normal -0.707100629806519 -0.00417146971449256 -0.707100629806519
outer loop
vertex -0.05072957649827 -9.84117889404297 0.0438933297991753
vertex -0.0553647875785828 -10.4205799102783 0.0519466660916805
vertex -0.0622018687427044 -9.84092807769775 0.0553641505539417
endloop
endfacet
facet normal -0.707100629806519 -0.00417146971449256 -0.707100629806519
outer loop
vertex -0.0611009337007999 -10.4204549789429 0.0576820746064186
vertex -0.0622018687427044 -9.84092807769775 0.0553641505539417
vertex -0.0553647875785828 -10.4205799102783 0.0519466660916805
endloop
endfacet
facet normal -0.707100629806519 -0.00417146971449256 -0.707100629806519
outer loop
vertex -0.0553647875785828 -10.4205799102783 0.0519466660916805
vertex -0.0599999986588955 -10.999981880188 0.0599999986588955
vertex -0.0611009337007999 -10.4204549789429 0.0576820746064186
endloop
endfacet
facet normal -0.707100868225098 0.00417147483676672 -0.707100331783295
outer loop
vertex -0.00231788400560617 -0.579469919204712 -0.0011006451677531
vertex -0.00805434957146645 -0.579457461833954 0.0046358983963728
vertex 0 0 0
endloop
endfacet
facet normal -0.707100868225098 0.00417147483676672 -0.707100331783295
outer loop
vertex -0.00463576801121235 -1.15893983840942 -0.0022012903355062
vertex -0.0161086991429329 -1.15891492366791 0.00927179679274559
vertex -0.00231788400560617 -0.579469919204712 -0.0011006451677531
endloop
endfacet
facet normal -0.707100868225098 0.00417147483676672 -0.707100331783295
outer loop
vertex -0.00805434957146645 -0.579457461833954 0.0046358983963728
vertex -0.00231788400560617 -0.579469919204712 -0.0011006451677531
vertex -0.0161086991429329 -1.15891492366791 0.00927179679274559
endloop
endfacet
facet normal -0.707100868225098 0.00417147483676672 -0.707100331783295
outer loop
vertex -0.00463576801121235 -1.15893983840942 -0.0022012903355062
vertex -0.00695365155115724 -1.73840975761414 -0.0033019355032593
vertex -0.0161086991429329 -1.15891492366791 0.00927179679274559
endloop
endfacet
facet normal -0.707100868225098 0.00417147530242801 -0.707100391387939
outer loop
vertex -0.0241630487143993 -1.73837232589722 0.013907696120441
vertex -0.0161086991429329 -1.15891492366791 0.00927179679274559
vertex -0.00695365155115724 -1.73840975761414 -0.0033019355032593
endloop
endfacet
facet normal -0.707100868225098 0.00417147483676672 -0.707100331783295
outer loop
vertex -0.0092715360224247 -2.31787967681885 -0.0044025806710124
vertex -0.0322173982858658 -2.31782984733582 0.0185435935854912
vertex -0.00695365155115724 -1.73840975761414 -0.0033019355032593
endloop
endfacet
facet normal -0.707100868225098 0.00417147530242801 -0.707100391387939
outer loop
vertex -0.0241630487143993 -1.73837232589722 0.013907696120441
vertex -0.00695365155115724 -1.73840975761414 -0.0033019355032593
vertex -0.0322173982858658 -2.31782984733582 0.0185435935854912
endloop
endfacet
facet normal -0.707100868225098 0.00417147483676672 -0.707100331783295
outer loop
vertex -0.0092715360224247 -2.31787967681885 -0.0044025806710124
vertex -0.0115894190967083 -2.89734959602356 -0.00550322607159615
vertex -0.0322173982858658 -2.31782984733582 0.0185435935854912
endloop
endfacet
facet normal -0.707100987434387 0.00417147530242801 -0.707100391387939
outer loop
vertex -0.0402717478573322 -2.89728736877441 0.023179491981864
vertex -0.0322173982858658 -2.31782984733582 0.0185435935854912
vertex -0.0115894190967083 -2.89734959602356 -0.00550322607159615
endloop
endfacet
facet normal -0.707100987434387 0.00417147530242801 -0.707100391387939
outer loop
vertex -0.0115894190967083 -2.89734959602356 -0.00550322607159615
vertex -0.0139073031023145 -3.47681951522827 -0.0066038710065186
vertex -0.0402717478573322 -2.89728736877441 0.023179491981864
endloop
endfacet
facet normal -0.707100868225098 0.00417147530242801 -0.707100391387939
outer loop
vertex -0.0483260974287987 -3.47674465179443 0.0278153922408819
vertex -0.0402717478573322 -2.89728736877441 0.023179491981864
vertex -0.0139073031023145 -3.47681951522827 -0.0066038710065186
endloop
endfacet
facet normal -0.707100868225098 0.00417147530242801 -0.707100391387939
outer loop
vertex -0.0139073031023145 -3.47681951522827 -0.0066038710065186
vertex -0.0162251871079206 -4.05628967285156 -0.00770451640710235
vertex -0.0483260974287987 -3.47674465179443 0.0278153922408819
endloop
endfacet
facet normal -0.707100868225098 0.00417147530242801 -0.707100391387939
outer loop
vertex -0.0563804507255554 -4.05620193481445 0.0324512906372547
vertex -0.0483260974287987 -3.47674465179443 0.0278153922408819
vertex -0.0162251871079206 -4.05628967285156 -0.00770451640710235
endloop
endfacet
facet normal -0.707100927829742 0.00417147530242801 -0.707100331783295
outer loop
vertex -0.0162251871079206 -4.05628967285156 -0.00770451640710235
vertex -0.0183871574699879 -4.5967812538147 -0.00873112585395575
vertex -0.0563804507255554 -4.05620193481445 0.0324512906372547
endloop
endfacet
facet normal -0.707100868225098 0.00417147483676672 -0.707100331783295
outer loop
vertex -0.0638931170105934 -4.59668922424316 0.0367754101753235
vertex -0.0563804507255554 -4.05620193481445 0.0324512906372547
vertex -0.0183871574699879 -4.5967812538147 -0.00873112585395575
endloop
endfacet
facet normal -0.707100868225098 0.00417147483676672 -0.707100331783295
outer loop
vertex -0.0183871574699879 -4.5967812538147 -0.00873112585395575
vertex -0.0199998393654823 -4.99995088577271 -0.0094969067722559
vertex -0.0638931170105934 -4.59668922424316 0.0367754101753235
endloop
endfacet
facet normal -0.707100868225098 0.00417147483676672 -0.707100391387939
outer loop
vertex -0.0694969370961189 -4.99984693527222 0.0400008372962475
vertex -0.0638931170105934 -4.59668922424316 0.0367754101753235
vertex -0.0199998393654823 -4.99995088577271 -0.0094969067722559
endloop
endfacet
facet normal 0.707113742828369 -0.00417150231078267 -0.707087516784668
outer loop
vertex -0.00231788586825132 -0.57947039604187 0.151100650429726
vertex -0.00805419683456421 -0.579457938671112 0.145364046096802
vertex 0 0 0.150000005960464
endloop
endfacet
facet normal 0.707113742828369 -0.00417150231078267 -0.707087516784668
outer loop
vertex -0.00463577173650265 -1.15894079208374 0.152201294898987
vertex -0.0161083936691284 -1.15891587734222 0.1407281011343
vertex -0.00231788586825132 -0.57947039604187 0.151100650429726
endloop
endfacet
facet normal 0.707113742828369 -0.00417150231078267 -0.707087516784668
outer loop
vertex -0.00805419683456421 -0.579457938671112 0.145364046096802
vertex -0.00231788586825132 -0.57947039604187 0.151100650429726
vertex -0.0161083936691284 -1.15891587734222 0.1407281011343
endloop
endfacet
facet normal 0.707113742828369 -0.00417150231078267 -0.707087516784668
outer loop
vertex -0.00463577173650265 -1.15894079208374 0.152201294898987
vertex -0.00695365713909268 -1.73841118812561 0.153301939368248
vertex -0.0161083936691284 -1.15891587734222 0.1407281011343
endloop
endfacet
facet normal 0.707113742828369 -0.00417150184512138 -0.707087457180023
outer loop
vertex -0.0241625905036926 -1.73837375640869 0.136092141270638
vertex -0.0161083936691284 -1.15891587734222 0.1407281011343
vertex -0.00695365713909268 -1.73841118812561 0.153301939368248
endloop
endfacet
facet normal 0.707113742828369 -0.00417150231078267 -0.707087516784668
outer loop
vertex -0.00927154347300529 -2.31788158416748 0.154402583837509
vertex -0.0322167873382568 -2.31783175468445 0.131456196308136
vertex -0.00695365713909268 -1.73841118812561 0.153301939368248
endloop
endfacet
facet normal 0.707113742828369 -0.00417150184512138 -0.707087457180023
outer loop
vertex -0.0241625905036926 -1.73837375640869 0.136092141270638
vertex -0.00695365713909268 -1.73841118812561 0.153301939368248
vertex -0.0322167873382568 -2.31783175468445 0.131456196308136
endloop
endfacet
facet normal 0.707113742828369 -0.00417150231078267 -0.707087516784668
outer loop
vertex -0.00927154347300529 -2.31788158416748 0.154402583837509
vertex -0.0115894293412566 -2.89735198020935 0.15550322830677
vertex -0.0322167873382568 -2.31783175468445 0.131456196308136
endloop
endfacet
facet normal 0.707113742828369 -0.00417150184512138 -0.707087516784668
outer loop
vertex -0.040270984172821 -2.89728951454163 0.126820236444473
vertex -0.0322167873382568 -2.31783175468445 0.131456196308136
vertex -0.0115894293412566 -2.89735198020935 0.15550322830677
endloop
endfacet
facet normal 0.707113742828369 -0.00417150184512138 -0.707087516784668
outer loop
vertex -0.0115894293412566 -2.89735198020935 0.15550322830677
vertex -0.0139073142781854 -3.47682237625122 0.156603872776031
vertex -0.040270984172821 -2.89728951454163 0.126820236444473
endloop
endfacet
facet normal 0.707113742828369 -0.00417150184512138 -0.707087457180023
outer loop
vertex -0.0483251810073853 -3.47674751281738 0.122184291481972
vertex -0.040270984172821 -2.89728951454163 0.126820236444473
vertex -0.0139073142781854 -3.47682237625122 0.156603872776031
endloop
endfacet
facet normal 0.707113742828369 -0.00417150184512138 -0.707087457180023
outer loop
vertex -0.0139073142781854 -3.47682237625122 0.156603872776031
vertex -0.0162252001464367 -4.05629301071167 0.157704517245293
vertex -0.0483251810073853 -3.47674751281738 0.122184291481972
endloop
endfacet
facet normal 0.707113742828369 -0.00417150184512138 -0.707087457180023
outer loop
vertex -0.0563793778419495 -4.05620527267456 0.11754833906889
vertex -0.0483251810073853 -3.47674751281738 0.122184291481972
vertex -0.0162252001464367 -4.05629301071167 0.157704517245293
endloop
endfacet
facet normal 0.707113742828369 -0.00417150231078267 -0.707087516784668
outer loop
vertex -0.0162252001464367 -4.05629301071167 0.157704517245293
vertex -0.0183871686458588 -4.59678363800049 0.158731132745743
vertex -0.0563793778419495 -4.05620527267456 0.11754833906889
endloop
endfacet
facet normal 0.707113742828369 -0.00417150184512138 -0.707087457180023
outer loop
vertex -0.0638918876647949 -4.59669208526611 0.113224178552628
vertex -0.0563793778419495 -4.05620527267456 0.11754833906889
vertex -0.0183871686458588 -4.59678363800049 0.158731132745743
endloop
endfacet
facet normal 0.707113742828369 -0.00417150184512138 -0.707087457180023
outer loop
vertex -0.0183871686458588 -4.59678363800049 0.158731132745743
vertex -0.0199998393654823 -4.99995088577271 0.159496903419495
vertex -0.0638918876647949 -4.59669208526611 0.113224178552628
endloop
endfacet
facet normal 0.707113742828369 -0.00417150231078267 -0.707087516784668
outer loop
vertex -0.0694955587387085 -4.99984693527222 0.109998732805252
vertex -0.0638918876647949 -4.59669208526611 0.113224178552628
vertex -0.0199998393654823 -4.99995088577271 0.159496903419495
endloop
endfacet
facet normal -0.999903380870819 0.0138984695076942 0
outer loop
vertex -0.0694923475384712 -4.99951696395874 0.0399999991059303
vertex -0.0694923475384712 -4.99951696395874 0.109999999403954
vertex -0.0637577548623085 -4.58695077896118 0.0366991497576237
endloop
endfacet
facet normal -0.999903321266174 0.0138984685763717 0
outer loop
vertex -0.0637577548623085 -4.58695077896118 0.113300852477551
vertex -0.0637577548623085 -4.58695077896118 0.0366991497576237
vertex -0.0694923475384712 -4.99951696395874 0.109999999403954
endloop
endfacet
facet normal -0.999903440475464 0.0138984695076942 -9.36531573426823e-17
outer loop
vertex -0.0560047812759876 -4.02917528152466 0.0322365164756775
vertex -0.0637577548623085 -4.58695077896118 0.0366991497576237
vertex -0.0560047812759876 -4.02917528152466 0.117763482034206
endloop
endfacet
facet normal -0.999903380870819 0.0138984704390168 0
outer loop
vertex -0.0637577548623085 -4.58695077896118 0.113300852477551
vertex -0.0560047812759876 -4.02917528152466 0.117763482034206
vertex -0.0637577548623085 -4.58695077896118 0.0366991497576237
endloop
endfacet
facet normal -0.999903380870819 0.0138984695076942 -9.36531573426823e-17
outer loop
vertex -0.0560047812759876 -4.02917528152466 0.0322365164756775
vertex -0.0560047812759876 -4.02917528152466 0.117763482034206
vertex -0.0477194599807262 -3.43310117721558 0.0274674613028765
endloop
endfacet
facet normal -0.999903380870819 0.0138984695076942 -6.44664269184386e-17
outer loop
vertex -0.0477194599807262 -3.43310117721558 0.122532539069653
vertex -0.0477194599807262 -3.43310117721558 0.0274674613028765
vertex -0.0560047812759876 -4.02917528152466 0.117763482034206
endloop
endfacet
facet normal -0.999903380870819 0.0138984695076942 5.76967410806352e-17
outer loop
vertex -0.0393448248505592 -2.83060121536255 0.0226469971239567
vertex -0.0477194599807262 -3.43310117721558 0.0274674613028765
vertex -0.0393448248505592 -2.83060121536255 0.127352997660637
endloop
endfacet
facet normal -0.999903440475464 0.0138984704390168 -6.44664269184386e-17
outer loop
vertex -0.0477194599807262 -3.43310117721558 0.122532539069653
vertex -0.0393448248505592 -2.83060121536255 0.127352997660637
vertex -0.0477194599807262 -3.43310117721558 0.0274674613028765
endloop
endfacet
facet normal -0.999903380870819 0.0138984685763717 5.76967476980801e-17
outer loop
vertex -0.0393448248505592 -2.83060121536255 0.0226469971239567
vertex -0.0393448248505592 -2.83060121536255 0.127352997660637
vertex -0.0305913034826517 -2.20084285736084 0.0176084451377392
endloop
endfacet
facet normal -0.999903440475464 0.0138984704390168 2.35491835297845e-17
outer loop
vertex -0.0305913034826517 -2.20084285736084 0.132391557097435
vertex -0.0305913034826517 -2.20084285736084 0.0176084451377392
vertex -0.0393448248505592 -2.83060121536255 0.127352997660637
endloop
endfacet
facet normal -0.999903440475464 0.0138984704390168 -1.21771880136473e-17
outer loop
vertex -0.0210045799612999 -1.51114118099213 0.0120902974158525
vertex -0.0305913034826517 -2.20084285736084 0.0176084451377392
vertex -0.0210045799612999 -1.51114118099213 0.137909695506096
endloop
endfacet
facet normal -0.999903440475464 0.0138984695076942 2.35491851841457e-17
outer loop
vertex -0.0305913034826517 -2.20084285736084 0.132391557097435
vertex -0.0210045799612999 -1.51114118099213 0.137909695506096
vertex -0.0305913034826517 -2.20084285736084 0.0176084451377392
endloop
endfacet
facet normal -0.999903380870819 0.0138984685763717 3.13811376053606e-18
outer loop
vertex -0.0105319479480386 -0.757704377174377 0.00606222031638026
vertex -0.0210045799612999 -1.51114118099213 0.0120902974158525
vertex -0.0105319479480386 -0.757704377174377 0.143937781453133
endloop
endfacet
facet normal -0.999903440475464 0.0138984695076942 -1.21771863592861e-17
outer loop
vertex -0.0210045799612999 -1.51114118099213 0.137909695506096
vertex -0.0105319479480386 -0.757704377174377 0.143937781453133
vertex -0.0210045799612999 -1.51114118099213 0.0120902974158525
endloop
endfacet
facet normal -0.999903380870819 0.0138984695076942 3.13811376053606e-18
outer loop
vertex -0.0105319479480386 -0.757704377174377 0.00606222031638026
vertex -0.0105319479480386 -0.757704377174377 0.143937781453133
vertex 0 0 0
endloop
endfacet
facet normal -0.999903440475464 0.0138984704390168 0
outer loop
vertex 0 0 0.150000005960464
vertex 0 0 0
vertex -0.0105319479480386 -0.757704377174377 0.143937781453133
endloop
endfacet
facet normal -0 0.0138980578631163 0.999903440475464
outer loop
vertex -0.0199999995529652 -6.00046491622925 -0.00949028786271811
vertex -0.02329789288342 -6.4126615524292 -0.00376099883578718
vertex 0.0500000007450581 -6.00046491622925 -0.00949028786271811
endloop
endfacet
facet normal 4.03720996012462e-16 0.0138980578631163 0.999903440475464
outer loop
vertex 0.0533000603318214 -6.41293239593506 -0.00375723489560187
vertex 0.0500000007450581 -6.00046491622925 -0.00949028786271811
vertex -0.02329789288342 -6.4126615524292 -0.00376099883578718
endloop
endfacet
facet normal 4.03815228427844e-16 0.0138980569317937 0.999903380870819
outer loop
vertex -0.02329789288342 -6.4126615524292 -0.00376099883578718
vertex -0.027755917981267 -6.96986103057861 0.00398373790085316
vertex 0.0533000603318214 -6.41293239593506 -0.00375723489560187
endloop
endfacet
facet normal -1.95920060732512e-17 0.0138980569317937 0.999903440475464
outer loop
vertex 0.0577613525092602 -6.97054004669189 0.0039931763894856
vertex 0.0533000603318214 -6.41293239593506 -0.00375723489560187
vertex -0.027755917981267 -6.96986103057861 0.00398373790085316
endloop
endfacet
facet normal -1.97354077586046e-17 0.0138980578631163 0.999903440475464
outer loop
vertex -0.027755917981267 -6.96986103057861 0.00398373790085316
vertex -0.0325254872441292 -7.56599950790405 0.0122697073966265
vertex 0.0577613525092602 -6.97054004669189 0.0039931763894856
endloop
endfacet
facet normal 4.67252457375809e-17 0.0138980587944388 0.999903440475464
outer loop
vertex 0.0625293105840683 -7.56647682189941 0.0122763412073255
vertex 0.0577613525092602 -6.97054004669189 0.0039931763894856
vertex -0.0325254872441292 -7.56599950790405 0.0122697073966265
endloop
endfacet
facet normal 4.65283469732913e-17 0.0138980578631163 0.999903440475464
outer loop
vertex -0.0325254872441292 -7.56599950790405 0.0122697073966265
vertex -0.0373515374958515 -8.16919803619385 0.020653797313571
vertex 0.0625293105840683 -7.56647682189941 0.0122763412073255
endloop
endfacet
facet normal -2.73381127805967e-16 0.0138980560004711 0.999903380870819
outer loop
vertex 0.0673486366868019 -8.1688346862793 0.0206487569957972
vertex 0.0625293105840683 -7.56647682189941 0.0122763412073255
vertex -0.0373515374958515 -8.16919803619385 0.020653797313571
endloop
endfacet
facet normal -2.73328691172576e-16 0.0138980587944388 0.999903500080109
outer loop
vertex 0.0673486366868019 -8.1688346862793 0.0206487569957972
vertex -0.0373515374958515 -8.16919803619385 0.020653797313571
vertex 0.0723864957690239 -8.79850673675537 0.0294008124619722
endloop
endfacet
facet normal -3.95715628070957e-17 0.0138980587944388 0.999903440475464
outer loop
vertex -0.04239746555686 -8.79987812042236 0.0294198710471392
vertex 0.0723864957690239 -8.79850673675537 0.0294008124619722
vertex -0.0373515374958515 -8.16919803619385 0.020653797313571
endloop
endfacet
facet normal -3.86098660833293e-17 0.0138980560004711 0.999903380870819
outer loop
vertex 0.0723864957690239 -8.79850673675537 0.0294008124619722
vertex -0.04239746555686 -8.79987812042236 0.0294198710471392
vertex 0.0779056996107101 -9.48834037780762 0.0389890894293785
endloop
endfacet
facet normal 8.37659071855053e-17 0.0138980578631163 0.999903380870819
outer loop
vertex -0.0479181632399559 -9.48989772796631 0.0390107408165932
vertex 0.0779056996107101 -9.48834037780762 0.0389890894293785
vertex -0.04239746555686 -8.79987812042236 0.0294198710471392
endloop
endfacet
facet normal 8.35716256206738e-17 0.0138980569317937 0.999903380870819
outer loop
vertex 0.0779056996107101 -9.48834037780762 0.0389890894293785
vertex -0.0479181632399559 -9.48989772796631 0.0390107408165932
vertex 0.0839368626475334 -10.2421636581421 0.0494667738676071
endloop
endfacet
facet normal -2.95291381992153e-16 0.0138980578631163 0.999903440475464
outer loop
vertex -0.0539429597556591 -10.2429256439209 0.0494773648679256
vertex 0.0839368626475334 -10.2421636581421 0.0494667738676071
vertex -0.0479181632399559 -9.48989772796631 0.0390107408165932
endloop
endfacet
facet normal -2.95748912132568e-16 0.0138980569317937 0.999903380870819
outer loop
vertex 0.0839368626475334 -10.2421636581421 0.0494667738676071
vertex -0.0539429597556591 -10.2429256439209 0.0494773648679256
vertex 0.0900000035762787 -10.999981880188 0.0599999986588955
endloop
endfacet
facet normal -1.38764484369666e-16 0.0138980578631163 0.999903440475464
outer loop
vertex -0.0599999986588955 -10.999981880188 0.0599999986588955
vertex 0.0900000035762787 -10.999981880188 0.0599999986588955
vertex -0.0539429597556591 -10.2429256439209 0.0494773648679256
endloop
endfacet
facet normal 1.03535642939531e-15 -0.0138984695076942 0.999903440475464
outer loop
vertex 0.0533000603318214 -6.41293239593506 0.153759121894836
vertex 0.0500000007450581 -6.00046491622925 0.159492343664169
vertex -0.02329789288342 -6.4126615524292 0.153762891888618
endloop
endfacet
facet normal 0 -0.0138984704390168 0.999903440475464
outer loop
vertex -0.0199999995529652 -6.00046491622925 0.159492343664169
vertex -0.02329789288342 -6.4126615524292 0.153762891888618
vertex 0.0500000007450581 -6.00046491622925 0.159492343664169
endloop
endfacet
facet normal 1.03593982333773e-15 -0.0138984685763717 0.999903380870819
outer loop
vertex -0.02329789288342 -6.4126615524292 0.153762891888618
vertex -0.027755917981267 -6.96986103057861 0.146017923951149
vertex 0.0533000603318214 -6.41293239593506 0.153759121894836
endloop
endfacet
facet normal 3.77559112887092e-16 -0.0138984695076942 0.999903440475464
outer loop
vertex 0.0577613525092602 -6.97054004669189 0.146008491516113
vertex 0.0533000603318214 -6.41293239593506 0.153759121894836
vertex -0.027755917981267 -6.96986103057861 0.146017923951149
endloop
endfacet
facet normal 3.22979830246712e-16 -0.0138984695076942 0.999903380870819
outer loop
vertex 0.0625293105840683 -7.56647682189941 0.137725070118904
vertex 0.0577613525092602 -6.97054004669189 0.146008491516113
vertex -0.0325254872441292 -7.56599998474121 0.137731701135635
endloop
endfacet
facet normal 3.75786749384522e-16 -0.0138984695076942 0.999903440475464
outer loop
vertex -0.027755917981267 -6.96986103057861 0.146017923951149
vertex -0.0325254872441292 -7.56599998474121 0.137731701135635
vertex 0.0577613525092602 -6.97054004669189 0.146008491516113
endloop
endfacet
facet normal 3.23940683246254e-16 -0.0138984713703394 0.999903440475464
outer loop
vertex -0.0325254872441292 -7.56599998474121 0.137731701135635
vertex -0.0373515374958515 -8.16919803619385 0.129347369074821
vertex 0.0625293105840683 -7.56647682189941 0.137725070118904
endloop
endfacet
facet normal 8.04767167856613e-16 -0.0138984685763717 0.999903380870819
outer loop
vertex 0.0673486366868019 -8.1688346862793 0.129352405667305
vertex 0.0625293105840683 -7.56647682189941 0.137725070118904
vertex -0.0373515374958515 -8.16919803619385 0.129347369074821
endloop
endfacet
facet normal 8.04563827009713e-16 -0.0138984713703394 0.999903500080109
outer loop
vertex 0.0673486366868019 -8.1688346862793 0.129352405667305
vertex -0.0373515374958515 -8.16919803619385 0.129347369074821
vertex 0.0723864957690239 -8.79850673675537 0.12060009688139
endloop
endfacet
facet normal -6.34385272906549e-16 -0.0138984704390168 0.999903440475464
outer loop
vertex -0.04239746555686 -8.79987812042236 0.120581038296223
vertex 0.0723864957690239 -8.79850673675537 0.12060009688139
vertex -0.0373515374958515 -8.16919803619385 0.129347369074821
endloop
endfacet
facet normal -6.36239269209411e-16 -0.0138984695076942 0.999903380870819
outer loop
vertex 0.0723864957690239 -8.79850673675537 0.12060009688139
vertex -0.04239746555686 -8.79987812042236 0.120581038296223
vertex 0.0779056996107101 -9.48834037780762 0.111011534929276
endloop
endfacet
facet normal 7.10049257012008e-17 -0.0138984695076942 0.999903380870819
outer loop
vertex -0.0479181632399559 -9.48989772796631 0.110989883542061
vertex 0.0779056996107101 -9.48834037780762 0.111011534929276
vertex -0.04239746555686 -8.79987812042236 0.120581038296223
endloop
endfacet
facet normal 7.2857313964952e-17 -0.0138984695076942 0.999903380870819
outer loop
vertex 0.0779056996107101 -9.48834037780762 0.111011534929276
vertex -0.0479181632399559 -9.48989772796631 0.110989883542061
vertex 0.0839368626475334 -10.2421636581421 0.100533537566662
endloop
endfacet
facet normal 5.79667791546868e-16 -0.0138984695076942 0.999903440475464
outer loop
vertex -0.0539429597556591 -10.2429256439209 0.100522942841053
vertex 0.0839368626475334 -10.2421636581421 0.100533537566662
vertex -0.0479181632399559 -9.48989772796631 0.110989883542061
endloop
endfacet
facet normal 5.7964778039349e-16 -0.0138984695076942 0.999903380870819
outer loop
vertex 0.0839368626475334 -10.2421636581421 0.100533537566662
vertex -0.0539429597556591 -10.2429256439209 0.100522942841053
vertex 0.0900000035762787 -10.999981880188 0.0900000035762787
endloop
endfacet
facet normal 0 -0.0138984704390168 0.999903440475464
outer loop
vertex -0.0599999986588955 -10.999981880188 0.0900000035762787
vertex 0.0900000035762787 -10.999981880188 0.0900000035762787
vertex -0.0539429597556591 -10.2429256439209 0.100522942841053
endloop
endfacet
facet normal 0 0.00189939665142447 -0.999998211860657
outer loop
vertex 0 0 0
vertex 0.0299999993294477 0 0
vertex -0.000798826979007572 -0.199706390500069 -0.00037932230043225
endloop
endfacet
facet normal 2.67619149786322e-18 0.00189939653500915 -0.999998211860657
outer loop
vertex 0.030798826366663 -0.199706390500069 -0.00037932230043225
vertex -0.000798826979007572 -0.199706390500069 -0.00037932230043225
vertex 0.0299999993294477 0 0
endloop
endfacet
facet normal -1.21495688665845e-18 0.00189939665142447 -0.999998211860657
outer loop
vertex -0.00218276516534388 -0.545690298080444 -0.00103648414369673
vertex -0.000798826979007572 -0.199706390500069 -0.00037932230043225
vertex 0.032182764261961 -0.545690298080444 -0.00103648414369673
endloop
endfacet
facet normal 2.67619149786322e-18 0.00189939676783979 -0.999998211860657
outer loop
vertex 0.030798826366663 -0.199706390500069 -0.00037932230043225
vertex 0.032182764261961 -0.545690298080444 -0.00103648414369673
vertex -0.000798826979007572 -0.199706390500069 -0.00037932230043225
endloop
endfacet
facet normal -1.21495678326087e-18 0.00189939641859382 -0.999998152256012
outer loop
vertex -0.00218276516534388 -0.545690298080444 -0.00103648414369673
vertex 0.032182764261961 -0.545690298080444 -0.00103648414369673
vertex -0.00439785979688168 -1.09946298599243 -0.00208831997588277
endloop
endfacet
facet normal -1.5374537211824e-18 0.00189939653500915 -0.999998152256012
outer loop
vertex 0.0343978591263294 -1.09946298599243 -0.00208831997588277
vertex -0.00439785979688168 -1.09946298599243 -0.00208831997588277
vertex 0.032182764261961 -0.545690298080444 -0.00103648414369673
endloop
endfacet
facet normal 0 0.00189939653500915 -0.999998211860657
outer loop
vertex -0.00675776088610291 -1.68943727016449 -0.0032089170999825
vertex -0.00439785979688168 -1.09946298599243 -0.00208831997588277
vertex 0.0367577597498894 -1.68943727016449 -0.0032089170999825
endloop
endfacet
facet normal -1.5374537211824e-18 0.00189939676783979 -0.999998211860657
outer loop
vertex 0.0343978591263294 -1.09946298599243 -0.00208831997588277
vertex 0.0367577597498894 -1.68943727016449 -0.0032089170999825
vertex -0.00439785979688168 -1.09946298599243 -0.00208831997588277
endloop
endfacet
facet normal 0 0.00189939653500915 -0.999998211860657
outer loop
vertex -0.00675776088610291 -1.68943727016449 -0.0032089170999825
vertex 0.0367577597498894 -1.68943727016449 -0.0032089170999825
vertex -0.00911766197532415 -2.27941155433655 -0.00432951422408223
endloop
endfacet
facet normal -3.54690612974655e-17 0.00189939653500915 -0.999998211860657
outer loop
vertex 0.0391176603734493 -2.27941155433655 -0.00432951422408223
vertex -0.00911766197532415 -2.27941155433655 -0.00432951422408223
vertex 0.0367577597498894 -1.68943727016449 -0.0032089170999825
endloop
endfacet
facet normal 3.18572168574221e-17 0.00189939665142447 -0.999998211860657
outer loop
vertex -0.0114775635302067 -2.86938571929932 -0.00545011134818196
vertex -0.00911766197532415 -2.27941155433655 -0.00432951422408223
vertex 0.0414775647222996 -2.86938571929932 -0.00545011134818196
endloop
endfacet
facet normal -3.54690612974655e-17 0.00189939653500915 -0.999998211860657
outer loop
vertex 0.0391176603734493 -2.27941155433655 -0.00432951422408223
vertex 0.0414775647222996 -2.86938571929932 -0.00545011134818196
vertex -0.00911766197532415 -2.27941155433655 -0.00432951422408223
endloop
endfacet
facet normal 3.18572168574221e-17 0.00189939665142447 -0.999998211860657
outer loop
vertex -0.0114775635302067 -2.86938571929932 -0.00545011134818196
vertex 0.0414775647222996 -2.86938571929932 -0.00545011134818196
vertex -0.0138374641537666 -3.45935988426208 -0.00657070800662041
endloop
endfacet
facet normal 1.46250958604194e-17 0.0018993963021785 -0.999998152256012
outer loop
vertex 0.0438374653458595 -3.45935988426208 -0.00657070800662041
vertex -0.0138374641537666 -3.45935988426208 -0.00657070800662041
vertex 0.0414775647222996 -2.86938571929932 -0.00545011134818196
endloop
endfacet
facet normal -1.46659420390672e-17 0.00189939653500915 -0.999998152256012
outer loop
vertex -0.0161973666399717 -4.04933404922485 -0.00769130513072014
vertex -0.0138374641537666 -3.45935988426208 -0.00657070800662041
vertex 0.0461973659694195 -4.04933404922485 -0.00769130513072014
endloop
endfacet
facet normal 1.46250958604194e-17 0.0018993963021785 -0.999998152256012
outer loop
vertex 0.0438374653458595 -3.45935988426208 -0.00657070800662041
vertex 0.0461973659694195 -4.04933404922485 -0.00769130513072014
vertex -0.0138374641537666 -3.45935988426208 -0.00657070800662041
endloop
endfacet
facet normal -1.46659387303448e-17 0.0018993963021785 -0.999998152256012
outer loop
vertex -0.0161973666399717 -4.04933404922485 -0.00769130513072014
vertex 0.0461973659694195 -4.04933404922485 -0.00769130513072014
vertex -0.0183735191822052 -4.59337186813354 -0.00872465036809444
endloop
endfacet
facet normal -2.74192654852608e-17 0.00189939653500915 -0.999998152256012
outer loop
vertex 0.0483735203742981 -4.59337186813354 -0.00872465036809444
vertex -0.0183735191822052 -4.59337186813354 -0.00872465036809444
vertex 0.0461973659694195 -4.04933404922485 -0.00769130513072014
endloop
endfacet
facet normal -2.74192654852608e-17 0.00189939641859382 -0.999998152256012
outer loop
vertex -0.0183735191822052 -4.59337186813354 -0.00872465036809444
vertex 0.0483735203742981 -4.59337186813354 -0.00872465036809444
vertex -0.0199999995529652 -4.99999094009399 -0.00949698314070702
endloop
endfacet
facet normal 0 0.00189939653500915 -0.999998211860657
outer loop
vertex 0.0500000007450581 -4.99999094009399 -0.00949698314070702
vertex -0.0199999995529652 -4.99999094009399 -0.00949698314070702
vertex 0.0483735203742981 -4.59337186813354 -0.00872465036809444
endloop
endfacet
facet normal -0 0.00189939653500915 0.999998211860657
outer loop
vertex -0.0199999995529652 -4.99999094009399 0.159496977925301
vertex 0.0500000007450581 -4.99999094009399 0.159496977925301
vertex -0.0183735191822052 -4.59337186813354 0.158724650740623
endloop
endfacet
facet normal 0 0.00189939641859382 0.999998152256012
outer loop
vertex 0.0483735203742981 -4.59337186813354 0.158724650740623
vertex -0.0183735191822052 -4.59337186813354 0.158724650740623
vertex 0.0500000007450581 -4.99999094009399 0.159496977925301
endloop
endfacet
facet normal 0 0.00189939653500915 0.999998152256012
outer loop
vertex 0.0483735203742981 -4.59337186813354 0.158724650740623
vertex 0.0461973659694195 -4.04933404922485 0.157691299915314
vertex -0.0183735191822052 -4.59337186813354 0.158724650740623
endloop
endfacet
facet normal 4.17800007084809e-16 0.0018993963021785 0.999998152256012
outer loop
vertex -0.0161973666399717 -4.04933404922485 0.157691299915314
vertex -0.0183735191822052 -4.59337186813354 0.158724650740623
vertex 0.0461973659694195 -4.04933404922485 0.157691299915314
endloop
endfacet
facet normal 4.17800033554588e-16 0.00189939653500915 0.999998152256012
outer loop
vertex 0.0461973659694195 -4.04933404922485 0.157691299915314
vertex 0.0438374653458595 -3.45935988426208 0.156570702791214
vertex -0.0161973666399717 -4.04933404922485 0.157691299915314
endloop
endfacet
facet normal -1.46250958604194e-17 0.0018993963021785 0.999998152256012
outer loop
vertex -0.0138374641537666 -3.45935988426208 0.156570702791214
vertex -0.0161973666399717 -4.04933404922485 0.157691299915314
vertex 0.0438374653458595 -3.45935988426208 0.156570702791214
endloop
endfacet
facet normal -1.46250958604194e-17 0.0018993963021785 0.999998152256012
outer loop
vertex -0.0138374641537666 -3.45935988426208 0.156570702791214
vertex 0.0438374653458595 -3.45935988426208 0.156570702791214
vertex -0.0114775635302067 -2.86938571929932 0.155450105667114
endloop
endfacet
facet normal -1.59286084287111e-17 0.00189939665142447 0.999998211860657
outer loop
vertex 0.0414775647222996 -2.86938571929932 0.155450105667114
vertex -0.0114775635302067 -2.86938571929932 0.155450105667114
vertex 0.0438374653458595 -3.45935988426208 0.156570702791214
endloop
endfacet
facet normal -1.59286084287111e-17 0.00189939665142447 0.999998211860657
outer loop
vertex 0.0414775647222996 -2.86938571929932 0.155450105667114
vertex 0.0391176603734493 -2.27941155433655 0.154329508543015
vertex -0.0114775635302067 -2.86938571929932 0.155450105667114
endloop
endfacet
facet normal 3.49744304522159e-17 0.00189939653500915 0.999998211860657
outer loop
vertex -0.00911766197532415 -2.27941155433655 0.154329508543015
vertex -0.0114775635302067 -2.86938571929932 0.155450105667114
vertex 0.0391176603734493 -2.27941155433655 0.154329508543015
endloop
endfacet
facet normal 3.49744304522159e-17 0.00189939653500915 0.999998211860657
outer loop
vertex -0.00911766197532415 -2.27941155433655 0.154329508543015
vertex 0.0391176603734493 -2.27941155433655 0.154329508543015
vertex -0.00675776088610291 -1.68943727016449 0.153208911418915
endloop
endfacet
facet normal 0 0.00189939653500915 0.999998211860657
outer loop
vertex 0.0367577597498894 -1.68943727016449 0.153208911418915
vertex -0.00675776088610291 -1.68943727016449 0.153208911418915
vertex 0.0391176603734493 -2.27941155433655 0.154329508543015
endloop
endfacet
facet normal 0 0.00189939653500915 0.999998211860657
outer loop
vertex 0.0367577597498894 -1.68943727016449 0.153208911418915
vertex 0.0343978591263294 -1.09946298599243 0.152088314294815
vertex -0.00675776088610291 -1.68943727016449 0.153208911418915
endloop
endfacet
facet normal -5.43553218351701e-17 0.00189939676783979 0.999998211860657
outer loop
vertex -0.00439785979688168 -1.09946298599243 0.152088314294815
vertex -0.00675776088610291 -1.68943727016449 0.153208911418915
vertex 0.0343978591263294 -1.09946298599243 0.152088314294815
endloop
endfacet
facet normal -5.43553185264477e-17 0.00189939653500915 0.999998152256012
outer loop
vertex -0.00439785979688168 -1.09946298599243 0.152088314294815
vertex 0.0343978591263294 -1.09946298599243 0.152088314294815
vertex -0.00218276516534388 -0.545690298080444 0.151036486029625
endloop
endfacet
facet normal -4.29537256608128e-17 0.00189939641859382 0.999998152256012
outer loop
vertex 0.032182764261961 -0.545690298080444 0.151036486029625
vertex -0.00218276516534388 -0.545690298080444 0.151036486029625
vertex 0.0343978591263294 -1.09946298599243 0.152088314294815
endloop
endfacet
facet normal -4.29537289695352e-17 0.00189939665142447 0.999998211860657
outer loop
vertex 0.032182764261961 -0.545690298080444 0.151036486029625
vertex 0.030798826366663 -0.199706390500069 0.150379315018654
vertex -0.00218276516534388 -0.545690298080444 0.151036486029625
endloop
endfacet
facet normal -2.66950705133318e-17 0.00189939676783979 0.999998211860657
outer loop
vertex -0.000798826979007572 -0.199706390500069 0.150379315018654
vertex -0.00218276516534388 -0.545690298080444 0.151036486029625
vertex 0.030798826366663 -0.199706390500069 0.150379315018654
endloop
endfacet
facet normal -2.66950672046094e-17 0.00189939653500915 0.999998211860657
outer loop
vertex -0.000798826979007572 -0.199706390500069 0.150379315018654
vertex 0.030798826366663 -0.199706390500069 0.150379315018654
vertex 0 0 0.150000005960464
endloop
endfacet
facet normal 0 0.00189939665142447 0.999998211860657
outer loop
vertex 0.0299999993294477 0 0.150000005960464
vertex 0 0 0.150000005960464
vertex 0.030798826366663 -0.199706390500069 0.150379315018654
endloop
endfacet
facet normal -0.999903380870819 -0.0138980569317937 -0
outer loop
vertex 0.0299999993294477 0 0.150000005960464
vertex 0.0299999993294477 0 0
vertex 0.0405316352844238 -0.757704377174377 0.143937781453133
endloop
endfacet
facet normal -0.999903380870819 -0.0138980569317937 -9.95783711844078e-17
outer loop
vertex 0.0405316352844238 -0.757704377174377 0.00606222031638026
vertex 0.0405316352844238 -0.757704377174377 0.143937781453133
vertex 0.0299999993294477 0 0
endloop
endfacet
facet normal -0.999903380870819 -0.0138980569317937 -9.95783711844078e-17
outer loop
vertex 0.0405316352844238 -0.757704377174377 0.00606222031638026
vertex 0.0510039553046227 -1.51114118099213 0.0120902974158525
vertex 0.0405316352844238 -0.757704377174377 0.143937781453133
endloop
endfacet
facet normal -0.999903440475464 -0.0138980569317937 -8.5761483722012e-17
outer loop
vertex 0.0510039553046227 -1.51114118099213 0.137909695506096
vertex 0.0405316352844238 -0.757704377174377 0.143937781453133
vertex 0.0510039553046227 -1.51114118099213 0.0120902974158525
endloop
endfacet
facet normal -0.999903440475464 -0.0138980578631163 -8.57614903394569e-17
outer loop
vertex 0.0510039553046227 -1.51114118099213 0.0120902974158525
vertex 0.0605903975665569 -2.20084285736084 0.0176084451377392
vertex 0.0510039553046227 -1.51114118099213 0.137909695506096
endloop
endfacet
facet normal -0.999903440475464 -0.0138980578631163 -1.40919574415497e-16
outer loop
vertex 0.0605903975665569 -2.20084285736084 0.132391557097435
vertex 0.0510039553046227 -1.51114118099213 0.137909695506096
vertex 0.0605903975665569 -2.20084285736084 0.0176084451377392
endloop
endfacet
facet normal -0.999903440475464 -0.0138980587944388 -1.40919574415497e-16
outer loop
vertex 0.0605903975665569 -2.20084285736084 0.132391557097435
vertex 0.0605903975665569 -2.20084285736084 0.0176084451377392
vertex 0.0693436563014984 -2.83060121536255 0.127352997660637
endloop
endfacet
facet normal -0.999903380870819 -0.0138980569317937 -1.45960293954387e-16
outer loop
vertex 0.0693436563014984 -2.83060121536255 0.0226469971239567
vertex 0.0693436563014984 -2.83060121536255 0.127352997660637
vertex 0.0605903975665569 -2.20084285736084 0.0176084451377392
endloop
endfacet
facet normal -0.999903380870819 -0.0138980569317937 -1.45960280719498e-16
outer loop
vertex 0.0693436563014984 -2.83060121536255 0.0226469971239567
vertex 0.0777180418372154 -3.43310117721558 0.0274674613028765
vertex 0.0693436563014984 -2.83060121536255 0.127352997660637
endloop
endfacet
facet normal -0.999903440475464 -0.0138980578631163 1.94329263374397e-16
outer loop
vertex 0.0777180418372154 -3.43310117721558 0.122532539069653
vertex 0.0693436563014984 -2.83060121536255 0.127352997660637
vertex 0.0777180418372154 -3.43310117721558 0.0274674613028765
endloop
endfacet
facet normal -0.999903440475464 -0.0138980587944388 1.94329263374397e-16
outer loop
vertex 0.0777180418372154 -3.43310117721558 0.122532539069653
vertex 0.0777180418372154 -3.43310117721558 0.0274674613028765
vertex 0.0860031172633171 -4.02917528152466 0.117763482034206
endloop
endfacet
facet normal -0.999903380870819 -0.0138980578631163 -5.08078022682813e-17
outer loop
vertex 0.0860031172633171 -4.02917528152466 0.0322365164756775
vertex 0.0860031172633171 -4.02917528152466 0.117763482034206
vertex 0.0777180418372154 -3.43310117721558 0.0274674613028765
endloop
endfacet
facet normal -0.999903440475464 -0.0138980578631163 -5.08078022682813e-17
outer loop
vertex 0.0860031172633171 -4.02917528152466 0.0322365164756775
vertex 0.0937558636069298 -4.58695077896118 0.0366991497576237
vertex 0.0860031172633171 -4.02917528152466 0.117763482034206
endloop
endfacet
facet normal -0.999903380870819 -0.0138980578631163 -0
outer loop
vertex 0.0937558636069298 -4.58695077896118 0.113300852477551
vertex 0.0860031172633171 -4.02917528152466 0.117763482034206
vertex 0.0937558636069298 -4.58695077896118 0.0366991497576237
endloop
endfacet
facet normal -0.999903440475464 -0.0138980587944388 -0
outer loop
vertex 0.0937558636069298 -4.58695077896118 0.113300852477551
vertex 0.0937558636069298 -4.58695077896118 0.0366991497576237
vertex 0.0994902849197388 -4.99951696395874 0.109999999403954
endloop
endfacet
facet normal -0.999903380870819 -0.0138980578631163 0
outer loop
vertex 0.0994902849197388 -4.99951696395874 0.0399999991059303
vertex 0.0994902849197388 -4.99951696395874 0.109999999403954
vertex 0.0937558636069298 -4.58695077896118 0.0366991497576237
endloop
endfacet
facet normal 0.707100629806519 0.00417146971449256 -0.707100629806519
outer loop
vertex 0.0380533337593079 -0.579401552677155 0.00463521247729659
vertex 0.0323179252445698 -0.579526782035828 -0.00110093492548913
vertex 0.0299999993294477 0 0
endloop
endfacet
facet normal 0.707100629806519 0.00417146971449256 -0.707100629806519
outer loop
vertex 0.0323179252445698 -0.579526782035828 -0.00110093492548913
vertex 0.0380533337593079 -0.579401552677155 0.00463521247729659
vertex 0.0346358492970467 -1.15905356407166 -0.00220186985097826
endloop
endfacet
facet normal 0.707100629806519 0.00417146971449256 -0.707100629806519
outer loop
vertex 0.0461066700518131 -1.15880310535431 0.00927042495459318
vertex 0.0346358492970467 -1.15905356407166 -0.00220186985097826
vertex 0.0380533337593079 -0.579401552677155 0.00463521247729659
endloop
endfacet
facet normal 0.707100629806519 0.00417146971449256 -0.707100629806519
outer loop
vertex 0.0346358492970467 -1.15905356407166 -0.00220186985097826
vertex 0.0461066700518131 -1.15880310535431 0.00927042495459318
vertex 0.0369537770748138 -1.73858022689819 -0.0033028048928827
endloop
endfacet
facet normal 0.707100629806519 0.00417146971449256 -0.707100629806519
outer loop
vertex 0.0541600026190281 -1.73820471763611 0.0139056378975511
vertex 0.0369537770748138 -1.73858022689819 -0.0033028048928827
vertex 0.0461066700518131 -1.15880310535431 0.00927042495459318
endloop
endfacet
facet normal 0.707100629806519 0.00417146971449256 -0.707100629806519
outer loop
vertex 0.0622133389115334 -2.31760621070862 0.0185408499091864
vertex 0.0392717011272907 -2.31810712814331 -0.00440373970195651
vertex 0.0541600026190281 -1.73820471763611 0.0139056378975511
endloop
endfacet
facet normal 0.707100629806519 0.00417146971449256 -0.707100629806519
outer loop
vertex 0.0369537770748138 -1.73858022689819 -0.0033028048928827
vertex 0.0541600026190281 -1.73820471763611 0.0139056378975511
vertex 0.0392717011272907 -2.31810712814331 -0.00440373970195651
endloop
endfacet
facet normal 0.707100629806519 0.00417146971449256 -0.707100629806519
outer loop
vertex 0.0622133389115334 -2.31760621070862 0.0185408499091864
vertex 0.0702666714787483 -2.89700794219971 0.0231760628521442
vertex 0.0392717011272907 -2.31810712814331 -0.00440373970195651
endloop
endfacet
facet normal 0.707100629806519 0.00417146971449256 -0.707100629806519
outer loop
vertex 0.0415896251797676 -2.89763379096985 -0.00550467474386096
vertex 0.0392717011272907 -2.31810712814331 -0.00440373970195651
vertex 0.0702666714787483 -2.89700794219971 0.0231760628521442
endloop
endfacet
facet normal 0.707100629806519 0.00417146971449256 -0.707100629806519
outer loop
vertex 0.0702666714787483 -2.89700794219971 0.0231760628521442
vertex 0.0783200040459633 -3.47640943527222 0.0278112757951021
vertex 0.0415896251797676 -2.89763379096985 -0.00550467474386096
endloop
endfacet
facet normal 0.707100629806519 0.00417146971449256 -0.707100629806519
outer loop
vertex 0.0439075529575348 -3.47716045379639 -0.00660560978576541
vertex 0.0415896251797676 -2.89763379096985 -0.00550467474386096
vertex 0.0783200040459633 -3.47640943527222 0.0278112757951021
endloop
endfacet
facet normal 0.707100629806519 0.00417146971449256 -0.707100629806519
outer loop
vertex 0.0783200040459633 -3.47640943527222 0.0278112757951021
vertex 0.0863733366131783 -4.05581092834473 0.03244648873806
vertex 0.0439075529575348 -3.47716045379639 -0.00660560978576541
endloop
endfacet
facet normal 0.707100629806519 0.00417146924883127 -0.707100629806519
outer loop
vertex 0.0462254770100117 -4.0566873550415 -0.00770654482766986
vertex 0.0439075529575348 -3.47716045379639 -0.00660560978576541
vertex 0.0863733366131783 -4.05581092834473 0.03244648873806
endloop
endfacet
facet normal 0.707100629806519 0.00417146924883127 -0.707100629806519
outer loop
vertex 0.0863733366131783 -4.05581092834473 0.03244648873806
vertex 0.0938849449157715 -4.59623765945435 0.0367699004709721
vertex 0.0462254770100117 -4.0566873550415 -0.00770654482766986
endloop
endfacet
facet normal 0.707100629806519 0.00417146971449256 -0.707100629806519
outer loop
vertex 0.0483875088393688 -4.59723806381226 -0.00873343646526337
vertex 0.0462254770100117 -4.0566873550415 -0.00770654482766986
vertex 0.0938849449157715 -4.59623765945435 0.0367699004709721
endloop
endfacet
facet normal 0.707100570201874 0.00417146924883127 -0.707100570201874
outer loop
vertex 0.0938849449157715 -4.59623765945435 0.0367699004709721
vertex 0.0994880646467209 -4.99935722351074 0.0399948582053185
vertex 0.0483875088393688 -4.59723806381226 -0.00873343646526337
endloop
endfacet
facet normal 0.707100629806519 0.00417146924883127 -0.707100629806519
outer loop
vertex 0.0500001944601536 -5.00044107437134 -0.00949940644204617
vertex 0.0483875088393688 -4.59723806381226 -0.00873343646526337
vertex 0.0994880646467209 -4.99935722351074 0.0399948582053185
endloop
endfacet
facet normal 0.707100629806519 0.00417146924883127 0.707100629806519
outer loop
vertex 0.0994964390993118 -4.99984693527222 0.109999656677246
vertex 0.0938927009701729 -4.59669208526611 0.113225020468235
vertex 0.0499998033046722 -4.99995088577271 0.159496903419495
endloop
endfacet
facet normal 0.707100570201874 0.00417146924883127 0.707100570201874
outer loop
vertex 0.048387136310339 -4.59678363800049 0.158731132745743
vertex 0.0499998033046722 -4.99995088577271 0.159496903419495
vertex 0.0938927009701729 -4.59669208526611 0.113225020468235
endloop
endfacet
facet normal 0.707100629806519 0.00417146971449256 0.707100629806519
outer loop
vertex 0.0938927009701729 -4.59669208526611 0.113225020468235
vertex 0.0863800942897797 -4.05620527267456 0.117549084126949
vertex 0.048387136310339 -4.59678363800049 0.158731132745743
endloop
endfacet
facet normal 0.707100629806519 0.00417146924883127 0.707100629806519
outer loop
vertex 0.0462251715362072 -4.05629301071167 0.157704517245293
vertex 0.048387136310339 -4.59678363800049 0.158731132745743
vertex 0.0863800942897797 -4.05620527267456 0.117549084126949
endloop
endfacet
facet normal 0.707100629806519 0.00417146924883127 0.707100629806519
outer loop
vertex 0.0863800942897797 -4.05620527267456 0.117549084126949
vertex 0.0783257931470871 -3.47674751281738 0.122184932231903
vertex 0.0462251715362072 -4.05629301071167 0.157704517245293
endloop
endfacet
facet normal 0.707100629806519 0.00417146971449256 0.707100629806519
outer loop
vertex 0.0439072884619236 -3.47682237625122 0.156603872776031
vertex 0.0462251715362072 -4.05629301071167 0.157704517245293
vertex 0.0783257931470871 -3.47674751281738 0.122184932231903
endloop
endfacet
facet normal 0.707100629806519 0.00417146971449256 0.707100629806519
outer loop
vertex 0.0783257931470871 -3.47674751281738 0.122184932231903
vertex 0.0702714994549751 -2.89728951454163 0.126820772886276
vertex 0.0439072884619236 -3.47682237625122 0.156603872776031
endloop
endfacet
facet normal 0.707100629806519 0.00417146971449256 0.707100629806519
outer loop
vertex 0.0415894091129303 -2.89735198020935 0.15550322830677
vertex 0.0439072884619236 -3.47682237625122 0.156603872776031
vertex 0.0702714994549751 -2.89728951454163 0.126820772886276
endloop
endfacet
facet normal 0.707100629806519 0.00417146971449256 0.707100629806519
outer loop
vertex 0.0702714994549751 -2.89728951454163 0.126820772886276
vertex 0.0622171983122826 -2.31783175468445 0.131456613540649
vertex 0.0415894091129303 -2.89735198020935 0.15550322830677
endloop
endfacet
facet normal 0.707100629806519 0.00417146971449256 0.707100629806519
outer loop
vertex 0.0392715260386467 -2.31788158416748 0.154402583837509
vertex 0.0415894091129303 -2.89735198020935 0.15550322830677
vertex 0.0622171983122826 -2.31783175468445 0.131456613540649
endloop
endfacet
facet normal 0.707100629806519 0.00417146971449256 0.707100629806519
outer loop
vertex 0.0392715260386467 -2.31788158416748 0.154402583837509
vertex 0.0622171983122826 -2.31783175468445 0.131456613540649
vertex 0.0369536429643631 -1.73841118812561 0.153301939368248
endloop
endfacet
facet normal 0.707100629806519 0.00417146971449256 0.707100629806519
outer loop
vertex 0.05416289716959 -1.73837375640869 0.136092469096184
vertex 0.0369536429643631 -1.73841118812561 0.153301939368248
vertex 0.0622171983122826 -2.31783175468445 0.131456613540649
endloop
endfacet
facet normal 0.707100629806519 0.00417146971449256 0.707100629806519
outer loop
vertex 0.05416289716959 -1.73837375640869 0.136092469096184
vertex 0.0461085997521877 -1.15891587734222 0.140728309750557
vertex 0.0369536429643631 -1.73841118812561 0.153301939368248
endloop
endfacet
facet normal 0.707100629806519 0.00417146971449256 0.707100629806519
outer loop
vertex 0.0346357636153698 -1.15894079208374 0.152201294898987
vertex 0.0369536429643631 -1.73841118812561 0.153301939368248
vertex 0.0461085997521877 -1.15891587734222 0.140728309750557
endloop
endfacet
facet normal 0.707100629806519 0.00417146971449256 0.707100629806519
outer loop
vertex 0.0346357636153698 -1.15894079208374 0.152201294898987
vertex 0.0461085997521877 -1.15891587734222 0.140728309750557
vertex 0.0323178805410862 -0.57947039604187 0.151100650429726
endloop
endfacet
facet normal 0.707100629806519 0.00417146971449256 0.707100629806519
outer loop
vertex 0.0380542986094952 -0.579457938671112 0.14536415040493
vertex 0.0323178805410862 -0.57947039604187 0.151100650429726
vertex 0.0461085997521877 -1.15891587734222 0.140728309750557
endloop
endfacet
facet normal 0.707100629806519 0.00417146971449256 0.707100629806519
outer loop
vertex 0.0323178805410862 -0.57947039604187 0.151100650429726
vertex 0.0380542986094952 -0.579457938671112 0.14536415040493
vertex 0.0299999993294477 0 0.150000005960464
endloop
endfacet
facet normal 0.707100629806519 -0.00417146971449256 -0.707100629806519
outer loop
vertex 0.0911006480455399 -10.4205112457275 0.0576821193099022
vertex 0.0900000035762787 -10.999981880188 0.0599999986588955
vertex 0.0853641554713249 -10.4205236434937 0.0519457012414932
endloop
endfacet
facet normal 0.707100629806519 -0.00417146971449256 -0.707100629806519
outer loop
vertex 0.0853641554713249 -10.4205236434937 0.0519457012414932
vertex 0.0807283073663712 -9.84106636047363 0.0438914000988007
vertex 0.0911006480455399 -10.4205112457275 0.0576821193099022
endloop
endfacet
facet normal 0.707100629806519 -0.00417146971449256 -0.707100629806519
outer loop
vertex 0.092201292514801 -9.84104156494141 0.0553642362356186
vertex 0.0911006480455399 -10.4205112457275 0.0576821193099022
vertex 0.0807283073663712 -9.84106636047363 0.0438914000988007
endloop
endfacet
facet normal 0.707100629806519 -0.00417146971449256 -0.707100629806519
outer loop
vertex 0.0933019369840622 -9.26157093048096 0.0530463568866253
vertex 0.092201292514801 -9.84104156494141 0.0553642362356186
vertex 0.076092466711998 -9.2616081237793 0.0358371026813984
endloop
endfacet
facet normal 0.707100629806519 -0.00417146971449256 -0.707100629806519
outer loop
vertex 0.0807283073663712 -9.84106636047363 0.0438914000988007
vertex 0.076092466711998 -9.2616081237793 0.0358371026813984
vertex 0.092201292514801 -9.84104156494141 0.0553642362356186
endloop
endfacet
facet normal 0.707100629806519 -0.00417146971449256 -0.707100629806519
outer loop
vertex 0.076092466711998 -9.2616081237793 0.0358371026813984
vertex 0.0714566186070442 -8.68214988708496 0.027782803401351
vertex 0.0933019369840622 -9.26157093048096 0.0530463568866253
endloop
endfacet
facet normal 0.707100629806519 -0.00417146971449256 -0.707100629806519
outer loop
vertex 0.0944025814533234 -8.68210029602051 0.0507284738123417
vertex 0.0933019369840622 -9.26157093048096 0.0530463568866253
vertex 0.0714566186070442 -8.68214988708496 0.027782803401351
endloop
endfacet
facet normal 0.707100629806519 -0.00417146971449256 -0.707100629806519
outer loop
vertex 0.0944025814533234 -8.68210029602051 0.0507284738123417
vertex 0.0714566186070442 -8.68214988708496 0.027782803401351
vertex 0.0955032333731651 -8.10262966156006 0.0484105907380581
endloop
endfacet
facet normal 0.707100629806519 -0.00417146971449256 -0.707100629806519
outer loop
vertex 0.0668207705020905 -8.10269260406494 0.0197285041213036
vertex 0.0955032333731651 -8.10262966156006 0.0484105907380581
vertex 0.0714566186070442 -8.68214988708496 0.027782803401351
endloop
endfacet
facet normal 0.707100629806519 -0.00417146971449256 -0.707100629806519
outer loop
vertex 0.0955032333731651 -8.10262966156006 0.0484105907380581
vertex 0.0668207705020905 -8.10269260406494 0.0197285041213036
vertex 0.0966038778424263 -7.52315950393677 0.0460927113890648
endloop
endfacet
facet normal 0.707100629806519 -0.00417146971449256 -0.707100629806519
outer loop
vertex 0.0621849298477173 -7.52323436737061 0.0116742048412561
vertex 0.0966038778424263 -7.52315950393677 0.0460927113890648
vertex 0.0668207705020905 -8.10269260406494 0.0197285041213036
endloop
endfacet
facet normal 0.707100629806519 -0.00417146971449256 -0.707100629806519
outer loop
vertex 0.0966038778424263 -7.52315950393677 0.0460927113890648
vertex 0.0621849298477173 -7.52323436737061 0.0116742048412561
vertex 0.0977045223116875 -6.94368934631348 0.0437748283147812
endloop
endfacet
facet normal 0.707100629806519 -0.00417146924883127 -0.707100629806519
outer loop
vertex 0.0575490817427635 -6.94377660751343 0.00361990509554744
vertex 0.0977045223116875 -6.94368934631348 0.0437748283147812
vertex 0.0621849298477173 -7.52323436737061 0.0116742048412561
endloop
endfacet
facet normal 0.707100629806519 -0.00417146924883127 -0.707100629806519
outer loop
vertex 0.0977045223116875 -6.94368934631348 0.0437748283147812
vertex 0.0575490817427635 -6.94377660751343 0.00361990509554744
vertex 0.098731130361557 -6.4031982421875 0.0416128635406494
endloop
endfacet
facet normal 0.707100629806519 -0.00417146971449256 -0.707100629806519
outer loop
vertex 0.0532250218093395 -6.40329027175903 -0.00389270158484578
vertex 0.098731130361557 -6.4031982421875 0.0416128635406494
vertex 0.0575490817427635 -6.94377660751343 0.00361990509554744
endloop
endfacet
facet normal 0.707100570201874 -0.00417146924883127 -0.707100570201874
outer loop
vertex 0.098731130361557 -6.4031982421875 0.0416128635406494
vertex 0.0532250218093395 -6.40329027175903 -0.00389270158484578
vertex 0.0994969084858894 -6.00003099441528 0.0400001965463161
endloop
endfacet
facet normal 0.707100629806519 -0.00417146924883127 -0.707100629806519
outer loop
vertex 0.0499996542930603 -6.00013494491577 -0.00949644297361374
vertex 0.0994969084858894 -6.00003099441528 0.0400001965463161
vertex 0.0532250218093395 -6.40329027175903 -0.00389270158484578
endloop
endfacet
facet normal -0.707087516784668 0.00417150231078267 -0.707113742828369
outer loop
vertex 0.0499987341463566 -6.00013494491577 0.159495562314987
vertex 0.0994969084858894 -6.00003099441528 0.109999842941761
vertex 0.0532241761684418 -6.40329027175903 0.153891891241074
endloop
endfacet
facet normal -0.707087457180023 0.00417150184512138 -0.707113742828369
outer loop
vertex 0.098731130361557 -6.4031982421875 0.108387164771557
vertex 0.0532241761684418 -6.40329027175903 0.153891891241074
vertex 0.0994969084858894 -6.00003099441528 0.109999842941761
endloop
endfacet
facet normal -0.707087457180023 0.00417150184512138 -0.707113742828369
outer loop
vertex 0.0532241761684418 -6.40329027175903 0.153891891241074
vertex 0.098731130361557 -6.4031982421875 0.108387164771557
vertex 0.0575483366847038 -6.94377660751343 0.146379381418228
endloop
endfacet
facet normal -0.707087516784668 0.00417150231078267 -0.707113742828369
outer loop
vertex 0.0977045223116875 -6.94368934631348 0.106225199997425
vertex 0.0575483366847038 -6.94377660751343 0.146379381418228
vertex 0.098731130361557 -6.4031982421875 0.108387164771557
endloop
endfacet
facet normal -0.707087457180023 0.00417150184512138 -0.707113742828369
outer loop
vertex 0.0575483366847038 -6.94377660751343 0.146379381418228
vertex 0.0977045223116875 -6.94368934631348 0.106225199997425
vertex 0.0621842890977859 -7.52323436737061 0.138325184583664
endloop
endfacet
facet normal -0.707087457180023 0.00417150184512138 -0.707113742828369
outer loop
vertex 0.0966038778424263 -7.52315950393677 0.103907316923141
vertex 0.0621842890977859 -7.52323436737061 0.138325184583664
vertex 0.0977045223116875 -6.94368934631348 0.106225199997425
endloop
endfacet
facet normal -0.707087457180023 0.00417150184512138 -0.707113742828369
outer loop
vertex 0.0621842890977859 -7.52323436737061 0.138325184583664
vertex 0.0966038778424263 -7.52315950393677 0.103907316923141
vertex 0.0668202415108681 -8.10269260406494 0.1302709877491
endloop
endfacet
facet normal -0.707087516784668 0.00417150184512138 -0.707113742828369
outer loop
vertex 0.0955032333731651 -8.10262966156006 0.101589426398277
vertex 0.0668202415108681 -8.10269260406494 0.1302709877491
vertex 0.0966038778424263 -7.52315950393677 0.103907316923141
endloop
endfacet
facet normal -0.707087516784668 0.00417150184512138 -0.707113742828369
outer loop
vertex 0.0668202415108681 -8.10269260406494 0.1302709877491
vertex 0.0955032333731651 -8.10262966156006 0.101589426398277
vertex 0.0714561939239502 -8.68214988708496 0.122216790914536
endloop
endfacet
facet normal -0.707087516784668 0.00417150231078267 -0.707113742828369
outer loop
vertex 0.0944025814533234 -8.68210029602051 0.0992715433239937
vertex 0.0714561939239502 -8.68214988708496 0.122216790914536
vertex 0.0955032333731651 -8.10262966156006 0.101589426398277
endloop
endfacet
facet normal -0.707087516784668 0.00417150231078267 -0.707113742828369
outer loop
vertex 0.0944025814533234 -8.68210029602051 0.0992715433239937
vertex 0.0933019369840622 -9.26157093048096 0.0969536602497101
vertex 0.0714561939239502 -8.68214988708496 0.122216790914536
endloop
endfacet
facet normal -0.707087457180023 0.00417150184512138 -0.707113742828369
outer loop
vertex 0.0760921463370323 -9.2616081237793 0.114162594079971
vertex 0.0714561939239502 -8.68214988708496 0.122216790914536
vertex 0.0933019369840622 -9.26157093048096 0.0969536602497101
endloop
endfacet
facet normal -0.707087457180023 0.00417150184512138 -0.707113742828369
outer loop
vertex 0.0933019369840622 -9.26157093048096 0.0969536602497101
vertex 0.092201292514801 -9.84104156494141 0.0946357697248459
vertex 0.0760921463370323 -9.2616081237793 0.114162594079971
endloop
endfacet
facet normal -0.707087516784668 0.00417150231078267 -0.707113742828369
outer loop
vertex 0.0807280987501144 -9.84106636047363 0.106108397245407
vertex 0.0760921463370323 -9.2616081237793 0.114162594079971
vertex 0.092201292514801 -9.84104156494141 0.0946357697248459
endloop
endfacet
facet normal -0.707087516784668 0.00417150231078267 -0.707113742828369
outer loop
vertex 0.092201292514801 -9.84104156494141 0.0946357697248459
vertex 0.0911006480455399 -10.4205112457275 0.0923178866505623
vertex 0.0807280987501144 -9.84106636047363 0.106108397245407
endloop
endfacet
facet normal -0.707087516784668 0.00417150231078267 -0.707113742828369
outer loop
vertex 0.0853640511631966 -10.4205236434937 0.0980542004108429
vertex 0.0807280987501144 -9.84106636047363 0.106108397245407
vertex 0.0911006480455399 -10.4205112457275 0.0923178866505623
endloop
endfacet
facet normal -0.707087516784668 0.00417150231078267 -0.707113742828369
outer loop
vertex 0.0911006480455399 -10.4205112457275 0.0923178866505623
vertex 0.0900000035762787 -10.999981880188 0.0900000035762787
vertex 0.0853640511631966 -10.4205236434937 0.0980542004108429
endloop
endfacet
facet normal 0.999998211860657 -0.00189939653500915 0
outer loop
vertex 0.0994969829916954 -5.99999094009399 0.109999999403954
vertex 0.0987246483564377 -6.40661001205444 0.108373522758484
vertex 0.0994969829916954 -5.99999094009399 0.0399999991059303
endloop
endfacet
facet normal 0.999998152256012 -0.00189939641859382 4.15831528985169e-16
outer loop
vertex 0.0987246483564377 -6.40661001205444 0.0416264794766903
vertex 0.0994969829916954 -5.99999094009399 0.0399999991059303
vertex 0.0987246483564377 -6.40661001205444 0.108373522758484
endloop
endfacet
facet normal 0.999998152256012 -0.00189939653500915 4.15831555454949e-16
outer loop
vertex 0.0987246483564377 -6.40661001205444 0.0416264794766903
vertex 0.0987246483564377 -6.40661001205444 0.108373522758484
vertex 0.0976913049817085 -6.95064783096313 0.0438026338815689
endloop
endfacet
facet normal 0.999998152256012 -0.0018993963021785 1.95381212120438e-16
outer loop
vertex 0.0976913049817085 -6.95064783096313 0.106197364628315
vertex 0.0976913049817085 -6.95064783096313 0.0438026338815689
vertex 0.0987246483564377 -6.40661001205444 0.108373522758484
endloop
endfacet
facet normal 0.999998152256012 -0.00189939653500915 1.95381225355328e-16
outer loop
vertex 0.0976913049817085 -6.95064783096313 0.0438026338815689
vertex 0.0976913049817085 -6.95064783096313 0.106197364628315
vertex 0.0965707078576088 -7.54062223434448 0.0461625345051289
endloop
endfacet
facet normal 0.999998152256012 -0.0018993963021785 2.11370150139945e-16
outer loop
vertex 0.0965707078576088 -7.54062223434448 0.103837467730045
vertex 0.0965707078576088 -7.54062223434448 0.0461625345051289
vertex 0.0976913049817085 -6.95064783096313 0.106197364628315
endloop
endfacet
facet normal 0.999998152256012 -0.0018993963021785 2.11370150139945e-16
outer loop
vertex 0.0965707078576088 -7.54062223434448 0.103837467730045
vertex 0.0954501107335091 -8.13059616088867 0.101477563381195
vertex 0.0965707078576088 -7.54062223434448 0.0461625345051289
endloop
endfacet
facet normal 0.999998211860657 -0.00189939665142447 1.98352034599144e-16
outer loop
vertex 0.0954501107335091 -8.13059616088867 0.0485224351286888
vertex 0.0965707078576088 -7.54062223434448 0.0461625345051289
vertex 0.0954501107335091 -8.13059616088867 0.101477563381195
endloop
endfacet
facet normal 0.999998211860657 -0.00189939665142447 1.98352034599144e-16
outer loop
vertex 0.0954501107335091 -8.13059616088867 0.0485224351286888
vertex 0.0954501107335091 -8.13059616088867 0.101477563381195
vertex 0.0943295136094093 -8.72057056427002 0.0508823394775391
endloop
endfacet
facet normal 0.999998211860657 -0.00189939653500915 -2.8770953714172e-16
outer loop
vertex 0.0943295136094093 -8.72057056427002 0.0991176590323448
vertex 0.0943295136094093 -8.72057056427002 0.0508823394775391
vertex 0.0954501107335091 -8.13059616088867 0.101477563381195
endloop
endfacet
facet normal 0.999998211860657 -0.00189939653500915 -2.8770953714172e-16
outer loop
vertex 0.0943295136094093 -8.72057056427002 0.0991176590323448
vertex 0.0932089164853096 -9.31054496765137 0.0967577621340752
vertex 0.0943295136094093 -8.72057056427002 0.0508823394775391
endloop
endfacet
facet normal 0.999998211860657 -0.00189939653500915 -6.37830420600828e-16
outer loop
vertex 0.0932089164853096 -9.31054496765137 0.053242240101099
vertex 0.0943295136094093 -8.72057056427002 0.0508823394775391
vertex 0.0932089164853096 -9.31054496765137 0.0967577621340752
endloop
endfacet
facet normal 0.999998211860657 -0.00189939653500915 -6.37830420600828e-16
outer loop
vertex 0.0932089164853096 -9.31054496765137 0.053242240101099
vertex 0.0932089164853096 -9.31054496765137 0.0967577621340752
vertex 0.0920883193612099 -9.90051937103271 0.055602140724659
endloop
endfacet
facet normal 0.999998211860657 -0.00189939676783979 2.7074526715323e-16
outer loop
vertex 0.0920883193612099 -9.90051937103271 0.0943978577852249
vertex 0.0920883193612099 -9.90051937103271 0.055602140724659
vertex 0.0932089164853096 -9.31054496765137 0.0967577621340752
endloop
endfacet
facet normal 0.999998152256012 -0.00189939653500915 2.7074524068345e-16
outer loop
vertex 0.0920883193612099 -9.90051937103271 0.0943978577852249
vertex 0.0910364836454391 -10.454291343689 0.0921827629208565
vertex 0.0920883193612099 -9.90051937103271 0.055602140724659
endloop
endfacet
facet normal 0.999998152256012 -0.00189939641859382 -5.02007893415213e-16
outer loop
vertex 0.0910364836454391 -10.454291343689 0.0578172355890274
vertex 0.0920883193612099 -9.90051937103271 0.055602140724659
vertex 0.0910364836454391 -10.454291343689 0.0921827629208565
endloop
endfacet
facet normal 0.999998211860657 -0.00189939665142447 -5.02007946354772e-16
outer loop
vertex 0.0910364836454391 -10.454291343689 0.0578172355890274
vertex 0.0910364836454391 -10.454291343689 0.0921827629208565
vertex 0.0903793200850487 -10.8002758026123 0.0592011734843254
endloop
endfacet
facet normal 0.999998211860657 -0.00189939676783979 0
outer loop
vertex 0.0903793200850487 -10.8002758026123 0.0907988250255585
vertex 0.0903793200850487 -10.8002758026123 0.0592011734843254
vertex 0.0910364836454391 -10.454291343689 0.0921827629208565
endloop
endfacet
facet normal 0.999998211860657 -0.00189939653500915 0
outer loop
vertex 0.0903793200850487 -10.8002758026123 0.0592011734843254
vertex 0.0903793200850487 -10.8002758026123 0.0907988250255585
vertex 0.0900000035762787 -10.999981880188 0.0599999986588955
endloop
endfacet
facet normal 0.999998211860657 -0.00189939665142447 0
outer loop
vertex 0.0900000035762787 -10.999981880188 0.0900000035762787
vertex 0.0900000035762787 -10.999981880188 0.0599999986588955
vertex 0.0903793200850487 -10.8002758026123 0.0907988250255585
endloop
endfacet
endsolid COMSOL mesh mesh1
