solid COMSOL mesh mesh1
facet normal -0.0701068714261055 0.997539520263672 0
outer loop
vertex 0 0 0.150000005960464
vertex 0 0 0
vertex -0.74337899684906 -0.052244521677494 0.151490420103073
endloop
endfacet
facet normal -0.0701068639755249 0.997539460659027 -4.524631959423e-17
outer loop
vertex -0.74337899684906 -0.052244521677494 -0.00149042520206422
vertex -0.74337899684906 -0.052244521677494 0.151490420103073
vertex 0 0 0
endloop
endfacet
facet normal -0.0701068639755249 0.997539520263672 -4.52463229029525e-17
outer loop
vertex -0.74337899684906 -0.052244521677494 -0.00149042520206422
vertex -1.56449735164642 -0.109952539205551 -0.00313671259209514
vertex -0.74337899684906 -0.052244521677494 0.151490420103073
endloop
endfacet
facet normal -0.0701068639755249 0.997539460659027 -9.77583819308891e-17
outer loop
vertex -1.56449735164642 -0.109952539205551 0.153136715292931
vertex -0.74337899684906 -0.052244521677494 0.151490420103073
vertex -1.56449735164642 -0.109952539205551 -0.00313671259209514
endloop
endfacet
facet normal -0.0701068639755249 0.997539460659027 -9.77583951657789e-17
outer loop
vertex -1.56449735164642 -0.109952539205551 0.153136715292931
vertex -1.56449735164642 -0.109952539205551 -0.00313671259209514
vertex -2.41829323768616 -0.169957146048546 0.154848515987396
endloop
endfacet
facet normal -0.0701068714261055 0.997539579868317 1.12260373463826e-16
outer loop
vertex -2.41829323768616 -0.169957146048546 -0.00484851654618979
vertex -2.41829323768616 -0.169957146048546 0.154848515987396
vertex -1.56449735164642 -0.109952539205551 -0.00313671259209514
endloop
endfacet
facet normal -0.0701068639755249 0.997539460659027 -1.29555131885534e-16
outer loop
vertex -3.28960704803467 -0.231192886829376 0.156595438718796
vertex -2.41829323768616 -0.169957146048546 0.154848515987396
vertex -3.28960704803467 -0.231192886829376 -0.00659544253721833
endloop
endfacet
facet normal -0.0701068639755249 0.997539460659027 1.12260373463826e-16
outer loop
vertex -2.41829323768616 -0.169957146048546 -0.00484851654618979
vertex -3.28960704803467 -0.231192886829376 -0.00659544253721833
vertex -2.41829323768616 -0.169957146048546 0.154848515987396
endloop
endfacet
facet normal -0.0701068639755249 0.997539460659027 -1.29555131885534e-16
outer loop
vertex -3.28960704803467 -0.231192886829376 0.156595438718796
vertex -3.28960704803467 -0.231192886829376 -0.00659544253721833
vertex -4.16356039047241 -0.292614132165909 0.15834766626358
endloop
endfacet
facet normal -0.0701068639755249 0.997539460659027 2.4809955014081e-16
outer loop
vertex -4.16356039047241 -0.292614132165909 -0.00834765937179327
vertex -4.16356039047241 -0.292614132165909 0.15834766626358
vertex -3.28960704803467 -0.231192886829376 -0.00659544253721833
endloop
endfacet
facet normal -0.0701068639755249 0.997539401054382 2.4809955014081e-16
outer loop
vertex -4.16356039047241 -0.292614132165909 0.15834766626358
vertex -4.16356039047241 -0.292614132165909 -0.00834765937179327
vertex -4.98769760131836 -0.350534319877625 0.159999996423721
endloop
endfacet
facet normal -0.0701068639755249 0.997539520263672 0
outer loop
vertex -4.98769760131836 -0.350534319877625 -0.00999999977648258
vertex -4.98769760131836 -0.350534319877625 0.159999996423721
vertex -4.16356039047241 -0.292614132165909 -0.00834765937179327
endloop
endfacet
facet normal 0.000174819739186205 0.0260307267308235 0.999661147594452
outer loop
vertex -4.47685813903809 -0.83333420753479 0.172482550144196
vertex -4.46043634414673 -0.815972149372101 0.172027587890625
vertex -4.98769760131836 -0.350534319877625 0.159999996423721
endloop
endfacet
facet normal 0.000174819739186205 0.0260307267308235 0.999661147594452
outer loop
vertex -4.47685813903809 -0.83333420753479 0.172482550144196
vertex -3.96601891517639 -1.31613409519196 0.184965118765831
vertex -4.46043634414673 -0.815972149372101 0.172027587890625
endloop
endfacet
facet normal 0.000174819739186205 0.0260307267308235 0.999661147594452
outer loop
vertex -3.96601891517639 -1.31613409519196 0.184965118765831
vertex -3.93317532539368 -1.28140997886658 0.184055164456367
vertex -4.46043634414673 -0.815972149372101 0.172027587890625
endloop
endfacet
facet normal 0.000174819739186205 0.0260307267308235 0.999661147594452
outer loop
vertex -3.96601891517639 -1.31613409519196 0.184965118765831
vertex -3.4551796913147 -1.79893398284912 0.197447672486305
vertex -3.93317532539368 -1.28140997886658 0.184055164456367
endloop
endfacet
facet normal 0.000174819739186205 0.0260307248681784 0.999661087989807
outer loop
vertex -3.40591430664063 -1.74684774875641 0.196082755923271
vertex -3.93317532539368 -1.28140997886658 0.184055164456367
vertex -3.4551796913147 -1.79893398284912 0.197447672486305
endloop
endfacet
facet normal 0.000174819739186205 0.0260307248681784 0.999661087989807
outer loop
vertex -3.4551796913147 -1.79893398284912 0.197447672486305
vertex -2.944340467453 -2.28173398971558 0.209930226206779
vertex -3.40591430664063 -1.74684774875641 0.196082755923271
endloop
endfacet
facet normal 0.000174819739186205 0.0260307267308235 0.999661147594452
outer loop
vertex -2.87865328788757 -2.21228551864624 0.208110332489014
vertex -3.40591430664063 -1.74684774875641 0.196082755923271
vertex -2.944340467453 -2.28173398971558 0.209930226206779
endloop
endfacet
facet normal 0.000174819739186205 0.0260307267308235 0.999661147594452
outer loop
vertex -2.944340467453 -2.28173398971558 0.209930226206779
vertex -2.43350124359131 -2.76453375816345 0.222412794828415
vertex -2.87865328788757 -2.21228551864624 0.208110332489014
endloop
endfacet
facet normal 0.00017481975373812 0.0260307285934687 0.999661147594452
outer loop
vertex -2.35139226913452 -2.67772340774536 0.220137923955917
vertex -2.87865328788757 -2.21228551864624 0.208110332489014
vertex -2.43350124359131 -2.76453375816345 0.222412794828415
endloop
endfacet
facet normal 0.00017481975373812 0.0260307285934687 0.999661147594452
outer loop
vertex -2.43350124359131 -2.76453375816345 0.222412794828415
vertex -1.90769839286804 -3.26147603988647 0.235260993242264
vertex -2.35139226913452 -2.67772340774536 0.220137923955917
endloop
endfacet
facet normal 0.000174819739186205 0.0260307267308235 0.999661087989807
outer loop
vertex -1.80869925022125 -3.15678381919861 0.232517540454865
vertex -2.35139226913452 -2.67772340774536 0.220137923955917
vertex -1.90769839286804 -3.26147603988647 0.235260993242264
endloop
endfacet
facet normal 0.00017481975373812 0.0260307267308235 0.999661087989807
outer loop
vertex -1.90769839286804 -3.26147603988647 0.235260993242264
vertex -1.35441434383392 -3.78439092636108 0.248780697584152
vertex -1.80869925022125 -3.15678381919861 0.232517540454865
endloop
endfacet
facet normal 0.000174819739186205 0.0260307248681784 0.999661087989807
outer loop
vertex -1.23762238025665 -3.66089987754822 0.245544627308846
vertex -1.80869925022125 -3.15678381919861 0.232517540454865
vertex -1.35441434383392 -3.78439092636108 0.248780697584152
endloop
endfacet
facet normal -0.707436084747314 0.0254996493458748 0.706317126750946
outer loop
vertex -0.496841222047806 -0.0110382465645671 -0.497229844331741
vertex -0.49700802564621 -0.0349296182394028 -0.496534377336502
vertex 0 0 0
endloop
endfacet
facet normal -0.707436084747314 0.0254996493458748 0.706317126750946
outer loop
vertex -0.496841222047806 -0.0110382465645671 -0.497229844331741
vertex -0.993682444095612 -0.0220764931291342 -0.994459688663483
vertex -0.49700802564621 -0.0349296182394028 -0.496534377336502
endloop
endfacet
facet normal -0.707436084747314 0.0254996493458748 0.706317126750946
outer loop
vertex -0.993682444095612 -0.0220764931291342 -0.994459688663483
vertex -0.994016051292419 -0.0698592364788055 -0.993068754673004
vertex -0.49700802564621 -0.0349296182394028 -0.496534377336502
endloop
endfacet
facet normal -0.707436084747314 0.0254996493458748 0.706317126750946
outer loop
vertex -0.993682444095612 -0.0220764931291342 -0.994459688663483
vertex -1.49052369594574 -0.0331147387623787 -1.49168956279755
vertex -0.994016051292419 -0.0698592364788055 -0.993068754673004
endloop
endfacet
facet normal -0.707436144351959 0.0254996512085199 0.706317186355591
outer loop
vertex -1.49102413654327 -0.104788862168789 -1.48960316181183
vertex -0.994016051292419 -0.0698592364788055 -0.993068754673004
vertex -1.49052369594574 -0.0331147387623787 -1.49168956279755
endloop
endfacet
facet normal -0.707436144351959 0.0254996512085199 0.706317186355591
outer loop
vertex -1.49052369594574 -0.0331147387623787 -1.49168956279755
vertex -1.98736488819122 -0.0441529862582684 -1.98891937732697
vertex -1.49102413654327 -0.104788862168789 -1.48960316181183
endloop
endfacet
facet normal -0.707436084747314 0.0254996493458748 0.706317126750946
outer loop
vertex -1.98803210258484 -0.139718472957611 -1.98613750934601
vertex -1.49102413654327 -0.104788862168789 -1.48960316181183
vertex -1.98736488819122 -0.0441529862582684 -1.98891937732697
endloop
endfacet
facet normal -0.707436084747314 0.0254996493458748 0.706317126750946
outer loop
vertex -1.98736488819122 -0.0441529862582684 -1.98891937732697
vertex -2.484206199646 -0.0551912300288677 -2.48614907264709
vertex -1.98803210258484 -0.139718472957611 -1.98613750934601
endloop
endfacet
facet normal -0.707436144351959 0.0254996493458748 0.706317186355591
outer loop
vertex -2.48504018783569 -0.174648106098175 -2.4826717376709
vertex -1.98803210258484 -0.139718472957611 -1.98613750934601
vertex -2.484206199646 -0.0551912300288677 -2.48614907264709
endloop
endfacet
facet normal -0.707436084747314 0.0254996512085199 0.706317126750946
outer loop
vertex -2.484206199646 -0.0551912300288677 -2.48614907264709
vertex -2.99559879302979 -0.0665527656674385 -2.9979419708252
vertex -2.48504018783569 -0.174648106098175 -2.4826717376709
endloop
endfacet
facet normal -0.707436144351959 0.0254996512085199 0.706317126750946
outer loop
vertex -2.99659276008606 -0.210599914193153 -2.99373698234558
vertex -2.48504018783569 -0.174648106098175 -2.4826717376709
vertex -2.99559879302979 -0.0665527656674385 -2.9979419708252
endloop
endfacet
facet normal -0.707436144351959 0.0254996512085199 0.706317186355591
outer loop
vertex -2.99559879302979 -0.0665527656674385 -2.9979419708252
vertex -3.53371572494507 -0.0785080268979073 -3.53647971153259
vertex -2.99659276008606 -0.210599914193153 -2.99373698234558
endloop
endfacet
facet normal -0.707436084747314 0.0254996493458748 0.706317126750946
outer loop
vertex -3.53489661216736 -0.248431786894798 -3.53152775764465
vertex -2.99659276008606 -0.210599914193153 -2.99373698234558
vertex -3.53371572494507 -0.0785080268979073 -3.53647971153259
endloop
endfacet
facet normal 0.706647276878357 0.0325398817658424 -0.706817388534546
outer loop
vertex 0.00132010760717094 -0.0299708805978298 -5.99851191509515e-05
vertex -0.136910617351532 -0.0385274700820446 -0.138651356101036
vertex 0 0 0
endloop
endfacet
facet normal 0.706647276878357 0.0325398817658424 -0.706817388534546
outer loop
vertex -0.138472095131874 -0.00307641364634037 -0.138580411672592
vertex 0 0 0
vertex -0.136910617351532 -0.0385274700820446 -0.138651356101036
endloop
endfacet
facet normal 0.706647276878357 0.0325398854911327 -0.706817388534546
outer loop
vertex -0.369819402694702 -0.00821622181683779 -0.370108664035797
vertex -0.138472095131874 -0.00307641364634037 -0.138580411672592
vertex -0.367854624986649 -0.052823081612587 -0.370197951793671
endloop
endfacet
facet normal 0.706647276878357 0.0325398817658424 -0.706817388534546
outer loop
vertex -0.136910617351532 -0.0385274700820446 -0.138651356101036
vertex -0.367854624986649 -0.052823081612587 -0.370197951793671
vertex -0.138472095131874 -0.00307641364634037 -0.138580411672592
endloop
endfacet
facet normal 0.706647276878357 0.0325398817658424 -0.706817328929901
outer loop
vertex -0.369819402694702 -0.00821622181683779 -0.370108664035797
vertex -0.367854624986649 -0.052823081612587 -0.370197951793671
vertex -0.756334662437439 -0.0168033726513386 -0.75692617893219
endloop
endfacet
facet normal 0.706647336483002 0.0325398817658424 -0.706817388534546
outer loop
vertex -0.753696084022522 -0.0767069682478905 -0.757046103477478
vertex -0.756334662437439 -0.0168033726513386 -0.75692617893219
vertex -0.367854624986649 -0.052823081612587 -0.370197951793671
endloop
endfacet
facet normal 0.706647276878357 0.0325398817658424 -0.706817388534546
outer loop
vertex -1.2974066734314 -0.0288242883980274 -1.29842150211334
vertex -0.756334662437439 -0.0168033726513386 -0.75692617893219
vertex -1.29382503032684 -0.1101413667202 -1.29858422279358
endloop
endfacet
facet normal 0.706647217273712 0.0325398817658424 -0.706817328929901
outer loop
vertex -0.753696084022522 -0.0767069682478905 -0.757046103477478
vertex -1.29382503032684 -0.1101413667202 -1.29858422279358
vertex -0.756334662437439 -0.0168033726513386 -0.75692617893219
endloop
endfacet
facet normal 0.706647276878357 0.0325398817658424 -0.706817328929901
outer loop
vertex -1.2974066734314 -0.0288242883980274 -1.29842150211334
vertex -1.29382503032684 -0.1101413667202 -1.29858422279358
vertex -1.84360098838806 -0.0409590043127537 -1.84504306316376
endloop
endfacet
facet normal 0.706647276878357 0.0325398854911327 -0.706817388534546
outer loop
vertex -1.83906722068787 -0.143892273306847 -1.8452490568161
vertex -1.84360098838806 -0.0409590043127537 -1.84504306316376
vertex -1.29382503032684 -0.1101413667202 -1.29858422279358
endloop
endfacet
facet normal 0.706647276878357 0.0325398854911327 -0.706817388534546
outer loop
vertex -1.84360098838806 -0.0409590043127537 -1.84504306316376
vertex -1.83906722068787 -0.143892273306847 -1.8452490568161
vertex -2.38979530334473 -0.0530937202274799 -2.39166450500488
endloop
endfacet
facet normal 0.706647276878357 0.0325398817658424 -0.706817328929901
outer loop
vertex -2.3843092918396 -0.177643194794655 -2.39191389083862
vertex -2.38979530334473 -0.0530937202274799 -2.39166450500488
vertex -1.83906722068787 -0.143892273306847 -1.8452490568161
endloop
endfacet
facet normal 0.706647276878357 0.0325398854911327 -0.706817388534546
outer loop
vertex -2.94405770301819 -0.0654076859354973 -2.94636034965515
vertex -2.38979530334473 -0.0530937202274799 -2.39166450500488
vertex -2.93760561943054 -0.211892649531364 -2.94665360450745
endloop
endfacet
facet normal 0.706647276878357 0.0325398817658424 -0.706817388534546
outer loop
vertex -2.3843092918396 -0.177643194794655 -2.39191389083862
vertex -2.93760561943054 -0.211892649531364 -2.94665360450745
vertex -2.38979530334473 -0.0530937202274799 -2.39166450500488
endloop
endfacet
facet normal 0.706647217273712 0.0325398817658424 -0.706817328929901
outer loop
vertex -2.94405770301819 -0.0654076859354973 -2.94636034965515
vertex -2.93760561943054 -0.211892649531364 -2.94665360450745
vertex -3.5340621471405 -0.0785157233476639 -3.53682637214661
endloop
endfacet
facet normal 0.706647217273712 0.0325398817658424 -0.706817328929901
outer loop
vertex -3.52658152580261 -0.248350709676743 -3.53716611862183
vertex -3.5340621471405 -0.0785157233476639 -3.53682637214661
vertex -2.93760561943054 -0.211892649531364 -2.94665360450745
endloop
endfacet
facet normal -0.273622691631317 -0.96183717250824 0
outer loop
vertex -0.638560473918915 -6.56524991989136 0.0599999986588955
vertex -0.450126320123672 -6.61885547637939 0.0572572499513626
vertex -0.638560473918915 -6.56524991989136 0.0900000035762787
endloop
endfacet
facet normal -0.273622661828995 -0.96183705329895 -2.40741434220319e-14
outer loop
vertex -0.450126320123672 -6.61885547637939 0.0927427485585213
vertex -0.638560473918915 -6.56524991989136 0.0900000035762787
vertex -0.450126320123672 -6.61885547637939 0.0572572499513626
endloop
endfacet
facet normal -0.273622661828995 -0.961837112903595 -2.08336935214343e-14
outer loop
vertex -0.13530670106411 -6.70841503143311 0.0526749007403851
vertex -0.13530670106411 -6.70841503143311 0.0973251014947891
vertex -0.450126320123672 -6.61885547637939 0.0572572499513626
endloop
endfacet
facet normal -0.273622661828995 -0.961837112903595 -2.40741434220319e-14
outer loop
vertex -0.450126320123672 -6.61885547637939 0.0927427485585213
vertex -0.450126320123672 -6.61885547637939 0.0572572499513626
vertex -0.13530670106411 -6.70841503143311 0.0973251014947891
endloop
endfacet
facet normal -0.273622661828995 -0.961837112903595 -2.08336935214343e-14
outer loop
vertex -0.13530670106411 -6.70841503143311 0.0526749007403851
vertex 0.390666931867599 -6.8580436706543 0.0450191013514996
vertex -0.13530670106411 -6.70841503143311 0.0973251014947891
endloop
endfacet
facet normal -0.273622691631317 -0.96183717250824 -6.79425388020773e-14
outer loop
vertex 0.390666931867599 -6.8580436706543 0.104980900883675
vertex -0.13530670106411 -6.70841503143311 0.0973251014947891
vertex 0.390666931867599 -6.8580436706543 0.0450191013514996
endloop
endfacet
facet normal -0.273622661828995 -0.961837112903595 3.73214744428096e-15
outer loop
vertex 1.12696301937103 -7.06750440597534 0.0343019589781761
vertex 1.12696301937103 -7.06750440597534 0.115698039531708
vertex 0.390666931867599 -6.8580436706543 0.0450191013514996
endloop
endfacet
facet normal -0.273622661828995 -0.961837112903595 -6.79425320258137e-14
outer loop
vertex 0.390666931867599 -6.8580436706543 0.104980900883675
vertex 0.390666931867599 -6.8580436706543 0.0450191013514996
vertex 1.12696301937103 -7.06750440597534 0.115698039531708
endloop
endfacet
facet normal -0.273622691631317 -0.96183717250824 3.73214786779743e-15
outer loop
vertex 1.12696301937103 -7.06750440597534 0.0343019589781761
vertex 1.87022948265076 -7.27894830703735 0.0234833601862192
vertex 1.12696301937103 -7.06750440597534 0.115698039531708
endloop
endfacet
facet normal -0.273622661828995 -0.961837112903595 -1.30445945318853e-14
outer loop
vertex 1.87022948265076 -7.27894830703735 0.12651664018631
vertex 1.12696301937103 -7.06750440597534 0.115698039531708
vertex 1.87022948265076 -7.27894830703735 0.0234833601862192
endloop
endfacet
facet normal -0.273622661828995 -0.961837112903595 -1.30445945318853e-14
outer loop
vertex 1.87022948265076 -7.27894830703735 0.0234833601862192
vertex 2.61349582672119 -7.49039220809937 0.0126647613942623
vertex 1.87022948265076 -7.27894830703735 0.12651664018631
endloop
endfacet
facet normal -0.273622661828995 -0.96183717250824 9.74672447955169e-16
outer loop
vertex 2.61349582672119 -7.49039220809937 0.137335240840912
vertex 1.87022948265076 -7.27894830703735 0.12651664018631
vertex 2.61349582672119 -7.49039220809937 0.0126647613942623
endloop
endfacet
facet normal -0.273622661828995 -0.961837112903595 4.14359708654152e-15
outer loop
vertex 3.36774134635925 -7.70495939254761 0.00168635696172714
vertex 3.36774134635925 -7.70495939254761 0.148313641548157
vertex 2.61349582672119 -7.49039220809937 0.0126647613942623
endloop
endfacet
facet normal -0.273622661828995 -0.96183717250824 9.74672447955169e-16
outer loop
vertex 2.61349582672119 -7.49039220809937 0.137335240840912
vertex 2.61349582672119 -7.49039220809937 0.0126647613942623
vertex 3.36774134635925 -7.70495939254761 0.148313641548157
endloop
endfacet
facet normal -0.273622661828995 -0.961837112903595 4.14359666302505e-15
outer loop
vertex 3.36774134635925 -7.70495939254761 0.00168635696172714
vertex 4.17062520980835 -7.93336296081543 -0.00999999977648258
vertex 3.36774134635925 -7.70495939254761 0.148313641548157
endloop
endfacet
facet normal -0.273622691631317 -0.96183717250824 -0
outer loop
vertex 4.17062520980835 -7.93336296081543 0.159999996423721
vertex 3.36774134635925 -7.70495939254761 0.148313641548157
vertex 4.17062520980835 -7.93336296081543 -0.00999999977648258
endloop
endfacet
facet normal 0.0368221551179886 -0.00944623351097107 0.999277234077454
outer loop
vertex -0.601286947727203 -6.41995477676392 0.0599999986588955
vertex -0.638560473918915 -6.56524991989136 0.0599999986588955
vertex 0.120400227606297 -6.60355520248413 0.0316711142659187
endloop
endfacet
facet normal 0.0368221551179886 -0.00944623351097107 0.999277174472809
outer loop
vertex 0.0823859795928001 -6.75173759460449 0.0316711142659187
vertex 0.120400227606297 -6.60355520248413 0.0316711142659187
vertex -0.638560473918915 -6.56524991989136 0.0599999986588955
endloop
endfacet
facet normal 0.0368221513926983 -0.00944623257964849 0.999277174472809
outer loop
vertex 0.917558252811432 -6.80635595321655 0.000379716628231108
vertex 0.120400227606297 -6.60355520248413 0.0316711142659187
vertex 0.878725826740265 -6.95772743225098 0.000379716628231108
endloop
endfacet
facet normal 0.0368221513926983 -0.00944623257964849 0.999277114868164
outer loop
vertex 0.0823859795928001 -6.75173759460449 0.0316711142659187
vertex 0.878725826740265 -6.95772743225098 0.000379716628231108
vertex 0.120400227606297 -6.60355520248413 0.0316711142659187
endloop
endfacet
facet normal 0.0368221551179886 -0.00944623351097107 0.999277174472809
outer loop
vertex 0.917558252811432 -6.80635595321655 0.000379716628231108
vertex 0.878725826740265 -6.95772743225098 0.000379716628231108
vertex 1.74644041061401 -7.01722717285156 -0.0321569703519344
endloop
endfacet
facet normal 0.0368221588432789 -0.00944623444229364 0.999277234077454
outer loop
vertex 1.70675730705261 -7.17191505432129 -0.0321569703519344
vertex 1.74644041061401 -7.01722717285156 -0.0321569703519344
vertex 0.878725826740265 -6.95772743225098 0.000379716628231108
endloop
endfacet
facet normal 0.0368221551179886 -0.00944623351097107 0.999277234077454
outer loop
vertex 2.59232926368713 -7.23242521286011 -0.0653612315654755
vertex 1.74644041061401 -7.01722717285156 -0.0321569703519344
vertex 2.55177783966064 -7.39049768447876 -0.0653612315654755
endloop
endfacet
facet normal 0.0368221513926983 -0.00944623164832592 0.999277114868164
outer loop
vertex 1.70675730705261 -7.17191505432129 -0.0321569703519344
vertex 2.55177783966064 -7.39049768447876 -0.0653612315654755
vertex 1.74644041061401 -7.01722717285156 -0.0321569703519344
endloop
endfacet
facet normal 0.0368221551179886 -0.00944623351097107 0.999277234077454
outer loop
vertex 2.59232926368713 -7.23242521286011 -0.0653612315654755
vertex 2.55177783966064 -7.39049768447876 -0.0653612315654755
vertex 3.44078040122986 -7.44827508926392 -0.0986660718917847
endloop
endfacet
facet normal 0.0368221551179886 -0.00944623351097107 0.999277174472809
outer loop
vertex 3.39935827255249 -7.60974168777466 -0.0986660718917847
vertex 3.44078040122986 -7.44827508926392 -0.0986660718917847
vertex 2.55177783966064 -7.39049768447876 -0.0653612315654755
endloop
endfacet
facet normal 0.0368221551179886 -0.00944623257964849 0.999277114868164
outer loop
vertex 3.44078040122986 -7.44827508926392 -0.0986660718917847
vertex 3.39935827255249 -7.60974168777466 -0.0986660718917847
vertex 4.24086904525757 -7.65182161331177 -0.130072519183159
endloop
endfacet
facet normal 0.0368221551179886 -0.00944623351097107 0.999277174472809
outer loop
vertex 4.19862604141235 -7.81648921966553 -0.130072519183159
vertex 4.24086904525757 -7.65182161331177 -0.130072519183159
vertex 3.39935827255249 -7.60974168777466 -0.0986660718917847
endloop
endfacet
facet normal -0.203053653240204 -0.677620589733124 -0.706823527812958
outer loop
vertex 0.037544310092926 -6.75758743286133 0.0501623079180717
vertex -0.638560473918915 -6.56524991989136 0.0599999986588955
vertex 0.0419410727918148 -6.74127149581909 0.0332572907209396
endloop
endfacet
facet normal -0.203053653240204 -0.677620589733124 -0.706823527812958
outer loop
vertex 0.037544310092926 -6.75758743286133 0.0501623079180717
vertex 0.0419410727918148 -6.74127149581909 0.0332572907209396
vertex 0.713649094104767 -6.94992542266846 0.0403246134519577
endloop
endfacet
facet normal -0.203053653240204 -0.677620589733124 -0.706823527812958
outer loop
vertex 0.713649094104767 -6.94992542266846 0.0403246134519577
vertex 0.0419410727918148 -6.74127149581909 0.0332572907209396
vertex 0.722442626953125 -6.91729307174683 0.00651458092033863
endloop
endfacet
facet normal -0.203053653240204 -0.677620589733124 -0.706823527812958
outer loop
vertex 0.713649094104767 -6.94992542266846 0.0403246134519577
vertex 0.722442626953125 -6.91729307174683 0.00651458092033863
vertex 1.38975393772125 -7.14226293563843 0.0304869189858437
endloop
endfacet
facet normal -0.203053653240204 -0.677620589733124 -0.706823527812958
outer loop
vertex 1.40294420719147 -7.09331464767456 -0.0202281288802624
vertex 1.38975393772125 -7.14226293563843 0.0304869189858437
vertex 0.722442626953125 -6.91729307174683 0.00651458092033863
endloop
endfacet
facet normal -0.203053653240204 -0.677620589733124 -0.706823527812958
outer loop
vertex 1.38975393772125 -7.14226293563843 0.0304869189858437
vertex 1.40294420719147 -7.09331464767456 -0.0202281288802624
vertex 2.0658586025238 -7.33460092544556 0.0206492245197296
endloop
endfacet
facet normal -0.203053653240204 -0.677620589733124 -0.706823527812958
outer loop
vertex 2.08344578742981 -7.26933670043945 -0.0469708368182182
vertex 2.0658586025238 -7.33460092544556 0.0206492245197296
vertex 1.40294420719147 -7.09331464767456 -0.0202281288802624
endloop
endfacet
facet normal -0.203053653240204 -0.677620589733124 -0.706823527812958
outer loop
vertex 2.0658586025238 -7.33460092544556 0.0206492245197296
vertex 2.08344578742981 -7.26933670043945 -0.0469708368182182
vertex 2.74196338653564 -7.52693843841553 0.0108115309849381
endloop
endfacet
facet normal -0.203053653240204 -0.677620649337769 -0.706823527812958
outer loop
vertex 2.76394724845886 -7.44535827636719 -0.0737135484814644
vertex 2.74196338653564 -7.52693843841553 0.0108115309849381
vertex 2.08344578742981 -7.26933670043945 -0.0469708368182182
endloop
endfacet
facet normal -0.203053638339043 -0.677620589733124 -0.706823527812958
outer loop
vertex 2.74196338653564 -7.52693843841553 0.0108115309849381
vertex 2.76394724845886 -7.44535827636719 -0.0737135484814644
vertex 3.43787288665771 -7.72491025924683 0.000685668142978102
endloop
endfacet
facet normal -0.203053653240204 -0.677620649337769 -0.706823468208313
outer loop
vertex 3.46436619758606 -7.62653207778931 -0.10123897343874
vertex 3.43787288665771 -7.72491025924683 0.000685668142978102
vertex 2.76394724845886 -7.44535827636719 -0.0737135484814644
endloop
endfacet
facet normal -0.203053653240204 -0.677620649337769 -0.706823527812958
outer loop
vertex 3.43787288665771 -7.72491025924683 0.000685668142978102
vertex 3.46436619758606 -7.62653207778931 -0.10123897343874
vertex 4.17015409469604 -7.93322896957397 -0.00996942352503538
endloop
endfacet
facet normal -0.203053653240204 -0.677620649337769 -0.706823587417603
outer loop
vertex 4.20141792297363 -7.81718111038208 -0.130204021930695
vertex 4.17015409469604 -7.93322896957397 -0.00996942352503538
vertex 3.46436619758606 -7.62653207778931 -0.10123897343874
endloop
endfacet
facet normal -0.966251075267792 0.247878834605217 0.0701068639755249
outer loop
vertex -0.601286947727203 -6.41995477676392 0.0900000035762787
vertex -0.638560473918915 -6.56524991989136 0.0900000035762787
vertex -0.550310730934143 -6.43149328231812 0.833379030227661
endloop
endfacet
facet normal -0.966251075267792 0.247878849506378 0.0701068639755249
outer loop
vertex -0.588325023651123 -6.57967567443848 0.833379030227661
vertex -0.550310730934143 -6.43149328231812 0.833379030227661
vertex -0.638560473918915 -6.56524991989136 0.0900000035762787
endloop
endfacet
facet normal -0.966251015663147 0.247878819704056 0.0701068639755249
outer loop
vertex -0.494003683328629 -6.44423818588257 1.65449726581573
vertex -0.550310730934143 -6.43149328231812 0.833379030227661
vertex -0.532836139202118 -6.59561014175415 1.65449726581573
endloop
endfacet
facet normal -0.966251075267792 0.247878849506378 0.0701068639755249
outer loop
vertex -0.588325023651123 -6.57967567443848 0.833379030227661
vertex -0.532836139202118 -6.59561014175415 1.65449726581573
vertex -0.550310730934143 -6.43149328231812 0.833379030227661
endloop
endfacet
facet normal -0.966251015663147 0.247878849506378 0.0701068639755249
outer loop
vertex -0.494003683328629 -6.44423818588257 1.65449726581573
vertex -0.532836139202118 -6.59561014175415 1.65449726581573
vertex -0.435455799102783 -6.45749092102051 2.50829339027405
endloop
endfacet
facet normal -0.966251134872437 0.247878864407539 0.0701068714261055
outer loop
vertex -0.475138962268829 -6.61217880249023 2.50829339027405
vertex -0.435455799102783 -6.45749092102051 2.50829339027405
vertex -0.532836139202118 -6.59561014175415 1.65449726581573
endloop
endfacet
facet normal -0.966251015663147 0.247878849506378 0.0701068714261055
outer loop
vertex -0.375706642866135 -6.47101497650146 3.37960720062256
vertex -0.435455799102783 -6.45749092102051 2.50829339027405
vertex -0.416258007287979 -6.62908744812012 3.37960720062256
endloop
endfacet
facet normal -0.966251075267792 0.247878834605217 0.0701068639755249
outer loop
vertex -0.475138962268829 -6.61217880249023 2.50829339027405
vertex -0.416258007287979 -6.62908744812012 3.37960720062256
vertex -0.435455799102783 -6.45749092102051 2.50829339027405
endloop
endfacet
facet normal -0.966251015663147 0.247878834605217 0.0701068639755249
outer loop
vertex -0.375706642866135 -6.47101497650146 3.37960720062256
vertex -0.416258007287979 -6.62908744812012 3.37960720062256
vertex -0.315776526927948 -6.48458051681519 4.25356006622314
endloop
endfacet
facet normal -0.966251015663147 0.247878819704056 0.0701068565249443
outer loop
vertex -0.357198685407639 -6.64604711532593 4.25356006622314
vertex -0.315776526927948 -6.48458051681519 4.25356006622314
vertex -0.416258007287979 -6.62908744812012 3.37960720062256
endloop
endfacet
facet normal -0.966251015663147 0.247878819704056 0.0701068639755249
outer loop
vertex -0.315776526927948 -6.48458051681519 4.25356006622314
vertex -0.357198685407639 -6.64604711532593 4.25356006622314
vertex -0.259262442588806 -6.4973726272583 5.07769727706909
endloop
endfacet
facet normal -0.966251075267792 0.247878834605217 0.0701068639755249
outer loop
vertex -0.301505774259567 -6.66204023361206 5.07769727706909
vertex -0.259262442588806 -6.4973726272583 5.07769727706909
vertex -0.357198685407639 -6.64604711532593 4.25356006622314
endloop
endfacet
facet normal 0.14411798119545 0.692733466625214 -0.706647336483002
outer loop
vertex -0.572241187095642 -6.42734384536743 0.0886798948049545
vertex -0.601286947727203 -6.41995477676392 0.0900000035762787
vertex -0.52951443195343 -6.29522562026978 0.226910606026649
endloop
endfacet
facet normal 0.14411798119545 0.692733407020569 -0.706647276878357
outer loop
vertex -0.563871145248413 -6.28648519515991 0.228472098708153
vertex -0.52951443195343 -6.29522562026978 0.226910606026649
vertex -0.601286947727203 -6.41995477676392 0.0900000035762787
endloop
endfacet
facet normal 0.144117966294289 0.692733466625214 -0.706647276878357
outer loop
vertex -0.501360058784485 -6.06349611282349 0.459819406270981
vertex -0.458130121231079 -6.07449388504028 0.457854628562927
vertex -0.563871145248413 -6.28648519515991 0.228472098708153
endloop
endfacet
facet normal 0.14411798119545 0.692733407020569 -0.706647276878357
outer loop
vertex -0.52951443195343 -6.29522562026978 0.226910606026649
vertex -0.563871145248413 -6.28648519515991 0.228472098708153
vertex -0.458130121231079 -6.07449388504028 0.457854628562927
endloop
endfacet
facet normal 0.144117966294289 0.692733407020569 -0.706647276878357
outer loop
vertex -0.501360058784485 -6.06349611282349 0.459819406270981
vertex -0.396921843290329 -5.69094514846802 0.846334636211395
vertex -0.458130121231079 -6.07449388504028 0.457854628562927
endloop
endfacet
facet normal 0.14411798119545 0.692733526229858 -0.706647336483002
outer loop
vertex -0.338867366313934 -5.7057147026062 0.843696117401123
vertex -0.458130121231079 -6.07449388504028 0.457854628562927
vertex -0.396921843290329 -5.69094514846802 0.846334636211395
endloop
endfacet
facet normal 0.14411798119545 0.692733407020569 -0.706647276878357
outer loop
vertex -0.250721663236618 -5.16942119598389 1.38740670681
vertex -0.171914711594582 -5.1894702911377 1.38382494449615
vertex -0.396921843290329 -5.69094514846802 0.846334636211395
endloop
endfacet
facet normal 0.14411798119545 0.692733466625214 -0.706647276878357
outer loop
vertex -0.338867366313934 -5.7057147026062 0.843696117401123
vertex -0.396921843290329 -5.69094514846802 0.846334636211395
vertex -0.171914711594582 -5.1894702911377 1.38382494449615
endloop
endfacet
facet normal 0.144117966294289 0.692733407020569 -0.706647276878357
outer loop
vertex -0.250721663236618 -5.16942119598389 1.38740670681
vertex -0.103137440979481 -4.64296054840088 1.93360102176666
vertex -0.171914711594582 -5.1894702911377 1.38382494449615
endloop
endfacet
facet normal 0.14411798119545 0.692733466625214 -0.706647276878357
outer loop
vertex -0.00338154355995357 -4.66833877563477 1.92906725406647
vertex -0.171914711594582 -5.1894702911377 1.38382494449615
vertex -0.103137440979481 -4.64296054840088 1.93360102176666
endloop
endfacet
facet normal 0.14411798119545 0.692733466625214 -0.706647276878357
outer loop
vertex -0.103137440979481 -4.64296054840088 1.93360102176666
vertex 0.0444467775523663 -4.11649942398071 2.47979545593262
vertex -0.00338154355995357 -4.66833877563477 1.92906725406647
endloop
endfacet
facet normal 0.144117966294289 0.692733466625214 -0.706647276878357
outer loop
vertex 0.165151625871658 -4.14720726013184 2.47430944442749
vertex -0.00338154355995357 -4.66833877563477 1.92906725406647
vertex 0.0444467775523663 -4.11649942398071 2.47979545593262
endloop
endfacet
facet normal 0.14411798119545 0.692733466625214 -0.706647276878357
outer loop
vertex 0.194211006164551 -3.58226180076599 3.0340576171875
vertex 0.336174249649048 -3.61837792396545 3.02760553359985
vertex 0.0444467775523663 -4.11649942398071 2.47979545593262
endloop
endfacet
facet normal 0.14411798119545 0.692733466625214 -0.706647276878357
outer loop
vertex 0.165151625871658 -4.14720726013184 2.47430944442749
vertex 0.0444467775523663 -4.11649942398071 2.47979545593262
vertex 0.336174249649048 -3.61837792396545 3.02760553359985
endloop
endfacet
facet normal 0.144117966294289 0.692733466625214 -0.706647276878357
outer loop
vertex 0.194211006164551 -3.58226180076599 3.0340576171875
vertex 0.353632926940918 -3.01357340812683 3.62406206130981
vertex 0.336174249649048 -3.61837792396545 3.02760553359985
endloop
endfacet
facet normal 0.144117966294289 0.692733407020569 -0.706647217273712
outer loop
vertex 0.518225431442261 -3.05544638633728 3.61658143997192
vertex 0.336174249649048 -3.61837792396545 3.02760553359985
vertex 0.353632926940918 -3.01357340812683 3.62406206130981
endloop
endfacet
facet normal -0.200212761759758 -0.677826642990112 0.707436084747314
outer loop
vertex -0.467038154602051 -5.94106340408325 0.586841225624084
vertex -0.601286947727203 -6.41995477676392 0.0900000035762787
vertex -0.444068968296051 -5.94767379760742 0.587008059024811
endloop
endfacet
facet normal -0.200212761759758 -0.677826642990112 0.707436084747314
outer loop
vertex -0.467038154602051 -5.94106340408325 0.586841225624084
vertex -0.444068968296051 -5.94767379760742 0.587008059024811
vertex -0.332789361476898 -5.46217250823975 1.08368241786957
endloop
endfacet
facet normal -0.200212761759758 -0.677826642990112 0.707436084747314
outer loop
vertex -0.332789361476898 -5.46217250823975 1.08368241786957
vertex -0.444068968296051 -5.94767379760742 0.587008059024811
vertex -0.286850988864899 -5.47539329528809 1.08401608467102
endloop
endfacet
facet normal -0.200212761759758 -0.677826642990112 0.707436084747314
outer loop
vertex -0.332789361476898 -5.46217250823975 1.08368241786957
vertex -0.286850988864899 -5.47539329528809 1.08401608467102
vertex -0.198540568351746 -4.98328161239624 1.58052372932434
endloop
endfacet
facet normal -0.200212761759758 -0.677826702594757 0.707436144351959
outer loop
vertex -0.129633009433746 -5.00311279296875 1.58102405071259
vertex -0.198540568351746 -4.98328161239624 1.58052372932434
vertex -0.286850988864899 -5.47539329528809 1.08401608467102
endloop
endfacet
facet normal -0.200212761759758 -0.677826702594757 0.707436144351959
outer loop
vertex -0.198540568351746 -4.98328161239624 1.58052372932434
vertex -0.129633009433746 -5.00311279296875 1.58102405071259
vertex -0.0642917826771736 -4.50439023971558 2.07736492156982
endloop
endfacet
facet normal -0.200212761759758 -0.677826642990112 0.707436084747314
outer loop
vertex 0.0275849774479866 -4.53083229064941 2.07803201675415
vertex -0.0642917826771736 -4.50439023971558 2.07736492156982
vertex -0.129633009433746 -5.00311279296875 1.58102405071259
endloop
endfacet
facet normal -0.200212761759758 -0.677826642990112 0.707436084747314
outer loop
vertex -0.0642917826771736 -4.50439023971558 2.07736492156982
vertex 0.0275849774479866 -4.53083229064941 2.07803201675415
vertex 0.069957010447979 -4.02549934387207 2.57420611381531
endloop
endfacet
facet normal -0.200212746858597 -0.677826702594757 0.707436144351959
outer loop
vertex 0.18480296432972 -4.05855131149292 2.575040102005
vertex 0.069957010447979 -4.02549934387207 2.57420611381531
vertex 0.0275849774479866 -4.53083229064941 2.07803201675415
endloop
endfacet
facet normal -0.200212746858597 -0.677826702594757 0.707436084747314
outer loop
vertex 0.069957010447979 -4.02549934387207 2.57420611381531
vertex 0.18480296432972 -4.05855131149292 2.575040102005
vertex 0.208137691020966 -3.5325825214386 3.08559894561768
endloop
endfacet
facet normal -0.200212776660919 -0.677826642990112 0.707436144351959
outer loop
vertex 0.346621811389923 -3.57244992256165 3.08659267425537
vertex 0.208137691020966 -3.5325825214386 3.08559894561768
vertex 0.18480296432972 -4.05855131149292 2.575040102005
endloop
endfacet
facet normal -0.200212776660919 -0.677826642990112 0.707436144351959
outer loop
vertex 0.208137691020966 -3.5325825214386 3.08559894561768
vertex 0.346621811389923 -3.57244992256165 3.08659267425537
vertex 0.353539377450943 -3.01390719413757 3.62371587753296
endloop
endfacet
facet normal -0.200212761759758 -0.677826642990112 0.707436084747314
outer loop
vertex 0.516902804374695 -3.06092810630798 3.62489652633667
vertex 0.353539377450943 -3.01390719413757 3.62371587753296
vertex 0.346621811389923 -3.57244992256165 3.08659267425537
endloop
endfacet
facet normal -0.273620307445526 -0.961837828159332 -0.00017481975373812
outer loop
vertex 2.88377118110657 -7.56749534606934 1.32762241363525
vertex 3.00258469581604 -7.60131645202637 1.44441425800323
vertex 2.39870405197144 -7.4296088218689 1.89869928359985
endloop
endfacet
facet normal -0.273620307445526 -0.961837828159332 -0.00017481975373812
outer loop
vertex 2.49943089485168 -7.45828151702881 1.99769830703735
vertex 2.39870405197144 -7.4296088218689 1.89869928359985
vertex 3.00258469581604 -7.60131645202637 1.44441425800323
endloop
endfacet
facet normal -0.273620307445526 -0.961837768554688 -0.00017481975373812
outer loop
vertex 2.39870405197144 -7.4296088218689 1.89869928359985
vertex 2.49943089485168 -7.45828151702881 1.99769830703735
vertex 1.93774580955505 -7.29857587814331 2.44139242172241
endloop
endfacet
facet normal -0.273620277643204 -0.961837768554688 -0.000174819739186205
outer loop
vertex 2.02126812934875 -7.32235097885132 2.52350115776062
vertex 1.93774580955505 -7.29857587814331 2.44139242172241
vertex 2.49943089485168 -7.45828151702881 1.99769830703735
endloop
endfacet
facet normal -0.273620307445526 -0.961837768554688 -0.00017481975373812
outer loop
vertex 1.93774580955505 -7.29857587814331 2.44139242172241
vertex 2.02126812934875 -7.32235097885132 2.52350115776062
vertex 1.4898955821991 -7.17126893997192 2.96865344047546
endloop
endfacet
facet normal -0.273620307445526 -0.961837828159332 -0.000174819768290035
outer loop
vertex 1.55671346187592 -7.19028902053833 3.03434038162231
vertex 1.4898955821991 -7.17126893997192 2.96865344047546
vertex 2.02126812934875 -7.32235097885132 2.52350115776062
endloop
endfacet
facet normal -0.273620307445526 -0.961837828159332 -0.000174819768290035
outer loop
vertex 1.4898955821991 -7.17126893997192 2.96865344047546
vertex 1.55671346187592 -7.19028902053833 3.03434038162231
vertex 1.04204523563385 -7.04396152496338 3.49591445922852
endloop
endfacet
facet normal -0.273620337247849 -0.961837828159332 -0.00017481975373812
outer loop
vertex 1.0921585559845 -7.05822658538818 3.54517960548401
vertex 1.04204523563385 -7.04396152496338 3.49591445922852
vertex 1.55671346187592 -7.19028902053833 3.03434038162231
endloop
endfacet
facet normal -0.273620337247849 -0.961837828159332 -0.00017481975373812
outer loop
vertex 1.04204523563385 -7.04396152496338 3.49591445922852
vertex 1.0921585559845 -7.05822658538818 3.54517960548401
vertex 0.594194889068604 -6.91665458679199 4.02317523956299
endloop
endfacet
facet normal -0.273620307445526 -0.961837828159332 -0.000174819768290035
outer loop
vertex 0.627603828907013 -6.9261646270752 4.0560188293457
vertex 0.594194889068604 -6.91665458679199 4.02317523956299
vertex 1.0921585559845 -7.05822658538818 3.54517960548401
endloop
endfacet
facet normal -0.273620307445526 -0.961837828159332 -0.000174819768290035
outer loop
vertex 0.627603828907013 -6.9261646270752 4.0560188293457
vertex 0.146344542503357 -6.78934764862061 4.55043649673462
vertex 0.594194889068604 -6.91665458679199 4.02317523956299
endloop
endfacet
facet normal -0.273620307445526 -0.961837828159332 -0.000174819768290035
outer loop
vertex 0.163049012422562 -6.79410266876221 4.56685829162598
vertex 0.146344542503357 -6.78934764862061 4.55043649673462
vertex 0.627603828907013 -6.9261646270752 4.0560188293457
endloop
endfacet
facet normal -0.273620307445526 -0.961837828159332 -0.000174819768290035
outer loop
vertex 0.163049012422562 -6.79410266876221 4.56685829162598
vertex -0.301505774259567 -6.66204023361206 5.07769727706909
vertex 0.146344542503357 -6.78934764862061 4.55043649673462
endloop
endfacet
facet normal -1 0 0
outer loop
vertex -0.190209999680519 -5 -0.00999999977648258
vertex -0.190209999680519 -6 -0.00999999977648258
vertex -0.190209999680519 -5 0.159999996423721
endloop
endfacet
facet normal -1 0 0
outer loop
vertex -0.190209999680519 -6 0.159999996423721
vertex -0.190209999680519 -5 0.159999996423721
vertex -0.190209999680519 -6 -0.00999999977648258
endloop
endfacet
facet normal -0.70710676908493 -0 -0.70710676908493
outer loop
vertex -0.0700000002980232 -5 -0.130209997296333
vertex -0.0700000002980232 -6 -0.130209997296333
vertex -0.190209999680519 -5 -0.00999999977648258
endloop
endfacet
facet normal -0.70710676908493 0 -0.70710676908493
outer loop
vertex -0.190209999680519 -6 -0.00999999977648258
vertex -0.190209999680519 -5 -0.00999999977648258
vertex -0.0700000002980232 -6 -0.130209997296333
endloop
endfacet
facet normal -0.70710676908493 0 0.70710676908493
outer loop
vertex -0.0700000002980232 -6 0.280209988355637
vertex -0.0700000002980232 -5 0.280209988355637
vertex -0.190209999680519 -6 0.159999996423721
endloop
endfacet
facet normal -0.70710676908493 0 0.70710676908493
outer loop
vertex -0.190209999680519 -5 0.159999996423721
vertex -0.190209999680519 -6 0.159999996423721
vertex -0.0700000002980232 -5 0.280209988355637
endloop
endfacet
facet normal -0 -0 -1
outer loop
vertex 0.100000001490116 -5 -0.130209997296333
vertex 0.100000001490116 -6 -0.130209997296333
vertex -0.0700000002980232 -5 -0.130209997296333
endloop
endfacet
facet normal 0 0 -1
outer loop
vertex -0.0700000002980232 -6 -0.130209997296333
vertex -0.0700000002980232 -5 -0.130209997296333
vertex 0.100000001490116 -6 -0.130209997296333
endloop
endfacet
facet normal 0 -0 1
outer loop
vertex 0.100000001490116 -6 0.280209988355637
vertex 0.100000001490116 -5 0.280209988355637
vertex -0.0700000002980232 -6 0.280209988355637
endloop
endfacet
facet normal -0 0 1
outer loop
vertex -0.0700000002980232 -5 0.280209988355637
vertex -0.0700000002980232 -6 0.280209988355637
vertex 0.100000001490116 -5 0.280209988355637
endloop
endfacet
facet normal 0.70710676908493 0 -0.70710676908493
outer loop
vertex 0.100000001490116 -6 -0.130209997296333
vertex 0.100000001490116 -5 -0.130209997296333
vertex 0.220210000872612 -6 -0.00999999977648258
endloop
endfacet
facet normal 0.70710676908493 0 -0.70710676908493
outer loop
vertex 0.220210000872612 -5 -0.00999999977648258
vertex 0.220210000872612 -6 -0.00999999977648258
vertex 0.100000001490116 -5 -0.130209997296333
endloop
endfacet
facet normal 0.70710676908493 -0 0.70710676908493
outer loop
vertex 0.220210000872612 -6 0.159999996423721
vertex 0.220210000872612 -5 0.159999996423721
vertex 0.100000001490116 -6 0.280209988355637
endloop
endfacet
facet normal 0.70710676908493 0 0.70710676908493
outer loop
vertex 0.100000001490116 -5 0.280209988355637
vertex 0.100000001490116 -6 0.280209988355637
vertex 0.220210000872612 -5 0.159999996423721
endloop
endfacet
facet normal 1 0 0
outer loop
vertex 0.220210000872612 -6 -0.00999999977648258
vertex 0.220210000872612 -5 -0.00999999977648258
vertex 0.220210000872612 -6 0.159999996423721
endloop
endfacet
facet normal 1 0 0
outer loop
vertex 0.220210000872612 -5 0.159999996423721
vertex 0.220210000872612 -6 0.159999996423721
vertex 0.220210000872612 -5 -0.00999999977648258
endloop
endfacet
facet normal -0 0.0260331723839045 0.999661028385162
outer loop
vertex -0.0700000002980232 -4.99830532073975 0.280165880918503
vertex 0.100000001490116 -4.99830532073975 0.280165880918503
vertex -0.0583136416971684 -4.16384840011597 0.258434951305389
endloop
endfacet
facet normal 6.30747954612361e-16 0.0260331723839045 0.999661087989807
outer loop
vertex 0.0883136466145515 -4.16384840011597 0.258434951305389
vertex -0.0583136416971684 -4.16384840011597 0.258434951305389
vertex 0.100000001490116 -4.99830532073975 0.280165880918503
endloop
endfacet
facet normal 6.30748007551921e-16 0.0260331761091948 0.999661087989807
outer loop
vertex -0.0583136416971684 -4.16384840011597 0.258434951305389
vertex 0.0883136466145515 -4.16384840011597 0.258434951305389
vertex -0.0473352372646332 -3.37994265556335 0.238020464777946
endloop
endfacet
facet normal 9.27328758978252e-17 0.0260331723839045 0.999661087989807
outer loop
vertex 0.0773352384567261 -3.37994265556335 0.238020464777946
vertex -0.0473352372646332 -3.37994265556335 0.238020464777946
vertex 0.0883136466145515 -4.16384840011597 0.258434951305389
endloop
endfacet
facet normal 9.27328758978252e-17 0.0260331742465496 0.999661087989807
outer loop
vertex 0.0773352384567261 -3.37994265556335 0.238020464777946
vertex 0.066516637802124 -2.60744738578796 0.217903152108192
vertex -0.0473352372646332 -3.37994265556335 0.238020464777946
endloop
endfacet
facet normal -3.36620898815548e-16 0.0260331723839045 0.999661087989807
outer loop
vertex -0.0365166403353214 -2.60744738578796 0.217903152108192
vertex -0.0473352372646332 -3.37994265556335 0.238020464777946
vertex 0.066516637802124 -2.60744738578796 0.217903152108192
endloop
endfacet
facet normal -3.36620898815548e-16 0.0260331723839045 0.999661087989807
outer loop
vertex -0.0365166403353214 -2.60744738578796 0.217903152108192
vertex 0.066516637802124 -2.60744738578796 0.217903152108192
vertex -0.0256980396807194 -1.83495223522186 0.197785824537277
endloop
endfacet
facet normal 1.84636122728484e-16 0.0260331761091948 0.999661087989807
outer loop
vertex 0.0556980408728123 -1.83495223522186 0.197785824537277
vertex -0.0256980396807194 -1.83495223522186 0.197785824537277
vertex 0.066516637802124 -2.60744738578796 0.217903152108192
endloop
endfacet
facet normal 1.84636122728484e-16 0.0260331723839045 0.999661087989807
outer loop
vertex 0.0556980408728123 -1.83495223522186 0.197785824537277
vertex 0.0449808984994888 -1.06970143318176 0.177857160568237
vertex -0.0256980396807194 -1.83495223522186 0.197785824537277
endloop
endfacet
facet normal -1.92866176085415e-17 0.0260331742465496 0.999661087989807
outer loop
vertex -0.0149808982387185 -1.06970143318176 0.177857160568237
vertex -0.0256980396807194 -1.83495223522186 0.197785824537277
vertex 0.0449808984994888 -1.06970143318176 0.177857160568237
endloop
endfacet
facet normal -1.9286620917264e-17 0.0260331761091948 0.999661087989807
outer loop
vertex -0.0149808982387185 -1.06970143318176 0.177857160568237
vertex 0.0449808984994888 -1.06970143318176 0.177857160568237
vertex -0.00732509978115559 -0.523044109344482 0.163621112704277
endloop
endfacet
facet normal 0 0.0260331742465496 0.999661087989807
outer loop
vertex 0.0373250991106033 -0.523044109344482 0.163621112704277
vertex -0.00732509978115559 -0.523044109344482 0.163621112704277
vertex 0.0449808984994888 -1.06970143318176 0.177857160568237
endloop
endfacet
facet normal 0 0.0260331742465496 0.999661087989807
outer loop
vertex 0.0373250991106033 -0.523044109344482 0.163621112704277
vertex 0.0327427498996258 -0.195844277739525 0.155100181698799
vertex -0.00732509978115559 -0.523044109344482 0.163621112704277
endloop
endfacet
facet normal -8.1449126490977e-17 0.0260331742465496 0.999661087989807
outer loop
vertex -0.00274274940602481 -0.195844277739525 0.155100181698799
vertex -0.00732509978115559 -0.523044109344482 0.163621112704277
vertex 0.0327427498996258 -0.195844277739525 0.155100181698799
endloop
endfacet
facet normal -8.1449126490977e-17 0.0260331742465496 0.999661087989807
outer loop
vertex -0.00274274940602481 -0.195844277739525 0.155100181698799
vertex 0.0327427498996258 -0.195844277739525 0.155100181698799
vertex 0 0 0.150000005960464
endloop
endfacet
facet normal 0 0.0260331723839045 0.999661028385162
outer loop
vertex 0.0299999993294477 0 0.150000005960464
vertex 0 0 0.150000005960464
vertex 0.0327427498996258 -0.195844277739525 0.155100181698799
endloop
endfacet
facet normal -0.999277174472809 -0.038014505058527 -0
outer loop
vertex 0.220072507858276 -4.99638605117798 0.159999996423721
vertex 0.188666075468063 -4.17081308364868 0.15834766626358
vertex 0.220072507858276 -4.99638605117798 -0.00999999977648258
endloop
endfacet
facet normal -0.999277114868164 -0.0380145013332367 -2.02547124089099e-16
outer loop
vertex 0.188666075468063 -4.17081308364868 -0.00834765937179327
vertex 0.220072507858276 -4.99638605117798 -0.00999999977648258
vertex 0.188666075468063 -4.17081308364868 0.15834766626358
endloop
endfacet
facet normal -0.999277174472809 -0.0380145013332367 -2.02547137323989e-16
outer loop
vertex 0.188666075468063 -4.17081308364868 -0.00834765937179327
vertex 0.188666075468063 -4.17081308364868 0.15834766626358
vertex 0.155361235141754 -3.29533743858337 -0.00659544253721833
endloop
endfacet
facet normal -0.999277234077454 -0.0380145013332367 2.22929840381696e-17
outer loop
vertex 0.155361235141754 -3.29533743858337 0.156595438718796
vertex 0.155361235141754 -3.29533743858337 -0.00659544253721833
vertex 0.188666075468063 -4.17081308364868 0.15834766626358
endloop
endfacet
facet normal -0.999277234077454 -0.038014505058527 2.22929856925308e-17
outer loop
vertex 0.155361235141754 -3.29533743858337 0.156595438718796
vertex 0.122156970202923 -2.4225058555603 0.154848515987396
vertex 0.155361235141754 -3.29533743858337 -0.00659544253721833
endloop
endfacet
facet normal -0.999277114868164 -0.0380144976079464 -3.69848863135812e-16
outer loop
vertex 0.122156970202923 -2.4225058555603 -0.00484851654618979
vertex 0.155361235141754 -3.29533743858337 -0.00659544253721833
vertex 0.122156970202923 -2.4225058555603 0.154848515987396
endloop
endfacet
facet normal -0.999277234077454 -0.038014505058527 -3.69848942545151e-16
outer loop
vertex 0.122156970202923 -2.4225058555603 -0.00484851654618979
vertex 0.122156970202923 -2.4225058555603 0.154848515987396
vertex 0.0896202847361565 -1.56722259521484 -0.00313671259209514
endloop
endfacet
facet normal -0.999277174472809 -0.038014505058527 -8.46511889642841e-17
outer loop
vertex 0.0896202847361565 -1.56722259521484 0.153136715292931
vertex 0.0896202847361565 -1.56722259521484 -0.00313671259209514
vertex 0.122156970202923 -2.4225058555603 0.154848515987396
endloop
endfacet
facet normal -0.999277114868164 -0.0380145013332367 1.10352557481589e-16
outer loop
vertex 0.0583288855850697 -0.74467396736145 -0.00149042520206422
vertex 0.0896202847361565 -1.56722259521484 -0.00313671259209514
vertex 0.0583288855850697 -0.74467396736145 0.151490420103073
endloop
endfacet
facet normal -0.999277174472809 -0.0380145013332367 -8.46511823468392e-17
outer loop
vertex 0.0896202847361565 -1.56722259521484 0.153136715292931
vertex 0.0583288855850697 -0.74467396736145 0.151490420103073
vertex 0.0896202847361565 -1.56722259521484 -0.00313671259209514
endloop
endfacet
facet normal -0.999277174472809 -0.0380145013332367 1.10352570716478e-16
outer loop
vertex 0.0583288855850697 -0.74467396736145 -0.00149042520206422
vertex 0.0583288855850697 -0.74467396736145 0.151490420103073
vertex 0.0299999993294477 0 0
endloop
endfacet
facet normal -0.999277234077454 -0.038014505058527 -0
outer loop
vertex 0.0299999993294477 0 0.150000005960464
vertex 0.0299999993294477 0 0
vertex 0.0583288855850697 -0.74467396736145 0.151490420103073
endloop
endfacet
facet normal 0.706823468208313 0.0283026266843081 0.706823468208313
outer loop
vertex 0.220204025506973 -4.99926233291626 0.159976437687874
vertex 0.191238969564438 -4.23795413970947 0.158457189798355
vertex 0.0999694243073463 -4.99781608581543 0.280153125524521
endloop
endfacet
facet normal 0.706823527812958 0.0283026266843081 0.706823527812958
outer loop
vertex 0.0893143340945244 -4.23673820495605 0.260333120822906
vertex 0.0999694243073463 -4.99781608581543 0.280153125524521
vertex 0.191238969564438 -4.23795413970947 0.158457189798355
endloop
endfacet
facet normal 0.706823587417603 0.0283026304095984 0.706823587417603
outer loop
vertex 0.191238969564438 -4.23795413970947 0.158457189798355
vertex 0.163713544607162 -3.51448440551758 0.157013446092606
vertex 0.0893143340945244 -4.23673820495605 0.260333120822906
endloop
endfacet
facet normal 0.706823527812958 0.0283026248216629 0.706823527812958
outer loop
vertex 0.0791884660720825 -3.51346206665039 0.241497576236725
vertex 0.0893143340945244 -4.23673820495605 0.260333120822906
vertex 0.163713544607162 -3.51448440551758 0.157013446092606
endloop
endfacet
facet normal 0.706823527812958 0.0283026266843081 0.706823527812958
outer loop
vertex 0.163713544607162 -3.51448440551758 0.157013446092606
vertex 0.136970832943916 -2.81158757209778 0.155610755085945
vertex 0.0791884660720825 -3.51346206665039 0.241497576236725
endloop
endfacet
facet normal 0.706823527812958 0.0283026266843081 0.706823527812958
outer loop
vertex 0.0693507790565491 -2.81076979637146 0.223198071122169
vertex 0.0791884660720825 -3.51346206665039 0.241497576236725
vertex 0.136970832943916 -2.81158757209778 0.155610755085945
endloop
endfacet
facet normal 0.706823527812958 0.0283026266843081 0.706823527812958
outer loop
vertex 0.136970832943916 -2.81158757209778 0.155610755085945
vertex 0.110228128731251 -2.10869073867798 0.154208064079285
vertex 0.0693507790565491 -2.81076979637146 0.223198071122169
endloop
endfacet
facet normal 0.706823527812958 0.0283026248216629 0.706823527812958
outer loop
vertex 0.0595130808651447 -2.10807728767395 0.204898551106453
vertex 0.0693507790565491 -2.81076979637146 0.223198071122169
vertex 0.110228128731251 -2.10869073867798 0.154208064079285
endloop
endfacet
facet normal 0.706823527812958 0.0283026248216629 0.706823527812958
outer loop
vertex 0.110228128731251 -2.10869073867798 0.154208064079285
vertex 0.0834854170680046 -1.40579378604889 0.152805373072624
vertex 0.0595130808651447 -2.10807728767395 0.204898551106453
endloop
endfacet
facet normal 0.706823527812958 0.0283026266843081 0.706823527812958
outer loop
vertex 0.0496753863990307 -1.40538489818573 0.186599031090736
vertex 0.0595130808651447 -2.10807728767395 0.204898551106453
vertex 0.0834854170680046 -1.40579378604889 0.152805373072624
endloop
endfacet
facet normal 0.706823527812958 0.0283026266843081 0.706823527812958
outer loop
vertex 0.0496753863990307 -1.40538489818573 0.186599031090736
vertex 0.0834854170680046 -1.40579378604889 0.152805373072624
vertex 0.0567427091300488 -0.702896893024445 0.151402682065964
endloop
endfacet
facet normal 0.706823527812958 0.0283026266843081 0.706823527812958
outer loop
vertex 0.0398376956582069 -0.702692449092865 0.16829951107502
vertex 0.0496753863990307 -1.40538489818573 0.186599031090736
vertex 0.0567427091300488 -0.702896893024445 0.151402682065964
endloop
endfacet
facet normal 0.706823527812958 0.0283026266843081 0.706823527812958
outer loop
vertex 0.0398376956582069 -0.702692449092865 0.16829951107502
vertex 0.0567427091300488 -0.702896893024445 0.151402682065964
vertex 0.0299999993294477 0 0.150000005960464
endloop
endfacet
facet normal 0.706851065158844 0.0268900282680988 -0.706851065158844
outer loop
vertex 0.246796697378159 -5.69887733459473 -0.00999999977648258
vertex 0.229913517832756 -5.69952058792114 -0.0269076507538557
vertex 0.220072507858276 -4.99638605117798 -0.00999999977648258
endloop
endfacet
facet normal 0.706851065158844 0.0268900282680988 -0.706851065158844
outer loop
vertex 0.246796697378159 -5.69887733459473 -0.00999999977648258
vertex 0.273520857095718 -6.40136861801147 -0.00999999977648258
vertex 0.229913517832756 -5.69952058792114 -0.0269076507538557
endloop
endfacet
facet normal 0.706851065158844 0.0268900282680988 -0.706851065158844
outer loop
vertex 0.273520857095718 -6.40136861801147 -0.00999999977648258
vertex 0.239754512906075 -6.40265560150146 -0.0438152998685837
vertex 0.229913517832756 -5.69952058792114 -0.0269076507538557
endloop
endfacet
facet normal 0.706851065158844 0.0268900282680988 -0.706851065158844
outer loop
vertex 0.273520857095718 -6.40136861801147 -0.00999999977648258
vertex 0.300245046615601 -7.10385990142822 -0.00999999977648258
vertex 0.239754512906075 -6.40265560150146 -0.0438152998685837
endloop
endfacet
facet normal 0.706851065158844 0.0268900282680988 -0.706851065158844
outer loop
vertex 0.249595522880554 -7.10579013824463 -0.0607229508459568
vertex 0.239754512906075 -6.40265560150146 -0.0438152998685837
vertex 0.300245046615601 -7.10385990142822 -0.00999999977648258
endloop
endfacet
facet normal 0.706851065158844 0.0268900282680988 -0.706851065158844
outer loop
vertex 0.300245046615601 -7.10385990142822 -0.00999999977648258
vertex 0.32696920633316 -7.80635118484497 -0.00999999977648258
vertex 0.249595522880554 -7.10579013824463 -0.0607229508459568
endloop
endfacet
facet normal 0.706851065158844 0.0268900282680988 -0.706851065158844
outer loop
vertex 0.259436517953873 -7.80892515182495 -0.0776306018233299
vertex 0.249595522880554 -7.10579013824463 -0.0607229508459568
vertex 0.32696920633316 -7.80635118484497 -0.00999999977648258
endloop
endfacet
facet normal 0.706851065158844 0.0268900282680988 -0.706851065158844
outer loop
vertex 0.32696920633316 -7.80635118484497 -0.00999999977648258
vertex 0.353693395853043 -8.50884246826172 -0.00999999977648258
vertex 0.259436517953873 -7.80892515182495 -0.0776306018233299
endloop
endfacet
facet normal 0.706851124763489 0.026890030130744 -0.706851124763489
outer loop
vertex 0.269277513027191 -8.51205921173096 -0.0945382490754128
vertex 0.259436517953873 -7.80892515182495 -0.0776306018233299
vertex 0.353693395853043 -8.50884246826172 -0.00999999977648258
endloop
endfacet
facet normal 0.706851065158844 0.0268900282680988 -0.706851065158844
outer loop
vertex 0.353693395853043 -8.50884246826172 -0.00999999977648258
vertex 0.38120037317276 -9.23191165924072 -0.00999999977648258
vertex 0.269277513027191 -8.51205921173096 -0.0945382490754128
endloop
endfacet
facet normal 0.706851065158844 0.0268900282680988 -0.706851065158844
outer loop
vertex 0.279406547546387 -9.23577404022217 -0.111940763890743
vertex 0.269277513027191 -8.51205921173096 -0.0945382490754128
vertex 0.38120037317276 -9.23191165924072 -0.00999999977648258
endloop
endfacet
facet normal 0.706851065158844 0.0268900282680988 -0.706851065158844
outer loop
vertex 0.38120037317276 -9.23191165924072 -0.00999999977648258
vertex 0.41014501452446 -9.99277210235596 -0.00999999977648258
vertex 0.279406547546387 -9.23577404022217 -0.111940763890743
endloop
endfacet
facet normal 0.706851065158844 0.0268900282680988 -0.706851065158844
outer loop
vertex 0.290065348148346 -9.99734020233154 -0.130253449082375
vertex 0.279406547546387 -9.23577404022217 -0.111940763890743
vertex 0.41014501452446 -9.99277210235596 -0.00999999977648258
endloop
endfacet
facet normal 0.149598985910416 0.691362142562866 -0.706851065158844
outer loop
vertex 9.11484718322754 -8.77802848815918 -0.200065359473228
vertex 9.08054065704346 -8.8933744430542 -0.320145040750504
vertex 8.37261772155762 -8.60652446746826 -0.189406558871269
endloop
endfacet
facet normal 0.149599000811577 0.691362142562866 -0.706851065158844
outer loop
vertex 8.34354496002197 -8.70430850982666 -0.291200369596481
vertex 8.37261772155762 -8.60652446746826 -0.189406558871269
vertex 9.08054065704346 -8.8933744430542 -0.320145040750504
endloop
endfacet
facet normal 0.149599000811577 0.691362142562866 -0.706851065158844
outer loop
vertex 8.37261772155762 -8.60652446746826 -0.189406558871269
vertex 8.34354496002197 -8.70430850982666 -0.291200369596481
vertex 7.66727876663208 -8.4435453414917 -0.179277524352074
endloop
endfacet
facet normal 0.149598985910416 0.691362202167511 -0.706851065158844
outer loop
vertex 7.64315557479858 -8.52463245391846 -0.263693392276764
vertex 7.66727876663208 -8.4435453414917 -0.179277524352074
vertex 8.34354496002197 -8.70430850982666 -0.291200369596481
endloop
endfacet
facet normal 0.149599000811577 0.691362261772156 -0.706851124763489
outer loop
vertex 7.66727876663208 -8.4435453414917 -0.179277524352074
vertex 7.64315557479858 -8.52463245391846 -0.263693392276764
vertex 6.98199701309204 -8.28520011901855 -0.169436514377594
endloop
endfacet
facet normal 0.149598985910416 0.691362202167511 -0.706851065158844
outer loop
vertex 6.96269845962524 -8.35006999969482 -0.236969217658043
vertex 6.98199701309204 -8.28520011901855 -0.169436514377594
vertex 7.64315557479858 -8.52463245391846 -0.263693392276764
endloop
endfacet
facet normal 0.149598985910416 0.691362202167511 -0.706851065158844
outer loop
vertex 6.98199701309204 -8.28520011901855 -0.169436514377594
vertex 6.96269845962524 -8.35006999969482 -0.236969217658043
vertex 6.29671478271484 -8.12685585021973 -0.159595519304276
endloop
endfacet
facet normal 0.149598985910416 0.691362142562866 -0.706851065158844
outer loop
vertex 6.2822413444519 -8.17550849914551 -0.210245043039322
vertex 6.29671478271484 -8.12685585021973 -0.159595519304276
vertex 6.96269845962524 -8.35006999969482 -0.236969217658043
endloop
endfacet
facet normal 0.149598985910416 0.691362142562866 -0.706851065158844
outer loop
vertex 6.29671478271484 -8.12685585021973 -0.159595519304276
vertex 6.2822413444519 -8.17550849914551 -0.210245043039322
vertex 5.6114330291748 -7.96851110458374 -0.149754524230957
endloop
endfacet
facet normal 0.149598985910416 0.691362202167511 -0.706851065158844
outer loop
vertex 5.60178375244141 -8.00094604492188 -0.183520868420601
vertex 5.6114330291748 -7.96851110458374 -0.149754524230957
vertex 6.2822413444519 -8.17550849914551 -0.210245043039322
endloop
endfacet
facet normal 0.149598985910416 0.691362202167511 -0.706851065158844
outer loop
vertex 5.60178375244141 -8.00094604492188 -0.183520868420601
vertex 4.92615127563477 -7.81016635894775 -0.139913514256477
vertex 5.6114330291748 -7.96851110458374 -0.149754524230957
endloop
endfacet
facet normal 0.149598985910416 0.691362202167511 -0.706851065158844
outer loop
vertex 4.92132663726807 -7.82638359069824 -0.15679669380188
vertex 4.92615127563477 -7.81016635894775 -0.139913514256477
vertex 5.60178375244141 -8.00094604492188 -0.183520868420601
endloop
endfacet
facet normal 0.149598985910416 0.691362202167511 -0.706851065158844
outer loop
vertex 4.92132663726807 -7.82638359069824 -0.15679669380188
vertex 4.24086904525757 -7.65182161331177 -0.130072519183159
vertex 4.92615127563477 -7.81016635894775 -0.139913514256477
endloop
endfacet
endsolid COMSOL mesh mesh1
