solid COMSOL mesh mesh1
facet normal -0.0365456379950047 0.999332010746002 0
outer loop
vertex 0 0 0.150000005960464
vertex 0 0 0
vertex -0.848625600337982 -0.0310342945158482 0.151273787021637
endloop
endfacet
facet normal -0.036545641720295 0.999332010746002 -9.75165395487872e-19
outer loop
vertex -0.848625600337982 -0.0310342945158482 -0.00127378932666034
vertex -0.848625600337982 -0.0310342945158482 0.151273787021637
vertex 0 0 0
endloop
endfacet
facet normal -0.0365456379950047 0.999332010746002 -6.61732371846448e-18
outer loop
vertex -1.97054147720337 -0.0720628350973129 -0.00295778806321323
vertex -1.97054147720337 -0.0720628350973129 0.152957782149315
vertex -0.848625600337982 -0.0310342945158482 -0.00127378932666034
endloop
endfacet
facet normal -0.0365456342697144 0.999331951141357 -9.75165292090296e-19
outer loop
vertex -0.848625600337982 -0.0310342945158482 0.151273787021637
vertex -0.848625600337982 -0.0310342945158482 -0.00127378932666034
vertex -1.97054147720337 -0.0720628350973129 0.152957782149315
endloop
endfacet
facet normal -0.0365456379950047 0.999332010746002 -6.61732371846448e-18
outer loop
vertex -1.97054147720337 -0.0720628350973129 -0.00295778806321323
vertex -3.39247965812683 -0.124063208699226 -0.00509212119504809
vertex -1.97054147720337 -0.0720628350973129 0.152957782149315
endloop
endfacet
facet normal -0.0365456342697144 0.999331951141357 1.01317852603268e-16
outer loop
vertex -3.39247965812683 -0.124063208699226 0.155092120170593
vertex -1.97054147720337 -0.0720628350973129 0.152957782149315
vertex -3.39247965812683 -0.124063208699226 -0.00509212119504809
endloop
endfacet
facet normal -0.0365456379950047 0.999332010746002 0
outer loop
vertex -4.85654592514038 -0.177604213356972 -0.00728968856856227
vertex -4.85654592514038 -0.177604213356972 0.157289683818817
vertex -3.39247965812683 -0.124063208699226 -0.00509212119504809
endloop
endfacet
facet normal -0.0365456379950047 0.999332010746002 1.01317852603268e-16
outer loop
vertex -3.39247965812683 -0.124063208699226 0.155092120170593
vertex -3.39247965812683 -0.124063208699226 -0.00509212119504809
vertex -4.85654592514038 -0.177604213356972 0.157289683818817
endloop
endfacet
facet normal -0.0365456379950047 0.999332010746002 0
outer loop
vertex -4.85654592514038 -0.177604213356972 -0.00728968856856227
vertex -6.32061243057251 -0.231145203113556 -0.00948725547641516
vertex -4.85654592514038 -0.177604213356972 0.157289683818817
endloop
endfacet
facet normal -0.0365456379950047 0.999331951141357 2.20039439710864e-16
outer loop
vertex -6.32061243057251 -0.231145203113556 0.159487262368202
vertex -4.85654592514038 -0.177604213356972 0.157289683818817
vertex -6.32061243057251 -0.231145203113556 -0.00948725547641516
endloop
endfacet
facet normal -0.0365456379950047 0.999331951141357 2.20039439710864e-16
outer loop
vertex -6.32061243057251 -0.231145203113556 -0.00948725547641516
vertex -7.77294063568115 -0.284256964921951 -0.0116672050207853
vertex -6.32061243057251 -0.231145203113556 0.159487262368202
endloop
endfacet
facet normal -0.0365456342697144 0.999331891536713 -3.20040678859299e-16
outer loop
vertex -7.77294063568115 -0.284256964921951 0.161667197942734
vertex -6.32061243057251 -0.231145203113556 0.159487262368202
vertex -7.77294063568115 -0.284256964921951 -0.0116672050207853
endloop
endfacet
facet normal -0.0365456342697144 0.999331951141357 -3.20040705329078e-16
outer loop
vertex -7.77294063568115 -0.284256964921951 -0.0116672050207853
vertex -9.00699520111084 -0.329386413097382 -0.013519523665309
vertex -7.77294063568115 -0.284256964921951 0.161667197942734
endloop
endfacet
facet normal -0.0365456379950047 0.999331951141357 0
outer loop
vertex -9.00699520111084 -0.329386413097382 0.163519516587257
vertex -7.77294063568115 -0.284256964921951 0.161667197942734
vertex -9.00699520111084 -0.329386413097382 -0.013519523665309
endloop
endfacet
facet normal -0.0365456342697144 0.999331951141357 0
outer loop
vertex -9.00699520111084 -0.329386413097382 -0.013519523665309
vertex -9.99331951141357 -0.365456372499466 -0.0149999996647239
vertex -9.00699520111084 -0.329386413097382 0.163519516587257
endloop
endfacet
facet normal -0.0365456379950047 0.999331951141357 0
outer loop
vertex -9.99331951141357 -0.365456372499466 0.165000006556511
vertex -9.00699520111084 -0.329386413097382 0.163519516587257
vertex -9.99331951141357 -0.365456372499466 -0.0149999996647239
endloop
endfacet
facet normal 0.000980853219516575 0.0142191983759403 0.999898493289948
outer loop
vertex -8.92313289642334 -1.40491509437561 0.178731963038445
vertex -8.90442276000977 -1.38565170764923 0.178439676761627
vertex -9.99331951141357 -0.365456372499466 0.165000006556511
endloop
endfacet
facet normal 0.000980853219516575 0.0142191983759403 0.999898493289948
outer loop
vertex -7.85294532775879 -2.44437384605408 0.192463934421539
vertex -7.8155255317688 -2.40584707260132 0.191879346966743
vertex -8.92313289642334 -1.40491509437561 0.178731963038445
endloop
endfacet
facet normal 0.000980853219516575 0.0142191983759403 0.999898493289948
outer loop
vertex -8.90442276000977 -1.38565170764923 0.178439676761627
vertex -8.92313289642334 -1.40491509437561 0.178731963038445
vertex -7.8155255317688 -2.40584707260132 0.191879346966743
endloop
endfacet
facet normal 0.000980853219516575 0.0142191983759403 0.999898493289948
outer loop
vertex -7.85294532775879 -2.44437384605408 0.192463934421539
vertex -6.78275775909424 -3.48383235931396 0.206195905804634
vertex -7.8155255317688 -2.40584707260132 0.191879346966743
endloop
endfacet
facet normal 0.000980853219516575 0.0142191974446177 0.999898433685303
outer loop
vertex -6.72662830352783 -3.4260425567627 0.205319032073021
vertex -7.8155255317688 -2.40584707260132 0.191879346966743
vertex -6.78275775909424 -3.48383235931396 0.206195905804634
endloop
endfacet
facet normal 0.000980853219516575 0.0142191974446177 0.999898433685303
outer loop
vertex -6.78275775909424 -3.48383235931396 0.206195905804634
vertex -5.71257019042969 -4.52329111099243 0.219927862286568
vertex -6.72662830352783 -3.4260425567627 0.205319032073021
endloop
endfacet
facet normal 0.000980853219516575 0.0142191983759403 0.999898493289948
outer loop
vertex -5.63773107528687 -4.44623756408691 0.218758702278137
vertex -6.72662830352783 -3.4260425567627 0.205319032073021
vertex -5.71257019042969 -4.52329111099243 0.219927862286568
endloop
endfacet
facet normal 0.000980853219516575 0.0142191983759403 0.999898493289948
outer loop
vertex -5.71257019042969 -4.52329111099243 0.219927862286568
vertex -4.64238309860229 -5.5627498626709 0.233659833669662
vertex -5.63773107528687 -4.44623756408691 0.218758702278137
endloop
endfacet
facet normal 0.000980853219516575 0.0142191965132952 0.999898374080658
outer loop
vertex -4.5488338470459 -5.46643304824829 0.232198387384415
vertex -5.63773107528687 -4.44623756408691 0.218758702278137
vertex -4.64238309860229 -5.5627498626709 0.233659833669662
endloop
endfacet
facet normal 0.000980853103101254 0.0142191965132952 0.999898374080658
outer loop
vertex -4.64238309860229 -5.5627498626709 0.233659833669662
vertex -3.59768056869507 -6.57745552062988 0.247064799070358
vertex -4.5488338470459 -5.46643304824829 0.232198387384415
endloop
endfacet
facet normal 0.000980853219516575 0.0142191965132952 0.999898374080658
outer loop
vertex -3.4858500957489 -6.46235036849976 0.245318219065666
vertex -4.5488338470459 -5.46643304824829 0.232198387384415
vertex -3.59768056869507 -6.57745552062988 0.247064799070358
endloop
endfacet
facet normal 0.000980853219516575 0.0142191983759403 0.999898493289948
outer loop
vertex -3.59768056869507 -6.57745552062988 0.247064799070358
vertex -2.82032108306885 -7.33249425888062 0.257039368152618
vertex -3.4858500957489 -6.46235036849976 0.245318219065666
endloop
endfacet
facet normal 0.000980853219516575 0.0142191974446177 0.999898374080658
outer loop
vertex -2.6949028968811 -7.20339441299438 0.255080461502075
vertex -3.4858500957489 -6.46235036849976 0.245318219065666
vertex -2.82032108306885 -7.33249425888062 0.257039368152618
endloop
endfacet
facet normal -0.707189977169037 0.0132446894422174 0.706899464130402
outer loop
vertex -1.05484068393707 -0.0117271114140749 -1.05505442619324
vertex -1.05494093894958 -0.0385792590677738 -1.05465149879456
vertex 0 0 0
endloop
endfacet
facet normal -0.707189977169037 0.0132446894422174 0.706899464130402
outer loop
vertex -2.10968136787415 -0.0234542228281498 -2.11010885238647
vertex -2.10988187789917 -0.0771585181355476 -2.10930299758911
vertex -1.05484068393707 -0.0117271114140749 -1.05505442619324
endloop
endfacet
facet normal -0.707189977169037 0.0132446894422174 0.706899464130402
outer loop
vertex -1.05494093894958 -0.0385792590677738 -1.05465149879456
vertex -1.05484068393707 -0.0117271114140749 -1.05505442619324
vertex -2.10988187789917 -0.0771585181355476 -2.10930299758911
endloop
endfacet
facet normal -0.707189977169037 0.0132446894422174 0.706899464130402
outer loop
vertex -2.10968136787415 -0.0234542228281498 -2.11010885238647
vertex -3.16452217102051 -0.0351813361048698 -3.16516327857971
vertex -2.10988187789917 -0.0771585181355476 -2.10930299758911
endloop
endfacet
facet normal -0.707189977169037 0.0132446894422174 0.706899583339691
outer loop
vertex -3.16482281684875 -0.115737780928612 -3.16395473480225
vertex -2.10988187789917 -0.0771585181355476 -2.10930299758911
vertex -3.16452217102051 -0.0351813361048698 -3.16516327857971
endloop
endfacet
facet normal -0.707189977169037 0.0132446894422174 0.706899583339691
outer loop
vertex -3.16452217102051 -0.0351813361048698 -3.16516327857971
vertex -4.21936273574829 -0.0469084456562996 -4.22021770477295
vertex -3.16482281684875 -0.115737780928612 -3.16395473480225
endloop
endfacet
facet normal -0.707189977169037 0.0132446894422174 0.706899464130402
outer loop
vertex -4.21976375579834 -0.154317036271095 -4.21860599517822
vertex -3.16482281684875 -0.115737780928612 -3.16395473480225
vertex -4.21936273574829 -0.0469084456562996 -4.22021770477295
endloop
endfacet
facet normal -0.707189977169037 0.0132446894422174 0.706899464130402
outer loop
vertex -4.21936273574829 -0.0469084456562996 -4.22021770477295
vertex -5.27420377731323 -0.0586355589330196 -5.27527236938477
vertex -4.21976375579834 -0.154317036271095 -4.21860599517822
endloop
endfacet
facet normal -0.707189977169037 0.0132446894422174 0.706899523735046
outer loop
vertex -5.27470445632935 -0.19289630651474 -5.27325773239136
vertex -4.21976375579834 -0.154317036271095 -4.21860599517822
vertex -5.27420377731323 -0.0586355589330196 -5.27527236938477
endloop
endfacet
facet normal -0.707189917564392 0.0132446894422174 0.706899464130402
outer loop
vertex -5.27420377731323 -0.0586355589330196 -5.27527236938477
vertex -6.30392408370972 -0.0700834020972252 -6.30520153045654
vertex -5.27470445632935 -0.19289630651474 -5.27325773239136
endloop
endfacet
facet normal -0.707189977169037 0.0132446894422174 0.706899523735046
outer loop
vertex -6.30453968048096 -0.230557441711426 -6.30281019210815
vertex -5.27470445632935 -0.19289630651474 -5.27325773239136
vertex -6.30392408370972 -0.0700834020972252 -6.30520153045654
endloop
endfacet
facet normal -0.707189977169037 0.0132446903735399 0.706899523735046
outer loop
vertex -6.30392408370972 -0.0700834020972252 -6.30520153045654
vertex -7.07013320922852 -0.0786016657948494 -7.07156562805176
vertex -6.30453968048096 -0.230557441711426 -6.30281019210815
endloop
endfacet
facet normal -0.707189917564392 0.0132446894422174 0.706899523735046
outer loop
vertex -7.07081890106201 -0.258580327033997 -7.0688796043396
vertex -6.30453968048096 -0.230557441711426 -6.30281019210815
vertex -7.07013320922852 -0.0786016657948494 -7.07156562805176
endloop
endfacet
facet normal 0.706973195075989 0.0174827594310045 -0.707024276256561
outer loop
vertex 0.000696669681929052 -0.029991876333952 -4.4997017539572e-05
vertex -0.139066144824028 -0.0345122292637825 -0.139909476041794
vertex 0 0 0
endloop
endfacet
facet normal 0.706973135471344 0.0174827575683594 -0.707024276256561
outer loop
vertex -0.139831706881523 -0.00155456841457635 -0.139860033988953
vertex 0 0 0
vertex -0.139066144824028 -0.0345122292637825 -0.139909476041794
endloop
endfacet
facet normal 0.706973195075989 0.0174827594310045 -0.707024276256561
outer loop
vertex -0.371501863002777 -0.00413014367222786 -0.371577113866806
vertex -0.139831706881523 -0.00155456841457635 -0.139860033988953
vertex -0.370622158050537 -0.042001448571682 -0.371633946895599
endloop
endfacet
facet normal 0.706973135471344 0.0174827594310045 -0.707024276256561
outer loop
vertex -0.139066144824028 -0.0345122292637825 -0.139909476041794
vertex -0.370622158050537 -0.042001448571682 -0.371633946895599
vertex -0.139831706881523 -0.00155456841457635 -0.139860033988953
endloop
endfacet
facet normal 0.706973195075989 0.0174827612936497 -0.707024276256561
outer loop
vertex -0.371501863002777 -0.00413014367222786 -0.371577113866806
vertex -0.370622158050537 -0.042001448571682 -0.371633946895599
vertex -0.755327999591827 -0.008397301658988 -0.755481004714966
endloop
endfacet
facet normal 0.706973135471344 0.0174827594310045 -0.707024276256561
outer loop
vertex -0.754259169101715 -0.0544094331562519 -0.755550026893616
vertex -0.755327999591827 -0.008397301658988 -0.755481004714966
vertex -0.370622158050537 -0.042001448571682 -0.371633946895599
endloop
endfacet
facet normal 0.706973135471344 0.0174827594310045 -0.707024276256561
outer loop
vertex -1.39124286174774 -0.0154670365154743 -1.39152467250824
vertex -0.755327999591827 -0.008397301658988 -0.755481004714966
vertex -1.38986074924469 -0.0749667063355446 -1.39161396026611
endloop
endfacet
facet normal 0.706973135471344 0.0174827612936497 -0.707024335861206
outer loop
vertex -0.754259169101715 -0.0544094331562519 -0.755550026893616
vertex -1.38986074924469 -0.0749667063355446 -1.39161396026611
vertex -0.755327999591827 -0.008397301658988 -0.755481004714966
endloop
endfacet
facet normal 0.706973135471344 0.0174827594310045 -0.707024276256561
outer loop
vertex -1.39124286174774 -0.0154670365154743 -1.39152467250824
vertex -1.38986074924469 -0.0749667063355446 -1.39161396026611
vertex -2.37288546562195 -0.0263803731650114 -2.37336611747742
endloop
endfacet
facet normal 0.706973135471344 0.0174827612936497 -0.707024335861206
outer loop
vertex -2.3710196018219 -0.106700353324413 -2.37348675727844
vertex -2.37288546562195 -0.0263803731650114 -2.37336611747742
vertex -1.38986074924469 -0.0749667063355446 -1.39161396026611
endloop
endfacet
facet normal 0.706973135471344 0.0174827594310045 -0.707024276256561
outer loop
vertex -2.37288546562195 -0.0263803731650114 -2.37336611747742
vertex -2.3710196018219 -0.106700353324413 -2.37348675727844
vertex -3.41418313980103 -0.0379569232463837 -3.414874792099
endloop
endfacet
facet normal 0.706973135471344 0.0174827612936497 -0.707024335861206
outer loop
vertex -3.41180443763733 -0.140362486243248 -3.41502833366394
vertex -3.41418313980103 -0.0379569232463837 -3.414874792099
vertex -2.3710196018219 -0.106700353324413 -2.37348675727844
endloop
endfacet
facet normal 0.706973135471344 0.0174827612936497 -0.707024335861206
outer loop
vertex -3.41418313980103 -0.0379569232463837 -3.414874792099
vertex -3.41180443763733 -0.140362486243248 -3.41502833366394
vertex -4.45548105239868 -0.0495334714651108 -4.456383228302
endloop
endfacet
facet normal 0.706973135471344 0.0174827594310045 -0.707024276256561
outer loop
vertex -4.45258903503418 -0.174024611711502 -4.45657014846802
vertex -4.45548105239868 -0.0495334714651108 -4.456383228302
vertex -3.41180443763733 -0.140362486243248 -3.41502833366394
endloop
endfacet
facet normal 0.706973135471344 0.0174827612936497 -0.707024276256561
outer loop
vertex -5.48935890197754 -0.0610275268554688 -5.49047088623047
vertex -4.45548105239868 -0.0495334714651108 -4.456383228302
vertex -5.48595762252808 -0.207446873188019 -5.49069023132324
endloop
endfacet
facet normal 0.706973135471344 0.0174827594310045 -0.707024216651917
outer loop
vertex -4.45258903503418 -0.174024611711502 -4.45657014846802
vertex -5.48595762252808 -0.207446873188019 -5.49069023132324
vertex -4.45548105239868 -0.0495334714651108 -4.456383228302
endloop
endfacet
facet normal 0.706973135471344 0.0174827594310045 -0.707024276256561
outer loop
vertex -6.36896800994873 -0.0708065181970596 -6.37025833129883
vertex -5.48935890197754 -0.0610275268554688 -5.49047088623047
vertex -6.36513376235962 -0.235882088541985 -6.37050628662109
endloop
endfacet
facet normal 0.706973135471344 0.0174827594310045 -0.707024276256561
outer loop
vertex -5.48595762252808 -0.207446873188019 -5.49069023132324
vertex -6.36513376235962 -0.235882088541985 -6.37050628662109
vertex -5.48935890197754 -0.0610275268554688 -5.49047088623047
endloop
endfacet
facet normal 0.706973135471344 0.0174827594310045 -0.707024276256561
outer loop
vertex -6.36896800994873 -0.0708065181970596 -6.37025833129883
vertex -6.36513376235962 -0.235882088541985 -6.37050628662109
vertex -7.07033205032349 -0.0786038786172867 -7.07176446914673
endloop
endfacet
facet normal 0.706973135471344 0.0174827594310045 -0.707024216651917
outer loop
vertex -7.06615209579468 -0.258555144071579 -7.07203435897827
vertex -7.07033205032349 -0.0786038786172867 -7.07176446914673
vertex -6.36513376235962 -0.235882088541985 -6.37050628662109
endloop
endfacet
facet normal -0.303055077791214 -0.952973067760468 -0
outer loop
vertex -1.26793527603149 -12.0080127716064 0.0900000035762787
vertex -1.26793527603149 -12.0080127716064 0.0599999986588955
vertex -1.07946336269379 -12.0679492950439 0.0914832949638367
endloop
endfacet
facet normal -0.303055077791214 -0.952973008155823 -5.95144118990983e-14
outer loop
vertex -1.07946336269379 -12.0679492950439 0.0585167072713375
vertex -1.07946336269379 -12.0679492950439 0.0914832949638367
vertex -1.26793527603149 -12.0080127716064 0.0599999986588955
endloop
endfacet
facet normal -0.303055107593536 -0.952973067760468 1.06582325159598e-14
outer loop
vertex -0.767207324504852 -12.1672496795654 0.056059218943119
vertex -0.767207324504852 -12.1672496795654 0.0939407795667648
vertex -1.07946336269379 -12.0679492950439 0.0585167072713375
endloop
endfacet
facet normal -0.303055077791214 -0.952973067760468 -5.95144186753618e-14
outer loop
vertex -1.07946336269379 -12.0679492950439 0.0914832949638367
vertex -1.07946336269379 -12.0679492950439 0.0585167072713375
vertex -0.767207324504852 -12.1672496795654 0.0939407795667648
endloop
endfacet
facet normal -0.303055107593536 -0.952973067760468 1.06582325159598e-14
outer loop
vertex -0.767207324504852 -12.1672496795654 0.056059218943119
vertex -0.249868169426918 -12.331768989563 0.0519877038896084
vertex -0.767207324504852 -12.1672496795654 0.0939407795667648
endloop
endfacet
facet normal -0.303055107593536 -0.952973067760468 6.21385064171649e-15
outer loop
vertex -0.249868169426918 -12.331768989563 0.0980122983455658
vertex -0.767207324504852 -12.1672496795654 0.0939407795667648
vertex -0.249868169426918 -12.331768989563 0.0519877038896084
endloop
endfacet
facet normal -0.303055077791214 -0.952973008155823 -2.2224616488516e-14
outer loop
vertex 0.607248187065125 -12.6043405532837 0.0452421046793461
vertex 0.607248187065125 -12.6043405532837 0.104757897555828
vertex -0.249868169426918 -12.331768989563 0.0519877038896084
endloop
endfacet
facet normal -0.303055077791214 -0.952973008155823 6.21385021820002e-15
outer loop
vertex -0.249868169426918 -12.331768989563 0.0980122983455658
vertex -0.249868169426918 -12.331768989563 0.0519877038896084
vertex 0.607248187065125 -12.6043405532837 0.104757897555828
endloop
endfacet
facet normal -0.303055077791214 -0.952973008155823 -2.2224616488516e-14
outer loop
vertex 0.607248187065125 -12.6043405532837 0.0452421046793461
vertex 1.93035280704498 -13.0251007080078 0.0348291285336018
vertex 0.607248187065125 -12.6043405532837 0.104757897555828
endloop
endfacet
facet normal -0.303055107593536 -0.952973067760468 -1.85575381152431e-14
outer loop
vertex 1.93035280704498 -13.0251007080078 0.115170866250992
vertex 0.607248187065125 -12.6043405532837 0.104757897555828
vertex 1.93035280704498 -13.0251007080078 0.0348291285336018
endloop
endfacet
facet normal -0.303055107593536 -0.952973067760468 -1.8557539809309e-14
outer loop
vertex 1.93035280704498 -13.0251007080078 0.0348291285336018
vertex 3.3338634967804 -13.4714317321777 0.0237833503633738
vertex 1.93035280704498 -13.0251007080078 0.115170866250992
endloop
endfacet
facet normal -0.303055107593536 -0.952973067760468 -1.25844794586732e-14
outer loop
vertex 3.3338634967804 -13.4714317321777 0.126216650009155
vertex 1.93035280704498 -13.0251007080078 0.115170866250992
vertex 3.3338634967804 -13.4714317321777 0.0237833503633738
endloop
endfacet
facet normal -0.303055077791214 -0.952973008155823 9.27113051450322e-15
outer loop
vertex 4.7373743057251 -13.9177618026733 0.137262433767319
vertex 3.3338634967804 -13.4714317321777 0.126216650009155
vertex 4.7373743057251 -13.9177618026733 0.0127375712618232
endloop
endfacet
facet normal -0.303055107593536 -0.952973067760468 -1.25844794586732e-14
outer loop
vertex 3.3338634967804 -13.4714317321777 0.0237833503633738
vertex 4.7373743057251 -13.9177618026733 0.0127375712618232
vertex 3.3338634967804 -13.4714317321777 0.126216650009155
endloop
endfacet
facet normal -0.303055077791214 -0.952973008155823 9.27113051450322e-15
outer loop
vertex 4.7373743057251 -13.9177618026733 0.137262433767319
vertex 4.7373743057251 -13.9177618026733 0.0127375712618232
vertex 6.13088417053223 -14.360912322998 0.148229494690895
endloop
endfacet
facet normal -0.303055107593536 -0.952973067760468 -7.88265801373797e-15
outer loop
vertex 6.13088417053223 -14.360912322998 0.00177049962803721
vertex 6.13088417053223 -14.360912322998 0.148229494690895
vertex 4.7373743057251 -13.9177618026733 0.0127375712618232
endloop
endfacet
facet normal -0.303055107593536 -0.952973008155823 1.63012687133128e-15
outer loop
vertex 7.31646347045898 -14.7379388809204 -0.00756013905629516
vertex 7.31646347045898 -14.7379388809204 0.157560139894485
vertex 6.13088417053223 -14.360912322998 0.00177049962803721
endloop
endfacet
facet normal -0.303055107593536 -0.952973067760468 -7.88265801373797e-15
outer loop
vertex 6.13088417053223 -14.360912322998 0.148229494690895
vertex 6.13088417053223 -14.360912322998 0.00177049962803721
vertex 7.31646347045898 -14.7379388809204 0.157560139894485
endloop
endfacet
facet normal -0.303055077791214 -0.952973008155823 1.63012676545216e-15
outer loop
vertex 7.31646347045898 -14.7379388809204 -0.00756013905629516
vertex 8.26179504394531 -15.0385637283325 -0.0149999996647239
vertex 7.31646347045898 -14.7379388809204 0.157560139894485
endloop
endfacet
facet normal -0.303055107593536 -0.952973067760468 -0
outer loop
vertex 8.26179504394531 -15.0385637283325 0.165000006556511
vertex 7.31646347045898 -14.7379388809204 0.157560139894485
vertex 8.26179504394531 -15.0385637283325 -0.0149999996647239
endloop
endfacet
facet normal 0.0193580407649279 -0.00585413863882422 0.999795496463776
outer loop
vertex -1.26793527603149 -12.0080127716064 0.0599999986588955
vertex -0.455632925033569 -12.2549953460693 0.0428260378539562
vertex -1.22451519966125 -11.8644351959229 0.0599999986588955
endloop
endfacet
facet normal 0.0193580389022827 -0.00585413863882422 0.999795496463776
outer loop
vertex -0.411475449800491 -12.1089782714844 0.0428260378539562
vertex -1.22451519966125 -11.8644351959229 0.0599999986588955
vertex -0.455632925033569 -12.2549953460693 0.0428260378539562
endloop
endfacet
facet normal 0.0193580370396376 -0.00585413863882422 0.999795436859131
outer loop
vertex 0.6182621717453 -12.5815153121948 0.0201213993132114
vertex 0.663394570350647 -12.4322748184204 0.0201213993132114
vertex -0.455632925033569 -12.2549953460693 0.0428260378539562
endloop
endfacet
facet normal 0.0193580407649279 -0.00585413910448551 0.99979555606842
outer loop
vertex -0.411475449800491 -12.1089782714844 0.0428260378539562
vertex -0.455632925033569 -12.2549953460693 0.0428260378539562
vertex 0.663394570350647 -12.4322748184204 0.0201213993132114
endloop
endfacet
facet normal 0.0193580389022827 -0.00585413910448551 0.999795496463776
outer loop
vertex 0.6182621717453 -12.5815153121948 0.0201213993132114
vertex 1.97933769226074 -12.9953527450562 -0.00865490548312664
vertex 0.663394570350647 -12.4322748184204 0.0201213993132114
endloop
endfacet
facet normal 0.0193580389022827 -0.00585413863882422 0.999795436859131
outer loop
vertex 2.02570581436157 -12.8420267105103 -0.00865490548312664
vertex 0.663394570350647 -12.4322748184204 0.0201213993132114
vertex 1.97933769226074 -12.9953527450562 -0.00865490548312664
endloop
endfacet
facet normal 0.0193580370396376 -0.00585413910448551 0.999795496463776
outer loop
vertex 1.97933769226074 -12.9953527450562 -0.00865490548312664
vertex 3.38073825836182 -13.4214515686035 -0.0382837727665901
vertex 2.02570581436157 -12.8420267105103 -0.00865490548312664
endloop
endfacet
facet normal 0.0193580407649279 -0.00585413910448551 0.999795496463776
outer loop
vertex 3.42837858200073 -13.2639188766479 -0.0382837727665901
vertex 2.02570581436157 -12.8420267105103 -0.00865490548312664
vertex 3.38073825836182 -13.4214515686035 -0.0382837727665901
endloop
endfacet
facet normal 0.0193580407649279 -0.00585413863882422 0.999795436859131
outer loop
vertex 4.83105134963989 -13.6858100891113 -0.067912645637989
vertex 3.42837858200073 -13.2639188766479 -0.0382837727665901
vertex 4.78213882446289 -13.8475503921509 -0.067912645637989
endloop
endfacet
facet normal 0.0193580407649279 -0.00585413910448551 0.999795496463776
outer loop
vertex 3.38073825836182 -13.4214515686035 -0.0382837727665901
vertex 4.78213882446289 -13.8475503921509 -0.067912645637989
vertex 3.42837858200073 -13.2639188766479 -0.0382837727665901
endloop
endfacet
facet normal 0.0193580389022827 -0.00585413863882422 0.999795436859131
outer loop
vertex 4.83105134963989 -13.6858100891113 -0.067912645637989
vertex 4.78213882446289 -13.8475503921509 -0.067912645637989
vertex 6.22247886657715 -14.1043195724487 -0.0973039716482162
endloop
endfacet
facet normal 0.0193580389022827 -0.00585413863882422 0.999795436859131
outer loop
vertex 6.17230415344238 -14.2702331542969 -0.0973039716482162
vertex 6.22247886657715 -14.1043195724487 -0.0973039716482162
vertex 4.78213882446289 -13.8475503921509 -0.067912645637989
endloop
endfacet
facet normal 0.0193580389022827 -0.00585413863882422 0.999795436859131
outer loop
vertex 7.35353803634644 -14.6293897628784 -0.122277997434139
vertex 7.40478467941284 -14.4599304199219 -0.122277997434139
vertex 6.17230415344238 -14.2702331542969 -0.0973039716482162
endloop
endfacet
facet normal 0.0193580389022827 -0.00585413863882422 0.999795496463776
outer loop
vertex 6.22247886657715 -14.1043195724487 -0.0973039716482162
vertex 6.17230415344238 -14.2702331542969 -0.0973039716482162
vertex 7.40478467941284 -14.4599304199219 -0.122277997434139
endloop
endfacet
facet normal 0.0193580389022827 -0.00585413910448551 0.999795496463776
outer loop
vertex 7.35353803634644 -14.6293897628784 -0.122277997434139
vertex 8.29764556884766 -14.9164476394653 -0.142238631844521
vertex 7.40478467941284 -14.4599304199219 -0.122277997434139
endloop
endfacet
facet normal 0.0193580389022827 -0.00585413863882422 0.999795436859131
outer loop
vertex 8.34974956512451 -14.7441539764404 -0.142238631844521
vertex 7.40478467941284 -14.4599304199219 -0.122277997434139
vertex 8.29764556884766 -14.9164476394653 -0.142238631844521
endloop
endfacet
facet normal -0.219364374876022 -0.672307372093201 -0.70702338218689
outer loop
vertex 8.29918670654297 -14.9169063568115 -0.142278164625168
vertex 8.2615270614624 -15.0384788513184 -0.0149903008714318
vertex 7.26237440109253 -14.6016616821289 -0.120356783270836
endloop
endfacet
facet normal -0.219364359974861 -0.672307431697845 -0.70702338218689
outer loop
vertex 7.22879076004028 -14.7100582122803 -0.00686337519437075
vertex 7.26237440109253 -14.6016616821289 -0.120356783270836
vertex 8.2615270614624 -15.0384788513184 -0.0149903008714318
endloop
endfacet
facet normal -0.219364374876022 -0.672307431697845 -0.707023322582245
outer loop
vertex 7.26237440109253 -14.6016616821289 -0.120356783270836
vertex 7.22879076004028 -14.7100582122803 -0.00686337519437075
vertex 5.86896324157715 -14.1779937744141 -0.0908958166837692
endloop
endfacet
facet normal -0.2193643450737 -0.672307372093201 -0.707023322582245
outer loop
vertex 5.84088373184204 -14.2686891555786 0.0040584928356111
vertex 5.86896324157715 -14.1779937744141 -0.0908958166837692
vertex 7.22879076004028 -14.7100582122803 -0.00686337519437075
endloop
endfacet
facet normal -0.219364374876022 -0.672307431697845 -0.70702338218689
outer loop
vertex 5.86896324157715 -14.1779937744141 -0.0908958166837692
vertex 5.84088373184204 -14.2686891555786 0.0040584928356111
vertex 4.44158363342285 -13.7439975738525 -0.0607166513800621
endloop
endfacet
facet normal -0.219364389777184 -0.67230749130249 -0.70702338218689
outer loop
vertex 4.41912031173706 -13.816554069519 0.0152467945590615
vertex 4.44158363342285 -13.7439975738525 -0.0607166513800621
vertex 5.84088373184204 -14.2686891555786 0.0040584928356111
endloop
endfacet
facet normal -0.219364389777184 -0.67230749130249 -0.70702338218689
outer loop
vertex 4.44158363342285 -13.7439975738525 -0.0607166513800621
vertex 4.41912031173706 -13.816554069519 0.0152467945590615
vertex 3.01420378684998 -13.310001373291 -0.0305374879390001
endloop
endfacet
facet normal -0.219364359974861 -0.672307431697845 -0.707023322582245
outer loop
vertex 2.99735617637634 -13.3644189834595 0.0264350958168507
vertex 3.01420378684998 -13.310001373291 -0.0305374879390001
vertex 4.41912031173706 -13.816554069519 0.0152467945590615
endloop
endfacet
facet normal -0.219364359974861 -0.672307431697845 -0.707023322582245
outer loop
vertex 3.01420378684998 -13.310001373291 -0.0305374879390001
vertex 2.99735617637634 -13.3644189834595 0.0264350958168507
vertex 1.58682417869568 -12.8760051727295 -0.000358325865818188
endloop
endfacet
facet normal -0.219364389777184 -0.67230749130249 -0.70702338218689
outer loop
vertex 1.57559239864349 -12.9122838973999 0.0376233980059624
vertex 1.58682417869568 -12.8760051727295 -0.000358325865818188
vertex 2.99735617637634 -13.3644189834595 0.0264350958168507
endloop
endfacet
facet normal -0.219364389777184 -0.67230749130249 -0.70702338218689
outer loop
vertex 1.57559239864349 -12.9122838973999 0.0376233980059624
vertex 0.153828606009483 -12.460147857666 0.0488117001950741
vertex 1.58682417869568 -12.8760051727295 -0.000358325865818188
endloop
endfacet
facet normal -0.219364389777184 -0.67230749130249 -0.70702338218689
outer loop
vertex 0.159444451332092 -12.442008972168 0.0298208370804787
vertex 1.58682417869568 -12.8760051727295 -0.000358325865818188
vertex 0.153828606009483 -12.460147857666 0.0488117001950741
endloop
endfacet
facet normal -0.219364389777184 -0.67230749130249 -0.70702338218689
outer loop
vertex 0.153828606009483 -12.460147857666 0.0488117001950741
vertex -1.26793527603149 -12.0080127716064 0.0599999986588955
vertex 0.159444451332092 -12.442008972168 0.0298208370804787
endloop
endfacet
facet normal -0.956548571586609 0.289273500442505 0.0365456379950047
outer loop
vertex -0.87036269903183 -11.955864906311 10.0833196640015
vertex -0.905317008495331 -11.9468402862549 9.09699535369873
vertex -0.92246675491333 -12.1281585693359 10.0833196640015
endloop
endfacet
facet normal -0.956548571586609 0.289273530244827 0.0365456379950047
outer loop
vertex -0.956563949584961 -12.1163005828857 9.09699535369873
vertex -0.92246675491333 -12.1281585693359 10.0833196640015
vertex -0.905317008495331 -11.9468402862549 9.09699535369873
endloop
endfacet
facet normal -0.956548571586609 0.289273530244827 0.0365456379950047
outer loop
vertex -0.956563949584961 -12.1163005828857 9.09699535369873
vertex -0.905317008495331 -11.9468402862549 9.09699535369873
vertex -0.99922513961792 -12.1014633178711 7.86294078826904
endloop
endfacet
facet normal -0.956548571586609 0.289273530244827 0.0365456342697144
outer loop
vertex -0.949050545692444 -11.9355497360229 7.86294078826904
vertex -0.99922513961792 -12.1014633178711 7.86294078826904
vertex -0.905317008495331 -11.9468402862549 9.09699535369873
endloop
endfacet
facet normal -0.956548631191254 0.289273530244827 0.0365456379950047
outer loop
vertex -0.99922513961792 -12.1014633178711 7.86294078826904
vertex -0.949050545692444 -11.9355497360229 7.86294078826904
vertex -1.04943203926086 -12.084002494812 6.41061210632324
endloop
endfacet
facet normal -0.956548631191254 0.28927356004715 0.036545641720295
outer loop
vertex -1.00051951408386 -11.9222621917725 6.41061210632324
vertex -1.04943203926086 -12.084002494812 6.41061210632324
vertex -0.949050545692444 -11.9355497360229 7.86294078826904
endloop
endfacet
facet normal -0.956548631191254 0.289273530244827 0.036545641720295
outer loop
vertex -1.00051951408386 -11.9222621917725 6.41061210632324
vertex -1.05240440368652 -11.9088678359985 4.94654607772827
vertex -1.04943203926086 -12.084002494812 6.41061210632324
endloop
endfacet
facet normal -0.956548631191254 0.289273530244827 0.0365456379950047
outer loop
vertex -1.10004472732544 -12.0664014816284 4.94654607772827
vertex -1.04943203926086 -12.084002494812 6.41061210632324
vertex -1.05240440368652 -11.9088678359985 4.94654607772827
endloop
endfacet
facet normal -0.956548631191254 0.289273530244827 0.0365456379950047
outer loop
vertex -1.05240440368652 -11.9088678359985 4.94654607772827
vertex -1.10428941249847 -11.8954725265503 3.48247957229614
vertex -1.10004472732544 -12.0664014816284 4.94654607772827
endloop
endfacet
facet normal -0.956548631191254 0.289273530244827 0.0365456379950047
outer loop
vertex -1.15065741539001 -12.0487995147705 3.48247957229614
vertex -1.10004472732544 -12.0664014816284 4.94654607772827
vertex -1.10428941249847 -11.8954725265503 3.48247957229614
endloop
endfacet
facet normal -0.956548631191254 0.289273530244827 0.0365456379950047
outer loop
vertex -1.10428941249847 -11.8954725265503 3.48247957229614
vertex -1.1546813249588 -11.8824634552002 2.06054162979126
vertex -1.15065741539001 -12.0487995147705 3.48247957229614
endloop
endfacet
facet normal -0.956548631191254 0.289273530244827 0.0365456379950047
outer loop
vertex -1.19981372356415 -12.0317039489746 2.06054162979126
vertex -1.15065741539001 -12.0487995147705 3.48247957229614
vertex -1.1546813249588 -11.8824634552002 2.06054162979126
endloop
endfacet
facet normal -0.956548571586609 0.289273500442505 0.0365456342697144
outer loop
vertex -1.19981372356415 -12.0317039489746 2.06054162979126
vertex -1.1546813249588 -11.8824634552002 2.06054162979126
vertex -1.23859834671021 -12.0182151794434 0.938625633716583
endloop
endfacet
facet normal -0.956548571586609 0.289273530244827 0.0365456342697144
outer loop
vertex -1.1944408416748 -11.8721990585327 0.938625633716583
vertex -1.23859834671021 -12.0182151794434 0.938625633716583
vertex -1.1546813249588 -11.8824634552002 2.06054162979126
endloop
endfacet
facet normal -0.956548631191254 0.289273530244827 0.0365456342697144
outer loop
vertex -1.1944408416748 -11.8721990585327 0.938625633716583
vertex -1.22451519966125 -11.8644351959229 0.0900000035762787
vertex -1.23859834671021 -12.0182151794434 0.938625633716583
endloop
endfacet
facet normal -0.956548690795898 0.289273530244827 0.0365456379950047
outer loop
vertex -1.26793527603149 -12.0080127716064 0.0900000035762787
vertex -1.23859834671021 -12.0182151794434 0.938625633716583
vertex -1.22451519966125 -11.8644351959229 0.0900000035762787
endloop
endfacet
facet normal 0.187925830483437 0.68181586265564 -0.706973135471344
outer loop
vertex 1.07009053230286 -5.17001152038574 7.15615224838257
vertex 0.845318973064423 -5.83494281768799 6.45513391494751
vertex 0.897765159606934 -5.11817979812622 7.16033220291138
endloop
endfacet
facet normal 0.187925830483437 0.681815803050995 -0.706973135471344
outer loop
vertex 0.687238931655884 -5.78739595413208 6.45896816253662
vertex 0.897765159606934 -5.11817979812622 7.16033220291138
vertex 0.845318973064423 -5.83494281768799 6.45513391494751
endloop
endfacet
facet normal 0.187925830483437 0.68181586265564 -0.706973135471344
outer loop
vertex 0.687238931655884 -5.78739595413208 6.45896816253662
vertex 0.845318973064423 -5.83494281768799 6.45513391494751
vertex 0.42320916056633 -6.62668752670288 5.57935857772827
endloop
endfacet
facet normal 0.187925815582275 0.681815803050995 -0.706973075866699
outer loop
vertex 0.563423573970795 -6.66886043548584 5.57595777511597
vertex 0.42320916056633 -6.62668752670288 5.57935857772827
vertex 0.845318973064423 -5.83494281768799 6.45513391494751
endloop
endfacet
facet normal 0.187925845384598 0.68181586265564 -0.706973135471344
outer loop
vertex 0.42320916056633 -6.62668752670288 5.57935857772827
vertex 0.563423573970795 -6.66886043548584 5.57595777511597
vertex 0.112873136997223 -7.6131763458252 4.54548072814941
endloop
endfacet
facet normal 0.187925830483437 0.681815803050995 -0.706973135471344
outer loop
vertex 0.232088625431061 -7.64903354644775 4.54258918762207
vertex 0.112873136997223 -7.6131763458252 4.54548072814941
vertex 0.563423573970795 -6.66886043548584 5.57595777511597
endloop
endfacet
facet normal 0.187925815582275 0.681815803050995 -0.706973075866699
outer loop
vertex 0.232088625431061 -7.64903354644775 4.54258918762207
vertex -0.101624220609665 -8.63624095916748 3.50180435180664
vertex 0.112873136997223 -7.6131763458252 4.54548072814941
endloop
endfacet
facet normal 0.187925845384598 0.68181586265564 -0.706973135471344
outer loop
vertex -0.199690073728561 -8.60674476623535 3.50418305397034
vertex 0.112873136997223 -7.6131763458252 4.54548072814941
vertex -0.101624220609665 -8.63624095916748 3.50180435180664
endloop
endfacet
facet normal 0.187925845384598 0.68181586265564 -0.706973135471344
outer loop
vertex -0.512253284454346 -9.60031318664551 2.46288537979126
vertex -0.199690073728561 -8.60674476623535 3.50418305397034
vertex -0.435337066650391 -9.62344837188721 2.46101975440979
endloop
endfacet
facet normal 0.187925845384598 0.68181586265564 -0.706973135471344
outer loop
vertex -0.101624220609665 -8.63624095916748 3.50180435180664
vertex -0.435337066650391 -9.62344837188721 2.46101975440979
vertex -0.199690073728561 -8.60674476623535 3.50418305397034
endloop
endfacet
facet normal 0.187925830483437 0.68181586265564 -0.706973135471344
outer loop
vertex -0.435337066650391 -9.62344837188721 2.46101975440979
vertex -0.749931752681732 -10.5540990829468 1.47986078262329
vertex -0.512253284454346 -9.60031318664551 2.46288537979126
endloop
endfacet
facet normal 0.187925830483437 0.681815803050995 -0.706973135471344
outer loop
vertex -0.80690997838974 -10.536961555481 1.48124289512634
vertex -0.512253284454346 -9.60031318664551 2.46288537979126
vertex -0.749931752681732 -10.5540990829468 1.47986078262329
endloop
endfacet
facet normal 0.187925830483437 0.681815803050995 -0.706973135471344
outer loop
vertex -0.80690997838974 -10.536961555481 1.48124289512634
vertex -0.749931752681732 -10.5540990829468 1.47986078262329
vertex -0.997790634632111 -11.1437282562256 0.845327973365784
endloop
endfacet
facet normal 0.187925845384598 0.68181586265564 -0.706973135471344
outer loop
vertex -0.953728377819061 -11.1569814682007 0.844259202480316
vertex -0.997790634632111 -11.1437282562256 0.845327973365784
vertex -0.749931752681732 -10.5540990829468 1.47986078262329
endloop
endfacet
facet normal 0.187925845384598 0.68181586265564 -0.706973135471344
outer loop
vertex -0.953728377819061 -11.1569814682007 0.844259202480316
vertex -1.07673621177673 -11.5208692550659 0.460622161626816
vertex -0.997790634632111 -11.1437282562256 0.845327973365784
endloop
endfacet
facet normal 0.187925845384598 0.68181586265564 -0.706973195075989
outer loop
vertex -1.11300253868103 -11.5099611282349 0.461501866579056
vertex -0.997790634632111 -11.1437282562256 0.845327973365784
vertex -1.07673621177673 -11.5208692550659 0.460622161626816
endloop
endfacet
facet normal 0.187925845384598 0.68181586265564 -0.706973135471344
outer loop
vertex -1.11300253868103 -11.5099611282349 0.461501866579056
vertex -1.07673621177673 -11.5208692550659 0.460622161626816
vertex -1.18254232406616 -11.7310123443604 0.229831710457802
endloop
endfacet
facet normal 0.187925845384598 0.68181586265564 -0.706973135471344
outer loop
vertex -1.15098130702972 -11.7405052185059 0.229066148400307
vertex -1.18254232406616 -11.7310123443604 0.229831710457802
vertex -1.07673621177673 -11.5208692550659 0.460622161626816
endloop
endfacet
facet normal 0.187925815582275 0.681815803050995 -0.706973135471344
outer loop
vertex -1.18254232406616 -11.7310123443604 0.229831710457802
vertex -1.15098130702972 -11.7405052185059 0.229066148400307
vertex -1.22451519966125 -11.8644351959229 0.0900000035762787
endloop
endfacet
facet normal 0.187925830483437 0.68181586265564 -0.706973135471344
outer loop
vertex -1.19579434394836 -11.8730735778809 0.0893033295869827
vertex -1.22451519966125 -11.8644351959229 0.0900000035762787
vertex -1.15098130702972 -11.7405052185059 0.229066148400307
endloop
endfacet
facet normal -0.217301666736603 -0.672801852226257 0.707189917564392
outer loop
vertex 1.0692013502121 -5.17303848266602 7.1608190536499
vertex 0.897705495357513 -5.11836957931519 7.16013336181641
vertex 0.820626616477966 -5.8981990814209 6.39453983306885
endloop
endfacet
facet normal -0.217301666736603 -0.672801852226257 0.707189977169037
outer loop
vertex 0.667714893817902 -5.84945821762085 6.39392423629761
vertex 0.820626616477966 -5.8981990814209 6.39453983306885
vertex 0.897705495357513 -5.11836957931519 7.16013336181641
endloop
endfacet
facet normal -0.217301681637764 -0.672801852226257 0.707190036773682
outer loop
vertex 0.820626616477966 -5.8981990814209 6.39453983306885
vertex 0.667714893817902 -5.84945821762085 6.39392423629761
vertex 0.48655641078949 -6.87277269363403 5.36470460891724
endloop
endfacet
facet normal -0.217301666736603 -0.672801852226257 0.707189917564392
outer loop
vertex 0.35862672328949 -6.83198070526123 5.36420345306396
vertex 0.48655641078949 -6.87277269363403 5.36470460891724
vertex 0.667714893817902 -5.84945821762085 6.39392423629761
endloop
endfacet
facet normal -0.217301681637764 -0.672801852226257 0.707189977169037
outer loop
vertex 0.48655641078949 -6.87277269363403 5.36470460891724
vertex 0.35862672328949 -6.83198070526123 5.36420345306396
vertex 0.144342079758644 -7.8711051940918 4.30976390838623
endloop
endfacet
facet normal -0.217301666736603 -0.672801852226257 0.707189977169037
outer loop
vertex 0.0419983342289925 -7.83847141265869 4.30936288833618
vertex 0.144342079758644 -7.8711051940918 4.30976390838623
vertex 0.35862672328949 -6.83198070526123 5.36420345306396
endloop
endfacet
facet normal -0.217301666736603 -0.672801852226257 0.707189977169037
outer loop
vertex 0.144342079758644 -7.8711051940918 4.30976390838623
vertex 0.0419983342289925 -7.83847141265869 4.30936288833618
vertex -0.19787223637104 -8.8694372177124 3.25482273101807
endloop
endfacet
facet normal -0.217301666736603 -0.672801852226257 0.707189977169037
outer loop
vertex -0.274630039930344 -8.84496212005615 3.2545223236084
vertex -0.19787223637104 -8.8694372177124 3.25482273101807
vertex 0.0419983342289925 -7.83847141265869 4.30936288833618
endloop
endfacet
facet normal -0.217301666736603 -0.672801852226257 0.707189977169037
outer loop
vertex -0.19787223637104 -8.8694372177124 3.25482273101807
vertex -0.274630039930344 -8.84496212005615 3.2545223236084
vertex -0.540086567401886 -9.86777019500732 2.19988179206848
endloop
endfacet
facet normal -0.217301666736603 -0.672801852226257 0.707189977169037
outer loop
vertex -0.591258406639099 -9.85145282745361 2.19968152046204
vertex -0.540086567401886 -9.86777019500732 2.19988179206848
vertex -0.274630039930344 -8.84496212005615 3.2545223236084
endloop
endfacet
facet normal -0.217301666736603 -0.672801852226257 0.707189977169037
outer loop
vertex -0.591258406639099 -9.85145282745361 2.19968152046204
vertex -0.907886803150177 -10.8579435348511 1.14484071731567
vertex -0.540086567401886 -9.86777019500732 2.19988179206848
endloop
endfacet
facet normal -0.217301666736603 -0.672801852226257 0.707189977169037
outer loop
vertex -0.882300853729248 -10.8661022186279 1.14494097232819
vertex -0.540086567401886 -9.86777019500732 2.19988179206848
vertex -0.907886803150177 -10.8579435348511 1.14484071731567
endloop
endfacet
facet normal -0.217301666736603 -0.672801852226257 0.707189977169037
outer loop
vertex -0.907886803150177 -10.8579435348511 1.14484071731567
vertex -1.22451519966125 -11.8644351959229 0.0900000035762787
vertex -0.882300853729248 -10.8661022186279 1.14494097232819
endloop
endfacet
facet normal -0.303047955036163 -0.952974855899811 -0.000980853219516575
outer loop
vertex 0.0685157030820847 -12.4421911239624 9.01313209533691
vertex -0.92246675491333 -12.1281585693359 10.0833196640015
vertex 0.050161674618721 -12.4363355636597 8.99442291259766
endloop
endfacet
facet normal -0.303047955036163 -0.952974855899811 -0.000980853219516575
outer loop
vertex 1.05949819087982 -12.7562246322632 7.94294500350952
vertex 0.0685157030820847 -12.4421911239624 9.01313209533691
vertex 1.02279007434845 -12.7445125579834 7.90552568435669
endloop
endfacet
facet normal -0.303047955036163 -0.952974855899811 -0.000980853219516575
outer loop
vertex 0.050161674618721 -12.4363355636597 8.99442291259766
vertex 1.02279007434845 -12.7445125579834 7.90552568435669
vertex 0.0685157030820847 -12.4421911239624 9.01313209533691
endloop
endfacet
facet normal -0.303047955036163 -0.952974855899811 -0.000980853219516575
outer loop
vertex 1.02279007434845 -12.7445125579834 7.90552568435669
vertex 1.99541854858398 -13.0526895523071 6.81662845611572
vertex 1.05949819087982 -12.7562246322632 7.94294500350952
endloop
endfacet
facet normal -0.303047925233841 -0.952974796295166 -0.000980853219516575
outer loop
vertex 2.05048060417175 -13.0702571868896 6.87275791168213
vertex 1.05949819087982 -12.7562246322632 7.94294500350952
vertex 1.99541854858398 -13.0526895523071 6.81662845611572
endloop
endfacet
facet normal -0.303047925233841 -0.952974796295166 -0.000980853219516575
outer loop
vertex 2.05048060417175 -13.0702571868896 6.87275791168213
vertex 1.99541854858398 -13.0526895523071 6.81662845611572
vertex 3.04146313667297 -13.3842897415161 5.80257034301758
endloop
endfacet
facet normal -0.303047955036163 -0.952974855899811 -0.000980853219516575
outer loop
vertex 2.96804690361023 -13.3608665466309 5.72773122787476
vertex 3.04146313667297 -13.3842897415161 5.80257034301758
vertex 1.99541854858398 -13.0526895523071 6.81662845611572
endloop
endfacet
facet normal -0.303047955036163 -0.952974855899811 -0.000980853219516575
outer loop
vertex 3.04146313667297 -13.3842897415161 5.80257034301758
vertex 2.96804690361023 -13.3608665466309 5.72773122787476
vertex 4.03244543075562 -13.6983232498169 4.73238325119019
endloop
endfacet
facet normal -0.303047955036163 -0.952974855899811 -0.000980853219516575
outer loop
vertex 3.94067549705505 -13.6690435409546 4.63883399963379
vertex 4.03244543075562 -13.6983232498169 4.73238325119019
vertex 2.96804690361023 -13.3608665466309 5.72773122787476
endloop
endfacet
facet normal -0.303047955036163 -0.952974796295166 -0.000980853335931897
outer loop
vertex 4.03244543075562 -13.6983232498169 4.73238325119019
vertex 3.94067549705505 -13.6690435409546 4.63883399963379
vertex 4.99982929229736 -14.0048780441284 3.68768072128296
endloop
endfacet
facet normal -0.303047925233841 -0.952974796295166 -0.000980853219516575
outer loop
vertex 4.89015769958496 -13.9698867797852 3.57585024833679
vertex 4.99982929229736 -14.0048780441284 3.68768072128296
vertex 3.94067549705505 -13.6690435409546 4.63883399963379
endloop
endfacet
facet normal -0.303047955036163 -0.952974855899811 -0.000980853219516575
outer loop
vertex 4.99982929229736 -14.0048780441284 3.68768072128296
vertex 4.89015769958496 -13.9698867797852 3.57585024833679
vertex 5.71965599060059 -14.2329845428467 2.91032099723816
endloop
endfacet
facet normal -0.303047925233841 -0.952974736690521 -0.000980853103101254
outer loop
vertex 5.59665012359619 -14.1937389373779 2.78490281105042
vertex 5.71965599060059 -14.2329845428467 2.91032099723816
vertex 4.89015769958496 -13.9698867797852 3.57585024833679
endloop
endfacet
facet normal -1 0 0
outer loop
vertex -0.20227999985218 -11 0.165000006556511
vertex -0.20227999985218 -10 0.165000006556511
vertex -0.20227999985218 -11 -0.0149999996647239
endloop
endfacet
facet normal -1 0 0
outer loop
vertex -0.20227999985218 -10 -0.0149999996647239
vertex -0.20227999985218 -11 -0.0149999996647239
vertex -0.20227999985218 -10 0.165000006556511
endloop
endfacet
facet normal -0.70710676908493 0 -0.70710676908493
outer loop
vertex -0.20227999985218 -11 -0.0149999996647239
vertex -0.20227999985218 -10 -0.0149999996647239
vertex -0.0750000029802322 -11 -0.142279997467995
endloop
endfacet
facet normal -0.70710676908493 -0 -0.70710676908493
outer loop
vertex -0.0750000029802322 -10 -0.142279997467995
vertex -0.0750000029802322 -11 -0.142279997467995
vertex -0.20227999985218 -10 -0.0149999996647239
endloop
endfacet
facet normal -0.70710676908493 0 0.70710676908493
outer loop
vertex -0.0750000029802322 -11 0.292279988527298
vertex -0.0750000029802322 -10 0.292279988527298
vertex -0.20227999985218 -11 0.165000006556511
endloop
endfacet
facet normal -0.70710676908493 0 0.70710676908493
outer loop
vertex -0.20227999985218 -10 0.165000006556511
vertex -0.20227999985218 -11 0.165000006556511
vertex -0.0750000029802322 -10 0.292279988527298
endloop
endfacet
facet normal 0 0 -1
outer loop
vertex 0.104999996721745 -11 -0.142279997467995
vertex -0.0750000029802322 -11 -0.142279997467995
vertex 0.104999996721745 -10 -0.142279997467995
endloop
endfacet
facet normal 0 0 -1
outer loop
vertex -0.0750000029802322 -10 -0.142279997467995
vertex 0.104999996721745 -10 -0.142279997467995
vertex -0.0750000029802322 -11 -0.142279997467995
endloop
endfacet
facet normal 0 -0 1
outer loop
vertex 0.104999996721745 -11 0.292279988527298
vertex 0.104999996721745 -10 0.292279988527298
vertex -0.0750000029802322 -11 0.292279988527298
endloop
endfacet
facet normal -0 0 1
outer loop
vertex -0.0750000029802322 -10 0.292279988527298
vertex -0.0750000029802322 -11 0.292279988527298
vertex 0.104999996721745 -10 0.292279988527298
endloop
endfacet
facet normal 0.70710676908493 0 -0.70710676908493
outer loop
vertex 0.104999996721745 -11 -0.142279997467995
vertex 0.104999996721745 -10 -0.142279997467995
vertex 0.232280001044273 -11 -0.0149999996647239
endloop
endfacet
facet normal 0.70710676908493 0 -0.70710676908493
outer loop
vertex 0.232280001044273 -10 -0.0149999996647239
vertex 0.232280001044273 -11 -0.0149999996647239
vertex 0.104999996721745 -10 -0.142279997467995
endloop
endfacet
facet normal 0.70710676908493 -0 0.70710676908493
outer loop
vertex 0.232280001044273 -11 0.165000006556511
vertex 0.232280001044273 -10 0.165000006556511
vertex 0.104999996721745 -11 0.292279988527298
endloop
endfacet
facet normal 0.70710676908493 0 0.70710676908493
outer loop
vertex 0.104999996721745 -10 0.292279988527298
vertex 0.104999996721745 -11 0.292279988527298
vertex 0.232280001044273 -10 0.165000006556511
endloop
endfacet
facet normal 1 0 0
outer loop
vertex 0.232280001044273 -11 -0.0149999996647239
vertex 0.232280001044273 -10 -0.0149999996647239
vertex 0.232280001044273 -11 0.165000006556511
endloop
endfacet
facet normal 1 0 0
outer loop
vertex 0.232280001044273 -10 0.165000006556511
vertex 0.232280001044273 -11 0.165000006556511
vertex 0.232280001044273 -10 -0.0149999996647239
endloop
endfacet
facet normal -0 0.0142265604808927 0.999898850917816
outer loop
vertex -0.0750000029802322 -9.99898815155029 0.292265594005585
vertex 0.104999996721745 -9.99898815155029 0.292265594005585
vertex -0.0675601363182068 -9.00710678100586 0.278153121471405
endloop
endfacet
facet normal -3.00546910409956e-17 0.0142265614122152 0.999898850917816
outer loop
vertex 0.0975601375102997 -9.00710678100586 0.278153121471405
vertex -0.0675601363182068 -9.00710678100586 0.278153121471405
vertex 0.104999996721745 -9.99898815155029 0.292265594005585
endloop
endfacet
facet normal -3.38841468478669e-17 0.0142265595495701 0.999898731708527
outer loop
vertex -0.058229498565197 -7.76314783096313 0.260454058647156
vertex -0.0675601363182068 -9.00710678100586 0.278153121471405
vertex 0.0882294997572899 -7.76314783096313 0.260454058647156
endloop
endfacet
facet normal -3.00546877322731e-17 0.0142265586182475 0.999898731708527
outer loop
vertex 0.0975601375102997 -9.00710678100586 0.278153121471405
vertex 0.0882294997572899 -7.76314783096313 0.260454058647156
vertex -0.0675601363182068 -9.00710678100586 0.278153121471405
endloop
endfacet
facet normal -3.38841501565894e-17 0.0142265604808927 0.999898850917816
outer loop
vertex 0.0882294997572899 -7.76314783096313 0.260454058647156
vertex 0.0772624313831329 -6.30101919174194 0.239650905132294
vertex -0.058229498565197 -7.76314783096313 0.260454058647156
endloop
endfacet
facet normal 4.25812303491124e-16 0.0142265604808927 0.999898850917816
outer loop
vertex -0.04726243019104 -6.30101919174194 0.239650905132294
vertex -0.058229498565197 -7.76314783096313 0.260454058647156
vertex 0.0772624313831329 -6.30101919174194 0.239650905132294
endloop
endfacet
facet normal 4.25812303491124e-16 0.0142265614122152 0.999898850917816
outer loop
vertex -0.04726243019104 -6.30101919174194 0.239650905132294
vertex 0.0772624313831329 -6.30101919174194 0.239650905132294
vertex -0.0362166501581669 -4.82839775085449 0.218698441982269
endloop
endfacet
facet normal 1.23355618335241e-16 0.0142265586182475 0.999898731708527
outer loop
vertex 0.0662166476249695 -4.82839775085449 0.218698441982269
vertex -0.0362166501581669 -4.82839775085449 0.218698441982269
vertex 0.0772624313831329 -6.30101919174194 0.239650905132294
endloop
endfacet
facet normal 1.23355618335241e-16 0.0142265586182475 0.999898731708527
outer loop
vertex 0.0662166476249695 -4.82839775085449 0.218698441982269
vertex 0.0551708713173866 -3.35577630996704 0.197745978832245
vertex -0.0362166501581669 -4.82839775085449 0.218698441982269
endloop
endfacet
facet normal 1.8815926362836e-16 0.0142265595495701 0.999898731708527
outer loop
vertex -0.0251708701252937 -3.35577630996704 0.197745978832245
vertex -0.0362166501581669 -4.82839775085449 0.218698441982269
vertex 0.0551708713173866 -3.35577630996704 0.197745978832245
endloop
endfacet
facet normal 1.8815927686325e-16 0.0142265604808927 0.999898791313171
outer loop
vertex -0.0251708701252937 -3.35577630996704 0.197745978832245
vertex 0.0551708713173866 -3.35577630996704 0.197745978832245
vertex -0.014757894910872 -1.9675201177597 0.177993878722191
endloop
endfacet
facet normal 1.17539784240274e-16 0.0142265595495701 0.999898731708527
outer loop
vertex 0.0447578951716423 -1.9675201177597 0.177993878722191
vertex -0.014757894910872 -1.9675201177597 0.177993878722191
vertex 0.0551708713173866 -3.35577630996704 0.197745978832245
endloop
endfacet
facet normal 1.17539797475164e-16 0.0142265604808927 0.999898791313171
outer loop
vertex 0.0447578951716423 -1.9675201177597 0.177993878722191
vertex 0.03801229596138 -1.06819808483124 0.16519832611084
vertex -0.014757894910872 -1.9675201177597 0.177993878722191
endloop
endfacet
facet normal 6.86357149907264e-17 0.0142265595495701 0.999898731708527
outer loop
vertex -0.00801229663193226 -1.06819808483124 0.16519832611084
vertex -0.014757894910872 -1.9675201177597 0.177993878722191
vertex 0.03801229596138 -1.06819808483124 0.16519832611084
endloop
endfacet
facet normal 6.86357083732815e-17 0.0142265595495701 0.999898791313171
outer loop
vertex -0.00801229663193226 -1.06819808483124 0.16519832611084
vertex 0.03801229596138 -1.06819808483124 0.16519832611084
vertex -0.00394078250974417 -0.525384485721588 0.157475173473358
endloop
endfacet
facet normal 2.91863836701309e-16 0.0142265614122152 0.999898850917816
outer loop
vertex 0.0339407809078693 -0.525384485721588 0.157475173473358
vertex -0.00394078250974417 -0.525384485721588 0.157475173473358
vertex 0.03801229596138 -1.06819808483124 0.16519832611084
endloop
endfacet
facet normal 2.91863810231529e-16 0.0142265604808927 0.999898791313171
outer loop
vertex 0.0339407809078693 -0.525384485721588 0.157475173473358
vertex 0.0314832925796509 -0.197752460837364 0.152813628315926
vertex -0.00394078250974417 -0.525384485721588 0.157475173473358
endloop
endfacet
facet normal 3.83288814319235e-16 0.0142265604808927 0.999898791313171
outer loop
vertex -0.0014832935994491 -0.197752460837364 0.152813628315926
vertex -0.00394078250974417 -0.525384485721588 0.157475173473358
vertex 0.0314832925796509 -0.197752460837364 0.152813628315926
endloop
endfacet
facet normal 3.83288787849455e-16 0.0142265604808927 0.999898791313171
outer loop
vertex -0.0014832935994491 -0.197752460837364 0.152813628315926
vertex 0.0314832925796509 -0.197752460837364 0.152813628315926
vertex 0 0 0.150000005960464
endloop
endfacet
facet normal 0 0.0142265614122152 0.999898850917816
outer loop
vertex 0.0299999993294477 0 0.150000005960464
vertex 0 0 0.150000005960464
vertex 0.0314832925796509 -0.197752460837364 0.152813628315926
endloop
endfacet
facet normal -0.999795496463776 -0.0202238634228706 1.56744505680592e-16
outer loop
vertex 0.212277993559837 -9.0111722946167 -0.013519523665309
vertex 0.232238635420799 -9.99795436859131 -0.0149999996647239
vertex 0.212277993559837 -9.0111722946167 0.163519516587257
endloop
endfacet
facet normal -0.999795436859131 -0.0202238615602255 -0
outer loop
vertex 0.232238635420799 -9.99795436859131 0.165000006556511
vertex 0.212277993559837 -9.0111722946167 0.163519516587257
vertex 0.232238635420799 -9.99795436859131 -0.0149999996647239
endloop
endfacet
facet normal -0.999795436859131 -0.0202238615602255 1.56744505680592e-16
outer loop
vertex 0.212277993559837 -9.0111722946167 0.163519516587257
vertex 0.187303975224495 -7.77654600143433 0.161667197942734
vertex 0.212277993559837 -9.0111722946167 -0.013519523665309
endloop
endfacet
facet normal -0.999795496463776 -0.0202238634228706 6.5769408436777e-17
outer loop
vertex 0.187303975224495 -7.77654600143433 -0.0116672050207853
vertex 0.212277993559837 -9.0111722946167 -0.013519523665309
vertex 0.187303975224495 -7.77654600143433 0.161667197942734
endloop
endfacet
facet normal -0.999795436859131 -0.0202238634228706 6.57694150542219e-17
outer loop
vertex 0.187303975224495 -7.77654600143433 -0.0116672050207853
vertex 0.187303975224495 -7.77654600143433 0.161667197942734
vertex 0.157912641763687 -6.32354354858398 -0.00948725547641516
endloop
endfacet
facet normal -0.999795436859131 -0.0202238634228706 1.06302409887288e-16
outer loop
vertex 0.157912641763687 -6.32354354858398 0.159487262368202
vertex 0.157912641763687 -6.32354354858398 -0.00948725547641516
vertex 0.187303975224495 -7.77654600143433 0.161667197942734
endloop
endfacet
facet normal -0.999795436859131 -0.0202238615602255 1.06302409887288e-16
outer loop
vertex 0.157912641763687 -6.32354354858398 0.159487262368202
vertex 0.128283768892288 -4.85879850387573 0.157289683818817
vertex 0.157912641763687 -6.32354354858398 -0.00948725547641516
endloop
endfacet
facet normal -0.999795496463776 -0.0202238634228706 5.94697861800304e-17
outer loop
vertex 0.128283768892288 -4.85879850387573 -0.00728968856856227
vertex 0.157912641763687 -6.32354354858398 -0.00948725547641516
vertex 0.128283768892288 -4.85879850387573 0.157289683818817
endloop
endfacet
facet normal -0.999795496463776 -0.0202238634228706 5.94697861800304e-17
outer loop
vertex 0.128283768892288 -4.85879850387573 -0.00728968856856227
vertex 0.128283768892288 -4.85879850387573 0.157289683818817
vertex 0.0986549034714699 -3.39405298233032 -0.00509212119504809
endloop
endfacet
facet normal -0.999795496463776 -0.0202238615602255 5.03358510610667e-18
outer loop
vertex 0.0986549034714699 -3.39405298233032 0.155092120170593
vertex 0.0986549034714699 -3.39405298233032 -0.00509212119504809
vertex 0.128283768892288 -4.85879850387573 0.157289683818817
endloop
endfacet
facet normal -0.999795436859131 -0.0202238634228706 5.03358551969698e-18
outer loop
vertex 0.0986549034714699 -3.39405298233032 0.155092120170593
vertex 0.0698786005377769 -1.97145545482635 0.152957782149315
vertex 0.0986549034714699 -3.39405298233032 -0.00509212119504809
endloop
endfacet
facet normal -0.999795496463776 -0.0202238615602255 1.51764494581219e-16
outer loop
vertex 0.0698786005377769 -1.97145545482635 -0.00295778806321323
vertex 0.0986549034714699 -3.39405298233032 -0.00509212119504809
vertex 0.0698786005377769 -1.97145545482635 0.152957782149315
endloop
endfacet
facet normal -0.999795436859131 -0.0202238615602255 1.51764494581219e-16
outer loop
vertex 0.0698786005377769 -1.97145545482635 -0.00295778806321323
vertex 0.0698786005377769 -1.97145545482635 0.152957782149315
vertex 0.0471739619970322 -0.849019169807434 -0.00127378932666034
endloop
endfacet
facet normal -0.99979555606842 -0.0202238634228706 1.73614721924713e-17
outer loop
vertex 0.0471739619970322 -0.849019169807434 0.151273787021637
vertex 0.0471739619970322 -0.849019169807434 -0.00127378932666034
vertex 0.0698786005377769 -1.97145545482635 0.152957782149315
endloop
endfacet
facet normal -0.999795496463776 -0.0202238615602255 1.73614705381101e-17
outer loop
vertex 0.0471739619970322 -0.849019169807434 -0.00127378932666034
vertex 0.0471739619970322 -0.849019169807434 0.151273787021637
vertex 0.0299999993294477 0 0
endloop
endfacet
facet normal -0.999795496463776 -0.0202238652855158 -0
outer loop
vertex 0.0299999993294477 0 0.150000005960464
vertex 0.0299999993294477 0 0
vertex 0.0471739619970322 -0.849019169807434 0.151273787021637
endloop
endfacet
facet normal 0.707023322582245 0.0153622021898627 0.707023322582245
outer loop
vertex 0.232278168201447 -9.99956321716309 0.164992347359657
vertex 0.210356786847115 -8.91588592529297 0.163367584347725
vertex 0.104990303516388 -9.99870681762695 0.292261600494385
endloop
endfacet
facet normal 0.70702338218689 0.0153622031211853 0.70702338218689
outer loop
vertex 0.0968633741140366 -8.91511631011963 0.276844292879105
vertex 0.104990303516388 -9.99870681762695 0.292261600494385
vertex 0.210356786847115 -8.91588592529297 0.163367584347725
endloop
endfacet
facet normal 0.707023322582245 0.0153622021898627 0.707023322582245
outer loop
vertex 0.0859415084123611 -7.45886754989624 0.256124764680862
vertex 0.0968633741140366 -8.91511631011963 0.276844292879105
vertex 0.180895820260048 -7.45949125289917 0.161184012889862
endloop
endfacet
facet normal 0.707023322582245 0.0153622031211853 0.707023322582245
outer loop
vertex 0.210356786847115 -8.91588592529297 0.163367584347725
vertex 0.180895820260048 -7.45949125289917 0.161184012889862
vertex 0.0968633741140366 -8.91511631011963 0.276844292879105
endloop
endfacet
facet normal 0.70702338218689 0.0153622031211853 0.70702338218689
outer loop
vertex 0.180895820260048 -7.45949125289917 0.161184012889862
vertex 0.15071664750576 -5.9675931930542 0.158947214484215
vertex 0.0859415084123611 -7.45886754989624 0.256124764680862
endloop
endfacet
facet normal 0.70702338218689 0.0153622040525079 0.70702338218689
outer loop
vertex 0.0747532024979591 -5.96709394454956 0.234899818897247
vertex 0.0859415084123611 -7.45886754989624 0.256124764680862
vertex 0.15071664750576 -5.9675931930542 0.158947214484215
endloop
endfacet
facet normal 0.70702338218689 0.0153622040525079 0.70702338218689
outer loop
vertex 0.15071664750576 -5.9675931930542 0.158947214484215
vertex 0.120537489652634 -4.47569465637207 0.156710401177406
vertex 0.0747532024979591 -5.96709394454956 0.234899818897247
endloop
endfacet
facet normal 0.707023322582245 0.0153622021898627 0.707023322582245
outer loop
vertex 0.0635649040341377 -4.47532081604004 0.213674858212471
vertex 0.0747532024979591 -5.96709394454956 0.234899818897247
vertex 0.120537489652634 -4.47569465637207 0.156710401177406
endloop
endfacet
facet normal 0.707023322582245 0.0153622021898627 0.707023322582245
outer loop
vertex 0.120537489652634 -4.47569465637207 0.156710401177406
vertex 0.0903583243489265 -2.9837965965271 0.154473602771759
vertex 0.0635649040341377 -4.47532081604004 0.213674858212471
endloop
endfacet
facet normal 0.70702338218689 0.0153622040525079 0.70702338218689
outer loop
vertex 0.052376601845026 -2.98354697227478 0.192449912428856
vertex 0.0635649040341377 -4.47532081604004 0.213674858212471
vertex 0.0903583243489265 -2.9837965965271 0.154473602771759
endloop
endfacet
facet normal 0.70702338218689 0.0153622040525079 0.70702338218689
outer loop
vertex 0.052376601845026 -2.98354697227478 0.192449912428856
vertex 0.0903583243489265 -2.9837965965271 0.154473602771759
vertex 0.0411882996559143 -1.49177348613739 0.17122495174408
endloop
endfacet
facet normal 0.70702338218689 0.0153622040525079 0.70702338218689
outer loop
vertex 0.0601791627705097 -1.49189829826355 0.152236804366112
vertex 0.0411882996559143 -1.49177348613739 0.17122495174408
vertex 0.0903583243489265 -2.9837965965271 0.154473602771759
endloop
endfacet
facet normal 0.70702338218689 0.0153622040525079 0.70702338218689
outer loop
vertex 0.0411882996559143 -1.49177348613739 0.17122495174408
vertex 0.0601791627705097 -1.49189829826355 0.152236804366112
vertex 0.0299999993294477 0 0.150000005960464
endloop
endfacet
facet normal 0.707034468650818 0.0143018942326307 -0.707034468650818
outer loop
vertex 0.307236313819885 -19.9984836578369 -0.142293021082878
vertex 0.299108624458313 -18.914701461792 -0.128497958183289
vertex 0.434477269649506 -19.9959087371826 -0.0149999996647239
endloop
endfacet
facet normal 0.707034468650818 0.0143018933013082 -0.707034468650818
outer loop
vertex 0.412560045719147 -18.9124011993408 -0.0149999996647239
vertex 0.434477269649506 -19.9959087371826 -0.0149999996647239
vertex 0.299108624458313 -18.914701461792 -0.128497958183289
endloop
endfacet
facet normal 0.707034468650818 0.0143018933013082 -0.707034468650818
outer loop
vertex 0.299108624458313 -18.914701461792 -0.128497958183289
vertex 0.28818553686142 -17.4581661224365 -0.10995826870203
vertex 0.412560045719147 -18.9124011993408 -0.0149999996647239
endloop
endfacet
facet normal 0.707034409046173 0.014301891438663 -0.707034409046173
outer loop
vertex 0.383105248212814 -17.4562606811523 -0.0149999996647239
vertex 0.412560045719147 -18.9124011993408 -0.0149999996647239
vertex 0.28818553686142 -17.4581661224365 -0.10995826870203
endloop
endfacet
facet normal 0.707034528255463 0.0143018951639533 -0.707034528255463
outer loop
vertex 0.28818553686142 -17.4581661224365 -0.10995826870203
vertex 0.27699613571167 -15.9661245346069 -0.0909666121006012
vertex 0.383105248212814 -17.4562606811523 -0.0149999996647239
endloop
endfacet
facet normal 0.707034468650818 0.0143018942326307 -0.707034468650818
outer loop
vertex 0.352931916713715 -15.964599609375 -0.0149999996647239
vertex 0.383105248212814 -17.4562606811523 -0.0149999996647239
vertex 0.27699613571167 -15.9661245346069 -0.0909666121006012
endloop
endfacet
facet normal 0.707034468650818 0.0143018942326307 -0.707034468650818
outer loop
vertex 0.27699613571167 -15.9661245346069 -0.0909666121006012
vertex 0.265806764364243 -14.474081993103 -0.0719749629497528
vertex 0.352931916713715 -15.964599609375 -0.0149999996647239
endloop
endfacet
facet normal 0.707034468650818 0.0143018933013082 -0.707034468650818
outer loop
vertex 0.322758615016937 -14.4729385375977 -0.0149999996647239
vertex 0.352931916713715 -15.964599609375 -0.0149999996647239
vertex 0.265806764364243 -14.474081993103 -0.0719749629497528
endloop
endfacet
facet normal 0.707034468650818 0.0143018933013082 -0.707034468650818
outer loop
vertex 0.322758615016937 -14.4729385375977 -0.0149999996647239
vertex 0.265806764364243 -14.474081993103 -0.0719749629497528
vertex 0.292585283517838 -12.9812774658203 -0.0149999996647239
endloop
endfacet
facet normal 0.707034468650818 0.0143018942326307 -0.707034468650818
outer loop
vertex 0.254617393016815 -12.9820394515991 -0.0529833063483238
vertex 0.292585283517838 -12.9812774658203 -0.0149999996647239
vertex 0.265806764364243 -14.474081993103 -0.0719749629497528
endloop
endfacet
facet normal 0.707034468650818 0.0143018942326307 -0.707034468650818
outer loop
vertex 0.292585283517838 -12.9812774658203 -0.0149999996647239
vertex 0.254617393016815 -12.9820394515991 -0.0529833063483238
vertex 0.262411952018738 -11.489616394043 -0.0149999996647239
endloop
endfacet
facet normal 0.707034468650818 0.0143018942326307 -0.707034468650818
outer loop
vertex 0.243428006768227 -11.4899969100952 -0.0339916534721851
vertex 0.262411952018738 -11.489616394043 -0.0149999996647239
vertex 0.254617393016815 -12.9820394515991 -0.0529833063483238
endloop
endfacet
facet normal 0.707034468650818 0.0143018942326307 -0.707034468650818
outer loop
vertex 0.262411952018738 -11.489616394043 -0.0149999996647239
vertex 0.243428006768227 -11.4899969100952 -0.0339916534721851
vertex 0.232238635420799 -9.99795436859131 -0.0149999996647239
endloop
endfacet
facet normal 0.190973475575447 0.680904865264893 -0.707034468650818
outer loop
vertex 9.77754974365234 -15.1759405136108 -0.172411948442459
vertex 8.34974956512451 -14.7441539764404 -0.142238631844521
vertex 9.78341197967529 -15.1578722000122 -0.153428003191948
endloop
endfacet
facet normal 0.190973475575447 0.680904865264893 -0.707034468650818
outer loop
vertex 11.2053499221802 -15.6077270507813 -0.202585279941559
vertex 9.77754974365234 -15.1759405136108 -0.172411948442459
vertex 11.2170743942261 -15.571590423584 -0.164617389440536
endloop
endfacet
facet normal 0.190973475575447 0.680904865264893 -0.707034468650818
outer loop
vertex 9.78341197967529 -15.1578722000122 -0.153428003191948
vertex 11.2170743942261 -15.571590423584 -0.164617389440536
vertex 9.77754974365234 -15.1759405136108 -0.172411948442459
endloop
endfacet
facet normal 0.190973475575447 0.680904865264893 -0.707034468650818
outer loop
vertex 11.2053499221802 -15.6077270507813 -0.202585279941559
vertex 11.2170743942261 -15.571590423584 -0.164617389440536
vertex 12.633150100708 -16.0395126342773 -0.232758611440659
endloop
endfacet
facet normal 0.190973475575447 0.680904865264893 -0.707034468650818
outer loop
vertex 12.6507368087769 -15.9853086471558 -0.175806760787964
vertex 12.633150100708 -16.0395126342773 -0.232758611440659
vertex 11.2170743942261 -15.571590423584 -0.164617389440536
endloop
endfacet
facet normal 0.190973475575447 0.680904865264893 -0.707034468650818
outer loop
vertex 12.633150100708 -16.0395126342773 -0.232758611440659
vertex 12.6507368087769 -15.9853086471558 -0.175806760787964
vertex 14.0609512329102 -16.4713001251221 -0.262931942939758
endloop
endfacet
facet normal 0.190973475575447 0.680904865264893 -0.707034468650818
outer loop
vertex 14.0843992233276 -16.3990268707275 -0.186996147036552
vertex 14.0609512329102 -16.4713001251221 -0.262931942939758
vertex 12.6507368087769 -15.9853086471558 -0.175806760787964
endloop
endfacet
facet normal 0.190973475575447 0.680904865264893 -0.707034468650818
outer loop
vertex 14.0609512329102 -16.4713001251221 -0.262931942939758
vertex 14.0843992233276 -16.3990268707275 -0.186996147036552
vertex 15.488751411438 -16.9030876159668 -0.293105244636536
endloop
endfacet
facet normal 0.190973475575447 0.680904865264893 -0.707034468650818
outer loop
vertex 15.5180616378784 -16.8127460479736 -0.19818551838398
vertex 15.488751411438 -16.9030876159668 -0.293105244636536
vertex 14.0843992233276 -16.3990268707275 -0.186996147036552
endloop
endfacet
facet normal 0.190973475575447 0.680904805660248 -0.707034468650818
outer loop
vertex 15.488751411438 -16.9030876159668 -0.293105244636536
vertex 15.5180616378784 -16.8127460479736 -0.19818551838398
vertex 16.8825511932373 -17.3245906829834 -0.322560042142868
endloop
endfacet
facet normal 0.190973475575447 0.680904865264893 -0.707034468650818
outer loop
vertex 16.9176063537598 -17.2166175842285 -0.209108620882034
vertex 16.8825511932373 -17.3245906829834 -0.322560042142868
vertex 15.5180616378784 -16.8127460479736 -0.19818551838398
endloop
endfacet
facet normal 0.190973475575447 0.680904865264893 -0.707034468650818
outer loop
vertex 16.8825511932373 -17.3245906829834 -0.322560042142868
vertex 16.9176063537598 -17.2166175842285 -0.209108620882034
vertex 17.9196720123291 -17.6382312774658 -0.344477266073227
endloop
endfacet
facet normal 0.190973475575447 0.680904865264893 -0.707034468650818
outer loop
vertex 17.9589824676514 -17.5171318054199 -0.217236310243607
vertex 17.9196720123291 -17.6382312774658 -0.344477266073227
vertex 16.9176063537598 -17.2166175842285 -0.209108620882034
endloop
endfacet
endsolid COMSOL mesh mesh1
