solid COMSOL mesh mesh1
facet normal 0.378776609897614 0.00725816283375025 0.925459623336792
outer loop
vertex -7.35290813446045 -11.081298828125 13.6841411590576
vertex -7.35253953933716 -11.1112966537476 13.6842250823975
vertex -7.16445875167847 -11.0791988372803 13.6069946289063
endloop
endfacet
facet normal 0.378776609897614 0.00725816283375025 0.925459623336792
outer loop
vertex -7.16409015655518 -11.1091966629028 13.6070795059204
vertex -7.16445875167847 -11.0791988372803 13.6069946289063
vertex -7.35253953933716 -11.1112966537476 13.6842250823975
endloop
endfacet
facet normal 0.378776639699936 0.00725816329941154 0.925459623336792
outer loop
vertex -7.16409015655518 -11.1091966629028 13.6070795059204
vertex -6.8216667175293 -11.1053810119629 13.4669008255005
vertex -7.16445875167847 -11.0791988372803 13.6069946289063
endloop
endfacet
facet normal 0.378776639699936 0.00725816329941154 0.925459623336792
outer loop
vertex -6.82203578948975 -11.0753831863403 13.4668169021606
vertex -7.16445875167847 -11.0791988372803 13.6069946289063
vertex -6.8216667175293 -11.1053810119629 13.4669008255005
endloop
endfacet
facet normal 0.378776639699936 0.00725816329941154 0.925459623336792
outer loop
vertex -6.8216667175293 -11.1053810119629 13.4669008255005
vertex -6.19946527481079 -11.0984487533569 13.2121887207031
vertex -6.82203578948975 -11.0753831863403 13.4668169021606
endloop
endfacet
facet normal 0.378776639699936 0.00725816329941154 0.925459623336792
outer loop
vertex -6.19983386993408 -11.0684509277344 13.2121047973633
vertex -6.82203578948975 -11.0753831863403 13.4668169021606
vertex -6.19946527481079 -11.0984487533569 13.2121887207031
endloop
endfacet
facet normal 0.378776639699936 0.00725816329941154 0.925459682941437
outer loop
vertex -6.19946527481079 -11.0984487533569 13.2121887207031
vertex -5.0688910484314 -11.0858516693115 12.7493629455566
vertex -6.19983386993408 -11.0684509277344 13.2121047973633
endloop
endfacet
facet normal 0.378776639699936 0.00725816329941154 0.925459682941437
outer loop
vertex -5.06925964355469 -11.055853843689 12.7492780685425
vertex -6.19983386993408 -11.0684509277344 13.2121047973633
vertex -5.0688910484314 -11.0858516693115 12.7493629455566
endloop
endfacet
facet normal 0.378776639699936 0.00725816283375025 0.925459623336792
outer loop
vertex -3.50767397880554 -11.0384550094604 12.1100082397461
vertex -5.06925964355469 -11.055853843689 12.7492780685425
vertex -3.50730514526367 -11.068452835083 12.1100931167603
endloop
endfacet
facet normal 0.378776639699936 0.00725816283375025 0.925459623336792
outer loop
vertex -5.0688910484314 -11.0858516693115 12.7493629455566
vertex -3.50730514526367 -11.068452835083 12.1100931167603
vertex -5.06925964355469 -11.055853843689 12.7492780685425
endloop
endfacet
facet normal 0.378776639699936 0.00725816329941154 0.925459682941437
outer loop
vertex -3.50767397880554 -11.0384550094604 12.1100082397461
vertex -3.50730514526367 -11.068452835083 12.1100931167603
vertex -1.94407749176025 -11.0210332870483 11.4699153900146
endloop
endfacet
facet normal 0.378776639699936 0.00725816329941154 0.925459682941437
outer loop
vertex -1.94370877742767 -11.0510311126709 11.4700002670288
vertex -1.94407749176025 -11.0210332870483 11.4699153900146
vertex -3.50730514526367 -11.068452835083 12.1100931167603
endloop
endfacet
facet normal 0.378776639699936 0.00725816283375025 0.925459623336792
outer loop
vertex -1.94407749176025 -11.0210332870483 11.4699153900146
vertex -1.94370877742767 -11.0510311126709 11.4700002670288
vertex -0.382491886615753 -11.0036334991455 10.8306455612183
endloop
endfacet
facet normal 0.378776639699936 0.00725816283375025 0.925459623336792
outer loop
vertex -0.382123112678528 -11.0336313247681 10.8307304382324
vertex -0.382491886615753 -11.0036334991455 10.8306455612183
vertex -1.94370877742767 -11.0510311126709 11.4700002670288
endloop
endfacet
facet normal 0.378776639699936 0.00725816329941154 0.925459682941437
outer loop
vertex 0.748082637786865 -10.9910364151001 10.3678197860718
vertex -0.382491886615753 -11.0036334991455 10.8306455612183
vertex 0.748451352119446 -11.0210342407227 10.3679046630859
endloop
endfacet
facet normal 0.378776639699936 0.00725816329941154 0.925459682941437
outer loop
vertex -0.382123112678528 -11.0336313247681 10.8307304382324
vertex 0.748451352119446 -11.0210342407227 10.3679046630859
vertex -0.382491886615753 -11.0036334991455 10.8306455612183
endloop
endfacet
facet normal 0.378776639699936 0.00725816329941154 0.925459623336792
outer loop
vertex 0.748082637786865 -10.9910364151001 10.3678197860718
vertex 0.748451352119446 -11.0210342407227 10.3679046630859
vertex 1.37028419971466 -10.9841041564941 10.1131076812744
endloop
endfacet
facet normal 0.378776639699936 0.00725816329941154 0.925459623336792
outer loop
vertex 1.37065291404724 -11.0141019821167 10.1131925582886
vertex 1.37028419971466 -10.9841041564941 10.1131076812744
vertex 0.748451352119446 -11.0210342407227 10.3679046630859
endloop
endfacet
facet normal 0.378776639699936 0.00725816329941154 0.925459623336792
outer loop
vertex 1.37028419971466 -10.9841041564941 10.1131076812744
vertex 1.37065291404724 -11.0141019821167 10.1131925582886
vertex 1.71270728111267 -10.9802885055542 9.97292900085449
endloop
endfacet
facet normal 0.378776639699936 0.00725816329941154 0.925459623336792
outer loop
vertex 1.71307599544525 -11.0102863311768 9.97301387786865
vertex 1.71270728111267 -10.9802885055542 9.97292900085449
vertex 1.37065291404724 -11.0141019821167 10.1131925582886
endloop
endfacet
facet normal 0.378776609897614 0.00725816283375025 0.925459623336792
outer loop
vertex 1.71270728111267 -10.9802885055542 9.97292900085449
vertex 1.71307599544525 -11.0102863311768 9.97301387786865
vertex 1.90115666389465 -10.9781894683838 9.89578342437744
endloop
endfacet
facet normal 0.378776609897614 0.00725816283375025 0.925459623336792
outer loop
vertex 1.90152549743652 -11.008186340332 9.89586734771729
vertex 1.90115666389465 -10.9781894683838 9.89578342437744
vertex 1.71307599544525 -11.0102863311768 9.97301387786865
endloop
endfacet
facet normal 0.378834784030914 0.00212394981645048 0.925461888313293
outer loop
vertex -5.83442449569702 -11.0643796920776 13.0625162124634
vertex -7.35290813446045 -11.081298828125 13.6841411590576
vertex -5.83437442779541 -11.0693016052246 13.0625066757202
endloop
endfacet
facet normal 0.378834784030914 0.00212394981645048 0.925461888313293
outer loop
vertex -4.31594085693359 -11.0474605560303 12.4408912658691
vertex -5.83442449569702 -11.0643796920776 13.0625162124634
vertex -4.31584024429321 -11.0573053359985 12.4408721923828
endloop
endfacet
facet normal 0.378834784030914 0.00212394981645048 0.925461888313293
outer loop
vertex -5.83437442779541 -11.0693016052246 13.0625066757202
vertex -4.31584024429321 -11.0573053359985 12.4408721923828
vertex -5.83442449569702 -11.0643796920776 13.0625162124634
endloop
endfacet
facet normal 0.378834784030914 0.00212394981645048 0.925461888313293
outer loop
vertex -4.31594085693359 -11.0474605560303 12.4408912658691
vertex -4.31584024429321 -11.0573053359985 12.4408721923828
vertex -2.79745745658875 -11.0305414199829 11.8192653656006
endloop
endfacet
facet normal 0.378834754228592 0.00212394958361983 0.925461947917938
outer loop
vertex -2.79730629920959 -11.0453090667725 11.8192377090454
vertex -2.79745745658875 -11.0305414199829 11.8192653656006
vertex -4.31584024429321 -11.0573053359985 12.4408721923828
endloop
endfacet
facet normal 0.378834784030914 0.00212394981645048 0.925461888313293
outer loop
vertex -1.2789740562439 -11.0136222839355 11.1976404190063
vertex -2.79745745658875 -11.0305414199829 11.8192653656006
vertex -1.27877247333527 -11.0333118438721 11.197603225708
endloop
endfacet
facet normal 0.378834754228592 0.00212394958361983 0.925461947917938
outer loop
vertex -2.79730629920959 -11.0453090667725 11.8192377090454
vertex -1.27877247333527 -11.0333118438721 11.197603225708
vertex -2.79745745658875 -11.0305414199829 11.8192653656006
endloop
endfacet
facet normal 0.378834784030914 0.00212394981645048 0.925461947917938
outer loop
vertex -1.2789740562439 -11.0136222839355 11.1976404190063
vertex -1.27877247333527 -11.0333118438721 11.197603225708
vertex 0.0736341327428818 -10.9985513687134 10.6439208984375
endloop
endfacet
facet normal 0.37883472442627 0.00212394935078919 0.925461828708649
outer loop
vertex 0.0738841518759727 -11.0226259231567 10.6438732147217
vertex 0.0736341327428818 -10.9985513687134 10.6439208984375
vertex -1.27877247333527 -11.0333118438721 11.197603225708
endloop
endfacet
facet normal 0.378834754228592 0.00212394935078919 0.925461828708649
outer loop
vertex 0.910689830780029 -10.9892253875732 10.3012533187866
vertex 0.0736341327428818 -10.9985513687134 10.6439208984375
vertex 0.910969376564026 -11.0160121917725 10.3011999130249
endloop
endfacet
facet normal 0.37883472442627 0.00212394958361983 0.925461828708649
outer loop
vertex 0.0738841518759727 -11.0226259231567 10.6438732147217
vertex 0.910969376564026 -11.0160121917725 10.3011999130249
vertex 0.0736341327428818 -10.9985513687134 10.6439208984375
endloop
endfacet
facet normal 0.378834754228592 0.00212394958361983 0.925461888313293
outer loop
vertex 0.910689830780029 -10.9892253875732 10.3012533187866
vertex 0.910969376564026 -11.0160121917725 10.3011999130249
vertex 1.41477620601654 -10.9836082458496 10.0948944091797
endloop
endfacet
facet normal 0.378834784030914 0.00212394958361983 0.925461888313293
outer loop
vertex 1.41507232189178 -11.0120296478271 10.094838142395
vertex 1.41477620601654 -10.9836082458496 10.0948944091797
vertex 0.910969376564026 -11.0160121917725 10.3011999130249
endloop
endfacet
facet normal 0.378834754228592 0.00212394958361983 0.925461888313293
outer loop
vertex 1.41477620601654 -10.9836082458496 10.0948944091797
vertex 1.41507232189178 -11.0120296478271 10.094838142395
vertex 1.71834397315979 -10.9802265167236 9.97062206268311
endloop
endfacet
facet normal 0.378834754228592 0.00212394958361983 0.925461828708649
outer loop
vertex 1.71864938735962 -11.0096321105957 9.97056484222412
vertex 1.71834397315979 -10.9802265167236 9.97062206268311
vertex 1.41507232189178 -11.0120296478271 10.094838142395
endloop
endfacet
facet normal 0.378834784030914 0.00212394981645048 0.925461947917938
outer loop
vertex 1.71834397315979 -10.9802265167236 9.97062206268311
vertex 1.71864938735962 -11.0096321105957 9.97056484222412
vertex 1.90115666389465 -10.9781894683838 9.89578342437744
endloop
endfacet
facet normal 0.37883472442627 0.00212394958361983 0.925461888313293
outer loop
vertex 1.90146708488464 -11.0081872940063 9.89572525024414
vertex 1.90115666389465 -10.9781894683838 9.89578342437744
vertex 1.71864938735962 -11.0096321105957 9.97056484222412
endloop
endfacet
facet normal -0.708566069602966 -0.00788025557994843 -0.705600559711456
outer loop
vertex 2.02390837669373 -20.9779853820801 9.92347526550293
vertex 1.43182158470154 -20.9795360565186 10.5180683135986
vertex 2.02224016189575 -20.827995300293 9.92347526550293
endloop
endfacet
facet normal -0.708566009998322 -0.00788025557994843 -0.705600500106812
outer loop
vertex 1.43026554584503 -20.8396129608154 10.5180683135986
vertex 2.02224016189575 -20.827995300293 9.92347526550293
vertex 1.43182158470154 -20.9795360565186 10.5180683135986
endloop
endfacet
facet normal -0.708566009998322 -0.00788025557994843 -0.705600500106812
outer loop
vertex 1.43026554584503 -20.8396129608154 10.5180683135986
vertex 1.43182158470154 -20.9795360565186 10.5180683135986
vertex 0.628653109073639 -20.8553466796875 11.3232250213623
endloop
endfacet
facet normal -0.708566009998322 -0.00788025557994843 -0.705600500106812
outer loop
vertex 0.630057632923126 -20.9816341400146 11.3232250213623
vertex 0.628653109073639 -20.8553466796875 11.3232250213623
vertex 1.43182158470154 -20.9795360565186 10.5180683135986
endloop
endfacet
facet normal -0.708566009998322 -0.00788025557994843 -0.705600559711456
outer loop
vertex 0.628653109073639 -20.8553466796875 11.3232250213623
vertex 0.630057632923126 -20.9816341400146 11.3232250213623
vertex -0.41986608505249 -20.8759250640869 12.3763809204102
endloop
endfacet
facet normal -0.708566009998322 -0.00788025464862585 -0.705600440502167
outer loop
vertex -0.418659895658493 -20.9843788146973 12.3763809204102
vertex -0.41986608505249 -20.8759250640869 12.3763809204102
vertex 0.630057632923126 -20.9816341400146 11.3232250213623
endloop
endfacet
facet normal -0.708566009998322 -0.00788025557994843 -0.705600500106812
outer loop
vertex -0.418659895658493 -20.9843788146973 12.3763809204102
vertex -1.51050055027008 -20.9872379302979 13.4728422164917
vertex -0.41986608505249 -20.8759250640869 12.3763809204102
endloop
endfacet
facet normal -0.708566009998322 -0.00788025464862585 -0.705600500106812
outer loop
vertex -1.51150023937225 -20.8973503112793 13.4728422164917
vertex -0.41986608505249 -20.8759250640869 12.3763809204102
vertex -1.51050055027008 -20.9872379302979 13.4728422164917
endloop
endfacet
facet normal -0.708566009998322 -0.00788025464862585 -0.705600500106812
outer loop
vertex -1.51050055027008 -20.9872379302979 13.4728422164917
vertex -2.60234117507935 -20.9900951385498 14.5693035125732
vertex -1.51150023937225 -20.8973503112793 13.4728422164917
endloop
endfacet
facet normal -0.708566069602966 -0.00788025557994843 -0.705600559711456
outer loop
vertex -2.60313439369202 -20.9187755584717 14.5693035125732
vertex -1.51150023937225 -20.8973503112793 13.4728422164917
vertex -2.60234117507935 -20.9900951385498 14.5693035125732
endloop
endfacet
facet normal -0.708566009998322 -0.00788025464862585 -0.705600500106812
outer loop
vertex -2.60234117507935 -20.9900951385498 14.5693035125732
vertex -3.6161789894104 -20.9927501678467 15.5874319076538
vertex -2.60313439369202 -20.9187755584717 14.5693035125732
endloop
endfacet
facet normal -0.708566009998322 -0.00788025557994843 -0.705600500106812
outer loop
vertex -3.61678051948547 -20.9386692047119 15.5874319076538
vertex -2.60313439369202 -20.9187755584717 14.5693035125732
vertex -3.6161789894104 -20.9927501678467 15.5874319076538
endloop
endfacet
facet normal -0.708566009998322 -0.00788025557994843 -0.705600500106812
outer loop
vertex -3.61678051948547 -20.9386692047119 15.5874319076538
vertex -3.6161789894104 -20.9927501678467 15.5874319076538
vertex -4.26159906387329 -20.9513263702393 16.2351016998291
endloop
endfacet
facet normal -0.708566009998322 -0.00788025557994843 -0.705600559711456
outer loop
vertex -4.2611198425293 -20.9944381713867 16.2351016998291
vertex -4.26159906387329 -20.9513263702393 16.2351016998291
vertex -3.6161789894104 -20.9927501678467 15.5874319076538
endloop
endfacet
facet normal -0.708565950393677 -0.00788025464862585 -0.705600500106812
outer loop
vertex -4.2611198425293 -20.9944381713867 16.2351016998291
vertex -4.65195369720459 -20.9954624176025 16.6275901794434
vertex -4.26159906387329 -20.9513263702393 16.2351016998291
endloop
endfacet
facet normal -0.708566009998322 -0.00788025557994843 -0.705600500106812
outer loop
vertex -4.65235948562622 -20.9589958190918 16.6275901794434
vertex -4.26159906387329 -20.9513263702393 16.2351016998291
vertex -4.65195369720459 -20.9954624176025 16.6275901794434
endloop
endfacet
facet normal -0.708566009998322 -0.00788025557994843 -0.705600500106812
outer loop
vertex -4.65235948562622 -20.9589958190918 16.6275901794434
vertex -4.65195369720459 -20.9954624176025 16.6275901794434
vertex -4.88916015625 -20.9636421203613 16.8654384613037
endloop
endfacet
facet normal -0.708566069602966 -0.00788025557994843 -0.705600559711456
outer loop
vertex -4.88879919052124 -20.9960823059082 16.8654384613037
vertex -4.88916015625 -20.9636421203613 16.8654384613037
vertex -4.65195369720459 -20.9954624176025 16.6275901794434
endloop
endfacet
facet normal -0.708566009998322 -0.00788025464862585 -0.705600500106812
outer loop
vertex -4.88916015625 -20.9636421203613 16.8654384613037
vertex -4.88879919052124 -20.9960823059082 16.8654384613037
vertex -5.03266143798828 -20.966459274292 17.0095729827881
endloop
endfacet
facet normal -0.708566009998322 -0.00788025464862585 -0.705600500106812
outer loop
vertex -5.03232765197754 -20.9964580535889 17.0095729827881
vertex -5.03266143798828 -20.966459274292 17.0095729827881
vertex -4.88879919052124 -20.9960823059082 16.8654384613037
endloop
endfacet
facet normal -0.36147466301918 0.319734007120132 0.875845968723297
outer loop
vertex -0.353320598602295 -30.2274932861328 12.3744020462036
vertex -0.326251238584518 -30.230993270874 12.38685131073
vertex -0.306392461061478 -30.0418109893799 12.325984954834
endloop
endfacet
facet normal -0.361474633216858 0.31973397731781 0.875846028327942
outer loop
vertex -0.279857575893402 -30.0452404022217 12.3381881713867
vertex -0.306392461061478 -30.0418109893799 12.325984954834
vertex -0.326251238584518 -30.230993270874 12.38685131073
endloop
endfacet
facet normal -0.361474633216858 0.319733947515488 0.875845968723297
outer loop
vertex -0.202818870544434 -29.7367877960205 12.2573804855347
vertex -0.228466019034386 -29.7334747314453 12.2455863952637
vertex -0.279857575893402 -30.0452404022217 12.3381881713867
endloop
endfacet
facet normal -0.361474692821503 0.319734036922455 0.875846028327942
outer loop
vertex -0.306392461061478 -30.0418109893799 12.325984954834
vertex -0.279857575893402 -30.0452404022217 12.3381881713867
vertex -0.228466019034386 -29.7334747314453 12.2455863952637
endloop
endfacet
facet normal -0.36147466301918 0.319734007120132 0.875845968723297
outer loop
vertex -0.228466019034386 -29.7334747314453 12.2455863952637
vertex -0.202818870544434 -29.7367877960205 12.2573804855347
vertex -0.0990654900670052 -29.2214698791504 12.1120805740356
endloop
endfacet
facet normal -0.361474633216858 0.31973397731781 0.875846028327942
outer loop
vertex -0.0748927518725395 -29.2245922088623 12.1231966018677
vertex -0.0990654900670052 -29.2214698791504 12.1120805740356
vertex -0.202818870544434 -29.7367877960205 12.2573804855347
endloop
endfacet
facet normal -0.36147466301918 0.31973397731781 0.875845968723297
outer loop
vertex -0.0748927518725395 -29.2245922088623 12.1231966018677
vertex 0.137534126639366 -28.3740673065186 11.9003782272339
vertex -0.0990654900670052 -29.2214698791504 12.1120805740356
endloop
endfacet
facet normal -0.36147466301918 0.319734036922455 0.875846087932587
outer loop
vertex 0.115810267627239 -28.3712596893311 11.8903875350952
vertex -0.0990654900670052 -29.2214698791504 12.1120805740356
vertex 0.137534126639366 -28.3740673065186 11.9003782272339
endloop
endfacet
facet normal -0.36147466301918 0.319734007120132 0.875846028327942
outer loop
vertex 0.115810267627239 -28.3712596893311 11.8903875350952
vertex 0.137534126639366 -28.3740673065186 11.9003782272339
vertex 0.463031649589539 -26.9973926544189 11.5321502685547
endloop
endfacet
facet normal -0.36147466301918 0.319734007120132 0.875846028327942
outer loop
vertex 0.480798155069351 -26.9996910095215 11.540322303772
vertex 0.463031649589539 -26.9973926544189 11.5321502685547
vertex 0.137534126639366 -28.3740673065186 11.9003782272339
endloop
endfacet
facet normal -0.36147466301918 0.319734007120132 0.875846028327942
outer loop
vertex 0.480798155069351 -26.9996910095215 11.540322303772
vertex 0.866158664226532 -25.4567680358887 11.1361103057861
vertex 0.463031649589539 -26.9973926544189 11.5321502685547
endloop
endfacet
facet normal -0.361474633216858 0.31973397731781 0.875846028327942
outer loop
vertex 0.852833807468414 -25.4550437927246 11.1299819946289
vertex 0.463031649589539 -26.9973926544189 11.5321502685547
vertex 0.866158664226532 -25.4567680358887 11.1361103057861
endloop
endfacet
facet normal -0.361474633216858 0.31973397731781 0.875846028327942
outer loop
vertex 0.852833807468414 -25.4550437927246 11.1299819946289
vertex 0.866158664226532 -25.4567680358887 11.1361103057861
vertex 1.24263596534729 -23.9126930236816 10.7278127670288
endloop
endfacet
facet normal -0.36147466301918 0.319734007120132 0.875846028327942
outer loop
vertex 1.25151920318604 -23.9138431549072 10.7318992614746
vertex 1.24263596534729 -23.9126930236816 10.7278127670288
vertex 0.866158664226532 -25.4567680358887 11.1361103057861
endloop
endfacet
facet normal -0.36147466301918 0.319734007120132 0.875846028327942
outer loop
vertex 1.25151920318604 -23.9138431549072 10.7318992614746
vertex 1.63687980175018 -22.3709182739258 10.3276872634888
vertex 1.24263596534729 -23.9126930236816 10.7278127670288
endloop
endfacet
facet normal -0.36147466301918 0.319734007120132 0.875846028327942
outer loop
vertex 1.63243806362152 -22.3703441619873 10.325644493103
vertex 1.24263596534729 -23.9126930236816 10.7278127670288
vertex 1.63687980175018 -22.3709182739258 10.3276872634888
endloop
endfacet
facet normal -0.36147466301918 0.319734007120132 0.875846028327942
outer loop
vertex 1.63687980175018 -22.3709182739258 10.3276872634888
vertex 2.02224016189575 -20.827995300293 9.92347526550293
vertex 1.63243806362152 -22.3703441619873 10.325644493103
endloop
endfacet
facet normal 0.999975621700287 0.00297545059584081 -0.00631041964516044
outer loop
vertex -0.00127822812646627 -0.00226846872828901 -0.20362301170826
vertex 0 0 0
vertex -0.00118686293717474 -0.0322664752602577 -0.203289389610291
endloop
endfacet
facet normal 0.999975621700287 0.00297545059584081 -0.00631041964516044
outer loop
vertex 9.13650947040878e-05 -0.0299980062991381 0.000333620206220075
vertex -0.00118686293717474 -0.0322664752602577 -0.203289389610291
vertex 0 0 0
endloop
endfacet
facet normal 0.999975681304932 0.00297545082867146 -0.00631041964516044
outer loop
vertex -0.00127822812646627 -0.00226846872828901 -0.20362301170826
vertex -0.00118686293717474 -0.0322664752602577 -0.203289389610291
vertex -0.00360083882696927 -0.00639040116220713 -0.573617219924927
endloop
endfacet
facet normal 0.999975681304932 0.00297545082867146 -0.00631041964516044
outer loop
vertex -0.00350947375409305 -0.0363884083926678 -0.573283612728119
vertex -0.00360083882696927 -0.00639040116220713 -0.573617219924927
vertex -0.00118686293717474 -0.0322664752602577 -0.203289389610291
endloop
endfacet
facet normal 0.999975621700287 0.00297545059584081 -0.00631041917949915
outer loop
vertex -0.00360083882696927 -0.00639040116220713 -0.573617219924927
vertex -0.00350947375409305 -0.0363884083926678 -0.573283612728119
vertex -0.0078211510553956 -0.0138801801949739 -1.24591720104218
endloop
endfacet
facet normal 0.999975621700287 0.00297545059584081 -0.00631041917949915
outer loop
vertex -0.0077297855168581 -0.043878186494112 -1.24558353424072
vertex -0.0078211510553956 -0.0138801801949739 -1.24591720104218
vertex -0.00350947375409305 -0.0363884083926678 -0.573283612728119
endloop
endfacet
facet normal 0.999975681304932 0.0029754510615021 -0.00631042011082172
outer loop
vertex -0.0154896900057793 -0.0274895206093788 -2.46752309799194
vertex -0.0078211510553956 -0.0138801801949739 -1.24591720104218
vertex -0.0153983244672418 -0.0574875250458717 -2.46718955039978
endloop
endfacet
facet normal 0.999975681304932 0.0029754510615021 -0.00631042011082172
outer loop
vertex -0.0077297855168581 -0.043878186494112 -1.24558353424072
vertex -0.0153983244672418 -0.0574875250458717 -2.46718955039978
vertex -0.0078211510553956 -0.0138801801949739 -1.24591720104218
endloop
endfacet
facet normal 0.999975740909576 0.0029754510615021 -0.00631042011082172
outer loop
vertex -0.0154896900057793 -0.0274895206093788 -2.46752309799194
vertex -0.0153983244672418 -0.0574875250458717 -2.46718955039978
vertex -0.026081720367074 -0.0462871752679348 -4.15484428405762
endloop
endfacet
facet normal 0.999975740909576 0.0029754510615021 -0.00631042011082172
outer loop
vertex -0.0259903557598591 -0.076285183429718 -4.15451049804688
vertex -0.026081720367074 -0.0462871752679348 -4.15484428405762
vertex -0.0153983244672418 -0.0574875250458717 -2.46718955039978
endloop
endfacet
facet normal 0.999975681304932 0.00297545059584081 -0.00631041964516044
outer loop
vertex -0.0259903557598591 -0.076285183429718 -4.15451049804688
vertex -0.0365960262715816 -0.0951070412993431 -5.84400463104248
vertex -0.026081720367074 -0.0462871752679348 -4.15484428405762
endloop
endfacet
facet normal 0.999975681304932 0.00297545059584081 -0.00631041964516044
outer loop
vertex -0.0366873890161514 -0.0651090368628502 -5.84433794021606
vertex -0.026081720367074 -0.0462871752679348 -4.15484428405762
vertex -0.0365960262715816 -0.0951070412993431 -5.84400463104248
endloop
endfacet
facet normal 0.999975740909576 0.0029754510615021 -0.00631042011082172
outer loop
vertex -0.0366873890161514 -0.0651090368628502 -5.84433794021606
vertex -0.0365960262715816 -0.0951070412993431 -5.84400463104248
vertex -0.0472794212400913 -0.0839066952466965 -7.5316596031189
endloop
endfacet
facet normal 0.999975740909576 0.0029754510615021 -0.00631042011082172
outer loop
vertex -0.0471880584955215 -0.113904699683189 -7.53132581710815
vertex -0.0472794212400913 -0.0839066952466965 -7.5316596031189
vertex -0.0365960262715816 -0.0951070412993431 -5.84400463104248
endloop
endfacet
facet normal 0.999975681304932 0.0029754510615021 -0.00631042011082172
outer loop
vertex -0.0472794212400913 -0.0839066952466965 -7.5316596031189
vertex -0.0471880584955215 -0.113904699683189 -7.53132581710815
vertex -0.0549479611217976 -0.0975160300731659 -8.75326538085938
endloop
endfacet
facet normal 0.999975681304932 0.0029754510615021 -0.00631042011082172
outer loop
vertex -0.0548565946519375 -0.127514034509659 -8.75293159484863
vertex -0.0549479611217976 -0.0975160300731659 -8.75326538085938
vertex -0.0471880584955215 -0.113904699683189 -7.53132581710815
endloop
endfacet
facet normal 0.999975621700287 0.00297545059584081 -0.00631041917949915
outer loop
vertex -0.0549479611217976 -0.0975160300731659 -8.75326538085938
vertex -0.0548565946519375 -0.127514034509659 -8.75293159484863
vertex -0.0591682717204094 -0.10500580817461 -9.42556571960449
endloop
endfacet
facet normal 0.999975621700287 0.00297545059584081 -0.00631041917949915
outer loop
vertex -0.0590769089758396 -0.135003820061684 -9.42523193359375
vertex -0.0591682717204094 -0.10500580817461 -9.42556571960449
vertex -0.0548565946519375 -0.127514034509659 -8.75293159484863
endloop
endfacet
facet normal 0.999975681304932 0.00297545082867146 -0.00631041964516044
outer loop
vertex -0.0591682717204094 -0.10500580817461 -9.42556571960449
vertex -0.0590769089758396 -0.135003820061684 -9.42523193359375
vertex -0.0614908821880817 -0.10912774503231 -9.79555988311768
endloop
endfacet
facet normal 0.999975681304932 0.00297545082867146 -0.00631041964516044
outer loop
vertex -0.061399519443512 -0.139125749468803 -9.79522609710693
vertex -0.0614908821880817 -0.10912774503231 -9.79555988311768
vertex -0.0590769089758396 -0.135003820061684 -9.42523193359375
endloop
endfacet
facet normal 0.999975621700287 0.00297545059584081 -0.00631041964516044
outer loop
vertex -0.061399519443512 -0.139125749468803 -9.79522609710693
vertex -0.0626777485013008 -0.141394212841988 -9.9988489151001
vertex -0.0614908821880817 -0.10912774503231 -9.79555988311768
endloop
endfacet
facet normal 0.999975621700287 0.00297545059584081 -0.00631041964516044
outer loop
vertex -0.0627691149711609 -0.111396215856075 -9.99918270111084
vertex -0.0614908821880817 -0.10912774503231 -9.79555988311768
vertex -0.0626777485013008 -0.141394212841988 -9.9988489151001
endloop
endfacet
facet normal 0.999978065490723 -0.00215877289883792 -0.00625323690474033
outer loop
vertex -6.26681357971393e-05 -0.029998067766428 0.000334587850375101
vertex -0.00130141747649759 -0.0316060669720173 -0.197203263640404
vertex 0 1.38777878078145e-17 0
endloop
endfacet
facet normal 0.999978125095367 -0.00215877313166857 -0.00625323737040162
outer loop
vertex -0.00123999442439526 -0.00220061559230089 -0.19753235578537
vertex 0 1.38777878078145e-17 0
vertex -0.00130141747649759 -0.0316060669720173 -0.197203263640404
endloop
endfacet
facet normal 0.999978065490723 -0.00215877289883792 -0.00625323690474033
outer loop
vertex -0.00130141747649759 -0.0316060669720173 -0.197203263640404
vertex -0.00335841556079686 -0.034276220947504 -0.525223553180695
vertex -0.00123999442439526 -0.00220061559230089 -0.19753235578537
endloop
endfacet
facet normal 0.999978125095367 -0.00215877289883792 -0.00625323690474033
outer loop
vertex -0.00329905492253602 -0.00585482595488429 -0.525542736053467
vertex -0.00123999442439526 -0.00220061559230089 -0.19753235578537
vertex -0.00335841556079686 -0.034276220947504 -0.525223553180695
endloop
endfacet
facet normal 0.999978125095367 -0.00215877289883792 -0.00625323737040162
outer loop
vertex -0.00329905492253602 -0.00585482595488429 -0.525542736053467
vertex -0.00335841556079686 -0.034276220947504 -0.525223553180695
vertex -0.00671820715069771 -0.0119227888062596 -1.07021713256836
endloop
endfacet
facet normal 0.999978125095367 -0.00215877313166857 -0.00625323690474033
outer loop
vertex -0.00677415169775486 -0.0387101285159588 -1.06991577148438
vertex -0.00671820715069771 -0.0119227888062596 -1.07021713256836
vertex -0.00335841556079686 -0.034276220947504 -0.525223553180695
endloop
endfacet
facet normal 0.999978065490723 -0.00215877289883792 -0.00625323737040162
outer loop
vertex -0.00677415169775486 -0.0387101285159588 -1.06991577148438
vertex -0.0124461324885488 -0.0460728295147419 -1.97440135478973
vertex -0.00671820715069771 -0.0119227888062596 -1.07021713256836
endloop
endfacet
facet normal 0.999978125095367 -0.00215877289883792 -0.00625323690474033
outer loop
vertex -0.012395846657455 -0.0219988822937012 -1.97467076778412
vertex -0.00671820715069771 -0.0119227888062596 -1.07021713256836
vertex -0.0124461324885488 -0.0460728295147419 -1.97440135478973
endloop
endfacet
facet normal 0.999978065490723 -0.00215877313166857 -0.00625323737040162
outer loop
vertex -0.0124461324885488 -0.0460728295147419 -1.97440135478973
vertex -0.0216115582734346 -0.0579703077673912 -3.43597078323364
vertex -0.012395846657455 -0.0219988822937012 -1.97467076778412
endloop
endfacet
facet normal 0.999978125095367 -0.00215877313166857 -0.00625323690474033
outer loop
vertex -0.021570410579443 -0.0382809638977051 -3.43618822097778
vertex -0.012395846657455 -0.0219988822937012 -1.97467076778412
vertex -0.0216115582734346 -0.0579703077673912 -3.43597078323364
endloop
endfacet
facet normal 0.999978065490723 -0.00215877313166857 -0.00625323737040162
outer loop
vertex -0.021570410579443 -0.0382809638977051 -3.43618822097778
vertex -0.0216115582734346 -0.0579703077673912 -3.43597078323364
vertex -0.0318700857460499 -0.0565597750246525 -5.07693672180176
endloop
endfacet
facet normal 0.999978184700012 -0.00215877313166857 -0.00625323737040162
outer loop
vertex -0.0319009460508823 -0.0713267847895622 -5.07677364349365
vertex -0.0318700857460499 -0.0565597750246525 -5.07693672180176
vertex -0.0216115582734346 -0.0579703077673912 -3.43597078323364
endloop
endfacet
facet normal 0.999978184700012 -0.00215877313166857 -0.00625323737040162
outer loop
vertex -0.0318700857460499 -0.0565597750246525 -5.07693672180176
vertex -0.0319009460508823 -0.0713267847895622 -5.07677364349365
vertex -0.0421697609126568 -0.0748385861515999 -6.71768522262573
endloop
endfacet
facet normal 0.999978065490723 -0.00215877313166857 -0.00625323737040162
outer loop
vertex -0.0421903356909752 -0.0846832618117332 -6.71757650375366
vertex -0.0421697609126568 -0.0748385861515999 -6.71768522262573
vertex -0.0319009460508823 -0.0713267847895622 -5.07677364349365
endloop
endfacet
facet normal 0.999978065490723 -0.00215877313166857 -0.00625323737040162
outer loop
vertex -0.0421697609126568 -0.0748385861515999 -6.71768522262573
vertex -0.0421903356909752 -0.0846832618117332 -6.71757650375366
vertex -0.0524694360792637 -0.0931174010038376 -8.35843372344971
endloop
endfacet
facet normal 0.999978065490723 -0.00215877313166857 -0.00625323737040162
outer loop
vertex -0.0524797216057777 -0.0980397388339043 -8.35837936401367
vertex -0.0524694360792637 -0.0931174010038376 -8.35843372344971
vertex -0.0421903356909752 -0.0846832618117332 -6.71757650375366
endloop
endfacet
facet normal 0.999978065490723 -0.00215877313166857 -0.00625323737040162
outer loop
vertex -0.0524694360792637 -0.0931174010038376 -8.35843372344971
vertex -0.0524797216057777 -0.0980397388339043 -8.35837936401367
vertex -0.0627691149711609 -0.111396215856075 -9.99918270111084
endloop
endfacet
facet normal -1 -0 -0
outer loop
vertex -0.0212130006402731 -10 0.0900000035762787
vertex -0.0212130006402731 -10 0.0599999986588955
vertex -0.0212130006402731 -10.2515811920166 0.0900000035762787
endloop
endfacet
facet normal -1 0 0
outer loop
vertex -0.0212130006402731 -10.2515811920166 0.0599999986588955
vertex -0.0212130006402731 -10.2515811920166 0.0900000035762787
vertex -0.0212130006402731 -10 0.0599999986588955
endloop
endfacet
facet normal -1 -6.98307113888185e-18 0
outer loop
vertex -0.0212130006402731 -10.7484188079834 0.0599999986588955
vertex -0.0212130006402731 -10.7484188079834 0.0900000035762787
vertex -0.0212130006402731 -10.2515811920166 0.0599999986588955
endloop
endfacet
facet normal -1 -6.98307113888185e-18 4.1348084319835e-31
outer loop
vertex -0.0212130006402731 -10.2515811920166 0.0900000035762787
vertex -0.0212130006402731 -10.2515811920166 0.0599999986588955
vertex -0.0212130006402731 -10.7484188079834 0.0900000035762787
endloop
endfacet
facet normal -1 1.37905442414279e-17 0
outer loop
vertex -0.0212130006402731 -11 0.0599999986588955
vertex -0.0212130006402731 -11 0.0900000035762787
vertex -0.0212130006402731 -10.7484188079834 0.0599999986588955
endloop
endfacet
facet normal -1 1.37905442414279e-17 0
outer loop
vertex -0.0212130006402731 -10.7484188079834 0.0900000035762787
vertex -0.0212130006402731 -10.7484188079834 0.0599999986588955
vertex -0.0212130006402731 -11 0.0900000035762787
endloop
endfacet
facet normal -0.70710676908493 1.95027747918527e-17 -0.70710676908493
outer loop
vertex -0.0212130006402731 -10.2515811920166 0.0599999986588955
vertex -0.0212130006402731 -10 0.0599999986588955
vertex 0 -10.2515811920166 0.0387869998812675
endloop
endfacet
facet normal -0.70710676908493 1.95027747918527e-17 -0.70710676908493
outer loop
vertex 0 -10 0.0387869998812675
vertex 0 -10.2515811920166 0.0387869998812675
vertex -0.0212130006402731 -10 0.0599999986588955
endloop
endfacet
facet normal -0.70710676908493 -4.93777732524802e-18 -0.70710676908493
outer loop
vertex -0.0212130006402731 -10.2515811920166 0.0599999986588955
vertex 0 -10.2515811920166 0.0387869998812675
vertex -0.0212130006402731 -10.7484188079834 0.0599999986588955
endloop
endfacet
facet normal -0.70710676908493 0 -0.70710676908493
outer loop
vertex 0 -10.7484188079834 0.0387869998812675
vertex -0.0212130006402731 -10.7484188079834 0.0599999986588955
vertex 0 -10.2515811920166 0.0387869998812675
endloop
endfacet
facet normal -0.70710676908493 -9.75138739592633e-18 -0.70710676908493
outer loop
vertex -0.0212130006402731 -11 0.0599999986588955
vertex -0.0212130006402731 -10.7484188079834 0.0599999986588955
vertex 0 -11 0.0387869998812675
endloop
endfacet
facet normal -0.70710676908493 -1.95027747918527e-17 -0.70710676908493
outer loop
vertex 0 -10.7484188079834 0.0387869998812675
vertex 0 -11 0.0387869998812675
vertex -0.0212130006402731 -10.7484188079834 0.0599999986588955
endloop
endfacet
facet normal -0.70710676908493 -3.90055495837053e-17 0.70710676908493
outer loop
vertex 0 -10 0.111212998628616
vertex -0.0212130006402731 -10 0.0900000035762787
vertex 0 -10.2515811920166 0.111212998628616
endloop
endfacet
facet normal -0.70710676908493 1.17016648751116e-16 0.70710676908493
outer loop
vertex -0.0212130006402731 -10.2515811920166 0.0900000035762787
vertex 0 -10.2515811920166 0.111212998628616
vertex -0.0212130006402731 -10 0.0900000035762787
endloop
endfacet
facet normal -0.70710676908493 0 0.70710676908493
outer loop
vertex 0 -10.2515811920166 0.111212998628616
vertex -0.0212130006402731 -10.2515811920166 0.0900000035762787
vertex 0 -10.7484188079834 0.111212998628616
endloop
endfacet
facet normal -0.70710676908493 -4.44399938592807e-17 0.70710676908493
outer loop
vertex -0.0212130006402731 -10.7484188079834 0.0900000035762787
vertex 0 -10.7484188079834 0.111212998628616
vertex -0.0212130006402731 -10.2515811920166 0.0900000035762787
endloop
endfacet
facet normal -0.70710676908493 -2.9254162187779e-17 0.70710676908493
outer loop
vertex -0.0212130006402731 -10.7484188079834 0.0900000035762787
vertex -0.0212130006402731 -11 0.0900000035762787
vertex 0 -10.7484188079834 0.111212998628616
endloop
endfacet
facet normal -0.70710676908493 3.90055495837053e-17 0.70710676908493
outer loop
vertex 0 -11 0.111212998628616
vertex 0 -10.7484188079834 0.111212998628616
vertex -0.0212130006402731 -11 0.0900000035762787
endloop
endfacet
facet normal 0 2.75810884828558e-17 -1
outer loop
vertex 0 -10 0.0387869998812675
vertex 0.0299999993294477 -10 0.0387869998812675
vertex 0 -10.2515811920166 0.0387869998812675
endloop
endfacet
facet normal 0 2.75810884828558e-17 -1
outer loop
vertex 0.0299999993294477 -10.2515811920166 0.0387869998812675
vertex 0 -10.2515811920166 0.0387869998812675
vertex 0.0299999993294477 -10 0.0387869998812675
endloop
endfacet
facet normal 0 0 -1
outer loop
vertex 0 -10.2515811920166 0.0387869998812675
vertex 0.0299999993294477 -10.2515811920166 0.0387869998812675
vertex 0 -10.7484188079834 0.0387869998812675
endloop
endfacet
facet normal 0 0 -1
outer loop
vertex 0.0299999993294477 -10.7484188079834 0.0387869998812675
vertex 0 -10.7484188079834 0.0387869998812675
vertex 0.0299999993294477 -10.2515811920166 0.0387869998812675
endloop
endfacet
facet normal -0 -2.75810884828558e-17 -1
outer loop
vertex 0.0299999993294477 -10.7484188079834 0.0387869998812675
vertex 0.0299999993294477 -11 0.0387869998812675
vertex 0 -10.7484188079834 0.0387869998812675
endloop
endfacet
facet normal 0 -2.75810884828558e-17 -1
outer loop
vertex 0 -11 0.0387869998812675
vertex 0 -10.7484188079834 0.0387869998812675
vertex 0.0299999993294477 -11 0.0387869998812675
endloop
endfacet
facet normal 0 -5.51621769657115e-17 1
outer loop
vertex 0 -10 0.111212998628616
vertex 0 -10.2515811920166 0.111212998628616
vertex 0.0299999993294477 -10 0.111212998628616
endloop
endfacet
facet normal 0 -5.51621769657115e-17 1
outer loop
vertex 0.0299999993294477 -10.2515811920166 0.111212998628616
vertex 0.0299999993294477 -10 0.111212998628616
vertex 0 -10.2515811920166 0.111212998628616
endloop
endfacet
facet normal 0 0 1
outer loop
vertex 0 -10.7484188079834 0.111212998628616
vertex 0.0299999993294477 -10.7484188079834 0.111212998628616
vertex 0 -10.2515811920166 0.111212998628616
endloop
endfacet
facet normal 0 0 1
outer loop
vertex 0.0299999993294477 -10.2515811920166 0.111212998628616
vertex 0 -10.2515811920166 0.111212998628616
vertex 0.0299999993294477 -10.7484188079834 0.111212998628616
endloop
endfacet
facet normal -0 5.51621769657115e-17 1
outer loop
vertex 0 -10.7484188079834 0.111212998628616
vertex 0 -11 0.111212998628616
vertex 0.0299999993294477 -10.7484188079834 0.111212998628616
endloop
endfacet
facet normal 0 5.51621769657115e-17 1
outer loop
vertex 0.0299999993294477 -11 0.111212998628616
vertex 0.0299999993294477 -10.7484188079834 0.111212998628616
vertex 0 -11 0.111212998628616
endloop
endfacet
facet normal 0.70710676908493 9.75138739592633e-18 -0.70710676908493
outer loop
vertex 0.0299999993294477 -10 0.0387869998812675
vertex 0.0512129999697208 -10 0.0599999986588955
vertex 0.0299999993294477 -10.2515811920166 0.0387869998812675
endloop
endfacet
facet normal 0.70710676908493 -3.18973477768299e-33 -0.70710676908493
outer loop
vertex 0.0512129999697208 -10.2515811920166 0.0599999986588955
vertex 0.0299999993294477 -10.2515811920166 0.0387869998812675
vertex 0.0512129999697208 -10 0.0599999986588955
endloop
endfacet
facet normal 0.70710676908493 0 -0.70710676908493
outer loop
vertex 0.0299999993294477 -10.2515811920166 0.0387869998812675
vertex 0.0512129999697208 -10.2515811920166 0.0599999986588955
vertex 0.0299999993294477 -10.7484188079834 0.0387869998812675
endloop
endfacet
facet normal 0.70710676908493 0 -0.70710676908493
outer loop
vertex 0.0512129999697208 -10.7484188079834 0.0599999986588955
vertex 0.0299999993294477 -10.7484188079834 0.0387869998812675
vertex 0.0512129999697208 -10.2515811920166 0.0599999986588955
endloop
endfacet
facet normal 0.70710676908493 3.18973477768299e-33 -0.70710676908493
outer loop
vertex 0.0512129999697208 -10.7484188079834 0.0599999986588955
vertex 0.0512129999697208 -11 0.0599999986588955
vertex 0.0299999993294477 -10.7484188079834 0.0387869998812675
endloop
endfacet
facet normal 0.70710676908493 -9.75138739592633e-18 -0.70710676908493
outer loop
vertex 0.0299999993294477 -11 0.0387869998812675
vertex 0.0299999993294477 -10.7484188079834 0.0387869998812675
vertex 0.0512129999697208 -11 0.0599999986588955
endloop
endfacet
facet normal 0.70710676908493 1.17016648751116e-16 0.70710676908493
outer loop
vertex 0.0512129999697208 -10 0.0900000035762787
vertex 0.0299999993294477 -10 0.111212998628616
vertex 0.0512129999697208 -10.2515811920166 0.0900000035762787
endloop
endfacet
facet normal 0.70710676908493 -3.90055495837053e-17 0.70710676908493
outer loop
vertex 0.0299999993294477 -10.2515811920166 0.111212998628616
vertex 0.0512129999697208 -10.2515811920166 0.0900000035762787
vertex 0.0299999993294477 -10 0.111212998628616
endloop
endfacet
facet normal 0.70710676908493 -4.93777691165772e-17 0.70710676908493
outer loop
vertex 0.0512129999697208 -10.2515811920166 0.0900000035762787
vertex 0.0299999993294477 -10.2515811920166 0.111212998628616
vertex 0.0512129999697208 -10.7484188079834 0.0900000035762787
endloop
endfacet
facet normal 0.70710676908493 -4.93777732524802e-18 0.70710676908493
outer loop
vertex 0.0299999993294477 -10.7484188079834 0.111212998628616
vertex 0.0512129999697208 -10.7484188079834 0.0900000035762787
vertex 0.0299999993294477 -10.2515811920166 0.111212998628616
endloop
endfacet
facet normal 0.70710676908493 4.87569336709092e-17 0.70710676908493
outer loop
vertex 0.0299999993294477 -10.7484188079834 0.111212998628616
vertex 0.0299999993294477 -11 0.111212998628616
vertex 0.0512129999697208 -10.7484188079834 0.0900000035762787
endloop
endfacet
facet normal 0.70710676908493 -1.95027747918527e-17 0.70710676908493
outer loop
vertex 0.0512129999697208 -11 0.0900000035762787
vertex 0.0512129999697208 -10.7484188079834 0.0900000035762787
vertex 0.0299999993294477 -11 0.111212998628616
endloop
endfacet
facet normal 1 -2.75810884828558e-17 -2.31296454640314e-16
outer loop
vertex 0.0512129999697208 -10.2515811920166 0.0599999986588955
vertex 0.0512129999697208 -10 0.0599999986588955
vertex 0.0512129999697208 -10.2515811920166 0.0900000035762787
endloop
endfacet
facet normal 1 0 0
outer loop
vertex 0.0512129999697208 -10 0.0900000035762787
vertex 0.0512129999697208 -10.2515811920166 0.0900000035762787
vertex 0.0512129999697208 -10 0.0599999986588955
endloop
endfacet
facet normal 1 0 -2.31296454640314e-16
outer loop
vertex 0.0512129999697208 -10.2515811920166 0.0599999986588955
vertex 0.0512129999697208 -10.2515811920166 0.0900000035762787
vertex 0.0512129999697208 -10.7484188079834 0.0599999986588955
endloop
endfacet
facet normal 1 -1.39661422777637e-17 0
outer loop
vertex 0.0512129999697208 -10.7484188079834 0.0900000035762787
vertex 0.0512129999697208 -10.7484188079834 0.0599999986588955
vertex 0.0512129999697208 -10.2515811920166 0.0900000035762787
endloop
endfacet
facet normal 1 2.75810884828558e-17 -0
outer loop
vertex 0.0512129999697208 -10.7484188079834 0.0599999986588955
vertex 0.0512129999697208 -10.7484188079834 0.0900000035762787
vertex 0.0512129999697208 -11 0.0599999986588955
endloop
endfacet
facet normal 1 2.75810884828558e-17 0
outer loop
vertex 0.0512129999697208 -11 0.0900000035762787
vertex 0.0512129999697208 -11 0.0599999986588955
vertex 0.0512129999697208 -10.7484188079834 0.0900000035762787
endloop
endfacet
facet normal -0.999516010284424 -0.030419010668993 0.00651552947238088
outer loop
vertex 0 0 0.150000005960464
vertex -0.000927623419556767 -0.00164625141769648 1.19025689855334e-05
vertex 0.0255513451993465 -0.838713526725769 0.154012605547905
endloop
endfacet
facet normal -0.999515950679779 -0.030419010668993 0.00651552900671959
outer loop
vertex 0.0246859919279814 -0.840249240398407 0.0140928803011775
vertex 0.0255513451993465 -0.838713526725769 0.154012605547905
vertex -0.000927623419556767 -0.00164625141769648 1.19025689855334e-05
endloop
endfacet
facet normal -0.999516010284424 -0.0304190125316381 0.00651552947238088
outer loop
vertex 0.0246859919279814 -0.840249240398407 0.0140928803011775
vertex 0.0593702271580696 -1.97582900524139 0.0331603921949863
vertex 0.0255513451993465 -0.838713526725769 0.154012605547905
endloop
endfacet
facet normal -0.999516010284424 -0.0304190088063478 0.00651552900671959
outer loop
vertex 0.0601512603461742 -1.97444295883179 0.159446224570274
vertex 0.0255513451993465 -0.838713526725769 0.154012605547905
vertex 0.0593702271580696 -1.97582900524139 0.0331603921949863
endloop
endfacet
facet normal -0.999516010284424 -0.030419010668993 0.00651552900671959
outer loop
vertex 0.0593702271580696 -1.97582900524139 0.0331603921949863
vertex 0.104737646877766 -3.461181640625 0.0581009387969971
vertex 0.0601512603461742 -1.97444295883179 0.159446224570274
endloop
endfacet
facet normal -0.999516010284424 -0.0304190088063478 0.00651552947238088
outer loop
vertex 0.105408385396004 -3.45999145507813 0.16655345261097
vertex 0.0601512603461742 -1.97444295883179 0.159446224570274
vertex 0.104737646877766 -3.461181640625 0.0581009387969971
endloop
endfacet
facet normal -0.999516010284424 -0.0304190088063478 0.00651552900671959
outer loop
vertex 0.105408385396004 -3.45999145507813 0.16655345261097
vertex 0.104737646877766 -3.461181640625 0.0581009387969971
vertex 0.152526468038559 -5.00662517547607 0.173952922224998
endloop
endfacet
facet normal -0.999516010284424 -0.0304190088063478 0.00651552900671959
outer loop
vertex 0.151970565319061 -5.0076117515564 0.0840670391917229
vertex 0.152526468038559 -5.00662517547607 0.173952922224998
vertex 0.104737646877766 -3.461181640625 0.0581009387969971
endloop
endfacet
facet normal -0.999516010284424 -0.0304190088063478 0.00651552900671959
outer loop
vertex 0.152526468038559 -5.00662517547607 0.173952922224998
vertex 0.151970565319061 -5.0076117515564 0.0840670391917229
vertex 0.199644565582275 -6.55325937271118 0.181352391839027
endloop
endfacet
facet normal -0.999515950679779 -0.0304190088063478 0.00651552900671959
outer loop
vertex 0.199203476309776 -6.55404233932495 0.110033139586449
vertex 0.199644565582275 -6.55325937271118 0.181352391839027
vertex 0.151970565319061 -5.0076117515564 0.0840670391917229
endloop
endfacet
facet normal -0.999516010284424 -0.0304190088063478 0.00651552947238088
outer loop
vertex 0.199644565582275 -6.55325937271118 0.181352391839027
vertex 0.199203476309776 -6.55404233932495 0.110033139586449
vertex 0.24339647591114 -7.98939943313599 0.188223242759705
endloop
endfacet
facet normal -0.999516010284424 -0.030419010668993 0.00651552900671959
outer loop
vertex 0.243062004446983 -7.98999309539795 0.134144186973572
vertex 0.24339647591114 -7.98939943313599 0.188223242759705
vertex 0.199203476309776 -6.55404233932495 0.110033139586449
endloop
endfacet
facet normal -0.999515950679779 -0.0304190069437027 0.00651552900671959
outer loop
vertex 0.243062004446983 -7.98999309539795 0.134144186973572
vertex 0.270962089300156 -8.90345573425293 0.149482131004333
vertex 0.24339647591114 -7.98939943313599 0.188223242759705
endloop
endfacet
facet normal -0.999516010284424 -0.030419010668993 0.00651552900671959
outer loop
vertex 0.271228700876236 -8.90298271179199 0.192594051361084
vertex 0.24339647591114 -7.98939943313599 0.188223242759705
vertex 0.270962089300156 -8.90345573425293 0.149482131004333
endloop
endfacet
facet normal -0.999515950679779 -0.0304190088063478 0.00651552900671959
outer loop
vertex 0.271228700876236 -8.90298271179199 0.192594051361084
vertex 0.270962089300156 -8.90345573425293 0.149482131004333
vertex 0.288095057010651 -9.45661354064941 0.195242762565613
endloop
endfacet
facet normal -0.999515950679779 -0.0304190088063478 0.00651552947238088
outer loop
vertex 0.287869513034821 -9.4570140838623 0.158776924014091
vertex 0.288095057010651 -9.45661354064941 0.195242762565613
vertex 0.270962089300156 -8.90345573425293 0.149482131004333
endloop
endfacet
facet normal -0.999515950679779 -0.030419010668993 0.00651552947238088
outer loop
vertex 0.287869513034821 -9.4570140838623 0.158776924014091
vertex 0.298115432262421 -9.79247093200684 0.164409577846527
vertex 0.288095057010651 -9.45661354064941 0.195242762565613
endloop
endfacet
facet normal -0.999516010284424 -0.0304190069437027 0.00651552900671959
outer loop
vertex 0.298316061496735 -9.79211521148682 0.19684787094593
vertex 0.288095057010651 -9.45661354064941 0.195242762565613
vertex 0.298115432262421 -9.79247093200684 0.164409577846527
endloop
endfacet
facet normal -0.999515950679779 -0.0304190088063478 0.00651552900671959
outer loop
vertex 0.298316061496735 -9.79211521148682 0.19684787094593
vertex 0.298115432262421 -9.79247093200684 0.164409577846527
vertex 0.304509997367859 -9.99542808532715 0.197820574045181
endloop
endfacet
facet normal -0.999515950679779 -0.0304190069437027 0.00651552900671959
outer loop
vertex 0.304324477910995 -9.99575710296631 0.167822957038879
vertex 0.304509997367859 -9.99542808532715 0.197820574045181
vertex 0.298115432262421 -9.79247093200684 0.164409577846527
endloop
endfacet
facet normal -0.273512870073318 -0.00373077066615224 0.961861133575439
outer loop
vertex 0.0288557726889849 -9.99995613098145 0.119418539106846
vertex 0.0282857399433851 -9.80241203308105 0.120022661983967
vertex 0 -9.999924659729 0.11121328920126
endloop
endfacet
facet normal -0.273512870073318 -0.00373077066615224 0.961861073970795
outer loop
vertex 0 -9.8023796081543 0.111979506909847
vertex 0 -9.999924659729 0.11121328920126
vertex 0.0282857399433851 -9.80241203308105 0.120022661983967
endloop
endfacet
facet normal -0.273512899875641 -0.00373077113181353 0.961861133575439
outer loop
vertex 0.0282857399433851 -9.80241203308105 0.120022661983967
vertex 0.0273391734808683 -9.47437953948975 0.121025837957859
vertex 0 -9.8023796081543 0.111979506909847
endloop
endfacet
facet normal -0.273512870073318 -0.00373077066615224 0.961861133575439
outer loop
vertex 0 -9.47434711456299 0.113251850008965
vertex 0 -9.8023796081543 0.111979506909847
vertex 0.0273391734808683 -9.47437953948975 0.121025837957859
endloop
endfacet
facet normal -0.273512899875641 -0.00373077089898288 0.961861133575439
outer loop
vertex 0 -9.47434711456299 0.113251850008965
vertex 0.0273391734808683 -9.47437953948975 0.121025837957859
vertex 0 -8.9296350479126 0.115364626049995
endloop
endfacet
facet normal -0.273512899875641 -0.00373077089898288 0.961861133575439
outer loop
vertex 0.0257673542946577 -8.92966651916504 0.12269165366888
vertex 0 -8.9296350479126 0.115364626049995
vertex 0.0273391734808683 -9.47437953948975 0.121025837957859
endloop
endfacet
facet normal -0.273512870073318 -0.00373077066615224 0.961861133575439
outer loop
vertex 0.0257673542946577 -8.92966651916504 0.12269165366888
vertex 0.0231572724878788 -8.02514362335205 0.12545782327652
vertex 0 -8.9296350479126 0.115364626049995
endloop
endfacet
facet normal -0.273512870073318 -0.00373077066615224 0.961861133575439
outer loop
vertex 0 -8.02511692047119 0.118872977793217
vertex 0 -8.9296350479126 0.115364626049995
vertex 0.0231572724878788 -8.02514362335205 0.12545782327652
endloop
endfacet
facet normal -0.273512870073318 -0.00373077066615224 0.961861073970795
outer loop
vertex 0 -8.02511692047119 0.118872977793217
vertex 0.0231572724878788 -8.02514362335205 0.12545782327652
vertex 0 -6.56349182128906 0.124542184174061
endloop
endfacet
facet normal -0.273512870073318 -0.00373077066615224 0.961861133575439
outer loop
vertex 0.0189395993947983 -6.56351041793823 0.129927739500999
vertex 0 -6.56349182128906 0.124542184174061
vertex 0.0231572724878788 -8.02514362335205 0.12545782327652
endloop
endfacet
facet normal -0.273512870073318 -0.00373077066615224 0.961861133575439
outer loop
vertex 0.0189395993947983 -6.56351041793823 0.129927739500999
vertex 0.0142046995460987 -4.92263269424438 0.134945809841156
vertex 0 -6.56349182128906 0.124542184174061
endloop
endfacet
facet normal -0.273512840270996 -0.0037307704333216 0.961861073970795
outer loop
vertex 0 -4.9226188659668 0.130906641483307
vertex 0 -6.56349182128906 0.124542184174061
vertex 0.0142046995460987 -4.92263269424438 0.134945809841156
endloop
endfacet
facet normal -0.273512840270996 -0.0037307704333216 0.961861073970795
outer loop
vertex 0 -4.9226188659668 0.130906641483307
vertex 0.0142046995460987 -4.92263269424438 0.134945809841156
vertex 0 -3.28174591064453 0.137271091341972
endloop
endfacet
facet normal -0.273512870073318 -0.00373077066615224 0.961861133575439
outer loop
vertex 0.00946979969739914 -3.28175520896912 0.139963865280151
vertex 0 -3.28174591064453 0.137271091341972
vertex 0.0142046995460987 -4.92263269424438 0.134945809841156
endloop
endfacet
facet normal -0.273512870073318 -0.00373077066615224 0.961861133575439
outer loop
vertex 0 -3.28174591064453 0.137271091341972
vertex 0.00946979969739914 -3.28175520896912 0.139963865280151
vertex 0 -1.64087295532227 0.143635541200638
endloop
endfacet
facet normal -0.273512870073318 -0.00373077066615224 0.961861133575439
outer loop
vertex 0.00473489984869957 -1.64087760448456 0.144981935620308
vertex 0 -1.64087295532227 0.143635541200638
vertex 0.00946979969739914 -3.28175520896912 0.139963865280151
endloop
endfacet
facet normal -0.273512870073318 -0.00373077066615224 0.961861133575439
outer loop
vertex 0 -1.64087295532227 0.143635541200638
vertex 0.00473489984869957 -1.64087760448456 0.144981935620308
vertex 0 0 0.150000005960464
endloop
endfacet
facet normal -1.02206807063967e-15 -0.00387867074459791 0.999992430210114
outer loop
vertex 0 -0.203638136386871 0.149210155010223
vertex 0.0299999993294477 -0.203638136386871 0.149210155010223
vertex 0 0 0.150000005960464
endloop
endfacet
facet normal 0 -0.00387867074459791 0.999992430210114
outer loop
vertex 0.0299999993294477 0 0.150000005960464
vertex 0 0 0.150000005960464
vertex 0.0299999993294477 -0.203638136386871 0.149210155010223
endloop
endfacet
facet normal -1.02206807063967e-15 -0.00387867074459791 0.999992430210114
outer loop
vertex 0 -0.203638136386871 0.149210155010223
vertex 0 -0.573659837245941 0.147774949669838
vertex 0.0299999993294477 -0.203638136386871 0.149210155010223
endloop
endfacet
facet normal 1.8072957765899e-15 -0.00387867074459791 0.999992430210114
outer loop
vertex 0.0299999993294477 -0.573659837245941 0.147774949669838
vertex 0.0299999993294477 -0.203638136386871 0.149210155010223
vertex 0 -0.573659837245941 0.147774949669838
endloop
endfacet
facet normal 1.8072957765899e-15 -0.00387867051176727 0.999992430210114
outer loop
vertex 0 -0.573659837245941 0.147774949669838
vertex 0 -1.24600958824158 0.145167097449303
vertex 0.0299999993294477 -0.573659837245941 0.147774949669838
endloop
endfacet
facet normal 3.51020220690855e-16 -0.00387867051176727 0.999992430210114
outer loop
vertex 0.0299999993294477 -1.24600958824158 0.145167097449303
vertex 0.0299999993294477 -0.573659837245941 0.147774949669838
vertex 0 -1.24600958824158 0.145167097449303
endloop
endfacet
facet normal 3.51020273630414e-16 -0.00387867097742856 0.999992489814758
outer loop
vertex 0 -1.24600958824158 0.145167097449303
vertex 0 -2.46770620346069 0.140428513288498
vertex 0.0299999993294477 -1.24600958824158 0.145167097449303
endloop
endfacet
facet normal -2.8055419985001e-16 -0.00387867097742856 0.999992489814758
outer loop
vertex 0.0299999993294477 -2.46770620346069 0.140428513288498
vertex 0.0299999993294477 -1.24600958824158 0.145167097449303
vertex 0 -2.46770620346069 0.140428513288498
endloop
endfacet
facet normal -2.8055419985001e-16 -0.00387867097742856 0.999992489814758
outer loop
vertex 0 -2.46770620346069 0.140428513288498
vertex 0 -4.15515279769897 0.133883401751518
vertex 0.0299999993294477 -2.46770620346069 0.140428513288498
endloop
endfacet
facet normal -5.67633518009194e-16 -0.00387867097742856 0.999992489814758
outer loop
vertex 0.0299999993294477 -4.15515279769897 0.133883401751518
vertex 0.0299999993294477 -2.46770620346069 0.140428513288498
vertex 0 -4.15515279769897 0.133883401751518
endloop
endfacet
facet normal -5.67633570948753e-16 -0.0038786712102592 0.999992489814758
outer loop
vertex 0 -4.15515279769897 0.133883401751518
vertex 0 -5.84477186203003 0.127329885959625
vertex 0.0299999993294477 -4.15515279769897 0.133883401751518
endloop
endfacet
facet normal -4.5280184368508e-16 -0.0038786712102592 0.999992489814758
outer loop
vertex 0.0299999993294477 -5.84477186203003 0.127329885959625
vertex 0.0299999993294477 -4.15515279769897 0.133883401751518
vertex 0 -5.84477186203003 0.127329885959625
endloop
endfacet
facet normal -4.5280179074552e-16 -0.00387867097742856 0.999992489814758
outer loop
vertex 0 -5.84477186203003 0.127329885959625
vertex 0 -7.53221845626831 0.120784781873226
vertex 0.0299999993294477 -5.84477186203003 0.127329885959625
endloop
endfacet
facet normal -3.37970089951626e-16 -0.00387867097742856 0.999992489814758
outer loop
vertex 0.0299999993294477 -7.53221845626831 0.120784781873226
vertex 0.0299999993294477 -5.84477186203003 0.127329885959625
vertex 0 -7.53221845626831 0.120784781873226
endloop
endfacet
facet normal -3.37970063481847e-16 -0.00387867097742856 0.999992489814758
outer loop
vertex 0 -7.53221845626831 0.120784781873226
vertex 0 -8.75391483306885 0.116046190261841
vertex 0.0299999993294477 -7.53221845626831 0.120784781873226
endloop
endfacet
facet normal 3.26255088278063e-18 -0.00387867097742856 0.999992489814758
outer loop
vertex 0.0299999993294477 -8.75391483306885 0.116046190261841
vertex 0.0299999993294477 -7.53221845626831 0.120784781873226
vertex 0 -8.75391483306885 0.116046190261841
endloop
endfacet
facet normal 3.26255046919032e-18 -0.00387867051176727 0.999992430210114
outer loop
vertex 0 -8.75391483306885 0.116046190261841
vertex 0 -9.42626476287842 0.113438345491886
vertex 0.0299999993294477 -8.75391483306885 0.116046190261841
endloop
endfacet
facet normal -1.15484217918767e-15 -0.00387867051176727 0.999992430210114
outer loop
vertex 0.0299999993294477 -9.42626476287842 0.113438345491886
vertex 0.0299999993294477 -8.75391483306885 0.116046190261841
vertex 0 -9.42626476287842 0.113438345491886
endloop
endfacet
facet normal -1.15484228506679e-15 -0.00387867074459791 0.999992430210114
outer loop
vertex 0.0299999993294477 -9.42626476287842 0.113438345491886
vertex 0 -9.42626476287842 0.113438345491886
vertex 0.0299999993294477 -9.79628658294678 0.112003140151501
endloop
endfacet
facet normal 2.32926013681934e-16 -0.00387867074459791 0.999992430210114
outer loop
vertex 0 -9.79628658294678 0.112003140151501
vertex 0.0299999993294477 -9.79628658294678 0.112003140151501
vertex 0 -9.42626476287842 0.113438345491886
endloop
endfacet
facet normal 2.32925987212154e-16 -0.00387867074459791 0.999992430210114
outer loop
vertex 0.0299999993294477 -9.79628658294678 0.112003140151501
vertex 0 -9.79628658294678 0.112003140151501
vertex 0.0299999993294477 -9.999924659729 0.11121328920126
endloop
endfacet
facet normal 0 -0.00387867074459791 0.999992430210114
outer loop
vertex 0 -9.999924659729 0.11121328920126
vertex 0.0299999993294477 -9.999924659729 0.11121328920126
vertex 0 -9.79628658294678 0.112003140151501
endloop
endfacet
facet normal 0.707104086875916 -0.00274264439940453 0.707104086875916
outer loop
vertex 0.0299999993294477 -11.6407976150513 0.104848839342594
vertex 0.0334808230400085 -11.6407833099365 0.101368069648743
vertex 0.0299999993294477 -9.999924659729 0.11121328920126
endloop
endfacet
facet normal 0.707104086875916 -0.00274264439940453 0.707104086875916
outer loop
vertex 0.0334808230400085 -11.6407833099365 0.101368069648743
vertex 0.0299999993294477 -11.6407976150513 0.104848839342594
vertex 0.0369616448879242 -13.2816429138184 0.0915228500962257
endloop
endfacet
facet normal 0.707104086875916 -0.00274264439940453 0.707104086875916
outer loop
vertex 0.0299999993294477 -13.2816705703735 0.0984843820333481
vertex 0.0369616448879242 -13.2816429138184 0.0915228500962257
vertex 0.0299999993294477 -11.6407976150513 0.104848839342594
endloop
endfacet
facet normal 0.707104086875916 -0.00274264463223517 0.707104086875916
outer loop
vertex 0.0299999993294477 -14.9225435256958 0.0921199321746826
vertex 0.0404424667358398 -14.9225015640259 0.0816776305437088
vertex 0.0299999993294477 -13.2816705703735 0.0984843820333481
endloop
endfacet
facet normal 0.707104086875916 -0.00274264439940453 0.707104086875916
outer loop
vertex 0.0369616448879242 -13.2816429138184 0.0915228500962257
vertex 0.0299999993294477 -13.2816705703735 0.0984843820333481
vertex 0.0404424667358398 -14.9225015640259 0.0816776305437088
endloop
endfacet
facet normal 0.707104086875916 -0.00274264463223517 0.707104086875916
outer loop
vertex 0.0299999993294477 -14.9225435256958 0.0921199321746826
vertex 0.0299999993294477 -16.5634174346924 0.0857554748654366
vertex 0.0404424667358398 -14.9225015640259 0.0816776305437088
endloop
endfacet
facet normal 0.707104086875916 -0.00274264439940453 0.707104086875916
outer loop
vertex 0.0439232885837555 -16.5633602142334 0.0718324035406113
vertex 0.0404424667358398 -14.9225015640259 0.0816776305437088
vertex 0.0299999993294477 -16.5634174346924 0.0857554748654366
endloop
endfacet
facet normal 0.707104086875916 -0.00274264463223517 0.707104086875916
outer loop
vertex 0.0299999993294477 -18.0250415802002 0.0800862684845924
vertex 0.0470238737761974 -18.0249767303467 0.0630626454949379
vertex 0.0299999993294477 -16.5634174346924 0.0857554748654366
endloop
endfacet
facet normal 0.707104086875916 -0.00274264486506581 0.707104086875916
outer loop
vertex 0.0439232885837555 -16.5633602142334 0.0718324035406113
vertex 0.0299999993294477 -16.5634174346924 0.0857554748654366
vertex 0.0470238737761974 -18.0249767303467 0.0630626454949379
endloop
endfacet
facet normal 0.707104086875916 -0.00274264463223517 0.707104086875916
outer loop
vertex 0.0299999993294477 -18.0250415802002 0.0800862684845924
vertex 0.0299999993294477 -18.9295597076416 0.0765779167413712
vertex 0.0470238737761974 -18.0249767303467 0.0630626454949379
endloop
endfacet
facet normal 0.707104086875916 -0.00274264463223517 0.707104086875916
outer loop
vertex 0.0489426553249359 -18.9294891357422 0.0576355382800102
vertex 0.0470238737761974 -18.0249767303467 0.0630626454949379
vertex 0.0299999993294477 -18.9295597076416 0.0765779167413712
endloop
endfacet
facet normal 0.70710414648056 -0.00274264486506581 0.70710414648056
outer loop
vertex 0.0299999993294477 -19.474271774292 0.0744651407003403
vertex 0.0500981658697128 -19.4741954803467 0.0543672703206539
vertex 0.0299999993294477 -18.9295597076416 0.0765779167413712
endloop
endfacet
facet normal 0.70710414648056 -0.00274264486506581 0.70710414648056
outer loop
vertex 0.0489426553249359 -18.9294891357422 0.0576355382800102
vertex 0.0299999993294477 -18.9295597076416 0.0765779167413712
vertex 0.0500981658697128 -19.4741954803467 0.0543672703206539
endloop
endfacet
facet normal 0.707104086875916 -0.00274264486506581 0.707104086875916
outer loop
vertex 0.0299999993294477 -19.474271774292 0.0744651407003403
vertex 0.0299999993294477 -19.8023052215576 0.0731928050518036
vertex 0.0500981658697128 -19.4741954803467 0.0543672703206539
endloop
endfacet
facet normal 0.70710414648056 -0.00274264463223517 0.70710414648056
outer loop
vertex 0.0507940240204334 -19.802225112915 0.0523990839719772
vertex 0.0500981658697128 -19.4741954803467 0.0543672703206539
vertex 0.0299999993294477 -19.8023052215576 0.0731928050518036
endloop
endfacet
facet normal 0.70710414648056 -0.00274264486506581 0.70710414648056
outer loop
vertex 0.0299999993294477 -19.8023052215576 0.0731928050518036
vertex 0.0299999993294477 -19.999849319458 0.0724265798926353
vertex 0.0507940240204334 -19.802225112915 0.0523990839719772
endloop
endfacet
facet normal 0.707104086875916 -0.00274264439940453 0.707104086875916
outer loop
vertex 0.0512130782008171 -19.9997673034668 0.0512138232588768
vertex 0.0507940240204334 -19.802225112915 0.0523990839719772
vertex 0.0299999993294477 -19.999849319458 0.0724265798926353
endloop
endfacet
facet normal -0.923874914646149 -0.00425584148615599 -0.382670968770981
outer loop
vertex 3.85694599151611 -10.0126714706421 -9.12796497344971
vertex 3.85694599151611 -10.042670249939 -9.12763214111328
vertex 3.77910351753235 -10.0093612670898 -8.94006824493408
endloop
endfacet
facet normal -0.923874914646149 -0.00425584148615599 -0.382670938968658
outer loop
vertex 3.77910351753235 -10.0418004989624 -8.93970775604248
vertex 3.77910351753235 -10.0093612670898 -8.94006824493408
vertex 3.85694599151611 -10.042670249939 -9.12763214111328
endloop
endfacet
facet normal -0.923874914646149 -0.00425584148615599 -0.382670909166336
outer loop
vertex 3.77910351753235 -10.0093612670898 -8.94006824493408
vertex 3.77910351753235 -10.0418004989624 -8.93970775604248
vertex 3.65065026283264 -10.0038995742798 -8.63000774383545
endloop
endfacet
facet normal -0.923874914646149 -0.00425584148615599 -0.382670938968658
outer loop
vertex 3.65065026283264 -10.0403661727905 -8.62960147857666
vertex 3.65065026283264 -10.0038995742798 -8.63000774383545
vertex 3.77910351753235 -10.0418004989624 -8.93970775604248
endloop
endfacet
facet normal -0.923874914646149 -0.00425584148615599 -0.382670938968658
outer loop
vertex 3.43868160247803 -9.99488544464111 -8.1183557510376
vertex 3.65065026283264 -10.0038995742798 -8.63000774383545
vertex 3.43868160247803 -10.0379981994629 -8.11787605285645
endloop
endfacet
facet normal -0.923874914646149 -0.00425584148615599 -0.382670938968658
outer loop
vertex 3.65065026283264 -10.0403661727905 -8.62960147857666
vertex 3.43868160247803 -10.0379981994629 -8.11787605285645
vertex 3.65065026283264 -10.0038995742798 -8.63000774383545
endloop
endfacet
facet normal -0.923874855041504 -0.00425584148615599 -0.382670938968658
outer loop
vertex 3.43868160247803 -9.99488544464111 -8.1183557510376
vertex 3.43868160247803 -10.0379981994629 -8.11787605285645
vertex 3.08889842033386 -9.98001098632813 -7.27404642105103
endloop
endfacet
facet normal -0.923874855041504 -0.00425584148615599 -0.382670938968658
outer loop
vertex 3.08889842033386 -10.0340909957886 -7.27344512939453
vertex 3.08889842033386 -9.98001098632813 -7.27404642105103
vertex 3.43868160247803 -10.0379981994629 -8.11787605285645
endloop
endfacet
facet normal -0.923874855041504 -0.00425584148615599 -0.382670938968658
outer loop
vertex 3.08889842033386 -9.98001098632813 -7.27404642105103
vertex 3.08889842033386 -10.0340909957886 -7.27344512939453
vertex 2.53904390335083 -9.95662879943848 -5.9468035697937
endloop
endfacet
facet normal -0.923874914646149 -0.00425584148615599 -0.382670968770981
outer loop
vertex 2.53904390335083 -10.0279493331909 -5.94601058959961
vertex 2.53904390335083 -9.95662879943848 -5.9468035697937
vertex 3.08889842033386 -10.0340909957886 -7.27344512939453
endloop
endfacet
facet normal -0.923874914646149 -0.0042558410204947 -0.382670938968658
outer loop
vertex 1.94688487052917 -9.93144798278809 -4.51744556427002
vertex 2.53904390335083 -9.95662879943848 -5.9468035697937
vertex 1.94688487052917 -10.0213356018066 -4.51644611358643
endloop
endfacet
facet normal -0.923874855041504 -0.0042558410204947 -0.382670909166336
outer loop
vertex 2.53904390335083 -10.0279493331909 -5.94601058959961
vertex 1.94688487052917 -10.0213356018066 -4.51644611358643
vertex 2.53904390335083 -9.95662879943848 -5.9468035697937
endloop
endfacet
facet normal -0.923874914646149 -0.0042558410204947 -0.382670938968658
outer loop
vertex 1.94688487052917 -9.93144798278809 -4.51744556427002
vertex 1.94688487052917 -10.0213356018066 -4.51644611358643
vertex 1.35472559928894 -9.9062671661377 -3.08808732032776
endloop
endfacet
facet normal -0.923874914646149 -0.00425584148615599 -0.382670938968658
outer loop
vertex 1.35472559928894 -10.014720916748 -3.08688116073608
vertex 1.35472559928894 -9.9062671661377 -3.08808732032776
vertex 1.94688487052917 -10.0213356018066 -4.51644611358643
endloop
endfacet
facet normal -0.923874914646149 -0.00425584148615599 -0.382670938968658
outer loop
vertex 1.35472559928894 -9.9062671661377 -3.08808732032776
vertex 1.35472559928894 -10.014720916748 -3.08688116073608
vertex 0.785954236984253 -9.882080078125 -1.71518278121948
endloop
endfacet
facet normal -0.923874855041504 -0.0042558410204947 -0.382670879364014
outer loop
vertex 0.785954236984253 -10.0083684921265 -1.71377825737
vertex 0.785954236984253 -9.882080078125 -1.71518278121948
vertex 1.35472559928894 -10.014720916748 -3.08688116073608
endloop
endfacet
facet normal -0.923874914646149 -0.00425584148615599 -0.382670938968658
outer loop
vertex 0.351117938756943 -9.8635892868042 -0.665571689605713
vertex 0.785954236984253 -9.882080078125 -1.71518278121948
vertex 0.351117938756943 -10.003511428833 -0.664015531539917
endloop
endfacet
facet normal -0.923874914646149 -0.00425584148615599 -0.382670938968658
outer loop
vertex 0.785954236984253 -10.0083684921265 -1.71377825737
vertex 0.351117938756943 -10.003511428833 -0.664015531539917
vertex 0.785954236984253 -9.882080078125 -1.71518278121948
endloop
endfacet
facet normal -0.923874914646149 -0.00425584148615599 -0.382670938968658
outer loop
vertex 0.351117938756943 -9.8635892868042 -0.665571689605713
vertex 0.351117938756943 -10.003511428833 -0.664015531539917
vertex 0.0299999993294477 -9.84993362426758 0.109545186161995
endloop
endfacet
facet normal -0.923874974250793 -0.00425584148615599 -0.382670968770981
outer loop
vertex 0.0299999993294477 -9.999924659729 0.11121328920126
vertex 0.0299999993294477 -9.84993362426758 0.109545186161995
vertex 0.351117938756943 -10.003511428833 -0.664015531539917
endloop
endfacet
facet normal 0.670804798603058 0.316293835639954 -0.670804798603058
outer loop
vertex 1.33849251270294 -19.2577953338623 -3.01789951324463
vertex 1.3126437664032 -19.0719470977783 -2.95611810684204
vertex 1.36038041114807 -19.2613697052002 -2.99769759178162
endloop
endfacet
facet normal 0.670804798603058 0.316293805837631 -0.670804798603058
outer loop
vertex 1.33409917354584 -19.0754508972168 -2.93631505966187
vertex 1.36038041114807 -19.2613697052002 -2.99769759178162
vertex 1.3126437664032 -19.0719470977783 -2.95611810684204
endloop
endfacet
facet normal 0.670804798603058 0.316293805837631 -0.670804798603058
outer loop
vertex 1.3126437664032 -19.0719470977783 -2.95611810684204
vertex 1.26972079277039 -18.7633361816406 -2.85352754592896
vertex 1.33409917354584 -19.0754508972168 -2.93631505966187
endloop
endfacet
facet normal 0.670804858207703 0.316293805837631 -0.670804858207703
outer loop
vertex 1.29045808315277 -18.7667217254639 -2.83438658714294
vertex 1.33409917354584 -19.0754508972168 -2.93631505966187
vertex 1.26972079277039 -18.7633361816406 -2.85352754592896
endloop
endfacet
facet normal 0.670804798603058 0.316293835639954 -0.670804798603058
outer loop
vertex 1.29045808315277 -18.7667217254639 -2.83438658714294
vertex 1.26972079277039 -18.7633361816406 -2.85352754592896
vertex 1.2179901599884 -18.2540664672852 -2.66513013839722
endloop
endfacet
facet normal 0.670804858207703 0.316293835639954 -0.670804858207703
outer loop
vertex 1.1984452009201 -18.2508754730225 -2.68317055702209
vertex 1.2179901599884 -18.2540664672852 -2.66513013839722
vertex 1.26972079277039 -18.7633361816406 -2.85352754592896
endloop
endfacet
facet normal 0.670804798603058 0.316293805837631 -0.670804798603058
outer loop
vertex 1.1984452009201 -18.2508754730225 -2.68317055702209
vertex 1.08008861541748 -17.3999099731445 -2.40028500556946
vertex 1.2179901599884 -18.2540664672852 -2.66513013839722
endloop
endfacet
facet normal 0.670804858207703 0.316293805837631 -0.670804858207703
outer loop
vertex 1.09765386581421 -17.4027786254883 -2.38407230377197
vertex 1.2179901599884 -18.2540664672852 -2.66513013839722
vertex 1.08008861541748 -17.3999099731445 -2.40028500556946
endloop
endfacet
facet normal 0.670804858207703 0.316293835639954 -0.670804858207703
outer loop
vertex 1.08008861541748 -17.3999099731445 -2.40028500556946
vertex 0.888834178447723 -16.0248203277588 -1.94316530227661
vertex 1.09765386581421 -17.4027786254883 -2.38407230377197
endloop
endfacet
facet normal 0.670804858207703 0.316293835639954 -0.670804858207703
outer loop
vertex 0.903200685977936 -16.0271682739258 -1.9299064874649
vertex 1.09765386581421 -17.4027786254883 -2.38407230377197
vertex 0.888834178447723 -16.0248203277588 -1.94316530227661
endloop
endfacet
facet normal 0.670804798603058 0.316293835639954 -0.670804798603058
outer loop
vertex 0.903200685977936 -16.0271682739258 -1.9299064874649
vertex 0.888834178447723 -16.0248203277588 -1.94316530227661
vertex 0.684900522232056 -14.4828605651855 -1.42004358768463
endloop
endfacet
facet normal 0.670804798603058 0.316293805837631 -0.670804798603058
outer loop
vertex 0.674125611782074 -14.4810981750488 -1.42998766899109
vertex 0.684900522232056 -14.4828605651855 -1.42004358768463
vertex 0.888834178447723 -16.0248203277588 -1.94316530227661
endloop
endfacet
facet normal 0.670804798603058 0.316293805837631 -0.670804798603058
outer loop
vertex 0.684900522232056 -14.4828605651855 -1.42004358768463
vertex 0.674125611782074 -14.4810981750488 -1.42998766899109
vertex 0.466600328683853 -12.938551902771 -0.910180628299713
endloop
endfacet
facet normal 0.670804798603058 0.316293835639954 -0.670804798603058
outer loop
vertex 0.459417074918747 -12.9373769760132 -0.916810035705566
vertex 0.466600328683853 -12.938551902771 -0.910180628299713
vertex 0.674125611782074 -14.4810981750488 -1.42998766899109
endloop
endfacet
facet normal 0.670804798603058 0.316293835639954 -0.670804798603058
outer loop
vertex 0.466600328683853 -12.938551902771 -0.910180628299713
vertex 0.459417074918747 -12.9373769760132 -0.916810035705566
vertex 0.248300164937973 -11.3942432403564 -0.40031772851944
endloop
endfacet
facet normal 0.670804798603058 0.316293835639954 -0.670804798603058
outer loop
vertex 0.24470853805542 -11.3936557769775 -0.403632432222366
vertex 0.248300164937973 -11.3942432403564 -0.40031772851944
vertex 0.459417074918747 -12.9373769760132 -0.916810035705566
endloop
endfacet
facet normal 0.670804798603058 0.316293835639954 -0.670804798603058
outer loop
vertex 0.248300164937973 -11.3942432403564 -0.40031772851944
vertex 0.24470853805542 -11.3936557769775 -0.403632432222366
vertex 0.0299999993294477 -9.84993362426758 0.109545186161995
endloop
endfacet
facet normal -0.378387063741684 -0.0346996709704399 -0.924996852874756
outer loop
vertex 2.03961825370789 -10.9783172607422 9.83809185028076
vertex 2.05386710166931 -11.8169174194336 9.86372089385986
vertex 1.90081226825714 -10.9798393249512 9.89492988586426
endloop
endfacet
facet normal -0.378387033939362 -0.0346996672451496 -0.924996852874756
outer loop
vertex 1.92437887191772 -11.8183364868164 9.91674423217773
vertex 1.90081226825714 -10.9798393249512 9.89492988586426
vertex 2.05386710166931 -11.8169174194336 9.86372089385986
endloop
endfacet
facet normal -0.378387033939362 -0.0346996709704399 -0.924996852874756
outer loop
vertex 1.92437887191772 -11.8183364868164 9.91674423217773
vertex 2.05386710166931 -11.8169174194336 9.86372089385986
vertex 1.95629119873047 -12.9537734985352 9.9462833404541
endloop
endfacet
facet normal -0.378387033939362 -0.0346996709704399 -0.924996852874756
outer loop
vertex 2.07316207885742 -12.9524927139282 9.89842796325684
vertex 1.95629119873047 -12.9537734985352 9.9462833404541
vertex 2.05386710166931 -11.8169174194336 9.86372089385986
endloop
endfacet
facet normal -0.378387033939362 -0.0346996709704399 -0.924996852874756
outer loop
vertex 1.95629119873047 -12.9537734985352 9.9462833404541
vertex 2.07316207885742 -12.9524927139282 9.89842796325684
vertex 1.99803280830383 -14.4389400482178 9.98492240905762
endloop
endfacet
facet normal -0.378387063741684 -0.0346996709704399 -0.924996852874756
outer loop
vertex 2.09839987754822 -14.4378395080566 9.94382381439209
vertex 1.99803280830383 -14.4389400482178 9.98492240905762
vertex 2.07316207885742 -12.9524927139282 9.89842796325684
endloop
endfacet
facet normal -0.378387063741684 -0.0346996709704399 -0.924996852874756
outer loop
vertex 2.09839987754822 -14.4378395080566 9.94382381439209
vertex 2.12467551231384 -15.984263420105 9.99108695983887
vertex 1.99803280830383 -14.4389400482178 9.98492240905762
endloop
endfacet
facet normal -0.378387063741684 -0.0346996709704399 -0.924996912479401
outer loop
vertex 2.04149103164673 -15.9851751327515 10.0251493453979
vertex 1.99803280830383 -14.4389400482178 9.98492240905762
vertex 2.12467551231384 -15.984263420105 9.99108695983887
endloop
endfacet
facet normal -0.378387063741684 -0.0346996709704399 -0.924996912479401
outer loop
vertex 2.12467551231384 -15.984263420105 9.99108695983887
vertex 2.15095114707947 -17.5306873321533 10.0383491516113
vertex 2.04149103164673 -15.9851751327515 10.0251493453979
endloop
endfacet
facet normal -0.378387063741684 -0.0346996746957302 -0.924996912479401
outer loop
vertex 2.08494901657104 -17.5314102172852 10.0653762817383
vertex 2.04149103164673 -15.9851751327515 10.0251493453979
vertex 2.15095114707947 -17.5306873321533 10.0383491516113
endloop
endfacet
facet normal -0.378387033939362 -0.0346996709704399 -0.924996852874756
outer loop
vertex 2.15095114707947 -17.5306873321533 10.0383491516113
vertex 2.17534971237183 -18.9666328430176 10.082236289978
vertex 2.08494901657104 -17.5314102172852 10.0653762817383
endloop
endfacet
facet normal -0.378387033939362 -0.0346996709704399 -0.924996852874756
outer loop
vertex 2.1253023147583 -18.9671821594238 10.102728843689
vertex 2.08494901657104 -17.5314102172852 10.0653762817383
vertex 2.17534971237183 -18.9666328430176 10.082236289978
endloop
endfacet
facet normal -0.378387063741684 -0.0346996709704399 -0.924996852874756
outer loop
vertex 2.1253023147583 -18.9671821594238 10.102728843689
vertex 2.17534971237183 -18.9666328430176 10.082236289978
vertex 2.15097284317017 -19.8805294036865 10.1264905929565
endloop
endfacet
facet normal -0.378387033939362 -0.0346996709704399 -0.924996852874756
outer loop
vertex 2.19087052345276 -19.880090713501 10.1101531982422
vertex 2.15097284317017 -19.8805294036865 10.1264905929565
vertex 2.17534971237183 -18.9666328430176 10.082236289978
endloop
endfacet
facet normal -0.378387033939362 -0.0346996672451496 -0.924996852874756
outer loop
vertex 2.19087052345276 -19.880090713501 10.1101531982422
vertex 2.20027613639832 -20.4336471557617 10.1270713806152
vertex 2.15097284317017 -19.8805294036865 10.1264905929565
endloop
endfacet
facet normal -0.378387033939362 -0.0346996709704399 -0.924996852874756
outer loop
vertex 2.16652894020081 -20.4340171813965 10.1408910751343
vertex 2.15097284317017 -19.8805294036865 10.1264905929565
vertex 2.20027613639832 -20.4336471557617 10.1270713806152
endloop
endfacet
facet normal -0.378387033939362 -0.0346996709704399 -0.924996793270111
outer loop
vertex 2.16652894020081 -20.4340171813965 10.1408910751343
vertex 2.20027613639832 -20.4336471557617 10.1270713806152
vertex 2.17595601081848 -20.7694320678711 10.1496171951294
endloop
endfacet
facet normal -0.378387033939362 -0.0346996672451496 -0.924996793270111
outer loop
vertex 2.2059760093689 -20.7691040039063 10.1373243331909
vertex 2.17595601081848 -20.7694320678711 10.1496171951294
vertex 2.20027613639832 -20.4336471557617 10.1270713806152
endloop
endfacet
facet normal -0.378387033939362 -0.0346996709704399 -0.924996793270111
outer loop
vertex 2.17595601081848 -20.7694320678711 10.1496171951294
vertex 2.2059760093689 -20.7691040039063 10.1373243331909
vertex 2.18166875839233 -20.9726943969727 10.1549053192139
endloop
endfacet
facet normal -0.378387033939362 -0.0346996672451496 -0.924996852874756
outer loop
vertex 2.20942997932434 -20.9723892211914 10.1435375213623
vertex 2.18166875839233 -20.9726943969727 10.1549053192139
vertex 2.2059760093689 -20.7691040039063 10.1373243331909
endloop
endfacet
facet normal 0.92467588186264 -0.00032293880940415 0.380754917860031
outer loop
vertex 1.98523783683777 -30.9775905609131 10.0089073181152
vertex 1.99666011333466 -30.9777812957764 9.98116779327393
vertex 1.98600172996521 -30.7800540924072 10.0072193145752
endloop
endfacet
facet normal 0.92467588186264 -0.00032293883850798 0.380754917860031
outer loop
vertex 1.99719834327698 -30.7802391052246 9.98002815246582
vertex 1.98600172996521 -30.7800540924072 10.0072193145752
vertex 1.99666011333466 -30.9777812957764 9.98116779327393
endloop
endfacet
facet normal 0.92467600107193 -0.000322938867611811 0.380754977464676
outer loop
vertex 1.98600172996521 -30.7800540924072 10.0072193145752
vertex 1.99719834327698 -30.7802391052246 9.98002815246582
vertex 1.98727023601532 -30.4520320892334 10.0044164657593
endloop
endfacet
facet normal 0.924675941467285 -0.000322938867611811 0.380754977464676
outer loop
vertex 1.99809217453003 -30.4522113800049 9.97813510894775
vertex 1.98727023601532 -30.4520320892334 10.0044164657593
vertex 1.99719834327698 -30.7802391052246 9.98002815246582
endloop
endfacet
facet normal 0.92467588186264 -0.00032293883850798 0.380754917860031
outer loop
vertex 1.98727023601532 -30.4520320892334 10.0044164657593
vertex 1.99809217453003 -30.4522113800049 9.97813510894775
vertex 1.98937666416168 -29.9073371887207 9.99976348876953
endloop
endfacet
facet normal 0.924675941467285 -0.00032293880940415 0.380754888057709
outer loop
vertex 1.99957644939423 -29.907506942749 9.9749927520752
vertex 1.98937666416168 -29.9073371887207 9.99976348876953
vertex 1.99809217453003 -30.4522113800049 9.97813510894775
endloop
endfacet
facet normal 0.924675941467285 -0.000322938867611811 0.380754947662354
outer loop
vertex 1.99957644939423 -29.907506942749 9.9749927520752
vertex 2.00204110145569 -29.0030002593994 9.96977424621582
vertex 1.98937666416168 -29.9073371887207 9.99976348876953
endloop
endfacet
facet normal 0.924675941467285 -0.000322938867611811 0.380754917860031
outer loop
vertex 1.99287462234497 -29.0028476715088 9.99203586578369
vertex 1.98937666416168 -29.9073371887207 9.99976348876953
vertex 2.00204110145569 -29.0030002593994 9.96977424621582
endloop
endfacet
facet normal 0.92467600107193 -0.00032293883850798 0.380754947662354
outer loop
vertex 1.99287462234497 -29.0028476715088 9.99203586578369
vertex 2.00204110145569 -29.0030002593994 9.96977424621582
vertex 1.99852681159973 -27.5412654876709 9.97954845428467
endloop
endfacet
facet normal 0.924675941467285 -0.00032293883850798 0.380754947662354
outer loop
vertex 2.00602388381958 -27.5413932800293 9.96134185791016
vertex 1.99852681159973 -27.5412654876709 9.97954845428467
vertex 2.00204110145569 -29.0030002593994 9.96977424621582
endloop
endfacet
facet normal 0.924675941467285 -0.00032293883850798 0.380754947662354
outer loop
vertex 2.00602388381958 -27.5413932800293 9.96134185791016
vertex 2.01049494743347 -25.900541305542 9.95187568664551
vertex 1.99852681159973 -27.5412654876709 9.97954845428467
endloop
endfacet
facet normal 0.92467588186264 -0.00032293880940415 0.380754917860031
outer loop
vertex 2.00487232208252 -25.9004459381104 9.96553039550781
vertex 1.99852681159973 -27.5412654876709 9.97954845428467
vertex 2.01049494743347 -25.900541305542 9.95187568664551
endloop
endfacet
facet normal 0.92467588186264 -0.00032293880940415 0.380754917860031
outer loop
vertex 2.00487232208252 -25.9004459381104 9.96553039550781
vertex 2.01049494743347 -25.900541305542 9.95187568664551
vertex 2.01121759414673 -24.2596263885498 9.95151233673096
endloop
endfacet
facet normal 0.924675941467285 -0.00032293883850798 0.380754947662354
outer loop
vertex 2.01496601104736 -24.2596893310547 9.94240856170654
vertex 2.01121759414673 -24.2596263885498 9.95151233673096
vertex 2.01049494743347 -25.900541305542 9.95187568664551
endloop
endfacet
facet normal 0.924675941467285 -0.00032293883850798 0.380754947662354
outer loop
vertex 2.01496601104736 -24.2596893310547 9.94240856170654
vertex 2.01943731307983 -22.6188373565674 9.93294239044189
vertex 2.01121759414673 -24.2596263885498 9.95151233673096
endloop
endfacet
facet normal 0.924675941467285 -0.00032293883850798 0.380754947662354
outer loop
vertex 2.01756310462952 -22.6188049316406 9.93749332427979
vertex 2.01121759414673 -24.2596263885498 9.95151233673096
vertex 2.01943731307983 -22.6188373565674 9.93294239044189
endloop
endfacet
facet normal 0.924675941467285 -0.00032293883850798 0.380754947662354
outer loop
vertex 2.01943731307983 -22.6188373565674 9.93294239044189
vertex 2.02390837669373 -20.9779853820801 9.92347526550293
vertex 2.01756310462952 -22.6188049316406 9.93749332427979
endloop
endfacet
facet normal 0.923073589801788 -0.00473411660641432 -0.384594053030014
outer loop
vertex 2.05115675926208 -10.9781894683838 9.86578369140625
vertex 2.05060172080994 -11.1818246841431 9.86695861816406
vertex 2.03961825370789 -10.9783172607422 9.83809185028076
endloop
endfacet
facet normal 0.923073589801788 -0.00473411660641432 -0.384594053030014
outer loop
vertex 2.03906345367432 -11.1819534301758 9.83926582336426
vertex 2.03961825370789 -10.9783172607422 9.83809185028076
vertex 2.05060172080994 -11.1818246841431 9.86695861816406
endloop
endfacet
facet normal 0.923073649406433 -0.00473411660641432 -0.384594082832336
outer loop
vertex 2.0380551815033 -11.5519695281982 9.84140110015869
vertex 2.03906345367432 -11.1819534301758 9.83926582336426
vertex 2.04959344863892 -11.5518417358398 9.86909294128418
endloop
endfacet
facet normal 0.923073649406433 -0.00473411660641432 -0.384594082832336
outer loop
vertex 2.05060172080994 -11.1818246841431 9.86695861816406
vertex 2.04959344863892 -11.5518417358398 9.86909294128418
vertex 2.03906345367432 -11.1819534301758 9.83926582336426
endloop
endfacet
facet normal 0.923073649406433 -0.00473411660641432 -0.384594082832336
outer loop
vertex 2.0380551815033 -11.5519695281982 9.84140110015869
vertex 2.04959344863892 -11.5518417358398 9.86909294128418
vertex 2.03622317314148 -12.224310874939 9.84527969360352
endloop
endfacet
facet normal 0.923073649406433 -0.00473411660641432 -0.384594082832336
outer loop
vertex 2.0477614402771 -12.2241830825806 9.872971534729
vertex 2.03622317314148 -12.224310874939 9.84527969360352
vertex 2.04959344863892 -11.5518417358398 9.86909294128418
endloop
endfacet
facet normal 0.923073649406433 -0.00473411660641432 -0.384594053030014
outer loop
vertex 2.03622317314148 -12.224310874939 9.84527969360352
vertex 2.0477614402771 -12.2241830825806 9.872971534729
vertex 2.03289413452148 -13.4459924697876 9.85232830047607
endloop
endfacet
facet normal 0.923073649406433 -0.00473411660641432 -0.384594053030014
outer loop
vertex 2.04443264007568 -13.4458637237549 9.88002014160156
vertex 2.03289413452148 -13.4459924697876 9.85232830047607
vertex 2.0477614402771 -12.2241830825806 9.872971534729
endloop
endfacet
facet normal 0.923073649406433 -0.00473411614075303 -0.384594053030014
outer loop
vertex 2.02829599380493 -15.1334171295166 9.86206340789795
vertex 2.03289413452148 -13.4459924697876 9.85232830047607
vertex 2.03983449935913 -15.1332883834839 9.88975524902344
endloop
endfacet
facet normal 0.923073649406433 -0.00473411614075303 -0.384594053030014
outer loop
vertex 2.04443264007568 -13.4458637237549 9.88002014160156
vertex 2.03983449935913 -15.1332883834839 9.88975524902344
vertex 2.03289413452148 -13.4459924697876 9.85232830047607
endloop
endfacet
facet normal 0.923073709011078 -0.00473411707207561 -0.384594082832336
outer loop
vertex 2.03983449935913 -15.1332883834839 9.88975524902344
vertex 2.03523063659668 -16.8228855133057 9.89950370788574
vertex 2.02829599380493 -15.1334171295166 9.86206340789795
endloop
endfacet
facet normal 0.923073709011078 -0.00473411707207561 -0.384594082832336
outer loop
vertex 2.02369213104248 -16.8230152130127 9.87181091308594
vertex 2.02829599380493 -15.1334171295166 9.86206340789795
vertex 2.03523063659668 -16.8228855133057 9.89950370788574
endloop
endfacet
facet normal 0.923073649406433 -0.00473411614075303 -0.384594053030014
outer loop
vertex 2.02369213104248 -16.8230152130127 9.87181091308594
vertex 2.03523063659668 -16.8228855133057 9.89950370788574
vertex 2.01909399032593 -18.5104389190674 9.88154697418213
endloop
endfacet
facet normal 0.923073649406433 -0.00473411614075303 -0.384594053030014
outer loop
vertex 2.03063249588013 -18.510311126709 9.90923881530762
vertex 2.01909399032593 -18.5104389190674 9.88154697418213
vertex 2.03523063659668 -16.8228855133057 9.89950370788574
endloop
endfacet
facet normal 0.923073649406433 -0.00473411660641432 -0.384594053030014
outer loop
vertex 2.01576519012451 -19.732120513916 9.88859462738037
vertex 2.01909399032593 -18.5104389190674 9.88154697418213
vertex 2.02730345726013 -19.7319927215576 9.91628646850586
endloop
endfacet
facet normal 0.923073649406433 -0.00473411660641432 -0.384594053030014
outer loop
vertex 2.03063249588013 -18.510311126709 9.90923881530762
vertex 2.02730345726013 -19.7319927215576 9.91628646850586
vertex 2.01909399032593 -18.5104389190674 9.88154697418213
endloop
endfacet
facet normal 0.923073649406433 -0.00473411660641432 -0.384594082832336
outer loop
vertex 2.02730345726013 -19.7319927215576 9.91628646850586
vertex 2.02547144889832 -20.404333114624 9.920166015625
vertex 2.01576519012451 -19.732120513916 9.88859462738037
endloop
endfacet
facet normal 0.923073649406433 -0.00473411660641432 -0.384594082832336
outer loop
vertex 2.0139331817627 -20.4044609069824 9.89247417449951
vertex 2.01576519012451 -19.732120513916 9.88859462738037
vertex 2.02547144889832 -20.404333114624 9.920166015625
endloop
endfacet
facet normal 0.923073649406433 -0.00473411660641432 -0.384594082832336
outer loop
vertex 2.01292490959167 -20.7744789123535 9.89460849761963
vertex 2.0139331817627 -20.4044609069824 9.89247417449951
vertex 2.02446317672729 -20.7743492126465 9.92230033874512
endloop
endfacet
facet normal 0.923073649406433 -0.00473411660641432 -0.384594082832336
outer loop
vertex 2.02547144889832 -20.404333114624 9.920166015625
vertex 2.02446317672729 -20.7743492126465 9.92230033874512
vertex 2.0139331817627 -20.4044609069824 9.89247417449951
endloop
endfacet
facet normal 0.923073589801788 -0.00473411660641432 -0.384594053030014
outer loop
vertex 2.01292490959167 -20.7744789123535 9.89460849761963
vertex 2.02446317672729 -20.7743492126465 9.92230033874512
vertex 2.01236987113953 -20.9781131744385 9.89578342437744
endloop
endfacet
facet normal 0.923073589801788 -0.00473411660641432 -0.384594053030014
outer loop
vertex 2.02390837669373 -20.9779853820801 9.92347526550293
vertex 2.01236987113953 -20.9781131744385 9.89578342437744
vertex 2.02446317672729 -20.7743492126465 9.92230033874512
endloop
endfacet
facet normal 0.782678544521332 -0.00572353322058916 -0.622399747371674
outer loop
vertex 2.0310423374176 -20.9780292510986 9.91926383972168
vertex 2.01236987113953 -20.9781131744385 9.89578342437744
vertex 2.03121185302734 -20.7804889678955 9.91765975952148
endloop
endfacet
facet normal 0.782678604125977 -0.00572353368625045 -0.622399747371674
outer loop
vertex 2.01290822029114 -20.7805709838867 9.89464378356934
vertex 2.03121185302734 -20.7804889678955 9.91765975952148
vertex 2.01236987113953 -20.9781131744385 9.89578342437744
endloop
endfacet
facet normal 0.782678544521332 -0.00572353322058916 -0.622399747371674
outer loop
vertex 2.03121185302734 -20.7804889678955 9.91765975952148
vertex 2.01290822029114 -20.7805709838867 9.89464378356934
vertex 2.03149318695068 -20.452465057373 9.91499710083008
endloop
endfacet
facet normal 0.782678544521332 -0.00572353322058916 -0.622399806976318
outer loop
vertex 2.01380205154419 -20.452543258667 9.89275169372559
vertex 2.03149318695068 -20.452465057373 9.91499710083008
vertex 2.01290822029114 -20.7805709838867 9.89464378356934
endloop
endfacet
facet normal 0.782678604125977 -0.00572353368625045 -0.622399806976318
outer loop
vertex 2.01380205154419 -20.452543258667 9.89275169372559
vertex 2.01528644561768 -19.9078388214111 9.88960838317871
vertex 2.03149318695068 -20.452465057373 9.91499710083008
endloop
endfacet
facet normal 0.782678604125977 -0.00572353415191174 -0.622399806976318
outer loop
vertex 2.03196024894714 -19.9077644348145 9.91057586669922
vertex 2.03149318695068 -20.452465057373 9.91499710083008
vertex 2.01528644561768 -19.9078388214111 9.88960838317871
endloop
endfacet
facet normal 0.782678544521332 -0.00572353368625045 -0.622399806976318
outer loop
vertex 2.03196024894714 -19.9077644348145 9.91057586669922
vertex 2.01528644561768 -19.9078388214111 9.88960838317871
vertex 2.03273606300354 -19.0032653808594 9.90323352813721
endloop
endfacet
facet normal 0.782678604125977 -0.00572353368625045 -0.622399806976318
outer loop
vertex 2.01775097846985 -19.0033321380615 9.88438987731934
vertex 2.03273606300354 -19.0032653808594 9.90323352813721
vertex 2.01528644561768 -19.9078388214111 9.88960838317871
endloop
endfacet
facet normal 0.782678604125977 -0.00572353368625045 -0.622399806976318
outer loop
vertex 2.03273606300354 -19.0032653808594 9.90323352813721
vertex 2.01775097846985 -19.0033321380615 9.88438987731934
vertex 2.03398942947388 -17.5416679382324 9.8913688659668
endloop
endfacet
facet normal 0.782678604125977 -0.00572353368625045 -0.622399747371674
outer loop
vertex 2.02173376083374 -17.5417251586914 9.87595748901367
vertex 2.03398942947388 -17.5416679382324 9.8913688659668
vertex 2.01775097846985 -19.0033321380615 9.88438987731934
endloop
endfacet
facet normal 0.782678484916687 -0.00572353322058916 -0.622399747371674
outer loop
vertex 2.02173376083374 -17.5417251586914 9.87595748901367
vertex 2.02620482444763 -15.9008731842041 9.86649131774902
vertex 2.03398942947388 -17.5416679382324 9.8913688659668
endloop
endfacet
facet normal 0.782678544521332 -0.00572353368625045 -0.622399747371674
outer loop
vertex 2.03539657592773 -15.9008302688599 9.87804985046387
vertex 2.03398942947388 -17.5416679382324 9.8913688659668
vertex 2.02620482444763 -15.9008731842041 9.86649131774902
endloop
endfacet
facet normal 0.782678544521332 -0.00572353368625045 -0.622399747371674
outer loop
vertex 2.02620482444763 -15.9008731842041 9.86649131774902
vertex 2.0306761264801 -14.2600212097168 9.85702419281006
vertex 2.03539657592773 -15.9008302688599 9.87804985046387
endloop
endfacet
facet normal 0.782678484916687 -0.00572353322058916 -0.622399747371674
outer loop
vertex 2.03680396080017 -14.2599925994873 9.86472988128662
vertex 2.03539657592773 -15.9008302688599 9.87804985046387
vertex 2.0306761264801 -14.2600212097168 9.85702419281006
endloop
endfacet
facet normal 0.782678484916687 -0.00572353322058916 -0.622399747371674
outer loop
vertex 2.0306761264801 -14.2600212097168 9.85702419281006
vertex 2.03514719009399 -12.6191692352295 9.84755802154541
vertex 2.03680396080017 -14.2599925994873 9.86472988128662
endloop
endfacet
facet normal 0.782678484916687 -0.00572353322058916 -0.622399747371674
outer loop
vertex 2.03821110725403 -12.6191549301147 9.85141086578369
vertex 2.03680396080017 -14.2599925994873 9.86472988128662
vertex 2.03514719009399 -12.6191692352295 9.84755802154541
endloop
endfacet
facet normal 0.782678484916687 -0.00572353322058916 -0.622399747371674
outer loop
vertex 2.03514719009399 -12.6191692352295 9.84755802154541
vertex 2.03961825370789 -10.9783172607422 9.83809185028076
vertex 2.03821110725403 -12.6191549301147 9.85141086578369
endloop
endfacet
endsolid COMSOL mesh mesh1
