solid COMSOL mesh mesh1
facet normal -1 0 0
outer loop
vertex -0.153995007276535 -15 0.00499999988824129
vertex -0.153995007276535 -16 0.00499999988824129
vertex -0.153995007276535 -15 0.144999995827675
endloop
endfacet
facet normal -1 0 0
outer loop
vertex -0.153995007276535 -16 0.144999995827675
vertex -0.153995007276535 -15 0.144999995827675
vertex -0.153995007276535 -16 0.00499999988824129
endloop
endfacet
facet normal -0.70710676908493 -0 -0.70710676908493
outer loop
vertex -0.153995007276535 -15 0.00499999988824129
vertex -0.0549999997019768 -15 -0.0939949974417686
vertex -0.153995007276535 -16 0.00499999988824129
endloop
endfacet
facet normal -0.70710676908493 0 -0.70710676908493
outer loop
vertex -0.0549999997019768 -16 -0.0939949974417686
vertex -0.153995007276535 -16 0.00499999988824129
vertex -0.0549999997019768 -15 -0.0939949974417686
endloop
endfacet
facet normal -0.70710676908493 0 0.70710676908493
outer loop
vertex -0.153995007276535 -15 0.144999995827675
vertex -0.153995007276535 -16 0.144999995827675
vertex -0.0549999997019768 -15 0.243994995951653
endloop
endfacet
facet normal -0.70710676908493 0 0.70710676908493
outer loop
vertex -0.0549999997019768 -16 0.243994995951653
vertex -0.0549999997019768 -15 0.243994995951653
vertex -0.153995007276535 -16 0.144999995827675
endloop
endfacet
facet normal 0 0 -1
outer loop
vertex -0.0549999997019768 -15 -0.0939949974417686
vertex 0.0850000008940697 -15 -0.0939949974417686
vertex -0.0549999997019768 -16 -0.0939949974417686
endloop
endfacet
facet normal 0 0 -1
outer loop
vertex 0.0850000008940697 -16 -0.0939949974417686
vertex -0.0549999997019768 -16 -0.0939949974417686
vertex 0.0850000008940697 -15 -0.0939949974417686
endloop
endfacet
facet normal 0 -0 1
outer loop
vertex 0.0850000008940697 -16 0.243994995951653
vertex 0.0850000008940697 -15 0.243994995951653
vertex -0.0549999997019768 -16 0.243994995951653
endloop
endfacet
facet normal -0 0 1
outer loop
vertex -0.0549999997019768 -15 0.243994995951653
vertex -0.0549999997019768 -16 0.243994995951653
vertex 0.0850000008940697 -15 0.243994995951653
endloop
endfacet
facet normal 0.70710676908493 0 -0.70710676908493
outer loop
vertex 0.0850000008940697 -15 -0.0939949974417686
vertex 0.183994993567467 -15 0.00499999988824129
vertex 0.0850000008940697 -16 -0.0939949974417686
endloop
endfacet
facet normal 0.70710676908493 0 -0.70710676908493
outer loop
vertex 0.183994993567467 -16 0.00499999988824129
vertex 0.0850000008940697 -16 -0.0939949974417686
vertex 0.183994993567467 -15 0.00499999988824129
endloop
endfacet
facet normal 0.70710676908493 -0 0.70710676908493
outer loop
vertex 0.183994993567467 -16 0.144999995827675
vertex 0.183994993567467 -15 0.144999995827675
vertex 0.0850000008940697 -16 0.243994995951653
endloop
endfacet
facet normal 0.70710676908493 0 0.70710676908493
outer loop
vertex 0.0850000008940697 -15 0.243994995951653
vertex 0.0850000008940697 -16 0.243994995951653
vertex 0.183994993567467 -15 0.144999995827675
endloop
endfacet
facet normal 1 0 0
outer loop
vertex 0.183994993567467 -16 0.00499999988824129
vertex 0.183994993567467 -15 0.00499999988824129
vertex 0.183994993567467 -16 0.144999995827675
endloop
endfacet
facet normal 1 0 0
outer loop
vertex 0.183994993567467 -15 0.144999995827675
vertex 0.183994993567467 -16 0.144999995827675
vertex 0.183994993567467 -15 0.00499999988824129
endloop
endfacet
facet normal -0.707085490226746 -0.0070235594175756 0.707093179225922
outer loop
vertex -0.054998479783535 -15.9995489120483 0.243995144963264
vertex -0.153992518782616 -15.9998064041138 0.144999623298645
vertex -0.0552810691297054 -16.8470573425293 0.235294252634048
endloop
endfacet
facet normal -0.707085490226746 -0.0070235594175756 0.707093179225922
outer loop
vertex -0.148681789636612 -16.8473091125488 0.141892060637474
vertex -0.0552810691297054 -16.8470573425293 0.235294252634048
vertex -0.153992518782616 -15.9998064041138 0.144999623298645
endloop
endfacet
facet normal -0.707085490226746 -0.0070235594175756 0.707093179225922
outer loop
vertex -0.0552810691297054 -16.8470573425293 0.235294252634048
vertex -0.148681789636612 -16.8473091125488 0.141892060637474
vertex -0.0557052120566368 -18.1190891265869 0.222235023975372
endloop
endfacet
facet normal -0.707085430622101 -0.00702355895191431 0.707093179225922
outer loop
vertex -0.140711024403572 -18.1193065643311 0.137227967381477
vertex -0.0557052120566368 -18.1190891265869 0.222235023975372
vertex -0.148681789636612 -16.8473091125488 0.141892060637474
endloop
endfacet
facet normal -0.707085490226746 -0.0070235594175756 0.707093179225922
outer loop
vertex -0.0557052120566368 -18.1190891265869 0.222235023975372
vertex -0.140711024403572 -18.1193065643311 0.137227967381477
vertex -0.0562412664294243 -19.7267398834229 0.205730184912682
endloop
endfacet
facet normal -0.707085490226746 -0.0070235594175756 0.707093238830566
outer loop
vertex -0.130637139081955 -19.7269287109375 0.131333246827126
vertex -0.0562412664294243 -19.7267398834229 0.205730184912682
vertex -0.140711024403572 -18.1193065643311 0.137227967381477
endloop
endfacet
facet normal -0.707085490226746 -0.00702355988323689 0.707093238830566
outer loop
vertex -0.0562412664294243 -19.7267398834229 0.205730184912682
vertex -0.130637139081955 -19.7269287109375 0.131333246827126
vertex -0.0567782260477543 -21.337121963501 0.189197301864624
endloop
endfacet
facet normal -0.707085490226746 -0.00702355895191431 0.707093179225922
outer loop
vertex -0.120546117424965 -21.3372821807861 0.12542849779129
vertex -0.0567782260477543 -21.337121963501 0.189197301864624
vertex -0.130637139081955 -19.7269287109375 0.131333246827126
endloop
endfacet
facet normal -0.707085490226746 -0.00702355895191431 0.707093179225922
outer loop
vertex -0.120546117424965 -21.3372821807861 0.12542849779129
vertex -0.110455095767975 -22.9476375579834 0.119523748755455
vertex -0.0567782260477543 -21.337121963501 0.189197301864624
endloop
endfacet
facet normal -0.707085490226746 -0.0070235594175756 0.707093179225922
outer loop
vertex -0.0573151893913746 -22.9475021362305 0.172664418816566
vertex -0.0567782260477543 -21.337121963501 0.189197301864624
vertex -0.110455095767975 -22.9476375579834 0.119523748755455
endloop
endfacet
facet normal -0.707085490226746 -0.0070235594175756 0.707093179225922
outer loop
vertex -0.0573151893913746 -22.9475021362305 0.172664418816566
vertex -0.110455095767975 -22.9476375579834 0.119523748755455
vertex -0.0578521527349949 -24.5578842163086 0.156131535768509
endloop
endfacet
facet normal -0.707085430622101 -0.00702355895191431 0.707093238830566
outer loop
vertex -0.100364074110985 -24.5579929351807 0.11361899971962
vertex -0.0578521527349949 -24.5578842163086 0.156131535768509
vertex -0.110455095767975 -22.9476375579834 0.119523748755455
endloop
endfacet
facet normal -0.707085430622101 -0.00702355895191431 0.707093238830566
outer loop
vertex -0.100364074110985 -24.5579929351807 0.11361899971962
vertex -0.0902730599045753 -26.1683464050293 0.107714250683784
vertex -0.0578521527349949 -24.5578842163086 0.156131535768509
endloop
endfacet
facet normal -0.707085490226746 -0.00702355895191431 0.707093179225922
outer loop
vertex -0.0583891123533249 -26.1682662963867 0.139598652720451
vertex -0.0578521527349949 -24.5578842163086 0.156131535768509
vertex -0.0902730599045753 -26.1683464050293 0.107714250683784
endloop
endfacet
facet normal -0.707085490226746 -0.00702355895191431 0.707093179225922
outer loop
vertex -0.0902730599045753 -26.1683464050293 0.107714250683784
vertex -0.0801820382475853 -27.7787017822266 0.101809501647949
vertex -0.0583891123533249 -26.1682662963867 0.139598652720451
endloop
endfacet
facet normal -0.707085430622101 -0.00702355895191431 0.707093238830566
outer loop
vertex -0.0589260756969452 -27.7786483764648 0.123065762221813
vertex -0.0583891123533249 -26.1682662963867 0.139598652720451
vertex -0.0801820382475853 -27.7787017822266 0.101809501647949
endloop
endfacet
facet normal -0.707085430622101 -0.00702355895191431 0.707093238830566
outer loop
vertex -0.0801820382475853 -27.7787017822266 0.101809501647949
vertex -0.0700910165905952 -29.3890571594238 0.095904752612114
vertex -0.0589260756969452 -27.7786483764648 0.123065762221813
endloop
endfacet
facet normal -0.707085430622101 -0.00702355895191431 0.707093238830566
outer loop
vertex -0.0594630390405655 -29.3890285491943 0.106532879173756
vertex -0.0589260756969452 -27.7786483764648 0.123065762221813
vertex -0.0700910165905952 -29.3890571594238 0.095904752612114
endloop
endfacet
facet normal -0.707085430622101 -0.00702355895191431 0.707093238830566
outer loop
vertex -0.0700910165905952 -29.3890571594238 0.095904752612114
vertex -0.0599999986588955 -30.9994106292725 0.0900000035762787
vertex -0.0594630390405655 -29.3890285491943 0.106532879173756
endloop
endfacet
facet normal -0.999980330467224 -0.00626621022820473 0
outer loop
vertex -0.0599999986588955 -30.9994106292725 0.0599999986588955
vertex -0.0599999986588955 -30.9994106292725 0.0900000035762787
vertex -0.0613216385245323 -30.7884998321533 0.0592266470193863
endloop
endfacet
facet normal -0.999980390071869 -0.00626621069386601 1.63132267009457e-15
outer loop
vertex -0.0613216385245323 -30.7884998321533 0.0907733514904976
vertex -0.0613216385245323 -30.7884998321533 0.0592266470193863
vertex -0.0599999986588955 -30.9994106292725 0.0900000035762787
endloop
endfacet
facet normal -0.999980390071869 -0.00626621022820473 -1.04751643438609e-15
outer loop
vertex -0.0638453736901283 -30.3857536315918 0.0577498823404312
vertex -0.0613216385245323 -30.7884998321533 0.0592266470193863
vertex -0.0638453736901283 -30.3857536315918 0.0922501161694527
endloop
endfacet
facet normal -0.999980330467224 -0.00626621069386601 1.63132256421545e-15
outer loop
vertex -0.0613216385245323 -30.7884998321533 0.0907733514904976
vertex -0.0638453736901283 -30.3857536315918 0.0922501161694527
vertex -0.0613216385245323 -30.7884998321533 0.0592266470193863
endloop
endfacet
facet normal -0.999980330467224 -0.00626621022820473 -1.04751643438609e-15
outer loop
vertex -0.0638453736901283 -30.3857536315918 0.0577498823404312
vertex -0.0638453736901283 -30.3857536315918 0.0922501161694527
vertex -0.0686645954847336 -29.6166896820068 0.0549299195408821
endloop
endfacet
facet normal -0.999980390071869 -0.00626621022820473 -1.66382385367631e-15
outer loop
vertex -0.0686645954847336 -29.6166896820068 0.0950700789690018
vertex -0.0686645954847336 -29.6166896820068 0.0549299195408821
vertex -0.0638453736901283 -30.3857536315918 0.0922501161694527
endloop
endfacet
facet normal -0.999980390071869 -0.00626621022820473 9.88618104277882e-16
outer loop
vertex -0.0775963068008423 -28.1913394927979 0.0497035384178162
vertex -0.0686645954847336 -29.6166896820068 0.0549299195408821
vertex -0.0775963068008423 -28.1913394927979 0.100296460092068
endloop
endfacet
facet normal -0.999980330467224 -0.00626620976254344 -1.66382385367631e-15
outer loop
vertex -0.0686645954847336 -29.6166896820068 0.0950700789690018
vertex -0.0775963068008423 -28.1913394927979 0.100296460092068
vertex -0.0686645954847336 -29.6166896820068 0.0549299195408821
endloop
endfacet
facet normal -0.999980390071869 -0.00626621022820473 3.54270100821013e-16
outer loop
vertex -0.088060550391674 -26.5214252471924 0.0435803979635239
vertex -0.0775963068008423 -28.1913394927979 0.0497035384178162
vertex -0.088060550391674 -26.5214252471924 0.10641960054636
endloop
endfacet
facet normal -0.999980330467224 -0.00626620976254344 9.88617998398764e-16
outer loop
vertex -0.0775963068008423 -28.1913394927979 0.100296460092068
vertex -0.088060550391674 -26.5214252471924 0.10641960054636
vertex -0.0775963068008423 -28.1913394927979 0.0497035384178162
endloop
endfacet
facet normal -0.999980390071869 -0.00626621022820473 3.54270100821013e-16
outer loop
vertex -0.088060550391674 -26.5214252471924 0.0435803979635239
vertex -0.088060550391674 -26.5214252471924 0.10641960054636
vertex -0.0985247939825058 -24.8515110015869 0.0374572575092316
endloop
endfacet
facet normal -0.999980390071869 -0.00626621069386601 -0
outer loop
vertex -0.0985247939825058 -24.8515110015869 0.112542741000652
vertex -0.0985247939825058 -24.8515110015869 0.0374572575092316
vertex -0.088060550391674 -26.5214252471924 0.10641960054636
endloop
endfacet
facet normal -0.999980390071869 -0.00626621069386601 9.600785599649e-17
outer loop
vertex -0.108989037573338 -23.1815967559814 0.031334113329649
vertex -0.0985247939825058 -24.8515110015869 0.0374572575092316
vertex -0.108989037573338 -23.1815967559814 0.118665881454945
endloop
endfacet
facet normal -0.999980390071869 -0.00626621069386601 -0
outer loop
vertex -0.0985247939825058 -24.8515110015869 0.112542741000652
vertex -0.108989037573338 -23.1815967559814 0.118665881454945
vertex -0.0985247939825058 -24.8515110015869 0.0374572575092316
endloop
endfacet
facet normal -0.999980390071869 -0.00626621022820473 0
outer loop
vertex -0.119453281164169 -21.5116806030273 0.0252109747380018
vertex -0.108989037573338 -23.1815967559814 0.031334113329649
vertex -0.119453281164169 -21.5116806030273 0.124789029359818
endloop
endfacet
facet normal -0.999980390071869 -0.00626621069386601 9.600785599649e-17
outer loop
vertex -0.108989037573338 -23.1815967559814 0.118665881454945
vertex -0.119453281164169 -21.5116806030273 0.124789029359818
vertex -0.108989037573338 -23.1815967559814 0.031334113329649
endloop
endfacet
facet normal -0.999980390071869 -0.00626621022820473 0
outer loop
vertex -0.119453281164169 -21.5116806030273 0.0252109747380018
vertex -0.119453281164169 -21.5116806030273 0.124789029359818
vertex -0.12991751730442 -19.8417663574219 0.0190878324210644
endloop
endfacet
facet normal -0.999980270862579 -0.00626620929688215 4.47282577000771e-16
outer loop
vertex -0.12991751730442 -19.8417663574219 0.13091216981411
vertex -0.12991751730442 -19.8417663574219 0.0190878324210644
vertex -0.119453281164169 -21.5116806030273 0.124789029359818
endloop
endfacet
facet normal -0.999980390071869 -0.00626621069386601 4.03225481738318e-16
outer loop
vertex -0.140357717871666 -18.1756896972656 0.0129787633195519
vertex -0.12991751730442 -19.8417663574219 0.0190878324210644
vertex -0.140357717871666 -18.1756896972656 0.137021243572235
endloop
endfacet
facet normal -0.999980390071869 -0.00626621069386601 4.4728262994033e-16
outer loop
vertex -0.12991751730442 -19.8417663574219 0.13091216981411
vertex -0.140357717871666 -18.1756896972656 0.137021243572235
vertex -0.12991751730442 -19.8417663574219 0.0190878324210644
endloop
endfacet
facet normal -0.999980330467224 -0.00626621022820473 3.7425306388462e-16
outer loop
vertex -0.148562982678413 -16.866268157959 0.00817745923995972
vertex -0.140357717871666 -18.1756896972656 0.0129787633195519
vertex -0.148562982678413 -16.866268157959 0.141822546720505
endloop
endfacet
facet normal -0.999980390071869 -0.00626621022820473 4.03225455268539e-16
outer loop
vertex -0.140357717871666 -18.1756896972656 0.137021243572235
vertex -0.148562982678413 -16.866268157959 0.141822546720505
vertex -0.140357717871666 -18.1756896972656 0.0129787633195519
endloop
endfacet
facet normal -0.999980390071869 -0.00626621069386601 3.74253090354399e-16
outer loop
vertex -0.148562982678413 -16.866268157959 0.00817745923995972
vertex -0.148562982678413 -16.866268157959 0.141822546720505
vertex -0.153993159532547 -15.9997053146362 0.00499999988824129
endloop
endfacet
facet normal -0.999980330467224 -0.00626621022820473 -0
outer loop
vertex -0.153993159532547 -15.9997053146362 0.144999995827675
vertex -0.153993159532547 -15.9997053146362 0.00499999988824129
vertex -0.148562982678413 -16.866268157959 0.141822546720505
endloop
endfacet
facet normal -0.707089364528656 -0.00702351797372103 -0.707089364528656
outer loop
vertex -0.15399768948555 -15.999153137207 0.00500013213604689
vertex -0.055000264197588 -16.0002021789551 -0.093986876308918
vertex -0.148686721920967 -16.8466854095459 0.00810768734663725
endloop
endfacet
facet normal -0.707089364528656 -0.00702351797372103 -0.707089364528656
outer loop
vertex -0.0552827566862106 -16.8476829528809 -0.0852863490581512
vertex -0.148686721920967 -16.8466854095459 0.00810768734663725
vertex -0.055000264197588 -16.0002021789551 -0.093986876308918
endloop
endfacet
facet normal -0.707089304924011 -0.00702351843938231 -0.707089304924011
outer loop
vertex -0.148686721920967 -16.8466854095459 0.00810768734663725
vertex -0.0552827566862106 -16.8476829528809 -0.0852863490581512
vertex -0.140715435147285 -18.1187496185303 0.0127718355506659
endloop
endfacet
facet normal -0.707089364528656 -0.0070235189050436 -0.707089364528656
outer loop
vertex -0.0557067468762398 -18.1196479797363 -0.0722279399633408
vertex -0.140715435147285 -18.1187496185303 0.0127718355506659
vertex -0.0552827566862106 -16.8476829528809 -0.0852863490581512
endloop
endfacet
facet normal -0.707089364528656 -0.00702351937070489 -0.707089364528656
outer loop
vertex -0.140715435147285 -18.1187496185303 0.0127718355506659
vertex -0.0557067468762398 -18.1196479797363 -0.0722279399633408
vertex -0.130640983581543 -19.7264423370361 0.0186665933579206
endloop
endfacet
facet normal -0.707089364528656 -0.00702351843938231 -0.707089364528656
outer loop
vertex -0.0562426038086414 -19.7272262573242 -0.0557240061461926
vertex -0.130640983581543 -19.7264423370361 0.0186665933579206
vertex -0.0557067468762398 -18.1196479797363 -0.0722279399633408
endloop
endfacet
facet normal -0.707089364528656 -0.00702351797372103 -0.707089364528656
outer loop
vertex -0.130640983581543 -19.7264423370361 0.0186665933579206
vertex -0.0562426038086414 -19.7272262573242 -0.0557240061461926
vertex -0.120549418032169 -21.3368663787842 0.0245713647454977
endloop
endfacet
facet normal -0.707089364528656 -0.00702351843938231 -0.707089364528656
outer loop
vertex -0.0567793771624565 -21.3375377655029 -0.0391920059919357
vertex -0.120549418032169 -21.3368663787842 0.0245713647454977
vertex -0.0562426038086414 -19.7272262573242 -0.0557240061461926
endloop
endfacet
facet normal -0.707089364528656 -0.00702351843938231 -0.707089364528656
outer loop
vertex -0.0567793771624565 -21.3375377655029 -0.0391920059919357
vertex -0.0573161467909813 -22.9478511810303 -0.0226600039750338
vertex -0.120549418032169 -21.3368663787842 0.0245713647454977
endloop
endfacet
facet normal -0.707089304924011 -0.00702351797372103 -0.707089304924011
outer loop
vertex -0.110457845032215 -22.9472904205322 0.0304761379957199
vertex -0.120549418032169 -21.3368663787842 0.0245713647454977
vertex -0.0573161467909813 -22.9478511810303 -0.0226600039750338
endloop
endfacet
facet normal -0.707089304924011 -0.00702351797372103 -0.707089304924011
outer loop
vertex -0.0573161467909813 -22.9478511810303 -0.0226600039750338
vertex -0.0578529164195061 -24.558162689209 -0.00612800335511565
vertex -0.110457845032215 -22.9472904205322 0.0304761379957199
endloop
endfacet
facet normal -0.707089304924011 -0.00702351843938231 -0.707089304924011
outer loop
vertex -0.100366279482841 -24.5577144622803 0.036380909383297
vertex -0.110457845032215 -22.9472904205322 0.0304761379957199
vertex -0.0578529164195061 -24.558162689209 -0.00612800335511565
endloop
endfacet
facet normal -0.707089304924011 -0.00702351843938231 -0.707089304924011
outer loop
vertex -0.0578529164195061 -24.558162689209 -0.00612800335511565
vertex -0.0583896860480309 -26.1684741973877 0.0104039972648025
vertex -0.100366279482841 -24.5577144622803 0.036380909383297
endloop
endfacet
facet normal -0.707089364528656 -0.00702351843938231 -0.707089364528656
outer loop
vertex -0.0902747064828873 -26.1681385040283 0.042285680770874
vertex -0.100366279482841 -24.5577144622803 0.036380909383297
vertex -0.0583896860480309 -26.1684741973877 0.0104039972648025
endloop
endfacet
facet normal -0.707089364528656 -0.00702351843938231 -0.707089364528656
outer loop
vertex -0.0583896860480309 -26.1684741973877 0.0104039972648025
vertex -0.0589264594018459 -27.778787612915 0.0269359983503819
vertex -0.0902747064828873 -26.1681385040283 0.042285680770874
endloop
endfacet
facet normal -0.707089304924011 -0.00702351843938231 -0.707089304924011
outer loop
vertex -0.0801831409335136 -27.7785625457764 0.0481904558837414
vertex -0.0902747064828873 -26.1681385040283 0.042285680770874
vertex -0.0589264594018459 -27.778787612915 0.0269359983503819
endloop
endfacet
facet normal -0.707089304924011 -0.00702351843938231 -0.707089304924011
outer loop
vertex -0.0589264594018459 -27.778787612915 0.0269359983503819
vertex -0.0594632290303707 -29.3890991210938 0.0434679985046387
vertex -0.0801831409335136 -27.7785625457764 0.0481904558837414
endloop
endfacet
facet normal -0.707089304924011 -0.00702351843938231 -0.707089304924011
outer loop
vertex -0.0700915679335594 -29.3889865875244 0.0540952272713184
vertex -0.0801831409335136 -27.7785625457764 0.0481904558837414
vertex -0.0594632290303707 -29.3890991210938 0.0434679985046387
endloop
endfacet
facet normal -0.707089304924011 -0.00702351843938231 -0.707089304924011
outer loop
vertex -0.0594632290303707 -29.3890991210938 0.0434679985046387
vertex -0.0599999986588955 -30.9994106292725 0.0599999986588955
vertex -0.0700915679335594 -29.3889865875244 0.0540952272713184
endloop
endfacet
facet normal -0.707093179225922 0.0070235594175756 -0.707085490226746
outer loop
vertex -0.153995156288147 -14.9998617172241 0.00500152120366693
vertex -0.14529424905777 -14.1523532867432 0.00471892952919006
vertex -0.0549996308982372 -14.9996042251587 -0.0939925238490105
endloop
endfacet
facet normal -0.707093179225922 0.0070235594175756 -0.707085490226746
outer loop
vertex -0.0518920570611954 -14.1521015167236 -0.0886817872524261
vertex -0.0549996308982372 -14.9996042251587 -0.0939925238490105
vertex -0.14529424905777 -14.1523532867432 0.00471892952919006
endloop
endfacet
facet normal -0.707093179225922 0.0070235594175756 -0.707085490226746
outer loop
vertex -0.14529424905777 -14.1523532867432 0.00471892952919006
vertex -0.132235020399094 -12.8803215026855 0.00429478613659739
vertex -0.0518920570611954 -14.1521015167236 -0.0886817872524261
endloop
endfacet
facet normal -0.707093179225922 0.00702355895191431 -0.707085430622101
outer loop
vertex -0.0472279749810696 -12.8801040649414 -0.0807110220193863
vertex -0.0518920570611954 -14.1521015167236 -0.0886817872524261
vertex -0.132235020399094 -12.8803215026855 0.00429478613659739
endloop
endfacet
facet normal -0.707093179225922 0.0070235594175756 -0.707085490226746
outer loop
vertex -0.132235020399094 -12.8803215026855 0.00429478613659739
vertex -0.115730181336403 -11.2726716995239 0.00375873479060829
vertex -0.0472279749810696 -12.8801040649414 -0.0807110220193863
endloop
endfacet
facet normal -0.707093238830566 0.0070235594175756 -0.707085490226746
outer loop
vertex -0.0413332469761372 -11.2724828720093 -0.0706371366977692
vertex -0.0472279749810696 -12.8801040649414 -0.0807110220193863
vertex -0.115730181336403 -11.2726716995239 0.00375873479060829
endloop
endfacet
facet normal -0.707093238830566 0.00702355988323689 -0.707085490226746
outer loop
vertex -0.115730181336403 -11.2726716995239 0.00375873479060829
vertex -0.0991972982883453 -9.6622896194458 0.00322177284397185
vertex -0.0413332469761372 -11.2724828720093 -0.0706371366977692
endloop
endfacet
facet normal -0.707093179225922 0.00702355895191431 -0.707085490226746
outer loop
vertex -0.0354284979403019 -9.66212844848633 -0.0605461150407791
vertex -0.0413332469761372 -11.2724828720093 -0.0706371366977692
vertex -0.0991972982883453 -9.6622896194458 0.00322177284397185
endloop
endfacet
facet normal -0.707093179225922 0.00702355895191431 -0.707085490226746
outer loop
vertex -0.0354284979403019 -9.66212844848633 -0.0605461150407791
vertex -0.0991972982883453 -9.6622896194458 0.00322177284397185
vertex -0.0295237489044666 -8.05177307128906 -0.0504550971090794
endloop
endfacet
facet normal -0.707093179225922 0.0070235594175756 -0.707085490226746
outer loop
vertex -0.0826644152402878 -8.05190849304199 0.00268481066450477
vertex -0.0295237489044666 -8.05177307128906 -0.0504550971090794
vertex -0.0991972982883453 -9.6622896194458 0.00322177284397185
endloop
endfacet
facet normal -0.707093179225922 0.0070235594175756 -0.707085490226746
outer loop
vertex -0.0826644152402878 -8.05190849304199 0.00268481066450477
vertex -0.0661315321922302 -6.44152641296387 0.00214784848503768
vertex -0.0295237489044666 -8.05177307128906 -0.0504550971090794
endloop
endfacet
facet normal -0.707093238830566 0.00702355895191431 -0.707085430622101
outer loop
vertex -0.0236189998686314 -6.44141864776611 -0.0403640754520893
vertex -0.0295237489044666 -8.05177307128906 -0.0504550971090794
vertex -0.0661315321922302 -6.44152641296387 0.00214784848503768
endloop
endfacet
facet normal -0.707093238830566 0.00702355895191431 -0.707085430622101
outer loop
vertex -0.0236189998686314 -6.44141864776611 -0.0403640754520893
vertex -0.0661315321922302 -6.44152641296387 0.00214784848503768
vertex -0.0177142489701509 -4.83106422424316 -0.0302730575203896
endloop
endfacet
facet normal -0.707093179225922 0.00702355895191431 -0.707085490226746
outer loop
vertex -0.0495986491441727 -4.8311448097229 0.00161088642198592
vertex -0.0177142489701509 -4.83106422424316 -0.0302730575203896
vertex -0.0661315321922302 -6.44152641296387 0.00214784848503768
endloop
endfacet
facet normal -0.707093179225922 0.00702355895191431 -0.707085490226746
outer loop
vertex -0.0495986491441727 -4.8311448097229 0.00161088642198592
vertex -0.0330657660961151 -3.22076320648193 0.00107392424251884
vertex -0.0177142489701509 -4.83106422424316 -0.0302730575203896
endloop
endfacet
facet normal -0.707093238830566 0.00702355895191431 -0.707085430622101
outer loop
vertex -0.0118094999343157 -3.22070932388306 -0.0201820377260447
vertex -0.0177142489701509 -4.83106422424316 -0.0302730575203896
vertex -0.0330657660961151 -3.22076320648193 0.00107392424251884
endloop
endfacet
facet normal -0.707093238830566 0.00702355895191431 -0.707085430622101
outer loop
vertex -0.0118094999343157 -3.22070932388306 -0.0201820377260447
vertex -0.0330657660961151 -3.22076320648193 0.00107392424251884
vertex -0.00590474996715784 -1.61035466194153 -0.0100910188630223
endloop
endfacet
facet normal -0.707093238830566 0.00702355895191431 -0.707085430622101
outer loop
vertex -0.0165328830480576 -1.61038160324097 0.000536962121259421
vertex -0.00590474996715784 -1.61035466194153 -0.0100910188630223
vertex -0.0330657660961151 -3.22076320648193 0.00107392424251884
endloop
endfacet
facet normal -0.707093238830566 0.00702355895191431 -0.707085430622101
outer loop
vertex -0.00590474996715784 -1.61035466194153 -0.0100910188630223
vertex -0.0165328830480576 -1.61038160324097 0.000536962121259421
vertex 0 0 0
endloop
endfacet
facet normal 0.707088530063629 -0.00702357152476907 -0.707090198993683
outer loop
vertex -0.00590474950149655 -1.61035466194153 0.160091012716293
vertex -0.0165329575538635 -1.61038148403168 0.149463102221489
vertex 0 0 0.150000005960464
endloop
endfacet
facet normal 0.707088530063629 -0.00702357152476907 -0.707090198993683
outer loop
vertex -0.0118094990029931 -3.22070932388306 0.170182034373283
vertex -0.0330659151077271 -3.22076296806335 0.148926198482513
vertex -0.00590474950149655 -1.61035466194153 0.160091012716293
endloop
endfacet
facet normal 0.707088530063629 -0.00702357152476907 -0.707090198993683
outer loop
vertex -0.0165329575538635 -1.61038148403168 0.149463102221489
vertex -0.00590474950149655 -1.61035466194153 0.160091012716293
vertex -0.0330659151077271 -3.22076296806335 0.148926198482513
endloop
endfacet
facet normal 0.707088530063629 -0.00702357152476907 -0.707090198993683
outer loop
vertex -0.0118094990029931 -3.22070932388306 0.170182034373283
vertex -0.0177142489701509 -4.83106374740601 0.180273056030273
vertex -0.0330659151077271 -3.22076296806335 0.148926198482513
endloop
endfacet
facet normal 0.707088530063629 -0.00702357152476907 -0.707090139389038
outer loop
vertex -0.0495988726615906 -4.8311448097229 0.148389309644699
vertex -0.0330659151077271 -3.22076296806335 0.148926198482513
vertex -0.0177142489701509 -4.83106374740601 0.180273056030273
endloop
endfacet
facet normal 0.707088530063629 -0.00702357152476907 -0.707090198993683
outer loop
vertex -0.0236189980059862 -6.44141864776611 0.190364077687263
vertex -0.0661318302154541 -6.44152593612671 0.147852405905724
vertex -0.0177142489701509 -4.83106374740601 0.180273056030273
endloop
endfacet
facet normal 0.707088530063629 -0.00702357152476907 -0.707090139389038
outer loop
vertex -0.0495988726615906 -4.8311448097229 0.148389309644699
vertex -0.0177142489701509 -4.83106374740601 0.180273056030273
vertex -0.0661318302154541 -6.44152593612671 0.147852405905724
endloop
endfacet
facet normal 0.707088530063629 -0.00702357152476907 -0.707090198993683
outer loop
vertex -0.0236189980059862 -6.44141864776611 0.190364077687263
vertex -0.0295237470418215 -8.05177307128906 0.200455099344254
vertex -0.0661318302154541 -6.44152593612671 0.147852405905724
endloop
endfacet
facet normal 0.707088589668274 -0.00702357105910778 -0.707090139389038
outer loop
vertex -0.0826647877693176 -8.05190753936768 0.147315517067909
vertex -0.0661318302154541 -6.44152593612671 0.147852405905724
vertex -0.0295237470418215 -8.05177307128906 0.200455099344254
endloop
endfacet
facet normal 0.707088530063629 -0.00702357152476907 -0.707090139389038
outer loop
vertex -0.0354284979403019 -9.66212749481201 0.210546106100082
vertex -0.0991977453231812 -9.6622896194458 0.146778613328934
vertex -0.0295237470418215 -8.05177307128906 0.200455099344254
endloop
endfacet
facet normal 0.707088589668274 -0.00702357105910778 -0.707090139389038
outer loop
vertex -0.0826647877693176 -8.05190753936768 0.147315517067909
vertex -0.0295237470418215 -8.05177307128906 0.200455099344254
vertex -0.0991977453231812 -9.6622896194458 0.146778613328934
endloop
endfacet
facet normal 0.707088530063629 -0.00702357152476907 -0.707090139389038
outer loop
vertex -0.0354284979403019 -9.66212749481201 0.210546106100082
vertex -0.0413332469761372 -11.272481918335 0.220637127757072
vertex -0.0991977453231812 -9.6622896194458 0.146778613328934
endloop
endfacet
facet normal 0.707088589668274 -0.00702357105910778 -0.707090139389038
outer loop
vertex -0.115730702877045 -11.2726707458496 0.146241724491119
vertex -0.0991977453231812 -9.6622896194458 0.146778613328934
vertex -0.0413332469761372 -11.272481918335 0.220637127757072
endloop
endfacet
facet normal 0.707088589668274 -0.00702357152476907 -0.707090139389038
outer loop
vertex -0.0413332469761372 -11.272481918335 0.220637127757072
vertex -0.0472279712557793 -12.8801031112671 0.230711027979851
vertex -0.115730702877045 -11.2726707458496 0.146241724491119
endloop
endfacet
facet normal 0.707088470458984 -0.00702357105910778 -0.707090079784393
outer loop
vertex -0.132235616445541 -12.8803205490112 0.145705729722977
vertex -0.115730702877045 -11.2726707458496 0.146241724491119
vertex -0.0472279712557793 -12.8801031112671 0.230711027979851
endloop
endfacet
facet normal 0.707088530063629 -0.00702357152476907 -0.707090139389038
outer loop
vertex -0.0472279712557793 -12.8801031112671 0.230711027979851
vertex -0.0518920570611954 -14.1521015167236 0.238681778311729
vertex -0.132235616445541 -12.8803205490112 0.145705729722977
endloop
endfacet
facet normal 0.707088530063629 -0.00702357105910778 -0.707090139389038
outer loop
vertex -0.145294919610023 -14.1523523330688 0.1452816426754
vertex -0.132235616445541 -12.8803205490112 0.145705729722977
vertex -0.0518920570611954 -14.1521015167236 0.238681778311729
endloop
endfacet
facet normal 0.707088530063629 -0.00702357105910778 -0.707090139389038
outer loop
vertex -0.0518920570611954 -14.1521015167236 0.238681778311729
vertex -0.0549996308982372 -14.9996042251587 0.243992522358894
vertex -0.145294919610023 -14.1523523330688 0.1452816426754
endloop
endfacet
facet normal 0.707088530063629 -0.00702357105910778 -0.707090139389038
outer loop
vertex -0.153995856642723 -14.9998617172241 0.144999086856842
vertex -0.145294919610023 -14.1523523330688 0.1452816426754
vertex -0.0549996308982372 -14.9996042251587 0.243992522358894
endloop
endfacet
facet normal -0.999947309494019 0.0102658970281482 0
outer loop
vertex -0.15398845076561 -14.9992094039917 0.00499999988824129
vertex -0.15398845076561 -14.9992094039917 0.144999995827675
vertex -0.145607069134712 -14.1828231811523 0.00472785672172904
endloop
endfacet
facet normal -0.999947249889374 0.0102658970281482 1.91779945666068e-16
outer loop
vertex -0.145607069134712 -14.1828231811523 0.145272150635719
vertex -0.145607069134712 -14.1828231811523 0.00472785672172904
vertex -0.15398845076561 -14.9992094039917 0.144999995827675
endloop
endfacet
facet normal -0.999947249889374 0.0102658960968256 1.91779919196288e-16
outer loop
vertex -0.145607069134712 -14.1828231811523 0.00472785672172904
vertex -0.145607069134712 -14.1828231811523 0.145272150635719
vertex -0.133554354310036 -13.0088310241699 0.00433650566264987
endloop
endfacet
facet normal -0.999947309494019 0.0102658970281482 0
outer loop
vertex -0.133554354310036 -13.0088310241699 0.145663499832153
vertex -0.133554354310036 -13.0088310241699 0.00433650566264987
vertex -0.145607069134712 -14.1828231811523 0.145272150635719
endloop
endfacet
facet normal -0.999947309494019 0.0102658970281482 -9.74822690424188e-17
outer loop
vertex -0.117729164659977 -11.467381477356 0.00382266216911376
vertex -0.133554354310036 -13.0088310241699 0.00433650566264987
vertex -0.117729164659977 -11.467381477356 0.146177336573601
endloop
endfacet
facet normal -0.999947309494019 0.0102658970281482 0
outer loop
vertex -0.133554354310036 -13.0088310241699 0.145663499832153
vertex -0.117729164659977 -11.467381477356 0.146177336573601
vertex -0.133554354310036 -13.0088310241699 0.00433650566264987
endloop
endfacet
facet normal -0.999947369098663 0.0102658970281482 -9.74822756598637e-17
outer loop
vertex -0.117729164659977 -11.467381477356 0.00382266216911376
vertex -0.117729164659977 -11.467381477356 0.146177336573601
vertex -0.10164687782526 -9.9008903503418 0.00330047076568007
endloop
endfacet
facet normal -0.999947249889374 0.0102658960968256 1.27168868019551e-16
outer loop
vertex -0.10164687782526 -9.9008903503418 0.146699532866478
vertex -0.10164687782526 -9.9008903503418 0.00330047076568007
vertex -0.117729164659977 -11.467381477356 0.146177336573601
endloop
endfacet
facet normal -0.999947249889374 0.0102658960968256 9.05303652418374e-17
outer loop
vertex -0.0855645909905434 -8.33439922332764 0.00277827936224639
vertex -0.10164687782526 -9.9008903503418 0.00330047076568007
vertex -0.0855645909905434 -8.33439922332764 0.147221714258194
endloop
endfacet
facet normal -0.999947249889374 0.0102658960968256 1.27168868019551e-16
outer loop
vertex -0.10164687782526 -9.9008903503418 0.146699532866478
vertex -0.0855645909905434 -8.33439922332764 0.147221714258194
vertex -0.10164687782526 -9.9008903503418 0.00330047076568007
endloop
endfacet
facet normal -0.999947249889374 0.0102658960968256 9.05303652418374e-17
outer loop
vertex -0.0855645909905434 -8.33439922332764 0.00277827936224639
vertex -0.0855645909905434 -8.33439922332764 0.147221714258194
vertex -0.0694823041558266 -6.76790761947632 0.00225608795881271
endloop
endfacet
facet normal -0.999947309494019 0.0102658970281482 -6.5422773438003e-17
outer loop
vertex -0.0694823041558266 -6.76790761947632 0.147743910551071
vertex -0.0694823041558266 -6.76790761947632 0.00225608795881271
vertex -0.0855645909905434 -8.33439922332764 0.147221714258194
endloop
endfacet
facet normal -0.999947309494019 0.0102658970281482 5.94932582570922e-17
outer loop
vertex -0.0534000135958195 -5.201416015625 0.00173389667179435
vertex -0.0694823041558266 -6.76790761947632 0.00225608795881271
vertex -0.0534000135958195 -5.201416015625 0.148266106843948
endloop
endfacet
facet normal -0.999947309494019 0.0102658970281482 -6.5422773438003e-17
outer loop
vertex -0.0694823041558266 -6.76790761947632 0.147743910551071
vertex -0.0534000135958195 -5.201416015625 0.148266106843948
vertex -0.0694823041558266 -6.76790761947632 0.00225608795881271
endloop
endfacet
facet normal -0.999947309494019 0.0102658970281482 5.94932582570922e-17
outer loop
vertex -0.0534000135958195 -5.201416015625 0.00173389667179435
vertex -0.0534000135958195 -5.201416015625 0.148266106843948
vertex -0.0373177267611027 -3.63492465019226 0.001211705384776
endloop
endfacet
facet normal -0.999947369098663 0.0102658979594707 4.29480412756433e-17
outer loop
vertex -0.0373177267611027 -3.63492465019226 0.148788288235664
vertex -0.0373177267611027 -3.63492465019226 0.001211705384776
vertex -0.0534000135958195 -5.201416015625 0.148266106843948
endloop
endfacet
facet normal -0.999947309494019 0.0102658970281482 2.93304514013135e-17
outer loop
vertex -0.0213826764374971 -2.08277463912964 0.000694294809363782
vertex -0.0373177267611027 -3.63492465019226 0.001211705384776
vertex -0.0213826764374971 -2.08277463912964 0.149305701255798
endloop
endfacet
facet normal -0.999947249889374 0.0102658960968256 4.29480346581984e-17
outer loop
vertex -0.0373177267611027 -3.63492465019226 0.148788288235664
vertex -0.0213826764374971 -2.08277463912964 0.149305701255798
vertex -0.0373177267611027 -3.63492465019226 0.001211705384776
endloop
endfacet
facet normal -0.999947309494019 0.0102658960968256 1.82318233611935e-17
outer loop
vertex -0.00886748824268579 -0.863735616207123 0.000287927046883851
vertex -0.0213826764374971 -2.08277463912964 0.000694294809363782
vertex -0.00886748824268579 -0.863735616207123 0.149712070822716
endloop
endfacet
facet normal -0.999947249889374 0.0102658960968256 2.93304480925911e-17
outer loop
vertex -0.0213826764374971 -2.08277463912964 0.149305701255798
vertex -0.00886748824268579 -0.863735616207123 0.149712070822716
vertex -0.0213826764374971 -2.08277463912964 0.000694294809363782
endloop
endfacet
facet normal -0.999947369098663 0.0102658979594707 1.82318250155547e-17
outer loop
vertex -0.00886748824268579 -0.863735616207123 0.000287927046883851
vertex -0.00886748824268579 -0.863735616207123 0.149712070822716
vertex 0 0 0
endloop
endfacet
facet normal -0.999947309494019 0.0102658970281482 0
outer loop
vertex 0 0 0.150000005960464
vertex 0 0 0
vertex -0.00886748824268579 -0.863735616207123 0.149712070822716
endloop
endfacet
facet normal -0 0.0102657927200198 0.999947309494019
outer loop
vertex -0.0549999997019768 -16.0002021789551 -0.0939868837594986
vertex -0.0552721433341503 -16.8165874481201 -0.0856055840849876
vertex 0.0850000008940697 -16.0002021789551 -0.0939868837594986
endloop
endfacet
facet normal -1.607633064384e-16 0.0102657927200198 0.999947249889374
outer loop
vertex 0.0852721408009529 -16.8165874481201 -0.0856055840849876
vertex 0.0850000008940697 -16.0002021789551 -0.0939868837594986
vertex -0.0552721433341503 -16.8165874481201 -0.0856055840849876
endloop
endfacet
facet normal 1.59872955696827e-16 0.0102657927200198 0.999947309494019
outer loop
vertex -0.0556634962558746 -17.9905796051025 -0.0735529959201813
vertex 0.0856634974479675 -17.9905796051025 -0.0735529959201813
vertex -0.0552721433341503 -16.8165874481201 -0.0856055840849876
endloop
endfacet
facet normal -1.607633064384e-16 0.0102657927200198 0.999947369098663
outer loop
vertex 0.0852721408009529 -16.8165874481201 -0.0856055840849876
vertex -0.0552721433341503 -16.8165874481201 -0.0856055840849876
vertex 0.0856634974479675 -17.9905796051025 -0.0735529959201813
endloop
endfacet
facet normal 1.59872968931717e-16 0.0102657917886972 0.999947309494019
outer loop
vertex -0.0556634962558746 -17.9905796051025 -0.0735529959201813
vertex -0.0561773367226124 -19.5320281982422 -0.0577279664576054
vertex 0.0856634974479675 -17.9905796051025 -0.0735529959201813
endloop
endfacet
facet normal 0 0.0102657917886972 0.999947309494019
outer loop
vertex 0.0861773416399956 -19.5320281982422 -0.0577279664576054
vertex 0.0856634974479675 -17.9905796051025 -0.0735529959201813
vertex -0.0561773367226124 -19.5320281982422 -0.0577279664576054
endloop
endfacet
facet normal 3.99493586921614e-16 0.0102657927200198 0.999947249889374
outer loop
vertex -0.0566995292901993 -21.0985202789307 -0.0416458398103714
vertex 0.0866995304822922 -21.0985202789307 -0.0416458398103714
vertex -0.0561773367226124 -19.5320281982422 -0.0577279664576054
endloop
endfacet
facet normal 0 0.0102657927200198 0.999947369098663
outer loop
vertex 0.0861773416399956 -19.5320281982422 -0.0577279664576054
vertex -0.0561773367226124 -19.5320281982422 -0.0577279664576054
vertex 0.0866995304822922 -21.0985202789307 -0.0416458398103714
endloop
endfacet
facet normal 3.99493586921614e-16 0.0102657927200198 0.999947249889374
outer loop
vertex -0.0566995292901993 -21.0985202789307 -0.0416458398103714
vertex -0.0572217218577862 -22.6650123596191 -0.0255637168884277
vertex 0.0866995304822922 -21.0985202789307 -0.0416458398103714
endloop
endfacet
facet normal -2.28478031917665e-16 0.0102657908573747 0.999947249889374
outer loop
vertex 0.0872217193245888 -22.6650123596191 -0.0255637168884277
vertex 0.0866995304822922 -21.0985202789307 -0.0416458398103714
vertex -0.0572217218577862 -22.6650123596191 -0.0255637168884277
endloop
endfacet
facet normal -3.46370036280209e-16 0.0102657917886972 0.999947309494019
outer loop
vertex -0.0577439107000828 -24.2315044403076 -0.00948159396648407
vertex 0.087743915617466 -24.2315044403076 -0.00948159396648407
vertex -0.0572217218577862 -22.6650123596191 -0.0255637168884277
endloop
endfacet
facet normal -2.28478031917665e-16 0.0102657908573747 0.999947249889374
outer loop
vertex 0.0872217193245888 -22.6650123596191 -0.0255637168884277
vertex -0.0572217218577862 -22.6650123596191 -0.0255637168884277
vertex 0.087743915617466 -24.2315044403076 -0.00948159396648407
endloop
endfacet
facet normal -3.46370036280209e-16 0.0102657917886972 0.999947309494019
outer loop
vertex -0.0577439107000828 -24.2315044403076 -0.00948159396648407
vertex -0.0582661032676697 -25.7979946136475 0.00660052942112088
vertex 0.087743915617466 -24.2315044403076 -0.00948159396648407
endloop
endfacet
facet normal 4.26766591985324e-16 0.0102657917886972 0.999947309494019
outer loop
vertex 0.0882661044597626 -25.7979946136475 0.00660052942112088
vertex 0.087743915617466 -24.2315044403076 -0.00948159396648407
vertex -0.0582661032676697 -25.7979946136475 0.00660052942112088
endloop
endfacet
facet normal -5.84714255027932e-17 0.0102657927200198 0.999947369098663
outer loop
vertex -0.0587882958352566 -27.3644866943359 0.0226826537400484
vertex 0.0887882933020592 -27.3644866943359 0.0226826537400484
vertex -0.0582661032676697 -25.7979946136475 0.00660052942112088
endloop
endfacet
facet normal 4.26766591985324e-16 0.0102657917886972 0.999947309494019
outer loop
vertex 0.0882661044597626 -25.7979946136475 0.00660052942112088
vertex -0.0582661032676697 -25.7979946136475 0.00660052942112088
vertex 0.0887882933020592 -27.3644866943359 0.0226826537400484
endloop
endfacet
facet normal -5.84714255027932e-17 0.0102657917886972 0.999947309494019
outer loop
vertex -0.0587882958352566 -27.3644866943359 0.0226826537400484
vertex -0.0593057051301003 -28.9166355133057 0.0386175401508808
vertex 0.0887882933020592 -27.3644866943359 0.0226826537400484
endloop
endfacet
facet normal -2.21476007589407e-16 0.0102657917886972 0.999947309494019
outer loop
vertex 0.0893057063221931 -28.9166355133057 0.0386175401508808
vertex 0.0887882933020592 -27.3644866943359 0.0226826537400484
vertex -0.0593057051301003 -28.9166355133057 0.0386175401508808
endloop
endfacet
facet normal -3.36950076994675e-16 0.0102657927200198 0.999947309494019
outer loop
vertex -0.0597120746970177 -30.1356754302979 0.0511326007544994
vertex 0.0897120758891106 -30.1356754302979 0.0511326007544994
vertex -0.0593057051301003 -28.9166355133057 0.0386175401508808
endloop
endfacet
facet normal -2.21475994354517e-16 0.0102657927200198 0.999947249889374
outer loop
vertex 0.0893057063221931 -28.9166355133057 0.0386175401508808
vertex -0.0593057051301003 -28.9166355133057 0.0386175401508808
vertex 0.0897120758891106 -30.1356754302979 0.0511326007544994
endloop
endfacet
facet normal -3.36950103464455e-16 0.0102657936513424 0.999947369098663
outer loop
vertex -0.0597120746970177 -30.1356754302979 0.0511326007544994
vertex -0.0599999986588955 -30.9994106292725 0.0599999986588955
vertex 0.0897120758891106 -30.1356754302979 0.0511326007544994
endloop
endfacet
facet normal -9.25137193576129e-17 0.0102657927200198 0.999947309494019
outer loop
vertex 0.0900000035762787 -30.9994106292725 0.0599999986588955
vertex 0.0897120758891106 -30.1356754302979 0.0511326007544994
vertex -0.0599999986588955 -30.9994106292725 0.0599999986588955
endloop
endfacet
facet normal 0 -0.0102658970281482 0.999947309494019
outer loop
vertex -0.0549999997019768 -16.0002021789551 0.243988454341888
vertex -0.0552721433341503 -16.8165874481201 0.235607072710991
vertex 0.0850000008940697 -16.0002021789551 0.243988454341888
endloop
endfacet
facet normal -1.11143565816827e-15 -0.0102658970281482 0.999947249889374
outer loop
vertex 0.0852721408009529 -16.8165874481201 0.235607072710991
vertex 0.0850000008940697 -16.0002021789551 0.243988454341888
vertex -0.0552721433341503 -16.8165874481201 0.235607072710991
endloop
endfacet
facet normal -1.96382259480305e-16 -0.0102658970281482 0.999947309494019
outer loop
vertex -0.0556634962558746 -17.9905796051025 0.223554357886314
vertex 0.0856634974479675 -17.9905796051025 0.223554357886314
vertex -0.0552721433341503 -16.8165874481201 0.235607072710991
endloop
endfacet
facet normal -1.11143555228915e-15 -0.0102658960968256 0.999947249889374
outer loop
vertex 0.0852721408009529 -16.8165874481201 0.235607072710991
vertex -0.0552721433341503 -16.8165874481201 0.235607072710991
vertex 0.0856634974479675 -17.9905796051025 0.223554357886314
endloop
endfacet
facet normal -1.96382272715194e-16 -0.0102658970281482 0.999947309494019
outer loop
vertex -0.0556634962558746 -17.9905796051025 0.223554357886314
vertex -0.0561773367226124 -19.5320281982422 0.207729160785675
vertex 0.0856634974479675 -17.9905796051025 0.223554357886314
endloop
endfacet
facet normal 0 -0.0102658970281482 0.999947309494019
outer loop
vertex 0.0861773416399956 -19.5320281982422 0.207729160785675
vertex 0.0856634974479675 -17.9905796051025 0.223554357886314
vertex -0.0561773367226124 -19.5320281982422 0.207729160785675
endloop
endfacet
facet normal -1.93544593227884e-16 -0.0102658960968256 0.999947249889374
outer loop
vertex -0.0566995292901993 -21.0985202789307 0.191646873950958
vertex 0.0866995304822922 -21.0985202789307 0.191646873950958
vertex -0.0561773367226124 -19.5320281982422 0.207729160785675
endloop
endfacet
facet normal 0 -0.0102658970281482 0.999947369098663
outer loop
vertex 0.0861773416399956 -19.5320281982422 0.207729160785675
vertex -0.0561773367226124 -19.5320281982422 0.207729160785675
vertex 0.0866995304822922 -21.0985202789307 0.191646873950958
endloop
endfacet
facet normal -1.93544593227884e-16 -0.0102658960968256 0.999947249889374
outer loop
vertex -0.0566995292901993 -21.0985202789307 0.191646873950958
vertex -0.0572217218577862 -22.6650123596191 0.175564587116241
vertex 0.0866995304822922 -21.0985202789307 0.191646873950958
endloop
endfacet
facet normal 0 -0.0102658960968256 0.999947249889374
outer loop
vertex 0.0872217193245888 -22.6650123596191 0.175564587116241
vertex 0.0866995304822922 -21.0985202789307 0.191646873950958
vertex -0.0572217218577862 -22.6650123596191 0.175564587116241
endloop
endfacet
facet normal -4.41452105117684e-16 -0.0102658970281482 0.999947309494019
outer loop
vertex -0.0577439107000828 -24.2315044403076 0.159482300281525
vertex 0.087743915617466 -24.2315044403076 0.159482300281525
vertex -0.0572217218577862 -22.6650123596191 0.175564587116241
endloop
endfacet
facet normal 0 -0.0102658960968256 0.999947249889374
outer loop
vertex 0.0872217193245888 -22.6650123596191 0.175564587116241
vertex -0.0572217218577862 -22.6650123596191 0.175564587116241
vertex 0.087743915617466 -24.2315044403076 0.159482300281525
endloop
endfacet
facet normal -4.41452105117684e-16 -0.0102658970281482 0.999947309494019
outer loop
vertex -0.0577439107000828 -24.2315044403076 0.159482300281525
vertex -0.0582661032676697 -25.7979946136475 0.143400013446808
vertex 0.087743915617466 -24.2315044403076 0.159482300281525
endloop
endfacet
facet normal -8.76611443651539e-16 -0.0102658970281482 0.999947309494019
outer loop
vertex 0.0882661044597626 -25.7979946136475 0.143400013446808
vertex 0.087743915617466 -24.2315044403076 0.159482300281525
vertex -0.0582661032676697 -25.7979946136475 0.143400013446808
endloop
endfacet
facet normal 1.05847365259177e-15 -0.0102658979594707 0.999947369098663
outer loop
vertex -0.0587882958352566 -27.3644866943359 0.127317726612091
vertex 0.0887882933020592 -27.3644866943359 0.127317726612091
vertex -0.0582661032676697 -25.7979946136475 0.143400013446808
endloop
endfacet
facet normal -8.76611443651539e-16 -0.0102658970281482 0.999947309494019
outer loop
vertex 0.0882661044597626 -25.7979946136475 0.143400013446808
vertex -0.0582661032676697 -25.7979946136475 0.143400013446808
vertex 0.0887882933020592 -27.3644866943359 0.127317726612091
endloop
endfacet
facet normal 1.05847354671266e-15 -0.0102658960968256 0.999947249889374
outer loop
vertex -0.0587882958352566 -27.3644866943359 0.127317726612091
vertex -0.0593057051301003 -28.9166355133057 0.111382678151131
vertex 0.0887882933020592 -27.3644866943359 0.127317726612091
endloop
endfacet
facet normal 8.05685986846147e-16 -0.0102658970281482 0.999947309494019
outer loop
vertex 0.0893057063221931 -28.9166355133057 0.111382678151131
vertex 0.0887882933020592 -27.3644866943359 0.127317726612091
vertex -0.0593057051301003 -28.9166355133057 0.111382678151131
endloop
endfacet
facet normal 9.28702408190682e-17 -0.0102658960968256 0.999947309494019
outer loop
vertex -0.0597120746970177 -30.1356754302979 0.0988674908876419
vertex 0.0897120758891106 -30.1356754302979 0.0988674908876419
vertex -0.0593057051301003 -28.9166355133057 0.111382678151131
endloop
endfacet
facet normal 8.05685933906588e-16 -0.0102658960968256 0.999947249889374
outer loop
vertex 0.0893057063221931 -28.9166355133057 0.111382678151131
vertex -0.0593057051301003 -28.9166355133057 0.111382678151131
vertex 0.0897120758891106 -30.1356754302979 0.0988674908876419
endloop
endfacet
facet normal 9.28702474365131e-17 -0.0102658979594707 0.999947369098663
outer loop
vertex -0.0597120746970177 -30.1356754302979 0.0988674908876419
vertex -0.0599999986588955 -30.9994106292725 0.0900000035762787
vertex 0.0897120758891106 -30.1356754302979 0.0988674908876419
endloop
endfacet
facet normal -9.25137193576129e-17 -0.0102658970281482 0.999947309494019
outer loop
vertex 0.0900000035762787 -30.9994106292725 0.0900000035762787
vertex 0.0897120758891106 -30.1356754302979 0.0988674908876419
vertex -0.0599999986588955 -30.9994106292725 0.0900000035762787
endloop
endfacet
facet normal 0 0.00626621022820473 -0.999980330467224
outer loop
vertex 0 0 0
vertex 0.0299999993294477 0 0
vertex -0.000773354433476925 -0.210910707712173 -0.00132163683883846
endloop
endfacet
facet normal 1.10981854984923e-17 0.00626621069386601 -0.999980390071869
outer loop
vertex 0.0307733546942472 -0.210910707712173 -0.00132163683883846
vertex -0.000773354433476925 -0.210910707712173 -0.00132163683883846
vertex 0.0299999993294477 0 0
endloop
endfacet
facet normal 1.25701269287508e-17 0.00626621022820473 -0.999980390071869
outer loop
vertex -0.00225011771544814 -0.613656401634216 -0.00384537572972476
vertex -0.000773354433476925 -0.210910707712173 -0.00132163683883846
vertex 0.0322501175105572 -0.613656401634216 -0.00384537572972476
endloop
endfacet
facet normal 1.10981846713117e-17 0.00626621069386601 -0.999980330467224
outer loop
vertex 0.0307733546942472 -0.210910707712173 -0.00132163683883846
vertex 0.0322501175105572 -0.613656401634216 -0.00384537572972476
vertex -0.000773354433476925 -0.210910707712173 -0.00132163683883846
endloop
endfacet
facet normal 1.25701269287508e-17 0.00626621022820473 -0.999980330467224
outer loop
vertex 0.0322501175105572 -0.613656401634216 -0.00384537572972476
vertex 0.0350700803101063 -1.38272178173065 -0.00866459496319294
vertex -0.00225011771544814 -0.613656401634216 -0.00384537572972476
endloop
endfacet
facet normal 2.61101859914466e-17 0.00626621022820473 -0.999980390071869
outer loop
vertex -0.00507007911801338 -1.38272178173065 -0.00866459496319294
vertex -0.00225011771544814 -0.613656401634216 -0.00384537572972476
vertex 0.0350700803101063 -1.38272178173065 -0.00866459496319294
endloop
endfacet
facet normal 5.5002878523346e-17 0.00626621022820473 -0.999980390071869
outer loop
vertex -0.0102964630350471 -2.80807113647461 -0.0175963100045919
vertex -0.00507007911801338 -1.38272178173065 -0.00866459496319294
vertex 0.0402964614331722 -2.80807113647461 -0.0175963100045919
endloop
endfacet
facet normal 2.61101843370854e-17 0.00626620976254344 -0.999980330467224
outer loop
vertex 0.0350700803101063 -1.38272178173065 -0.00866459496319294
vertex 0.0402964614331722 -2.80807113647461 -0.0175963100045919
vertex -0.00507007911801338 -1.38272178173065 -0.00866459496319294
endloop
endfacet
facet normal 5.50028752146236e-17 0.00626620976254344 -0.999980330467224
outer loop
vertex -0.0102964630350471 -2.80807113647461 -0.0175963100045919
vertex 0.0402964614331722 -2.80807113647461 -0.0175963100045919
vertex -0.0164196025580168 -4.47798585891724 -0.0280605517327785
endloop
endfacet
facet normal 1.0007131788993e-16 0.00626621022820473 -0.999980390071869
outer loop
vertex 0.0464196018874645 -4.47798585891724 -0.0280605517327785
vertex -0.0164196025580168 -4.47798585891724 -0.0280605517327785
vertex 0.0402964614331722 -2.80807113647461 -0.0175963100045919
endloop
endfacet
facet normal 0 0.00626621069386601 -0.999980390071869
outer loop
vertex -0.0225427448749542 -6.14790058135986 -0.0385247953236103
vertex -0.0164196025580168 -4.47798585891724 -0.0280605517327785
vertex 0.0525427460670471 -6.14790058135986 -0.0385247953236103
endloop
endfacet
facet normal 1.0007131788993e-16 0.00626621022820473 -0.999980390071869
outer loop
vertex 0.0464196018874645 -4.47798585891724 -0.0280605517327785
vertex 0.0525427460670471 -6.14790058135986 -0.0385247953236103
vertex -0.0164196025580168 -4.47798585891724 -0.0280605517327785
endloop
endfacet
facet normal 0 0.00626621069386601 -0.999980390071869
outer loop
vertex -0.0225427448749542 -6.14790058135986 -0.0385247953236103
vertex 0.0525427460670471 -6.14790058135986 -0.0385247953236103
vertex -0.0286658853292465 -7.81781530380249 -0.0489890351891518
endloop
endfacet
facet normal 1.43181231794005e-16 0.00626621069386601 -0.999980390071869
outer loop
vertex 0.0586658865213394 -7.81781530380249 -0.0489890351891518
vertex -0.0286658853292465 -7.81781530380249 -0.0489890351891518
vertex 0.0525427460670471 -6.14790058135986 -0.0385247953236103
endloop
endfacet
facet normal 9.72628676567453e-17 0.00626621022820473 -0.999980390071869
outer loop
vertex -0.0347890257835388 -9.48773002624512 -0.0594532787799835
vertex -0.0286658853292465 -7.81781530380249 -0.0489890351891518
vertex 0.0647890269756317 -9.48773002624512 -0.0594532787799835
endloop
endfacet
facet normal 1.43181231794005e-16 0.00626621069386601 -0.999980390071869
outer loop
vertex 0.0586658865213394 -7.81781530380249 -0.0489890351891518
vertex 0.0647890269756317 -9.48773002624512 -0.0594532787799835
vertex -0.0286658853292465 -7.81781530380249 -0.0489890351891518
endloop
endfacet
facet normal 9.72628676567453e-17 0.00626621022820473 -0.999980390071869
outer loop
vertex -0.0347890257835388 -9.48773002624512 -0.0594532787799835
vertex 0.0647890269756317 -9.48773002624512 -0.0594532787799835
vertex -0.0409121662378311 -11.1576442718506 -0.0699175223708153
endloop
endfacet
facet normal -1.24101020563714e-16 0.00626620929688215 -0.999980270862579
outer loop
vertex 0.070912167429924 -11.1576442718506 -0.0699175223708153
vertex -0.0409121662378311 -11.1576442718506 -0.0699175223708153
vertex 0.0647890269756317 -9.48773002624512 -0.0594532787799835
endloop
endfacet
facet normal 8.97355968744066e-17 0.00626621069386601 -0.999980390071869
outer loop
vertex -0.0470212362706661 -12.8237218856812 -0.0803577154874802
vertex -0.0409121662378311 -11.1576442718506 -0.0699175223708153
vertex 0.0770212337374687 -12.8237218856812 -0.0803577154874802
endloop
endfacet
facet normal -1.24101033798604e-16 0.00626621069386601 -0.999980390071869
outer loop
vertex 0.070912167429924 -11.1576442718506 -0.0699175223708153
vertex 0.0770212337374687 -12.8237218856812 -0.0803577154874802
vertex -0.0409121662378311 -11.1576442718506 -0.0699175223708153
endloop
endfacet
facet normal 8.97355968744066e-17 0.00626621022820473 -0.999980390071869
outer loop
vertex -0.0470212362706661 -12.8237218856812 -0.0803577154874802
vertex 0.0770212337374687 -12.8237218856812 -0.0803577154874802
vertex -0.0518225394189358 -14.1331424713135 -0.0885629802942276
endloop
endfacet
facet normal 1.24389197054238e-16 0.00626621022820473 -0.999980330467224
outer loop
vertex 0.081822544336319 -14.1331424713135 -0.0885629802942276
vertex -0.0518225394189358 -14.1331424713135 -0.0885629802942276
vertex 0.0770212337374687 -12.8237218856812 -0.0803577154874802
endloop
endfacet
facet normal 1.24389197054238e-16 0.00626621069386601 -0.999980390071869
outer loop
vertex -0.0518225394189358 -14.1331424713135 -0.0885629802942276
vertex 0.081822544336319 -14.1331424713135 -0.0885629802942276
vertex -0.0549999997019768 -14.9997053146362 -0.0939931571483612
endloop
endfacet
facet normal 0 0.00626621022820473 -0.999980330467224
outer loop
vertex 0.0850000008940697 -14.9997053146362 -0.0939931571483612
vertex -0.0549999997019768 -14.9997053146362 -0.0939931571483612
vertex 0.081822544336319 -14.1331424713135 -0.0885629802942276
endloop
endfacet
facet normal 0 0.00626621022820473 0.999980330467224
outer loop
vertex 0.0299999993294477 0 0.150000005960464
vertex 0 0 0.150000005960464
vertex 0.0307733546942472 -0.210910707712173 0.15132163465023
endloop
endfacet
facet normal -9.18399708225211e-16 0.00626621069386601 0.999980390071869
outer loop
vertex -0.000773354433476925 -0.210910707712173 0.15132163465023
vertex 0.0307733546942472 -0.210910707712173 0.15132163465023
vertex 0 0 0.150000005960464
endloop
endfacet
facet normal 0 0.00626621022820473 0.999980390071869
outer loop
vertex 0.0322501175105572 -0.613656401634216 0.153845369815826
vertex 0.0307733546942472 -0.210910707712173 0.15132163465023
vertex -0.00225011771544814 -0.613656401634216 0.153845369815826
endloop
endfacet
facet normal -9.18399602346093e-16 0.00626621069386601 0.999980330467224
outer loop
vertex -0.000773354433476925 -0.210910707712173 0.15132163465023
vertex -0.00225011771544814 -0.613656401634216 0.153845369815826
vertex 0.0307733546942472 -0.210910707712173 0.15132163465023
endloop
endfacet
facet normal -0 0.00626621022820473 0.999980330467224
outer loop
vertex -0.00225011771544814 -0.613656401634216 0.153845369815826
vertex -0.00507007911801338 -1.38272178173065 0.158664599061012
vertex 0.0322501175105572 -0.613656401634216 0.153845369815826
endloop
endfacet
facet normal 6.22126959154326e-16 0.00626621022820473 0.999980390071869
outer loop
vertex 0.0350700803101063 -1.38272178173065 0.158664599061012
vertex 0.0322501175105572 -0.613656401634216 0.153845369815826
vertex -0.00507007911801338 -1.38272178173065 0.158664599061012
endloop
endfacet
facet normal -5.5002878523346e-17 0.00626621022820473 0.999980390071869
outer loop
vertex 0.0402964614331722 -2.80807113647461 0.167596310377121
vertex 0.0350700803101063 -1.38272178173065 0.158664599061012
vertex -0.0102964630350471 -2.80807113647461 0.167596310377121
endloop
endfacet
facet normal 6.22126906214766e-16 0.00626620976254344 0.999980330467224
outer loop
vertex -0.00507007911801338 -1.38272178173065 0.158664599061012
vertex -0.0102964630350471 -2.80807113647461 0.167596310377121
vertex 0.0350700803101063 -1.38272178173065 0.158664599061012
endloop
endfacet
facet normal -5.50028752146236e-17 0.00626620976254344 0.999980330467224
outer loop
vertex 0.0402964614331722 -2.80807113647461 0.167596310377121
vertex -0.0102964630350471 -2.80807113647461 0.167596310377121
vertex 0.0464196018874645 -4.47798585891724 0.178060546517372
endloop
endfacet
facet normal -7.07385907493154e-16 0.00626621022820473 0.999980390071869
outer loop
vertex -0.0164196025580168 -4.47798585891724 0.178060546517372
vertex 0.0464196018874645 -4.47798585891724 0.178060546517372
vertex -0.0102964630350471 -2.80807113647461 0.167596310377121
endloop
endfacet
facet normal 3.69645760516928e-16 0.00626621069386601 0.999980390071869
outer loop
vertex 0.0525427460670471 -6.14790058135986 0.188524797558784
vertex 0.0464196018874645 -4.47798585891724 0.178060546517372
vertex -0.0225427448749542 -6.14790058135986 0.188524797558784
endloop
endfacet
facet normal -7.07385907493154e-16 0.00626621022820473 0.999980390071869
outer loop
vertex -0.0164196025580168 -4.47798585891724 0.178060546517372
vertex -0.0225427448749542 -6.14790058135986 0.188524797558784
vertex 0.0464196018874645 -4.47798585891724 0.178060546517372
endloop
endfacet
facet normal 3.69645760516928e-16 0.00626621069386601 0.999980390071869
outer loop
vertex 0.0525427460670471 -6.14790058135986 0.188524797558784
vertex -0.0225427448749542 -6.14790058135986 0.188524797558784
vertex 0.0586658865213394 -7.81781530380249 0.198989033699036
endloop
endfacet
facet normal -6.37283899061392e-17 0.00626621069386601 0.999980390071869
outer loop
vertex -0.0286658853292465 -7.81781530380249 0.198989033699036
vertex 0.0586658865213394 -7.81781530380249 0.198989033699036
vertex -0.0225427448749542 -6.14790058135986 0.188524797558784
endloop
endfacet
facet normal -1.66944476431429e-16 0.00626621022820473 0.999980390071869
outer loop
vertex 0.0647890269756317 -9.48773002624512 0.209453284740448
vertex 0.0586658865213394 -7.81781530380249 0.198989033699036
vertex -0.0347890257835388 -9.48773002624512 0.209453284740448
endloop
endfacet
facet normal -6.37283899061392e-17 0.00626621069386601 0.999980390071869
outer loop
vertex -0.0286658853292465 -7.81781530380249 0.198989033699036
vertex -0.0347890257835388 -9.48773002624512 0.209453284740448
vertex 0.0586658865213394 -7.81781530380249 0.198989033699036
endloop
endfacet
facet normal -1.66944476431429e-16 0.00626621022820473 0.999980390071869
outer loop
vertex 0.0647890269756317 -9.48773002624512 0.209453284740448
vertex -0.0347890257835388 -9.48773002624512 0.209453284740448
vertex 0.070912167429924 -11.1576442718506 0.219917520880699
endloop
endfacet
facet normal 4.96404082254856e-16 0.00626620929688215 0.999980270862579
outer loop
vertex -0.0409121662378311 -11.1576442718506 0.219917520880699
vertex 0.070912167429924 -11.1576442718506 0.219917520880699
vertex -0.0347890257835388 -9.48773002624512 0.209453284740448
endloop
endfacet
facet normal 3.57772926165044e-16 0.00626621069386601 0.999980390071869
outer loop
vertex 0.0770212337374687 -12.8237218856812 0.230357721447945
vertex 0.070912167429924 -11.1576442718506 0.219917520880699
vertex -0.0470212362706661 -12.8237218856812 0.230357721447945
endloop
endfacet
facet normal 4.96404135194416e-16 0.00626621069386601 0.999980390071869
outer loop
vertex -0.0409121662378311 -11.1576442718506 0.219917520880699
vertex -0.0470212362706661 -12.8237218856812 0.230357721447945
vertex 0.070912167429924 -11.1576442718506 0.219917520880699
endloop
endfacet
facet normal 3.57772899695264e-16 0.00626621022820473 0.999980390071869
outer loop
vertex 0.0770212337374687 -12.8237218856812 0.230357721447945
vertex -0.0470212362706661 -12.8237218856812 0.230357721447945
vertex 0.081822544336319 -14.1331424713135 0.238562986254692
endloop
endfacet
facet normal -5.39743475913188e-16 0.00626621022820473 0.999980330467224
outer loop
vertex -0.0518225394189358 -14.1331424713135 0.238562986254692
vertex 0.081822544336319 -14.1331424713135 0.238562986254692
vertex -0.0470212362706661 -12.8237218856812 0.230357721447945
endloop
endfacet
facet normal -5.39743528852747e-16 0.00626621069386601 0.999980390071869
outer loop
vertex 0.081822544336319 -14.1331424713135 0.238562986254692
vertex -0.0518225394189358 -14.1331424713135 0.238562986254692
vertex 0.0850000008940697 -14.9997053146362 0.243993148207664
endloop
endfacet
facet normal -0 0.00626621022820473 0.999980330467224
outer loop
vertex -0.0549999997019768 -14.9997053146362 0.243993148207664
vertex 0.0850000008940697 -14.9997053146362 0.243993148207664
vertex -0.0518225394189358 -14.1331424713135 0.238562986254692
endloop
endfacet
facet normal -0.999947309494019 -0.0102657927200198 -0
outer loop
vertex 0.0299999993294477 0 0.150000005960464
vertex 0.0299999993294477 0 0
vertex 0.038867399096489 -0.863735616207123 0.149712070822716
endloop
endfacet
facet normal -0.999947369098663 -0.0102657936513424 -1.52549922425173e-17
outer loop
vertex 0.038867399096489 -0.863735616207123 0.000287927046883851
vertex 0.038867399096489 -0.863735616207123 0.149712070822716
vertex 0.0299999993294477 0 0
endloop
endfacet
facet normal -0.999947309494019 -0.0102657927200198 -1.52549889337948e-17
outer loop
vertex 0.038867399096489 -0.863735616207123 0.000287927046883851
vertex 0.0513824597001076 -2.08277463912964 0.000694294809363782
vertex 0.038867399096489 -0.863735616207123 0.149712070822716
endloop
endfacet
facet normal -0.999947249889374 -0.0102657927200198 -1.3316966797129e-17
outer loop
vertex 0.0513824597001076 -2.08277463912964 0.149305701255798
vertex 0.038867399096489 -0.863735616207123 0.149712070822716
vertex 0.0513824597001076 -2.08277463912964 0.000694294809363782
endloop
endfacet
facet normal -0.999947309494019 -0.0102657917886972 -1.33169676243096e-17
outer loop
vertex 0.0513824597001076 -2.08277463912964 0.000694294809363782
vertex 0.0673173442482948 -3.63492465019226 0.001211705384776
vertex 0.0513824597001076 -2.08277463912964 0.149305701255798
endloop
endfacet
facet normal -0.999947309494019 -0.0102657917886972 -1.35708305950731e-18
outer loop
vertex 0.0673173442482948 -3.63492465019226 0.148788288235664
vertex 0.0513824597001076 -2.08277463912964 0.149305701255798
vertex 0.0673173442482948 -3.63492465019226 0.001211705384776
endloop
endfacet
facet normal -0.999947369098663 -0.0102657927200198 -1.35708305950731e-18
outer loop
vertex 0.0673173442482948 -3.63492465019226 0.148788288235664
vertex 0.0673173442482948 -3.63492465019226 0.001211705384776
vertex 0.0833994671702385 -5.201416015625 0.148266106843948
endloop
endfacet
facet normal -0.999947309494019 -0.0102657917886972 1.24448476125656e-16
outer loop
vertex 0.0833994671702385 -5.201416015625 0.00173389667179435
vertex 0.0833994671702385 -5.201416015625 0.148266106843948
vertex 0.0673173442482948 -3.63492465019226 0.001211705384776
endloop
endfacet
facet normal -0.999947309494019 -0.0102657917886972 1.24448476125656e-16
outer loop
vertex 0.0833994671702385 -5.201416015625 0.00173389667179435
vertex 0.0994815975427628 -6.76790761947632 0.00225608795881271
vertex 0.0833994671702385 -5.201416015625 0.148266106843948
endloop
endfacet
facet normal -0.999947309494019 -0.0102657917886972 3.27120253024344e-17
outer loop
vertex 0.0994815975427628 -6.76790761947632 0.147743910551071
vertex 0.0833994671702385 -5.201416015625 0.148266106843948
vertex 0.0994815975427628 -6.76790761947632 0.00225608795881271
endloop
endfacet
facet normal -0.999947309494019 -0.0102657917886972 3.27120253024344e-17
outer loop
vertex 0.0994815975427628 -6.76790761947632 0.147743910551071
vertex 0.0994815975427628 -6.76790761947632 0.00225608795881271
vertex 0.115563720464706 -8.33439922332764 0.147221714258194
endloop
endfacet
facet normal -0.999947249889374 -0.0102657908573747 3.01755024238201e-17
outer loop
vertex 0.115563720464706 -8.33439922332764 0.00277827936224639
vertex 0.115563720464706 -8.33439922332764 0.147221714258194
vertex 0.0994815975427628 -6.76790761947632 0.00225608795881271
endloop
endfacet
facet normal -0.999947249889374 -0.0102657908573747 3.01755024238201e-17
outer loop
vertex 0.115563720464706 -8.33439922332764 0.00277827936224639
vertex 0.13164584338665 -9.9008903503418 0.00330047076568007
vertex 0.115563720464706 -8.33439922332764 0.147221714258194
endloop
endfacet
facet normal -0.999947249889374 -0.0102657927200198 6.07905487728163e-17
outer loop
vertex 0.13164584338665 -9.9008903503418 0.146699532866478
vertex 0.115563720464706 -8.33439922332764 0.147221714258194
vertex 0.13164584338665 -9.9008903503418 0.00330047076568007
endloop
endfacet
facet normal -0.999947249889374 -0.0102657927200198 6.07905487728163e-17
outer loop
vertex 0.13164584338665 -9.9008903503418 0.146699532866478
vertex 0.13164584338665 -9.9008903503418 0.00330047076568007
vertex 0.147727966308594 -11.467381477356 0.146177336573601
endloop
endfacet
facet normal -0.999947369098663 -0.0102657927200198 6.68639999977562e-17
outer loop
vertex 0.147727966308594 -11.467381477356 0.00382266216911376
vertex 0.147727966308594 -11.467381477356 0.146177336573601
vertex 0.13164584338665 -9.9008903503418 0.00330047076568007
endloop
endfacet
facet normal -0.999947309494019 -0.0102657917886972 6.68639933803113e-17
outer loop
vertex 0.147727966308594 -11.467381477356 0.00382266216911376
vertex 0.16355299949646 -13.0088310241699 0.00433650566264987
vertex 0.147727966308594 -11.467381477356 0.146177336573601
endloop
endfacet
facet normal -0.999947309494019 -0.0102657917886972 1.96382272715194e-16
outer loop
vertex 0.16355299949646 -13.0088310241699 0.145663499832153
vertex 0.147727966308594 -11.467381477356 0.146177336573601
vertex 0.16355299949646 -13.0088310241699 0.00433650566264987
endloop
endfacet
facet normal -0.999947309494019 -0.0102657927200198 1.96382259480305e-16
outer loop
vertex 0.16355299949646 -13.0088310241699 0.145663499832153
vertex 0.16355299949646 -13.0088310241699 0.00433650566264987
vertex 0.175605580210686 -14.1828231811523 0.145272150635719
endloop
endfacet
facet normal -0.999947369098663 -0.0102657927200198 0
outer loop
vertex 0.175605580210686 -14.1828231811523 0.00472785672172904
vertex 0.175605580210686 -14.1828231811523 0.145272150635719
vertex 0.16355299949646 -13.0088310241699 0.00433650566264987
endloop
endfacet
facet normal -0.999947249889374 -0.0102657927200198 -0
outer loop
vertex 0.175605580210686 -14.1828231811523 0.145272150635719
vertex 0.175605580210686 -14.1828231811523 0.00472785672172904
vertex 0.183986887335777 -14.9992094039917 0.144999995827675
endloop
endfacet
facet normal -0.999947309494019 -0.0102657927200198 0
outer loop
vertex 0.183986887335777 -14.9992094039917 0.00499999988824129
vertex 0.183986887335777 -14.9992094039917 0.144999995827675
vertex 0.175605580210686 -14.1828231811523 0.00472785672172904
endloop
endfacet
facet normal 0.707089364528656 0.00702351797372103 -0.707089364528656
outer loop
vertex 0.0849998667836189 -15.0002584457397 -0.0939976945519447
vertex 0.0818923115730286 -14.1527261734009 -0.0886867195367813
vertex 0.183986872434616 -14.9992084503174 0.00499973632395267
endloop
endfacet
facet normal 0.707089364528656 0.00702351797372103 -0.707089364528656
outer loop
vertex 0.17528635263443 -14.1517276763916 0.00471724243834615
vertex 0.183986872434616 -14.9992084503174 0.00499973632395267
vertex 0.0818923115730286 -14.1527261734009 -0.0886867195367813
endloop
endfacet
facet normal 0.707089304924011 0.00702351843938231 -0.707089304924011
outer loop
vertex 0.0818923115730286 -14.1527261734009 -0.0886867195367813
vertex 0.0772281661629677 -12.8806610107422 -0.0807154402136803
vertex 0.17528635263443 -14.1517276763916 0.00471724243834615
endloop
endfacet
facet normal 0.707089364528656 0.0070235189050436 -0.707089364528656
outer loop
vertex 0.162227943539619 -12.8797636032104 0.00429325457662344
vertex 0.17528635263443 -14.1517276763916 0.00471724243834615
vertex 0.0772281661629677 -12.8806610107422 -0.0807154402136803
endloop
endfacet
facet normal 0.707089364528656 0.00702351937070489 -0.707089364528656
outer loop
vertex 0.0772281661629677 -12.8806610107422 -0.0807154402136803
vertex 0.0713334083557129 -11.2729682922363 -0.0706409886479378
vertex 0.162227943539619 -12.8797636032104 0.00429325457662344
endloop
endfacet
facet normal 0.707089364528656 0.00702351843938231 -0.707089364528656
outer loop
vertex 0.1457239985466 -11.2721843719482 0.00375739485025406
vertex 0.162227943539619 -12.8797636032104 0.00429325457662344
vertex 0.0713334083557129 -11.2729682922363 -0.0706409886479378
endloop
endfacet
facet normal 0.707089364528656 0.00702351797372103 -0.707089364528656
outer loop
vertex 0.1457239985466 -11.2721843719482 0.00375739485025406
vertex 0.0713334083557129 -11.2729682922363 -0.0706409886479378
vertex 0.129192009568214 -9.66187286376953 0.0032206242904067
endloop
endfacet
facet normal 0.707089364528656 0.00702351843938231 -0.707089364528656
outer loop
vertex 0.0654286369681358 -9.66254425048828 -0.0605494193732738
vertex 0.129192009568214 -9.66187286376953 0.0032206242904067
vertex 0.0713334083557129 -11.2729682922363 -0.0706409886479378
endloop
endfacet
facet normal 0.707089364528656 0.00702351843938231 -0.707089364528656
outer loop
vertex 0.0654286369681358 -9.66254425048828 -0.0605494193732738
vertex 0.0595238618552685 -8.05212020874023 -0.0504578463733196
vertex 0.129192009568214 -9.66187286376953 0.0032206242904067
endloop
endfacet
facet normal 0.707089304924011 0.00702351797372103 -0.707089304924011
outer loop
vertex 0.112660005688667 -8.0515604019165 0.00268385349772871
vertex 0.129192009568214 -9.66187286376953 0.0032206242904067
vertex 0.0595238618552685 -8.05212020874023 -0.0504578463733196
endloop
endfacet
facet normal 0.707089304924011 0.00702351797372103 -0.707089304924011
outer loop
vertex 0.112660005688667 -8.0515604019165 0.00268385349772871
vertex 0.0595238618552685 -8.05212020874023 -0.0504578463733196
vertex 0.0961280018091202 -6.44124841690063 0.00214708270505071
endloop
endfacet
facet normal 0.707089304924011 0.00702351843938231 -0.707089304924011
outer loop
vertex 0.0536190904676914 -6.44169616699219 -0.0403662770986557
vertex 0.0961280018091202 -6.44124841690063 0.00214708270505071
vertex 0.0595238618552685 -8.05212020874023 -0.0504578463733196
endloop
endfacet
facet normal 0.707089304924011 0.00702351843938231 -0.707089304924011
outer loop
vertex 0.0961280018091202 -6.44124841690063 0.00214708270505071
vertex 0.0536190904676914 -6.44169616699219 -0.0403662770986557
vertex 0.0795960053801537 -4.83093643188477 0.00161031214520335
endloop
endfacet
facet normal 0.707089364528656 0.00702351843938231 -0.707089364528656
outer loop
vertex 0.0477143190801144 -4.83127212524414 -0.0302747096866369
vertex 0.0795960053801537 -4.83093643188477 0.00161031214520335
vertex 0.0536190904676914 -6.44169616699219 -0.0403662770986557
endloop
endfacet
facet normal 0.707089364528656 0.00702351843938231 -0.707089364528656
outer loop
vertex 0.0795960053801537 -4.83093643188477 0.00161031214520335
vertex 0.0477143190801144 -4.83127212524414 -0.0302747096866369
vertex 0.0630640015006065 -3.22062420845032 0.00107354135252535
endloop
endfacet
facet normal 0.707089304924011 0.00702351843938231 -0.707089304924011
outer loop
vertex 0.041809543967247 -3.22084808349609 -0.0201831385493279
vertex 0.0630640015006065 -3.22062420845032 0.00107354135252535
vertex 0.0477143190801144 -4.83127212524414 -0.0302747096866369
endloop
endfacet
facet normal 0.707089304924011 0.00702351843938231 -0.707089304924011
outer loop
vertex 0.0630640015006065 -3.22062420845032 0.00107354135252535
vertex 0.041809543967247 -3.22084808349609 -0.0201831385493279
vertex 0.0465320013463497 -1.61031210422516 0.000536770676262677
endloop
endfacet
facet normal 0.707089304924011 0.00702351843938231 -0.707089304924011
outer loop
vertex 0.03590477257967 -1.61042404174805 -0.0100915692746639
vertex 0.0465320013463497 -1.61031210422516 0.000536770676262677
vertex 0.041809543967247 -3.22084808349609 -0.0201831385493279
endloop
endfacet
facet normal 0.707089304924011 0.00702351843938231 -0.707089304924011
outer loop
vertex 0.0465320013463497 -1.61031210422516 0.000536770676262677
vertex 0.03590477257967 -1.61042404174805 -0.0100915692746639
vertex 0.0299999993294477 0 0
endloop
endfacet
facet normal 0.707089304924011 0.00702351843938231 0.707089304924011
outer loop
vertex 0.0359046347439289 -1.61035466194153 0.160091012716293
vertex 0.046532828360796 -1.61038148403168 0.149463087320328
vertex 0.0299999993294477 0 0.150000005960464
endloop
endfacet
facet normal 0.707089304924011 0.00702351843938231 0.707089304924011
outer loop
vertex 0.0418092682957649 -3.22070932388306 0.170182034373283
vertex 0.0630656555294991 -3.22076296806335 0.148926183581352
vertex 0.0359046347439289 -1.61035466194153 0.160091012716293
endloop
endfacet
facet normal 0.707089304924011 0.00702351843938231 0.707089304924011
outer loop
vertex 0.046532828360796 -1.61038148403168 0.149463087320328
vertex 0.0359046347439289 -1.61035466194153 0.160091012716293
vertex 0.0630656555294991 -3.22076296806335 0.148926183581352
endloop
endfacet
facet normal 0.707089304924011 0.00702351843938231 0.707089304924011
outer loop
vertex 0.0418092682957649 -3.22070932388306 0.170182034373283
vertex 0.0477139018476009 -4.83106374740601 0.180273056030273
vertex 0.0630656555294991 -3.22076296806335 0.148926183581352
endloop
endfacet
facet normal 0.707089364528656 0.00702351843938231 0.707089364528656
outer loop
vertex 0.0795984864234924 -4.8311448097229 0.148389264941216
vertex 0.0630656555294991 -3.22076296806335 0.148926183581352
vertex 0.0477139018476009 -4.83106374740601 0.180273056030273
endloop
endfacet
facet normal 0.707089304924011 0.00702351843938231 0.707089304924011
outer loop
vertex 0.053618535399437 -6.44141864776611 0.190364077687263
vertex 0.0961313173174858 -6.44152593612671 0.14785236120224
vertex 0.0477139018476009 -4.83106374740601 0.180273056030273
endloop
endfacet
facet normal 0.707089364528656 0.00702351843938231 0.707089364528656
outer loop
vertex 0.0795984864234924 -4.8311448097229 0.148389264941216
vertex 0.0477139018476009 -4.83106374740601 0.180273056030273
vertex 0.0961313173174858 -6.44152593612671 0.14785236120224
endloop
endfacet
facet normal 0.707089304924011 0.00702351843938231 0.707089304924011
outer loop
vertex 0.053618535399437 -6.44141864776611 0.190364077687263
vertex 0.059523168951273 -8.05177307128906 0.200455099344254
vertex 0.0961313173174858 -6.44152593612671 0.14785236120224
endloop
endfacet
facet normal 0.707089304924011 0.00702351797372103 0.707089304924011
outer loop
vertex 0.112664148211479 -8.05190753936768 0.147315457463264
vertex 0.0961313173174858 -6.44152593612671 0.14785236120224
vertex 0.059523168951273 -8.05177307128906 0.200455099344254
endloop
endfacet
facet normal 0.707089364528656 0.00702351843938231 0.707089364528656
outer loop
vertex 0.065427802503109 -9.66212749481201 0.210546106100082
vertex 0.129196971654892 -9.6622896194458 0.146778538823128
vertex 0.059523168951273 -8.05177307128906 0.200455099344254
endloop
endfacet
facet normal 0.707089304924011 0.00702351797372103 0.707089304924011
outer loop
vertex 0.112664148211479 -8.05190753936768 0.147315457463264
vertex 0.059523168951273 -8.05177307128906 0.200455099344254
vertex 0.129196971654892 -9.6622896194458 0.146778538823128
endloop
endfacet
facet normal 0.707089364528656 0.00702351843938231 0.707089364528656
outer loop
vertex 0.065427802503109 -9.66212749481201 0.210546106100082
vertex 0.0713324323296547 -11.272481918335 0.220637127757072
vertex 0.129196971654892 -9.6622896194458 0.146778538823128
endloop
endfacet
facet normal 0.707089364528656 0.00702351797372103 0.707089364528656
outer loop
vertex 0.145729809999466 -11.2726707458496 0.146241635084152
vertex 0.129196971654892 -9.6622896194458 0.146778538823128
vertex 0.0713324323296547 -11.272481918335 0.220637127757072
endloop
endfacet
facet normal 0.707089364528656 0.00702351843938231 0.707089364528656
outer loop
vertex 0.0713324323296547 -11.272481918335 0.220637127757072
vertex 0.0772270485758781 -12.8801031112671 0.230711027979851
vertex 0.145729809999466 -11.2726707458496 0.146241635084152
endloop
endfacet
facet normal 0.707089364528656 0.00702351937070489 0.707089364528656
outer loop
vertex 0.162234589457512 -12.8803205490112 0.14570564031601
vertex 0.145729809999466 -11.2726707458496 0.146241635084152
vertex 0.0772270485758781 -12.8801031112671 0.230711027979851
endloop
endfacet
facet normal 0.707089364528656 0.0070235189050436 0.707089364528656
outer loop
vertex 0.0772270485758781 -12.8801031112671 0.230711027979851
vertex 0.0818910375237465 -14.1521015167236 0.238681778311729
vertex 0.162234589457512 -12.8803205490112 0.14570564031601
endloop
endfacet
facet normal 0.707089304924011 0.00702351843938231 0.707089304924011
outer loop
vertex 0.175293788313866 -14.1523523330688 0.145281538367271
vertex 0.162234589457512 -12.8803205490112 0.14570564031601
vertex 0.0818910375237465 -14.1521015167236 0.238681778311729
endloop
endfacet
facet normal 0.707089364528656 0.00702351797372103 0.707089364528656
outer loop
vertex 0.0818910375237465 -14.1521015167236 0.238681778311729
vertex 0.0849985480308533 -14.9996042251587 0.243992522358894
vertex 0.175293788313866 -14.1523523330688 0.145281538367271
endloop
endfacet
facet normal 0.707089364528656 0.00702351797372103 0.707089364528656
outer loop
vertex 0.18399466574192 -14.9998617172241 0.144998967647552
vertex 0.175293788313866 -14.1523523330688 0.145281538367271
vertex 0.0849985480308533 -14.9996042251587 0.243992522358894
endloop
endfacet
facet normal 0.707089364528656 -0.00702351797372103 -0.707089364528656
outer loop
vertex 0.0849989652633667 -15.9995489120483 -0.0939946621656418
vertex 0.183992519974709 -15.9998064041138 0.00500144949182868
vertex 0.085281528532505 -16.8470573425293 -0.085293784737587
endloop
endfacet
facet normal 0.707089364528656 -0.00702351797372103 -0.707089364528656
outer loop
vertex 0.178681775927544 -16.8473091125488 0.0081089623272419
vertex 0.085281528532505 -16.8470573425293 -0.085293784737587
vertex 0.183992519974709 -15.9998064041138 0.00500144949182868
endloop
endfacet
facet normal 0.707089304924011 -0.00702351843938231 -0.707089304924011
outer loop
vertex 0.085281528532505 -16.8470573425293 -0.085293784737587
vertex 0.178681775927544 -16.8473091125488 0.0081089623272419
vertex 0.0857056304812431 -18.1190891265869 -0.0722345933318138
endloop
endfacet
facet normal 0.707089364528656 -0.0070235189050436 -0.707089364528656
outer loop
vertex 0.170711025595665 -18.1193084716797 0.0127729550004005
vertex 0.0857056304812431 -18.1190891265869 -0.0722345933318138
vertex 0.178681775927544 -16.8473091125488 0.0081089623272419
endloop
endfacet
facet normal 0.707089364528656 -0.00702351937070489 -0.707089364528656
outer loop
vertex 0.0857056304812431 -18.1190891265869 -0.0722345933318138
vertex 0.170711025595665 -18.1193084716797 0.0127729550004005
vertex 0.0862416326999664 -19.7267398834229 -0.0557298064231873
endloop
endfacet
facet normal 0.707089364528656 -0.00702351843938231 -0.707089364528656
outer loop
vertex 0.160637125372887 -19.7269287109375 0.0186675656586885
vertex 0.0862416326999664 -19.7267398834229 -0.0557298064231873
vertex 0.170711025595665 -18.1193084716797 0.0127729550004005
endloop
endfacet
facet normal 0.707089364528656 -0.00702351797372103 -0.707089364528656
outer loop
vertex 0.0862416326999664 -19.7267398834229 -0.0557298064231873
vertex 0.160637125372887 -19.7269287109375 0.0186675656586885
vertex 0.0867785438895226 -21.337121963501 -0.0391969755291939
endloop
endfacet
facet normal 0.707089364528656 -0.00702351843938231 -0.707089364528656
outer loop
vertex 0.150546118617058 -21.3372840881348 0.0245721992105246
vertex 0.0867785438895226 -21.337121963501 -0.0391969755291939
vertex 0.160637125372887 -19.7269287109375 0.0186675656586885
endloop
endfacet
facet normal 0.707089364528656 -0.00702351843938231 -0.707089364528656
outer loop
vertex 0.150546118617058 -21.3372840881348 0.0245721992105246
vertex 0.140455096960068 -22.9476375579834 0.0304768327623606
vertex 0.0867785438895226 -21.337121963501 -0.0391969755291939
endloop
endfacet
facet normal 0.707089304924011 -0.00702351797372103 -0.707089304924011
outer loop
vertex 0.0873154550790787 -22.9475040435791 -0.0226641464978456
vertex 0.0867785438895226 -21.337121963501 -0.0391969755291939
vertex 0.140455096960068 -22.9476375579834 0.0304768327623606
endloop
endfacet
facet normal 0.707089304924011 -0.00702351797372103 -0.707089304924011
outer loop
vertex 0.140455096960068 -22.9476375579834 0.0304768327623606
vertex 0.130364075303078 -24.5579929351807 0.0363814644515514
vertex 0.0873154550790787 -22.9475040435791 -0.0226641464978456
endloop
endfacet
facet normal 0.707089304924011 -0.00702351843938231 -0.707089304924011
outer loop
vertex 0.0878523588180542 -24.5578842163086 -0.00613131793215871
vertex 0.0873154550790787 -22.9475040435791 -0.0226641464978456
vertex 0.130364075303078 -24.5579929351807 0.0363814644515514
endloop
endfacet
facet normal 0.707089304924011 -0.00702351843938231 -0.707089304924011
outer loop
vertex 0.130364075303078 -24.5579929351807 0.0363814644515514
vertex 0.120273053646088 -26.1683464050293 0.0422860980033875
vertex 0.0878523588180542 -24.5578842163086 -0.00613131793215871
endloop
endfacet
facet normal 0.707089364528656 -0.00702351843938231 -0.707089364528656
outer loop
vertex 0.0883892700076103 -26.1682662963867 0.0104015115648508
vertex 0.0878523588180542 -24.5578842163086 -0.00613131793215871
vertex 0.120273053646088 -26.1683464050293 0.0422860980033875
endloop
endfacet
facet normal 0.707089364528656 -0.00702351843938231 -0.707089364528656
outer loop
vertex 0.120273053646088 -26.1683464050293 0.0422860980033875
vertex 0.110182039439678 -27.7787017822266 0.0481907315552235
vertex 0.0883892700076103 -26.1682662963867 0.0104015115648508
endloop
endfacet
facet normal 0.707089304924011 -0.00702351843938231 -0.707089304924011
outer loop
vertex 0.0889261811971664 -27.7786483764648 0.026934340596199
vertex 0.0883892700076103 -26.1682662963867 0.0104015115648508
vertex 0.110182039439678 -27.7787017822266 0.0481907315552235
endloop
endfacet
facet normal 0.707089304924011 -0.00702351843938231 -0.707089304924011
outer loop
vertex 0.110182039439678 -27.7787017822266 0.0481907315552235
vertex 0.100091017782688 -29.3890571594238 0.0540953651070595
vertex 0.0889261811971664 -27.7786483764648 0.026934340596199
endloop
endfacet
facet normal 0.707089304924011 -0.00702351843938231 -0.707089304924011
outer loop
vertex 0.0894630923867226 -29.3890285491943 0.0434671714901924
vertex 0.0889261811971664 -27.7786483764648 0.026934340596199
vertex 0.100091017782688 -29.3890571594238 0.0540953651070595
endloop
endfacet
facet normal 0.707089304924011 -0.00702351843938231 -0.707089304924011
outer loop
vertex 0.100091017782688 -29.3890571594238 0.0540953651070595
vertex 0.0900000035762787 -30.9994106292725 0.0599999986588955
vertex 0.0894630923867226 -29.3890285491943 0.0434671714901924
endloop
endfacet
facet normal -0.707090139389038 0.00702357105910778 -0.707088530063629
outer loop
vertex 0.0849990770220757 -15.9995489120483 0.243995860219002
vertex 0.183992519974709 -15.9998064041138 0.144999623298645
vertex 0.085281640291214 -16.8470573425293 0.235294908285141
endloop
endfacet
facet normal -0.707090139389038 0.00702357105910778 -0.707088530063629
outer loop
vertex 0.178681775927544 -16.8473091125488 0.141892060637474
vertex 0.085281640291214 -16.8470573425293 0.235294908285141
vertex 0.183992519974709 -15.9998064041138 0.144999623298645
endloop
endfacet
facet normal -0.707090139389038 0.00702357105910778 -0.707088530063629
outer loop
vertex 0.085281640291214 -16.8470573425293 0.235294908285141
vertex 0.178681775927544 -16.8473091125488 0.141892060637474
vertex 0.0857057273387909 -18.1190891265869 0.22223562002182
endloop
endfacet
facet normal -0.707090139389038 0.00702357152476907 -0.707088530063629
outer loop
vertex 0.170711025595665 -18.1193084716797 0.137227967381477
vertex 0.0857057273387909 -18.1190891265869 0.22223562002182
vertex 0.178681775927544 -16.8473091125488 0.141892060637474
endloop
endfacet
facet normal -0.707090079784393 0.00702357105910778 -0.707088470458984
outer loop
vertex 0.0857057273387909 -18.1190891265869 0.22223562002182
vertex 0.170711025595665 -18.1193084716797 0.137227967381477
vertex 0.086241714656353 -19.7267398834229 0.205730706453323
endloop
endfacet
facet normal -0.707090139389038 0.00702357152476907 -0.707088589668274
outer loop
vertex 0.160637125372887 -19.7269287109375 0.131333246827126
vertex 0.086241714656353 -19.7267398834229 0.205730706453323
vertex 0.170711025595665 -18.1193084716797 0.137227967381477
endloop
endfacet
facet normal -0.707090139389038 0.00702357105910778 -0.707088589668274
outer loop
vertex 0.086241714656353 -19.7267398834229 0.205730706453323
vertex 0.160637125372887 -19.7269287109375 0.131333246827126
vertex 0.0867786109447479 -21.337121963501 0.18919774889946
endloop
endfacet
facet normal -0.707090139389038 0.00702357152476907 -0.707088530063629
outer loop
vertex 0.150546118617058 -21.3372840881348 0.12542849779129
vertex 0.0867786109447479 -21.337121963501 0.18919774889946
vertex 0.160637125372887 -19.7269287109375 0.131333246827126
endloop
endfacet
facet normal -0.707090139389038 0.00702357152476907 -0.707088530063629
outer loop
vertex 0.150546118617058 -21.3372840881348 0.12542849779129
vertex 0.140455096960068 -22.9476375579834 0.119523748755455
vertex 0.0867786109447479 -21.337121963501 0.18919774889946
endloop
endfacet
facet normal -0.707090139389038 0.00702357105910778 -0.707088589668274
outer loop
vertex 0.0873155146837234 -22.9475040435791 0.172664791345596
vertex 0.0867786109447479 -21.337121963501 0.18919774889946
vertex 0.140455096960068 -22.9476375579834 0.119523748755455
endloop
endfacet
facet normal -0.707090139389038 0.00702357105910778 -0.707088589668274
outer loop
vertex 0.140455096960068 -22.9476375579834 0.119523748755455
vertex 0.130364075303078 -24.5579929351807 0.11361899971962
vertex 0.0873155146837234 -22.9475040435791 0.172664791345596
endloop
endfacet
facet normal -0.707090198993683 0.00702357152476907 -0.707088530063629
outer loop
vertex 0.0878524109721184 -24.5578842163086 0.156131833791733
vertex 0.0873155146837234 -22.9475040435791 0.172664791345596
vertex 0.130364075303078 -24.5579929351807 0.11361899971962
endloop
endfacet
facet normal -0.707090198993683 0.00702357152476907 -0.707088530063629
outer loop
vertex 0.130364075303078 -24.5579929351807 0.11361899971962
vertex 0.120273053646088 -26.1683464050293 0.107714250683784
vertex 0.0878524109721184 -24.5578842163086 0.156131833791733
endloop
endfacet
facet normal -0.707090139389038 0.00702357152476907 -0.707088530063629
outer loop
vertex 0.0883893072605133 -26.1682662963867 0.139598876237869
vertex 0.0878524109721184 -24.5578842163086 0.156131833791733
vertex 0.120273053646088 -26.1683464050293 0.107714250683784
endloop
endfacet
facet normal -0.707090139389038 0.00702357152476907 -0.707088530063629
outer loop
vertex 0.120273053646088 -26.1683464050293 0.107714250683784
vertex 0.110182039439678 -27.7787017822266 0.101809501647949
vertex 0.0883893072605133 -26.1682662963867 0.139598876237869
endloop
endfacet
facet normal -0.707090198993683 0.00702357152476907 -0.707088530063629
outer loop
vertex 0.0889262035489082 -27.7786483764648 0.123065911233425
vertex 0.0883893072605133 -26.1682662963867 0.139598876237869
vertex 0.110182039439678 -27.7787017822266 0.101809501647949
endloop
endfacet
facet normal -0.707090198993683 0.00702357152476907 -0.707088530063629
outer loop
vertex 0.110182039439678 -27.7787017822266 0.101809501647949
vertex 0.100091017782688 -29.3890571594238 0.095904752612114
vertex 0.0889262035489082 -27.7786483764648 0.123065911233425
endloop
endfacet
facet normal -0.707090198993683 0.00702357152476907 -0.707088530063629
outer loop
vertex 0.0894630998373032 -29.3890285491943 0.106532953679562
vertex 0.0889262035489082 -27.7786483764648 0.123065911233425
vertex 0.100091017782688 -29.3890571594238 0.095904752612114
endloop
endfacet
facet normal -0.707090198993683 0.00702357152476907 -0.707088530063629
outer loop
vertex 0.100091017782688 -29.3890571594238 0.095904752612114
vertex 0.0900000035762787 -30.9994106292725 0.0900000035762787
vertex 0.0894630998373032 -29.3890285491943 0.106532953679562
endloop
endfacet
facet normal 0.999980330467224 -0.00626621022820473 0
outer loop
vertex 0.0900000035762787 -30.9994106292725 0.0599999986588955
vertex 0.0913216397166252 -30.7884998321533 0.0592266470193863
vertex 0.0900000035762787 -30.9994106292725 0.0900000035762787
endloop
endfacet
facet normal 0.999980390071869 -0.00626621069386601 -2.29117817078549e-15
outer loop
vertex 0.0913216397166252 -30.7884998321533 0.0907733514904976
vertex 0.0900000035762787 -30.9994106292725 0.0900000035762787
vertex 0.0913216397166252 -30.7884998321533 0.0592266470193863
endloop
endfacet
facet normal 0.999980390071869 -0.00626621022820473 1.4497605225759e-15
outer loop
vertex 0.0938453748822212 -30.3857536315918 0.0577498823404312
vertex 0.0938453748822212 -30.3857536315918 0.0922501161694527
vertex 0.0913216397166252 -30.7884998321533 0.0592266470193863
endloop
endfacet
facet normal 0.999980330467224 -0.00626621069386601 -2.29117817078549e-15
outer loop
vertex 0.0913216397166252 -30.7884998321533 0.0907733514904976
vertex 0.0913216397166252 -30.7884998321533 0.0592266470193863
vertex 0.0938453748822212 -30.3857536315918 0.0922501161694527
endloop
endfacet
facet normal 0.999980390071869 -0.00626621022820473 2.00955030373528e-15
outer loop
vertex 0.0986645966768265 -29.6166896820068 0.0549299195408821
vertex 0.0986645966768265 -29.6166896820068 0.0950700789690018
vertex 0.0938453748822212 -30.3857536315918 0.0577498823404312
endloop
endfacet
facet normal 0.999980330467224 -0.00626621022820473 1.4497605225759e-15
outer loop
vertex 0.0938453748822212 -30.3857536315918 0.0922501161694527
vertex 0.0938453748822212 -30.3857536315918 0.0577498823404312
vertex 0.0986645966768265 -29.6166896820068 0.0950700789690018
endloop
endfacet
facet normal 0.999980330467224 -0.00626620976254344 2.00955030373528e-15
outer loop
vertex 0.0986645966768265 -29.6166896820068 0.0549299195408821
vertex 0.107596307992935 -28.1913394927979 0.0497035384178162
vertex 0.0986645966768265 -29.6166896820068 0.0950700789690018
endloop
endfacet
facet normal 0.999980390071869 -0.00626621022820473 -4.40023028186768e-16
outer loop
vertex 0.107596307992935 -28.1913394927979 0.100296460092068
vertex 0.0986645966768265 -29.6166896820068 0.0950700789690018
vertex 0.107596307992935 -28.1913394927979 0.0497035384178162
endloop
endfacet
facet normal 0.999980390071869 -0.00626621022820473 8.7413257526162e-17
outer loop
vertex 0.118060551583767 -26.5214252471924 0.0435803979635239
vertex 0.118060551583767 -26.5214252471924 0.10641960054636
vertex 0.107596307992935 -28.1913394927979 0.0497035384178162
endloop
endfacet
facet normal 0.999980330467224 -0.00626620976254344 -4.40023001716989e-16
outer loop
vertex 0.107596307992935 -28.1913394927979 0.100296460092068
vertex 0.107596307992935 -28.1913394927979 0.0497035384178162
vertex 0.118060551583767 -26.5214252471924 0.10641960054636
endloop
endfacet
facet normal 0.999980390071869 -0.00626621069386601 3.69645760516928e-16
outer loop
vertex 0.128524795174599 -24.8515110015869 0.0374572575092316
vertex 0.128524795174599 -24.8515110015869 0.112542741000652
vertex 0.118060551583767 -26.5214252471924 0.0435803979635239
endloop
endfacet
facet normal 0.999980390071869 -0.00626621022820473 8.7413257526162e-17
outer loop
vertex 0.118060551583767 -26.5214252471924 0.10641960054636
vertex 0.118060551583767 -26.5214252471924 0.0435803979635239
vertex 0.128524795174599 -24.8515110015869 0.112542741000652
endloop
endfacet
facet normal 0.999980390071869 -0.00626621069386601 3.69645760516928e-16
outer loop
vertex 0.128524795174599 -24.8515110015869 0.0374572575092316
vertex 0.13898903131485 -23.1815967559814 0.031334113329649
vertex 0.128524795174599 -24.8515110015869 0.112542741000652
endloop
endfacet
facet normal 0.999980390071869 -0.00626621069386601 6.2897834396687e-17
outer loop
vertex 0.13898903131485 -23.1815967559814 0.118665881454945
vertex 0.128524795174599 -24.8515110015869 0.112542741000652
vertex 0.13898903131485 -23.1815967559814 0.031334113329649
endloop
endfacet
facet normal 0.999980390071869 -0.00626621022820473 2.78726382159174e-16
outer loop
vertex 0.149453282356262 -21.5116806030273 0.0252109747380018
vertex 0.149453282356262 -21.5116806030273 0.124789029359818
vertex 0.13898903131485 -23.1815967559814 0.031334113329649
endloop
endfacet
facet normal 0.999980390071869 -0.00626621069386601 6.2897834396687e-17
outer loop
vertex 0.13898903131485 -23.1815967559814 0.118665881454945
vertex 0.13898903131485 -23.1815967559814 0.031334113329649
vertex 0.149453282356262 -21.5116806030273 0.124789029359818
endloop
endfacet
facet normal 0.999980270862579 -0.00626620929688215 -1.99080549108232e-16
outer loop
vertex 0.159917518496513 -19.8417663574219 0.0190878324210644
vertex 0.159917518496513 -19.8417663574219 0.13091216981411
vertex 0.149453282356262 -21.5116806030273 0.0252109747380018
endloop
endfacet
facet normal 0.999980390071869 -0.00626621022820473 2.78726382159174e-16
outer loop
vertex 0.149453282356262 -21.5116806030273 0.124789029359818
vertex 0.149453282356262 -21.5116806030273 0.0252109747380018
vertex 0.159917518496513 -19.8417663574219 0.13091216981411
endloop
endfacet
facet normal 0.999980390071869 -0.00626621069386601 -1.99080562343122e-16
outer loop
vertex 0.159917518496513 -19.8417663574219 0.0190878324210644
vertex 0.170357719063759 -18.1756896972656 0.0129787633195519
vertex 0.159917518496513 -19.8417663574219 0.13091216981411
endloop
endfacet
facet normal 0.999980390071869 -0.00626621069386601 -4.03225481738318e-16
outer loop
vertex 0.170357719063759 -18.1756896972656 0.137021243572235
vertex 0.159917518496513 -19.8417663574219 0.13091216981411
vertex 0.170357719063759 -18.1756896972656 0.0129787633195519
endloop
endfacet
facet normal 0.999980330467224 -0.00626621022820473 -3.7425306388462e-16
outer loop
vertex 0.178562983870506 -16.866268157959 0.00817745923995972
vertex 0.178562983870506 -16.866268157959 0.141822546720505
vertex 0.170357719063759 -18.1756896972656 0.0129787633195519
endloop
endfacet
facet normal 0.999980390071869 -0.00626621022820473 -4.03225455268539e-16
outer loop
vertex 0.170357719063759 -18.1756896972656 0.137021243572235
vertex 0.170357719063759 -18.1756896972656 0.0129787633195519
vertex 0.178562983870506 -16.866268157959 0.141822546720505
endloop
endfacet
facet normal 0.999980390071869 -0.00626621069386601 -3.74253090354399e-16
outer loop
vertex 0.178562983870506 -16.866268157959 0.00817745923995972
vertex 0.18399316072464 -15.9997053146362 0.00499999988824129
vertex 0.178562983870506 -16.866268157959 0.141822546720505
endloop
endfacet
facet normal 0.999980330467224 -0.00626621022820473 0
outer loop
vertex 0.18399316072464 -15.9997053146362 0.144999995827675
vertex 0.178562983870506 -16.866268157959 0.141822546720505
vertex 0.18399316072464 -15.9997053146362 0.00499999988824129
endloop
endfacet
endsolid COMSOL mesh mesh1
