solid COMSOL mesh mesh1
facet normal -0.0189911555498838 0.99981963634491 0
outer loop
vertex 0 0 0.150000005960464
vertex 0 0 0
vertex -0.898793697357178 -0.0170722119510174 0.150898963212967
endloop
endfacet
facet normal -0.0189911555498838 0.999819576740265 -3.94241360608816e-17
outer loop
vertex -0.898793697357178 -0.0170722119510174 -0.000898955855518579
vertex -0.898793697357178 -0.0170722119510174 0.150898963212967
vertex 0 0 0
endloop
endfacet
facet normal -0.0189911555498838 0.999819576740265 -3.94241327521592e-17
outer loop
vertex -0.898793697357178 -0.0170722119510174 0.150898963212967
vertex -0.898793697357178 -0.0170722119510174 -0.000898955855518579
vertex -2.21105790138245 -0.0419981218874454 0.152211457490921
endloop
endfacet
facet normal -0.018991157412529 0.99981963634491 -2.64094202323989e-17
outer loop
vertex -2.21105790138245 -0.0419981218874454 -0.0022114566527307
vertex -2.21105790138245 -0.0419981218874454 0.152211457490921
vertex -0.898793697357178 -0.0170722119510174 -0.000898955855518579
endloop
endfacet
facet normal -0.0189911555498838 0.999819695949554 -6.86212368484649e-18
outer loop
vertex -4.12700033187866 -0.0783906504511833 0.15412774682045
vertex -2.21105790138245 -0.0419981218874454 0.152211457490921
vertex -4.12700033187866 -0.0783906504511833 -0.00412774505093694
endloop
endfacet
facet normal -0.018991157412529 0.99981963634491 -2.64094169236764e-17
outer loop
vertex -2.21105790138245 -0.0419981218874454 -0.0022114566527307
vertex -4.12700033187866 -0.0783906504511833 -0.00412774505093694
vertex -2.21105790138245 -0.0419981218874454 0.152211457490921
endloop
endfacet
facet normal -0.018991157412529 0.99981963634491 -6.86212368484649e-18
outer loop
vertex -4.12700033187866 -0.0783906504511833 0.15412774682045
vertex -4.12700033187866 -0.0783906504511833 -0.00412774505093694
vertex -6.79097509384155 -0.128991737961769 0.156792193651199
endloop
endfacet
facet normal -0.018991157412529 0.999819695949554 1.26418529177181e-16
outer loop
vertex -6.79097509384155 -0.128991737961769 -0.00679219979792833
vertex -6.79097509384155 -0.128991737961769 0.156792193651199
vertex -4.12700033187866 -0.0783906504511833 -0.00412774505093694
endloop
endfacet
facet normal -0.018991157412529 0.999819695949554 -7.07587832206846e-17
outer loop
vertex -9.57436561584473 -0.181861087679863 0.159576088190079
vertex -6.79097509384155 -0.128991737961769 0.156792193651199
vertex -9.57436561584473 -0.181861087679863 -0.00957609340548515
endloop
endfacet
facet normal -0.0189911555498838 0.99981963634491 1.26418515942292e-16
outer loop
vertex -6.79097509384155 -0.128991737961769 -0.00679219979792833
vertex -9.57436561584473 -0.181861087679863 -0.00957609340548515
vertex -6.79097509384155 -0.128991737961769 0.156792193651199
endloop
endfacet
facet normal -0.018991157412529 0.999819695949554 -7.07587832206846e-17
outer loop
vertex -9.57436561584473 -0.181861087679863 0.159576088190079
vertex -9.57436561584473 -0.181861087679863 -0.00957609340548515
vertex -12.3577566146851 -0.234730437397957 0.162359982728958
endloop
endfacet
facet normal -0.018991157412529 0.999819695949554 -2.27332763963638e-16
outer loop
vertex -12.3577566146851 -0.234730437397957 -0.0123599860817194
vertex -12.3577566146851 -0.234730437397957 0.162359982728958
vertex -9.57436561584473 -0.181861087679863 -0.00957609340548515
endloop
endfacet
facet normal -0.0189911555498838 0.99981963634491 -6.63978274743009e-17
outer loop
vertex -15.1282567977905 -0.287354916334152 0.165130987763405
vertex -12.3577566146851 -0.234730437397957 0.162359982728958
vertex -15.1282567977905 -0.287354916334152 -0.0151309855282307
endloop
endfacet
facet normal -0.018991157412529 0.99981963634491 -2.27332763963638e-16
outer loop
vertex -12.3577566146851 -0.234730437397957 -0.0123599860817194
vertex -15.1282567977905 -0.287354916334152 -0.0151309855282307
vertex -12.3577566146851 -0.234730437397957 0.162359982728958
endloop
endfacet
facet normal -0.0189911555498838 0.999819695949554 -6.6397820856856e-17
outer loop
vertex -15.1282567977905 -0.287354916334152 0.165130987763405
vertex -15.1282567977905 -0.287354916334152 -0.0151309855282307
vertex -17.3309211730957 -0.329193621873856 0.167334049940109
endloop
endfacet
facet normal -0.0189911555498838 0.99981963634491 0
outer loop
vertex -17.3309211730957 -0.329193621873856 -0.0173340477049351
vertex -17.3309211730957 -0.329193621873856 0.167334049940109
vertex -15.1282567977905 -0.287354916334152 -0.0151309855282307
endloop
endfacet
facet normal -0.018991157412529 0.999819695949554 0
outer loop
vertex -18.8911800384521 -0.358830094337463 0.168894588947296
vertex -17.3309211730957 -0.329193621873856 0.167334049940109
vertex -18.8911800384521 -0.358830094337463 -0.0188945885747671
endloop
endfacet
facet normal -0.018991157412529 0.99981963634491 0
outer loop
vertex -17.3309211730957 -0.329193621873856 -0.0173340477049351
vertex -18.8911800384521 -0.358830094337463 -0.0188945885747671
vertex -17.3309211730957 -0.329193621873856 0.167334049940109
endloop
endfacet
facet normal -0.018991157412529 0.99981963634491 0
outer loop
vertex -18.8911800384521 -0.358830094337463 0.168894588947296
vertex -18.8911800384521 -0.358830094337463 -0.0188945885747671
vertex -19.9963932037354 -0.37982314825058 0.170000001788139
endloop
endfacet
facet normal -0.0189911555498838 0.99981963634491 0
outer loop
vertex -19.9963932037354 -0.37982314825058 -0.0199999995529652
vertex -19.9963932037354 -0.37982314825058 0.170000001788139
vertex -18.8911800384521 -0.358830094337463 -0.0188945885747671
endloop
endfacet
facet normal 0.000853628909680992 0.00771385291591287 0.999969899654388
outer loop
vertex -18.0237560272217 -2.32306146621704 0.183306351304054
vertex -18.005298614502 -2.30431985855103 0.18314602971077
vertex -19.9963932037354 -0.37982314825058 0.170000001788139
endloop
endfacet
facet normal 0.000853628909680992 0.00771385291591287 0.999969899654388
outer loop
vertex -16.0511207580566 -4.26630020141602 0.19661271572113
vertex -16.0142021179199 -4.22881650924683 0.196292042732239
vertex -18.0237560272217 -2.32306146621704 0.183306351304054
endloop
endfacet
facet normal 0.000853628909680992 0.00771385291591287 0.999969899654388
outer loop
vertex -18.005298614502 -2.30431985855103 0.18314602971077
vertex -18.0237560272217 -2.32306146621704 0.183306351304054
vertex -16.0142021179199 -4.22881650924683 0.196292042732239
endloop
endfacet
facet normal 0.000853628909680992 0.00771385291591287 0.999969899654388
outer loop
vertex -16.0511207580566 -4.26630020141602 0.19661271572113
vertex -14.078483581543 -6.20953845977783 0.209919065237045
vertex -16.0142021179199 -4.22881650924683 0.196292042732239
endloop
endfacet
facet normal 0.000853628851473331 0.00771385338157415 0.999969899654388
outer loop
vertex -14.0231075286865 -6.15331315994263 0.209438070654869
vertex -16.0142021179199 -4.22881650924683 0.196292042732239
vertex -14.078483581543 -6.20953845977783 0.209919065237045
endloop
endfacet
facet normal 0.000853628909680992 0.00771385291591287 0.999969899654388
outer loop
vertex -12.1058473587036 -8.15277671813965 0.223225429654121
vertex -12.0320129394531 -8.07781028747559 0.222584098577499
vertex -14.078483581543 -6.20953845977783 0.209919065237045
endloop
endfacet
facet normal 0.000853628851473331 0.00771385338157415 0.999969899654388
outer loop
vertex -14.0231075286865 -6.15331315994263 0.209438070654869
vertex -14.078483581543 -6.20953845977783 0.209919065237045
vertex -12.0320129394531 -8.07781028747559 0.222584098577499
endloop
endfacet
facet normal 0.000853628909680992 0.00771385291591287 0.999969899654388
outer loop
vertex -12.1058473587036 -8.15277671813965 0.223225429654121
vertex -10.1332111358643 -10.0960149765015 0.236531779170036
vertex -12.0320129394531 -8.07781028747559 0.222584098577499
endloop
endfacet
facet normal 0.000853628851473331 0.00771385338157415 0.999969899654388
outer loop
vertex -10.0409173965454 -10.0023069381714 0.23573012650013
vertex -12.0320129394531 -8.07781028747559 0.222584098577499
vertex -10.1332111358643 -10.0960149765015 0.236531779170036
endloop
endfacet
facet normal 0.000853628851473331 0.00771385338157415 0.999969899654388
outer loop
vertex -8.1605749130249 -12.0392541885376 0.249838143587112
vertex -8.04982280731201 -11.9268035888672 0.24887615442276
vertex -10.1332111358643 -10.0960149765015 0.236531779170036
endloop
endfacet
facet normal 0.000853628851473331 0.00771385338157415 0.999969899654388
outer loop
vertex -10.0409173965454 -10.0023069381714 0.23573012650013
vertex -10.1332111358643 -10.0960149765015 0.236531779170036
vertex -8.04982280731201 -11.9268035888672 0.24887615442276
endloop
endfacet
facet normal 0.000853628851473331 0.00771385291591287 0.999969899654388
outer loop
vertex -8.1605749130249 -12.0392541885376 0.249838143587112
vertex -6.62806034088135 -13.5489292144775 0.260175675153732
vertex -8.04982280731201 -11.9268035888672 0.24887615442276
endloop
endfacet
facet normal 0.000853628851473331 0.00771385291591287 0.999969840049744
outer loop
vertex -6.50294065475464 -13.4219446182251 0.259089291095734
vertex -8.04982280731201 -11.9268035888672 0.24887615442276
vertex -6.62806034088135 -13.5489292144775 0.260175675153732
endloop
endfacet
facet normal 0.000853628793265671 0.00771385291591287 0.999969840049744
outer loop
vertex -6.62806034088135 -13.5489292144775 0.260175675153732
vertex -5.74865293502808 -14.4152307510376 0.266107678413391
vertex -6.50294065475464 -13.4219446182251 0.259089291095734
endloop
endfacet
facet normal 0.000853628793265671 0.00771385291591287 0.999969899654388
outer loop
vertex -5.61531400680542 -14.2798824310303 0.264949768781662
vertex -6.50294065475464 -13.4219446182251 0.259089291095734
vertex -5.74865293502808 -14.4152307510376 0.266107678413391
endloop
endfacet
facet normal -0.707127571105957 0.00687158759683371 0.70705258846283
outer loop
vertex -14.1420526504517 -0.268622398376465 -14.1409435272217
vertex -13.2691783905029 -0.252042502164841 -13.2681369781494
vertex -14.1416578292847 -0.078628346323967 -14.1423950195313
endloop
endfacet
facet normal -0.707127571105957 0.00687158713117242 0.707052528858185
outer loop
vertex -13.2687969207764 -0.0737751945853233 -13.2694883346558
vertex -14.1416578292847 -0.078628346323967 -14.1423950195313
vertex -13.2691783905029 -0.252042502164841 -13.2681369781494
endloop
endfacet
facet normal -0.707127630710602 0.00687158806249499 0.707052528858185
outer loop
vertex -13.2691783905029 -0.252042502164841 -13.2681369781494
vertex -11.7480058670044 -0.223148465156555 -11.7470836639404
vertex -13.2687969207764 -0.0737751945853233 -13.2694883346558
endloop
endfacet
facet normal -0.707127630710602 0.00687158759683371 0.70705258846283
outer loop
vertex -11.7476921081543 -0.0653177723288536 -11.7483043670654
vertex -13.2687969207764 -0.0737751945853233 -13.2694883346558
vertex -11.7480058670044 -0.223148465156555 -11.7470836639404
endloop
endfacet
facet normal -0.707127630710602 0.00687158759683371 0.707052528858185
outer loop
vertex -11.7476921081543 -0.0653177723288536 -11.7483043670654
vertex -11.7480058670044 -0.223148465156555 -11.7470836639404
vertex -9.78974342346191 -0.0544314756989479 -9.79025363922119
endloop
endfacet
facet normal -0.707127630710602 0.00687158759683371 0.70705258846283
outer loop
vertex -9.79000473022461 -0.185957044363022 -9.7892370223999
vertex -9.78974342346191 -0.0544314756989479 -9.79025363922119
vertex -11.7480058670044 -0.223148465156555 -11.7470836639404
endloop
endfacet
facet normal -0.707127630710602 0.00687158759683371 0.70705258846283
outer loop
vertex -9.79000473022461 -0.185957044363022 -9.7892370223999
vertex -7.83200359344482 -0.14876563847065 -7.83138942718506
vertex -9.78974342346191 -0.0544314756989479 -9.79025363922119
endloop
endfacet
facet normal -0.707127630710602 0.00687158806249499 0.70705258846283
outer loop
vertex -7.83179473876953 -0.0435451790690422 -7.83220291137695
vertex -9.78974342346191 -0.0544314756989479 -9.79025363922119
vertex -7.83200359344482 -0.14876563847065 -7.83138942718506
endloop
endfacet
facet normal -0.707127630710602 0.00687158806249499 0.70705258846283
outer loop
vertex -7.83179473876953 -0.0435451790690422 -7.83220291137695
vertex -7.83200359344482 -0.14876563847065 -7.83138942718506
vertex -5.87384605407715 -0.0326588861644268 -5.87415218353271
endloop
endfacet
facet normal -0.707127630710602 0.00687158759683371 0.707052528858185
outer loop
vertex -5.8740029335022 -0.111574232578278 -5.87354183197021
vertex -5.87384605407715 -0.0326588861644268 -5.87415218353271
vertex -7.83200359344482 -0.14876563847065 -7.83138942718506
endloop
endfacet
facet normal -0.707127630710602 0.00687158759683371 0.707052528858185
outer loop
vertex -5.8740029335022 -0.111574232578278 -5.87354183197021
vertex -3.91600179672241 -0.0743828192353249 -3.91569471359253
vertex -5.87384605407715 -0.0326588861644268 -5.87415218353271
endloop
endfacet
facet normal -0.707127630710602 0.00687158806249499 0.70705258846283
outer loop
vertex -3.91589736938477 -0.0217725895345211 -3.91610145568848
vertex -5.87384605407715 -0.0326588861644268 -5.87415218353271
vertex -3.91600179672241 -0.0743828192353249 -3.91569471359253
endloop
endfacet
facet normal -0.707127630710602 0.00687158806249499 0.70705258846283
outer loop
vertex -3.91589736938477 -0.0217725895345211 -3.91610145568848
vertex -3.91600179672241 -0.0743828192353249 -3.91569471359253
vertex -1.95794868469238 -0.0108862947672606 -1.95805072784424
endloop
endfacet
facet normal -0.707127630710602 0.00687158806249499 0.70705258846283
outer loop
vertex -1.95800089836121 -0.0371914096176624 -1.95784735679626
vertex -1.95794868469238 -0.0108862947672606 -1.95805072784424
vertex -3.91600179672241 -0.0743828192353249 -3.91569471359253
endloop
endfacet
facet normal -0.707127630710602 0.00687158806249499 0.70705258846283
outer loop
vertex -1.95794868469238 -0.0108862947672606 -1.95805072784424
vertex -1.95800089836121 -0.0371914096176624 -1.95784735679626
vertex 0 0 0
endloop
endfacet
facet normal 0.70706832408905 0.00934579223394394 -0.707083463668823
outer loop
vertex 0 0 0
vertex 0.000366500054951757 -0.0299977455288172 -2.99994680972304e-05
vertex -0.145033612847328 -0.000806394324172288 -0.145041167736053
endloop
endfacet
facet normal 0.70706832408905 0.00934579223394394 -0.707083463668823
outer loop
vertex -0.144647061824799 -0.0324449278414249 -0.145072802901268
vertex -0.145033612847328 -0.000806394324172288 -0.145041167736053
vertex 0.000366500054951757 -0.0299977455288172 -2.99994680972304e-05
endloop
endfacet
facet normal 0.707068383693695 0.00934579316526651 -0.707083523273468
outer loop
vertex -0.387007236480713 -0.00215178029611707 -0.387027412652969
vertex -0.145033612847328 -0.000806394324172288 -0.145041167736053
vertex -0.386587262153625 -0.0365277975797653 -0.387061804533005
endloop
endfacet
facet normal 0.707068383693695 0.00934579316526651 -0.707083463668823
outer loop
vertex -0.144647061824799 -0.0324449278414249 -0.145072802901268
vertex -0.386587262153625 -0.0365277975797653 -0.387061804533005
vertex -0.145033612847328 -0.000806394324172288 -0.145041167736053
endloop
endfacet
facet normal 0.707068383693695 0.00934579223394394 -0.707083463668823
outer loop
vertex -0.387007236480713 -0.00215178029611707 -0.387027412652969
vertex -0.386587262153625 -0.0365277975797653 -0.387061804533005
vertex -0.790715336799622 -0.00439641810953617 -0.790756583213806
endloop
endfacet
facet normal 0.707068383693695 0.00934579223394394 -0.707083463668823
outer loop
vertex -0.790239572525024 -0.0433396473526955 -0.790795505046844
vertex -0.790715336799622 -0.00439641810953617 -0.790756583213806
vertex -0.386587262153625 -0.0365277975797653 -0.387061804533005
endloop
endfacet
facet normal 0.70706832408905 0.00934579223394394 -0.707083463668823
outer loop
vertex -1.4642608165741 -0.00814136490225792 -1.46433711051941
vertex -0.790715336799622 -0.00439641810953617 -0.790756583213806
vertex -1.46369194984436 -0.0547045134007931 -1.46438360214233
endloop
endfacet
facet normal 0.707068383693695 0.00934579316526651 -0.707083523273468
outer loop
vertex -0.790239572525024 -0.0433396473526955 -0.790795505046844
vertex -1.46369194984436 -0.0547045134007931 -1.46438360214233
vertex -0.790715336799622 -0.00439641810953617 -0.790756583213806
endloop
endfacet
facet normal 0.707068383693695 0.00934579223394394 -0.707083463668823
outer loop
vertex -1.4642608165741 -0.00814136490225792 -1.46433711051941
vertex -1.46369194984436 -0.0547045134007931 -1.46438360214233
vertex -2.58800196647644 -0.014389424584806 -2.58813691139221
endloop
endfacet
facet normal 0.707068383693695 0.00934579223394394 -0.707083463668823
outer loop
vertex -2.58727765083313 -0.073665626347065 -2.58819603919983
vertex -2.58800196647644 -0.014389424584806 -2.58813691139221
vertex -1.46369194984436 -0.0547045134007931 -1.46438360214233
endloop
endfacet
facet normal 0.70706832408905 0.00934579223394394 -0.707083404064178
outer loop
vertex -4.40910577774048 -0.0245148558169603 -4.40933561325073
vertex -2.58800196647644 -0.014389424584806 -2.58813691139221
vertex -4.40813016891479 -0.104393482208252 -4.40941572189331
endloop
endfacet
facet normal 0.70706832408905 0.00934579223394394 -0.707083463668823
outer loop
vertex -2.58727765083313 -0.073665626347065 -2.58819603919983
vertex -4.40813016891479 -0.104393482208252 -4.40941572189331
vertex -2.58800196647644 -0.014389424584806 -2.58813691139221
endloop
endfacet
facet normal 0.70706832408905 0.00934579130262136 -0.707083463668823
outer loop
vertex -4.40910577774048 -0.0245148558169603 -4.40933561325073
vertex -4.40813016891479 -0.104393482208252 -4.40941572189331
vertex -6.44316101074219 -0.0358243063092232 -6.44349670410156
endloop
endfacet
facet normal 0.70706832408905 0.00934579223394394 -0.707083404064178
outer loop
vertex -6.44190406799316 -0.138714507222176 -6.44359970092773
vertex -6.44316101074219 -0.0358243063092232 -6.44349670410156
vertex -4.40813016891479 -0.104393482208252 -4.40941572189331
endloop
endfacet
facet normal 0.70706832408905 0.00934579223394394 -0.707083404064178
outer loop
vertex -6.44316101074219 -0.0358243063092232 -6.44349670410156
vertex -6.44190406799316 -0.138714507222176 -6.44359970092773
vertex -8.47721576690674 -0.0471337586641312 -8.47765827178955
endloop
endfacet
facet normal 0.707068383693695 0.00934579223394394 -0.707083463668823
outer loop
vertex -8.47567844390869 -0.173035532236099 -8.47778415679932
vertex -8.47721576690674 -0.0471337586641312 -8.47765827178955
vertex -6.44190406799316 -0.138714507222176 -6.44359970092773
endloop
endfacet
facet normal 0.707068383693695 0.00934579223394394 -0.707083463668823
outer loop
vertex -10.5094518661499 -0.207356542348862 -10.5119676589966
vertex -10.5112714767456 -0.0584432110190392 -10.5118188858032
vertex -8.47567844390869 -0.173035532236099 -8.47778415679932
endloop
endfacet
facet normal 0.707068383693695 0.00934579223394394 -0.707083463668823
outer loop
vertex -8.47721576690674 -0.0471337586641312 -8.47765827178955
vertex -8.47567844390869 -0.173035532236099 -8.47778415679932
vertex -10.5112714767456 -0.0584432110190392 -10.5118188858032
endloop
endfacet
facet normal 0.70706832408905 0.00934579223394394 -0.707083463668823
outer loop
vertex -10.5094518661499 -0.207356542348862 -10.5119676589966
vertex -12.181715965271 -0.235576897859573 -12.1845693588257
vertex -10.5112714767456 -0.0584432110190392 -10.5118188858032
endloop
endfacet
facet normal 0.70706832408905 0.00934579223394394 -0.707083463668823
outer loop
vertex -12.1837663650513 -0.0677423700690269 -12.184401512146
vertex -10.5112714767456 -0.0584432110190392 -10.5118188858032
vertex -12.181715965271 -0.235576897859573 -12.1845693588257
endloop
endfacet
facet normal 0.707068383693695 0.00934579316526651 -0.707083463668823
outer loop
vertex -13.3409862518311 -0.0741765648126602 -13.3416814804077
vertex -12.1837663650513 -0.0677423700690269 -12.184401512146
vertex -13.3387756347656 -0.255102902650833 -13.3418617248535
endloop
endfacet
facet normal 0.707068264484406 0.00934579223394394 -0.707083404064178
outer loop
vertex -12.181715965271 -0.235576897859573 -12.1845693588257
vertex -13.3387756347656 -0.255102902650833 -13.3418617248535
vertex -12.1837663650513 -0.0677423700690269 -12.184401512146
endloop
endfacet
facet normal 0.70706832408905 0.00934579223394394 -0.707083404064178
outer loop
vertex -13.3409862518311 -0.0741765648126602 -13.3416814804077
vertex -13.3387756347656 -0.255102902650833 -13.3418617248535
vertex -14.1417713165283 -0.0786289721727371 -14.1425075531006
endloop
endfacet
facet normal 0.70706832408905 0.00934579223394394 -0.707083463668823
outer loop
vertex -14.1394500732422 -0.268614709377289 -14.1426982879639
vertex -14.1417713165283 -0.0786289721727371 -14.1425075531006
vertex -13.3387756347656 -0.255102902650833 -13.3418617248535
endloop
endfacet
facet normal -0.317995935678482 -0.948092103004456 -0
outer loop
vertex -2.52694487571716 -22.8978481292725 0.0900000035762787
vertex -2.52694487571716 -22.8978481292725 0.0599999986588955
vertex -2.33247828483582 -22.9630737304688 0.0908204540610313
endloop
endfacet
facet normal -0.317995876073837 -0.948092103004456 -3.12421427975124e-14
outer loop
vertex -2.33247828483582 -22.9630737304688 0.0591795444488525
vertex -2.33247828483582 -22.9630737304688 0.0908204540610313
vertex -2.52694487571716 -22.8978481292725 0.0599999986588955
endloop
endfacet
facet normal -0.317995935678482 -0.948092103004456 1.54875827332139e-13
outer loop
vertex -2.0080304145813 -23.0718955993652 0.0578107014298439
vertex -2.0080304145813 -23.0718955993652 0.09218929708004
vertex -2.33247828483582 -22.9630737304688 0.0591795444488525
endloop
endfacet
facet normal -0.31799590587616 -0.948092103004456 -3.12421461856442e-14
outer loop
vertex -2.33247828483582 -22.9630737304688 0.0908204540610313
vertex -2.33247828483582 -22.9630737304688 0.0591795444488525
vertex -2.0080304145813 -23.0718955993652 0.09218929708004
endloop
endfacet
facet normal -0.31799590587616 -0.948092103004456 1.54875827332139e-13
outer loop
vertex -2.0080304145813 -23.0718955993652 0.0578107014298439
vertex -1.4667227268219 -23.253454208374 0.0555269233882427
vertex -2.0080304145813 -23.0718955993652 0.09218929708004
endloop
endfacet
facet normal -0.31799590587616 -0.948092043399811 -3.08209573585561e-14
outer loop
vertex -1.4667227268219 -23.253454208374 0.0944730788469315
vertex -2.0080304145813 -23.0718955993652 0.09218929708004
vertex -1.4667227268219 -23.253454208374 0.0555269233882427
endloop
endfacet
facet normal -0.317995935678482 -0.948092103004456 -3.94239559075617e-14
outer loop
vertex -0.5636066198349 -23.5563640594482 0.0517166778445244
vertex -0.5636066198349 -23.5563640594482 0.0982833206653595
vertex -1.4667227268219 -23.253454208374 0.0555269233882427
endloop
endfacet
facet normal -0.31799590587616 -0.948092103004456 -3.08209573585561e-14
outer loop
vertex -1.4667227268219 -23.253454208374 0.0944730788469315
vertex -1.4667227268219 -23.253454208374 0.0555269233882427
vertex -0.5636066198349 -23.5563640594482 0.0982833206653595
endloop
endfacet
facet normal -0.31799590587616 -0.948092043399811 -3.94239491312981e-14
outer loop
vertex -0.5636066198349 -23.5563640594482 0.0517166778445244
vertex 0.94314968585968 -24.0617389678955 0.0453596711158752
vertex -0.5636066198349 -23.5563640594482 0.0982833206653595
endloop
endfacet
facet normal -0.31799590587616 -0.948092103004456 5.68195426960908e-14
outer loop
vertex 0.94314968585968 -24.0617389678955 0.104640327394009
vertex -0.5636066198349 -23.5563640594482 0.0982833206653595
vertex 0.94314968585968 -24.0617389678955 0.0453596711158752
endloop
endfacet
facet normal -0.31799590587616 -0.948092043399811 -3.68612102917987e-14
outer loop
vertex 3.3849573135376 -24.8807373046875 0.0350576862692833
vertex 3.3849573135376 -24.8807373046875 0.114942312240601
vertex 0.94314968585968 -24.0617389678955 0.0453596711158752
endloop
endfacet
facet normal -0.31799590587616 -0.948092043399811 5.6819539307959e-14
outer loop
vertex 0.94314968585968 -24.0617389678955 0.104640327394009
vertex 0.94314968585968 -24.0617389678955 0.0453596711158752
vertex 3.3849573135376 -24.8807373046875 0.114942312240601
endloop
endfacet
facet normal -0.31799590587616 -0.948092103004456 -3.68612102917987e-14
outer loop
vertex 3.3849573135376 -24.8807373046875 0.0350576862692833
vertex 6.11229848861694 -25.795503616333 0.0235510375350714
vertex 3.3849573135376 -24.8807373046875 0.114942312240601
endloop
endfacet
facet normal -0.317995876073837 -0.948092043399811 3.82240354819541e-14
outer loop
vertex 6.11229848861694 -25.795503616333 0.126448959112167
vertex 3.3849573135376 -24.8807373046875 0.114942312240601
vertex 6.11229848861694 -25.795503616333 0.0235510375350714
endloop
endfacet
facet normal -0.317995876073837 -0.948092043399811 3.82240354819541e-14
outer loop
vertex 6.11229848861694 -25.795503616333 0.0235510375350714
vertex 8.83963966369629 -26.7102718353271 0.0120443869382143
vertex 6.11229848861694 -25.795503616333 0.126448959112167
endloop
endfacet
facet normal -0.31799590587616 -0.9480921626091 -3.12376772398145e-14
outer loop
vertex 8.83963966369629 -26.7102718353271 0.137955605983734
vertex 6.11229848861694 -25.795503616333 0.126448959112167
vertex 8.83963966369629 -26.7102718353271 0.0120443869382143
endloop
endfacet
facet normal -0.31799590587616 -0.9480921626091 -3.12376772398145e-14
outer loop
vertex 8.83963966369629 -26.7102718353271 0.0120443869382143
vertex 11.5669803619385 -27.6250381469727 0.000537736574187875
vertex 8.83963966369629 -26.7102718353271 0.137955605983734
endloop
endfacet
facet normal -0.31799590587616 -0.948092103004456 -4.14419678586818e-14
outer loop
vertex 11.5669803619385 -27.6250381469727 0.149462267756462
vertex 8.83963966369629 -26.7102718353271 0.137955605983734
vertex 11.5669803619385 -27.6250381469727 0.000537736574187875
endloop
endfacet
facet normal -0.31799590587616 -0.948092103004456 1.67022547458177e-14
outer loop
vertex 13.8095273971558 -28.3772029876709 -0.00892356969416142
vertex 13.8095273971558 -28.3772029876709 0.1589235663414
vertex 11.5669803619385 -27.6250381469727 0.000537736574187875
endloop
endfacet
facet normal -0.31799590587616 -0.948092103004456 -4.144196447055e-14
outer loop
vertex 11.5669803619385 -27.6250381469727 0.149462267756462
vertex 11.5669803619385 -27.6250381469727 0.000537736574187875
vertex 13.8095273971558 -28.3772029876709 0.1589235663414
endloop
endfacet
facet normal -0.317995935678482 -0.948092103004456 3.09873654513737e-14
outer loop
vertex 15.3611726760864 -28.897632598877 -0.0154699580743909
vertex 15.3611726760864 -28.897632598877 0.165469959378242
vertex 13.8095273971558 -28.3772029876709 -0.00892356969416142
endloop
endfacet
facet normal -0.317995876073837 -0.948092103004456 1.67022513576859e-14
outer loop
vertex 13.8095273971558 -28.3772029876709 0.1589235663414
vertex 13.8095273971558 -28.3772029876709 -0.00892356969416142
vertex 15.3611726760864 -28.897632598877 0.165469959378242
endloop
endfacet
facet normal -0.317995935678482 -0.948092103004456 3.09873620632419e-14
outer loop
vertex 15.3611726760864 -28.897632598877 -0.0154699580743909
vertex 16.4348964691162 -29.2577667236328 -0.0199999995529652
vertex 15.3611726760864 -28.897632598877 0.165469959378242
endloop
endfacet
facet normal -0.31799590587616 -0.948092103004456 -0
outer loop
vertex 16.4348964691162 -29.2577667236328 0.170000001788139
vertex 15.3611726760864 -28.897632598877 0.165469959378242
vertex 16.4348964691162 -29.2577667236328 -0.0199999995529652
endloop
endfacet
facet normal 0.0101865902543068 -0.00332941184751689 0.999942541122437
outer loop
vertex -2.52694487571716 -22.8978481292725 0.0599999986588955
vertex -1.67279970645905 -23.1779651641846 0.0503659956157207
vertex -2.48034453392029 -22.7552719116211 0.0599999986588955
endloop
endfacet
facet normal 0.0101865911856294 -0.00332941208034754 0.999942541122437
outer loop
vertex -1.62564063072205 -23.0336780548096 0.0503659956157207
vertex -2.48034453392029 -22.7552719116211 0.0599999986588955
vertex -1.67279970645905 -23.1779651641846 0.0503659956157207
endloop
endfacet
facet normal 0.0101865911856294 -0.00332941208034754 0.999942600727081
outer loop
vertex -0.425723522901535 -23.5869445800781 0.0363000743091106
vertex -0.377748966217041 -23.4401626586914 0.0363000743091106
vertex -1.67279970645905 -23.1779651641846 0.0503659956157207
endloop
endfacet
facet normal 0.0101865902543068 -0.00332941208034754 0.999942541122437
outer loop
vertex -1.62564063072205 -23.0336780548096 0.0503659956157207
vertex -1.67279970645905 -23.1779651641846 0.0503659956157207
vertex -0.377748966217041 -23.4401626586914 0.0363000743091106
endloop
endfacet
facet normal 0.0101865911856294 -0.00332941184751689 0.999942600727081
outer loop
vertex -0.425723522901535 -23.5869445800781 0.0363000743091106
vertex 1.39504277706146 -24.1840648651123 0.0157634355127811
vertex -0.377748966217041 -23.4401626586914 0.0363000743091106
endloop
endfacet
facet normal 0.0101865893229842 -0.00332941161468625 0.999942481517792
outer loop
vertex 1.44420802593231 -24.0336399078369 0.0157634355127811
vertex -0.377748966217041 -23.4401626586914 0.0363000743091106
vertex 1.39504277706146 -24.1840648651123 0.0157634355127811
endloop
endfacet
facet normal 0.0101865911856294 -0.00332941208034754 0.999942541122437
outer loop
vertex 3.92668199539185 -25.0143146514893 -0.0127912228927016
vertex 3.9775025844574 -24.8588256835938 -0.0127912228927016
vertex 1.39504277706146 -24.1840648651123 0.0157634355127811
endloop
endfacet
facet normal 0.0101865921169519 -0.00332941208034754 0.999942600727081
outer loop
vertex 1.44420802593231 -24.0336399078369 0.0157634355127811
vertex 1.39504277706146 -24.1840648651123 0.0157634355127811
vertex 3.9775025844574 -24.8588256835938 -0.0127912228927016
endloop
endfacet
facet normal 0.0101865911856294 -0.00332941208034754 0.999942600727081
outer loop
vertex 3.92668199539185 -25.0143146514893 -0.0127912228927016
vertex 6.57180547714233 -25.8817825317383 -0.0426258817315102
vertex 3.9775025844574 -24.8588256835938 -0.0127912228927016
endloop
endfacet
facet normal 0.0101865911856294 -0.00332941184751689 0.999942600727081
outer loop
vertex 6.62435579299927 -25.7210006713867 -0.0426258817315102
vertex 3.9775025844574 -24.8588256835938 -0.0127912228927016
vertex 6.57180547714233 -25.8817825317383 -0.0426258817315102
endloop
endfacet
facet normal 0.0101865911856294 -0.00332941184751689 0.999942600727081
outer loop
vertex 6.57180547714233 -25.8817825317383 -0.0426258817315102
vertex 9.21692848205566 -26.7492504119873 -0.0724605396389961
vertex 6.62435579299927 -25.7210006713867 -0.0426258817315102
endloop
endfacet
facet normal 0.0101865911856294 -0.00332941184751689 0.999942600727081
outer loop
vertex 9.27120876312256 -26.5831756591797 -0.0724605396389961
vertex 6.62435579299927 -25.7210006713867 -0.0426258817315102
vertex 9.21692848205566 -26.7492504119873 -0.0724605396389961
endloop
endfacet
facet normal 0.0101865911856294 -0.00332941184751689 0.999942541122437
outer loop
vertex 9.21692848205566 -26.7492504119873 -0.0724605396389961
vertex 11.8498010635376 -27.6127014160156 -0.102157026529312
vertex 9.27120876312256 -26.5831756591797 -0.0724605396389961
endloop
endfacet
facet normal 0.0101865911856294 -0.00332941184751689 0.999942600727081
outer loop
vertex 11.9058027267456 -27.4413585662842 -0.102157026529312
vertex 9.27120876312256 -26.5831756591797 -0.0724605396389961
vertex 11.8498010635376 -27.6127014160156 -0.102157026529312
endloop
endfacet
facet normal 0.0101865902543068 -0.00332941184751689 0.999942541122437
outer loop
vertex 13.9430456161499 -28.2991809844971 -0.125766977667809
vertex 14.0004167556763 -28.123649597168 -0.125766977667809
vertex 11.8498010635376 -27.6127014160156 -0.102157026529312
endloop
endfacet
facet normal 0.0101865902543068 -0.00332941184751689 0.999942600727081
outer loop
vertex 11.9058027267456 -27.4413585662842 -0.102157026529312
vertex 11.8498010635376 -27.6127014160156 -0.102157026529312
vertex 14.0004167556763 -28.123649597168 -0.125766977667809
endloop
endfacet
facet normal 0.0101865902543068 -0.00332941184751689 0.999942541122437
outer loop
vertex 15.4257984161377 -28.7854480743408 -0.142491117119789
vertex 15.4841394424438 -28.6069507598877 -0.142491117119789
vertex 13.9430456161499 -28.2991809844971 -0.125766977667809
endloop
endfacet
facet normal 0.0101865911856294 -0.00332941208034754 0.999942600727081
outer loop
vertex 14.0004167556763 -28.123649597168 -0.125766977667809
vertex 13.9430456161499 -28.2991809844971 -0.125766977667809
vertex 15.4841394424438 -28.6069507598877 -0.142491117119789
endloop
endfacet
facet normal 0.0101865902543068 -0.00332941184751689 0.999942481517792
outer loop
vertex 15.4257984161377 -28.7854480743408 -0.142491117119789
vertex 16.4761085510254 -29.1298980712891 -0.15433768928051
vertex 15.4841394424438 -28.6069507598877 -0.142491117119789
endloop
endfacet
facet normal 0.0101865911856294 -0.00332941208034754 0.999942600727081
outer loop
vertex 16.535135269165 -28.9492988586426 -0.15433768928051
vertex 15.4841394424438 -28.6069507598877 -0.142491117119789
vertex 16.4761085510254 -29.1298980712891 -0.15433768928051
endloop
endfacet
facet normal -0.22754442691803 -0.669520616531372 -0.707082509994507
outer loop
vertex 16.476957321167 -29.1301727294922 -0.154349446296692
vertex 16.4347457885742 -29.2577171325684 -0.0199969783425331
vertex 15.3040008544922 -28.7455024719238 -0.141119390726089
endloop
endfacet
facet normal -0.22754442691803 -0.669520616531372 -0.707082509994507
outer loop
vertex 15.2643804550171 -28.8651695251465 -0.0150593584403396
vertex 15.3040008544922 -28.7455024719238 -0.141119390726089
vertex 16.4347457885742 -29.2577171325684 -0.0199969783425331
endloop
endfacet
facet normal -0.227544412016869 -0.669520616531372 -0.707082509994507
outer loop
vertex 15.3040008544922 -28.7455024719238 -0.141119390726089
vertex 15.2643804550171 -28.8651695251465 -0.0150593584403396
vertex 13.2598714828491 -28.0751304626465 -0.118063181638718
endloop
endfacet
facet normal -0.22754442691803 -0.669520616531372 -0.707082509994507
outer loop
vertex 13.2248249053955 -28.1810894012451 -0.00645472900941968
vertex 13.2598714828491 -28.0751304626465 -0.118063181638718
vertex 15.2643804550171 -28.8651695251465 -0.0150593584403396
endloop
endfacet
facet normal -0.22754442691803 -0.669520616531372 -0.707082569599152
outer loop
vertex 13.2248249053955 -28.1810894012451 -0.00645472900941968
vertex 10.5995302200317 -27.3005485534668 0.00462105916813016
vertex 13.2598714828491 -28.0751304626465 -0.118063181638718
endloop
endfacet
facet normal -0.22754442691803 -0.669520616531372 -0.707082509994507
outer loop
vertex 10.6287355422974 -27.2122497558594 -0.0883859843015671
vertex 13.2598714828491 -28.0751304626465 -0.118063181638718
vertex 10.5995302200317 -27.3005485534668 0.00462105916813016
endloop
endfacet
facet normal -0.22754442691803 -0.669520616531372 -0.707082509994507
outer loop
vertex 10.6287355422974 -27.2122497558594 -0.0883859843015671
vertex 10.5995302200317 -27.3005485534668 0.00462105916813016
vertex 7.99759960174561 -26.3493690490723 -0.0587087869644165
endloop
endfacet
facet normal -0.22754442691803 -0.669520676136017 -0.707082569599152
outer loop
vertex 7.97423505783081 -26.4200096130371 0.0156968478113413
vertex 7.99759960174561 -26.3493690490723 -0.0587087869644165
vertex 10.5995302200317 -27.3005485534668 0.00462105916813016
endloop
endfacet
facet normal -0.22754442691803 -0.669520676136017 -0.707082569599152
outer loop
vertex 7.97423505783081 -26.4200096130371 0.0156968478113413
vertex 5.34893989562988 -25.5394687652588 0.0267726350575686
vertex 7.99759960174561 -26.3493690490723 -0.0587087869644165
endloop
endfacet
facet normal -0.22754442691803 -0.669520616531372 -0.707082569599152
outer loop
vertex 5.36646318435669 -25.4864902496338 -0.0290315914899111
vertex 7.99759960174561 -26.3493690490723 -0.0587087869644165
vertex 5.34893989562988 -25.5394687652588 0.0267726350575686
endloop
endfacet
facet normal -0.22754442691803 -0.669520616531372 -0.707082569599152
outer loop
vertex 5.36646318435669 -25.4864902496338 -0.0290315914899111
vertex 5.34893989562988 -25.5394687652588 0.0267726350575686
vertex 2.73532724380493 -24.6236095428467 0.000645605905447155
endloop
endfacet
facet normal -0.22754442691803 -0.669520676136017 -0.707082569599152
outer loop
vertex 2.72364497184753 -24.6589298248291 0.037848424166441
vertex 2.73532724380493 -24.6236095428467 0.000645605905447155
vertex 5.34893989562988 -25.5394687652588 0.0267726350575686
endloop
endfacet
facet normal -0.22754442691803 -0.669520676136017 -0.707082569599152
outer loop
vertex 2.72364497184753 -24.6589298248291 0.037848424166441
vertex 0.0983500182628632 -23.7783889770508 0.0489242114126682
vertex 2.73532724380493 -24.6236095428467 0.000645605905447155
endloop
endfacet
facet normal -0.22754442691803 -0.669520676136017 -0.707082569599152
outer loop
vertex 0.104191161692142 -23.7607288360596 0.0303228031843901
vertex 2.73532724380493 -24.6236095428467 0.000645605905447155
vertex 0.0983500182628632 -23.7783889770508 0.0489242114126682
endloop
endfacet
facet normal -0.22754442691803 -0.669520676136017 -0.707082569599152
outer loop
vertex 0.0983500182628632 -23.7783889770508 0.0489242114126682
vertex -2.52694487571716 -22.8978481292725 0.0599999986588955
vertex 0.104191161692142 -23.7607288360596 0.0303228031843901
endloop
endfacet
facet normal -0.950346410274506 0.310613721609116 0.0189911536872387
outer loop
vertex -2.11310243606567 -22.8542594909668 20.0863933563232
vertex -2.13339996337891 -22.8487892150879 18.98118019104
vertex -2.17212963104248 -23.0348587036133 20.0863933563232
endloop
endfacet
facet normal -0.95034646987915 0.310613721609116 0.018991157412529
outer loop
vertex -2.1917405128479 -23.027286529541 18.98118019104
vertex -2.17212963104248 -23.0348587036133 20.0863933563232
vertex -2.13339996337891 -22.8487892150879 18.98118019104
endloop
endfacet
facet normal -0.95034658908844 0.310613751411438 0.018991157412529
outer loop
vertex -2.1917405128479 -23.027286529541 18.98118019104
vertex -2.13339996337891 -22.8487892150879 18.98118019104
vertex -2.21942567825317 -23.0165958404541 17.4209213256836
endloop
endfacet
facet normal -0.95034646987915 0.310613721609116 0.018991157412529
outer loop
vertex -2.16205477714539 -22.841064453125 17.4209213256836
vertex -2.21942567825317 -23.0165958404541 17.4209213256836
vertex -2.13339996337891 -22.8487892150879 18.98118019104
endloop
endfacet
facet normal -0.950346529483795 0.310613751411438 0.018991157412529
outer loop
vertex -2.21942567825317 -23.0165958404541 17.4209213256836
vertex -2.16205477714539 -22.841064453125 17.4209213256836
vertex -2.25850963592529 -23.0015029907227 15.2182569503784
endloop
endfacet
facet normal -0.95034646987915 0.310613721609116 0.0189911555498838
outer loop
vertex -2.20250773429871 -22.8301620483398 15.2182569503784
vertex -2.25850963592529 -23.0015029907227 15.2182569503784
vertex -2.16205477714539 -22.841064453125 17.4209213256836
endloop
endfacet
facet normal -0.950346529483795 0.310613751411438 0.018991157412529
outer loop
vertex -2.20250773429871 -22.8301620483398 15.2182569503784
vertex -2.25338912010193 -22.8164463043213 12.4477567672729
vertex -2.25850963592529 -23.0015029907227 15.2182569503784
endloop
endfacet
facet normal -0.950346529483795 0.310613721609116 0.018991157412529
outer loop
vertex -2.30766940116882 -22.9825210571289 12.4477567672729
vertex -2.25850963592529 -23.0015029907227 15.2182569503784
vertex -2.25338912010193 -22.8164463043213 12.4477567672729
endloop
endfacet
facet normal -0.95034646987915 0.310613751411438 0.018991157412529
outer loop
vertex -2.25338912010193 -22.8164463043213 12.4477567672729
vertex -2.3045072555542 -22.8026676177979 9.66436576843262
vertex -2.30766940116882 -22.9825210571289 12.4477567672729
endloop
endfacet
facet normal -0.95034646987915 0.310613751411438 0.018991157412529
outer loop
vertex -2.35705780982971 -22.9634494781494 9.66436576843262
vertex -2.30766940116882 -22.9825210571289 12.4477567672729
vertex -2.3045072555542 -22.8026676177979 9.66436576843262
endloop
endfacet
facet normal -0.95034646987915 0.310613751411438 0.018991157412529
outer loop
vertex -2.3045072555542 -22.8026676177979 9.66436576843262
vertex -2.35562539100647 -22.7888889312744 6.88097524642944
vertex -2.35705780982971 -22.9634494781494 9.66436576843262
endloop
endfacet
facet normal -0.95034646987915 0.310613721609116 0.0189911555498838
outer loop
vertex -2.4064462184906 -22.9443778991699 6.88097524642944
vertex -2.35705780982971 -22.9634494781494 9.66436576843262
vertex -2.35562539100647 -22.7888889312744 6.88097524642944
endloop
endfacet
facet normal -0.95034646987915 0.310613751411438 0.018991157412529
outer loop
vertex -2.4064462184906 -22.9443778991699 6.88097524642944
vertex -2.35562539100647 -22.7888889312744 6.88097524642944
vertex -2.45371556282043 -22.9261264801025 4.21700048446655
endloop
endfacet
facet normal -0.95034646987915 0.310613721609116 0.018991157412529
outer loop
vertex -2.40455031394958 -22.7757015228271 4.21700048446655
vertex -2.45371556282043 -22.9261264801025 4.21700048446655
vertex -2.35562539100647 -22.7888889312744 6.88097524642944
endloop
endfacet
facet normal -0.950346529483795 0.310613721609116 0.0189911555498838
outer loop
vertex -2.40455031394958 -22.7757015228271 4.21700048446655
vertex -2.43973755836487 -22.7662162780762 2.30105781555176
vertex -2.45371556282043 -22.9261264801025 4.21700048446655
endloop
endfacet
facet normal -0.95034646987915 0.310613751411438 0.0189911592751741
outer loop
vertex -2.48771190643311 -22.9129981994629 2.30105781555176
vertex -2.45371556282043 -22.9261264801025 4.21700048446655
vertex -2.43973755836487 -22.7662162780762 2.30105781555176
endloop
endfacet
facet normal -0.95034646987915 0.310613721609116 0.018991157412529
outer loop
vertex -2.48771190643311 -22.9129981994629 2.30105781555176
vertex -2.43973755836487 -22.7662162780762 2.30105781555176
vertex -2.51099681854248 -22.9040069580078 0.988793730735779
endloop
endfacet
facet normal -0.95034646987915 0.310613721609116 0.018991157412529
outer loop
vertex -2.46383786201477 -22.7597198486328 0.988793730735779
vertex -2.51099681854248 -22.9040069580078 0.988793730735779
vertex -2.43973755836487 -22.7662162780762 2.30105781555176
endloop
endfacet
facet normal -0.950346529483795 0.310613751411438 0.018991157412529
outer loop
vertex -2.46383786201477 -22.7597198486328 0.988793730735779
vertex -2.48034453392029 -22.7552719116211 0.0900000035762787
vertex -2.51099681854248 -22.9040069580078 0.988793730735779
endloop
endfacet
facet normal -0.95034646987915 0.310613721609116 0.0189911555498838
outer loop
vertex -2.52694487571716 -22.8978481292725 0.0900000035762787
vertex -2.51099681854248 -22.9040069580078 0.988793730735779
vertex -2.48034453392029 -22.7552719116211 0.0900000035762787
endloop
endfacet
facet normal 0.210786104202271 0.674998939037323 -0.70706832408905
outer loop
vertex 2.16868710517883 -9.39583396911621 14.2294502258301
vertex 1.90704846382141 -10.1528453826904 13.4287748336792
vertex 1.98804330825806 -9.33699131011963 14.2317705154419
endloop
endfacet
facet normal 0.210786104202271 0.674998939037323 -0.70706832408905
outer loop
vertex 1.73501861095428 -10.0968084335327 13.4309854507446
vertex 1.98804330825806 -9.33699131011963 14.2317705154419
vertex 1.90704846382141 -10.1528453826904 13.4287748336792
endloop
endfacet
facet normal 0.210786119103432 0.674998939037323 -0.707068383693695
outer loop
vertex 1.73501861095428 -10.0968084335327 13.4309854507446
vertex 1.90704846382141 -10.1528453826904 13.4287748336792
vertex 1.3693710565567 -11.19482421875 12.2737665176392
endloop
endfacet
facet normal 0.210786104202271 0.674998998641968 -0.707068383693695
outer loop
vertex 1.52895283699036 -11.2468061447144 12.2717161178589
vertex 1.3693710565567 -11.19482421875 12.2737665176392
vertex 1.90704846382141 -10.1528453826904 13.4287748336792
endloop
endfacet
facet normal 0.210786104202271 0.674998998641968 -0.707068383693695
outer loop
vertex 1.3693710565567 -11.19482421875 12.2737665176392
vertex 1.52895283699036 -11.2468061447144 12.2717161178589
vertex 0.840911209583282 -12.7817554473877 10.6012716293335
endloop
endfacet
facet normal 0.210786104202271 0.674998939037323 -0.70706832408905
outer loop
vertex 0.982502281665802 -12.8278760910034 10.5994520187378
vertex 0.840911209583282 -12.7817554473877 10.6012716293335
vertex 1.52895283699036 -11.2468061447144 12.2717161178589
endloop
endfacet
facet normal 0.210786104202271 0.674998939037323 -0.707068383693695
outer loop
vertex 0.982502281665802 -12.8278760910034 10.5994520187378
vertex 0.317919999361038 -14.7507429122925 8.56567764282227
vertex 0.840911209583282 -12.7817554473877 10.6012716293335
endloop
endfacet
facet normal 0.210786119103432 0.674998939037323 -0.707068383693695
outer loop
vertex 0.198209002614021 -14.7117481231689 8.56721591949463
vertex 0.840911209583282 -12.7817554473877 10.6012716293335
vertex 0.317919999361038 -14.7507429122925 8.56567764282227
endloop
endfacet
facet normal 0.210786119103432 0.674998939037323 -0.707068383693695
outer loop
vertex 0.317919999361038 -14.7507429122925 8.56567764282227
vertex -0.346662253141403 -16.6736087799072 6.5319037437439
vertex 0.198209002614021 -14.7117481231689 8.56721591949463
endloop
endfacet
facet normal 0.210786089301109 0.674998879432678 -0.70706832408905
outer loop
vertex -0.44449320435524 -16.6417407989502 6.53316116333008
vertex 0.198209002614021 -14.7117481231689 8.56721591949463
vertex -0.346662253141403 -16.6736087799072 6.5319037437439
endloop
endfacet
facet normal 0.210786089301109 0.674998879432678 -0.70706832408905
outer loop
vertex -0.346662253141403 -16.6736087799072 6.5319037437439
vertex -1.01124453544617 -18.5964736938477 4.49812984466553
vertex -0.44449320435524 -16.6417407989502 6.53316116333008
endloop
endfacet
facet normal 0.210786089301109 0.674998939037323 -0.70706832408905
outer loop
vertex -1.08719539642334 -18.5717353820801 4.49910593032837
vertex -0.44449320435524 -16.6417407989502 6.53316116333008
vertex -1.01124453544617 -18.5964736938477 4.49812984466553
endloop
endfacet
facet normal 0.210786089301109 0.674998939037323 -0.70706832408905
outer loop
vertex -1.08719539642334 -18.5717353820801 4.49910593032837
vertex -1.01124453544617 -18.5964736938477 4.49812984466553
vertex -1.66261124610901 -20.2996711730957 2.67800188064575
endloop
endfacet
facet normal 0.210786104202271 0.674998939037323 -0.70706832408905
outer loop
vertex -1.60624969005585 -20.3180294036865 2.67727780342102
vertex -1.66261124610901 -20.2996711730957 2.67800188064575
vertex -1.01124453544617 -18.5964736938477 4.49812984466553
endloop
endfacet
facet normal 0.210786104202271 0.674998998641968 -0.707068383693695
outer loop
vertex -1.60624969005585 -20.3180294036865 2.67727780342102
vertex -1.97340714931488 -21.3803424835205 1.55369186401367
vertex -1.66261124610901 -20.2996711730957 2.67800188064575
endloop
endfacet
facet normal 0.210786119103432 0.674998998641968 -0.707068383693695
outer loop
vertex -2.01768064498901 -21.3659210205078 1.55426073074341
vertex -1.66261124610901 -20.2996711730957 2.67800188064575
vertex -1.97340714931488 -21.3803424835205 1.55369186401367
endloop
endfacet
facet normal 0.210786119103432 0.674998939037323 -0.70706832408905
outer loop
vertex -2.01768064498901 -21.3659210205078 1.55426073074341
vertex -1.97340714931488 -21.3803424835205 1.55369186401367
vertex -2.23050141334534 -22.0050086975098 0.880715370178223
endloop
endfacet
facet normal 0.210786119103432 0.674998939037323 -0.70706832408905
outer loop
vertex -2.19347310066223 -22.0170707702637 0.880239546298981
vertex -2.23050141334534 -22.0050086975098 0.880715370178223
vertex -1.97340714931488 -21.3803424835205 1.55369186401367
endloop
endfacet
facet normal 0.210786089301109 0.674998879432678 -0.70706832408905
outer loop
vertex -2.19347310066223 -22.0170707702637 0.880239546298981
vertex -2.32537579536438 -22.3987102508545 0.476587265729904
vertex -2.23050141334534 -22.0050086975098 0.880715370178223
endloop
endfacet
facet normal 0.210786119103432 0.674998939037323 -0.707068383693695
outer loop
vertex -2.35806155204773 -22.3880634307861 0.477007240056992
vertex -2.23050141334534 -22.0050086975098 0.880715370178223
vertex -2.32537579536438 -22.3987102508545 0.476587265729904
endloop
endfacet
facet normal 0.210786104202271 0.674998998641968 -0.707068383693695
outer loop
vertex -2.35806155204773 -22.3880634307861 0.477007240056992
vertex -2.32537579536438 -22.3987102508545 0.476587265729904
vertex -2.43451809883118 -22.6176567077637 0.235033601522446
endloop
endfacet
facet normal 0.210786104202271 0.674998939037323 -0.707068383693695
outer loop
vertex -2.40443515777588 -22.6274566650391 0.234647065401077
vertex -2.43451809883118 -22.6176567077637 0.235033601522446
vertex -2.32537579536438 -22.3987102508545 0.476587265729904
endloop
endfacet
facet normal 0.210786089301109 0.674998939037323 -0.70706832408905
outer loop
vertex -2.43451809883118 -22.6176567077637 0.235033601522446
vertex -2.40443515777588 -22.6274566650391 0.234647065401077
vertex -2.48034453392029 -22.7552719116211 0.0900000035762787
endloop
endfacet
facet normal 0.210786104202271 0.674998998641968 -0.70706832408905
outer loop
vertex -2.45182180404663 -22.7645626068115 0.0896335020661354
vertex -2.48034453392029 -22.7552719116211 0.0900000035762787
vertex -2.40443515777588 -22.6274566650391 0.234647065401077
endloop
endfacet
facet normal -0.22619141638279 -0.669931352138519 0.707127571105957
outer loop
vertex 2.16814947128296 -9.39750385284424 14.2320528030396
vertex 1.98800766468048 -9.33709907531738 14.2316579818726
vertex 1.88123536109924 -10.2219715118408 13.3591775894165
endloop
endfacet
facet normal -0.22619141638279 -0.669931352138519 0.707127571105957
outer loop
vertex 1.71220898628235 -10.16530418396 13.3587970733643
vertex 1.88123536109924 -10.2219715118408 13.3591775894165
vertex 1.98800766468048 -9.33709907531738 14.2316579818726
endloop
endfacet
facet normal -0.226191431283951 -0.669931352138519 0.707127630710602
outer loop
vertex 1.88123536109924 -10.2219715118408 13.3591775894165
vertex 1.71220898628235 -10.16530418396 13.3587970733643
vertex 1.38122594356537 -11.6587829589844 11.8380060195923
endloop
endfacet
facet normal -0.226191431283951 -0.669931352138519 0.707127630710602
outer loop
vertex 1.23158407211304 -11.6085901260376 11.8376922607422
vertex 1.38122594356537 -11.6587829589844 11.8380060195923
vertex 1.71220898628235 -10.16530418396 13.3587970733643
endloop
endfacet
facet normal -0.22619141638279 -0.669931292533875 0.707127630710602
outer loop
vertex 1.23158407211304 -11.6085901260376 11.8376922607422
vertex 0.612929344177246 -13.4663696289063 9.8797435760498
vertex 1.38122594356537 -11.6587829589844 11.8380060195923
endloop
endfacet
facet normal -0.22619141638279 -0.669931352138519 0.707127630710602
outer loop
vertex 0.737630844116211 -13.5081977844238 9.8800048828125
vertex 1.38122594356537 -11.6587829589844 11.8380060195923
vertex 0.612929344177246 -13.4663696289063 9.8797435760498
endloop
endfacet
facet normal -0.22619141638279 -0.669931352138519 0.707127630710602
outer loop
vertex 0.737630844116211 -13.5081977844238 9.8800048828125
vertex 0.612929344177246 -13.4663696289063 9.8797435760498
vertex 0.0940357893705368 -15.3576126098633 7.92200374603271
endloop
endfacet
facet normal -0.226191401481628 -0.669931292533875 0.707127571105957
outer loop
vertex -0.00572543870657682 -15.3241500854492 7.92179441452026
vertex 0.0940357893705368 -15.3576126098633 7.92200374603271
vertex 0.612929344177246 -13.4663696289063 9.8797435760498
endloop
endfacet
facet normal -0.226191401481628 -0.669931292533875 0.707127571105957
outer loop
vertex -0.00572543870657682 -15.3241500854492 7.92179441452026
vertex -0.624380171298981 -17.1819305419922 5.96384572982788
vertex 0.0940357893705368 -15.3576126098633 7.92200374603271
endloop
endfacet
facet normal -0.22619141638279 -0.669931292533875 0.707127630710602
outer loop
vertex -0.54955929517746 -17.2070274353027 5.96400260925293
vertex 0.0940357893705368 -15.3576126098633 7.92200374603271
vertex -0.624380171298981 -17.1819305419922 5.96384572982788
endloop
endfacet
facet normal -0.22619141638279 -0.669931292533875 0.707127630710602
outer loop
vertex -0.54955929517746 -17.2070274353027 5.96400260925293
vertex -0.624380171298981 -17.1819305419922 5.96384572982788
vertex -1.19315433502197 -19.0564422607422 4.0060019493103
endloop
endfacet
facet normal -0.226191401481628 -0.669931292533875 0.707127571105957
outer loop
vertex -1.24303495883942 -19.0397109985352 4.00589752197266
vertex -1.19315433502197 -19.0564422607422 4.0060019493103
vertex -0.624380171298981 -17.1819305419922 5.96384572982788
endloop
endfacet
facet normal -0.226191401481628 -0.669931292533875 0.707127571105957
outer loop
vertex -1.24303495883942 -19.0397109985352 4.00589752197266
vertex -1.86168968677521 -20.8974914550781 2.04794859886169
vertex -1.19315433502197 -19.0564422607422 4.0060019493103
endloop
endfacet
facet normal -0.226191401481628 -0.669931292533875 0.707127571105957
outer loop
vertex -1.83674943447113 -20.9058570861816 2.0480010509491
vertex -1.19315433502197 -19.0564422607422 4.0060019493103
vertex -1.86168968677521 -20.8974914550781 2.04794859886169
endloop
endfacet
facet normal -0.226191401481628 -0.669931292533875 0.707127571105957
outer loop
vertex -1.86168968677521 -20.8974914550781 2.04794859886169
vertex -2.48034453392029 -22.7552719116211 0.0900000035762787
vertex -1.83674943447113 -20.9058570861816 2.0480010509491
endloop
endfacet
facet normal -0.31799253821373 -0.948092818260193 -0.000853628851473331
outer loop
vertex -0.32918056845665 -23.6512126922607 18.1137561798096
vertex -2.17212963104248 -23.0348587036133 20.0863933563232
vertex -0.346945077180862 -23.6452369689941 18.0952987670898
endloop
endfacet
facet normal -0.31799253821373 -0.948092818260193 -0.000853628851473331
outer loop
vertex -0.346945077180862 -23.6452369689941 18.0952987670898
vertex 1.47823941707611 -24.255615234375 16.1042022705078
vertex -0.32918056845665 -23.6512126922607 18.1137561798096
endloop
endfacet
facet normal -0.31799253821373 -0.948092818260193 -0.000853628851473331
outer loop
vertex 1.51376843452454 -24.2675647735596 16.1411209106445
vertex -0.32918056845665 -23.6512126922607 18.1137561798096
vertex 1.47823941707611 -24.255615234375 16.1042022705078
endloop
endfacet
facet normal -0.317992568016052 -0.948092877864838 -0.000853628851473331
outer loop
vertex 3.30342388153076 -24.8659934997559 14.1131076812744
vertex 3.35671758651733 -24.883918762207 14.1684837341309
vertex 1.47823941707611 -24.255615234375 16.1042022705078
endloop
endfacet
facet normal -0.31799253821373 -0.948092818260193 -0.000853628851473331
outer loop
vertex 1.51376843452454 -24.2675647735596 16.1411209106445
vertex 1.47823941707611 -24.255615234375 16.1042022705078
vertex 3.35671758651733 -24.883918762207 14.1684837341309
endloop
endfacet
facet normal -0.317992568016052 -0.948092877864838 -0.000853628851473331
outer loop
vertex 3.30342388153076 -24.8659934997559 14.1131076812744
vertex 5.12860870361328 -25.4763717651367 12.1220121383667
vertex 3.35671758651733 -24.883918762207 14.1684837341309
endloop
endfacet
facet normal -0.31799253821373 -0.948092818260193 -0.000853628851473331
outer loop
vertex 5.19966650009155 -25.5002727508545 12.1958475112915
vertex 3.35671758651733 -24.883918762207 14.1684837341309
vertex 5.12860870361328 -25.4763717651367 12.1220121383667
endloop
endfacet
facet normal -0.31799253821373 -0.948092818260193 -0.000853628851473331
outer loop
vertex 5.12860870361328 -25.4763717651367 12.1220121383667
vertex 6.95379304885864 -26.0867519378662 10.1309175491333
vertex 5.19966650009155 -25.5002727508545 12.1958475112915
endloop
endfacet
facet normal -0.317992568016052 -0.948092818260193 -0.000853628851473331
outer loop
vertex 7.04261541366577 -26.1166248321533 10.2232112884521
vertex 5.19966650009155 -25.5002727508545 12.1958475112915
vertex 6.95379304885864 -26.0867519378662 10.1309175491333
endloop
endfacet
facet normal -0.317992568016052 -0.948092877864838 -0.000853628851473331
outer loop
vertex 8.88556480407715 -26.7329788208008 8.25057411193848
vertex 7.04261541366577 -26.1166248321533 10.2232112884521
vertex 8.778977394104 -26.6971302032471 8.13982200622559
endloop
endfacet
facet normal -0.317992568016052 -0.948092818260193 -0.000853628851473331
outer loop
vertex 6.95379304885864 -26.0867519378662 10.1309175491333
vertex 8.778977394104 -26.6971302032471 8.13982200622559
vertex 7.04261541366577 -26.1166248321533 10.2232112884521
endloop
endfacet
facet normal -0.317992568016052 -0.948092818260193 -0.000853628851473331
outer loop
vertex 8.88556480407715 -26.7329788208008 8.25057411193848
vertex 8.778977394104 -26.6971302032471 8.13982200622559
vertex 10.3173265457153 -27.2118148803711 6.71806001663208
endloop
endfacet
facet normal -0.317992568016052 -0.948092877864838 -0.000853628909680992
outer loop
vertex 10.1969633102417 -27.1713333129883 6.59294080734253
vertex 10.3173265457153 -27.2118148803711 6.71806001663208
vertex 8.778977394104 -26.6971302032471 8.13982200622559
endloop
endfacet
facet normal -0.317992568016052 -0.948092818260193 -0.000853628793265671
outer loop
vertex 10.3173265457153 -27.2118148803711 6.71806001663208
vertex 10.1969633102417 -27.1713333129883 6.59294080734253
vertex 11.1389188766479 -27.4865875244141 5.83865308761597
endloop
endfacet
facet normal -0.317992568016052 -0.948092818260193 -0.000853628793265671
outer loop
vertex 11.010627746582 -27.4434375762939 5.70531368255615
vertex 11.1389188766479 -27.4865875244141 5.83865308761597
vertex 10.1969633102417 -27.1713333129883 6.59294080734253
endloop
endfacet
facet normal -1 0 0
outer loop
vertex -0.214350000023842 -20 -0.0199999995529652
vertex -0.214350000023842 -21 -0.0199999995529652
vertex -0.214350000023842 -20 0.170000001788139
endloop
endfacet
facet normal -1 0 0
outer loop
vertex -0.214350000023842 -21 0.170000001788139
vertex -0.214350000023842 -20 0.170000001788139
vertex -0.214350000023842 -21 -0.0199999995529652
endloop
endfacet
facet normal -0.70710676908493 -0 -0.70710676908493
outer loop
vertex -0.0799999982118607 -20 -0.154349997639656
vertex -0.0799999982118607 -21 -0.154349997639656
vertex -0.214350000023842 -20 -0.0199999995529652
endloop
endfacet
facet normal -0.70710676908493 0 -0.70710676908493
outer loop
vertex -0.214350000023842 -21 -0.0199999995529652
vertex -0.214350000023842 -20 -0.0199999995529652
vertex -0.0799999982118607 -21 -0.154349997639656
endloop
endfacet
facet normal -0.70710676908493 0 0.70710676908493
outer loop
vertex -0.214350000023842 -20 0.170000001788139
vertex -0.214350000023842 -21 0.170000001788139
vertex -0.0799999982118607 -20 0.304349988698959
endloop
endfacet
facet normal -0.70710676908493 0 0.70710676908493
outer loop
vertex -0.0799999982118607 -21 0.304349988698959
vertex -0.0799999982118607 -20 0.304349988698959
vertex -0.214350000023842 -21 0.170000001788139
endloop
endfacet
facet normal 0 0 -1
outer loop
vertex -0.0799999982118607 -20 -0.154349997639656
vertex 0.109999999403954 -20 -0.154349997639656
vertex -0.0799999982118607 -21 -0.154349997639656
endloop
endfacet
facet normal 0 0 -1
outer loop
vertex 0.109999999403954 -21 -0.154349997639656
vertex -0.0799999982118607 -21 -0.154349997639656
vertex 0.109999999403954 -20 -0.154349997639656
endloop
endfacet
facet normal 0 -0 1
outer loop
vertex 0.109999999403954 -21 0.304349988698959
vertex 0.109999999403954 -20 0.304349988698959
vertex -0.0799999982118607 -21 0.304349988698959
endloop
endfacet
facet normal -0 0 1
outer loop
vertex -0.0799999982118607 -20 0.304349988698959
vertex -0.0799999982118607 -21 0.304349988698959
vertex 0.109999999403954 -20 0.304349988698959
endloop
endfacet
facet normal 0.70710676908493 0 -0.70710676908493
outer loop
vertex 0.109999999403954 -21 -0.154349997639656
vertex 0.109999999403954 -20 -0.154349997639656
vertex 0.244350001215935 -21 -0.0199999995529652
endloop
endfacet
facet normal 0.70710676908493 0 -0.70710676908493
outer loop
vertex 0.244350001215935 -20 -0.0199999995529652
vertex 0.244350001215935 -21 -0.0199999995529652
vertex 0.109999999403954 -20 -0.154349997639656
endloop
endfacet
facet normal 0.70710676908493 -0 0.70710676908493
outer loop
vertex 0.244350001215935 -21 0.170000001788139
vertex 0.244350001215935 -20 0.170000001788139
vertex 0.109999999403954 -21 0.304349988698959
endloop
endfacet
facet normal 0.70710676908493 0 0.70710676908493
outer loop
vertex 0.109999999403954 -20 0.304349988698959
vertex 0.109999999403954 -21 0.304349988698959
vertex 0.244350001215935 -20 0.170000001788139
endloop
endfacet
facet normal 1 0 0
outer loop
vertex 0.244350001215935 -21 -0.0199999995529652
vertex 0.244350001215935 -20 -0.0199999995529652
vertex 0.244350001215935 -21 0.170000001788139
endloop
endfacet
facet normal 1 0 0
outer loop
vertex 0.244350001215935 -20 0.170000001788139
vertex 0.244350001215935 -21 0.170000001788139
vertex 0.244350001215935 -20 -0.0199999995529652
endloop
endfacet
facet normal -0 0.00771726993843913 0.999970197677612
outer loop
vertex -0.0799999982118607 -19.9994049072266 0.304345399141312
vertex 0.109999999403954 -19.9994049072266 0.304345399141312
vertex -0.0754699558019638 -18.8669281005859 0.295605510473251
endloop
endfacet
facet normal 3.06784136778736e-16 0.00771727040410042 0.999970257282257
outer loop
vertex 0.105469956994057 -18.8669281005859 0.295605510473251
vertex -0.0754699558019638 -18.8669281005859 0.295605510473251
vertex 0.109999999403954 -19.9994049072266 0.304345399141312
endloop
endfacet
facet normal 3.06784136778736e-16 0.00771726947277784 0.999970197677612
outer loop
vertex -0.0754699558019638 -18.8669281005859 0.295605510473251
vertex 0.105469956994057 -18.8669281005859 0.295605510473251
vertex -0.0689235702157021 -17.2303791046143 0.28297546505928
endloop
endfacet
facet normal 3.30714591013903e-16 0.00771727040410042 0.999970257282257
outer loop
vertex 0.098923571407795 -17.2303791046143 0.28297546505928
vertex -0.0689235702157021 -17.2303791046143 0.28297546505928
vertex 0.105469956994057 -18.8669281005859 0.295605510473251
endloop
endfacet
facet normal 3.30714564544124e-16 0.00771727040410042 0.999970197677612
outer loop
vertex 0.098923571407795 -17.2303791046143 0.28297546505928
vertex 0.0894622653722763 -14.865122795105 0.264721602201462
vertex -0.0689235702157021 -17.2303791046143 0.28297546505928
endloop
endfacet
facet normal 6.53420697269754e-16 0.00771727040410042 0.999970197677612
outer loop
vertex -0.0594622641801834 -14.865122795105 0.264721602201462
vertex -0.0689235702157021 -17.2303791046143 0.28297546505928
vertex 0.0894622653722763 -14.865122795105 0.264721602201462
endloop
endfacet
facet normal 6.53420750209313e-16 0.00771726993843913 0.999970197677612
outer loop
vertex -0.0594622641801834 -14.865122795105 0.264721602201462
vertex 0.0894622653722763 -14.865122795105 0.264721602201462
vertex -0.0479556135833263 -11.98854637146 0.242521598935127
endloop
endfacet
facet normal -1.14236210162194e-16 0.00771727086976171 0.999970197677612
outer loop
vertex 0.0779556110501289 -11.98854637146 0.242521598935127
vertex -0.0479556135833263 -11.98854637146 0.242521598935127
vertex 0.0894622653722763 -14.865122795105 0.264721602201462
endloop
endfacet
facet normal -1.14236210162194e-16 0.00771727086976171 0.999970197677612
outer loop
vertex 0.0779556110501289 -11.98854637146 0.242521598935127
vertex 0.0664489641785622 -9.11196899414063 0.220321625471115
vertex -0.0479556135833263 -11.98854637146 0.242521598935127
endloop
endfacet
facet normal 2.69730865789554e-16 0.00771726993843913 0.999970197677612
outer loop
vertex -0.0364489629864693 -9.11196899414063 0.220321625471115
vertex -0.0479556135833263 -11.98854637146 0.242521598935127
vertex 0.0664489641785622 -9.11196899414063 0.220321625471115
endloop
endfacet
facet normal 2.69730865789554e-16 0.00771726993843913 0.999970197677612
outer loop
vertex -0.0364489629864693 -9.11196899414063 0.220321625471115
vertex 0.0664489641785622 -9.11196899414063 0.220321625471115
vertex -0.0249423123896122 -6.23539257049561 0.198121637105942
endloop
endfacet
facet normal 8.15778424117352e-17 0.00771727040410042 0.999970257282257
outer loop
vertex 0.0549423135817051 -6.23539257049561 0.198121637105942
vertex -0.0249423123896122 -6.23539257049561 0.198121637105942
vertex 0.0664489641785622 -9.11196899414063 0.220321625471115
endloop
endfacet
facet normal 8.15778357942903e-17 0.00771727040410042 0.999970257282257
outer loop
vertex 0.0549423135817051 -6.23539257049561 0.198121637105942
vertex 0.0446403287351131 -3.65997290611267 0.178245842456818
vertex -0.0249423123896122 -6.23539257049561 0.198121637105942
endloop
endfacet
facet normal -4.16073145133373e-16 0.00771726993843913 0.999970257282257
outer loop
vertex -0.0146403275430202 -3.65997290611267 0.178245842456818
vertex -0.0249423123896122 -6.23539257049561 0.198121637105942
vertex 0.0446403287351131 -3.65997290611267 0.178245842456818
endloop
endfacet
facet normal -4.16073145133373e-16 0.00771726947277784 0.999970197677612
outer loop
vertex -0.0146403275430202 -3.65997290611267 0.178245842456818
vertex 0.0446403287351131 -3.65997290611267 0.178245842456818
vertex -0.00828332360833883 -2.07076907157898 0.165981158614159
endloop
endfacet
facet normal -7.35968001976846e-17 0.00771726993843913 0.999970197677612
outer loop
vertex 0.038283322006464 -2.07076907157898 0.165981158614159
vertex -0.00828332360833883 -2.07076907157898 0.165981158614159
vertex 0.0446403287351131 -3.65997290611267 0.178245842456818
endloop
endfacet
facet normal -7.35968068151295e-17 0.00771727086976171 0.999970257282257
outer loop
vertex 0.038283322006464 -2.07076907157898 0.165981158614159
vertex 0.0344730764627457 -1.1182359457016 0.158629983663559
vertex -0.00828332360833883 -2.07076907157898 0.165981158614159
endloop
endfacet
facet normal -5.71982502797753e-16 0.00771727040410042 0.999970257282257
outer loop
vertex -0.00447307666763663 -1.1182359457016 0.158629983663559
vertex -0.00828332360833883 -2.07076907157898 0.165981158614159
vertex 0.0344730764627457 -1.1182359457016 0.158629983663559
endloop
endfacet
facet normal -5.71982396918634e-16 0.00771726947277784 0.999970197677612
outer loop
vertex -0.00447307666763663 -1.1182359457016 0.158629983663559
vertex 0.0344730764627457 -1.1182359457016 0.158629983663559
vertex -0.00218930002301931 -0.547308743000031 0.15422385931015
endloop
endfacet
facet normal -1.59350084905465e-16 0.00771727040410042 0.999970197677612
outer loop
vertex 0.0321892984211445 -0.547308743000031 0.15422385931015
vertex -0.00218930002301931 -0.547308743000031 0.15422385931015
vertex 0.0344730764627457 -1.1182359457016 0.158629983663559
endloop
endfacet
facet normal -1.59350071670575e-16 0.00771726993843913 0.999970257282257
outer loop
vertex 0.0321892984211445 -0.547308743000031 0.15422385931015
vertex 0.0308204554021358 -0.205107674002647 0.151582911610603
vertex -0.00218930002301931 -0.547308743000031 0.15422385931015
endloop
endfacet
facet normal 1.86676889796216e-16 0.00771727040410042 0.999970257282257
outer loop
vertex -0.000820455141365528 -0.205107674002647 0.151582911610603
vertex -0.00218930002301931 -0.547308743000031 0.15422385931015
vertex 0.0308204554021358 -0.205107674002647 0.151582911610603
endloop
endfacet
facet normal 1.86676889796216e-16 0.00771726993843913 0.999970197677612
outer loop
vertex -0.000820455141365528 -0.205107674002647 0.151582911610603
vertex 0.0308204554021358 -0.205107674002647 0.151582911610603
vertex 0 0 0.150000005960464
endloop
endfacet
facet normal 0 0.00771727086976171 0.999970257282257
outer loop
vertex 0.0299999993294477 0 0.150000005960464
vertex 0 0 0.150000005960464
vertex 0.0308204554021358 -0.205107674002647 0.151582911610603
endloop
endfacet
facet normal -0.999942600727081 -0.0107168853282928 0
outer loop
vertex 0.244337692856789 -19.998851776123 -0.0199999995529652
vertex 0.244337692856789 -19.998851776123 0.170000001788139
vertex 0.232491120696068 -18.8935031890869 -0.0188945885747671
endloop
endfacet
facet normal -0.999942481517792 -0.0107168843969703 -1.70730806349884e-17
outer loop
vertex 0.232491120696068 -18.8935031890869 0.168894588947296
vertex 0.232491120696068 -18.8935031890869 -0.0188945885747671
vertex 0.244337692856789 -19.998851776123 0.170000001788139
endloop
endfacet
facet normal -0.999942541122437 -0.0107168834656477 -1.70730806349884e-17
outer loop
vertex 0.232491120696068 -18.8935031890869 0.168894588947296
vertex 0.215766981244087 -17.3330516815186 0.167334049940109
vertex 0.232491120696068 -18.8935031890869 -0.0188945885747671
endloop
endfacet
facet normal -0.999942600727081 -0.0107168843969703 5.58842692445233e-17
outer loop
vertex 0.215766981244087 -17.3330516815186 -0.0173340477049351
vertex 0.232491120696068 -18.8935031890869 -0.0188945885747671
vertex 0.215766981244087 -17.3330516815186 0.167334049940109
endloop
endfacet
facet normal -0.999942541122437 -0.0107168843969703 5.58842626270784e-17
outer loop
vertex 0.215766981244087 -17.3330516815186 -0.0173340477049351
vertex 0.215766981244087 -17.3330516815186 0.167334049940109
vertex 0.192157030105591 -15.1301164627075 -0.0151309855282307
endloop
endfacet
facet normal -0.999942600727081 -0.0107168853282928 -1.53964702366381e-16
outer loop
vertex 0.192157030105591 -15.1301164627075 0.165130987763405
vertex 0.192157030105591 -15.1301164627075 -0.0151309855282307
vertex 0.215766981244087 -17.3330516815186 0.167334049940109
endloop
endfacet
facet normal -0.999942600727081 -0.0107168853282928 -1.53964702366381e-16
outer loop
vertex 0.192157030105591 -15.1301164627075 0.165130987763405
vertex 0.162460535764694 -12.3592758178711 0.162359982728958
vertex 0.192157030105591 -15.1301164627075 -0.0151309855282307
endloop
endfacet
facet normal -0.999942541122437 -0.0107168843969703 -2.76980700194442e-16
outer loop
vertex 0.162460535764694 -12.3592758178711 -0.0123599860817194
vertex 0.192157030105591 -15.1301164627075 -0.0151309855282307
vertex 0.162460535764694 -12.3592758178711 0.162359982728958
endloop
endfacet
facet normal -0.999942600727081 -0.0107168843969703 -2.76980726664222e-16
outer loop
vertex 0.162460535764694 -12.3592758178711 -0.0123599860817194
vertex 0.162460535764694 -12.3592758178711 0.162359982728958
vertex 0.132625877857208 -9.57554340362549 -0.00957609340548515
endloop
endfacet
facet normal -0.999942600727081 -0.0107168853282928 -1.12543692749793e-16
outer loop
vertex 0.132625877857208 -9.57554340362549 0.159576088190079
vertex 0.132625877857208 -9.57554340362549 -0.00957609340548515
vertex 0.162460535764694 -12.3592758178711 0.162359982728958
endloop
endfacet
facet normal -0.999942600727081 -0.0107168853282928 -1.12543692749793e-16
outer loop
vertex 0.132625877857208 -9.57554340362549 0.159576088190079
vertex 0.102791219949722 -6.79181003570557 0.156792193651199
vertex 0.132625877857208 -9.57554340362549 -0.00957609340548515
endloop
endfacet
facet normal -0.999942600727081 -0.0107168853282928 4.83874751046736e-17
outer loop
vertex 0.102791219949722 -6.79181003570557 -0.00679219979792833
vertex 0.132625877857208 -9.57554340362549 -0.00957609340548515
vertex 0.102791219949722 -6.79181003570557 0.156792193651199
endloop
endfacet
facet normal -0.999942541122437 -0.0107168853282928 4.83874717959512e-17
outer loop
vertex 0.102791219949722 -6.79181003570557 -0.00679219979792833
vertex 0.102791219949722 -6.79181003570557 0.156792193651199
vertex 0.0742365643382072 -4.12750768661499 -0.00412774505093694
endloop
endfacet
facet normal -0.999942600727081 -0.0107168853282928 1.10163272087657e-16
outer loop
vertex 0.0742365643382072 -4.12750768661499 0.15412774682045
vertex 0.0742365643382072 -4.12750768661499 -0.00412774505093694
vertex 0.102791219949722 -6.79181003570557 0.156792193651199
endloop
endfacet
facet normal -0.999942481517792 -0.0107168834656477 1.10163252235322e-16
outer loop
vertex 0.0742365643382072 -4.12750768661499 0.15412774682045
vertex 0.0536999255418777 -2.21132969856262 0.152211457490921
vertex 0.0742365643382072 -4.12750768661499 -0.00412774505093694
endloop
endfacet
facet normal -0.999942600727081 -0.0107168853282928 2.5629084512296e-17
outer loop
vertex 0.0536999255418777 -2.21132969856262 -0.0022114566527307
vertex 0.0742365643382072 -4.12750768661499 -0.00412774505093694
vertex 0.0536999255418777 -2.21132969856262 0.152211457490921
endloop
endfacet
facet normal -0.999942600727081 -0.0107168843969703 2.56290828579347e-17
outer loop
vertex 0.0536999255418777 -2.21132969856262 -0.0022114566527307
vertex 0.0536999255418777 -2.21132969856262 0.152211457490921
vertex 0.0396340042352676 -0.898904204368591 -0.000898955855518579
endloop
endfacet
facet normal -0.999942541122437 -0.0107168853282928 1.83164174680781e-17
outer loop
vertex 0.0396340042352676 -0.898904204368591 0.150898963212967
vertex 0.0396340042352676 -0.898904204368591 -0.000898955855518579
vertex 0.0536999255418777 -2.21132969856262 0.152211457490921
endloop
endfacet
facet normal -0.999942541122437 -0.0107168843969703 1.83164174680781e-17
outer loop
vertex 0.0396340042352676 -0.898904204368591 -0.000898955855518579
vertex 0.0396340042352676 -0.898904204368591 0.150898963212967
vertex 0.0299999993294477 0 0
endloop
endfacet
facet normal -0.999942541122437 -0.0107168843969703 -0
outer loop
vertex 0.0299999993294477 0 0.150000005960464
vertex 0.0299999993294477 0 0
vertex 0.0396340042352676 -0.898904204368591 0.150898963212967
endloop
endfacet
facet normal 0.707082509994507 0.00828523933887482 0.707082509994507
outer loop
vertex 0.244349434971809 -19.9997444152832 0.169997557997704
vertex 0.231119394302368 -18.765323638916 0.168763279914856
vertex 0.109996974468231 -19.9992446899414 0.304344177246094
endloop
endfacet
facet normal 0.707082509994507 0.00828523933887482 0.707082509994507
outer loop
vertex 0.10505935549736 -18.7648391723633 0.29481765627861
vertex 0.109996974468231 -19.9992446899414 0.304344177246094
vertex 0.231119394302368 -18.765323638916 0.168763279914856
endloop
endfacet
facet normal 0.707082509994507 0.00828523840755224 0.707082509994507
outer loop
vertex 0.231119394302368 -18.765323638916 0.168763279914856
vertex 0.208063185214996 -16.6140766143799 0.166612267494202
vertex 0.10505935549736 -18.7648391723633 0.29481765627861
endloop
endfacet
facet normal 0.707082509994507 0.00828523933887482 0.707082509994507
outer loop
vertex 0.0964547321200371 -16.6136817932129 0.27821609377861
vertex 0.10505935549736 -18.7648391723633 0.29481765627861
vertex 0.208063185214996 -16.6140766143799 0.166612267494202
endloop
endfacet
facet normal 0.707082509994507 0.00828523933887482 0.707082509994507
outer loop
vertex 0.0964547321200371 -16.6136817932129 0.27821609377861
vertex 0.208063185214996 -16.6140766143799 0.166612267494202
vertex 0.0853789374232292 -13.8447351455688 0.256846755743027
endloop
endfacet
facet normal 0.707082509994507 0.00828523933887482 0.707082509994507
outer loop
vertex 0.178385987877846 -13.845064163208 0.163843557238579
vertex 0.0853789374232292 -13.8447351455688 0.256846755743027
vertex 0.208063185214996 -16.6140766143799 0.166612267494202
endloop
endfacet
facet normal 0.707082509994507 0.00828523933887482 0.707082509994507
outer loop
vertex 0.178385987877846 -13.845064163208 0.163843557238579
vertex 0.148708790540695 -11.0760507583618 0.161074846982956
vertex 0.0853789374232292 -13.8447351455688 0.256846755743027
endloop
endfacet
facet normal 0.707082569599152 0.00828523933887482 0.707082569599152
outer loop
vertex 0.074303150177002 -11.0757884979248 0.235477402806282
vertex 0.0853789374232292 -13.8447351455688 0.256846755743027
vertex 0.148708790540695 -11.0760507583618 0.161074846982956
endloop
endfacet
facet normal 0.707082569599152 0.00828523933887482 0.707082569599152
outer loop
vertex 0.074303150177002 -11.0757884979248 0.235477402806282
vertex 0.148708790540695 -11.0760507583618 0.161074846982956
vertex 0.0632273629307747 -8.30684089660645 0.214108049869537
endloop
endfacet
facet normal 0.707082509994507 0.00828523933887482 0.707082509994507
outer loop
vertex 0.119031593203545 -8.30703830718994 0.158306136727333
vertex 0.0632273629307747 -8.30684089660645 0.214108049869537
vertex 0.148708790540695 -11.0760507583618 0.161074846982956
endloop
endfacet
facet normal 0.707082509994507 0.00828523933887482 0.707082509994507
outer loop
vertex 0.119031593203545 -8.30703830718994 0.158306136727333
vertex 0.089354395866394 -5.53802537918091 0.15553742647171
vertex 0.0632273629307747 -8.30684089660645 0.214108049869537
endloop
endfacet
facet normal 0.707082569599152 0.00828523933887482 0.707082569599152
outer loop
vertex 0.0521515756845474 -5.5378942489624 0.192738696932793
vertex 0.0632273629307747 -8.30684089660645 0.214108049869537
vertex 0.089354395866394 -5.53802537918091 0.15553742647171
endloop
endfacet
facet normal 0.707082569599152 0.00828523933887482 0.707082569599152
outer loop
vertex 0.0521515756845474 -5.5378942489624 0.192738696932793
vertex 0.089354395866394 -5.53802537918091 0.15553742647171
vertex 0.0410757884383202 -2.7689471244812 0.171369343996048
endloop
endfacet
facet normal 0.707082569599152 0.00828523933887482 0.707082569599152
outer loop
vertex 0.0596771985292435 -2.76901268959045 0.152768716216087
vertex 0.0410757884383202 -2.7689471244812 0.171369343996048
vertex 0.089354395866394 -5.53802537918091 0.15553742647171
endloop
endfacet
facet normal 0.707082569599152 0.00828523933887482 0.707082569599152
outer loop
vertex 0.0410757884383202 -2.7689471244812 0.171369343996048
vertex 0.0596771985292435 -2.76901268959045 0.152768716216087
vertex 0.0299999993294477 0 0.150000005960464
endloop
endfacet
facet normal 0.707086443901062 0.00757819879800081 -0.707086443901062
outer loop
vertex 0.274013310670853 -22.7677440643311 -0.0199999995529652
vertex 0.255413770675659 -22.7679405212402 -0.0386016145348549
vertex 0.244337692856789 -19.998851776123 -0.0199999995529652
endloop
endfacet
facet normal 0.707086443901062 0.00757819879800081 -0.707086443901062
outer loop
vertex 0.303688913583755 -25.5366363525391 -0.0199999995529652
vertex 0.266489863395691 -25.5370292663574 -0.0572032332420349
vertex 0.274013310670853 -22.7677440643311 -0.0199999995529652
endloop
endfacet
facet normal 0.707086443901062 0.00757819879800081 -0.707086443901062
outer loop
vertex 0.255413770675659 -22.7679405212402 -0.0386016145348549
vertex 0.274013310670853 -22.7677440643311 -0.0199999995529652
vertex 0.266489863395691 -25.5370292663574 -0.0572032332420349
endloop
endfacet
facet normal 0.707086443901062 0.00757819879800081 -0.707086443901062
outer loop
vertex 0.303688913583755 -25.5366363525391 -0.0199999995529652
vertex 0.333364516496658 -28.3055286407471 -0.0199999995529652
vertex 0.266489863395691 -25.5370292663574 -0.0572032332420349
endloop
endfacet
facet normal 0.707086443901062 0.0075781992636621 -0.707086443901062
outer loop
vertex 0.277565956115723 -28.3061180114746 -0.0758048444986343
vertex 0.266489863395691 -25.5370292663574 -0.0572032332420349
vertex 0.333364516496658 -28.3055286407471 -0.0199999995529652
endloop
endfacet
facet normal 0.707086443901062 0.0075781992636621 -0.707086443901062
outer loop
vertex 0.277565956115723 -28.3061180114746 -0.0758048444986343
vertex 0.333364516496658 -28.3055286407471 -0.0199999995529652
vertex 0.288642048835754 -31.0752048492432 -0.0944064632058144
endloop
endfacet
facet normal 0.707086443901062 0.00757819879800081 -0.707086443901062
outer loop
vertex 0.363040119409561 -31.0744228363037 -0.0199999995529652
vertex 0.288642048835754 -31.0752048492432 -0.0944064632058144
vertex 0.333364516496658 -28.3055286407471 -0.0199999995529652
endloop
endfacet
facet normal 0.707086443901062 0.00757819879800081 -0.707086443901062
outer loop
vertex 0.363040119409561 -31.0744228363037 -0.0199999995529652
vertex 0.392715722322464 -33.8433151245117 -0.0199999995529652
vertex 0.288642048835754 -31.0752048492432 -0.0944064632058144
endloop
endfacet
facet normal 0.707086443901062 0.0075781992636621 -0.707086443901062
outer loop
vertex 0.299718141555786 -33.844295501709 -0.113008081912994
vertex 0.288642048835754 -31.0752048492432 -0.0944064632058144
vertex 0.392715722322464 -33.8433151245117 -0.0199999995529652
endloop
endfacet
facet normal 0.707086443901062 0.0075781992636621 -0.707086443901062
outer loop
vertex 0.422391325235367 -36.6122055053711 -0.0199999995529652
vertex 0.310794234275818 -36.6133842468262 -0.131609693169594
vertex 0.392715722322464 -33.8433151245117 -0.0199999995529652
endloop
endfacet
facet normal 0.707086443901062 0.0075781992636621 -0.707086443901062
outer loop
vertex 0.299718141555786 -33.844295501709 -0.113008081912994
vertex 0.392715722322464 -33.8433151245117 -0.0199999995529652
vertex 0.310794234275818 -36.6133842468262 -0.131609693169594
endloop
endfacet
facet normal 0.707086503505707 0.00757819972932339 -0.707086503505707
outer loop
vertex 0.422391325235367 -36.6122055053711 -0.0199999995529652
vertex 0.445445895195007 -38.7633209228516 -0.0199999995529652
vertex 0.310794234275818 -36.6133842468262 -0.131609693169594
endloop
endfacet
facet normal 0.707086503505707 0.0075781992636621 -0.707086503505707
outer loop
vertex 0.319399237632751 -38.7646865844727 -0.146061286330223
vertex 0.310794234275818 -36.6133842468262 -0.131609693169594
vertex 0.445445895195007 -38.7633209228516 -0.0199999995529652
endloop
endfacet
facet normal 0.707086443901062 0.00757819972932339 -0.707086443901062
outer loop
vertex 0.445445895195007 -38.7633209228516 -0.0199999995529652
vertex 0.458675384521484 -39.9977035522461 -0.0199999995529652
vertex 0.319399237632751 -38.7646865844727 -0.146061286330223
endloop
endfacet
facet normal 0.707086503505707 0.00757819972932339 -0.707086503505707
outer loop
vertex 0.32433694601059 -39.9991416931152 -0.154353857040405
vertex 0.319399237632751 -38.7646865844727 -0.146061286330223
vertex 0.458675384521484 -39.9977035522461 -0.0199999995529652
endloop
endfacet
facet normal 0.212467193603516 0.674452662467957 -0.707086503505707
outer loop
vertex 35.5875091552734 -35.0350799560547 -0.234336957335472
vertex 35.5444030761719 -35.1623382568359 -0.368675380945206
vertex 34.411563873291 -34.6594543457031 -0.229399248957634
endloop
endfacet
facet normal 0.212467163801193 0.674452662467957 -0.707086443901062
outer loop
vertex 34.3711013793945 -34.7788543701172 -0.355445891618729
vertex 34.411563873291 -34.6594543457031 -0.229399248957634
vertex 35.5444030761719 -35.1623382568359 -0.368675380945206
endloop
endfacet
facet normal 0.212467163801193 0.674452662467957 -0.707086503505707
outer loop
vertex 34.411563873291 -34.6594543457031 -0.229399248957634
vertex 34.3711013793945 -34.7788543701172 -0.355445891618729
vertex 32.3622207641602 -34.0048446655273 -0.220794230699539
endloop
endfacet
facet normal 0.212467163801193 0.674452662467957 -0.707086503505707
outer loop
vertex 32.3264274597168 -34.1105651855469 -0.332391321659088
vertex 32.3622207641602 -34.0048446655273 -0.220794230699539
vertex 34.3711013793945 -34.7788543701172 -0.355445891618729
endloop
endfacet
facet normal 0.212467178702354 0.674452662467957 -0.707086503505707
outer loop
vertex 32.3264274597168 -34.1105651855469 -0.332391321659088
vertex 29.6945457458496 -33.2503547668457 -0.302715718746185
vertex 32.3622207641602 -34.0048446655273 -0.220794230699539
endloop
endfacet
facet normal 0.212467163801193 0.674452662467957 -0.707086443901062
outer loop
vertex 29.7243709564209 -33.1622543334961 -0.209718152880669
vertex 32.3622207641602 -34.0048446655273 -0.220794230699539
vertex 29.6945457458496 -33.2503547668457 -0.302715718746185
endloop
endfacet
facet normal 0.212467163801193 0.674452662467957 -0.707086443901062
outer loop
vertex 29.7243709564209 -33.1622543334961 -0.209718152880669
vertex 29.6945457458496 -33.2503547668457 -0.302715718746185
vertex 27.0865249633789 -32.3196640014648 -0.198642060160637
endloop
endfacet
facet normal 0.212467163801193 0.674452662467957 -0.707086443901062
outer loop
vertex 27.0626640319824 -32.3901443481445 -0.273040115833282
vertex 27.0865249633789 -32.3196640014648 -0.198642060160637
vertex 29.6945457458496 -33.2503547668457 -0.302715718746185
endloop
endfacet
facet normal 0.212467163801193 0.674452662467957 -0.707086443901062
outer loop
vertex 27.0626640319824 -32.3901443481445 -0.273040115833282
vertex 24.4307823181152 -31.5299320220947 -0.24336451292038
vertex 27.0865249633789 -32.3196640014648 -0.198642060160637
endloop
endfacet
facet normal 0.212467178702354 0.674452662467957 -0.707086503505707
outer loop
vertex 24.4486770629883 -31.477071762085 -0.187565967440605
vertex 27.0865249633789 -32.3196640014648 -0.198642060160637
vertex 24.4307823181152 -31.5299320220947 -0.24336451292038
endloop
endfacet
facet normal 0.212467178702354 0.674452662467957 -0.707086503505707
outer loop
vertex 24.4486770629883 -31.477071762085 -0.187565967440605
vertex 24.4307823181152 -31.5299320220947 -0.24336451292038
vertex 21.8108291625977 -30.6344814300537 -0.176489874720573
endloop
endfacet
facet normal 0.212467163801193 0.674452662467957 -0.707086443901062
outer loop
vertex 21.7988986968994 -30.6697216033936 -0.213688910007477
vertex 21.8108291625977 -30.6344814300537 -0.176489874720573
vertex 24.4307823181152 -31.5299320220947 -0.24336451292038
endloop
endfacet
facet normal 0.212467163801193 0.674452662467957 -0.707086443901062
outer loop
vertex 21.7988986968994 -30.6697216033936 -0.213688910007477
vertex 19.1670169830322 -29.8095111846924 -0.184013292193413
vertex 21.8108291625977 -30.6344814300537 -0.176489874720573
endloop
endfacet
facet normal 0.212467163801193 0.674452662467957 -0.707086443901062
outer loop
vertex 19.1729831695557 -29.7918891906738 -0.165413782000542
vertex 21.8108291625977 -30.6344814300537 -0.176489874720573
vertex 19.1670169830322 -29.8095111846924 -0.184013292193413
endloop
endfacet
facet normal 0.212467163801193 0.674452662467957 -0.707086443901062
outer loop
vertex 19.1670169830322 -29.8095111846924 -0.184013292193413
vertex 16.535135269165 -28.9492988586426 -0.15433768928051
vertex 19.1729831695557 -29.7918891906738 -0.165413782000542
endloop
endfacet
endsolid COMSOL mesh mesh1
