solid COMSOL mesh mesh1
facet normal -0.0163248516619205 0.999866664409637 0
outer loop
vertex 0 0 0
vertex -0.942547619342804 -0.0153890009969473 -0.00113120791502297
vertex 0 0 0.150000005960464
endloop
endfacet
facet normal -0.0163248516619205 0.999866724014282 -4.86937114295111e-18
outer loop
vertex -0.942547619342804 -0.0153890009969473 0.151131212711334
vertex 0 0 0.150000005960464
vertex -0.942547619342804 -0.0153890009969473 -0.00113120791502297
endloop
endfacet
facet normal -0.0163248516619205 0.999866724014282 -4.86937114295111e-18
outer loop
vertex -0.942547619342804 -0.0153890009969473 0.151131212711334
vertex -0.942547619342804 -0.0153890009969473 -0.00113120791502297
vertex -2.40816354751587 -0.0393181517720222 0.152890175580978
endloop
endfacet
facet normal -0.0163248516619205 0.999866724014282 1.00051581360515e-17
outer loop
vertex -2.40816354751587 -0.0393181517720222 -0.00289018149487674
vertex -2.40816354751587 -0.0393181517720222 0.152890175580978
vertex -0.942547619342804 -0.0153890009969473 -0.00113120791502297
endloop
endfacet
facet normal -0.0163248516619205 0.999866783618927 2.10767009741941e-16
outer loop
vertex -4.68712520599365 -0.076526828110218 0.15562529861927
vertex -2.40816354751587 -0.0393181517720222 0.152890175580978
vertex -4.68712520599365 -0.076526828110218 -0.00562530010938644
endloop
endfacet
facet normal -0.0163248516619205 0.999866724014282 1.00051564816902e-17
outer loop
vertex -2.40816354751587 -0.0393181517720222 -0.00289018149487674
vertex -4.68712520599365 -0.076526828110218 -0.00562530010938644
vertex -2.40816354751587 -0.0393181517720222 0.152890175580978
endloop
endfacet
facet normal -0.0163248535245657 0.999866783618927 2.10766996507051e-16
outer loop
vertex -4.68712520599365 -0.076526828110218 0.15562529861927
vertex -4.68712520599365 -0.076526828110218 -0.00562530010938644
vertex -8.07989692687988 -0.131920710206032 0.15969717502594
endloop
endfacet
facet normal -0.0163248516619205 0.999866724014282 -1.27025785625914e-16
outer loop
vertex -8.07989692687988 -0.131920710206032 -0.00969716906547546
vertex -8.07989692687988 -0.131920710206032 0.15969717502594
vertex -4.68712520599365 -0.076526828110218 -0.00562530010938644
endloop
endfacet
facet normal -0.0163248516619205 0.999866783618927 -1.27025785625914e-16
outer loop
vertex -8.07989692687988 -0.131920710206032 0.15969717502594
vertex -8.07989692687988 -0.131920710206032 -0.00969716906547546
vertex -11.7183828353882 -0.19132636487484 0.164063930511475
endloop
endfacet
facet normal -0.0163248516619205 0.999866783618927 3.49997355615152e-17
outer loop
vertex -11.7183828353882 -0.19132636487484 -0.0140639338642359
vertex -11.7183828353882 -0.19132636487484 0.164063930511475
vertex -8.07989692687988 -0.131920710206032 -0.00969716906547546
endloop
endfacet
facet normal -0.0163248535245657 0.999866783618927 2.08570904772616e-16
outer loop
vertex -15.3568696975708 -0.250732034444809 0.16843070089817
vertex -11.7183828353882 -0.19132636487484 0.164063930511475
vertex -15.3568696975708 -0.250732034444809 -0.0184306986629963
endloop
endfacet
facet normal -0.0163248516619205 0.999866783618927 3.49997355615152e-17
outer loop
vertex -11.7183828353882 -0.19132636487484 -0.0140639338642359
vertex -15.3568696975708 -0.250732034444809 -0.0184306986629963
vertex -11.7183828353882 -0.19132636487484 0.164063930511475
endloop
endfacet
facet normal -0.0163248516619205 0.999866783618927 2.08570891537727e-16
outer loop
vertex -15.3568696975708 -0.250732034444809 0.16843070089817
vertex -15.3568696975708 -0.250732034444809 -0.0184306986629963
vertex -18.9810733795166 -0.309904515743256 0.172780320048332
endloop
endfacet
facet normal -0.0163248516619205 0.999866724014282 3.34826247758553e-16
outer loop
vertex -18.9810733795166 -0.309904515743256 -0.0227803234010935
vertex -18.9810733795166 -0.309904515743256 0.172780320048332
vertex -15.3568696975708 -0.250732034444809 -0.0184306986629963
endloop
endfacet
facet normal -0.0163248535245657 0.999866783618927 3.34826300698113e-16
outer loop
vertex -18.9810733795166 -0.309904515743256 0.172780320048332
vertex -18.9810733795166 -0.309904515743256 -0.0227803234010935
vertex -21.8134155273438 -0.356148242950439 0.176179587841034
endloop
endfacet
facet normal -0.0163248535245657 0.999866783618927 -2.61959867894088e-16
outer loop
vertex -21.8134155273438 -0.356148242950439 -0.0261795874685049
vertex -21.8134155273438 -0.356148242950439 0.176179587841034
vertex -18.9810733795166 -0.309904515743256 -0.0227803234010935
endloop
endfacet
facet normal -0.0163248516619205 0.999866724014282 1.20513564716851e-17
outer loop
vertex -23.7171249389648 -0.387230157852173 0.178464338183403
vertex -21.8134155273438 -0.356148242950439 0.176179587841034
vertex -23.7171249389648 -0.387230157852173 -0.0284643415361643
endloop
endfacet
facet normal -0.0163248516619205 0.999866724014282 -2.61959841424308e-16
outer loop
vertex -21.8134155273438 -0.356148242950439 -0.0261795874685049
vertex -23.7171249389648 -0.387230157852173 -0.0284643415361643
vertex -21.8134155273438 -0.356148242950439 0.176179587841034
endloop
endfacet
facet normal -0.0163248516619205 0.999866724014282 1.20513564716851e-17
outer loop
vertex -23.7171249389648 -0.387230157852173 0.178464338183403
vertex -23.7171249389648 -0.387230157852173 -0.0284643415361643
vertex -24.9966678619385 -0.408121287822723 0.180000007152557
endloop
endfacet
facet normal -0.0163248535245657 0.999866783618927 0
outer loop
vertex -24.9966678619385 -0.408121287822723 -0.0299999993294477
vertex -24.9966678619385 -0.408121287822723 0.180000007152557
vertex -23.7171249389648 -0.387230157852173 -0.0284643415361643
endloop
endfacet
facet normal 0.00108362699393183 0.00713551277294755 0.999973893165588
outer loop
vertex -22.503625869751 -2.8695912361145 0.194862708449364
vertex -22.4829521179199 -2.84864830970764 0.194690868258476
vertex -24.9966678619385 -0.408121287822723 0.180000007152557
endloop
endfacet
facet normal 0.00108362699393183 0.00713551277294755 0.999973893165588
outer loop
vertex -20.0105819702148 -5.33106136322021 0.209725424647331
vertex -19.9692363739014 -5.28917503356934 0.209381729364395
vertex -22.503625869751 -2.8695912361145 0.194862708449364
endloop
endfacet
facet normal 0.00108362699393183 0.00713551277294755 0.999973893165588
outer loop
vertex -22.4829521179199 -2.84864830970764 0.194690868258476
vertex -22.503625869751 -2.8695912361145 0.194862708449364
vertex -19.9692363739014 -5.28917503356934 0.209381729364395
endloop
endfacet
facet normal 0.00108362699393183 0.00713551277294755 0.999973893165588
outer loop
vertex -20.0105819702148 -5.33106136322021 0.209725424647331
vertex -17.5175399780273 -7.79253149032593 0.224588125944138
vertex -19.9692363739014 -5.28917503356934 0.209381729364395
endloop
endfacet
facet normal 0.00108362699393183 0.00713551277294755 0.999974012374878
outer loop
vertex -17.4555187225342 -7.72970199584961 0.224072590470314
vertex -19.9692363739014 -5.28917503356934 0.209381729364395
vertex -17.5175399780273 -7.79253149032593 0.224588125944138
endloop
endfacet
facet normal 0.00108362699393183 0.00713551277294755 0.999973893165588
outer loop
vertex -15.0244970321655 -10.2540016174316 0.239450842142105
vertex -14.9418029785156 -10.1702289581299 0.238763451576233
vertex -17.5175399780273 -7.79253149032593 0.224588125944138
endloop
endfacet
facet normal 0.00108362699393183 0.00713551277294755 0.999974012374878
outer loop
vertex -17.4555187225342 -7.72970199584961 0.224072590470314
vertex -17.5175399780273 -7.79253149032593 0.224588125944138
vertex -14.9418029785156 -10.1702289581299 0.238763451576233
endloop
endfacet
facet normal 0.00108362699393183 0.00713551277294755 0.999973893165588
outer loop
vertex -15.0244970321655 -10.2540016174316 0.239450842142105
vertex -12.5314540863037 -12.7154712677002 0.254313558340073
vertex -14.9418029785156 -10.1702289581299 0.238763451576233
endloop
endfacet
facet normal 0.00108362687751651 0.00713551230728626 0.999974012374878
outer loop
vertex -12.4280862808228 -12.6107559204102 0.253454327583313
vertex -14.9418029785156 -10.1702289581299 0.238763451576233
vertex -12.5314540863037 -12.7154712677002 0.254313558340073
endloop
endfacet
facet normal 0.00108362699393183 0.00713551277294755 0.999974012374878
outer loop
vertex -10.0384111404419 -15.1769418716431 0.269176244735718
vertex -9.91436958312988 -15.0512828826904 0.268145173788071
vertex -12.5314540863037 -12.7154712677002 0.254313558340073
endloop
endfacet
facet normal 0.00108362687751651 0.00713551230728626 0.999974012374878
outer loop
vertex -12.4280862808228 -12.6107559204102 0.253454327583313
vertex -12.5314540863037 -12.7154712677002 0.254313558340073
vertex -9.91436958312988 -15.0512828826904 0.268145173788071
endloop
endfacet
facet normal 0.00108362699393183 0.00713551277294755 0.999973952770233
outer loop
vertex -10.0384111404419 -15.1769418716431 0.269176244735718
vertex -8.2113618850708 -16.9808521270752 0.280068546533585
vertex -9.91436958312988 -15.0512828826904 0.268145173788071
endloop
endfacet
facet normal 0.00108362699393183 0.00713551323860884 0.999974012374878
outer loop
vertex -8.07213973999023 -16.8398742675781 0.278911679983139
vertex -9.91436958312988 -15.0512828826904 0.268145173788071
vertex -8.2113618850708 -16.9808521270752 0.280068546533585
endloop
endfacet
facet normal 0.00108362687751651 0.00713551230728626 0.999973893165588
outer loop
vertex -8.2113618850708 -16.9808521270752 0.280068546533585
vertex -7.20686864852905 -17.9726238250732 0.286056995391846
vertex -8.07213973999023 -16.8398742675781 0.278911679983139
endloop
endfacet
facet normal 0.00108362699393183 0.00713551277294755 0.999973952770233
outer loop
vertex -7.05932664871216 -17.8231983184814 0.284830838441849
vertex -8.07213973999023 -16.8398742675781 0.278911679983139
vertex -7.20686864852905 -17.9726238250732 0.286056995391846
endloop
endfacet
facet normal -0.707119882106781 0.00589715782552958 0.707069158554077
outer loop
vertex -16.6791248321533 -0.0741889402270317 -16.6797027587891
vertex -17.6772747039795 -0.0786287263035774 -17.6778888702393
vertex -16.6795215606689 -0.27232700586319 -16.6784477233887
endloop
endfacet
facet normal -0.707119822502136 0.00589715782552958 0.707069098949432
outer loop
vertex -17.6776847839355 -0.288624048233032 -17.6765460968018
vertex -16.6795215606689 -0.27232700586319 -16.6784477233887
vertex -17.6772747039795 -0.0786287263035774 -17.6778888702393
endloop
endfacet
facet normal -0.707119882106781 0.00589715782552958 0.707069098949432
outer loop
vertex -16.6795215606689 -0.27232700586319 -16.6784477233887
vertex -14.8639459609985 -0.242684066295624 -14.8629894256592
vertex -16.6791248321533 -0.0741889402270317 -16.6797027587891
endloop
endfacet
facet normal -0.707119882106781 0.00589715782552958 0.707069098949432
outer loop
vertex -14.863618850708 -0.0661135464906693 -14.8641347885132
vertex -16.6791248321533 -0.0741889402270317 -16.6797027587891
vertex -14.8639459609985 -0.242684066295624 -14.8629894256592
endloop
endfacet
facet normal -0.707119882106781 0.00589715829119086 0.707069098949432
outer loop
vertex -14.863618850708 -0.0661135464906693 -14.8641347885132
vertex -14.8639459609985 -0.242684066295624 -14.8629894256592
vertex -12.3863487243652 -0.055094625800848 -12.3867788314819
endloop
endfacet
facet normal -0.707119882106781 0.00589715829119086 0.707069098949432
outer loop
vertex -12.386622428894 -0.202236726880074 -12.3858251571655
vertex -12.3863487243652 -0.055094625800848 -12.3867788314819
vertex -14.8639459609985 -0.242684066295624 -14.8629894256592
endloop
endfacet
facet normal -0.707119882106781 0.00589715829119086 0.707069098949432
outer loop
vertex -12.386622428894 -0.202236726880074 -12.3858251571655
vertex -9.90929794311523 -0.161789372563362 -9.90865993499756
vertex -12.3863487243652 -0.055094625800848 -12.3867788314819
endloop
endfacet
facet normal -0.707119882106781 0.00589715782552958 0.707069098949432
outer loop
vertex -9.90907859802246 -0.0440756976604462 -9.90942287445068
vertex -12.3863487243652 -0.055094625800848 -12.3867788314819
vertex -9.90929794311523 -0.161789372563362 -9.90865993499756
endloop
endfacet
facet normal -0.707119882106781 0.00589715782552958 0.707069098949432
outer loop
vertex -9.90907859802246 -0.0440756976604462 -9.90942287445068
vertex -9.90929794311523 -0.161789372563362 -9.90865993499756
vertex -7.431809425354 -0.0330567732453346 -7.43206739425659
endloop
endfacet
facet normal -0.707119882106781 0.00589715829119086 0.707069098949432
outer loop
vertex -7.43197298049927 -0.121342033147812 -7.43149471282959
vertex -7.431809425354 -0.0330567732453346 -7.43206739425659
vertex -9.90929794311523 -0.161789372563362 -9.90865993499756
endloop
endfacet
facet normal -0.707119882106781 0.00589715829119086 0.707069098949432
outer loop
vertex -7.43197298049927 -0.121342033147812 -7.43149471282959
vertex -4.95464897155762 -0.0808946862816811 -4.95432996749878
vertex -7.431809425354 -0.0330567732453346 -7.43206739425659
endloop
endfacet
facet normal -0.707119882106781 0.00589715782552958 0.707069098949432
outer loop
vertex -4.95453929901123 -0.0220378488302231 -4.95471143722534
vertex -7.431809425354 -0.0330567732453346 -7.43206739425659
vertex -4.95464897155762 -0.0808946862816811 -4.95432996749878
endloop
endfacet
facet normal -0.707119882106781 0.00589715782552958 0.707069098949432
outer loop
vertex -4.95453929901123 -0.0220378488302231 -4.95471143722534
vertex -4.95464897155762 -0.0808946862816811 -4.95432996749878
vertex -2.47726964950562 -0.0110189244151115 -2.47735571861267
endloop
endfacet
facet normal -0.707119882106781 0.00589715782552958 0.707069098949432
outer loop
vertex -2.47732448577881 -0.0404473431408405 -2.47716498374939
vertex -2.47726964950562 -0.0110189244151115 -2.47735571861267
vertex -4.95464897155762 -0.0808946862816811 -4.95432996749878
endloop
endfacet
facet normal -0.707119882106781 0.00589715782552958 0.707069098949432
outer loop
vertex -2.47726964950562 -0.0110189244151115 -2.47735571861267
vertex -2.47732448577881 -0.0404473431408405 -2.47716498374939
vertex 0 0 0
endloop
endfacet
facet normal 0.707075119018555 0.00844228640198708 -0.707088053226471
outer loop
vertex -0.142100661993027 -0.0320821106433868 -0.142481088638306
vertex -0.142438411712646 -0.000633567688055336 -0.142443358898163
vertex 0.000322170817526057 -0.0299982484430075 -3.59995356120635e-05
endloop
endfacet
facet normal 0.70707505941391 0.00844228640198708 -0.707088053226471
outer loop
vertex 0 0 0
vertex 0.000322170817526057 -0.0299982484430075 -3.59995356120635e-05
vertex -0.142438411712646 -0.000633567688055336 -0.142443358898163
endloop
endfacet
facet normal 0.707075119018555 0.00844228640198708 -0.707088112831116
outer loop
vertex -0.142100661993027 -0.0320821106433868 -0.142481088638306
vertex -0.391903132200241 -0.0357371009886265 -0.39232262969017
vertex -0.142438411712646 -0.000633567688055336 -0.142443358898163
endloop
endfacet
facet normal 0.707075119018555 0.00844228640198708 -0.707088112831116
outer loop
vertex -0.39226821064949 -0.00174481351859868 -0.392281830310822
vertex -0.142438411712646 -0.000633567688055336 -0.142443358898163
vertex -0.391903132200241 -0.0357371009886265 -0.39232262969017
endloop
endfacet
facet normal 0.707075119018555 0.00844228640198708 -0.707088112831116
outer loop
vertex -0.391903132200241 -0.0357371009886265 -0.39232262969017
vertex -0.830044150352478 -0.0421477667987347 -0.830532073974609
vertex -0.39226821064949 -0.00174481351859868 -0.392281830310822
endloop
endfacet
facet normal 0.70707505941391 0.00844228640198708 -0.707088112831116
outer loop
vertex -0.830457091331482 -0.00369388284161687 -0.830485939979553
vertex -0.39226821064949 -0.00174481351859868 -0.392281830310822
vertex -0.830044150352478 -0.0421477667987347 -0.830532073974609
endloop
endfacet
facet normal 0.70707505941391 0.00844228640198708 -0.707088112831116
outer loop
vertex -1.59852135181427 -0.0533917546272278 -1.59912943840027
vertex -1.59901833534241 -0.0071124522946775 -1.59907388687134
vertex -0.830044150352478 -0.0421477667987347 -0.830532073974609
endloop
endfacet
facet normal 0.70707505941391 0.00844228640198708 -0.707088053226471
outer loop
vertex -0.830457091331482 -0.00369388284161687 -0.830485939979553
vertex -0.830044150352478 -0.0421477667987347 -0.830532073974609
vertex -1.59901833534241 -0.0071124522946775 -1.59907388687134
endloop
endfacet
facet normal 0.70707505941391 0.0084422854706645 -0.707088053226471
outer loop
vertex -1.59852135181427 -0.0533917546272278 -1.59912943840027
vertex -2.94639182090759 -0.0731131434440613 -2.94721055030823
vertex -1.59901833534241 -0.0071124522946775 -1.59907388687134
endloop
endfacet
facet normal 0.70707505941391 0.00844228640198708 -0.707088112831116
outer loop
vertex -2.9470362663269 -0.0131084509193897 -2.94713854789734
vertex -1.59901833534241 -0.0071124522946775 -1.59907388687134
vertex -2.94639182090759 -0.0731131434440613 -2.94721055030823
endloop
endfacet
facet normal 0.707075119018555 0.00844228733330965 -0.707088112831116
outer loop
vertex -5.25266551971436 -0.0233639180660248 -5.25284767150879
vertex -2.9470362663269 -0.0131084509193897 -2.94713854789734
vertex -5.25176906585693 -0.106844305992126 -5.25294828414917
endloop
endfacet
facet normal 0.70707505941391 0.00844228640198708 -0.707088053226471
outer loop
vertex -2.94639182090759 -0.0731131434440613 -2.94721055030823
vertex -5.25176906585693 -0.106844305992126 -5.25294828414917
vertex -2.9470362663269 -0.0131084509193897 -2.94713854789734
endloop
endfacet
facet normal 0.70707505941391 0.00844228640198708 -0.707088053226471
outer loop
vertex -5.25266551971436 -0.0233639180660248 -5.25284767150879
vertex -5.25176906585693 -0.106844305992126 -5.25294828414917
vertex -7.90265798568726 -0.0351511128246784 -7.90293216705322
endloop
endfacet
facet normal 0.707075119018555 0.00844228640198708 -0.707088053226471
outer loop
vertex -7.90147161483765 -0.145613476634026 -7.9030647277832
vertex -7.90265798568726 -0.0351511128246784 -7.90293216705322
vertex -5.25176906585693 -0.106844305992126 -5.25294828414917
endloop
endfacet
facet normal 0.707075119018555 0.00844228640198708 -0.707088053226471
outer loop
vertex -7.90265798568726 -0.0351511128246784 -7.90293216705322
vertex -7.90147161483765 -0.145613476634026 -7.9030647277832
vertex -10.5526504516602 -0.0469383113086224 -10.5530166625977
endloop
endfacet
facet normal 0.707075178623199 0.00844228640198708 -0.707088112831116
outer loop
vertex -10.5511741638184 -0.184382632374763 -10.5531816482544
vertex -10.5526504516602 -0.0469383113086224 -10.5530166625977
vertex -7.90147161483765 -0.145613476634026 -7.9030647277832
endloop
endfacet
facet normal 0.70707505941391 0.00844228640198708 -0.707088053226471
outer loop
vertex -13.2024269104004 -0.0587245523929596 -13.2028856277466
vertex -10.5526504516602 -0.0469383113086224 -10.5530166625977
vertex -13.2006616592407 -0.223148658871651 -13.2030830383301
endloop
endfacet
facet normal 0.70707505941391 0.00844228640198708 -0.707088112831116
outer loop
vertex -10.5511741638184 -0.184382632374763 -10.5531816482544
vertex -13.2006616592407 -0.223148658871651 -13.2030830383301
vertex -10.5526504516602 -0.0469383113086224 -10.5530166625977
endloop
endfacet
facet normal 0.70707505941391 0.00844228640198708 -0.707088053226471
outer loop
vertex -13.2024269104004 -0.0587245523929596 -13.2028856277466
vertex -13.2006616592407 -0.223148658871651 -13.2030830383301
vertex -15.3470191955566 -0.0682637169957161 -15.3475513458252
endloop
endfacet
facet normal 0.70707505941391 0.00844228640198708 -0.707088053226471
outer loop
vertex -15.3450183868408 -0.25452384352684 -15.3477754592896
vertex -15.3470191955566 -0.0682637169957161 -15.3475513458252
vertex -13.2006616592407 -0.223148658871651 -13.2030830383301
endloop
endfacet
facet normal 0.70707505941391 0.00844228640198708 -0.707088053226471
outer loop
vertex -16.7541408538818 -0.0745226144790649 -16.7547225952148
vertex -15.3470191955566 -0.0682637169957161 -15.3475513458252
vertex -16.7519855499268 -0.27510991692543 -16.7549629211426
endloop
endfacet
facet normal 0.70707505941391 0.00844228640198708 -0.707088112831116
outer loop
vertex -15.3450183868408 -0.25452384352684 -15.3477754592896
vertex -16.7519855499268 -0.27510991692543 -16.7549629211426
vertex -15.3470191955566 -0.0682637169957161 -15.3475513458252
endloop
endfacet
facet normal 0.70707505941391 0.00844228640198708 -0.707088053226471
outer loop
vertex -16.7541408538818 -0.0745226144790649 -16.7547225952148
vertex -16.7519855499268 -0.27510991692543 -16.7549629211426
vertex -17.6773891448975 -0.078629232943058 -17.6780033111572
endloop
endfacet
facet normal 0.70707505941391 0.00844228640198708 -0.707088053226471
outer loop
vertex -17.6751346588135 -0.288616985082626 -17.6782550811768
vertex -17.6773891448975 -0.078629232943058 -17.6780033111572
vertex -16.7519855499268 -0.27510991692543 -16.7549629211426
endloop
endfacet
facet normal -0.320762366056442 -0.947159707546234 -1.8117062347946e-14
outer loop
vertex -2.95588707923889 -28.4032821655273 0.0907251909375191
vertex -3.14668440818787 -28.3386688232422 0.0900000035762787
vertex -2.95588707923889 -28.4032821655273 0.0592748112976551
endloop
endfacet
facet normal -0.320762366056442 -0.947159707546234 0
outer loop
vertex -3.14668440818787 -28.3386688232422 0.0599999986588955
vertex -2.95588707923889 -28.4032821655273 0.0592748112976551
vertex -3.14668440818787 -28.3386688232422 0.0900000035762787
endloop
endfacet
facet normal -0.320762395858765 -0.947159707546234 -1.8117062347946e-14
outer loop
vertex -2.95588707923889 -28.4032821655273 0.0907251909375191
vertex -2.95588707923889 -28.4032821655273 0.0592748112976551
vertex -2.62123823165894 -28.5166149139404 0.0919971317052841
endloop
endfacet
facet normal -0.320762366056442 -0.947159707546234 8.64159072533517e-14
outer loop
vertex -2.62123823165894 -28.5166149139404 0.0580028630793095
vertex -2.62123823165894 -28.5166149139404 0.0919971317052841
vertex -2.95588707923889 -28.4032821655273 0.0592748112976551
endloop
endfacet
facet normal -0.320762366056442 -0.947159647941589 8.64159140296153e-14
outer loop
vertex -2.62123823165894 -28.5166149139404 0.0919971317052841
vertex -2.62123823165894 -28.5166149139404 0.0580028630793095
vertex -2.03428101539612 -28.7153911590576 0.0942280665040016
endloop
endfacet
facet normal -0.320762366056442 -0.947159707546234 -2.47689347331048e-13
outer loop
vertex -2.03428101539612 -28.7153911590576 0.0557719357311726
vertex -2.03428101539612 -28.7153911590576 0.0942280665040016
vertex -2.62123823165894 -28.5166149139404 0.0580028630793095
endloop
endfacet
facet normal -0.320762366056442 -0.947159707546234 -8.19395956251287e-14
outer loop
vertex -1.00478768348694 -29.064037322998 0.0981409996747971
vertex -2.03428101539612 -28.7153911590576 0.0942280665040016
vertex -1.00478768348694 -29.064037322998 0.0518589988350868
endloop
endfacet
facet normal -0.32076233625412 -0.947159707546234 -2.47689320225994e-13
outer loop
vertex -2.03428101539612 -28.7153911590576 0.0557719357311726
vertex -1.00478768348694 -29.064037322998 0.0518589988350868
vertex -2.03428101539612 -28.7153911590576 0.0942280665040016
endloop
endfacet
facet normal -0.320762366056442 -0.947159647941589 -8.19395956251287e-14
outer loop
vertex -1.00478768348694 -29.064037322998 0.0981409996747971
vertex -1.00478768348694 -29.064037322998 0.0518589988350868
vertex 0.800891995429993 -29.6755428314209 0.105004094541073
endloop
endfacet
facet normal -0.320762366056442 -0.947159707546234 -5.60754649095094e-14
outer loop
vertex 0.800891995429993 -29.6755428314209 0.044995903968811
vertex 0.800891995429993 -29.6755428314209 0.105004094541073
vertex -1.00478768348694 -29.064037322998 0.0518589988350868
endloop
endfacet
facet normal -0.320762395858765 -0.947159707546234 -5.60754649095094e-14
outer loop
vertex 0.800891995429993 -29.6755428314209 0.105004094541073
vertex 0.800891995429993 -29.6755428314209 0.044995903968811
vertex 3.8892993927002 -30.7214546203613 0.116742633283138
endloop
endfacet
facet normal -0.320762366056442 -0.947159767150879 -1.175065903955e-13
outer loop
vertex 3.8892993927002 -30.7214546203613 0.0332573689520359
vertex 3.8892993927002 -30.7214546203613 0.116742633283138
vertex 0.800891995429993 -29.6755428314209 0.044995903968811
endloop
endfacet
facet normal -0.320762366056442 -0.947159707546234 -0
outer loop
vertex 7.43898344039917 -31.9235801696777 0.130234405398369
vertex 3.8892993927002 -30.7214546203613 0.116742633283138
vertex 7.43898344039917 -31.9235801696777 0.0197655968368053
endloop
endfacet
facet normal -0.32076233625412 -0.947159647941589 -1.17506576842973e-13
outer loop
vertex 3.8892993927002 -30.7214546203613 0.0332573689520359
vertex 7.43898344039917 -31.9235801696777 0.0197655968368053
vertex 3.8892993927002 -30.7214546203613 0.116742633283138
endloop
endfacet
facet normal -0.320762366056442 -0.947159707546234 0
outer loop
vertex 7.43898344039917 -31.9235801696777 0.0197655968368053
vertex 10.9886674880981 -33.1257057189941 0.00627382518723607
vertex 7.43898344039917 -31.9235801696777 0.130234405398369
endloop
endfacet
facet normal -0.320762366056442 -0.947159707546234 -4.481688254559e-14
outer loop
vertex 10.9886674880981 -33.1257057189941 0.143726170063019
vertex 7.43898344039917 -31.9235801696777 0.130234405398369
vertex 10.9886674880981 -33.1257057189941 0.00627382518723607
endloop
endfacet
facet normal -0.32076233625412 -0.947159647941589 -4.48168791574582e-14
outer loop
vertex 10.9886674880981 -33.1257057189941 0.143726170063019
vertex 10.9886674880981 -33.1257057189941 0.00627382518723607
vertex 14.5380630493164 -34.3277320861816 0.157216846942902
endloop
endfacet
facet normal -0.32076233625412 -0.947159707546234 -6.17191234643204e-14
outer loop
vertex 14.5380630493164 -34.3277320861816 -0.00721685029566288
vertex 14.5380630493164 -34.3277320861816 0.157216846942902
vertex 10.9886674880981 -33.1257057189941 0.00627382518723607
endloop
endfacet
facet normal -0.32076233625412 -0.947159647941589 -0
outer loop
vertex 17.410758972168 -35.300594329834 0.168135493993759
vertex 14.5380630493164 -34.3277320861816 0.157216846942902
vertex 17.410758972168 -35.300594329834 -0.0181355010718107
endloop
endfacet
facet normal -0.320762366056442 -0.947159707546234 -6.1719130240584e-14
outer loop
vertex 14.5380630493164 -34.3277320861816 -0.00721685029566288
vertex 17.410758972168 -35.300594329834 -0.0181355010718107
vertex 14.5380630493164 -34.3277320861816 0.157216846942902
endloop
endfacet
facet normal -0.320762366056442 -0.947159707546234 -0
outer loop
vertex 17.410758972168 -35.300594329834 0.168135493993759
vertex 17.410758972168 -35.300594329834 -0.0181355010718107
vertex 19.2956085205078 -35.9389114379883 0.175299510359764
endloop
endfacet
facet normal -0.320762366056442 -0.947159707546234 -3.35493893950656e-14
outer loop
vertex 19.2956085205078 -35.9389114379883 -0.0252995081245899
vertex 19.2956085205078 -35.9389114379883 0.175299510359764
vertex 17.410758972168 -35.300594329834 -0.0181355010718107
endloop
endfacet
facet normal -0.320762366056442 -0.947159707546234 -3.35493893950656e-14
outer loop
vertex 19.2956085205078 -35.9389114379883 0.175299510359764
vertex 19.2956085205078 -35.9389114379883 -0.0252995081245899
vertex 20.5323085784912 -36.3577270507813 0.180000007152557
endloop
endfacet
facet normal -0.32076233625412 -0.947159647941589 0
outer loop
vertex 20.5323085784912 -36.3577270507813 -0.0299999993294477
vertex 20.5323085784912 -36.3577270507813 0.180000007152557
vertex 19.2956085205078 -35.9389114379883 -0.0252995081245899
endloop
endfacet
facet normal 0.00905672833323479 -0.00299522187560797 0.999954462051392
outer loop
vertex -3.09958577156067 -28.1962547302246 0.0599999986588955
vertex -3.14668440818787 -28.3386688232422 0.0599999986588955
vertex -2.20427298545837 -28.4911594390869 0.0510076843202114
endloop
endfacet
facet normal 0.00905672833323479 -0.00299522210843861 0.999954521656036
outer loop
vertex -2.25208234786987 -28.635721206665 0.0510076843202114
vertex -2.20427298545837 -28.4911594390869 0.0510076843202114
vertex -3.14668440818787 -28.3386688232422 0.0599999986588955
endloop
endfacet
facet normal 0.00905672833323479 -0.00299522210843861 0.999954521656036
outer loop
vertex -0.861019134521484 -29.0976219177246 0.0370250679552555
vertex -0.812105298042297 -28.9497203826904 0.0370250679552555
vertex -2.25208234786987 -28.635721206665 0.0510076843202114
endloop
endfacet
facet normal 0.00905672833323479 -0.00299522210843861 0.999954462051392
outer loop
vertex -2.20427298545837 -28.4911594390869 0.0510076843202114
vertex -2.25208234786987 -28.635721206665 0.0510076843202114
vertex -0.812105298042297 -28.9497203826904 0.0370250679552555
endloop
endfacet
facet normal 0.00905672926455736 -0.00299522210843861 0.999954521656036
outer loop
vertex -0.861019134521484 -29.0976219177246 0.0370250679552555
vertex 1.3020167350769 -29.8158588409424 0.0152827743440866
vertex -0.812105298042297 -28.9497203826904 0.0370250679552555
endloop
endfacet
facet normal 0.00905672833323479 -0.00299522187560797 0.999954521656036
outer loop
vertex 1.35264813899994 -29.6627616882324 0.0152827743440866
vertex -0.812105298042297 -28.9497203826904 0.0370250679552555
vertex 1.3020167350769 -29.8158588409424 0.0152827743440866
endloop
endfacet
facet normal 0.00905672833323479 -0.00299522210843861 0.999954462051392
outer loop
vertex 4.5222053527832 -30.8851203918457 -0.0170857515186071
vertex 4.57539367675781 -30.724292755127 -0.0170857515186071
vertex 1.3020167350769 -29.8158588409424 0.0152827743440866
endloop
endfacet
facet normal 0.00905672926455736 -0.00299522234126925 0.999954581260681
outer loop
vertex 1.35264813899994 -29.6627616882324 0.0152827743440866
vertex 1.3020167350769 -29.8158588409424 0.0152827743440866
vertex 4.57539367675781 -30.724292755127 -0.0170857515186071
endloop
endfacet
facet normal 0.00905672926455736 -0.00299522234126925 0.999954581260681
outer loop
vertex 4.5222053527832 -30.8851203918457 -0.0170857515186071
vertex 7.97560930252075 -32.0318222045898 -0.0517985001206398
vertex 4.57539367675781 -30.724292755127 -0.0170857515186071
endloop
endfacet
facet normal 0.00905672833323479 -0.00299522210843861 0.999954462051392
outer loop
vertex 8.03153991699219 -31.8627033233643 -0.0517985001206398
vertex 4.57539367675781 -30.724292755127 -0.0170857515186071
vertex 7.97560930252075 -32.0318222045898 -0.0517985001206398
endloop
endfacet
facet normal 0.00905672833323479 -0.00299522210843861 0.999954462051392
outer loop
vertex 7.97560930252075 -32.0318222045898 -0.0517985001206398
vertex 11.4290132522583 -33.178524017334 -0.0865112468600273
vertex 8.03153991699219 -31.8627033233643 -0.0517985001206398
endloop
endfacet
facet normal 0.00905672926455736 -0.00299522210843861 0.999954521656036
outer loop
vertex 11.4876861572266 -33.0011138916016 -0.0865112468600273
vertex 8.03153991699219 -31.8627033233643 -0.0517985001206398
vertex 11.4290132522583 -33.178524017334 -0.0865112468600273
endloop
endfacet
facet normal 0.00905672833323479 -0.00299522210843861 0.999954521656036
outer loop
vertex 14.9302663803101 -34.1350555419922 -0.121087737381458
vertex 11.4876861572266 -33.0011138916016 -0.0865112468600273
vertex 14.8688621520996 -34.3207244873047 -0.121087737381458
endloop
endfacet
facet normal 0.00905672926455736 -0.00299522210843861 0.999954521656036
outer loop
vertex 11.4290132522583 -33.178524017334 -0.0865112468600273
vertex 14.8688621520996 -34.3207244873047 -0.121087737381458
vertex 11.4876861572266 -33.0011138916016 -0.0865112468600273
endloop
endfacet
facet normal 0.00905672833323479 -0.00299522210843861 0.999954462051392
outer loop
vertex 14.9302663803101 -34.1350555419922 -0.121087737381458
vertex 14.8688621520996 -34.3207244873047 -0.121087737381458
vertex 17.6206684112549 -35.0212364196777 -0.148109525442123
endloop
endfacet
facet normal 0.00905672926455736 -0.00299522210843861 0.999954581260681
outer loop
vertex 17.55712890625 -35.2133636474609 -0.148109525442123
vertex 17.6206684112549 -35.0212364196777 -0.148109525442123
vertex 14.8688621520996 -34.3207244873047 -0.121087737381458
endloop
endfacet
facet normal 0.00905672833323479 -0.00299522187560797 0.999954462051392
outer loop
vertex 19.3640003204346 -35.8133354187012 -0.166271731257439
vertex 19.4289741516113 -35.616870880127 -0.166271731257439
vertex 17.55712890625 -35.2133636474609 -0.148109525442123
endloop
endfacet
facet normal 0.00905672833323479 -0.00299522187560797 0.999954521656036
outer loop
vertex 17.6206684112549 -35.0212364196777 -0.148109525442123
vertex 17.55712890625 -35.2133636474609 -0.148109525442123
vertex 19.4289741516113 -35.616870880127 -0.166271731257439
endloop
endfacet
facet normal 0.00905672926455736 -0.00299522234126925 0.999954521656036
outer loop
vertex 19.3640003204346 -35.8133354187012 -0.166271731257439
vertex 20.5784568786621 -36.2165946960449 -0.17847914993763
vertex 19.4289741516113 -35.616870880127 -0.166271731257439
endloop
endfacet
facet normal 0.00905672833323479 -0.00299522210843861 0.999954521656036
outer loop
vertex 20.6443939208984 -36.0172157287598 -0.17847914993763
vertex 19.4289741516113 -35.616870880127 -0.166271731257439
vertex 20.5784568786621 -36.2165946960449 -0.17847914993763
endloop
endfacet
facet normal -0.229229256510735 -0.668941497802734 -0.707086384296417
outer loop
vertex 20.5792770385742 -36.2168617248535 -0.178489476442337
vertex 20.532154083252 -36.3576736450195 -0.0299971234053373
vertex 19.239616394043 -35.772029876709 -0.165023431181908
endloop
endfacet
facet normal -0.229229271411896 -0.668941557407379 -0.707086384296417
outer loop
vertex 19.1951389312744 -35.9048843383789 -0.0249154772609472
vertex 19.239616394043 -35.772029876709 -0.165023431181908
vertex 20.532154083252 -36.3576736450195 -0.0299971234053373
endloop
endfacet
facet normal -0.229229286313057 -0.668941557407379 -0.707086443901062
outer loop
vertex 19.239616394043 -35.772029876709 -0.165023431181908
vertex 19.1951389312744 -35.9048843383789 -0.0249154772609472
vertex 16.8028736114502 -34.9629096984863 -0.140529692173004
endloop
endfacet
facet normal -0.229229271411896 -0.668941557407379 -0.707086384296417
outer loop
vertex 16.7632732391357 -35.0813179016113 -0.0156725831329823
vertex 16.8028736114502 -34.9629096984863 -0.140529692173004
vertex 19.1951389312744 -35.9048843383789 -0.0249154772609472
endloop
endfacet
facet normal -0.229229271411896 -0.668941557407379 -0.707086443901062
outer loop
vertex 16.7632732391357 -35.0813179016113 -0.0156725831329823
vertex 13.4449472427368 -33.9575424194336 -0.00306048546917737
vertex 16.8028736114502 -34.9629096984863 -0.140529692173004
endloop
endfacet
facet normal -0.229229256510735 -0.668941497802734 -0.707086324691772
outer loop
vertex 13.4779481887817 -33.8588714599609 -0.107108078896999
vertex 16.8028736114502 -34.9629096984863 -0.140529692173004
vertex 13.4449472427368 -33.9575424194336 -0.00306048546917737
endloop
endfacet
facet normal -0.229229256510735 -0.668941497802734 -0.707086324691772
outer loop
vertex 13.4779481887817 -33.8588714599609 -0.107108078896999
vertex 13.4449472427368 -33.9575424194336 -0.00306048546917737
vertex 10.1530208587646 -32.7548294067383 -0.0736864656209946
endloop
endfacet
facet normal -0.229229256510735 -0.668941557407379 -0.707086384296417
outer loop
vertex 10.1266202926636 -32.8337669372559 0.00955161172896624
vertex 10.1530208587646 -32.7548294067383 -0.0736864656209946
vertex 13.4449472427368 -33.9575424194336 -0.00306048546917737
endloop
endfacet
facet normal -0.229229256510735 -0.668941557407379 -0.707086384296417
outer loop
vertex 10.1266202926636 -32.8337669372559 0.00955161172896624
vertex 6.80829429626465 -31.7099933624268 0.0221637077629566
vertex 10.1530208587646 -32.7548294067383 -0.0736864656209946
endloop
endfacet
facet normal -0.229229271411896 -0.668941557407379 -0.707086443901062
outer loop
vertex 6.82809495925903 -31.6507892608643 -0.0402648486196995
vertex 10.1530208587646 -32.7548294067383 -0.0736864656209946
vertex 6.80829429626465 -31.7099933624268 0.0221637077629566
endloop
endfacet
facet normal -0.229229271411896 -0.668941557407379 -0.707086443901062
outer loop
vertex 6.82809495925903 -31.6507892608643 -0.0402648486196995
vertex 6.80829429626465 -31.7099933624268 0.0221637077629566
vertex 3.50316834449768 -30.5467491149902 -0.00684323161840439
endloop
endfacet
facet normal -0.229229256510735 -0.668941557407379 -0.707086384296417
outer loop
vertex 3.48996806144714 -30.586217880249 0.0347758047282696
vertex 3.50316834449768 -30.5467491149902 -0.00684323161840439
vertex 6.80829429626465 -31.7099933624268 0.0221637077629566
endloop
endfacet
facet normal -0.229229256510735 -0.668941557407379 -0.707086384296417
outer loop
vertex 3.48996806144714 -30.586217880249 0.0347758047282696
vertex 0.171641811728477 -29.4624423980713 0.0473879016935825
vertex 3.50316834449768 -30.5467491149902 -0.00684323161840439
endloop
endfacet
facet normal -0.229229256510735 -0.668941557407379 -0.707086384296417
outer loop
vertex 0.178241983056068 -29.4427089691162 0.0265783835202456
vertex 3.50316834449768 -30.5467491149902 -0.00684323161840439
vertex 0.171641811728477 -29.4624423980713 0.0473879016935825
endloop
endfacet
facet normal -0.229229256510735 -0.668941557407379 -0.707086384296417
outer loop
vertex 0.171641811728477 -29.4624423980713 0.0473879016935825
vertex -3.14668440818787 -28.3386688232422 0.0599999986588955
vertex 0.178241983056068 -29.4427089691162 0.0265783835202456
endloop
endfacet
facet normal -0.949299156665802 0.313950181007385 0.0163248516619205
outer loop
vertex -2.70268511772156 -28.2959175109863 25.0866680145264
vertex -2.7230019569397 -28.2908172607422 23.8071250915527
vertex -2.76862335205078 -28.4952983856201 25.0866680145264
endloop
endfacet
facet normal -0.949299097061157 0.313950151205063 0.0163248497992754
outer loop
vertex -2.78797578811646 -28.4872798919678 23.8071250915527
vertex -2.76862335205078 -28.4952983856201 25.0866680145264
vertex -2.7230019569397 -28.2908172607422 23.8071250915527
endloop
endfacet
facet normal -0.949299097061157 0.313950181007385 0.0163248516619205
outer loop
vertex -2.78797578811646 -28.4872798919678 23.8071250915527
vertex -2.7230019569397 -28.2908172607422 23.8071250915527
vertex -2.81676840782166 -28.4753513336182 21.9034156799316
endloop
endfacet
facet normal -0.949299097061157 0.313950181007385 0.0163248516619205
outer loop
vertex -2.75322914123535 -28.2832260131836 21.9034156799316
vertex -2.81676840782166 -28.4753513336182 21.9034156799316
vertex -2.7230019569397 -28.2908172607422 23.8071250915527
endloop
endfacet
facet normal -0.949299097061157 0.313950181007385 0.0163248516619205
outer loop
vertex -2.81676840782166 -28.4753513336182 21.9034156799316
vertex -2.75322914123535 -28.2832260131836 21.9034156799316
vertex -2.85960602760315 -28.4576034545898 19.0710735321045
endloop
endfacet
facet normal -0.949299037456512 0.313950181007385 0.0163248516619205
outer loop
vertex -2.79820156097412 -28.2719326019287 19.0710735321045
vertex -2.85960602760315 -28.4576034545898 19.0710735321045
vertex -2.75322914123535 -28.2832260131836 21.9034156799316
endloop
endfacet
facet normal -0.949299097061157 0.313950181007385 0.0163248516619205
outer loop
vertex -2.79820156097412 -28.2719326019287 19.0710735321045
vertex -2.85574722290039 -28.2574825286865 15.4468698501587
vertex -2.85960602760315 -28.4576034545898 19.0710735321045
endloop
endfacet
facet normal -0.949299097061157 0.313950181007385 0.0163248516619205
outer loop
vertex -2.91442012786865 -28.4348945617676 15.4468698501587
vertex -2.85960602760315 -28.4576034545898 19.0710735321045
vertex -2.85574722290039 -28.2574825286865 15.4468698501587
endloop
endfacet
facet normal -0.949299097061157 0.313950210809708 0.0163248535245657
outer loop
vertex -2.85574722290039 -28.2574825286865 15.4468698501587
vertex -2.91351962089539 -28.242977142334 11.8083829879761
vertex -2.91442012786865 -28.4348945617676 15.4468698501587
endloop
endfacet
facet normal -0.949299097061157 0.313950181007385 0.0163248516619205
outer loop
vertex -2.96945023536682 -28.4120960235596 11.8083829879761
vertex -2.91442012786865 -28.4348945617676 15.4468698501587
vertex -2.91351962089539 -28.242977142334 11.8083829879761
endloop
endfacet
facet normal -0.949299097061157 0.313950181007385 0.0163248516619205
outer loop
vertex -2.91351962089539 -28.242977142334 11.8083829879761
vertex -2.97129201889038 -28.2284698486328 8.16989707946777
vertex -2.96945023536682 -28.4120960235596 11.8083829879761
endloop
endfacet
facet normal -0.949299097061157 0.313950181007385 0.0163248516619205
outer loop
vertex -3.02448034286499 -28.3892974853516 8.16989707946777
vertex -2.96945023536682 -28.4120960235596 11.8083829879761
vertex -2.97129201889038 -28.2284698486328 8.16989707946777
endloop
endfacet
facet normal -0.949299156665802 0.313950210809708 0.0163248535245657
outer loop
vertex -3.02448034286499 -28.3892974853516 8.16989707946777
vertex -2.97129201889038 -28.2284698486328 8.16989707946777
vertex -3.0757942199707 -28.3680381774902 4.77712535858154
endloop
endfacet
facet normal -0.949299037456512 0.313950210809708 0.0163248535245657
outer loop
vertex -3.02516293525696 -28.2149429321289 4.77712535858154
vertex -3.0757942199707 -28.3680381774902 4.77712535858154
vertex -2.97129201889038 -28.2284698486328 8.16989707946777
endloop
endfacet
facet normal -0.949299097061157 0.313950181007385 0.0163248516619205
outer loop
vertex -3.02516293525696 -28.2149429321289 4.77712535858154
vertex -3.06134843826294 -28.2058563232422 2.49816346168518
vertex -3.0757942199707 -28.3680381774902 4.77712535858154
endloop
endfacet
facet normal -0.949299037456512 0.313950181007385 0.0163248516619205
outer loop
vertex -3.11026239395142 -28.3537578582764 2.49816346168518
vertex -3.0757942199707 -28.3680381774902 4.77712535858154
vertex -3.06134843826294 -28.2058563232422 2.49816346168518
endloop
endfacet
facet normal -0.949299097061157 0.313950181007385 0.0163248516619205
outer loop
vertex -3.11026239395142 -28.3537578582764 2.49816346168518
vertex -3.06134843826294 -28.2058563232422 2.49816346168518
vertex -3.13242888450623 -28.3445739746094 1.03254759311676
endloop
endfacet
facet normal -0.949299097061157 0.313950181007385 0.0163248516619205
outer loop
vertex -3.08461976051331 -28.2000122070313 1.03254759311676
vertex -3.13242888450623 -28.3445739746094 1.03254759311676
vertex -3.06134843826294 -28.2058563232422 2.49816346168518
endloop
endfacet
facet normal -0.949299156665802 0.313950210809708 0.0163248535245657
outer loop
vertex -3.08461976051331 -28.2000122070313 1.03254759311676
vertex -3.09958577156067 -28.1962547302246 0.0900000035762787
vertex -3.13242888450623 -28.3445739746094 1.03254759311676
endloop
endfacet
facet normal -0.949299097061157 0.313950151205063 0.0163248516619205
outer loop
vertex -3.14668440818787 -28.3386688232422 0.0900000035762787
vertex -3.13242888450623 -28.3445739746094 1.03254759311676
vertex -3.09958577156067 -28.1962547302246 0.0900000035762787
endloop
endfacet
facet normal 0.214004680514336 0.673978328704834 -0.70707505941391
outer loop
vertex 2.72526597976685 -11.5026893615723 17.7651348114014
vertex 2.42253565788269 -12.3750448226929 16.8419857025146
vertex 2.52581906318665 -11.436993598938 17.7673892974854
endloop
endfacet
facet normal 0.214004680514336 0.673978328704834 -0.70707505941391
outer loop
vertex 2.23201727867126 -12.3122911453247 16.8441410064697
vertex 2.52581906318665 -11.436993598938 17.7673892974854
vertex 2.42253565788269 -12.3750448226929 16.8419857025146
endloop
endfacet
facet normal 0.214004695415497 0.673978328704834 -0.70707505941391
outer loop
vertex 2.23201727867126 -12.3122911453247 16.8441410064697
vertex 2.42253565788269 -12.3750448226929 16.8419857025146
vertex 1.78423452377319 -13.6463298797607 15.4370183944702
endloop
endfacet
facet normal 0.214004695415497 0.673978328704834 -0.70707505941391
outer loop
vertex 1.96114480495453 -13.7046012878418 15.4350185394287
vertex 1.78423452377319 -13.6463298797607 15.4370183944702
vertex 2.42253565788269 -12.3750448226929 16.8419857025146
endloop
endfacet
facet normal 0.214004695415497 0.673978328704834 -0.70707505941391
outer loop
vertex 1.96114480495453 -13.7046012878418 15.4350185394287
vertex 1.25794017314911 -15.7309761047363 13.2906618118286
vertex 1.78423452377319 -13.6463298797607 15.4370183944702
endloop
endfacet
facet normal 0.214004695415497 0.673978388309479 -0.70707505941391
outer loop
vertex 1.10176980495453 -15.6795349121094 13.2924270629883
vertex 1.78423452377319 -13.6463298797607 15.4370183944702
vertex 1.25794017314911 -15.7309761047363 13.2906618118286
endloop
endfacet
facet normal 0.214004680514336 0.673978328704834 -0.70707505941391
outer loop
vertex 1.10176980495453 -15.6795349121094 13.2924270629883
vertex 1.25794017314911 -15.7309761047363 13.2906618118286
vertex 0.258541911840439 -18.1916885375977 10.642650604248
endloop
endfacet
facet normal 0.214004680514336 0.673978269100189 -0.707074999809265
outer loop
vertex 0.389086872339249 -18.2346878051758 10.6411743164063
vertex 0.258541911840439 -18.1916885375977 10.642650604248
vertex 1.25794017314911 -15.7309761047363 13.2906618118286
endloop
endfacet
facet normal 0.214004695415497 0.673978328704834 -0.70707505941391
outer loop
vertex 0.389086872339249 -18.2346878051758 10.6411743164063
vertex -0.479837149381638 -20.7386035919189 7.99147176742554
vertex 0.258541911840439 -18.1916885375977 10.642650604248
endloop
endfacet
facet normal 0.214004695415497 0.673978328704834 -0.707075119018555
outer loop
vertex -0.584754526615143 -20.704044342041 7.99265813827515
vertex 0.258541911840439 -18.1916885375977 10.642650604248
vertex -0.479837149381638 -20.7386035919189 7.99147176742554
endloop
endfacet
facet normal 0.214004695415497 0.673978328704834 -0.707075119018555
outer loop
vertex -0.479837149381638 -20.7386035919189 7.99147176742554
vertex -1.34876108169556 -23.2425193786621 5.34176874160767
vertex -0.584754526615143 -20.704044342041 7.99265813827515
endloop
endfacet
facet normal 0.214004695415497 0.673978328704834 -0.70707505941391
outer loop
vertex -1.42805099487305 -23.216402053833 5.34266567230225
vertex -0.584754526615143 -20.704044342041 7.99265813827515
vertex -1.34876108169556 -23.2425193786621 5.34176874160767
endloop
endfacet
facet normal 0.214004680514336 0.673978328704834 -0.70707505941391
outer loop
vertex -1.42805099487305 -23.216402053833 5.34266567230225
vertex -1.34876108169556 -23.2425193786621 5.34176874160767
vertex -2.16176223754883 -25.4022808074951 3.03703618049622
endloop
endfacet
facet normal 0.214004695415497 0.673978328704834 -0.70707505941391
outer loop
vertex -2.1047694683075 -25.4210548400879 3.0363917350769
vertex -2.16176223754883 -25.4022808074951 3.03703618049622
vertex -1.34876108169556 -23.2425193786621 5.34176874160767
endloop
endfacet
facet normal 0.214004695415497 0.673978388309479 -0.70707505941391
outer loop
vertex -2.16176223754883 -25.4022808074951 3.03703618049622
vertex -2.1047694683075 -25.4210548400879 3.0363917350769
vertex -2.59073638916016 -26.6802864074707 1.68901836872101
endloop
endfacet
facet normal 0.214004680514336 0.673978328704834 -0.70707505941391
outer loop
vertex -2.5467803478241 -26.6947650909424 1.68852138519287
vertex -2.59073638916016 -26.6802864074707 1.68901836872101
vertex -2.1047694683075 -25.4210548400879 3.0363917350769
endloop
endfacet
facet normal 0.214004680514336 0.673978328704834 -0.70707505941391
outer loop
vertex -2.5467803478241 -26.6947650909424 1.68852138519287
vertex -2.79878902435303 -27.4209594726563 0.920044124126434
vertex -2.59073638916016 -26.6802864074707 1.68901836872101
endloop
endfacet
facet normal 0.214004710316658 0.673978388309479 -0.707075119018555
outer loop
vertex -2.83531260490417 -27.4089298248291 0.920457124710083
vertex -2.59073638916016 -26.6802864074707 1.68901836872101
vertex -2.79878902435303 -27.4209594726563 0.920044124126434
endloop
endfacet
facet normal 0.214004695415497 0.673978388309479 -0.70707505941391
outer loop
vertex -2.83531260490417 -27.4089298248291 0.920457124710083
vertex -2.79878902435303 -27.4209594726563 0.920044124126434
vertex -2.97475576400757 -27.8243598937988 0.482268214225769
endloop
endfacet
facet normal 0.214004710316658 0.673978328704834 -0.707075119018555
outer loop
vertex -2.94246983528137 -27.8349933624268 0.48190313577652
vertex -2.97475576400757 -27.8243598937988 0.482268214225769
vertex -2.79878902435303 -27.4209594726563 0.920044124126434
endloop
endfacet
facet normal 0.214004680514336 0.673978328704834 -0.70707505941391
outer loop
vertex -2.97475576400757 -27.8243598937988 0.482268214225769
vertex -2.94246983528137 -27.8349933624268 0.48190313577652
vertex -3.05425810813904 -28.0612144470215 0.232438415288925
endloop
endfacet
facet normal 0.214004695415497 0.673978388309479 -0.707075178623199
outer loop
vertex -3.02438807487488 -28.0710525512695 0.232100665569305
vertex -3.05425810813904 -28.0612144470215 0.232438415288925
vertex -2.94246983528137 -27.8349933624268 0.48190313577652
endloop
endfacet
facet normal 0.214004710316658 0.673978328704834 -0.707075119018555
outer loop
vertex -3.02438807487488 -28.0710525512695 0.232100665569305
vertex -3.07109332084656 -28.205638885498 0.0896778255701065
vertex -3.05425810813904 -28.0612144470215 0.232438415288925
endloop
endfacet
facet normal 0.214004695415497 0.673978388309479 -0.70707505941391
outer loop
vertex -3.09958577156067 -28.1962547302246 0.0900000035762787
vertex -3.05425810813904 -28.0612144470215 0.232438415288925
vertex -3.07109332084656 -28.205638885498 0.0896778255701065
endloop
endfacet
facet normal -0.227612972259521 -0.669457852840424 0.707119941711426
outer loop
vertex 2.7247359752655 -11.5043134689331 17.7676830291748
vertex 2.52578258514404 -11.4371023178101 17.7672748565674
vertex 2.39586806297302 -12.4468173980713 16.7695217132568
endloop
endfacet
facet normal -0.227612987160683 -0.669457912445068 0.707119882106781
outer loop
vertex 2.20814490318298 -12.3834114074707 16.7691230773926
vertex 2.39586806297302 -12.4468173980713 16.7695217132568
vertex 2.52578258514404 -11.4371023178101 17.7672748565674
endloop
endfacet
facet normal -0.227612972259521 -0.669457852840424 0.707119882106781
outer loop
vertex 2.39586806297302 -12.4468173980713 16.7695217132568
vertex 2.20814490318298 -12.3834114074707 16.7691230773926
vertex 1.79768514633179 -14.1611518859863 14.9539461135864
endloop
endfacet
facet normal -0.22761295735836 -0.669457852840424 0.707119882106781
outer loop
vertex 1.63040399551392 -14.1046228408813 14.9536190032959
vertex 1.79768514633179 -14.1611518859863 14.9539461135864
vertex 2.20814490318298 -12.3834114074707 16.7691230773926
endloop
endfacet
facet normal -0.227612987160683 -0.669457852840424 0.707119882106781
outer loop
vertex 1.63040399551392 -14.1046228408813 14.9536190032959
vertex 0.842072427272797 -16.4532279968262 12.4763488769531
vertex 1.79768514633179 -14.1611518859863 14.9539461135864
endloop
endfacet
facet normal -0.227612972259521 -0.669457852840424 0.707119882106781
outer loop
vertex 0.981473326683044 -16.5003356933594 12.4766216278076
vertex 1.79768514633179 -14.1611518859863 14.9539461135864
vertex 0.842072427272797 -16.4532279968262 12.4763488769531
endloop
endfacet
facet normal -0.227612972259521 -0.669457852840424 0.707119882106781
outer loop
vertex 0.981473326683044 -16.5003356933594 12.4766216278076
vertex 0.842072427272797 -16.4532279968262 12.4763488769531
vertex 0.165261521935463 -18.8395195007324 9.99929714202881
endloop
endfacet
facet normal -0.227612972259521 -0.669457852840424 0.707119882106781
outer loop
vertex 0.0537407919764519 -18.8018341064453 9.99907875061035
vertex 0.165261521935463 -18.8395195007324 9.99929714202881
vertex 0.842072427272797 -16.4532279968262 12.4763488769531
endloop
endfacet
facet normal -0.227612972259521 -0.669457852840424 0.707119882106781
outer loop
vertex 0.0537407919764519 -18.8018341064453 9.99907875061035
vertex -0.734590828418732 -21.1504383087158 7.52180910110474
vertex 0.165261521935463 -18.8395195007324 9.99929714202881
endloop
endfacet
facet normal -0.227612987160683 -0.669457852840424 0.707119882106781
outer loop
vertex -0.650950253009796 -21.1787033081055 7.52197313308716
vertex 0.165261521935463 -18.8395195007324 9.99929714202881
vertex -0.734590828418732 -21.1504383087158 7.52180910110474
endloop
endfacet
facet normal -0.227612987160683 -0.669457852840424 0.707119882106781
outer loop
vertex -0.650950253009796 -21.1787033081055 7.52197313308716
vertex -0.734590828418732 -21.1504383087158 7.52180910110474
vertex -1.46716201305389 -23.5178871154785 5.04464864730835
endloop
endfacet
facet normal -0.227612972259521 -0.669457852840424 0.707119882106781
outer loop
vertex -1.52292239665985 -23.499044418335 5.04453945159912
vertex -1.46716201305389 -23.5178871154785 5.04464864730835
vertex -0.734590828418732 -21.1504383087158 7.52180910110474
endloop
endfacet
facet normal -0.227612972259521 -0.669457852840424 0.707119882106781
outer loop
vertex -1.52292239665985 -23.499044418335 5.04453945159912
vertex -2.31125402450562 -25.8476486206055 2.56726980209351
vertex -1.46716201305389 -23.5178871154785 5.04464864730835
endloop
endfacet
facet normal -0.227612972259521 -0.669457852840424 0.707119882106781
outer loop
vertex -2.28337383270264 -25.8570709228516 2.56732439994812
vertex -1.46716201305389 -23.5178871154785 5.04464864730835
vertex -2.31125402450562 -25.8476486206055 2.56726980209351
endloop
endfacet
facet normal -0.227612972259521 -0.669457852840424 0.707119882106781
outer loop
vertex -2.31125402450562 -25.8476486206055 2.56726980209351
vertex -3.09958577156067 -28.1962547302246 0.0900000035762787
vertex -2.28337383270264 -25.8570709228516 2.56732439994812
endloop
endfacet
facet normal -0.320758491754532 -0.947160422801971 -0.00108362699393183
outer loop
vertex -0.436307460069656 -29.2822914123535 22.5936260223389
vertex -2.76862335205078 -28.4952983856201 25.0866680145264
vertex -0.456137448549271 -29.2755508422852 22.5729522705078
endloop
endfacet
facet normal -0.320758491754532 -0.947160422801971 -0.00108362699393183
outer loop
vertex -0.456137448549271 -29.2755508422852 22.5729522705078
vertex 1.85634851455688 -30.0558052062988 20.0592346191406
vertex -0.436307460069656 -29.2822914123535 22.5936260223389
endloop
endfacet
facet normal -0.320758491754532 -0.947160422801971 -0.00108362699393183
outer loop
vertex 1.89600849151611 -30.0692844390869 20.1005821228027
vertex -0.436307460069656 -29.2822914123535 22.5936260223389
vertex 1.85634851455688 -30.0558052062988 20.0592346191406
endloop
endfacet
facet normal -0.320758521556854 -0.947160363197327 -0.00108362699393183
outer loop
vertex 4.16883420944214 -30.8360595703125 17.5455188751221
vertex 4.22832441329956 -30.8562774658203 17.6075401306152
vertex 1.85634851455688 -30.0558052062988 20.0592346191406
endloop
endfacet
facet normal -0.320758491754532 -0.947160422801971 -0.00108362699393183
outer loop
vertex 1.89600849151611 -30.0692844390869 20.1005821228027
vertex 1.85634851455688 -30.0558052062988 20.0592346191406
vertex 4.22832441329956 -30.8562774658203 17.6075401306152
endloop
endfacet
facet normal -0.320758521556854 -0.947160363197327 -0.00108362699393183
outer loop
vertex 4.16883420944214 -30.8360595703125 17.5455188751221
vertex 6.48132038116455 -31.6163139343262 15.0318021774292
vertex 4.22832441329956 -30.8562774658203 17.6075401306152
endloop
endfacet
facet normal -0.320758491754532 -0.947160422801971 -0.00108362699393183
outer loop
vertex 6.56064033508301 -31.6432704925537 15.1144971847534
vertex 4.22832441329956 -30.8562774658203 17.6075401306152
vertex 6.48132038116455 -31.6163139343262 15.0318021774292
endloop
endfacet
facet normal -0.320758491754532 -0.947160422801971 -0.00108362699393183
outer loop
vertex 6.48132038116455 -31.6163139343262 15.0318021774292
vertex 8.7938060760498 -32.3965682983398 12.5180864334106
vertex 6.56064033508301 -31.6432704925537 15.1144971847534
endloop
endfacet
facet normal -0.320758491754532 -0.947160422801971 -0.00108362687751651
outer loop
vertex 8.89295673370361 -32.4302635192871 12.6214542388916
vertex 6.56064033508301 -31.6432704925537 15.1144971847534
vertex 8.7938060760498 -32.3965682983398 12.5180864334106
endloop
endfacet
facet normal -0.320758521556854 -0.947160363197327 -0.00108362699393183
outer loop
vertex 11.2252721786499 -33.2172546386719 10.1284112930298
vertex 8.89295673370361 -32.4302635192871 12.6214542388916
vertex 11.1062917709351 -33.1768226623535 10.0043697357178
endloop
endfacet
facet normal -0.320758491754532 -0.947160422801971 -0.00108362687751651
outer loop
vertex 8.7938060760498 -32.3965682983398 12.5180864334106
vertex 11.1062917709351 -33.1768226623535 10.0043697357178
vertex 8.89295673370361 -32.4302635192871 12.6214542388916
endloop
endfacet
facet normal -0.320758491754532 -0.947160422801971 -0.00108362699393183
outer loop
vertex 11.2252721786499 -33.2172546386719 10.1284112930298
vertex 11.1062917709351 -33.1768226623535 10.0043697357178
vertex 12.9345321655273 -33.7940101623535 8.30136203765869
endloop
endfacet
facet normal -0.320758461952209 -0.947160363197327 -0.00108362687751651
outer loop
vertex 12.80104637146 -33.7486457824707 8.16213893890381
vertex 12.9345321655273 -33.7940101623535 8.30136203765869
vertex 11.1062917709351 -33.1768226623535 10.0043697357178
endloop
endfacet
facet normal -0.320758491754532 -0.947160422801971 -0.00108362699393183
outer loop
vertex 12.9345321655273 -33.7940101623535 8.30136203765869
vertex 12.80104637146 -33.7486457824707 8.16213893890381
vertex 13.8742647171021 -34.1111030578613 7.29686880111694
endloop
endfacet
facet normal -0.320758461952209 -0.947160363197327 -0.00108362687751651
outer loop
vertex 13.732780456543 -34.0630226135254 7.14932680130005
vertex 13.8742647171021 -34.1111030578613 7.29686880111694
vertex 12.80104637146 -33.7486457824707 8.16213893890381
endloop
endfacet
facet normal -1 -0 -0
outer loop
vertex -0.238490000367165 -25 0.180000007152557
vertex -0.238490000367165 -25 -0.0299999993294477
vertex -0.238490000367165 -26 0.180000007152557
endloop
endfacet
facet normal -1 0 0
outer loop
vertex -0.238490000367165 -26 -0.0299999993294477
vertex -0.238490000367165 -26 0.180000007152557
vertex -0.238490000367165 -25 -0.0299999993294477
endloop
endfacet
facet normal -0.70710676908493 0 -0.70710676908493
outer loop
vertex -0.238490000367165 -26 -0.0299999993294477
vertex -0.238490000367165 -25 -0.0299999993294477
vertex -0.0900000035762787 -26 -0.178489997982979
endloop
endfacet
facet normal -0.70710676908493 -0 -0.70710676908493
outer loop
vertex -0.0900000035762787 -25 -0.178489997982979
vertex -0.0900000035762787 -26 -0.178489997982979
vertex -0.238490000367165 -25 -0.0299999993294477
endloop
endfacet
facet normal -0.70710676908493 0 0.70710676908493
outer loop
vertex -0.0900000035762787 -26 0.328489989042282
vertex -0.0900000035762787 -25 0.328489989042282
vertex -0.238490000367165 -26 0.180000007152557
endloop
endfacet
facet normal -0.70710676908493 0 0.70710676908493
outer loop
vertex -0.238490000367165 -25 0.180000007152557
vertex -0.238490000367165 -26 0.180000007152557
vertex -0.0900000035762787 -25 0.328489989042282
endloop
endfacet
facet normal -0 -0 -1
outer loop
vertex 0.119999997317791 -25 -0.178489997982979
vertex 0.119999997317791 -26 -0.178489997982979
vertex -0.0900000035762787 -25 -0.178489997982979
endloop
endfacet
facet normal 0 0 -1
outer loop
vertex -0.0900000035762787 -26 -0.178489997982979
vertex -0.0900000035762787 -25 -0.178489997982979
vertex 0.119999997317791 -26 -0.178489997982979
endloop
endfacet
facet normal 0 0 1
outer loop
vertex 0.119999997317791 -25 0.328489989042282
vertex -0.0900000035762787 -25 0.328489989042282
vertex 0.119999997317791 -26 0.328489989042282
endloop
endfacet
facet normal 0 0 1
outer loop
vertex -0.0900000035762787 -26 0.328489989042282
vertex 0.119999997317791 -26 0.328489989042282
vertex -0.0900000035762787 -25 0.328489989042282
endloop
endfacet
facet normal 0.70710676908493 0 -0.70710676908493
outer loop
vertex 0.268489986658096 -25 -0.0299999993294477
vertex 0.268489986658096 -26 -0.0299999993294477
vertex 0.119999997317791 -25 -0.178489997982979
endloop
endfacet
facet normal 0.70710676908493 0 -0.70710676908493
outer loop
vertex 0.119999997317791 -26 -0.178489997982979
vertex 0.119999997317791 -25 -0.178489997982979
vertex 0.268489986658096 -26 -0.0299999993294477
endloop
endfacet
facet normal 0.70710676908493 0 0.70710676908493
outer loop
vertex 0.119999997317791 -25 0.328489989042282
vertex 0.119999997317791 -26 0.328489989042282
vertex 0.268489986658096 -25 0.180000007152557
endloop
endfacet
facet normal 0.70710676908493 -0 0.70710676908493
outer loop
vertex 0.268489986658096 -26 0.180000007152557
vertex 0.268489986658096 -25 0.180000007152557
vertex 0.119999997317791 -26 0.328489989042282
endloop
endfacet
facet normal 1 0 -0
outer loop
vertex 0.268489986658096 -25 -0.0299999993294477
vertex 0.268489986658096 -25 0.180000007152557
vertex 0.268489986658096 -26 -0.0299999993294477
endloop
endfacet
facet normal 1 -0 0
outer loop
vertex 0.268489986658096 -26 0.180000007152557
vertex 0.268489986658096 -26 -0.0299999993294477
vertex 0.268489986658096 -25 0.180000007152557
endloop
endfacet
facet normal -0 0.00713941780850291 0.999974429607391
outer loop
vertex -0.0900000035762787 -24.9993629455566 0.328485459089279
vertex 0.119999997317791 -24.9993629455566 0.328485459089279
vertex -0.0852995067834854 -23.6937046051025 0.31916356086731
endloop
endfacet
facet normal -2.52885656869712e-16 0.00713941780850291 0.999974489212036
outer loop
vertex 0.115299507975578 -23.6937046051025 0.31916356086731
vertex -0.0852995067834854 -23.6937046051025 0.31916356086731
vertex 0.119999997317791 -24.9993629455566 0.328485459089279
endloop
endfacet
facet normal -2.52885683339491e-16 0.0071394182741642 0.999974548816681
outer loop
vertex -0.0852995067834854 -23.6937046051025 0.31916356086731
vertex 0.115299507975578 -23.6937046051025 0.31916356086731
vertex -0.0781354978680611 -21.7037525177002 0.30495610833168
endloop
endfacet
facet normal 2.98005249085376e-16 0.0071394182741642 0.999974489212036
outer loop
vertex 0.108135499060154 -21.7037525177002 0.30495610833168
vertex -0.0781354978680611 -21.7037525177002 0.30495610833168
vertex 0.115299507975578 -23.6937046051025 0.31916356086731
endloop
endfacet
facet normal 2.98005249085376e-16 0.00713941734284163 0.999974489212036
outer loop
vertex 0.108135499060154 -21.7037525177002 0.30495610833168
vertex 0.0972168520092964 -18.6708717346191 0.283302545547485
vertex -0.0781354978680611 -21.7037525177002 0.30495610833168
endloop
endfacet
facet normal 1.54252495045101e-16 0.00713941780850291 0.999974489212036
outer loop
vertex -0.0672168508172035 -18.6708717346191 0.283302545547485
vertex -0.0781354978680611 -21.7037525177002 0.30495610833168
vertex 0.0972168520092964 -18.6708717346191 0.283302545547485
endloop
endfacet
facet normal 1.54252495045101e-16 0.0071394182741642 0.999974548816681
outer loop
vertex -0.0672168508172035 -18.6708717346191 0.283302545547485
vertex 0.0972168520092964 -18.6708717346191 0.283302545547485
vertex -0.0537261739373207 -14.9235572814941 0.256548225879669
endloop
endfacet
facet normal 8.4247802758044e-16 0.00713941734284163 0.999974429607391
outer loop
vertex 0.0837261751294136 -14.9235572814941 0.256548225879669
vertex -0.0537261739373207 -14.9235572814941 0.256548225879669
vertex 0.0972168520092964 -18.6708717346191 0.283302545547485
endloop
endfacet
facet normal 8.42478186399118e-16 0.00713941873982549 0.999974548816681
outer loop
vertex 0.0837261751294136 -14.9235572814941 0.256548225879669
vertex 0.070234403014183 -11.1759376525879 0.229791730642319
vertex -0.0537261739373207 -14.9235572814941 0.256548225879669
endloop
endfacet
facet normal 4.32802734055915e-17 0.0071394182741642 0.999974489212036
outer loop
vertex -0.0402344018220901 -11.1759376525879 0.229791730642319
vertex -0.0537261739373207 -14.9235572814941 0.256548225879669
vertex 0.070234403014183 -11.1759376525879 0.229791730642319
endloop
endfacet
facet normal 4.32802734055915e-17 0.0071394182741642 0.999974489212036
outer loop
vertex -0.0402344018220901 -11.1759376525879 0.229791730642319
vertex 0.070234403014183 -11.1759376525879 0.229791730642319
vertex -0.0267426297068596 -7.42831897735596 0.203035220503807
endloop
endfacet
facet normal -2.27863324225974e-16 0.00713941780850291 0.999974489212036
outer loop
vertex 0.0567426308989525 -7.42831897735596 0.203035220503807
vertex -0.0267426297068596 -7.42831897735596 0.203035220503807
vertex 0.070234403014183 -11.1759376525879 0.229791730642319
endloop
endfacet
facet normal -2.27863324225974e-16 0.00713941734284163 0.999974489212036
outer loop
vertex 0.0567426308989525 -7.42831897735596 0.203035220503807
vertex 0.0450040958821774 -4.1676983833313 0.179755702614784
vertex -0.0267426297068596 -7.42831897735596 0.203035220503807
endloop
endfacet
facet normal -5.28350935712177e-16 0.0071394182741642 0.999974489212036
outer loop
vertex -0.015004095621407 -4.1676983833313 0.179755702614784
vertex -0.0267426297068596 -7.42831897735596 0.203035220503807
vertex 0.0450040958821774 -4.1676983833313 0.179755702614784
endloop
endfacet
facet normal -5.28350935712177e-16 0.00713941780850291 0.999974548816681
outer loop
vertex -0.015004095621407 -4.1676983833313 0.179755702614784
vertex 0.0450040958821774 -4.1676983833313 0.179755702614784
vertex -0.00814100168645382 -2.26133155822754 0.166144996881485
endloop
endfacet
facet normal -1.61040921486862e-15 0.00713941780850291 0.999974489212036
outer loop
vertex 0.0381410010159016 -2.26133155822754 0.166144996881485
vertex -0.00814100168645382 -2.26133155822754 0.166144996881485
vertex 0.0450040958821774 -4.1676983833313 0.179755702614784
endloop
endfacet
facet normal -1.61040921486862e-15 0.00713941780850291 0.999974548816681
outer loop
vertex 0.0381410010159016 -2.26133155822754 0.166144996881485
vertex 0.0342280641198158 -1.17443239688873 0.15838497877121
vertex -0.00814100168645382 -2.26133155822754 0.166144996881485
endloop
endfacet
facet normal -3.91945676328631e-16 0.00713941734284163 0.999974489212036
outer loop
vertex -0.00422806432470679 -1.17443239688873 0.15838497877121
vertex -0.00814100168645382 -2.26133155822754 0.166144996881485
vertex 0.0342280641198158 -1.17443239688873 0.15838497877121
endloop
endfacet
facet normal -3.9194572926819e-16 0.00713941780850291 0.999974548816681
outer loop
vertex -0.00422806432470679 -1.17443239688873 0.15838497877121
vertex 0.0342280641198158 -1.17443239688873 0.15838497877121
vertex -0.00199713534675539 -0.554745674133301 0.153960660099983
endloop
endfacet
facet normal 1.21321365480269e-15 0.00713941780850291 0.999974548816681
outer loop
vertex 0.0319971367716789 -0.554745674133301 0.153960660099983
vertex -0.00199713534675539 -0.554745674133301 0.153960660099983
vertex 0.0342280641198158 -1.17443239688873 0.15838497877121
endloop
endfacet
facet normal 1.21321365480269e-15 0.00713941780850291 0.999974548816681
outer loop
vertex 0.0319971367716789 -0.554745674133301 0.153960660099983
vertex 0.0307251885533333 -0.201436385512352 0.151438176631927
vertex -0.00199713534675539 -0.554745674133301 0.153960660099983
endloop
endfacet
facet normal -1.32354446074289e-15 0.00713941780850291 0.999974548816681
outer loop
vertex -0.00072518945671618 -0.201436385512352 0.151438176631927
vertex -0.00199713534675539 -0.554745674133301 0.153960660099983
vertex 0.0307251885533333 -0.201436385512352 0.151438176631927
endloop
endfacet
facet normal -1.32354446074289e-15 0.00713941780850291 0.999974489212036
outer loop
vertex -0.00072518945671618 -0.201436385512352 0.151438176631927
vertex 0.0307251885533333 -0.201436385512352 0.151438176631927
vertex 0 0 0.150000005960464
endloop
endfacet
facet normal 0 0.0071394182741642 0.999974489212036
outer loop
vertex 0.0299999993294477 0 0.150000005960464
vertex 0 0 0.150000005960464
vertex 0.0307251885533333 -0.201436385512352 0.151438176631927
endloop
endfacet
facet normal -0.999954521656036 -0.00953916646540165 0
outer loop
vertex 0.268479138612747 -24.9988632202148 -0.0299999993294477
vertex 0.268479138612747 -24.9988632202148 0.180000007152557
vertex 0.256271749734879 -23.7192058563232 -0.0284643415361643
endloop
endfacet
facet normal -0.999954521656036 -0.00953916646540165 -0
outer loop
vertex 0.256271749734879 -23.7192058563232 0.178464338183403
vertex 0.256271749734879 -23.7192058563232 -0.0284643415361643
vertex 0.268479138612747 -24.9988632202148 0.180000007152557
endloop
endfacet
facet normal -0.999954462051392 -0.00953916553407907 -0
outer loop
vertex 0.256271749734879 -23.7192058563232 0.178464338183403
vertex 0.238109529018402 -21.8153305053711 0.176179587841034
vertex 0.256271749734879 -23.7192058563232 -0.0284643415361643
endloop
endfacet
facet normal -0.999954521656036 -0.00953916646540165 -7.65129030245097e-17
outer loop
vertex 0.238109529018402 -21.8153305053711 -0.0261795874685049
vertex 0.256271749734879 -23.7192058563232 -0.0284643415361643
vertex 0.238109529018402 -21.8153305053711 0.176179587841034
endloop
endfacet
facet normal -0.999954581260681 -0.00953916646540165 -7.65129030245097e-17
outer loop
vertex 0.238109529018402 -21.8153305053711 -0.0261795874685049
vertex 0.238109529018402 -21.8153305053711 0.176179587841034
vertex 0.211087733507156 -18.982738494873 -0.0227803234010935
endloop
endfacet
facet normal -0.999954462051392 -0.00953916646540165 -2.52469049008561e-16
outer loop
vertex 0.211087733507156 -18.982738494873 0.172780320048332
vertex 0.211087733507156 -18.982738494873 -0.0227803234010935
vertex 0.238109529018402 -21.8153305053711 0.176179587841034
endloop
endfacet
facet normal -0.999954521656036 -0.00953916646540165 -2.5246907547834e-16
outer loop
vertex 0.211087733507156 -18.982738494873 -0.0227803234010935
vertex 0.211087733507156 -18.982738494873 0.172780320048332
vertex 0.176511242985725 -15.3582172393799 -0.0184306986629963
endloop
endfacet
facet normal -0.999954521656036 -0.00953916646540165 1.56352183842226e-16
outer loop
vertex 0.176511242985725 -15.3582172393799 0.16843070089817
vertex 0.176511242985725 -15.3582172393799 -0.0184306986629963
vertex 0.211087733507156 -18.982738494873 0.172780320048332
endloop
endfacet
facet normal -0.999954521656036 -0.00953916646540165 1.56352183842226e-16
outer loop
vertex 0.176511242985725 -15.3582172393799 0.16843070089817
vertex 0.141798496246338 -11.7194118499756 0.164063930511475
vertex 0.176511242985725 -15.3582172393799 -0.0184306986629963
endloop
endfacet
facet normal -0.999954462051392 -0.00953916553407907 1.29573065161214e-16
outer loop
vertex 0.141798496246338 -11.7194118499756 -0.0140639338642359
vertex 0.176511242985725 -15.3582172393799 -0.0184306986629963
vertex 0.141798496246338 -11.7194118499756 0.164063930511475
endloop
endfacet
facet normal -0.999954462051392 -0.00953916553407907 1.29573065161214e-16
outer loop
vertex 0.141798496246338 -11.7194118499756 -0.0140639338642359
vertex 0.141798496246338 -11.7194118499756 0.164063930511475
vertex 0.10708574950695 -8.08060646057129 -0.00969716906547546
endloop
endfacet
facet normal -0.999954581260681 -0.00953916646540165 1.90584861586831e-16
outer loop
vertex 0.10708574950695 -8.08060646057129 0.15969717502594
vertex 0.10708574950695 -8.08060646057129 -0.00969716906547546
vertex 0.141798496246338 -11.7194118499756 0.164063930511475
endloop
endfacet
facet normal -0.999954462051392 -0.00953916553407907 1.90584835117051e-16
outer loop
vertex 0.10708574950695 -8.08060646057129 -0.00969716906547546
vertex 0.10708574950695 -8.08060646057129 0.15969717502594
vertex 0.0747172236442566 -4.68753671646118 -0.00562530010938644
endloop
endfacet
facet normal -0.999954581260681 -0.00953916739672422 -5.42629696013204e-18
outer loop
vertex 0.0747172236442566 -4.68753671646118 0.15562529861927
vertex 0.0747172236442566 -4.68753671646118 -0.00562530010938644
vertex 0.10708574950695 -8.08060646057129 0.15969717502594
endloop
endfacet
facet normal -0.999954521656036 -0.00953916646540165 -5.42629696013204e-18
outer loop
vertex 0.0747172236442566 -4.68753671646118 0.15562529861927
vertex 0.0529749318957329 -2.40837502479553 0.152890175580978
vertex 0.0747172236442566 -4.68753671646118 -0.00562530010938644
endloop
endfacet
facet normal -0.999954521656036 -0.00953916646540165 -5.15447258954762e-18
outer loop
vertex 0.0529749318957329 -2.40837502479553 -0.00289018149487674
vertex 0.0747172236442566 -4.68753671646118 -0.00562530010938644
vertex 0.0529749318957329 -2.40837502479553 0.152890175580978
endloop
endfacet
facet normal -0.999954521656036 -0.00953916553407907 -5.15447258954762e-18
outer loop
vertex 0.0529749318957329 -2.40837502479553 -0.00289018149487674
vertex 0.0529749318957329 -2.40837502479553 0.152890175580978
vertex 0.038992315530777 -0.942630350589752 -0.00113120791502297
endloop
endfacet
facet normal -0.999954462051392 -0.00953916553407907 -6.54727417644461e-17
outer loop
vertex 0.038992315530777 -0.942630350589752 0.151131212711334
vertex 0.038992315530777 -0.942630350589752 -0.00113120791502297
vertex 0.0529749318957329 -2.40837502479553 0.152890175580978
endloop
endfacet
facet normal -0.999954521656036 -0.00953916553407907 -6.5472748381891e-17
outer loop
vertex 0.038992315530777 -0.942630350589752 -0.00113120791502297
vertex 0.038992315530777 -0.942630350589752 0.151131212711334
vertex 0.0299999993294477 0 0
endloop
endfacet
facet normal -0.999954462051392 -0.00953916553407907 -0
outer loop
vertex 0.0299999993294477 0 0.150000005960464
vertex 0.0299999993294477 0 0
vertex 0.038992315530777 -0.942630350589752 0.151131212711334
endloop
endfacet
facet normal 0.707086384296417 0.007593824993819 0.707086384296417
outer loop
vertex 0.268489480018616 -24.9997272491455 0.179997578263283
vertex 0.255023419857025 -23.5881443023682 0.178303807973862
vertex 0.119997121393681 -24.9992008209229 0.328484296798706
endloop
endfacet
facet normal 0.707086384296417 0.007593824993819 0.707086384296417
outer loop
vertex 0.11491547524929 -23.5876331329346 0.318406254053116
vertex 0.119997121393681 -24.9992008209229 0.328484296798706
vertex 0.255023419857025 -23.5881443023682 0.178303807973862
endloop
endfacet
facet normal 0.707086443901062 0.00759382545948029 0.707086443901062
outer loop
vertex 0.255023419857025 -23.5881443023682 0.178303807973862
vertex 0.230529695749283 -21.0205821990967 0.175222933292389
vertex 0.11491547524929 -23.5876331329346 0.318406254053116
endloop
endfacet
facet normal 0.707086384296417 0.00759382545948029 0.707086384296417
outer loop
vertex 0.105672582983971 -21.0201625823975 0.300075560808182
vertex 0.11491547524929 -23.5876331329346 0.318406254053116
vertex 0.230529695749283 -21.0205821990967 0.175222933292389
endloop
endfacet
facet normal 0.707086443901062 0.007593824993819 0.707086443901062
outer loop
vertex 0.105672582983971 -21.0201625823975 0.300075560808182
vertex 0.230529695749283 -21.0205821990967 0.175222933292389
vertex 0.0930604860186577 -17.5168018341064 0.275062948465347
endloop
endfacet
facet normal 0.707086443901062 0.00759382592514157 0.707086443901062
outer loop
vertex 0.197108075022697 -17.5171508789063 0.171019122004509
vertex 0.0930604860186577 -17.5168018341064 0.275062948465347
vertex 0.230529695749283 -21.0205821990967 0.175222933292389
endloop
endfacet
facet normal 0.707086443901062 0.00759382592514157 0.707086443901062
outer loop
vertex 0.197108075022697 -17.5171508789063 0.171019122004509
vertex 0.163686469197273 -14.0137205123901 0.166815295815468
vertex 0.0930604860186577 -17.5168018341064 0.275062948465347
endloop
endfacet
facet normal 0.707086384296417 0.007593824993819 0.707086384296417
outer loop
vertex 0.0804483890533447 -14.0134410858154 0.250050365924835
vertex 0.0930604860186577 -17.5168018341064 0.275062948465347
vertex 0.163686469197273 -14.0137205123901 0.166815295815468
endloop
endfacet
facet normal 0.707086384296417 0.007593824993819 0.707086384296417
outer loop
vertex 0.0804483890533447 -14.0134410858154 0.250050365924835
vertex 0.163686469197273 -14.0137205123901 0.166815295815468
vertex 0.0678362920880318 -10.5100812911987 0.225037768483162
endloop
endfacet
facet normal 0.707086443901062 0.007593824993819 0.707086443901062
outer loop
vertex 0.130264848470688 -10.5102910995483 0.162611469626427
vertex 0.0678362920880318 -10.5100812911987 0.225037768483162
vertex 0.163686469197273 -14.0137205123901 0.166815295815468
endloop
endfacet
facet normal 0.707086443901062 0.007593824993819 0.707086443901062
outer loop
vertex 0.130264848470688 -10.5102910995483 0.162611469626427
vertex 0.0968432351946831 -7.00686025619507 0.158407643437386
vertex 0.0678362920880318 -10.5100812911987 0.225037768483162
endloop
endfacet
facet normal 0.707086384296417 0.007593824993819 0.707086384296417
outer loop
vertex 0.0552241951227188 -7.00672054290771 0.20002518594265
vertex 0.0678362920880318 -10.5100812911987 0.225037768483162
vertex 0.0968432351946831 -7.00686025619507 0.158407643437386
endloop
endfacet
facet normal 0.707086384296417 0.007593824993819 0.707086384296417
outer loop
vertex 0.0552241951227188 -7.00672054290771 0.20002518594265
vertex 0.0968432351946831 -7.00686025619507 0.158407643437386
vertex 0.0426120981574059 -3.50336027145386 0.175012588500977
endloop
endfacet
facet normal 0.707086384296417 0.007593824993819 0.707086384296417
outer loop
vertex 0.0634216144680977 -3.50343012809753 0.154203817248344
vertex 0.0426120981574059 -3.50336027145386 0.175012588500977
vertex 0.0968432351946831 -7.00686025619507 0.158407643437386
endloop
endfacet
facet normal 0.707086384296417 0.007593824993819 0.707086384296417
outer loop
vertex 0.0426120981574059 -3.50336027145386 0.175012588500977
vertex 0.0634216144680977 -3.50343012809753 0.154203817248344
vertex 0.0299999993294477 0 0.150000005960464
endloop
endfacet
facet normal 0.707090675830841 0.00674536172300577 -0.707090675830841
outer loop
vertex 0.301899343729019 -28.50217628479 -0.0299999993294477
vertex 0.281091541051865 -28.5023708343506 -0.0508096739649773
vertex 0.268479138612747 -24.9988632202148 -0.0299999993294477
endloop
endfacet
facet normal 0.707090675830841 0.00674536172300577 -0.707090675830841
outer loop
vertex 0.335319548845291 -32.0054893493652 -0.0299999993294477
vertex 0.29370391368866 -32.0058784484863 -0.0716193541884422
vertex 0.301899343729019 -28.50217628479 -0.0299999993294477
endloop
endfacet
facet normal 0.707090675830841 0.00674536172300577 -0.707090675830841
outer loop
vertex 0.281091541051865 -28.5023708343506 -0.0508096739649773
vertex 0.301899343729019 -28.50217628479 -0.0299999993294477
vertex 0.29370391368866 -32.0058784484863 -0.0716193541884422
endloop
endfacet
facet normal 0.707090675830841 0.00674536172300577 -0.707090675830841
outer loop
vertex 0.335319548845291 -32.0054893493652 -0.0299999993294477
vertex 0.368739753961563 -35.5088005065918 -0.0299999993294477
vertex 0.29370391368866 -32.0058784484863 -0.0716193541884422
endloop
endfacet
facet normal 0.707090735435486 0.00674536265432835 -0.707090735435486
outer loop
vertex 0.306316316127777 -35.5093841552734 -0.0924290269613266
vertex 0.29370391368866 -32.0058784484863 -0.0716193541884422
vertex 0.368739753961563 -35.5088005065918 -0.0299999993294477
endloop
endfacet
facet normal 0.707090735435486 0.00674536265432835 -0.707090735435486
outer loop
vertex 0.306316316127777 -35.5093841552734 -0.0924290269613266
vertex 0.368739753961563 -35.5088005065918 -0.0299999993294477
vertex 0.318928688764572 -39.0128936767578 -0.113238699734211
endloop
endfacet
facet normal 0.707090675830841 0.00674536172300577 -0.707090675830841
outer loop
vertex 0.402159959077835 -39.0121154785156 -0.0299999993294477
vertex 0.318928688764572 -39.0128936767578 -0.113238699734211
vertex 0.368739753961563 -35.5088005065918 -0.0299999993294477
endloop
endfacet
facet normal 0.707090675830841 0.00674536172300577 -0.707090675830841
outer loop
vertex 0.402159959077835 -39.0121154785156 -0.0299999993294477
vertex 0.435580164194107 -42.5154266357422 -0.0299999993294477
vertex 0.318928688764572 -39.0128936767578 -0.113238699734211
endloop
endfacet
facet normal 0.707090675830841 0.00674536218866706 -0.707090675830841
outer loop
vertex 0.33154109120369 -42.5163993835449 -0.134048372507095
vertex 0.318928688764572 -39.0128936767578 -0.113238699734211
vertex 0.435580164194107 -42.5154266357422 -0.0299999993294477
endloop
endfacet
facet normal 0.707090735435486 0.00674536265432835 -0.707090735435486
outer loop
vertex 0.469000369310379 -46.018741607666 -0.0299999993294477
vertex 0.344153463840485 -46.0199089050293 -0.15485805273056
vertex 0.435580164194107 -42.5154266357422 -0.0299999993294477
endloop
endfacet
facet normal 0.707090675830841 0.00674536218866706 -0.707090675830841
outer loop
vertex 0.33154109120369 -42.5163993835449 -0.134048372507095
vertex 0.435580164194107 -42.5154266357422 -0.0299999993294477
vertex 0.344153463840485 -46.0199089050293 -0.15485805273056
endloop
endfacet
facet normal 0.707090735435486 0.00674536218866706 -0.707090735435486
outer loop
vertex 0.469000369310379 -46.018741607666 -0.0299999993294477
vertex 0.493492692708969 -48.5861740112305 -0.0299999993294477
vertex 0.344153463840485 -46.0199089050293 -0.15485805273056
endloop
endfacet
facet normal 0.707090675830841 0.00674536265432835 -0.707090675830841
outer loop
vertex 0.353396713733673 -48.5875282287598 -0.17010885477066
vertex 0.344153463840485 -46.0199089050293 -0.15485805273056
vertex 0.493492692708969 -48.5861740112305 -0.0299999993294477
endloop
endfacet
facet normal 0.707090735435486 0.00674536265432835 -0.707090735435486
outer loop
vertex 0.493492692708969 -48.5861740112305 -0.0299999993294477
vertex 0.506958305835724 -49.9977264404297 -0.0299999993294477
vertex 0.353396713733673 -48.5875282287598 -0.17010885477066
endloop
endfacet
facet normal 0.707090675830841 0.00674536218866706 -0.707090675830841
outer loop
vertex 0.358478426933289 -49.9991416931152 -0.17849338054657
vertex 0.353396713733673 -48.5875282287598 -0.17010885477066
vertex 0.506958305835724 -49.9977264404297 -0.0299999993294477
endloop
endfacet
facet normal 0.21561661362648 0.673448026180267 -0.707090675830841
outer loop
vertex 44.4269256591797 -43.7261199951172 -0.26847842335701
vertex 44.3789558410645 -43.8666572570801 -0.416958302259445
vertex 43.0840721130371 -43.290843963623 -0.263396710157394
endloop
endfacet
facet normal 0.21561661362648 0.673447966575623 -0.707090675830841
outer loop
vertex 43.0387954711914 -43.4234428405762 -0.40349268913269
vertex 43.0840721130371 -43.290843963623 -0.263396710157394
vertex 44.3789558410645 -43.8666572570801 -0.416958302259445
endloop
endfacet
facet normal 0.215616628527641 0.673448026180267 -0.707090675830841
outer loop
vertex 43.0840721130371 -43.290843963623 -0.263396710157394
vertex 43.0387954711914 -43.4234428405762 -0.40349268913269
vertex 40.6415176391602 -42.4991111755371 -0.254153460264206
endloop
endfacet
facet normal 0.21561661362648 0.673448026180267 -0.707090735435486
outer loop
vertex 40.601203918457 -42.6172904968262 -0.3790003657341
vertex 40.6415176391602 -42.4991111755371 -0.254153460264206
vertex 43.0387954711914 -43.4234428405762 -0.40349268913269
endloop
endfacet
facet normal 0.215616628527641 0.673448026180267 -0.707090735435486
outer loop
vertex 40.601203918457 -42.6172904968262 -0.3790003657341
vertex 37.2750701904297 -41.517276763916 -0.345580160617828
vertex 40.6415176391602 -42.4991111755371 -0.254153460264206
endloop
endfacet
facet normal 0.215616628527641 0.673448026180267 -0.707090675830841
outer loop
vertex 37.308666229248 -41.4187965393066 -0.241541087627411
vertex 40.6415176391602 -42.4991111755371 -0.254153460264206
vertex 37.2750701904297 -41.517276763916 -0.345580160617828
endloop
endfacet
facet normal 0.215616628527641 0.673448026180267 -0.707090675830841
outer loop
vertex 37.308666229248 -41.4187965393066 -0.241541087627411
vertex 37.2750701904297 -41.517276763916 -0.345580160617828
vertex 33.9758110046387 -40.3384780883789 -0.228928700089455
endloop
endfacet
facet normal 0.21561661362648 0.673447966575623 -0.707090675830841
outer loop
vertex 33.9489364624023 -40.4172630310059 -0.312159955501556
vertex 33.9758110046387 -40.3384780883789 -0.228928700089455
vertex 37.2750701904297 -41.517276763916 -0.345580160617828
endloop
endfacet
facet normal 0.21561661362648 0.673447966575623 -0.707090675830841
outer loop
vertex 33.9489364624023 -40.4172630310059 -0.312159955501556
vertex 30.6227989196777 -39.317253112793 -0.278739750385284
vertex 33.9758110046387 -40.3384780883789 -0.228928700089455
endloop
endfacet
facet normal 0.215616628527641 0.673448026180267 -0.707090735435486
outer loop
vertex 30.6429557800293 -39.2581634521484 -0.216316312551498
vertex 33.9758110046387 -40.3384780883789 -0.228928700089455
vertex 30.6227989196777 -39.317253112793 -0.278739750385284
endloop
endfacet
facet normal 0.215616628527641 0.673448026180267 -0.707090735435486
outer loop
vertex 30.6429557800293 -39.2581634521484 -0.216316312551498
vertex 30.6227989196777 -39.317253112793 -0.278739750385284
vertex 27.3101024627686 -38.177848815918 -0.203703925013542
endloop
endfacet
facet normal 0.21561661362648 0.673447966575623 -0.707090675830841
outer loop
vertex 27.2966651916504 -38.2172393798828 -0.245319560170174
vertex 27.3101024627686 -38.177848815918 -0.203703925013542
vertex 30.6227989196777 -39.317253112793 -0.278739750385284
endloop
endfacet
facet normal 0.21561661362648 0.673447966575623 -0.707090675830841
outer loop
vertex 27.2966651916504 -38.2172393798828 -0.245319560170174
vertex 23.9705295562744 -37.1172256469727 -0.211899355053902
vertex 27.3101024627686 -38.177848815918 -0.203703925013542
endloop
endfacet
facet normal 0.21561661362648 0.673447966575623 -0.707090675830841
outer loop
vertex 23.9772491455078 -37.0975303649902 -0.191091537475586
vertex 27.3101024627686 -38.177848815918 -0.203703925013542
vertex 23.9705295562744 -37.1172256469727 -0.211899355053902
endloop
endfacet
facet normal 0.21561661362648 0.673447966575623 -0.707090675830841
outer loop
vertex 23.9705295562744 -37.1172256469727 -0.211899355053902
vertex 20.6443939208984 -36.0172157287598 -0.17847914993763
vertex 23.9772491455078 -37.0975303649902 -0.191091537475586
endloop
endfacet
endsolid COMSOL mesh mesh1
