solid COMSOL mesh mesh1
facet normal -0.0107775507494807 0.999941945075989 0
outer loop
vertex 0 0 0.150000005960464
vertex 0 0 0
vertex -0.952992677688599 -0.0102715231478214 0.150000005960464
endloop
endfacet
facet normal -0.0107775507494807 0.999941945075989 7.52990783413147e-19
outer loop
vertex -0.952992677688599 -0.0102715231478214 0
vertex -0.952992677688599 -0.0102715231478214 0.150000005960464
vertex 0 0 0
endloop
endfacet
facet normal -0.0107775498181581 0.999941885471344 7.52990731714358e-19
outer loop
vertex -0.952992677688599 -0.0102715231478214 0.150000005960464
vertex -0.952992677688599 -0.0102715231478214 0
vertex -2.45225977897644 -0.0264308899641037 0.150000005960464
endloop
endfacet
facet normal -0.0107775498181581 0.999941885471344 5.7394581929037e-17
outer loop
vertex -2.45225977897644 -0.0264308899641037 0
vertex -2.45225977897644 -0.0264308899641037 0.150000005960464
vertex -0.952992677688599 -0.0102715231478214 0
endloop
endfacet
facet normal -0.0107775507494807 0.999941945075989 5.73945885464819e-17
outer loop
vertex -2.45225977897644 -0.0264308899641037 0.150000005960464
vertex -2.45225977897644 -0.0264308899641037 0
vertex -4.81093692779541 -0.0518531277775764 0.150000005960464
endloop
endfacet
facet normal -0.0107775507494807 0.999941945075989 8.60918795110004e-17
outer loop
vertex -4.81093692779541 -0.0518531277775764 0
vertex -4.81093692779541 -0.0518531277775764 0.150000005960464
vertex -2.45225977897644 -0.0264308899641037 0
endloop
endfacet
facet normal -0.0107775498181581 0.999941885471344 8.60918795110004e-17
outer loop
vertex -4.81093692779541 -0.0518531277775764 0.150000005960464
vertex -4.81093692779541 -0.0518531277775764 0
vertex -8.50434494018555 -0.0916613340377808 0.150000005960464
endloop
endfacet
facet normal -0.0107775498181581 0.999941885471344 9.25132098143556e-17
outer loop
vertex -8.50434494018555 -0.0916613340377808 0
vertex -8.50434494018555 -0.0916613340377808 0.150000005960464
vertex -4.81093692779541 -0.0518531277775764 0
endloop
endfacet
facet normal -0.0107775507494807 0.999941885471344 9.25132098143556e-17
outer loop
vertex -8.50434494018555 -0.0916613340377808 0.150000005960464
vertex -8.50434494018555 -0.0916613340377808 0
vertex -12.8342008590698 -0.138329282402992 0.150000005960464
endloop
endfacet
facet normal -0.0107775507494807 0.999941885471344 3.25500917935096e-16
outer loop
vertex -12.8342008590698 -0.138329282402992 0
vertex -12.8342008590698 -0.138329282402992 0.150000005960464
vertex -8.50434494018555 -0.0916613340377808 0
endloop
endfacet
facet normal -0.0107775507494807 0.999941885471344 3.25500917935096e-16
outer loop
vertex -12.8342008590698 -0.138329282402992 0.150000005960464
vertex -12.8342008590698 -0.138329282402992 0
vertex -17.1640567779541 -0.184997230768204 0.150000005960464
endloop
endfacet
facet normal -0.0107775507494807 0.999941885471344 0
outer loop
vertex -17.1640567779541 -0.184997230768204 0
vertex -17.1640567779541 -0.184997230768204 0.150000005960464
vertex -12.8342008590698 -0.138329282402992 0
endloop
endfacet
facet normal -0.0107775507494807 0.999941885471344 0
outer loop
vertex -17.1640567779541 -0.184997230768204 0.150000005960464
vertex -17.1640567779541 -0.184997230768204 0
vertex -21.4939117431641 -0.231665179133415 0.150000005960464
endloop
endfacet
facet normal -0.0107775507494807 0.999941885471344 0
outer loop
vertex -21.4939117431641 -0.231665179133415 0
vertex -21.4939117431641 -0.231665179133415 0.150000005960464
vertex -17.1640567779541 -0.184997230768204 0
endloop
endfacet
facet normal -0.0107775498181581 0.999941885471344 0
outer loop
vertex -21.4939117431641 -0.231665179133415 0.150000005960464
vertex -21.4939117431641 -0.231665179133415 0
vertex -25.1873207092285 -0.271473377943039 0.150000005960464
endloop
endfacet
facet normal -0.0107775498181581 0.999941885471344 1.14789177092964e-16
outer loop
vertex -25.1873207092285 -0.271473377943039 0
vertex -25.1873207092285 -0.271473377943039 0.150000005960464
vertex -21.4939117431641 -0.231665179133415 0
endloop
endfacet
facet normal -0.0107775507494807 0.999941945075989 1.14789177092964e-16
outer loop
vertex -25.1873207092285 -0.271473377943039 0.150000005960464
vertex -25.1873207092285 -0.271473377943039 0
vertex -27.5459976196289 -0.296895623207092 0.150000005960464
endloop
endfacet
facet normal -0.0107775507494807 0.999941945075989 -2.55263675399348e-16
outer loop
vertex -27.5459976196289 -0.296895623207092 0
vertex -27.5459976196289 -0.296895623207092 0.150000005960464
vertex -25.1873207092285 -0.271473377943039 0
endloop
endfacet
facet normal -0.0107775498181581 0.999941885471344 -2.55263675399348e-16
outer loop
vertex -27.5459976196289 -0.296895623207092 0.150000005960464
vertex -27.5459976196289 -0.296895623207092 0
vertex -29.0452651977539 -0.313054978847504 0.150000005960464
endloop
endfacet
facet normal -0.0107775498181581 0.999941885471344 -4.84842029585276e-16
outer loop
vertex -29.0452651977539 -0.313054978847504 0
vertex -29.0452651977539 -0.313054978847504 0.150000005960464
vertex -27.5459976196289 -0.296895623207092 0
endloop
endfacet
facet normal -0.0107775507494807 0.999941945075989 -4.84842029585276e-16
outer loop
vertex -29.0452651977539 -0.313054978847504 0.150000005960464
vertex -29.0452651977539 -0.313054978847504 0
vertex -29.9982566833496 -0.323326528072357 0.150000005960464
endloop
endfacet
facet normal -0.0107775507494807 0.999941945075989 0
outer loop
vertex -29.9982566833496 -0.323326528072357 0
vertex -29.9982566833496 -0.323326528072357 0.150000005960464
vertex -29.0452651977539 -0.313054978847504 0
endloop
endfacet
facet normal -0.707115650177002 0.00391435669735074 0.707087099552155
outer loop
vertex -3.13151907920837 -0.011609049513936 -3.1315815448761
vertex -3.13153767585754 -0.033752266317606 -3.13147735595703
vertex 0 0 0
endloop
endfacet
facet normal -0.707115650177002 0.00391435669735074 0.707087099552155
outer loop
vertex -6.26303815841675 -0.0232180990278721 -6.2631630897522
vertex -6.26307535171509 -0.0675045326352119 -6.26295471191406
vertex -3.13151907920837 -0.011609049513936 -3.1315815448761
endloop
endfacet
facet normal -0.707115650177002 0.00391435669735074 0.707087099552155
outer loop
vertex -3.13153767585754 -0.033752266317606 -3.13147735595703
vertex -3.13151907920837 -0.011609049513936 -3.1315815448761
vertex -6.26307535171509 -0.0675045326352119 -6.26295471191406
endloop
endfacet
facet normal -0.707115650177002 0.00391435669735074 0.707087099552155
outer loop
vertex -6.26303815841675 -0.0232180990278721 -6.2631630897522
vertex -9.39455699920654 -0.0348271504044533 -9.39474391937256
vertex -6.26307535171509 -0.0675045326352119 -6.26295471191406
endloop
endfacet
facet normal -0.707115709781647 0.00391435669735074 0.707087099552155
outer loop
vertex -9.39461326599121 -0.101256795227528 -9.39443206787109
vertex -6.26307535171509 -0.0675045326352119 -6.26295471191406
vertex -9.39455699920654 -0.0348271504044533 -9.39474391937256
endloop
endfacet
facet normal -0.707115650177002 0.00391435669735074 0.707087099552155
outer loop
vertex -12.5260763168335 -0.0464361980557442 -12.5263261795044
vertex -12.5261507034302 -0.135009065270424 -12.5259094238281
vertex -9.39455699920654 -0.0348271504044533 -9.39474391937256
endloop
endfacet
facet normal -0.707115709781647 0.00391435669735074 0.707087099552155
outer loop
vertex -9.39461326599121 -0.101256795227528 -9.39443206787109
vertex -9.39455699920654 -0.0348271504044533 -9.39474391937256
vertex -12.5261507034302 -0.135009065270424 -12.5259094238281
endloop
endfacet
facet normal -0.707115650177002 0.00391435669735074 0.707087099552155
outer loop
vertex -12.5260763168335 -0.0464361980557442 -12.5263261795044
vertex -15.6575956344604 -0.0580452494323254 -15.6579074859619
vertex -12.5261507034302 -0.135009065270424 -12.5259094238281
endloop
endfacet
facet normal -0.707115650177002 0.00391435669735074 0.707087099552155
outer loop
vertex -15.6576881408691 -0.16876132786274 -15.6573867797852
vertex -12.5261507034302 -0.135009065270424 -12.5259094238281
vertex -15.6575956344604 -0.0580452494323254 -15.6579074859619
endloop
endfacet
facet normal -0.707115650177002 0.00391435623168945 0.707087099552155
outer loop
vertex -18.685474395752 -0.0692700892686844 -18.6858463287354
vertex -18.6855945587158 -0.201396644115448 -18.6852359771729
vertex -15.6575956344604 -0.0580452494323254 -15.6579074859619
endloop
endfacet
facet normal -0.707115590572357 0.00391435669735074 0.707087099552155
outer loop
vertex -15.6576881408691 -0.16876132786274 -15.6573867797852
vertex -15.6575956344604 -0.0580452494323254 -15.6579074859619
vertex -18.6855945587158 -0.201396644115448 -18.6852359771729
endloop
endfacet
facet normal -0.707115709781647 0.00391435669735074 0.707087099552155
outer loop
vertex -18.685474395752 -0.0692700892686844 -18.6858463287354
vertex -20.4128112792969 -0.0756736025214195 -20.4132175445557
vertex -18.6855945587158 -0.201396644115448 -18.6852359771729
endloop
endfacet
facet normal -0.707115650177002 0.00391435669735074 0.707087099552155
outer loop
vertex -20.4129486083984 -0.220014363527298 -20.4125556945801
vertex -18.6855945587158 -0.201396644115448 -18.6852359771729
vertex -20.4128112792969 -0.0756736025214195 -20.4132175445557
endloop
endfacet
facet normal -0.707115650177002 0.00391435669735074 0.70708703994751
outer loop
vertex -20.4128112792969 -0.0756736025214195 -20.4132175445557
vertex -21.2129192352295 -0.0786397382616997 -21.2133407592773
vertex -20.4129486083984 -0.220014363527298 -20.4125556945801
endloop
endfacet
facet normal -0.707115650177002 0.00391435669735074 0.707087099552155
outer loop
vertex -21.2130565643311 -0.22863806784153 -21.2126483917236
vertex -20.4129486083984 -0.220014363527298 -20.4125556945801
vertex -21.2129192352295 -0.0786397382616997 -21.2133407592773
endloop
endfacet
facet normal 0.707097709178925 0.00462136557325721 -0.707100749015808
outer loop
vertex 0 0 0
vertex 0.000196066277567297 -0.0299993585795164 0
vertex -0.143115773797035 -0.000530553399585187 -0.143118619918823
endloop
endfacet
facet normal 0.707097709178925 0.00462136557325721 -0.707100749015808
outer loop
vertex -0.142914414405823 -0.0313394889235497 -0.143118619918823
vertex -0.143115773797035 -0.000530553399585187 -0.143118619918823
vertex 0.000196066277567297 -0.0299993585795164 0
endloop
endfacet
facet normal 0.707097709178925 0.00462136557325721 -0.707100749015808
outer loop
vertex -0.143115773797035 -0.000530553399585187 -0.143118619918823
vertex -0.142914414405823 -0.0313394889235497 -0.143118619918823
vertex -0.393861442804337 -0.00146010832395405 -0.393869280815125
endloop
endfacet
facet normal 0.707097709178925 0.0046213660389185 -0.707100808620453
outer loop
vertex -0.393650829792023 -0.0336874611675739 -0.393869280815125
vertex -0.393861442804337 -0.00146010832395405 -0.393869280815125
vertex -0.142914414405823 -0.0313394889235497 -0.143118619918823
endloop
endfacet
facet normal 0.70709764957428 0.00462136557325721 -0.707100749015808
outer loop
vertex -0.833179831504822 -0.00308873294852674 -0.833196401596069
vertex -0.393861442804337 -0.00146010832395405 -0.393869280815125
vertex -0.832952976226807 -0.0378012210130692 -0.833196401596069
endloop
endfacet
facet normal 0.707097709178925 0.00462136557325721 -0.707100749015808
outer loop
vertex -0.393650829792023 -0.0336874611675739 -0.393869280815125
vertex -0.832952976226807 -0.0378012210130692 -0.833196401596069
vertex -0.393861442804337 -0.00146010832395405 -0.393869280815125
endloop
endfacet
facet normal 0.707097709178925 0.00462136557325721 -0.707100749015808
outer loop
vertex -1.60288667678833 -0.00594216119498014 -1.60291850566864
vertex -0.833179831504822 -0.00308873294852674 -0.833196401596069
vertex -1.60263133049011 -0.0450087264180183 -1.60291850566864
endloop
endfacet
facet normal 0.707097709178925 0.00462136557325721 -0.707100808620453
outer loop
vertex -0.832952976226807 -0.0378012210130692 -0.833196401596069
vertex -1.60263133049011 -0.0450087264180183 -1.60291850566864
vertex -0.833179831504822 -0.00308873294852674 -0.833196401596069
endloop
endfacet
facet normal 0.707097709178925 0.00462136557325721 -0.707100749015808
outer loop
vertex -1.60288667678833 -0.00594216119498014 -1.60291850566864
vertex -1.60263133049011 -0.0450087264180183 -1.60291850566864
vertex -2.95144987106323 -0.0109415035694838 -2.95150852203369
endloop
endfacet
facet normal 0.70709764957428 0.00462136557325721 -0.707100749015808
outer loop
vertex -2.95114469528198 -0.0576366186141968 -2.95150852203369
vertex -2.95144987106323 -0.0109415035694838 -2.95150852203369
vertex -1.60263133049011 -0.0450087264180183 -1.60291850566864
endloop
endfacet
facet normal 0.70709764957428 0.00462136557325721 -0.707100808620453
outer loop
vertex -5.31419658660889 -0.0197005905210972 -5.31430244445801
vertex -2.95144987106323 -0.0109415035694838 -2.95150852203369
vertex -5.31380414962769 -0.0797612890601158 -5.31430244445801
endloop
endfacet
facet normal 0.707097709178925 0.0046213660389185 -0.707100749015808
outer loop
vertex -2.95114469528198 -0.0576366186141968 -2.95150852203369
vertex -5.31380414962769 -0.0797612890601158 -5.31430244445801
vertex -2.95144987106323 -0.0109415035694838 -2.95150852203369
endloop
endfacet
facet normal 0.707097709178925 0.0046213660389185 -0.707100749015808
outer loop
vertex -5.31419658660889 -0.0197005905210972 -5.31430244445801
vertex -5.31380414962769 -0.0797612890601158 -5.31430244445801
vertex -8.4745922088623 -0.0314166881144047 -8.47476100921631
endloop
endfacet
facet normal 0.707097709178925 0.00462136557325721 -0.707100749015808
outer loop
vertex -8.47408294677734 -0.109355099499226 -8.47476100921631
vertex -8.4745922088623 -0.0314166881144047 -8.47476100921631
vertex -5.31380414962769 -0.0797612890601158 -5.31430244445801
endloop
endfacet
facet normal 0.707097709178925 0.00462136557325721 -0.707100749015808
outer loop
vertex -11.6359424591064 -0.138963729143143 -11.6368007659912
vertex -11.6365690231323 -0.043138649314642 -11.6368007659912
vertex -8.47408294677734 -0.109355099499226 -8.47476100921631
endloop
endfacet
facet normal 0.707097709178925 0.00462136557325721 -0.707100749015808
outer loop
vertex -8.4745922088623 -0.0314166881144047 -8.47476100921631
vertex -8.47408294677734 -0.109355099499226 -8.47476100921631
vertex -11.6365690231323 -0.043138649314642 -11.6368007659912
endloop
endfacet
facet normal 0.707097709178925 0.00462136557325721 -0.707100749015808
outer loop
vertex -11.6359424591064 -0.138963729143143 -11.6368007659912
vertex -14.7978019714355 -0.168572351336479 -14.7988395690918
vertex -11.6365690231323 -0.043138649314642 -11.6368007659912
endloop
endfacet
facet normal 0.707097709178925 0.00462136557325721 -0.707100749015808
outer loop
vertex -14.7985458374023 -0.0548606105148792 -14.7988395690918
vertex -11.6365690231323 -0.043138649314642 -11.6368007659912
vertex -14.7978019714355 -0.168572351336479 -14.7988395690918
endloop
endfacet
facet normal 0.707097709178925 0.00462136557325721 -0.707100749015808
outer loop
vertex -14.7978019714355 -0.168572351336479 -14.7988395690918
vertex -17.6301422119141 -0.195095241069794 -17.6313400268555
vertex -14.7985458374023 -0.0548606105148792 -14.7988395690918
endloop
endfacet
facet normal 0.70709764957428 0.00462136510759592 -0.707100689411163
outer loop
vertex -17.630989074707 -0.0653609409928322 -17.6313400268555
vertex -14.7985458374023 -0.0548606105148792 -14.7988395690918
vertex -17.6301422119141 -0.195095241069794 -17.6313400268555
endloop
endfacet
facet normal 0.70709764957428 0.00462136557325721 -0.707100749015808
outer loop
vertex -19.4235935211182 -0.211889669299126 -19.4248924255371
vertex -19.4245071411133 -0.072009801864624 -19.4248924255371
vertex -17.6301422119141 -0.195095241069794 -17.6313400268555
endloop
endfacet
facet normal 0.707097709178925 0.00462136557325721 -0.707100749015808
outer loop
vertex -17.630989074707 -0.0653609409928322 -17.6313400268555
vertex -17.6301422119141 -0.195095241069794 -17.6313400268555
vertex -19.4245071411133 -0.072009801864624 -19.4248924255371
endloop
endfacet
facet normal 0.707097709178925 0.00462136557325721 -0.707100749015808
outer loop
vertex -19.4235935211182 -0.211889669299126 -19.4248924255371
vertex -20.5297412872314 -0.22224797308445 -20.5311050415039
vertex -19.4245071411133 -0.072009801864624 -19.4248924255371
endloop
endfacet
facet normal 0.707097709178925 0.00462136557325721 -0.707100749015808
outer loop
vertex -20.5306968688965 -0.0761106237769127 -20.5311050415039
vertex -19.4245071411133 -0.072009801864624 -19.4248924255371
vertex -20.5297412872314 -0.22224797308445 -20.5311050415039
endloop
endfacet
facet normal 0.707097709178925 0.00462136557325721 -0.707100749015808
outer loop
vertex -20.5297412872314 -0.22224797308445 -20.5311050415039
vertex -21.2119808197021 -0.228636682033539 -21.2133846282959
vertex -20.5306968688965 -0.0761106237769127 -20.5311050415039
endloop
endfacet
facet normal 0.70709764957428 0.00462136557325721 -0.707100749015808
outer loop
vertex -21.2129611968994 -0.0786398947238922 -21.2133846282959
vertex -20.5306968688965 -0.0761106237769127 -20.5311050415039
vertex -21.2119808197021 -0.228636682033539 -21.2133846282959
endloop
endfacet
facet normal -0.323605954647064 -0.946191906929016 0
outer loop
vertex -3.81518650054932 -33.8021049499512 0.0599999986588955
vertex -3.62367844581604 -33.8675994873047 0.059595201164484
vertex -3.81518650054932 -33.8021049499512 0.0900000035762787
endloop
endfacet
facet normal -0.323605984449387 -0.946191906929016 -1.86578149577368e-14
outer loop
vertex -3.62367844581604 -33.8675994873047 0.0904047936201096
vertex -3.81518650054932 -33.8021049499512 0.0900000035762787
vertex -3.62367844581604 -33.8675994873047 0.059595201164484
endloop
endfacet
facet normal -0.323605984449387 -0.946191966533661 -1.86578166518027e-14
outer loop
vertex -3.62367844581604 -33.8675994873047 0.059595201164484
vertex -3.28814768791199 -33.9823570251465 0.0588859803974628
vertex -3.62367844581604 -33.8675994873047 0.0904047936201096
endloop
endfacet
facet normal -0.323606014251709 -0.946191966533661 -2.13069348948235e-13
outer loop
vertex -3.28814768791199 -33.9823570251465 0.0911140218377113
vertex -3.62367844581604 -33.8675994873047 0.0904047936201096
vertex -3.28814768791199 -33.9823570251465 0.0588859803974628
endloop
endfacet
facet normal -0.323605984449387 -0.946191906929016 -2.14374958756869e-13
outer loop
vertex -2.70028138160706 -34.1834106445313 0.0576433837413788
vertex -2.70028138160706 -34.1834106445313 0.0923566147685051
vertex -3.28814768791199 -33.9823570251465 0.0588859803974628
endloop
endfacet
facet normal -0.323605984449387 -0.946191906929016 -2.13069348948235e-13
outer loop
vertex -3.28814768791199 -33.9823570251465 0.0911140218377113
vertex -3.28814768791199 -33.9823570251465 0.0588859803974628
vertex -2.70028138160706 -34.1834106445313 0.0923566147685051
endloop
endfacet
facet normal -0.323605984449387 -0.946191906929016 -2.3278519953665e-13
outer loop
vertex -1.67031145095825 -34.5356712341309 0.0554663017392159
vertex -1.67031145095825 -34.5356712341309 0.094533696770668
vertex -2.70028138160706 -34.1834106445313 0.0576433837413788
endloop
endfacet
facet normal -0.323605954647064 -0.946191906929016 -2.14374958756869e-13
outer loop
vertex -2.70028138160706 -34.1834106445313 0.0923566147685051
vertex -2.70028138160706 -34.1834106445313 0.0576433837413788
vertex -1.67031145095825 -34.5356712341309 0.094533696770668
endloop
endfacet
facet normal -0.323605984449387 -0.946191906929016 -2.32785172431596e-13
outer loop
vertex -1.67031145095825 -34.5356712341309 0.0554663017392159
vertex 0.134244978427887 -35.1528434753418 0.051651943475008
vertex -1.67031145095825 -34.5356712341309 0.094533696770668
endloop
endfacet
facet normal -0.323605984449387 -0.946191966533661 -5.65501015155692e-14
outer loop
vertex 0.134244978427887 -35.1528434753418 0.0983480587601662
vertex -1.67031145095825 -34.5356712341309 0.094533696770668
vertex 0.134244978427887 -35.1528434753418 0.051651943475008
endloop
endfacet
facet normal -0.323605984449387 -0.946191906929016 -1.9141550391716e-14
outer loop
vertex 3.29591393470764 -36.2341613769531 0.0449690110981464
vertex 3.29591393470764 -36.2341613769531 0.105030991137028
vertex 0.134244978427887 -35.1528434753418 0.051651943475008
endloop
endfacet
facet normal -0.323605984449387 -0.946191906929016 -5.65500981274374e-14
outer loop
vertex 0.134244978427887 -35.1528434753418 0.0983480587601662
vertex 0.134244978427887 -35.1528434753418 0.051651943475008
vertex 3.29591393470764 -36.2341613769531 0.105030991137028
endloop
endfacet
facet normal -0.323605954647064 -0.946191906929016 -1.91415486976501e-14
outer loop
vertex 3.29591393470764 -36.2341613769531 0.0449690110981464
vertex 7.52494239807129 -37.6805267333984 0.0360299609601498
vertex 3.29591393470764 -36.2341613769531 0.105030991137028
endloop
endfacet
facet normal -0.323605984449387 -0.946191906929016 -1.47508111140223e-14
outer loop
vertex 7.52494239807129 -37.6805267333984 0.113970041275024
vertex 3.29591393470764 -36.2341613769531 0.105030991137028
vertex 7.52494239807129 -37.6805267333984 0.0360299609601498
endloop
endfacet
facet normal -0.323605984449387 -0.946191966533661 5.99871655509164e-15
outer loop
vertex 11.7560863494873 -39.1276168823242 0.122913561761379
vertex 7.52494239807129 -37.6805267333984 0.113970041275024
vertex 11.7560863494873 -39.1276168823242 0.0270864386111498
endloop
endfacet
facet normal -0.323605984449387 -0.946191906929016 -1.47508111140223e-14
outer loop
vertex 7.52494239807129 -37.6805267333984 0.0360299609601498
vertex 11.7560863494873 -39.1276168823242 0.0270864386111498
vertex 7.52494239807129 -37.6805267333984 0.113970041275024
endloop
endfacet
facet normal -0.323605984449387 -0.946191966533661 5.99871655509164e-15
outer loop
vertex 11.7560863494873 -39.1276168823242 0.122913561761379
vertex 11.7560863494873 -39.1276168823242 0.0270864386111498
vertex 15.9872312545776 -40.5747032165527 0.131857082247734
endloop
endfacet
facet normal -0.323605984449387 -0.946191906929016 5.05512820459745e-15
outer loop
vertex 15.9872312545776 -40.5747032165527 0.0181429162621498
vertex 15.9872312545776 -40.5747032165527 0.131857082247734
vertex 11.7560863494873 -39.1276168823242 0.0270864386111498
endloop
endfacet
facet normal -0.323605984449387 -0.946191966533661 5.05512778108098e-15
outer loop
vertex 15.9872312545776 -40.5747032165527 0.131857082247734
vertex 15.9872312545776 -40.5747032165527 0.0181429162621498
vertex 19.7774181365967 -41.8709831237793 0.139868542551994
endloop
endfacet
facet normal -0.323605954647064 -0.946191906929016 -6.06825584247885e-14
outer loop
vertex 19.7774181365967 -41.8709831237793 0.0101314624771476
vertex 19.7774181365967 -41.8709831237793 0.139868542551994
vertex 15.9872312545776 -40.5747032165527 0.0181429162621498
endloop
endfacet
facet normal -0.323605984449387 -0.946191906929016 -3.9843470997546e-14
outer loop
vertex 22.1773815155029 -42.6917915344238 0.144941434264183
vertex 19.7774181365967 -41.8709831237793 0.139868542551994
vertex 22.1773815155029 -42.6917915344238 0.00505857262760401
endloop
endfacet
facet normal -0.323605984449387 -0.946191966533661 -6.06825584247885e-14
outer loop
vertex 19.7774181365967 -41.8709831237793 0.0101314624771476
vertex 22.1773815155029 -42.6917915344238 0.00505857262760401
vertex 19.7774181365967 -41.8709831237793 0.139868542551994
endloop
endfacet
facet normal -0.323605984449387 -0.946191906929016 -3.9843470997546e-14
outer loop
vertex 22.1773815155029 -42.6917915344238 0.144941434264183
vertex 22.1773815155029 -42.6917915344238 0.00505857262760401
vertex 23.6576099395752 -43.1980400085449 0.148070245981216
endloop
endfacet
facet normal -0.323605984449387 -0.946191966533661 4.6004351586873e-14
outer loop
vertex 23.6576099395752 -43.1980400085449 0.00192976067773998
vertex 23.6576099395752 -43.1980400085449 0.148070245981216
vertex 22.1773815155029 -42.6917915344238 0.00505857262760401
endloop
endfacet
facet normal -0.323605984449387 -0.946191906929016 4.6004351586873e-14
outer loop
vertex 23.6576099395752 -43.1980400085449 0.148070245981216
vertex 23.6576099395752 -43.1980400085449 0.00192976067773998
vertex 24.5705718994141 -43.5102844238281 0.150000005960464
endloop
endfacet
facet normal -0.323605984449387 -0.946191966533661 0
outer loop
vertex 24.5705718994141 -43.5102844238281 1.52655665885959e-15
vertex 24.5705718994141 -43.5102844238281 0.150000005960464
vertex 23.6576099395752 -43.1980400085449 0.00192976067773998
endloop
endfacet
facet normal 0.00524402363225818 -0.00177281734067947 0.999984681606293
outer loop
vertex 23.7014465332031 -43.1044960021973 -0.100791782140732
vertex 24.6042823791504 -43.4097137451172 -0.106067456305027
vertex 23.7494850158691 -42.9623947143555 -0.100791782140732
endloop
endfacet
facet normal 0.00524402363225818 -0.00177281734067947 0.999984681606293
outer loop
vertex 24.652322769165 -43.2676124572754 -0.106067456305027
vertex 23.7494850158691 -42.9623947143555 -0.100791782140732
vertex 24.6042823791504 -43.4097137451172 -0.106067456305027
endloop
endfacet
facet normal 0.00524402363225818 -0.00177281745709479 0.999984681606293
outer loop
vertex 23.7014465332031 -43.1044960021973 -0.100791782140732
vertex 23.7494850158691 -42.9623947143555 -0.100791782140732
vertex 22.2810840606689 -42.6243209838867 -0.0924919843673706
endloop
endfacet
facet normal 0.00524402363225818 -0.00177281745709479 0.999984681606293
outer loop
vertex 22.329122543335 -42.4822235107422 -0.0924919843673706
vertex 22.2810840606689 -42.6243209838867 -0.0924919843673706
vertex 23.7494850158691 -42.9623947143555 -0.100791782140732
endloop
endfacet
facet normal 0.00524402409791946 -0.00177281757351011 0.999984681606293
outer loop
vertex 22.329122543335 -42.4822235107422 -0.0924919843673706
vertex 20.0945816040039 -41.7268028259277 -0.0794345736503601
vertex 22.2810840606689 -42.6243209838867 -0.0924919843673706
endloop
endfacet
facet normal 0.00524402409791946 -0.00177281757351011 0.999984681606293
outer loop
vertex 20.0465431213379 -41.8689041137695 -0.0794345736503601
vertex 22.2810840606689 -42.6243209838867 -0.0924919843673706
vertex 20.0945816040039 -41.7268028259277 -0.0794345736503601
endloop
endfacet
facet normal 0.00524402363225818 -0.00177281745709479 0.999984622001648
outer loop
vertex 20.0465431213379 -41.8689041137695 -0.0794345736503601
vertex 20.0945816040039 -41.7268028259277 -0.0794345736503601
vertex 16.5475158691406 -40.6860084533691 -0.0589882209897041
endloop
endfacet
facet normal 0.00524402363225818 -0.00177281745709479 0.999984622001648
outer loop
vertex 16.5955543518066 -40.5439071655273 -0.0589882209897041
vertex 16.5475158691406 -40.6860084533691 -0.0589882209897041
vertex 20.0945816040039 -41.7268028259277 -0.0794345736503601
endloop
endfacet
facet normal 0.00524402363225818 -0.00177281745709479 0.999984681606293
outer loop
vertex 16.5475158691406 -40.6860084533691 -0.0589882209897041
vertex 16.5955543518066 -40.5439071655273 -0.0589882209897041
vertex 12.4455375671387 -39.2992744445801 -0.0350185595452785
endloop
endfacet
facet normal 0.00524402363225818 -0.00177281745709479 0.999984681606293
outer loop
vertex 12.4935760498047 -39.1571731567383 -0.0350185595452785
vertex 12.4455375671387 -39.2992744445801 -0.0350185595452785
vertex 16.5955543518066 -40.5439071655273 -0.0589882209897041
endloop
endfacet
facet normal 0.00524402363225818 -0.00177281745709479 0.999984681606293
outer loop
vertex 12.4455375671387 -39.2992744445801 -0.0350185595452785
vertex 12.4935760498047 -39.1571731567383 -0.0350185595452785
vertex 8.34355926513672 -37.912540435791 -0.0110488962382078
endloop
endfacet
facet normal 0.00524402363225818 -0.00177281745709479 0.999984681606293
outer loop
vertex 8.39159774780273 -37.7704429626465 -0.0110488962382078
vertex 8.34355926513672 -37.912540435791 -0.0110488962382078
vertex 12.4935760498047 -39.1571731567383 -0.0350185595452785
endloop
endfacet
facet normal 0.00524402363225818 -0.00177281745709479 0.999984681606293
outer loop
vertex 8.34355926513672 -37.912540435791 -0.0110488962382078
vertex 8.39159774780273 -37.7704429626465 -0.0110488962382078
vertex 4.24158096313477 -36.5258102416992 0.0129207670688629
endloop
endfacet
facet normal 0.00524402363225818 -0.00177281745709479 0.999984681606293
outer loop
vertex 4.28961944580078 -36.3837089538574 0.0129207670688629
vertex 4.24158096313477 -36.5258102416992 0.0129207670688629
vertex 8.39159774780273 -37.7704429626465 -0.0110488962382078
endloop
endfacet
facet normal 0.00524402363225818 -0.00177281745709479 0.999984622001648
outer loop
vertex 0.742554187774658 -35.3429145812988 0.0333671160042286
vertex 4.24158096313477 -36.5258102416992 0.0129207670688629
vertex 0.790592968463898 -35.200813293457 0.0333671160042286
endloop
endfacet
facet normal 0.00524402363225818 -0.00177281745709479 0.999984622001648
outer loop
vertex 4.28961944580078 -36.3837089538574 0.0129207670688629
vertex 0.790592968463898 -35.200813293457 0.0333671160042286
vertex 4.24158096313477 -36.5258102416992 0.0129207670688629
endloop
endfacet
facet normal 0.00524402409791946 -0.00177281757351011 0.999984681606293
outer loop
vertex 0.742554187774658 -35.3429145812988 0.0333671160042286
vertex 0.790592968463898 -35.200813293457 0.0333671160042286
vertex -1.49198734760284 -34.5874938964844 0.0464245267212391
endloop
endfacet
facet normal 0.00524402409791946 -0.00177281757351011 0.999984681606293
outer loop
vertex -1.44394862651825 -34.4453964233398 0.0464245267212391
vertex -1.49198734760284 -34.5874938964844 0.0464245267212391
vertex 0.790592968463898 -35.200813293457 0.0333671160042286
endloop
endfacet
facet normal 0.00524402363225818 -0.00177281745709479 0.999984681606293
outer loop
vertex -2.91234922409058 -34.1073188781738 0.0547243244946003
vertex -1.49198734760284 -34.5874938964844 0.0464245267212391
vertex -2.8643102645874 -33.9652214050293 0.0547243244946003
endloop
endfacet
facet normal 0.00524402363225818 -0.00177281745709479 0.999984681606293
outer loop
vertex -1.44394862651825 -34.4453964233398 0.0464245267212391
vertex -2.8643102645874 -33.9652214050293 0.0547243244946003
vertex -1.49198734760284 -34.5874938964844 0.0464245267212391
endloop
endfacet
facet normal 0.00524402363225818 -0.00177281734067947 0.999984681606293
outer loop
vertex -2.91234922409058 -34.1073188781738 0.0547243244946003
vertex -2.8643102645874 -33.9652214050293 0.0547243244946003
vertex -3.81518650054932 -33.8021049499512 0.0599999986588955
endloop
endfacet
facet normal 0.00524402363225818 -0.00177281734067947 0.999984681606293
outer loop
vertex -3.76714777946472 -33.6600036621094 0.0599999986588955
vertex -3.81518650054932 -33.8021049499512 0.0599999986588955
vertex -2.8643102645874 -33.9652214050293 0.0547243244946003
endloop
endfacet
facet normal -0.230163365602493 -0.668604850769043 -0.707101345062256
outer loop
vertex 24.6046390533447 -43.4098320007324 -0.106069892644882
vertex 24.5705146789551 -43.5102615356445 4.95022050017724e-07
vertex 23.5326747894287 -43.0474395751953 -0.0998059213161469
endloop
endfacet
facet normal -0.230163380503654 -0.668604910373688 -0.707101404666901
outer loop
vertex 23.4998302459717 -43.1440811157227 0.00226362631656229
vertex 23.5326747894287 -43.0474395751953 -0.0998059213161469
vertex 24.5705146789551 -43.5102615356445 4.95022050017724e-07
endloop
endfacet
facet normal -0.230163365602493 -0.668604850769043 -0.707101345062256
outer loop
vertex 23.5326747894287 -43.0474395751953 -0.0998059213161469
vertex 23.4998302459717 -43.1440811157227 0.00226362631656229
vertex 21.2184371948242 -42.265079498291 -0.0862827897071838
endloop
endfacet
facet normal -0.230163365602493 -0.668604850769043 -0.707101285457611
outer loop
vertex 21.1883811950684 -42.3535423278809 0.00714938854798675
vertex 21.2184371948242 -42.265079498291 -0.0862827897071838
vertex 23.4998302459717 -43.1440811157227 0.00226362631656229
endloop
endfacet
facet normal -0.230163380503654 -0.668604850769043 -0.707101345062256
outer loop
vertex 21.1883811950684 -42.3535423278809 0.00714938854798675
vertex 17.1366729736328 -40.9678230285645 0.0157135743647814
vertex 21.2184371948242 -42.265079498291 -0.0862827897071838
endloop
endfacet
facet normal -0.230163365602493 -0.668604910373688 -0.707101345062256
outer loop
vertex 17.1618499755859 -40.8936920166016 -0.0625783130526543
vertex 21.2184371948242 -42.265079498291 -0.0862827897071838
vertex 17.1366729736328 -40.9678230285645 0.0157135743647814
endloop
endfacet
facet normal -0.230163380503654 -0.668604910373688 -0.707101345062256
outer loop
vertex 17.1618499755859 -40.8936920166016 -0.0625783130526543
vertex 17.1366729736328 -40.9678230285645 0.0157135743647814
vertex 12.9664421081543 -39.4753723144531 -0.038062646985054
endloop
endfacet
facet normal -0.230163365602493 -0.668604850769043 -0.707101345062256
outer loop
vertex 12.9463014602661 -39.5346794128418 0.0245708599686623
vertex 12.9664421081543 -39.4753723144531 -0.038062646985054
vertex 17.1366729736328 -40.9678230285645 0.0157135743647814
endloop
endfacet
facet normal -0.230163365602493 -0.668604850769043 -0.707101345062256
outer loop
vertex 12.9463014602661 -39.5346794128418 0.0245708599686623
vertex 8.7559289932251 -38.1015357971191 0.033428143709898
vertex 12.9664421081543 -39.4753723144531 -0.038062646985054
endloop
endfacet
facet normal -0.230163395404816 -0.668604850769043 -0.707101345062256
outer loop
vertex 8.77103519439697 -38.057056427002 -0.0135469855740666
vertex 12.9664421081543 -39.4753723144531 -0.038062646985054
vertex 8.7559289932251 -38.1015357971191 0.033428143709898
endloop
endfacet
facet normal -0.230163395404816 -0.668604850769043 -0.707101345062256
outer loop
vertex 8.77103519439697 -38.057056427002 -0.0135469855740666
vertex 8.7559289932251 -38.1015357971191 0.033428143709898
vertex 4.57562780380249 -36.6387367248535 0.0109686758369207
endloop
endfacet
facet normal -0.230163365602493 -0.668604850769043 -0.707101345062256
outer loop
vertex 4.5655574798584 -36.6683921813965 0.042285431176424
vertex 4.57562780380249 -36.6387367248535 0.0109686758369207
vertex 8.7559289932251 -38.1015357971191 0.033428143709898
endloop
endfacet
facet normal -0.230163365602493 -0.668604850769043 -0.707101345062256
outer loop
vertex 4.5655574798584 -36.6683921813965 0.042285431176424
vertex 0.375185489654541 -35.2352485656738 0.0511427149176598
vertex 4.57562780380249 -36.6387367248535 0.0109686758369207
endloop
endfacet
facet normal -0.230163365602493 -0.668604850769043 -0.707101345062256
outer loop
vertex 0.380220711231232 -35.2204208374023 0.0354843363165855
vertex 4.57562780380249 -36.6387367248535 0.0109686758369207
vertex 0.375185489654541 -35.2352485656738 0.0511427149176598
endloop
endfacet
facet normal -0.230163365602493 -0.668604850769043 -0.707101345062256
outer loop
vertex 0.375185489654541 -35.2352485656738 0.0511427149176598
vertex -3.81518650054932 -33.8021049499512 0.0599999986588955
vertex 0.380220711231232 -35.2204208374023 0.0354843363165855
endloop
endfacet
facet normal -0.947275161743164 0.320239990949631 0.0107775507494807
outer loop
vertex -3.81518650054932 -33.8021049499512 0.0900000035762787
vertex -3.80545592308044 -33.8053932189941 1.0429927110672
vertex -3.76714777946472 -33.6600036621094 0.0900000035762787
endloop
endfacet
facet normal -0.947275161743164 0.320239990949631 0.0107775507494807
outer loop
vertex -3.75741720199585 -33.6632919311523 1.0429927110672
vertex -3.76714777946472 -33.6600036621094 0.0900000035762787
vertex -3.80545592308044 -33.8053932189941 1.0429927110672
endloop
endfacet
facet normal -0.947275161743164 0.320239961147308 0.0107775498181581
outer loop
vertex -3.7421088218689 -33.6684684753418 2.54225993156433
vertex -3.75741720199585 -33.6632919311523 1.0429927110672
vertex -3.79014778137207 -33.8105697631836 2.54225993156433
endloop
endfacet
facet normal -0.947275161743164 0.320239961147308 0.0107775498181581
outer loop
vertex -3.80545592308044 -33.8053932189941 1.0429927110672
vertex -3.79014778137207 -33.8105697631836 2.54225993156433
vertex -3.75741720199585 -33.6632919311523 1.0429927110672
endloop
endfacet
facet normal -0.947275161743164 0.320239961147308 0.0107775507494807
outer loop
vertex -3.7421088218689 -33.6684684753418 2.54225993156433
vertex -3.79014778137207 -33.8105697631836 2.54225993156433
vertex -3.71802568435669 -33.6766090393066 4.9009370803833
endloop
endfacet
facet normal -0.947275161743164 0.320239961147308 0.0107775507494807
outer loop
vertex -3.76606440544128 -33.8187103271484 4.9009370803833
vertex -3.71802568435669 -33.6766090393066 4.9009370803833
vertex -3.79014778137207 -33.8105697631836 2.54225993156433
endloop
endfacet
facet normal -0.947275102138519 0.320239961147308 0.0107775498181581
outer loop
vertex -3.71802568435669 -33.6766090393066 4.9009370803833
vertex -3.76606440544128 -33.8187103271484 4.9009370803833
vertex -3.68031406402588 -33.6893577575684 8.59434509277344
endloop
endfacet
facet normal -0.947275102138519 0.320239961147308 0.0107775498181581
outer loop
vertex -3.72835302352905 -33.8314590454102 8.59434509277344
vertex -3.68031406402588 -33.6893577575684 8.59434509277344
vertex -3.76606440544128 -33.8187103271484 4.9009370803833
endloop
endfacet
facet normal -0.947275161743164 0.320239961147308 0.0107775516808033
outer loop
vertex -3.72835302352905 -33.8314590454102 8.59434509277344
vertex -3.68414306640625 -33.8464050292969 12.9242010116577
vertex -3.68031406402588 -33.6893577575684 8.59434509277344
endloop
endfacet
facet normal -0.947275161743164 0.320239961147308 0.0107775516808033
outer loop
vertex -3.63610410690308 -33.7043037414551 12.9242010116577
vertex -3.68031406402588 -33.6893577575684 8.59434509277344
vertex -3.68414306640625 -33.8464050292969 12.9242010116577
endloop
endfacet
facet normal -0.947275161743164 0.320239961147308 0.0107775516808033
outer loop
vertex -3.59189414978027 -33.7192497253418 17.254056930542
vertex -3.63610410690308 -33.7043037414551 12.9242010116577
vertex -3.63993310928345 -33.8613510131836 17.254056930542
endloop
endfacet
facet normal -0.947275161743164 0.320239961147308 0.0107775516808033
outer loop
vertex -3.68414306640625 -33.8464050292969 12.9242010116577
vertex -3.63993310928345 -33.8613510131836 17.254056930542
vertex -3.63610410690308 -33.7043037414551 12.9242010116577
endloop
endfacet
facet normal -0.947275161743164 0.320239961147308 0.0107775516808033
outer loop
vertex -3.59189414978027 -33.7192497253418 17.254056930542
vertex -3.63993310928345 -33.8613510131836 17.254056930542
vertex -3.54768419265747 -33.7341957092285 21.583911895752
endloop
endfacet
facet normal -0.947275161743164 0.320239961147308 0.0107775516808033
outer loop
vertex -3.59572315216064 -33.8762969970703 21.583911895752
vertex -3.54768419265747 -33.7341957092285 21.583911895752
vertex -3.63993310928345 -33.8613510131836 17.254056930542
endloop
endfacet
facet normal -0.947275102138519 0.320239961147308 0.0107775498181581
outer loop
vertex -3.59572315216064 -33.8762969970703 21.583911895752
vertex -3.55801153182983 -33.889045715332 25.2773208618164
vertex -3.54768419265747 -33.7341957092285 21.583911895752
endloop
endfacet
facet normal -0.947275102138519 0.320239961147308 0.0107775498181581
outer loop
vertex -3.50997281074524 -33.7469444274902 25.2773208618164
vertex -3.54768419265747 -33.7341957092285 21.583911895752
vertex -3.55801153182983 -33.889045715332 25.2773208618164
endloop
endfacet
facet normal -0.947275161743164 0.320239961147308 0.0107775507494807
outer loop
vertex -3.48588943481445 -33.7550888061523 27.6359977722168
vertex -3.50997281074524 -33.7469444274902 25.2773208618164
vertex -3.53392839431763 -33.8971862792969 27.6359977722168
endloop
endfacet
facet normal -0.947275161743164 0.320239961147308 0.0107775507494807
outer loop
vertex -3.55801153182983 -33.889045715332 25.2773208618164
vertex -3.53392839431763 -33.8971862792969 27.6359977722168
vertex -3.50997281074524 -33.7469444274902 25.2773208618164
endloop
endfacet
facet normal -0.947275161743164 0.320239961147308 0.0107775498181581
outer loop
vertex -3.48588943481445 -33.7550888061523 27.6359977722168
vertex -3.53392839431763 -33.8971862792969 27.6359977722168
vertex -3.47058129310608 -33.7602615356445 29.1352653503418
endloop
endfacet
facet normal -0.947275161743164 0.320239961147308 0.0107775498181581
outer loop
vertex -3.51862001419067 -33.9023628234863 29.1352653503418
vertex -3.47058129310608 -33.7602615356445 29.1352653503418
vertex -3.53392839431763 -33.8971862792969 27.6359977722168
endloop
endfacet
facet normal -0.947275161743164 0.320239990949631 0.0107775507494807
outer loop
vertex -3.47058129310608 -33.7602615356445 29.1352653503418
vertex -3.51862001419067 -33.9023628234863 29.1352653503418
vertex -3.46085071563721 -33.7635536193848 30.0882568359375
endloop
endfacet
facet normal -0.947275161743164 0.320239990949631 0.0107775507494807
outer loop
vertex -3.5088894367218 -33.9056510925293 30.0882568359375
vertex -3.46085071563721 -33.7635536193848 30.0882568359375
vertex -3.51862001419067 -33.9023628234863 29.1352653503418
endloop
endfacet
facet normal 0.323606044054031 0.946191906929016 -3.81086210836656e-05
outer loop
vertex 24.5702323913574 -43.5101623535156 0.300005227327347
vertex 24.5705146789551 -43.5102615356445 0.149999886751175
vertex 23.4995670318604 -43.143985748291 0.292084038257599
endloop
endfacet
facet normal 0.323606073856354 0.946191906929016 -3.81086247216444e-05
outer loop
vertex 23.4998302459717 -43.1440811157227 0.147736728191376
vertex 23.4995670318604 -43.143985748291 0.292084038257599
vertex 24.5705146789551 -43.5102615356445 0.149999886751175
endloop
endfacet
facet normal 0.323606073856354 0.946191906929016 -3.81086247216444e-05
outer loop
vertex 23.4995670318604 -43.143985748291 0.292084038257599
vertex 23.4998302459717 -43.1440811157227 0.147736728191376
vertex 21.1881313323975 -42.3534545898438 0.274983257055283
endloop
endfacet
facet normal 0.323606044054031 0.946191847324371 -3.81086210836656e-05
outer loop
vertex 21.1883811950684 -42.3535423278809 0.142850935459137
vertex 21.1881313323975 -42.3534545898438 0.274983257055283
vertex 23.4998302459717 -43.1440811157227 0.147736728191376
endloop
endfacet
facet normal 0.323606044054031 0.946191906929016 -3.81086247216444e-05
outer loop
vertex 21.1883811950684 -42.3535423278809 0.142850935459137
vertex 17.1366729736328 -40.9678230285645 0.13428670167923
vertex 21.1881313323975 -42.3534545898438 0.274983257055283
endloop
endfacet
facet normal 0.323606073856354 0.946191966533661 -3.81086247216444e-05
outer loop
vertex 17.13645362854 -40.9677429199219 0.245007529854774
vertex 21.1881313323975 -42.3534545898438 0.274983257055283
vertex 17.1366729736328 -40.9678230285645 0.13428670167923
endloop
endfacet
facet normal 0.323606044054031 0.946191847324371 -3.81086247216444e-05
outer loop
vertex 17.13645362854 -40.9677429199219 0.245007529854774
vertex 17.1366729736328 -40.9678230285645 0.13428670167923
vertex 12.9461259841919 -39.5346145629883 0.214006021618843
endloop
endfacet
facet normal 0.323606044054031 0.946191906929016 -3.81086210836656e-05
outer loop
vertex 12.9463014602661 -39.5346794128418 0.12542936205864
vertex 12.9461259841919 -39.5346145629883 0.214006021618843
vertex 17.1366729736328 -40.9678230285645 0.13428670167923
endloop
endfacet
facet normal 0.323606044054031 0.946191906929016 -3.81086210836656e-05
outer loop
vertex 12.9463014602661 -39.5346794128418 0.12542936205864
vertex 8.7559289932251 -38.1015357971191 0.116572022438049
vertex 12.9461259841919 -39.5346145629883 0.214006021618843
endloop
endfacet
facet normal 0.323606044054031 0.946191906929016 -3.81086210836656e-05
outer loop
vertex 8.75579738616943 -38.101490020752 0.183004513382912
vertex 12.9461259841919 -39.5346145629883 0.214006021618843
vertex 8.7559289932251 -38.1015357971191 0.116572022438049
endloop
endfacet
facet normal 0.323606044054031 0.946191906929016 -3.81086210836656e-05
outer loop
vertex 8.75579738616943 -38.101490020752 0.183004513382912
vertex 8.7559289932251 -38.1015357971191 0.116572022438049
vertex 4.56546974182129 -36.6683616638184 0.15200300514698
endloop
endfacet
facet normal 0.323606044054031 0.946191906929016 -3.81086210836656e-05
outer loop
vertex 4.5655574798584 -36.6683921813965 0.107714682817459
vertex 4.56546974182129 -36.6683616638184 0.15200300514698
vertex 8.7559289932251 -38.1015357971191 0.116572022438049
endloop
endfacet
facet normal 0.323606044054031 0.946191906929016 -3.81086210836656e-05
outer loop
vertex 4.5655574798584 -36.6683921813965 0.107714682817459
vertex 0.375185489654541 -35.2352485656738 0.0988573431968689
vertex 4.56546974182129 -36.6683616638184 0.15200300514698
endloop
endfacet
facet normal 0.323606044054031 0.946191906929016 -3.81086210836656e-05
outer loop
vertex 0.375141620635986 -35.2352333068848 0.121001504361629
vertex 4.56546974182129 -36.6683616638184 0.15200300514698
vertex 0.375185489654541 -35.2352485656738 0.0988573431968689
endloop
endfacet
facet normal 0.323606044054031 0.946191906929016 -3.81086210836656e-05
outer loop
vertex 0.375185489654541 -35.2352485656738 0.0988573431968689
vertex -3.81518650054932 -33.8021049499512 0.0900000035762787
vertex 0.375141620635986 -35.2352333068848 0.121001504361629
endloop
endfacet
facet normal 0.222077116370201 0.671337902545929 -0.707097709178925
outer loop
vertex -3.73872828483582 -33.6696128845215 0.08980393409729
vertex -3.76714777946472 -33.6600036621094 0.0900000035762787
vertex -3.69162392616272 -33.5344581604004 0.232914417982101
endloop
endfacet
facet normal 0.222077116370201 0.671337902545929 -0.707097768783569
outer loop
vertex -3.72081017494202 -33.5245933532715 0.233115777373314
vertex -3.69162392616272 -33.5344581604004 0.232914417982101
vertex -3.76714777946472 -33.6600036621094 0.0900000035762787
endloop
endfacet
facet normal 0.222077116370201 0.671337962150574 -0.707097768783569
outer loop
vertex -3.72081017494202 -33.5245933532715 0.233115777373314
vertex -3.63962435722351 -33.2873458862305 0.483861446380615
vertex -3.69162392616272 -33.5344581604004 0.232914417982101
endloop
endfacet
facet normal 0.222077131271362 0.671337962150574 -0.707097709178925
outer loop
vertex -3.60909461975098 -33.2976684570313 0.483650833368301
vertex -3.69162392616272 -33.5344581604004 0.232914417982101
vertex -3.63962435722351 -33.2873458862305 0.483861446380615
endloop
endfacet
facet normal 0.22207710146904 0.671337902545929 -0.70709764957428
outer loop
vertex -3.49738335609436 -32.8716812133789 0.923179864883423
vertex -3.4644992351532 -32.8827972412109 0.922953009605408
vertex -3.63962435722351 -33.2873458862305 0.483861446380615
endloop
endfacet
facet normal 0.222077116370201 0.671337902545929 -0.707097709178925
outer loop
vertex -3.60909461975098 -33.2976684570313 0.483650833368301
vertex -3.63962435722351 -33.2873458862305 0.483861446380615
vertex -3.4644992351532 -32.8827972412109 0.922953009605408
endloop
endfacet
facet normal 0.22207710146904 0.671337962150574 -0.707097709178925
outer loop
vertex -3.2481701374054 -32.1434135437012 1.69288671016693
vertex -3.2111611366272 -32.1559257507324 1.69263136386871
vertex -3.49738335609436 -32.8716812133789 0.923179864883423
endloop
endfacet
facet normal 0.22207710146904 0.671337902545929 -0.70709764957428
outer loop
vertex -3.4644992351532 -32.8827972412109 0.922953009605408
vertex -3.49738335609436 -32.8716812133789 0.923179864883423
vertex -3.2111611366272 -32.1559257507324 1.69263136386871
endloop
endfacet
facet normal 0.222077131271362 0.671337962150574 -0.707097709178925
outer loop
vertex -3.2481701374054 -32.1434135437012 1.69288671016693
vertex -2.81153655052185 -30.8674545288086 3.04144978523254
vertex -3.2111611366272 -32.1559257507324 1.69263136386871
endloop
endfacet
facet normal 0.222077131271362 0.671337962150574 -0.707097709178925
outer loop
vertex -2.7673008441925 -30.8824100494385 3.04114460945129
vertex -3.2111611366272 -32.1559257507324 1.69263136386871
vertex -2.81153655052185 -30.8674545288086 3.04144978523254
endloop
endfacet
facet normal 0.222077131271362 0.671337962150574 -0.707097709178925
outer loop
vertex -2.04653382301331 -28.6319141387939 5.40419673919678
vertex -1.9896365404129 -28.6511497497559 5.40380430221558
vertex -2.81153655052185 -30.8674545288086 3.04144978523254
endloop
endfacet
facet normal 0.222077116370201 0.671337902545929 -0.707097709178925
outer loop
vertex -2.7673008441925 -30.8824100494385 3.04114460945129
vertex -2.81153655052185 -30.8674545288086 3.04144978523254
vertex -1.9896365404129 -28.6511497497559 5.40380430221558
endloop
endfacet
facet normal 0.222077131271362 0.671337962150574 -0.707097709178925
outer loop
vertex -2.04653382301331 -28.6319141387939 5.40419673919678
vertex -1.0232709646225 -25.6416683197021 8.5645923614502
vertex -1.9896365404129 -28.6511497497559 5.40380430221558
endloop
endfacet
facet normal 0.22207710146904 0.671337902545929 -0.70709764957428
outer loop
vertex -0.949437618255615 -25.6666297912598 8.56408309936523
vertex -1.9896365404129 -28.6511497497559 5.40380430221558
vertex -1.0232709646225 -25.6416683197021 8.5645923614502
endloop
endfacet
facet normal 0.222077116370201 0.671337902545929 -0.707097709178925
outer loop
vertex -1.0232709646225 -25.6416683197021 8.5645923614502
vertex 0.000503814429976046 -22.6499271392822 11.7265691757202
vertex -0.949437618255615 -25.6666297912598 8.56408309936523
endloop
endfacet
facet normal 0.222077116370201 0.671337962150574 -0.707097709178925
outer loop
vertex 0.0912818014621735 -22.6806163787842 11.7259426116943
vertex -0.949437618255615 -25.6666297912598 8.56408309936523
vertex 0.000503814429976046 -22.6499271392822 11.7265691757202
endloop
endfacet
facet normal 0.222077116370201 0.671337902545929 -0.707097709178925
outer loop
vertex 1.02427864074707 -19.6581859588623 14.8885459899902
vertex 1.13200116157532 -19.6946029663086 14.8878021240234
vertex 0.000503814429976046 -22.6499271392822 11.7265691757202
endloop
endfacet
facet normal 0.222077116370201 0.671337962150574 -0.707097709178925
outer loop
vertex 0.0912818014621735 -22.6806163787842 11.7259426116943
vertex 0.000503814429976046 -22.6499271392822 11.7265691757202
vertex 1.13200116157532 -19.6946029663086 14.8878021240234
endloop
endfacet
facet normal 0.22207710146904 0.671337902545929 -0.70709764957428
outer loop
vertex 1.94135844707489 -16.978235244751 17.7209892272949
vertex 2.06425976753235 -17.0197830200195 17.720142364502
vertex 1.02427864074707 -19.6581859588623 14.8885459899902
endloop
endfacet
facet normal 0.222077116370201 0.671337902545929 -0.707097709178925
outer loop
vertex 1.13200116157532 -19.6946029663086 14.8878021240234
vertex 1.02427864074707 -19.6581859588623 14.8885459899902
vertex 2.06425976753235 -17.0197830200195 17.720142364502
endloop
endfacet
facet normal 0.222077131271362 0.671337902545929 -0.707097709178925
outer loop
vertex 1.94135844707489 -16.978235244751 17.7209892272949
vertex 2.52205777168274 -15.2812776565552 19.5145072937012
vertex 2.06425976753235 -17.0197830200195 17.720142364502
endloop
endfacet
facet normal 0.222077116370201 0.671337902545929 -0.70709764957428
outer loop
vertex 2.65457010269165 -15.326075553894 19.5135917663574
vertex 2.06425976753235 -17.0197830200195 17.720142364502
vertex 2.52205777168274 -15.2812776565552 19.5145072937012
endloop
endfacet
facet normal 0.222077116370201 0.671337962150574 -0.707097709178925
outer loop
vertex 2.88021636009216 -14.2346439361572 20.6206970214844
vertex 3.01865649223328 -14.2814455032349 20.6197414398193
vertex 2.52205777168274 -15.2812776565552 19.5145072937012
endloop
endfacet
facet normal 0.22207710146904 0.671337902545929 -0.70709764957428
outer loop
vertex 2.65457010269165 -15.326075553894 19.5135917663574
vertex 2.52205777168274 -15.2812776565552 19.5145072937012
vertex 3.01865649223328 -14.2814455032349 20.6197414398193
endloop
endfacet
facet normal 0.222077116370201 0.671337902545929 -0.707097709178925
outer loop
vertex 2.88021636009216 -14.2346439361572 20.6206970214844
vertex 3.10111808776855 -13.5891103744507 21.3029613494873
vertex 3.01865649223328 -14.2814455032349 20.6197414398193
endloop
endfacet
facet normal 0.222077116370201 0.671337902545929 -0.70709764957428
outer loop
vertex 3.24321460723877 -13.6371479034424 21.30198097229
vertex 3.01865649223328 -14.2814455032349 20.6197414398193
vertex 3.10111808776855 -13.5891103744507 21.3029613494873
endloop
endfacet
facet normal -0.230158880352974 -0.668591380119324 0.707115650177002
outer loop
vertex -2.75323438644409 -30.6970806121826 3.22151923179626
vertex -3.76714777946472 -33.6600036621094 0.0900000035762787
vertex -2.73229074478149 -30.7042694091797 3.22153759002686
endloop
endfacet
facet normal -0.230158880352974 -0.668591380119324 0.707115650177002
outer loop
vertex -1.73932099342346 -27.7341556549072 6.35303831100464
vertex -2.75323438644409 -30.6970806121826 3.22151923179626
vertex -1.69743371009827 -27.7485370635986 6.35307550430298
endloop
endfacet
facet normal -0.230158880352974 -0.668591380119324 0.707115650177002
outer loop
vertex -2.73229074478149 -30.7042694091797 3.22153759002686
vertex -1.69743371009827 -27.7485370635986 6.35307550430298
vertex -2.75323438644409 -30.6970806121826 3.22151923179626
endloop
endfacet
facet normal -0.230158880352974 -0.668591380119324 0.707115650177002
outer loop
vertex -1.73932099342346 -27.7341556549072 6.35303831100464
vertex -1.69743371009827 -27.7485370635986 6.35307550430298
vertex -0.725407600402832 -24.7712326049805 9.48455715179443
endloop
endfacet
facet normal -0.230158895254135 -0.668591380119324 0.707115709781647
outer loop
vertex -0.662576675415039 -24.7928028106689 9.4846134185791
vertex -0.725407600402832 -24.7712326049805 9.48455715179443
vertex -1.69743371009827 -27.7485370635986 6.35307550430298
endloop
endfacet
facet normal -0.230158880352974 -0.668591380119324 0.707115650177002
outer loop
vertex 0.288505792617798 -21.8083095550537 12.6160764694214
vertex -0.725407600402832 -24.7712326049805 9.48455715179443
vertex 0.372280299663544 -21.8370685577393 12.6161508560181
endloop
endfacet
facet normal -0.230158895254135 -0.668591380119324 0.707115709781647
outer loop
vertex -0.662576675415039 -24.7928028106689 9.4846134185791
vertex 0.372280299663544 -21.8370685577393 12.6161508560181
vertex -0.725407600402832 -24.7712326049805 9.48455715179443
endloop
endfacet
facet normal -0.230158880352974 -0.668591380119324 0.707115650177002
outer loop
vertex 0.288505792617798 -21.8083095550537 12.6160764694214
vertex 0.372280299663544 -21.8370685577393 12.6161508560181
vertex 1.30241918563843 -18.8453845977783 15.7475957870483
endloop
endfacet
facet normal -0.230158880352974 -0.668591320514679 0.707115590572357
outer loop
vertex 1.40713727474213 -18.8813362121582 15.747688293457
vertex 1.30241918563843 -18.8453845977783 15.7475957870483
vertex 0.372280299663544 -21.8370685577393 12.6161508560181
endloop
endfacet
facet normal -0.230158880352974 -0.668591320514679 0.707115650177002
outer loop
vertex 2.28277635574341 -15.9805212020874 18.7754745483398
vertex 1.30241918563843 -18.8453845977783 15.7475957870483
vertex 2.40774822235107 -16.0234146118164 18.7755947113037
endloop
endfacet
facet normal -0.230158880352974 -0.668591320514679 0.707115650177002
outer loop
vertex 1.40713727474213 -18.8813362121582 15.747688293457
vertex 2.40774822235107 -16.0234146118164 18.7755947113037
vertex 1.30241918563843 -18.8453845977783 15.7475957870483
endloop
endfacet
facet normal -0.230158880352974 -0.668591320514679 0.707115709781647
outer loop
vertex 2.28277635574341 -15.9805212020874 18.7754745483398
vertex 2.40774822235107 -16.0234146118164 18.7755947113037
vertex 2.84204769134521 -14.3461828231812 20.5028114318848
endloop
endfacet
facet normal -0.230158880352974 -0.668591320514679 0.707115650177002
outer loop
vertex 2.97857427597046 -14.3930349349976 20.5029487609863
vertex 2.84204769134521 -14.3461828231812 20.5028114318848
vertex 2.40774822235107 -16.0234146118164 18.7755947113037
endloop
endfacet
facet normal -0.230158880352974 -0.668591320514679 0.707115650177002
outer loop
vertex 2.84204769134521 -14.3461828231812 20.5028114318848
vertex 2.97857427597046 -14.3930349349976 20.5029487609863
vertex 3.10110425949097 -13.589150428772 21.3029193878174
endloop
endfacet
facet normal -0.230158895254135 -0.668591320514679 0.707115650177002
outer loop
vertex 3.24298024177551 -13.6378450393677 21.3030567169189
vertex 3.10110425949097 -13.589150428772 21.3029193878174
vertex 2.97857427597046 -14.3930349349976 20.5029487609863
endloop
endfacet
facet normal 3.81086210836656e-05 -0.00353572075255215 -0.999993741512299
outer loop
vertex -0.210005208849907 -29.9994525909424 0.256062358617783
vertex -0.202084049582481 -28.8679065704346 0.252061784267426
vertex -0.0599998794496059 -29.9997520446777 0.256069123744965
endloop
endfacet
facet normal 3.81086210836656e-05 -0.00353572051972151 -0.999993681907654
outer loop
vertex -0.0577367357909679 -28.8681869506836 0.252068281173706
vertex -0.0599998794496059 -29.9997520446777 0.256069123744965
vertex -0.202084049582481 -28.8679065704346 0.252061784267426
endloop
endfacet
facet normal 3.81086210836656e-05 -0.00353572075255215 -0.999993741512299
outer loop
vertex -0.202084049582481 -28.8679065704346 0.252061784267426
vertex -0.184983253479004 -26.4250411987305 0.243425101041794
vertex -0.0577367357909679 -28.8681869506836 0.252068281173706
endloop
endfacet
facet normal 3.81086210836656e-05 -0.00353572051972151 -0.999993741512299
outer loop
vertex -0.0528509430587292 -26.4253063201904 0.243431076407433
vertex -0.0577367357909679 -28.8681869506836 0.252068281173706
vertex -0.184983253479004 -26.4250411987305 0.243425101041794
endloop
endfacet
facet normal 3.81086283596233e-05 -0.00353572121821344 -0.999993801116943
outer loop
vertex -0.0528509430587292 -26.4253063201904 0.243431076407433
vertex -0.184983253479004 -26.4250411987305 0.243425101041794
vertex -0.0442867018282413 -22.1432132720947 0.228291019797325
endloop
endfacet
facet normal 3.81086247216444e-05 -0.0035357209853828 -0.999993801116943
outer loop
vertex -0.155007526278496 -22.1429786682129 0.22828596830368
vertex -0.0442867018282413 -22.1432132720947 0.228291019797325
vertex -0.184983253479004 -26.4250411987305 0.243425101041794
endloop
endfacet
facet normal 3.81086247216444e-05 -0.00353572075255215 -0.999993741512299
outer loop
vertex -0.155007526278496 -22.1429786682129 0.22828596830368
vertex -0.124006025493145 -17.7143840789795 0.212628781795502
vertex -0.0442867018282413 -22.1432132720947 0.228291019797325
endloop
endfacet
facet normal 3.81086247216444e-05 -0.0035357209853828 -0.999993741512299
outer loop
vertex -0.0354293622076511 -17.7145690917969 0.212632820010185
vertex -0.0442867018282413 -22.1432132720947 0.228291019797325
vertex -0.124006025493145 -17.7143840789795 0.212628781795502
endloop
endfacet
facet normal 3.81086247216444e-05 -0.0035357209853828 -0.999993741512299
outer loop
vertex -0.0354293622076511 -17.7145690917969 0.212632820010185
vertex -0.124006025493145 -17.7143840789795 0.212628781795502
vertex -0.0265720207244158 -13.285927772522 0.196974605321884
endloop
endfacet
facet normal 3.81086247216444e-05 -0.00353572121821344 -0.999993801116943
outer loop
vertex -0.0930045172572136 -13.2857875823975 0.196971580386162
vertex -0.0265720207244158 -13.285927772522 0.196974605321884
vertex -0.124006025493145 -17.7143840789795 0.212628781795502
endloop
endfacet
facet normal 3.81086247216444e-05 -0.00353572121821344 -0.999993801116943
outer loop
vertex -0.0930045172572136 -13.2857875823975 0.196971580386162
vertex -0.0620030127465725 -8.85719203948975 0.181314393877983
vertex -0.0265720207244158 -13.285927772522 0.196974605321884
endloop
endfacet
facet normal 3.81086247216444e-05 -0.0035357209853828 -0.999993741512299
outer loop
vertex -0.0177146811038256 -8.85728454589844 0.181316405534744
vertex -0.0265720207244158 -13.285927772522 0.196974605321884
vertex -0.0620030127465725 -8.85719203948975 0.181314393877983
endloop
endfacet
facet normal 3.81086247216444e-05 -0.0035357209853828 -0.999993741512299
outer loop
vertex -0.0177146811038256 -8.85728454589844 0.181316405534744
vertex -0.0620030127465725 -8.85719203948975 0.181314393877983
vertex -0.00885734055191278 -4.42864227294922 0.165658205747604
endloop
endfacet
facet normal 3.81086247216444e-05 -0.0035357209853828 -0.999993741512299
outer loop
vertex -0.0310015063732862 -4.42859601974487 0.165657192468643
vertex -0.00885734055191278 -4.42864227294922 0.165658205747604
vertex -0.0620030127465725 -8.85719203948975 0.181314393877983
endloop
endfacet
facet normal 3.81086247216444e-05 -0.0035357209853828 -0.999993741512299
outer loop
vertex -0.00885734055191278 -4.42864227294922 0.165658205747604
vertex -0.0310015063732862 -4.42859601974487 0.165657192468643
vertex 0 0 0.150000005960464
endloop
endfacet
facet normal -1 0 0
outer loop
vertex -0.166069999337196 -30 0
vertex -0.166069999337196 -31 0
vertex -0.166069999337196 -30 0.150000005960464
endloop
endfacet
facet normal -1 0 0
outer loop
vertex -0.166069999337196 -31 0.150000005960464
vertex -0.166069999337196 -30 0.150000005960464
vertex -0.166069999337196 -31 0
endloop
endfacet
facet normal -0.707106828689575 -0 -0.707106828689575
outer loop
vertex -0.166069999337196 -30 0
vertex -0.0599999986588955 -30 -0.106069996953011
vertex -0.166069999337196 -31 0
endloop
endfacet
facet normal -0.707106828689575 0 -0.707106828689575
outer loop
vertex -0.0599999986588955 -31 -0.106069996953011
vertex -0.166069999337196 -31 0
vertex -0.0599999986588955 -30 -0.106069996953011
endloop
endfacet
facet normal -0.707106828689575 0 0.707106828689575
outer loop
vertex -0.0599999986588955 -31 0.256069988012314
vertex -0.0599999986588955 -30 0.256069988012314
vertex -0.166069999337196 -31 0.150000005960464
endloop
endfacet
facet normal -0.707106828689575 0 0.707106828689575
outer loop
vertex -0.166069999337196 -30 0.150000005960464
vertex -0.166069999337196 -31 0.150000005960464
vertex -0.0599999986588955 -30 0.256069988012314
endloop
endfacet
facet normal 0 0 -1
outer loop
vertex -0.0599999986588955 -30 -0.106069996953011
vertex 0.0900000035762787 -30 -0.106069996953011
vertex -0.0599999986588955 -31 -0.106069996953011
endloop
endfacet
facet normal 0 0 -1
outer loop
vertex 0.0900000035762787 -31 -0.106069996953011
vertex -0.0599999986588955 -31 -0.106069996953011
vertex 0.0900000035762787 -30 -0.106069996953011
endloop
endfacet
facet normal -0 0 1
outer loop
vertex -0.0599999986588955 -30 0.256069988012314
vertex -0.0599999986588955 -31 0.256069988012314
vertex 0.0900000035762787 -30 0.256069988012314
endloop
endfacet
facet normal 0 -0 1
outer loop
vertex 0.0900000035762787 -31 0.256069988012314
vertex 0.0900000035762787 -30 0.256069988012314
vertex -0.0599999986588955 -31 0.256069988012314
endloop
endfacet
facet normal 0.707106828689575 0 -0.707106828689575
outer loop
vertex 0.0900000035762787 -30 -0.106069996953011
vertex 0.196070000529289 -30 0
vertex 0.0900000035762787 -31 -0.106069996953011
endloop
endfacet
facet normal 0.707106828689575 0 -0.707106828689575
outer loop
vertex 0.196070000529289 -31 0
vertex 0.0900000035762787 -31 -0.106069996953011
vertex 0.196070000529289 -30 0
endloop
endfacet
facet normal 0.707106828689575 0 0.707106828689575
outer loop
vertex 0.0900000035762787 -30 0.256069988012314
vertex 0.0900000035762787 -31 0.256069988012314
vertex 0.196070000529289 -30 0.150000005960464
endloop
endfacet
facet normal 0.707106828689575 -0 0.707106828689575
outer loop
vertex 0.196070000529289 -31 0.150000005960464
vertex 0.196070000529289 -30 0.150000005960464
vertex 0.0900000035762787 -31 0.256069988012314
endloop
endfacet
facet normal 1 0 0
outer loop
vertex 0.196070000529289 -30 0.150000005960464
vertex 0.196070000529289 -31 0.150000005960464
vertex 0.196070000529289 -30 0
endloop
endfacet
facet normal 1 0 0
outer loop
vertex 0.196070000529289 -31 0
vertex 0.196070000529289 -30 0
vertex 0.196070000529289 -31 0.150000005960464
endloop
endfacet
facet normal -0 0.00353564415127039 0.999993741512299
outer loop
vertex -0.0599999986588955 -29.999813079834 0.256069332361221
vertex 0.0900000035762787 -29.999813079834 0.256069332361221
vertex -0.0580702386796474 -29.0349388122559 0.252657860517502
endloop
endfacet
facet normal 3.79845493039748e-16 0.00353564438410103 0.999993741512299
outer loop
vertex 0.08807023614645 -29.0349388122559 0.252657860517502
vertex -0.0580702386796474 -29.0349388122559 0.252657860517502
vertex 0.0900000035762787 -29.999813079834 0.256069332361221
endloop
endfacet
facet normal 3.79845493039748e-16 0.00353564461693168 0.999993741512299
outer loop
vertex 0.08807023614645 -29.0349388122559 0.252657860517502
vertex 0.0849414244294167 -27.4705429077148 0.247126683592796
vertex -0.0580702386796474 -29.0349388122559 0.252657860517502
endloop
endfacet
facet normal -0 0.00353564461693168 0.999993741512299
outer loop
vertex -0.0549414269626141 -27.4705429077148 0.247126683592796
vertex -0.0580702386796474 -29.0349388122559 0.252657860517502
vertex 0.0849414244294167 -27.4705429077148 0.247126683592796
endloop
endfacet
facet normal -0 0.00353564415127039 0.999993681907654
outer loop
vertex -0.0549414269626141 -27.4705429077148 0.247126683592796
vertex 0.0849414244294167 -27.4705429077148 0.247126683592796
vertex -0.0498685389757156 -24.9341125488281 0.238158717751503
endloop
endfacet
facet normal -1.17115870719953e-16 0.00353564438410103 0.999993741512299
outer loop
vertex 0.0798685401678085 -24.9341125488281 0.238158717751503
vertex -0.0498685389757156 -24.9341125488281 0.238158717751503
vertex 0.0849414244294167 -27.4705429077148 0.247126683592796
endloop
endfacet
facet normal -1.17115870719953e-16 0.00353564484976232 0.999993801116943
outer loop
vertex 0.0798685401678085 -24.9341125488281 0.238158717751503
vertex 0.0718570873141289 -20.9284114837646 0.223995879292488
vertex -0.0498685389757156 -24.9341125488281 0.238158717751503
endloop
endfacet
facet normal -2.90391931666997e-16 0.00353564461693168 0.999993801116943
outer loop
vertex -0.0418570823967457 -20.9284114837646 0.223995879292488
vertex -0.0498685389757156 -24.9341125488281 0.238158717751503
vertex 0.0718570873141289 -20.9284114837646 0.223995879292488
endloop
endfacet
facet normal -2.90391905197218e-16 0.00353564461693168 0.999993801116943
outer loop
vertex -0.0418570823967457 -20.9284114837646 0.223995879292488
vertex 0.0718570873141289 -20.9284114837646 0.223995879292488
vertex -0.0329135619103909 -16.4566783905029 0.208185330033302
endloop
endfacet
facet normal 1.03603193817074e-16 0.00353564438410103 0.999993741512299
outer loop
vertex 0.0629135593771935 -16.4566783905029 0.208185330033302
vertex -0.0329135619103909 -16.4566783905029 0.208185330033302
vertex 0.0718570873141289 -20.9284114837646 0.223995879292488
endloop
endfacet
facet normal 1.03603193817074e-16 0.00353564438410103 0.999993741512299
outer loop
vertex 0.0629135593771935 -16.4566783905029 0.208185330033302
vertex 0.0539700388908386 -11.9849443435669 0.192374765872955
vertex -0.0329135619103909 -16.4566783905029 0.208185330033302
endloop
endfacet
facet normal 6.78440038828396e-16 0.00353564461693168 0.999993741512299
outer loop
vertex -0.0239700395613909 -11.9849443435669 0.192374765872955
vertex -0.0329135619103909 -16.4566783905029 0.208185330033302
vertex 0.0539700388908386 -11.9849443435669 0.192374765872955
endloop
endfacet
facet normal 6.78439985888837e-16 0.00353564461693168 0.999993741512299
outer loop
vertex -0.0239700395613909 -11.9849443435669 0.192374765872955
vertex 0.0539700388908386 -11.9849443435669 0.192374765872955
vertex -0.0150309894233942 -7.51544761657715 0.176572114229202
endloop
endfacet
facet normal -1.16875818935723e-15 0.00353564484976232 0.999993801116943
outer loop
vertex 0.0450309887528419 -7.51544761657715 0.176572114229202
vertex -0.0150309894233942 -7.51544761657715 0.176572114229202
vertex 0.0539700388908386 -11.9849443435669 0.192374765872955
endloop
endfacet
facet normal -1.16875808347811e-15 0.00353564461693168 0.999993741512299
outer loop
vertex 0.0450309887528419 -7.51544761657715 0.176572114229202
vertex 0.0383480563759804 -4.17400169372559 0.164757877588272
vertex -0.0150309894233942 -7.51544761657715 0.176572114229202
endloop
endfacet
facet normal 1.32326589278236e-15 0.00353564461693168 0.999993801116943
outer loop
vertex -0.00834805518388748 -4.17400169372559 0.164757877588272
vertex -0.0150309894233942 -7.51544761657715 0.176572114229202
vertex 0.0383480563759804 -4.17400169372559 0.164757877588272
endloop
endfacet
facet normal 1.32326589278236e-15 0.00353564461693168 0.999993801116943
outer loop
vertex -0.00834805518388748 -4.17400169372559 0.164757877588272
vertex 0.0383480563759804 -4.17400169372559 0.164757877588272
vertex -0.00453369971364737 -2.26683568954468 0.15801477432251
endloop
endfacet
facet normal -1.03197390919957e-15 0.00353564461693168 0.999993801116943
outer loop
vertex 0.0345336981117725 -2.26683568954468 0.15801477432251
vertex -0.00453369971364737 -2.26683568954468 0.15801477432251
vertex 0.0383480563759804 -4.17400169372559 0.164757877588272
endloop
endfacet
facet normal -1.03197380332045e-15 0.00353564461693168 0.999993801116943
outer loop
vertex 0.0345336981117725 -2.26683568954468 0.15801477432251
vertex 0.0323566161096096 -1.1783002614975 0.15416607260704
vertex -0.00453369971364737 -2.26683568954468 0.15801477432251
endloop
endfacet
facet normal -9.35257993216177e-16 0.00353564484976232 0.999993801116943
outer loop
vertex -0.002356615383178 -1.1783002614975 0.15416607260704
vertex -0.00453369971364737 -2.26683568954468 0.15801477432251
vertex 0.0323566161096096 -1.1783002614975 0.15416607260704
endloop
endfacet
facet normal 1.85641733478354e-15 0.00353564438410103 0.999993741512299
outer loop
vertex -0.00111402105540037 -0.557007074356079 0.151969388127327
vertex -0.002356615383178 -1.1783002614975 0.15416607260704
vertex 0.0311140213161707 -0.557007074356079 0.151969388127327
endloop
endfacet
facet normal -9.35257993216177e-16 0.00353564438410103 0.999993681907654
outer loop
vertex 0.0323566161096096 -1.1783002614975 0.15416607260704
vertex 0.0311140213161707 -0.557007074356079 0.151969388127327
vertex -0.002356615383178 -1.1783002614975 0.15416607260704
endloop
endfacet
facet normal 1.85641733478354e-15 0.00353564461693168 0.999993801116943
outer loop
vertex 0.0311140213161707 -0.557007074356079 0.151969388127327
vertex 0.0304047968238592 -0.20239731669426 0.150715604424477
vertex -0.00111402105540037 -0.557007074356079 0.151969388127327
endloop
endfacet
facet normal -6.68886102753409e-17 0.00353564461693168 0.999993801116943
outer loop
vertex -0.000404797145165503 -0.20239731669426 0.150715604424477
vertex -0.00111402105540037 -0.557007074356079 0.151969388127327
vertex 0.0304047968238592 -0.20239731669426 0.150715604424477
endloop
endfacet
facet normal -6.6888603657896e-17 0.00353564438410103 0.999993741512299
outer loop
vertex -0.000404797145165503 -0.20239731669426 0.150715604424477
vertex 0.0304047968238592 -0.20239731669426 0.150715604424477
vertex 0 0 0.150000005960464
endloop
endfacet
facet normal 0 0.00353564438410103 0.999993681907654
outer loop
vertex 0.0299999993294477 0 0.150000005960464
vertex 0 0 0.150000005960464
vertex 0.0304047968238592 -0.20239731669426 0.150715604424477
endloop
endfacet
facet normal -0.999984681606293 -0.00553558161482215 0
outer loop
vertex 0.196067452430725 -29.9995403289795 0
vertex 0.196067452430725 -29.9995403289795 0.150000005960464
vertex 0.19079178571701 -29.0465068817139 0
endloop
endfacet
facet normal -0.999984681606293 -0.00553558161482215 1.61776251964197e-16
outer loop
vertex 0.19079178571701 -29.0465068817139 0.150000005960464
vertex 0.19079178571701 -29.0465068817139 0
vertex 0.196067452430725 -29.9995403289795 0.150000005960464
endloop
endfacet
facet normal -0.999984681606293 -0.00553558161482215 1.61776265199087e-16
outer loop
vertex 0.19079178571701 -29.0465068817139 0.150000005960464
vertex 0.182491987943649 -27.547176361084 0.150000005960464
vertex 0.19079178571701 -29.0465068817139 0
endloop
endfacet
facet normal -0.999984681606293 -0.00553558161482215 -1.85034334092812e-16
outer loop
vertex 0.182491987943649 -27.547176361084 0
vertex 0.19079178571701 -29.0465068817139 0
vertex 0.182491987943649 -27.547176361084 0.150000005960464
endloop
endfacet
facet normal -0.999984681606293 -0.00553558161482215 -1.85034334092812e-16
outer loop
vertex 0.182491987943649 -27.547176361084 0
vertex 0.182491987943649 -27.547176361084 0.150000005960464
vertex 0.169434577226639 -25.1883983612061 0
endloop
endfacet
facet normal -0.999984681606293 -0.00553558161482215 1.85034334092812e-16
outer loop
vertex 0.169434577226639 -25.1883983612061 0.150000005960464
vertex 0.169434577226639 -25.1883983612061 0
vertex 0.182491987943649 -27.547176361084 0.150000005960464
endloop
endfacet
facet normal -0.999984622001648 -0.00553558161482215 1.85034334092812e-16
outer loop
vertex 0.169434577226639 -25.1883983612061 0
vertex 0.169434577226639 -25.1883983612061 0.150000005960464
vertex 0.148988217115402 -21.4948310852051 0
endloop
endfacet
facet normal -0.999984622001648 -0.00553558161482215 -0
outer loop
vertex 0.148988217115402 -21.4948310852051 0.150000005960464
vertex 0.148988217115402 -21.4948310852051 0
vertex 0.169434577226639 -25.1883983612061 0.150000005960464
endloop
endfacet
facet normal -0.999984681606293 -0.00553558161482215 0
outer loop
vertex 0.148988217115402 -21.4948310852051 0
vertex 0.148988217115402 -21.4948310852051 0.150000005960464
vertex 0.125018566846848 -17.1647911071777 0
endloop
endfacet
facet normal -0.999984681606293 -0.00553558161482215 2.62217815896306e-16
outer loop
vertex 0.125018566846848 -17.1647911071777 0.150000005960464
vertex 0.125018566846848 -17.1647911071777 0
vertex 0.148988217115402 -21.4948310852051 0.150000005960464
endloop
endfacet
facet normal -0.999984681606293 -0.00553558161482215 2.62217815896306e-16
outer loop
vertex 0.125018566846848 -17.1647911071777 0
vertex 0.125018566846848 -17.1647911071777 0.150000005960464
vertex 0.101048894226551 -12.8347501754761 0
endloop
endfacet
facet normal -0.999984681606293 -0.00553558161482215 -1.7340529964595e-16
outer loop
vertex 0.101048894226551 -12.8347501754761 0.150000005960464
vertex 0.101048894226551 -12.8347501754761 0
vertex 0.125018566846848 -17.1647911071777 0.150000005960464
endloop
endfacet
facet normal -0.999984681606293 -0.00553558161482215 -1.7340529964595e-16
outer loop
vertex 0.101048894226551 -12.8347501754761 0
vertex 0.101048894226551 -12.8347501754761 0.150000005960464
vertex 0.0770792365074158 -8.50470924377441 0
endloop
endfacet
facet normal -0.999984681606293 -0.00553558161482215 -6.92590915352362e-17
outer loop
vertex 0.0770792365074158 -8.50470924377441 0.150000005960464
vertex 0.0770792365074158 -8.50470924377441 0
vertex 0.101048894226551 -12.8347501754761 0.150000005960464
endloop
endfacet
facet normal -0.999984622001648 -0.00553558161482215 -6.92590849177913e-17
outer loop
vertex 0.0770792365074158 -8.50470924377441 0
vertex 0.0770792365074158 -8.50470924377441 0.150000005960464
vertex 0.0566328838467598 -4.81114292144775 0
endloop
endfacet
facet normal -0.999984622001648 -0.00553558161482215 -4.04440629910493e-17
outer loop
vertex 0.0566328838467598 -4.81114292144775 0.150000005960464
vertex 0.0566328838467598 -4.81114292144775 0
vertex 0.0770792365074158 -8.50470924377441 0.150000005960464
endloop
endfacet
facet normal -0.999984681606293 -0.00553558161482215 -4.04440662997718e-17
outer loop
vertex 0.0566328838467598 -4.81114292144775 0
vertex 0.0566328838467598 -4.81114292144775 0.150000005960464
vertex 0.0435754731297493 -2.45236468315125 0
endloop
endfacet
facet normal -0.999984681606293 -0.00553558161482215 -1.08905785503009e-16
outer loop
vertex 0.0435754731297493 -2.45236468315125 0.150000005960464
vertex 0.0435754731297493 -2.45236468315125 0
vertex 0.0566328838467598 -4.81114292144775 0.150000005960464
endloop
endfacet
facet normal -0.999984681606293 -0.00553558161482215 -1.08905778885564e-16
outer loop
vertex 0.0435754731297493 -2.45236468315125 0
vertex 0.0435754731297493 -2.45236468315125 0.150000005960464
vertex 0.0352756753563881 -0.953033447265625 0
endloop
endfacet
facet normal -0.999984681606293 -0.00553558161482215 2.45829227218206e-17
outer loop
vertex 0.0352756753563881 -0.953033447265625 0.150000005960464
vertex 0.0352756753563881 -0.953033447265625 0
vertex 0.0435754731297493 -2.45236468315125 0.150000005960464
endloop
endfacet
facet normal -0.999984681606293 -0.00553558161482215 2.45829210674593e-17
outer loop
vertex 0.0352756753563881 -0.953033447265625 0
vertex 0.0352756753563881 -0.953033447265625 0.150000005960464
vertex 0.0299999993294477 0 0
endloop
endfacet
facet normal -0.999984681606293 -0.00553558161482215 -0
outer loop
vertex 0.0299999993294477 0 0.150000005960464
vertex 0.0299999993294477 0 0
vertex 0.0352756753563881 -0.953033447265625 0.150000005960464
endloop
endfacet
facet normal 0.707101345062256 0.0039142775349319 0.707101345062256
outer loop
vertex 0.196069896221161 -29.9999160766602 0.149999633431435
vertex 0.189805924892426 -28.8683528900146 0.149999648332596
vertex 0.0899995043873787 -29.9997520446777 0.256069123744965
endloop
endfacet
facet normal 0.707101404666901 0.0039142775349319 0.707101404666901
outer loop
vertex 0.0877363756299019 -28.8681869506836 0.252068281173706
vertex 0.0899995043873787 -29.9997520446777 0.256069123744965
vertex 0.189805924892426 -28.8683528900146 0.149999648332596
endloop
endfacet
facet normal 0.707101345062256 0.00391427706927061 0.707101345062256
outer loop
vertex 0.189805924892426 -28.8683528900146 0.149999648332596
vertex 0.176282793283463 -26.4254474639893 0.149999678134918
vertex 0.0877363756299019 -28.8681869506836 0.252068281173706
endloop
endfacet
facet normal 0.707101285457611 0.00391427706927061 0.707101285457611
outer loop
vertex 0.0828506126999855 -26.4253063201904 0.243431076407433
vertex 0.0877363756299019 -28.8681869506836 0.252068281173706
vertex 0.176282793283463 -26.4254474639893 0.149999678134918
endloop
endfacet
facet normal 0.707101345062256 0.0039142775349319 0.707101345062256
outer loop
vertex 0.0828506126999855 -26.4253063201904 0.243431076407433
vertex 0.176282793283463 -26.4254474639893 0.149999678134918
vertex 0.0742864236235619 -22.1432132720947 0.228291019797325
endloop
endfacet
facet normal 0.707101345062256 0.0039142775349319 0.707101345062256
outer loop
vertex 0.152578309178352 -22.1433200836182 0.149999737739563
vertex 0.0742864236235619 -22.1432132720947 0.228291019797325
vertex 0.176282793283463 -26.4254474639893 0.149999678134918
endloop
endfacet
facet normal 0.707101345062256 0.0039142775349319 0.707101345062256
outer loop
vertex 0.152578309178352 -22.1433200836182 0.149999737739563
vertex 0.128062650561333 -17.714656829834 0.149999782443047
vertex 0.0742864236235619 -22.1432132720947 0.228291019797325
endloop
endfacet
facet normal 0.707101404666901 0.0039142775349319 0.707101404666901
outer loop
vertex 0.0654291361570358 -17.7145690917969 0.212632820010185
vertex 0.0742864236235619 -22.1432132720947 0.228291019797325
vertex 0.128062650561333 -17.714656829834 0.149999782443047
endloop
endfacet
facet normal 0.707101404666901 0.0039142775349319 0.707101404666901
outer loop
vertex 0.0654291361570358 -17.7145690917969 0.212632820010185
vertex 0.128062650561333 -17.714656829834 0.149999782443047
vertex 0.0565718561410904 -13.285927772522 0.196974605321884
endloop
endfacet
facet normal 0.707101345062256 0.0039142775349319 0.707101345062256
outer loop
vertex 0.103546984493732 -13.2859926223755 0.149999842047691
vertex 0.0565718561410904 -13.285927772522 0.196974605321884
vertex 0.128062650561333 -17.714656829834 0.149999782443047
endloop
endfacet
facet normal 0.707101345062256 0.0039142775349319 0.707101345062256
outer loop
vertex 0.103546984493732 -13.2859926223755 0.149999842047691
vertex 0.0790313258767128 -8.85732841491699 0.149999886751175
vertex 0.0565718561410904 -13.285927772522 0.196974605321884
endloop
endfacet
facet normal 0.707101404666901 0.0039142775349319 0.707101404666901
outer loop
vertex 0.0477145686745644 -8.85728454589844 0.181316405534744
vertex 0.0565718561410904 -13.285927772522 0.196974605321884
vertex 0.0790313258767128 -8.85732841491699 0.149999886751175
endloop
endfacet
facet normal 0.707101404666901 0.0039142775349319 0.707101404666901
outer loop
vertex 0.0477145686745644 -8.85728454589844 0.181316405534744
vertex 0.0790313258767128 -8.85732841491699 0.149999886751175
vertex 0.0388572849333286 -4.42864227294922 0.165658205747604
endloop
endfacet
facet normal 0.707101404666901 0.0039142775349319 0.707101404666901
outer loop
vertex 0.0545156635344028 -4.4286642074585 0.14999994635582
vertex 0.0388572849333286 -4.42864227294922 0.165658205747604
vertex 0.0790313258767128 -8.85732841491699 0.149999886751175
endloop
endfacet
facet normal 0.707101404666901 0.0039142775349319 0.707101404666901
outer loop
vertex 0.0388572849333286 -4.42864227294922 0.165658205747604
vertex 0.0545156635344028 -4.4286642074585 0.14999994635582
vertex 0.0299999993294477 0 0.150000005960464
endloop
endfacet
facet normal 0.707101345062256 0.0039142775349319 -0.707101345062256
outer loop
vertex 0.256067335605621 -59.9996681213379 -0.106070809066296
vertex 0.253804206848145 -58.8680953979492 -0.102069936692715
vertex 0.362134903669357 -59.999080657959 0
endloop
endfacet
facet normal 0.707101404666901 0.0039142775349319 -0.707101404666901
outer loop
vertex 0.355870991945267 -58.8675231933594 0
vertex 0.362134903669357 -59.999080657959 0
vertex 0.253804206848145 -58.8680953979492 -0.102069936692715
endloop
endfacet
facet normal 0.707101345062256 0.00391427706927061 -0.707101345062256
outer loop
vertex 0.253804206848145 -58.8680953979492 -0.102069936692715
vertex 0.248918414115906 -56.4251747131348 -0.0934325531125069
vertex 0.355870991945267 -58.8675231933594 0
endloop
endfacet
facet normal 0.707101285457611 0.00391427706927061 -0.707101285457611
outer loop
vertex 0.342348098754883 -56.4246597290039 0
vertex 0.355870991945267 -58.8675231933594 0
vertex 0.248918414115906 -56.4251747131348 -0.0934325531125069
endloop
endfacet
facet normal 0.707101345062256 0.0039142775349319 -0.707101345062256
outer loop
vertex 0.342348098754883 -56.4246597290039 0
vertex 0.248918414115906 -56.4251747131348 -0.0934325531125069
vertex 0.318644016981125 -52.1425971984863 0
endloop
endfacet
facet normal 0.707101345062256 0.0039142775349319 -0.707101345062256
outer loop
vertex 0.240354150533676 -52.1430168151855 -0.0782922208309174
vertex 0.318644016981125 -52.1425971984863 0
vertex 0.248918414115906 -56.4251747131348 -0.0934325531125069
endloop
endfacet
facet normal 0.707101345062256 0.0039142775349319 -0.707101345062256
outer loop
vertex 0.240354150533676 -52.1430168151855 -0.0782922208309174
vertex 0.231496810913086 -47.7143211364746 -0.0626337751746178
vertex 0.318644016981125 -52.1425971984863 0
endloop
endfacet
facet normal 0.707101404666901 0.0039142775349319 -0.707101404666901
outer loop
vertex 0.294128715991974 -47.7139854431152 0
vertex 0.318644016981125 -52.1425971984863 0
vertex 0.231496810913086 -47.7143211364746 -0.0626337751746178
endloop
endfacet
facet normal 0.707101404666901 0.0039142775349319 -0.707101404666901
outer loop
vertex 0.294128715991974 -47.7139854431152 0
vertex 0.231496810913086 -47.7143211364746 -0.0626337751746178
vertex 0.269613415002823 -43.2853736877441 0
endloop
endfacet
facet normal 0.707101345062256 0.0039142775349319 -0.707101345062256
outer loop
vertex 0.222639471292496 -43.2856254577637 -0.0469753332436085
vertex 0.269613415002823 -43.2853736877441 0
vertex 0.231496810913086 -47.7143211364746 -0.0626337751746178
endloop
endfacet
facet normal 0.707101345062256 0.0039142775349319 -0.707101345062256
outer loop
vertex 0.222639471292496 -43.2856254577637 -0.0469753332436085
vertex 0.213782131671906 -38.8569297790527 -0.0313168875873089
vertex 0.269613415002823 -43.2853736877441 0
endloop
endfacet
facet normal 0.707101404666901 0.0039142775349319 -0.707101404666901
outer loop
vertex 0.245098084211349 -38.856761932373 0
vertex 0.269613415002823 -43.2853736877441 0
vertex 0.213782131671906 -38.8569297790527 -0.0313168875873089
endloop
endfacet
facet normal 0.707101404666901 0.0039142775349319 -0.707101404666901
outer loop
vertex 0.245098084211349 -38.856761932373 0
vertex 0.213782131671906 -38.8569297790527 -0.0313168875873089
vertex 0.220582768321037 -34.428150177002 0
endloop
endfacet
facet normal 0.707101404666901 0.0039142775349319 -0.707101404666901
outer loop
vertex 0.204924792051315 -34.4282341003418 -0.0156584437936544
vertex 0.220582768321037 -34.428150177002 0
vertex 0.213782131671906 -38.8569297790527 -0.0313168875873089
endloop
endfacet
facet normal 0.707101404666901 0.0039142775349319 -0.707101404666901
outer loop
vertex 0.220582768321037 -34.428150177002 0
vertex 0.204924792051315 -34.4282341003418 -0.0156584437936544
vertex 0.196067452430725 -29.9995403289795 0
endloop
endfacet
facet normal 0.222747147083282 0.67111200094223 -0.707101345062256
outer loop
vertex 53.1063194274902 -52.7749252319336 -0.166067346930504
vertex 53.0717926025391 -52.8752212524414 -0.272134900093079
vertex 52.0330657958984 -52.4163208007813 -0.163804218173027
endloop
endfacet
facet normal 0.222747147083282 0.671112060546875 -0.707101404666901
outer loop
vertex 51.9998321533203 -52.5128326416016 -0.265870988368988
vertex 52.0330657958984 -52.4163208007813 -0.163804218173027
vertex 53.0717926025391 -52.8752212524414 -0.272134900093079
endloop
endfacet
facet normal 0.222747147083282 0.67111200094223 -0.707101345062256
outer loop
vertex 52.0330657958984 -52.4163208007813 -0.163804218173027
vertex 51.9998321533203 -52.5128326416016 -0.265870988368988
vertex 49.7160453796387 -51.6421394348145 -0.158918410539627
endloop
endfacet
facet normal 0.222747147083282 0.67111200094223 -0.707101285457611
outer loop
vertex 49.6856346130371 -51.7304840087891 -0.252348095178604
vertex 49.7160453796387 -51.6421394348145 -0.158918410539627
vertex 51.9998321533203 -52.5128326416016 -0.265870988368988
endloop
endfacet
facet normal 0.222747147083282 0.671112060546875 -0.707101345062256
outer loop
vertex 49.6856346130371 -51.7304840087891 -0.252348095178604
vertex 45.6291084289551 -50.3591156005859 -0.228644028306007
vertex 49.7160453796387 -51.6421394348145 -0.158918410539627
endloop
endfacet
facet normal 0.222747147083282 0.67111200094223 -0.707101345062256
outer loop
vertex 45.6545791625977 -50.285083770752 -0.150354146957397
vertex 49.7160453796387 -51.6421394348145 -0.158918410539627
vertex 45.6291084289551 -50.3591156005859 -0.228644028306007
endloop
endfacet
facet normal 0.222747161984444 0.671112060546875 -0.707101345062256
outer loop
vertex 45.6545791625977 -50.285083770752 -0.150354146957397
vertex 45.6291084289551 -50.3591156005859 -0.228644028306007
vertex 41.4541282653809 -48.8815879821777 -0.141496807336807
endloop
endfacet
facet normal 0.222747161984444 0.671112060546875 -0.707101404666901
outer loop
vertex 41.4337501525879 -48.9408149719238 -0.204128712415695
vertex 41.4541282653809 -48.8815879821777 -0.141496807336807
vertex 45.6291084289551 -50.3591156005859 -0.228644028306007
endloop
endfacet
facet normal 0.222747161984444 0.671112060546875 -0.707101404666901
outer loop
vertex 41.4337501525879 -48.9408149719238 -0.204128712415695
vertex 37.2383918762207 -47.5225143432617 -0.179613396525383
vertex 41.4541282653809 -48.8815879821777 -0.141496807336807
endloop
endfacet
facet normal 0.222747147083282 0.671112060546875 -0.707101345062256
outer loop
vertex 37.2536773681641 -47.4780960083008 -0.132639467716217
vertex 41.4541282653809 -48.8815879821777 -0.141496807336807
vertex 37.2383918762207 -47.5225143432617 -0.179613396525383
endloop
endfacet
facet normal 0.222747147083282 0.671112060546875 -0.707101345062256
outer loop
vertex 37.2536773681641 -47.4780960083008 -0.132639467716217
vertex 37.2383918762207 -47.5225143432617 -0.179613396525383
vertex 33.0532264709473 -46.0746002197266 -0.123782128095627
endloop
endfacet
facet normal 0.222747161984444 0.671112060546875 -0.707101404666901
outer loop
vertex 33.0430374145508 -46.1042137145996 -0.155098080635071
vertex 33.0532264709473 -46.0746002197266 -0.123782128095627
vertex 37.2383918762207 -47.5225143432617 -0.179613396525383
endloop
endfacet
facet normal 0.222747161984444 0.671112060546875 -0.707101404666901
outer loop
vertex 33.0430374145508 -46.1042137145996 -0.155098080635071
vertex 28.8476791381836 -44.6859130859375 -0.130582764744759
vertex 33.0532264709473 -46.0746002197266 -0.123782128095627
endloop
endfacet
facet normal 0.222747161984444 0.671112060546875 -0.707101404666901
outer loop
vertex 28.8527736663818 -44.6711082458496 -0.114924795925617
vertex 33.0532264709473 -46.0746002197266 -0.123782128095627
vertex 28.8476791381836 -44.6859130859375 -0.130582764744759
endloop
endfacet
facet normal 0.222747161984444 0.671112060546875 -0.707101404666901
outer loop
vertex 28.8476791381836 -44.6859130859375 -0.130582764744759
vertex 24.652322769165 -43.2676124572754 -0.106067456305027
vertex 28.8527736663818 -44.6711082458496 -0.114924795925617
endloop
endfacet
endsolid COMSOL mesh mesh1
