solid COMSOL mesh mesh1
facet normal -0.0116616496816278 0.999932050704956 0
outer loop
vertex 0 0 0.150000005960464
vertex 0 0 0
vertex -0.96296352148056 -0.011230506002903 0.150825455784798
endloop
endfacet
facet normal -0.0116616496816278 0.999932050704956 3.89003851493478e-18
outer loop
vertex -0.96296352148056 -0.011230506002903 -0.000825453433208168
vertex -0.96296352148056 -0.011230506002903 0.150825455784798
vertex 0 0 0
endloop
endfacet
facet normal -0.0116616487503052 0.999931991100311 3.89003810134447e-18
outer loop
vertex -0.96296352148056 -0.011230506002903 0.150825455784798
vertex -0.96296352148056 -0.011230506002903 -0.000825453433208168
vertex -2.49344348907471 -0.0290796402841806 0.152137383818626
endloop
endfacet
facet normal -0.0116616478189826 0.999931991100311 4.69193552488451e-17
outer loop
vertex -2.49344348907471 -0.0290796402841806 -0.00213738274760544
vertex -2.49344348907471 -0.0290796402841806 0.152137383818626
vertex -0.96296352148056 -0.011230506002903 -0.000825453433208168
endloop
endfacet
facet normal -0.0116616487503052 0.999931931495667 6.41079930154071e-17
outer loop
vertex -4.92590236663818 -0.0574480518698692 0.15422248840332
vertex -2.49344348907471 -0.0290796402841806 0.152137383818626
vertex -4.92590236663818 -0.0574480518698692 -0.00422248942777514
endloop
endfacet
facet normal -0.0116616487503052 0.999932050704956 4.69193585575675e-17
outer loop
vertex -2.49344348907471 -0.0290796402841806 -0.00213738274760544
vertex -4.92590236663818 -0.0574480518698692 -0.00422248942777514
vertex -2.49344348907471 -0.0290796402841806 0.152137383818626
endloop
endfacet
facet normal -0.0116616478189826 0.999931991100311 6.4107999632852e-17
outer loop
vertex -4.92590236663818 -0.0574480518698692 0.15422248840332
vertex -4.92590236663818 -0.0574480518698692 -0.00422248942777514
vertex -8.79191589355469 -0.102535203099251 0.157536447048187
endloop
endfacet
facet normal -0.0116616478189826 0.999931991100311 -1.66918112530945e-16
outer loop
vertex -8.79191589355469 -0.102535203099251 -0.0075364401564002
vertex -8.79191589355469 -0.102535203099251 0.157536447048187
vertex -4.92590236663818 -0.0574480518698692 -0.00422248942777514
endloop
endfacet
facet normal -0.0116616496816278 0.999932050704956 -1.66918125765835e-16
outer loop
vertex -8.79191589355469 -0.102535203099251 0.157536447048187
vertex -8.79191589355469 -0.102535203099251 -0.0075364401564002
vertex -13.8233776092529 -0.161214336752892 0.161849409341812
endloop
endfacet
facet normal -0.0116616487503052 0.999931991100311 -2.00301454457471e-16
outer loop
vertex -13.8233776092529 -0.161214336752892 -0.0118494154885411
vertex -13.8233776092529 -0.161214336752892 0.161849409341812
vertex -8.79191589355469 -0.102535203099251 -0.0075364401564002
endloop
endfacet
facet normal -0.0116616487503052 0.999931991100311 -7.72035856011017e-17
outer loop
vertex -18.8605175018311 -0.219959676265717 0.166167259216309
vertex -13.8233776092529 -0.161214336752892 0.161849409341812
vertex -18.8605175018311 -0.219959676265717 -0.0161672569811344
endloop
endfacet
facet normal -0.0116616487503052 0.999931991100311 -2.00301441222581e-16
outer loop
vertex -13.8233776092529 -0.161214336752892 -0.0118494154885411
vertex -18.8605175018311 -0.219959676265717 -0.0161672569811344
vertex -13.8233776092529 -0.161214336752892 0.161849409341812
endloop
endfacet
facet normal -0.0116616487503052 0.999931991100311 -7.72035856011017e-17
outer loop
vertex -18.8605175018311 -0.219959676265717 0.166167259216309
vertex -18.8605175018311 -0.219959676265717 -0.0161672569811344
vertex -23.8976554870605 -0.278705030679703 0.170485094189644
endloop
endfacet
facet normal -0.0116616487503052 0.999931991100311 -7.37124268124297e-17
outer loop
vertex -23.8976554870605 -0.278705030679703 -0.0204850975424051
vertex -23.8976554870605 -0.278705030679703 0.170485094189644
vertex -18.8605175018311 -0.219959676265717 -0.0161672569811344
endloop
endfacet
facet normal -0.0116616487503052 0.999932050704956 -7.37124334298746e-17
outer loop
vertex -23.8976554870605 -0.278705030679703 0.170485094189644
vertex -23.8976554870605 -0.278705030679703 -0.0204850975424051
vertex -28.5448017120361 -0.332902073860168 0.174468636512756
endloop
endfacet
facet normal -0.0116616478189826 0.999931991100311 -4.87278572797612e-16
outer loop
vertex -28.5448017120361 -0.332902073860168 -0.0244686361402273
vertex -28.5448017120361 -0.332902073860168 0.174468636512756
vertex -23.8976554870605 -0.278705030679703 -0.0204850975424051
endloop
endfacet
facet normal -0.0116616487503052 0.999932050704956 4.05622187932354e-16
outer loop
vertex -31.6618957519531 -0.369255006313324 0.177140608429909
vertex -28.5448017120361 -0.332902073860168 0.174468636512756
vertex -31.6618957519531 -0.369255006313324 -0.0271406136453152
endloop
endfacet
facet normal -0.0116616478189826 0.999931931495667 -4.87278572797612e-16
outer loop
vertex -28.5448017120361 -0.332902073860168 -0.0244686361402273
vertex -31.6618957519531 -0.369255006313324 -0.0271406136453152
vertex -28.5448017120361 -0.332902073860168 0.174468636512756
endloop
endfacet
facet normal -0.0116616487503052 0.999931991100311 -2.67184420052311e-16
outer loop
vertex -33.6848068237305 -0.392847090959549 0.178874656558037
vertex -31.6618957519531 -0.369255006313324 0.177140608429909
vertex -33.6848068237305 -0.392847090959549 -0.0288746543228626
endloop
endfacet
facet normal -0.0116616487503052 0.999931991100311 4.05622187932354e-16
outer loop
vertex -31.6618957519531 -0.369255006313324 -0.0271406136453152
vertex -33.6848068237305 -0.392847090959549 -0.0288746543228626
vertex -31.6618957519531 -0.369255006313324 0.177140608429909
endloop
endfacet
facet normal -0.0116616487503052 0.999931931495667 -2.67184393582532e-16
outer loop
vertex -33.6848068237305 -0.392847090959549 0.178874656558037
vertex -33.6848068237305 -0.392847090959549 -0.0288746543228626
vertex -34.9976196289063 -0.408157706260681 0.180000007152557
endloop
endfacet
facet normal -0.0116616487503052 0.999931991100311 0
outer loop
vertex -34.9976196289063 -0.408157706260681 -0.0299999993294477
vertex -34.9976196289063 -0.408157706260681 0.180000007152557
vertex -33.6848068237305 -0.392847090959549 -0.0288746543228626
endloop
endfacet
facet normal 0.000797739310655743 0.0050975950434804 0.99998664855957
outer loop
vertex -31.3952026367188 -3.97794103622437 0.195323720574379
vertex -31.3737850189209 -3.95632481575012 0.195196449756622
vertex -34.9976196289063 -0.408157706260681 0.180000007152557
endloop
endfacet
facet normal 0.000797739310655743 0.0050975950434804 0.99998664855957
outer loop
vertex -27.7927837371826 -7.54772424697876 0.210647448897362
vertex -27.7499523162842 -7.50449180603027 0.210392892360687
vertex -31.3952026367188 -3.97794103622437 0.195323720574379
endloop
endfacet
facet normal 0.000797739310655743 0.0050975950434804 0.99998664855957
outer loop
vertex -31.3737850189209 -3.95632481575012 0.195196449756622
vertex -31.3952026367188 -3.97794103622437 0.195323720574379
vertex -27.7499523162842 -7.50449180603027 0.210392892360687
endloop
endfacet
facet normal 0.000797739310655743 0.0050975950434804 0.99998664855957
outer loop
vertex -27.7927837371826 -7.54772424697876 0.210647448897362
vertex -24.1903667449951 -11.1175079345703 0.225971162319183
vertex -27.7499523162842 -7.50449180603027 0.210392892360687
endloop
endfacet
facet normal 0.000797739310655743 0.0050975950434804 0.99998664855957
outer loop
vertex -24.1261177062988 -11.052659034729 0.225589334964752
vertex -27.7499523162842 -7.50449180603027 0.210392892360687
vertex -24.1903667449951 -11.1175079345703 0.225971162319183
endloop
endfacet
facet normal 0.000797739310655743 0.0050975950434804 0.99998664855957
outer loop
vertex -20.587947845459 -14.6872911453247 0.241294890642166
vertex -20.5022830963135 -14.6008253097534 0.240785777568817
vertex -24.1903667449951 -11.1175079345703 0.225971162319183
endloop
endfacet
facet normal 0.000797739310655743 0.0050975950434804 0.99998664855957
outer loop
vertex -24.1261177062988 -11.052659034729 0.225589334964752
vertex -24.1903667449951 -11.1175079345703 0.225971162319183
vertex -20.5022830963135 -14.6008253097534 0.240785777568817
endloop
endfacet
facet normal 0.000797739310655743 0.0050975950434804 0.99998664855957
outer loop
vertex -20.587947845459 -14.6872911453247 0.241294890642166
vertex -16.9855289459229 -18.2570743560791 0.256618618965149
vertex -20.5022830963135 -14.6008253097534 0.240785777568817
endloop
endfacet
facet normal 0.000797739368863404 0.0050975950434804 0.999986708164215
outer loop
vertex -16.8784503936768 -18.1489925384521 0.255982220172882
vertex -20.5022830963135 -14.6008253097534 0.240785777568817
vertex -16.9855289459229 -18.2570743560791 0.256618618965149
endloop
endfacet
facet normal 0.000797739368863404 0.00509759550914168 0.999986708164215
outer loop
vertex -13.4377183914185 -21.7727451324463 0.271710067987442
vertex -13.3095369338989 -21.6433849334717 0.270948350429535
vertex -16.9855289459229 -18.2570743560791 0.256618618965149
endloop
endfacet
facet normal 0.000797739252448082 0.0050975950434804 0.99998664855957
outer loop
vertex -16.8784503936768 -18.1489925384521 0.255982220172882
vertex -16.9855289459229 -18.2570743560791 0.256618618965149
vertex -13.3095369338989 -21.6433849334717 0.270948350429535
endloop
endfacet
facet normal 0.000797739310655743 0.0050975950434804 0.99998664855957
outer loop
vertex -13.4377183914185 -21.7727451324463 0.271710067987442
vertex -11.2234745025635 -23.9669303894043 0.281128853559494
vertex -13.3095369338989 -21.6433849334717 0.270948350429535
endloop
endfacet
facet normal 0.000797739310655743 0.0050975950434804 0.99998664855957
outer loop
vertex -11.0821132659912 -23.8242988586426 0.280288994312286
vertex -13.3095369338989 -21.6433849334717 0.270948350429535
vertex -11.2234745025635 -23.9669303894043 0.281128853559494
endloop
endfacet
facet normal 0.000797739310655743 0.0050975950434804 0.999986708164215
outer loop
vertex -11.2234745025635 -23.9669303894043 0.281128853559494
vertex -10.1366424560547 -25.0439167022705 0.285751938819885
vertex -11.0821132659912 -23.8242988586426 0.280288994312286
endloop
endfacet
facet normal 0.000797739310655743 0.0050975950434804 0.999986708164215
outer loop
vertex -9.98882865905762 -24.8947563171387 0.28487366437912
vertex -11.0821132659912 -23.8242988586426 0.280288994312286
vertex -10.1366424560547 -25.0439167022705 0.285751938819885
endloop
endfacet
facet normal -0.70711350440979 0.00421219598501921 0.707087576389313
outer loop
vertex -3.5861074924469 -0.0113941319286823 -3.58617091178894
vertex -3.58614730834961 -0.0418232306838036 -3.58602952957153
vertex 0 0 0
endloop
endfacet
facet normal -0.70711350440979 0.00421219598501921 0.707087576389313
outer loop
vertex -7.1722149848938 -0.0227882638573647 -7.17234182357788
vertex -7.17229461669922 -0.0836464613676071 -7.17205905914307
vertex -3.5861074924469 -0.0113941319286823 -3.58617091178894
endloop
endfacet
facet normal -0.70711350440979 0.00421219598501921 0.707087576389313
outer loop
vertex -3.58614730834961 -0.0418232306838036 -3.58602952957153
vertex -3.5861074924469 -0.0113941319286823 -3.58617091178894
vertex -7.17229461669922 -0.0836464613676071 -7.17205905914307
endloop
endfacet
facet normal -0.70711350440979 0.00421219598501921 0.707087576389313
outer loop
vertex -7.1722149848938 -0.0227882638573647 -7.17234182357788
vertex -10.758321762085 -0.034182395786047 -10.7585124969482
vertex -7.17229461669922 -0.0836464613676071 -7.17205905914307
endloop
endfacet
facet normal -0.707113444805145 0.00421219598501921 0.707087576389313
outer loop
vertex -10.7584419250488 -0.125469699501991 -10.7580881118774
vertex -7.17229461669922 -0.0836464613676071 -7.17205905914307
vertex -10.758321762085 -0.034182395786047 -10.7585124969482
endloop
endfacet
facet normal -0.70711350440979 0.00421219598501921 0.707087576389313
outer loop
vertex -14.3444299697876 -0.0455765277147293 -14.3446836471558
vertex -14.3445892333984 -0.167292922735214 -14.3441181182861
vertex -10.758321762085 -0.034182395786047 -10.7585124969482
endloop
endfacet
facet normal -0.707113444805145 0.00421219598501921 0.707087576389313
outer loop
vertex -10.7584419250488 -0.125469699501991 -10.7580881118774
vertex -10.758321762085 -0.034182395786047 -10.7585124969482
vertex -14.3445892333984 -0.167292922735214 -14.3441181182861
endloop
endfacet
facet normal -0.70711350440979 0.00421219598501921 0.707087576389313
outer loop
vertex -14.3444299697876 -0.0455765277147293 -14.3446836471558
vertex -17.9305362701416 -0.0569706596434116 -17.9308547973633
vertex -14.3445892333984 -0.167292922735214 -14.3441181182861
endloop
endfacet
facet normal -0.707113444805145 0.00421219598501921 0.707087576389313
outer loop
vertex -17.930736541748 -0.209116160869598 -17.9301471710205
vertex -14.3445892333984 -0.167292922735214 -14.3441181182861
vertex -17.9305362701416 -0.0569706596434116 -17.9308547973633
endloop
endfacet
facet normal -0.707113444805145 0.00421219598501921 0.707087576389313
outer loop
vertex -21.4622898101807 -0.0681920871138573 -21.4626693725586
vertex -21.4625377655029 -0.250305593013763 -21.4618339538574
vertex -17.9305362701416 -0.0569706596434116 -17.9308547973633
endloop
endfacet
facet normal -0.70711350440979 0.00421219645068049 0.707087516784668
outer loop
vertex -17.930736541748 -0.209116160869598 -17.9301471710205
vertex -17.9305362701416 -0.0569706596434116 -17.9308547973633
vertex -21.4625377655029 -0.250305593013763 -21.4618339538574
endloop
endfacet
facet normal -0.707113444805145 0.00421219598501921 0.707087576389313
outer loop
vertex -21.4622898101807 -0.0681920871138573 -21.4626693725586
vertex -23.6665287017822 -0.0751956105232239 -23.6669483184814
vertex -21.4625377655029 -0.250305593013763 -21.4618339538574
endloop
endfacet
facet normal -0.707113444805145 0.00421219598501921 0.707087516784668
outer loop
vertex -23.6668167114258 -0.276012867689133 -23.6660404205322
vertex -21.4625377655029 -0.250305593013763 -21.4618339538574
vertex -23.6665287017822 -0.0751956105232239 -23.6669483184814
endloop
endfacet
facet normal -0.707113444805145 0.00421219598501921 0.707087516784668
outer loop
vertex -23.6665287017822 -0.0751956105232239 -23.6669483184814
vertex -24.7484550476074 -0.0786332190036774 -24.748893737793
vertex -23.6668167114258 -0.276012867689133 -23.6660404205322
endloop
endfacet
facet normal -0.707113444805145 0.00421219598501921 0.707087516784668
outer loop
vertex -24.7487468719482 -0.288630813360214 -24.7479343414307
vertex -23.6668167114258 -0.276012867689133 -23.6660404205322
vertex -24.7484550476074 -0.0786332190036774 -24.748893737793
endloop
endfacet
facet normal 0.707090616226196 0.00603030435740948 -0.707097291946411
outer loop
vertex 0 0 0
vertex 0.000230128032853827 -0.0299991071224213 -2.57141164183849e-05
vertex -0.143398478627205 -0.000455619709100574 -0.143401026725769
endloop
endfacet
facet normal 0.707090556621552 0.00603030482307076 -0.707097232341766
outer loop
vertex -0.143160358071327 -0.0314976535737514 -0.1434276252985
vertex -0.143398478627205 -0.000455619709100574 -0.143401026725769
vertex 0.000230128032853827 -0.0299991071224213 -2.57141164183849e-05
endloop
endfacet
facet normal 0.707090616226196 0.00603030482307076 -0.707097232341766
outer loop
vertex -0.143398478627205 -0.000455619709100574 -0.143401026725769
vertex -0.143160358071327 -0.0314976535737514 -0.1434276252985
vertex -0.395430415868759 -0.00125640025362372 -0.39543741941452
endloop
endfacet
facet normal 0.707090616226196 0.00603030482307076 -0.707097232341766
outer loop
vertex -0.395178228616714 -0.0341314487159252 -0.395465582609177
vertex -0.395430415868759 -0.00125640025362372 -0.39543741941452
vertex -0.143160358071327 -0.0314976535737514 -0.1434276252985
endloop
endfacet
facet normal 0.707090616226196 0.00603030435740948 -0.707097232341766
outer loop
vertex -0.838392496109009 -0.00266382284462452 -0.838407337665558
vertex -0.395430415868759 -0.00125640025362372 -0.39543741941452
vertex -0.838115632534027 -0.0387605093419552 -0.838438332080841
endloop
endfacet
facet normal 0.707090616226196 0.00603030482307076 -0.707097291946411
outer loop
vertex -0.395178228616714 -0.0341314487159252 -0.395465582609177
vertex -0.838115632534027 -0.0387605093419552 -0.838438332080841
vertex -0.395430415868759 -0.00125640025362372 -0.39543741941452
endloop
endfacet
facet normal 0.707090616226196 0.00603030528873205 -0.707097291946411
outer loop
vertex -1.61692655086517 -0.00513745751231909 -1.61695516109467
vertex -0.838392496109009 -0.00266382284462452 -0.838407337665558
vertex -1.61660623550415 -0.0468963719904423 -1.61699092388153
endloop
endfacet
facet normal 0.707090616226196 0.00603030482307076 -0.707097232341766
outer loop
vertex -0.838115632534027 -0.0387605093419552 -0.838438332080841
vertex -1.61660623550415 -0.0468963719904423 -1.61699092388153
vertex -0.838392496109009 -0.00266382284462452 -0.838407337665558
endloop
endfacet
facet normal 0.707090616226196 0.00603030435740948 -0.707097232341766
outer loop
vertex -1.61692655086517 -0.00513745751231909 -1.61695516109467
vertex -1.61660623550415 -0.0468963719904423 -1.61699092388153
vertex -2.98524951934814 -0.0094850268214941 -2.98530220985413
endloop
endfacet
facet normal 0.707090616226196 0.00603030482307076 -0.707097232341766
outer loop
vertex -2.98485279083252 -0.0611956752836704 -2.98534655570984
vertex -2.98524951934814 -0.0094850268214941 -2.98530220985413
vertex -1.61660623550415 -0.0468963719904423 -1.61699092388153
endloop
endfacet
facet normal 0.707090616226196 0.00603030482307076 -0.707097232341766
outer loop
vertex -5.39016389846802 -0.0171261560171843 -5.39025926589966
vertex -2.98524951934814 -0.0094850268214941 -2.98530220985413
vertex -5.38963317871094 -0.0863276049494743 -5.39031839370728
endloop
endfacet
facet normal 0.707090616226196 0.00603030389174819 -0.707097232341766
outer loop
vertex -2.98485279083252 -0.0611956752836704 -2.98534655570984
vertex -5.38963317871094 -0.0863276049494743 -5.39031839370728
vertex -2.98524951934814 -0.0094850268214941 -2.98530220985413
endloop
endfacet
facet normal 0.707090616226196 0.00603030435740948 -0.707097232341766
outer loop
vertex -5.39016389846802 -0.0171261560171843 -5.39025926589966
vertex -5.38963317871094 -0.0863276049494743 -5.39031839370728
vertex -9.00198459625244 -0.028601985424757 -9.00214385986328
endloop
endfacet
facet normal 0.707090616226196 0.00603030435740948 -0.707097232341766
outer loop
vertex -9.00125217437744 -0.12407198548317 -9.00222587585449
vertex -9.00198459625244 -0.028601985424757 -9.00214385986328
vertex -5.38963317871094 -0.0863276049494743 -5.39031839370728
endloop
endfacet
facet normal 0.707090556621552 0.00603030435740948 -0.707097232341766
outer loop
vertex -9.00198459625244 -0.028601985424757 -9.00214385986328
vertex -9.00125217437744 -0.12407198548317 -9.00222587585449
vertex -12.6928606033325 -0.040328998118639 -12.6930847167969
endloop
endfacet
facet normal 0.707090616226196 0.00603030482307076 -0.707097232341766
outer loop
vertex -12.6919221878052 -0.162642523646355 -12.6931896209717
vertex -12.6928606033325 -0.040328998118639 -12.6930847167969
vertex -9.00125217437744 -0.12407198548317 -9.00222587585449
endloop
endfacet
facet normal 0.707090616226196 0.00603030482307076 -0.707097232341766
outer loop
vertex -12.6928606033325 -0.040328998118639 -12.6930847167969
vertex -12.6919221878052 -0.162642523646355 -12.6931896209717
vertex -16.3837356567383 -0.052056010812521 -16.3840255737305
endloop
endfacet
facet normal 0.707090616226196 0.00603030435740948 -0.707097232341766
outer loop
vertex -16.3825912475586 -0.201213046908379 -16.3841533660889
vertex -16.3837356567383 -0.052056010812521 -16.3840255737305
vertex -12.6919221878052 -0.162642523646355 -12.6931896209717
endloop
endfacet
facet normal 0.707090556621552 0.00603030482307076 -0.707097232341766
outer loop
vertex -16.3825912475586 -0.201213046908379 -16.3841533660889
vertex -19.9081535339355 -0.2380580753088 -19.9099979400635
vertex -16.3837356567383 -0.052056010812521 -16.3840255737305
endloop
endfacet
facet normal 0.707090616226196 0.00603030435740948 -0.707097232341766
outer loop
vertex -19.9094944000244 -0.0632583945989609 -19.9098472595215
vertex -16.3837356567383 -0.052056010812521 -16.3840255737305
vertex -19.9081535339355 -0.2380580753088 -19.9099979400635
endloop
endfacet
facet normal 0.707090616226196 0.00603030435740948 -0.707097232341766
outer loop
vertex -22.2990875244141 -0.263045281171799 -22.3011226654053
vertex -22.3005619049072 -0.0708555281162262 -22.3009567260742
vertex -19.9081535339355 -0.2380580753088 -19.9099979400635
endloop
endfacet
facet normal 0.707090675830841 0.00603030528873205 -0.707097291946411
outer loop
vertex -19.9094944000244 -0.0632583945989609 -19.9098472595215
vertex -19.9081535339355 -0.2380580753088 -19.9099979400635
vertex -22.3005619049072 -0.0708555281162262 -22.3009567260742
endloop
endfacet
facet normal 0.707090616226196 0.00603030482307076 -0.707097232341766
outer loop
vertex -22.2990875244141 -0.263045281171799 -22.3011226654053
vertex -23.802095413208 -0.278752952814102 -23.8042488098145
vertex -22.3005619049072 -0.0708555281162262 -22.3009567260742
endloop
endfacet
facet normal 0.707090556621552 0.00603030435740948 -0.707097291946411
outer loop
vertex -23.803653717041 -0.0756312981247902 -23.8040752410889
vertex -22.3005619049072 -0.0708555281162262 -22.3009567260742
vertex -23.802095413208 -0.278752952814102 -23.8042488098145
endloop
endfacet
facet normal 0.707090675830841 0.00603030482307076 -0.707097291946411
outer loop
vertex -23.802095413208 -0.278752952814102 -23.8042488098145
vertex -24.7469272613525 -0.288627207279205 -24.7491550445557
vertex -23.803653717041 -0.0756312981247902 -23.8040752410889
endloop
endfacet
facet normal 0.707090616226196 0.00603030482307076 -0.707097232341766
outer loop
vertex -24.7485370635986 -0.0786334797739983 -24.7489757537842
vertex -23.803653717041 -0.0756312981247902 -23.8040752410889
vertex -24.7469272613525 -0.288627207279205 -24.7491550445557
endloop
endfacet
facet normal -0.324351608753204 -0.945936620235443 0
outer loop
vertex -4.41029214859009 -39.2317581176758 0.0599999986588955
vertex -4.21845865249634 -39.297534942627 0.0594785213470459
vertex -4.41029214859009 -39.2317581176758 0.0900000035762787
endloop
endfacet
facet normal -0.324351578950882 -0.945936560630798 -2.90756432602332e-13
outer loop
vertex -4.21845865249634 -39.297534942627 0.090521477162838
vertex -4.41029214859009 -39.2317581176758 0.0900000035762787
vertex -4.21845865249634 -39.297534942627 0.0594785213470459
endloop
endfacet
facet normal -0.324351578950882 -0.945936560630798 -2.90756432602332e-13
outer loop
vertex -4.21845865249634 -39.297534942627 0.0594785213470459
vertex -3.88129854202271 -39.413143157959 0.058561984449625
vertex -4.21845865249634 -39.297534942627 0.090521477162838
endloop
endfacet
facet normal -0.324351578950882 -0.945936620235443 -2.52638052622087e-13
outer loop
vertex -3.88129854202271 -39.413143157959 0.0914380103349686
vertex -4.21845865249634 -39.297534942627 0.090521477162838
vertex -3.88129854202271 -39.413143157959 0.058561984449625
endloop
endfacet
facet normal -0.324351578950882 -0.945936560630798 -2.10138520083045e-13
outer loop
vertex -3.28871846199036 -39.6163330078125 0.0569511204957962
vertex -3.28871846199036 -39.6163330078125 0.0930488780140877
vertex -3.88129854202271 -39.413143157959 0.058561984449625
endloop
endfacet
facet normal -0.324351578950882 -0.945936560630798 -2.52638025517032e-13
outer loop
vertex -3.88129854202271 -39.413143157959 0.0914380103349686
vertex -3.88129854202271 -39.413143157959 0.058561984449625
vertex -3.28871846199036 -39.6163330078125 0.0930488780140877
endloop
endfacet
facet normal -0.324351578950882 -0.945936560630798 -4.82894330262624e-14
outer loop
vertex -2.24722123146057 -39.9734497070313 0.0541199184954166
vertex -2.24722123146057 -39.9734497070313 0.0958800837397575
vertex -3.28871846199036 -39.6163330078125 0.0569511204957962
endloop
endfacet
facet normal -0.324351578950882 -0.945936560630798 -2.10138506530518e-13
outer loop
vertex -3.28871846199036 -39.6163330078125 0.0930488780140877
vertex -3.28871846199036 -39.6163330078125 0.0569511204957962
vertex -2.24722123146057 -39.9734497070313 0.0958800837397575
endloop
endfacet
facet normal -0.32435154914856 -0.945936560630798 -4.82894330262624e-14
outer loop
vertex -2.24722123146057 -39.9734497070313 0.0541199184954166
vertex -0.416723638772964 -40.6011085510254 0.0491439066827297
vertex -2.24722123146057 -39.9734497070313 0.0958800837397575
endloop
endfacet
facet normal -0.324351578950882 -0.945936620235443 1.9031377493893e-13
outer loop
vertex -0.416723638772964 -40.6011085510254 0.100856095552444
vertex -2.24722123146057 -39.9734497070313 0.0958800837397575
vertex -0.416723638772964 -40.6011085510254 0.0491439066827297
endloop
endfacet
facet normal -0.324351608753204 -0.945936620235443 2.01111964402831e-14
outer loop
vertex 2.80049180984497 -41.7042579650879 0.0403982475399971
vertex 2.80049180984497 -41.7042579650879 0.109601750969887
vertex -0.416723638772964 -40.6011085510254 0.0491439066827297
endloop
endfacet
facet normal -0.324351608753204 -0.945936620235443 1.9031377493893e-13
outer loop
vertex -0.416723638772964 -40.6011085510254 0.100856095552444
vertex -0.416723638772964 -40.6011085510254 0.0491439066827297
vertex 2.80049180984497 -41.7042579650879 0.109601750969887
endloop
endfacet
facet normal -0.324351578950882 -0.945936620235443 2.01111981343489e-14
outer loop
vertex 2.80049180984497 -41.7042579650879 0.0403982475399971
vertex 7.63226652145386 -43.3610229492188 0.0272635780274868
vertex 2.80049180984497 -41.7042579650879 0.109601750969887
endloop
endfacet
facet normal -0.324351578950882 -0.945936560630798 -9.75567689782617e-14
outer loop
vertex 7.63226652145386 -43.3610229492188 0.122736424207687
vertex 2.80049180984497 -41.7042579650879 0.109601750969887
vertex 7.63226652145386 -43.3610229492188 0.0272635780274868
endloop
endfacet
facet normal -0.324351578950882 -0.945936560630798 -3.29728784423736e-14
outer loop
vertex 12.5697994232178 -45.0540504455566 0.136158585548401
vertex 7.63226652145386 -43.3610229492188 0.122736424207687
vertex 12.5697994232178 -45.0540504455566 0.0138414176180959
endloop
endfacet
facet normal -0.324351608753204 -0.945936620235443 -9.75567689782617e-14
outer loop
vertex 7.63226652145386 -43.3610229492188 0.0272635780274868
vertex 12.5697994232178 -45.0540504455566 0.0138414176180959
vertex 7.63226652145386 -43.3610229492188 0.122736424207687
endloop
endfacet
facet normal -0.324351578950882 -0.945936560630798 -3.29728784423736e-14
outer loop
vertex 12.5697994232178 -45.0540504455566 0.136158585548401
vertex 12.5697994232178 -45.0540504455566 0.0138414176180959
vertex 17.5073318481445 -46.7470779418945 0.149580746889114
endloop
endfacet
facet normal -0.324351578950882 -0.945936560630798 -3.09014966393129e-14
outer loop
vertex 17.5073318481445 -46.7470779418945 0.000419257150497288
vertex 17.5073318481445 -46.7470779418945 0.149580746889114
vertex 12.5697994232178 -45.0540504455566 0.0138414176180959
endloop
endfacet
facet normal -0.324351578950882 -0.945936620235443 -3.09014966393129e-14
outer loop
vertex 17.5073318481445 -46.7470779418945 0.149580746889114
vertex 17.5073318481445 -46.7470779418945 0.000419257150497288
vertex 22.2239761352539 -48.3643646240234 0.162402436137199
endloop
endfacet
facet normal -0.324351608753204 -0.945936560630798 -4.50422881772498e-14
outer loop
vertex 22.2239761352539 -48.3643646240234 -0.0124024422839284
vertex 22.2239761352539 -48.3643646240234 0.162402436137199
vertex 17.5073318481445 -46.7470779418945 0.000419257150497288
endloop
endfacet
facet normal -0.324351578950882 -0.945936620235443 -5.9956049795599e-15
outer loop
vertex 25.4226684570313 -49.4611625671387 0.171097740530968
vertex 22.2239761352539 -48.3643646240234 0.162402436137199
vertex 25.4226684570313 -49.4611625671387 -0.0210977457463741
endloop
endfacet
facet normal -0.32435154914856 -0.945936620235443 -4.5042284789118e-14
outer loop
vertex 22.2239761352539 -48.3643646240234 -0.0124024422839284
vertex 25.4226684570313 -49.4611625671387 -0.0210977457463741
vertex 22.2239761352539 -48.3643646240234 0.162402436137199
endloop
endfacet
facet normal -0.32435154914856 -0.945936620235443 -5.9956049795599e-15
outer loop
vertex 25.4226684570313 -49.4611625671387 0.171097740530968
vertex 25.4226684570313 -49.4611625671387 -0.0210977457463741
vertex 27.4334526062012 -50.1506385803223 0.176563858985901
endloop
endfacet
facet normal -0.32435154914856 -0.945936560630798 0
outer loop
vertex 27.4334526062012 -50.1506385803223 -0.0265638530254364
vertex 27.4334526062012 -50.1506385803223 0.176563858985901
vertex 25.4226684570313 -49.4611625671387 -0.0210977457463741
endloop
endfacet
facet normal -0.324351578950882 -0.945936560630798 -0
outer loop
vertex 27.4334526062012 -50.1506385803223 0.176563858985901
vertex 27.4334526062012 -50.1506385803223 -0.0265638530254364
vertex 28.69748878479 -50.5840644836426 0.180000007152557
endloop
endfacet
facet normal -0.324351578950882 -0.945936620235443 0
outer loop
vertex 28.69748878479 -50.5840644836426 -0.0299999993294477
vertex 28.69748878479 -50.5840644836426 0.180000007152557
vertex 27.4334526062012 -50.1506385803223 -0.0265638530254364
endloop
endfacet
facet normal 0.00645664939656854 -0.0021771821193397 0.999976813793182
outer loop
vertex -4.36236381530762 -39.0896224975586 0.0599999986588955
vertex -4.41029214859009 -39.2317581176758 0.0599999986588955
vertex -3.44957590103149 -39.396541595459 0.0534380711615086
endloop
endfacet
facet normal 0.00645664893090725 -0.00217718188650906 0.999976754188538
outer loop
vertex -3.49803185462952 -39.5402412414551 0.0534380711615086
vertex -3.44957590103149 -39.396541595459 0.0534380711615086
vertex -4.41029214859009 -39.2317581176758 0.0599999986588955
endloop
endfacet
facet normal 0.00645664939656854 -0.0021771821193397 0.999976813793182
outer loop
vertex -3.44957590103149 -39.396541595459 0.0534380711615086
vertex -3.49803185462952 -39.5402412414551 0.0534380711615086
vertex -1.99884188175201 -39.8843460083008 0.043008916079998
endloop
endfacet
facet normal 0.00645664939656854 -0.00217718188650906 0.999976754188538
outer loop
vertex -2.04813623428345 -40.0305328369141 0.043008916079998
vertex -1.99884188175201 -39.8843460083008 0.043008916079998
vertex -3.49803185462952 -39.5402412414551 0.0534380711615086
endloop
endfacet
facet normal 0.00645664939656854 -0.0021771821193397 0.999976813793182
outer loop
vertex 0.306873112916946 -40.6596298217773 0.0264333970844746
vertex -1.99884188175201 -39.8843460083008 0.043008916079998
vertex 0.256246238946915 -40.8097686767578 0.0264333970844746
endloop
endfacet
facet normal 0.00645664939656854 -0.0021771821193397 0.999976813793182
outer loop
vertex -2.04813623428345 -40.0305328369141 0.043008916079998
vertex 0.256246238946915 -40.8097686767578 0.0264333970844746
vertex -1.99884188175201 -39.8843460083008 0.043008916079998
endloop
endfacet
facet normal 0.00645664893090725 -0.00217718188650906 0.999976754188538
outer loop
vertex 0.306873112916946 -40.6596298217773 0.0264333970844746
vertex 0.256246238946915 -40.8097686767578 0.0264333970844746
vertex 3.97144675254822 -41.8918266296387 8.92019743332639e-05
endloop
endfacet
facet normal 0.00645664893090725 -0.00217718188650906 0.999976754188538
outer loop
vertex 3.91870212554932 -42.0482482910156 8.92019743332639e-05
vertex 3.97144675254822 -41.8918266296387 8.92019743332639e-05
vertex 0.256246238946915 -40.8097686767578 0.0264333970844746
endloop
endfacet
facet normal 0.00645664939656854 -0.0021771821193397 0.999976813793182
outer loop
vertex 3.91870212554932 -42.0482482910156 8.92019743332639e-05
vertex 8.68524169921875 -43.6600761413574 -0.0341967158019543
vertex 3.97144675254822 -41.8918266296387 8.92019743332639e-05
endloop
endfacet
facet normal 0.00645664939656854 -0.0021771821193397 0.999976813793182
outer loop
vertex 8.74074268341064 -43.4954833984375 -0.0341967158019543
vertex 3.97144675254822 -41.8918266296387 8.92019743332639e-05
vertex 8.68524169921875 -43.6600761413574 -0.0341967158019543
endloop
endfacet
facet normal 0.00645664939656854 -0.0021771821193397 0.999976754188538
outer loop
vertex 13.5154209136963 -45.1009483337402 -0.0685213208198547
vertex 8.74074268341064 -43.4954833984375 -0.0341967158019543
vertex 13.4571599960327 -45.2737236022949 -0.0685213208198547
endloop
endfacet
facet normal 0.00645664893090725 -0.0021771821193397 0.999976754188538
outer loop
vertex 8.68524169921875 -43.6600761413574 -0.0341967158019543
vertex 13.4571599960327 -45.2737236022949 -0.0685213208198547
vertex 8.74074268341064 -43.4954833984375 -0.0341967158019543
endloop
endfacet
facet normal 0.00645664939656854 -0.0021771821193397 0.999976754188538
outer loop
vertex 13.5154209136963 -45.1009483337402 -0.0685213208198547
vertex 13.4571599960327 -45.2737236022949 -0.0685213208198547
vertex 18.2900981903076 -46.706413269043 -0.102845922112465
endloop
endfacet
facet normal 0.00645664893090725 -0.00217718188650906 0.999976754188538
outer loop
vertex 18.2290782928467 -46.8873710632324 -0.102845922112465
vertex 18.2900981903076 -46.706413269043 -0.102845922112465
vertex 13.4571599960327 -45.2737236022949 -0.0685213208198547
endloop
endfacet
facet normal 0.00645664893090725 -0.00217718188650906 0.999976813793182
outer loop
vertex 22.6315364837646 -48.3760833740234 -0.13451299071312
vertex 22.6951026916504 -48.1875762939453 -0.13451299071312
vertex 18.2290782928467 -46.8873710632324 -0.102845922112465
endloop
endfacet
facet normal 0.00645664893090725 -0.00217718188650906 0.999976754188538
outer loop
vertex 18.2900981903076 -46.706413269043 -0.102845922112465
vertex 18.2290782928467 -46.8873710632324 -0.102845922112465
vertex 22.6951026916504 -48.1875762939453 -0.13451299071312
endloop
endfacet
facet normal 0.00645664939656854 -0.00217718235217035 0.999976813793182
outer loop
vertex 22.6315364837646 -48.3760833740234 -0.13451299071312
vertex 25.5845069885254 -49.3746452331543 -0.155753821134567
vertex 22.6951026916504 -48.1875762939453 -0.13451299071312
endloop
endfacet
facet normal 0.00645664939656854 -0.0021771821193397 0.999976813793182
outer loop
vertex 25.6497802734375 -49.1810722351074 -0.155753821134567
vertex 22.6951026916504 -48.1875762939453 -0.13451299071312
vertex 25.5845069885254 -49.3746452331543 -0.155753821134567
endloop
endfacet
facet normal 0.00645664939656854 -0.0021771821193397 0.999976813793182
outer loop
vertex 27.5009059906006 -50.0226860046387 -0.169538542628288
vertex 27.5672855377197 -49.8258247375488 -0.169538542628288
vertex 25.5845069885254 -49.3746452331543 -0.155753821134567
endloop
endfacet
facet normal 0.00645664939656854 -0.0021771821193397 0.999976754188538
outer loop
vertex 25.6497802734375 -49.1810722351074 -0.155753821134567
vertex 25.5845069885254 -49.3746452331543 -0.155753821134567
vertex 27.5672855377197 -49.8258247375488 -0.169538542628288
endloop
endfacet
facet normal 0.00645664893090725 -0.00217718188650906 0.999976754188538
outer loop
vertex 27.5009059906006 -50.0226860046387 -0.169538542628288
vertex 28.7445945739746 -50.443244934082 -0.178484469652176
vertex 27.5672855377197 -49.8258247375488 -0.169538542628288
endloop
endfacet
facet normal 0.00645664893090725 -0.0021771821193397 0.999976754188538
outer loop
vertex 28.811695098877 -50.244255065918 -0.178484469652176
vertex 27.5672855377197 -49.8258247375488 -0.169538542628288
vertex 28.7445945739746 -50.443244934082 -0.178484469652176
endloop
endfacet
facet normal -0.23107373714447 -0.668296039104462 -0.70709639787674
outer loop
vertex 28.7451801300049 -50.4434394836426 -0.178489729762077
vertex 28.697380065918 -50.5840263366699 -0.0299985315650702
vertex 27.2957553863525 -49.953311920166 -0.168063908815384
endloop
endfacet
facet normal -0.23107373714447 -0.668296039104462 -0.70709639787674
outer loop
vertex 27.2500305175781 -50.0877456665039 -0.0260641202330589
vertex 27.2957553863525 -49.953311920166 -0.168063908815384
vertex 28.697380065918 -50.5840263366699 -0.0299985315650702
endloop
endfacet
facet normal -0.23107373714447 -0.668296098709106 -0.707096338272095
outer loop
vertex 27.2957553863525 -49.953311920166 -0.168063908815384
vertex 27.2500305175781 -50.0877456665039 -0.0260641202330589
vertex 24.3427429199219 -48.9547348022461 -0.146822676062584
endloop
endfacet
facet normal -0.23107373714447 -0.668296098709106 -0.70709639787674
outer loop
vertex 24.3012962341309 -49.0766563415527 -0.0180483981966972
vertex 24.3427429199219 -48.9547348022461 -0.146822676062584
vertex 27.2500305175781 -50.0877456665039 -0.0260641202330589
endloop
endfacet
facet normal -0.231073752045631 -0.668296098709106 -0.70709639787674
outer loop
vertex 24.3012962341309 -49.0766563415527 -0.0180483981966972
vertex 19.5766315460205 -47.4566192626953 -0.00520506594330072
vertex 24.3427429199219 -48.9547348022461 -0.146822676062584
endloop
endfacet
facet normal -0.23107373714447 -0.668296098709106 -0.70709639787674
outer loop
vertex 19.6112461090088 -47.3547554016113 -0.112788684666157
vertex 24.3427429199219 -48.9547348022461 -0.146822676062584
vertex 19.5766315460205 -47.4566192626953 -0.00520506594330072
endloop
endfacet
facet normal -0.231073752045631 -0.668296098709106 -0.70709639787674
outer loop
vertex 19.6112461090088 -47.3547554016113 -0.112788684666157
vertex 19.5766315460205 -47.4566192626953 -0.00520506594330072
vertex 14.806939125061 -45.7301559448242 -0.0782309472560883
endloop
endfacet
facet normal -0.23107373714447 -0.668296039104462 -0.707096338272095
outer loop
vertex 14.7792463302612 -45.8116455078125 0.00783594697713852
vertex 14.806939125061 -45.7301559448242 -0.0782309472560883
vertex 19.5766315460205 -47.4566192626953 -0.00520506594330072
endloop
endfacet
facet normal -0.23107373714447 -0.668296039104462 -0.707096338272095
outer loop
vertex 14.7792463302612 -45.8116455078125 0.00783594697713852
vertex 9.98186206817627 -44.166675567627 0.0208769608289003
vertex 14.806939125061 -45.7301559448242 -0.0782309472560883
endloop
endfacet
facet normal -0.23107373714447 -0.668296098709106 -0.70709639787674
outer loop
vertex 10.002631187439 -44.1055564880371 -0.0436732098460197
vertex 14.806939125061 -45.7301559448242 -0.0782309472560883
vertex 9.98186206817627 -44.166675567627 0.0208769608289003
endloop
endfacet
facet normal -0.23107373714447 -0.668296098709106 -0.70709639787674
outer loop
vertex 10.002631187439 -44.1055564880371 -0.0436732098460197
vertex 9.98186206817627 -44.166675567627 0.0208769608289003
vertex 5.19832324981689 -42.48095703125 -0.00911547429859638
endloop
endfacet
facet normal -0.23107373714447 -0.668296039104462 -0.707096338272095
outer loop
vertex 5.18447685241699 -42.5217018127441 0.0339179746806622
vertex 5.19832324981689 -42.48095703125 -0.00911547429859638
vertex 9.98186206817627 -44.166675567627 0.0208769608289003
endloop
endfacet
facet normal -0.23107373714447 -0.668296039104462 -0.707096338272095
outer loop
vertex 5.18447685241699 -42.5217018127441 0.0339179746806622
vertex 0.387092351913452 -40.8767280578613 0.0469589866697788
vertex 5.19832324981689 -42.48095703125 -0.00911547429859638
endloop
endfacet
facet normal -0.23107373714447 -0.668296039104462 -0.707096338272095
outer loop
vertex 0.394015520811081 -40.8563575744629 0.0254422631114721
vertex 5.19832324981689 -42.48095703125 -0.00911547429859638
vertex 0.387092351913452 -40.8767280578613 0.0469589866697788
endloop
endfacet
facet normal -0.23107373714447 -0.668296039104462 -0.707096338272095
outer loop
vertex 0.387092351913452 -40.8767280578613 0.0469589866697788
vertex -4.41029214859009 -39.2317581176758 0.0599999986588955
vertex 0.394015520811081 -40.8563575744629 0.0254422631114721
endloop
endfacet
facet normal -0.94751387834549 0.31950169801712 0.0116616478189826
outer loop
vertex -4.36236381530762 -39.0896224975586 0.0900000035762787
vertex -4.41029214859009 -39.2317581176758 0.0900000035762787
vertex -4.35145807266235 -39.0924263000488 1.05296349525452
endloop
endfacet
facet normal -0.947513997554779 0.319501727819443 0.0116616496816278
outer loop
vertex -4.39991426467896 -39.2361297607422 1.05296349525452
vertex -4.35145807266235 -39.0924263000488 1.05296349525452
vertex -4.41029214859009 -39.2317581176758 0.0900000035762787
endloop
endfacet
facet normal -0.947513997554779 0.31950169801712 0.0116616496816278
outer loop
vertex -4.38341999053955 -39.2430763244629 2.5834436416626
vertex -4.33412551879883 -39.0968856811523 2.5834436416626
vertex -4.39991426467896 -39.2361297607422 1.05296349525452
endloop
endfacet
facet normal -0.947513937950134 0.319501727819443 0.0116616487503052
outer loop
vertex -4.35145807266235 -39.0924263000488 1.05296349525452
vertex -4.39991426467896 -39.2361297607422 1.05296349525452
vertex -4.33412551879883 -39.0968856811523 2.5834436416626
endloop
endfacet
facet normal -0.947513997554779 0.31950169801712 0.0116616487503052
outer loop
vertex -4.38341999053955 -39.2430763244629 2.5834436416626
vertex -4.35720491409302 -39.2541160583496 5.01590251922607
vertex -4.33412551879883 -39.0968856811523 2.5834436416626
endloop
endfacet
facet normal -0.947513937950134 0.319501668214798 0.0116616487503052
outer loop
vertex -4.30657815933228 -39.1039772033691 5.01590251922607
vertex -4.33412551879883 -39.0968856811523 2.5834436416626
vertex -4.35720491409302 -39.2541160583496 5.01590251922607
endloop
endfacet
facet normal -0.947513937950134 0.319501668214798 0.0116616478189826
outer loop
vertex -4.3155403137207 -39.2716598510742 8.88191604614258
vertex -4.26279544830322 -39.1152420043945 8.88191604614258
vertex -4.35720491409302 -39.2541160583496 5.01590251922607
endloop
endfacet
facet normal -0.947513937950134 0.31950169801712 0.0116616487503052
outer loop
vertex -4.30657815933228 -39.1039772033691 5.01590251922607
vertex -4.35720491409302 -39.2541160583496 5.01590251922607
vertex -4.26279544830322 -39.1152420043945 8.88191604614258
endloop
endfacet
facet normal -0.947513937950134 0.31950169801712 0.0116616487503052
outer loop
vertex -4.3155403137207 -39.2716598510742 8.88191604614258
vertex -4.26131534576416 -39.2944984436035 13.9133777618408
vertex -4.26279544830322 -39.1152420043945 8.88191604614258
endloop
endfacet
facet normal -0.947513937950134 0.31950169801712 0.0116616487503052
outer loop
vertex -4.20581436157227 -39.1299057006836 13.9133777618408
vertex -4.26279544830322 -39.1152420043945 8.88191604614258
vertex -4.26131534576416 -39.2944984436035 13.9133777618408
endloop
endfacet
facet normal -0.947513997554779 0.31950169801712 0.0116616487503052
outer loop
vertex -4.14876890182495 -39.1445846557617 18.9505176544189
vertex -4.20581436157227 -39.1299057006836 13.9133777618408
vertex -4.20702934265137 -39.3173599243164 18.9505176544189
endloop
endfacet
facet normal -0.947513937950134 0.31950169801712 0.0116616487503052
outer loop
vertex -4.26131534576416 -39.2944984436035 13.9133777618408
vertex -4.20702934265137 -39.3173599243164 18.9505176544189
vertex -4.20581436157227 -39.1299057006836 13.9133777618408
endloop
endfacet
facet normal -0.947513997554779 0.31950169801712 0.0116616487503052
outer loop
vertex -4.14876890182495 -39.1445846557617 18.9505176544189
vertex -4.20702934265137 -39.3173599243164 18.9505176544189
vertex -4.09172344207764 -39.1592636108398 23.9876556396484
endloop
endfacet
facet normal -0.947513937950134 0.31950169801712 0.0116616487503052
outer loop
vertex -4.15274286270142 -39.3402214050293 23.9876556396484
vertex -4.09172344207764 -39.1592636108398 23.9876556396484
vertex -4.20702934265137 -39.3173599243164 18.9505176544189
endloop
endfacet
facet normal -0.947513937950134 0.31950169801712 0.0116616478189826
outer loop
vertex -4.10265970230103 -39.3613128662109 28.634801864624
vertex -4.03909492492676 -39.1728057861328 28.634801864624
vertex -4.15274286270142 -39.3402214050293 23.9876556396484
endloop
endfacet
facet normal -0.947513937950134 0.31950169801712 0.0116616487503052
outer loop
vertex -4.09172344207764 -39.1592636108398 23.9876556396484
vertex -4.15274286270142 -39.3402214050293 23.9876556396484
vertex -4.03909492492676 -39.1728057861328 28.634801864624
endloop
endfacet
facet normal -0.947513937950134 0.31950169801712 0.0116616478189826
outer loop
vertex -4.10265970230103 -39.3613128662109 28.634801864624
vertex -4.06906652450562 -39.3754615783691 31.751895904541
vertex -4.03909492492676 -39.1728057861328 28.634801864624
endloop
endfacet
facet normal -0.947513997554779 0.31950169801712 0.0116616487503052
outer loop
vertex -4.00379371643066 -39.1818885803223 31.751895904541
vertex -4.03909492492676 -39.1728057861328 28.634801864624
vertex -4.06906652450562 -39.3754615783691 31.751895904541
endloop
endfacet
facet normal -0.947513937950134 0.31950169801712 0.0116616478189826
outer loop
vertex -4.04726505279541 -39.3846435546875 33.7748069763184
vertex -3.98088431358337 -39.1877822875977 33.7748069763184
vertex -4.06906652450562 -39.3754615783691 31.751895904541
endloop
endfacet
facet normal -0.94751387834549 0.31950169801712 0.0116616487503052
outer loop
vertex -4.00379371643066 -39.1818885803223 31.751895904541
vertex -4.06906652450562 -39.3754615783691 31.751895904541
vertex -3.98088431358337 -39.1877822875977 33.7748069763184
endloop
endfacet
facet normal -0.947513937950134 0.31950169801712 0.0116616496816278
outer loop
vertex -4.04726505279541 -39.3846435546875 33.7748069763184
vertex -4.03311681747437 -39.3906021118164 35.0876197814941
vertex -3.98088431358337 -39.1877822875977 33.7748069763184
endloop
endfacet
facet normal -0.947513997554779 0.31950169801712 0.0116616487503052
outer loop
vertex -3.96601676940918 -39.1916084289551 35.0876197814941
vertex -3.98088431358337 -39.1877822875977 33.7748069763184
vertex -4.03311681747437 -39.3906021118164 35.0876197814941
endloop
endfacet
facet normal 0.220219939947128 0.671956896781921 -0.707090616226196
outer loop
vertex 3.31526207923889 -16.557559967041 23.8936538696289
vertex 3.62002491950989 -15.6631517410278 24.8385372161865
vertex 3.50779151916504 -16.6222972869873 23.8920955657959
endloop
endfacet
facet normal 0.220219939947128 0.671956896781921 -0.707090616226196
outer loop
vertex 3.81906819343567 -15.7300786972046 24.8369274139404
vertex 3.50779151916504 -16.6222972869873 23.8920955657959
vertex 3.62002491950989 -15.6631517410278 24.8385372161865
endloop
endfacet
facet normal 0.220219939947128 0.671956896781921 -0.707090556621552
outer loop
vertex 3.31526207923889 -16.557559967041 23.8936538696289
vertex 3.50779151916504 -16.6222972869873 23.8920955657959
vertex 2.83045554161072 -17.9803562164307 22.3905620574951
endloop
endfacet
facet normal 0.220219954848289 0.671956896781921 -0.707090616226196
outer loop
vertex 3.01262307167053 -18.0416088104248 22.389087677002
vertex 2.83045554161072 -17.9803562164307 22.3905620574951
vertex 3.50779151916504 -16.6222972869873 23.8920955657959
endloop
endfacet
facet normal 0.220219954848289 0.671956896781921 -0.707090616226196
outer loop
vertex 3.01262307167053 -18.0416088104248 22.389087677002
vertex 2.22492551803589 -20.2994022369385 19.9981536865234
vertex 2.83045554161072 -17.9803562164307 22.3905620574951
endloop
endfacet
facet normal 0.220219954848289 0.671956896781921 -0.707090675830841
outer loop
vertex 2.05924129486084 -20.2436923980713 19.9994945526123
vertex 2.83045554161072 -17.9803562164307 22.3905620574951
vertex 2.22492551803589 -20.2994022369385 19.9981536865234
endloop
endfacet
facet normal 0.220219954848289 0.671956896781921 -0.707090616226196
outer loop
vertex 2.05924129486084 -20.2436923980713 19.9994945526123
vertex 2.22492551803589 -20.2994022369385 19.9981536865234
vertex 0.92204350233078 -23.5811042785645 16.4737358093262
endloop
endfacet
facet normal 0.220219939947128 0.671956896781921 -0.707090556621552
outer loop
vertex 1.06342232227325 -23.6286430358887 16.4725914001465
vertex 0.92204350233078 -23.5811042785645 16.4737358093262
vertex 2.22492551803589 -20.2994022369385 19.9981536865234
endloop
endfacet
facet normal 0.220219939947128 0.671956896781921 -0.707090616226196
outer loop
vertex 0.92204350233078 -23.5811042785645 16.4737358093262
vertex 1.06342232227325 -23.6286430358887 16.4725914001465
vertex -0.268410950899124 -27.0748138427734 12.7828598022461
endloop
endfacet
facet normal 0.220219939947128 0.671956896781921 -0.707090616226196
outer loop
vertex -0.152475818991661 -27.1137962341309 12.7819223403931
vertex -0.268410950899124 -27.0748138427734 12.7828598022461
vertex 1.06342232227325 -23.6286430358887 16.4725914001465
endloop
endfacet
facet normal 0.220219939947128 0.671956896781921 -0.707090616226196
outer loop
vertex -0.152475818991661 -27.1137962341309 12.7819223403931
vertex -1.3683739900589 -30.598949432373 9.09125232696533
vertex -0.268410950899124 -27.0748138427734 12.7828598022461
endloop
endfacet
facet normal 0.220219939947128 0.671956837177277 -0.707090556621552
outer loop
vertex -1.45886540412903 -30.5685234069824 9.09198474884033
vertex -0.268410950899124 -27.0748138427734 12.7828598022461
vertex -1.3683739900589 -30.598949432373 9.09125232696533
endloop
endfacet
facet normal 0.220219954848289 0.671956896781921 -0.707090616226196
outer loop
vertex -2.62382125854492 -33.9874000549316 5.48016357421875
vertex -1.45886540412903 -30.5685234069824 9.09198474884033
vertex -2.55822849273682 -34.0094566345215 5.47963285446167
endloop
endfacet
facet normal 0.220219939947128 0.671956837177277 -0.707090616226196
outer loop
vertex -1.3683739900589 -30.598949432373 9.09125232696533
vertex -2.55822849273682 -34.0094566345215 5.47963285446167
vertex -1.45886540412903 -30.5685234069824 9.09198474884033
endloop
endfacet
facet normal 0.220219939947128 0.671956837177277 -0.707090616226196
outer loop
vertex -2.62382125854492 -33.9874000549316 5.48016357421875
vertex -2.55822849273682 -34.0094566345215 5.47963285446167
vertex -3.39950203895569 -36.263843536377 3.07524943351746
endloop
endfacet
facet normal 0.220219925045967 0.671956837177277 -0.707090616226196
outer loop
vertex -3.35048794746399 -36.2803230285645 3.07485270500183
vertex -3.39950203895569 -36.263843536377 3.07524943351746
vertex -2.55822849273682 -34.0094566345215 5.47963285446167
endloop
endfacet
facet normal 0.220219954848289 0.671956896781921 -0.707090616226196
outer loop
vertex -3.35048794746399 -36.2803230285645 3.07485270500183
vertex -3.8012592792511 -37.572380065918 1.70660614967346
vertex -3.39950203895569 -36.263843536377 3.07524943351746
endloop
endfacet
facet normal 0.220219925045967 0.671956837177277 -0.707090616226196
outer loop
vertex -3.84084057807922 -37.5590705871582 1.70692646503448
vertex -3.39950203895569 -36.263843536377 3.07524943351746
vertex -3.8012592792511 -37.572380065918 1.70660614967346
endloop
endfacet
facet normal 0.220219939947128 0.671956837177277 -0.707090556621552
outer loop
vertex -3.84084057807922 -37.5590705871582 1.70692646503448
vertex -3.8012592792511 -37.572380065918 1.70660614967346
vertex -4.09194898605347 -38.2960166931152 0.92839252948761
endloop
endfacet
facet normal 0.220219939947128 0.671956896781921 -0.707090616226196
outer loop
vertex -4.05773448944092 -38.3075180053711 0.928115606307983
vertex -4.09194898605347 -38.2960166931152 0.92839252948761
vertex -3.8012592792511 -37.572380065918 1.70660614967346
endloop
endfacet
facet normal 0.220219939947128 0.671956896781921 -0.707090616226196
outer loop
vertex -4.09194898605347 -38.2960166931152 0.92839252948761
vertex -4.05773448944092 -38.3075180053711 0.928115606307983
vertex -4.23482179641724 -38.7153129577637 0.485430419445038
endloop
endfacet
facet normal 0.220219939947128 0.671956896781921 -0.707090616226196
outer loop
vertex -4.20366096496582 -38.7257919311523 0.485178202390671
vertex -4.23482179641724 -38.7153129577637 0.485430419445038
vertex -4.05773448944092 -38.3075180053711 0.928115606307983
endloop
endfacet
facet normal 0.220219939947128 0.671956837177277 -0.707090616226196
outer loop
vertex -4.20366096496582 -38.7257919311523 0.485178202390671
vertex -4.28668880462646 -38.9637756347656 0.233160346746445
vertex -4.23482179641724 -38.7153129577637 0.485430419445038
endloop
endfacet
facet normal 0.220219925045967 0.671956837177277 -0.707090616226196
outer loop
vertex -4.31611204147339 -38.9538841247559 0.233398482203484
vertex -4.23482179641724 -38.7153129577637 0.485430419445038
vertex -4.28668880462646 -38.9637756347656 0.233160346746445
endloop
endfacet
facet normal 0.220219939947128 0.671956896781921 -0.707090556621552
outer loop
vertex -4.31611204147339 -38.9538841247559 0.233398482203484
vertex -4.28668880462646 -38.9637756347656 0.233160346746445
vertex -4.36236381530762 -39.0896224975586 0.0900000035762787
endloop
endfacet
facet normal 0.220219939947128 0.671956896781921 -0.707090616226196
outer loop
vertex -4.33392906188965 -39.0991821289063 0.0897698700428009
vertex -4.36236381530762 -39.0896224975586 0.0900000035762787
vertex -4.28668880462646 -38.9637756347656 0.233160346746445
endloop
endfacet
facet normal -0.229922413825989 -0.668675005435944 0.70711350440979
outer loop
vertex -3.20570135116577 -35.6950836181641 3.67610740661621
vertex -4.36236381530762 -39.0896224975586 0.0900000035762787
vertex -3.17691254615784 -35.7049407958984 3.67614722251892
endloop
endfacet
facet normal -0.229922413825989 -0.668675005435944 0.70711350440979
outer loop
vertex -2.04903888702393 -32.3005447387695 7.26221466064453
vertex -3.20570135116577 -35.6950836181641 3.67610740661621
vertex -1.99146139621735 -32.3202590942383 7.26229429244995
endloop
endfacet
facet normal -0.229922413825989 -0.668675005435944 0.70711350440979
outer loop
vertex -3.17691254615784 -35.7049407958984 3.67614722251892
vertex -1.99146139621735 -32.3202590942383 7.26229429244995
vertex -3.20570135116577 -35.6950836181641 3.67610740661621
endloop
endfacet
facet normal -0.229922413825989 -0.668675005435944 0.70711350440979
outer loop
vertex -2.04903888702393 -32.3005447387695 7.26221466064453
vertex -1.99146139621735 -32.3202590942383 7.26229429244995
vertex -0.89237654209137 -28.9060096740723 10.8483219146729
endloop
endfacet
facet normal -0.229922413825989 -0.668675005435944 0.707113444805145
outer loop
vertex -0.806010246276855 -28.9355792999268 10.8484411239624
vertex -0.89237654209137 -28.9060096740723 10.8483219146729
vertex -1.99146139621735 -32.3202590942383 7.26229429244995
endloop
endfacet
facet normal -0.229922413825989 -0.668675005435944 0.70711350440979
outer loop
vertex 0.264285922050476 -25.5114707946777 14.4344291687012
vertex -0.89237654209137 -28.9060096740723 10.8483219146729
vertex 0.379440933465958 -25.5508995056152 14.434588432312
endloop
endfacet
facet normal -0.229922413825989 -0.668675005435944 0.707113444805145
outer loop
vertex -0.806010246276855 -28.9355792999268 10.8484411239624
vertex 0.379440933465958 -25.5508995056152 14.434588432312
vertex -0.89237654209137 -28.9060096740723 10.8483219146729
endloop
endfacet
facet normal -0.229922413825989 -0.668675005435944 0.70711350440979
outer loop
vertex 0.264285922050476 -25.5114707946777 14.4344291687012
vertex 0.379440933465958 -25.5508995056152 14.434588432312
vertex 1.42094838619232 -22.1169338226318 18.0205364227295
endloop
endfacet
facet normal -0.229922413825989 -0.668674945831299 0.707113444805145
outer loop
vertex 1.56489217281342 -22.1662178039551 18.0207366943359
vertex 1.42094838619232 -22.1169338226318 18.0205364227295
vertex 0.379440933465958 -25.5508995056152 14.434588432312
endloop
endfacet
facet normal -0.22992242872715 -0.668675005435944 0.70711350440979
outer loop
vertex 2.5600790977478 -18.7738475799561 21.5522899627686
vertex 1.42094838619232 -22.1169338226318 18.0205364227295
vertex 2.73237872123718 -18.8328304290771 21.5525379180908
endloop
endfacet
facet normal -0.229922413825989 -0.668675005435944 0.70711350440979
outer loop
vertex 1.56489217281342 -22.1662178039551 18.0207366943359
vertex 2.73237872123718 -18.8328304290771 21.5525379180908
vertex 1.42094838619232 -22.1169338226318 18.0205364227295
endloop
endfacet
facet normal -0.229922413825989 -0.668675005435944 0.707113444805145
outer loop
vertex 2.5600790977478 -18.7738475799561 21.5522899627686
vertex 2.73237872123718 -18.8328304290771 21.5525379180908
vertex 3.27103400230408 -16.6873588562012 23.7565288543701
endloop
endfacet
facet normal -0.229922413825989 -0.668675005435944 0.707113444805145
outer loop
vertex 3.46103405952454 -16.7523860931396 23.7568168640137
vertex 3.27103400230408 -16.6873588562012 23.7565288543701
vertex 2.73237872123718 -18.8328304290771 21.5525379180908
endloop
endfacet
facet normal -0.229922413825989 -0.668674945831299 0.707113444805145
outer loop
vertex 3.27103400230408 -16.6873588562012 23.7565288543701
vertex 3.46103405952454 -16.7523860931396 23.7568168640137
vertex 3.61999869346619 -15.6632289886475 24.8384552001953
endloop
endfacet
facet normal -0.22992242872715 -0.668675005435944 0.707113444805145
outer loop
vertex 3.81868147850037 -15.7312364578247 24.8387470245361
vertex 3.61999869346619 -15.6632289886475 24.8384552001953
vertex 3.46103405952454 -16.7523860931396 23.7568168640137
endloop
endfacet
facet normal -0.32434955239296 -0.945936977863312 -0.000797739368863404
outer loop
vertex -0.655363500118256 -40.5457496643066 31.4852027893066
vertex -4.03311681747437 -39.3906021118164 35.0876197814941
vertex -0.675805926322937 -40.5387229919434 31.4637851715088
endloop
endfacet
facet normal -0.32434955239296 -0.945936977863312 -0.000797739368863404
outer loop
vertex 2.72238969802856 -41.7009010314941 27.8827838897705
vertex -0.655363500118256 -40.5457496643066 31.4852027893066
vertex 2.68150472640991 -41.6868438720703 27.8399524688721
endloop
endfacet
facet normal -0.32434955239296 -0.945936977863312 -0.000797739368863404
outer loop
vertex -0.675805926322937 -40.5387229919434 31.4637851715088
vertex 2.68150472640991 -41.6868438720703 27.8399524688721
vertex -0.655363500118256 -40.5457496643066 31.4852027893066
endloop
endfacet
facet normal -0.32434955239296 -0.945936977863312 -0.000797739368863404
outer loop
vertex 2.72238969802856 -41.7009010314941 27.8827838897705
vertex 2.68150472640991 -41.6868438720703 27.8399524688721
vertex 6.10014295578003 -42.8560485839844 24.2803649902344
endloop
endfacet
facet normal -0.324349522590637 -0.945936977863312 -0.000797739368863404
outer loop
vertex 6.03881549835205 -42.8349685668945 24.2161178588867
vertex 6.10014295578003 -42.8560485839844 24.2803649902344
vertex 2.68150472640991 -41.6868438720703 27.8399524688721
endloop
endfacet
facet normal -0.324349522590637 -0.945936977863312 -0.000797739368863404
outer loop
vertex 6.03881549835205 -42.8349685668945 24.2161178588867
vertex 9.39612579345703 -43.9830894470215 20.5922832489014
vertex 6.10014295578003 -42.8560485839844 24.2803649902344
endloop
endfacet
facet normal -0.32434955239296 -0.945936977863312 -0.000797739368863404
outer loop
vertex 9.47789573669434 -44.0111999511719 20.6779479980469
vertex 6.10014295578003 -42.8560485839844 24.2803649902344
vertex 9.39612579345703 -43.9830894470215 20.5922832489014
endloop
endfacet
facet normal -0.32434955239296 -0.945936977863312 -0.000797739368863404
outer loop
vertex 9.47789573669434 -44.0111999511719 20.6779479980469
vertex 9.39612579345703 -43.9830894470215 20.5922832489014
vertex 12.8556489944458 -45.1663513183594 17.0755290985107
endloop
endfacet
facet normal -0.32434955239296 -0.945937037467957 -0.000797739368863404
outer loop
vertex 12.7534370422363 -45.1312103271484 16.9684505462646
vertex 12.8556489944458 -45.1663513183594 17.0755290985107
vertex 9.39612579345703 -43.9830894470215 20.5922832489014
endloop
endfacet
facet normal -0.32434955239296 -0.945936977863312 -0.000797739368863404
outer loop
vertex 16.182201385498 -46.3039894104004 13.5277185440063
vertex 12.8556489944458 -45.1663513183594 17.0755290985107
vertex 16.0598659515381 -46.2619323730469 13.3995370864868
endloop
endfacet
facet normal -0.32434955239296 -0.945937037467957 -0.000797739310655743
outer loop
vertex 12.7534370422363 -45.1312103271484 16.9684505462646
vertex 16.0598659515381 -46.2619323730469 13.3995370864868
vertex 12.8556489944458 -45.1663513183594 17.0755290985107
endloop
endfacet
facet normal -0.324349522590637 -0.945936918258667 -0.000797739310655743
outer loop
vertex 16.182201385498 -46.3039894104004 13.5277185440063
vertex 16.0598659515381 -46.2619323730469 13.3995370864868
vertex 18.2583541870117 -47.0140075683594 11.3134746551514
endloop
endfacet
facet normal -0.32434955239296 -0.945936977863312 -0.000797739427071065
outer loop
vertex 18.1234683990479 -46.9676399230957 11.1721134185791
vertex 18.2583541870117 -47.0140075683594 11.3134746551514
vertex 16.0598659515381 -46.2619323730469 13.3995370864868
endloop
endfacet
facet normal -0.324349582195282 -0.945936977863312 -0.000797739427071065
outer loop
vertex 18.2583541870117 -47.0140075683594 11.3134746551514
vertex 18.1234683990479 -46.9676399230957 11.1721134185791
vertex 19.2774047851563 -47.3625106811523 10.2266426086426
endloop
endfacet
facet normal -0.32434955239296 -0.945936977863312 -0.000797739310655743
outer loop
vertex 19.136344909668 -47.3140182495117 10.0788288116455
vertex 19.2774047851563 -47.3625106811523 10.2266426086426
vertex 18.1234683990479 -46.9676399230957 11.1721134185791
endloop
endfacet
facet normal -1 0 0
outer loop
vertex -0.238490000367165 -36 -0.0299999993294477
vertex -0.238490000367165 -36 0.180000007152557
vertex -0.238490000367165 -35 -0.0299999993294477
endloop
endfacet
facet normal -1 -0 -0
outer loop
vertex -0.238490000367165 -35 0.180000007152557
vertex -0.238490000367165 -35 -0.0299999993294477
vertex -0.238490000367165 -36 0.180000007152557
endloop
endfacet
facet normal -0.70710676908493 -0 -0.70710676908493
outer loop
vertex -0.238490000367165 -35 -0.0299999993294477
vertex -0.0900000035762787 -35 -0.178489997982979
vertex -0.238490000367165 -36 -0.0299999993294477
endloop
endfacet
facet normal -0.70710676908493 0 -0.70710676908493
outer loop
vertex -0.0900000035762787 -36 -0.178489997982979
vertex -0.238490000367165 -36 -0.0299999993294477
vertex -0.0900000035762787 -35 -0.178489997982979
endloop
endfacet
facet normal -0.70710676908493 0 0.70710676908493
outer loop
vertex -0.238490000367165 -35 0.180000007152557
vertex -0.238490000367165 -36 0.180000007152557
vertex -0.0900000035762787 -35 0.328489989042282
endloop
endfacet
facet normal -0.70710676908493 0 0.70710676908493
outer loop
vertex -0.0900000035762787 -36 0.328489989042282
vertex -0.0900000035762787 -35 0.328489989042282
vertex -0.238490000367165 -36 0.180000007152557
endloop
endfacet
facet normal 0 0 -1
outer loop
vertex -0.0900000035762787 -36 -0.178489997982979
vertex -0.0900000035762787 -35 -0.178489997982979
vertex 0.119999997317791 -36 -0.178489997982979
endloop
endfacet
facet normal -0 -0 -1
outer loop
vertex 0.119999997317791 -35 -0.178489997982979
vertex 0.119999997317791 -36 -0.178489997982979
vertex -0.0900000035762787 -35 -0.178489997982979
endloop
endfacet
facet normal -0 0 1
outer loop
vertex -0.0900000035762787 -35 0.328489989042282
vertex -0.0900000035762787 -36 0.328489989042282
vertex 0.119999997317791 -35 0.328489989042282
endloop
endfacet
facet normal 0 -0 1
outer loop
vertex 0.119999997317791 -36 0.328489989042282
vertex 0.119999997317791 -35 0.328489989042282
vertex -0.0900000035762787 -36 0.328489989042282
endloop
endfacet
facet normal 0.70710676908493 0 -0.70710676908493
outer loop
vertex 0.119999997317791 -35 -0.178489997982979
vertex 0.268489986658096 -35 -0.0299999993294477
vertex 0.119999997317791 -36 -0.178489997982979
endloop
endfacet
facet normal 0.70710676908493 0 -0.70710676908493
outer loop
vertex 0.268489986658096 -36 -0.0299999993294477
vertex 0.119999997317791 -36 -0.178489997982979
vertex 0.268489986658096 -35 -0.0299999993294477
endloop
endfacet
facet normal 0.70710676908493 -0 0.70710676908493
outer loop
vertex 0.268489986658096 -36 0.180000007152557
vertex 0.268489986658096 -35 0.180000007152557
vertex 0.119999997317791 -36 0.328489989042282
endloop
endfacet
facet normal 0.70710676908493 0 0.70710676908493
outer loop
vertex 0.119999997317791 -35 0.328489989042282
vertex 0.119999997317791 -36 0.328489989042282
vertex 0.268489986658096 -35 0.180000007152557
endloop
endfacet
facet normal 1 -0 0
outer loop
vertex 0.268489986658096 -36 0.180000007152557
vertex 0.268489986658096 -36 -0.0299999993294477
vertex 0.268489986658096 -35 0.180000007152557
endloop
endfacet
facet normal 1 0 -0
outer loop
vertex 0.268489986658096 -35 -0.0299999993294477
vertex 0.268489986658096 -35 0.180000007152557
vertex 0.268489986658096 -36 -0.0299999993294477
endloop
endfacet
facet normal -0 0.00509964814409614 0.999987065792084
outer loop
vertex -0.0900000035762787 -34.9995460510254 0.328487664461136
vertex 0.119999997317791 -34.9995460510254 0.328487664461136
vertex -0.0865638554096222 -33.6632843017578 0.32167312502861
endloop
endfacet
facet normal 0 0.00509964814409614 0.999987065792084
outer loop
vertex 0.116563856601715 -33.6632843017578 0.32167312502861
vertex -0.0865638554096222 -33.6632843017578 0.32167312502861
vertex 0.119999997317791 -34.9995460510254 0.328487664461136
endloop
endfacet
facet normal 0 0.00509964767843485 0.999987006187439
outer loop
vertex 0.116563856601715 -33.6632843017578 0.32167312502861
vertex 0.111097745597363 -31.5376014709473 0.310832768678665
vertex -0.0865638554096222 -33.6632843017578 0.32167312502861
endloop
endfacet
facet normal -9.42664621360536e-17 0.00509964814409614 0.999987006187439
outer loop
vertex -0.0810977444052696 -31.5376014709473 0.310832768678665
vertex -0.0865638554096222 -33.6632843017578 0.32167312502861
vertex 0.111097745597363 -31.5376014709473 0.310832768678665
endloop
endfacet
facet normal -9.42664621360536e-17 0.00509964814409614 0.999987006187439
outer loop
vertex -0.0810977444052696 -31.5376014709473 0.310832768678665
vertex 0.111097745597363 -31.5376014709473 0.310832768678665
vertex -0.0724024400115013 -28.1561393737793 0.293588280677795
endloop
endfacet
facet normal -1.03644632257041e-16 0.00509964767843485 0.999987006187439
outer loop
vertex 0.102402441203594 -28.1561393737793 0.293588280677795
vertex -0.0724024400115013 -28.1561393737793 0.293588280677795
vertex 0.111097745597363 -31.5376014709473 0.310832768678665
endloop
endfacet
facet normal -1.03644638874486e-16 0.00509964814409614 0.999987006187439
outer loop
vertex 0.102402441203594 -28.1561393737793 0.293588280677795
vertex 0.0895807445049286 -23.1699867248535 0.268160313367844
vertex -0.0724024400115013 -28.1561393737793 0.293588280677795
endloop
endfacet
facet normal 2.58448095764551e-16 0.00509964767843485 0.999987006187439
outer loop
vertex -0.0595807433128357 -23.1699867248535 0.268160313367844
vertex -0.0724024400115013 -28.1561393737793 0.293588280677795
vertex 0.0895807445049286 -23.1699867248535 0.268160313367844
endloop
endfacet
facet normal 2.58448122234331e-16 0.00509964860975742 0.999987065792084
outer loop
vertex -0.0595807433128357 -23.1699867248535 0.268160313367844
vertex 0.0895807445049286 -23.1699867248535 0.268160313367844
vertex -0.0461585819721222 -17.9503269195557 0.241541534662247
endloop
endfacet
facet normal -5.98632396014749e-17 0.00509964814409614 0.999987006187439
outer loop
vertex 0.0761585831642151 -17.9503269195557 0.241541534662247
vertex -0.0461585819721222 -17.9503269195557 0.241541534662247
vertex 0.0895807445049286 -23.1699867248535 0.268160313367844
endloop
endfacet
facet normal -5.98632396014749e-17 0.00509964814409614 0.999987006187439
outer loop
vertex 0.0761585831642151 -17.9503269195557 0.241541534662247
vertex 0.0627364218235016 -12.7306652069092 0.21492275595665
vertex -0.0461585819721222 -17.9503269195557 0.241541534662247
endloop
endfacet
facet normal 3.14964304527285e-16 0.00509964814409614 0.999987006187439
outer loop
vertex -0.032736424356699 -12.7306652069092 0.21492275595665
vertex -0.0461585819721222 -17.9503269195557 0.241541534662247
vertex 0.0627364218235016 -12.7306652069092 0.21492275595665
endloop
endfacet
facet normal 3.14964304527285e-16 0.00509964814409614 0.999987006187439
outer loop
vertex -0.032736424356699 -12.7306652069092 0.21492275595665
vertex 0.0627364218235016 -12.7306652069092 0.21492275595665
vertex -0.0196017548441887 -7.62280511856079 0.188874125480652
endloop
endfacet
facet normal 3.60708742360227e-16 0.00509964814409614 0.999987006187439
outer loop
vertex 0.0496017523109913 -7.62280511856079 0.188874125480652
vertex -0.0196017548441887 -7.62280511856079 0.188874125480652
vertex 0.0627364218235016 -12.7306652069092 0.21492275595665
endloop
endfacet
facet normal 3.60708715890448e-16 0.00509964767843485 0.999986946582794
outer loop
vertex 0.0496017523109913 -7.62280511856079 0.188874125480652
vertex 0.0408560931682587 -4.22175931930542 0.171529769897461
vertex -0.0196017548441887 -7.62280511856079 0.188874125480652
endloop
endfacet
facet normal 2.96345699783468e-16 0.00509964767843485 0.999986946582794
outer loop
vertex -0.0108560938388109 -4.22175931930542 0.171529769897461
vertex -0.0196017548441887 -7.62280511856079 0.188874125480652
vertex 0.0408560931682587 -4.22175931930542 0.171529769897461
endloop
endfacet
facet normal 2.96345699783468e-16 0.00509964814409614 0.999986946582794
outer loop
vertex -0.0108560938388109 -4.22175931930542 0.171529769897461
vertex 0.0408560931682587 -4.22175931930542 0.171529769897461
vertex -0.00588008016347885 -2.28666806221008 0.161661356687546
endloop
endfacet
facet normal 1.36183852912068e-16 0.00509964814409614 0.999987006187439
outer loop
vertex 0.0358800813555717 -2.28666806221008 0.161661356687546
vertex -0.00588008016347885 -2.28666806221008 0.161661356687546
vertex 0.0408560931682587 -4.22175931930542 0.171529769897461
endloop
endfacet
facet normal 1.36183852912068e-16 0.00509964814409614 0.999987065792084
outer loop
vertex 0.0358800813555717 -2.28666806221008 0.161661356687546
vertex 0.0330488793551922 -1.18566024303436 0.156046524643898
vertex -0.00588008016347885 -2.28666806221008 0.161661356687546
endloop
endfacet
facet normal -3.13689625820786e-16 0.00509964814409614 0.999986946582794
outer loop
vertex -0.00304888025857508 -1.18566024303436 0.156046524643898
vertex -0.00588008016347885 -2.28666806221008 0.161661356687546
vertex 0.0330488793551922 -1.18566024303436 0.156046524643898
endloop
endfacet
facet normal -3.13689652290566e-16 0.00509964814409614 0.999987006187439
outer loop
vertex -0.00304888025857508 -1.18566024303436 0.156046524643898
vertex 0.0330488793551922 -1.18566024303436 0.156046524643898
vertex -0.00143801374360919 -0.559220314025879 0.152851864695549
endloop
endfacet
facet normal 7.41294701014553e-16 0.00509964767843485 0.999987006187439
outer loop
vertex 0.0314380154013634 -0.559220314025879 0.152851864695549
vertex -0.00143801374360919 -0.559220314025879 0.152851864695549
vertex 0.0330488793551922 -1.18566024303436 0.156046524643898
endloop
endfacet
facet normal 7.41294753954112e-16 0.00509964814409614 0.999987065792084
outer loop
vertex 0.0314380154013634 -0.559220314025879 0.152851864695549
vertex 0.0305214803665876 -0.202795073390007 0.151034191250801
vertex -0.00143801374360919 -0.559220314025879 0.152851864695549
endloop
endfacet
facet normal -9.75755697215589e-16 0.00509964814409614 0.999986946582794
outer loop
vertex -0.000521479814779013 -0.202795073390007 0.151034191250801
vertex -0.00143801374360919 -0.559220314025879 0.152851864695549
vertex 0.0305214803665876 -0.202795073390007 0.151034191250801
endloop
endfacet
facet normal -9.75755697215589e-16 0.00509964814409614 0.999987006187439
outer loop
vertex -0.000521479814779013 -0.202795073390007 0.151034191250801
vertex 0.0305214803665876 -0.202795073390007 0.151034191250801
vertex 0 0 0.150000005960464
endloop
endfacet
facet normal 0 0.00509964814409614 0.999987006187439
outer loop
vertex 0.0299999993294477 0 0.150000005960464
vertex 0 0 0.150000005960464
vertex 0.0305214803665876 -0.202795073390007 0.151034191250801
endloop
endfacet
facet normal -0.999976754188538 -0.00681384187191725 0
outer loop
vertex 0.268484473228455 -34.9991874694824 -0.0299999993294477
vertex 0.268484473228455 -34.9991874694824 0.180000007152557
vertex 0.259538561105728 -33.6863136291504 -0.0288746543228626
endloop
endfacet
facet normal -0.999976754188538 -0.00681384140625596 2.3304653058846e-16
outer loop
vertex 0.259538561105728 -33.6863136291504 0.178874656558037
vertex 0.259538561105728 -33.6863136291504 -0.0288746543228626
vertex 0.268484473228455 -34.9991874694824 0.180000007152557
endloop
endfacet
facet normal -0.999976813793182 -0.00681384233757854 2.3304655705824e-16
outer loop
vertex 0.259538561105728 -33.6863136291504 0.178874656558037
vertex 0.245753824710846 -31.6633148193359 0.177140608429909
vertex 0.259538561105728 -33.6863136291504 -0.0288746543228626
endloop
endfacet
facet normal -0.999976754188538 -0.00681384187191725 -1.01136693431674e-16
outer loop
vertex 0.245753824710846 -31.6633148193359 -0.0271406136453152
vertex 0.259538561105728 -33.6863136291504 -0.0288746543228626
vertex 0.245753824710846 -31.6633148193359 0.177140608429909
endloop
endfacet
facet normal -0.999976813793182 -0.00681384187191725 -1.01136693431674e-16
outer loop
vertex 0.245753824710846 -31.6633148193359 0.177140608429909
vertex 0.224512979388237 -28.5460796356201 0.174468636512756
vertex 0.245753824710846 -31.6633148193359 -0.0271406136453152
endloop
endfacet
facet normal -0.999976813793182 -0.00681384233757854 0
outer loop
vertex 0.224512979388237 -28.5460796356201 -0.0244686361402273
vertex 0.245753824710846 -31.6633148193359 -0.0271406136453152
vertex 0.224512979388237 -28.5460796356201 0.174468636512756
endloop
endfacet
facet normal -0.999976813793182 -0.00681384187191725 0
outer loop
vertex 0.224512979388237 -28.5460796356201 -0.0244686361402273
vertex 0.224512979388237 -28.5460796356201 0.174468636512756
vertex 0.192845925688744 -23.8987274169922 -0.0204850975424051
endloop
endfacet
facet normal -0.999976754188538 -0.00681384140625596 -1.08186125135198e-16
outer loop
vertex 0.192845925688744 -23.8987274169922 0.170485094189644
vertex 0.192845925688744 -23.8987274169922 -0.0204850975424051
vertex 0.224512979388237 -28.5460796356201 0.174468636512756
endloop
endfacet
facet normal -0.999976754188538 -0.00681384140625596 -1.08186125135198e-16
outer loop
vertex 0.192845925688744 -23.8987274169922 -0.0204850975424051
vertex 0.192845925688744 -23.8987274169922 0.170485094189644
vertex 0.158521324396133 -18.8613624572754 -0.0161672569811344
endloop
endfacet
facet normal -0.999976754188538 -0.00681384140625596 -1.32764936769374e-16
outer loop
vertex 0.158521324396133 -18.8613624572754 0.166167259216309
vertex 0.158521324396133 -18.8613624572754 -0.0161672569811344
vertex 0.192845925688744 -23.8987274169922 0.170485094189644
endloop
endfacet
facet normal -0.999976754188538 -0.00681384140625596 -1.32764936769374e-16
outer loop
vertex 0.158521324396133 -18.8613624572754 0.166167259216309
vertex 0.124196715652943 -13.8239965438843 0.161849409341812
vertex 0.158521324396133 -18.8613624572754 -0.0161672569811344
endloop
endfacet
facet normal -0.999976754188538 -0.00681384187191725 -4.92606237982274e-17
outer loop
vertex 0.124196715652943 -13.8239965438843 -0.0118494154885411
vertex 0.158521324396133 -18.8613624572754 -0.0161672569811344
vertex 0.124196715652943 -13.8239965438843 0.161849409341812
endloop
endfacet
facet normal -0.999976813793182 -0.00681384233757854 -4.9260620489505e-17
outer loop
vertex 0.124196715652943 -13.8239965438843 -0.0118494154885411
vertex 0.124196715652943 -13.8239965438843 0.161849409341812
vertex 0.0899107977747917 -8.79230976104736 -0.0075364401564002
endloop
endfacet
facet normal -0.999976813793182 -0.00681384187191725 -4.10901009756206e-17
outer loop
vertex 0.0899107977747917 -8.79230976104736 0.157536447048187
vertex 0.0899107977747917 -8.79230976104736 -0.0075364401564002
vertex 0.124196715652943 -13.8239965438843 0.161849409341812
endloop
endfacet
facet normal -0.999976754188538 -0.00681384140625596 -4.10900976668981e-17
outer loop
vertex 0.0899107977747917 -8.79230976104736 -0.0075364401564002
vertex 0.0899107977747917 -8.79230976104736 0.157536447048187
vertex 0.0635666027665138 -4.92612314224243 -0.00422248942777514
endloop
endfacet
facet normal -0.999976754188538 -0.00681384140625596 -4.93897533092919e-17
outer loop
vertex 0.0635666027665138 -4.92612314224243 0.15422248840332
vertex 0.0635666027665138 -4.92612314224243 -0.00422248942777514
vertex 0.0899107977747917 -8.79230976104736 0.157536447048187
endloop
endfacet
facet normal -0.999976813793182 -0.00681384187191725 -4.93897533092919e-17
outer loop
vertex 0.0635666027665138 -4.92612314224243 0.15422248840332
vertex 0.0469910837709904 -2.49355530738831 0.152137383818626
vertex 0.0635666027665138 -4.92612314224243 -0.00422248942777514
endloop
endfacet
facet normal -0.999976813793182 -0.00681384187191725 -7.60872226464001e-17
outer loop
vertex 0.0469910837709904 -2.49355530738831 -0.00213738274760544
vertex 0.0635666027665138 -4.92612314224243 -0.00422248942777514
vertex 0.0469910837709904 -2.49355530738831 0.152137383818626
endloop
endfacet
facet normal -0.999976754188538 -0.00681384187191725 -7.60872160289552e-17
outer loop
vertex 0.0469910837709904 -2.49355530738831 -0.00213738274760544
vertex 0.0469910837709904 -2.49355530738831 0.152137383818626
vertex 0.0365619286894798 -0.963006675243378 -0.000825453433208168
endloop
endfacet
facet normal -0.999976813793182 -0.00681384233757854 -8.25779782185669e-18
outer loop
vertex 0.0365619286894798 -0.963006675243378 0.150825455784798
vertex 0.0365619286894798 -0.963006675243378 -0.000825453433208168
vertex 0.0469910837709904 -2.49355530738831 0.152137383818626
endloop
endfacet
facet normal -0.999976754188538 -0.00681384187191725 -8.25779699467608e-18
outer loop
vertex 0.0365619286894798 -0.963006675243378 -0.000825453433208168
vertex 0.0365619286894798 -0.963006675243378 0.150825455784798
vertex 0.0299999993294477 0 0
endloop
endfacet
facet normal -0.999976813793182 -0.00681384233757854 -0
outer loop
vertex 0.0299999993294477 0 0.150000005960464
vertex 0.0299999993294477 0 0
vertex 0.0365619286894798 -0.963006675243378 0.150825455784798
endloop
endfacet
facet normal 0.70709639787674 0.005424237344414 0.70709639787674
outer loop
vertex 0.268489748239517 -34.9998054504395 0.179998770356178
vertex 0.258063912391663 -33.4697532653809 0.178687334060669
vertex 0.119998529553413 -34.9994277954102 0.32848709821701
endloop
endfacet
facet normal 0.70709639787674 0.005424237344414 0.70709639787674
outer loop
vertex 0.116064116358757 -33.4693794250488 0.320684283971786
vertex 0.119998529553413 -34.9994277954102 0.32848709821701
vertex 0.258063912391663 -33.4697532653809 0.178687334060669
endloop
endfacet
facet normal 0.707096338272095 0.005424237344414 0.707096338272095
outer loop
vertex 0.258063912391663 -33.4697532653809 0.178687334060669
vertex 0.236822679638863 -30.3524742126465 0.176015481352806
vertex 0.116064116358757 -33.4693794250488 0.320684283971786
endloop
endfacet
facet normal 0.70709639787674 0.005424237344414 0.70709639787674
outer loop
vertex 0.108048401772976 -30.3521556854248 0.304787307977676
vertex 0.116064116358757 -33.4693794250488 0.320684283971786
vertex 0.236822679638863 -30.3524742126465 0.176015481352806
endloop
endfacet
facet normal 0.70709639787674 0.00542423781007528 0.70709639787674
outer loop
vertex 0.108048401772976 -30.3521556854248 0.304787307977676
vertex 0.236822679638863 -30.3524742126465 0.176015481352806
vertex 0.0952050685882568 -25.3575248718262 0.279316127300262
endloop
endfacet
facet normal 0.70709639787674 0.00542423687875271 0.70709639787674
outer loop
vertex 0.202788680791855 -25.357780456543 0.171734467148781
vertex 0.0952050685882568 -25.3575248718262 0.279316127300262
vertex 0.236822679638863 -30.3524742126465 0.176015481352806
endloop
endfacet
facet normal 0.707096338272095 0.00542423687875271 0.707096338272095
outer loop
vertex 0.202788680791855 -25.357780456543 0.171734467148781
vertex 0.168230950832367 -20.2862243652344 0.167387574911118
vertex 0.0952050685882568 -25.3575248718262 0.279316127300262
endloop
endfacet
facet normal 0.70709639787674 0.00542423781007528 0.70709639787674
outer loop
vertex 0.0821640491485596 -20.2860202789307 0.253452897071838
vertex 0.0952050685882568 -25.3575248718262 0.279316127300262
vertex 0.168230950832367 -20.2862243652344 0.167387574911118
endloop
endfacet
facet normal 0.70709639787674 0.00542423781007528 0.70709639787674
outer loop
vertex 0.0821640491485596 -20.2860202789307 0.253452897071838
vertex 0.168230950832367 -20.2862243652344 0.167387574911118
vertex 0.0691230371594429 -15.2145156860352 0.227589681744576
endloop
endfacet
facet normal 0.70709639787674 0.005424237344414 0.70709639787674
outer loop
vertex 0.133673205971718 -15.2146682739258 0.163040682673454
vertex 0.0691230371594429 -15.2145156860352 0.227589681744576
vertex 0.168230950832367 -20.2862243652344 0.167387574911118
endloop
endfacet
facet normal 0.70709639787674 0.005424237344414 0.70709639787674
outer loop
vertex 0.133673205971718 -15.2146682739258 0.163040682673454
vertex 0.0991154760122299 -10.1431121826172 0.158693790435791
vertex 0.0691230371594429 -15.2145156860352 0.227589681744576
endloop
endfacet
facet normal 0.70709639787674 0.00542423781007528 0.70709639787674
outer loop
vertex 0.0560820251703262 -10.1430101394653 0.201726451516151
vertex 0.0691230371594429 -15.2145156860352 0.227589681744576
vertex 0.0991154760122299 -10.1431121826172 0.158693790435791
endloop
endfacet
facet normal 0.70709639787674 0.00542423781007528 0.70709639787674
outer loop
vertex 0.0560820251703262 -10.1430101394653 0.201726451516151
vertex 0.0991154760122299 -10.1431121826172 0.158693790435791
vertex 0.0430410131812096 -5.07150506973267 0.175863221287727
endloop
endfacet
facet normal 0.70709639787674 0.00542423781007528 0.70709639787674
outer loop
vertex 0.0645577386021614 -5.07155609130859 0.154346898198128
vertex 0.0430410131812096 -5.07150506973267 0.175863221287727
vertex 0.0991154760122299 -10.1431121826172 0.158693790435791
endloop
endfacet
facet normal 0.70709639787674 0.00542423781007528 0.70709639787674
outer loop
vertex 0.0430410131812096 -5.07150506973267 0.175863221287727
vertex 0.0645577386021614 -5.07155609130859 0.154346898198128
vertex 0.0299999993294477 0 0.150000005960464
endloop
endfacet
facet normal 0.707098543643951 0.00481816940009594 -0.707098543643951
outer loop
vertex 0.303041458129883 -40.0706558227539 -0.0299999993294477
vertex 0.281525641679764 -40.07080078125 -0.0515168085694313
vertex 0.268484473228455 -34.9991874694824 -0.0299999993294477
endloop
endfacet
facet normal 0.707098543643951 0.00481816940009594 -0.707098543643951
outer loop
vertex 0.337598472833633 -45.1421279907227 -0.0299999993294477
vertex 0.294566780328751 -45.1424140930176 -0.0730336159467697
vertex 0.303041458129883 -40.0706558227539 -0.0299999993294477
endloop
endfacet
facet normal 0.707098543643951 0.00481816940009594 -0.707098543643951
outer loop
vertex 0.281525641679764 -40.07080078125 -0.0515168085694313
vertex 0.303041458129883 -40.0706558227539 -0.0299999993294477
vertex 0.294566780328751 -45.1424140930176 -0.0730336159467697
endloop
endfacet
facet normal 0.707098543643951 0.00481816940009594 -0.707098543643951
outer loop
vertex 0.337598472833633 -45.1421279907227 -0.0299999993294477
vertex 0.372155457735062 -50.2135963439941 -0.0299999993294477
vertex 0.294566780328751 -45.1424140930176 -0.0730336159467697
endloop
endfacet
facet normal 0.707098603248596 0.00481816986575723 -0.707098603248596
outer loop
vertex 0.30760794878006 -50.2140274047852 -0.0945504233241081
vertex 0.294566780328751 -45.1424140930176 -0.0730336159467697
vertex 0.372155457735062 -50.2135963439941 -0.0299999993294477
endloop
endfacet
facet normal 0.707098603248596 0.00481816986575723 -0.707098603248596
outer loop
vertex 0.30760794878006 -50.2140274047852 -0.0945504233241081
vertex 0.372155457735062 -50.2135963439941 -0.0299999993294477
vertex 0.320649117231369 -55.2856407165527 -0.116067230701447
endloop
endfacet
facet normal 0.707098543643951 0.00481816940009594 -0.707098543643951
outer loop
vertex 0.40671244263649 -55.2850685119629 -0.0299999993294477
vertex 0.320649117231369 -55.2856407165527 -0.116067230701447
vertex 0.372155457735062 -50.2135963439941 -0.0299999993294477
endloop
endfacet
facet normal 0.707098543643951 0.00481816940009594 -0.707098543643951
outer loop
vertex 0.40671244263649 -55.2850685119629 -0.0299999993294477
vertex 0.44126945734024 -60.3565368652344 -0.0299999993294477
vertex 0.320649117231369 -55.2856407165527 -0.116067230701447
endloop
endfacet
facet normal 0.707098603248596 0.00481816986575723 -0.707098603248596
outer loop
vertex 0.333690285682678 -60.3572540283203 -0.137584045529366
vertex 0.320649117231369 -55.2856407165527 -0.116067230701447
vertex 0.44126945734024 -60.3565368652344 -0.0299999993294477
endloop
endfacet
facet normal 0.707098603248596 0.00481816986575723 -0.707098603248596
outer loop
vertex 0.47530260682106 -65.3511352539063 -0.0299999993294477
vertex 0.346533805131912 -65.3520050048828 -0.158774748444557
vertex 0.44126945734024 -60.3565368652344 -0.0299999993294477
endloop
endfacet
facet normal 0.707098543643951 0.00481816940009594 -0.707098543643951
outer loop
vertex 0.333690285682678 -60.3572540283203 -0.137584045529366
vertex 0.44126945734024 -60.3565368652344 -0.0299999993294477
vertex 0.346533805131912 -65.3520050048828 -0.158774748444557
endloop
endfacet
facet normal 0.707098603248596 0.00481816986575723 -0.707098603248596
outer loop
vertex 0.47530260682106 -65.3511352539063 -0.0299999993294477
vertex 0.496543258428574 -68.4683380126953 -0.0299999993294477
vertex 0.346533805131912 -65.3520050048828 -0.158774748444557
endloop
endfacet
facet normal 0.707098543643951 0.00481816940009594 -0.707098543643951
outer loop
vertex 0.354549676179886 -68.4693145751953 -0.172000259160995
vertex 0.346533805131912 -65.3520050048828 -0.158774748444557
vertex 0.496543258428574 -68.4683380126953 -0.0299999993294477
endloop
endfacet
facet normal 0.707098603248596 0.00481816986575723 -0.707098603248596
outer loop
vertex 0.496543258428574 -68.4683380126953 -0.0299999993294477
vertex 0.506968915462494 -69.9983749389648 -0.0299999993294477
vertex 0.354549676179886 -68.4693145751953 -0.172000259160995
endloop
endfacet
facet normal 0.707098543643951 0.00481816986575723 -0.707098543643951
outer loop
vertex 0.358484089374542 -69.9993896484375 -0.178491726517677
vertex 0.354549676179886 -68.4693145751953 -0.172000259160995
vertex 0.506968915462494 -69.9983749389648 -0.0299999993294477
endloop
endfacet
facet normal 0.221368968486786 0.671570837497711 -0.707098543643951
outer loop
vertex 62.0245742797852 -61.2869300842285 -0.268484085798264
vertex 61.9761695861816 -61.4273147583008 -0.416968941688538
vertex 60.572639465332 -60.8041877746582 -0.264549672603607
endloop
endfacet
facet normal 0.221368953585625 0.671570837497711 -0.707098603248596
outer loop
vertex 60.5263366699219 -60.9384307861328 -0.406543254852295
vertex 60.572639465332 -60.8041877746582 -0.264549672603607
vertex 61.9761695861816 -61.4273147583008 -0.416968941688538
endloop
endfacet
facet normal 0.221368953585625 0.671570837497711 -0.707098543643951
outer loop
vertex 60.572639465332 -60.8041877746582 -0.264549672603607
vertex 60.5263366699219 -60.9384307861328 -0.406543254852295
vertex 57.6145133972168 -59.8206634521484 -0.256533801555634
endloop
endfacet
facet normal 0.221368968486786 0.671570837497711 -0.707098603248596
outer loop
vertex 57.5725440979004 -59.9424095153809 -0.385302633047104
vertex 57.6145133972168 -59.8206634521484 -0.256533801555634
vertex 60.5263366699219 -60.9384307861328 -0.406543254852295
endloop
endfacet
facet normal 0.221368968486786 0.671570837497711 -0.707098603248596
outer loop
vertex 57.5725440979004 -59.9424095153809 -0.385302633047104
vertex 52.839771270752 -58.3465194702148 -0.351269453763962
vertex 57.6145133972168 -59.8206634521484 -0.256533801555634
endloop
endfacet
facet normal 0.221368953585625 0.671570837497711 -0.707098543643951
outer loop
vertex 52.8748245239258 -58.2448043823242 -0.2436902821064
vertex 57.6145133972168 -59.8206634521484 -0.256533801555634
vertex 52.839771270752 -58.3465194702148 -0.351269453763962
endloop
endfacet
facet normal 0.221368968486786 0.671570837497711 -0.707098603248596
outer loop
vertex 52.8748245239258 -58.2448043823242 -0.2436902821064
vertex 52.839771270752 -58.3465194702148 -0.351269453763962
vertex 48.062198638916 -56.6446952819824 -0.23064911365509
endloop
endfacet
facet normal 0.221368953585625 0.671570777893066 -0.707098543643951
outer loop
vertex 48.0341567993164 -56.7260665893555 -0.316712439060211
vertex 48.062198638916 -56.6446952819824 -0.23064911365509
vertex 52.839771270752 -58.3465194702148 -0.351269453763962
endloop
endfacet
facet normal 0.221368953585625 0.671570777893066 -0.707098543643951
outer loop
vertex 48.0341567993164 -56.7260665893555 -0.316712439060211
vertex 43.2285423278809 -55.1056137084961 -0.282155454158783
vertex 48.062198638916 -56.6446952819824 -0.23064911365509
endloop
endfacet
facet normal 0.221368968486786 0.671570837497711 -0.707098603248596
outer loop
vertex 43.2495727539063 -55.0445861816406 -0.217607960104942
vertex 48.062198638916 -56.6446952819824 -0.23064911365509
vertex 43.2285423278809 -55.1056137084961 -0.282155454158783
endloop
endfacet
facet normal 0.221368968486786 0.671570837497711 -0.707098603248596
outer loop
vertex 43.2495727539063 -55.0445861816406 -0.217607960104942
vertex 43.2285423278809 -55.1056137084961 -0.282155454158783
vertex 38.4369468688965 -53.4444732666016 -0.204566791653633
endloop
endfacet
facet normal 0.221368953585625 0.671570777893066 -0.707098543643951
outer loop
vertex 38.4229278564453 -53.4851608276367 -0.247598454356194
vertex 38.4369468688965 -53.4444732666016 -0.204566791653633
vertex 43.2285423278809 -55.1056137084961 -0.282155454158783
endloop
endfacet
facet normal 0.221368953585625 0.671570777893066 -0.707098543643951
outer loop
vertex 38.4229278564453 -53.4851608276367 -0.247598454356194
vertex 33.6173095703125 -51.8647079467773 -0.213041454553604
vertex 38.4369468688965 -53.4444732666016 -0.204566791653633
endloop
endfacet
facet normal 0.221368953585625 0.671570777893066 -0.707098543643951
outer loop
vertex 33.6243209838867 -51.8443641662598 -0.191525623202324
vertex 38.4369468688965 -53.4444732666016 -0.204566791653633
vertex 33.6173095703125 -51.8647079467773 -0.213041454553604
endloop
endfacet
facet normal 0.221368953585625 0.671570777893066 -0.707098543643951
outer loop
vertex 33.6173095703125 -51.8647079467773 -0.213041454553604
vertex 28.811695098877 -50.244255065918 -0.178484469652176
vertex 33.6243209838867 -51.8443641662598 -0.191525623202324
endloop
endfacet
endsolid COMSOL mesh mesh1
