solid COMSOL mesh mesh1
facet normal -0.00949727185070515 0.999954879283905 0
outer loop
vertex 0 0 0.150000005960464
vertex 0 0 0
vertex -0.980032563209534 -0.00930805597454309 0.150490045547485
endloop
endfacet
facet normal -0.00949727185070515 0.999954879283905 -4.05435339412507e-18
outer loop
vertex -0.980032563209534 -0.00930805597454309 -0.000490038364659995
vertex -0.980032563209534 -0.00930805597454309 0.150490045547485
vertex 0 0 0
endloop
endfacet
facet normal -0.00949727278202772 0.99995493888855 -4.05435380771537e-18
outer loop
vertex -0.980032563209534 -0.00930805597454309 0.150490045547485
vertex -0.980032563209534 -0.00930805597454309 -0.000490038364659995
vertex -2.62475395202637 -0.0249291285872459 0.151312440633774
endloop
endfacet
facet normal -0.00949727278202772 0.999954879283905 -1.78276629139001e-17
outer loop
vertex -2.62475395202637 -0.0249291285872459 -0.00131243618670851
vertex -2.62475395202637 -0.0249291285872459 0.151312440633774
vertex -0.980032563209534 -0.00930805597454309 -0.000490038364659995
endloop
endfacet
facet normal -0.00949727278202772 0.999954879283905 -8.9308123168729e-17
outer loop
vertex -5.38497686386108 -0.0511448979377747 0.15269261598587
vertex -2.62475395202637 -0.0249291285872459 0.151312440633774
vertex -5.38497686386108 -0.0511448979377747 -0.00269260979257524
endloop
endfacet
facet normal -0.00949727278202772 0.99995493888855 -1.78276645682613e-17
outer loop
vertex -2.62475395202637 -0.0249291285872459 -0.00131243618670851
vertex -5.38497686386108 -0.0511448979377747 -0.00269260979257524
vertex -2.62475395202637 -0.0249291285872459 0.151312440633774
endloop
endfacet
facet normal -0.00949727278202772 0.99995493888855 -8.93081165512841e-17
outer loop
vertex -5.38497686386108 -0.0511448979377747 0.15269261598587
vertex -5.38497686386108 -0.0511448979377747 -0.00269260979257524
vertex -10.0172691345215 -0.0951410233974457 0.155008867383003
endloop
endfacet
facet normal -0.00949727185070515 0.999954879283905 -9.86190269623035e-17
outer loop
vertex -10.0172691345215 -0.0951410233974457 -0.00500886049121618
vertex -10.0172691345215 -0.0951410233974457 0.155008867383003
vertex -5.38497686386108 -0.0511448979377747 -0.00269260979257524
endloop
endfacet
facet normal -0.00949727278202772 0.999954879283905 1.44228535093726e-16
outer loop
vertex -16.0348339080811 -0.152294039726257 -0.00801777839660645
vertex -16.0348339080811 -0.152294039726257 0.158017784357071
vertex -10.0172691345215 -0.0951410233974457 -0.00500886049121618
endloop
endfacet
facet normal -0.00949727278202772 0.99995493888855 -9.86190269623035e-17
outer loop
vertex -10.0172691345215 -0.0951410233974457 0.155008867383003
vertex -10.0172691345215 -0.0951410233974457 -0.00500886049121618
vertex -16.0348339080811 -0.152294039726257 0.158017784357071
endloop
endfacet
facet normal -0.00949727185070515 0.99995493888855 1.44228535093726e-16
outer loop
vertex -16.0348339080811 -0.152294039726257 -0.00801777839660645
vertex -22.0534210205078 -0.20945680141449 -0.0110272085294127
vertex -16.0348339080811 -0.152294039726257 0.158017784357071
endloop
endfacet
facet normal -0.00949727185070515 0.999954879283905 6.95915387321437e-17
outer loop
vertex -22.0534210205078 -0.20945680141449 0.161027207970619
vertex -16.0348339080811 -0.152294039726257 0.158017784357071
vertex -22.0534210205078 -0.20945680141449 -0.0110272085294127
endloop
endfacet
facet normal -0.00949727278202772 0.99995493888855 -1.22239348024768e-16
outer loop
vertex -28.0720100402832 -0.266619563102722 -0.014036638662219
vertex -28.0720100402832 -0.266619563102722 0.164036631584167
vertex -22.0534210205078 -0.20945680141449 -0.0110272085294127
endloop
endfacet
facet normal -0.00949727185070515 0.999954879283905 6.95915387321437e-17
outer loop
vertex -22.0534210205078 -0.20945680141449 0.161027207970619
vertex -22.0534210205078 -0.20945680141449 -0.0110272085294127
vertex -28.0720100402832 -0.266619563102722 0.164036631584167
endloop
endfacet
facet normal -0.00949727278202772 0.999954879283905 6.70548391677506e-16
outer loop
vertex -33.4167594909668 -0.317382365465164 -0.0167091339826584
vertex -33.4167594909668 -0.317382365465164 0.166709139943123
vertex -28.0720100402832 -0.266619563102722 -0.014036638662219
endloop
endfacet
facet normal -0.00949727278202772 0.99995493888855 -1.22239321554988e-16
outer loop
vertex -28.0720100402832 -0.266619563102722 0.164036631584167
vertex -28.0720100402832 -0.266619563102722 -0.014036638662219
vertex -33.4167594909668 -0.317382365465164 0.166709139943123
endloop
endfacet
facet normal -0.00949727185070515 0.999954879283905 6.70548391677506e-16
outer loop
vertex -33.4167594909668 -0.317382365465164 -0.0167091339826584
vertex -36.7454605102539 -0.348997414112091 -0.0183735601603985
vertex -33.4167594909668 -0.317382365465164 0.166709139943123
endloop
endfacet
facet normal -0.00949727185070515 0.99995481967926 1.69007067832442e-16
outer loop
vertex -36.7454605102539 -0.348997414112091 0.168373554944992
vertex -33.4167594909668 -0.317382365465164 0.166709139943123
vertex -36.7454605102539 -0.348997414112091 -0.0183735601603985
endloop
endfacet
facet normal -0.00949727185070515 0.999954879283905 -6.34290961081828e-17
outer loop
vertex -38.7685813903809 -0.368212401866913 0.16938516497612
vertex -36.7454605102539 -0.348997414112091 0.168373554944992
vertex -38.7685813903809 -0.368212401866913 -0.0193851664662361
endloop
endfacet
facet normal -0.00949727185070515 0.999954879283905 1.69007067832442e-16
outer loop
vertex -36.7454605102539 -0.348997414112091 -0.0183735601603985
vertex -38.7685813903809 -0.368212401866913 -0.0193851664662361
vertex -36.7454605102539 -0.348997414112091 0.168373554944992
endloop
endfacet
facet normal -0.00949727185070515 0.999954879283905 -6.34290961081828e-17
outer loop
vertex -38.7685813903809 -0.368212401866913 0.16938516497612
vertex -38.7685813903809 -0.368212401866913 -0.0193851664662361
vertex -39.9981956481934 -0.379890888929367 0.170000001788139
endloop
endfacet
facet normal -0.00949727278202772 0.999954879283905 0
outer loop
vertex -39.9981956481934 -0.379890888929367 -0.0199999995529652
vertex -39.9981956481934 -0.379890888929367 0.170000001788139
vertex -38.7685813903809 -0.368212401866913 -0.0193851664662361
endloop
endfacet
facet normal 0.000463378586573526 0.00385779398493469 0.999992430210114
outer loop
vertex -35.785774230957 -4.56082439422607 0.184177339076996
vertex -35.7659187316895 -4.54081344604492 0.184090942144394
vertex -39.9981956481934 -0.379890888929367 0.170000001788139
endloop
endfacet
facet normal 0.000463378586573526 0.00385779398493469 0.999992430210114
outer loop
vertex -31.5733547210693 -8.7417573928833 0.198354676365852
vertex -31.5336399078369 -8.701735496521 0.198181882500648
vertex -35.785774230957 -4.56082439422607 0.184177339076996
endloop
endfacet
facet normal 0.000463378586573526 0.00385779398493469 0.999992430210114
outer loop
vertex -35.7659187316895 -4.54081344604492 0.184090942144394
vertex -35.785774230957 -4.56082439422607 0.184177339076996
vertex -31.5336399078369 -8.701735496521 0.198181882500648
endloop
endfacet
facet normal 0.000463378586573526 0.00385779398493469 0.999992430210114
outer loop
vertex -31.5733547210693 -8.7417573928833 0.198354676365852
vertex -27.360933303833 -12.9226913452148 0.21253202855587
vertex -31.5336399078369 -8.701735496521 0.198181882500648
endloop
endfacet
facet normal 0.000463378586573526 0.00385779398493469 0.999992370605469
outer loop
vertex -27.3013610839844 -12.8626585006714 0.212272822856903
vertex -31.5336399078369 -8.701735496521 0.198181882500648
vertex -27.360933303833 -12.9226913452148 0.21253202855587
endloop
endfacet
facet normal 0.000463378586573526 0.00385779398493469 0.999992430210114
outer loop
vertex -23.1485137939453 -17.1036243438721 0.226709365844727
vertex -23.0690841674805 -17.0235805511475 0.226363763213158
vertex -27.360933303833 -12.9226913452148 0.21253202855587
endloop
endfacet
facet normal 0.000463378586573526 0.00385779398493469 0.999992370605469
outer loop
vertex -27.3013610839844 -12.8626585006714 0.212272822856903
vertex -27.360933303833 -12.9226913452148 0.21253202855587
vertex -23.0690841674805 -17.0235805511475 0.226363763213158
endloop
endfacet
facet normal 0.000463378586573526 0.00385779398493469 0.999992430210114
outer loop
vertex -23.1485137939453 -17.1036243438721 0.226709365844727
vertex -18.936092376709 -21.2845573425293 0.240886703133583
vertex -23.0690841674805 -17.0235805511475 0.226363763213158
endloop
endfacet
facet normal 0.000463378615677357 0.00385779398493469 0.999992430210114
outer loop
vertex -18.8368053436279 -21.1845035552979 0.240454703569412
vertex -23.0690841674805 -17.0235805511475 0.226363763213158
vertex -18.936092376709 -21.2845573425293 0.240886703133583
endloop
endfacet
facet normal 0.000463378615677357 0.00385779421776533 0.999992489814758
outer loop
vertex -14.8876876831055 -25.3027000427246 0.254512041807175
vertex -14.7693042755127 -25.1834278106689 0.253997027873993
vertex -18.936092376709 -21.2845573425293 0.240886703133583
endloop
endfacet
facet normal 0.000463378586573526 0.00385779398493469 0.999992430210114
outer loop
vertex -18.8368053436279 -21.1845035552979 0.240454703569412
vertex -18.936092376709 -21.2845573425293 0.240886703133583
vertex -14.7693042755127 -25.1834278106689 0.253997027873993
endloop
endfacet
facet normal 0.000463378615677357 0.00385779445059597 0.999992489814758
outer loop
vertex -14.8876876831055 -25.3027000427246 0.254512041807175
vertex -12.6344718933105 -27.5390739440918 0.262095481157303
vertex -14.7693042755127 -25.1834278106689 0.253997027873993
endloop
endfacet
facet normal 0.000463378644781187 0.00385779468342662 0.999992489814758
outer loop
vertex -12.5054578781128 -27.4091053009033 0.26153427362442
vertex -14.7693042755127 -25.1834278106689 0.253997027873993
vertex -12.6344718933105 -27.5390739440918 0.262095481157303
endloop
endfacet
facet normal 0.000463378586573526 0.00385779421776533 0.999992489814758
outer loop
vertex -12.6344718933105 -27.5390739440918 0.262095481157303
vertex -11.6080980300903 -28.5577754974365 0.265549838542938
vertex -12.5054578781128 -27.4091053009033 0.26153427362442
endloop
endfacet
facet normal 0.000463378615677357 0.00385779398493469 0.999992430210114
outer loop
vertex -11.4742527008057 -28.422924041748 0.26496759057045
vertex -12.5054578781128 -27.4091053009033 0.26153427362442
vertex -11.6080980300903 -28.5577754974365 0.265549838542938
endloop
endfacet
facet normal -0.707111954689026 0.00343568972311914 0.707093179225922
outer loop
vertex -4.19668197631836 -0.0116678196936846 -4.19673681259155
vertex -4.19670915603638 -0.039859090000391 -4.19662714004517
vertex 0 0 0
endloop
endfacet
facet normal -0.707111954689026 0.00343568972311914 0.707093179225922
outer loop
vertex -8.39336395263672 -0.0233356393873692 -8.39347362518311
vertex -8.39341831207275 -0.079718180000782 -8.39325428009033
vertex -4.19668197631836 -0.0116678196936846 -4.19673681259155
endloop
endfacet
facet normal -0.707111954689026 0.00343568972311914 0.707093179225922
outer loop
vertex -4.19670915603638 -0.039859090000391 -4.19662714004517
vertex -4.19668197631836 -0.0116678196936846 -4.19673681259155
vertex -8.39341831207275 -0.079718180000782 -8.39325428009033
endloop
endfacet
facet normal -0.707111954689026 0.00343568972311914 0.707093179225922
outer loop
vertex -8.39336395263672 -0.0233356393873692 -8.39347362518311
vertex -12.5900468826294 -0.0350034572184086 -12.5902109146118
vertex -8.39341831207275 -0.079718180000782 -8.39325428009033
endloop
endfacet
facet normal -0.707112014293671 0.00343568972311914 0.707093238830566
outer loop
vertex -12.5901279449463 -0.119577273726463 -12.5898809432983
vertex -8.39341831207275 -0.079718180000782 -8.39325428009033
vertex -12.5900468826294 -0.0350034572184086 -12.5902109146118
endloop
endfacet
facet normal -0.707111954689026 0.00343568972311914 0.707093179225922
outer loop
vertex -16.7867279052734 -0.0466712787747383 -16.7869472503662
vertex -16.7868366241455 -0.159436360001564 -16.7865085601807
vertex -12.5900468826294 -0.0350034572184086 -12.5902109146118
endloop
endfacet
facet normal -0.707112014293671 0.00343568972311914 0.707093238830566
outer loop
vertex -12.5901279449463 -0.119577273726463 -12.5898809432983
vertex -12.5900468826294 -0.0350034572184086 -12.5902109146118
vertex -16.7868366241455 -0.159436360001564 -16.7865085601807
endloop
endfacet
facet normal -0.707111954689026 0.00343568972311914 0.707093179225922
outer loop
vertex -16.7867279052734 -0.0466712787747383 -16.7869472503662
vertex -20.9834117889404 -0.0583390966057777 -20.9836845397949
vertex -16.7868366241455 -0.159436360001564 -16.7865085601807
endloop
endfacet
facet normal -0.707112014293671 0.00343568995594978 0.707093238830566
outer loop
vertex -20.9835472106934 -0.199295446276665 -20.9831352233887
vertex -16.7868366241455 -0.159436360001564 -16.7865085601807
vertex -20.9834117889404 -0.0583390966057777 -20.9836845397949
endloop
endfacet
facet normal -0.707111954689026 0.00343568972311914 0.707093238830566
outer loop
vertex -25.0166912078857 -0.0695526227355003 -25.017017364502
vertex -25.0168647766113 -0.237602695822716 -25.0163745880127
vertex -20.9834117889404 -0.0583390966057777 -20.9836845397949
endloop
endfacet
facet normal -0.707112014293671 0.00343568972311914 0.707093238830566
outer loop
vertex -20.9835472106934 -0.199295446276665 -20.9831352233887
vertex -20.9834117889404 -0.0583390966057777 -20.9836845397949
vertex -25.0168647766113 -0.237602695822716 -25.0163745880127
endloop
endfacet
facet normal -0.707112014293671 0.00343568995594978 0.707093238830566
outer loop
vertex -25.0166912078857 -0.0695526227355003 -25.017017364502
vertex -27.2614917755127 -0.0757937207818031 -27.2618465423584
vertex -25.0168647766113 -0.237602695822716 -25.0163745880127
endloop
endfacet
facet normal -0.707112014293671 0.00343569018878043 0.707093238830566
outer loop
vertex -27.2616882324219 -0.258923351764679 -27.2611541748047
vertex -25.0168647766113 -0.237602695822716 -25.0163745880127
vertex -27.2614917755127 -0.0757937207818031 -27.2618465423584
endloop
endfacet
facet normal -0.707112014293671 0.00343568995594978 0.707093238830566
outer loop
vertex -27.2614917755127 -0.0757937207818031 -27.2618465423584
vertex -28.2840328216553 -0.0786366388201714 -28.2844009399414
vertex -27.2616882324219 -0.258923351764679 -27.2611541748047
endloop
endfacet
facet normal -0.707112014293671 0.00343568972311914 0.707093238830566
outer loop
vertex -28.2842292785645 -0.268635153770447 -28.2836742401123
vertex -27.2616882324219 -0.258923351764679 -27.2611541748047
vertex -28.2840328216553 -0.0786366388201714 -28.2844009399414
endloop
endfacet
facet normal 0.707097113132477 0.00467304280027747 -0.707100927829742
outer loop
vertex -0.149132058024406 -0.000414624199038371 -0.149133995175362
vertex 0 0 0
vertex -0.148943647742271 -0.0312576703727245 -0.149149417877197
endloop
endfacet
facet normal 0.707097172737122 0.00467304280027747 -0.707100927829742
outer loop
vertex 0.00018325938435737 -0.0299994368106127 -1.49999332279549e-05
vertex -0.148943647742271 -0.0312576703727245 -0.149149417877197
vertex 0 0 0
endloop
endfacet
facet normal 0.707097113132477 0.00467304280027747 -0.707100927829742
outer loop
vertex -0.402004182338715 -0.00111767160706222 -0.402009427547455
vertex -0.149132058024406 -0.000414624199038371 -0.149133995175362
vertex -0.40180703997612 -0.0333911590278149 -0.402025550603867
endloop
endfacet
facet normal 0.707097172737122 0.00467304326593876 -0.707100927829742
outer loop
vertex -0.148943647742271 -0.0312576703727245 -0.149149417877197
vertex -0.40180703997612 -0.0333911590278149 -0.402025550603867
vertex -0.149132058024406 -0.000414624199038371 -0.149133995175362
endloop
endfacet
facet normal 0.707097172737122 0.00467304326593876 -0.707100927829742
outer loop
vertex -0.402004182338715 -0.00111767160706222 -0.402009427547455
vertex -0.40180703997612 -0.0333911590278149 -0.402025550603867
vertex -0.830780625343323 -0.0023097766097635 -0.830791473388672
endloop
endfacet
facet normal 0.707097172737122 0.00467304280027747 -0.707100927829742
outer loop
vertex -0.830568671226501 -0.0370087586343288 -0.830808818340302
vertex -0.830780625343323 -0.0023097766097635 -0.830791473388672
vertex -0.40180703997612 -0.0333911590278149 -0.402025550603867
endloop
endfacet
facet normal 0.707097172737122 0.00467304280027747 -0.707100927829742
outer loop
vertex -1.55782496929169 -0.0043311407789588 -1.55784523487091
vertex -0.830780625343323 -0.0023097766097635 -0.830791473388672
vertex -1.55758786201477 -0.0431428588926792 -1.55786466598511
endloop
endfacet
facet normal 0.707097113132477 0.00467304280027747 -0.707100927829742
outer loop
vertex -0.830568671226501 -0.0370087586343288 -0.830808818340302
vertex -1.55758786201477 -0.0431428588926792 -1.55786466598511
vertex -0.830780625343323 -0.0023097766097635 -0.830791473388672
endloop
endfacet
facet normal 0.707097113132477 0.00467304233461618 -0.707100927829742
outer loop
vertex -2.79061985015869 -0.00775861693546176 -2.79065632820129
vertex -1.55782496929169 -0.0043311407789588 -1.55784523487091
vertex -2.79034018516541 -0.0535439886152744 -2.79067921638489
endloop
endfacet
facet normal 0.707097172737122 0.00467304326593876 -0.707100927829742
outer loop
vertex -1.55758786201477 -0.0431428588926792 -1.55786466598511
vertex -2.79034018516541 -0.0535439886152744 -2.79067921638489
vertex -1.55782496929169 -0.0043311407789588 -1.55784523487091
endloop
endfacet
facet normal 0.707097172737122 0.00467304280027747 -0.707100927829742
outer loop
vertex -2.79061985015869 -0.00775861693546176 -2.79065632820129
vertex -2.79034018516541 -0.0535439886152744 -2.79067921638489
vertex -4.88097858428955 -0.0135703338310122 -4.88104200363159
endloop
endfacet
facet normal 0.707097172737122 0.00467304280027747 -0.707100927829742
outer loop
vertex -4.8806266784668 -0.0711804106831551 -4.88107109069824
vertex -4.88097858428955 -0.0135703338310122 -4.88104200363159
vertex -2.79034018516541 -0.0535439886152744 -2.79067921638489
endloop
endfacet
facet normal 0.707097172737122 0.00467304326593876 -0.707100927829742
outer loop
vertex -8.37788867950439 -0.0232926122844219 -8.37799739837646
vertex -4.88097858428955 -0.0135703338310122 -4.88104200363159
vertex -8.37741565704346 -0.100683957338333 -8.37803649902344
endloop
endfacet
facet normal 0.707097113132477 0.00467304280027747 -0.707100927829742
outer loop
vertex -4.8806266784668 -0.0711804106831551 -4.88107109069824
vertex -8.37741565704346 -0.100683957338333 -8.37803649902344
vertex -4.88097858428955 -0.0135703338310122 -4.88104200363159
endloop
endfacet
facet normal 0.707097172737122 0.00467304326593876 -0.707100987434387
outer loop
vertex -8.37788867950439 -0.0232926122844219 -8.37799739837646
vertex -8.37741565704346 -0.100683957338333 -8.37803649902344
vertex -12.4488286972046 -0.0346108376979828 -12.4489908218384
endloop
endfacet
facet normal 0.707097232341766 0.00467304326593876 -0.707100987434387
outer loop
vertex -12.4482154846191 -0.13503061234951 -12.4490413665771
vertex -12.4488286972046 -0.0346108376979828 -12.4489908218384
vertex -8.37741565704346 -0.100683957338333 -8.37803649902344
endloop
endfacet
facet normal 0.707097172737122 0.00467304326593876 -0.707100927829742
outer loop
vertex -16.5190143585205 -0.169377282261848 -16.5200462341309
vertex -16.5197696685791 -0.045929066836834 -16.5199851989746
vertex -12.4482154846191 -0.13503061234951 -12.4490413665771
endloop
endfacet
facet normal 0.707097232341766 0.00467304326593876 -0.707100987434387
outer loop
vertex -12.4488286972046 -0.0346108376979828 -12.4489908218384
vertex -12.4482154846191 -0.13503061234951 -12.4490413665771
vertex -16.5197696685791 -0.045929066836834 -16.5199851989746
endloop
endfacet
facet normal 0.707097172737122 0.00467304326593876 -0.707100927829742
outer loop
vertex -16.5190143585205 -0.169377282261848 -16.5200462341309
vertex -20.5898151397705 -0.203723937273026 -20.5910511016846
vertex -16.5197696685791 -0.045929066836834 -16.5199851989746
endloop
endfacet
facet normal 0.707097172737122 0.00467304326593876 -0.707100927829742
outer loop
vertex -20.5907096862793 -0.0572472922503948 -20.5909786224365
vertex -16.5197696685791 -0.045929066836834 -16.5199851989746
vertex -20.5898151397705 -0.203723937273026 -20.5910511016846
endloop
endfacet
facet normal 0.707097172737122 0.00467304280027747 -0.707100927829742
outer loop
vertex -20.5898151397705 -0.203723937273026 -20.5910511016846
vertex -23.9473991394043 -0.232052966952324 -23.9488048553467
vertex -20.5907096862793 -0.0572472922503948 -20.5909786224365
endloop
endfacet
facet normal 0.707097172737122 0.00467304326593876 -0.707100987434387
outer loop
vertex -23.9484100341797 -0.0665825307369232 -23.9487228393555
vertex -20.5907096862793 -0.0572472922503948 -20.5909786224365
vertex -23.9473991394043 -0.232052966952324 -23.9488048553467
endloop
endfacet
facet normal 0.707097232341766 0.00467304373160005 -0.707100987434387
outer loop
vertex -26.0767078399658 -0.250018626451492 -26.0782203674316
vertex -26.0777931213379 -0.0725027471780777 -26.0781326293945
vertex -23.9473991394043 -0.232052966952324 -23.9488048553467
endloop
endfacet
facet normal 0.707097172737122 0.00467304326593876 -0.707100987434387
outer loop
vertex -23.9484100341797 -0.0665825307369232 -23.9487228393555
vertex -23.9473991394043 -0.232052966952324 -23.9488048553467
vertex -26.0777931213379 -0.0725027471780777 -26.0781326293945
endloop
endfacet
facet normal 0.707097172737122 0.00467304326593876 -0.707100927829742
outer loop
vertex -26.0767078399658 -0.250018626451492 -26.0782203674316
vertex -27.4268436431885 -0.261410176753998 -27.4284248352051
vertex -26.0777931213379 -0.0725027471780777 -26.0781326293945
endloop
endfacet
facet normal 0.707097172737122 0.00467304280027747 -0.707100927829742
outer loop
vertex -27.4279747009277 -0.076256588101387 -27.4283332824707
vertex -26.0777931213379 -0.0725027471780777 -26.0781326293945
vertex -27.4268436431885 -0.261410176753998 -27.4284248352051
endloop
endfacet
facet normal 0.707097172737122 0.00467304280027747 -0.707100927829742
outer loop
vertex -27.4268436431885 -0.261410176753998 -27.4284248352051
vertex -28.2829284667969 -0.268633216619492 -28.2845516204834
vertex -27.4279747009277 -0.076256588101387 -27.4283332824707
endloop
endfacet
facet normal 0.707097172737122 0.00467304326593876 -0.707100927829742
outer loop
vertex -28.2840881347656 -0.0786367952823639 -28.2844581604004
vertex -27.4279747009277 -0.076256588101387 -27.4283332824707
vertex -28.2829284667969 -0.268633216619492 -28.2845516204834
endloop
endfacet
facet normal -0.325661569833755 -0.94548636674881 2.17811134254654e-13
outer loop
vertex -4.85480356216431 -44.7526245117188 0.0595781877636909
vertex -4.85480356216431 -44.7526245117188 0.0904218107461929
vertex -5.05421209335327 -44.6839408874512 0.0599999986588955
endloop
endfacet
facet normal -0.325661599636078 -0.945486426353455 -0
outer loop
vertex -5.05421209335327 -44.6839408874512 0.0900000035762787
vertex -5.05421209335327 -44.6839408874512 0.0599999986588955
vertex -4.85480356216431 -44.7526245117188 0.0904218107461929
endloop
endfacet
facet normal -0.325661540031433 -0.945486426353455 -5.37729549201973e-14
outer loop
vertex -4.51668119430542 -44.8690872192383 0.0588629543781281
vertex -4.51668119430542 -44.8690872192383 0.0911370441317558
vertex -4.85480356216431 -44.7526245117188 0.0595781877636909
endloop
endfacet
facet normal -0.325661569833755 -0.94548636674881 2.17811147807181e-13
outer loop
vertex -4.85480356216431 -44.7526245117188 0.0904218107461929
vertex -4.85480356216431 -44.7526245117188 0.0595781877636909
vertex -4.51668119430542 -44.8690872192383 0.0911370441317558
endloop
endfacet
facet normal -0.325661569833755 -0.945486426353455 -5.37729549201973e-14
outer loop
vertex -4.51668119430542 -44.8690872192383 0.0588629543781281
vertex -3.94335198402405 -45.0665664672852 0.0576501823961735
vertex -4.51668119430542 -44.8690872192383 0.0911370441317558
endloop
endfacet
facet normal -0.325661569833755 -0.94548636674881 -4.33059865094856e-13
outer loop
vertex -3.94335198402405 -45.0665664672852 0.0923498198390007
vertex -4.51668119430542 -44.8690872192383 0.0911370441317558
vertex -3.94335198402405 -45.0665664672852 0.0576501823961735
endloop
endfacet
facet normal -0.325661569833755 -0.945486426353455 1.17198053562265e-13
outer loop
vertex -2.97120046615601 -45.4014091491699 0.0555937774479389
vertex -2.97120046615601 -45.4014091491699 0.0944062247872353
vertex -3.94335198402405 -45.0665664672852 0.0576501823961735
endloop
endfacet
facet normal -0.325661569833755 -0.945486426353455 -4.33059919304965e-13
outer loop
vertex -3.94335198402405 -45.0665664672852 0.0923498198390007
vertex -3.94335198402405 -45.0665664672852 0.0576501823961735
vertex -2.97120046615601 -45.4014091491699 0.0944062247872353
endloop
endfacet
facet normal -0.325661569833755 -0.945486426353455 -1.16870136615196e-13
outer loop
vertex -1.32279539108276 -45.9691848754883 0.0521068833768368
vertex -1.32279539108276 -45.9691848754883 0.0978931188583374
vertex -2.97120046615601 -45.4014091491699 0.0555937774479389
endloop
endfacet
facet normal -0.325661569833755 -0.94548636674881 1.17198053562265e-13
outer loop
vertex -2.97120046615601 -45.4014091491699 0.0944062247872353
vertex -2.97120046615601 -45.4014091491699 0.0555937774479389
vertex -1.32279539108276 -45.9691848754883 0.0978931188583374
endloop
endfacet
facet normal -0.325661599636078 -0.945486426353455 -1.16870136615196e-13
outer loop
vertex -1.32279539108276 -45.9691848754883 0.0521068833768368
vertex 1.47228240966797 -46.9319152832031 0.0461944192647934
vertex -1.32279539108276 -45.9691848754883 0.0978931188583374
endloop
endfacet
facet normal -0.325661569833755 -0.945486426353455 2.01723227423282e-13
outer loop
vertex 1.47228240966797 -46.9319152832031 0.10380557924509
vertex -1.32279539108276 -45.9691848754883 0.0978931188583374
vertex 1.47228240966797 -46.9319152832031 0.0461944192647934
endloop
endfacet
facet normal -0.325661569833755 -0.94548636674881 3.5327365761461e-14
outer loop
vertex 6.14809942245483 -48.5424461364746 0.0363036021590233
vertex 6.14809942245483 -48.5424461364746 0.113696396350861
vertex 1.47228240966797 -46.9319152832031 0.0461944192647934
endloop
endfacet
facet normal -0.325661569833755 -0.945486426353455 2.0172324097581e-13
outer loop
vertex 1.47228240966797 -46.9319152832031 0.10380557924509
vertex 1.47228240966797 -46.9319152832031 0.0461944192647934
vertex 6.14809942245483 -48.5424461364746 0.113696396350861
endloop
endfacet
facet normal -0.325661599636078 -0.945486426353455 3.5327365761461e-14
outer loop
vertex 6.14809942245483 -48.5424461364746 0.0363036021590233
vertex 11.5914688110352 -50.417350769043 0.0247891675680876
vertex 6.14809942245483 -48.5424461364746 0.113696396350861
endloop
endfacet
facet normal -0.325661599636078 -0.945486426353455 5.3148833939606e-14
outer loop
vertex 11.5914688110352 -50.417350769043 0.125210836529732
vertex 6.14809942245483 -48.5424461364746 0.113696396350861
vertex 11.5914688110352 -50.417350769043 0.0247891675680876
endloop
endfacet
facet normal -0.325661569833755 -0.945486426353455 7.55908803975504e-15
outer loop
vertex 17.034839630127 -52.2922515869141 0.136725261807442
vertex 11.5914688110352 -50.417350769043 0.125210836529732
vertex 17.034839630127 -52.2922515869141 0.013274734839797
endloop
endfacet
facet normal -0.325661599636078 -0.945486426353455 5.3148833939606e-14
outer loop
vertex 11.5914688110352 -50.417350769043 0.0247891675680876
vertex 17.034839630127 -52.2922515869141 0.013274734839797
vertex 11.5914688110352 -50.417350769043 0.125210836529732
endloop
endfacet
facet normal -0.325661569833755 -0.945486426353455 7.55908803975504e-15
outer loop
vertex 17.034839630127 -52.2922515869141 0.136725261807442
vertex 17.034839630127 -52.2922515869141 0.013274734839797
vertex 22.4782085418701 -54.1671562194824 0.148239701986313
endloop
endfacet
facet normal -0.325661540031433 -0.945486426353455 6.37068048596652e-15
outer loop
vertex 22.4782085418701 -54.1671562194824 0.00176030246075243
vertex 22.4782085418701 -54.1671562194824 0.148239701986313
vertex 17.034839630127 -52.2922515869141 0.013274734839797
endloop
endfacet
facet normal -0.325661540031433 -0.945486426353455 6.37068048596652e-15
outer loop
vertex 22.4782085418701 -54.1671562194824 0.148239701986313
vertex 22.4782085418701 -54.1671562194824 0.00176030246075243
vertex 26.9678859710693 -55.7135734558105 0.157736763358116
endloop
endfacet
facet normal -0.325661540031433 -0.94548636674881 -4.0599149747373e-14
outer loop
vertex 26.9678859710693 -55.7135734558105 -0.00773676997050643
vertex 26.9678859710693 -55.7135734558105 0.157736763358116
vertex 22.4782085418701 -54.1671562194824 0.00176030246075243
endloop
endfacet
facet normal -0.325661569833755 -0.945486426353455 -4.43617717430303e-14
outer loop
vertex 29.8151416778564 -56.694278717041 0.163759604096413
vertex 26.9678859710693 -55.7135734558105 0.157736763358116
vertex 29.8151416778564 -56.694278717041 -0.0137596102431417
endloop
endfacet
facet normal -0.325661540031433 -0.94548636674881 -4.05991463592412e-14
outer loop
vertex 26.9678859710693 -55.7135734558105 -0.00773676997050643
vertex 29.8151416778564 -56.694278717041 -0.0137596102431417
vertex 26.9678859710693 -55.7135734558105 0.157736763358116
endloop
endfacet
facet normal -0.325661569833755 -0.94548636674881 -4.43617717430303e-14
outer loop
vertex 29.8151416778564 -56.694278717041 0.163759604096413
vertex 29.8151416778564 -56.694278717041 -0.0137596102431417
vertex 31.6205101013184 -57.3161163330078 0.167578533291817
endloop
endfacet
facet normal -0.325661569833755 -0.94548636674881 6.00690287441696e-14
outer loop
vertex 31.6205101013184 -57.3161163330078 -0.0175785291939974
vertex 31.6205101013184 -57.3161163330078 0.167578533291817
vertex 29.8151416778564 -56.694278717041 -0.0137596102431417
endloop
endfacet
facet normal -0.325661569833755 -0.945486426353455 6.00690355204332e-14
outer loop
vertex 31.6205101013184 -57.3161163330078 0.167578533291817
vertex 31.6205101013184 -57.3161163330078 -0.0175785291939974
vertex 32.7652435302734 -57.7104034423828 0.170000001788139
endloop
endfacet
facet normal -0.325661599636078 -0.945486426353455 0
outer loop
vertex 32.7652435302734 -57.7104034423828 -0.0199999995529652
vertex 32.7652435302734 -57.7104034423828 0.170000001788139
vertex 31.6205101013184 -57.3161163330078 -0.0175785291939974
endloop
endfacet
facet normal 0.0050732484087348 -0.00172555050812662 0.999985635280609
outer loop
vertex 31.644287109375 -57.186580657959 -0.147757530212402
vertex 32.8082427978516 -57.583122253418 -0.15434692800045
vertex 31.7050724029541 -57.0078659057617 -0.147757530212402
endloop
endfacet
facet normal 0.00507324887439609 -0.00172555050812662 0.999985635280609
outer loop
vertex 32.8694267272949 -57.4032440185547 -0.15434692800045
vertex 31.7050724029541 -57.0078659057617 -0.147757530212402
vertex 32.8082427978516 -57.583122253418 -0.15434692800045
endloop
endfacet
facet normal 0.00507324887439609 -0.00172555039171129 0.999985635280609
outer loop
vertex 31.644287109375 -57.186580657959 -0.147757530212402
vertex 31.7050724029541 -57.0078659057617 -0.147757530212402
vertex 29.7291927337646 -56.5341339111328 -0.136915802955627
endloop
endfacet
facet normal 0.00507324887439609 -0.00172555050812662 0.999985635280609
outer loop
vertex 29.78932762146 -56.3573341369629 -0.136915802955627
vertex 29.7291927337646 -56.5341339111328 -0.136915802955627
vertex 31.7050724029541 -57.0078659057617 -0.147757530212402
endloop
endfacet
facet normal 0.0050732484087348 -0.00172555027529597 0.999985635280609
outer loop
vertex 29.7291927337646 -56.5341339111328 -0.136915802955627
vertex 29.78932762146 -56.3573341369629 -0.136915802955627
vertex 26.5782279968262 -55.4606475830078 -0.119077563285828
endloop
endfacet
facet normal 0.0050732484087348 -0.00172555039171129 0.999985635280609
outer loop
vertex 26.6372909545898 -55.2869987487793 -0.119077563285828
vertex 26.5782279968262 -55.4606475830078 -0.119077563285828
vertex 29.78932762146 -56.3573341369629 -0.136915802955627
endloop
endfacet
facet normal 0.00507324887439609 -0.00172555050812662 0.999985635280609
outer loop
vertex 26.5782279968262 -55.4606475830078 -0.119077563285828
vertex 26.6372909545898 -55.2869987487793 -0.119077563285828
vertex 21.5188674926758 -53.7369995117188 -0.0904355123639107
endloop
endfacet
facet normal 0.00507324887439609 -0.00172555050812662 0.999985635280609
outer loop
vertex 21.5762100219727 -53.5684089660645 -0.0904355123639107
vertex 21.5188674926758 -53.7369995117188 -0.0904355123639107
vertex 26.6372909545898 -55.2869987487793 -0.119077563285828
endloop
endfacet
facet normal 0.00507324887439609 -0.00172555039171129 0.999985635280609
outer loop
vertex 21.5188674926758 -53.7369995117188 -0.0904355123639107
vertex 21.5762100219727 -53.5684089660645 -0.0904355123639107
vertex 15.821647644043 -51.7960395812988 -0.0581824071705341
endloop
endfacet
facet normal 0.0050732484087348 -0.00172555027529597 0.999985635280609
outer loop
vertex 15.8770503997803 -51.6331481933594 -0.0581824071705341
vertex 15.821647644043 -51.7960395812988 -0.0581824071705341
vertex 21.5762100219727 -53.5684089660645 -0.0904355123639107
endloop
endfacet
facet normal 0.0050732484087348 -0.00172555027529597 0.999985635280609
outer loop
vertex 15.8770503997803 -51.6331481933594 -0.0581824071705341
vertex 10.1778917312622 -49.6978874206543 -0.0259293038398027
vertex 15.821647644043 -51.7960395812988 -0.0581824071705341
endloop
endfacet
facet normal 0.00507324887439609 -0.00172555039171129 0.999985635280609
outer loop
vertex 10.1244268417358 -49.8550796508789 -0.0259293038398027
vertex 15.821647644043 -51.7960395812988 -0.0581824071705341
vertex 10.1778917312622 -49.6978874206543 -0.0259293038398027
endloop
endfacet
facet normal 0.00507324887439609 -0.00172555050812662 0.999985635280609
outer loop
vertex 4.4281759262085 -47.9144515991211 0.00631830794736743
vertex 10.1244268417358 -49.8550796508789 -0.0259293038398027
vertex 4.47970342636108 -47.7629585266113 0.00631830794736743
endloop
endfacet
facet normal 0.00507324887439609 -0.00172555039171129 0.999985635280609
outer loop
vertex 10.1778917312622 -49.6978874206543 -0.0259293038398027
vertex 4.47970342636108 -47.7629585266113 0.00631830794736743
vertex 10.1244268417358 -49.8550796508789 -0.0259293038398027
endloop
endfacet
facet normal 0.00507324887439609 -0.00172555027529597 0.999985635280609
outer loop
vertex 4.4281759262085 -47.9144515991211 0.00631830794736743
vertex 4.47970342636108 -47.7629585266113 0.00631830794736743
vertex 0.043228879570961 -46.4205665588379 0.0311423689126968
endloop
endfacet
facet normal 0.00507324887439609 -0.00172555039171129 0.999985694885254
outer loop
vertex 0.0932645946741104 -46.2734565734863 0.0311423689126968
vertex 0.043228879570961 -46.4205665588379 0.0311423689126968
vertex 4.47970342636108 -47.7629585266113 0.00631830794736743
endloop
endfacet
facet normal 0.0050732484087348 -0.00172555050812662 0.999985635280609
outer loop
vertex 0.0932645946741104 -46.2734565734863 0.0311423689126968
vertex -2.52046251296997 -45.385913848877 0.0459341667592525
vertex 0.043228879570961 -46.4205665588379 0.0311423689126968
endloop
endfacet
facet normal 0.0050732484087348 -0.00172555039171129 0.999985635280609
outer loop
vertex -2.56960940361023 -45.5304107666016 0.0459341667592525
vertex 0.043228879570961 -46.4205665588379 0.0311423689126968
vertex -2.52046251296997 -45.385913848877 0.0459341667592525
endloop
endfacet
facet normal 0.00507324887439609 -0.00172555050812662 0.999985635280609
outer loop
vertex -2.56960940361023 -45.5304107666016 0.0459341667592525
vertex -2.52046251296997 -45.385913848877 0.0459341667592525
vertex -4.12650918960571 -44.9999961853027 0.0547480881214142
endloop
endfacet
facet normal 0.00507324887439609 -0.00172555050812662 0.999985635280609
outer loop
vertex -4.0778923034668 -44.8570594787598 0.0547480881214142
vertex -4.12650918960571 -44.9999961853027 0.0547480881214142
vertex -2.52046251296997 -45.385913848877 0.0459341667592525
endloop
endfacet
facet normal 0.0050732484087348 -0.00172555027529597 0.999985575675964
outer loop
vertex -4.12650918960571 -44.9999961853027 0.0547480881214142
vertex -4.0778923034668 -44.8570594787598 0.0547480881214142
vertex -5.05421209335327 -44.6839408874512 0.0599999986588955
endloop
endfacet
facet normal 0.00507324887439609 -0.00172555050812662 0.999985635280609
outer loop
vertex -5.00591087341309 -44.5419311523438 0.0599999986588955
vertex -5.05421209335327 -44.6839408874512 0.0599999986588955
vertex -4.0778923034668 -44.8570594787598 0.0547480881214142
endloop
endfacet
facet normal -0.231616094708443 -0.668103694915771 -0.707100689411163
outer loop
vertex 32.808666229248 -57.5832672119141 -0.154349863529205
vertex 32.7651672363281 -57.710376739502 -0.0199992451816797
vertex 31.4398384094238 -57.1169242858887 -0.146600633859634
endloop
endfacet
facet normal -0.231616124510765 -0.668103754520416 -0.707100749015808
outer loop
vertex 31.3979015350342 -57.2394409179688 -0.0171070694923401
vertex 31.4398384094238 -57.1169242858887 -0.146600633859634
vertex 32.7651672363281 -57.710376739502 -0.0199992451816797
endloop
endfacet
facet normal -0.231616124510765 -0.668103694915771 -0.707100749015808
outer loop
vertex 31.4398384094238 -57.1169242858887 -0.146600633859634
vertex 31.3979015350342 -57.2394409179688 -0.0171070694923401
vertex 28.43479347229 -56.0931510925293 -0.129588425159454
endloop
endfacet
facet normal -0.231616139411926 -0.668103754520416 -0.707100749015808
outer loop
vertex 28.3963203430176 -56.2055816650391 -0.0107578290626407
vertex 28.43479347229 -56.0931510925293 -0.129588425159454
vertex 31.3979015350342 -57.2394409179688 -0.0171070694923401
endloop
endfacet
facet normal -0.231616109609604 -0.668103694915771 -0.707100749015808
outer loop
vertex 28.3963203430176 -56.2055816650391 -0.0107578290626407
vertex 23.0033073425293 -54.3480224609375 0.000649997498840094
vertex 28.43479347229 -56.0931510925293 -0.129588425159454
endloop
endfacet
facet normal -0.231616124510765 -0.668103694915771 -0.707100749015808
outer loop
vertex 23.0355644226074 -54.2537155151367 -0.0990222319960594
vertex 28.43479347229 -56.0931510925293 -0.129588425159454
vertex 23.0033073425293 -54.3480224609375 0.000649997498840094
endloop
endfacet
facet normal -0.231616124510765 -0.668103694915771 -0.707100749015808
outer loop
vertex 23.0355644226074 -54.2537155151367 -0.0990222319960594
vertex 23.0033073425293 -54.3480224609375 0.000649997498840094
vertex 17.4176082611084 -52.3397598266602 -0.0672177821397781
endloop
endfacet
facet normal -0.231616094708443 -0.668103694915771 -0.707100689411163
outer loop
vertex 17.3918037414551 -52.4152069091797 0.0125199975445867
vertex 17.4176082611084 -52.3397598266602 -0.0672177821397781
vertex 23.0033073425293 -54.3480224609375 0.000649997498840094
endloop
endfacet
facet normal -0.231616094708443 -0.668103694915771 -0.707100689411163
outer loop
vertex 17.3918037414551 -52.4152069091797 0.0125199975445867
vertex 11.7802991867065 -50.4823913574219 0.0243899989873171
vertex 17.4176082611084 -52.3397598266602 -0.0672177821397781
endloop
endfacet
facet normal -0.231616109609604 -0.668103635311127 -0.707100689411163
outer loop
vertex 11.7996530532837 -50.4258041381836 -0.0354133397340775
vertex 17.4176082611084 -52.3397598266602 -0.0672177821397781
vertex 11.7802991867065 -50.4823913574219 0.0243899989873171
endloop
endfacet
facet normal -0.231616109609604 -0.668103635311127 -0.707100689411163
outer loop
vertex 11.7996530532837 -50.4258041381836 -0.0354133397340775
vertex 11.7802991867065 -50.4823913574219 0.0243899989873171
vertex 6.18169784545898 -48.5118522644043 -0.0036088926717639
endloop
endfacet
facet normal -0.231616094708443 -0.668103694915771 -0.707100689411163
outer loop
vertex 6.16879558563232 -48.5495719909668 0.0362599976360798
vertex 6.18169784545898 -48.5118522644043 -0.0036088926717639
vertex 11.7802991867065 -50.4823913574219 0.0243899989873171
endloop
endfacet
facet normal -0.231616094708443 -0.668103694915771 -0.707100689411163
outer loop
vertex 6.16879558563232 -48.5495719909668 0.0362599976360798
vertex 0.557291567325592 -46.616756439209 0.0481299981474876
vertex 6.18169784545898 -48.5118522644043 -0.0036088926717639
endloop
endfacet
facet normal -0.231616094708443 -0.668103694915771 -0.707100689411163
outer loop
vertex 0.563742876052856 -46.5978965759277 0.0281955543905497
vertex 6.18169784545898 -48.5118522644043 -0.0036088926717639
vertex 0.557291567325592 -46.616756439209 0.0481299981474876
endloop
endfacet
facet normal -0.231616094708443 -0.668103694915771 -0.707100689411163
outer loop
vertex 0.557291567325592 -46.616756439209 0.0481299981474876
vertex -5.05421209335327 -44.6839408874512 0.0599999986588955
vertex 0.563742876052856 -46.5978965759277 0.0281955543905497
endloop
endfacet
facet normal -0.946693301200867 0.32199627161026 0.00949727185070515
outer loop
vertex -5.00591087341309 -44.5419311523438 0.0900000035762787
vertex -5.05421209335327 -44.6839408874512 0.0900000035762787
vertex -4.99694061279297 -44.5444641113281 1.07003259658813
endloop
endfacet
facet normal -0.946693301200867 0.32199627161026 0.00949727278202772
outer loop
vertex -5.04555797576904 -44.6874046325684 1.07003259658813
vertex -4.99694061279297 -44.5444641113281 1.07003259658813
vertex -5.05421209335327 -44.6839408874512 0.0900000035762787
endloop
endfacet
facet normal -0.946693360805511 0.32199627161026 0.00949727278202772
outer loop
vertex -4.99694061279297 -44.5444641113281 1.07003259658813
vertex -5.04555797576904 -44.6874046325684 1.07003259658813
vertex -4.9818868637085 -44.5487174987793 2.71475386619568
endloop
endfacet
facet normal -0.946693360805511 0.321996241807938 0.00949727278202772
outer loop
vertex -5.03103351593018 -44.6932106018066 2.71475386619568
vertex -4.9818868637085 -44.5487174987793 2.71475386619568
vertex -5.04555797576904 -44.6874046325684 1.07003259658813
endloop
endfacet
facet normal -0.946693301200867 0.321996241807938 0.00949727278202772
outer loop
vertex -4.95662307739258 -44.555850982666 5.47497701644897
vertex -4.9818868637085 -44.5487174987793 2.71475386619568
vertex -5.00665855407715 -44.7029609680176 5.47497701644897
endloop
endfacet
facet normal -0.946693301200867 0.321996241807938 0.00949727278202772
outer loop
vertex -5.03103351593018 -44.6932106018066 2.71475386619568
vertex -5.00665855407715 -44.7029609680176 5.47497701644897
vertex -4.9818868637085 -44.5487174987793 2.71475386619568
endloop
endfacet
facet normal -0.946693360805511 0.32199627161026 0.00949727278202772
outer loop
vertex -4.95662307739258 -44.555850982666 5.47497701644897
vertex -5.00665855407715 -44.7029609680176 5.47497701644897
vertex -4.91422414779663 -44.5678253173828 10.1072692871094
endloop
endfacet
facet normal -0.946693301200867 0.321996241807938 0.00949727185070515
outer loop
vertex -4.96575164794922 -44.7193222045898 10.1072692871094
vertex -4.91422414779663 -44.5678253173828 10.1072692871094
vertex -5.00665855407715 -44.7029609680176 5.47497701644897
endloop
endfacet
facet normal -0.946693360805511 0.32199627161026 0.0094972737133503
outer loop
vertex -4.96575164794922 -44.7193222045898 10.1072692871094
vertex -4.91261196136475 -44.7405738830566 16.1248321533203
vertex -4.91422414779663 -44.5678253173828 10.1072692871094
endloop
endfacet
facet normal -0.946693301200867 0.321996241807938 0.00949727278202772
outer loop
vertex -4.85914659500122 -44.583381652832 16.1248321533203
vertex -4.91422414779663 -44.5678253173828 10.1072692871094
vertex -4.91261196136475 -44.7405738830566 16.1248321533203
endloop
endfacet
facet normal -0.946693360805511 0.32199627161026 0.00949727278202772
outer loop
vertex -4.80405950546265 -44.5989379882813 22.1434211730957
vertex -4.85914659500122 -44.583381652832 16.1248321533203
vertex -4.85946273803711 -44.7618293762207 22.1434211730957
endloop
endfacet
facet normal -0.946693301200867 0.32199627161026 0.00949727185070515
outer loop
vertex -4.91261196136475 -44.7405738830566 16.1248321533203
vertex -4.85946273803711 -44.7618293762207 22.1434211730957
vertex -4.85914659500122 -44.583381652832 16.1248321533203
endloop
endfacet
facet normal -0.946693360805511 0.32199627161026 0.00949727278202772
outer loop
vertex -4.80405950546265 -44.5989379882813 22.1434211730957
vertex -4.85946273803711 -44.7618293762207 22.1434211730957
vertex -4.74897241592407 -44.6144981384277 28.1620101928711
endloop
endfacet
facet normal -0.946693301200867 0.321996241807938 0.00949727185070515
outer loop
vertex -4.80631399154663 -44.7830848693848 28.1620101928711
vertex -4.74897241592407 -44.6144981384277 28.1620101928711
vertex -4.85946273803711 -44.7618293762207 22.1434211730957
endloop
endfacet
facet normal -0.946693301200867 0.32199627161026 0.00949727278202772
outer loop
vertex -4.74897241592407 -44.6144981384277 28.1620101928711
vertex -4.80631399154663 -44.7830848693848 28.1620101928711
vertex -4.7000527381897 -44.6283111572266 33.5067596435547
endloop
endfacet
facet normal -0.946693301200867 0.32199627161026 0.00949727278202772
outer loop
vertex -4.75911521911621 -44.8019599914551 33.5067596435547
vertex -4.7000527381897 -44.6283111572266 33.5067596435547
vertex -4.80631399154663 -44.7830848693848 28.1620101928711
endloop
endfacet
facet normal -0.946693301200867 0.321996241807938 0.00949727185070515
outer loop
vertex -4.7000527381897 -44.6283111572266 33.5067596435547
vertex -4.75911521911621 -44.8019599914551 33.5067596435547
vertex -4.66958570480347 -44.6369171142578 36.8354606628418
endloop
endfacet
facet normal -0.946693241596222 0.321996212005615 0.00949727185070515
outer loop
vertex -4.72972011566162 -44.8137168884277 36.8354606628418
vertex -4.66958570480347 -44.6369171142578 36.8354606628418
vertex -4.75911521911621 -44.8019599914551 33.5067596435547
endloop
endfacet
facet normal -0.946693241596222 0.321996241807938 0.00949727185070515
outer loop
vertex -4.71185445785522 -44.8208618164063 38.8585815429688
vertex -4.65106868743896 -44.642147064209 38.8585815429688
vertex -4.72972011566162 -44.8137168884277 36.8354606628418
endloop
endfacet
facet normal -0.946693360805511 0.32199627161026 0.00949727278202772
outer loop
vertex -4.66958570480347 -44.6369171142578 36.8354606628418
vertex -4.72972011566162 -44.8137168884277 36.8354606628418
vertex -4.65106868743896 -44.642147064209 38.8585815429688
endloop
endfacet
facet normal -0.946693301200867 0.321996241807938 0.00949727185070515
outer loop
vertex -4.71185445785522 -44.8208618164063 38.8585815429688
vertex -4.70099592208862 -44.8252067565918 40.0881958007813
vertex -4.65106868743896 -44.642147064209 38.8585815429688
endloop
endfacet
facet normal -0.946693301200867 0.321996212005615 0.00949727185070515
outer loop
vertex -4.6398138999939 -44.6453247070313 40.0881958007813
vertex -4.65106868743896 -44.642147064209 38.8585815429688
vertex -4.70099592208862 -44.8252067565918 40.0881958007813
endloop
endfacet
facet normal 0.223269984126091 0.670942723751068 -0.707097172737122
outer loop
vertex 3.89850282669067 -18.5990962982178 27.5179748535156
vertex 4.17643785476685 -17.7893390655518 28.3740882873535
vertex 4.07382392883301 -18.6586303710938 27.5168437957764
endloop
endfacet
facet normal 0.223269999027252 0.670942723751068 -0.707097172737122
outer loop
vertex 4.35634469985962 -17.8504295349121 28.3729286193848
vertex 4.07382392883301 -18.6586303710938 27.5168437957764
vertex 4.17643785476685 -17.7893390655518 28.3740882873535
endloop
endfacet
facet normal 0.22326996922493 0.670942664146423 -0.707097172737122
outer loop
vertex 3.89850282669067 -18.5990962982178 27.5179748535156
vertex 4.07382392883301 -18.6586303710938 27.5168437957764
vertex 3.46016979217529 -19.8761711120605 26.1677913665771
endloop
endfacet
facet normal 0.223269999027252 0.670942723751068 -0.707097172737122
outer loop
vertex 3.62825918197632 -19.9332504272461 26.1667079925537
vertex 3.46016979217529 -19.8761711120605 26.1677913665771
vertex 4.07382392883301 -18.6586303710938 27.5168437957764
endloop
endfacet
facet normal 0.223269984126091 0.670942664146423 -0.707097172737122
outer loop
vertex 3.62825918197632 -19.9332504272461 26.1667079925537
vertex 2.92555546760559 -21.9434585571289 24.0373992919922
vertex 3.46016979217529 -19.8761711120605 26.1677913665771
endloop
endfacet
facet normal 0.223269984126091 0.670942723751068 -0.707097172737122
outer loop
vertex 2.76887202262878 -21.8902549743652 24.0384101867676
vertex 3.46016979217529 -19.8761711120605 26.1677913665771
vertex 2.92555546760559 -21.9434585571289 24.0373992919922
endloop
endfacet
facet normal 0.223270013928413 0.670942723751068 -0.707097232341766
outer loop
vertex 2.76887202262878 -21.8902549743652 24.0384101867676
vertex 2.92555546760559 -21.9434585571289 24.0373992919922
vertex 1.67880427837372 -25.0661449432373 20.6807098388672
endloop
endfacet
facet normal 0.223269984126091 0.670942723751068 -0.707097172737122
outer loop
vertex 1.81750249862671 -25.1132431030273 20.6798152923584
vertex 1.67880427837372 -25.0661449432373 20.6807098388672
vertex 2.92555546760559 -21.9434585571289 24.0373992919922
endloop
endfacet
facet normal 0.223269999027252 0.670942723751068 -0.707097172737122
outer loop
vertex 1.67880427837372 -25.0661449432373 20.6807098388672
vertex 1.81750249862671 -25.1132431030273 20.6798152923584
vertex 0.357185065746307 -28.9166564941406 16.609769821167
endloop
endfacet
facet normal 0.223269999027252 0.670942723751068 -0.707097172737122
outer loop
vertex 0.474077790975571 -28.9563503265381 16.6090145111084
vertex 0.357185065746307 -28.9166564941406 16.609769821167
vertex 1.81750249862671 -25.1132431030273 20.6798152923584
endloop
endfacet
facet normal 0.223269999027252 0.670942723751068 -0.707097172737122
outer loop
vertex 0.474077790975571 -28.9563503265381 16.6090145111084
vertex -0.869346916675568 -32.7994575500488 12.538215637207
vertex 0.357185065746307 -28.9166564941406 16.609769821167
endloop
endfacet
facet normal 0.223269984126091 0.670942723751068 -0.707097172737122
outer loop
vertex -0.964434087276459 -32.7671699523926 12.5388288497925
vertex 0.357185065746307 -28.9166564941406 16.609769821167
vertex -0.869346916675568 -32.7994575500488 12.538215637207
endloop
endfacet
facet normal 0.223269984126091 0.670942723751068 -0.707097172737122
outer loop
vertex -2.28605318069458 -36.6176795959473 8.46788787841797
vertex -0.964434087276459 -32.7671699523926 12.5388288497925
vertex -2.21277165412903 -36.6425628662109 8.46741580963135
endloop
endfacet
facet normal 0.223269984126091 0.670942723751068 -0.707097172737122
outer loop
vertex -0.869346916675568 -32.7994575500488 12.538215637207
vertex -2.21277165412903 -36.6425628662109 8.46741580963135
vertex -0.964434087276459 -32.7671699523926 12.5388288497925
endloop
endfacet
facet normal 0.223269999027252 0.670942723751068 -0.707097172737122
outer loop
vertex -2.28605318069458 -36.6176795959473 8.46788787841797
vertex -2.21277165412903 -36.6425628662109 8.46741580963135
vertex -3.42131495475769 -39.9252433776855 4.97097873687744
endloop
endfacet
facet normal 0.223269999027252 0.670942783355713 -0.707097232341766
outer loop
vertex -3.36676406860352 -39.9437675476074 4.97062683105469
vertex -3.42131495475769 -39.9252433776855 4.97097873687744
vertex -2.21277165412903 -36.6425628662109 8.46741580963135
endloop
endfacet
facet normal 0.223269984126091 0.670942664146423 -0.707097172737122
outer loop
vertex -3.36676406860352 -39.9437675476074 4.97062683105469
vertex -4.05659008026123 -41.9171371459961 2.88034009933472
vertex -3.42131495475769 -39.9252433776855 4.97097873687744
endloop
endfacet
facet normal 0.223269984126091 0.670942664146423 -0.707097172737122
outer loop
vertex -4.09994411468506 -41.902416229248 2.88062000274658
vertex -3.42131495475769 -39.9252433776855 4.97097873687744
vertex -4.05659008026123 -41.9171371459961 2.88034009933472
endloop
endfacet
facet normal 0.223269984126091 0.670942664146423 -0.707097172737122
outer loop
vertex -4.09994411468506 -41.902416229248 2.88062000274658
vertex -4.05659008026123 -41.9171371459961 2.88034009933472
vertex -4.50016736984253 -43.0684585571289 1.64782500267029
endloop
endfacet
facet normal 0.223269954323769 0.670942664146423 -0.707097113132477
outer loop
vertex -4.4634165763855 -43.0809364318848 1.64758789539337
vertex -4.50016736984253 -43.0684585571289 1.64782500267029
vertex -4.05659008026123 -41.9171371459961 2.88034009933472
endloop
endfacet
facet normal 0.223269984126091 0.670942664146423 -0.707097172737122
outer loop
vertex -4.50016736984253 -43.0684585571289 1.64782500267029
vertex -4.4634165763855 -43.0809364318848 1.64758789539337
vertex -4.73619985580444 -43.7561340332031 0.920780658721924
endloop
endfacet
facet normal 0.223269999027252 0.670942723751068 -0.707097172737122
outer loop
vertex -4.70334386825562 -43.7672920227051 0.920568645000458
vertex -4.73619985580444 -43.7561340332031 0.920780658721924
vertex -4.4634165763855 -43.0809364318848 1.64758789539337
endloop
endfacet
facet normal 0.22326996922493 0.670942664146423 -0.707097172737122
outer loop
vertex -4.70334386825562 -43.7672920227051 0.920568645000458
vertex -4.84484148025513 -44.1720733642578 0.491807043552399
vertex -4.73619985580444 -43.7561340332031 0.920780658721924
endloop
endfacet
facet normal 0.223269999027252 0.670942723751068 -0.707097172737122
outer loop
vertex -4.87540102005005 -44.161693572998 0.492004185914993
vertex -4.73619985580444 -43.7561340332031 0.920780658721924
vertex -4.84484148025513 -44.1720733642578 0.491807043552399
endloop
endfacet
facet normal 0.223269984126091 0.670942664146423 -0.707097113132477
outer loop
vertex -4.87540102005005 -44.161693572998 0.492004185914993
vertex -4.84484148025513 -44.1720733642578 0.491807043552399
vertex -4.95749521255493 -44.4008750915527 0.239132061600685
endloop
endfacet
facet normal 0.22326996922493 0.670942664146423 -0.707097113132477
outer loop
vertex -4.92829036712646 -44.4107933044434 0.238943636417389
vertex -4.95749521255493 -44.4008750915527 0.239132061600685
vertex -4.84484148025513 -44.1720733642578 0.491807043552399
endloop
endfacet
facet normal 0.223269984126091 0.670942664146423 -0.707097172737122
outer loop
vertex -4.95749521255493 -44.4008750915527 0.239132061600685
vertex -4.92829036712646 -44.4107933044434 0.238943636417389
vertex -5.00591087341309 -44.5419311523438 0.0900000035762787
endloop
endfacet
facet normal 0.223269984126091 0.670942723751068 -0.707097172737122
outer loop
vertex -4.97750425338745 -44.5515785217285 0.0898167416453362
vertex -5.00591087341309 -44.5419311523438 0.0900000035762787
vertex -4.92829036712646 -44.4107933044434 0.238943636417389
endloop
endfacet
facet normal -0.230944320559502 -0.66832423210144 0.707111954689026
outer loop
vertex -3.64346981048584 -40.5724868774414 4.28668212890625
vertex -5.00591087341309 -44.5419311523438 0.0900000035762787
vertex -3.6168155670166 -40.5816688537598 4.28670930862427
endloop
endfacet
facet normal -0.230944320559502 -0.66832423210144 0.707111954689026
outer loop
vertex -2.28102898597717 -36.6030426025391 8.48336410522461
vertex -3.64346981048584 -40.5724868774414 4.28668212890625
vertex -2.22772026062012 -36.6214065551758 8.48341846466064
endloop
endfacet
facet normal -0.230944320559502 -0.66832423210144 0.707111954689026
outer loop
vertex -3.6168155670166 -40.5816688537598 4.28670930862427
vertex -2.22772026062012 -36.6214065551758 8.48341846466064
vertex -3.64346981048584 -40.5724868774414 4.28668212890625
endloop
endfacet
facet normal -0.230944320559502 -0.66832423210144 0.707111954689026
outer loop
vertex -2.28102898597717 -36.6030426025391 8.48336410522461
vertex -2.22772026062012 -36.6214065551758 8.48341846466064
vertex -0.918588161468506 -32.6335983276367 12.680046081543
endloop
endfacet
facet normal -0.230944320559502 -0.668324291706085 0.707112014293671
outer loop
vertex -0.838625133037567 -32.6611442565918 12.6801280975342
vertex -0.918588161468506 -32.6335983276367 12.680046081543
vertex -2.22772026062012 -36.6214065551758 8.48341846466064
endloop
endfacet
facet normal -0.230944320559502 -0.66832423210144 0.707111954689026
outer loop
vertex 0.443852692842484 -28.6641521453857 16.8767280578613
vertex -0.918588161468506 -32.6335983276367 12.680046081543
vertex 0.550470054149628 -28.7008800506592 16.8768367767334
endloop
endfacet
facet normal -0.230944320559502 -0.668324291706085 0.707112014293671
outer loop
vertex -0.838625133037567 -32.6611442565918 12.6801280975342
vertex 0.550470054149628 -28.7008800506592 16.8768367767334
vertex -0.918588161468506 -32.6335983276367 12.680046081543
endloop
endfacet
facet normal -0.230944320559502 -0.66832423210144 0.707111954689026
outer loop
vertex 0.443852692842484 -28.6641521453857 16.8767280578613
vertex 0.550470054149628 -28.7008800506592 16.8768367767334
vertex 1.80629348754883 -24.6947078704834 21.0734100341797
endloop
endfacet
facet normal -0.230944335460663 -0.668324291706085 0.707112014293671
outer loop
vertex 1.93956518173218 -24.7406177520752 21.0735473632813
vertex 1.80629348754883 -24.6947078704834 21.0734100341797
vertex 0.550470054149628 -28.7008800506592 16.8768367767334
endloop
endfacet
facet normal -0.230944335460663 -0.668324291706085 0.707112014293671
outer loop
vertex 3.11568641662598 -20.8798179626465 25.1066913604736
vertex 1.80629348754883 -24.6947078704834 21.0734100341797
vertex 3.27457857131958 -20.9345397949219 25.1068649291992
endloop
endfacet
facet normal -0.230944335460663 -0.668324291706085 0.707112014293671
outer loop
vertex 1.93956518173218 -24.7406177520752 21.0735473632813
vertex 3.27457857131958 -20.9345397949219 25.1068649291992
vertex 1.80629348754883 -24.6947078704834 21.0734100341797
endloop
endfacet
facet normal -0.230944350361824 -0.66832435131073 0.707112014293671
outer loop
vertex 3.11568641662598 -20.8798179626465 25.1066913604736
vertex 3.27457857131958 -20.9345397949219 25.1068649291992
vertex 3.84445428848267 -18.7565670013428 27.3514919281006
endloop
endfacet
facet normal -0.230944350361824 -0.668324291706085 0.707112014293671
outer loop
vertex 4.01760673522949 -18.8161907196045 27.3516883850098
vertex 3.84445428848267 -18.7565670013428 27.3514919281006
vertex 3.27457857131958 -20.9345397949219 25.1068649291992
endloop
endfacet
facet normal -0.230944320559502 -0.66832423210144 0.707111954689026
outer loop
vertex 3.84445428848267 -18.7565670013428 27.3514919281006
vertex 4.01760673522949 -18.8161907196045 27.3516883850098
vertex 4.17641925811768 -17.7893924713135 28.3740329742432
endloop
endfacet
facet normal -0.230944320559502 -0.668324291706085 0.707112014293671
outer loop
vertex 4.35606384277344 -17.851261138916 28.3742294311523
vertex 4.17641925811768 -17.7893924713135 28.3740329742432
vertex 4.01760673522949 -18.8161907196045 27.3516883850098
endloop
endfacet
facet normal -0.325660675764084 -0.945486605167389 -0.000463378644781187
outer loop
vertex -0.747321248054504 -46.1849327087402 35.8757743835449
vertex -4.70099592208862 -44.8252067565918 40.0881958007813
vertex -0.766238391399384 -46.178409576416 35.8559188842773
endloop
endfacet
facet normal -0.325660675764084 -0.945486605167389 -0.000463378644781187
outer loop
vertex 3.20635366439819 -47.5446624755859 31.6633548736572
vertex -0.747321248054504 -46.1849327087402 35.8757743835449
vertex 3.16851925849915 -47.531608581543 31.6236400604248
endloop
endfacet
facet normal -0.325660675764084 -0.945486605167389 -0.000463378644781187
outer loop
vertex -0.766238391399384 -46.178409576416 35.8559188842773
vertex 3.16851925849915 -47.531608581543 31.6236400604248
vertex -0.747321248054504 -46.1849327087402 35.8757743835449
endloop
endfacet
facet normal -0.325660675764084 -0.945486605167389 -0.000463378644781187
outer loop
vertex 3.20635366439819 -47.5446624755859 31.6633548736572
vertex 3.16851925849915 -47.531608581543 31.6236400604248
vertex 7.1600284576416 -48.9043884277344 27.4509334564209
endloop
endfacet
facet normal -0.325660675764084 -0.945486664772034 -0.000463378644781187
outer loop
vertex 7.1032772064209 -48.8848114013672 27.3913612365723
vertex 7.1600284576416 -48.9043884277344 27.4509334564209
vertex 3.16851925849915 -47.531608581543 31.6236400604248
endloop
endfacet
facet normal -0.325660675764084 -0.945486664772034 -0.000463378644781187
outer loop
vertex 7.1032772064209 -48.8848114013672 27.3913612365723
vertex 11.0380344390869 -50.2380142211914 23.1590824127197
vertex 7.1600284576416 -48.9043884277344 27.4509334564209
endloop
endfacet
facet normal -0.325660675764084 -0.945486605167389 -0.000463378644781187
outer loop
vertex 11.1137037277222 -50.2641181945801 23.2385120391846
vertex 7.1600284576416 -48.9043884277344 27.4509334564209
vertex 11.0380344390869 -50.2380142211914 23.1590824127197
endloop
endfacet
facet normal -0.325660675764084 -0.945486605167389 -0.000463378644781187
outer loop
vertex 11.1137037277222 -50.2641181945801 23.2385120391846
vertex 11.0380344390869 -50.2380142211914 23.1590824127197
vertex 15.0673780441284 -51.6238441467285 19.0260925292969
endloop
endfacet
facet normal -0.325660675764084 -0.945486605167389 -0.000463378615677357
outer loop
vertex 14.9727926254272 -51.5912170410156 18.9268054962158
vertex 15.0673780441284 -51.6238441467285 19.0260925292969
vertex 11.0380344390869 -50.2380142211914 23.1590824127197
endloop
endfacet
facet normal -0.325660675764084 -0.945486664772034 -0.000463378615677357
outer loop
vertex 18.8671112060547 -52.9306297302246 14.9776878356934
vertex 15.0673780441284 -51.6238441467285 19.0260925292969
vertex 18.7543563842773 -52.8917350769043 14.8593034744263
endloop
endfacet
facet normal -0.325660645961761 -0.945486605167389 -0.000463378586573526
outer loop
vertex 14.9727926254272 -51.5912170410156 18.9268054962158
vertex 18.7543563842773 -52.8917350769043 14.8593034744263
vertex 15.0673780441284 -51.6238441467285 19.0260925292969
endloop
endfacet
facet normal -0.325660645961761 -0.945486605167389 -0.000463378557469696
outer loop
vertex 18.8671112060547 -52.9306297302246 14.9776878356934
vertex 18.7543563842773 -52.8917350769043 14.8593034744263
vertex 20.9819240570068 -53.6579437255859 12.7244710922241
endloop
endfacet
facet normal -0.325660675764084 -0.945486605167389 -0.000463378586573526
outer loop
vertex 20.859058380127 -53.6155624389648 12.5954570770264
vertex 20.9819240570068 -53.6579437255859 12.7244710922241
vertex 18.7543563842773 -52.8917350769043 14.8593034744263
endloop
endfacet
facet normal -0.325660705566406 -0.945486664772034 -0.000463378644781187
outer loop
vertex 20.9819240570068 -53.6579437255859 12.7244710922241
vertex 20.859058380127 -53.6155624389648 12.5954570770264
vertex 21.9452533721924 -53.9892501831055 11.6980981826782
endloop
endfacet
facet normal -0.325660675764084 -0.945486664772034 -0.000463378673885018
outer loop
vertex 21.8177719116211 -53.9452743530273 11.5642528533936
vertex 21.9452533721924 -53.9892501831055 11.6980981826782
vertex 20.859058380127 -53.6155624389648 12.5954570770264
endloop
endfacet
facet normal -1 0 0
outer loop
vertex -0.214350000023842 -41 0.170000001788139
vertex -0.214350000023842 -40 0.170000001788139
vertex -0.214350000023842 -41 -0.0199999995529652
endloop
endfacet
facet normal -1 0 0
outer loop
vertex -0.214350000023842 -40 -0.0199999995529652
vertex -0.214350000023842 -41 -0.0199999995529652
vertex -0.214350000023842 -40 0.170000001788139
endloop
endfacet
facet normal -0.70710676908493 0 -0.70710676908493
outer loop
vertex -0.214350000023842 -41 -0.0199999995529652
vertex -0.214350000023842 -40 -0.0199999995529652
vertex -0.0799999982118607 -41 -0.154349997639656
endloop
endfacet
facet normal -0.70710676908493 -0 -0.70710676908493
outer loop
vertex -0.0799999982118607 -40 -0.154349997639656
vertex -0.0799999982118607 -41 -0.154349997639656
vertex -0.214350000023842 -40 -0.0199999995529652
endloop
endfacet
facet normal -0.70710676908493 0 0.70710676908493
outer loop
vertex -0.0799999982118607 -41 0.304349988698959
vertex -0.0799999982118607 -40 0.304349988698959
vertex -0.214350000023842 -41 0.170000001788139
endloop
endfacet
facet normal -0.70710676908493 0 0.70710676908493
outer loop
vertex -0.214350000023842 -40 0.170000001788139
vertex -0.214350000023842 -41 0.170000001788139
vertex -0.0799999982118607 -40 0.304349988698959
endloop
endfacet
facet normal 0 0 -1
outer loop
vertex -0.0799999982118607 -41 -0.154349997639656
vertex -0.0799999982118607 -40 -0.154349997639656
vertex 0.109999999403954 -41 -0.154349997639656
endloop
endfacet
facet normal -0 -0 -1
outer loop
vertex 0.109999999403954 -40 -0.154349997639656
vertex 0.109999999403954 -41 -0.154349997639656
vertex -0.0799999982118607 -40 -0.154349997639656
endloop
endfacet
facet normal -0 0 1
outer loop
vertex -0.0799999982118607 -40 0.304349988698959
vertex -0.0799999982118607 -41 0.304349988698959
vertex 0.109999999403954 -40 0.304349988698959
endloop
endfacet
facet normal 0 -0 1
outer loop
vertex 0.109999999403954 -41 0.304349988698959
vertex 0.109999999403954 -40 0.304349988698959
vertex -0.0799999982118607 -41 0.304349988698959
endloop
endfacet
facet normal 0.70710676908493 0 -0.70710676908493
outer loop
vertex 0.109999999403954 -41 -0.154349997639656
vertex 0.109999999403954 -40 -0.154349997639656
vertex 0.244350001215935 -41 -0.0199999995529652
endloop
endfacet
facet normal 0.70710676908493 0 -0.70710676908493
outer loop
vertex 0.244350001215935 -40 -0.0199999995529652
vertex 0.244350001215935 -41 -0.0199999995529652
vertex 0.109999999403954 -40 -0.154349997639656
endloop
endfacet
facet normal 0.70710676908493 0 0.70710676908493
outer loop
vertex 0.109999999403954 -40 0.304349988698959
vertex 0.109999999403954 -41 0.304349988698959
vertex 0.244350001215935 -40 0.170000001788139
endloop
endfacet
facet normal 0.70710676908493 -0 0.70710676908493
outer loop
vertex 0.244350001215935 -41 0.170000001788139
vertex 0.244350001215935 -40 0.170000001788139
vertex 0.109999999403954 -41 0.304349988698959
endloop
endfacet
facet normal 1 0 0
outer loop
vertex 0.244350001215935 -40 0.170000001788139
vertex 0.244350001215935 -41 0.170000001788139
vertex 0.244350001215935 -40 -0.0199999995529652
endloop
endfacet
facet normal 1 0 0
outer loop
vertex 0.244350001215935 -41 -0.0199999995529652
vertex 0.244350001215935 -40 -0.0199999995529652
vertex 0.244350001215935 -41 0.170000001788139
endloop
endfacet
facet normal 0 0.00385872134938836 0.999992549419403
outer loop
vertex 0.109999999403954 -39.9997024536133 0.304348856210709
vertex 0.107578530907631 -38.7889747619629 0.299676954746246
vertex -0.0799999982118607 -39.9997024536133 0.304348856210709
endloop
endfacet
facet normal -5.99607000064794e-16 0.00385872134938836 0.999992549419403
outer loop
vertex -0.077578529715538 -38.7889747619629 0.299676954746246
vertex -0.0799999982118607 -39.9997024536133 0.304348856210709
vertex 0.107578530907631 -38.7889747619629 0.299676954746246
endloop
endfacet
facet normal -5.99607105943912e-16 0.00385872134938836 0.999992609024048
outer loop
vertex -0.077578529715538 -38.7889747619629 0.299676954746246
vertex 0.107578530907631 -38.7889747619629 0.299676954746246
vertex -0.0737596079707146 -36.8795318603516 0.292308896780014
endloop
endfacet
facet normal 1.5825258166873e-16 0.00385872134938836 0.999992549419403
outer loop
vertex 0.103759609162807 -36.8795318603516 0.292308896780014
vertex -0.0737596079707146 -36.8795318603516 0.292308896780014
vertex 0.107578530907631 -38.7889747619629 0.299676954746246
endloop
endfacet
facet normal 1.5825258166873e-16 0.00385872134938836 0.999992549419403
outer loop
vertex 0.103759609162807 -36.8795318603516 0.292308896780014
vertex 0.097736768424511 -33.8681335449219 0.280688643455505
vertex -0.0737596079707146 -36.8795318603516 0.292308896780014
endloop
endfacet
facet normal -1.65693355828775e-16 0.00385872134938836 0.999992609024048
outer loop
vertex -0.0677367672324181 -33.8681335449219 0.280688643455505
vertex -0.0737596079707146 -36.8795318603516 0.292308896780014
vertex 0.097736768424511 -33.8681335449219 0.280688643455505
endloop
endfacet
facet normal -1.65693355828775e-16 0.00385872134938836 0.999992549419403
outer loop
vertex -0.0677367672324181 -33.8681335449219 0.280688643455505
vertex 0.097736768424511 -33.8681335449219 0.280688643455505
vertex -0.0582396984100342 -29.1196327209473 0.262365370988846
endloop
endfacet
facet normal -1.82570738765723e-16 0.00385872134938836 0.999992549419403
outer loop
vertex 0.0882396996021271 -29.1196327209473 0.262365370988846
vertex -0.0582396984100342 -29.1196327209473 0.262365370988846
vertex 0.097736768424511 -33.8681335449219 0.280688643455505
endloop
endfacet
facet normal -1.82570752000613e-16 0.00385872134938836 0.999992549419403
outer loop
vertex 0.0882396996021271 -29.1196327209473 0.262365370988846
vertex 0.0767252668738365 -23.3624591827393 0.240149885416031
vertex -0.0582396984100342 -29.1196327209473 0.262365370988846
endloop
endfacet
facet normal -2.16628093925136e-16 0.00385872111655772 0.999992549419403
outer loop
vertex -0.0467252656817436 -23.3624591827393 0.240149885416031
vertex -0.0582396984100342 -29.1196327209473 0.262365370988846
vertex 0.0767252668738365 -23.3624591827393 0.240149885416031
endloop
endfacet
facet normal -2.16628093925136e-16 0.00385872111655772 0.999992549419403
outer loop
vertex -0.0467252656817436 -23.3624591827393 0.240149885416031
vertex 0.0767252668738365 -23.3624591827393 0.240149885416031
vertex -0.0352108329534531 -17.6052856445313 0.217934399843216
endloop
endfacet
facet normal 1.53318085355381e-16 0.00385872134938836 0.999992549419403
outer loop
vertex 0.065210834145546 -17.6052856445313 0.217934399843216
vertex -0.0352108329534531 -17.6052856445313 0.217934399843216
vertex 0.0767252668738365 -23.3624591827393 0.240149885416031
endloop
endfacet
facet normal 1.53318085355381e-16 0.00385872134938836 0.999992549419403
outer loop
vertex 0.065210834145546 -17.6052856445313 0.217934399843216
vertex 0.0536963976919651 -11.8481111526489 0.19571889936924
vertex -0.0352108329534531 -17.6052856445313 0.217934399843216
endloop
endfacet
facet normal -3.32464243445576e-16 0.00385872134938836 0.999992549419403
outer loop
vertex -0.0236963983625174 -11.8481111526489 0.19571889936924
vertex -0.0352108329534531 -17.6052856445313 0.217934399843216
vertex 0.0536963976919651 -11.8481111526489 0.19571889936924
endloop
endfacet
facet normal -3.32464243445576e-16 0.00385872134938836 0.999992609024048
outer loop
vertex -0.0236963983625174 -11.8481111526489 0.19571889936924
vertex 0.0536963976919651 -11.8481111526489 0.19571889936924
vertex -0.0138055812567472 -6.90273904800415 0.176635950803757
endloop
endfacet
facet normal 2.92916566305848e-17 0.00385872134938836 0.999992549419403
outer loop
vertex 0.043805580586195 -6.90273904800415 0.176635950803757
vertex -0.0138055812567472 -6.90273904800415 0.176635950803757
vertex 0.0536963976919651 -11.8481111526489 0.19571889936924
endloop
endfacet
facet normal 2.92916566305848e-17 0.00385872134938836 0.999992549419403
outer loop
vertex 0.043805580586195 -6.90273904800415 0.176635950803757
vertex 0.0378931164741516 -3.946528673172 0.165228664875031
vertex -0.0138055812567472 -6.90273904800415 0.176635950803757
endloop
endfacet
facet normal 7.03161489487401e-16 0.00385872088372707 0.999992489814758
outer loop
vertex -0.00789311621338129 -3.946528673172 0.165228664875031
vertex -0.0138055812567472 -6.90273904800415 0.176635950803757
vertex 0.0378931164741516 -3.946528673172 0.165228664875031
endloop
endfacet
facet normal 7.0316159536652e-16 0.003858721582219 0.999992549419403
outer loop
vertex -0.00789311621338129 -3.946528673172 0.165228664875031
vertex 0.0378931164741516 -3.946528673172 0.165228664875031
vertex -0.00440622260794044 -2.20309495925903 0.158501192927361
endloop
endfacet
facet normal -7.94721886497769e-16 0.003858721582219 0.999992609024048
outer loop
vertex 0.0344062224030495 -2.20309495925903 0.158501192927361
vertex -0.00440622260794044 -2.20309495925903 0.158501192927361
vertex 0.0378931164741516 -3.946528673172 0.165228664875031
endloop
endfacet
facet normal -7.94721780618651e-16 0.00385872111655772 0.999992549419403
outer loop
vertex 0.0344062224030495 -2.20309495925903 0.158501192927361
vertex 0.0323498174548149 -1.17490005493164 0.154533639550209
vertex -0.00440622260794044 -2.20309495925903 0.158501192927361
endloop
endfacet
facet normal 4.54184995548387e-16 0.00385872111655772 0.999992489814758
outer loop
vertex -0.00234981765970588 -1.17490005493164 0.154533639550209
vertex -0.00440622260794044 -2.20309495925903 0.158501192927361
vertex 0.0323498174548149 -1.17490005493164 0.154533639550209
endloop
endfacet
facet normal 4.54184942608827e-16 0.00385872111655772 0.999992549419403
outer loop
vertex -0.00234981765970588 -1.17490005493164 0.154533639550209
vertex 0.0323498174548149 -1.17490005493164 0.154533639550209
vertex -0.00113704684190452 -0.568519175052643 0.152193769812584
endloop
endfacet
facet normal 2.36114298634958e-16 0.00385872111655772 0.999992549419403
outer loop
vertex 0.0311370473355055 -0.568519175052643 0.152193769812584
vertex -0.00113704684190452 -0.568519175052643 0.152193769812584
vertex 0.0323498174548149 -1.17490005493164 0.154533639550209
endloop
endfacet
facet normal 2.36114325104738e-16 0.003858721582219 0.999992549419403
outer loop
vertex 0.0311370473355055 -0.568519175052643 0.152193769812584
vertex 0.0304218120872974 -0.210904359817505 0.150813832879066
vertex -0.00113704684190452 -0.568519175052643 0.152193769812584
endloop
endfacet
facet normal -3.81962691596079e-17 0.00385872134938836 0.999992549419403
outer loop
vertex -0.000421811855630949 -0.210904359817505 0.150813832879066
vertex -0.00113704684190452 -0.568519175052643 0.152193769812584
vertex 0.0304218120872974 -0.210904359817505 0.150813832879066
endloop
endfacet
facet normal -3.81962691596079e-17 0.00385872134938836 0.999992549419403
outer loop
vertex -0.000421811855630949 -0.210904359817505 0.150813832879066
vertex 0.0304218120872974 -0.210904359817505 0.150813832879066
vertex 0 0 0.150000005960464
endloop
endfacet
facet normal 0 0.00385872134938836 0.999992549419403
outer loop
vertex 0.0299999993294477 0 0.150000005960464
vertex 0 0 0.150000005960464
vertex 0.0304218120872974 -0.210904359817505 0.150813832879066
endloop
endfacet
facet normal -0.999985635280609 -0.00535867316648364 0
outer loop
vertex 0.244346916675568 -39.9994239807129 -0.0199999995529652
vertex 0.244346916675568 -39.9994239807129 0.170000001788139
vertex 0.237757533788681 -38.769775390625 -0.0193851664662361
endloop
endfacet
facet normal -0.999985635280609 -0.00535867316648364 9.23592814285268e-17
outer loop
vertex 0.237757533788681 -38.769775390625 0.16938516497612
vertex 0.237757533788681 -38.769775390625 -0.0193851664662361
vertex 0.244346916675568 -39.9994239807129 0.170000001788139
endloop
endfacet
facet normal -0.999985635280609 -0.00535867270082235 9.23592814285268e-17
outer loop
vertex 0.237757533788681 -38.769775390625 0.16938516497612
vertex 0.226915791630745 -36.7465934753418 0.168373554944992
vertex 0.237757533788681 -38.769775390625 -0.0193851664662361
endloop
endfacet
facet normal -0.999985635280609 -0.00535867316648364 -1.10528991797524e-16
outer loop
vertex 0.226915791630745 -36.7465934753418 -0.0183735601603985
vertex 0.237757533788681 -38.769775390625 -0.0193851664662361
vertex 0.226915791630745 -36.7465934753418 0.168373554944992
endloop
endfacet
facet normal -0.999985635280609 -0.00535867270082235 -1.10528985180079e-16
outer loop
vertex 0.226915791630745 -36.7465934753418 0.168373554944992
vertex 0.209077566862106 -33.4177856445313 0.166709139943123
vertex 0.226915791630745 -36.7465934753418 -0.0183735601603985
endloop
endfacet
facet normal -0.999985635280609 -0.00535867316648364 3.02643522095202e-16
outer loop
vertex 0.209077566862106 -33.4177856445313 -0.0167091339826584
vertex 0.226915791630745 -36.7465934753418 -0.0183735601603985
vertex 0.209077566862106 -33.4177856445313 0.166709139943123
endloop
endfacet
facet normal -0.999985635280609 -0.00535867316648364 3.02643548564981e-16
outer loop
vertex 0.209077566862106 -33.4177856445313 -0.0167091339826584
vertex 0.209077566862106 -33.4177856445313 0.166709139943123
vertex 0.180435508489609 -28.0728740692139 -0.014036638662219
endloop
endfacet
facet normal -0.999985635280609 -0.00535867316648364 2.13820192939878e-16
outer loop
vertex 0.180435508489609 -28.0728740692139 0.164036631584167
vertex 0.180435508489609 -28.0728740692139 -0.014036638662219
vertex 0.209077566862106 -33.4177856445313 0.166709139943123
endloop
endfacet
facet normal -0.999985635280609 -0.00535867270082235 -1.51998633016686e-16
outer loop
vertex 0.148182407021523 -22.0541000366211 -0.0110272085294127
vertex 0.180435508489609 -28.0728740692139 -0.014036638662219
vertex 0.148182407021523 -22.0541000366211 0.161027207970619
endloop
endfacet
facet normal -0.999985635280609 -0.00535867270082235 2.13820192939878e-16
outer loop
vertex 0.180435508489609 -28.0728740692139 0.164036631584167
vertex 0.148182407021523 -22.0541000366211 0.161027207970619
vertex 0.180435508489609 -28.0728740692139 -0.014036638662219
endloop
endfacet
facet normal -0.999985635280609 -0.00535867270082235 -1.51998633016686e-16
outer loop
vertex 0.148182407021523 -22.0541000366211 0.161027207970619
vertex 0.115929305553436 -16.0353260040283 0.158017784357071
vertex 0.148182407021523 -22.0541000366211 -0.0110272085294127
endloop
endfacet
facet normal -0.999985635280609 -0.00535867316648364 1.45740316851008e-16
outer loop
vertex 0.115929305553436 -16.0353260040283 -0.00801777839660645
vertex 0.148182407021523 -22.0541000366211 -0.0110272085294127
vertex 0.115929305553436 -16.0353260040283 0.158017784357071
endloop
endfacet
facet normal -0.999985635280609 -0.00535867270082235 1.45740303616118e-16
outer loop
vertex 0.115929305553436 -16.0353260040283 -0.00801777839660645
vertex 0.115929305553436 -16.0353260040283 0.158017784357071
vertex 0.08368169516325 -10.0175771713257 -0.00500886049121618
endloop
endfacet
facet normal -0.999985635280609 -0.00535867316648364 9.1734581395037e-17
outer loop
vertex 0.08368169516325 -10.0175771713257 0.155008867383003
vertex 0.08368169516325 -10.0175771713257 -0.00500886049121618
vertex 0.115929305553436 -16.0353260040283 0.158017784357071
endloop
endfacet
facet normal -0.999985635280609 -0.00535867270082235 9.17345747775921e-17
outer loop
vertex 0.08368169516325 -10.0175771713257 -0.00500886049121618
vertex 0.08368169516325 -10.0175771713257 0.155008867383003
vertex 0.0588576309382915 -5.38514232635498 -0.00269260979257524
endloop
endfacet
facet normal -0.999985694885254 -0.00535867316648364 -5.61015133431594e-17
outer loop
vertex 0.0588576309382915 -5.38514232635498 0.15269261598587
vertex 0.0588576309382915 -5.38514232635498 -0.00269260979257524
vertex 0.08368169516325 -10.0175771713257 0.155008867383003
endloop
endfacet
facet normal -0.999985635280609 -0.00535867316648364 -5.61015133431594e-17
outer loop
vertex 0.0588576309382915 -5.38514232635498 0.15269261598587
vertex 0.0440658330917358 -2.6248345375061 0.151312440633774
vertex 0.0588576309382915 -5.38514232635498 -0.00269260979257524
endloop
endfacet
facet normal -0.999985635280609 -0.00535867316648364 -2.98710503275639e-17
outer loop
vertex 0.0440658330917358 -2.6248345375061 -0.00131243618670851
vertex 0.0588576309382915 -5.38514232635498 -0.00269260979257524
vertex 0.0440658330917358 -2.6248345375061 0.151312440633774
endloop
endfacet
facet normal -0.999985635280609 -0.00535867316648364 -2.98710536362863e-17
outer loop
vertex 0.0440658330917358 -2.6248345375061 -0.00131243618670851
vertex 0.0440658330917358 -2.6248345375061 0.151312440633774
vertex 0.0352519117295742 -0.98006272315979 -0.000490038364659995
endloop
endfacet
facet normal -0.999985635280609 -0.00535867316648364 -4.85715360258565e-17
outer loop
vertex 0.0352519117295742 -0.98006272315979 0.150490045547485
vertex 0.0352519117295742 -0.98006272315979 -0.000490038364659995
vertex 0.0440658330917358 -2.6248345375061 0.151312440633774
endloop
endfacet
facet normal -0.999985575675964 -0.00535867270082235 -4.85715360258565e-17
outer loop
vertex 0.0352519117295742 -0.98006272315979 0.150490045547485
vertex 0.0299999993294477 0 0.150000005960464
vertex 0.0352519117295742 -0.98006272315979 -0.000490038364659995
endloop
endfacet
facet normal -0.999985635280609 -0.00535867316648364 0
outer loop
vertex 0.0299999993294477 0 0
vertex 0.0352519117295742 -0.98006272315979 -0.000490038364659995
vertex 0.0299999993294477 0 0.150000005960464
endloop
endfacet
facet normal 0.707100689411163 0.0041427263058722 0.707100689411163
outer loop
vertex 0.244349867105484 -39.999870300293 0.16999939084053
vertex 0.236600622534752 -38.5537872314453 0.169276371598244
vertex 0.109999246895313 -39.9996223449707 0.304348528385162
endloop
endfacet
facet normal 0.707100749015808 0.0041427263058722 0.707100749015808
outer loop
vertex 0.107107073068619 -38.5535354614258 0.29876846075058
vertex 0.109999246895313 -39.9996223449707 0.304348528385162
vertex 0.236600622534752 -38.5537872314453 0.169276371598244
endloop
endfacet
facet normal 0.707100749015808 0.0041427263058722 0.707100749015808
outer loop
vertex 0.236600622534752 -38.5537872314453 0.169276371598244
vertex 0.219588428735733 -35.3791351318359 0.167689085006714
vertex 0.107107073068619 -38.5535354614258 0.29876846075058
endloop
endfacet
facet normal 0.707100749015808 0.00414272677153349 0.707100749015808
outer loop
vertex 0.100757829844952 -35.3789138793945 0.286518394947052
vertex 0.107107073068619 -38.5535354614258 0.29876846075058
vertex 0.219588428735733 -35.3791351318359 0.167689085006714
endloop
endfacet
facet normal 0.707100749015808 0.0041427263058722 0.707100749015808
outer loop
vertex 0.100757829844952 -35.3789138793945 0.286518394947052
vertex 0.219588428735733 -35.3791351318359 0.167689085006714
vertex 0.0893500000238419 -29.6750011444092 0.2645083963871
endloop
endfacet
facet normal 0.707100749015808 0.0041427263058722 0.707100749015808
outer loop
vertex 0.189022228121758 -29.6751708984375 0.164837181568146
vertex 0.0893500000238419 -29.6750011444092 0.2645083963871
vertex 0.219588428735733 -35.3791351318359 0.167689085006714
endloop
endfacet
facet normal 0.707100689411163 0.0041427263058722 0.707100689411163
outer loop
vertex 0.189022228121758 -29.6751708984375 0.164837181568146
vertex 0.157217785716057 -23.7401371002197 0.161869749426842
vertex 0.0893500000238419 -29.6750011444092 0.2645083963871
endloop
endfacet
facet normal 0.707100749015808 0.0041427263058722 0.707100749015808
outer loop
vertex 0.0774800032377243 -23.7400016784668 0.24160672724247
vertex 0.0893500000238419 -29.6750011444092 0.2645083963871
vertex 0.157217785716057 -23.7401371002197 0.161869749426842
endloop
endfacet
facet normal 0.707100749015808 0.0041427263058722 0.707100749015808
outer loop
vertex 0.0774800032377243 -23.7400016784668 0.24160672724247
vertex 0.157217785716057 -23.7401371002197 0.161869749426842
vertex 0.0656099990010262 -17.8050003051758 0.218705043196678
endloop
endfacet
facet normal 0.707100689411163 0.0041427263058722 0.707100689411163
outer loop
vertex 0.125413343310356 -17.805103302002 0.158902302384377
vertex 0.0656099990010262 -17.8050003051758 0.218705043196678
vertex 0.157217785716057 -23.7401371002197 0.161869749426842
endloop
endfacet
facet normal 0.707100689411163 0.0041427263058722 0.707100689411163
outer loop
vertex 0.125413343310356 -17.805103302002 0.158902302384377
vertex 0.0936088934540749 -11.8700685501099 0.155934870243073
vertex 0.0656099990010262 -17.8050003051758 0.218705043196678
endloop
endfacet
facet normal 0.707100749015808 0.0041427263058722 0.707100749015808
outer loop
vertex 0.0537400022149086 -11.8700008392334 0.195803359150887
vertex 0.0656099990010262 -17.8050003051758 0.218705043196678
vertex 0.0936088934540749 -11.8700685501099 0.155934870243073
endloop
endfacet
facet normal 0.707100749015808 0.0041427263058722 0.707100749015808
outer loop
vertex 0.0537400022149086 -11.8700008392334 0.195803359150887
vertex 0.0936088934540749 -11.8700685501099 0.155934870243073
vertex 0.0418700017035007 -5.9350004196167 0.172901675105095
endloop
endfacet
facet normal 0.707100749015808 0.0041427263058722 0.707100749015808
outer loop
vertex 0.0618044473230839 -5.93503427505493 0.152967438101768
vertex 0.0418700017035007 -5.9350004196167 0.172901675105095
vertex 0.0936088934540749 -11.8700685501099 0.155934870243073
endloop
endfacet
facet normal 0.707100749015808 0.0041427263058722 0.707100749015808
outer loop
vertex 0.0418700017035007 -5.9350004196167 0.172901675105095
vertex 0.0618044473230839 -5.93503427505493 0.152967438101768
vertex 0.0299999993294477 0 0.150000005960464
endloop
endfacet
facet normal 0.707101702690125 0.00378918112255633 -0.707101702690125
outer loop
vertex 0.324346750974655 -79.9995727539063 -0.154350966215134
vertex 0.321454554796219 -78.5534744262695 -0.149493873119354
vertex 0.458693832159042 -79.9988479614258 -0.0199999995529652
endloop
endfacet
facet normal 0.707101702690125 0.00378918112255633 -0.707101702690125
outer loop
vertex 0.450944662094116 -78.5527725219727 -0.0199999995529652
vertex 0.458693832159042 -79.9988479614258 -0.0199999995529652
vertex 0.321454554796219 -78.5534744262695 -0.149493873119354
endloop
endfacet
facet normal 0.707101702690125 0.00378918135538697 -0.707101702690125
outer loop
vertex 0.321454554796219 -78.5534744262695 -0.149493873119354
vertex 0.315105259418488 -75.3787994384766 -0.138830900192261
vertex 0.450944662094116 -78.5527725219727 -0.0199999995529652
endloop
endfacet
facet normal 0.707101702690125 0.00378918112255633 -0.707101702690125
outer loop
vertex 0.43393275141716 -75.3781661987305 -0.0199999995529652
vertex 0.450944662094116 -78.5527725219727 -0.0199999995529652
vertex 0.315105259418488 -75.3787994384766 -0.138830900192261
endloop
endfacet
facet normal 0.707101702690125 0.00378918135538697 -0.707101702690125
outer loop
vertex 0.43393275141716 -75.3781661987305 -0.0199999995529652
vertex 0.315105259418488 -75.3787994384766 -0.138830900192261
vertex 0.403367042541504 -69.6742782592773 -0.0199999995529652
endloop
endfacet
facet normal 0.707101702690125 0.00378918112255633 -0.707101702690125
outer loop
vertex 0.303697317838669 -69.6747970581055 -0.119672514498234
vertex 0.403367042541504 -69.6742782592773 -0.0199999995529652
vertex 0.315105259418488 -75.3787994384766 -0.138830900192261
endloop
endfacet
facet normal 0.707101702690125 0.00378918112255633 -0.707101702690125
outer loop
vertex 0.303697317838669 -69.6747970581055 -0.119672514498234
vertex 0.291827231645584 -63.7397270202637 -0.0997380167245865
vertex 0.403367042541504 -69.6742782592773 -0.0199999995529652
endloop
endfacet
facet normal 0.707101702690125 0.00378918112255633 -0.707101702690125
outer loop
vertex 0.371563017368317 -63.7393112182617 -0.0199999995529652
vertex 0.403367042541504 -69.6742782592773 -0.0199999995529652
vertex 0.291827231645584 -63.7397270202637 -0.0997380167245865
endloop
endfacet
facet normal 0.707101702690125 0.00378918112255633 -0.707101702690125
outer loop
vertex 0.371563017368317 -63.7393112182617 -0.0199999995529652
vertex 0.291827231645584 -63.7397270202637 -0.0997380167245865
vertex 0.339758992195129 -57.8043403625488 -0.0199999995529652
endloop
endfacet
facet normal 0.70710164308548 0.00378918112255633 -0.70710164308548
outer loop
vertex 0.279957175254822 -57.8046493530273 -0.0798035115003586
vertex 0.339758992195129 -57.8043403625488 -0.0199999995529652
vertex 0.291827231645584 -63.7397270202637 -0.0997380167245865
endloop
endfacet
facet normal 0.70710164308548 0.00378918112255633 -0.70710164308548
outer loop
vertex 0.279957175254822 -57.8046493530273 -0.0798035115003586
vertex 0.268087089061737 -51.8695755004883 -0.0598690062761307
vertex 0.339758992195129 -57.8043403625488 -0.0199999995529652
endloop
endfacet
facet normal 0.707101702690125 0.00378918112255633 -0.707101702690125
outer loop
vertex 0.307954967021942 -51.8693695068359 -0.0199999995529652
vertex 0.339758992195129 -57.8043403625488 -0.0199999995529652
vertex 0.268087089061737 -51.8695755004883 -0.0598690062761307
endloop
endfacet
facet normal 0.707101702690125 0.00378918112255633 -0.707101702690125
outer loop
vertex 0.307954967021942 -51.8693695068359 -0.0199999995529652
vertex 0.268087089061737 -51.8695755004883 -0.0598690062761307
vertex 0.276150941848755 -45.934398651123 -0.0199999995529652
endloop
endfacet
facet normal 0.707101702690125 0.00378918112255633 -0.707101702690125
outer loop
vertex 0.256217002868652 -45.9345016479492 -0.0399345047771931
vertex 0.276150941848755 -45.934398651123 -0.0199999995529652
vertex 0.268087089061737 -51.8695755004883 -0.0598690062761307
endloop
endfacet
facet normal 0.707101702690125 0.00378918112255633 -0.707101702690125
outer loop
vertex 0.276150941848755 -45.934398651123 -0.0199999995529652
vertex 0.256217002868652 -45.9345016479492 -0.0399345047771931
vertex 0.244346916675568 -39.9994239807129 -0.0199999995529652
endloop
endfacet
facet normal 0.224106997251511 0.670658826828003 -0.707101702690125
outer loop
vertex 70.7822647094727 -70.1565246582031 -0.234346732497215
vertex 70.7383193969727 -70.2834854125977 -0.368693858385086
vertex 69.4116287231445 -69.6954650878906 -0.231454566121101
endloop
endfacet
facet normal 0.224107027053833 0.670658767223358 -0.707101702690125
outer loop
vertex 69.3692626953125 -69.8178329467773 -0.360944658517838
vertex 69.4116287231445 -69.6954650878906 -0.231454566121101
vertex 70.7383193969727 -70.2834854125977 -0.368693858385086
endloop
endfacet
facet normal 0.224107027053833 0.670658767223358 -0.707101702690125
outer loop
vertex 69.4116287231445 -69.6954650878906 -0.231454566121101
vertex 69.3692626953125 -69.8178329467773 -0.360944658517838
vertex 66.4026184082031 -68.6832809448242 -0.225105255842209
endloop
endfacet
facet normal 0.224106997251511 0.670658767223358 -0.707101702690125
outer loop
vertex 66.3637542724609 -68.7955780029297 -0.343932747840881
vertex 66.4026184082031 -68.6832809448242 -0.225105255842209
vertex 69.3692626953125 -69.8178329467773 -0.360944658517838
endloop
endfacet
facet normal 0.224107012152672 0.670658767223358 -0.707101702690125
outer loop
vertex 66.3637542724609 -68.7955780029297 -0.343932747840881
vertex 60.963680267334 -66.9588623046875 -0.313367068767548
vertex 66.4026184082031 -68.6832809448242 -0.225105255842209
endloop
endfacet
facet normal 0.224107012152672 0.670658767223358 -0.707101702690125
outer loop
vertex 60.9962692260742 -66.8646697998047 -0.21369731426239
vertex 66.4026184082031 -68.6832809448242 -0.225105255842209
vertex 60.963680267334 -66.9588623046875 -0.313367068767548
endloop
endfacet
facet normal 0.224106997251511 0.670658767223358 -0.707101702690125
outer loop
vertex 60.9962692260742 -66.8646697998047 -0.21369731426239
vertex 60.963680267334 -66.9588623046875 -0.313367068767548
vertex 55.3708992004395 -64.9723815917969 -0.201827242970467
endloop
endfacet
facet normal 0.224106997251511 0.670658767223358 -0.707101702690125
outer loop
vertex 55.3448295593262 -65.0477447509766 -0.281563013792038
vertex 55.3708992004395 -64.9723815917969 -0.201827242970467
vertex 60.963680267334 -66.9588623046875 -0.313367068767548
endloop
endfacet
facet normal 0.224106997251511 0.670658767223358 -0.707101702690125
outer loop
vertex 55.3448295593262 -65.0477447509766 -0.281563013792038
vertex 49.7259788513184 -63.1366157531738 -0.249759003520012
vertex 55.3708992004395 -64.9723815917969 -0.201827242970467
endloop
endfacet
facet normal 0.224107012152672 0.670658767223358 -0.70710164308548
outer loop
vertex 49.7455291748047 -63.0800971984863 -0.189957156777382
vertex 55.3708992004395 -64.9723815917969 -0.201827242970467
vertex 49.7259788513184 -63.1366157531738 -0.249759003520012
endloop
endfacet
facet normal 0.224107012152672 0.670658767223358 -0.70710164308548
outer loop
vertex 49.7455291748047 -63.0800971984863 -0.189957156777382
vertex 49.7259788513184 -63.1366157531738 -0.249759003520012
vertex 44.1201629638672 -61.1878128051758 -0.178087085485458
endloop
endfacet
facet normal 0.224106997251511 0.670658767223358 -0.707101702690125
outer loop
vertex 44.1071281433105 -61.2254905700684 -0.217954978346825
vertex 44.1201629638672 -61.1878128051758 -0.178087085485458
vertex 49.7259788513184 -63.1366157531738 -0.249759003520012
endloop
endfacet
facet normal 0.224106997251511 0.670658767223358 -0.707101702690125
outer loop
vertex 44.1071281433105 -61.2254905700684 -0.217954978346825
vertex 38.4882774353027 -59.3143692016602 -0.186150953173637
vertex 44.1201629638672 -61.1878128051758 -0.178087085485458
endloop
endfacet
facet normal 0.224106997251511 0.670658767223358 -0.707101702690125
outer loop
vertex 38.4947929382324 -59.2955284118652 -0.166216999292374
vertex 44.1201629638672 -61.1878128051758 -0.178087085485458
vertex 38.4882774353027 -59.3143692016602 -0.186150953173637
endloop
endfacet
facet normal 0.224106997251511 0.670658767223358 -0.707101702690125
outer loop
vertex 38.4882774353027 -59.3143692016602 -0.186150953173637
vertex 32.8694267272949 -57.4032440185547 -0.15434692800045
vertex 38.4947929382324 -59.2955284118652 -0.166216999292374
endloop
endfacet
endsolid COMSOL mesh mesh1
