solid COMSOL mesh mesh1
facet normal -0.00985072273761034 0.999951481819153 0
outer loop
vertex 0 0 0.150000005960464
vertex 0 0 0
vertex -0.978951811790466 -0.00964385084807873 0.150611877441406
endloop
endfacet
facet normal -0.00985072180628777 0.999951481819153 1.67145243092263e-17
outer loop
vertex -0.978951811790466 -0.00964385084807873 -0.000611874565947801
vertex -0.978951811790466 -0.00964385084807873 0.150611877441406
vertex 0 0 0
endloop
endfacet
facet normal -0.00985072273761034 0.999951481819153 1.67145259635875e-17
outer loop
vertex -0.978951811790466 -0.00964385084807873 0.150611877441406
vertex -0.978951811790466 -0.00964385084807873 -0.000611874565947801
vertex -2.61150288581848 -0.0257264357060194 0.151632264256477
endloop
endfacet
facet normal -0.00985072273761034 0.999951541423798 2.85428067133181e-17
outer loop
vertex -2.61150288581848 -0.0257264357060194 -0.00163226842414588
vertex -2.61150288581848 -0.0257264357060194 0.151632264256477
vertex -0.978951811790466 -0.00964385084807873 -0.000611874565947801
endloop
endfacet
facet normal -0.00985072180628777 0.999951422214508 5.58455241046314e-17
outer loop
vertex -5.33402967453003 -0.0525465942919254 0.153333932161331
vertex -2.61150288581848 -0.0257264357060194 0.151632264256477
vertex -5.33402967453003 -0.0525465942919254 -0.00333393015898764
endloop
endfacet
facet normal -0.00985072273761034 0.999951481819153 2.85428034045956e-17
outer loop
vertex -2.61150288581848 -0.0257264357060194 -0.00163226842414588
vertex -5.33402967453003 -0.0525465942919254 -0.00333393015898764
vertex -2.61150288581848 -0.0257264357060194 0.151632264256477
endloop
endfacet
facet normal -0.00985072087496519 0.999951422214508 5.58455174871865e-17
outer loop
vertex -5.33402967453003 -0.0525465942919254 0.153333932161331
vertex -5.33402967453003 -0.0525465942919254 -0.00333393015898764
vertex -9.87425708770752 -0.0972732752561569 0.156171709299088
endloop
endfacet
facet normal -0.00985072180628777 0.999951481819153 -6.31736825873611e-17
outer loop
vertex -9.87425708770752 -0.0972732752561569 -0.00617170985788107
vertex -9.87425708770752 -0.0972732752561569 0.156171709299088
vertex -5.33402967453003 -0.0525465942919254 -0.00333393015898764
endloop
endfacet
facet normal -0.00985072273761034 0.999951481819153 -1.77445064469201e-17
outer loop
vertex -15.8504314422607 -0.156145766377449 -0.0099070006981492
vertex -15.8504314422607 -0.156145766377449 0.159906998276711
vertex -9.87425708770752 -0.0972732752561569 -0.00617170985788107
endloop
endfacet
facet normal -0.00985072180628777 0.999951481819153 -6.31736759699162e-17
outer loop
vertex -9.87425708770752 -0.0972732752561569 0.156171709299088
vertex -9.87425708770752 -0.0972732752561569 -0.00617170985788107
vertex -15.8504314422607 -0.156145766377449 0.159906998276711
endloop
endfacet
facet normal -0.00985072087496519 0.999951422214508 -1.77445031381977e-17
outer loop
vertex -15.8504314422607 -0.156145766377449 -0.0099070006981492
vertex -21.8321304321289 -0.215072691440582 -0.0136457439512014
vertex -15.8504314422607 -0.156145766377449 0.159906998276711
endloop
endfacet
facet normal -0.00985072180628777 0.999951422214508 8.17023496375367e-17
outer loop
vertex -21.8321304321289 -0.215072691440582 0.16364574432373
vertex -15.8504314422607 -0.156145766377449 0.159906998276711
vertex -21.8321304321289 -0.215072691440582 -0.0136457439512014
endloop
endfacet
facet normal -0.00985072180628777 0.999951481819153 2.67804315820804e-16
outer loop
vertex -27.8138294219971 -0.273999601602554 -0.0173844862729311
vertex -27.8138294219971 -0.273999601602554 0.16738449037075
vertex -21.8321304321289 -0.215072691440582 -0.0136457439512014
endloop
endfacet
facet normal -0.00985072180628777 0.999951422214508 8.17023496375367e-17
outer loop
vertex -21.8321304321289 -0.215072691440582 0.16364574432373
vertex -21.8321304321289 -0.215072691440582 -0.0136457439512014
vertex -27.8138294219971 -0.273999601602554 0.16738449037075
endloop
endfacet
facet normal -0.00985072180628777 0.999951481819153 -7.56386723787146e-17
outer loop
vertex -33.2018356323242 -0.327077895402908 -0.020752152428031
vertex -33.2018356323242 -0.327077895402908 0.17075215280056
vertex -27.8138294219971 -0.273999601602554 -0.0173844862729311
endloop
endfacet
facet normal -0.00985072273761034 0.999951481819153 2.67804315820804e-16
outer loop
vertex -27.8138294219971 -0.273999601602554 0.16738449037075
vertex -27.8138294219971 -0.273999601602554 -0.0173844862729311
vertex -33.2018356323242 -0.327077895402908 0.17075215280056
endloop
endfacet
facet normal -0.00985072180628777 0.999951481819153 -7.56386723787146e-17
outer loop
vertex -33.2018356323242 -0.327077895402908 -0.020752152428031
vertex -36.6134605407715 -0.360686540603638 -0.0228845234960318
vertex -33.2018356323242 -0.327077895402908 0.17075215280056
endloop
endfacet
facet normal -0.00985072180628777 0.999951481819153 2.09549598403609e-16
outer loop
vertex -36.6134605407715 -0.360686540603638 0.172884523868561
vertex -33.2018356323242 -0.327077895402908 0.17075215280056
vertex -36.6134605407715 -0.360686540603638 -0.0228845234960318
endloop
endfacet
facet normal -0.00985072180628777 0.999951481819153 -2.79795125980372e-16
outer loop
vertex -38.7098541259766 -0.381338536739349 0.174194827675819
vertex -36.6134605407715 -0.360686540603638 0.172884523868561
vertex -38.7098541259766 -0.381338536739349 -0.0241948328912258
endloop
endfacet
facet normal -0.00985072180628777 0.999951481819153 2.09549611638499e-16
outer loop
vertex -36.6134605407715 -0.360686540603638 -0.0228845234960318
vertex -38.7098541259766 -0.381338536739349 -0.0241948328912258
vertex -36.6134605407715 -0.360686540603638 0.172884523868561
endloop
endfacet
facet normal -0.00985072273761034 0.999951481819153 -2.79795125980372e-16
outer loop
vertex -38.7098541259766 -0.381338536739349 0.174194827675819
vertex -38.7098541259766 -0.381338536739349 -0.0241948328912258
vertex -39.9980583190918 -0.394028872251511 0.174999997019768
endloop
endfacet
facet normal -0.00985072087496519 0.999951422214508 0
outer loop
vertex -39.9980583190918 -0.394028872251511 -0.025000000372529
vertex -39.9980583190918 -0.394028872251511 0.174999997019768
vertex -38.7098541259766 -0.381338536739349 -0.0241948328912258
endloop
endfacet
facet normal 0.000584051478654146 0.00415922235697508 0.999991178512573
outer loop
vertex -35.807315826416 -4.55249309539795 0.189848497509956
vertex -35.7865257263184 -4.5315375328064 0.189749196171761
vertex -39.9980583190918 -0.394028872251511 0.174999997019768
endloop
endfacet
facet normal 0.000584051478654146 0.00415922235697508 0.999991178512573
outer loop
vertex -31.6165714263916 -8.71095657348633 0.204696998000145
vertex -31.5749912261963 -8.66904640197754 0.204498395323753
vertex -35.807315826416 -4.55249309539795 0.189848497509956
endloop
endfacet
facet normal 0.000584051478654146 0.00415922235697508 0.999991178512573
outer loop
vertex -35.7865257263184 -4.5315375328064 0.189749196171761
vertex -35.807315826416 -4.55249309539795 0.189848497509956
vertex -31.5749912261963 -8.66904640197754 0.204498395323753
endloop
endfacet
facet normal 0.000584051478654146 0.00415922235697508 0.999991178512573
outer loop
vertex -31.6165714263916 -8.71095657348633 0.204696998000145
vertex -27.4258289337158 -12.869421005249 0.219545483589172
vertex -31.5749912261963 -8.66904640197754 0.204498395323753
endloop
endfacet
facet normal 0.000584051478654146 0.00415922189131379 0.999991118907928
outer loop
vertex -27.3634586334229 -12.8065547943115 0.219247579574585
vertex -31.5749912261963 -8.66904640197754 0.204498395323753
vertex -27.4258289337158 -12.869421005249 0.219545483589172
endloop
endfacet
facet normal 0.000584051478654146 0.00415922235697508 0.999991178512573
outer loop
vertex -23.2350845336914 -17.0278854370117 0.234393984079361
vertex -23.1519241333008 -16.9440631866455 0.233996778726578
vertex -27.4258289337158 -12.869421005249 0.219545483589172
endloop
endfacet
facet normal 0.000584051478654146 0.00415922189131379 0.999991118907928
outer loop
vertex -27.3634586334229 -12.8065547943115 0.219247579574585
vertex -27.4258289337158 -12.869421005249 0.219545483589172
vertex -23.1519241333008 -16.9440631866455 0.233996778726578
endloop
endfacet
facet normal 0.000584051478654146 0.00415922235697508 0.999991178512573
outer loop
vertex -23.2350845336914 -17.0278854370117 0.234393984079361
vertex -19.044340133667 -21.1863498687744 0.24924248456955
vertex -23.1519241333008 -16.9440631866455 0.233996778726578
endloop
endfacet
facet normal 0.000584051478654146 0.00415922235697508 0.999991178512573
outer loop
vertex -18.9403915405273 -21.0815715789795 0.248745977878571
vertex -23.1519241333008 -16.9440631866455 0.233996778726578
vertex -19.044340133667 -21.1863498687744 0.24924248456955
endloop
endfacet
facet normal 0.000584051420446485 0.00415922189131379 0.999991118907928
outer loop
vertex -14.9904174804688 -25.2090473175049 0.263606190681458
vertex -14.86634349823 -25.0840091705322 0.263013690710068
vertex -19.044340133667 -21.1863498687744 0.24924248456955
endloop
endfacet
facet normal 0.000584051536861807 0.00415922235697508 0.999991238117218
outer loop
vertex -18.9403915405273 -21.0815715789795 0.248745977878571
vertex -19.044340133667 -21.1863498687744 0.24924248456955
vertex -14.86634349823 -25.0840091705322 0.263013690710068
endloop
endfacet
facet normal 0.000584051478654146 0.00415922189131379 0.999991178512573
outer loop
vertex -14.9904174804688 -25.2090473175049 0.263606190681458
vertex -12.6759824752808 -27.5056552886963 0.271806627511978
vertex -14.86634349823 -25.0840091705322 0.263013690710068
endloop
endfacet
facet normal 0.000584051478654146 0.00415922235697508 0.999991178512573
outer loop
vertex -12.5404167175293 -27.3690547943115 0.271159291267395
vertex -14.86634349823 -25.0840091705322 0.263013690710068
vertex -12.6759824752808 -27.5056552886963 0.271806627511978
endloop
endfacet
facet normal 0.000584051478654146 0.00415922189131379 0.999991178512573
outer loop
vertex -12.6759824752808 -27.5056552886963 0.271806627511978
vertex -11.6047372817993 -28.5686473846436 0.275602221488953
vertex -12.5404167175293 -27.3690547943115 0.271159291267395
endloop
endfacet
facet normal 0.000584051420446485 0.00415922189131379 0.999991118907928
outer loop
vertex -11.4638652801514 -28.426685333252 0.274929493665695
vertex -12.5404167175293 -27.3690547943115 0.271159291267395
vertex -11.6047372817993 -28.5686473846436 0.275602221488953
endloop
endfacet
facet normal -0.707111954689026 0.00356067414395511 0.707092583179474
outer loop
vertex -4.17460823059082 -0.0116062816232443 -4.17466402053833
vertex -4.1746392250061 -0.0411252081394196 -4.17454624176025
vertex 0 0 0
endloop
endfacet
facet normal -0.707111954689026 0.00356067414395511 0.707092583179474
outer loop
vertex -8.34921646118164 -0.0232125632464886 -8.34932804107666
vertex -8.34927845001221 -0.0822504162788391 -8.34909248352051
vertex -4.17460823059082 -0.0116062816232443 -4.17466402053833
endloop
endfacet
facet normal -0.707111954689026 0.00356067414395511 0.707092583179474
outer loop
vertex -4.1746392250061 -0.0411252081394196 -4.17454624176025
vertex -4.17460823059082 -0.0116062816232443 -4.17466402053833
vertex -8.34927845001221 -0.0822504162788391 -8.34909248352051
endloop
endfacet
facet normal -0.707111954689026 0.00356067414395511 0.707092583179474
outer loop
vertex -8.34921646118164 -0.0232125632464886 -8.34932804107666
vertex -12.5238246917725 -0.0348188430070877 -12.5239915847778
vertex -8.34927845001221 -0.0822504162788391 -8.34909248352051
endloop
endfacet
facet normal -0.707111954689026 0.00356067414395511 0.707092642784119
outer loop
vertex -12.5239181518555 -0.123375624418259 -12.5236387252808
vertex -8.34927845001221 -0.0822504162788391 -8.34909248352051
vertex -12.5238246917725 -0.0348188430070877 -12.5239915847778
endloop
endfacet
facet normal -0.707111954689026 0.00356067414395511 0.707092583179474
outer loop
vertex -16.6984329223633 -0.0464251264929771 -16.6986560821533
vertex -16.6985569000244 -0.164500832557678 -16.698184967041
vertex -12.5238246917725 -0.0348188430070877 -12.5239915847778
endloop
endfacet
facet normal -0.707111954689026 0.00356067414395511 0.707092642784119
outer loop
vertex -12.5239181518555 -0.123375624418259 -12.5236387252808
vertex -12.5238246917725 -0.0348188430070877 -12.5239915847778
vertex -16.6985569000244 -0.164500832557678 -16.698184967041
endloop
endfacet
facet normal -0.707111954689026 0.00356067414395511 0.707092583179474
outer loop
vertex -16.6984329223633 -0.0464251264929771 -16.6986560821533
vertex -20.8730411529541 -0.0580314062535763 -20.8733196258545
vertex -16.6985569000244 -0.164500832557678 -16.698184967041
endloop
endfacet
facet normal -0.707111954689026 0.00356067437678576 0.707092583179474
outer loop
vertex -20.8731956481934 -0.205626040697098 -20.8727321624756
vertex -16.6985569000244 -0.164500832557678 -16.698184967041
vertex -20.8730411529541 -0.0580314062535763 -20.8733196258545
endloop
endfacet
facet normal -0.707111954689026 0.00356067414395511 0.707092583179474
outer loop
vertex -24.9113597869873 -0.0692587792873383 -24.911693572998
vertex -24.9115581512451 -0.245408743619919 -24.911003112793
vertex -20.8730411529541 -0.0580314062535763 -20.8733196258545
endloop
endfacet
facet normal -0.707111954689026 0.00356067437678576 0.707092642784119
outer loop
vertex -20.8731956481934 -0.205626040697098 -20.8727321624756
vertex -20.8730411529541 -0.0580314062535763 -20.8733196258545
vertex -24.9115581512451 -0.245408743619919 -24.911003112793
endloop
endfacet
facet normal -0.707111954689026 0.00356067437678576 0.707092642784119
outer loop
vertex -24.9113597869873 -0.0692587792873383 -24.911693572998
vertex -27.2168979644775 -0.0756686553359032 -27.2172622680664
vertex -24.9115581512451 -0.245408743619919 -24.911003112793
endloop
endfacet
facet normal -0.707111954689026 0.00356067437678576 0.707092642784119
outer loop
vertex -27.2171230316162 -0.268121331930161 -27.216516494751
vertex -24.9115581512451 -0.245408743619919 -24.911003112793
vertex -27.2168979644775 -0.0756686553359032 -27.2172622680664
endloop
endfacet
facet normal -0.707112014293671 0.0035606746096164 0.707092702388763
outer loop
vertex -27.2168979644775 -0.0756686553359032 -27.2172622680664
vertex -28.284029006958 -0.0786354914307594 -28.2844047546387
vertex -27.2171230316162 -0.268121331930161 -27.216516494751
endloop
endfacet
facet normal -0.707111954689026 0.00356067437678576 0.707092642784119
outer loop
vertex -28.2842540740967 -0.278633832931519 -28.2836227416992
vertex -27.2171230316162 -0.268121331930161 -27.216516494751
vertex -28.284029006958 -0.0786354914307594 -28.2844047546387
endloop
endfacet
facet normal 0.707095861434937 0.00497479131445289 -0.70710027217865
outer loop
vertex 0.000192311374121346 -0.0299993772059679 -1.87499117600964e-05
vertex -0.149744048714638 -0.031317450106144 -0.149963438510895
vertex 0 0 0
endloop
endfacet
facet normal 0.707095801830292 0.0049747908487916 -0.707100212574005
outer loop
vertex -0.149942129850388 -0.000416870374465361 -0.149944126605988
vertex 0 0 0
vertex -0.149744048714638 -0.031317450106144 -0.149963438510895
endloop
endfacet
facet normal 0.707095801830292 0.0049747908487916 -0.70710027217865
outer loop
vertex -0.149744048714638 -0.031317450106144 -0.149963438510895
vertex -0.402635872364044 -0.0335405878722668 -0.402869343757629
vertex -0.149942129850388 -0.000416870374465361 -0.149944126605988
endloop
endfacet
facet normal 0.707095861434937 0.00497479131445289 -0.70710027217865
outer loop
vertex -0.402843713760376 -0.00111998955253512 -0.402849078178406
vertex -0.149942129850388 -0.000416870374465361 -0.149944126605988
vertex -0.402635872364044 -0.0335405878722668 -0.402869343757629
endloop
endfacet
facet normal 0.707095861434937 0.00497479131445289 -0.70710027217865
outer loop
vertex -0.829178750514984 -0.0372902676463127 -0.82943594455719
vertex -0.829402983188629 -0.00230591325089335 -0.829414069652557
vertex -0.402635872364044 -0.0335405878722668 -0.402869343757629
endloop
endfacet
facet normal 0.707095801830292 0.0049747908487916 -0.707100212574005
outer loop
vertex -0.402843713760376 -0.00111998955253512 -0.402849078178406
vertex -0.402635872364044 -0.0335405878722668 -0.402869343757629
vertex -0.829402983188629 -0.00230591325089335 -0.829414069652557
endloop
endfacet
facet normal 0.707095801830292 0.00497479131445289 -0.70710027217865
outer loop
vertex -0.829178750514984 -0.0372902676463127 -0.82943594455719
vertex -1.54861199855804 -0.043614711612463 -1.54890918731689
vertex -0.829402983188629 -0.00230591325089335 -0.829414069652557
endloop
endfacet
facet normal 0.707095801830292 0.00497479131445289 -0.70710027217865
outer loop
vertex -1.54886400699615 -0.00430616503581405 -1.54888463020325
vertex -0.829402983188629 -0.00230591325089335 -0.829414069652557
vertex -1.54861199855804 -0.043614711612463 -1.54890918731689
endloop
endfacet
facet normal 0.707095801830292 0.00497479131445289 -0.70710027217865
outer loop
vertex -1.54861199855804 -0.043614711612463 -1.54890918731689
vertex -2.76205229759216 -0.0542819052934647 -2.76241707801819
vertex -1.54886400699615 -0.00430616503581405 -1.54888463020325
endloop
endfacet
facet normal 0.707095861434937 0.00497479131445289 -0.707100212574005
outer loop
vertex -2.76235103607178 -0.00767991179600358 -2.76238775253296
vertex -1.54886400699615 -0.00430616503581405 -1.54888463020325
vertex -2.76205229759216 -0.0542819052934647 -2.76241707801819
endloop
endfacet
facet normal 0.707095801830292 0.0049747908487916 -0.707100212574005
outer loop
vertex -4.80871486663818 -0.072273850440979 -4.80919361114502
vertex -4.80909252166748 -0.0133702801540494 -4.80915641784668
vertex -2.76205229759216 -0.0542819052934647 -2.76241707801819
endloop
endfacet
facet normal 0.707095801830292 0.00497479131445289 -0.707100212574005
outer loop
vertex -2.76235103607178 -0.00767991179600358 -2.76238775253296
vertex -2.76205229759216 -0.0542819052934647 -2.76241707801819
vertex -4.80909252166748 -0.0133702801540494 -4.80915641784668
endloop
endfacet
facet normal 0.707095861434937 0.00497479131445289 -0.70710027217865
outer loop
vertex -4.80871486663818 -0.072273850440979 -4.80919361114502
vertex -8.23398590087891 -0.102384954690933 -8.23465442657471
vertex -4.80909252166748 -0.0133702801540494 -4.80915641784668
endloop
endfacet
facet normal 0.707095861434937 0.00497479131445289 -0.70710027217865
outer loop
vertex -8.23449516296387 -0.02289361320436 -8.23460483551025
vertex -4.80909252166748 -0.0133702801540494 -4.80915641784668
vertex -8.23398590087891 -0.102384954690933 -8.23465442657471
endloop
endfacet
facet normal 0.707095861434937 0.00497479131445289 -0.707100212574005
outer loop
vertex -8.23449516296387 -0.02289361320436 -8.23460483551025
vertex -8.23398590087891 -0.102384954690933 -8.23465442657471
vertex -12.284951210022 -0.03415472432971 -12.2851152420044
endloop
endfacet
facet normal 0.707095801830292 0.0049747908487916 -0.707100212574005
outer loop
vertex -12.2842855453491 -0.137990608811378 -12.2851800918579
vertex -12.284951210022 -0.03415472432971 -12.2851152420044
vertex -8.23398590087891 -0.102384954690933 -8.23465442657471
endloop
endfacet
facet normal 0.707095861434937 0.0049747908487916 -0.707100212574005
outer loop
vertex -16.3345851898193 -0.173596262931824 -16.3357048034668
vertex -16.3354072570801 -0.0454158373177052 -16.3356246948242
vertex -12.2842855453491 -0.137990608811378 -12.2851800918579
endloop
endfacet
facet normal 0.707095801830292 0.0049747908487916 -0.707100212574005
outer loop
vertex -12.284951210022 -0.03415472432971 -12.2851152420044
vertex -12.2842855453491 -0.137990608811378 -12.2851800918579
vertex -16.3354072570801 -0.0454158373177052 -16.3356246948242
endloop
endfacet
facet normal 0.707095861434937 0.0049747908487916 -0.707100212574005
outer loop
vertex -16.3345851898193 -0.173596262931824 -16.3357048034668
vertex -20.3848857879639 -0.209201917052269 -20.38623046875
vertex -16.3354072570801 -0.0454158373177052 -16.3356246948242
endloop
endfacet
facet normal 0.707095801830292 0.0049747908487916 -0.707100212574005
outer loop
vertex -20.3858642578125 -0.0566769503057003 -20.3861351013184
vertex -16.3354072570801 -0.0454158373177052 -16.3356246948242
vertex -20.3848857879639 -0.209201917052269 -20.38623046875
endloop
endfacet
facet normal 0.707095861434937 0.00497479131445289 -0.707100212574005
outer loop
vertex -20.3848857879639 -0.209201917052269 -20.38623046875
vertex -23.7985420227051 -0.239210918545723 -23.8000774383545
vertex -20.3858642578125 -0.0566769503057003 -20.3861351013184
endloop
endfacet
facet normal 0.707095801830292 0.00497479131445289 -0.70710027217865
outer loop
vertex -23.7996520996094 -0.0661679953336716 -23.7999687194824
vertex -20.3858642578125 -0.0566769503057003 -20.3861351013184
vertex -23.7985420227051 -0.239210918545723 -23.8000774383545
endloop
endfacet
facet normal 0.707095801830292 0.00497479131445289 -0.707100212574005
outer loop
vertex -25.9868030548096 -0.258447617292404 -25.9884586334229
vertex -25.9879970550537 -0.0722520500421524 -25.9883422851563
vertex -23.7985420227051 -0.239210918545723 -23.8000774383545
endloop
endfacet
facet normal 0.707095801830292 0.0049747908487916 -0.707100212574005
outer loop
vertex -23.7996520996094 -0.0661679953336716 -23.7999687194824
vertex -23.7985420227051 -0.239210918545723 -23.8000774383545
vertex -25.9879970550537 -0.0722520500421524 -25.9883422851563
endloop
endfacet
facet normal 0.707095801830292 0.0049747908487916 -0.707100212574005
outer loop
vertex -25.9868030548096 -0.258447617292404 -25.9884586334229
vertex -27.38694190979 -0.27075606584549 -27.3886775970459
vertex -25.9879970550537 -0.0722520500421524 -25.9883422851563
endloop
endfacet
facet normal 0.707095801830292 0.00497479131445289 -0.707100212574005
outer loop
vertex -27.3881893157959 -0.0761448815464973 -27.3885555267334
vertex -25.9879970550537 -0.0722520500421524 -25.9883422851563
vertex -27.38694190979 -0.27075606584549 -27.3886775970459
endloop
endfacet
facet normal 0.707095801830292 0.00497479131445289 -0.707100212574005
outer loop
vertex -27.38694190979 -0.27075606584549 -27.3886775970459
vertex -28.2828102111816 -0.278631538152695 -28.2845935821533
vertex -27.3881893157959 -0.0761448815464973 -27.3885555267334
endloop
endfacet
facet normal 0.707095801830292 0.0049747908487916 -0.707100212574005
outer loop
vertex -28.2840919494629 -0.0786356702446938 -28.2844696044922
vertex -27.3881893157959 -0.0761448815464973 -27.3885555267334
vertex -28.2828102111816 -0.278631538152695 -28.2845935821533
endloop
endfacet
facet normal -0.325567573308945 -0.945518791675568 -9.35762782501093e-15
outer loop
vertex -4.84760999679565 -44.7501678466797 0.0595493912696838
vertex -4.84760999679565 -44.7501678466797 0.0904506072402
vertex -5.04810905456543 -44.6811294555664 0.0599999986588955
endloop
endfacet
facet normal -0.325567603111267 -0.945518791675568 -0
outer loop
vertex -5.04810905456543 -44.6811294555664 0.0900000035762787
vertex -5.04810905456543 -44.6811294555664 0.0599999986588955
vertex -4.84760999679565 -44.7501678466797 0.0904506072402
endloop
endfacet
facet normal -0.325567573308945 -0.945518791675568 4.23357610903827e-13
outer loop
vertex -4.50943660736084 -44.8666114807129 0.0587893649935722
vertex -4.50943660736084 -44.8666114807129 0.0912106335163116
vertex -4.84760999679565 -44.7501678466797 0.0595493912696838
endloop
endfacet
facet normal -0.325567603111267 -0.945518791675568 -9.35762867204388e-15
outer loop
vertex -4.84760999679565 -44.7501678466797 0.0904506072402
vertex -4.84760999679565 -44.7501678466797 0.0595493912696838
vertex -4.50943660736084 -44.8666114807129 0.0912106335163116
endloop
endfacet
facet normal -0.325567573308945 -0.945518791675568 4.23357610903827e-13
outer loop
vertex -4.50943660736084 -44.8666114807129 0.0587893649935722
vertex -3.93905282020569 -45.0630073547363 0.0575074590742588
vertex -4.50943660736084 -44.8666114807129 0.0912106335163116
endloop
endfacet
facet normal -0.325567603111267 -0.945518732070923 3.34475638375312e-13
outer loop
vertex -3.93905282020569 -45.0630073547363 0.0924925431609154
vertex -4.50943660736084 -44.8666114807129 0.0912106335163116
vertex -3.93905282020569 -45.0630073547363 0.0575074590742588
endloop
endfacet
facet normal -0.325567543506622 -0.945518732070923 1.23094365104583e-13
outer loop
vertex -2.97700834274292 -45.3942680358887 0.055345319211483
vertex -2.97700834274292 -45.3942680358887 0.0946546792984009
vertex -3.93905282020569 -45.0630073547363 0.0575074590742588
endloop
endfacet
facet normal -0.325567543506622 -0.945518732070923 3.34475611270257e-13
outer loop
vertex -3.93905282020569 -45.0630073547363 0.0924925431609154
vertex -3.93905282020569 -45.0630073547363 0.0575074590742588
vertex -2.97700834274292 -45.3942680358887 0.0946546792984009
endloop
endfacet
facet normal -0.325567603111267 -0.945518791675568 1.00727084550827e-13
outer loop
vertex -1.35436511039734 -45.9529876708984 0.0516985207796097
vertex -1.35436511039734 -45.9529876708984 0.0983014777302742
vertex -2.97700834274292 -45.3942680358887 0.055345319211483
endloop
endfacet
facet normal -0.325567603111267 -0.945518732070923 1.2309437865711e-13
outer loop
vertex -2.97700834274292 -45.3942680358887 0.0946546792984009
vertex -2.97700834274292 -45.3942680358887 0.055345319211483
vertex -1.35436511039734 -45.9529876708984 0.0983014777302742
endloop
endfacet
facet normal -0.325567603111267 -0.945518732070923 1.00727084550827e-13
outer loop
vertex -1.35436511039734 -45.9529876708984 0.0516985207796097
vertex 1.38248431682587 -46.8953552246094 0.0455476045608521
vertex -1.35436511039734 -45.9529876708984 0.0983014777302742
endloop
endfacet
facet normal -0.325567603111267 -0.945518791675568 1.71654398052438e-13
outer loop
vertex 1.38248431682587 -46.8953552246094 0.104452393949032
vertex -1.35436511039734 -45.9529876708984 0.0983014777302742
vertex 1.38248431682587 -46.8953552246094 0.0455476045608521
endloop
endfacet
facet normal -0.325567603111267 -0.945518791675568 1.5400539594675e-14
outer loop
vertex 5.9628438949585 -48.4724998474121 0.0352535061538219
vertex 5.9628438949585 -48.4724998474121 0.114746496081352
vertex 1.38248431682587 -46.8953552246094 0.0455476045608521
endloop
endfacet
facet normal -0.325567603111267 -0.945518791675568 1.71654398052438e-13
outer loop
vertex 1.38248431682587 -46.8953552246094 0.104452393949032
vertex 1.38248431682587 -46.8953552246094 0.0455476045608521
vertex 5.9628438949585 -48.4724998474121 0.114746496081352
endloop
endfacet
facet normal -0.325567573308945 -0.945518791675568 1.5400539594675e-14
outer loop
vertex 5.9628438949585 -48.4724998474121 0.0352535061538219
vertex 11.3790082931519 -50.3374290466309 0.0230809822678566
vertex 5.9628438949585 -48.4724998474121 0.114746496081352
endloop
endfacet
facet normal -0.325567573308945 -0.945518791675568 8.48440173911551e-14
outer loop
vertex 11.3790082931519 -50.3374290466309 0.126919016242027
vertex 5.9628438949585 -48.4724998474121 0.114746496081352
vertex 11.3790082931519 -50.3374290466309 0.0230809822678566
endloop
endfacet
facet normal -0.325567573308945 -0.945518732070923 -3.60936358112605e-14
outer loop
vertex 16.7951717376709 -52.2023620605469 0.139091536402702
vertex 11.3790082931519 -50.3374290466309 0.126919016242027
vertex 16.7951717376709 -52.2023620605469 0.0109084602445364
endloop
endfacet
facet normal -0.325567573308945 -0.945518791675568 8.48440173911551e-14
outer loop
vertex 11.3790082931519 -50.3374290466309 0.0230809822678566
vertex 16.7951717376709 -52.2023620605469 0.0109084602445364
vertex 11.3790082931519 -50.3374290466309 0.126919016242027
endloop
endfacet
facet normal -0.325567573308945 -0.945518732070923 -3.60936358112605e-14
outer loop
vertex 16.7951717376709 -52.2023620605469 0.139091536402702
vertex 16.7951717376709 -52.2023620605469 0.0109084602445364
vertex 22.2113361358643 -54.0672912597656 0.151264056563377
endloop
endfacet
facet normal -0.325567573308945 -0.945518732070923 -4.40464010479768e-14
outer loop
vertex 22.2113361358643 -54.0672912597656 -0.00126406282652169
vertex 22.2113361358643 -54.0672912597656 0.151264056563377
vertex 16.7951717376709 -52.2023620605469 0.0109084602445364
endloop
endfacet
facet normal -0.325567573308945 -0.945518732070923 -4.4046397659845e-14
outer loop
vertex 22.2113361358643 -54.0672912597656 0.151264056563377
vertex 22.2113361358643 -54.0672912597656 -0.00126406282652169
vertex 26.7761650085449 -55.6390838623047 0.161523252725601
endloop
endfacet
facet normal -0.325567573308945 -0.945518791675568 0
outer loop
vertex 26.7761650085449 -55.6390838623047 -0.0115232560783625
vertex 26.7761650085449 -55.6390838623047 0.161523252725601
vertex 22.2113361358643 -54.0672912597656 -0.00126406282652169
endloop
endfacet
facet normal -0.325567603111267 -0.945518732070923 -4.22931648199048e-14
outer loop
vertex 29.7023620605469 -56.646656036377 0.168099716305733
vertex 26.7761650085449 -55.6390838623047 0.161523252725601
vertex 29.7023620605469 -56.646656036377 -0.0180997215211391
endloop
endfacet
facet normal -0.325567603111267 -0.945518732070923 0
outer loop
vertex 26.7761650085449 -55.6390838623047 -0.0115232560783625
vertex 29.7023620605469 -56.646656036377 -0.0180997215211391
vertex 26.7761650085449 -55.6390838623047 0.161523252725601
endloop
endfacet
facet normal -0.325567573308945 -0.945518732070923 -4.2293161431773e-14
outer loop
vertex 29.7023620605469 -56.646656036377 0.168099716305733
vertex 29.7023620605469 -56.646656036377 -0.0180997215211391
vertex 31.5746650695801 -57.2913398742676 0.17230761051178
endloop
endfacet
facet normal -0.325567573308945 -0.945518791675568 2.85777566162108e-14
outer loop
vertex 31.5746650695801 -57.2913398742676 -0.0223076157271862
vertex 31.5746650695801 -57.2913398742676 0.17230761051178
vertex 29.7023620605469 -56.646656036377 -0.0180997215211391
endloop
endfacet
facet normal -0.325567603111267 -0.945518791675568 2.85777566162108e-14
outer loop
vertex 31.5746650695801 -57.2913398742676 0.17230761051178
vertex 31.5746650695801 -57.2913398742676 -0.0223076157271862
vertex 32.7726402282715 -57.7038345336914 0.174999997019768
endloop
endfacet
facet normal -0.325567573308945 -0.945518732070923 0
outer loop
vertex 32.7726402282715 -57.7038345336914 -0.025000000372529
vertex 32.7726402282715 -57.7038345336914 0.174999997019768
vertex 31.5746650695801 -57.2913398742676 -0.0223076157271862
endloop
endfacet
facet normal 0.00535964407026768 -0.00182056298945099 0.9999840259552
outer loop
vertex 32.8178482055664 -57.5698356628418 -0.166416376829147
vertex 32.8821754455566 -57.3804626464844 -0.166416376829147
vertex 31.5983123779297 -57.1547317504883 -0.159124255180359
endloop
endfacet
facet normal 0.00535964453592896 -0.00182056310586631 0.9999840259552
outer loop
vertex 31.6621208190918 -56.9668846130371 -0.159124255180359
vertex 31.5983123779297 -57.1547317504883 -0.159124255180359
vertex 32.8821754455566 -57.3804626464844 -0.166416376829147
endloop
endfacet
facet normal 0.00535964360460639 -0.00182056298945099 0.999983966350555
outer loop
vertex 31.5983123779297 -57.1547317504883 -0.159124255180359
vertex 31.6621208190918 -56.9668846130371 -0.159124255180359
vertex 29.6136665344238 -56.4792060852051 -0.14725723862648
endloop
endfacet
facet normal 0.00535964407026768 -0.00182056298945099 0.9999840259552
outer loop
vertex 29.6766319274902 -56.2938385009766 -0.14725723862648
vertex 29.6136665344238 -56.4792060852051 -0.14725723862648
vertex 31.6621208190918 -56.9668846130371 -0.159124255180359
endloop
endfacet
facet normal 0.00535964360460639 -0.00182056298945099 0.999983966350555
outer loop
vertex 29.6136665344238 -56.4792060852051 -0.14725723862648
vertex 29.6766319274902 -56.2938385009766 -0.14725723862648
vertex 26.3838958740234 -55.3798637390137 -0.127945095300674
endloop
endfacet
facet normal 0.00535964360460639 -0.00182056287303567 0.999983966350555
outer loop
vertex 26.4454898834229 -55.1985359191895 -0.127945095300674
vertex 26.3838958740234 -55.3798637390137 -0.127945095300674
vertex 29.6766319274902 -56.2938385009766 -0.14725723862648
endloop
endfacet
facet normal 0.00535964360460639 -0.00182056287303567 0.999983966350555
outer loop
vertex 26.3838958740234 -55.3798637390137 -0.127945095300674
vertex 26.4454898834229 -55.1985359191895 -0.127945095300674
vertex 21.2831001281738 -53.643669128418 -0.0974453017115593
endloop
endfacet
facet normal 0.00535964407026768 -0.00182056298945099 0.9999840259552
outer loop
vertex 21.3425273895264 -53.4687194824219 -0.0974453017115593
vertex 21.2831001281738 -53.643669128418 -0.0974453017115593
vertex 26.4454898834229 -55.1985359191895 -0.127945095300674
endloop
endfacet
facet normal 0.00535964407026768 -0.00182056298945099 0.999983906745911
outer loop
vertex 21.2831001281738 -53.643669128418 -0.0974453017115593
vertex 21.3425273895264 -53.4687194824219 -0.0974453017115593
vertex 15.6202564239502 -51.7161674499512 -0.0635847896337509
endloop
endfacet
facet normal 0.00535964407026768 -0.00182056310586631 0.9999840259552
outer loop
vertex 15.6772785186768 -51.5482978820801 -0.0635847896337509
vertex 15.6202564239502 -51.7161674499512 -0.0635847896337509
vertex 21.3425273895264 -53.4687194824219 -0.0974453017115593
endloop
endfacet
facet normal 0.00535964407026768 -0.00182056310586631 0.9999840259552
outer loop
vertex 15.6772785186768 -51.5482978820801 -0.0635847896337509
vertex 10.0120306015015 -49.6278762817383 -0.029724283143878
vertex 15.6202564239502 -51.7161674499512 -0.0635847896337509
endloop
endfacet
facet normal 0.00535964360460639 -0.00182056275662035 0.999983906745911
outer loop
vertex 9.95741271972656 -49.7886657714844 -0.029724283143878
vertex 15.6202564239502 -51.7161674499512 -0.0635847896337509
vertex 10.0120306015015 -49.6278762817383 -0.029724283143878
endloop
endfacet
facet normal 0.00535964407026768 -0.00182056287303567 0.999983966350555
outer loop
vertex 4.2997989654541 -47.8629455566406 0.00410495279356837
vertex 9.95741271972656 -49.7886657714844 -0.029724283143878
vertex 4.35201358795166 -47.709228515625 0.00410495279356837
endloop
endfacet
facet normal 0.00535964453592896 -0.00182056298945099 0.9999840259552
outer loop
vertex 10.0120306015015 -49.6278762817383 -0.029724283143878
vertex 4.35201358795166 -47.709228515625 0.00410495279356837
vertex 9.95741271972656 -49.7886657714844 -0.029724283143878
endloop
endfacet
facet normal 0.00535964453592896 -0.00182056310586631 0.999983966350555
outer loop
vertex 4.2997989654541 -47.8629455566406 0.00410495279356837
vertex 4.35201358795166 -47.709228515625 0.00410495279356837
vertex 0.00158938311506063 -46.3999328613281 0.0298057440668344
endloop
endfacet
facet normal 0.00535964453592896 -0.00182056310586631 0.999983966350555
outer loop
vertex 0.0519786179065704 -46.2515869140625 0.0298057440668344
vertex 0.00158938311506063 -46.3999328613281 0.0298057440668344
vertex 4.35201358795166 -47.709228515625 0.00410495279356837
endloop
endfacet
facet normal 0.00535964407026768 -0.00182056298945099 0.9999840259552
outer loop
vertex 0.0519786179065704 -46.2515869140625 0.0298057440668344
vertex -2.52651810646057 -45.3775215148926 0.0452171079814434
vertex 0.00158938311506063 -46.3999328613281 0.0298057440668344
endloop
endfacet
facet normal 0.00535964407026768 -0.00182056298945099 0.9999840259552
outer loop
vertex -2.57581281661987 -45.5226440429688 0.0452171079814434
vertex 0.00158938311506063 -46.3999328613281 0.0298057440668344
vertex -2.52651810646057 -45.3775215148926 0.0452171079814434
endloop
endfacet
facet normal 0.00535964360460639 -0.00182056287303567 0.999983906745911
outer loop
vertex -2.57581281661987 -45.5226440429688 0.0452171079814434
vertex -2.52651810646057 -45.3775215148926 0.0452171079814434
vertex -4.12134027481079 -44.99658203125 0.05445846170187
endloop
endfacet
facet normal 0.00535964407026768 -0.00182056298945099 0.9999840259552
outer loop
vertex -4.07270193099976 -44.8533935546875 0.05445846170187
vertex -4.12134027481079 -44.99658203125 0.05445846170187
vertex -2.52651810646057 -45.3775215148926 0.0452171079814434
endloop
endfacet
facet normal 0.00535964407026768 -0.00182056287303567 0.9999840259552
outer loop
vertex -4.12134027481079 -44.99658203125 0.05445846170187
vertex -4.07270193099976 -44.8533935546875 0.05445846170187
vertex -5.04810905456543 -44.6811294555664 0.0599999986588955
endloop
endfacet
facet normal 0.00535964407026768 -0.00182056310586631 0.999983966350555
outer loop
vertex -4.99986410140991 -44.5391006469727 0.0599999986588955
vertex -5.04810905456543 -44.6811294555664 0.0599999986588955
vertex -4.07270193099976 -44.8533935546875 0.05445846170187
endloop
endfacet
facet normal -0.231633514165878 -0.668098628520966 -0.707099735736847
outer loop
vertex 32.8183135986328 -57.5699920654297 -0.166419833898544
vertex 32.7725563049316 -57.7038040161133 -0.0249990727752447
vertex 31.3896713256836 -57.0837173461914 -0.15787735581398
endloop
endfacet
facet normal -0.231633514165878 -0.668098628520966 -0.707099795341492
outer loop
vertex 31.345630645752 -57.212474822998 -0.0217921640723944
vertex 31.3896713256836 -57.0837173461914 -0.15787735581398
vertex 32.7725563049316 -57.7038040161133 -0.0249990727752447
endloop
endfacet
facet normal -0.231633514165878 -0.66809868812561 -0.707099795341492
outer loop
vertex 31.3896713256836 -57.0837173461914 -0.15787735581398
vertex 31.345630645752 -57.212474822998 -0.0217921640723944
vertex 28.3030395507813 -56.0330963134766 -0.139421045780182
endloop
endfacet
facet normal -0.231633499264717 -0.668098628520966 -0.707099795341492
outer loop
vertex 28.2627391815186 -56.150951385498 -0.0148636028170586
vertex 28.3030395507813 -56.0330963134766 -0.139421045780182
vertex 31.345630645752 -57.212474822998 -0.0217921640723944
endloop
endfacet
facet normal -0.231633529067039 -0.66809868812561 -0.707099795341492
outer loop
vertex 28.2627391815186 -56.150951385498 -0.0148636028170586
vertex 22.8628063201904 -54.2916107177734 -0.00272766011767089
vertex 28.3030395507813 -56.0330963134766 -0.139421045780182
endloop
endfacet
facet normal -0.231633529067039 -0.668098628520966 -0.707099854946136
outer loop
vertex 22.8965587615967 -54.1928558349609 -0.107093334197998
vertex 28.3030395507813 -56.0330963134766 -0.139421045780182
vertex 22.8628063201904 -54.2916107177734 -0.00272766011767089
endloop
endfacet
facet normal -0.231633514165878 -0.668098628520966 -0.707099795341492
outer loop
vertex 22.8965587615967 -54.1928558349609 -0.107093334197998
vertex 22.8628063201904 -54.2916107177734 -0.00272766011767089
vertex 17.3076248168945 -52.2905082702637 -0.0736746713519096
endloop
endfacet
facet normal -0.231633514165878 -0.668098628520966 -0.707099795341492
outer loop
vertex 17.2806224822998 -52.369514465332 0.00981787219643593
vertex 17.3076248168945 -52.2905082702637 -0.0736746713519096
vertex 22.8628063201904 -54.2916107177734 -0.00272766011767089
endloop
endfacet
facet normal -0.231633514165878 -0.668098628520966 -0.707099795341492
outer loop
vertex 17.2806224822998 -52.369514465332 0.00981787219643593
vertex 11.6984395980835 -50.4474182128906 0.0223634038120508
vertex 17.3076248168945 -52.2905082702637 -0.0736746713519096
endloop
endfacet
facet normal -0.231633514165878 -0.668098628520966 -0.707099795341492
outer loop
vertex 11.7186918258667 -50.3881645202637 -0.0402560010552406
vertex 17.3076248168945 -52.2905082702637 -0.0736746713519096
vertex 11.6984395980835 -50.4474182128906 0.0223634038120508
endloop
endfacet
facet normal -0.231633514165878 -0.668098628520966 -0.707099795341492
outer loop
vertex 11.7186918258667 -50.3881645202637 -0.0402560010552406
vertex 11.6984395980835 -50.4474182128906 0.0223634038120508
vertex 6.12975788116455 -48.4858207702637 -0.00683733448386192
endloop
endfacet
facet normal -0.231633514165878 -0.668098628520966 -0.707099795341492
outer loop
vertex 6.11625671386719 -48.5253219604492 0.0349089354276657
vertex 6.12975788116455 -48.4858207702637 -0.00683733448386192
vertex 11.6984395980835 -50.4474182128906 0.0223634038120508
endloop
endfacet
facet normal -0.231633514165878 -0.668098628520966 -0.707099795341492
outer loop
vertex 6.11625671386719 -48.5253219604492 0.0349089354276657
vertex 0.534073948860168 -46.6032257080078 0.0474544689059258
vertex 6.12975788116455 -48.4858207702637 -0.00683733448386192
endloop
endfacet
facet normal -0.231633514165878 -0.668098628520966 -0.707099795341492
outer loop
vertex 0.54082453250885 -46.5834770202637 0.0265813320875168
vertex 6.12975788116455 -48.4858207702637 -0.00683733448386192
vertex 0.534073948860168 -46.6032257080078 0.0474544689059258
endloop
endfacet
facet normal -0.231633514165878 -0.668098628520966 -0.707099795341492
outer loop
vertex 0.534073948860168 -46.6032257080078 0.0474544689059258
vertex -5.04810905456543 -44.6811294555664 0.0599999986588955
vertex 0.54082453250885 -46.5834770202637 0.0265813320875168
endloop
endfacet
facet normal -0.946819186210632 0.321615368127823 0.00985072273761034
outer loop
vertex -4.99986410140991 -44.5391006469727 0.0900000035762787
vertex -5.04810905456543 -44.6811294555664 0.0900000035762787
vertex -4.99053621292114 -44.5416221618652 1.06895184516907
endloop
endfacet
facet normal -0.946819186210632 0.321615368127823 0.00985072180628777
outer loop
vertex -5.03917455673218 -44.6848106384277 1.06895184516907
vertex -4.99053621292114 -44.5416221618652 1.06895184516907
vertex -5.04810905456543 -44.6811294555664 0.0900000035762787
endloop
endfacet
facet normal -0.946819126605988 0.321615368127823 0.00985072087496519
outer loop
vertex -5.02427434921265 -44.6909523010254 2.70150279998779
vertex -4.97497987747192 -44.5458297729492 2.70150279998779
vertex -5.03917455673218 -44.6848106384277 1.06895184516907
endloop
endfacet
facet normal -0.946819126605988 0.321615368127823 0.00985072273761034
outer loop
vertex -4.99053621292114 -44.5416221618652 1.06895184516907
vertex -5.03917455673218 -44.6848106384277 1.06895184516907
vertex -4.97497987747192 -44.5458297729492 2.70150279998779
endloop
endfacet
facet normal -0.946819186210632 0.321615397930145 0.00985072273761034
outer loop
vertex -5.02427434921265 -44.6909523010254 2.70150279998779
vertex -4.99942684173584 -44.7011871337891 5.42402982711792
vertex -4.97497987747192 -44.5458297729492 2.70150279998779
endloop
endfacet
facet normal -0.946819186210632 0.321615368127823 0.00985072180628777
outer loop
vertex -4.94903755187988 -44.5528450012207 5.42402982711792
vertex -4.97497987747192 -44.5458297729492 2.70150279998779
vertex -4.99942684173584 -44.7011871337891 5.42402982711792
endloop
endfacet
facet normal -0.946819126605988 0.321615368127823 0.00985072087496519
outer loop
vertex -4.95798921585083 -44.71826171875 9.96425724029541
vertex -4.90577459335327 -44.5645446777344 9.96425724029541
vertex -4.99942684173584 -44.7011871337891 5.42402982711792
endloop
endfacet
facet normal -0.946819186210632 0.321615397930145 0.00985072273761034
outer loop
vertex -4.94903755187988 -44.5528450012207 5.42402982711792
vertex -4.99942684173584 -44.7011871337891 5.42402982711792
vertex -4.90577459335327 -44.5645446777344 9.96425724029541
endloop
endfacet
facet normal -0.946819126605988 0.3216153383255 0.00985072180628777
outer loop
vertex -4.95798921585083 -44.71826171875 9.96425724029541
vertex -4.90344619750977 -44.7407341003418 15.9404315948486
vertex -4.90577459335327 -44.5645446777344 9.96425724029541
endloop
endfacet
facet normal -0.946819245815277 0.321615397930145 0.00985072273761034
outer loop
vertex -4.84882879257202 -44.5799407958984 15.9404315948486
vertex -4.90577459335327 -44.5645446777344 9.96425724029541
vertex -4.90344619750977 -44.7407341003418 15.9404315948486
endloop
endfacet
facet normal -0.946819186210632 0.321615368127823 0.00985072180628777
outer loop
vertex -4.79183053970337 -44.5953521728516 21.9221305847168
vertex -4.84882879257202 -44.5799407958984 15.9404315948486
vertex -4.84885311126709 -44.7632255554199 21.9221305847168
endloop
endfacet
facet normal -0.946819186210632 0.321615368127823 0.00985072180628777
outer loop
vertex -4.90344619750977 -44.7407341003418 15.9404315948486
vertex -4.84885311126709 -44.7632255554199 21.9221305847168
vertex -4.84882879257202 -44.5799407958984 15.9404315948486
endloop
endfacet
facet normal -0.946819186210632 0.321615368127823 0.00985072180628777
outer loop
vertex -4.79183053970337 -44.5953521728516 21.9221305847168
vertex -4.84885311126709 -44.7632255554199 21.9221305847168
vertex -4.73483228683472 -44.610767364502 27.903829574585
endloop
endfacet
facet normal -0.946819126605988 0.321615368127823 0.00985072180628777
outer loop
vertex -4.79425954818726 -44.785717010498 27.903829574585
vertex -4.73483228683472 -44.610767364502 27.903829574585
vertex -4.84885311126709 -44.7632255554199 21.9221305847168
endloop
endfacet
facet normal -0.946819126605988 0.3216153383255 0.00985072180628777
outer loop
vertex -4.73483228683472 -44.610767364502 27.903829574585
vertex -4.79425954818726 -44.785717010498 27.903829574585
vertex -4.68349123001099 -44.6246490478516 33.2918357849121
endloop
endfacet
facet normal -0.946819126605988 0.3216153383255 0.00985072180628777
outer loop
vertex -4.74508476257324 -44.8059768676758 33.2918357849121
vertex -4.68349123001099 -44.6246490478516 33.2918357849121
vertex -4.79425954818726 -44.785717010498 27.903829574585
endloop
endfacet
facet normal -0.946819126605988 0.321615368127823 0.00985072180628777
outer loop
vertex -4.68349123001099 -44.6246490478516 33.2918357849121
vertex -4.74508476257324 -44.8059768676758 33.2918357849121
vertex -4.65098237991333 -44.6334419250488 36.7034606933594
endloop
endfacet
facet normal -0.946819126605988 0.321615368127823 0.00985072180628777
outer loop
vertex -4.71394777297974 -44.8188056945801 36.7034606933594
vertex -4.65098237991333 -44.6334419250488 36.7034606933594
vertex -4.74508476257324 -44.8059768676758 33.2918357849121
endloop
endfacet
facet normal -0.946819126605988 0.321615368127823 0.00985072180628777
outer loop
vertex -4.69481468200684 -44.8266906738281 38.7998542785645
vertex -4.63100624084473 -44.638843536377 38.7998542785645
vertex -4.71394777297974 -44.8188056945801 36.7034606933594
endloop
endfacet
facet normal -0.946819186210632 0.321615368127823 0.00985072180628777
outer loop
vertex -4.65098237991333 -44.6334419250488 36.7034606933594
vertex -4.71394777297974 -44.8188056945801 36.7034606933594
vertex -4.63100624084473 -44.638843536377 38.7998542785645
endloop
endfacet
facet normal -0.946819186210632 0.321615397930145 0.00985072273761034
outer loop
vertex -4.69481468200684 -44.8266906738281 38.7998542785645
vertex -4.68305730819702 -44.8315353393555 40.0880584716797
vertex -4.63100624084473 -44.638843536377 38.7998542785645
endloop
endfacet
facet normal -0.946819186210632 0.321615368127823 0.00985072180628777
outer loop
vertex -4.61873149871826 -44.642162322998 40.0880584716797
vertex -4.63100624084473 -44.638843536377 38.7998542785645
vertex -4.68305730819702 -44.8315353393555 40.0880584716797
endloop
endfacet
facet normal 0.222714886069298 0.671128630638123 -0.707095801830292
outer loop
vertex 3.88124227523804 -18.6303234100342 27.4781894683838
vertex 4.17175436019897 -17.7828159332275 28.3740921020508
vertex 4.06555223464966 -18.6928024291992 27.4769420623779
endloop
endfacet
facet normal 0.222714900970459 0.671128630638123 -0.707095861434937
outer loop
vertex 4.36116361618042 -17.8470230102539 28.3728103637695
vertex 4.06555223464966 -18.6928024291992 27.4769420623779
vertex 4.17175436019897 -17.7828159332275 28.3740921020508
endloop
endfacet
facet normal 0.222714886069298 0.671128571033478 -0.707095801830292
outer loop
vertex 3.88124227523804 -18.6303234100342 27.4781894683838
vertex 4.06555223464966 -18.6928024291992 27.4769420623779
vertex 3.42720460891724 -19.9548835754395 26.0779972076416
endloop
endfacet
facet normal 0.222714856266975 0.671128571033478 -0.707095801830292
outer loop
vertex 3.60354423522949 -20.0146598815918 26.0768032073975
vertex 3.42720460891724 -19.9548835754395 26.0779972076416
vertex 4.06555223464966 -18.6928024291992 27.4769420623779
endloop
endfacet
facet normal 0.222714900970459 0.671128571033478 -0.707095801830292
outer loop
vertex 3.60354423522949 -20.0146598815918 26.0768032073975
vertex 2.88147807121277 -22.0805759429932 23.888542175293
vertex 3.42720460891724 -19.9548835754395 26.0779972076416
endloop
endfacet
facet normal 0.222714856266975 0.671128571033478 -0.707095801830292
outer loop
vertex 2.71759486198425 -22.0250225067139 23.8896503448486
vertex 3.42720460891724 -19.9548835754395 26.0779972076416
vertex 2.88147807121277 -22.0805759429932 23.888542175293
endloop
endfacet
facet normal 0.222714886069298 0.671128571033478 -0.707095801830292
outer loop
vertex 2.71759486198425 -22.0250225067139 23.8896503448486
vertex 2.88147807121277 -22.0805759429932 23.888542175293
vertex 1.61061358451843 -25.2544097900391 20.4758625030518
endloop
endfacet
facet normal 0.222714900970459 0.671128630638123 -0.707095861434937
outer loop
vertex 1.75506484508514 -25.3033771514893 20.4748859405518
vertex 1.61061358451843 -25.2544097900391 20.4758625030518
vertex 2.88147807121277 -22.0805759429932 23.888542175293
endloop
endfacet
facet normal 0.222714886069298 0.671128630638123 -0.707095861434937
outer loop
vertex 1.61061358451843 -25.2544097900391 20.4758625030518
vertex 1.75506484508514 -25.3033771514893 20.4748859405518
vertex 0.297181367874146 -29.0860748291016 16.425407409668
endloop
endfacet
facet normal 0.222714871168137 0.671128571033478 -0.707095861434937
outer loop
vertex 0.418576717376709 -29.1272258758545 16.4245853424072
vertex 0.297181367874146 -29.0860748291016 16.425407409668
vertex 1.75506484508514 -25.3033771514893 20.4748859405518
endloop
endfacet
facet normal 0.222714871168137 0.671128571033478 -0.707095861434937
outer loop
vertex 0.418576717376709 -29.1272258758545 16.4245853424072
vertex -0.917911410331726 -32.9510726928711 12.374285697937
vertex 0.297181367874146 -29.0860748291016 16.425407409668
endloop
endfacet
facet normal 0.222714886069298 0.671128630638123 -0.707095861434937
outer loop
vertex -1.01625084877014 -32.9177398681641 12.3749513626099
vertex 0.297181367874146 -29.0860748291016 16.425407409668
vertex -0.917911410331726 -32.9510726928711 12.374285697937
endloop
endfacet
facet normal 0.222714886069298 0.671128571033478 -0.707095861434937
outer loop
vertex -2.32968306541443 -36.7494049072266 8.32449531555176
vertex -1.01625084877014 -32.9177398681641 12.3749513626099
vertex -2.25439953804016 -36.7749252319336 8.3239860534668
endloop
endfacet
facet normal 0.222714886069298 0.671128630638123 -0.707095861434937
outer loop
vertex -0.917911410331726 -32.9510726928711 12.374285697937
vertex -2.25439953804016 -36.7749252319336 8.3239860534668
vertex -1.01625084877014 -32.9177398681641 12.3749513626099
endloop
endfacet
facet normal 0.222714900970459 0.671128630638123 -0.707095861434937
outer loop
vertex -2.32968306541443 -36.7494049072266 8.32449531555176
vertex -2.25439953804016 -36.7749252319336 8.3239860534668
vertex -3.44043064117432 -39.9897766113281 4.89909267425537
endloop
endfacet
facet normal 0.222714871168137 0.671128571033478 -0.707095742225647
outer loop
vertex -3.38464522361755 -40.0086898803711 4.89871501922607
vertex -3.44043064117432 -39.9897766113281 4.89909267425537
vertex -2.25439953804016 -36.7749252319336 8.3239860534668
endloop
endfacet
facet normal 0.222714886069298 0.671128571033478 -0.707095801830292
outer loop
vertex -3.38464522361755 -40.0086898803711 4.89871501922607
vertex -4.05998802185059 -41.9409217834473 2.85205221176147
vertex -3.44043064117432 -39.9897766113281 4.89909267425537
endloop
endfacet
facet normal 0.222714886069298 0.671128571033478 -0.707095801830292
outer loop
vertex -4.10412311553955 -41.9259605407715 2.85235095024109
vertex -3.44043064117432 -39.9897766113281 4.89909267425537
vertex -4.05998802185059 -41.9409217834473 2.85205221176147
endloop
endfacet
facet normal 0.222714886069298 0.671128571033478 -0.707095861434937
outer loop
vertex -4.10412311553955 -41.9259605407715 2.85235095024109
vertex -4.05998802185059 -41.9409217834473 2.85205221176147
vertex -4.49761772155762 -43.073902130127 1.63886404037476
endloop
endfacet
facet normal 0.222714886069298 0.671128571033478 -0.707095801830292
outer loop
vertex -4.46039009094238 -43.0865211486816 1.63861203193665
vertex -4.49761772155762 -43.073902130127 1.63886404037476
vertex -4.05998802185059 -41.9409217834473 2.85205221176147
endloop
endfacet
facet normal 0.222714871168137 0.671128571033478 -0.707095801830292
outer loop
vertex -4.49761772155762 -43.073902130127 1.63886404037476
vertex -4.46039009094238 -43.0865211486816 1.63861203193665
vertex -4.73091554641724 -43.7544975280762 0.91940301656723
endloop
endfacet
facet normal 0.222714886069298 0.671128571033478 -0.707095801830292
outer loop
vertex -4.69778299331665 -43.7657318115234 0.91917872428894
vertex -4.73091554641724 -43.7544975280762 0.91940301656723
vertex -4.46039009094238 -43.0865211486816 1.63861203193665
endloop
endfacet
facet normal 0.222714886069298 0.671128630638123 -0.707095861434937
outer loop
vertex -4.69778299331665 -43.7657318115234 0.91917872428894
vertex -4.83853054046631 -44.1684265136719 0.492635875940323
vertex -4.73091554641724 -43.7544975280762 0.91940301656723
endloop
endfacet
facet normal 0.222714871168137 0.671128571033478 -0.707095801830292
outer loop
vertex -4.86923503875732 -44.158016204834 0.492843717336655
vertex -4.73091554641724 -43.7544975280762 0.91940301656723
vertex -4.83853054046631 -44.1684265136719 0.492635875940323
endloop
endfacet
facet normal 0.222714886069298 0.671128630638123 -0.707095861434937
outer loop
vertex -4.86923503875732 -44.158016204834 0.492843717336655
vertex -4.83853054046631 -44.1684265136719 0.492635875940323
vertex -4.95124292373657 -44.3972587585449 0.239942133426666
endloop
endfacet
facet normal 0.222714886069298 0.671128630638123 -0.707095861434937
outer loop
vertex -4.92197799682617 -44.4071769714355 0.239744037389755
vertex -4.95124292373657 -44.3972587585449 0.239942133426666
vertex -4.83853054046631 -44.1684265136719 0.492635875940323
endloop
endfacet
facet normal 0.222714886069298 0.671128630638123 -0.707095801830292
outer loop
vertex -4.95124292373657 -44.3972587585449 0.239942133426666
vertex -4.92197799682617 -44.4071769714355 0.239744037389755
vertex -4.99986410140991 -44.5391006469727 0.0900000035762787
endloop
endfacet
facet normal 0.222714886069298 0.671128630638123 -0.707095861434937
outer loop
vertex -4.9714527130127 -44.5487327575684 0.0898076891899109
vertex -4.99986410140991 -44.5391006469727 0.0900000035762787
vertex -4.92197799682617 -44.4071769714355 0.239744037389755
endloop
endfacet
facet normal -0.230794355273247 -0.668376088142395 0.707111954689026
outer loop
vertex -3.64617347717285 -40.5899887084961 4.26460838317871
vertex -4.99986410140991 -44.5391006469727 0.0900000035762787
vertex -3.61826086044312 -40.5995941162109 4.26463937759399
endloop
endfacet
facet normal -0.230794355273247 -0.668376088142395 0.707111954689026
outer loop
vertex -2.29248261451721 -36.6408805847168 8.43921661376953
vertex -3.64617347717285 -40.5899887084961 4.26460838317871
vertex -2.23665738105774 -36.6600914001465 8.4392786026001
endloop
endfacet
facet normal -0.230794355273247 -0.668376088142395 0.707111954689026
outer loop
vertex -3.61826086044312 -40.5995941162109 4.26463937759399
vertex -2.23665738105774 -36.6600914001465 8.4392786026001
vertex -3.64617347717285 -40.5899887084961 4.26460838317871
endloop
endfacet
facet normal -0.230794355273247 -0.668376088142395 0.707111954689026
outer loop
vertex -2.29248261451721 -36.6408805847168 8.43921661376953
vertex -2.23665738105774 -36.6600914001465 8.4392786026001
vertex -0.938791871070862 -32.6917686462402 12.6138248443604
endloop
endfacet
facet normal -0.230794355273247 -0.66837614774704 0.707111954689026
outer loop
vertex -0.855054020881653 -32.7205848693848 12.6139183044434
vertex -0.938791871070862 -32.6917686462402 12.6138248443604
vertex -2.23665738105774 -36.6600914001465 8.4392786026001
endloop
endfacet
facet normal -0.230794355273247 -0.668376088142395 0.707111954689026
outer loop
vertex 0.414898902177811 -28.7426586151123 16.7884330749512
vertex -0.938791871070862 -32.6917686462402 12.6138248443604
vertex 0.526549398899078 -28.7810802459717 16.7885570526123
endloop
endfacet
facet normal -0.230794355273247 -0.66837614774704 0.707111954689026
outer loop
vertex -0.855054020881653 -32.7205848693848 12.6139183044434
vertex 0.526549398899078 -28.7810802459717 16.7885570526123
vertex -0.938791871070862 -32.6917686462402 12.6138248443604
endloop
endfacet
facet normal -0.230794355273247 -0.668376088142395 0.707111954689026
outer loop
vertex 0.414898902177811 -28.7426586151123 16.7884330749512
vertex 0.526549398899078 -28.7810802459717 16.7885570526123
vertex 1.76858973503113 -24.7935466766357 20.963041305542
endloop
endfacet
facet normal -0.230794370174408 -0.668376088142395 0.707111954689026
outer loop
vertex 1.90815281867981 -24.8415756225586 20.9631958007813
vertex 1.76858973503113 -24.7935466766357 20.963041305542
vertex 0.526549398899078 -28.7810802459717 16.7885570526123
endloop
endfacet
facet normal -0.230794370174408 -0.668376088142395 0.707111954689026
outer loop
vertex 3.07808637619019 -20.9733638763428 25.0013599395752
vertex 1.76858973503113 -24.7935466766357 20.963041305542
vertex 3.24465489387512 -21.0306720733643 25.001558303833
endloop
endfacet
facet normal -0.230794370174408 -0.66837614774704 0.707111954689026
outer loop
vertex 1.90815281867981 -24.8415756225586 20.9631958007813
vertex 3.24465489387512 -21.0306720733643 25.001558303833
vertex 1.76858973503113 -24.7935466766357 20.963041305542
endloop
endfacet
facet normal -0.230794370174408 -0.66837614774704 0.707111954689026
outer loop
vertex 3.07808637619019 -20.9733638763428 25.0013599395752
vertex 3.24465489387512 -21.0306720733643 25.001558303833
vertex 3.82569789886475 -18.7923641204834 27.3068981170654
endloop
endfacet
facet normal -0.230794355273247 -0.668376088142395 0.707111954689026
outer loop
vertex 4.00768518447876 -18.8549671173096 27.3071231842041
vertex 3.82569789886475 -18.7923641204834 27.3068981170654
vertex 3.24465489387512 -21.0306720733643 25.001558303833
endloop
endfacet
facet normal -0.230794355273247 -0.66837614774704 0.707111954689026
outer loop
vertex 3.82569789886475 -18.7923641204834 27.3068981170654
vertex 4.00768518447876 -18.8549671173096 27.3071231842041
vertex 4.17173385620117 -17.7828769683838 28.3740272521973
endloop
endfacet
facet normal -0.23079439997673 -0.66837614774704 0.707112014293671
outer loop
vertex 4.36085367202759 -17.8479423522949 28.3742542266846
vertex 4.17173385620117 -17.7828769683838 28.3740272521973
vertex 4.00768518447876 -18.8549671173096 27.3071231842041
endloop
endfacet
facet normal -0.325566351413727 -0.945519030094147 -0.000584051478654146
outer loop
vertex -0.750328779220581 -46.1830825805664 35.8973159790039
vertex -4.68305730819702 -44.8315353393555 40.0880584716797
vertex -0.77013885974884 -46.1762504577637 35.8765258789063
endloop
endfacet
facet normal -0.325566351413727 -0.945519030094147 -0.000584051478654146
outer loop
vertex 3.18239998817444 -47.5346336364746 31.7065715789795
vertex -0.750328779220581 -46.1830825805664 35.8973159790039
vertex 3.14277982711792 -47.5209655761719 31.6649913787842
endloop
endfacet
facet normal -0.325566351413727 -0.945519030094147 -0.000584051478654146
outer loop
vertex -0.77013885974884 -46.1762504577637 35.8765258789063
vertex 3.14277982711792 -47.5209655761719 31.6649913787842
vertex -0.750328779220581 -46.1830825805664 35.8973159790039
endloop
endfacet
facet normal -0.325566351413727 -0.945519030094147 -0.000584051478654146
outer loop
vertex 3.18239998817444 -47.5346336364746 31.7065715789795
vertex 3.14277982711792 -47.5209655761719 31.6649913787842
vertex 7.11512851715088 -48.8861846923828 27.5158290863037
endloop
endfacet
facet normal -0.325566351413727 -0.945519030094147 -0.000584051478654146
outer loop
vertex 7.05569839477539 -48.8656845092773 27.4534587860107
vertex 7.11512851715088 -48.8861846923828 27.5158290863037
vertex 3.14277982711792 -47.5209655761719 31.6649913787842
endloop
endfacet
facet normal -0.325566351413727 -0.945519030094147 -0.000584051478654146
outer loop
vertex 7.05569839477539 -48.8656845092773 27.4534587860107
vertex 10.96861743927 -50.2103996276855 23.2419242858887
vertex 7.11512851715088 -48.8861846923828 27.5158290863037
endloop
endfacet
facet normal -0.325566351413727 -0.945519030094147 -0.000584051478654146
outer loop
vertex 11.0478572845459 -50.237735748291 23.3250846862793
vertex 7.11512851715088 -48.8861846923828 27.5158290863037
vertex 10.96861743927 -50.2103996276855 23.2419242858887
endloop
endfacet
facet normal -0.325566351413727 -0.945519030094147 -0.000584051478654146
outer loop
vertex 11.0478572845459 -50.237735748291 23.3250846862793
vertex 10.96861743927 -50.2103996276855 23.2419242858887
vertex 14.9805860519409 -51.5892868041992 19.1343402862549
endloop
endfacet
facet normal -0.325566351413727 -0.945519030094147 -0.000584051478654146
outer loop
vertex 14.8815355300903 -51.5551147460938 19.0303916931152
vertex 14.9805860519409 -51.5892868041992 19.1343402862549
vertex 10.96861743927 -50.2103996276855 23.2419242858887
endloop
endfacet
facet normal -0.325566381216049 -0.945519030094147 -0.000584051478654146
outer loop
vertex 18.7849178314209 -52.8967094421387 15.0804176330566
vertex 14.9805860519409 -51.5892868041992 19.1343402862549
vertex 18.6667156219482 -52.8559341430664 14.9563436508179
endloop
endfacet
facet normal -0.325566351413727 -0.945519030094147 -0.000584051536861807
outer loop
vertex 14.8815355300903 -51.5551147460938 19.0303916931152
vertex 18.6667156219482 -52.8559341430664 14.9563436508179
vertex 14.9805860519409 -51.5892868041992 19.1343402862549
endloop
endfacet
facet normal -0.325566351413727 -0.945519030094147 -0.000584051478654146
outer loop
vertex 18.7849178314209 -52.8967094421387 15.0804176330566
vertex 18.6667156219482 -52.8559341430664 14.9563436508179
vertex 20.956859588623 -53.6431350708008 12.7659826278687
endloop
endfacet
facet normal -0.325566351413727 -0.945519030094147 -0.000584051478654146
outer loop
vertex 20.8277263641357 -53.5985870361328 12.6304159164429
vertex 20.956859588623 -53.6431350708008 12.7659826278687
vertex 18.6667156219482 -52.8559341430664 14.9563436508179
endloop
endfacet
facet normal -0.325566351413727 -0.945518970489502 -0.000584051478654146
outer loop
vertex 20.956859588623 -53.6431350708008 12.7659826278687
vertex 20.8277263641357 -53.5985870361328 12.6304159164429
vertex 21.9621486663818 -53.9886207580566 11.6947374343872
endloop
endfacet
facet normal -0.325566351413727 -0.945518970489502 -0.000584051420446485
outer loop
vertex 21.8279457092285 -53.942325592041 11.5538654327393
vertex 21.9621486663818 -53.9886207580566 11.6947374343872
vertex 20.8277263641357 -53.5985870361328 12.6304159164429
endloop
endfacet
facet normal -1 0 0
outer loop
vertex -0.226420000195503 -41 -0.025000000372529
vertex -0.226420000195503 -41 0.174999997019768
vertex -0.226420000195503 -40 -0.025000000372529
endloop
endfacet
facet normal -1 -0 -0
outer loop
vertex -0.226420000195503 -40 0.174999997019768
vertex -0.226420000195503 -40 -0.025000000372529
vertex -0.226420000195503 -41 0.174999997019768
endloop
endfacet
facet normal -0.70710676908493 0 -0.70710676908493
outer loop
vertex -0.226420000195503 -41 -0.025000000372529
vertex -0.226420000195503 -40 -0.025000000372529
vertex -0.0850000008940697 -41 -0.166419997811317
endloop
endfacet
facet normal -0.70710676908493 -0 -0.70710676908493
outer loop
vertex -0.0850000008940697 -40 -0.166419997811317
vertex -0.0850000008940697 -41 -0.166419997811317
vertex -0.226420000195503 -40 -0.025000000372529
endloop
endfacet
facet normal -0.70710676908493 0 0.70710676908493
outer loop
vertex -0.226420000195503 -40 0.174999997019768
vertex -0.226420000195503 -41 0.174999997019768
vertex -0.0850000008940697 -40 0.316419988870621
endloop
endfacet
facet normal -0.70710676908493 0 0.70710676908493
outer loop
vertex -0.0850000008940697 -41 0.316419988870621
vertex -0.0850000008940697 -40 0.316419988870621
vertex -0.226420000195503 -41 0.174999997019768
endloop
endfacet
facet normal 0 0 -1
outer loop
vertex -0.0850000008940697 -41 -0.166419997811317
vertex -0.0850000008940697 -40 -0.166419997811317
vertex 0.115000002086163 -41 -0.166419997811317
endloop
endfacet
facet normal -0 -0 -1
outer loop
vertex 0.115000002086163 -40 -0.166419997811317
vertex 0.115000002086163 -41 -0.166419997811317
vertex -0.0850000008940697 -40 -0.166419997811317
endloop
endfacet
facet normal -0 0 1
outer loop
vertex -0.0850000008940697 -40 0.316419988870621
vertex -0.0850000008940697 -41 0.316419988870621
vertex 0.115000002086163 -40 0.316419988870621
endloop
endfacet
facet normal 0 -0 1
outer loop
vertex 0.115000002086163 -41 0.316419988870621
vertex 0.115000002086163 -40 0.316419988870621
vertex -0.0850000008940697 -41 0.316419988870621
endloop
endfacet
facet normal 0.70710676908493 0 -0.70710676908493
outer loop
vertex 0.115000002086163 -41 -0.166419997811317
vertex 0.115000002086163 -40 -0.166419997811317
vertex 0.256419986486435 -41 -0.025000000372529
endloop
endfacet
facet normal 0.70710676908493 0 -0.70710676908493
outer loop
vertex 0.256419986486435 -40 -0.025000000372529
vertex 0.256419986486435 -41 -0.025000000372529
vertex 0.115000002086163 -40 -0.166419997811317
endloop
endfacet
facet normal 0.70710676908493 -0 0.70710676908493
outer loop
vertex 0.256419986486435 -41 0.174999997019768
vertex 0.256419986486435 -40 0.174999997019768
vertex 0.115000002086163 -41 0.316419988870621
endloop
endfacet
facet normal 0.70710676908493 0 0.70710676908493
outer loop
vertex 0.115000002086163 -40 0.316419988870621
vertex 0.115000002086163 -41 0.316419988870621
vertex 0.256419986486435 -40 0.174999997019768
endloop
endfacet
facet normal 1 -0 0
outer loop
vertex 0.256419986486435 -41 0.174999997019768
vertex 0.256419986486435 -41 -0.025000000372529
vertex 0.256419986486435 -40 0.174999997019768
endloop
endfacet
facet normal 1 0 -0
outer loop
vertex 0.256419986486435 -40 -0.025000000372529
vertex 0.256419986486435 -40 0.174999997019768
vertex 0.256419986486435 -41 -0.025000000372529
endloop
endfacet
facet normal 0 0.00416046427562833 0.999991416931152
outer loop
vertex 0.115000002086163 -39.9996528625488 0.316418558359146
vertex 0.112307615578175 -38.7326622009277 0.3111472427845
vertex -0.0850000008940697 -39.9996528625488 0.316418558359146
endloop
endfacet
facet normal -2.66667677014927e-16 0.00416046380996704 0.999991297721863
outer loop
vertex -0.0823076143860817 -38.7326622009277 0.3111472427845
vertex -0.0850000008940697 -39.9996528625488 0.316418558359146
vertex 0.112307615578175 -38.7326622009277 0.3111472427845
endloop
endfacet
facet normal -2.66667677014927e-16 0.00416046427562833 0.999991357326508
outer loop
vertex -0.0823076143860817 -38.7326622009277 0.3111472427845
vertex 0.112307615578175 -38.7326622009277 0.3111472427845
vertex -0.0780997201800346 -36.7524909973145 0.30290874838829
endloop
endfacet
facet normal 3.1752917323113e-16 0.00416046427562833 0.999991357326508
outer loop
vertex 0.108099721372128 -36.7524909973145 0.30290874838829
vertex -0.0780997201800346 -36.7524909973145 0.30290874838829
vertex 0.112307615578175 -38.7326622009277 0.3111472427845
endloop
endfacet
facet normal 3.17529146761351e-16 0.00416046427562833 0.999991297721863
outer loop
vertex 0.108099721372128 -36.7524909973145 0.30290874838829
vertex 0.101523257791996 -33.6577110290527 0.290032923221588
vertex -0.0780997201800346 -36.7524909973145 0.30290874838829
endloop
endfacet
facet normal 4.70737395766275e-16 0.00416046380996704 0.999991297721863
outer loop
vertex -0.0715232565999031 -33.6577110290527 0.290032923221588
vertex -0.0780997201800346 -36.7524909973145 0.30290874838829
vertex 0.101523257791996 -33.6577110290527 0.290032923221588
endloop
endfacet
facet normal 4.70737395766275e-16 0.00416046427562833 0.999991357326508
outer loop
vertex -0.0715232565999031 -33.6577110290527 0.290032923221588
vertex 0.101523257791996 -33.6577110290527 0.290032923221588
vertex -0.0612640641629696 -28.8298969268799 0.269946783781052
endloop
endfacet
facet normal -2.36879480406239e-17 0.00416046380996704 0.999991357326508
outer loop
vertex 0.0912640616297722 -28.8298969268799 0.269946783781052
vertex -0.0612640641629696 -28.8298969268799 0.269946783781052
vertex 0.101523257791996 -33.6577110290527 0.290032923221588
endloop
endfacet
facet normal -2.36879480406239e-17 0.00416046380996704 0.999991357326508
outer loop
vertex 0.0912640616297722 -28.8298969268799 0.269946783781052
vertex 0.0790915414690971 -23.1017017364502 0.246114626526833
vertex -0.0612640641629696 -28.8298969268799 0.269946783781052
endloop
endfacet
facet normal -4.47151128075269e-16 0.00416046380996704 0.999991297721863
outer loop
vertex -0.0490915402770042 -23.1017017364502 0.246114626526833
vertex -0.0612640641629696 -28.8298969268799 0.269946783781052
vertex 0.0790915414690971 -23.1017017364502 0.246114626526833
endloop
endfacet
facet normal -4.47151128075269e-16 0.00416046380996704 0.999991297721863
outer loop
vertex -0.0490915402770042 -23.1017017364502 0.246114626526833
vertex 0.0790915414690971 -23.1017017364502 0.246114626526833
vertex -0.0369190163910389 -17.3735046386719 0.222282469272614
endloop
endfacet
facet normal -1.7714142962739e-16 0.00416046427562833 0.999991357326508
outer loop
vertex 0.0669190138578415 -17.3735046386719 0.222282469272614
vertex -0.0369190163910389 -17.3735046386719 0.222282469272614
vertex 0.0790915414690971 -23.1017017364502 0.246114626526833
endloop
endfacet
facet normal -1.7714142962739e-16 0.00416046427562833 0.999991357326508
outer loop
vertex 0.0669190138578415 -17.3735046386719 0.222282469272614
vertex 0.0547464936971664 -11.6453084945679 0.198450297117233
vertex -0.0369190163910389 -17.3735046386719 0.222282469272614
endloop
endfacet
facet normal -3.24361764500157e-16 0.00416046427562833 0.999991357326508
outer loop
vertex -0.0247464943677187 -11.6453084945679 0.198450297117233
vertex -0.0369190163910389 -17.3735046386719 0.222282469272614
vertex 0.0547464936971664 -11.6453084945679 0.198450297117233
endloop
endfacet
facet normal -3.24361790969937e-16 0.00416046427562833 0.999991416931152
outer loop
vertex -0.0247464943677187 -11.6453084945679 0.198450297117233
vertex 0.0547464936971664 -11.6453084945679 0.198450297117233
vertex -0.014452395029366 -6.80106830596924 0.178295850753784
endloop
endfacet
facet normal 4.09852164591823e-16 0.00416046427562833 0.999991357326508
outer loop
vertex 0.0444523952901363 -6.80106830596924 0.178295850753784
vertex -0.014452395029366 -6.80106830596924 0.178295850753784
vertex 0.0547464936971664 -11.6453084945679 0.198450297117233
endloop
endfacet
facet normal 4.09852191061603e-16 0.00416046380996704 0.999991357326508
outer loop
vertex 0.0444523952901363 -6.80106830596924 0.178295850753784
vertex 0.0383014790713787 -3.90654516220093 0.166253179311752
vertex -0.014452395029366 -6.80106830596924 0.178295850753784
endloop
endfacet
facet normal -7.92918341594828e-16 0.00416046380996704 0.999991357326508
outer loop
vertex -0.00830148067325354 -3.90654516220093 0.166253179311752
vertex -0.014452395029366 -6.80106830596924 0.178295850753784
vertex 0.0383014790713787 -3.90654516220093 0.166253179311752
endloop
endfacet
facet normal -7.92918341594828e-16 0.00416046380996704 0.999991357326508
outer loop
vertex -0.00830148067325354 -3.90654516220093 0.166253179311752
vertex 0.0383014790713787 -3.90654516220093 0.166253179311752
vertex -0.00465468177571893 -2.1904194355011 0.159113243222237
endloop
endfacet
facet normal -1.86962856060143e-16 0.00416046380996704 0.999991357326508
outer loop
vertex 0.0346546806395054 -2.1904194355011 0.159113243222237
vertex -0.00465468177571893 -2.1904194355011 0.159113243222237
vertex 0.0383014790713787 -3.90654516220093 0.166253179311752
endloop
endfacet
facet normal -1.86962856060143e-16 0.00416046380996704 0.999991357326508
outer loop
vertex 0.0346546806395054 -2.1904194355011 0.159113243222237
vertex 0.0324925407767296 -1.17295026779175 0.154880061745644
vertex -0.00465468177571893 -2.1904194355011 0.159113243222237
endloop
endfacet
facet normal 7.41710382433418e-16 0.00416046427562833 0.999991416931152
outer loop
vertex -0.00249254098162055 -1.17295026779175 0.154880061745644
vertex -0.00465468177571893 -2.1904194355011 0.159113243222237
vertex 0.0324925407767296 -1.17295026779175 0.154880061745644
endloop
endfacet
facet normal 7.41710382433418e-16 0.00416046427562833 0.999991357326508
outer loop
vertex -0.00249254098162055 -1.17295026779175 0.154880061745644
vertex 0.0324925407767296 -1.17295026779175 0.154880061745644
vertex -0.00121063517872244 -0.569705724716187 0.152370259165764
endloop
endfacet
facet normal 1.04129455387204e-15 0.00416046380996704 0.999991357326508
outer loop
vertex 0.0312106348574162 -0.569705724716187 0.152370259165764
vertex -0.00121063517872244 -0.569705724716187 0.152370259165764
vertex 0.0324925407767296 -1.17295026779175 0.154880061745644
endloop
endfacet
facet normal 1.04129444799292e-15 0.00416046380996704 0.999991297721863
outer loop
vertex 0.0312106348574162 -0.569705724716187 0.152370259165764
vertex 0.0304506104439497 -0.212049707770348 0.150882229208946
vertex -0.00121063517872244 -0.569705724716187 0.152370259165764
endloop
endfacet
facet normal 6.51557330664913e-16 0.00416046427562833 0.999991416931152
outer loop
vertex -0.000450609513791278 -0.212049707770348 0.150882229208946
vertex -0.00121063517872244 -0.569705724716187 0.152370259165764
vertex 0.0304506104439497 -0.212049707770348 0.150882229208946
endloop
endfacet
facet normal 6.51557330664913e-16 0.00416046427562833 0.999991357326508
outer loop
vertex -0.000450609513791278 -0.212049707770348 0.150882229208946
vertex 0.0304506104439497 -0.212049707770348 0.150882229208946
vertex 0 0 0.150000005960464
endloop
endfacet
facet normal 0 0.00416046427562833 0.999991357326508
outer loop
vertex 0.0299999993294477 0 0.150000005960464
vertex 0 0 0.150000005960464
vertex 0.0304506104439497 -0.212049707770348 0.150882229208946
endloop
endfacet
facet normal -0.9999840259552 -0.00566040957346559 0
outer loop
vertex 0.256416380405426 -39.9993591308594 -0.025000000372529
vertex 0.256416380405426 -39.9993591308594 0.174999997019768
vertex 0.249124258756638 -38.7111129760742 -0.0241948328912258
endloop
endfacet
facet normal -0.9999840259552 -0.00566040957346559 -6.28283578426774e-17
outer loop
vertex 0.249124258756638 -38.7111129760742 0.174194827675819
vertex 0.249124258756638 -38.7111129760742 -0.0241948328912258
vertex 0.256416380405426 -39.9993591308594 0.174999997019768
endloop
endfacet
facet normal -0.999983966350555 -0.0056604091078043 -6.28283512252325e-17
outer loop
vertex 0.249124258756638 -38.7111129760742 0.174194827675819
vertex 0.237257227301598 -36.6146507263184 0.172884523868561
vertex 0.249124258756638 -38.7111129760742 -0.0241948328912258
endloop
endfacet
facet normal -0.9999840259552 -0.00566040957346559 -1.41774879168877e-16
outer loop
vertex 0.237257227301598 -36.6146507263184 -0.0228845234960318
vertex 0.249124258756638 -38.7111129760742 -0.0241948328912258
vertex 0.237257227301598 -36.6146507263184 0.172884523868561
endloop
endfacet
facet normal -0.999983966350555 -0.00566040957346559 -1.41774865933987e-16
outer loop
vertex 0.237257227301598 -36.6146507263184 0.172884523868561
vertex 0.217945083975792 -33.2029113769531 0.17075215280056
vertex 0.237257227301598 -36.6146507263184 -0.0228845234960318
endloop
endfacet
facet normal -0.999983966350555 -0.0056604091078043 1.44932141540208e-16
outer loop
vertex 0.217945083975792 -33.2029113769531 -0.020752152428031
vertex 0.237257227301598 -36.6146507263184 -0.0228845234960318
vertex 0.217945083975792 -33.2029113769531 0.17075215280056
endloop
endfacet
facet normal -0.999983966350555 -0.00566040864214301 1.44932141540208e-16
outer loop
vertex 0.217945083975792 -33.2029113769531 -0.020752152428031
vertex 0.217945083975792 -33.2029113769531 0.17075215280056
vertex 0.187445297837257 -27.814733505249 -0.0173844862729311
endloop
endfacet
facet normal -0.9999840259552 -0.00566040957346559 -1.5021532426025e-16
outer loop
vertex 0.187445297837257 -27.814733505249 0.16738449037075
vertex 0.187445297837257 -27.814733505249 -0.0173844862729311
vertex 0.217945083975792 -33.2029113769531 0.17075215280056
endloop
endfacet
facet normal -0.999983906745911 -0.00566040957346559 -1.5021532426025e-16
outer loop
vertex 0.187445297837257 -27.814733505249 -0.0173844862729311
vertex 0.187445297837257 -27.814733505249 0.16738449037075
vertex 0.15358479321003 -21.8328399658203 -0.0136457439512014
endloop
endfacet
facet normal -0.9999840259552 -0.00566040957346559 7.03051110506462e-17
outer loop
vertex 0.15358479321003 -21.8328399658203 0.16364574432373
vertex 0.15358479321003 -21.8328399658203 -0.0136457439512014
vertex 0.187445297837257 -27.814733505249 0.16738449037075
endloop
endfacet
facet normal -0.9999840259552 -0.00566040957346559 7.03051110506462e-17
outer loop
vertex 0.15358479321003 -21.8328399658203 0.16364574432373
vertex 0.119724281132221 -15.8509464263916 0.159906998276711
vertex 0.15358479321003 -21.8328399658203 -0.0136457439512014
endloop
endfacet
facet normal -0.999983906745911 -0.00566040864214301 5.86830340199159e-18
outer loop
vertex 0.119724281132221 -15.8509464263916 -0.0099070006981492
vertex 0.15358479321003 -21.8328399658203 -0.0136457439512014
vertex 0.119724281132221 -15.8509464263916 0.159906998276711
endloop
endfacet
facet normal -0.9999840259552 -0.00566040957346559 5.86830464276251e-18
outer loop
vertex 0.119724281132221 -15.8509464263916 -0.0099070006981492
vertex 0.119724281132221 -15.8509464263916 0.159906998276711
vertex 0.0858950465917587 -9.87457752227783 -0.00617170985788107
endloop
endfacet
facet normal -0.999983966350555 -0.0056604091078043 8.70419741994951e-18
outer loop
vertex 0.0858950465917587 -9.87457752227783 0.156171709299088
vertex 0.0858950465917587 -9.87457752227783 -0.00617170985788107
vertex 0.119724281132221 -15.8509464263916 0.159906998276711
endloop
endfacet
facet normal -0.999983966350555 -0.00566040957346559 8.70419741994951e-18
outer loop
vertex 0.0858950465917587 -9.87457752227783 -0.00617170985788107
vertex 0.0858950465917587 -9.87457752227783 0.156171709299088
vertex 0.0601942576467991 -5.33420276641846 -0.00333393015898764
endloop
endfacet
facet normal -0.999983966350555 -0.00566040957346559 1.08469543682838e-16
outer loop
vertex 0.0601942576467991 -5.33420276641846 0.153333932161331
vertex 0.0601942576467991 -5.33420276641846 -0.00333393015898764
vertex 0.0858950465917587 -9.87457752227783 0.156171709299088
endloop
endfacet
facet normal -0.9999840259552 -0.00566040957346559 1.08469537065393e-16
outer loop
vertex 0.0601942576467991 -5.33420276641846 0.153333932161331
vertex 0.044782891869545 -2.61158776283264 0.151632264256477
vertex 0.0601942576467991 -5.33420276641846 -0.00333393015898764
endloop
endfacet
facet normal -0.9999840259552 -0.00566040957346559 2.88720146709468e-17
outer loop
vertex 0.044782891869545 -2.61158776283264 -0.00163226842414588
vertex 0.0601942576467991 -5.33420276641846 -0.00333393015898764
vertex 0.044782891869545 -2.61158776283264 0.151632264256477
endloop
endfacet
facet normal -0.999983906745911 -0.0056604091078043 2.88720113622244e-17
outer loop
vertex 0.044782891869545 -2.61158776283264 -0.00163226842414588
vertex 0.044782891869545 -2.61158776283264 0.151632264256477
vertex 0.0355415381491184 -0.978983640670776 -0.000611874565947801
endloop
endfacet
facet normal -0.9999840259552 -0.00566040957346559 -8.36293032704259e-17
outer loop
vertex 0.0355415381491184 -0.978983640670776 0.150611877441406
vertex 0.0355415381491184 -0.978983640670776 -0.000611874565947801
vertex 0.044782891869545 -2.61158776283264 0.151632264256477
endloop
endfacet
facet normal -0.9999840259552 -0.00566040957346559 -8.36293032704259e-17
outer loop
vertex 0.0355415381491184 -0.978983640670776 0.150611877441406
vertex 0.0299999993294477 0 0.150000005960464
vertex 0.0355415381491184 -0.978983640670776 -0.000611874565947801
endloop
endfacet
facet normal -0.999983966350555 -0.0056604091078043 0
outer loop
vertex 0.0299999993294477 0 0
vertex 0.0355415381491184 -0.978983640670776 -0.000611874565947801
vertex 0.0299999993294477 0 0.150000005960464
endloop
endfacet
facet normal 0.707099854946136 0.00444447575137019 0.707099854946136
outer loop
vertex 0.256419837474823 -39.9998512268066 0.174999237060547
vertex 0.247877359390259 -38.4907188415527 0.174056053161621
vertex 0.114999070763588 -39.9995651245117 0.316418170928955
endloop
endfacet
facet normal 0.707099795341492 0.00444447575137019 0.707099795341492
outer loop
vertex 0.111792162060738 -38.4904289245605 0.310139447450638
vertex 0.114999070763588 -39.9995651245117 0.316418170928955
vertex 0.247877359390259 -38.4907188415527 0.174056053161621
endloop
endfacet
facet normal 0.707099795341492 0.00444447575137019 0.707099795341492
outer loop
vertex 0.247877359390259 -38.4907188415527 0.174056053161621
vertex 0.229421034455299 -35.2301826477051 0.172018274664879
vertex 0.111792162060738 -38.4904289245605 0.310139447450638
endloop
endfacet
facet normal 0.707099795341492 0.00444447575137019 0.707099795341492
outer loop
vertex 0.104863598942757 -35.2299308776855 0.296574115753174
vertex 0.111792162060738 -38.4904289245605 0.310139447450638
vertex 0.229421034455299 -35.2301826477051 0.172018274664879
endloop
endfacet
facet normal 0.707099795341492 0.00444447575137019 0.707099795341492
outer loop
vertex 0.104863598942757 -35.2299308776855 0.296574115753174
vertex 0.229421034455299 -35.2301826477051 0.172018274664879
vertex 0.0927276611328125 -29.5188980102539 0.272813379764557
endloop
endfacet
facet normal 0.707099795341492 0.00444447575137019 0.707099795341492
outer loop
vertex 0.197093337774277 -29.5190963745117 0.168448939919472
vertex 0.0927276611328125 -29.5188980102539 0.272813379764557
vertex 0.229421034455299 -35.2301826477051 0.172018274664879
endloop
endfacet
facet normal 0.707099795341492 0.00444447575137019 0.707099795341492
outer loop
vertex 0.197093337774277 -29.5190963745117 0.168448939919472
vertex 0.163674667477608 -23.6152763366699 0.164759144186974
vertex 0.0927276611328125 -29.5188980102539 0.272813379764557
endloop
endfacet
facet normal 0.707099795341492 0.00444447575137019 0.707099795341492
outer loop
vertex 0.0801821276545525 -23.615119934082 0.248250707983971
vertex 0.0927276611328125 -29.5188980102539 0.272813379764557
vertex 0.163674667477608 -23.6152763366699 0.164759144186974
endloop
endfacet
facet normal 0.707099795341492 0.00444447575137019 0.707099795341492
outer loop
vertex 0.0801821276545525 -23.615119934082 0.248250707983971
vertex 0.163674667477608 -23.6152763366699 0.164759144186974
vertex 0.0676365941762924 -17.7113399505615 0.223688021302223
endloop
endfacet
facet normal 0.707099795341492 0.00444447575137019 0.707099795341492
outer loop
vertex 0.130255997180939 -17.7114582061768 0.161069363355637
vertex 0.0676365941762924 -17.7113399505615 0.223688021302223
vertex 0.163674667477608 -23.6152763366699 0.164759144186974
endloop
endfacet
facet normal 0.707099795341492 0.00444447575137019 0.707099795341492
outer loop
vertex 0.130255997180939 -17.7114582061768 0.161069363355637
vertex 0.0968373343348503 -11.807638168335 0.1573795825243
vertex 0.0676365941762924 -17.7113399505615 0.223688021302223
endloop
endfacet
facet normal 0.707099795341492 0.00444447575137019 0.707099795341492
outer loop
vertex 0.0550910644233227 -11.807559967041 0.199125349521637
vertex 0.0676365941762924 -17.7113399505615 0.223688021302223
vertex 0.0968373343348503 -11.807638168335 0.1573795825243
endloop
endfacet
facet normal 0.707099795341492 0.00444447575137019 0.707099795341492
outer loop
vertex 0.0550910644233227 -11.807559967041 0.199125349521637
vertex 0.0968373343348503 -11.807638168335 0.1573795825243
vertex 0.0425455309450626 -5.90377998352051 0.174562677741051
endloop
endfacet
facet normal 0.707099795341492 0.00444447575137019 0.707099795341492
outer loop
vertex 0.0634186640381813 -5.90381908416748 0.153689786791801
vertex 0.0425455309450626 -5.90377998352051 0.174562677741051
vertex 0.0968373343348503 -11.807638168335 0.1573795825243
endloop
endfacet
facet normal 0.707099795341492 0.00444447575137019 0.707099795341492
outer loop
vertex 0.0425455309450626 -5.90377998352051 0.174562677741051
vertex 0.0634186640381813 -5.90381908416748 0.153689786791801
vertex 0.0299999993294477 0 0.150000005960464
endloop
endfacet
facet normal 0.707101106643677 0.00400254549458623 -0.707101106643677
outer loop
vertex 0.341416150331497 -79.9995193481445 -0.166421130299568
vertex 0.338209241628647 -78.4903717041016 -0.161085531115532
vertex 0.482832759618759 -79.9987182617188 -0.025000000372529
endloop
endfacet
facet normal 0.707101106643677 0.00400254549458623 -0.707101106643677
outer loop
vertex 0.47429034113884 -78.4895935058594 -0.025000000372529
vertex 0.482832759618759 -79.9987182617188 -0.025000000372529
vertex 0.338209241628647 -78.4903717041016 -0.161085531115532
endloop
endfacet
facet normal 0.707101106643677 0.00400254596024752 -0.707101106643677
outer loop
vertex 0.338209241628647 -78.4903717041016 -0.161085531115532
vertex 0.331280589103699 -75.2298126220703 -0.149557769298553
vertex 0.47429034113884 -78.4895935058594 -0.025000000372529
endloop
endfacet
facet normal 0.707101106643677 0.00400254596024752 -0.707101106643677
outer loop
vertex 0.45583438873291 -75.2291107177734 -0.025000000372529
vertex 0.47429034113884 -78.4895935058594 -0.025000000372529
vertex 0.331280589103699 -75.2298126220703 -0.149557769298553
endloop
endfacet
facet normal 0.707101106643677 0.00400254596024752 -0.707101106643677
outer loop
vertex 0.45583438873291 -75.2291107177734 -0.025000000372529
vertex 0.331280589103699 -75.2298126220703 -0.149557769298553
vertex 0.423507243394852 -69.5181045532227 -0.025000000372529
endloop
endfacet
facet normal 0.707101106643677 0.00400254596024752 -0.707101106643677
outer loop
vertex 0.319144517183304 -69.518684387207 -0.129365980625153
vertex 0.423507243394852 -69.5181045532227 -0.025000000372529
vertex 0.331280589103699 -75.2298126220703 -0.149557769298553
endloop
endfacet
facet normal 0.707101106643677 0.00400254596024752 -0.707101106643677
outer loop
vertex 0.319144517183304 -69.518684387207 -0.129365980625153
vertex 0.306598871946335 -63.614818572998 -0.108492791652679
vertex 0.423507243394852 -69.5181045532227 -0.025000000372529
endloop
endfacet
facet normal 0.707101106643677 0.00400254596024752 -0.707101106643677
outer loop
vertex 0.390089064836502 -63.6143569946289 -0.025000000372529
vertex 0.423507243394852 -69.5181045532227 -0.025000000372529
vertex 0.306598871946335 -63.614818572998 -0.108492791652679
endloop
endfacet
facet normal 0.707101106643677 0.00400254596024752 -0.707101106643677
outer loop
vertex 0.390089064836502 -63.6143569946289 -0.025000000372529
vertex 0.306598871946335 -63.614818572998 -0.108492791652679
vertex 0.356670886278152 -57.7106094360352 -0.025000000372529
endloop
endfacet
facet normal 0.707101106643677 0.00400254596024752 -0.707101106643677
outer loop
vertex 0.294053256511688 -57.7109527587891 -0.0876195877790451
vertex 0.356670886278152 -57.7106094360352 -0.025000000372529
vertex 0.306598871946335 -63.614818572998 -0.108492791652679
endloop
endfacet
facet normal 0.707101106643677 0.00400254596024752 -0.707101106643677
outer loop
vertex 0.294053256511688 -57.7109527587891 -0.0876195877790451
vertex 0.281507641077042 -51.8070869445801 -0.0667463913559914
vertex 0.356670886278152 -57.7106094360352 -0.025000000372529
endloop
endfacet
facet normal 0.707101106643677 0.00400254596024752 -0.707101106643677
outer loop
vertex 0.323252707719803 -51.8068580627441 -0.025000000372529
vertex 0.356670886278152 -57.7106094360352 -0.025000000372529
vertex 0.281507641077042 -51.8070869445801 -0.0667463913559914
endloop
endfacet
facet normal 0.707101106643677 0.00400254596024752 -0.707101106643677
outer loop
vertex 0.323252707719803 -51.8068580627441 -0.025000000372529
vertex 0.281507641077042 -51.8070869445801 -0.0667463913559914
vertex 0.289834558963776 -45.9031105041504 -0.025000000372529
endloop
endfacet
facet normal 0.707101106643677 0.00400254596024752 -0.707101106643677
outer loop
vertex 0.268961995840073 -45.9032249450684 -0.0458731986582279
vertex 0.289834558963776 -45.9031105041504 -0.025000000372529
vertex 0.281507641077042 -51.8070869445801 -0.0667463913559914
endloop
endfacet
facet normal 0.707101106643677 0.00400254596024752 -0.707101106643677
outer loop
vertex 0.289834558963776 -45.9031105041504 -0.025000000372529
vertex 0.268961995840073 -45.9032249450684 -0.0458731986582279
vertex 0.256416380405426 -39.9993591308594 -0.025000000372529
endloop
endfacet
facet normal 0.223635733127594 0.670816719532013 -0.707101106643677
outer loop
vertex 70.8024139404297 -70.1118469238281 -0.251416146755219
vertex 70.7561721801758 -70.245491027832 -0.39283275604248
vertex 69.3717422485352 -69.6315078735352 -0.248209238052368
endloop
endfacet
facet normal 0.223635748028755 0.670816719532013 -0.707101106643677
outer loop
vertex 69.3272323608398 -69.7601165771484 -0.384290337562561
vertex 69.3717422485352 -69.6315078735352 -0.248209238052368
vertex 70.7561721801758 -70.245491027832 -0.39283275604248
endloop
endfacet
facet normal 0.223635762929916 0.670816719532013 -0.707101106643677
outer loop
vertex 69.3717422485352 -69.6315078735352 -0.248209238052368
vertex 69.3272323608398 -69.7601165771484 -0.384290337562561
vertex 66.2807235717773 -68.5937271118164 -0.24128058552742
endloop
endfacet
facet normal 0.223635762929916 0.670816719532013 -0.707101166248322
outer loop
vertex 66.2399978637695 -68.7114410400391 -0.365834385156631
vertex 66.2807235717773 -68.5937271118164 -0.24128058552742
vertex 69.3272323608398 -69.7601165771484 -0.384290337562561
endloop
endfacet
facet normal 0.223635762929916 0.670816719532013 -0.707101106643677
outer loop
vertex 66.2399978637695 -68.7114410400391 -0.365834385156631
vertex 60.832447052002 -66.8746032714844 -0.333507239818573
vertex 66.2807235717773 -68.5937271118164 -0.24128058552742
endloop
endfacet
facet normal 0.223635748028755 0.670816659927368 -0.707101106643677
outer loop
vertex 60.8665580749512 -66.7759704589844 -0.229144513607025
vertex 66.2807235717773 -68.5937271118164 -0.24128058552742
vertex 60.832447052002 -66.8746032714844 -0.333507239818573
endloop
endfacet
facet normal 0.223635733127594 0.670816719532013 -0.707101106643677
outer loop
vertex 60.8665580749512 -66.7759704589844 -0.229144513607025
vertex 60.832447052002 -66.8746032714844 -0.333507239818573
vertex 55.2696800231934 -64.8968658447266 -0.216598883271217
endloop
endfacet
facet normal 0.223635762929916 0.670816719532013 -0.707101106643677
outer loop
vertex 55.2423896789551 -64.9757766723633 -0.300089061260223
vertex 55.2696800231934 -64.8968658447266 -0.216598883271217
vertex 60.832447052002 -66.8746032714844 -0.333507239818573
endloop
endfacet
facet normal 0.223635762929916 0.670816719532013 -0.707101106643677
outer loop
vertex 55.2423896789551 -64.9757766723633 -0.300089061260223
vertex 49.6523361206055 -63.0769462585449 -0.266670882701874
vertex 55.2696800231934 -64.8968658447266 -0.216598883271217
endloop
endfacet
facet normal 0.223635748028755 0.670816719532013 -0.707101106643677
outer loop
vertex 49.6728057861328 -63.017765045166 -0.20405325293541
vertex 55.2696800231934 -64.8968658447266 -0.216598883271217
vertex 49.6523361206055 -63.0769462585449 -0.266670882701874
endloop
endfacet
facet normal 0.223635748028755 0.670816719532013 -0.707101106643677
outer loop
vertex 49.6728057861328 -63.017765045166 -0.20405325293541
vertex 49.6523361206055 -63.0769462585449 -0.266670882701874
vertex 44.075927734375 -61.1386642456055 -0.191507622599602
endloop
endfacet
facet normal 0.223635762929916 0.670816719532013 -0.707101106643677
outer loop
vertex 44.0622825622559 -61.1781196594238 -0.233252719044685
vertex 44.075927734375 -61.1386642456055 -0.191507622599602
vertex 49.6523361206055 -63.0769462585449 -0.266670882701874
endloop
endfacet
facet normal 0.223635762929916 0.670816719532013 -0.707101106643677
outer loop
vertex 44.0622825622559 -61.1781196594238 -0.233252719044685
vertex 38.4722290039063 -59.2792892456055 -0.199834540486336
vertex 44.075927734375 -61.1386642456055 -0.191507622599602
endloop
endfacet
facet normal 0.223635762929916 0.670816719532013 -0.707101106643677
outer loop
vertex 38.4790496826172 -59.2595634460449 -0.178962007164955
vertex 44.075927734375 -61.1386642456055 -0.191507622599602
vertex 38.4722290039063 -59.2792892456055 -0.199834540486336
endloop
endfacet
facet normal 0.223635762929916 0.670816719532013 -0.707101106643677
outer loop
vertex 38.4722290039063 -59.2792892456055 -0.199834540486336
vertex 32.8821754455566 -57.3804626464844 -0.166416376829147
vertex 38.4790496826172 -59.2595634460449 -0.178962007164955
endloop
endfacet
endsolid COMSOL mesh mesh1
