solid COMSOL mesh mesh1
facet normal -0.00808341056108475 0.999967277050018 0
outer loop
vertex 0 0 0
vertex -0.969108939170837 -0.00783396232873201 0
vertex 0 0 0.150000005960464
endloop
endfacet
facet normal -0.00808341056108475 0.999967277050018 1.40110664568315e-17
outer loop
vertex -0.969108939170837 -0.00783396232873201 0.150000005960464
vertex 0 0 0.150000005960464
vertex -0.969108939170837 -0.00783396232873201 0
endloop
endfacet
facet normal -0.00808341149240732 0.999967336654663 6.42251234445059e-18
outer loop
vertex -2.5050311088562 -0.0202498584985733 0
vertex -2.5050311088562 -0.0202498584985733 0.150000005960464
vertex -0.969108939170837 -0.00783396232873201 0
endloop
endfacet
facet normal -0.00808341149240732 0.999967336654663 1.40110664568315e-17
outer loop
vertex -0.969108939170837 -0.00783396232873201 0.150000005960464
vertex -0.969108939170837 -0.00783396232873201 0
vertex -2.5050311088562 -0.0202498584985733 0.150000005960464
endloop
endfacet
facet normal -0.00808341149240732 0.999967336654663 6.42251234445059e-18
outer loop
vertex -2.5050311088562 -0.0202498584985733 0
vertex -4.939284324646 -0.0399275720119476 0
vertex -2.5050311088562 -0.0202498584985733 0.150000005960464
endloop
endfacet
facet normal -0.00808341149240732 0.999967336654663 3.82296409342408e-17
outer loop
vertex -4.939284324646 -0.0399275720119476 0.150000005960464
vertex -2.5050311088562 -0.0202498584985733 0.150000005960464
vertex -4.939284324646 -0.0399275720119476 0
endloop
endfacet
facet normal -0.00808341149240732 0.999967336654663 3.82296409342408e-17
outer loop
vertex -4.939284324646 -0.0399275720119476 0
vertex -8.79728603363037 -0.0711144059896469 0
vertex -4.939284324646 -0.0399275720119476 0.150000005960464
endloop
endfacet
facet normal -0.00808341149240732 0.999967336654663 2.55067878439635e-16
outer loop
vertex -8.79728603363037 -0.0711144059896469 0.150000005960464
vertex -4.939284324646 -0.0399275720119476 0.150000005960464
vertex -8.79728603363037 -0.0711144059896469 0
endloop
endfacet
facet normal -0.00808341149240732 0.999967336654663 2.55067904909414e-16
outer loop
vertex -8.79728603363037 -0.0711144059896469 0
vertex -14.3230743408203 -0.115783080458641 0
vertex -8.79728603363037 -0.0711144059896469 0.150000005960464
endloop
endfacet
facet normal -0.00808341149240732 0.999967336654663 -2.89013034820761e-17
outer loop
vertex -14.3230743408203 -0.115783080458641 0.150000005960464
vertex -8.79728603363037 -0.0711144059896469 0.150000005960464
vertex -14.3230743408203 -0.115783080458641 0
endloop
endfacet
facet normal -0.00808341149240732 0.999967336654663 -2.89013034820761e-17
outer loop
vertex -14.3230743408203 -0.115783080458641 0.150000005960464
vertex -14.3230743408203 -0.115783080458641 0
vertex -19.9993457794189 -0.161668226122856 0.150000005960464
endloop
endfacet
facet normal -0.00808341149240732 0.999967336654663 1.52918550502073e-16
outer loop
vertex -19.9993457794189 -0.161668226122856 0
vertex -19.9993457794189 -0.161668226122856 0.150000005960464
vertex -14.3230743408203 -0.115783080458641 0
endloop
endfacet
facet normal -0.00808341149240732 0.999967336654663 5.3582578971346e-16
outer loop
vertex -25.6756191253662 -0.207553371787071 0
vertex -25.6756191253662 -0.207553371787071 0.150000005960464
vertex -19.9993457794189 -0.161668226122856 0
endloop
endfacet
facet normal -0.00808341149240732 0.999967336654663 1.52918550502073e-16
outer loop
vertex -19.9993457794189 -0.161668226122856 0.150000005960464
vertex -19.9993457794189 -0.161668226122856 0
vertex -25.6756191253662 -0.207553371787071 0.150000005960464
endloop
endfacet
facet normal -0.00808341149240732 0.999967336654663 5.35825842653019e-16
outer loop
vertex -25.6756191253662 -0.207553371787071 0
vertex -31.2014064788818 -0.252222031354904 0
vertex -25.6756191253662 -0.207553371787071 0.150000005960464
endloop
endfacet
facet normal -0.00808341149240732 0.999967336654663 -3.85350757210647e-17
outer loop
vertex -31.2014064788818 -0.252222031354904 0.150000005960464
vertex -25.6756191253662 -0.207553371787071 0.150000005960464
vertex -31.2014064788818 -0.252222031354904 0
endloop
endfacet
facet normal -0.00808341149240732 0.999967336654663 -3.85350724123423e-17
outer loop
vertex -31.2014064788818 -0.252222031354904 0
vertex -35.0594100952148 -0.283408880233765 0
vertex -31.2014064788818 -0.252222031354904 0.150000005960464
endloop
endfacet
facet normal -0.00808341149240732 0.999967336654663 3.70062236029181e-16
outer loop
vertex -35.0594100952148 -0.283408880233765 0.150000005960464
vertex -31.2014064788818 -0.252222031354904 0.150000005960464
vertex -35.0594100952148 -0.283408880233765 0
endloop
endfacet
facet normal -0.00808341149240732 0.999967336654663 3.70062262498961e-16
outer loop
vertex -37.4936637878418 -0.303086578845978 0
vertex -37.4936637878418 -0.303086578845978 0.150000005960464
vertex -35.0594100952148 -0.283408880233765 0
endloop
endfacet
facet normal -0.00808341149240732 0.999967336654663 3.70062262498961e-16
outer loop
vertex -35.0594100952148 -0.283408880233765 0.150000005960464
vertex -35.0594100952148 -0.283408880233765 0
vertex -37.4936637878418 -0.303086578845978 0.150000005960464
endloop
endfacet
facet normal -0.00808341149240732 0.999967336654663 3.70062262498961e-16
outer loop
vertex -37.4936637878418 -0.303086578845978 0
vertex -39.0295829772949 -0.315502494573593 0
vertex -37.4936637878418 -0.303086578845978 0.150000005960464
endloop
endfacet
facet normal -0.00808341149240732 0.999967336654663 -3.70062262498961e-16
outer loop
vertex -39.0295829772949 -0.315502494573593 0.150000005960464
vertex -37.4936637878418 -0.303086578845978 0.150000005960464
vertex -39.0295829772949 -0.315502494573593 0
endloop
endfacet
facet normal -0.00808341056108475 0.999967277050018 -3.70062236029181e-16
outer loop
vertex -39.0295829772949 -0.315502494573593 0
vertex -39.9986915588379 -0.323336452245712 0
vertex -39.0295829772949 -0.315502494573593 0.150000005960464
endloop
endfacet
facet normal -0.00808341056108475 0.999967277050018 0
outer loop
vertex -39.9986915588379 -0.323336452245712 0.150000005960464
vertex -39.0295829772949 -0.315502494573593 0.150000005960464
vertex -39.9986915588379 -0.323336452245712 0
endloop
endfacet
facet normal -0.707111835479736 0.00293575134128332 0.707095682621002
outer loop
vertex -4.30063676834106 -0.0119574777781963 -4.30068492889404
vertex -4.30065107345581 -0.0347650647163391 -4.30060434341431
vertex 0 0 0
endloop
endfacet
facet normal -0.707111835479736 0.00293575134128332 0.707095682621002
outer loop
vertex -8.60127353668213 -0.0239149555563927 -8.60136985778809
vertex -8.60130214691162 -0.0695301294326782 -8.60120868682861
vertex -4.30063676834106 -0.0119574777781963 -4.30068492889404
endloop
endfacet
facet normal -0.707111835479736 0.00293575134128332 0.707095682621002
outer loop
vertex -4.30065107345581 -0.0347650647163391 -4.30060434341431
vertex -4.30063676834106 -0.0119574777781963 -4.30068492889404
vertex -8.60130214691162 -0.0695301294326782 -8.60120868682861
endloop
endfacet
facet normal -0.707111835479736 0.00293575134128332 0.707095682621002
outer loop
vertex -8.60127353668213 -0.0239149555563927 -8.60136985778809
vertex -12.9019107818604 -0.035872433334589 -12.9020547866821
vertex -8.60130214691162 -0.0695301294326782 -8.60120868682861
endloop
endfacet
facet normal -0.707111775875092 0.00293575134128332 0.707095682621002
outer loop
vertex -12.9019527435303 -0.104295201599598 -12.9018135070801
vertex -8.60130214691162 -0.0695301294326782 -8.60120868682861
vertex -12.9019107818604 -0.035872433334589 -12.9020547866821
endloop
endfacet
facet normal -0.707111835479736 0.00293575134128332 0.707095682621002
outer loop
vertex -17.2025470733643 -0.0478299111127853 -17.2027397155762
vertex -17.2026042938232 -0.139060258865356 -17.2024173736572
vertex -12.9019107818604 -0.035872433334589 -12.9020547866821
endloop
endfacet
facet normal -0.707111775875092 0.00293575134128332 0.707095682621002
outer loop
vertex -12.9019527435303 -0.104295201599598 -12.9018135070801
vertex -12.9019107818604 -0.035872433334589 -12.9020547866821
vertex -17.2026042938232 -0.139060258865356 -17.2024173736572
endloop
endfacet
facet normal -0.707111835479736 0.00293575134128332 0.707095682621002
outer loop
vertex -17.2025470733643 -0.0478299111127853 -17.2027397155762
vertex -21.5031852722168 -0.0597873888909817 -21.5034255981445
vertex -17.2026042938232 -0.139060258865356 -17.2024173736572
endloop
endfacet
facet normal -0.707111775875092 0.00293575110845268 0.707095682621002
outer loop
vertex -21.5032558441162 -0.173825338482857 -21.503023147583
vertex -17.2026042938232 -0.139060258865356 -17.2024173736572
vertex -21.5031852722168 -0.0597873888909817 -21.5034255981445
endloop
endfacet
facet normal -0.707111775875092 0.00293575134128332 0.707095682621002
outer loop
vertex -25.4804916381836 -0.0708458796143532 -25.4807758331299
vertex -25.4805850982666 -0.205976784229279 -25.4803104400635
vertex -21.5031852722168 -0.0597873888909817 -21.5034255981445
endloop
endfacet
facet normal -0.707111775875092 0.00293575157411397 0.707095742225647
outer loop
vertex -21.5032558441162 -0.173825338482857 -21.503023147583
vertex -21.5031852722168 -0.0597873888909817 -21.5034255981445
vertex -25.4805850982666 -0.205976784229279 -25.4803104400635
endloop
endfacet
facet normal -0.707111775875092 0.00293575134128332 0.707095682621002
outer loop
vertex -25.4804916381836 -0.0708458796143532 -25.4807758331299
vertex -27.4496250152588 -0.0763208568096161 -27.4499320983887
vertex -25.4805850982666 -0.205976784229279 -25.4803104400635
endloop
endfacet
facet normal -0.707111775875092 0.00293575110845268 0.707095682621002
outer loop
vertex -27.4497299194336 -0.221894696354866 -27.4494323730469
vertex -25.4805850982666 -0.205976784229279 -25.4803104400635
vertex -27.4496250152588 -0.0763208568096161 -27.4499320983887
endloop
endfacet
facet normal -0.707111775875092 0.00293575134128332 0.707095682621002
outer loop
vertex -27.4496250152588 -0.0763208568096161 -27.4499320983887
vertex -28.2840576171875 -0.078640915453434 -28.2843742370605
vertex -27.4497299194336 -0.221894696354866 -27.4494323730469
endloop
endfacet
facet normal -0.707111775875092 0.00293575134128332 0.707095682621002
outer loop
vertex -28.2841606140137 -0.228639975190163 -28.2838554382324
vertex -27.4497299194336 -0.221894696354866 -27.4494323730469
vertex -28.2840576171875 -0.078640915453434 -28.2843742370605
endloop
endfacet
facet normal 0.707101702690125 0.00346604036167264 -0.707103431224823
outer loop
vertex -0.145329400897026 -0.000404073449317366 -0.145331025123596
vertex 0 0 0
vertex -0.145179331302643 -0.0310202892869711 -0.145331025123596
endloop
endfacet
facet normal 0.707101762294769 0.00346604036167264 -0.707103371620178
outer loop
vertex 0.000147050930536352 -0.0299996398389339 0
vertex -0.145179331302643 -0.0310202892869711 -0.145331025123596
vertex 0 0 0
endloop
endfacet
facet normal 0.70710164308548 0.00346604036167264 -0.707103371620178
outer loop
vertex -0.398073494434357 -0.00110680237412453 -0.398077964782715
vertex -0.145329400897026 -0.000404073449317366 -0.145331025123596
vertex -0.397918164730072 -0.0327953137457371 -0.398077964782715
endloop
endfacet
facet normal 0.70710164308548 0.003466040128842 -0.707103371620178
outer loop
vertex -0.145179331302643 -0.0310202892869711 -0.145331025123596
vertex -0.397918164730072 -0.0327953137457371 -0.398077964782715
vertex -0.145329400897026 -0.000404073449317366 -0.145331025123596
endloop
endfacet
facet normal 0.70710164308548 0.003466040128842 -0.707103371620178
outer loop
vertex -0.398073494434357 -0.00110680237412453 -0.398077964782715
vertex -0.397918164730072 -0.0327953137457371 -0.398077964782715
vertex -0.837623775005341 -0.00232892669737339 -0.83763313293457
endloop
endfacet
facet normal 0.70710164308548 0.00346604036167264 -0.707103371620178
outer loop
vertex -0.837459325790405 -0.0358822830021381 -0.83763313293457
vertex -0.837623775005341 -0.00232892669737339 -0.83763313293457
vertex -0.397918164730072 -0.0327953137457371 -0.398077964782715
endloop
endfacet
facet normal 0.70710164308548 0.00346603989601135 -0.707103371620178
outer loop
vertex -1.60205090045929 -0.00445433752611279 -1.60206878185272
vertex -0.837623775005341 -0.00232892669737339 -0.83763313293457
vertex -1.6018705368042 -0.041250865906477 -1.60206878185272
endloop
endfacet
facet normal 0.707101702690125 0.00346604036167264 -0.707103371620178
outer loop
vertex -0.837459325790405 -0.0358822830021381 -0.83763313293457
vertex -1.6018705368042 -0.041250865906477 -1.60206878185272
vertex -0.837623775005341 -0.00232892669737339 -0.83763313293457
endloop
endfacet
facet normal 0.70710164308548 0.003466040128842 -0.707103371620178
outer loop
vertex -2.9314751625061 -0.00815066508948803 -2.93150806427002
vertex -1.60205090045929 -0.00445433752611279 -1.60206878185272
vertex -2.93126726150513 -0.0505874305963516 -2.93150806427002
endloop
endfacet
facet normal 0.707101583480835 0.00346603989601135 -0.707103312015533
outer loop
vertex -1.6018705368042 -0.041250865906477 -1.60206878185272
vertex -2.93126726150513 -0.0505874305963516 -2.93150806427002
vertex -1.60205090045929 -0.00445433752611279 -1.60206878185272
endloop
endfacet
facet normal 0.70710164308548 0.003466040128842 -0.707103371620178
outer loop
vertex -2.9314751625061 -0.00815066508948803 -2.93150806427002
vertex -2.93126726150513 -0.0505874305963516 -2.93150806427002
vertex -5.24349308013916 -0.0145789925009012 -5.24355173110962
endloop
endfacet
facet normal 0.707101702690125 0.003466040128842 -0.707103371620178
outer loop
vertex -5.24323701858521 -0.0668247640132904 -5.24355173110962
vertex -5.24349308013916 -0.0145789925009012 -5.24355173110962
vertex -2.93126726150513 -0.0505874305963516 -2.93150806427002
endloop
endfacet
facet normal 0.707101583480835 0.00346603989601135 -0.707103371620178
outer loop
vertex -9.05317974090576 -0.0251714345067739 -9.0532808303833
vertex -5.24349308013916 -0.0145789925009012 -5.24355173110962
vertex -9.0528450012207 -0.0935802459716797 -9.0532808303833
endloop
endfacet
facet normal 0.707101702690125 0.003466040128842 -0.707103431224823
outer loop
vertex -5.24323701858521 -0.0668247640132904 -5.24355173110962
vertex -9.0528450012207 -0.0935802459716797 -9.0532808303833
vertex -5.24349308013916 -0.0145789925009012 -5.24355173110962
endloop
endfacet
facet normal 0.707101702690125 0.003466040128842 -0.707103371620178
outer loop
vertex -9.05317974090576 -0.0251714345067739 -9.0532808303833
vertex -9.0528450012207 -0.0935802459716797 -9.0532808303833
vertex -13.220591545105 -0.0367584936320782 -13.220739364624
endloop
endfacet
facet normal 0.707101702690125 0.00346604059450328 -0.707103490829468
outer loop
vertex -13.2201690673828 -0.122848033905029 -13.220739364624
vertex -13.220591545105 -0.0367584936320782 -13.220739364624
vertex -9.0528450012207 -0.0935802459716797 -9.0532808303833
endloop
endfacet
facet normal 0.707101702690125 0.00346604059450328 -0.707103490829468
outer loop
vertex -13.220591545105 -0.0367584936320782 -13.220739364624
vertex -13.2201690673828 -0.122848033905029 -13.220739364624
vertex -17.3880023956299 -0.0483455508947372 -17.3881969451904
endloop
endfacet
facet normal 0.707101702690125 0.00346604036167264 -0.707103431224823
outer loop
vertex -17.3874931335449 -0.152115821838379 -17.3881969451904
vertex -17.3880023956299 -0.0483455508947372 -17.3881969451904
vertex -13.2201690673828 -0.122848033905029 -13.220739364624
endloop
endfacet
facet normal 0.70710164308548 0.00346604036167264 -0.707103431224823
outer loop
vertex -21.5354080200195 -0.0598769821226597 -21.5356483459473
vertex -17.3880023956299 -0.0483455508947372 -17.3881969451904
vertex -21.5348129272461 -0.181243106722832 -21.5356483459473
endloop
endfacet
facet normal 0.70710164308548 0.00346604036167264 -0.707103371620178
outer loop
vertex -17.3874931335449 -0.152115821838379 -17.3881969451904
vertex -21.5348129272461 -0.181243106722832 -21.5356483459473
vertex -17.3880023956299 -0.0483455508947372 -17.3881969451904
endloop
endfacet
facet normal 0.707101702690125 0.00346604059450328 -0.707103431224823
outer loop
vertex -24.5963668823242 -0.0683876648545265 -24.5966415405273
vertex -21.5354080200195 -0.0598769821226597 -21.5356483459473
vertex -24.5957069396973 -0.202740266919136 -24.5966415405273
endloop
endfacet
facet normal 0.70710164308548 0.003466040128842 -0.707103371620178
outer loop
vertex -21.5348129272461 -0.181243106722832 -21.5356483459473
vertex -24.5957069396973 -0.202740266919136 -24.5966415405273
vertex -21.5354080200195 -0.0598769821226597 -21.5356483459473
endloop
endfacet
facet normal 0.707101702690125 0.00346604036167264 -0.707103371620178
outer loop
vertex -24.5963668823242 -0.0683876648545265 -24.5966415405273
vertex -24.5957069396973 -0.202740266919136 -24.5966415405273
vertex -26.4595832824707 -0.0735681504011154 -26.4598789215088
endloop
endfacet
facet normal 0.70710164308548 0.00346604036167264 -0.707103431224823
outer loop
vertex -26.4588851928711 -0.215825662016869 -26.4598789215088
vertex -26.4595832824707 -0.0735681504011154 -26.4598789215088
vertex -24.5957069396973 -0.202740266919136 -24.5966415405273
endloop
endfacet
facet normal 0.707101702690125 0.003466040128842 -0.707103371620178
outer loop
vertex -27.5937309265137 -0.0767215266823769 -27.5940399169922
vertex -26.4595832824707 -0.0735681504011154 -26.4598789215088
vertex -27.5930099487305 -0.223790794610977 -27.5940399169922
endloop
endfacet
facet normal 0.70710164308548 0.003466040128842 -0.707103371620178
outer loop
vertex -26.4588851928711 -0.215825662016869 -26.4598789215088
vertex -27.5930099487305 -0.223790794610977 -27.5940399169922
vertex -26.4595832824707 -0.0735681504011154 -26.4598789215088
endloop
endfacet
facet normal 0.70710164308548 0.00346604036167264 -0.707103431224823
outer loop
vertex -27.5937309265137 -0.0767215266823769 -27.5940399169922
vertex -27.5930099487305 -0.223790794610977 -27.5940399169922
vertex -28.2840900421143 -0.0786409974098206 -28.2844066619873
endloop
endfacet
facet normal 0.70710164308548 0.003466040128842 -0.707103371620178
outer loop
vertex -28.2833557128906 -0.228639200329781 -28.2844066619873
vertex -28.2840900421143 -0.0786409974098206 -28.2844066619873
vertex -27.5930099487305 -0.223790794610977 -27.5940399169922
endloop
endfacet
facet normal -0.326037883758545 -0.945356726646423 2.47771041964745e-13
outer loop
vertex -4.88432693481445 -44.7621612548828 0.059691708534956
vertex -4.88432693481445 -44.7621612548828 0.0903082937002182
vertex -5.07862424850464 -44.6951522827148 0.0599999986588955
endloop
endfacet
facet normal -0.326037913560867 -0.945356726646423 -0
outer loop
vertex -5.07862424850464 -44.6951522827148 0.0900000035762787
vertex -5.07862424850464 -44.6951522827148 0.0599999986588955
vertex -4.88432693481445 -44.7621612548828 0.0903082937002182
endloop
endfacet
facet normal -0.326037883758545 -0.945356726646423 4.42220722931055e-13
outer loop
vertex -4.54642200469971 -44.8787002563477 0.0591555535793304
vertex -4.54642200469971 -44.8787002563477 0.0908444449305534
vertex -4.88432693481445 -44.7621612548828 0.059691708534956
endloop
endfacet
facet normal -0.326037853956223 -0.945356667041779 2.47771014859691e-13
outer loop
vertex -4.88432693481445 -44.7621612548828 0.0903082937002182
vertex -4.88432693481445 -44.7621612548828 0.059691708534956
vertex -4.54642200469971 -44.8787002563477 0.0908444449305534
endloop
endfacet
facet normal -0.326037913560867 -0.945356726646423 4.42220804246218e-13
outer loop
vertex -4.54642200469971 -44.8787002563477 0.0591555535793304
vertex -3.95876741409302 -45.081371307373 0.058223120868206
vertex -4.54642200469971 -44.8787002563477 0.0908444449305534
endloop
endfacet
facet normal -0.326037853956223 -0.945356726646423 -2.56288181866085e-13
outer loop
vertex -3.95876741409302 -45.081371307373 0.0917768776416779
vertex -4.54642200469971 -44.8787002563477 0.0908444449305534
vertex -3.95876741409302 -45.081371307373 0.058223120868206
endloop
endfacet
facet normal -0.326037853956223 -0.945356667041779 1.74676977526475e-13
outer loop
vertex -2.93677043914795 -45.4338417053223 0.0566015169024467
vertex -2.93677043914795 -45.4338417053223 0.0933984816074371
vertex -3.95876741409302 -45.081371307373 0.058223120868206
endloop
endfacet
facet normal -0.326037883758545 -0.945356667041779 -2.56288181866085e-13
outer loop
vertex -3.95876741409302 -45.081371307373 0.0917768776416779
vertex -3.95876741409302 -45.081371307373 0.058223120868206
vertex -2.93677043914795 -45.4338417053223 0.0933984816074371
endloop
endfacet
facet normal -0.326037853956223 -0.945356667041779 -7.50608410604765e-14
outer loop
vertex -1.15940344333649 -46.0468254089355 0.0537813603878021
vertex -1.15940344333649 -46.0468254089355 0.0962186381220818
vertex -2.93677043914795 -45.4338417053223 0.0566015169024467
endloop
endfacet
facet normal -0.326037883758545 -0.945356726646423 1.74676977526475e-13
outer loop
vertex -2.93677043914795 -45.4338417053223 0.0933984816074371
vertex -2.93677043914795 -45.4338417053223 0.0566015169024467
vertex -1.15940344333649 -46.0468254089355 0.0962186381220818
endloop
endfacet
facet normal -0.326037853956223 -0.945356667041779 -7.50608478367401e-14
outer loop
vertex -1.15940344333649 -46.0468254089355 0.0537813603878021
vertex 1.93163669109344 -47.1128768920898 0.0488767996430397
vertex -1.15940344333649 -46.0468254089355 0.0962186381220818
endloop
endfacet
facet normal -0.326037883758545 -0.945356667041779 4.4637142831809e-13
outer loop
vertex 1.93163669109344 -47.1128768920898 0.101123198866844
vertex -1.15940344333649 -46.0468254089355 0.0962186381220818
vertex 1.93163669109344 -47.1128768920898 0.0488767996430397
endloop
endfacet
facet normal -0.326037883758545 -0.945356726646423 2.00613654919961e-13
outer loop
vertex 7.02497816085815 -48.8694839477539 0.0407951809465885
vertex 7.02497816085815 -48.8694839477539 0.109204821288586
vertex 1.93163669109344 -47.1128768920898 0.0488767996430397
endloop
endfacet
facet normal -0.326037883758545 -0.945356726646423 4.46371455423145e-13
outer loop
vertex 1.93163669109344 -47.1128768920898 0.101123198866844
vertex 1.93163669109344 -47.1128768920898 0.0488767996430397
vertex 7.02497816085815 -48.8694839477539 0.109204821288586
endloop
endfacet
facet normal -0.326037883758545 -0.945356667041779 2.00613654919961e-13
outer loop
vertex 7.02497816085815 -48.8694839477539 0.0407951809465885
vertex 12.5965766906738 -50.7910385131836 0.0319547094404697
vertex 7.02497816085815 -48.8694839477539 0.109204821288586
endloop
endfacet
facet normal -0.326037853956223 -0.945356667041779 -0
outer loop
vertex 12.5965766906738 -50.7910385131836 0.118045285344124
vertex 7.02497816085815 -48.8694839477539 0.109204821288586
vertex 12.5965766906738 -50.7910385131836 0.0319547094404697
endloop
endfacet
facet normal -0.326037883758545 -0.945356726646423 -1.11622078022137e-14
outer loop
vertex 18.168176651001 -52.712589263916 0.126885756850243
vertex 12.5965766906738 -50.7910385131836 0.118045285344124
vertex 18.168176651001 -52.712589263916 0.0231142397969961
endloop
endfacet
facet normal -0.326037853956223 -0.945356667041779 0
outer loop
vertex 12.5965766906738 -50.7910385131836 0.0319547094404697
vertex 18.168176651001 -52.712589263916 0.0231142397969961
vertex 12.5965766906738 -50.7910385131836 0.118045285344124
endloop
endfacet
facet normal -0.326037853956223 -0.945356667041779 -1.11622069551807e-14
outer loop
vertex 18.168176651001 -52.712589263916 0.126885756850243
vertex 18.168176651001 -52.712589263916 0.0231142397969961
vertex 23.7130279541016 -54.6249160766602 0.135683789849281
endloop
endfacet
facet normal -0.326037883758545 -0.945356726646423 -5.53456172764418e-14
outer loop
vertex 23.7130279541016 -54.6249160766602 0.0143162095919251
vertex 23.7130279541016 -54.6249160766602 0.135683789849281
vertex 18.168176651001 -52.712589263916 0.0231142397969961
endloop
endfacet
facet normal -0.326037853956223 -0.945356726646423 -5.534561388831e-14
outer loop
vertex 23.7130279541016 -54.6249160766602 0.135683789849281
vertex 23.7130279541016 -54.6249160766602 0.0143162095919251
vertex 27.8053607940674 -56.0362930297852 0.142177104949951
endloop
endfacet
facet normal -0.326037883758545 -0.945356786251068 9.13704740123852e-14
outer loop
vertex 27.8053607940674 -56.0362930297852 0.00782289449125528
vertex 27.8053607940674 -56.0362930297852 0.142177104949951
vertex 23.7130279541016 -54.6249160766602 0.0143162095919251
endloop
endfacet
facet normal -0.326037883758545 -0.945356726646423 -8.14231342261993e-15
outer loop
vertex 30.2963790893555 -56.8954048156738 0.146129608154297
vertex 27.8053607940674 -56.0362930297852 0.142177104949951
vertex 30.2963790893555 -56.8954048156738 0.0038703887257725
endloop
endfacet
facet normal -0.326037883758545 -0.945356726646423 9.13704672361217e-14
outer loop
vertex 27.8053607940674 -56.0362930297852 0.00782289449125528
vertex 30.2963790893555 -56.8954048156738 0.0038703887257725
vertex 27.8053607940674 -56.0362930297852 0.142177104949951
endloop
endfacet
facet normal -0.326037883758545 -0.945356726646423 -8.14231426965288e-15
outer loop
vertex 30.2963790893555 -56.8954048156738 0.146129608154297
vertex 30.2963790893555 -56.8954048156738 0.0038703887257725
vertex 31.812671661377 -57.4183502197266 0.148535519838333
endloop
endfacet
facet normal -0.326037853956223 -0.945356726646423 0
outer loop
vertex 31.812671661377 -57.4183502197266 0.00146448356099427
vertex 31.812671661377 -57.4183502197266 0.148535519838333
vertex 30.2963790893555 -56.8954048156738 0.0038703887257725
endloop
endfacet
facet normal -0.326037853956223 -0.945356726646423 -0
outer loop
vertex 31.812671661377 -57.4183502197266 0.148535519838333
vertex 31.812671661377 -57.4183502197266 0.00146448356099427
vertex 32.7356452941895 -57.7366676330566 0.150000005960464
endloop
endfacet
facet normal -0.326037853956223 -0.945356667041779 0
outer loop
vertex 32.7356452941895 -57.7366676330566 2.02615701994091e-15
vertex 32.7356452941895 -57.7366676330566 0.150000005960464
vertex 31.812671661377 -57.4183502197266 0.00146448356099427
endloop
endfacet
facet normal 0.00392842665314674 -0.00134320359211415 0.999991416931152
outer loop
vertex -5.03009462356567 -44.5532188415527 0.0599999986588955
vertex -5.07862424850464 -44.6951522827148 0.0599999986588955
vertex -4.11308431625366 -44.8667640686035 0.0559764057397842
endloop
endfacet
facet normal 0.00392842665314674 -0.00134320359211415 0.999991416931152
outer loop
vertex -4.16161394119263 -45.0086975097656 0.0559764057397842
vertex -4.11308431625366 -44.8667640686035 0.0559764057397842
vertex -5.07862424850464 -44.6951522827148 0.0599999986588955
endloop
endfacet
facet normal 0.00392842618748546 -0.00134320359211415 0.999991357326508
outer loop
vertex -4.16161394119263 -45.0086975097656 0.0559764057397842
vertex -2.70826172828674 -45.5056228637695 0.0495994873344898
vertex -4.11308431625366 -44.8667640686035 0.0559764057397842
endloop
endfacet
facet normal 0.00392842618748546 -0.00134320359211415 0.999991357326508
outer loop
vertex -2.65973210334778 -45.3636932373047 0.0495994873344898
vertex -4.11308431625366 -44.8667640686035 0.0559764057397842
vertex -2.70826172828674 -45.5056228637695 0.0495994873344898
endloop
endfacet
facet normal 0.00392842665314674 -0.00134320359211415 0.999991416931152
outer loop
vertex -2.70826172828674 -45.5056228637695 0.0495994873344898
vertex -0.404871970415115 -46.2931976318359 0.0394928306341171
vertex -2.65973210334778 -45.3636932373047 0.0495994873344898
endloop
endfacet
facet normal 0.00392842665314674 -0.00134320359211415 0.999991416931152
outer loop
vertex -0.356342494487762 -46.1512641906738 0.0394928306341171
vertex -2.65973210334778 -45.3636932373047 0.0495994873344898
vertex -0.404871970415115 -46.2931976318359 0.0394928306341171
endloop
endfacet
facet normal 0.00392842665314674 -0.00134320359211415 0.999991357326508
outer loop
vertex -0.404871970415115 -46.2931976318359 0.0394928306341171
vertex 3.24572610855103 -47.5414047241211 0.0234749894589186
vertex -0.356342494487762 -46.1512641906738 0.0394928306341171
endloop
endfacet
facet normal 0.00392842665314674 -0.00134320359211415 0.999991357326508
outer loop
vertex 3.29425573348999 -47.3994750976563 0.0234749894589186
vertex -0.356342494487762 -46.1512641906738 0.0394928306341171
vertex 3.24572610855103 -47.5414047241211 0.0234749894589186
endloop
endfacet
facet normal 0.00392842665314674 -0.00134320359211415 0.999991357326508
outer loop
vertex 8.47445201873779 -49.3292083740234 0.000532745383679867
vertex 8.52298164367676 -49.1872749328613 0.000532745383679867
vertex 3.24572610855103 -47.5414047241211 0.0234749894589186
endloop
endfacet
facet normal 0.00392842665314674 -0.00134320359211415 0.999991357326508
outer loop
vertex 3.29425573348999 -47.3994750976563 0.0234749894589186
vertex 3.24572610855103 -47.5414047241211 0.0234749894589186
vertex 8.52298164367676 -49.1872749328613 0.000532745383679867
endloop
endfacet
facet normal 0.00392842665314674 -0.00134320370852947 0.999991416931152
outer loop
vertex 8.47445201873779 -49.3292083740234 0.000532745383679867
vertex 13.8455715179443 -51.1656951904297 -0.0230342838913202
vertex 8.52298164367676 -49.1872749328613 0.000532745383679867
endloop
endfacet
facet normal 0.00392842665314674 -0.00134320370852947 0.999991416931152
outer loop
vertex 13.8941011428833 -51.0237617492676 -0.0230342838913202
vertex 8.52298164367676 -49.1872749328613 0.000532745383679867
vertex 13.8455715179443 -51.1656951904297 -0.0230342838913202
endloop
endfacet
facet normal 0.00392842665314674 -0.00134320370852947 0.999991416931152
outer loop
vertex 13.8455715179443 -51.1656951904297 -0.0230342838913202
vertex 19.2166919708252 -53.0021820068359 -0.0466013140976429
vertex 13.8941011428833 -51.0237617492676 -0.0230342838913202
endloop
endfacet
facet normal 0.00392842665314674 -0.00134320370852947 0.999991416931152
outer loop
vertex 19.2652206420898 -52.8602485656738 -0.0466013140976429
vertex 13.8941011428833 -51.0237617492676 -0.0230342838913202
vertex 19.2166919708252 -53.0021820068359 -0.0466013140976429
endloop
endfacet
facet normal 0.00392842665314674 -0.00134320359211415 0.999991357326508
outer loop
vertex 19.2166919708252 -53.0021820068359 -0.0466013140976429
vertex 24.4454174041748 -54.789981842041 -0.0695435553789139
vertex 19.2652206420898 -52.8602485656738 -0.0466013140976429
endloop
endfacet
facet normal 0.00392842665314674 -0.00134320359211415 0.999991357326508
outer loop
vertex 24.4939460754395 -54.6480522155762 -0.0695435553789139
vertex 19.2652206420898 -52.8602485656738 -0.0466013140976429
vertex 24.4454174041748 -54.789981842041 -0.0695435553789139
endloop
endfacet
facet normal 0.00392842665314674 -0.00134320359211415 0.999991357326508
outer loop
vertex 24.4454174041748 -54.789981842041 -0.0695435553789139
vertex 28.0960159301758 -56.0381927490234 -0.0855614021420479
vertex 24.4939460754395 -54.6480522155762 -0.0695435553789139
endloop
endfacet
facet normal 0.00392842665314674 -0.00134320359211415 0.999991357326508
outer loop
vertex 28.1445446014404 -55.8962593078613 -0.0855614021420479
vertex 24.4939460754395 -54.6480522155762 -0.0695435553789139
vertex 28.0960159301758 -56.0381927490234 -0.0855614021420479
endloop
endfacet
facet normal 0.00392842665314674 -0.00134320359211415 0.999991416931152
outer loop
vertex 28.1445446014404 -55.8962593078613 -0.0855614021420479
vertex 28.0960159301758 -56.0381927490234 -0.0855614021420479
vertex 30.4479351043701 -56.6838302612305 -0.0956680551171303
endloop
endfacet
facet normal 0.00392842665314674 -0.00134320359211415 0.999991416931152
outer loop
vertex 30.3994045257568 -56.8257637023926 -0.0956680551171303
vertex 30.4479351043701 -56.6838302612305 -0.0956680551171303
vertex 28.0960159301758 -56.0381927490234 -0.0855614021420479
endloop
endfacet
facet normal 0.00392842618748546 -0.00134320359211415 0.999991357326508
outer loop
vertex 30.3994045257568 -56.8257637023926 -0.0956680551171303
vertex 31.8527565002441 -57.3226928710938 -0.102044977247715
vertex 30.4479351043701 -56.6838302612305 -0.0956680551171303
endloop
endfacet
facet normal 0.00392842618748546 -0.00134320359211415 0.999991357326508
outer loop
vertex 31.9012870788574 -57.1807594299316 -0.102044977247715
vertex 30.4479351043701 -56.6838302612305 -0.0956680551171303
vertex 31.8527565002441 -57.3226928710938 -0.102044977247715
endloop
endfacet
facet normal 0.00392842665314674 -0.00134320359211415 0.999991416931152
outer loop
vertex 31.9012870788574 -57.1807594299316 -0.102044977247715
vertex 31.8527565002441 -57.3226928710938 -0.102044977247715
vertex 32.8182983398438 -57.4943046569824 -0.106068566441536
endloop
endfacet
facet normal 0.00392842665314674 -0.00134320359211415 0.999991416931152
outer loop
vertex 32.7697677612305 -57.6362380981445 -0.106068566441536
vertex 32.8182983398438 -57.4943046569824 -0.106068566441536
vertex 31.8527565002441 -57.3226928710938 -0.102044977247715
endloop
endfacet
facet normal -0.231547027826309 -0.668124437332153 -0.707103669643402
outer loop
vertex 32.7700347900391 -57.6363258361816 -0.106069937348366
vertex 32.7356033325195 -57.7366523742676 2.78451409485569e-07
vertex 31.6533966064453 -57.2545280456543 -0.101170428097248
endloop
endfacet
facet normal -0.23154704272747 -0.668124496936798 -0.707103729248047
outer loop
vertex 31.6199741363525 -57.3518905639648 0.00177044258452952
vertex 31.6533966064453 -57.2545280456543 -0.101170428097248
vertex 32.7356033325195 -57.7366523742676 2.78451409485569e-07
endloop
endfacet
facet normal -0.231547027826309 -0.668124437332153 -0.707103729248047
outer loop
vertex 31.6533966064453 -57.2545280456543 -0.101170428097248
vertex 31.6199741363525 -57.3518905639648 0.00177044258452952
vertex 29.0183143615723 -56.3535423278809 -0.0896083861589432
endloop
endfacet
facet normal -0.231547012925148 -0.668124437332153 -0.707103729248047
outer loop
vertex 28.9872932434082 -56.4439239501953 0.00594770908355713
vertex 29.0183143615723 -56.3535423278809 -0.0896083861589432
vertex 31.6199741363525 -57.3518905639648 0.00177044258452952
endloop
endfacet
facet normal -0.231547027826309 -0.668124437332153 -0.707103729248047
outer loop
vertex 28.9872932434082 -56.4439239501953 0.00594770908355713
vertex 23.6698341369629 -54.6100196838379 0.0143849039450288
vertex 29.0183143615723 -56.3535423278809 -0.0896083861589432
endloop
endfacet
facet normal -0.231547012925148 -0.668124437332153 -0.707103669643402
outer loop
vertex 23.6960029602051 -54.5337448120117 -0.0662554800510406
vertex 29.0183143615723 -56.3535423278809 -0.0896083861589432
vertex 23.6698341369629 -54.6100196838379 0.0143849039450288
endloop
endfacet
facet normal -0.231547012925148 -0.668124437332153 -0.707103729248047
outer loop
vertex 23.6960029602051 -54.5337448120117 -0.0662554800510406
vertex 23.6698341369629 -54.6100196838379 0.0143849039450288
vertex 17.9410762786865 -52.5660247802734 -0.0410043820738792
endloop
endfacet
facet normal -0.231547012925148 -0.668124437332153 -0.707103729248047
outer loop
vertex 17.9201431274414 -52.6270484924316 0.0235079228878021
vertex 17.9410762786865 -52.5660247802734 -0.0410043820738792
vertex 23.6698341369629 -54.6100196838379 0.0143849039450288
endloop
endfacet
facet normal -0.231547012925148 -0.668124437332153 -0.707103729248047
outer loop
vertex 17.9201431274414 -52.6270484924316 0.0235079228878021
vertex 12.1704511642456 -50.6440734863281 0.032630942761898
vertex 17.9410762786865 -52.5660247802734 -0.0410043820738792
endloop
endfacet
facet normal -0.231547027826309 -0.668124437332153 -0.707103729248047
outer loop
vertex 12.1861515045166 -50.5983085632324 -0.0157532878220081
vertex 17.9410762786865 -52.5660247802734 -0.0410043820738792
vertex 12.1704511642456 -50.6440734863281 0.032630942761898
endloop
endfacet
facet normal -0.231547027826309 -0.668124437332153 -0.707103729248047
outer loop
vertex 12.1861515045166 -50.5983085632324 -0.0157532878220081
vertex 12.1704511642456 -50.6440734863281 0.032630942761898
vertex 6.43122625350952 -48.6305885314941 0.00949780829250813
endloop
endfacet
facet normal -0.231547012925148 -0.668124437332153 -0.707103729248047
outer loop
vertex 6.42075967788696 -48.6610984802246 0.041753962635994
vertex 6.43122625350952 -48.6305885314941 0.00949780829250813
vertex 12.1704511642456 -50.6440734863281 0.032630942761898
endloop
endfacet
facet normal -0.231547012925148 -0.668124437332153 -0.707103729248047
outer loop
vertex 6.42075967788696 -48.6610984802246 0.041753962635994
vertex 0.671067714691162 -46.6781272888184 0.0508769825100899
vertex 6.43122625350952 -48.6305885314941 0.00949780829250813
endloop
endfacet
facet normal -0.231547012925148 -0.668124437332153 -0.707103729248047
outer loop
vertex 0.676301181316376 -46.6628723144531 0.0347489044070244
vertex 6.43122625350952 -48.6305885314941 0.00949780829250813
vertex 0.671067714691162 -46.6781272888184 0.0508769825100899
endloop
endfacet
facet normal -0.231547012925148 -0.668124437332153 -0.707103729248047
outer loop
vertex 0.671067714691162 -46.6781272888184 0.0508769825100899
vertex -5.07862424850464 -44.6951522827148 0.0599999986588955
vertex 0.676301181316376 -46.6628723144531 0.0347489044070244
endloop
endfacet
facet normal -0.946187078952789 0.323519349098206 0.00808341149240732
outer loop
vertex -5.07862424850464 -44.6951522827148 0.0900000035762787
vertex -5.07121133804321 -44.6976852416992 1.05910897254944
vertex -5.03009462356567 -44.5532188415527 0.0900000035762787
endloop
endfacet
facet normal -0.946187078952789 0.323519349098206 0.00808341149240732
outer loop
vertex -5.02268218994141 -44.5557556152344 1.05910897254944
vertex -5.03009462356567 -44.5532188415527 0.0900000035762787
vertex -5.07121133804321 -44.6976852416992 1.05910897254944
endloop
endfacet
facet normal -0.946187019348145 0.323519319295883 0.00808341056108475
outer loop
vertex -5.07121133804321 -44.6976852416992 1.05910897254944
vertex -5.05946350097656 -44.7017059326172 2.59503102302551
vertex -5.02268218994141 -44.5557556152344 1.05910897254944
endloop
endfacet
facet normal -0.946187019348145 0.323519319295883 0.00808341056108475
outer loop
vertex -5.0109338760376 -44.5597724914551 2.59503102302551
vertex -5.02268218994141 -44.5557556152344 1.05910897254944
vertex -5.05946350097656 -44.7017059326172 2.59503102302551
endloop
endfacet
facet normal -0.946187019348145 0.323519319295883 0.00808341149240732
outer loop
vertex -5.05946350097656 -44.7017059326172 2.59503102302551
vertex -5.04084396362305 -44.7080688476563 5.02928447723389
vertex -5.0109338760376 -44.5597724914551 2.59503102302551
endloop
endfacet
facet normal -0.946187019348145 0.323519319295883 0.00808341149240732
outer loop
vertex -4.99231433868408 -44.5661392211914 5.02928447723389
vertex -5.0109338760376 -44.5597724914551 2.59503102302551
vertex -5.04084396362305 -44.7080688476563 5.02928447723389
endloop
endfacet
facet normal -0.946187019348145 0.323519319295883 0.00808341149240732
outer loop
vertex -5.04084396362305 -44.7080688476563 5.02928447723389
vertex -5.01133441925049 -44.7181587219238 8.88728618621826
vertex -4.99231433868408 -44.5661392211914 5.02928447723389
endloop
endfacet
facet normal -0.946187019348145 0.323519319295883 0.00808341149240732
outer loop
vertex -4.96280479431152 -44.576229095459 8.88728618621826
vertex -4.99231433868408 -44.5661392211914 5.02928447723389
vertex -5.01133441925049 -44.7181587219238 8.88728618621826
endloop
endfacet
facet normal -0.946187019348145 0.323519319295883 0.00808341149240732
outer loop
vertex -5.01133441925049 -44.7181587219238 8.88728618621826
vertex -4.96906805038452 -44.7326126098633 14.4130744934082
vertex -4.96280479431152 -44.576229095459 8.88728618621826
endloop
endfacet
facet normal -0.946187019348145 0.323519319295883 0.00808341149240732
outer loop
vertex -4.92053842544556 -44.5906791687012 14.4130744934082
vertex -4.96280479431152 -44.576229095459 8.88728618621826
vertex -4.96906805038452 -44.7326126098633 14.4130744934082
endloop
endfacet
facet normal -0.946187019348145 0.323519319295883 0.00808341149240732
outer loop
vertex -4.96906805038452 -44.7326126098633 14.4130744934082
vertex -4.92565059661865 -44.7474555969238 20.0893459320068
vertex -4.92053842544556 -44.5906791687012 14.4130744934082
endloop
endfacet
facet normal -0.946187019348145 0.323519319295883 0.00808341149240732
outer loop
vertex -4.87712144851685 -44.605525970459 20.0893459320068
vertex -4.92053842544556 -44.5906791687012 14.4130744934082
vertex -4.92565059661865 -44.7474555969238 20.0893459320068
endloop
endfacet
facet normal -0.946187019348145 0.323519319295883 0.00808341149240732
outer loop
vertex -4.92565059661865 -44.7474555969238 20.0893459320068
vertex -4.88223314285278 -44.7623023986816 25.7656192779541
vertex -4.87712144851685 -44.605525970459 20.0893459320068
endloop
endfacet
facet normal -0.946187019348145 0.323519319295883 0.00808341149240732
outer loop
vertex -4.83370399475098 -44.6203689575195 25.7656192779541
vertex -4.87712144851685 -44.605525970459 20.0893459320068
vertex -4.88223314285278 -44.7623023986816 25.7656192779541
endloop
endfacet
facet normal -0.946187019348145 0.323519319295883 0.00808341149240732
outer loop
vertex -4.88223314285278 -44.7623023986816 25.7656192779541
vertex -4.83996725082397 -44.7767524719238 31.2914066314697
vertex -4.83370399475098 -44.6203689575195 25.7656192779541
endloop
endfacet
facet normal -0.946187019348145 0.323519319295883 0.00808341149240732
outer loop
vertex -4.79143762588501 -44.634822845459 31.2914066314697
vertex -4.83370399475098 -44.6203689575195 25.7656192779541
vertex -4.83996725082397 -44.7767524719238 31.2914066314697
endloop
endfacet
facet normal -0.946187019348145 0.323519319295883 0.00808341149240732
outer loop
vertex -4.83996725082397 -44.7767524719238 31.2914066314697
vertex -4.81045770645142 -44.7868423461914 35.1494102478027
vertex -4.79143762588501 -44.634822845459 31.2914066314697
endloop
endfacet
facet normal -0.946187019348145 0.323519319295883 0.00808341149240732
outer loop
vertex -4.76192808151245 -44.6449127197266 35.1494102478027
vertex -4.79143762588501 -44.634822845459 31.2914066314697
vertex -4.81045770645142 -44.7868423461914 35.1494102478027
endloop
endfacet
facet normal -0.946187019348145 0.323519319295883 0.00808341149240732
outer loop
vertex -4.81045770645142 -44.7868423461914 35.1494102478027
vertex -4.7918381690979 -44.7932090759277 37.5836639404297
vertex -4.76192808151245 -44.6449127197266 35.1494102478027
endloop
endfacet
facet normal -0.946187019348145 0.323519319295883 0.00808341149240732
outer loop
vertex -4.74330854415894 -44.6512756347656 37.5836639404297
vertex -4.76192808151245 -44.6449127197266 35.1494102478027
vertex -4.7918381690979 -44.7932090759277 37.5836639404297
endloop
endfacet
facet normal -0.946187019348145 0.323519319295883 0.00808341056108475
outer loop
vertex -4.7918381690979 -44.7932090759277 37.5836639404297
vertex -4.78008985519409 -44.7972259521484 39.1195831298828
vertex -4.74330854415894 -44.6512756347656 37.5836639404297
endloop
endfacet
facet normal -0.946187019348145 0.323519319295883 0.00808341056108475
outer loop
vertex -4.73156070709229 -44.6552925109863 39.1195831298828
vertex -4.74330854415894 -44.6512756347656 37.5836639404297
vertex -4.78008985519409 -44.7972259521484 39.1195831298828
endloop
endfacet
facet normal -0.946187078952789 0.323519349098206 0.00808341149240732
outer loop
vertex -4.73156070709229 -44.6552925109863 39.1195831298828
vertex -4.78008985519409 -44.7972259521484 39.1195831298828
vertex -4.72414779663086 -44.657829284668 40.0886917114258
endloop
endfacet
facet normal -0.946187078952789 0.323519349098206 0.00808341149240732
outer loop
vertex -4.77267742156982 -44.7997627258301 40.0886917114258
vertex -4.72414779663086 -44.657829284668 40.0886917114258
vertex -4.78008985519409 -44.7972259521484 39.1195831298828
endloop
endfacet
facet normal 0.326037913560867 0.945356667041779 -2.14360716199735e-05
outer loop
vertex 32.7353897094727 -57.7365760803223 0.300005406141281
vertex 32.7356033325195 -57.7366523742676 0.149999931454659
vertex 31.6197738647461 -57.3518180847168 0.293809682130814
endloop
endfacet
facet normal 0.326037883758545 0.945356667041779 -2.14360698009841e-05
outer loop
vertex 31.6199741363525 -57.3518905639648 0.148229762911797
vertex 31.6197738647461 -57.3518180847168 0.293809682130814
vertex 32.7356033325195 -57.7366523742676 0.149999931454659
endloop
endfacet
facet normal 0.326037913560867 0.945356726646423 -2.14360716199735e-05
outer loop
vertex 31.6197738647461 -57.3518180847168 0.293809682130814
vertex 31.6199741363525 -57.3518905639648 0.148229762911797
vertex 28.9871044158936 -56.4438552856445 0.2791887819767
endloop
endfacet
facet normal 0.326037913560867 0.945356667041779 -2.14360698009841e-05
outer loop
vertex 28.9872932434082 -56.4439239501953 0.144052475690842
vertex 28.9871044158936 -56.4438552856445 0.2791887819767
vertex 31.6199741363525 -57.3518905639648 0.148229762911797
endloop
endfacet
facet normal 0.326037913560867 0.945356726646423 -2.14360716199735e-05
outer loop
vertex 28.9872932434082 -56.4439239501953 0.144052475690842
vertex 23.6698341369629 -54.6100196838379 0.135615259408951
vertex 28.9871044158936 -56.4438552856445 0.2791887819767
endloop
endfacet
facet normal 0.326037913560867 0.945356726646423 -2.14360716199735e-05
outer loop
vertex 23.6696643829346 -54.6099586486816 0.24965763092041
vertex 28.9871044158936 -56.4438552856445 0.2791887819767
vertex 23.6698341369629 -54.6100196838379 0.135615259408951
endloop
endfacet
facet normal 0.326037883758545 0.945356667041779 -2.14360698009841e-05
outer loop
vertex 23.6696643829346 -54.6099586486816 0.24965763092041
vertex 23.6698341369629 -54.6100196838379 0.135615259408951
vertex 17.9200057983398 -52.6269989013672 0.217726096510887
endloop
endfacet
facet normal 0.326037883758545 0.945356667041779 -2.14360698009841e-05
outer loop
vertex 17.9201431274414 -52.6270484924316 0.126492202281952
vertex 17.9200057983398 -52.6269989013672 0.217726096510887
vertex 23.6698341369629 -54.6100196838379 0.135615259408951
endloop
endfacet
facet normal 0.326037883758545 0.945356667041779 -2.14360698009841e-05
outer loop
vertex 17.9201431274414 -52.6270484924316 0.126492202281952
vertex 12.1704511642456 -50.6440734863281 0.117369152605534
vertex 17.9200057983398 -52.6269989013672 0.217726096510887
endloop
endfacet
facet normal 0.326037913560867 0.945356726646423 -2.14360716199735e-05
outer loop
vertex 12.1703491210938 -50.6440353393555 0.185794577002525
vertex 17.9200057983398 -52.6269989013672 0.217726096510887
vertex 12.1704511642456 -50.6440734863281 0.117369152605534
endloop
endfacet
facet normal 0.326037913560867 0.945356726646423 -2.14360716199735e-05
outer loop
vertex 12.1703491210938 -50.6440353393555 0.185794577002525
vertex 12.1704511642456 -50.6440734863281 0.117369152605534
vertex 6.42069101333618 -48.661075592041 0.153863042593002
endloop
endfacet
facet normal 0.326037883758545 0.945356667041779 -2.14360698009841e-05
outer loop
vertex 6.42075967788696 -48.6610984802246 0.108246102929115
vertex 6.42069101333618 -48.661075592041 0.153863042593002
vertex 12.1704511642456 -50.6440734863281 0.117369152605534
endloop
endfacet
facet normal 0.326037883758545 0.945356667041779 -2.14360698009841e-05
outer loop
vertex 6.42075967788696 -48.6610984802246 0.108246102929115
vertex 0.671067714691162 -46.6781272888184 0.099123053252697
vertex 6.42069101333618 -48.661075592041 0.153863042593002
endloop
endfacet
facet normal 0.326037883758545 0.945356667041779 -2.14360698009841e-05
outer loop
vertex 0.671033501625061 -46.6781120300293 0.121931523084641
vertex 6.42069101333618 -48.661075592041 0.153863042593002
vertex 0.671067714691162 -46.6781272888184 0.099123053252697
endloop
endfacet
facet normal 0.326037883758545 0.945356667041779 -2.14360698009841e-05
outer loop
vertex 0.671067714691162 -46.6781272888184 0.099123053252697
vertex -5.07862424850464 -44.6951522827148 0.0900000035762787
vertex 0.671033501625061 -46.6781120300293 0.121931523084641
endloop
endfacet
facet normal 0.22548945248127 0.67019522190094 -0.70710164308548
outer loop
vertex 4.19516801834106 -17.8154487609863 28.3740901947021
vertex 4.33709907531738 -17.863977432251 28.3733539581299
vertex 3.96999716758728 -18.4680671691895 27.6837310791016
endloop
endfacet
facet normal 0.22548945248127 0.670195281505585 -0.70710164308548
outer loop
vertex 4.10915660858154 -18.5156478881836 27.6830101013184
vertex 3.96999716758728 -18.4680671691895 27.6837310791016
vertex 4.33709907531738 -17.863977432251 28.3733539581299
endloop
endfacet
facet normal 0.22548945248127 0.670195281505585 -0.707101702690125
outer loop
vertex 3.96999716758728 -18.4680671691895 27.6837310791016
vertex 4.10915660858154 -18.5156478881836 27.6830101013184
vertex 3.60007858276367 -19.5402088165283 26.5495834350586
endloop
endfacet
facet normal 0.225489437580109 0.670195281505585 -0.70710164308548
outer loop
vertex 3.73468542098999 -19.5862331390381 26.548885345459
vertex 3.60007858276367 -19.5402088165283 26.5495834350586
vertex 4.10915660858154 -18.5156478881836 27.6830101013184
endloop
endfacet
facet normal 0.225489437580109 0.670195341110229 -0.70710164308548
outer loop
vertex 3.73468542098999 -19.5862331390381 26.548885345459
vertex 3.11949062347412 -21.3450298309326 24.6857070922852
vertex 3.60007858276367 -19.5402088165283 26.5495834350586
endloop
endfacet
facet normal 0.22548945248127 0.670195281505585 -0.707101702690125
outer loop
vertex 2.99236369132996 -21.3015613555908 24.6863651275635
vertex 3.60007858276367 -19.5402088165283 26.5495834350586
vertex 3.11949062347412 -21.3450298309326 24.6857070922852
endloop
endfacet
facet normal 0.225489422678947 0.670195281505585 -0.70710164308548
outer loop
vertex 2.99236369132996 -21.3015613555908 24.6863651275635
vertex 3.11949062347412 -21.3450298309326 24.6857070922852
vertex 1.99398803710938 -24.1951751708984 21.6254081726074
endloop
endfacet
facet normal 0.225489437580109 0.670195281505585 -0.70710164308548
outer loop
vertex 2.10882687568665 -24.2344398498535 21.624813079834
vertex 1.99398803710938 -24.1951751708984 21.6254081726074
vertex 3.11949062347412 -21.3450298309326 24.6857070922852
endloop
endfacet
facet normal 0.22548945248127 0.670195281505585 -0.70710164308548
outer loop
vertex 1.99398803710938 -24.1951751708984 21.6254081726074
vertex 2.10882687568665 -24.2344398498535 21.624813079834
vertex 0.641252279281616 -28.115837097168 17.4780025482178
endloop
endfacet
facet normal 0.22548945248127 0.670195281505585 -0.70710164308548
outer loop
vertex 0.739441573619843 -28.1494102478027 17.4774932861328
vertex 0.641252279281616 -28.115837097168 17.4780025482178
vertex 2.10882687568665 -24.2344398498535 21.624813079834
endloop
endfacet
facet normal 0.225489467382431 0.670195341110229 -0.707101702690125
outer loop
vertex 0.739441573619843 -28.1494102478027 17.4774932861328
vertex -0.636549293994904 -32.0832633972168 13.3101692199707
vertex 0.641252279281616 -28.115837097168 17.4780025482178
endloop
endfacet
facet normal 0.225489467382431 0.670195341110229 -0.707101702690125
outer loop
vertex -0.718008756637573 -32.0554122924805 13.3105916976929
vertex 0.641252279281616 -28.115837097168 17.4780025482178
vertex -0.636549293994904 -32.0832633972168 13.3101692199707
endloop
endfacet
facet normal 0.22548945248127 0.670195281505585 -0.707101702690125
outer loop
vertex -2.07726979255676 -35.994987487793 9.14317989349365
vertex -0.718008756637573 -32.0554122924805 13.3105916976929
vertex -2.012540102005 -36.0171203613281 9.14284420013428
endloop
endfacet
facet normal 0.225489467382431 0.670195341110229 -0.707101702690125
outer loop
vertex -0.636549293994904 -32.0832633972168 13.3101692199707
vertex -2.012540102005 -36.0171203613281 9.14284420013428
vertex -0.718008756637573 -32.0554122924805 13.3105916976929
endloop
endfacet
facet normal 0.22548945248127 0.670195281505585 -0.70710164308548
outer loop
vertex -2.07726979255676 -35.994987487793 9.14317989349365
vertex -2.012540102005 -36.0171203613281 9.14284420013428
vertex -3.31985402107239 -39.5963935852051 5.33349275588989
endloop
endfacet
facet normal 0.225489437580109 0.670195281505585 -0.707101702690125
outer loop
vertex -3.27041816711426 -39.6132965087891 5.33323669433594
vertex -3.31985402107239 -39.5963935852051 5.33349275588989
vertex -2.012540102005 -36.0171203613281 9.14284420013428
endloop
endfacet
facet normal 0.22548945248127 0.670195281505585 -0.707101702690125
outer loop
vertex -3.27041816711426 -39.6132965087891 5.33323669433594
vertex -4.03379726409912 -41.7957420349121 3.02126717567444
vertex -3.31985402107239 -39.5963935852051 5.33349275588989
endloop
endfacet
facet normal 0.22548945248127 0.67019522190094 -0.70710164308548
outer loop
vertex -4.07395172119141 -41.7820129394531 3.02147531509399
vertex -3.31985402107239 -39.5963935852051 5.33349275588989
vertex -4.03379726409912 -41.7957420349121 3.02126717567444
endloop
endfacet
facet normal 0.22548945248127 0.670195281505585 -0.70710164308548
outer loop
vertex -4.07395172119141 -41.7820129394531 3.02147531509399
vertex -4.03379726409912 -41.7957420349121 3.02126717567444
vertex -4.5075626373291 -43.0387535095215 1.69205093383789
endloop
endfacet
facet normal 0.225489437580109 0.67019522190094 -0.707101583480835
outer loop
vertex -4.47274494171143 -43.0506591796875 1.6918705701828
vertex -4.5075626373291 -43.0387535095215 1.69205093383789
vertex -4.03379726409912 -41.7957420349121 3.02126717567444
endloop
endfacet
facet normal 0.22548945248127 0.670195281505585 -0.70710164308548
outer loop
vertex -4.5075626373291 -43.0387535095215 1.69205093383789
vertex -4.47274494171143 -43.0506591796875 1.6918705701828
vertex -4.75689172744751 -43.7613906860352 0.927623748779297
endloop
endfacet
facet normal 0.22548945248127 0.670195281505585 -0.707101702690125
outer loop
vertex -4.72514295578003 -43.7722434997559 0.927459299564362
vertex -4.75689172744751 -43.7613906860352 0.927623748779297
vertex -4.47274494171143 -43.0506591796875 1.6918705701828
endloop
endfacet
facet normal 0.22548945248127 0.670195281505585 -0.70710164308548
outer loop
vertex -4.72514295578003 -43.7722434997559 0.927459299564362
vertex -4.87027311325073 -44.1871604919434 0.487918168306351
vertex -4.75689172744751 -43.7613906860352 0.927623748779297
endloop
endfacet
facet normal 0.22548945248127 0.670195281505585 -0.70710164308548
outer loop
vertex -4.9002571105957 -44.1769104003906 0.488073498010635
vertex -4.75689172744751 -43.7613906860352 0.927623748779297
vertex -4.87027311325073 -44.1871604919434 0.487918168306351
endloop
endfacet
facet normal 0.22548945248127 0.670195281505585 -0.70710164308548
outer loop
vertex -4.9002571105957 -44.1769104003906 0.488073498010635
vertex -4.87027311325073 -44.1871604919434 0.487918168306351
vertex -4.98269319534302 -44.4158363342285 0.235329404473305
endloop
endfacet
facet normal 0.22548945248127 0.670195281505585 -0.707101702690125
outer loop
vertex -4.9537239074707 -44.4257392883301 0.23517931997776
vertex -4.98269319534302 -44.4158363342285 0.235329404473305
vertex -4.87027311325073 -44.1871604919434 0.487918168306351
endloop
endfacet
facet normal 0.225489467382431 0.670195341110229 -0.707101702690125
outer loop
vertex -4.98269319534302 -44.4158363342285 0.235329404473305
vertex -4.9537239074707 -44.4257392883301 0.23517931997776
vertex -5.03009462356567 -44.5532188415527 0.0900000035762787
endloop
endfacet
facet normal 0.22548945248127 0.670195281505585 -0.707101762294769
outer loop
vertex -5.00170850753784 -44.5629272460938 0.0898529514670372
vertex -5.03009462356567 -44.5532188415527 0.0900000035762787
vertex -4.9537239074707 -44.4257392883301 0.23517931997776
endloop
endfacet
facet normal -0.231544464826584 -0.668116867542267 0.707111835479736
outer loop
vertex -3.62738013267517 -40.4877014160156 4.39063692092896
vertex -5.03009462356567 -44.5532188415527 0.0900000035762787
vertex -3.60582518577576 -40.4951591491699 4.3906512260437
endloop
endfacet
facet normal -0.231544464826584 -0.668116867542267 0.707111835479736
outer loop
vertex -2.22466564178467 -36.4221878051758 8.69127368927002
vertex -3.62738013267517 -40.4877014160156 4.39063692092896
vertex -2.18155574798584 -36.4370956420898 8.69130229949951
endloop
endfacet
facet normal -0.231544464826584 -0.668116867542267 0.707111835479736
outer loop
vertex -3.60582518577576 -40.4951591491699 4.3906512260437
vertex -2.18155574798584 -36.4370956420898 8.69130229949951
vertex -3.62738013267517 -40.4877014160156 4.39063692092896
endloop
endfacet
facet normal -0.231544464826584 -0.668116867542267 0.707111835479736
outer loop
vertex -2.22466564178467 -36.4221878051758 8.69127368927002
vertex -2.18155574798584 -36.4370956420898 8.69130229949951
vertex -0.821951031684875 -32.3566703796387 12.9919109344482
endloop
endfacet
facet normal -0.231544449925423 -0.668116807937622 0.707111775875092
outer loop
vertex -0.757286369800568 -32.379035949707 12.9919528961182
vertex -0.821951031684875 -32.3566703796387 12.9919109344482
vertex -2.18155574798584 -36.4370956420898 8.69130229949951
endloop
endfacet
facet normal -0.231544464826584 -0.668116867542267 0.707111835479736
outer loop
vertex 0.580763459205627 -28.2911529541016 17.2925472259521
vertex -0.821951031684875 -32.3566703796387 12.9919109344482
vertex 0.666983008384705 -28.3209743499756 17.2926044464111
endloop
endfacet
facet normal -0.231544449925423 -0.668116807937622 0.707111775875092
outer loop
vertex -0.757286369800568 -32.379035949707 12.9919528961182
vertex 0.666983008384705 -28.3209743499756 17.2926044464111
vertex -0.821951031684875 -32.3566703796387 12.9919109344482
endloop
endfacet
facet normal -0.231544464826584 -0.668116867542267 0.707111835479736
outer loop
vertex 0.580763459205627 -28.2911529541016 17.2925472259521
vertex 0.666983008384705 -28.3209743499756 17.2926044464111
vertex 1.98347795009613 -24.2256355285645 21.5931835174561
endloop
endfacet
facet normal -0.231544435024261 -0.668116807937622 0.707111775875092
outer loop
vertex 2.09125232696533 -24.2629127502441 21.5932540893555
vertex 1.98347795009613 -24.2256355285645 21.5931835174561
vertex 0.666983008384705 -28.3209743499756 17.2926044464111
endloop
endfacet
facet normal -0.231544479727745 -0.668116867542267 0.707111835479736
outer loop
vertex 3.28073382377625 -20.4657726287842 25.5704917907715
vertex 1.98347795009613 -24.2256355285645 21.5931835174561
vertex 3.40844631195068 -20.5099334716797 25.5705852508545
endloop
endfacet
facet normal -0.231544464826584 -0.668116867542267 0.707111775875092
outer loop
vertex 2.09125232696533 -24.2629127502441 21.5932540893555
vertex 3.40844631195068 -20.5099334716797 25.5705852508545
vertex 1.98347795009613 -24.2256355285645 21.5931835174561
endloop
endfacet
facet normal -0.231544449925423 -0.668116807937622 0.707111775875092
outer loop
vertex 3.28073382377625 -20.4657726287842 25.5704917907715
vertex 3.40844631195068 -20.5099334716797 25.5705852508545
vertex 3.92299509048462 -18.6042938232422 27.5396251678467
endloop
endfacet
facet normal -0.231544449925423 -0.668116807937622 0.707111835479736
outer loop
vertex 4.06057786941528 -18.6518630981445 27.5397300720215
vertex 3.92299509048462 -18.6042938232422 27.5396251678467
vertex 3.40844631195068 -20.5099334716797 25.5705852508545
endloop
endfacet
facet normal -0.231544449925423 -0.668116867542267 0.707111775875092
outer loop
vertex 3.92299509048462 -18.6042938232422 27.5396251678467
vertex 4.06057786941528 -18.6518630981445 27.5397300720215
vertex 4.19515752792358 -17.8154792785645 28.3740577697754
endloop
endfacet
facet normal -0.231544435024261 -0.668116807937622 0.707111775875092
outer loop
vertex 4.33692121505737 -17.8645000457764 28.3741607666016
vertex 4.19515752792358 -17.8154792785645 28.3740577697754
vertex 4.06057786941528 -18.6518630981445 27.5397300720215
endloop
endfacet
facet normal 2.14360716199735e-05 -0.00265177292749286 -0.999996542930603
outer loop
vertex -0.0582297630608082 -38.8197059631348 0.252940148115158
vertex -0.0599999316036701 -39.999813079834 0.256069511175156
vertex -0.203809663653374 -38.8194923400879 0.252936482429504
endloop
endfacet
facet normal 2.14360716199735e-05 -0.00265177269466221 -0.999996483325958
outer loop
vertex -0.210005402565002 -39.9995880126953 0.25606569647789
vertex -0.203809663653374 -38.8194923400879 0.252936482429504
vertex -0.0599999316036701 -39.999813079834 0.256069511175156
endloop
endfacet
facet normal 2.14360716199735e-05 -0.00265177292749286 -0.999996483325958
outer loop
vertex -0.203809663653374 -38.8194923400879 0.252936482429504
vertex -0.189188778400421 -36.0346603393555 0.245552018284798
vertex -0.0582297630608082 -38.8197059631348 0.252940148115158
endloop
endfacet
facet normal 2.14360698009841e-05 -0.00265177292749286 -0.999996542930603
outer loop
vertex -0.0540524795651436 -36.0348625183105 0.245555445551872
vertex -0.0582297630608082 -38.8197059631348 0.252940148115158
vertex -0.189188778400421 -36.0346603393555 0.245552018284798
endloop
endfacet
facet normal 2.14360698009841e-05 -0.00265177269466221 -0.999996483325958
outer loop
vertex -0.0540524795651436 -36.0348625183105 0.245555445551872
vertex -0.189188778400421 -36.0346603393555 0.245552018284798
vertex -0.0456152558326721 -30.4100646972656 0.230639889836311
endloop
endfacet
facet normal 2.14360698009841e-05 -0.00265177269466221 -0.999996483325958
outer loop
vertex -0.159657627344131 -30.4098815917969 0.230636954307556
vertex -0.0456152558326721 -30.4100646972656 0.230639889836311
vertex -0.189188778400421 -36.0346603393555 0.245552018284798
endloop
endfacet
facet normal 2.14360698009841e-05 -0.00265177269466221 -0.999996483325958
outer loop
vertex -0.159657627344131 -30.4098815917969 0.230636954307556
vertex -0.127726092934608 -24.3279056549072 0.214509561657906
vertex -0.0456152558326721 -30.4100646972656 0.230639889836311
endloop
endfacet
facet normal 2.14360679819947e-05 -0.00265177246183157 -0.999996483325958
outer loop
vertex -0.0364922061562538 -24.3280506134033 0.214511916041374
vertex -0.0456152558326721 -30.4100646972656 0.230639889836311
vertex -0.127726092934608 -24.3279056549072 0.214509561657906
endloop
endfacet
facet normal 2.14360679819947e-05 -0.00265177246183157 -0.999996483325958
outer loop
vertex -0.0364922061562538 -24.3280506134033 0.214511916041374
vertex -0.127726092934608 -24.3279056549072 0.214509561657906
vertex -0.0273691546171904 -18.2460384368896 0.198383927345276
endloop
endfacet
facet normal 2.14360698009841e-05 -0.00265177269466221 -0.999996483325958
outer loop
vertex -0.0957945734262466 -18.2459297180176 0.198382183909416
vertex -0.0273691546171904 -18.2460384368896 0.198383927345276
vertex -0.127726092934608 -24.3279056549072 0.214509561657906
endloop
endfacet
facet normal 2.14360698009841e-05 -0.00265177269466221 -0.999996483325958
outer loop
vertex -0.0957945734262466 -18.2459297180176 0.198382183909416
vertex -0.0638630464673042 -12.1639528274536 0.182254791259766
vertex -0.0273691546171904 -18.2460384368896 0.198383927345276
endloop
endfacet
facet normal 2.14360679819947e-05 -0.00265177246183157 -0.999996483325958
outer loop
vertex -0.0182461030781269 -12.1640253067017 0.182255953550339
vertex -0.0273691546171904 -18.2460384368896 0.198383927345276
vertex -0.0638630464673042 -12.1639528274536 0.182254791259766
endloop
endfacet
facet normal 2.14360679819947e-05 -0.00265177246183157 -0.999996483325958
outer loop
vertex -0.0182461030781269 -12.1640253067017 0.182255953550339
vertex -0.0638630464673042 -12.1639528274536 0.182254791259766
vertex -0.00912305153906345 -6.08201265335083 0.166127979755402
endloop
endfacet
facet normal 2.14360679819947e-05 -0.00265177246183157 -0.999996483325958
outer loop
vertex -0.0319315232336521 -6.08197641372681 0.166127398610115
vertex -0.00912305153906345 -6.08201265335083 0.166127979755402
vertex -0.0638630464673042 -12.1639528274536 0.182254791259766
endloop
endfacet
facet normal 2.14360679819947e-05 -0.00265177246183157 -0.999996483325958
outer loop
vertex -0.00912305153906345 -6.08201265335083 0.166127979755402
vertex -0.0319315232336521 -6.08197641372681 0.166127398610115
vertex 0 0 0.150000005960464
endloop
endfacet
facet normal -1 0 0
outer loop
vertex -0.166069999337196 -41 0.150000005960464
vertex -0.166069999337196 -40 0.150000005960464
vertex -0.166069999337196 -41 0
endloop
endfacet
facet normal -1 0 0
outer loop
vertex -0.166069999337196 -40 0
vertex -0.166069999337196 -41 0
vertex -0.166069999337196 -40 0.150000005960464
endloop
endfacet
facet normal -0.707106828689575 0 -0.707106828689575
outer loop
vertex -0.0599999986588955 -41 -0.106069996953011
vertex -0.166069999337196 -41 0
vertex -0.0599999986588955 -40 -0.106069996953011
endloop
endfacet
facet normal -0.707106828689575 -0 -0.707106828689575
outer loop
vertex -0.166069999337196 -40 0
vertex -0.0599999986588955 -40 -0.106069996953011
vertex -0.166069999337196 -41 0
endloop
endfacet
facet normal -0.707106828689575 0 0.707106828689575
outer loop
vertex -0.0599999986588955 -41 0.256069988012314
vertex -0.0599999986588955 -40 0.256069988012314
vertex -0.166069999337196 -41 0.150000005960464
endloop
endfacet
facet normal -0.707106828689575 0 0.707106828689575
outer loop
vertex -0.166069999337196 -40 0.150000005960464
vertex -0.166069999337196 -41 0.150000005960464
vertex -0.0599999986588955 -40 0.256069988012314
endloop
endfacet
facet normal 0 0 -1
outer loop
vertex 0.0900000035762787 -41 -0.106069996953011
vertex -0.0599999986588955 -41 -0.106069996953011
vertex 0.0900000035762787 -40 -0.106069996953011
endloop
endfacet
facet normal 0 0 -1
outer loop
vertex -0.0599999986588955 -40 -0.106069996953011
vertex 0.0900000035762787 -40 -0.106069996953011
vertex -0.0599999986588955 -41 -0.106069996953011
endloop
endfacet
facet normal 0 -0 1
outer loop
vertex 0.0900000035762787 -41 0.256069988012314
vertex 0.0900000035762787 -40 0.256069988012314
vertex -0.0599999986588955 -41 0.256069988012314
endloop
endfacet
facet normal -0 0 1
outer loop
vertex -0.0599999986588955 -40 0.256069988012314
vertex -0.0599999986588955 -41 0.256069988012314
vertex 0.0900000035762787 -40 0.256069988012314
endloop
endfacet
facet normal 0.707106828689575 0 -0.707106828689575
outer loop
vertex 0.196070000529289 -41 0
vertex 0.0900000035762787 -41 -0.106069996953011
vertex 0.196070000529289 -40 0
endloop
endfacet
facet normal 0.707106828689575 0 -0.707106828689575
outer loop
vertex 0.0900000035762787 -40 -0.106069996953011
vertex 0.196070000529289 -40 0
vertex 0.0900000035762787 -41 -0.106069996953011
endloop
endfacet
facet normal 0.707106828689575 -0 0.707106828689575
outer loop
vertex 0.196070000529289 -41 0.150000005960464
vertex 0.196070000529289 -40 0.150000005960464
vertex 0.0900000035762787 -41 0.256069988012314
endloop
endfacet
facet normal 0.707106828689575 0 0.707106828689575
outer loop
vertex 0.0900000035762787 -40 0.256069988012314
vertex 0.0900000035762787 -41 0.256069988012314
vertex 0.196070000529289 -40 0.150000005960464
endloop
endfacet
facet normal 1 0 0
outer loop
vertex 0.196070000529289 -41 0
vertex 0.196070000529289 -40 0
vertex 0.196070000529289 -41 0.150000005960464
endloop
endfacet
facet normal 1 0 0
outer loop
vertex 0.196070000529289 -40 0.150000005960464
vertex 0.196070000529289 -41 0.150000005960464
vertex 0.196070000529289 -40 0
endloop
endfacet
facet normal 0 0.00265174056403339 0.999996423721313
outer loop
vertex 0.0900000035762787 -39.9998588562012 0.256069630384445
vertex 0.0885355174541473 -39.0235404968262 0.253480672836304
vertex -0.0599999986588955 -39.9998588562012 0.256069630384445
endloop
endfacet
facet normal -6.26773093688693e-16 0.00265174056403339 0.999996483325958
outer loop
vertex -0.0585355162620544 -39.0235404968262 0.253480672836304
vertex -0.0599999986588955 -39.9998588562012 0.256069630384445
vertex 0.0885355174541473 -39.0235404968262 0.253480672836304
endloop
endfacet
facet normal -6.26773040749134e-16 0.00265174056403339 0.999996483325958
outer loop
vertex -0.0585355162620544 -39.0235404968262 0.253480672836304
vertex 0.0885355174541473 -39.0235404968262 0.253480672836304
vertex -0.0561296120285988 -37.4196090698242 0.249227449297905
endloop
endfacet
facet normal -1.95104947030735e-16 0.00265174056403339 0.999996483325958
outer loop
vertex 0.0861296132206917 -37.4196090698242 0.249227449297905
vertex -0.0561296120285988 -37.4196090698242 0.249227449297905
vertex 0.0885355174541473 -39.0235404968262 0.253480672836304
endloop
endfacet
facet normal -1.95104947030735e-16 0.00265174056403339 0.999996483325958
outer loop
vertex 0.0861296132206917 -37.4196090698242 0.249227449297905
vertex 0.0821771025657654 -34.7846145629883 0.242240101099014
vertex -0.0561296120285988 -37.4196090698242 0.249227449297905
endloop
endfacet
facet normal -0 0.00265174079686403 0.999996483325958
outer loop
vertex -0.0521771050989628 -34.7846145629883 0.242240101099014
vertex -0.0561296120285988 -37.4196090698242 0.249227449297905
vertex 0.0821771025657654 -34.7846145629883 0.242240101099014
endloop
endfacet
facet normal -0 0.00265174079686403 0.999996542930603
outer loop
vertex -0.0521771050989628 -34.7846145629883 0.242240101099014
vertex 0.0821771025657654 -34.7846145629883 0.242240101099014
vertex -0.0456837899982929 -30.455753326416 0.230761051177979
endloop
endfacet
facet normal -3.02133449442277e-16 0.00265174056403339 0.999996483325958
outer loop
vertex 0.0756837874650955 -30.455753326416 0.230761051177979
vertex -0.0456837899982929 -30.455753326416 0.230761051177979
vertex 0.0821771025657654 -34.7846145629883 0.242240101099014
endloop
endfacet
facet normal -3.02133449442277e-16 0.00265174079686403 0.999996483325958
outer loop
vertex 0.0756837874650955 -30.455753326416 0.230761051177979
vertex 0.0668857619166374 -24.5904197692871 0.215207651257515
vertex -0.0456837899982929 -30.455753326416 0.230761051177979
endloop
endfacet
facet normal 3.53364807888855e-16 0.00265174056403339 0.999996483325958
outer loop
vertex -0.0368857607245445 -24.5904197692871 0.215207651257515
vertex -0.0456837899982929 -30.455753326416 0.230761051177979
vertex 0.0668857619166374 -24.5904197692871 0.215207651257515
endloop
endfacet
facet normal 3.53364834358635e-16 0.00265174079686403 0.999996483325958
outer loop
vertex -0.0368857607245445 -24.5904197692871 0.215207651257515
vertex 0.0668857619166374 -24.5904197692871 0.215207651257515
vertex -0.0280452892184258 -18.6967926025391 0.19957922399044
endloop
endfacet
facet normal -5.8908664075602e-18 0.00265174056403339 0.999996483325958
outer loop
vertex 0.0580452904105186 -18.6967926025391 0.19957922399044
vertex -0.0280452892184258 -18.6967926025391 0.19957922399044
vertex 0.0668857619166374 -24.5904197692871 0.215207651257515
endloop
endfacet
facet normal -5.8908664075602e-18 0.00265174056403339 0.999996483325958
outer loop
vertex 0.0580452904105186 -18.6967926025391 0.19957922399044
vertex 0.0492048189043999 -12.8031663894653 0.183950796723366
vertex -0.0280452892184258 -18.6967926025391 0.19957922399044
endloop
endfacet
facet normal 2.68011997711559e-16 0.00265174056403339 0.999996423721313
outer loop
vertex -0.019204817712307 -12.8031663894653 0.183950796723366
vertex -0.0280452892184258 -18.6967926025391 0.19957922399044
vertex 0.0492048189043999 -12.8031663894653 0.183950796723366
endloop
endfacet
facet normal 2.68011971241779e-16 0.00265174056403339 0.999996423721313
outer loop
vertex -0.019204817712307 -12.8031663894653 0.183950796723366
vertex 0.0492048189043999 -12.8031663894653 0.183950796723366
vertex -0.0111231999471784 -7.41544008255005 0.169663891196251
endloop
endfacet
facet normal 1.158234837309e-16 0.00265174056403339 0.999996483325958
outer loop
vertex 0.0411232002079487 -7.41544008255005 0.169663891196251
vertex -0.0111231999471784 -7.41544008255005 0.169663891196251
vertex 0.0492048189043999 -12.8031663894653 0.183950796723366
endloop
endfacet
facet normal 1.1582349696579e-16 0.00265174056403339 0.999996483325958
outer loop
vertex 0.0411232002079487 -7.41544008255005 0.169663891196251
vertex 0.0362186394631863 -4.14574384689331 0.160993471741676
vertex -0.0111231999471784 -7.41544008255005 0.169663891196251
endloop
endfacet
facet normal -1.37551999057319e-15 0.00265174056403339 0.999996483325958
outer loop
vertex -0.00621863780543208 -4.14574384689331 0.160993471741676
vertex -0.0111231999471784 -7.41544008255005 0.169663891196251
vertex 0.0362186394631863 -4.14574384689331 0.160993471741676
endloop
endfacet
facet normal -1.37552009645231e-15 0.00265174079686403 0.999996423721313
outer loop
vertex -0.00621863780543208 -4.14574384689331 0.160993471741676
vertex 0.0362186394631863 -4.14574384689331 0.160993471741676
vertex -0.00339848501607776 -2.26564860343933 0.156007930636406
endloop
endfacet
facet normal 5.30266765420189e-16 0.00265174033120275 0.999996423721313
outer loop
vertex 0.0333984866738319 -2.26564860343933 0.156007930636406
vertex -0.00339848501607776 -2.26564860343933 0.156007930636406
vertex 0.0362186394631863 -4.14574384689331 0.160993471741676
endloop
endfacet
facet normal 5.30266818359748e-16 0.00265174056403339 0.999996423721313
outer loop
vertex 0.0333984866738319 -2.26564860343933 0.156007930636406
vertex 0.0317768789827824 -1.18458235263824 0.153141215443611
vertex -0.00339848501607776 -2.26564860343933 0.156007930636406
endloop
endfacet
facet normal -4.91346766164156e-16 0.00265174079686403 0.999996483325958
outer loop
vertex -0.00177687976974994 -1.18458235263824 0.153141215443611
vertex -0.00339848501607776 -2.26564860343933 0.156007930636406
vertex 0.0317768789827824 -1.18458235263824 0.153141215443611
endloop
endfacet
facet normal -4.91346819103715e-16 0.00265174079686403 0.999996542930603
outer loop
vertex -0.00177687976974994 -1.18458235263824 0.153141215443611
vertex 0.0317768789827824 -1.18458235263824 0.153141215443611
vertex -0.000844446825794876 -0.562962591648102 0.151492834091187
endloop
endfacet
facet normal 1.7796191867966e-15 0.00265174056403339 0.999996483325958
outer loop
vertex 0.0308444462716579 -0.562962591648102 0.151492834091187
vertex -0.000844446825794876 -0.562962591648102 0.151492834091187
vertex 0.0317768789827824 -1.18458235263824 0.153141215443611
endloop
endfacet
facet normal 1.7796191867966e-15 0.00265174056403339 0.999996483325958
outer loop
vertex 0.0308444462716579 -0.562962591648102 0.151492834091187
vertex 0.0303082913160324 -0.205527409911156 0.150545001029968
vertex -0.000844446825794876 -0.562962591648102 0.151492834091187
endloop
endfacet
facet normal 1.0387674310739e-15 0.00265174056403339 0.999996423721313
outer loop
vertex -0.000308292190311477 -0.205527409911156 0.150545001029968
vertex -0.000844446825794876 -0.562962591648102 0.151492834091187
vertex 0.0303082913160324 -0.205527409911156 0.150545001029968
endloop
endfacet
facet normal 1.0387674310739e-15 0.00265174056403339 0.999996423721313
outer loop
vertex -0.000308292190311477 -0.205527409911156 0.150545001029968
vertex 0.0303082913160324 -0.205527409911156 0.150545001029968
vertex 0 0 0.150000005960464
endloop
endfacet
facet normal 0 0.00265174079686403 0.999996542930603
outer loop
vertex 0.0299999993294477 0 0.150000005960464
vertex 0 0 0.150000005960464
vertex 0.0303082913160324 -0.205527409911156 0.150545001029968
endloop
endfacet
facet normal -0.999991416931152 -0.00415171403437853 1.73406451081362e-16
outer loop
vertex 0.192044973373413 -39.0305213928223 0.150000005960464
vertex 0.192044973373413 -39.0305213928223 0
vertex 0.196068570017815 -39.9996566772461 0.150000005960464
endloop
endfacet
facet normal -0.999991416931152 -0.00415171403437853 0
outer loop
vertex 0.196068570017815 -39.9996566772461 0
vertex 0.196068570017815 -39.9996566772461 0.150000005960464
vertex 0.192044973373413 -39.0305213928223 0
endloop
endfacet
facet normal -0.999991357326508 -0.00415171403437853 1.73406451081362e-16
outer loop
vertex 0.192044973373413 -39.0305213928223 0
vertex 0.192044973373413 -39.0305213928223 0.150000005960464
vertex 0.185668051242828 -37.4945640563965 0
endloop
endfacet
facet normal -0.999991357326508 -0.00415171403437853 -1.96664678793765e-16
outer loop
vertex 0.185668051242828 -37.4945640563965 0.150000005960464
vertex 0.185668051242828 -37.4945640563965 0
vertex 0.192044973373413 -39.0305213928223 0.150000005960464
endloop
endfacet
facet normal -0.999991416931152 -0.00415171450003982 -1.96664692028655e-16
outer loop
vertex 0.185668051242828 -37.4945640563965 0.150000005960464
vertex 0.175561398267746 -35.0602531433105 0.150000005960464
vertex 0.185668051242828 -37.4945640563965 0
endloop
endfacet
facet normal -0.999991416931152 -0.00415171450003982 -2.32582310211251e-17
outer loop
vertex 0.175561398267746 -35.0602531433105 0
vertex 0.185668051242828 -37.4945640563965 0
vertex 0.175561398267746 -35.0602531433105 0.150000005960464
endloop
endfacet
facet normal -0.999991357326508 -0.00415171403437853 -2.32582310211251e-17
outer loop
vertex 0.175561398267746 -35.0602531433105 0.150000005960464
vertex 0.159543558955193 -31.2021579742432 0.150000005960464
vertex 0.175561398267746 -35.0602531433105 0
endloop
endfacet
facet normal -0.999991357326508 -0.00415171403437853 -9.83323460143273e-17
outer loop
vertex 0.159543558955193 -31.2021579742432 0
vertex 0.175561398267746 -35.0602531433105 0
vertex 0.159543558955193 -31.2021579742432 0.150000005960464
endloop
endfacet
facet normal -0.999991357326508 -0.00415171403437853 -9.83323460143273e-17
outer loop
vertex 0.159543558955193 -31.2021579742432 0.150000005960464
vertex 0.136601313948631 -25.6762371063232 0.150000005960464
vertex 0.159543558955193 -31.2021579742432 0
endloop
endfacet
facet normal -0.999991357326508 -0.00415171403437853 -1.16291163377431e-17
outer loop
vertex 0.136601313948631 -25.6762371063232 0
vertex 0.159543558955193 -31.2021579742432 0
vertex 0.136601313948631 -25.6762371063232 0.150000005960464
endloop
endfacet
facet normal -0.999991416931152 -0.00415171403437853 -1.16291163377431e-17
outer loop
vertex 0.136601313948631 -25.6762371063232 0
vertex 0.136601313948631 -25.6762371063232 0.150000005960464
vertex 0.113034285604954 -19.999828338623 0
endloop
endfacet
facet normal -0.999991416931152 -0.00415171403437853 -4.07019051141495e-17
outer loop
vertex 0.113034285604954 -19.999828338623 0.150000005960464
vertex 0.113034285604954 -19.999828338623 0
vertex 0.136601313948631 -25.6762371063232 0.150000005960464
endloop
endfacet
facet normal -0.999991416931152 -0.00415171403437853 -4.07019051141495e-17
outer loop
vertex 0.113034285604954 -19.999828338623 0.150000005960464
vertex 0.0894672572612762 -14.3234186172485 0.150000005960464
vertex 0.113034285604954 -19.999828338623 0
endloop
endfacet
facet normal -0.999991416931152 -0.00415171403437853 1.24240291309088e-16
outer loop
vertex 0.0894672572612762 -14.3234186172485 0
vertex 0.113034285604954 -19.999828338623 0
vertex 0.0894672572612762 -14.3234186172485 0.150000005960464
endloop
endfacet
facet normal -0.999991357326508 -0.00415171403437853 1.24240291309088e-16
outer loop
vertex 0.0894672572612762 -14.3234186172485 0.150000005960464
vertex 0.066525012254715 -8.79749774932861 0.150000005960464
vertex 0.0894672572612762 -14.3234186172485 0
endloop
endfacet
facet normal -0.999991357326508 -0.00415171403437853 1.73406451081362e-16
outer loop
vertex 0.066525012254715 -8.79749774932861 0
vertex 0.0894672572612762 -14.3234186172485 0
vertex 0.066525012254715 -8.79749774932861 0.150000005960464
endloop
endfacet
facet normal -0.999991357326508 -0.00415171403437853 8.6703232158126e-17
outer loop
vertex 0.0505071692168713 -4.93940353393555 0
vertex 0.066525012254715 -8.79749774932861 0
vertex 0.0505071692168713 -4.93940353393555 0.150000005960464
endloop
endfacet
facet normal -0.999991357326508 -0.00415171403437853 1.73406464316252e-16
outer loop
vertex 0.066525012254715 -8.79749774932861 0.150000005960464
vertex 0.0505071692168713 -4.93940353393555 0.150000005960464
vertex 0.066525012254715 -8.79749774932861 0
endloop
endfacet
facet normal -0.999991416931152 -0.00415171450003982 8.6703232158126e-17
outer loop
vertex 0.0505071692168713 -4.93940353393555 0
vertex 0.0505071692168713 -4.93940353393555 0.150000005960464
vertex 0.0404005125164986 -2.50509142875671 0
endloop
endfacet
facet normal -0.999991416931152 -0.00415171450003982 -2.81527910544993e-17
outer loop
vertex 0.0404005125164986 -2.50509142875671 0.150000005960464
vertex 0.0404005125164986 -2.50509142875671 0
vertex 0.0505071692168713 -4.93940353393555 0.150000005960464
endloop
endfacet
facet normal -0.999991357326508 -0.00415171403437853 -2.81527943632218e-17
outer loop
vertex 0.0404005125164986 -2.50509142875671 0
vertex 0.0404005125164986 -2.50509142875671 0.150000005960464
vertex 0.0340235941112041 -0.969132244586945 0
endloop
endfacet
facet normal -0.999991357326508 -0.00415171403437853 -5.90472557056934e-17
outer loop
vertex 0.0340235941112041 -0.969132244586945 0.150000005960464
vertex 0.0340235941112041 -0.969132244586945 0
vertex 0.0404005125164986 -2.50509142875671 0.150000005960464
endloop
endfacet
facet normal -0.999991416931152 -0.00415171403437853 -5.90472557056934e-17
outer loop
vertex 0.0340235941112041 -0.969132244586945 0
vertex 0.0340235941112041 -0.969132244586945 0.150000005960464
vertex 0.0299999993294477 0 0
endloop
endfacet
facet normal -0.999991416931152 -0.00415171403437853 -0
outer loop
vertex 0.0299999993294477 0 0.150000005960464
vertex 0.0299999993294477 0 0
vertex 0.0340235941112041 -0.969132244586945 0.150000005960464
endloop
endfacet
facet normal 0.707103729248047 0.00293571827933192 0.707103729248047
outer loop
vertex 0.196069940924644 -39.9999351501465 0.149999797344208
vertex 0.191170424222946 -38.8198318481445 0.149999797344208
vertex 0.089999720454216 -39.999813079834 0.256069511175156
endloop
endfacet
facet normal 0.707103729248047 0.00293571827933192 0.707103729248047
outer loop
vertex 0.0882295593619347 -38.8197059631348 0.252940148115158
vertex 0.089999720454216 -39.999813079834 0.256069511175156
vertex 0.191170424222946 -38.8198318481445 0.149999797344208
endloop
endfacet
facet normal 0.707103729248047 0.00293571804650128 0.707103729248047
outer loop
vertex 0.191170424222946 -38.8198318481445 0.149999797344208
vertex 0.179608389735222 -36.0349731445313 0.149999812245369
vertex 0.0882295593619347 -38.8197059631348 0.252940148115158
endloop
endfacet
facet normal 0.707103729248047 0.00293571781367064 0.707103729248047
outer loop
vertex 0.0840522944927216 -36.0348625183105 0.245555445551872
vertex 0.0882295593619347 -38.8197059631348 0.252940148115158
vertex 0.179608389735222 -36.0349731445313 0.149999812245369
endloop
endfacet
facet normal 0.707103729248047 0.00293571804650128 0.707103729248047
outer loop
vertex 0.0840522944927216 -36.0348625183105 0.245555445551872
vertex 0.179608389735222 -36.0349731445313 0.149999812245369
vertex 0.0756150931119919 -30.4100646972656 0.230639889836311
endloop
endfacet
facet normal 0.707103729248047 0.00293571804650128 0.707103729248047
outer loop
vertex 0.156255483627319 -30.4101467132568 0.149999842047691
vertex 0.0756150931119919 -30.4100646972656 0.230639889836311
vertex 0.179608389735222 -36.0349731445313 0.149999812245369
endloop
endfacet
facet normal 0.707103788852692 0.00293571804650128 0.707103788852692
outer loop
vertex 0.156255483627319 -30.4101467132568 0.149999842047691
vertex 0.131004378199577 -24.3281173706055 0.149999871850014
vertex 0.0756150931119919 -30.4100646972656 0.230639889836311
endloop
endfacet
facet normal 0.707103729248047 0.00293571758083999 0.707103729248047
outer loop
vertex 0.066492073237896 -24.3280506134033 0.214511916041374
vertex 0.0756150931119919 -30.4100646972656 0.230639889836311
vertex 0.131004378199577 -24.3281173706055 0.149999871850014
endloop
endfacet
facet normal 0.707103729248047 0.00293571758083999 0.707103729248047
outer loop
vertex 0.066492073237896 -24.3280506134033 0.214511916041374
vertex 0.131004378199577 -24.3281173706055 0.149999871850014
vertex 0.0573690570890903 -18.2460384368896 0.198383927345276
endloop
endfacet
facet normal 0.707103729248047 0.00293571804650128 0.707103729248047
outer loop
vertex 0.105753287672997 -18.2460880279541 0.149999901652336
vertex 0.0573690570890903 -18.2460384368896 0.198383927345276
vertex 0.131004378199577 -24.3281173706055 0.149999871850014
endloop
endfacet
facet normal 0.707103729248047 0.00293571804650128 0.707103729248047
outer loop
vertex 0.105753287672997 -18.2460880279541 0.149999901652336
vertex 0.0805021896958351 -12.1640586853027 0.149999931454659
vertex 0.0573690570890903 -18.2460384368896 0.198383927345276
endloop
endfacet
facet normal 0.707103729248047 0.00293571758083999 0.707103729248047
outer loop
vertex 0.0482460372149944 -12.1640253067017 0.182255953550339
vertex 0.0573690570890903 -18.2460384368896 0.198383927345276
vertex 0.0805021896958351 -12.1640586853027 0.149999931454659
endloop
endfacet
facet normal 0.707103729248047 0.00293571758083999 0.707103729248047
outer loop
vertex 0.0482460372149944 -12.1640253067017 0.182255953550339
vertex 0.0805021896958351 -12.1640586853027 0.149999931454659
vertex 0.0391230210661888 -6.08201265335083 0.166127979755402
endloop
endfacet
facet normal 0.707103729248047 0.00293571758083999 0.707103729248047
outer loop
vertex 0.055251095443964 -6.08202934265137 0.149999976158142
vertex 0.0391230210661888 -6.08201265335083 0.166127979755402
vertex 0.0805021896958351 -12.1640586853027 0.149999931454659
endloop
endfacet
facet normal 0.707103729248047 0.00293571758083999 0.707103729248047
outer loop
vertex 0.0391230210661888 -6.08201265335083 0.166127979755402
vertex 0.055251095443964 -6.08202934265137 0.149999976158142
vertex 0.0299999993294477 0 0.150000005960464
endloop
endfacet
facet normal 0.707103729248047 0.00293571758083999 -0.707103729248047
outer loop
vertex 0.2213194668293 -46.0816421508789 0
vertex 0.205191612243652 -46.0817070007324 -0.0161281153559685
vertex 0.196068570017815 -39.9996566772461 0
endloop
endfacet
facet normal 0.707103729248047 0.00293571758083999 -0.707103729248047
outer loop
vertex 0.246570363640785 -52.163631439209 0
vertex 0.214314669370651 -52.163761138916 -0.032256230711937
vertex 0.2213194668293 -46.0816421508789 0
endloop
endfacet
facet normal 0.707103729248047 0.00293571758083999 -0.707103729248047
outer loop
vertex 0.205191612243652 -46.0817070007324 -0.0161281153559685
vertex 0.2213194668293 -46.0816421508789 0
vertex 0.214314669370651 -52.163761138916 -0.032256230711937
endloop
endfacet
facet normal 0.707103729248047 0.00293571758083999 -0.707103729248047
outer loop
vertex 0.246570363640785 -52.163631439209 0
vertex 0.271821260452271 -58.2456207275391 0
vertex 0.214314669370651 -52.163761138916 -0.032256230711937
endloop
endfacet
facet normal 0.707103729248047 0.00293571804650128 -0.707103729248047
outer loop
vertex 0.223437711596489 -58.2458152770996 -0.0483843497931957
vertex 0.214314669370651 -52.163761138916 -0.032256230711937
vertex 0.271821260452271 -58.2456207275391 0
endloop
endfacet
facet normal 0.707103729248047 0.00293571804650128 -0.707103729248047
outer loop
vertex 0.223437711596489 -58.2458152770996 -0.0483843497931957
vertex 0.271821260452271 -58.2456207275391 0
vertex 0.232560768723488 -64.3278656005859 -0.0645124614238739
endloop
endfacet
facet normal 0.707103729248047 0.00293571758083999 -0.707103729248047
outer loop
vertex 0.297072142362595 -64.3276062011719 0
vertex 0.232560768723488 -64.3278656005859 -0.0645124614238739
vertex 0.271821260452271 -58.2456207275391 0
endloop
endfacet
facet normal 0.707103729248047 0.00293571758083999 -0.707103729248047
outer loop
vertex 0.297072142362595 -64.3276062011719 0
vertex 0.322323054075241 -70.4095993041992 0
vertex 0.232560768723488 -64.3278656005859 -0.0645124614238739
endloop
endfacet
facet normal 0.707103788852692 0.00293571804650128 -0.707103788852692
outer loop
vertex 0.241683810949326 -70.4099197387695 -0.080640584230423
vertex 0.232560768723488 -64.3278656005859 -0.0645124614238739
vertex 0.322323054075241 -70.4095993041992 0
endloop
endfacet
facet normal 0.707103729248047 0.00293571804650128 -0.707103729248047
outer loop
vertex 0.345675706863403 -76.0343704223633 0
vertex 0.250121057033539 -76.0347747802734 -0.095556303858757
vertex 0.322323054075241 -70.4095993041992 0
endloop
endfacet
facet normal 0.707103729248047 0.00293571804650128 -0.707103729248047
outer loop
vertex 0.241683810949326 -70.4099197387695 -0.080640584230423
vertex 0.322323054075241 -70.4095993041992 0
vertex 0.250121057033539 -76.0347747802734 -0.095556303858757
endloop
endfacet
facet normal 0.707103729248047 0.00293571781367064 -0.707103729248047
outer loop
vertex 0.345675706863403 -76.0343704223633 0
vertex 0.357237637042999 -78.819206237793 0
vertex 0.250121057033539 -76.0347747802734 -0.095556303858757
endloop
endfacet
facet normal 0.707103729248047 0.00293571804650128 -0.707103729248047
outer loop
vertex 0.254298359155655 -78.8196411132813 -0.102941088378429
vertex 0.250121057033539 -76.0347747802734 -0.095556303858757
vertex 0.357237637042999 -78.819206237793 0
endloop
endfacet
facet normal 0.707103729248047 0.00293571827933192 -0.707103729248047
outer loop
vertex 0.357237637042999 -78.819206237793 0
vertex 0.362137138843536 -79.9993133544922 0
vertex 0.254298359155655 -78.8196411132813 -0.102941088378429
endloop
endfacet
facet normal 0.707103729248047 0.00293571827933192 -0.707103729248047
outer loop
vertex 0.256068497896194 -79.9997482299805 -0.106070458889008
vertex 0.254298359155655 -78.8196411132813 -0.102941088378429
vertex 0.362137138843536 -79.9993133544922 0
endloop
endfacet
facet normal 0.225991353392601 0.670024037361145 -0.707103669643402
outer loop
vertex 70.7014236450195 -70.3351669311523 -0.166068509221077
vertex 70.6666870117188 -70.4353866577148 -0.272137135267258
vertex 69.5837707519531 -69.9563217163086 -0.164298340678215
endloop
endfacet
facet normal 0.225991368293762 0.670024037361145 -0.707103729248047
outer loop
vertex 69.5500564575195 -70.0535888671875 -0.267237633466721
vertex 69.5837707519531 -69.9563217163086 -0.164298340678215
vertex 70.6666870117188 -70.4353866577148 -0.272137135267258
endloop
endfacet
facet normal 0.225991368293762 0.670024037361145 -0.707103729248047
outer loop
vertex 69.5837707519531 -69.9563217163086 -0.164298340678215
vertex 69.5500564575195 -70.0535888671875 -0.267237633466721
vertex 66.9462890625 -69.0623245239258 -0.16012105345726
endloop
endfacet
facet normal 0.225991353392601 0.670024037361145 -0.707103669643402
outer loop
vertex 66.9149932861328 -69.1526107788086 -0.255675703287125
vertex 66.9462890625 -69.0623245239258 -0.16012105345726
vertex 69.5500564575195 -70.0535888671875 -0.267237633466721
endloop
endfacet
facet normal 0.225991368293762 0.670024037361145 -0.707103729248047
outer loop
vertex 66.9149932861328 -69.1526107788086 -0.255675703287125
vertex 61.5927314758301 -67.3328323364258 -0.232323050498962
vertex 66.9462890625 -69.0623245239258 -0.16012105345726
endloop
endfacet
facet normal 0.225991368293762 0.67002409696579 -0.707103729248047
outer loop
vertex 61.6191291809082 -67.2566299438477 -0.151683822274208
vertex 66.9462890625 -69.0623245239258 -0.16012105345726
vertex 61.5927314758301 -67.3328323364258 -0.232323050498962
endloop
endfacet
facet normal 0.225991368293762 0.670024037361145 -0.707103788852692
outer loop
vertex 61.6191291809082 -67.2566299438477 -0.151683822274208
vertex 61.5927314758301 -67.3328323364258 -0.232323050498962
vertex 55.8589630126953 -65.3041687011719 -0.142560765147209
endloop
endfacet
facet normal 0.225991368293762 0.6700239777565 -0.707103729248047
outer loop
vertex 55.8378448486328 -65.3651275634766 -0.207072153687477
vertex 55.8589630126953 -65.3041687011719 -0.142560765147209
vertex 61.5927314758301 -67.3328323364258 -0.232323050498962
endloop
endfacet
facet normal 0.225991368293762 0.6700239777565 -0.707103729248047
outer loop
vertex 55.8378448486328 -65.3651275634766 -0.207072153687477
vertex 50.0829582214355 -63.3974189758301 -0.181821256875992
vertex 55.8589630126953 -65.3041687011719 -0.142560765147209
endloop
endfacet
facet normal 0.225991353392601 0.670024037361145 -0.707103669643402
outer loop
vertex 50.0987968444824 -63.3516998291016 -0.133437722921371
vertex 55.8589630126953 -65.3041687011719 -0.142560765147209
vertex 50.0829582214355 -63.3974189758301 -0.181821256875992
endloop
endfacet
facet normal 0.225991353392601 0.670024037361145 -0.707103669643402
outer loop
vertex 50.0987968444824 -63.3516998291016 -0.133437722921371
vertex 50.0829582214355 -63.3974189758301 -0.181821256875992
vertex 44.3386306762695 -61.3992347717285 -0.124314665794373
endloop
endfacet
facet normal 0.225991368293762 0.6700239777565 -0.707103729248047
outer loop
vertex 44.3280715942383 -61.4297142028809 -0.156570360064507
vertex 44.3386306762695 -61.3992347717285 -0.124314665794373
vertex 50.0829582214355 -63.3974189758301 -0.181821256875992
endloop
endfacet
facet normal 0.225991368293762 0.6700239777565 -0.707103729248047
outer loop
vertex 44.3280715942383 -61.4297142028809 -0.156570360064507
vertex 38.573184967041 -59.4620094299316 -0.131319463253021
vertex 44.3386306762695 -61.3992347717285 -0.124314665794373
endloop
endfacet
facet normal 0.225991368293762 0.6700239777565 -0.707103729248047
outer loop
vertex 38.5784645080566 -59.4467697143555 -0.115191616117954
vertex 44.3386306762695 -61.3992347717285 -0.124314665794373
vertex 38.573184967041 -59.4620094299316 -0.131319463253021
endloop
endfacet
facet normal 0.225991368293762 0.6700239777565 -0.707103729248047
outer loop
vertex 38.573184967041 -59.4620094299316 -0.131319463253021
vertex 32.8182983398438 -57.4943046569824 -0.106068566441536
vertex 38.5784645080566 -59.4467697143555 -0.115191616117954
endloop
endfacet
endsolid COMSOL mesh mesh1
