solid COMSOL mesh mesh1
facet normal -0.0102041661739349 0.999947965145111 0
outer loop
vertex 0 0 0.150000005960464
vertex 0 0 0
vertex -0.97791051864624 -0.00997927971184254 0.150733470916748
endloop
endfacet
facet normal -0.0102041643112898 0.999947905540466 1.1918308606059e-17
outer loop
vertex -0.97791051864624 -0.00997927971184254 -0.000733471068087965
vertex -0.97791051864624 -0.00997927971184254 0.150733470916748
vertex 0 0 0
endloop
endfacet
facet normal -0.0102041643112898 0.999947965145111 1.19183094332396e-17
outer loop
vertex -0.97791051864624 -0.00997927971184254 0.150733470916748
vertex -0.97791051864624 -0.00997927971184254 -0.000733471068087965
vertex -2.59907960891724 -0.0265228170901537 0.151949405670166
endloop
endfacet
facet normal -0.0102041643112898 0.999947905540466 5.01526785318618e-17
outer loop
vertex -2.59907960891724 -0.0265228170901537 -0.00194941111840308
vertex -2.59907960891724 -0.0265228170901537 0.151949405670166
vertex -0.97791051864624 -0.00997927971184254 -0.000733471068087965
endloop
endfacet
facet normal -0.0102041643112898 0.999947905540466 -8.42921594912116e-17
outer loop
vertex -5.28663539886475 -0.0539485067129135 0.153965190052986
vertex -2.59907960891724 -0.0265228170901537 0.151949405670166
vertex -5.28663539886475 -0.0539485067129135 -0.00396518316119909
endloop
endfacet
facet normal -0.0102041643112898 0.999947905540466 5.01526785318618e-17
outer loop
vertex -2.59907960891724 -0.0265228170901537 -0.00194941111840308
vertex -5.28663539886475 -0.0539485067129135 -0.00396518316119909
vertex -2.59907960891724 -0.0265228170901537 0.151949405670166
endloop
endfacet
facet normal -0.0102041643112898 0.999947905540466 -8.42921528737667e-17
outer loop
vertex -5.28663539886475 -0.0539485067129135 0.153965190052986
vertex -5.28663539886475 -0.0539485067129135 -0.00396518316119909
vertex -9.74203491210938 -0.0994145050644875 0.157306909561157
endloop
endfacet
facet normal -0.0102041643112898 0.999947905540466 2.3395100295745e-16
outer loop
vertex -9.74203491210938 -0.0994145050644875 -0.00730690686032176
vertex -9.74203491210938 -0.0994145050644875 0.157306909561157
vertex -5.28663539886475 -0.0539485067129135 -0.00396518316119909
endloop
endfacet
facet normal -0.0102041652426124 0.999947965145111 2.33951055897009e-16
outer loop
vertex -9.74203491210938 -0.0994145050644875 0.157306909561157
vertex -9.74203491210938 -0.0994145050644875 -0.00730690686032176
vertex -15.6764125823975 -0.15997302532196 0.161757916212082
endloop
endfacet
facet normal -0.0102041643112898 0.999947905540466 -9.14449225968556e-17
outer loop
vertex -15.6764125823975 -0.15997302532196 -0.0117579214274883
vertex -15.6764125823975 -0.15997302532196 0.161757916212082
vertex -9.74203491210938 -0.0994145050644875 -0.00730690686032176
endloop
endfacet
facet normal -0.0102041652426124 0.999947905540466 -1.86329791576299e-16
outer loop
vertex -21.6232986450195 -0.220659181475639 0.166218310594559
vertex -15.6764125823975 -0.15997302532196 0.161757916212082
vertex -21.6232986450195 -0.220659181475639 -0.0162183176726103
endloop
endfacet
facet normal -0.0102041633799672 0.999947905540466 -9.14449159794107e-17
outer loop
vertex -15.6764125823975 -0.15997302532196 -0.0117579214274883
vertex -21.6232986450195 -0.220659181475639 -0.0162183176726103
vertex -15.6764125823975 -0.15997302532196 0.161757916212082
endloop
endfacet
facet normal -0.0102041652426124 0.999947905540466 -1.86329791576299e-16
outer loop
vertex -21.6232986450195 -0.220659181475639 0.166218310594559
vertex -21.6232986450195 -0.220659181475639 -0.0162183176726103
vertex -27.570182800293 -0.281345337629318 0.170678719878197
endloop
endfacet
facet normal -0.0102041652426124 0.999947965145111 1.18056308901977e-17
outer loop
vertex -27.570182800293 -0.281345337629318 -0.0206787139177322
vertex -27.570182800293 -0.281345337629318 0.170678719878197
vertex -21.6232986450195 -0.220659181475639 -0.0162183176726103
endloop
endfacet
facet normal -0.0102041652426124 0.999947965145111 1.18056317173783e-17
outer loop
vertex -27.570182800293 -0.281345337629318 0.170678719878197
vertex -27.570182800293 -0.281345337629318 -0.0206787139177322
vertex -32.9944458007813 -0.336698263883591 0.174747124314308
endloop
endfacet
facet normal -0.0102041643112898 0.999947905540466 -8.51989016438024e-17
outer loop
vertex -32.9944458007813 -0.336698263883591 -0.024747122079134
vertex -32.9944458007813 -0.336698263883591 0.174747124314308
vertex -27.570182800293 -0.281345337629318 -0.0206787139177322
endloop
endfacet
facet normal -0.0102041652426124 0.999947965145111 0
outer loop
vertex -36.484748840332 -0.372315794229507 0.177364990115166
vertex -32.9944458007813 -0.336698263883591 0.174747124314308
vertex -36.484748840332 -0.372315794229507 -0.0273649860173464
endloop
endfacet
facet normal -0.0102041652426124 0.999947965145111 -8.51989082612473e-17
outer loop
vertex -32.9944458007813 -0.336698263883591 -0.024747122079134
vertex -36.484748840332 -0.372315794229507 -0.0273649860173464
vertex -32.9944458007813 -0.336698263883591 0.174747124314308
endloop
endfacet
facet normal -0.0102041633799672 0.999947905540466 -2.66890817256969e-16
outer loop
vertex -38.6520881652832 -0.394432812929153 0.178990572690964
vertex -36.484748840332 -0.372315794229507 0.177364990115166
vertex -38.6520881652832 -0.394432812929153 -0.028990576043725
endloop
endfacet
facet normal -0.0102041652426124 0.999947965145111 0
outer loop
vertex -36.484748840332 -0.372315794229507 -0.0273649860173464
vertex -38.6520881652832 -0.394432812929153 -0.028990576043725
vertex -36.484748840332 -0.372315794229507 0.177364990115166
endloop
endfacet
facet normal -0.0102041643112898 0.999947965145111 -2.66890817256969e-16
outer loop
vertex -38.6520881652832 -0.394432812929153 0.178990572690964
vertex -38.6520881652832 -0.394432812929153 -0.028990576043725
vertex -39.997917175293 -0.408166587352753 0.180000007152557
endloop
endfacet
facet normal -0.0102041643112898 0.999947905540466 0
outer loop
vertex -39.997917175293 -0.408166587352753 -0.0299999993294477
vertex -39.997917175293 -0.408166587352753 0.180000007152557
vertex -38.6520881652832 -0.394432812929153 -0.028990576043725
endloop
endfacet
facet normal 0.000704512058291584 0.00446061929687858 0.999989807605743
outer loop
vertex -35.8276062011719 -4.54540395736694 0.195516765117645
vertex -35.8058891296387 -4.52350807189941 0.195403799414635
vertex -39.997917175293 -0.408166587352753 0.180000007152557
endloop
endfacet
facet normal 0.000704512058291584 0.00446061929687858 0.999989807605743
outer loop
vertex -31.657299041748 -8.68264198303223 0.211033537983894
vertex -31.613862991333 -8.63885021209717 0.210807591676712
vertex -35.8276062011719 -4.54540395736694 0.195516765117645
endloop
endfacet
facet normal 0.000704512058291584 0.00446061929687858 0.999989807605743
outer loop
vertex -35.8058891296387 -4.52350807189941 0.195403799414635
vertex -35.8276062011719 -4.54540395736694 0.195516765117645
vertex -31.613862991333 -8.63885021209717 0.210807591676712
endloop
endfacet
facet normal 0.000704512058291584 0.00446061929687858 0.999989807605743
outer loop
vertex -31.657299041748 -8.68264198303223 0.211033537983894
vertex -27.4869899749756 -12.8198795318604 0.226550295948982
vertex -31.613862991333 -8.63885021209717 0.210807591676712
endloop
endfacet
facet normal 0.000704512116499245 0.00446061929687858 0.999989807605743
outer loop
vertex -27.4218349456787 -12.7541913986206 0.226211383938789
vertex -31.613862991333 -8.63885021209717 0.210807591676712
vertex -27.4869899749756 -12.8198795318604 0.226550295948982
endloop
endfacet
facet normal 0.000704512058291584 0.00446061929687858 0.999989807605743
outer loop
vertex -23.3166790008545 -16.9571170806885 0.242067068815231
vertex -23.229808807373 -16.8695335388184 0.241615176200867
vertex -27.4869899749756 -12.8198795318604 0.226550295948982
endloop
endfacet
facet normal 0.000704512116499245 0.00446061929687858 0.999989807605743
outer loop
vertex -27.4218349456787 -12.7541913986206 0.226211383938789
vertex -27.4869899749756 -12.8198795318604 0.226550295948982
vertex -23.229808807373 -16.8695335388184 0.241615176200867
endloop
endfacet
facet normal 0.000704512058291584 0.00446061929687858 0.999989807605743
outer loop
vertex -23.3166790008545 -16.9571170806885 0.242067068815231
vertex -19.146369934082 -21.0943546295166 0.257583826780319
vertex -23.229808807373 -16.8695335388184 0.241615176200867
endloop
endfacet
facet normal 0.000704512116499245 0.00446061883121729 0.999989807605743
outer loop
vertex -19.0377807617188 -20.9848747253418 0.257018983364105
vertex -23.229808807373 -16.8695335388184 0.241615176200867
vertex -19.146369934082 -21.0943546295166 0.257583826780319
endloop
endfacet
facet normal 0.000704512058291584 0.00446061929687858 0.999989807605743
outer loop
vertex -15.089448928833 -25.1191024780273 0.272678703069687
vertex -14.9597196578979 -24.9883365631104 0.272004008293152
vertex -19.146369934082 -21.0943546295166 0.257583826780319
endloop
endfacet
facet normal 0.000704512116499245 0.00446061929687858 0.999989807605743
outer loop
vertex -19.0377807617188 -20.9848747253418 0.257018983364105
vertex -19.146369934082 -21.0943546295166 0.257583826780319
vertex -14.9597196578979 -24.9883365631104 0.272004008293152
endloop
endfacet
facet normal 0.000704512174706906 0.00446061929687858 0.999989807605743
outer loop
vertex -15.089448928833 -25.1191024780273 0.272678703069687
vertex -12.7166090011597 -27.4731254577637 0.28150749206543
vertex -14.9597196578979 -24.9883365631104 0.272004008293152
endloop
endfacet
facet normal 0.000704512174706906 0.00446061976253986 0.999989807605743
outer loop
vertex -12.5745105743408 -27.3299121856689 0.280768573284149
vertex -14.9597196578979 -24.9883365631104 0.272004008293152
vertex -12.7166090011597 -27.4731254577637 0.28150749206543
endloop
endfacet
facet normal 0.000704512174706906 0.00446061929687858 0.999989867210388
outer loop
vertex -12.7166090011597 -27.4731254577637 0.28150749206543
vertex -11.601372718811 -28.579517364502 0.285657048225403
vertex -12.5745105743408 -27.3299121856689 0.280768573284149
endloop
endfacet
facet normal 0.000704512116499245 0.00446061883121729 0.999989807605743
outer loop
vertex -11.4534740447998 -28.43044090271 0.284887850284576
vertex -12.5745105743408 -27.3299121856689 0.280768573284149
vertex -11.601372718811 -28.579517364502 0.285657048225403
endloop
endfacet
facet normal -0.707111895084381 0.00368565879762173 0.707092046737671
outer loop
vertex -4.15377759933472 -0.0115481959655881 -4.15383386611938
vertex -4.15381288528442 -0.0423883982002735 -4.15370845794678
vertex 0 0 0
endloop
endfacet
facet normal -0.707111895084381 0.00368565879762173 0.707092046737671
outer loop
vertex -8.30755519866943 -0.0230963919311762 -8.30766773223877
vertex -8.30762577056885 -0.084776796400547 -8.30741691589355
vertex -4.15377759933472 -0.0115481959655881 -4.15383386611938
endloop
endfacet
facet normal -0.707111895084381 0.00368565879762173 0.707092046737671
outer loop
vertex -4.15381288528442 -0.0423883982002735 -4.15370845794678
vertex -4.15377759933472 -0.0115481959655881 -4.15383386611938
vertex -8.30762577056885 -0.084776796400547 -8.30741691589355
endloop
endfacet
facet normal -0.707111895084381 0.00368565879762173 0.707092046737671
outer loop
vertex -8.30755519866943 -0.0230963919311762 -8.30766773223877
vertex -12.4613332748413 -0.0346445888280869 -12.4615020751953
vertex -8.30762577056885 -0.084776796400547 -8.30741691589355
endloop
endfacet
facet normal -0.707111954689026 0.00368565926328301 0.707092106342316
outer loop
vertex -12.4614381790161 -0.127165198326111 -12.4611253738403
vertex -8.30762577056885 -0.084776796400547 -8.30741691589355
vertex -12.4613332748413 -0.0346445888280869 -12.4615020751953
endloop
endfacet
facet normal -0.707111895084381 0.00368565879762173 0.707092046737671
outer loop
vertex -16.6151103973389 -0.0461927838623524 -16.6153354644775
vertex -16.6152515411377 -0.169553592801094 -16.6148338317871
vertex -12.4613332748413 -0.0346445888280869 -12.4615020751953
endloop
endfacet
facet normal -0.707111954689026 0.00368565926328301 0.707092106342316
outer loop
vertex -12.4614381790161 -0.127165198326111 -12.4611253738403
vertex -12.4613332748413 -0.0346445888280869 -12.4615020751953
vertex -16.6152515411377 -0.169553592801094 -16.6148338317871
endloop
endfacet
facet normal -0.707111895084381 0.00368565879762173 0.707092046737671
outer loop
vertex -16.6151103973389 -0.0461927838623524 -16.6153354644775
vertex -20.7688884735107 -0.0577409788966179 -20.7691707611084
vertex -16.6152515411377 -0.169553592801094 -16.6148338317871
endloop
endfacet
facet normal -0.707111895084381 0.00368565879762173 0.707092046737671
outer loop
vertex -20.769063949585 -0.211941987276077 -20.7685432434082
vertex -16.6152515411377 -0.169553592801094 -16.6148338317871
vertex -20.7688884735107 -0.0577409788966179 -20.7691707611084
endloop
endfacet
facet normal -0.707111954689026 0.00368565903045237 0.707092106342316
outer loop
vertex -24.8097362518311 -0.0689752101898193 -24.8100719451904
vertex -24.8099575042725 -0.253178089857101 -24.8093338012695
vertex -20.7688884735107 -0.0577409788966179 -20.7691707611084
endloop
endfacet
facet normal -0.707111895084381 0.00368565879762173 0.707091987133026
outer loop
vertex -20.769063949585 -0.211941987276077 -20.7685432434082
vertex -20.7688884735107 -0.0577409788966179 -20.7691707611084
vertex -24.8099575042725 -0.253178089857101 -24.8093338012695
endloop
endfacet
facet normal -0.707111954689026 0.00368565903045237 0.707092106342316
outer loop
vertex -24.8097362518311 -0.0689752101898193 -24.8100719451904
vertex -27.1731929779053 -0.0755460113286972 -27.1735610961914
vertex -24.8099575042725 -0.253178089857101 -24.8093338012695
endloop
endfacet
facet normal -0.707111895084381 0.00368565903045237 0.707092106342316
outer loop
vertex -27.1734466552734 -0.277296751737595 -27.1727638244629
vertex -24.8099575042725 -0.253178089857101 -24.8093338012695
vertex -27.1731929779053 -0.0755460113286972 -27.1735610961914
endloop
endfacet
facet normal -0.707111895084381 0.00368565879762173 0.707092046737671
outer loop
vertex -27.1731929779053 -0.0755460113286972 -27.1735610961914
vertex -28.2840251922607 -0.0786343142390251 -28.2844085693359
vertex -27.1734466552734 -0.277296751737595 -27.1727638244629
endloop
endfacet
facet normal -0.707111895084381 0.00368565879762173 0.707092046737671
outer loop
vertex -28.2842807769775 -0.288632482290268 -28.2835693359375
vertex -27.1734466552734 -0.277296751737595 -27.1727638244629
vertex -28.2840251922607 -0.0786343142390251 -28.2844085693359
endloop
endfacet
facet normal 0.707094371318817 0.00527653796598315 -0.707099497318268
outer loop
vertex -0.150707244873047 -0.000418991316109896 -0.15070928633213
vertex 0 0 0
vertex -0.150499448180199 -0.0313773863017559 -0.15073250234127
endloop
endfacet
facet normal 0.707094371318817 0.00527653750032187 -0.707099497318268
outer loop
vertex 0.00020136330567766 -0.029999315738678 -2.24998875637539e-05
vertex -0.150499448180199 -0.0313773863017559 -0.15073250234127
vertex 0 0 0
endloop
endfacet
facet normal 0.707094430923462 0.00527653796598315 -0.707099437713623
outer loop
vertex -0.403637170791626 -0.00112217874266207 -0.403642654418945
vertex -0.150707244873047 -0.000418991316109896 -0.15070928633213
vertex -0.403418570756912 -0.0336901843547821 -0.403667062520981
endloop
endfacet
facet normal 0.707094490528107 0.00527653843164444 -0.707099497318268
outer loop
vertex -0.150499448180199 -0.0313773863017559 -0.15073250234127
vertex -0.403418570756912 -0.0336901843547821 -0.403667062520981
vertex -0.150707244873047 -0.000418991316109896 -0.15070928633213
endloop
endfacet
facet normal 0.707094430923462 0.00527653796598315 -0.707099497318268
outer loop
vertex -0.403637170791626 -0.00112217874266207 -0.403642654418945
vertex -0.403418570756912 -0.0336901843547821 -0.403667062520981
vertex -0.828126013278961 -0.00230232859030366 -0.828137278556824
endloop
endfacet
facet normal 0.707094371318817 0.00527653750032187 -0.707099437713623
outer loop
vertex -0.827889263629913 -0.0375717170536518 -0.828163683414459
vertex -0.828126013278961 -0.00230232859030366 -0.828137278556824
vertex -0.403418570756912 -0.0336901843547821 -0.403667062520981
endloop
endfacet
facet normal 0.707094430923462 0.00527653796598315 -0.707099437713623
outer loop
vertex -1.5405398607254 -0.00428295833989978 -1.54056084156036
vertex -0.828126013278961 -0.00230232859030366 -0.828137278556824
vertex -1.54027271270752 -0.0440860465168953 -1.54059064388275
endloop
endfacet
facet normal 0.707094371318817 0.00527653796598315 -0.707099497318268
outer loop
vertex -0.827889263629913 -0.0375717170536518 -0.828163683414459
vertex -1.54027271270752 -0.0440860465168953 -1.54059064388275
vertex -0.828126013278961 -0.00230232859030366 -0.828137278556824
endloop
endfacet
facet normal 0.707094430923462 0.00527653750032187 -0.707099497318268
outer loop
vertex -2.73617458343506 -0.00760702230036259 -2.73621153831482
vertex -1.5405398607254 -0.00428295833989978 -1.54056084156036
vertex -2.73585629463196 -0.0550189577043056 -2.73624706268311
endloop
endfacet
facet normal 0.707094371318817 0.00527653750032187 -0.707099437713623
outer loop
vertex -1.54027271270752 -0.0440860465168953 -1.54059064388275
vertex -2.73585629463196 -0.0550189577043056 -2.73624706268311
vertex -1.5405398607254 -0.00428295833989978 -1.54056084156036
endloop
endfacet
facet normal 0.707094371318817 0.00527653750032187 -0.707099497318268
outer loop
vertex -2.73617458343506 -0.00760702230036259 -2.73621153831482
vertex -2.73585629463196 -0.0550189577043056 -2.73624706268311
vertex -4.74279165267944 -0.0131857534870505 -4.7428560256958
endloop
endfacet
facet normal 0.707094430923462 0.00527653796598315 -0.707099497318268
outer loop
vertex -4.74238777160645 -0.0733675062656403 -4.74290132522583
vertex -4.74279165267944 -0.0131857534870505 -4.7428560256958
vertex -2.73585629463196 -0.0550189577043056 -2.73624706268311
endloop
endfacet
facet normal 0.707094371318817 0.00527653750032187 -0.707099497318268
outer loop
vertex -8.0991792678833 -0.0225170720368624 -8.09928894042969
vertex -4.74279165267944 -0.0131857534870505 -4.7428560256958
vertex -8.09863185882568 -0.104058392345905 -8.09935092926025
endloop
endfacet
facet normal 0.707094430923462 0.00527653750032187 -0.707099497318268
outer loop
vertex -4.74238777160645 -0.0733675062656403 -4.74290132522583
vertex -8.09863185882568 -0.104058392345905 -8.09935092926025
vertex -4.74279165267944 -0.0131857534870505 -4.7428560256958
endloop
endfacet
facet normal 0.707094430923462 0.00527653796598315 -0.707099497318268
outer loop
vertex -8.0991792678833 -0.0225170720368624 -8.09928894042969
vertex -8.09863185882568 -0.104058392345905 -8.09935092926025
vertex -12.1303052902222 -0.0337242744863033 -12.1304693222046
endloop
endfacet
facet normal 0.707094371318817 0.00527653796598315 -0.707099497318268
outer loop
vertex -12.1295852661133 -0.140919089317322 -12.1305494308472
vertex -12.1303052902222 -0.0337242744863033 -12.1304693222046
vertex -8.09863185882568 -0.104058392345905 -8.09935092926025
endloop
endfacet
facet normal 0.707094371318817 0.00527653796598315 -0.707099497318268
outer loop
vertex -12.1303052902222 -0.0337242744863033 -12.1304693222046
vertex -12.1295852661133 -0.140919089317322 -12.1305494308472
vertex -16.1614303588867 -0.0449314750730991 -16.1616497039795
endloop
endfacet
facet normal 0.707094371318817 0.00527653750032187 -0.707099497318268
outer loop
vertex -16.1605377197266 -0.177779793739319 -16.1617488861084
vertex -16.1614303588867 -0.0449314750730991 -16.1616497039795
vertex -12.1295852661133 -0.140919089317322 -12.1305494308472
endloop
endfacet
facet normal 0.707094430923462 0.00527653843164444 -0.707099497318268
outer loop
vertex -20.1925563812256 -0.0561386793851852 -20.1928291320801
vertex -16.1614303588867 -0.0449314750730991 -16.1616497039795
vertex -20.1914920806885 -0.214640498161316 -20.1929492950439
endloop
endfacet
facet normal 0.707094371318817 0.00527653750032187 -0.707099497318268
outer loop
vertex -16.1605377197266 -0.177779793739319 -16.1617488861084
vertex -20.1914920806885 -0.214640498161316 -20.1929492950439
vertex -16.1614303588867 -0.0449314750730991 -16.1616497039795
endloop
endfacet
facet normal 0.707094430923462 0.00527653796598315 -0.707099497318268
outer loop
vertex -23.6555404663086 -0.0657663494348526 -23.6558609008789
vertex -20.1925563812256 -0.0561386793851852 -20.1928291320801
vertex -23.6543273925781 -0.246306106448174 -23.6559963226318
endloop
endfacet
facet normal 0.707094371318817 0.00527653750032187 -0.707099437713623
outer loop
vertex -20.1914920806885 -0.214640498161316 -20.1929492950439
vertex -23.6543273925781 -0.246306106448174 -23.6559963226318
vertex -20.1925563812256 -0.0561386793851852 -20.1928291320801
endloop
endfacet
facet normal 0.707094311714172 0.00527653750032187 -0.707099437713623
outer loop
vertex -23.6555404663086 -0.0657663494348526 -23.6558609008789
vertex -23.6543273925781 -0.246306106448174 -23.6559963226318
vertex -25.9002285003662 -0.0720069631934166 -25.9005794525146
endloop
endfacet
facet normal 0.707094371318817 0.00527653750032187 -0.707099497318268
outer loop
vertex -25.8989200592041 -0.266831576824188 -25.9007263183594
vertex -25.9002285003662 -0.0720069631934166 -25.9005794525146
vertex -23.6543273925781 -0.246306106448174 -23.6559963226318
endloop
endfacet
facet normal 0.707094430923462 0.00527653796598315 -0.707099497318268
outer loop
vertex -27.3490123748779 -0.0760348215699196 -27.3493824005127
vertex -25.9002285003662 -0.0720069631934166 -25.9005794525146
vertex -27.3476428985596 -0.280079305171967 -27.3495349884033
endloop
endfacet
facet normal 0.707094430923462 0.00527653796598315 -0.707099497318268
outer loop
vertex -25.8989200592041 -0.266831576824188 -25.9007263183594
vertex -27.3476428985596 -0.280079305171967 -27.3495349884033
vertex -25.9002285003662 -0.0720069631934166 -25.9005794525146
endloop
endfacet
facet normal 0.707094430923462 0.00527653796598315 -0.707099497318268
outer loop
vertex -27.3490123748779 -0.0760348215699196 -27.3493824005127
vertex -27.3476428985596 -0.280079305171967 -27.3495349884033
vertex -28.2840957641602 -0.0786345154047012 -28.2844791412354
endloop
endfacet
facet normal 0.707094371318817 0.00527653750032187 -0.707099437713623
outer loop
vertex -28.2826862335205 -0.288629710674286 -28.2846374511719
vertex -28.2840957641602 -0.0786345154047012 -28.2844791412354
vertex -27.3476428985596 -0.280079305171967 -27.3495349884033
endloop
endfacet
facet normal -0.325473666191101 -0.945551097393036 -2.45025869169066e-13
outer loop
vertex -4.84047698974609 -44.7476844787598 0.0595204494893551
vertex -4.84047698974609 -44.7476844787598 0.0904795527458191
vertex -5.04200553894043 -44.6783142089844 0.0599999986588955
endloop
endfacet
facet normal -0.325473636388779 -0.945551097393036 -0
outer loop
vertex -5.04200553894043 -44.6783142089844 0.0900000035762787
vertex -5.04200553894043 -44.6783142089844 0.0599999986588955
vertex -4.84047698974609 -44.7476844787598 0.0904795527458191
endloop
endfacet
facet normal -0.325473666191101 -0.945551156997681 6.09988351062823e-13
outer loop
vertex -4.50225400924683 -44.8641052246094 0.0587156265974045
vertex -4.50225400924683 -44.8641052246094 0.0912843719124794
vertex -4.84047698974609 -44.7476844787598 0.0595204494893551
endloop
endfacet
facet normal -0.325473666191101 -0.945551156997681 -2.4502589627412e-13
outer loop
vertex -4.84047698974609 -44.7476844787598 0.0904795527458191
vertex -4.84047698974609 -44.7476844787598 0.0595204494893551
vertex -4.50225400924683 -44.8641052246094 0.0912843719124794
endloop
endfacet
facet normal -0.325473666191101 -0.945551156997681 6.09988351062823e-13
outer loop
vertex -4.50225400924683 -44.8641052246094 0.0587156265974045
vertex -3.93461918830872 -45.0594940185547 0.0573649033904076
vertex -4.50225400924683 -44.8641052246094 0.0912843719124794
endloop
endfacet
facet normal -0.325473636388779 -0.945551097393036 3.44093243481725e-13
outer loop
vertex -3.93461918830872 -45.0594940185547 0.0926350951194763
vertex -4.50225400924683 -44.8641052246094 0.0912843719124794
vertex -3.93461918830872 -45.0594940185547 0.0573649033904076
endloop
endfacet
facet normal -0.325473666191101 -0.945551097393036 1.17952834457168e-13
outer loop
vertex -2.9819655418396 -45.3874130249023 0.0550980009138584
vertex -2.9819655418396 -45.3874130249023 0.0949020013213158
vertex -3.93461918830872 -45.0594940185547 0.0573649033904076
endloop
endfacet
facet normal -0.325473636388779 -0.945551097393036 3.44093243481725e-13
outer loop
vertex -3.93461918830872 -45.0594940185547 0.0926350951194763
vertex -3.93461918830872 -45.0594940185547 0.0573649033904076
vertex -2.9819655418396 -45.3874130249023 0.0949020013213158
endloop
endfacet
facet normal -0.325473666191101 -0.945551156997681 -2.02672866553635e-13
outer loop
vertex -1.38313972949982 -45.9377555847168 0.0512934923171997
vertex -1.38313972949982 -45.9377555847168 0.0987065061926842
vertex -2.9819655418396 -45.3874130249023 0.0550980009138584
endloop
endfacet
facet normal -0.325473666191101 -0.945551156997681 1.17952848009695e-13
outer loop
vertex -2.9819655418396 -45.3874130249023 0.0949020013213158
vertex -2.9819655418396 -45.3874130249023 0.0550980009138584
vertex -1.38313972949982 -45.9377555847168 0.0987065061926842
endloop
endfacet
facet normal -0.325473636388779 -0.945551097393036 -2.02672853001108e-13
outer loop
vertex -1.38313972949982 -45.9377555847168 0.0512934923171997
vertex 1.30014801025391 -46.861385345459 0.0449084341526031
vertex -1.38313972949982 -45.9377555847168 0.0987065061926842
endloop
endfacet
facet normal -0.325473636388779 -0.945551156997681 -2.52089961318841e-13
outer loop
vertex 1.30014801025391 -46.861385345459 0.105091564357281
vertex -1.38313972949982 -45.9377555847168 0.0987065061926842
vertex 1.30014801025391 -46.861385345459 0.0449084341526031
endloop
endfacet
facet normal -0.325473695993423 -0.945551156997681 -6.02666923527409e-14
outer loop
vertex 5.78837490081787 -48.4063034057617 0.0342284105718136
vertex 5.78837490081787 -48.4063034057617 0.115771591663361
vertex 1.30014801025391 -46.861385345459 0.0449084341526031
endloop
endfacet
facet normal -0.325473636388779 -0.945551156997681 -2.52089961318841e-13
outer loop
vertex 1.30014801025391 -46.861385345459 0.105091564357281
vertex 1.30014801025391 -46.861385345459 0.0449084341526031
vertex 5.78837490081787 -48.4063034057617 0.115771591663361
endloop
endfacet
facet normal -0.325473636388779 -0.945551097393036 -6.02666855764773e-14
outer loop
vertex 5.78837490081787 -48.4063034057617 0.0342284105718136
vertex 11.1788740158081 -50.2617988586426 0.0214013680815697
vertex 5.78837490081787 -48.4063034057617 0.115771591663361
endloop
endfacet
facet normal -0.325473636388779 -0.945551097393036 4.11010066042258e-14
outer loop
vertex 11.1788740158081 -50.2617988586426 0.128598630428314
vertex 5.78837490081787 -48.4063034057617 0.115771591663361
vertex 11.1788740158081 -50.2617988586426 0.0214013680815697
endloop
endfacet
facet normal -0.325473636388779 -0.945551097393036 -1.74076468436321e-14
outer loop
vertex 16.5693740844727 -52.1172943115234 0.141425669193268
vertex 11.1788740158081 -50.2617988586426 0.128598630428314
vertex 16.5693740844727 -52.1172943115234 0.00857432559132576
endloop
endfacet
facet normal -0.325473636388779 -0.945551097393036 4.11010066042258e-14
outer loop
vertex 11.1788740158081 -50.2617988586426 0.0214013680815697
vertex 16.5693740844727 -52.1172943115234 0.00857432559132576
vertex 11.1788740158081 -50.2617988586426 0.128598630428314
endloop
endfacet
facet normal -0.325473636388779 -0.945551097393036 -1.74076468436321e-14
outer loop
vertex 16.5693740844727 -52.1172943115234 0.141425669193268
vertex 16.5693740844727 -52.1172943115234 0.00857432559132576
vertex 21.9598731994629 -53.9727897644043 0.154252722859383
endloop
endfacet
facet normal -0.325473636388779 -0.945551097393036 -3.50917313599302e-14
outer loop
vertex 21.9598731994629 -53.9727897644043 -0.00425271643325686
vertex 21.9598731994629 -53.9727897644043 0.154252722859383
vertex 16.5693740844727 -52.1172943115234 0.00857432559132576
endloop
endfacet
facet normal -0.325473606586456 -0.945551037788391 -6.80210011580473e-14
outer loop
vertex 26.5906429290771 -55.5667724609375 -0.0152719328179955
vertex 26.5906429290771 -55.5667724609375 0.165271937847137
vertex 21.9598731994629 -53.9727897644043 -0.00425271643325686
endloop
endfacet
facet normal -0.325473636388779 -0.945551156997681 -3.5091734748062e-14
outer loop
vertex 21.9598731994629 -53.9727897644043 0.154252722859383
vertex 21.9598731994629 -53.9727897644043 -0.00425271643325686
vertex 26.5906429290771 -55.5667724609375 0.165271937847137
endloop
endfacet
facet normal -0.325473666191101 -0.945551097393036 -6.80210079343109e-14
outer loop
vertex 26.5906429290771 -55.5667724609375 -0.0152719328179955
vertex 29.59228515625 -56.5999870300293 -0.0224145315587521
vertex 26.5906429290771 -55.5667724609375 0.165271937847137
endloop
endfacet
facet normal -0.325473636388779 -0.945551037788391 -1.1870043590081e-14
outer loop
vertex 29.59228515625 -56.5999870300293 0.172414526343346
vertex 26.5906429290771 -55.5667724609375 0.165271937847137
vertex 29.59228515625 -56.5999870300293 -0.0224145315587521
endloop
endfacet
facet normal -0.325473636388779 -0.945551156997681 -5.45185404254248e-14
outer loop
vertex 31.5296249389648 -57.2668495178223 -0.0270245615392923
vertex 31.5296249389648 -57.2668495178223 0.177024558186531
vertex 29.59228515625 -56.5999870300293 -0.0224145315587521
endloop
endfacet
facet normal -0.325473636388779 -0.945551097393036 -1.1870042743048e-14
outer loop
vertex 29.59228515625 -56.5999870300293 0.172414526343346
vertex 29.59228515625 -56.5999870300293 -0.0224145315587521
vertex 31.5296249389648 -57.2668495178223 0.177024558186531
endloop
endfacet
facet normal -0.325473636388779 -0.945551097393036 -5.4518537037293e-14
outer loop
vertex 31.5296249389648 -57.2668495178223 -0.0270245615392923
vertex 32.7800407409668 -57.6972618103027 -0.0299999993294477
vertex 31.5296249389648 -57.2668495178223 0.177024558186531
endloop
endfacet
facet normal -0.325473606586456 -0.945551037788391 -0
outer loop
vertex 32.7800407409668 -57.6972618103027 0.180000007152557
vertex 31.5296249389648 -57.2668495178223 0.177024558186531
vertex 32.7800407409668 -57.6972618103027 -0.0299999993294477
endloop
endfacet
facet normal 0.00564611470326781 -0.00191534566693008 0.999982237815857
outer loop
vertex -4.9938178062439 -44.5362663269043 0.0599999986588955
vertex -5.04200553894043 -44.6783142089844 0.0599999986588955
vertex -4.06747484207153 -44.849739074707 0.0541692525148392
endloop
endfacet
facet normal 0.00564611423760653 -0.00191534555051476 0.999982178211212
outer loop
vertex -4.11613416671753 -44.9931755065918 0.0541692525148392
vertex -4.06747484207153 -44.849739074707 0.0541692525148392
vertex -5.04200553894043 -44.6783142089844 0.0599999986588955
endloop
endfacet
facet normal 0.00564611470326781 -0.00191534566693008 0.999982178211212
outer loop
vertex -2.58123445510864 -45.5151481628418 0.0445031076669693
vertex -2.53179430961609 -45.3694076538086 0.0445031076669693
vertex -4.11613416671753 -44.9931755065918 0.0541692525148392
endloop
endfacet
facet normal 0.00564611470326781 -0.00191534566693008 0.999982237815857
outer loop
vertex -4.06747484207153 -44.849739074707 0.0541692525148392
vertex -4.11613416671753 -44.9931755065918 0.0541692525148392
vertex -2.53179430961609 -45.3694076538086 0.0445031076669693
endloop
endfacet
facet normal 0.00564611470326781 -0.00191534566693008 0.999982178211212
outer loop
vertex -2.58123445510864 -45.5151481628418 0.0445031076669693
vertex -0.0366955362260342 -46.3804664611816 0.0284786783158779
vertex -2.53179430961609 -45.3694076538086 0.0445031076669693
endloop
endfacet
facet normal 0.0056461151689291 -0.0019153457833454 0.999982237815857
outer loop
vertex 0.0140397772192955 -46.2309074401855 0.0284786783158779
vertex -2.53179430961609 -45.3694076538086 0.0445031076669693
vertex -0.0366955362260342 -46.3804664611816 0.0284786783158779
endloop
endfacet
facet normal 0.00564611423760653 -0.00191534555051476 0.999982178211212
outer loop
vertex 4.18161249160767 -47.8149833679199 0.00191355915740132
vertex 4.23449516296387 -47.6590957641602 0.00191355915740132
vertex -0.0366955362260342 -46.3804664611816 0.0284786783158779
endloop
endfacet
facet normal 0.00564611470326781 -0.0019153457833454 0.999982237815857
outer loop
vertex 0.0140397772192955 -46.2309074401855 0.0284786783158779
vertex -0.0366955362260342 -46.3804664611816 0.0284786783158779
vertex 4.23449516296387 -47.6590957641602 0.00191355915740132
endloop
endfacet
facet normal 0.00564611470326781 -0.0019153457833454 0.999982237815857
outer loop
vertex 4.18161249160767 -47.8149833679199 0.00191355915740132
vertex 9.80019569396973 -49.7256889343262 -0.0334698967635632
vertex 4.23449516296387 -47.6590957641602 0.00191355915740132
endloop
endfacet
facet normal 0.0056461151689291 -0.00191534589976072 0.999982297420502
outer loop
vertex 9.85593795776367 -49.5613708496094 -0.0334698967635632
vertex 4.23449516296387 -47.6590957641602 0.00191355915740132
vertex 9.80019569396973 -49.7256889343262 -0.0334698967635632
endloop
endfacet
facet normal 0.00564611470326781 -0.00191534566693008 0.999982178211212
outer loop
vertex 15.4892282485962 -51.4676551818848 -0.0689279288053513
vertex 9.85593795776367 -49.5613708496094 -0.0334698967635632
vertex 15.4306201934814 -51.6404228210449 -0.0689279288053513
endloop
endfacet
facet normal 0.0056461151689291 -0.0019153457833454 0.999982237815857
outer loop
vertex 9.80019569396973 -49.7256889343262 -0.0334698967635632
vertex 15.4306201934814 -51.6404228210449 -0.0689279288053513
vertex 9.85593795776367 -49.5613708496094 -0.0334698967635632
endloop
endfacet
facet normal 0.00564611470326781 -0.00191534566693008 0.999982178211212
outer loop
vertex 15.4892282485962 -51.4676551818848 -0.0689279288053513
vertex 15.4306201934814 -51.6404228210449 -0.0689279288053513
vertex 21.1225185394287 -53.3739395141602 -0.104385957121849
endloop
endfacet
facet normal 0.00564611470326781 -0.0019153457833454 0.999982297420502
outer loop
vertex 21.0610446929932 -53.5551567077637 -0.104385957121849
vertex 21.1225185394287 -53.3739395141602 -0.104385957121849
vertex 15.4306201934814 -51.6404228210449 -0.0689279288053513
endloop
endfacet
facet normal 0.00564611470326781 -0.00191534566693008 0.999982237815857
outer loop
vertex 26.1966571807861 -55.3016166687012 -0.136727869510651
vertex 26.2607460021973 -55.1126976013184 -0.136727869510651
vertex 21.0610446929932 -53.5551567077637 -0.104385957121849
endloop
endfacet
facet normal 0.0056461151689291 -0.00191534566693008 0.999982297420502
outer loop
vertex 21.1225185394287 -53.3739395141602 -0.104385957121849
vertex 21.0610446929932 -53.5551567077637 -0.104385957121849
vertex 26.2607460021973 -55.1126976013184 -0.136727869510651
endloop
endfacet
facet normal 0.00564611470326781 -0.00191534566693008 0.999982178211212
outer loop
vertex 26.1966571807861 -55.3016166687012 -0.136727869510651
vertex 29.5012283325195 -56.4253997802734 -0.157538652420044
vertex 26.2607460021973 -55.1126976013184 -0.136727869510651
endloop
endfacet
facet normal 0.00564611470326781 -0.0019153457833454 0.999982237815857
outer loop
vertex 29.5669975280762 -56.2315216064453 -0.157538652420044
vertex 26.2607460021973 -55.1126976013184 -0.136727869510651
vertex 29.5012283325195 -56.4253997802734 -0.157538652420044
endloop
endfacet
facet normal 0.0056461151689291 -0.0019153457833454 0.999982237815857
outer loop
vertex 31.5532321929932 -57.1232223510742 -0.170461311936378
vertex 31.6200466156006 -56.9262657165527 -0.170461311936378
vertex 29.5012283325195 -56.4253997802734 -0.157538652420044
endloop
endfacet
facet normal 0.00564611470326781 -0.00191534566693008 0.999982178211212
outer loop
vertex 29.5669975280762 -56.2315216064453 -0.157538652420044
vertex 29.5012283325195 -56.4253997802734 -0.157538652420044
vertex 31.6200466156006 -56.9262657165527 -0.170461311936378
endloop
endfacet
facet normal 0.00564611470326781 -0.0019153457833454 0.999982237815857
outer loop
vertex 31.5532321929932 -57.1232223510742 -0.170461311936378
vertex 32.8274459838867 -57.5565452575684 -0.1784857660532
vertex 31.6200466156006 -56.9262657165527 -0.170461311936378
endloop
endfacet
facet normal 0.00564611470326781 -0.00191534566693008 0.999982178211212
outer loop
vertex 32.8949089050293 -57.3576736450195 -0.1784857660532
vertex 31.6200466156006 -56.9262657165527 -0.170461311936378
vertex 32.8274459838867 -57.5565452575684 -0.1784857660532
endloop
endfacet
facet normal -0.231650978326797 -0.668093621730804 -0.707098841667175
outer loop
vertex 32.8279571533203 -57.5567169189453 -0.178489804267883
vertex 32.7799415588379 -57.6972274780273 -0.0299988761544228
vertex 31.3406753540039 -57.0509376525879 -0.169123500585556
endloop
endfacet
facet normal -0.231650978326797 -0.668093621730804 -0.707098841667175
outer loop
vertex 31.2945365905762 -57.1859283447266 -0.0264642909169197
vertex 31.3406753540039 -57.0509376525879 -0.169123500585556
vertex 32.7799415588379 -57.6972274780273 -0.0299988761544228
endloop
endfacet
facet normal -0.231650963425636 -0.668093621730804 -0.707098841667175
outer loop
vertex 31.3406753540039 -57.0509376525879 -0.169123500585556
vertex 31.2945365905762 -57.1859283447266 -0.0264642909169197
vertex 28.1762142181396 -55.9748039245605 -0.149195000529289
endloop
endfacet
facet normal -0.231650978326797 -0.668093621730804 -0.707098782062531
outer loop
vertex 28.1341018676758 -56.0980567932129 -0.0189439058303833
vertex 28.1762142181396 -55.9748039245605 -0.149195000529289
vertex 31.2945365905762 -57.1859283447266 -0.0264642909169197
endloop
endfacet
facet normal -0.231650963425636 -0.668093621730804 -0.707098782062531
outer loop
vertex 28.1341018676758 -56.0980567932129 -0.0189439058303833
vertex 22.7306041717529 -54.2380867004395 -0.00608606077730656
vertex 28.1762142181396 -55.9748039245605 -0.149195000529289
endloop
endfacet
facet normal -0.231650963425636 -0.668093621730804 -0.707098841667175
outer loop
vertex 22.7658443450928 -54.1349029541016 -0.115122653543949
vertex 28.1762142181396 -55.9748039245605 -0.149195000529289
vertex 22.7306041717529 -54.2380867004395 -0.00608606077730656
endloop
endfacet
facet normal -0.231650963425636 -0.668093621730804 -0.707098841667175
outer loop
vertex 22.7658443450928 -54.1349029541016 -0.115122653543949
vertex 22.7306041717529 -54.2380867004395 -0.00608606077730656
vertex 17.204273223877 -52.2435874938965 -0.0800981223583221
endloop
endfacet
facet normal -0.231650978326797 -0.668093681335449 -0.707098841667175
outer loop
vertex 17.176082611084 -52.3261337280273 0.00713115138933063
vertex 17.204273223877 -52.2435874938965 -0.0800981223583221
vertex 22.7306041717529 -54.2380867004395 -0.00608606077730656
endloop
endfacet
facet normal -0.231650978326797 -0.668093681335449 -0.707098841667175
outer loop
vertex 17.176082611084 -52.3261337280273 0.00713115138933063
vertex 11.6215600967407 -50.414176940918 0.0203483644872904
vertex 17.204273223877 -52.2435874938965 -0.0800981223583221
endloop
endfacet
facet normal -0.231650978326797 -0.668093621730804 -0.707098841667175
outer loop
vertex 11.6427040100098 -50.3522682189941 -0.0450735911726952
vertex 17.204273223877 -52.2435874938965 -0.0800981223583221
vertex 11.6215600967407 -50.414176940918 0.0203483644872904
endloop
endfacet
facet normal -0.231650978326797 -0.668093621730804 -0.707098841667175
outer loop
vertex 11.6427040100098 -50.3522682189941 -0.0450735911726952
vertex 11.6215600967407 -50.414176940918 0.0203483644872904
vertex 6.08113431930542 -48.4609489440918 -0.0100490618497133
endloop
endfacet
facet normal -0.231650978326797 -0.668093681335449 -0.707098841667175
outer loop
vertex 6.06703805923462 -48.5022239685059 0.0335655771195889
vertex 6.08113431930542 -48.4609489440918 -0.0100490618497133
vertex 11.6215600967407 -50.414176940918 0.0203483644872904
endloop
endfacet
facet normal -0.231650978326797 -0.668093681335449 -0.707098841667175
outer loop
vertex 6.06703805923462 -48.5022239685059 0.0335655771195889
vertex 0.51251631975174 -46.5902709960938 0.0467827878892422
vertex 6.08113431930542 -48.4609489440918 -0.0100490618497133
endloop
endfacet
facet normal -0.231650978326797 -0.668093681335449 -0.707098841667175
outer loop
vertex 0.51956433057785 -46.5696334838867 0.0249754693359137
vertex 6.08113431930542 -48.4609489440918 -0.0100490618497133
vertex 0.51251631975174 -46.5902709960938 0.0467827878892422
endloop
endfacet
facet normal -0.231650978326797 -0.668093681335449 -0.707098841667175
outer loop
vertex 0.51251631975174 -46.5902709960938 0.0467827878892422
vertex -5.04200553894043 -44.6783142089844 0.0599999986588955
vertex 0.51956433057785 -46.5696334838867 0.0249754693359137
endloop
endfacet
facet normal -0.946944713592529 0.321234434843063 0.0102041652426124
outer loop
vertex -4.9938178062439 -44.5362663269043 0.0900000035762787
vertex -5.04200553894043 -44.6783142089844 0.0900000035762787
vertex -4.98413181304932 -44.5387763977051 1.06791055202484
endloop
endfacet
facet normal -0.946944713592529 0.321234405040741 0.0102041643112898
outer loop
vertex -5.03279066085815 -44.6822166442871 1.06791055202484
vertex -4.98413181304932 -44.5387763977051 1.06791055202484
vertex -5.04200553894043 -44.6783142089844 0.0900000035762787
endloop
endfacet
facet normal -0.946944773197174 0.321234434843063 0.0102041643112898
outer loop
vertex -5.01751470565796 -44.6886825561523 2.68907952308655
vertex -4.96807479858398 -44.5429420471191 2.68907952308655
vertex -5.03279066085815 -44.6822166442871 1.06791055202484
endloop
endfacet
facet normal -0.946944713592529 0.321234434843063 0.0102041643112898
outer loop
vertex -4.98413181304932 -44.5387763977051 1.06791055202484
vertex -5.03279066085815 -44.6822166442871 1.06791055202484
vertex -4.96807479858398 -44.5429420471191 2.68907952308655
endloop
endfacet
facet normal -0.946944653987885 0.321234434843063 0.0102041643112898
outer loop
vertex -5.01751470565796 -44.6886825561523 2.68907952308655
vertex -4.99219036102295 -44.6994018554688 5.37663555145264
vertex -4.96807479858398 -44.5429420471191 2.68907952308655
endloop
endfacet
facet normal -0.946944653987885 0.321234434843063 0.0102041643112898
outer loop
vertex -4.94145488739014 -44.5498428344727 5.37663555145264
vertex -4.96807479858398 -44.5429420471191 2.68907952308655
vertex -4.99219036102295 -44.6994018554688 5.37663555145264
endloop
endfacet
facet normal -0.946944713592529 0.321234434843063 0.0102041652426124
outer loop
vertex -4.95020771026611 -44.717170715332 9.83203506469727
vertex -4.89732551574707 -44.5612831115723 9.83203506469727
vertex -4.99219036102295 -44.6994018554688 5.37663555145264
endloop
endfacet
facet normal -0.946944713592529 0.321234434843063 0.0102041643112898
outer loop
vertex -4.94145488739014 -44.5498428344727 5.37663555145264
vertex -4.99219036102295 -44.6994018554688 5.37663555145264
vertex -4.89732551574707 -44.5612831115723 9.83203506469727
endloop
endfacet
facet normal -0.946944773197174 0.321234434843063 0.0102041652426124
outer loop
vertex -4.95020771026611 -44.717170715332 9.83203506469727
vertex -4.89428901672363 -44.7408409118652 15.7664127349854
vertex -4.89732551574707 -44.5612831115723 9.83203506469727
endloop
endfacet
facet normal -0.946944713592529 0.321234434843063 0.0102041643112898
outer loop
vertex -4.83854722976685 -44.5765228271484 15.7664127349854
vertex -4.89732551574707 -44.5612831115723 9.83203506469727
vertex -4.89428901672363 -44.7408409118652 15.7664127349854
endloop
endfacet
facet normal -0.946944713592529 0.321234434843063 0.0102041652426124
outer loop
vertex -4.77964496612549 -44.5917930603027 21.7132968902588
vertex -4.83854722976685 -44.5765228271484 15.7664127349854
vertex -4.83825254440308 -44.7645606994629 21.7132968902588
endloop
endfacet
facet normal -0.946944773197174 0.321234464645386 0.0102041643112898
outer loop
vertex -4.89428901672363 -44.7408409118652 15.7664127349854
vertex -4.83825254440308 -44.7645606994629 21.7132968902588
vertex -4.83854722976685 -44.5765228271484 15.7664127349854
endloop
endfacet
facet normal -0.946944713592529 0.321234434843063 0.0102041652426124
outer loop
vertex -4.77964496612549 -44.5917930603027 21.7132968902588
vertex -4.83825254440308 -44.7645606994629 21.7132968902588
vertex -4.72074222564697 -44.6070671081543 27.6601829528809
endloop
endfacet
facet normal -0.946944713592529 0.321234434843063 0.0102041643112898
outer loop
vertex -4.78221607208252 -44.7882804870605 27.6601829528809
vertex -4.72074222564697 -44.6070671081543 27.6601829528809
vertex -4.83825254440308 -44.7645606994629 21.7132968902588
endloop
endfacet
facet normal -0.946944773197174 0.321234434843063 0.0102041652426124
outer loop
vertex -4.72074222564697 -44.6070671081543 27.6601829528809
vertex -4.78221607208252 -44.7882804870605 27.6601829528809
vertex -4.66701650619507 -44.6209945678711 33.0844459533691
endloop
endfacet
facet normal -0.946944653987885 0.321234405040741 0.0102041633799672
outer loop
vertex -4.73110437393188 -44.8099136352539 33.0844459533691
vertex -4.66701650619507 -44.6209945678711 33.0844459533691
vertex -4.78221607208252 -44.7882804870605 27.6601829528809
endloop
endfacet
facet normal -0.946944713592529 0.321234464645386 0.0102041652426124
outer loop
vertex -4.63244581222534 -44.6299591064453 36.5747489929199
vertex -4.66701650619507 -44.6209945678711 33.0844459533691
vertex -4.69821548461914 -44.8238372802734 36.5747489929199
endloop
endfacet
facet normal -0.946944713592529 0.321234434843063 0.0102041643112898
outer loop
vertex -4.73110437393188 -44.8099136352539 33.0844459533691
vertex -4.69821548461914 -44.8238372802734 36.5747489929199
vertex -4.66701650619507 -44.6209945678711 33.0844459533691
endloop
endfacet
facet normal -0.946944713592529 0.321234434843063 0.0102041652426124
outer loop
vertex -4.63244581222534 -44.6299591064453 36.5747489929199
vertex -4.69821548461914 -44.8238372802734 36.5747489929199
vertex -4.6109790802002 -44.6355247497559 38.7420883178711
endloop
endfacet
facet normal -0.946944713592529 0.321234405040741 0.0102041633799672
outer loop
vertex -4.67779302597046 -44.8324813842773 38.7420883178711
vertex -4.6109790802002 -44.6355247497559 38.7420883178711
vertex -4.69821548461914 -44.8238372802734 36.5747489929199
endloop
endfacet
facet normal -0.946944713592529 0.321234434843063 0.0102041643112898
outer loop
vertex -4.6109790802002 -44.6355247497559 38.7420883178711
vertex -4.67779302597046 -44.8324813842773 38.7420883178711
vertex -4.59764909744263 -44.6389808654785 40.0879173278809
endloop
endfacet
facet normal -0.946944713592529 0.321234434843063 0.0102041643112898
outer loop
vertex -4.66511154174805 -44.8378486633301 40.0879173278809
vertex -4.59764909744263 -44.6389808654785 40.0879173278809
vertex -4.67779302597046 -44.8324813842773 38.7420883178711
endloop
endfacet
facet normal 0.222159668803215 0.671314060688019 -0.707094371318817
outer loop
vertex 4.1670708656311 -17.776294708252 28.374095916748
vertex 4.36598539352417 -17.8436069488525 28.3726863861084
vertex 3.86420774459839 -18.6609897613525 27.4390125274658
endloop
endfacet
facet normal 0.222159698605537 0.671314120292664 -0.707094430923462
outer loop
vertex 4.05748605728149 -18.7263946533203 27.4376430511475
vertex 3.86420774459839 -18.6609897613525 27.4390125274658
vertex 4.36598539352417 -17.8436069488525 28.3726863861084
endloop
endfacet
facet normal 0.222159683704376 0.671314120292664 -0.707094430923462
outer loop
vertex 3.86420774459839 -18.6609897613525 27.4390125274658
vertex 4.05748605728149 -18.7263946533203 27.4376430511475
vertex 3.39496374130249 -20.0317039489746 25.9902286529541
endloop
endfacet
facet normal 0.222159668803215 0.671314060688019 -0.707094371318817
outer loop
vertex 3.57950854301453 -20.0941543579102 25.988920211792
vertex 3.39496374130249 -20.0317039489746 25.9902286529541
vertex 4.05748605728149 -18.7263946533203 27.4376430511475
endloop
endfacet
facet normal 0.222159698605537 0.671314120292664 -0.707094430923462
outer loop
vertex 3.57950854301453 -20.0941543579102 25.988920211792
vertex 2.83894896507263 -22.2133045196533 23.744327545166
vertex 3.39496374130249 -20.0317039489746 25.9902286529541
endloop
endfacet
facet normal 0.222159668803215 0.671314060688019 -0.707094311714172
outer loop
vertex 2.66793537139893 -22.1554355621338 23.7455406188965
vertex 3.39496374130249 -20.0317039489746 25.9902286529541
vertex 2.83894896507263 -22.2133045196533 23.744327545166
endloop
endfacet
facet normal 0.222159698605537 0.671314120292664 -0.707094430923462
outer loop
vertex 2.66793537139893 -22.1554355621338 23.7455406188965
vertex 2.83894896507263 -22.2133045196533 23.744327545166
vertex 1.54631519317627 -25.431812286377 20.2825565338135
endloop
endfacet
facet normal 0.222159668803215 0.671314060688019 -0.707094371318817
outer loop
vertex 1.69645369052887 -25.4826183319092 20.2814922332764
vertex 1.54631519317627 -25.431812286377 20.2825565338135
vertex 2.83894896507263 -22.2133045196533 23.744327545166
endloop
endfacet
facet normal 0.222159668803215 0.671314060688019 -0.707094371318817
outer loop
vertex 1.54631519317627 -25.431812286377 20.2825565338135
vertex 1.69645369052887 -25.4826183319092 20.2814922332764
vertex 0.240680754184723 -29.2457141876221 16.2514305114746
endloop
endfacet
facet normal 0.222159683704376 0.671314060688019 -0.707094371318817
outer loop
vertex 0.366519331932068 -29.2882976531982 16.2505378723145
vertex 0.240680754184723 -29.2457141876221 16.2514305114746
vertex 1.69645369052887 -25.4826183319092 20.2814922332764
endloop
endfacet
facet normal 0.222159683704376 0.671314060688019 -0.707094371318817
outer loop
vertex 0.366519331932068 -29.2882976531982 16.2505378723145
vertex -0.963415026664734 -33.0939788818359 12.2195854187012
vertex 0.240680754184723 -29.2457141876221 16.2514305114746
endloop
endfacet
facet normal 0.222159668803215 0.671314060688019 -0.707094371318817
outer loop
vertex -1.06495368480682 -33.0596199035645 12.2203044891357
vertex 0.240680754184723 -29.2457141876221 16.2514305114746
vertex -0.963415026664734 -33.0939788818359 12.2195854187012
endloop
endfacet
facet normal 0.222159683704376 0.671314060688019 -0.707094430923462
outer loop
vertex -2.37058806419373 -36.8735198974609 8.18917942047119
vertex -1.06495368480682 -33.0596199035645 12.2203044891357
vertex -2.29334950447083 -36.899658203125 8.18863201141357
endloop
endfacet
facet normal 0.222159668803215 0.671314060688019 -0.707094371318817
outer loop
vertex -0.963415026664734 -33.0939788818359 12.2195854187012
vertex -2.29334950447083 -36.899658203125 8.18863201141357
vertex -1.06495368480682 -33.0596199035645 12.2203044891357
endloop
endfacet
facet normal 0.222159713506699 0.671314120292664 -0.707094430923462
outer loop
vertex -2.37058806419373 -36.8735198974609 8.18917942047119
vertex -2.29334950447083 -36.899658203125 8.18863201141357
vertex -3.45768284797668 -40.0490455627441 4.83279180526733
endloop
endfacet
facet normal 0.222159668803215 0.671314060688019 -0.707094430923462
outer loop
vertex -3.40067672729492 -40.0683364868164 4.83238792419434
vertex -3.45768284797668 -40.0490455627441 4.83279180526733
vertex -2.29334950447083 -36.899658203125 8.18863201141357
endloop
endfacet
facet normal 0.222159683704376 0.671314060688019 -0.707094430923462
outer loop
vertex -3.40067672729492 -40.0683364868164 4.83238792419434
vertex -4.06269264221191 -41.9627304077148 2.82585620880127
vertex -3.45768284797668 -40.0490455627441 4.83279180526733
endloop
endfacet
facet normal 0.222159683704376 0.671314060688019 -0.707094371318817
outer loop
vertex -4.10760307312012 -41.9475326538086 2.82617449760437
vertex -3.45768284797668 -40.0490455627441 4.83279180526733
vertex -4.06269264221191 -41.9627304077148 2.82585620880127
endloop
endfacet
facet normal 0.222159668803215 0.671314060688019 -0.707094430923462
outer loop
vertex -4.10760307312012 -41.9475326538086 2.82617449760437
vertex -4.06269264221191 -41.9627304077148 2.82585620880127
vertex -4.49485492706299 -43.0787391662598 1.630539894104
endloop
endfacet
facet normal 0.222159668803215 0.671314060688019 -0.707094371318817
outer loop
vertex -4.45715188980103 -43.0914993286133 1.63027274608612
vertex -4.49485492706299 -43.0787391662598 1.630539894104
vertex -4.06269264221191 -41.9627304077148 2.82585620880127
endloop
endfacet
facet normal 0.222159683704376 0.671314060688019 -0.707094430923462
outer loop
vertex -4.49485492706299 -43.0787391662598 1.630539894104
vertex -4.45715188980103 -43.0914993286133 1.63027274608612
vertex -4.7255973815918 -43.7527656555176 0.918126046657562
endloop
endfacet
facet normal 0.222159683704376 0.671314060688019 -0.707094371318817
outer loop
vertex -4.69218921661377 -43.7640686035156 0.917889297008514
vertex -4.7255973815918 -43.7527656555176 0.918126046657562
vertex -4.45715188980103 -43.0914993286133 1.63027274608612
endloop
endfacet
facet normal 0.222159683704376 0.671314060688019 -0.707094371318817
outer loop
vertex -4.69218921661377 -43.7640686035156 0.917889297008514
vertex -4.83223485946655 -44.1648178100586 0.493418574333191
vertex -4.7255973815918 -43.7527656555176 0.918126046657562
endloop
endfacet
facet normal 0.222159698605537 0.671314120292664 -0.707094430923462
outer loop
vertex -4.86308431625366 -44.1543807983398 0.493637174367905
vertex -4.7255973815918 -43.7527656555176 0.918126046657562
vertex -4.83223485946655 -44.1648178100586 0.493418574333191
endloop
endfacet
facet normal 0.222159668803215 0.671314060688019 -0.707094371318817
outer loop
vertex -4.86308431625366 -44.1543807983398 0.493637174367905
vertex -4.83223485946655 -44.1648178100586 0.493418574333191
vertex -4.94500541687012 -44.3936805725098 0.240707248449326
endloop
endfacet
facet normal 0.222159668803215 0.671314060688019 -0.707094430923462
outer loop
vertex -4.91568040847778 -44.4036026000977 0.240499436855316
vertex -4.94500541687012 -44.3936805725098 0.240707248449326
vertex -4.83223485946655 -44.1648178100586 0.493418574333191
endloop
endfacet
facet normal 0.222159683704376 0.671314060688019 -0.707094371318817
outer loop
vertex -4.94500541687012 -44.3936805725098 0.240707248449326
vertex -4.91568040847778 -44.4036026000977 0.240499436855316
vertex -4.9938178062439 -44.5362663269043 0.0900000035762787
endloop
endfacet
facet normal 0.222159683704376 0.671314120292664 -0.707094371318817
outer loop
vertex -4.9654016494751 -44.5458831787109 0.0897986367344856
vertex -4.9938178062439 -44.5362663269043 0.0900000035762787
vertex -4.91568040847778 -44.4036026000977 0.240499436855316
endloop
endfacet
facet normal -0.230644434690475 -0.66842794418335 0.707111895084381
outer loop
vertex -3.64845776557922 -40.6063194274902 4.24377775192261
vertex -4.9938178062439 -44.5362663269043 0.0900000035762787
vertex -3.61929249763489 -40.6163482666016 4.24381303787231
endloop
endfacet
facet normal -0.230644434690475 -0.66842794418335 0.707111895084381
outer loop
vertex -2.30309748649597 -36.6763725280762 8.39755535125732
vertex -3.64845776557922 -40.6063194274902 4.24377775192261
vertex -2.24476742744446 -36.6964263916016 8.39762592315674
endloop
endfacet
facet normal -0.230644434690475 -0.66842794418335 0.707111895084381
outer loop
vertex -3.61929249763489 -40.6163482666016 4.24381303787231
vertex -2.24476742744446 -36.6964263916016 8.39762592315674
vertex -3.64845776557922 -40.6063194274902 4.24377775192261
endloop
endfacet
facet normal -0.230644434690475 -0.66842794418335 0.707111895084381
outer loop
vertex -2.30309748649597 -36.6763725280762 8.39755535125732
vertex -2.24476742744446 -36.6964263916016 8.39762592315674
vertex -0.957737505435944 -32.7464294433594 12.5513334274292
endloop
endfacet
facet normal -0.230644449591637 -0.66842794418335 0.707111954689026
outer loop
vertex -0.870242118835449 -32.7765083312988 12.551438331604
vertex -0.957737505435944 -32.7464294433594 12.5513334274292
vertex -2.24476742744446 -36.6964263916016 8.39762592315674
endloop
endfacet
facet normal -0.230644434690475 -0.66842794418335 0.707111895084381
outer loop
vertex 0.387622624635696 -28.8164806365967 16.7051105499268
vertex -0.957737505435944 -32.7464294433594 12.5513334274292
vertex 0.504283130168915 -28.8565864562988 16.7052516937256
endloop
endfacet
facet normal -0.230644449591637 -0.66842794418335 0.707111954689026
outer loop
vertex -0.870242118835449 -32.7765083312988 12.551438331604
vertex 0.504283130168915 -28.8565864562988 16.7052516937256
vertex -0.957737505435944 -32.7464294433594 12.5513334274292
endloop
endfacet
facet normal -0.230644434690475 -0.66842794418335 0.707111895084381
outer loop
vertex 0.387622624635696 -28.8164806365967 16.7051105499268
vertex 0.504283130168915 -28.8565864562988 16.7052516937256
vertex 1.73298275470734 -24.8865356445313 20.8588886260986
endloop
endfacet
facet normal -0.230644434690475 -0.66842794418335 0.707111895084381
outer loop
vertex 1.87880837917328 -24.9366664886475 20.8590641021729
vertex 1.73298275470734 -24.8865356445313 20.8588886260986
vertex 0.504283130168915 -28.8565864562988 16.7052516937256
endloop
endfacet
facet normal -0.230644464492798 -0.668428003787994 0.707111954689026
outer loop
vertex 3.04176568984985 -21.0634346008301 24.8997364044189
vertex 1.73298275470734 -24.8865356445313 20.8588886260986
vertex 3.21596765518188 -21.1233081817627 24.8999576568604
endloop
endfacet
facet normal -0.230644434690475 -0.66842794418335 0.707111895084381
outer loop
vertex 1.87880837917328 -24.9366664886475 20.8590641021729
vertex 3.21596765518188 -21.1233081817627 24.8999576568604
vertex 1.73298275470734 -24.8865356445313 20.8588886260986
endloop
endfacet
facet normal -0.230644449591637 -0.66842794418335 0.707111954689026
outer loop
vertex 3.04176568984985 -21.0634346008301 24.8997364044189
vertex 3.21596765518188 -21.1233081817627 24.8999576568604
vertex 3.80726194381714 -18.827335357666 27.2631931304932
endloop
endfacet
facet normal -0.230644434690475 -0.66842794418335 0.707111895084381
outer loop
vertex 3.99806261062622 -18.8929023742676 27.2634468078613
vertex 3.80726194381714 -18.827335357666 27.2631931304932
vertex 3.21596765518188 -21.1233081817627 24.8999576568604
endloop
endfacet
facet normal -0.230644434690475 -0.66842794418335 0.707111895084381
outer loop
vertex 3.80726194381714 -18.827335357666 27.2631931304932
vertex 3.99806261062622 -18.8929023742676 27.2634468078613
vertex 4.16704750061035 -17.7763614654541 28.3740253448486
endloop
endfacet
facet normal -0.230644449591637 -0.66842794418335 0.707111895084381
outer loop
vertex 4.36564493179321 -17.8446178436279 28.3742809295654
vertex 4.16704750061035 -17.7763614654541 28.3740253448486
vertex 3.99806261062622 -18.8929023742676 27.2634468078613
endloop
endfacet
facet normal -0.325472086668015 -0.945551455020905 -0.000704512116499245
outer loop
vertex -0.752157211303711 -46.1816368103027 35.9176063537598
vertex -4.66511154174805 -44.8378486633301 40.0879173278809
vertex -0.772856175899506 -46.1744956970215 35.8958892822266
endloop
endfacet
facet normal -0.325472086668015 -0.945551455020905 -0.000704512116499245
outer loop
vertex 3.1607973575592 -47.5254211425781 31.7472991943359
vertex -0.752157211303711 -46.1816368103027 35.9176063537598
vertex 3.11939930915833 -47.5111389160156 31.7038631439209
endloop
endfacet
facet normal -0.325472086668015 -0.945551455020905 -0.000704512116499245
outer loop
vertex -0.772856175899506 -46.1744956970215 35.8958892822266
vertex 3.11939930915833 -47.5111389160156 31.7038631439209
vertex -0.752157211303711 -46.1816368103027 35.9176063537598
endloop
endfacet
facet normal -0.325472086668015 -0.945551455020905 -0.000704512116499245
outer loop
vertex 3.1607973575592 -47.5254211425781 31.7472991943359
vertex 3.11939930915833 -47.5111389160156 31.7038631439209
vertex 7.07375192642212 -48.8692092895508 27.5769901275635
endloop
endfacet
facet normal -0.325472056865692 -0.94555139541626 -0.000704512116499245
outer loop
vertex 7.0116548538208 -48.847785949707 27.5118350982666
vertex 7.07375192642212 -48.8692092895508 27.5769901275635
vertex 3.11939930915833 -47.5111389160156 31.7038631439209
endloop
endfacet
facet normal -0.325472056865692 -0.94555139541626 -0.000704512116499245
outer loop
vertex 7.0116548538208 -48.847785949707 27.5118350982666
vertex 10.9039106369019 -50.1844329833984 23.3198089599609
vertex 7.07375192642212 -48.8692092895508 27.5769901275635
endloop
endfacet
facet normal -0.325472086668015 -0.945551455020905 -0.000704512116499245
outer loop
vertex 10.9867057800293 -50.2129974365234 23.4066791534424
vertex 7.07375192642212 -48.8692092895508 27.5769901275635
vertex 10.9039106369019 -50.1844329833984 23.3198089599609
endloop
endfacet
facet normal -0.325472086668015 -0.945551455020905 -0.000704512116499245
outer loop
vertex 10.9867057800293 -50.2129974365234 23.4066791534424
vertex 10.9039106369019 -50.1844329833984 23.3198089599609
vertex 14.8996610641479 -51.5567817687988 19.2363700866699
endloop
endfacet
facet normal -0.325472056865692 -0.94555139541626 -0.000704512116499245
outer loop
vertex 14.7961664199829 -51.5210762023926 19.1277809143066
vertex 14.8996610641479 -51.5567817687988 19.2363700866699
vertex 10.9039106369019 -50.1844329833984 23.3198089599609
endloop
endfacet
facet normal -0.325472056865692 -0.945551335811615 -0.000704512058291584
outer loop
vertex 18.7062244415283 -52.8640327453613 15.1794490814209
vertex 14.8996610641479 -51.5567817687988 19.2363700866699
vertex 18.5826053619385 -52.8213844299316 15.0497198104858
endloop
endfacet
facet normal -0.325472056865692 -0.94555139541626 -0.000704512116499245
outer loop
vertex 14.7961664199829 -51.5210762023926 19.1277809143066
vertex 18.5826053619385 -52.8213844299316 15.0497198104858
vertex 14.8996610641479 -51.5567817687988 19.2363700866699
endloop
endfacet
facet normal -0.325472056865692 -0.94555139541626 -0.000704512174706906
outer loop
vertex 18.7062244415283 -52.8640327453613 15.1794490814209
vertex 18.5826053619385 -52.8213844299316 15.0497198104858
vertex 20.9326343536377 -53.6286277770996 12.8066091537476
endloop
endfacet
facet normal -0.325472056865692 -0.94555139541626 -0.000704512116499245
outer loop
vertex 20.797248840332 -53.581916809082 12.6645097732544
vertex 20.9326343536377 -53.6286277770996 12.8066091537476
vertex 18.5826053619385 -52.8213844299316 15.0497198104858
endloop
endfacet
facet normal -0.325472086668015 -0.94555139541626 -0.000704512174706906
outer loop
vertex 20.9326343536377 -53.6286277770996 12.8066091537476
vertex 20.797248840332 -53.581916809082 12.6645097732544
vertex 21.9790477752686 -53.9879837036133 11.6913719177246
endloop
endfacet
facet normal -0.325472086668015 -0.945551455020905 -0.000704512174706906
outer loop
vertex 21.8381195068359 -53.9393653869629 11.5434741973877
vertex 21.9790477752686 -53.9879837036133 11.6913719177246
vertex 20.797248840332 -53.581916809082 12.6645097732544
endloop
endfacet
facet normal -1 0 0
outer loop
vertex -0.238490000367165 -41 -0.0299999993294477
vertex -0.238490000367165 -41 0.180000007152557
vertex -0.238490000367165 -40 -0.0299999993294477
endloop
endfacet
facet normal -1 -0 -0
outer loop
vertex -0.238490000367165 -40 0.180000007152557
vertex -0.238490000367165 -40 -0.0299999993294477
vertex -0.238490000367165 -41 0.180000007152557
endloop
endfacet
facet normal -0.70710676908493 0 -0.70710676908493
outer loop
vertex -0.238490000367165 -41 -0.0299999993294477
vertex -0.238490000367165 -40 -0.0299999993294477
vertex -0.0900000035762787 -41 -0.178489997982979
endloop
endfacet
facet normal -0.70710676908493 -0 -0.70710676908493
outer loop
vertex -0.0900000035762787 -40 -0.178489997982979
vertex -0.0900000035762787 -41 -0.178489997982979
vertex -0.238490000367165 -40 -0.0299999993294477
endloop
endfacet
facet normal -0.70710676908493 0 0.70710676908493
outer loop
vertex -0.238490000367165 -40 0.180000007152557
vertex -0.238490000367165 -41 0.180000007152557
vertex -0.0900000035762787 -40 0.328489989042282
endloop
endfacet
facet normal -0.70710676908493 0 0.70710676908493
outer loop
vertex -0.0900000035762787 -41 0.328489989042282
vertex -0.0900000035762787 -40 0.328489989042282
vertex -0.238490000367165 -41 0.180000007152557
endloop
endfacet
facet normal 0 0 -1
outer loop
vertex -0.0900000035762787 -40 -0.178489997982979
vertex 0.119999997317791 -40 -0.178489997982979
vertex -0.0900000035762787 -41 -0.178489997982979
endloop
endfacet
facet normal 0 0 -1
outer loop
vertex 0.119999997317791 -41 -0.178489997982979
vertex -0.0900000035762787 -41 -0.178489997982979
vertex 0.119999997317791 -40 -0.178489997982979
endloop
endfacet
facet normal -0 0 1
outer loop
vertex -0.0900000035762787 -40 0.328489989042282
vertex -0.0900000035762787 -41 0.328489989042282
vertex 0.119999997317791 -40 0.328489989042282
endloop
endfacet
facet normal 0 -0 1
outer loop
vertex 0.119999997317791 -41 0.328489989042282
vertex 0.119999997317791 -40 0.328489989042282
vertex -0.0900000035762787 -41 0.328489989042282
endloop
endfacet
facet normal 0.70710676908493 0 -0.70710676908493
outer loop
vertex 0.119999997317791 -41 -0.178489997982979
vertex 0.119999997317791 -40 -0.178489997982979
vertex 0.268489986658096 -41 -0.0299999993294477
endloop
endfacet
facet normal 0.70710676908493 0 -0.70710676908493
outer loop
vertex 0.268489986658096 -40 -0.0299999993294477
vertex 0.268489986658096 -41 -0.0299999993294477
vertex 0.119999997317791 -40 -0.178489997982979
endloop
endfacet
facet normal 0.70710676908493 -0 0.70710676908493
outer loop
vertex 0.268489986658096 -41 0.180000007152557
vertex 0.268489986658096 -40 0.180000007152557
vertex 0.119999997317791 -41 0.328489989042282
endloop
endfacet
facet normal 0.70710676908493 0 0.70710676908493
outer loop
vertex 0.119999997317791 -40 0.328489989042282
vertex 0.119999997317791 -41 0.328489989042282
vertex 0.268489986658096 -40 0.180000007152557
endloop
endfacet
facet normal 1 -0 0
outer loop
vertex 0.268489986658096 -41 0.180000007152557
vertex 0.268489986658096 -41 -0.0299999993294477
vertex 0.268489986658096 -40 0.180000007152557
endloop
endfacet
facet normal 1 0 -0
outer loop
vertex 0.268489986658096 -40 -0.0299999993294477
vertex 0.268489986658096 -40 0.180000007152557
vertex 0.268489986658096 -41 -0.0299999993294477
endloop
endfacet
facet normal -0 0.00446220533922315 0.999990046024323
outer loop
vertex -0.0900000035762787 -39.9996032714844 0.328488230705261
vertex 0.119999997317791 -39.9996032714844 0.328488230705261
vertex -0.087024562060833 -38.6771965026855 0.322587311267853
endloop
endfacet
facet normal -1.55383548727481e-16 0.00446220533922315 0.999990046024323
outer loop
vertex 0.117024563252926 -38.6771965026855 0.322587311267853
vertex -0.087024562060833 -38.6771965026855 0.322587311267853
vertex 0.119999997317791 -39.9996032714844 0.328488230705261
endloop
endfacet
facet normal -1.55383548727481e-16 0.00446220533922315 0.999990046024323
outer loop
vertex -0.087024562060833 -38.6771965026855 0.322587311267853
vertex 0.117024563252926 -38.6771965026855 0.322587311267853
vertex -0.0824145302176476 -36.6283149719238 0.313444703817368
endloop
endfacet
facet normal 2.44365193634603e-16 0.00446220533922315 0.999989986419678
outer loop
vertex 0.11241453140974 -36.6283149719238 0.313444703817368
vertex -0.0824145302176476 -36.6283149719238 0.313444703817368
vertex 0.117024563252926 -38.6771965026855 0.322587311267853
endloop
endfacet
facet normal 2.44365193634603e-16 0.00446220580488443 0.999990046024323
outer loop
vertex 0.11241453140974 -36.6283149719238 0.313444703817368
vertex 0.105271935462952 -33.453857421875 0.299279481172562
vertex -0.0824145302176476 -36.6283149719238 0.313444703817368
endloop
endfacet
facet normal -1.75613157197417e-16 0.00446220580488443 0.999990046024323
outer loop
vertex -0.0752719342708588 -33.453857421875 0.299279481172562
vertex -0.0824145302176476 -36.6283149719238 0.313444703817368
vertex 0.105271935462952 -33.453857421875 0.299279481172562
endloop
endfacet
facet normal -1.75613157197417e-16 0.00446220580488443 0.999990105628967
outer loop
vertex -0.0752719342708588 -33.453857421875 0.299279481172562
vertex 0.105271935462952 -33.453857421875 0.299279481172562
vertex -0.0642527192831039 -28.5564785003662 0.277426153421402
endloop
endfacet
facet normal -4.00060437251784e-16 0.00446220533922315 0.999990046024323
outer loop
vertex 0.0942527130246162 -28.5564785003662 0.277426153421402
vertex -0.0642527192831039 -28.5564785003662 0.277426153421402
vertex 0.105271935462952 -33.453857421875 0.299279481172562
endloop
endfacet
facet normal -4.00060437251784e-16 0.00446220533922315 0.999990046024323
outer loop
vertex 0.0942527130246162 -28.5564785003662 0.277426153421402
vertex 0.0814256742596626 -22.8556270599365 0.251987516880035
vertex -0.0642527192831039 -28.5564785003662 0.277426153421402
endloop
endfacet
facet normal 4.77694659697226e-16 0.00446220533922315 0.999989986419678
outer loop
vertex -0.0514256730675697 -22.8556270599365 0.251987516880035
vertex -0.0642527192831039 -28.5564785003662 0.277426153421402
vertex 0.0814256742596626 -22.8556270599365 0.251987516880035
endloop
endfacet
facet normal 4.77694659697226e-16 0.00446220533922315 0.999989986419678
outer loop
vertex -0.0514256730675697 -22.8556270599365 0.251987516880035
vertex 0.0814256742596626 -22.8556270599365 0.251987516880035
vertex -0.0385986343026161 -17.1547775268555 0.226548910140991
endloop
endfacet
facet normal -2.21592342270757e-16 0.00446220533922315 0.999990046024323
outer loop
vertex 0.068598635494709 -17.1547775268555 0.226548910140991
vertex -0.0385986343026161 -17.1547775268555 0.226548910140991
vertex 0.0814256742596626 -22.8556270599365 0.251987516880035
endloop
endfacet
facet normal -2.21592342270757e-16 0.00446220533922315 0.999990046024323
outer loop
vertex 0.068598635494709 -17.1547775268555 0.226548910140991
vertex 0.0557715892791748 -11.4539260864258 0.201110288500786
vertex -0.0385986343026161 -17.1547775268555 0.226548910140991
endloop
endfacet
facet normal -2.42548863828114e-16 0.00446220580488443 0.999990046024323
outer loop
vertex -0.0257715899497271 -11.4539260864258 0.201110288500786
vertex -0.0385986343026161 -17.1547775268555 0.226548910140991
vertex 0.0557715892791748 -11.4539260864258 0.201110288500786
endloop
endfacet
facet normal -2.42548837358335e-16 0.00446220580488443 0.999990046024323
outer loop
vertex -0.0257715899497271 -11.4539260864258 0.201110288500786
vertex 0.0557715892791748 -11.4539260864258 0.201110288500786
vertex -0.0150915645062923 -6.70729494094849 0.179929628968239
endloop
endfacet
facet normal -3.94486589881936e-16 0.00446220580488443 0.999990105628967
outer loop
vertex 0.0450915656983852 -6.70729494094849 0.179929628968239
vertex -0.0150915645062923 -6.70729494094849 0.179929628968239
vertex 0.0557715892791748 -11.4539260864258 0.201110288500786
endloop
endfacet
facet normal -3.94486616351716e-16 0.00446220580488443 0.999990046024323
outer loop
vertex 0.0450915656983852 -6.70729494094849 0.179929628968239
vertex 0.0387065075337887 -3.86952042579651 0.167266771197319
vertex -0.0150915645062923 -6.70729494094849 0.179929628968239
endloop
endfacet
facet normal 8.43904086956482e-17 0.00446220533922315 0.999990046024323
outer loop
vertex -0.00870650727301836 -3.86952042579651 0.167266771197319
vertex -0.0150915645062923 -6.70729494094849 0.179929628968239
vertex 0.0387065075337887 -3.86952042579651 0.167266771197319
endloop
endfacet
facet normal 8.43904153130931e-17 0.00446220580488443 0.999990046024323
outer loop
vertex -0.00870650727301836 -3.86952042579651 0.167266771197319
vertex 0.0387065075337887 -3.86952042579651 0.167266771197319
vertex -0.00490199821069837 -2.17864418029785 0.159721657633781
endloop
endfacet
facet normal 5.98048459441846e-16 0.00446220533922315 0.999990046024323
outer loop
vertex 0.03490199893713 -2.17864418029785 0.159721657633781
vertex -0.00490199821069837 -2.17864418029785 0.159721657633781
vertex 0.0387065075337887 -3.86952042579651 0.167266771197319
endloop
endfacet
facet normal 5.98048512381405e-16 0.00446220580488443 0.999990046024323
outer loop
vertex 0.03490199893713 -2.17864418029785 0.159721657633781
vertex 0.0326350964605808 -1.171142578125 0.155225932598114
vertex -0.00490199821069837 -2.17864418029785 0.159721657633781
endloop
endfacet
facet normal -1.37686454949784e-15 0.00446220580488443 0.999990046024323
outer loop
vertex -0.00263509713113308 -1.171142578125 0.155225932598114
vertex -0.00490199821069837 -2.17864418029785 0.159721657633781
vertex 0.0326350964605808 -1.171142578125 0.155225932598114
endloop
endfacet
facet normal -1.37686454949784e-15 0.00446220533922315 0.999990046024323
outer loop
vertex -0.00263509713113308 -1.171142578125 0.155225932598114
vertex 0.0326350964605808 -1.171142578125 0.155225932598114
vertex -0.0012843735748902 -0.570827007293701 0.152547165751457
endloop
endfacet
facet normal 6.24040988917324e-16 0.00446220487356186 0.999989986419678
outer loop
vertex 0.0312843732535839 -0.570827007293701 0.152547165751457
vertex -0.0012843735748902 -0.570827007293701 0.152547165751457
vertex 0.0326350964605808 -1.171142578125 0.155225932598114
endloop
endfacet
facet normal 6.24040988917324e-16 0.00446220533922315 0.999989986419678
outer loop
vertex 0.0312843732535839 -0.570827007293701 0.152547165751457
vertex 0.0304795503616333 -0.213131427764893 0.150951042771339
vertex -0.0012843735748902 -0.570827007293701 0.152547165751457
endloop
endfacet
facet normal 1.50499575282459e-15 0.00446220487356186 0.999989986419678
outer loop
vertex -0.000479550479212776 -0.213131427764893 0.150951042771339
vertex -0.0012843735748902 -0.570827007293701 0.152547165751457
vertex 0.0304795503616333 -0.213131427764893 0.150951042771339
endloop
endfacet
facet normal 1.50499596458282e-15 0.00446220580488443 0.999990046024323
outer loop
vertex -0.000479550479212776 -0.213131427764893 0.150951042771339
vertex 0.0304795503616333 -0.213131427764893 0.150951042771339
vertex 0 0 0.150000005960464
endloop
endfacet
facet normal 0 0.00446220580488443 0.999990046024323
outer loop
vertex 0.0299999993294477 0 0.150000005960464
vertex 0 0 0.150000005960464
vertex 0.0304795503616333 -0.213131427764893 0.150951042771339
endloop
endfacet
facet normal -0.999982178211212 -0.00596214411780238 0
outer loop
vertex 0.268485754728317 -39.9992904663086 -0.0299999993294477
vertex 0.268485754728317 -39.9992904663086 0.180000007152557
vertex 0.260461300611496 -38.6534118652344 -0.028990576043725
endloop
endfacet
facet normal -0.999982237815857 -0.00596214365214109 6.32104557286728e-17
outer loop
vertex 0.260461300611496 -38.6534118652344 0.178990572690964
vertex 0.260461300611496 -38.6534118652344 -0.028990576043725
vertex 0.268485754728317 -39.9992904663086 0.180000007152557
endloop
endfacet
facet normal -0.999982237815857 -0.00596214365214109 6.32104557286728e-17
outer loop
vertex 0.260461300611496 -38.6534118652344 0.178990572690964
vertex 0.247538655996323 -36.4860000610352 0.177364990115166
vertex 0.260461300611496 -38.6534118652344 -0.028990576043725
endloop
endfacet
facet normal -0.999982178211212 -0.00596214365214109 1.35569211394827e-16
outer loop
vertex 0.247538655996323 -36.4860000610352 -0.0273649860173464
vertex 0.260461300611496 -38.6534118652344 -0.028990576043725
vertex 0.247538655996323 -36.4860000610352 0.177364990115166
endloop
endfacet
facet normal -0.999982237815857 -0.00596214411780238 1.35569224629717e-16
outer loop
vertex 0.247538655996323 -36.4860000610352 0.177364990115166
vertex 0.226727873086929 -32.9955749511719 0.174747124314308
vertex 0.247538655996323 -36.4860000610352 -0.0273649860173464
endloop
endfacet
facet normal -0.999982178211212 -0.00596214365214109 0
outer loop
vertex 0.226727873086929 -32.9955749511719 -0.024747122079134
vertex 0.247538655996323 -36.4860000610352 -0.0273649860173464
vertex 0.226727873086929 -32.9955749511719 0.174747124314308
endloop
endfacet
facet normal -0.999982237815857 -0.00596214411780238 0
outer loop
vertex 0.226727873086929 -32.9955749511719 -0.024747122079134
vertex 0.226727873086929 -32.9955749511719 0.174747124314308
vertex 0.194385960698128 -27.5711288452148 -0.0206787139177322
endloop
endfacet
facet normal -0.999982297420502 -0.00596214411780238 6.87017173861632e-17
outer loop
vertex 0.194385960698128 -27.5711288452148 0.170678719878197
vertex 0.194385960698128 -27.5711288452148 -0.0206787139177322
vertex 0.226727873086929 -32.9955749511719 0.174747124314308
endloop
endfacet
facet normal -0.999982297420502 -0.00596214411780238 6.87017173861632e-17
outer loop
vertex 0.194385960698128 -27.5711288452148 -0.0206787139177322
vertex 0.194385960698128 -27.5711288452148 0.170678719878197
vertex 0.15892793238163 -21.6240386962891 -0.0162183176726103
endloop
endfacet
facet normal -0.999982178211212 -0.00596214411780238 -1.96179289210319e-16
outer loop
vertex 0.15892793238163 -21.6240386962891 0.166218310594559
vertex 0.15892793238163 -21.6240386962891 -0.0162183176726103
vertex 0.194385960698128 -27.5711288452148 0.170678719878197
endloop
endfacet
facet normal -0.999982178211212 -0.00596214411780238 -1.96179289210319e-16
outer loop
vertex 0.15892793238163 -21.6240386962891 0.166218310594559
vertex 0.123469896614552 -15.6769504547119 0.161757916212082
vertex 0.15892793238163 -21.6240386962891 -0.0162183176726103
endloop
endfacet
facet normal -0.999982237815857 -0.00596214411780238 -4.63082077425113e-17
outer loop
vertex 0.123469896614552 -15.6769504547119 -0.0117579214274883
vertex 0.15892793238163 -21.6240386962891 -0.0162183176726103
vertex 0.123469896614552 -15.6769504547119 0.161757916212082
endloop
endfacet
facet normal -0.999982297420502 -0.00596214458346367 -4.63082110512338e-17
outer loop
vertex 0.123469896614552 -15.6769504547119 -0.0117579214274883
vertex 0.123469896614552 -15.6769504547119 0.161757916212082
vertex 0.0880864411592484 -9.74236965179443 -0.00730690686032176
endloop
endfacet
facet normal -0.999982237815857 -0.00596214411780238 7.98631830286965e-17
outer loop
vertex 0.0880864411592484 -9.74236965179443 0.157306909561157
vertex 0.0880864411592484 -9.74236965179443 -0.00730690686032176
vertex 0.123469896614552 -15.6769504547119 0.161757916212082
endloop
endfacet
facet normal -0.999982178211212 -0.00596214365214109 7.98631764112516e-17
outer loop
vertex 0.0880864411592484 -9.74236965179443 -0.00730690686032176
vertex 0.0880864411592484 -9.74236965179443 0.157306909561157
vertex 0.0615213215351105 -5.28681659698486 -0.00396518316119909
endloop
endfacet
facet normal -0.999982237815857 -0.00596214365214109 -2.31417776393577e-18
outer loop
vertex 0.0615213215351105 -5.28681659698486 0.153965190052986
vertex 0.0615213215351105 -5.28681659698486 -0.00396518316119909
vertex 0.0880864411592484 -9.74236965179443 0.157306909561157
endloop
endfacet
facet normal -0.999982237815857 -0.00596214458346367 -2.31417755714062e-18
outer loop
vertex 0.0615213215351105 -5.28681659698486 0.153965190052986
vertex 0.0454968921840191 -2.59916877746582 0.151949405670166
vertex 0.0615213215351105 -5.28681659698486 -0.00396518316119909
endloop
endfacet
facet normal -0.999982178211212 -0.00596214365214109 -1.00851084509772e-16
outer loop
vertex 0.0454968921840191 -2.59916877746582 -0.00194941111840308
vertex 0.0615213215351105 -5.28681659698486 -0.00396518316119909
vertex 0.0454968921840191 -2.59916877746582 0.151949405670166
endloop
endfacet
facet normal -0.999982178211212 -0.00596214365214109 -1.00851084509772e-16
outer loop
vertex 0.0454968921840191 -2.59916877746582 -0.00194941111840308
vertex 0.0454968921840191 -2.59916877746582 0.151949405670166
vertex 0.0358307473361492 -0.977944016456604 -0.000733471068087965
endloop
endfacet
facet normal -0.999982237815857 -0.00596214411780238 -2.1850672366664e-17
outer loop
vertex 0.0358307473361492 -0.977944016456604 0.150733470916748
vertex 0.0358307473361492 -0.977944016456604 -0.000733471068087965
vertex 0.0454968921840191 -2.59916877746582 0.151949405670166
endloop
endfacet
facet normal -0.999982178211212 -0.00596214365214109 -2.1850672366664e-17
outer loop
vertex 0.0358307473361492 -0.977944016456604 -0.000733471068087965
vertex 0.0358307473361492 -0.977944016456604 0.150733470916748
vertex 0.0299999993294477 0 0
endloop
endfacet
facet normal -0.999982237815857 -0.00596214411780238 -0
outer loop
vertex 0.0299999993294477 0 0.150000005960464
vertex 0.0299999993294477 0 0
vertex 0.0358307473361492 -0.977944016456604 0.150733470916748
endloop
endfacet
facet normal 0.707098782062531 0.00474622379988432 0.707098782062531
outer loop
vertex 0.268489807844162 -39.999828338623 0.179999053478241
vertex 0.259123504161835 -38.4289016723633 0.178820893168449
vertex 0.119998879730701 -39.9995002746582 0.328487783670425
endloop
endfacet
facet normal 0.707098841667175 0.00474622379988432 0.707098841667175
outer loop
vertex 0.116464287042618 -38.4285736083984 0.321477890014648
vertex 0.119998879730701 -39.9995002746582 0.328487783670425
vertex 0.259123504161835 -38.4289016723633 0.178820893168449
endloop
endfacet
facet normal 0.707098841667175 0.00474622379988432 0.707098841667175
outer loop
vertex 0.259123504161835 -38.4289016723633 0.178820893168449
vertex 0.239195004105568 -35.0864677429199 0.176314130425453
vertex 0.116464287042618 -38.4285736083984 0.321477890014648
endloop
endfacet
facet normal 0.707098782062531 0.00474622426554561 0.707098782062531
outer loop
vertex 0.108943909406662 -35.086181640625 0.306563317775726
vertex 0.116464287042618 -38.4285736083984 0.321477890014648
vertex 0.239195004105568 -35.0864677429199 0.176314130425453
endloop
endfacet
facet normal 0.707098782062531 0.00474622379988432 0.707098782062531
outer loop
vertex 0.108943909406662 -35.086181640625 0.306563317775726
vertex 0.239195004105568 -35.0864677429199 0.176314130425453
vertex 0.0960860624909401 -29.37158203125 0.281063348054886
endloop
endfacet
facet normal 0.707098841667175 0.00474622379988432 0.707098841667175
outer loop
vertex 0.205122649669647 -29.3718070983887 0.172028258442879
vertex 0.0960860624909401 -29.37158203125 0.281063348054886
vertex 0.239195004105568 -35.0864677429199 0.176314130425453
endloop
endfacet
facet normal 0.707098841667175 0.00474622426554561 0.707098841667175
outer loop
vertex 0.205122649669647 -29.3718070983887 0.172028258442879
vertex 0.170098125934601 -23.4974460601807 0.167622610926628
vertex 0.0960860624909401 -29.37158203125 0.281063348054886
endloop
endfacet
facet normal 0.707098841667175 0.00474622426554561 0.707098841667175
outer loop
vertex 0.0828688517212868 -23.4972667694092 0.254850685596466
vertex 0.0960860624909401 -29.37158203125 0.281063348054886
vertex 0.170098125934601 -23.4974460601807 0.167622610926628
endloop
endfacet
facet normal 0.707098841667175 0.00474622426554561 0.707098841667175
outer loop
vertex 0.0828688517212868 -23.4972667694092 0.254850685596466
vertex 0.170098125934601 -23.4974460601807 0.167622610926628
vertex 0.0696516335010529 -17.6229496002197 0.228638008236885
endloop
endfacet
facet normal 0.707098782062531 0.00474622333422303 0.707098782062531
outer loop
vertex 0.135073587298393 -17.6230850219727 0.163216948509216
vertex 0.0696516335010529 -17.6229496002197 0.228638008236885
vertex 0.170098125934601 -23.4974460601807 0.167622610926628
endloop
endfacet
facet normal 0.707098782062531 0.00474622333422303 0.707098782062531
outer loop
vertex 0.135073587298393 -17.6230850219727 0.163216948509216
vertex 0.100049063563347 -11.7487230300903 0.158811300992966
vertex 0.0696516335010529 -17.6229496002197 0.228638008236885
endloop
endfacet
facet normal 0.707098841667175 0.00474622426554561 0.707098841667175
outer loop
vertex 0.0564344227313995 -11.7486333847046 0.202425330877304
vertex 0.0696516335010529 -17.6229496002197 0.228638008236885
vertex 0.100049063563347 -11.7487230300903 0.158811300992966
endloop
endfacet
facet normal 0.707098841667175 0.00474622426554561 0.707098841667175
outer loop
vertex 0.0564344227313995 -11.7486333847046 0.202425330877304
vertex 0.100049063563347 -11.7487230300903 0.158811300992966
vertex 0.0432172119617462 -5.87431669235229 0.176212668418884
endloop
endfacet
facet normal 0.707098841667175 0.00474622426554561 0.707098841667175
outer loop
vertex 0.0650245323777199 -5.87436151504517 0.154405653476715
vertex 0.0432172119617462 -5.87431669235229 0.176212668418884
vertex 0.100049063563347 -11.7487230300903 0.158811300992966
endloop
endfacet
facet normal 0.707098841667175 0.00474622426554561 0.707098841667175
outer loop
vertex 0.0432172119617462 -5.87431669235229 0.176212668418884
vertex 0.0650245323777199 -5.87436151504517 0.154405653476715
vertex 0.0299999993294477 0 0.150000005960464
endloop
endfacet
facet normal 0.707100450992584 0.00421590963378549 -0.707100450992584
outer loop
vertex 0.358485490083694 -79.9994659423828 -0.178491324186325
vertex 0.354950904846191 -78.4285202026367 -0.172659561038017
vertex 0.506971538066864 -79.9985809326172 -0.0299999993294477
endloop
endfacet
facet normal 0.707100510597229 0.00421590963378549 -0.707100510597229
outer loop
vertex 0.497605323791504 -78.4276580810547 -0.0299999993294477
vertex 0.506971538066864 -79.9985809326172 -0.0299999993294477
vertex 0.354950904846191 -78.4285202026367 -0.172659561038017
endloop
endfacet
facet normal 0.707100510597229 0.00421591009944677 -0.707100510597229
outer loop
vertex 0.354950904846191 -78.4285202026367 -0.172659561038017
vertex 0.347430408000946 -75.0860595703125 -0.160251453518867
vertex 0.497605323791504 -78.4276580810547 -0.0299999993294477
endloop
endfacet
facet normal 0.707100510597229 0.00421591009944677 -0.707100510597229
outer loop
vertex 0.477677226066589 -75.0852813720703 -0.0299999993294477
vertex 0.497605323791504 -78.4276580810547 -0.0299999993294477
vertex 0.347430408000946 -75.0860595703125 -0.160251453518867
endloop
endfacet
facet normal 0.707100510597229 0.00421591009944677 -0.707100510597229
outer loop
vertex 0.477677226066589 -75.0852813720703 -0.0299999993294477
vertex 0.347430408000946 -75.0860595703125 -0.160251453518867
vertex 0.443605542182922 -69.370719909668 -0.0299999993294477
endloop
endfacet
facet normal 0.707100450992584 0.00421590963378549 -0.707100450992584
outer loop
vertex 0.334572404623032 -69.3713531494141 -0.139036923646927
vertex 0.443605542182922 -69.370719909668 -0.0299999993294477
vertex 0.347430408000946 -75.0860595703125 -0.160251453518867
endloop
endfacet
facet normal 0.707100450992584 0.00421590963378549 -0.707100450992584
outer loop
vertex 0.334572404623032 -69.3713531494141 -0.139036923646927
vertex 0.321355074644089 -63.4969367980957 -0.117229536175728
vertex 0.443605542182922 -69.370719909668 -0.0299999993294477
endloop
endfacet
facet normal 0.707100450992584 0.00421590963378549 -0.707100450992584
outer loop
vertex 0.408581584692001 -63.4964294433594 -0.0299999993294477
vertex 0.443605542182922 -69.370719909668 -0.0299999993294477
vertex 0.321355074644089 -63.4969367980957 -0.117229536175728
endloop
endfacet
facet normal 0.707100450992584 0.00421590963378549 -0.707100450992584
outer loop
vertex 0.408581584692001 -63.4964294433594 -0.0299999993294477
vertex 0.321355074644089 -63.4969367980957 -0.117229536175728
vertex 0.37355762720108 -57.6221466064453 -0.0299999993294477
endloop
endfacet
facet normal 0.707100450992584 0.00421591009944677 -0.707100450992584
outer loop
vertex 0.308137744665146 -57.6225242614746 -0.0954221561551094
vertex 0.37355762720108 -57.6221466064453 -0.0299999993294477
vertex 0.321355074644089 -63.4969367980957 -0.117229536175728
endloop
endfacet
facet normal 0.707100450992584 0.00421591009944677 -0.707100450992584
outer loop
vertex 0.308137744665146 -57.6225242614746 -0.0954221561551094
vertex 0.294920414686203 -51.7481117248535 -0.0736147686839104
vertex 0.37355762720108 -57.6221466064453 -0.0299999993294477
endloop
endfacet
facet normal 0.707100450992584 0.00421590963378549 -0.707100450992584
outer loop
vertex 0.338533669710159 -51.747859954834 -0.0299999993294477
vertex 0.37355762720108 -57.6221466064453 -0.0299999993294477
vertex 0.294920414686203 -51.7481117248535 -0.0736147686839104
endloop
endfacet
facet normal 0.707100450992584 0.00421590963378549 -0.707100450992584
outer loop
vertex 0.338533669710159 -51.747859954834 -0.0299999993294477
vertex 0.294920414686203 -51.7481117248535 -0.0736147686839104
vertex 0.303509712219238 -45.8735733032227 -0.0299999993294477
endloop
endfacet
facet normal 0.707100450992584 0.00421590963378549 -0.707100450992584
outer loop
vertex 0.28170308470726 -45.8737030029297 -0.0518073849380016
vertex 0.303509712219238 -45.8735733032227 -0.0299999993294477
vertex 0.294920414686203 -51.7481117248535 -0.0736147686839104
endloop
endfacet
facet normal 0.707100450992584 0.00421590963378549 -0.707100450992584
outer loop
vertex 0.303509712219238 -45.8735733032227 -0.0299999993294477
vertex 0.28170308470726 -45.8737030029297 -0.0518073849380016
vertex 0.268485754728317 -39.9992904663086 -0.0299999993294477
endloop
endfacet
facet normal 0.223164409399033 0.670974314212799 -0.707100450992584
outer loop
vertex 70.8225402832031 -70.0671539306641 -0.268485486507416
vertex 70.7739944458008 -70.2074966430664 -0.416971534490585
vertex 69.3329925537109 -69.5680160522461 -0.264950901269913
endloop
endfacet
facet normal 0.223164424300194 0.670974373817444 -0.707100510597229
outer loop
vertex 69.2863464355469 -69.7028350830078 -0.407605320215225
vertex 69.3329925537109 -69.5680160522461 -0.264950901269913
vertex 70.7739944458008 -70.2074966430664 -0.416971534490585
endloop
endfacet
facet normal 0.223164409399033 0.670974314212799 -0.707100510597229
outer loop
vertex 69.3329925537109 -69.5680160522461 -0.264950901269913
vertex 69.2863464355469 -69.7028350830078 -0.407605320215225
vertex 66.1637115478516 -68.505989074707 -0.257430404424667
endloop
endfacet
facet normal 0.223164424300194 0.670974314212799 -0.707100510597229
outer loop
vertex 66.1211318969727 -68.6290893554688 -0.387677222490311
vertex 66.1637115478516 -68.505989074707 -0.257430404424667
vertex 69.2863464355469 -69.7028350830078 -0.407605320215225
endloop
endfacet
facet normal 0.223164439201355 0.670974314212799 -0.707100510597229
outer loop
vertex 66.1211318969727 -68.6290893554688 -0.387677222490311
vertex 60.70947265625 -66.7932815551758 -0.353605538606644
vertex 66.1637115478516 -68.505989074707 -0.257430404424667
endloop
endfacet
facet normal 0.223164409399033 0.670974314212799 -0.707100510597229
outer loop
vertex 60.7451019287109 -66.6902236938477 -0.244572401046753
vertex 66.1637115478516 -68.505989074707 -0.257430404424667
vertex 60.70947265625 -66.7932815551758 -0.353605538606644
endloop
endfacet
facet normal 0.223164409399033 0.670974254608154 -0.707100450992584
outer loop
vertex 60.7451019287109 -66.6902236938477 -0.244572401046753
vertex 60.70947265625 -66.7932815551758 -0.353605538606644
vertex 55.1750640869141 -64.8237152099609 -0.23135507106781
endloop
endfacet
facet normal 0.223164409399033 0.670974314212799 -0.707100510597229
outer loop
vertex 55.1465606689453 -64.9061584472656 -0.318581581115723
vertex 55.1750640869141 -64.8237152099609 -0.23135507106781
vertex 60.70947265625 -66.7932815551758 -0.353605538606644
endloop
endfacet
facet normal 0.223164409399033 0.670974314212799 -0.707100510597229
outer loop
vertex 55.1465606689453 -64.9061584472656 -0.318581581115723
vertex 49.5836486816406 -63.0190391540527 -0.283557623624802
vertex 55.1750640869141 -64.8237152099609 -0.23135507106781
endloop
endfacet
facet normal 0.223164409399033 0.670974314212799 -0.707100450992584
outer loop
vertex 49.6050224304199 -62.9572067260742 -0.218137741088867
vertex 55.1750640869141 -64.8237152099609 -0.23135507106781
vertex 49.5836486816406 -63.0190391540527 -0.283557623624802
endloop
endfacet
facet normal 0.223164409399033 0.670974314212799 -0.707100450992584
outer loop
vertex 49.6050224304199 -62.9572067260742 -0.218137741088867
vertex 49.5836486816406 -63.0190391540527 -0.283557623624802
vertex 44.034984588623 -61.0906944274902 -0.204920411109924
endloop
endfacet
facet normal 0.223164409399033 0.670974314212799 -0.707100510597229
outer loop
vertex 44.0207328796387 -61.1319160461426 -0.248533681035042
vertex 44.034984588623 -61.0906944274902 -0.204920411109924
vertex 49.5836486816406 -63.0190391540527 -0.283557623624802
endloop
endfacet
facet normal 0.223164409399033 0.670974314212799 -0.707100510597229
outer loop
vertex 44.0207328796387 -61.1319160461426 -0.248533681035042
vertex 38.457820892334 -59.2447967529297 -0.213509723544121
vertex 44.034984588623 -61.0906944274902 -0.204920411109924
endloop
endfacet
facet normal 0.223164409399033 0.670974314212799 -0.707100510597229
outer loop
vertex 38.4649467468262 -59.2241859436035 -0.191703096032143
vertex 44.034984588623 -61.0906944274902 -0.204920411109924
vertex 38.457820892334 -59.2447967529297 -0.213509723544121
endloop
endfacet
facet normal 0.223164409399033 0.670974314212799 -0.707100510597229
outer loop
vertex 38.457820892334 -59.2447967529297 -0.213509723544121
vertex 32.8949089050293 -57.3576736450195 -0.1784857660532
vertex 38.4649467468262 -59.2241859436035 -0.191703096032143
endloop
endfacet
endsolid COMSOL mesh mesh1
