solid COMSOL mesh mesh1
facet normal -0.0729023963212967 0.997339069843292 0
outer loop
vertex 0 0 0
vertex -0.726249039173126 -0.053086556494236 -0.00218456005677581
vertex 0 0 0.150000005960464
endloop
endfacet
facet normal -0.0729023963212967 0.997339069843292 2.04759660174111e-17
outer loop
vertex -0.726249039173126 -0.053086556494236 0.152184560894966
vertex 0 0 0.150000005960464
vertex -0.726249039173126 -0.053086556494236 -0.00218456005677581
endloop
endfacet
facet normal -0.0729024037718773 0.997339069843292 2.04759660174111e-17
outer loop
vertex -0.726249039173126 -0.053086556494236 0.152184560894966
vertex -0.726249039173126 -0.053086556494236 -0.00218456005677581
vertex -1.53475117683411 -0.112185560166836 0.15461653470993
endloop
endfacet
facet normal -0.0729023963212967 0.997339069843292 -2.496333812245e-17
outer loop
vertex -1.53475117683411 -0.112185560166836 -0.0046165375970304
vertex -1.53475117683411 -0.112185560166836 0.15461653470993
vertex -0.726249039173126 -0.053086556494236 -0.00218456005677581
endloop
endfacet
facet normal -0.0729023888707161 0.997339010238647 3.08315545877592e-16
outer loop
vertex -2.38440012931824 -0.174292266368866 0.157172292470932
vertex -1.53475117683411 -0.112185560166836 0.15461653470993
vertex -2.38440012931824 -0.174292266368866 -0.00717228511348367
endloop
endfacet
facet normal -0.0729023888707161 0.997339069843292 -2.49633364680888e-17
outer loop
vertex -1.53475117683411 -0.112185560166836 -0.0046165375970304
vertex -2.38440012931824 -0.174292266368866 -0.00717228511348367
vertex -1.53475117683411 -0.112185560166836 0.15461653470993
endloop
endfacet
facet normal -0.0729024037718773 0.997339129447937 3.08315598817151e-16
outer loop
vertex -2.38440012931824 -0.174292266368866 0.157172292470932
vertex -2.38440012931824 -0.174292266368866 -0.00717228511348367
vertex -3.25882530212402 -0.238210052251816 0.159802556037903
endloop
endfacet
facet normal -0.0729024037718773 0.997339069843292 -4.74411473966884e-17
outer loop
vertex -3.25882530212402 -0.238210052251816 -0.00980256032198668
vertex -3.25882530212402 -0.238210052251816 0.159802556037903
vertex -2.38440012931824 -0.174292266368866 -0.00717228511348367
endloop
endfacet
facet normal -0.0729023963212967 0.997339010238647 -6.32989786125948e-16
outer loop
vertex -4.14341068267822 -0.302870512008667 0.162463396787643
vertex -3.25882530212402 -0.238210052251816 0.159802556037903
vertex -4.14341068267822 -0.302870512008667 -0.0124633964151144
endloop
endfacet
facet normal -0.0729024037718773 0.997339129447937 -4.74411507054109e-17
outer loop
vertex -3.25882530212402 -0.238210052251816 -0.00980256032198668
vertex -4.14341068267822 -0.302870512008667 -0.0124633964151144
vertex -3.25882530212402 -0.238210052251816 0.159802556037903
endloop
endfacet
facet normal -0.0729024037718773 0.997339069843292 -6.32989839065507e-16
outer loop
vertex -4.14341068267822 -0.302870512008667 0.162463396787643
vertex -4.14341068267822 -0.302870512008667 -0.0124633964151144
vertex -4.98669528961182 -0.364511996507645 0.165000006556511
endloop
endfacet
facet normal -0.0729023963212967 0.997339069843292 0
outer loop
vertex -4.98669528961182 -0.364511996507645 -0.0149999996647239
vertex -4.98669528961182 -0.364511996507645 0.165000006556511
vertex -4.14341068267822 -0.302870512008667 -0.0124633964151144
endloop
endfacet
facet normal 0.000928601541090757 0.0284305494278669 0.99959534406662
outer loop
vertex -4.47981834411621 -0.842676401138306 0.178129106760025
vertex -4.46259641647339 -0.824437499046326 0.177594348788261
vertex -4.98669528961182 -0.364511996507645 0.165000006556511
endloop
endfacet
facet normal 0.000928601541090757 0.0284305494278669 0.99959534406662
outer loop
vertex -4.47981834411621 -0.842676401138306 0.178129106760025
vertex -3.97294092178345 -1.32084083557129 0.191258206963539
vertex -4.46259641647339 -0.824437499046326 0.177594348788261
endloop
endfacet
facet normal 0.000928601541090757 0.0284305494278669 0.99959534406662
outer loop
vertex -3.97294092178345 -1.32084083557129 0.191258206963539
vertex -3.93849778175354 -1.28436303138733 0.190188705921173
vertex -4.46259641647339 -0.824437499046326 0.177594348788261
endloop
endfacet
facet normal 0.000928601541090757 0.0284305494278669 0.99959534406662
outer loop
vertex -3.97294092178345 -1.32084083557129 0.191258206963539
vertex -3.46606349945068 -1.79900527000427 0.204387307167053
vertex -3.93849778175354 -1.28436303138733 0.190188705921173
endloop
endfacet
facet normal 0.000928601657506078 0.0284305512905121 0.999595403671265
outer loop
vertex -3.41439890861511 -1.74428856372833 0.202783063054085
vertex -3.93849778175354 -1.28436303138733 0.190188705921173
vertex -3.46606349945068 -1.79900527000427 0.204387307167053
endloop
endfacet
facet normal 0.000928601657506078 0.0284305512905121 0.999595403671265
outer loop
vertex -3.46606349945068 -1.79900527000427 0.204387307167053
vertex -2.9591863155365 -2.27716970443726 0.217516407370567
vertex -3.41439890861511 -1.74428856372833 0.202783063054085
endloop
endfacet
facet normal 0.000928601541090757 0.0284305494278669 0.99959534406662
outer loop
vertex -2.89030003547668 -2.20421409606934 0.215377405285835
vertex -3.41439890861511 -1.74428856372833 0.202783063054085
vertex -2.9591863155365 -2.27716970443726 0.217516407370567
endloop
endfacet
facet normal 0.000928601541090757 0.0284305494278669 0.99959534406662
outer loop
vertex -2.9591863155365 -2.27716970443726 0.217516407370567
vertex -2.45230913162231 -2.75533413887024 0.230645522475243
vertex -2.89030003547668 -2.20421409606934 0.215377405285835
endloop
endfacet
facet normal 0.000928601657506078 0.0284305512905121 0.99959534406662
outer loop
vertex -2.36620116233826 -2.66413950920105 0.227971762418747
vertex -2.89030003547668 -2.20421409606934 0.215377405285835
vertex -2.45230913162231 -2.75533413887024 0.230645522475243
endloop
endfacet
facet normal 0.000928601599298418 0.0284305494278669 0.99959534406662
outer loop
vertex -2.45230913162231 -2.75533413887024 0.230645522475243
vertex -1.9225378036499 -3.25509572029114 0.244367614388466
vertex -2.36620116233826 -2.66413950920105 0.227971762418747
endloop
endfacet
facet normal 0.000928601599298418 0.0284305494278669 0.999595284461975
outer loop
vertex -1.81845021247864 -3.14482092857361 0.241134479641914
vertex -2.36620116233826 -2.66413950920105 0.227971762418747
vertex -1.9225378036499 -3.25509572029114 0.244367614388466
endloop
endfacet
facet normal 0.000928601599298418 0.0284305494278669 0.99959534406662
outer loop
vertex -1.9225378036499 -3.25509572029114 0.244367614388466
vertex -1.35029494762421 -3.7949230670929 0.259189814329147
vertex -1.81845021247864 -3.14482092857361 0.241134479641914
endloop
endfacet
facet normal 0.000928601715713739 0.0284305531531572 0.99959534406662
outer loop
vertex -1.22675287723541 -3.66406798362732 0.255353271961212
vertex -1.81845021247864 -3.14482092857361 0.241134479641914
vertex -1.35029494762421 -3.7949230670929 0.259189814329147
endloop
endfacet
facet normal -0.707438290119171 0.0265012867748737 0.706278145313263
outer loop
vertex -0.492557913064957 -0.0109402136877179 -0.492956459522247
vertex -0.492751061916351 -0.036018580198288 -0.492208957672119
vertex 0 0 0
endloop
endfacet
facet normal -0.707438290119171 0.0265012867748737 0.706278145313263
outer loop
vertex -0.492557913064957 -0.0109402136877179 -0.492956459522247
vertex -0.985115826129913 -0.0218804273754358 -0.985912919044495
vertex -0.492751061916351 -0.036018580198288 -0.492208957672119
endloop
endfacet
facet normal -0.707438290119171 0.0265012867748737 0.706278145313263
outer loop
vertex -0.985115826129913 -0.0218804273754358 -0.985912919044495
vertex -0.985502123832703 -0.0720371603965759 -0.984417915344238
vertex -0.492751061916351 -0.036018580198288 -0.492208957672119
endloop
endfacet
facet normal -0.707438290119171 0.0265012867748737 0.706278145313263
outer loop
vertex -0.985115826129913 -0.0218804273754358 -0.985912919044495
vertex -1.47767376899719 -0.0328206419944763 -1.47886943817139
vertex -0.985502123832703 -0.0720371603965759 -0.984417915344238
endloop
endfacet
facet normal -0.707438290119171 0.0265012867748737 0.706278145313263
outer loop
vertex -1.4782532453537 -0.108055733144283 -1.47662687301636
vertex -0.985502123832703 -0.0720371603965759 -0.984417915344238
vertex -1.47767376899719 -0.0328206419944763 -1.47886943817139
endloop
endfacet
facet normal -0.707438290119171 0.0265012867748737 0.706278145313263
outer loop
vertex -1.47767376899719 -0.0328206419944763 -1.47886943817139
vertex -1.97023165225983 -0.0437608547508717 -1.97182583808899
vertex -1.4782532453537 -0.108055733144283 -1.47662687301636
endloop
endfacet
facet normal -0.707438290119171 0.0265012867748737 0.706278145313263
outer loop
vertex -1.97100424766541 -0.144074320793152 -1.96883583068848
vertex -1.4782532453537 -0.108055733144283 -1.47662687301636
vertex -1.97023165225983 -0.0437608547508717 -1.97182583808899
endloop
endfacet
facet normal -0.707438290119171 0.0265012867748737 0.706278145313263
outer loop
vertex -1.97023165225983 -0.0437608547508717 -1.97182583808899
vertex -2.46278953552246 -0.054701067507267 -2.46478247642517
vertex -1.97100424766541 -0.144074320793152 -1.96883583068848
endloop
endfacet
facet normal -0.707438230514526 0.0265012867748737 0.706278085708618
outer loop
vertex -2.4637553691864 -0.180092886090279 -2.4610447883606
vertex -1.97100424766541 -0.144074320793152 -1.96883583068848
vertex -2.46278953552246 -0.054701067507267 -2.46478247642517
endloop
endfacet
facet normal -0.707438230514526 0.0265012886375189 0.706278145313263
outer loop
vertex -2.46278953552246 -0.054701067507267 -2.46478247642517
vertex -2.97759389877319 -0.06613539904356 -2.98000335693359
vertex -2.4637553691864 -0.180092886090279 -2.4610447883606
endloop
endfacet
facet normal -0.707438230514526 0.0265012886375189 0.706278085708618
outer loop
vertex -2.97874283790588 -0.217736884951591 -2.97546577453613
vertex -2.4637553691864 -0.180092886090279 -2.4610447883606
vertex -2.97759389877319 -0.06613539904356 -2.98000335693359
endloop
endfacet
facet normal -0.707438230514526 0.0265012886375189 0.706278085708618
outer loop
vertex -2.97759389877319 -0.06613539904356 -2.98000335693359
vertex -3.53366827964783 -0.0784863829612732 -3.53652763366699
vertex -2.97874283790588 -0.217736884951591 -2.97546577453613
endloop
endfacet
facet normal -0.707438290119171 0.0265012886375189 0.706278085708618
outer loop
vertex -3.53504681587219 -0.258400976657867 -3.53115749359131
vertex -2.97874283790588 -0.217736884951591 -2.97546577453613
vertex -3.53366827964783 -0.0784863829612732 -3.53652763366699
endloop
endfacet
facet normal 0.706572651863098 0.0349500700831413 -0.706776976585388
outer loop
vertex 0.00139231909997761 -0.0299675390124321 -8.99761580512859e-05
vertex -0.135980799794197 -0.0388606116175652 -0.137863129377365
vertex 0 0 0
endloop
endfacet
facet normal 0.706572651863098 0.0349500700831413 -0.706776976585388
outer loop
vertex -0.13764426112175 -0.00305721955373883 -0.137755632400513
vertex 0 0 0
vertex -0.135980799794197 -0.0388606116175652 -0.137863129377365
endloop
endfacet
facet normal 0.706572592258453 0.034950066357851 -0.706776916980743
outer loop
vertex -0.364821046590805 -0.00810304749757051 -0.365116238594055
vertex -0.13764426112175 -0.00305721955373883 -0.137755632400513
vertex -0.36271008849144 -0.0535383075475693 -0.365252673625946
endloop
endfacet
facet normal 0.706572592258453 0.0349500700831413 -0.706776976585388
outer loop
vertex -0.135980799794197 -0.0388606116175652 -0.137863129377365
vertex -0.36271008849144 -0.0535383075475693 -0.365252673625946
vertex -0.13764426112175 -0.00305721955373883 -0.137755632400513
endloop
endfacet
facet normal 0.706572651863098 0.0349500700831413 -0.706776976585388
outer loop
vertex -0.364821046590805 -0.00810304749757051 -0.365116238594055
vertex -0.36271008849144 -0.0535383075475693 -0.365252673625946
vertex -0.739767968654633 -0.0164310019463301 -0.740366578102112
endloop
endfacet
facet normal 0.706572592258453 0.0349500700831413 -0.706776976585388
outer loop
vertex -0.736918389797211 -0.0777632966637611 -0.740550696849823
vertex -0.739767968654633 -0.0164310019463301 -0.740366578102112
vertex -0.36271008849144 -0.0535383075475693 -0.365252673625946
endloop
endfacet
facet normal 0.706572651863098 0.0349500738084316 -0.706776976585388
outer loop
vertex -1.26895916461945 -0.0281848777085543 -1.26998591423035
vertex -0.739767968654633 -0.0164310019463301 -0.740366578102112
vertex -1.2650671005249 -0.111953876912594 -1.2702374458313
endloop
endfacet
facet normal 0.706572532653809 0.034950066357851 -0.706776916980743
outer loop
vertex -0.736918389797211 -0.0777632966637611 -0.740550696849823
vertex -1.2650671005249 -0.111953876912594 -1.2702374458313
vertex -0.739767968654633 -0.0164310019463301 -0.740366578102112
endloop
endfacet
facet normal 0.706572592258453 0.034950066357851 -0.706776976585388
outer loop
vertex -1.26895916461945 -0.0281848777085543 -1.26998591423035
vertex -1.2650671005249 -0.111953876912594 -1.2702374458313
vertex -1.8115907907486 -0.0402372814714909 -1.8130567073822
endloop
endfacet
facet normal 0.706572592258453 0.0349500700831413 -0.706776976585388
outer loop
vertex -1.80662989616394 -0.147012829780579 -1.8133772611618
vertex -1.8115907907486 -0.0402372814714909 -1.8130567073822
vertex -1.2650671005249 -0.111953876912594 -1.2702374458313
endloop
endfacet
facet normal 0.706572592258453 0.0349500700831413 -0.706776916980743
outer loop
vertex -1.8115907907486 -0.0402372814714909 -1.8130567073822
vertex -1.80662989616394 -0.147012829780579 -1.8133772611618
vertex -2.36143922805786 -0.0524499788880348 -2.36335015296936
endloop
endfacet
facet normal 0.706572532653809 0.034950066357851 -0.706776916980743
outer loop
vertex -2.35539531707764 -0.182538062334061 -2.36374068260193
vertex -2.36143922805786 -0.0524499788880348 -2.36335015296936
vertex -1.80662989616394 -0.147012829780579 -1.8133772611618
endloop
endfacet
facet normal 0.706572592258453 0.0349500700831413 -0.706776916980743
outer loop
vertex -2.92701268196106 -0.0650119408965111 -2.92938113212585
vertex -2.36143922805786 -0.0524499788880348 -2.36335015296936
vertex -2.91985440254211 -0.219079256057739 -2.92984366416931
endloop
endfacet
facet normal 0.706572592258453 0.0349500700831413 -0.706776976585388
outer loop
vertex -2.35539531707764 -0.182538062334061 -2.36374068260193
vertex -2.91985440254211 -0.219079256057739 -2.92984366416931
vertex -2.36143922805786 -0.0524499788880348 -2.36335015296936
endloop
endfacet
facet normal 0.706572592258453 0.0349500700831413 -0.706776916980743
outer loop
vertex -2.92701268196106 -0.0650119408965111 -2.92938113212585
vertex -2.91985440254211 -0.219079256057739 -2.92984366416931
vertex -3.53406572341919 -0.0784952118992805 -3.53692555427551
endloop
endfacet
facet normal 0.706572592258453 0.0349500700831413 -0.706776976585388
outer loop
vertex -3.52571201324463 -0.258300453424454 -3.5374653339386
vertex -3.53406572341919 -0.0784952118992805 -3.53692555427551
vertex -2.91985440254211 -0.219079256057739 -2.92984366416931
endloop
endfacet
facet normal -0.272920876741409 -0.962036550045013 0
outer loop
vertex -0.632320284843445 -6.56222820281982 0.0599999986588955
vertex -0.444974064826965 -6.61537647247314 0.0570789128541946
vertex -0.632320284843445 -6.56222820281982 0.0900000035762787
endloop
endfacet
facet normal -0.272920846939087 -0.962036490440369 -1.96126074365408e-14
outer loop
vertex -0.444974064826965 -6.61537647247314 0.0929210856556892
vertex -0.632320284843445 -6.56222820281982 0.0900000035762787
vertex -0.444974064826965 -6.61537647247314 0.0570789128541946
endloop
endfacet
facet normal -0.272920876741409 -0.962036490440369 1.66542003432585e-16
outer loop
vertex -0.135765954852104 -6.70309591293335 0.0522577613592148
vertex -0.135765954852104 -6.70309591293335 0.0977422371506691
vertex -0.444974064826965 -6.61537647247314 0.0570789128541946
endloop
endfacet
facet normal -0.272920876741409 -0.962036490440369 -1.96126074365408e-14
outer loop
vertex -0.444974064826965 -6.61537647247314 0.0929210856556892
vertex -0.444974064826965 -6.61537647247314 0.0570789128541946
vertex -0.135765954852104 -6.70309591293335 0.0977422371506691
endloop
endfacet
facet normal -0.272920876741409 -0.962036490440369 1.66542003432585e-16
outer loop
vertex -0.135765954852104 -6.70309591293335 0.0522577613592148
vertex 0.37457063794136 -6.84787368774414 0.0443006344139576
vertex -0.135765954852104 -6.70309591293335 0.0977422371506691
endloop
endfacet
facet normal -0.272920876741409 -0.962036490440369 6.41550589305169e-15
outer loop
vertex 0.37457063794136 -6.84787368774414 0.105699367821217
vertex -0.135765954852104 -6.70309591293335 0.0977422371506691
vertex 0.37457063794136 -6.84787368774414 0.0443006344139576
endloop
endfacet
facet normal -0.272920876741409 -0.962036490440369 9.39435178547209e-15
outer loop
vertex 1.09484755992889 -7.05220985412598 0.0330701284110546
vertex 1.09484755992889 -7.05220985412598 0.116929866373539
vertex 0.37457063794136 -6.84787368774414 0.0443006344139576
endloop
endfacet
facet normal -0.272920876741409 -0.962036490440369 6.41550589305169e-15
outer loop
vertex 0.37457063794136 -6.84787368774414 0.105699367821217
vertex 0.37457063794136 -6.84787368774414 0.0443006344139576
vertex 1.09484755992889 -7.05220985412598 0.116929866373539
endloop
endfacet
facet normal -0.272920876741409 -0.962036490440369 9.39435178547209e-15
outer loop
vertex 1.09484755992889 -7.05220985412598 0.0330701284110546
vertex 1.83341825008392 -7.26173543930054 0.0215543918311596
vertex 1.09484755992889 -7.05220985412598 0.116929866373539
endloop
endfacet
facet normal -0.272920876741409 -0.962036490440369 4.08258445631785e-15
outer loop
vertex 1.83341825008392 -7.26173543930054 0.128445610404015
vertex 1.09484755992889 -7.05220985412598 0.116929866373539
vertex 1.83341825008392 -7.26173543930054 0.0215543918311596
endloop
endfacet
facet normal -0.272920876741409 -0.962036490440369 4.08258445631785e-15
outer loop
vertex 1.83341825008392 -7.26173543930054 0.0215543918311596
vertex 2.58181166648865 -7.47404766082764 0.00988549832254648
vertex 1.83341825008392 -7.26173543930054 0.128445610404015
endloop
endfacet
facet normal -0.272920876741409 -0.962036490440369 8.05081777069047e-15
outer loop
vertex 2.58181166648865 -7.47404766082764 0.14011450111866
vertex 1.83341825008392 -7.26173543930054 0.128445610404015
vertex 2.58181166648865 -7.47404766082764 0.00988549832254648
endloop
endfacet
facet normal -0.272920876741409 -0.962036550045013 -4.79342678763139e-15
outer loop
vertex 3.35160779953003 -7.69243192672729 -0.00211710669100285
vertex 3.35160779953003 -7.69243192672729 0.152117103338242
vertex 2.58181166648865 -7.47404766082764 0.00988549832254648
endloop
endfacet
facet normal -0.272920876741409 -0.962036490440369 8.05081861772342e-15
outer loop
vertex 2.58181166648865 -7.47404766082764 0.14011450111866
vertex 2.58181166648865 -7.47404766082764 0.00988549832254648
vertex 3.35160779953003 -7.69243192672729 0.152117103338242
endloop
endfacet
facet normal -0.272920846939087 -0.962036490440369 -4.79342678763139e-15
outer loop
vertex 3.35160779953003 -7.69243192672729 -0.00211710669100285
vertex 4.1778621673584 -7.92683267593384 -0.0149999996647239
vertex 3.35160779953003 -7.69243192672729 0.152117103338242
endloop
endfacet
facet normal -0.272920846939087 -0.962036490440369 -0
outer loop
vertex 4.1778621673584 -7.92683267593384 0.165000006556511
vertex 3.35160779953003 -7.69243192672729 0.152117103338242
vertex 4.1778621673584 -7.92683267593384 -0.0149999996647239
endloop
endfacet
facet normal 0.0391864068806171 -0.00992163922637701 0.999182641506195
outer loop
vertex -0.632320284843445 -6.56222820281982 0.0599999986588955
vertex 0.0724781826138496 -6.74293041229248 0.0305645596235991
vertex -0.595503449440002 -6.41681671142578 0.0599999986588955
endloop
endfacet
facet normal 0.0391864031553268 -0.00992163829505444 0.999182641506195
outer loop
vertex 0.110367439687252 -6.59328317642212 0.0305645596235991
vertex -0.595503449440002 -6.41681671142578 0.0599999986588955
vertex 0.0724781826138496 -6.74293041229248 0.0305645596235991
endloop
endfacet
facet normal 0.0391864068806171 -0.00992163922637701 0.99918270111084
outer loop
vertex 0.857100427150726 -6.94409799575806 -0.00220466637983918
vertex 0.896183490753174 -6.78973579406738 -0.00220466637983918
vertex 0.0724781826138496 -6.74293041229248 0.0305645596235991
endloop
endfacet
facet normal 0.0391864106059074 -0.00992163922637701 0.999182641506195
outer loop
vertex 0.110367439687252 -6.59328317642212 0.0305645596235991
vertex 0.0724781826138496 -6.74293041229248 0.0305645596235991
vertex 0.896183490753174 -6.78973579406738 -0.00220466637983918
endloop
endfacet
facet normal 0.0391864068806171 -0.00992163829505444 0.999182641506195
outer loop
vertex 0.857100427150726 -6.94409799575806 -0.00220466637983918
vertex 1.68165409564972 -7.15550374984741 -0.036641601473093
vertex 0.896183490753174 -6.78973579406738 -0.00220466637983918
endloop
endfacet
facet normal 0.0391864031553268 -0.00992163829505444 0.99918258190155
outer loop
vertex 1.72199177742004 -6.99618673324585 -0.036641601473093
vertex 0.896183490753174 -6.78973579406738 -0.00220466637983918
vertex 1.68165409564972 -7.15550374984741 -0.036641601473093
endloop
endfacet
facet normal 0.0391864143311977 -0.00992164015769958 0.99918270111084
outer loop
vertex 1.68165409564972 -7.15550374984741 -0.036641601473093
vertex 2.53025221824646 -7.37307453155518 -0.0720827430486679
vertex 1.72199177742004 -6.99618673324585 -0.036641601473093
endloop
endfacet
facet normal 0.0391864106059074 -0.00992164015769958 0.99918270111084
outer loop
vertex 2.57188105583191 -7.20865774154663 -0.0720827430486679
vertex 1.72199177742004 -6.99618673324585 -0.036641601473093
vertex 2.53025221824646 -7.37307453155518 -0.0720827430486679
endloop
endfacet
facet normal 0.0391864106059074 -0.00992163922637701 0.99918270111084
outer loop
vertex 3.38871049880981 -7.59317302703857 -0.107935681939125
vertex 3.43164563179016 -7.42359733581543 -0.107935681939125
vertex 2.53025221824646 -7.37307453155518 -0.0720827430486679
endloop
endfacet
facet normal 0.0391864068806171 -0.00992163922637701 0.99918270111084
outer loop
vertex 2.57188105583191 -7.20865774154663 -0.0720827430486679
vertex 2.53025221824646 -7.37307453155518 -0.0720827430486679
vertex 3.43164563179016 -7.42359733581543 -0.107935681939125
endloop
endfacet
facet normal 0.0391864068806171 -0.00992163922637701 0.999182641506195
outer loop
vertex 3.38871049880981 -7.59317302703857 -0.107935681939125
vertex 4.20708799362183 -7.80299520492554 -0.142114669084549
vertex 3.43164563179016 -7.42359733581543 -0.107935681939125
endloop
endfacet
facet normal 0.0391864106059074 -0.00992163922637701 0.999182641506195
outer loop
vertex 4.25126791000366 -7.62850141525269 -0.142114669084549
vertex 3.43164563179016 -7.42359733581543 -0.107935681939125
vertex 4.20708799362183 -7.80299520492554 -0.142114669084549
endloop
endfacet
facet normal -0.203248530626297 -0.677614688873291 -0.706773221492767
outer loop
vertex 0.0380948670208454 -6.75241899490356 0.0495511665940285
vertex -0.632320284843445 -6.56222820281982 0.0599999986588955
vertex 0.0426806025207043 -6.73528480529785 0.0318051911890507
endloop
endfacet
facet normal -0.203248530626297 -0.677614688873291 -0.706773221492767
outer loop
vertex 0.0380948670208454 -6.75241899490356 0.0495511665940285
vertex 0.0426806025207043 -6.73528480529785 0.0318051911890507
vertex 0.708510041236877 -6.94260931015015 0.0391023345291615
endloop
endfacet
facet normal -0.203248530626297 -0.677614688873291 -0.706773221492767
outer loop
vertex 0.708510041236877 -6.94260931015015 0.0391023345291615
vertex 0.0426806025207043 -6.73528480529785 0.0318051911890507
vertex 0.717681527137756 -6.90834093093872 0.00361037976108491
endloop
endfacet
facet normal -0.203248530626297 -0.677614688873291 -0.706773221492767
outer loop
vertex 0.708510041236877 -6.94260931015015 0.0391023345291615
vertex 0.717681527137756 -6.90834093093872 0.00361037976108491
vertex 1.37892520427704 -7.13280010223389 0.0286535006016493
endloop
endfacet
facet normal -0.203248530626297 -0.677614688873291 -0.706773161888123
outer loop
vertex 1.39268243312836 -7.08139753341675 -0.0245844312012196
vertex 1.37892520427704 -7.13280010223389 0.0286535006016493
vertex 0.717681527137756 -6.90834093093872 0.00361037976108491
endloop
endfacet
facet normal -0.203248530626297 -0.677614688873291 -0.706773161888123
outer loop
vertex 1.37892520427704 -7.13280010223389 0.0286535006016493
vertex 1.39268243312836 -7.08139753341675 -0.0245844312012196
vertex 2.04934048652649 -7.32299041748047 0.0182046685367823
endloop
endfacet
facet normal -0.203248530626297 -0.677614688873291 -0.706773221492767
outer loop
vertex 2.06768321990967 -7.25445413589478 -0.0527792386710644
vertex 2.04934048652649 -7.32299041748047 0.0182046685367823
vertex 1.39268243312836 -7.08139753341675 -0.0245844312012196
endloop
endfacet
facet normal -0.203248530626297 -0.677614688873291 -0.706773221492767
outer loop
vertex 2.04934048652649 -7.32299041748047 0.0182046685367823
vertex 2.06768321990967 -7.25445413589478 -0.0527792386710644
vertex 2.71975564956665 -7.51318120956421 0.0077558346092701
endloop
endfacet
facet normal -0.203248545527458 -0.677614688873291 -0.706773221492767
outer loop
vertex 2.74268412590027 -7.4275107383728 -0.0809740498661995
vertex 2.71975564956665 -7.51318120956421 0.0077558346092701
vertex 2.06768321990967 -7.25445413589478 -0.0527792386710644
endloop
endfacet
facet normal -0.203248530626297 -0.677614688873291 -0.706773161888123
outer loop
vertex 2.71975564956665 -7.51318120956421 0.0077558346092701
vertex 2.74268412590027 -7.4275107383728 -0.0809740498661995
vertex 3.42045116424561 -7.71196222305298 -0.0031649386510253
endloop
endfacet
facet normal -0.203248530626297 -0.677614748477936 -0.706773161888123
outer loop
vertex 3.44814729690552 -7.60837697982788 -0.110441260039806
vertex 3.42045116424561 -7.71196222305298 -0.0031649386510253
vertex 2.74268412590027 -7.4275107383728 -0.0809740498661995
endloop
endfacet
facet normal -0.203248515725136 -0.677614688873291 -0.706773161888123
outer loop
vertex 3.42045116424561 -7.71196222305298 -0.0031649386510253
vertex 3.44814729690552 -7.60837697982788 -0.110441260039806
vertex 4.177321434021 -7.9266791343689 -0.0149612268432975
endloop
endfacet
facet normal -0.203248545527458 -0.677614748477936 -0.706773221492767
outer loop
vertex 4.21020984649658 -7.8037543296814 -0.142272651195526
vertex 4.177321434021 -7.9266791343689 -0.0149612268432975
vertex 3.44814729690552 -7.60837697982788 -0.110441260039806
endloop
endfacet
facet normal -0.966830790042877 0.244792684912682 0.0729023963212967
outer loop
vertex -0.595503449440002 -6.41681671142578 0.0900000035762787
vertex -0.632320284843445 -6.56222820281982 0.0900000035762787
vertex -0.543504595756531 -6.4277286529541 0.816249012947083
endloop
endfacet
facet normal -0.966830849647522 0.244792684912682 0.0729023963212967
outer loop
vertex -0.581393837928772 -6.57737588882446 0.816249012947083
vertex -0.543504595756531 -6.4277286529541 0.816249012947083
vertex -0.632320284843445 -6.56222820281982 0.0900000035762787
endloop
endfacet
facet normal -0.966830790042877 0.244792684912682 0.0729023963212967
outer loop
vertex -0.485616475343704 -6.43987703323364 1.62475121021271
vertex -0.543504595756531 -6.4277286529541 0.816249012947083
vertex -0.524699568748474 -6.59423923492432 1.62475121021271
endloop
endfacet
facet normal -0.966830790042877 0.244792699813843 0.0729024037718773
outer loop
vertex -0.581393837928772 -6.57737588882446 0.816249012947083
vertex -0.524699568748474 -6.59423923492432 1.62475121021271
vertex -0.543504595756531 -6.4277286529541 0.816249012947083
endloop
endfacet
facet normal -0.966830790042877 0.244792699813843 0.0729024037718773
outer loop
vertex -0.485616475343704 -6.43987703323364 1.62475121021271
vertex -0.524699568748474 -6.59423923492432 1.62475121021271
vertex -0.424782305955887 -6.45264291763306 2.47440004348755
endloop
endfacet
facet normal -0.966830790042877 0.244792699813843 0.0729023963212967
outer loop
vertex -0.465119987726212 -6.61196041107178 2.47440004348755
vertex -0.424782305955887 -6.45264291763306 2.47440004348755
vertex -0.524699568748474 -6.59423923492432 1.62475121021271
endloop
endfacet
facet normal -0.966830849647522 0.244792699813843 0.0729024037718773
outer loop
vertex -0.362174153327942 -6.46578168869019 3.34882545471191
vertex -0.424782305955887 -6.45264291763306 2.47440004348755
vertex -0.403803020715714 -6.63019847869873 3.34882545471191
endloop
endfacet
facet normal -0.966830790042877 0.244792699813843 0.0729023963212967
outer loop
vertex -0.465119987726212 -6.61196041107178 2.47440004348755
vertex -0.403803020715714 -6.63019847869873 3.34882545471191
vertex -0.424782305955887 -6.45264291763306 2.47440004348755
endloop
endfacet
facet normal -0.966830849647522 0.244792714715004 0.0729024037718773
outer loop
vertex -0.362174153327942 -6.46578168869019 3.34882545471191
vertex -0.403803020715714 -6.63019847869873 3.34882545471191
vertex -0.298838555812836 -6.47907257080078 4.23341083526611
endloop
endfacet
facet normal -0.966830790042877 0.244792699813843 0.0729024037718773
outer loop
vertex -0.341773599386215 -6.64864873886108 4.23341083526611
vertex -0.298838555812836 -6.47907257080078 4.23341083526611
vertex -0.403803020715714 -6.63019847869873 3.34882545471191
endloop
endfacet
facet normal -0.966830730438232 0.244792655110359 0.0729023963212967
outer loop
vertex -0.298838555812836 -6.47907257080078 4.23341083526611
vertex -0.341773599386215 -6.64864873886108 4.23341083526611
vertex -0.238460063934326 -6.49174356460571 5.07669544219971
endloop
endfacet
facet normal -0.966830790042877 0.244792684912682 0.0729023963212967
outer loop
vertex -0.282640308141708 -6.66623735427856 5.07669544219971
vertex -0.238460063934326 -6.49174356460571 5.07669544219971
vertex -0.341773599386215 -6.64864873886108 4.23341083526611
endloop
endfacet
facet normal 0.139594480395317 0.693735182285309 -0.706572651863098
outer loop
vertex -0.566430509090424 -6.42408466339111 0.0886076837778091
vertex -0.595503449440002 -6.41681671142578 0.0900000035762787
vertex -0.523993611335754 -6.29270887374878 0.225980803370476
endloop
endfacet
facet normal 0.139594480395317 0.693735241889954 -0.706572651863098
outer loop
vertex -0.558728218078613 -6.28402519226074 0.227644264698029
vertex -0.523993611335754 -6.29270887374878 0.225980803370476
vertex -0.595503449440002 -6.41681671142578 0.0900000035762787
endloop
endfacet
facet normal 0.139594495296478 0.693735241889954 -0.706572592258453
outer loop
vertex -0.498032003641129 -6.06485795974731 0.454821050167084
vertex -0.453953117132187 -6.07587766647339 0.452710092067719
vertex -0.558728218078613 -6.28402519226074 0.227644264698029
endloop
endfacet
facet normal 0.139594495296478 0.693735241889954 -0.706572592258453
outer loop
vertex -0.523993611335754 -6.29270887374878 0.225980803370476
vertex -0.558728218078613 -6.28402519226074 0.227644264698029
vertex -0.453953117132187 -6.07587766647339 0.452710092067719
endloop
endfacet
facet normal 0.139594480395317 0.693735241889954 -0.706572592258453
outer loop
vertex -0.498032003641129 -6.06485795974731 0.454821050167084
vertex -0.397855192422867 -5.7031307220459 0.829767942428589
vertex -0.453953117132187 -6.07587766647339 0.452710092067719
endloop
endfacet
facet normal 0.139594480395317 0.693735241889954 -0.706572592258453
outer loop
vertex -0.338353842496872 -5.71800565719604 0.826918423175812
vertex -0.453953117132187 -6.07587766647339 0.452710092067719
vertex -0.397855192422867 -5.7031307220459 0.829767942428589
endloop
endfacet
facet normal 0.139594480395317 0.693735241889954 -0.706572592258453
outer loop
vertex -0.256467998027802 -5.19259691238403 1.35895907878876
vertex -0.175199747085571 -5.21291399002075 1.3550671339035
vertex -0.397855192422867 -5.7031307220459 0.829767942428589
endloop
endfacet
facet normal 0.139594465494156 0.693735182285309 -0.706572532653809
outer loop
vertex -0.338353842496872 -5.71800565719604 0.826918423175812
vertex -0.397855192422867 -5.7031307220459 0.829767942428589
vertex -0.175199747085571 -5.21291399002075 1.3550671339035
endloop
endfacet
facet normal 0.139594480395317 0.693735182285309 -0.706572592258453
outer loop
vertex -0.256467998027802 -5.19259691238403 1.35895907878876
vertex -0.111489847302437 -4.66909694671631 1.9015908241272
vertex -0.175199747085571 -5.21291399002075 1.3550671339035
endloop
endfacet
facet normal 0.139594465494156 0.693735182285309 -0.706572532653809
outer loop
vertex -0.00790183339267969 -4.69499349594116 1.89662992954254
vertex -0.175199747085571 -5.21291399002075 1.3550671339035
vertex -0.111489847302437 -4.66909694671631 1.9015908241272
endloop
endfacet
facet normal 0.139594465494156 0.693735182285309 -0.706572592258453
outer loop
vertex -0.111489847302437 -4.66909694671631 1.9015908241272
vertex 0.03541649132967 -4.1386342048645 2.45143938064575
vertex -0.00790183339267969 -4.69499349594116 1.89662992954254
endloop
endfacet
facet normal 0.139594480395317 0.693735182285309 -0.706572532653809
outer loop
vertex 0.16162109375 -4.17018508911133 2.44539523124695
vertex -0.00790183339267969 -4.69499349594116 1.89662992954254
vertex 0.03541649132967 -4.1386342048645 2.45143938064575
endloop
endfacet
facet normal 0.139594480395317 0.693735182285309 -0.706572592258453
outer loop
vertex 0.186524093151093 -3.59300136566162 3.01701259613037
vertex 0.335992097854614 -3.63036799430847 3.00985455513
vertex 0.03541649132967 -4.1386342048645 2.45143938064575
endloop
endfacet
facet normal 0.139594480395317 0.693735182285309 -0.706572592258453
outer loop
vertex 0.16162109375 -4.17018508911133 2.44539523124695
vertex 0.03541649132967 -4.1386342048645 2.45143938064575
vertex 0.335992097854614 -3.63036799430847 3.00985455513
endloop
endfacet
facet normal 0.139594480395317 0.693735241889954 -0.706572592258453
outer loop
vertex 0.186524093151093 -3.59300136566162 3.01701259613037
vertex 0.348714172840118 -3.00735092163086 3.62406587600708
vertex 0.335992097854614 -3.63036799430847 3.00985455513
endloop
endfacet
facet normal 0.139594480395317 0.693735182285309 -0.706572592258453
outer loop
vertex 0.523151695728302 -3.05096006393433 3.61571192741394
vertex 0.335992097854614 -3.63036799430847 3.00985455513
vertex 0.348714172840118 -3.00735092163086 3.62406587600708
endloop
endfacet
facet normal -0.19904363155365 -0.678168654441833 0.707438290119171
outer loop
vertex -0.463903784751892 -5.94162464141846 0.582557916641235
vertex -0.595503449440002 -6.41681671142578 0.0900000035762787
vertex -0.439776033163071 -5.94850492477417 0.582751095294952
endloop
endfacet
facet normal -0.19904363155365 -0.678168654441833 0.707438290119171
outer loop
vertex -0.463903784751892 -5.94162464141846 0.582557916641235
vertex -0.439776033163071 -5.94850492477417 0.582751095294952
vertex -0.332304120063782 -5.46643304824829 1.07511579990387
endloop
endfacet
facet normal -0.19904363155365 -0.678168654441833 0.707438290119171
outer loop
vertex -0.332304120063782 -5.46643304824829 1.07511579990387
vertex -0.439776033163071 -5.94850492477417 0.582751095294952
vertex -0.284048616886139 -5.48019313812256 1.0755021572113
endloop
endfacet
facet normal -0.19904363155365 -0.678168654441833 0.707438290119171
outer loop
vertex -0.332304120063782 -5.46643304824829 1.07511579990387
vertex -0.284048616886139 -5.48019313812256 1.0755021572113
vertex -0.200704470276833 -4.99124097824097 1.5676736831665
endloop
endfacet
facet normal -0.19904363155365 -0.678168654441833 0.707438290119171
outer loop
vertex -0.128321215510368 -5.01188135147095 1.5682532787323
vertex -0.200704470276833 -4.99124097824097 1.5676736831665
vertex -0.284048616886139 -5.48019313812256 1.0755021572113
endloop
endfacet
facet normal -0.19904363155365 -0.678168654441833 0.707438290119171
outer loop
vertex -0.200704470276833 -4.99124097824097 1.5676736831665
vertex -0.128321215510368 -5.01188135147095 1.5682532787323
vertex -0.0691048204898834 -4.5160493850708 2.06023168563843
endloop
endfacet
facet normal -0.19904363155365 -0.678168654441833 0.707438290119171
outer loop
vertex 0.0274061858654022 -4.54356908798218 2.0610044002533
vertex -0.0691048204898834 -4.5160493850708 2.06023168563843
vertex -0.128321215510368 -5.01188135147095 1.5682532787323
endloop
endfacet
facet normal -0.19904363155365 -0.678168654441833 0.707438290119171
outer loop
vertex -0.0691048204898834 -4.5160493850708 2.06023168563843
vertex 0.0274061858654022 -4.54356908798218 2.0610044002533
vertex 0.062494833022356 -4.04085731506348 2.55278944969177
endloop
endfacet
facet normal -0.199043601751328 -0.678168654441833 0.707438230514526
outer loop
vertex 0.183133587241173 -4.07525730133057 2.55375528335571
vertex 0.062494833022356 -4.04085731506348 2.55278944969177
vertex 0.0274061858654022 -4.54356908798218 2.0610044002533
endloop
endfacet
facet normal -0.199043646454811 -0.678168714046478 0.707438230514526
outer loop
vertex 0.062494833022356 -4.04085731506348 2.55278944969177
vertex 0.183133587241173 -4.07525730133057 2.55375528335571
vertex 0.200038194656372 -3.54420351982117 3.0675938129425
endloop
endfacet
facet normal -0.19904363155365 -0.678168714046478 0.707438230514526
outer loop
vertex 0.345888525247574 -3.58581209182739 3.06874299049377
vertex 0.200038194656372 -3.54420351982117 3.0675938129425
vertex 0.183133587241173 -4.07525730133057 2.55375528335571
endloop
endfacet
facet normal -0.199043616652489 -0.678168654441833 0.707438230514526
outer loop
vertex 0.200038194656372 -3.54420351982117 3.0675938129425
vertex 0.345888525247574 -3.58581209182739 3.06874299049377
vertex 0.348607957363129 -3.00773429870605 3.62366843223572
endloop
endfacet
facet normal -0.19904363155365 -0.678168654441833 0.707438290119171
outer loop
vertex 0.521700918674469 -3.05709958076477 3.6250467300415
vertex 0.348607957363129 -3.00773429870605 3.62366843223572
vertex 0.345888525247574 -3.58581209182739 3.06874299049377
endloop
endfacet
facet normal -0.272907316684723 -0.962039828300476 -0.000928601599298418
outer loop
vertex 2.89380645751953 -7.5636887550354 1.31675291061401
vertex 3.01971697807312 -7.59952592849731 1.44029486179352
vertex 2.39393305778503 -7.42245817184448 1.90845024585724
endloop
endfacet
facet normal -0.272907346487045 -0.962039828300476 -0.000928601599298418
outer loop
vertex 2.50004100799561 -7.45265865325928 2.01253771781921
vertex 2.39393305778503 -7.42245817184448 1.90845024585724
vertex 3.01971697807312 -7.59952592849731 1.44029486179352
endloop
endfacet
facet normal -0.272907376289368 -0.962039887905121 -0.000928601657506078
outer loop
vertex 2.39393305778503 -7.42245817184448 1.90845024585724
vertex 2.50004100799561 -7.45265865325928 2.01253771781921
vertex 1.93118619918823 -7.29171657562256 2.45620107650757
endloop
endfacet
facet normal -0.272907346487045 -0.962039828300476 -0.000928601599298418
outer loop
vertex 2.01893496513367 -7.31669187545776 2.54230904579163
vertex 1.93118619918823 -7.29171657562256 2.45620107650757
vertex 2.50004100799561 -7.45265865325928 2.01253771781921
endloop
endfacet
facet normal -0.272907346487045 -0.962039828300476 -0.000928601599298418
outer loop
vertex 1.93118619918823 -7.29171657562256 2.45620107650757
vertex 2.01893496513367 -7.31669187545776 2.54230904579163
vertex 1.48842096328735 -7.16662073135376 2.980299949646
endloop
endfacet
facet normal -0.272907346487045 -0.962039828300476 -0.000928601541090757
outer loop
vertex 1.55861985683441 -7.18660116195679 3.04918622970581
vertex 1.48842096328735 -7.16662073135376 2.980299949646
vertex 2.01893496513367 -7.31669187545776 2.54230904579163
endloop
endfacet
facet normal -0.272907346487045 -0.962039828300476 -0.000928601541090757
outer loop
vertex 1.48842096328735 -7.16662073135376 2.980299949646
vertex 1.55861985683441 -7.18660116195679 3.04918622970581
vertex 1.04565560817719 -7.04152488708496 3.50439882278442
endloop
endfacet
facet normal -0.272907346487045 -0.962039828300476 -0.000928601599298418
outer loop
vertex 1.09830486774445 -7.05650997161865 3.55606365203857
vertex 1.04565560817719 -7.04152488708496 3.50439882278442
vertex 1.55861985683441 -7.18660116195679 3.04918622970581
endloop
endfacet
facet normal -0.272907346487045 -0.962039828300476 -0.000928601599298418
outer loop
vertex 1.04565560817719 -7.04152488708496 3.50439882278442
vertex 1.09830486774445 -7.05650997161865 3.55606365203857
vertex 0.602890312671661 -6.91642904281616 4.02849769592285
endloop
endfacet
facet normal -0.272907346487045 -0.962039828300476 -0.000928601541090757
outer loop
vertex 0.63798975944519 -6.92641925811768 4.06294107437134
vertex 0.602890312671661 -6.91642904281616 4.02849769592285
vertex 1.09830486774445 -7.05650997161865 3.55606365203857
endloop
endfacet
facet normal -0.272907346487045 -0.962039828300476 -0.000928601541090757
outer loop
vertex 0.63798975944519 -6.92641925811768 4.06294107437134
vertex 0.160125002264977 -6.79133319854736 4.55259656906128
vertex 0.602890312671661 -6.91642904281616 4.02849769592285
endloop
endfacet
facet normal -0.272907346487045 -0.962039828300476 -0.000928601541090757
outer loop
vertex 0.177674740552902 -6.79632806777954 4.56981801986694
vertex 0.160125002264977 -6.79133319854736 4.55259656906128
vertex 0.63798975944519 -6.92641925811768 4.06294107437134
endloop
endfacet
facet normal -0.272907346487045 -0.962039828300476 -0.000928601541090757
outer loop
vertex 0.177674740552902 -6.79632806777954 4.56981801986694
vertex -0.282640308141708 -6.66623735427856 5.07669544219971
vertex 0.160125002264977 -6.79133319854736 4.55259656906128
endloop
endfacet
facet normal -1 0 0
outer loop
vertex -0.20227999985218 -5 -0.0149999996647239
vertex -0.20227999985218 -6 -0.0149999996647239
vertex -0.20227999985218 -5 0.165000006556511
endloop
endfacet
facet normal -1 0 0
outer loop
vertex -0.20227999985218 -6 0.165000006556511
vertex -0.20227999985218 -5 0.165000006556511
vertex -0.20227999985218 -6 -0.0149999996647239
endloop
endfacet
facet normal -0.70710676908493 -0 -0.70710676908493
outer loop
vertex -0.0750000029802322 -5 -0.142279997467995
vertex -0.0750000029802322 -6 -0.142279997467995
vertex -0.20227999985218 -5 -0.0149999996647239
endloop
endfacet
facet normal -0.70710676908493 0 -0.70710676908493
outer loop
vertex -0.20227999985218 -6 -0.0149999996647239
vertex -0.20227999985218 -5 -0.0149999996647239
vertex -0.0750000029802322 -6 -0.142279997467995
endloop
endfacet
facet normal -0.70710676908493 0 0.70710676908493
outer loop
vertex -0.0750000029802322 -6 0.292279988527298
vertex -0.0750000029802322 -5 0.292279988527298
vertex -0.20227999985218 -6 0.165000006556511
endloop
endfacet
facet normal -0.70710676908493 0 0.70710676908493
outer loop
vertex -0.20227999985218 -5 0.165000006556511
vertex -0.20227999985218 -6 0.165000006556511
vertex -0.0750000029802322 -5 0.292279988527298
endloop
endfacet
facet normal 0 0 -1
outer loop
vertex -0.0750000029802322 -5 -0.142279997467995
vertex 0.104999996721745 -5 -0.142279997467995
vertex -0.0750000029802322 -6 -0.142279997467995
endloop
endfacet
facet normal 0 0 -1
outer loop
vertex 0.104999996721745 -6 -0.142279997467995
vertex -0.0750000029802322 -6 -0.142279997467995
vertex 0.104999996721745 -5 -0.142279997467995
endloop
endfacet
facet normal 0 -0 1
outer loop
vertex 0.104999996721745 -6 0.292279988527298
vertex 0.104999996721745 -5 0.292279988527298
vertex -0.0750000029802322 -6 0.292279988527298
endloop
endfacet
facet normal -0 0 1
outer loop
vertex -0.0750000029802322 -5 0.292279988527298
vertex -0.0750000029802322 -6 0.292279988527298
vertex 0.104999996721745 -5 0.292279988527298
endloop
endfacet
facet normal 0.70710676908493 0 -0.70710676908493
outer loop
vertex 0.104999996721745 -6 -0.142279997467995
vertex 0.104999996721745 -5 -0.142279997467995
vertex 0.232280001044273 -6 -0.0149999996647239
endloop
endfacet
facet normal 0.70710676908493 0 -0.70710676908493
outer loop
vertex 0.232280001044273 -5 -0.0149999996647239
vertex 0.232280001044273 -6 -0.0149999996647239
vertex 0.104999996721745 -5 -0.142279997467995
endloop
endfacet
facet normal 0.70710676908493 -0 0.70710676908493
outer loop
vertex 0.232280001044273 -6 0.165000006556511
vertex 0.232280001044273 -5 0.165000006556511
vertex 0.104999996721745 -6 0.292279988527298
endloop
endfacet
facet normal 0.70710676908493 0 0.70710676908493
outer loop
vertex 0.104999996721745 -5 0.292279988527298
vertex 0.104999996721745 -6 0.292279988527298
vertex 0.232280001044273 -5 0.165000006556511
endloop
endfacet
facet normal 1 0 0
outer loop
vertex 0.232280001044273 -6 -0.0149999996647239
vertex 0.232280001044273 -5 -0.0149999996647239
vertex 0.232280001044273 -6 0.165000006556511
endloop
endfacet
facet normal 1 0 0
outer loop
vertex 0.232280001044273 -5 0.165000006556511
vertex 0.232280001044273 -6 0.165000006556511
vertex 0.232280001044273 -5 -0.0149999996647239
endloop
endfacet
facet normal -0 0.0284444838762283 0.99959534406662
outer loop
vertex -0.0750000029802322 -4.99797677993774 0.292222440242767
vertex 0.104999996721745 -4.99797677993774 0.292222440242767
vertex -0.0621171072125435 -4.13946485519409 0.267792612314224
endloop
endfacet
facet normal 1.63801388627074e-16 0.0284444876015186 0.99959534406662
outer loop
vertex 0.0921171084046364 -4.13946485519409 0.267792612314224
vertex -0.0621171072125435 -4.13946485519409 0.267792612314224
vertex 0.104999996721745 -4.99797677993774 0.292222440242767
endloop
endfacet
facet normal 1.63801401861964e-16 0.0284444857388735 0.999595403671265
outer loop
vertex -0.0621171072125435 -4.13946485519409 0.267792612314224
vertex 0.0921171084046364 -4.13946485519409 0.267792612314224
vertex -0.0501145012676716 -3.33961486816406 0.245032086968422
endloop
endfacet
facet normal 5.18106283973373e-16 0.0284444857388735 0.99959534406662
outer loop
vertex 0.0801144987344742 -3.33961486816406 0.245032086968422
vertex -0.0501145012676716 -3.33961486816406 0.245032086968422
vertex 0.0921171084046364 -4.13946485519409 0.267792612314224
endloop
endfacet
facet normal 5.18106336912932e-16 0.0284444857388735 0.99959534406662
outer loop
vertex 0.0801144987344742 -3.33961486816406 0.245032086968422
vertex 0.0684456080198288 -2.56200337409973 0.222904369235039
vertex -0.0501145012676716 -3.33961486816406 0.245032086968422
endloop
endfacet
facet normal 3.20970032821114e-16 0.0284444838762283 0.99959534406662
outer loop
vertex -0.0384456068277359 -2.56200337409973 0.222904369235039
vertex -0.0501145012676716 -3.33961486816406 0.245032086968422
vertex 0.0684456080198288 -2.56200337409973 0.222904369235039
endloop
endfacet
facet normal 3.20970032821114e-16 0.0284444857388735 0.99959534406662
outer loop
vertex -0.0384456068277359 -2.56200337409973 0.222904369235039
vertex 0.0684456080198288 -2.56200337409973 0.222904369235039
vertex -0.0269298702478409 -1.79459822177887 0.201067090034485
endloop
endfacet
facet normal 3.30842201821363e-16 0.0284444838762283 0.999595284461975
outer loop
vertex 0.0569298714399338 -1.79459822177887 0.201067090034485
vertex -0.0269298702478409 -1.79459822177887 0.201067090034485
vertex 0.0684456080198288 -2.56200337409973 0.222904369235039
endloop
endfacet
facet normal 3.30842228291143e-16 0.0284444857388735 0.99959534406662
outer loop
vertex 0.0569298714399338 -1.79459822177887 0.201067090034485
vertex 0.0456993654370308 -1.04620099067688 0.179770693182945
vertex -0.0269298702478409 -1.79459822177887 0.201067090034485
endloop
endfacet
facet normal 4.73937433301442e-16 0.0284444857388735 0.99959534406662
outer loop
vertex -0.0156993679702282 -1.04620099067688 0.179770693182945
vertex -0.0269298702478409 -1.79459822177887 0.201067090034485
vertex 0.0456993654370308 -1.04620099067688 0.179770693182945
endloop
endfacet
facet normal 4.73937380361883e-16 0.0284444857388735 0.99959534406662
outer loop
vertex -0.0156993679702282 -1.04620099067688 0.179770693182945
vertex 0.0456993654370308 -1.04620099067688 0.179770693182945
vertex -0.007742237765342 -0.515940368175507 0.164681598544121
endloop
endfacet
facet normal 6.24867110738693e-16 0.0284444876015186 0.999595403671265
outer loop
vertex 0.0377422384917736 -0.515940368175507 0.164681598544121
vertex -0.007742237765342 -0.515940368175507 0.164681598544121
vertex 0.0456993654370308 -1.04620099067688 0.179770693182945
endloop
endfacet
facet normal 6.24867110738693e-16 0.0284444876015186 0.999595403671265
outer loop
vertex 0.0377422384917736 -0.515940368175507 0.164681598544121
vertex 0.0329210869967937 -0.194660440087318 0.155539259314537
vertex -0.007742237765342 -0.515940368175507 0.164681598544121
endloop
endfacet
facet normal 4.87719718144454e-16 0.0284444876015186 0.999595403671265
outer loop
vertex -0.00292108859866858 -0.194660440087318 0.155539259314537
vertex -0.007742237765342 -0.515940368175507 0.164681598544121
vertex 0.0329210869967937 -0.194660440087318 0.155539259314537
endloop
endfacet
facet normal 4.87719665204895e-16 0.0284444857388735 0.999595403671265
outer loop
vertex -0.00292108859866858 -0.194660440087318 0.155539259314537
vertex 0.0329210869967937 -0.194660440087318 0.155539259314537
vertex 0 0 0.150000005960464
endloop
endfacet
facet normal 0 0.0284444838762283 0.999595403671265
outer loop
vertex 0.0299999993294477 0 0.150000005960464
vertex 0 0 0.150000005960464
vertex 0.0329210869967937 -0.194660440087318 0.155539259314537
endloop
endfacet
facet normal -0.999182641506195 -0.040422935038805 0
outer loop
vertex 0.232114672660828 -4.9959135055542 -0.0149999996647239
vertex 0.232114672660828 -4.9959135055542 0.165000006556511
vertex 0.197935685515404 -4.15107011795044 -0.0124633964151144
endloop
endfacet
facet normal -0.999182641506195 -0.040422935038805 2.51949182537183e-16
outer loop
vertex 0.197935685515404 -4.15107011795044 0.162463396787643
vertex 0.197935685515404 -4.15107011795044 -0.0124633964151144
vertex 0.232114672660828 -4.9959135055542 0.165000006556511
endloop
endfacet
facet normal -0.99918270111084 -0.040422935038805 2.51949182537183e-16
outer loop
vertex 0.197935685515404 -4.15107011795044 0.162463396787643
vertex 0.162082746624947 -3.2648491859436 0.159802556037903
vertex 0.197935685515404 -4.15107011795044 -0.0124633964151144
endloop
endfacet
facet normal -0.99918270111084 -0.0404229313135147 -9.56808086346213e-17
outer loop
vertex 0.162082746624947 -3.2648491859436 -0.00980256032198668
vertex 0.197935685515404 -4.15107011795044 -0.0124633964151144
vertex 0.162082746624947 -3.2648491859436 0.159802556037903
endloop
endfacet
facet normal -0.99918270111084 -0.040422935038805 -9.56808218695111e-17
outer loop
vertex 0.162082746624947 -3.2648491859436 -0.00980256032198668
vertex 0.162082746624947 -3.2648491859436 0.159802556037903
vertex 0.126641601324081 -2.38880753517151 -0.00717228511348367
endloop
endfacet
facet normal -0.99918270111084 -0.040422935038805 -1.96806609751989e-16
outer loop
vertex 0.126641601324081 -2.38880753517151 0.157172292470932
vertex 0.126641601324081 -2.38880753517151 -0.00717228511348367
vertex 0.162082746624947 -3.2648491859436 0.159802556037903
endloop
endfacet
facet normal -0.99918258190155 -0.0404229313135147 -1.9680655681243e-16
outer loop
vertex 0.126641601324081 -2.38880753517151 0.157172292470932
vertex 0.0922046676278114 -1.53758811950684 0.15461653470993
vertex 0.126641601324081 -2.38880753517151 -0.00717228511348367
endloop
endfacet
facet normal -0.999182641506195 -0.0404229313135147 -1.22857642371594e-16
outer loop
vertex 0.0922046676278114 -1.53758811950684 -0.0046165375970304
vertex 0.126641601324081 -2.38880753517151 -0.00717228511348367
vertex 0.0922046676278114 -1.53758811950684 0.15461653470993
endloop
endfacet
facet normal -0.99918270111084 -0.040422935038805 -1.22857655606484e-16
outer loop
vertex 0.0922046676278114 -1.53758811950684 -0.0046165375970304
vertex 0.0922046676278114 -1.53758811950684 0.15461653470993
vertex 0.0594354420900345 -0.727591454982758 -0.00218456005677581
endloop
endfacet
facet normal -0.999182641506195 -0.0404229313135147 -4.4913273518559e-17
outer loop
vertex 0.0594354420900345 -0.727591454982758 0.152184560894966
vertex 0.0594354420900345 -0.727591454982758 -0.00218456005677581
vertex 0.0922046676278114 -1.53758811950684 0.15461653470993
endloop
endfacet
facet normal -0.999182641506195 -0.040422935038805 -4.49132702098366e-17
outer loop
vertex 0.0594354420900345 -0.727591454982758 0.152184560894966
vertex 0.0299999993294477 0 0.150000005960464
vertex 0.0594354420900345 -0.727591454982758 -0.00218456005677581
endloop
endfacet
facet normal -0.999182641506195 -0.0404229313135147 0
outer loop
vertex 0.0299999993294477 0 0
vertex 0.0594354420900345 -0.727591454982758 -0.00218456005677581
vertex 0.0299999993294477 0 0.150000005960464
endloop
endfacet
facet normal 0.706773221492767 0.0307135377079248 0.706773221492767
outer loop
vertex 0.232272654771805 -4.99912595748901 0.164969384670258
vertex 0.200441256165504 -4.21241998672485 0.162613660097122
vertex 0.104961223900318 -4.99741506576538 0.292206436395645
endloop
endfacet
facet normal 0.706773161888123 0.0307135339826345 0.706773161888123
outer loop
vertex 0.093164935708046 -4.2109956741333 0.269828110933304
vertex 0.104961223900318 -4.99741506576538 0.292206436395645
vertex 0.200441256165504 -4.21241998672485 0.162613660097122
endloop
endfacet
facet normal 0.706773221492767 0.0307135377079248 0.706773221492767
outer loop
vertex 0.200441256165504 -4.21241998672485 0.162613660097122
vertex 0.170974045991898 -3.48414421081543 0.160432919859886
vertex 0.093164935708046 -4.2109956741333 0.269828110933304
endloop
endfacet
facet normal 0.706773221492767 0.0307135377079248 0.706773221492767
outer loop
vertex 0.0822441652417183 -3.48294425010681 0.249110668897629
vertex 0.093164935708046 -4.2109956741333 0.269828110933304
vertex 0.170974045991898 -3.48414421081543 0.160432919859886
endloop
endfacet
facet normal 0.706773221492767 0.0307135377079248 0.706773221492767
outer loop
vertex 0.170974045991898 -3.48414421081543 0.160432919859886
vertex 0.142779245972633 -2.78731536865234 0.158346340060234
vertex 0.0822441652417183 -3.48294425010681 0.249110668897629
endloop
endfacet
facet normal 0.706773221492767 0.0307135339826345 0.706773221492767
outer loop
vertex 0.071795329451561 -2.78635549545288 0.229288533329964
vertex 0.0822441652417183 -3.48294425010681 0.249110668897629
vertex 0.142779245972633 -2.78731536865234 0.158346340060234
endloop
endfacet
facet normal 0.706773221492767 0.0307135339826345 0.706773221492767
outer loop
vertex 0.142779245972633 -2.78731536865234 0.158346340060234
vertex 0.114584431052208 -2.09048652648926 0.156259745359421
vertex 0.071795329451561 -2.78635549545288 0.229288533329964
endloop
endfacet
facet normal 0.706773221492767 0.0307135377079248 0.706773221492767
outer loop
vertex 0.061346497386694 -2.08976650238037 0.209466397762299
vertex 0.071795329451561 -2.78635549545288 0.229288533329964
vertex 0.114584431052208 -2.09048652648926 0.156259745359421
endloop
endfacet
facet normal 0.706773221492767 0.0307135377079248 0.706773221492767
outer loop
vertex 0.114584431052208 -2.09048652648926 0.156259745359421
vertex 0.0863896235823631 -1.39365768432617 0.154173165559769
vertex 0.061346497386694 -2.08976650238037 0.209466397762299
endloop
endfacet
facet normal 0.706773221492767 0.0307135339826345 0.706773221492767
outer loop
vertex 0.0508976653218269 -1.39317774772644 0.189644262194633
vertex 0.061346497386694 -2.08976650238037 0.209466397762299
vertex 0.0863896235823631 -1.39365768432617 0.154173165559769
endloop
endfacet
facet normal 0.706773221492767 0.0307135339826345 0.706773221492767
outer loop
vertex 0.0508976653218269 -1.39317774772644 0.189644262194633
vertex 0.0863896235823631 -1.39365768432617 0.154173165559769
vertex 0.0581948086619377 -0.696828842163086 0.152086585760117
endloop
endfacet
facet normal 0.706773221492767 0.0307135339826345 0.706773221492767
outer loop
vertex 0.0404488332569599 -0.69658887386322 0.169822126626968
vertex 0.0508976653218269 -1.39317774772644 0.189644262194633
vertex 0.0581948086619377 -0.696828842163086 0.152086585760117
endloop
endfacet
facet normal 0.706773221492767 0.0307135339826345 0.706773221492767
outer loop
vertex 0.0404488332569599 -0.69658887386322 0.169822126626968
vertex 0.0581948086619377 -0.696828842163086 0.152086585760117
vertex 0.0299999993294477 0 0.150000005960464
endloop
endfacet
facet normal 0.706817626953125 0.0285950135439634 -0.706817626953125
outer loop
vertex 0.260287404060364 -5.6922926902771 -0.0149999996647239
vertex 0.242567628622055 -5.69301128387451 -0.0327488258481026
vertex 0.232114672660828 -4.9959135055542 -0.0149999996647239
endloop
endfacet
facet normal 0.706817626953125 0.0285950135439634 -0.706817626953125
outer loop
vertex 0.260287404060364 -5.6922926902771 -0.0149999996647239
vertex 0.2884601354599 -6.38867235183716 -0.0149999996647239
vertex 0.242567628622055 -5.69301128387451 -0.0327488258481026
endloop
endfacet
facet normal 0.706817626953125 0.0285950135439634 -0.706817626953125
outer loop
vertex 0.2884601354599 -6.38867235183716 -0.0149999996647239
vertex 0.253020584583282 -6.39010906219482 -0.050497654825449
vertex 0.242567628622055 -5.69301128387451 -0.0327488258481026
endloop
endfacet
facet normal 0.706817626953125 0.0285950135439634 -0.706817626953125
outer loop
vertex 0.2884601354599 -6.38867235183716 -0.0149999996647239
vertex 0.316632866859436 -7.08505201339722 -0.0149999996647239
vertex 0.253020584583282 -6.39010906219482 -0.050497654825449
endloop
endfacet
facet normal 0.706817626953125 0.0285950154066086 -0.706817626953125
outer loop
vertex 0.263473570346832 -7.08720684051514 -0.0682464838027954
vertex 0.253020584583282 -6.39010906219482 -0.050497654825449
vertex 0.316632866859436 -7.08505201339722 -0.0149999996647239
endloop
endfacet
facet normal 0.706817626953125 0.0285950154066086 -0.706817626953125
outer loop
vertex 0.316632866859436 -7.08505201339722 -0.0149999996647239
vertex 0.344805598258972 -7.78143119812012 -0.0149999996647239
vertex 0.263473570346832 -7.08720684051514 -0.0682464838027954
endloop
endfacet
facet normal 0.706817626953125 0.0285950135439634 -0.706817626953125
outer loop
vertex 0.27392652630806 -7.78430461883545 -0.0859953090548515
vertex 0.263473570346832 -7.08720684051514 -0.0682464838027954
vertex 0.344805598258972 -7.78143119812012 -0.0149999996647239
endloop
endfacet
facet normal 0.706817626953125 0.0285950135439634 -0.706817626953125
outer loop
vertex 0.344805598258972 -7.78143119812012 -0.0149999996647239
vertex 0.372978329658508 -8.47781085968018 -0.0149999996647239
vertex 0.27392652630806 -7.78430461883545 -0.0859953090548515
endloop
endfacet
facet normal 0.706817626953125 0.0285950135439634 -0.706817626953125
outer loop
vertex 0.284379482269287 -8.48140239715576 -0.103744134306908
vertex 0.27392652630806 -7.78430461883545 -0.0859953090548515
vertex 0.372978329658508 -8.47781085968018 -0.0149999996647239
endloop
endfacet
facet normal 0.706817626953125 0.0285950154066086 -0.706817626953125
outer loop
vertex 0.372978329658508 -8.47781085968018 -0.0149999996647239
vertex 0.402423530817032 -9.20564365386963 -0.0149999996647239
vertex 0.284379482269287 -8.48140239715576 -0.103744134306908
endloop
endfacet
facet normal 0.706817626953125 0.0285950154066086 -0.706817626953125
outer loop
vertex 0.295304179191589 -9.20995998382568 -0.122293949127197
vertex 0.284379482269287 -8.48140239715576 -0.103744134306908
vertex 0.402423530817032 -9.20564365386963 -0.0149999996647239
endloop
endfacet
facet normal 0.706817626953125 0.0285950154066086 -0.706817626953125
outer loop
vertex 0.402423530817032 -9.20564365386963 -0.0149999996647239
vertex 0.434229344129562 -9.9918270111084 -0.0149999996647239
vertex 0.295304179191589 -9.20995998382568 -0.122293949127197
endloop
endfacet
facet normal 0.706817626953125 0.0285950154066086 -0.706817626953125
outer loop
vertex 0.307105362415314 -9.99696922302246 -0.142332032322884
vertex 0.295304179191589 -9.20995998382568 -0.122293949127197
vertex 0.434229344129562 -9.9918270111084 -0.0149999996647239
endloop
endfacet
facet normal 0.145765125751495 0.692214846611023 -0.706817626953125
outer loop
vertex 9.13059711456299 -8.73255252838135 -0.217105373740196
vertex 9.09435844421387 -8.85472774505615 -0.344229340553284
vertex 8.36274337768555 -8.55880928039551 -0.205304175615311
endloop
endfacet
facet normal 0.145765125751495 0.692214787006378 -0.706817626953125
outer loop
vertex 8.33222389221191 -8.66176223754883 -0.312423527240753
vertex 8.36274337768555 -8.55880928039551 -0.205304175615311
vertex 9.09435844421387 -8.85472774505615 -0.344229340553284
endloop
endfacet
facet normal 0.145765110850334 0.692214846611023 -0.706817626953125
outer loop
vertex 8.36274337768555 -8.55880928039551 -0.205304175615311
vertex 8.33222389221191 -8.66176223754883 -0.312423527240753
vertex 7.6519193649292 -8.39797115325928 -0.19437949359417
endloop
endfacet
facet normal 0.145765125751495 0.692214846611023 -0.70681756734848
outer loop
vertex 7.62665557861328 -8.48311901092529 -0.28297832608223
vertex 7.6519193649292 -8.39797115325928 -0.19437949359417
vertex 8.33222389221191 -8.66176223754883 -0.312423527240753
endloop
endfacet
facet normal 0.145765125751495 0.692214846611023 -0.706817626953125
outer loop
vertex 7.6519193649292 -8.39797115325928 -0.19437949359417
vertex 7.62665557861328 -8.48311901092529 -0.28297832608223
vertex 6.97178888320923 -8.2440767288208 -0.183926522731781
endloop
endfacet
facet normal 0.145765125751495 0.692214846611023 -0.706817626953125
outer loop
vertex 6.95157814025879 -8.31219482421875 -0.254805594682693
vertex 6.97178888320923 -8.2440767288208 -0.183926522731781
vertex 7.62665557861328 -8.48311901092529 -0.28297832608223
endloop
endfacet
facet normal 0.145765125751495 0.692214846611023 -0.706817626953125
outer loop
vertex 6.97178888320923 -8.2440767288208 -0.183926522731781
vertex 6.95157814025879 -8.31219482421875 -0.254805594682693
vertex 6.29165887832642 -8.09018325805664 -0.173473566770554
endloop
endfacet
facet normal 0.145765125751495 0.692214846611023 -0.706817626953125
outer loop
vertex 6.2765007019043 -8.14127159118652 -0.226632863283157
vertex 6.29165887832642 -8.09018325805664 -0.173473566770554
vertex 6.95157814025879 -8.31219482421875 -0.254805594682693
endloop
endfacet
facet normal 0.145765125751495 0.692214846611023 -0.706817626953125
outer loop
vertex 6.29165887832642 -8.09018325805664 -0.173473566770554
vertex 6.2765007019043 -8.14127159118652 -0.226632863283157
vertex 5.61152839660645 -7.93628931045532 -0.163020595908165
endloop
endfacet
facet normal 0.145765125751495 0.692214846611023 -0.706817626953125
outer loop
vertex 5.6014232635498 -7.9703483581543 -0.198460131883621
vertex 5.61152839660645 -7.93628931045532 -0.163020595908165
vertex 6.2765007019043 -8.14127159118652 -0.226632863283157
endloop
endfacet
facet normal 0.145765125751495 0.692214846611023 -0.706817626953125
outer loop
vertex 5.6014232635498 -7.9703483581543 -0.198460131883621
vertex 4.93139839172363 -7.782395362854 -0.152567625045776
vertex 5.61152839660645 -7.93628931045532 -0.163020595908165
endloop
endfacet
facet normal 0.145765125751495 0.692214846611023 -0.706817626953125
outer loop
vertex 4.92634582519531 -7.79942512512207 -0.170287400484085
vertex 4.93139839172363 -7.782395362854 -0.152567625045776
vertex 5.6014232635498 -7.9703483581543 -0.198460131883621
endloop
endfacet
facet normal 0.145765125751495 0.692214846611023 -0.706817626953125
outer loop
vertex 4.92634582519531 -7.79942512512207 -0.170287400484085
vertex 4.25126791000366 -7.62850141525269 -0.142114669084549
vertex 4.93139839172363 -7.782395362854 -0.152567625045776
endloop
endfacet
endsolid COMSOL mesh mesh1
