solid COMSOL mesh mesh1
facet normal -0.999995768070221 0.00292898737825453 0
outer loop
vertex -0.0599999986588955 -10.9999570846558 0.0599999986588955
vertex -0.0599999986588955 -10.9999570846558 0.0900000035762787
vertex -0.0594442561268806 -10.8102178573608 0.0596205219626427
endloop
endfacet
facet normal -0.999995708465576 0.00292898737825453 1.69151579594177e-16
outer loop
vertex -0.0594442561268806 -10.8102178573608 0.0903794765472412
vertex -0.0594442561268806 -10.8102178573608 0.0596205219626427
vertex -0.0599999986588955 -10.9999570846558 0.0900000035762787
endloop
endfacet
facet normal -0.999995708465576 0.00292898737825453 1.6266594096128e-16
outer loop
vertex -0.0585462339222431 -10.5036220550537 0.0590073242783546
vertex -0.0594442561268806 -10.8102178573608 0.0596205219626427
vertex -0.0585462339222431 -10.5036220550537 0.0909926742315292
endloop
endfacet
facet normal -0.999995768070221 0.00292898761108518 1.69151606063957e-16
outer loop
vertex -0.0594442561268806 -10.8102178573608 0.0903794765472412
vertex -0.0585462339222431 -10.5036220550537 0.0909926742315292
vertex -0.0594442561268806 -10.8102178573608 0.0596205219626427
endloop
endfacet
facet normal -0.999995708465576 0.00292898761108518 1.6266594096128e-16
outer loop
vertex -0.0585462339222431 -10.5036220550537 0.0590073242783546
vertex -0.0585462339222431 -10.5036220550537 0.0909926742315292
vertex -0.0571193769574165 -10.0164737701416 0.0580330230295658
endloop
endfacet
facet normal -0.999995708465576 0.00292898737825453 4.08962912346104e-16
outer loop
vertex -0.0571193769574165 -10.0164737701416 0.0919669792056084
vertex -0.0571193769574165 -10.0164737701416 0.0580330230295658
vertex -0.0585462339222431 -10.5036220550537 0.0909926742315292
endloop
endfacet
facet normal -0.999995708465576 0.00292898737825453 3.84007442365641e-16
outer loop
vertex -0.0555045753717422 -9.46515941619873 0.0569303892552853
vertex -0.0571193769574165 -10.0164737701416 0.0580330230295658
vertex -0.0555045753717422 -9.46515941619873 0.0930696055293083
endloop
endfacet
facet normal -0.999995708465576 0.00292898737825453 4.08962938815884e-16
outer loop
vertex -0.0571193769574165 -10.0164737701416 0.0919669792056084
vertex -0.0555045753717422 -9.46515941619873 0.0930696055293083
vertex -0.0571193769574165 -10.0164737701416 0.0580330230295658
endloop
endfacet
facet normal -0.999995708465576 0.00292898737825453 -4.52721474816764e-17
outer loop
vertex -0.0538897775113583 -8.91384506225586 0.055827759206295
vertex -0.0555045753717422 -9.46515941619873 0.0569303892552853
vertex -0.0538897775113583 -8.91384506225586 0.0941722393035889
endloop
endfacet
facet normal -0.999995708465576 0.00292898737825453 3.84007442365641e-16
outer loop
vertex -0.0555045753717422 -9.46515941619873 0.0930696055293083
vertex -0.0538897775113583 -8.91384506225586 0.0941722393035889
vertex -0.0555045753717422 -9.46515941619873 0.0569303892552853
endloop
endfacet
facet normal -0.999995708465576 0.00292898737825453 -4.52721474816764e-17
outer loop
vertex -0.0538897775113583 -8.91384506225586 0.055827759206295
vertex -0.0538897775113583 -8.91384506225586 0.0941722393035889
vertex -0.052274975925684 -8.36253070831299 0.0547251254320145
endloop
endfacet
facet normal -0.999995648860931 0.00292898737825453 5.13359299578723e-16
outer loop
vertex -0.052274975925684 -8.36253070831299 0.0952748730778694
vertex -0.052274975925684 -8.36253070831299 0.0547251254320145
vertex -0.0538897775113583 -8.91384506225586 0.0941722393035889
endloop
endfacet
facet normal -0.999995648860931 0.00292898737825453 3.04343252522545e-16
outer loop
vertex -0.0506601780653 -7.81121635437012 0.0536224916577339
vertex -0.052274975925684 -8.36253070831299 0.0547251254320145
vertex -0.0506601780653 -7.81121635437012 0.09637750685215
endloop
endfacet
facet normal -0.999995648860931 0.00292898737825453 5.13359299578723e-16
outer loop
vertex -0.052274975925684 -8.36253070831299 0.0952748730778694
vertex -0.0506601780653 -7.81121635437012 0.09637750685215
vertex -0.052274975925684 -8.36253070831299 0.0547251254320145
endloop
endfacet
facet normal -0.999995648860931 0.00292898737825453 3.86104550359255e-17
outer loop
vertex -0.049045380204916 -7.25990200042725 0.0525198578834534
vertex -0.0506601780653 -7.81121635437012 0.0536224916577339
vertex -0.049045380204916 -7.25990200042725 0.0974801406264305
endloop
endfacet
facet normal -0.999995648860931 0.00292898737825453 3.04343252522545e-16
outer loop
vertex -0.0506601780653 -7.81121635437012 0.09637750685215
vertex -0.049045380204916 -7.25990200042725 0.0974801406264305
vertex -0.0506601780653 -7.81121635437012 0.0536224916577339
endloop
endfacet
facet normal -0.999995708465576 0.00292898737825453 3.86104583446479e-17
outer loop
vertex -0.049045380204916 -7.25990200042725 0.0525198578834534
vertex -0.049045380204916 -7.25990200042725 0.0974801406264305
vertex -0.0474448055028915 -6.71344423294067 0.0514269359409809
endloop
endfacet
facet normal -0.999995648860931 0.00292898737825453 2.39176905074434e-16
outer loop
vertex -0.0474448055028915 -6.71344423294067 0.0985730588436127
vertex -0.0474448055028915 -6.71344423294067 0.0514269359409809
vertex -0.049045380204916 -7.25990200042725 0.0974801406264305
endloop
endfacet
facet normal -0.999995768070221 0.00292898761108518 -2.30903907808821e-16
outer loop
vertex -0.0462078973650932 -6.29114818572998 0.09941765666008
vertex -0.0462078973650932 -6.29114818572998 0.0505823418498039
vertex -0.0474448055028915 -6.71344423294067 0.0985730588436127
endloop
endfacet
facet normal -0.999995708465576 0.00292898737825453 2.39176931544213e-16
outer loop
vertex -0.0474448055028915 -6.71344423294067 0.0514269359409809
vertex -0.0474448055028915 -6.71344423294067 0.0985730588436127
vertex -0.0462078973650932 -6.29114818572998 0.0505823418498039
endloop
endfacet
facet normal -0.999995768070221 0.00292898737825453 -2.30903881339042e-16
outer loop
vertex -0.0462078973650932 -6.29114818572998 0.09941765666008
vertex -0.045355062931776 -5.99997854232788 0.100000001490116
vertex -0.0462078973650932 -6.29114818572998 0.0505823418498039
endloop
endfacet
facet normal -0.999995708465576 0.00292898737825453 0
outer loop
vertex -0.045355062931776 -5.99997854232788 0.0500000007450581
vertex -0.0462078973650932 -6.29114818572998 0.0505823418498039
vertex -0.045355062931776 -5.99997854232788 0.100000001490116
endloop
endfacet
facet normal -0.707106649875641 0.000656902091577649 -0.707106649875641
outer loop
vertex -0.0453560277819633 -5.9997386932373 0.0500012338161469
vertex -0.0100045567378402 -6.000412940979 0.0146491331979632
vertex -0.0462897196412086 -6.31854867935181 0.0506387464702129
endloop
endfacet
facet normal -0.707106649875641 0.000656902033369988 -0.707106649875641
outer loop
vertex -0.0131922634318471 -6.31918334960938 0.0175407025963068
vertex -0.0462897196412086 -6.31854867935181 0.0506387464702129
vertex -0.0100045567378402 -6.000412940979 0.0146491331979632
endloop
endfacet
facet normal -0.707106590270996 0.000656902033369988 -0.707106590270996
outer loop
vertex -0.0462897196412086 -6.31854867935181 0.0506387464702129
vertex -0.0131922634318471 -6.31918334960938 0.0175407025963068
vertex -0.0477675311267376 -6.82315158843994 0.0516477823257446
endloop
endfacet
facet normal -0.707106649875641 0.000656902033369988 -0.707106649875641
outer loop
vertex -0.0182375498116016 -6.82371187210083 0.022117281332612
vertex -0.0477675311267376 -6.82315158843994 0.0516477823257446
vertex -0.0131922634318471 -6.31918334960938 0.0175407025963068
endloop
endfacet
facet normal -0.707106649875641 0.000656902091577649 -0.707106649875641
outer loop
vertex -0.0182375498116016 -6.82371187210083 0.022117281332612
vertex -0.0242036134004593 -7.42031860351563 0.0275290980935097
vertex -0.0477675311267376 -6.82315158843994 0.0516477823257446
endloop
endfacet
facet normal -0.707106649875641 0.000656902091577649 -0.707106649875641
outer loop
vertex -0.0495150275528431 -7.41983795166016 0.052840955555439
vertex -0.0477675311267376 -6.82315158843994 0.0516477823257446
vertex -0.0242036134004593 -7.42031860351563 0.0275290980935097
endloop
endfacet
facet normal -0.707106649875641 0.000656902091577649 -0.707106649875641
outer loop
vertex -0.0495150275528431 -7.41983795166016 0.052840955555439
vertex -0.0242036134004593 -7.42031860351563 0.0275290980935097
vertex -0.0512625202536583 -8.01652431488037 0.0540341325104237
endloop
endfacet
facet normal -0.707106590270996 0.000656902033369988 -0.707106590270996
outer loop
vertex -0.0301696788519621 -8.01692485809326 0.0329409167170525
vertex -0.0512625202536583 -8.01652431488037 0.0540341325104237
vertex -0.0242036134004593 -7.42031860351563 0.0275290980935097
endloop
endfacet
facet normal -0.707106590270996 0.000656902033369988 -0.707106590270996
outer loop
vertex -0.0301696788519621 -8.01692485809326 0.0329409167170525
vertex -0.0361357443034649 -8.6135311126709 0.0383527316153049
vertex -0.0512625202536583 -8.01652431488037 0.0540341325104237
endloop
endfacet
facet normal -0.707106649875641 0.000656902033369988 -0.707106649875641
outer loop
vertex -0.0530100166797638 -8.61321067810059 0.055227305740118
vertex -0.0512625202536583 -8.01652431488037 0.0540341325104237
vertex -0.0361357443034649 -8.6135311126709 0.0383527316153049
endloop
endfacet
facet normal -0.707106649875641 0.000656902033369988 -0.707106649875641
outer loop
vertex -0.0361357443034649 -8.6135311126709 0.0383527316153049
vertex -0.0421018078923225 -9.21013736724854 0.0437645502388477
vertex -0.0530100166797638 -8.61321067810059 0.055227305740118
endloop
endfacet
facet normal -0.707106649875641 0.000656902091577649 -0.707106649875641
outer loop
vertex -0.0547575131058693 -9.20989799499512 0.0564204789698124
vertex -0.0530100166797638 -8.61321067810059 0.055227305740118
vertex -0.0421018078923225 -9.21013736724854 0.0437645502388477
endloop
endfacet
facet normal -0.707106649875641 0.000656902091577649 -0.707106649875641
outer loop
vertex -0.0421018078923225 -9.21013736724854 0.0437645502388477
vertex -0.0480678714811802 -9.80674457550049 0.0491763651371002
vertex -0.0547575131058693 -9.20989799499512 0.0564204789698124
endloop
endfacet
facet normal -0.707106649875641 0.000656902033369988 -0.707106649875641
outer loop
vertex -0.0565050095319748 -9.80658435821533 0.0576136521995068
vertex -0.0547575131058693 -9.20989799499512 0.0564204789698124
vertex -0.0480678714811802 -9.80674457550049 0.0491763651371002
endloop
endfacet
facet normal -0.707106649875641 0.000656902033369988 -0.707106649875641
outer loop
vertex -0.0480678714811802 -9.80674457550049 0.0491763651371002
vertex -0.0540339350700378 -10.4033508300781 0.054588183760643
vertex -0.0565050095319748 -9.80658435821533 0.0576136521995068
endloop
endfacet
facet normal -0.707106649875641 0.000656902033369988 -0.707106649875641
outer loop
vertex -0.0582525059580803 -10.4032707214355 0.0588068254292011
vertex -0.0565050095319748 -9.80658435821533 0.0576136521995068
vertex -0.0540339350700378 -10.4033508300781 0.054588183760643
endloop
endfacet
facet normal -0.707106649875641 0.000656902033369988 -0.707106649875641
outer loop
vertex -0.0540339350700378 -10.4033508300781 0.054588183760643
vertex -0.0599999986588955 -10.9999570846558 0.0599999986588955
vertex -0.0582525059580803 -10.4032707214355 0.0588068254292011
endloop
endfacet
facet normal -0 0.00907062646001577 0.999958872795105
outer loop
vertex -0.00999999977648258 -6.00016260147095 0.014646865427494
vertex -0.0129548637196422 -6.2956371307373 0.0173271130770445
vertex 0.0399999991059303 -6.00016260147095 0.014646865427494
endloop
endfacet
facet normal 4.85326618457889e-17 0.00907062739133835 0.999958872795105
outer loop
vertex 0.0429548807442188 -6.29563903808594 0.0173271298408508
vertex 0.0399999991059303 -6.00016260147095 0.014646865427494
vertex -0.0129548637196422 -6.2956371307373 0.0173271130770445
endloop
endfacet
facet normal 7.18557107397136e-17 0.00907062646001577 0.999958872795105
outer loop
vertex -0.017374262213707 -6.73755884170532 0.0213357843458652
vertex 0.0473743341863155 -6.7375659942627 0.0213358495384455
vertex -0.0129548637196422 -6.2956371307373 0.0173271130770445
endloop
endfacet
facet normal 4.85345345826957e-17 0.00907062646001577 0.99995881319046
outer loop
vertex 0.0429548807442188 -6.29563903808594 0.0173271298408508
vertex -0.0129548637196422 -6.2956371307373 0.0173271130770445
vertex 0.0473743341863155 -6.7375659942627 0.0213358495384455
endloop
endfacet
facet normal 7.1851230729516e-17 0.00907062646001577 0.999958872795105
outer loop
vertex -0.017374262213707 -6.73755884170532 0.0213357843458652
vertex -0.0228724516928196 -7.28735494613647 0.0263229869306087
vertex 0.0473743341863155 -6.7375659942627 0.0213358495384455
endloop
endfacet
facet normal 2.28768220111438e-16 0.00907062739133835 0.999958872795105
outer loop
vertex 0.0528725609183311 -7.28736591339111 0.0263230837881565
vertex 0.0473743341863155 -6.7375659942627 0.0213358495384455
vertex -0.0228724516928196 -7.28735494613647 0.0263229869306087
endloop
endfacet
facet normal -2.69450577293352e-17 0.00907062646001577 0.99995881319046
outer loop
vertex -0.0283706430345774 -7.83715152740479 0.0313101895153522
vertex 0.0583707839250565 -7.83716583251953 0.0313103199005127
vertex -0.0228724516928196 -7.28735494613647 0.0263229869306087
endloop
endfacet
facet normal 2.2877602869642e-16 0.00907062739133835 0.999958872795105
outer loop
vertex 0.0528725609183311 -7.28736591339111 0.0263230837881565
vertex -0.0228724516928196 -7.28735494613647 0.0263229869306087
vertex 0.0583707839250565 -7.83716583251953 0.0313103199005127
endloop
endfacet
facet normal -2.6944520061937e-17 0.00907062739133835 0.99995881319046
outer loop
vertex -0.0283706430345774 -7.83715152740479 0.0313101895153522
vertex -0.033900823444128 -8.39014720916748 0.0363264121115208
vertex 0.0583707839250565 -7.83716583251953 0.0313103199005127
endloop
endfacet
facet normal -1.19654335818645e-16 0.00907062739133835 0.999958872795105
outer loop
vertex 0.063900999724865 -8.39016437530518 0.0363265722990036
vertex 0.0583707839250565 -7.83716583251953 0.0313103199005127
vertex -0.033900823444128 -8.39014720916748 0.0363264121115208
endloop
endfacet
facet normal -2.05504963140911e-16 0.00907062646001577 0.99995881319046
outer loop
vertex -0.0397967137396336 -8.97971153259277 0.0416743531823158
vertex 0.0697968974709511 -8.97972965240479 0.041674517095089
vertex -0.033900823444128 -8.39014720916748 0.0363264121115208
endloop
endfacet
facet normal -1.19654481402433e-16 0.00907062646001577 0.999958872795105
outer loop
vertex 0.063900999724865 -8.39016437530518 0.0363265722990036
vertex -0.033900823444128 -8.39014720916748 0.0363264121115208
vertex 0.0697968974709511 -8.97972965240479 0.041674517095089
endloop
endfacet
facet normal -2.05500780915734e-16 0.00907062646001577 0.999958872795105
outer loop
vertex -0.0397967137396336 -8.97971153259277 0.0416743531823158
vertex -0.0461631342768669 -9.6163272857666 0.0474490933120251
vertex 0.0697968974709511 -8.97972965240479 0.041674517095089
endloop
endfacet
facet normal 6.11044605065577e-17 0.00907062646001577 0.999958872795105
outer loop
vertex 0.07616326212883 -9.61634063720703 0.0474492125213146
vertex 0.0697968974709511 -8.97972965240479 0.041674517095089
vertex -0.0461631342768669 -9.6163272857666 0.0474490933120251
endloop
endfacet
facet normal 3.43577871578924e-17 0.00907062739133835 0.999958872795105
outer loop
vertex -0.0530249662697315 -10.3024826049805 0.0536732077598572
vertex 0.0830249935388565 -10.3024854660034 0.053673230111599
vertex -0.0461631342768669 -9.6163272857666 0.0474490933120251
endloop
endfacet
facet normal 6.11113360318092e-17 0.00907062739133835 0.999958872795105
outer loop
vertex 0.07616326212883 -9.61634063720703 0.0474492125213146
vertex -0.0461631342768669 -9.6163272857666 0.0474490933120251
vertex 0.0830249935388565 -10.3024854660034 0.053673230111599
endloop
endfacet
facet normal 3.43569004202757e-17 0.00907062739133835 0.999958872795105
outer loop
vertex -0.0530249662697315 -10.3024826049805 0.0536732077598572
vertex -0.0599999986588955 -10.9999570846558 0.0599999986588955
vertex 0.0830249935388565 -10.3024854660034 0.053673230111599
endloop
endfacet
facet normal -4.6257392383121e-17 0.00907062739133835 0.99995893239975
outer loop
vertex 0.0900000035762787 -10.9999570846558 0.0599999986588955
vertex 0.0830249935388565 -10.3024854660034 0.053673230111599
vertex -0.0599999986588955 -10.9999570846558 0.0599999986588955
endloop
endfacet
facet normal -0.707106232643127 0.000656893826089799 0.707107067108154
outer loop
vertex -0.0582523941993713 -10.4033002853394 0.0911933183670044
vertex -0.0599999986588955 -10.9999570846558 0.0900000035762787
vertex -0.0540334023535252 -10.4033212661743 0.0954123213887215
endloop
endfacet
facet normal -0.707106232643127 0.000656893826089799 0.707107067108154
outer loop
vertex -0.0565047860145569 -9.80664443969727 0.0923866331577301
vertex -0.0582523941993713 -10.4033002853394 0.0911933183670044
vertex -0.0480668097734451 -9.80668640136719 0.100824646651745
endloop
endfacet
facet normal -0.707106232643127 0.000656893826089799 0.707107067108154
outer loop
vertex -0.0540334023535252 -10.4033212661743 0.0954123213887215
vertex -0.0480668097734451 -9.80668640136719 0.100824646651745
vertex -0.0582523941993713 -10.4033002853394 0.0911933183670044
endloop
endfacet
facet normal -0.707106232643127 0.000656893826089799 0.707107067108154
outer loop
vertex -0.0565047860145569 -9.80664443969727 0.0923866331577301
vertex -0.0480668097734451 -9.80668640136719 0.100824646651745
vertex -0.0547571778297424 -9.20998764038086 0.0935799553990364
endloop
endfacet
facet normal -0.707106232643127 0.00065689388429746 0.707107126712799
outer loop
vertex -0.0421002134680748 -9.21005058288574 0.106236964464188
vertex -0.0547571778297424 -9.20998764038086 0.0935799553990364
vertex -0.0480668097734451 -9.80668640136719 0.100824646651745
endloop
endfacet
facet normal -0.707106232643127 0.000656893826089799 0.707107067108154
outer loop
vertex -0.0530095733702183 -8.61333084106445 0.0947732701897621
vertex -0.0547571778297424 -9.20998764038086 0.0935799553990364
vertex -0.0361336171627045 -8.61341571807861 0.111649289727211
endloop
endfacet
facet normal -0.707106232643127 0.00065689388429746 0.707107126712799
outer loop
vertex -0.0421002134680748 -9.21005058288574 0.106236964464188
vertex -0.0361336171627045 -8.61341571807861 0.111649289727211
vertex -0.0547571778297424 -9.20998764038086 0.0935799553990364
endloop
endfacet
facet normal -0.707106232643127 0.000656893826089799 0.707107067108154
outer loop
vertex -0.0530095733702183 -8.61333084106445 0.0947732701897621
vertex -0.0361336171627045 -8.61341571807861 0.111649289727211
vertex -0.0512619651854038 -8.01667404174805 0.0959665924310684
endloop
endfacet
facet normal -0.707106232643127 0.00065689388429746 0.707107067108154
outer loop
vertex -0.0301670208573341 -8.01677989959717 0.117061607539654
vertex -0.0512619651854038 -8.01667404174805 0.0959665924310684
vertex -0.0361336171627045 -8.61341571807861 0.111649289727211
endloop
endfacet
facet normal -0.707106232643127 0.00065689388429746 0.707107126712799
outer loop
vertex -0.0495143570005894 -7.4200177192688 0.0971599072217941
vertex -0.0512619651854038 -8.01667404174805 0.0959665924310684
vertex -0.0242004245519638 -7.42014503479004 0.122473932802677
endloop
endfacet
facet normal -0.707106232643127 0.00065689388429746 0.707107067108154
outer loop
vertex -0.0301670208573341 -8.01677989959717 0.117061607539654
vertex -0.0242004245519638 -7.42014503479004 0.122473932802677
vertex -0.0512619651854038 -8.01667404174805 0.0959665924310684
endloop
endfacet
facet normal -0.707106232643127 0.00065689388429746 0.707107126712799
outer loop
vertex -0.0495143570005894 -7.4200177192688 0.0971599072217941
vertex -0.0242004245519638 -7.42014503479004 0.122473932802677
vertex -0.0477667525410652 -6.82336139678955 0.0983532294631004
endloop
endfacet
facet normal -0.707106232643127 0.00065689388429746 0.707107067108154
outer loop
vertex -0.0182338282465935 -6.82350969314575 0.12788625061512
vertex -0.0477667525410652 -6.82336139678955 0.0983532294631004
vertex -0.0242004245519638 -7.42014503479004 0.122473932802677
endloop
endfacet
facet normal -0.707106173038483 0.000656893826089799 0.707107067108154
outer loop
vertex -0.0477667525410652 -6.82336139678955 0.0983532294631004
vertex -0.0182338282465935 -6.82350969314575 0.12788625061512
vertex -0.0462888590991497 -6.31878852844238 0.0993623808026314
endloop
endfacet
facet normal -0.707106173038483 0.000656893942505121 0.707107067108154
outer loop
vertex -0.013188011944294 -6.31894826889038 0.132463335990906
vertex -0.0462888590991497 -6.31878852844238 0.0993623808026314
vertex -0.0182338282465935 -6.82350969314575 0.12788625061512
endloop
endfacet
facet normal -0.707106173038483 0.000656893942505121 0.707107067108154
outer loop
vertex -0.0462888590991497 -6.31878852844238 0.0993623808026314
vertex -0.013188011944294 -6.31894826889038 0.132463335990906
vertex -0.0453550927340984 -5.9999885559082 0.0999999791383743
endloop
endfacet
facet normal -0.707106173038483 0.00065689388429746 0.707107067108154
outer loop
vertex -0.0100000277161598 -6.00016260147095 0.135355159640312
vertex -0.0453550927340984 -5.9999885559082 0.0999999791383743
vertex -0.013188011944294 -6.31894826889038 0.132463335990906
endloop
endfacet
facet normal 0 -0.00907103344798088 0.99995881319046
outer loop
vertex -0.00999999977648258 -6.00016260147095 0.135355159640312
vertex -0.0129548637196422 -6.2956371307373 0.132674798369408
vertex 0.0399999991059303 -6.00016260147095 0.135355159640312
endloop
endfacet
facet normal -6.32226874138267e-16 -0.00907103344798088 0.999958872795105
outer loop
vertex 0.0429548807442188 -6.29563903808594 0.132674783468246
vertex 0.0399999991059303 -6.00016260147095 0.135355159640312
vertex -0.0129548637196422 -6.2956371307373 0.132674798369408
endloop
endfacet
facet normal -1.99481658913426e-16 -0.00907103251665831 0.999958872795105
outer loop
vertex -0.017374262213707 -6.73755884170532 0.128665938973427
vertex 0.0473743341863155 -6.7375659942627 0.128665879368782
vertex -0.0129548637196422 -6.2956371307373 0.132674798369408
endloop
endfacet
facet normal -6.32230897544767e-16 -0.00907103251665831 0.99995881319046
outer loop
vertex 0.0429548807442188 -6.29563903808594 0.132674783468246
vertex -0.0129548637196422 -6.2956371307373 0.132674798369408
vertex 0.0473743341863155 -6.7375659942627 0.128665879368782
endloop
endfacet
facet normal -1.99491161564303e-16 -0.00907103251665831 0.999958872795105
outer loop
vertex -0.017374262213707 -6.73755884170532 0.128665938973427
vertex -0.0228724516928196 -7.28735494613647 0.123678520321846
vertex 0.0473743341863155 -6.7375659942627 0.128665879368782
endloop
endfacet
facet normal -4.92181940650149e-16 -0.00907103251665831 0.999958872795105
outer loop
vertex 0.0528725609183311 -7.28736591339111 0.123678423464298
vertex 0.0473743341863155 -6.7375659942627 0.128665879368782
vertex -0.0228724516928196 -7.28735494613647 0.123678520321846
endloop
endfacet
facet normal -4.4939693667324e-17 -0.00907103251665831 0.99995881319046
outer loop
vertex -0.0283706430345774 -7.83715152740479 0.118691094219685
vertex 0.0583707839250565 -7.83716583251953 0.118690967559814
vertex -0.0228724516928196 -7.28735494613647 0.123678520321846
endloop
endfacet
facet normal -4.92181940650149e-16 -0.00907103251665831 0.999958872795105
outer loop
vertex 0.0528725609183311 -7.28736591339111 0.123678423464298
vertex -0.0228724516928196 -7.28735494613647 0.123678520321846
vertex 0.0583707839250565 -7.83716583251953 0.118690967559814
endloop
endfacet
facet normal -4.49550825354399e-17 -0.00907103251665831 0.99995881319046
outer loop
vertex -0.0283706430345774 -7.83715152740479 0.118691094219685
vertex -0.033900823444128 -8.39014720916748 0.113674648106098
vertex 0.0583707839250565 -7.83716583251953 0.118690967559814
endloop
endfacet
facet normal -3.9618364686154e-16 -0.00907103251665831 0.999958872795105
outer loop
vertex 0.063900999724865 -8.39016437530518 0.113674484193325
vertex 0.0583707839250565 -7.83716583251953 0.118690967559814
vertex -0.033900823444128 -8.39014720916748 0.113674648106098
endloop
endfacet
facet normal 1.68609041756571e-16 -0.00907103251665831 0.99995881319046
outer loop
vertex -0.0397967137396336 -8.97971153259277 0.108326464891434
vertex 0.0697968974709511 -8.97972965240479 0.108326300978661
vertex -0.033900823444128 -8.39014720916748 0.113674648106098
endloop
endfacet
facet normal -3.96209190198856e-16 -0.00907103344798088 0.999958872795105
outer loop
vertex 0.063900999724865 -8.39016437530518 0.113674484193325
vertex -0.033900823444128 -8.39014720916748 0.113674648106098
vertex 0.0697968974709511 -8.97972965240479 0.108326300978661
endloop
endfacet
facet normal 1.68615632731692e-16 -0.00907103251665831 0.999958872795105
outer loop
vertex -0.0397967137396336 -8.97971153259277 0.108326464891434
vertex -0.0461631342768669 -9.6163272857666 0.102551467716694
vertex 0.0697968974709511 -8.97972965240479 0.108326300978661
endloop
endfacet
facet normal 1.98492033263458e-16 -0.00907103344798088 0.999958872795105
outer loop
vertex 0.07616326212883 -9.61634063720703 0.102551348507404
vertex 0.0697968974709511 -8.97972965240479 0.108326300978661
vertex -0.0461631342768669 -9.6163272857666 0.102551467716694
endloop
endfacet
facet normal -1.0642092170801e-16 -0.00907103344798088 0.999958872795105
outer loop
vertex -0.0530249662697315 -10.3024826049805 0.0963270738720894
vertex 0.0830249935388565 -10.3024854660034 0.0963270515203476
vertex -0.0461631342768669 -9.6163272857666 0.102551467716694
endloop
endfacet
facet normal 1.98491133290951e-16 -0.00907103344798088 0.999958872795105
outer loop
vertex 0.07616326212883 -9.61634063720703 0.102551348507404
vertex -0.0461631342768669 -9.6163272857666 0.102551467716694
vertex 0.0830249935388565 -10.3024854660034 0.0963270515203476
endloop
endfacet
facet normal -1.06420623922989e-16 -0.00907103344798088 0.999958872795105
outer loop
vertex -0.0530249662697315 -10.3024826049805 0.0963270738720894
vertex -0.0599999986588955 -10.9999570846558 0.0900000035762787
vertex 0.0830249935388565 -10.3024854660034 0.0963270515203476
endloop
endfacet
facet normal -9.25147847662419e-17 -0.00907103344798088 0.99995893239975
outer loop
vertex 0.0900000035762787 -10.9999570846558 0.0900000035762787
vertex 0.0830249935388565 -10.3024854660034 0.0963270515203476
vertex -0.0599999986588955 -10.9999570846558 0.0900000035762787
endloop
endfacet
facet normal -1 -4.99922286540836e-17 1.38777878078145e-16
outer loop
vertex -0.045354999601841 -5.29180097579956 0.0500000007450581
vertex -0.045354999601841 -5.70819902420044 0.0500000007450581
vertex -0.045354999601841 -5.29180097579956 0.100000001490116
endloop
endfacet
facet normal -1 2.37795566391029e-17 1.38777878078145e-16
outer loop
vertex -0.045354999601841 -5.29180097579956 0.100000001490116
vertex -0.045354999601841 -5 0.100000001490116
vertex -0.045354999601841 -5.29180097579956 0.0500000007450581
endloop
endfacet
facet normal -1 4.75591132782058e-17 0
outer loop
vertex -0.045354999601841 -5 0.0500000007450581
vertex -0.045354999601841 -5.29180097579956 0.0500000007450581
vertex -0.045354999601841 -5 0.100000001490116
endloop
endfacet
facet normal -1 -3.33281491273333e-17 -0
outer loop
vertex -0.045354999601841 -5.70819902420044 0.100000001490116
vertex -0.045354999601841 -5.29180097579956 0.100000001490116
vertex -0.045354999601841 -5.70819902420044 0.0500000007450581
endloop
endfacet
facet normal -1 2.37795566391029e-17 0
outer loop
vertex -0.045354999601841 -5.70819902420044 0.0500000007450581
vertex -0.045354999601841 -6 0.0500000007450581
vertex -0.045354999601841 -5.70819902420044 0.100000001490116
endloop
endfacet
facet normal -1 2.37795566391029e-17 0
outer loop
vertex -0.045354999601841 -6 0.100000001490116
vertex -0.045354999601841 -5.70819902420044 0.100000001490116
vertex -0.045354999601841 -6 0.0500000007450581
endloop
endfacet
facet normal -0.70710676908493 3.30010781975344e-33 -0.70710676908493
outer loop
vertex -0.045354999601841 -5.70819902420044 0.0500000007450581
vertex -0.00999999977648258 -5.70819902420044 0.0146449999883771
vertex -0.045354999601841 -6 0.0500000007450581
endloop
endfacet
facet normal -0.707106828689575 -4.71331284976308e-17 -0.707106828689575
outer loop
vertex -0.045354999601841 -5.70819902420044 0.0500000007450581
vertex -0.045354999601841 -5.29180097579956 0.0500000007450581
vertex -0.00999999977648258 -5.70819902420044 0.0146449999883771
endloop
endfacet
facet normal -0.70710676908493 6.72587438209563e-17 -0.70710676908493
outer loop
vertex -0.045354999601841 -5.29180097579956 0.0500000007450581
vertex -0.045354999601841 -5 0.0500000007450581
vertex -0.00999999977648258 -5.29180097579956 0.0146449999883771
endloop
endfacet
facet normal -0.70710676908493 4.20367148880977e-18 -0.70710676908493
outer loop
vertex -0.00999999977648258 -5 0.0146449999883771
vertex -0.00999999977648258 -5.29180097579956 0.0146449999883771
vertex -0.045354999601841 -5 0.0500000007450581
endloop
endfacet
facet normal -0.707106828689575 -2.94582053110193e-18 -0.707106828689575
outer loop
vertex -0.00999999977648258 -5.29180097579956 0.0146449999883771
vertex -0.00999999977648258 -5.70819902420044 0.0146449999883771
vertex -0.045354999601841 -5.29180097579956 0.0500000007450581
endloop
endfacet
facet normal -0.70710676908493 0 -0.70710676908493
outer loop
vertex -0.00999999977648258 -6 0.0146449999883771
vertex -0.045354999601841 -6 0.0500000007450581
vertex -0.00999999977648258 -5.70819902420044 0.0146449999883771
endloop
endfacet
facet normal -0.70710676908493 5.04440545569948e-17 0.70710676908493
outer loop
vertex -0.045354999601841 -5 0.100000001490116
vertex -0.045354999601841 -5.29180097579956 0.100000001490116
vertex -0.00999999977648258 -5 0.135354995727539
endloop
endfacet
facet normal -0.70710676908493 4.20367148880977e-18 0.70710676908493
outer loop
vertex -0.00999999977648258 -5.29180097579956 0.135354995727539
vertex -0.00999999977648258 -5 0.135354995727539
vertex -0.045354999601841 -5.29180097579956 0.100000001490116
endloop
endfacet
facet normal -0.707106828689575 -2.35665642488154e-17 0.707106828689575
outer loop
vertex -0.045354999601841 -5.29180097579956 0.100000001490116
vertex -0.045354999601841 -5.70819902420044 0.100000001490116
vertex -0.00999999977648258 -5.29180097579956 0.135354995727539
endloop
endfacet
facet normal -0.707106828689575 -2.94582053110193e-18 0.707106828689575
outer loop
vertex -0.00999999977648258 -5.70819902420044 0.135354995727539
vertex -0.00999999977648258 -5.29180097579956 0.135354995727539
vertex -0.045354999601841 -5.70819902420044 0.100000001490116
endloop
endfacet
facet normal -0.70710676908493 -1.68146859552391e-17 0.70710676908493
outer loop
vertex -0.045354999601841 -5.70819902420044 0.100000001490116
vertex -0.045354999601841 -6 0.100000001490116
vertex -0.00999999977648258 -5.70819902420044 0.135354995727539
endloop
endfacet
facet normal -0.70710676908493 0 0.70710676908493
outer loop
vertex -0.00999999977648258 -6 0.135354995727539
vertex -0.00999999977648258 -5.70819902420044 0.135354995727539
vertex -0.045354999601841 -6 0.100000001490116
endloop
endfacet
facet normal 0 0 -1
outer loop
vertex -0.00999999977648258 -5.29180097579956 0.0146449999883771
vertex -0.00999999977648258 -5 0.0146449999883771
vertex 0.0399999991059303 -5.29180097579956 0.0146449999883771
endloop
endfacet
facet normal -0 0 -1
outer loop
vertex 0.0399999991059303 -5 0.0146449999883771
vertex 0.0399999991059303 -5.29180097579956 0.0146449999883771
vertex -0.00999999977648258 -5 0.0146449999883771
endloop
endfacet
facet normal 0 0 -1
outer loop
vertex -0.00999999977648258 -5.70819902420044 0.0146449999883771
vertex 0.0399999991059303 -5.70819902420044 0.0146449999883771
vertex -0.00999999977648258 -6 0.0146449999883771
endloop
endfacet
facet normal -0 -0 -1
outer loop
vertex 0.0399999991059303 -5.29180097579956 0.0146449999883771
vertex 0.0399999991059303 -5.70819902420044 0.0146449999883771
vertex -0.00999999977648258 -5.29180097579956 0.0146449999883771
endloop
endfacet
facet normal 0 0 -1
outer loop
vertex -0.00999999977648258 -5.70819902420044 0.0146449999883771
vertex -0.00999999977648258 -5.29180097579956 0.0146449999883771
vertex 0.0399999991059303 -5.70819902420044 0.0146449999883771
endloop
endfacet
facet normal 0 0 -1
outer loop
vertex 0.0399999991059303 -6 0.0146449999883771
vertex -0.00999999977648258 -6 0.0146449999883771
vertex 0.0399999991059303 -5.70819902420044 0.0146449999883771
endloop
endfacet
facet normal -0 0 1
outer loop
vertex -0.00999999977648258 -5 0.135354995727539
vertex -0.00999999977648258 -5.29180097579956 0.135354995727539
vertex 0.0399999991059303 -5 0.135354995727539
endloop
endfacet
facet normal -5.55111512312578e-16 9.51182265564117e-17 1
outer loop
vertex 0.0399999991059303 -5.29180097579956 0.135354995727539
vertex 0.0399999991059303 -5 0.135354995727539
vertex -0.00999999977648258 -5.29180097579956 0.135354995727539
endloop
endfacet
facet normal -5.55111512312578e-16 -2.31260495399939e-33 1
outer loop
vertex -0.00999999977648258 -5.29180097579956 0.135354995727539
vertex -0.00999999977648258 -5.70819902420044 0.135354995727539
vertex 0.0399999991059303 -5.29180097579956 0.135354995727539
endloop
endfacet
facet normal 0 -6.66562982546666e-17 1
outer loop
vertex 0.0399999991059303 -5.70819902420044 0.135354995727539
vertex 0.0399999991059303 -5.29180097579956 0.135354995727539
vertex -0.00999999977648258 -5.70819902420044 0.135354995727539
endloop
endfacet
facet normal -0 0 1
outer loop
vertex -0.00999999977648258 -5.70819902420044 0.135354995727539
vertex -0.00999999977648258 -6 0.135354995727539
vertex 0.0399999991059303 -5.70819902420044 0.135354995727539
endloop
endfacet
facet normal 0 0 1
outer loop
vertex 0.0399999991059303 -6 0.135354995727539
vertex 0.0399999991059303 -5.70819902420044 0.135354995727539
vertex -0.00999999977648258 -6 0.135354995727539
endloop
endfacet
facet normal 0.70710676908493 -1.68146859552391e-17 -0.70710676908493
outer loop
vertex 0.0399999991059303 -5 0.0146449999883771
vertex 0.0753550007939339 -5 0.0500000007450581
vertex 0.0399999991059303 -5.29180097579956 0.0146449999883771
endloop
endfacet
facet normal 0.70710676908493 6.60021563950689e-33 -0.70710676908493
outer loop
vertex 0.0753550007939339 -5.29180097579956 0.0500000007450581
vertex 0.0399999991059303 -5.29180097579956 0.0146449999883771
vertex 0.0753550007939339 -5 0.0500000007450581
endloop
endfacet
facet normal 0.707106828689575 0 -0.707106828689575
outer loop
vertex 0.0399999991059303 -5.70819902420044 0.0146449999883771
vertex 0.0399999991059303 -5.29180097579956 0.0146449999883771
vertex 0.0753550007939339 -5.70819902420044 0.0500000007450581
endloop
endfacet
facet normal 0.707106828689575 1.17832821244077e-17 -0.707106828689575
outer loop
vertex 0.0753550007939339 -5.29180097579956 0.0500000007450581
vertex 0.0753550007939339 -5.70819902420044 0.0500000007450581
vertex 0.0399999991059303 -5.29180097579956 0.0146449999883771
endloop
endfacet
facet normal 0.70710676908493 1.68146859552391e-17 -0.70710676908493
outer loop
vertex 0.0399999991059303 -6 0.0146449999883771
vertex 0.0399999991059303 -5.70819902420044 0.0146449999883771
vertex 0.0753550007939339 -6 0.0500000007450581
endloop
endfacet
facet normal 0.70710676908493 -1.68146859552391e-17 -0.70710676908493
outer loop
vertex 0.0753550007939339 -5.70819902420044 0.0500000007450581
vertex 0.0753550007939339 -6 0.0500000007450581
vertex 0.0399999991059303 -5.70819902420044 0.0146449999883771
endloop
endfacet
facet normal 0.70710676908493 5.04440545569948e-17 0.70710676908493
outer loop
vertex 0.0399999991059303 -5 0.135354995727539
vertex 0.0399999991059303 -5.29180097579956 0.135354995727539
vertex 0.0753550007939339 -5 0.100000001490116
endloop
endfacet
facet normal 0.70710676908493 -3.36293719104782e-17 0.70710676908493
outer loop
vertex 0.0753550007939339 -5.29180097579956 0.100000001490116
vertex 0.0753550007939339 -5 0.100000001490116
vertex 0.0399999991059303 -5.29180097579956 0.135354995727539
endloop
endfacet
facet normal 0.707106828689575 -4.71331284976308e-17 0.707106828689575
outer loop
vertex 0.0399999991059303 -5.29180097579956 0.135354995727539
vertex 0.0399999991059303 -5.70819902420044 0.135354995727539
vertex 0.0753550007939339 -5.29180097579956 0.100000001490116
endloop
endfacet
facet normal 0.707106828689575 4.71331284976308e-17 0.707106828689575
outer loop
vertex 0.0753550007939339 -5.70819902420044 0.100000001490116
vertex 0.0753550007939339 -5.29180097579956 0.100000001490116
vertex 0.0399999991059303 -5.70819902420044 0.135354995727539
endloop
endfacet
facet normal 0.70710676908493 1.68146859552391e-17 0.70710676908493
outer loop
vertex 0.0399999991059303 -5.70819902420044 0.135354995727539
vertex 0.0399999991059303 -6 0.135354995727539
vertex 0.0753550007939339 -5.70819902420044 0.100000001490116
endloop
endfacet
facet normal 0.70710676908493 -3.36293719104782e-17 0.70710676908493
outer loop
vertex 0.0753550007939339 -6 0.100000001490116
vertex 0.0753550007939339 -5.70819902420044 0.100000001490116
vertex 0.0399999991059303 -6 0.135354995727539
endloop
endfacet
facet normal 1 -4.75591132782058e-17 0
outer loop
vertex 0.0753550007939339 -5 0.100000001490116
vertex 0.0753550007939339 -5.29180097579956 0.100000001490116
vertex 0.0753550007939339 -5 0.0500000007450581
endloop
endfacet
facet normal 1 -4.75591132782058e-17 0
outer loop
vertex 0.0753550007939339 -5.29180097579956 0.0500000007450581
vertex 0.0753550007939339 -5 0.0500000007450581
vertex 0.0753550007939339 -5.29180097579956 0.100000001490116
endloop
endfacet
facet normal 1 3.33281491273333e-17 -0
outer loop
vertex 0.0753550007939339 -5.29180097579956 0.0500000007450581
vertex 0.0753550007939339 -5.29180097579956 0.100000001490116
vertex 0.0753550007939339 -5.70819902420044 0.0500000007450581
endloop
endfacet
facet normal 1 3.33281491273333e-17 0
outer loop
vertex 0.0753550007939339 -5.70819902420044 0.100000001490116
vertex 0.0753550007939339 -5.70819902420044 0.0500000007450581
vertex 0.0753550007939339 -5.29180097579956 0.100000001490116
endloop
endfacet
facet normal 1 0 -0
outer loop
vertex 0.0753550007939339 -5.70819902420044 0.0500000007450581
vertex 0.0753550007939339 -5.70819902420044 0.100000001490116
vertex 0.0753550007939339 -6 0.0500000007450581
endloop
endfacet
facet normal 1 -0 0
outer loop
vertex 0.0753550007939339 -6 0.100000001490116
vertex 0.0753550007939339 -6 0.0500000007450581
vertex 0.0753550007939339 -5.70819902420044 0.100000001490116
endloop
endfacet
facet normal -0.99995881319046 0.00907103251665831 0
outer loop
vertex 0 0 0
vertex -0.00632707634940743 -0.697474718093872 0.00697503425180912
vertex 0 0 0.150000005960464
endloop
endfacet
facet normal -0.999958872795105 0.00907103251665831 1.42332984545612e-17
outer loop
vertex -0.00632707634940743 -0.697474718093872 0.14302496612072
vertex 0 0 0.150000005960464
vertex -0.00632707634940743 -0.697474718093872 0.00697503425180912
endloop
endfacet
facet normal -0.99995881319046 0.00907103251665831 1.42332968001999e-17
outer loop
vertex -0.00632707634940743 -0.697474718093872 0.00697503425180912
vertex -0.0125514669343829 -1.38362979888916 0.0138368671759963
vertex -0.00632707634940743 -0.697474718093872 0.14302496612072
endloop
endfacet
facet normal -0.99995893239975 0.00907103344798088 5.53775582536081e-17
outer loop
vertex -0.0125514669343829 -1.38362979888916 0.136163130402565
vertex -0.00632707634940743 -0.697474718093872 0.14302496612072
vertex -0.0125514669343829 -1.38362979888916 0.0138368671759963
endloop
endfacet
facet normal -0.999958872795105 0.00907103251665831 5.53775549448856e-17
outer loop
vertex -0.0125514669343829 -1.38362979888916 0.136163130402565
vertex -0.0125514669343829 -1.38362979888916 0.0138368671759963
vertex -0.0183264687657356 -2.02024555206299 0.129796713590622
endloop
endfacet
facet normal -0.999958872795105 0.00907103344798088 6.84133423722925e-17
outer loop
vertex -0.0183264687657356 -2.02024555206299 0.0202032867819071
vertex -0.0183264687657356 -2.02024555206299 0.129796713590622
vertex -0.0125514669343829 -1.38362979888916 0.0138368671759963
endloop
endfacet
facet normal -0.99995881319046 0.00907103251665831 6.84133357548476e-17
outer loop
vertex -0.0183264687657356 -2.02024555206299 0.0202032867819071
vertex -0.0236746482551098 -2.60981035232544 0.0260991770774126
vertex -0.0183264687657356 -2.02024555206299 0.129796713590622
endloop
endfacet
facet normal -0.999958872795105 0.00907103251665831 1.71482878962817e-17
outer loop
vertex -0.0236746482551098 -2.60981035232544 0.123900823295116
vertex -0.0183264687657356 -2.02024555206299 0.129796713590622
vertex -0.0236746482551098 -2.60981035232544 0.0260991770774126
endloop
endfacet
facet normal -0.999958872795105 0.00907103251665831 1.71482878962817e-17
outer loop
vertex -0.0236746482551098 -2.60981035232544 0.123900823295116
vertex -0.0236746482551098 -2.60981035232544 0.0260991770774126
vertex -0.0286910943686962 -3.16280555725098 0.118370644748211
endloop
endfacet
facet normal -0.99995881319046 0.00907103251665831 4.64409470697689e-17
outer loop
vertex -0.0286910943686962 -3.16280555725098 0.0316293574869633
vertex -0.0286910943686962 -3.16280555725098 0.118370644748211
vertex -0.0236746482551098 -2.60981035232544 0.0260991770774126
endloop
endfacet
facet normal -0.99995881319046 0.00907103344798088 4.64409536872138e-17
outer loop
vertex -0.0286910943686962 -3.16280555725098 0.0316293574869633
vertex -0.0336785204708576 -3.71260190010071 0.0371275469660759
vertex -0.0286910943686962 -3.16280555725098 0.118370644748211
endloop
endfacet
facet normal -0.999958872795105 0.00907103251665831 0
outer loop
vertex -0.0336785204708576 -3.71260190010071 0.112872451543808
vertex -0.0286910943686962 -3.16280555725098 0.118370644748211
vertex -0.0336785204708576 -3.71260190010071 0.0371275469660759
endloop
endfacet
facet normal -0.999958872795105 0.00907103251665831 0
outer loop
vertex -0.0336785204708576 -3.71260190010071 0.112872451543808
vertex -0.0336785204708576 -3.71260190010071 0.0371275469660759
vertex -0.038665946573019 -4.26239824295044 0.107374265789986
endloop
endfacet
facet normal -0.999958872795105 0.00907103251665831 -1.72681480214019e-17
outer loop
vertex -0.038665946573019 -4.26239824295044 0.0426257364451885
vertex -0.038665946573019 -4.26239824295044 0.107374265789986
vertex -0.0336785204708576 -3.71260190010071 0.0371275469660759
endloop
endfacet
facet normal -0.999958872795105 0.00907103251665831 -1.72681480214019e-17
outer loop
vertex -0.038665946573019 -4.26239824295044 0.0426257364451885
vertex -0.0426747985184193 -4.70431995391846 0.0470451377332211
vertex -0.038665946573019 -4.26239824295044 0.107374265789986
endloop
endfacet
facet normal -0.99995881319046 0.00907103251665831 1.24103773420793e-16
outer loop
vertex -0.0426747985184193 -4.70431995391846 0.102954864501953
vertex -0.038665946573019 -4.26239824295044 0.107374265789986
vertex -0.0426747985184193 -4.70431995391846 0.0470451377332211
endloop
endfacet
facet normal -0.999958872795105 0.00907103251665831 1.24103773420793e-16
outer loop
vertex -0.0426747985184193 -4.70431995391846 0.102954864501953
vertex -0.0426747985184193 -4.70431995391846 0.0470451377332211
vertex -0.0453551635146141 -4.99979448318481 0.100000001490116
endloop
endfacet
facet normal -0.99995881319046 0.00907103344798088 0
outer loop
vertex -0.0453551635146141 -4.99979448318481 0.0500000007450581
vertex -0.0453551635146141 -4.99979448318481 0.100000001490116
vertex -0.0426747985184193 -4.70431995391846 0.0470451377332211
endloop
endfacet
facet normal -0.707107067108154 -0.000656893826089799 -0.707106232643127
outer loop
vertex -0.00119331816677004 -0.596656560897827 0.00174760702066123
vertex -0.00541232153773308 -0.596635341644287 0.00596659583970904
vertex 0 0 0
endloop
endfacet
facet normal -0.707107067108154 -0.000656893826089799 -0.707106232643127
outer loop
vertex -0.00238663633354008 -1.19331312179565 0.00349521404132247
vertex -0.0108246430754662 -1.19327068328857 0.0119331916794181
vertex -0.00119331816677004 -0.596656560897827 0.00174760702066123
endloop
endfacet
facet normal -0.707107067108154 -0.000656893826089799 -0.707106232643127
outer loop
vertex -0.00541232153773308 -0.596635341644287 0.00596659583970904
vertex -0.00119331816677004 -0.596656560897827 0.00174760702066123
vertex -0.0108246430754662 -1.19327068328857 0.0119331916794181
endloop
endfacet
facet normal -0.707107067108154 -0.000656893826089799 -0.707106232643127
outer loop
vertex -0.00238663633354008 -1.19331312179565 0.00349521404132247
vertex -0.00357995461672544 -1.78996968269348 0.00524282082915306
vertex -0.0108246430754662 -1.19327068328857 0.0119331916794181
endloop
endfacet
facet normal -0.707107126712799 -0.00065689388429746 -0.707106232643127
outer loop
vertex -0.0162369646131992 -1.78990614414215 0.0178997870534658
vertex -0.0108246430754662 -1.19327068328857 0.0119331916794181
vertex -0.00357995461672544 -1.78996968269348 0.00524282082915306
endloop
endfacet
facet normal -0.707107067108154 -0.000656893826089799 -0.707106232643127
outer loop
vertex -0.00477327266708016 -2.38662624359131 0.00699042808264494
vertex -0.0216492861509323 -2.38654136657715 0.0238663833588362
vertex -0.00357995461672544 -1.78996968269348 0.00524282082915306
endloop
endfacet
facet normal -0.707107126712799 -0.00065689388429746 -0.707106232643127
outer loop
vertex -0.0162369646131992 -1.78990614414215 0.0178997870534658
vertex -0.00357995461672544 -1.78996968269348 0.00524282082915306
vertex -0.0216492861509323 -2.38654136657715 0.0238663833588362
endloop
endfacet
facet normal -0.707107067108154 -0.000656893826089799 -0.707106232643127
outer loop
vertex -0.00477327266708016 -2.38662624359131 0.00699042808264494
vertex -0.00596659118309617 -2.98328280448914 0.00873803533613682
vertex -0.0216492861509323 -2.38654136657715 0.0238663833588362
endloop
endfacet
facet normal -0.707107067108154 -0.00065689388429746 -0.707106232643127
outer loop
vertex -0.0270616076886654 -2.98317694664001 0.0298329796642065
vertex -0.0216492861509323 -2.38654136657715 0.0238663833588362
vertex -0.00596659118309617 -2.98328280448914 0.00873803533613682
endloop
endfacet
facet normal -0.707107126712799 -0.00065689388429746 -0.707106232643127
outer loop
vertex -0.00715990923345089 -3.57993936538696 0.0104856416583061
vertex -0.0324739292263985 -3.5798122882843 0.0357995741069317
vertex -0.00596659118309617 -2.98328280448914 0.00873803533613682
endloop
endfacet
facet normal -0.707107067108154 -0.00065689388429746 -0.707106232643127
outer loop
vertex -0.0270616076886654 -2.98317694664001 0.0298329796642065
vertex -0.00596659118309617 -2.98328280448914 0.00873803533613682
vertex -0.0324739292263985 -3.5798122882843 0.0357995741069317
endloop
endfacet
facet normal -0.707107126712799 -0.00065689388429746 -0.707106232643127
outer loop
vertex -0.00715990923345089 -3.57993936538696 0.0104856416583061
vertex -0.0083532277494669 -4.17659568786621 0.012233248911798
vertex -0.0324739292263985 -3.5798122882843 0.0357995741069317
endloop
endfacet
facet normal -0.707107067108154 -0.00065689388429746 -0.707106232643127
outer loop
vertex -0.0378862507641315 -4.17644739151001 0.041766170412302
vertex -0.0324739292263985 -3.5798122882843 0.0357995741069317
vertex -0.0083532277494669 -4.17659568786621 0.012233248911798
endloop
endfacet
facet normal -0.707107067108154 -0.000656893826089799 -0.707106173038483
outer loop
vertex -0.0083532277494669 -4.17659568786621 0.012233248911798
vertex -0.00936237722635269 -4.68116855621338 0.0137111423537135
vertex -0.0378862507641315 -4.17644739151001 0.041766170412302
endloop
endfacet
facet normal -0.707107067108154 -0.000656893942505121 -0.707106173038483
outer loop
vertex -0.0424633324146271 -4.68100881576538 0.0468119867146015
vertex -0.0378862507641315 -4.17644739151001 0.041766170412302
vertex -0.00936237722635269 -4.68116855621338 0.0137111423537135
endloop
endfacet
facet normal -0.707107067108154 -0.000656893942505121 -0.707106173038483
outer loop
vertex -0.00936237722635269 -4.68116855621338 0.0137111423537135
vertex -0.00999998021870852 -4.99996852874756 0.0146449077874422
vertex -0.0424633324146271 -4.68100881576538 0.0468119867146015
endloop
endfacet
facet normal -0.707107067108154 -0.00065689388429746 -0.707106173038483
outer loop
vertex -0.0453551635146141 -4.99979448318481 0.0499999709427357
vertex -0.0424633324146271 -4.68100881576538 0.0468119867146015
vertex -0.00999998021870852 -4.99996852874756 0.0146449077874422
endloop
endfacet
facet normal 0.707107365131378 0.000656892545521259 -0.707105934619904
outer loop
vertex -0.00119331921450794 -0.596657037734985 0.14825239777565
vertex -0.00541228428483009 -0.59663587808609 0.144033432006836
vertex 0 0 0.150000005960464
endloop
endfacet
facet normal 0.707107365131378 0.000656892545521259 -0.707105934619904
outer loop
vertex -0.00238663842901587 -1.19331407546997 0.146504789590836
vertex -0.0108245685696602 -1.19327175617218 0.138066872954369
vertex -0.00119331921450794 -0.596657037734985 0.14825239777565
endloop
endfacet
facet normal 0.707107365131378 0.000656892545521259 -0.707105934619904
outer loop
vertex -0.00541228428483009 -0.59663587808609 0.144033432006836
vertex -0.00119331921450794 -0.596657037734985 0.14825239777565
vertex -0.0108245685696602 -1.19327175617218 0.138066872954369
endloop
endfacet
facet normal 0.707107365131378 0.000656892545521259 -0.707105934619904
outer loop
vertex -0.00238663842901587 -1.19331407546997 0.146504789590836
vertex -0.00357995764352381 -1.78997111320496 0.144757181406021
vertex -0.0108245685696602 -1.19327175617218 0.138066872954369
endloop
endfacet
facet normal 0.707107305526733 0.000656892545521259 -0.707105934619904
outer loop
vertex -0.0162368528544903 -1.78990769386292 0.132100313901901
vertex -0.0108245685696602 -1.19327175617218 0.138066872954369
vertex -0.00357995764352381 -1.78997111320496 0.144757181406021
endloop
endfacet
facet normal 0.707107365131378 0.000656892545521259 -0.707105934619904
outer loop
vertex -0.00477327685803175 -2.38662815093994 0.143009573221207
vertex -0.0216491371393204 -2.38654351234436 0.126133754849434
vertex -0.00357995764352381 -1.78997111320496 0.144757181406021
endloop
endfacet
facet normal 0.707107305526733 0.000656892545521259 -0.707105934619904
outer loop
vertex -0.0162368528544903 -1.78990769386292 0.132100313901901
vertex -0.00357995764352381 -1.78997111320496 0.144757181406021
vertex -0.0216491371393204 -2.38654351234436 0.126133754849434
endloop
endfacet
facet normal 0.707107365131378 0.000656892545521259 -0.707105934619904
outer loop
vertex -0.00477327685803175 -2.38662815093994 0.143009573221207
vertex -0.00596659630537033 -2.98328518867493 0.141261950135231
vertex -0.0216491371393204 -2.38654351234436 0.126133754849434
endloop
endfacet
facet normal 0.707107365131378 0.000656892545521259 -0.707105934619904
outer loop
vertex -0.0270614214241505 -2.98317933082581 0.120167188346386
vertex -0.0216491371393204 -2.38654351234436 0.126133754849434
vertex -0.00596659630537033 -2.98328518867493 0.141261950135231
endloop
endfacet
facet normal 0.707107305526733 0.000656892545521259 -0.707105934619904
outer loop
vertex -0.00715991528704762 -3.57994222640991 0.139514341950417
vertex -0.0324737057089806 -3.57981538772583 0.114200629293919
vertex -0.00596659630537033 -2.98328518867493 0.141261950135231
endloop
endfacet
facet normal 0.707107365131378 0.000656892545521259 -0.707105934619904
outer loop
vertex -0.0270614214241505 -2.98317933082581 0.120167188346386
vertex -0.00596659630537033 -2.98328518867493 0.141261950135231
vertex -0.0324737057089806 -3.57981538772583 0.114200629293919
endloop
endfacet
facet normal 0.707107305526733 0.000656892545521259 -0.707105934619904
outer loop
vertex -0.00715991528704762 -3.57994222640991 0.139514341950417
vertex -0.00835323426872492 -4.17659950256348 0.137766733765602
vertex -0.0324737057089806 -3.57981538772583 0.114200629293919
endloop
endfacet
facet normal 0.707107365131378 0.000656892545521259 -0.707105934619904
outer loop
vertex -0.0378859899938107 -4.17645120620728 0.108234062790871
vertex -0.0324737057089806 -3.57981538772583 0.114200629293919
vertex -0.00835323426872492 -4.17659950256348 0.137766733765602
endloop
endfacet
facet normal 0.707107305526733 0.000656892545521259 -0.707105934619904
outer loop
vertex -0.00835323426872492 -4.17659950256348 0.137766733765602
vertex -0.00936238188296556 -4.68117094039917 0.136288851499557
vertex -0.0378859899938107 -4.17645120620728 0.108234062790871
endloop
endfacet
facet normal 0.707107305526733 0.000656892545521259 -0.707105934619904
outer loop
vertex -0.042463019490242 -4.68101119995117 0.103188291192055
vertex -0.0378859899938107 -4.17645120620728 0.108234062790871
vertex -0.00936238188296556 -4.68117094039917 0.136288851499557
endloop
endfacet
facet normal 0.707107365131378 0.000656892545521259 -0.707105934619904
outer loop
vertex -0.00936238188296556 -4.68117094039917 0.136288851499557
vertex -0.00999998021870852 -4.99996852874756 0.135355085134506
vertex -0.042463019490242 -4.68101119995117 0.103188291192055
endloop
endfacet
facet normal 0.707107305526733 0.000656892487313598 -0.707105875015259
outer loop
vertex -0.0453548096120358 -4.99979448318481 0.100000351667404
vertex -0.042463019490242 -4.68101119995117 0.103188291192055
vertex -0.00999998021870852 -4.99996852874756 0.135355085134506
endloop
endfacet
facet normal 0 -0.00292898737825453 -0.999995768070221
outer loop
vertex 0 0 0
vertex 0.0299999993294477 0 0
vertex -0.00037947972305119 -0.189739048480988 0.000555745675228536
endloop
endfacet
facet normal -9.9258894696493e-21 -0.00292898737825453 -0.999995708465576
outer loop
vertex 0.0303794797509909 -0.189739048480988 0.000555745675228536
vertex -0.00037947972305119 -0.189739048480988 0.000555745675228536
vertex 0.0299999993294477 0 0
endloop
endfacet
facet normal 1.18435579484638e-17 -0.00292898737825453 -0.999995708465576
outer loop
vertex -0.000992674380540848 -0.496335029602051 0.00145376531872898
vertex -0.00037947972305119 -0.189739048480988 0.000555745675228536
vertex 0.0309926737099886 -0.496335029602051 0.00145376531872898
endloop
endfacet
facet normal -9.92589027744287e-21 -0.00292898761108518 -0.999995768070221
outer loop
vertex 0.0303794797509909 -0.189739048480988 0.000555745675228536
vertex 0.0309926737099886 -0.496335029602051 0.00145376531872898
vertex -0.00037947972305119 -0.189739048480988 0.000555745675228536
endloop
endfacet
facet normal 1.18435587756444e-17 -0.00292898761108518 -0.999995708465576
outer loop
vertex -0.000992674380540848 -0.496335029602051 0.00145376531872898
vertex 0.0309926737099886 -0.496335029602051 0.00145376531872898
vertex -0.00196697586216033 -0.983483672142029 0.00288062379695475
endloop
endfacet
facet normal -6.38554688364651e-18 -0.00292898737825453 -0.999995708465576
outer loop
vertex 0.0319669768214226 -0.983483672142029 0.00288062379695475
vertex -0.00196697586216033 -0.983483672142029 0.00288062379695475
vertex 0.0309926737099886 -0.496335029602051 0.00145376531872898
endloop
endfacet
facet normal -4.19965883565828e-17 -0.00292898737825453 -0.999995708465576
outer loop
vertex -0.00306960917077959 -1.53479790687561 0.00449542328715324
vertex -0.00196697586216033 -0.983483672142029 0.00288062379695475
vertex 0.0330696105957031 -1.53479790687561 0.00449542328715324
endloop
endfacet
facet normal -6.38554729723682e-18 -0.00292898737825453 -0.999995708465576
outer loop
vertex 0.0319669768214226 -0.983483672142029 0.00288062379695475
vertex 0.0330696105957031 -1.53479790687561 0.00449542328715324
vertex -0.00196697586216033 -0.983483672142029 0.00288062379695475
endloop
endfacet
facet normal -4.19965883565828e-17 -0.00292898737825453 -0.999995708465576
outer loop
vertex -0.00306960917077959 -1.53479790687561 0.00449542328715324
vertex 0.0330696105957031 -1.53479790687561 0.00449542328715324
vertex -0.0041722422465682 -2.08611226081848 0.00611022254452109
endloop
endfacet
facet normal -1.13180368704191e-17 -0.00292898737825453 -0.999995708465576
outer loop
vertex 0.0341722406446934 -2.08611226081848 0.00611022254452109
vertex -0.0041722422465682 -2.08611226081848 0.00611022254452109
vertex 0.0330696105957031 -1.53479790687561 0.00449542328715324
endloop
endfacet
facet normal -2.13899708157801e-17 -0.00292898737825453 -0.999995648860931
outer loop
vertex -0.00527487555518746 -2.63742661476135 0.00772502226755023
vertex -0.0041722422465682 -2.08611226081848 0.00611022254452109
vertex 0.0352748744189739 -2.63742661476135 0.00772502226755023
endloop
endfacet
facet normal -1.13180368704191e-17 -0.00292898737825453 -0.999995708465576
outer loop
vertex 0.0341722406446934 -2.08611226081848 0.00611022254452109
vertex 0.0352748744189739 -2.63742661476135 0.00772502226755023
vertex -0.0041722422465682 -2.08611226081848 0.00611022254452109
endloop
endfacet
facet normal -2.13899708157801e-17 -0.00292898737825453 -0.999995648860931
outer loop
vertex -0.00527487555518746 -2.63742661476135 0.00772502226755023
vertex 0.0352748744189739 -2.63742661476135 0.00772502226755023
vertex -0.00637750886380672 -3.18874073028564 0.00933982152491808
endloop
endfacet
facet normal -5.0695312322419e-17 -0.00292898737825453 -0.999995648860931
outer loop
vertex 0.0363775081932545 -3.18874073028564 0.00933982152491808
vertex -0.00637750886380672 -3.18874073028564 0.00933982152491808
vertex 0.0352748744189739 -2.63742661476135 0.00772502226755023
endloop
endfacet
facet normal 0 -0.00292898737825453 -0.999995648860931
outer loop
vertex -0.00748014217242599 -3.74005508422852 0.0109546212479472
vertex -0.00637750886380672 -3.18874073028564 0.00933982152491808
vertex 0.037480141967535 -3.74005508422852 0.0109546212479472
endloop
endfacet
facet normal -5.0695312322419e-17 -0.00292898737825453 -0.999995648860931
outer loop
vertex 0.0363775081932545 -3.18874073028564 0.00933982152491808
vertex 0.037480141967535 -3.74005508422852 0.0109546212479472
vertex -0.00637750886380672 -3.18874073028564 0.00933982152491808
endloop
endfacet
facet normal 0 -0.00292898737825453 -0.999995708465576
outer loop
vertex -0.00748014217242599 -3.74005508422852 0.0109546212479472
vertex 0.037480141967535 -3.74005508422852 0.0109546212479472
vertex -0.00857306271791458 -4.28651285171509 0.0125551959499717
endloop
endfacet
facet normal -3.67944561016817e-17 -0.00292898737825453 -0.999995648860931
outer loop
vertex 0.0385730639100075 -4.28651285171509 0.0125551959499717
vertex -0.00857306271791458 -4.28651285171509 0.0125551959499717
vertex 0.037480141967535 -3.74005508422852 0.0109546212479472
endloop
endfacet
facet normal -2.50073145851803e-20 -0.00292898761108518 -0.999995768070221
outer loop
vertex -0.00941765774041414 -4.70880889892578 0.0137921012938023
vertex -0.00857306271791458 -4.28651285171509 0.0125551959499717
vertex 0.0394176580011845 -4.70880889892578 0.0137921012938023
endloop
endfacet
facet normal -3.67944561016817e-17 -0.00292898737825453 -0.999995708465576
outer loop
vertex 0.0385730639100075 -4.28651285171509 0.0125551959499717
vertex 0.0394176580011845 -4.70880889892578 0.0137921012938023
vertex -0.00857306271791458 -4.28651285171509 0.0125551959499717
endloop
endfacet
facet normal -2.50073145851803e-20 -0.00292898737825453 -0.999995768070221
outer loop
vertex -0.00941765774041414 -4.70880889892578 0.0137921012938023
vertex 0.0394176580011845 -4.70880889892578 0.0137921012938023
vertex -0.00999999977648258 -4.99997854232788 0.0146449375897646
endloop
endfacet
facet normal -0 -0.00292898737825453 -0.999995708465576
outer loop
vertex 0.0399999991059303 -4.99997854232788 0.0146449375897646
vertex -0.00999999977648258 -4.99997854232788 0.0146449375897646
vertex 0.0394176580011845 -4.70880889892578 0.0137921012938023
endloop
endfacet
facet normal 0 -0.00292898737825453 0.999995708465576
outer loop
vertex -0.00999999977648258 -4.99997854232788 0.135355070233345
vertex 0.0399999991059303 -4.99997854232788 0.135355070233345
vertex -0.00941765774041414 -4.70880889892578 0.136207893490791
endloop
endfacet
facet normal -1.06540254091899e-16 -0.00292898737825453 0.999995768070221
outer loop
vertex 0.0394176580011845 -4.70880889892578 0.136207893490791
vertex -0.00941765774041414 -4.70880889892578 0.136207893490791
vertex 0.0399999991059303 -4.99997854232788 0.135355070233345
endloop
endfacet
facet normal -1.06540254091899e-16 -0.00292898761108518 0.999995768070221
outer loop
vertex 0.0394176580011845 -4.70880889892578 0.136207893490791
vertex 0.0385730639100075 -4.28651285171509 0.13744480907917
vertex -0.00941765774041414 -4.70880889892578 0.136207893490791
endloop
endfacet
facet normal 0 -0.00292898737825453 0.999995708465576
outer loop
vertex -0.00857306271791458 -4.28651285171509 0.13744480907917
vertex -0.00941765774041414 -4.70880889892578 0.136207893490791
vertex 0.0385730639100075 -4.28651285171509 0.13744480907917
endloop
endfacet
facet normal 0 -0.00292898737825453 0.999995648860931
outer loop
vertex -0.00857306271791458 -4.28651285171509 0.13744480907917
vertex 0.0385730639100075 -4.28651285171509 0.13744480907917
vertex -0.00748014217242599 -3.74005508422852 0.139045372605324
endloop
endfacet
facet normal -6.17332752672866e-16 -0.00292898737825453 0.999995708465576
outer loop
vertex 0.037480141967535 -3.74005508422852 0.139045372605324
vertex -0.00748014217242599 -3.74005508422852 0.139045372605324
vertex 0.0385730639100075 -4.28651285171509 0.13744480907917
endloop
endfacet
facet normal -6.17332752672866e-16 -0.00292898737825453 0.999995648860931
outer loop
vertex 0.037480141967535 -3.74005508422852 0.139045372605324
vertex 0.0363775081932545 -3.18874073028564 0.140660181641579
vertex -0.00748014217242599 -3.74005508422852 0.139045372605324
endloop
endfacet
facet normal 7.4044290350697e-16 -0.00292898737825453 0.999995648860931
outer loop
vertex -0.00637750886380672 -3.18874073028564 0.140660181641579
vertex -0.00748014217242599 -3.74005508422852 0.139045372605324
vertex 0.0363775081932545 -3.18874073028564 0.140660181641579
endloop
endfacet
facet normal 7.4044290350697e-16 -0.00292898737825453 0.999995648860931
outer loop
vertex -0.00637750886380672 -3.18874073028564 0.140660181641579
vertex 0.0363775081932545 -3.18874073028564 0.140660181641579
vertex -0.00527487555518746 -2.63742661476135 0.142274975776672
endloop
endfacet
facet normal 6.84479066104964e-16 -0.00292898737825453 0.999995648860931
outer loop
vertex 0.0352748744189739 -2.63742661476135 0.142274975776672
vertex -0.00527487555518746 -2.63742661476135 0.142274975776672
vertex 0.0363775081932545 -3.18874073028564 0.140660181641579
endloop
endfacet
facet normal 6.84479066104964e-16 -0.00292898737825453 0.999995648860931
outer loop
vertex 0.0352748744189739 -2.63742661476135 0.142274975776672
vertex 0.0341722406446934 -2.08611226081848 0.143889769911766
vertex -0.00527487555518746 -2.63742661476135 0.142274975776672
endloop
endfacet
facet normal -3.39222633304934e-17 -0.00292898737825453 0.999995708465576
outer loop
vertex -0.0041722422465682 -2.08611226081848 0.143889769911766
vertex -0.00527487555518746 -2.63742661476135 0.142274975776672
vertex 0.0341722406446934 -2.08611226081848 0.143889769911766
endloop
endfacet
facet normal -3.39222633304934e-17 -0.00292898737825453 0.999995708465576
outer loop
vertex -0.0041722422465682 -2.08611226081848 0.143889769911766
vertex 0.0341722406446934 -2.08611226081848 0.143889769911766
vertex -0.00306960917077959 -1.53479790687561 0.145504578948021
endloop
endfacet
facet normal 7.86010946728647e-16 -0.00292898737825453 0.999995708465576
outer loop
vertex 0.0330696105957031 -1.53479790687561 0.145504578948021
vertex -0.00306960917077959 -1.53479790687561 0.145504578948021
vertex 0.0341722406446934 -2.08611226081848 0.143889769911766
endloop
endfacet
facet normal 7.86010946728647e-16 -0.00292898737825453 0.999995708465576
outer loop
vertex 0.0330696105957031 -1.53479790687561 0.145504578948021
vertex 0.0319669768214226 -0.983483672142029 0.147119373083115
vertex -0.00306960917077959 -1.53479790687561 0.145504578948021
endloop
endfacet
facet normal 1.91656391352332e-17 -0.00292898737825453 0.999995708465576
outer loop
vertex -0.00196697586216033 -0.983483672142029 0.147119373083115
vertex -0.00306960917077959 -1.53479790687561 0.145504578948021
vertex 0.0319669768214226 -0.983483672142029 0.147119373083115
endloop
endfacet
facet normal 1.9165637480872e-17 -0.00292898737825453 0.999995708465576
outer loop
vertex -0.00196697586216033 -0.983483672142029 0.147119373083115
vertex 0.0319669768214226 -0.983483672142029 0.147119373083115
vertex -0.000992674380540848 -0.496335029602051 0.148546233773232
endloop
endfacet
facet normal -1.8219270002043e-15 -0.00292898761108518 0.999995708465576
outer loop
vertex 0.0309926737099886 -0.496335029602051 0.148546233773232
vertex -0.000992674380540848 -0.496335029602051 0.148546233773232
vertex 0.0319669768214226 -0.983483672142029 0.147119373083115
endloop
endfacet
facet normal -1.8219270002043e-15 -0.00292898737825453 0.999995708465576
outer loop
vertex 0.0309926737099886 -0.496335029602051 0.148546233773232
vertex 0.0303794797509909 -0.189739048480988 0.149444252252579
vertex -0.000992674380540848 -0.496335029602051 0.148546233773232
endloop
endfacet
facet normal -9.44641530084978e-16 -0.00292898761108518 0.999995768070221
outer loop
vertex -0.00037947972305119 -0.189739048480988 0.149444252252579
vertex -0.000992674380540848 -0.496335029602051 0.148546233773232
vertex 0.0303794797509909 -0.189739048480988 0.149444252252579
endloop
endfacet
facet normal -9.4464142420586e-16 -0.00292898737825453 0.999995708465576
outer loop
vertex -0.00037947972305119 -0.189739048480988 0.149444252252579
vertex 0.0303794797509909 -0.189739048480988 0.149444252252579
vertex 0 0 0.150000005960464
endloop
endfacet
facet normal 0 -0.00292898737825453 0.999995768070221
outer loop
vertex 0.0299999993294477 0 0.150000005960464
vertex 0 0 0.150000005960464
vertex 0.0303794797509909 -0.189739048480988 0.149444252252579
endloop
endfacet
facet normal -0.99995881319046 -0.00907062646001577 0
outer loop
vertex 0.0299999993294477 0 0
vertex 0.0363267920911312 -0.697474718093872 0.00697503425180912
vertex 0.0299999993294477 0 0.150000005960464
endloop
endfacet
facet normal -0.999958872795105 -0.00907062646001577 -8.86918355620689e-18
outer loop
vertex 0.0363267920911312 -0.697474718093872 0.14302496612072
vertex 0.0299999993294477 0 0.150000005960464
vertex 0.0363267920911312 -0.697474718093872 0.00697503425180912
endloop
endfacet
facet normal -0.99995881319046 -0.00907062646001577 -8.86918272902627e-18
outer loop
vertex 0.0363267920911312 -0.697474718093872 0.00697503425180912
vertex 0.0425509065389633 -1.38362979888916 0.0138368671759963
vertex 0.0363267920911312 -0.697474718093872 0.14302496612072
endloop
endfacet
facet normal -0.99995893239975 -0.00907062739133835 -7.32759434555202e-18
outer loop
vertex 0.0425509065389633 -1.38362979888916 0.136163130402565
vertex 0.0363267920911312 -0.697474718093872 0.14302496612072
vertex 0.0425509065389633 -1.38362979888916 0.0138368671759963
endloop
endfacet
facet normal -0.999958872795105 -0.00907062646001577 -7.32759351837141e-18
outer loop
vertex 0.0425509065389633 -1.38362979888916 0.136163130402565
vertex 0.0425509065389633 -1.38362979888916 0.0138368671759963
vertex 0.0483256466686726 -2.02024555206299 0.129796713590622
endloop
endfacet
facet normal -0.999958872795105 -0.00907062646001577 -1.00067830496468e-16
outer loop
vertex 0.0483256466686726 -2.02024555206299 0.0202032867819071
vertex 0.0483256466686726 -2.02024555206299 0.129796713590622
vertex 0.0425509065389633 -1.38362979888916 0.0138368671759963
endloop
endfacet
facet normal -0.99995881319046 -0.00907062646001577 -1.00067823879023e-16
outer loop
vertex 0.0483256466686726 -2.02024555206299 0.0202032867819071
vertex 0.0536735877394676 -2.60981035232544 0.0260991770774126
vertex 0.0483256466686726 -2.02024555206299 0.129796713590622
endloop
endfacet
facet normal -0.999958872795105 -0.00907062739133835 -4.80887140110317e-17
outer loop
vertex 0.0536735877394676 -2.60981035232544 0.123900823295116
vertex 0.0483256466686726 -2.02024555206299 0.129796713590622
vertex 0.0536735877394676 -2.60981035232544 0.0260991770774126
endloop
endfacet
facet normal -0.999958872795105 -0.00907062646001577 -4.80887173197542e-17
outer loop
vertex 0.0536735877394676 -2.60981035232544 0.123900823295116
vertex 0.0536735877394676 -2.60981035232544 0.0260991770774126
vertex 0.0586898103356361 -3.16280555725098 0.118370644748211
endloop
endfacet
facet normal -0.99995881319046 -0.00907062646001577 1.26430864094476e-16
outer loop
vertex 0.0586898103356361 -3.16280555725098 0.0316293574869633
vertex 0.0586898103356361 -3.16280555725098 0.118370644748211
vertex 0.0536735877394676 -2.60981035232544 0.0260991770774126
endloop
endfacet
facet normal -0.99995881319046 -0.00907062646001577 1.26430877329366e-16
outer loop
vertex 0.0586898103356361 -3.16280555725098 0.0316293574869633
vertex 0.0636770129203796 -3.71260190010071 0.0371275469660759
vertex 0.0586898103356361 -3.16280555725098 0.118370644748211
endloop
endfacet
facet normal -0.999958872795105 -0.00907062646001577 1.83209891298875e-16
outer loop
vertex 0.0636770129203796 -3.71260190010071 0.112872451543808
vertex 0.0586898103356361 -3.16280555725098 0.118370644748211
vertex 0.0636770129203796 -3.71260190010071 0.0371275469660759
endloop
endfacet
facet normal -0.999958872795105 -0.00907062646001577 1.83209891298875e-16
outer loop
vertex 0.0636770129203796 -3.71260190010071 0.112872451543808
vertex 0.0636770129203796 -3.71260190010071 0.0371275469660759
vertex 0.0686642155051231 -4.26239824295044 0.107374265789986
endloop
endfacet
facet normal -0.999958872795105 -0.00907062739133835 1.24424997431149e-16
outer loop
vertex 0.0686642155051231 -4.26239824295044 0.0426257364451885
vertex 0.0686642155051231 -4.26239824295044 0.107374265789986
vertex 0.0636770129203796 -3.71260190010071 0.0371275469660759
endloop
endfacet
facet normal -0.999958872795105 -0.00907062646001577 1.24424984196259e-16
outer loop
vertex 0.0686642155051231 -4.26239824295044 0.0426257364451885
vertex 0.0726728886365891 -4.70431995391846 0.0470451377332211
vertex 0.0686642155051231 -4.26239824295044 0.107374265789986
endloop
endfacet
facet normal -0.99995881319046 -0.00907062646001577 -1.04112148121811e-16
outer loop
vertex 0.0726728886365891 -4.70431995391846 0.102954864501953
vertex 0.0686642155051231 -4.26239824295044 0.107374265789986
vertex 0.0726728886365891 -4.70431995391846 0.0470451377332211
endloop
endfacet
facet normal -0.999958872795105 -0.00907062646001577 -1.04112141504366e-16
outer loop
vertex 0.0726728886365891 -4.70431995391846 0.102954864501953
vertex 0.0726728886365891 -4.70431995391846 0.0470451377332211
vertex 0.075353130698204 -4.99979448318481 0.100000001490116
endloop
endfacet
facet normal -0.999958872795105 -0.00907062646001577 0
outer loop
vertex 0.075353130698204 -4.99979448318481 0.0500000007450581
vertex 0.075353130698204 -4.99979448318481 0.100000001490116
vertex 0.0726728886365891 -4.70431995391846 0.0470451377332211
endloop
endfacet
facet normal 0.707106649875641 -0.000656902033369988 -0.707106649875641
outer loop
vertex 0.0354118160903454 -0.596606433391571 0.00596606452018023
vertex 0.0311931744217873 -0.596686482429504 0.00174749561119825
vertex 0.0299999993294477 0 0
endloop
endfacet
facet normal 0.707106649875641 -0.000656902033369988 -0.707106649875641
outer loop
vertex 0.0311931744217873 -0.596686482429504 0.00174749561119825
vertex 0.0354118160903454 -0.596606433391571 0.00596606452018023
vertex 0.0323863476514816 -1.19337296485901 0.00349499122239649
endloop
endfacet
facet normal 0.707106649875641 -0.000656902033369988 -0.707106649875641
outer loop
vertex 0.0408236347138882 -1.19321286678314 0.0119321290403605
vertex 0.0323863476514816 -1.19337296485901 0.00349499122239649
vertex 0.0354118160903454 -0.596606433391571 0.00596606452018023
endloop
endfacet
facet normal 0.707106649875641 -0.000656902033369988 -0.707106649875641
outer loop
vertex 0.0323863476514816 -1.19337296485901 0.00349499122239649
vertex 0.0408236347138882 -1.19321286678314 0.0119321290403605
vertex 0.033579520881176 -1.7900595664978 0.00524248695001006
endloop
endfacet
facet normal 0.707106649875641 -0.000656902091577649 -0.707106649875641
outer loop
vertex 0.0462354496121407 -1.78981924057007 0.0178981926292181
vertex 0.033579520881176 -1.7900595664978 0.00524248695001006
vertex 0.0408236347138882 -1.19321286678314 0.0119321290403605
endloop
endfacet
facet normal 0.707106649875641 -0.000656902033369988 -0.707106649875641
outer loop
vertex 0.0516472682356834 -2.38642573356628 0.0238642580807209
vertex 0.0347726941108704 -2.38674592971802 0.00698998244479299
vertex 0.0462354496121407 -1.78981924057007 0.0178981926292181
endloop
endfacet
facet normal 0.707106649875641 -0.000656902091577649 -0.707106649875641
outer loop
vertex 0.033579520881176 -1.7900595664978 0.00524248695001006
vertex 0.0462354496121407 -1.78981924057007 0.0178981926292181
vertex 0.0347726941108704 -2.38674592971802 0.00698998244479299
endloop
endfacet
facet normal 0.707106649875641 -0.000656902033369988 -0.707106649875641
outer loop
vertex 0.0347726941108704 -2.38674592971802 0.00698998244479299
vertex 0.0516472682356834 -2.38642573356628 0.0238642580807209
vertex 0.0359658673405647 -2.98343253135681 0.0087374784052372
endloop
endfacet
facet normal 0.707106590270996 -0.000656902033369988 -0.707106590270996
outer loop
vertex 0.0570590831339359 -2.9830322265625 0.0298303216695786
vertex 0.0359658673405647 -2.98343253135681 0.0087374784052372
vertex 0.0516472682356834 -2.38642573356628 0.0238642580807209
endloop
endfacet
facet normal 0.707106590270996 -0.000656902033369988 -0.707106590270996
outer loop
vertex 0.0570590831339359 -2.9830322265625 0.0298303216695786
vertex 0.0624709017574787 -3.57963848114014 0.0357963852584362
vertex 0.0359658673405647 -2.98343253135681 0.0087374784052372
endloop
endfacet
facet normal 0.707106649875641 -0.000656902091577649 -0.707106649875641
outer loop
vertex 0.0371590442955494 -3.58011913299561 0.0104849739000201
vertex 0.0359658673405647 -2.98343253135681 0.0087374784052372
vertex 0.0624709017574787 -3.57963848114014 0.0357963852584362
endloop
endfacet
facet normal 0.707106649875641 -0.000656902091577649 -0.707106649875641
outer loop
vertex 0.0678827166557312 -4.17624521255493 0.0417624488472939
vertex 0.0383522175252438 -4.17680549621582 0.012232469394803
vertex 0.0624709017574787 -3.57963848114014 0.0357963852584362
endloop
endfacet
facet normal 0.707106649875641 -0.000656902091577649 -0.707106649875641
outer loop
vertex 0.0371590442955494 -3.58011913299561 0.0104849739000201
vertex 0.0624709017574787 -3.57963848114014 0.0357963852584362
vertex 0.0383522175252438 -4.17680549621582 0.012232469394803
endloop
endfacet
facet normal 0.707106649875641 -0.000656902033369988 -0.707106649875641
outer loop
vertex 0.0678827166557312 -4.17624521255493 0.0417624488472939
vertex 0.0724592953920364 -4.68077373504639 0.046807736158371
vertex 0.0383522175252438 -4.17680549621582 0.012232469394803
endloop
endfacet
facet normal 0.707106590270996 -0.000656902033369988 -0.707106590270996
outer loop
vertex 0.0393612533807755 -4.68140840530396 0.0137102818116546
vertex 0.0383522175252438 -4.17680549621582 0.012232469394803
vertex 0.0724592953920364 -4.68077373504639 0.046807736158371
endloop
endfacet
facet normal 0.707106649875641 -0.000656902033369988 -0.707106649875641
outer loop
vertex 0.0724592953920364 -4.68077373504639 0.046807736158371
vertex 0.0753508657217026 -4.99954414367676 0.049995444715023
vertex 0.0393612533807755 -4.68140840530396 0.0137102818116546
endloop
endfacet
facet normal 0.707106649875641 -0.000656902091577649 -0.707106649875641
outer loop
vertex 0.0399987697601318 -5.00021839141846 0.0146439708769321
vertex 0.0393612533807755 -4.68140840530396 0.0137102818116546
vertex 0.0753508657217026 -4.99954414367676 0.049995444715023
endloop
endfacet
facet normal 0.707106649875641 -0.000656902091577649 0.707106649875641
outer loop
vertex 0.0753547996282578 -4.99979448318481 0.100000388920307
vertex 0.0724630132317543 -4.68101119995117 0.103188328444958
vertex 0.0399999357759953 -4.99996852874756 0.135355085134506
endloop
endfacet
facet normal 0.707106649875641 -0.000656902033369988 0.707106649875641
outer loop
vertex 0.0393623411655426 -4.68117094039917 0.136288851499557
vertex 0.0399999357759953 -4.99996852874756 0.135355085134506
vertex 0.0724630132317543 -4.68101119995117 0.103188328444958
endloop
endfacet
facet normal 0.707106590270996 -0.000656902033369988 0.707106590270996
outer loop
vertex 0.0724630132317543 -4.68101119995117 0.103188328444958
vertex 0.0678859800100327 -4.17645120620728 0.108234092593193
vertex 0.0393623411655426 -4.68117094039917 0.136288851499557
endloop
endfacet
facet normal 0.707106649875641 -0.000656902033369988 0.707106649875641
outer loop
vertex 0.0383531972765923 -4.17659950256348 0.137766733765602
vertex 0.0393623411655426 -4.68117094039917 0.136288851499557
vertex 0.0678859800100327 -4.17645120620728 0.108234092593193
endloop
endfacet
facet normal 0.707106649875641 -0.000656902091577649 0.707106649875641
outer loop
vertex 0.0678859800100327 -4.17645120620728 0.108234092593193
vertex 0.0624736994504929 -3.57981538772583 0.11420065164566
vertex 0.0383531972765923 -4.17659950256348 0.137766733765602
endloop
endfacet
facet normal 0.707106649875641 -0.000656902091577649 0.707106649875641
outer loop
vertex 0.0371598862111568 -3.57994222640991 0.139514341950417
vertex 0.0383531972765923 -4.17659950256348 0.137766733765602
vertex 0.0624736994504929 -3.57981538772583 0.11420065164566
endloop
endfacet
facet normal 0.707106649875641 -0.000656902091577649 0.707106649875641
outer loop
vertex 0.0371598862111568 -3.57994222640991 0.139514341950417
vertex 0.0624736994504929 -3.57981538772583 0.11420065164566
vertex 0.0359665714204311 -2.98328518867493 0.141261950135231
endloop
endfacet
facet normal 0.707106590270996 -0.000656902033369988 0.707106590270996
outer loop
vertex 0.0570614151656628 -2.98317933082581 0.120167210698128
vertex 0.0359665714204311 -2.98328518867493 0.141261950135231
vertex 0.0624736994504929 -3.57981538772583 0.11420065164566
endloop
endfacet
facet normal 0.707106590270996 -0.000656902033369988 0.707106590270996
outer loop
vertex 0.0570614151656628 -2.98317933082581 0.120167210698128
vertex 0.051649134606123 -2.38654351234436 0.126133769750595
vertex 0.0359665714204311 -2.98328518867493 0.141261950135231
endloop
endfacet
facet normal 0.707106649875641 -0.000656902033369988 0.707106649875641
outer loop
vertex 0.0347732566297054 -2.38662815093994 0.143009573221207
vertex 0.0359665714204311 -2.98328518867493 0.141261950135231
vertex 0.051649134606123 -2.38654351234436 0.126133769750595
endloop
endfacet
facet normal 0.707106649875641 -0.000656902033369988 0.707106649875641
outer loop
vertex 0.0347732566297054 -2.38662815093994 0.143009573221207
vertex 0.051649134606123 -2.38654351234436 0.126133769750595
vertex 0.0335799418389797 -1.78997111320496 0.144757181406021
endloop
endfacet
facet normal 0.707106649875641 -0.000656902091577649 0.707106649875641
outer loop
vertex 0.0462368503212929 -1.78990769386292 0.132100328803062
vertex 0.0335799418389797 -1.78997111320496 0.144757181406021
vertex 0.051649134606123 -2.38654351234436 0.126133769750595
endloop
endfacet
facet normal 0.707106649875641 -0.000656902091577649 0.707106649875641
outer loop
vertex 0.0462368503212929 -1.78990769386292 0.132100328803062
vertex 0.0408245660364628 -1.19327175617218 0.13806688785553
vertex 0.0335799418389797 -1.78997111320496 0.144757181406021
endloop
endfacet
facet normal 0.707106649875641 -0.000656902033369988 0.707106649875641
outer loop
vertex 0.032386627048254 -1.19331407546997 0.146504789590836
vertex 0.0335799418389797 -1.78997111320496 0.144757181406021
vertex 0.0408245660364628 -1.19327175617218 0.13806688785553
endloop
endfacet
facet normal 0.707106649875641 -0.000656902033369988 0.707106649875641
outer loop
vertex 0.032386627048254 -1.19331407546997 0.146504789590836
vertex 0.0408245660364628 -1.19327175617218 0.13806688785553
vertex 0.0311933141201735 -0.596657037734985 0.14825239777565
endloop
endfacet
facet normal 0.707106649875641 -0.000656902033369988 0.707106649875641
outer loop
vertex 0.0354122817516327 -0.59663587808609 0.144033446907997
vertex 0.0311933141201735 -0.596657037734985 0.14825239777565
vertex 0.0408245660364628 -1.19327175617218 0.13806688785553
endloop
endfacet
facet normal 0.707106649875641 -0.000656902033369988 0.707106649875641
outer loop
vertex 0.0311933141201735 -0.596657037734985 0.14825239777565
vertex 0.0354122817516327 -0.59663587808609 0.144033446907997
vertex 0.0299999993294477 0 0.150000005960464
endloop
endfacet
facet normal 0.707106649875641 0.000656902033369988 -0.707106649875641
outer loop
vertex 0.0882523879408836 -10.4033002853394 0.0588066875934601
vertex 0.0900000035762787 -10.9999570846558 0.0599999986588955
vertex 0.0840334445238113 -10.4033212661743 0.0545877180993557
endloop
endfacet
facet normal 0.707106649875641 0.000656902033369988 -0.707106649875641
outer loop
vertex 0.0865047797560692 -9.80664253234863 0.0576133728027344
vertex 0.0882523879408836 -10.4033002853394 0.0588066875934601
vertex 0.078066885471344 -9.80668544769287 0.0491754338145256
endloop
endfacet
facet normal 0.707106649875641 0.000656902033369988 -0.707106649875641
outer loop
vertex 0.0840334445238113 -10.4033212661743 0.0545877180993557
vertex 0.078066885471344 -9.80668544769287 0.0491754338145256
vertex 0.0882523879408836 -10.4033002853394 0.0588066875934601
endloop
endfacet
facet normal 0.707106649875641 0.000656902033369988 -0.707106649875641
outer loop
vertex 0.0865047797560692 -9.80664253234863 0.0576133728027344
vertex 0.078066885471344 -9.80668544769287 0.0491754338145256
vertex 0.0847571715712547 -9.20998573303223 0.0564200580120087
endloop
endfacet
facet normal 0.707106649875641 0.000656902091577649 -0.707106649875641
outer loop
vertex 0.0721003264188766 -9.21004962921143 0.0437631495296955
vertex 0.0847571715712547 -9.20998573303223 0.0564200580120087
vertex 0.078066885471344 -9.80668544769287 0.0491754338145256
endloop
endfacet
facet normal 0.707106649875641 0.000656902033369988 -0.707106649875641
outer loop
vertex 0.0830095633864403 -8.61332893371582 0.055226743221283
vertex 0.0847571715712547 -9.20998573303223 0.0564200580120087
vertex 0.0661337673664093 -8.61341381072998 0.0383508652448654
endloop
endfacet
facet normal 0.707106649875641 0.000656902091577649 -0.707106649875641
outer loop
vertex 0.0721003264188766 -9.21004962921143 0.0437631495296955
vertex 0.0661337673664093 -8.61341381072998 0.0383508652448654
vertex 0.0847571715712547 -9.20998573303223 0.0564200580120087
endloop
endfacet
facet normal 0.707106649875641 0.000656902033369988 -0.707106649875641
outer loop
vertex 0.0830095633864403 -8.61332893371582 0.055226743221283
vertex 0.0661337673664093 -8.61341381072998 0.0383508652448654
vertex 0.0812619552016258 -8.01667213439941 0.0540334284305573
endloop
endfacet
facet normal 0.707106590270996 0.000656902033369988 -0.707106590270996
outer loop
vertex 0.060167208313942 -8.01677799224854 0.0329385846853256
vertex 0.0812619552016258 -8.01667213439941 0.0540334284305573
vertex 0.0661337673664093 -8.61341381072998 0.0383508652448654
endloop
endfacet
facet normal 0.707106649875641 0.000656902091577649 -0.707106649875641
outer loop
vertex 0.0795143470168114 -7.42001485824585 0.0528401136398315
vertex 0.0812619552016258 -8.01667213439941 0.0540334284305573
vertex 0.0542006529867649 -7.42014169692993 0.0275263004004955
endloop
endfacet
facet normal 0.707106590270996 0.000656902033369988 -0.707106590270996
outer loop
vertex 0.060167208313942 -8.01677799224854 0.0329385846853256
vertex 0.0542006529867649 -7.42014169692993 0.0275263004004955
vertex 0.0812619552016258 -8.01667213439941 0.0540334284305573
endloop
endfacet
facet normal 0.707106649875641 0.000656902091577649 -0.707106649875641
outer loop
vertex 0.0795143470168114 -7.42001485824585 0.0528401136398315
vertex 0.0542006529867649 -7.42014169692993 0.0275263004004955
vertex 0.0777667388319969 -6.82335758209229 0.0516468025743961
endloop
endfacet
facet normal 0.707106649875641 0.000656902091577649 -0.707106649875641
outer loop
vertex 0.0482340939342976 -6.82350587844849 0.0221140179783106
vertex 0.0777667388319969 -6.82335758209229 0.0516468025743961
vertex 0.0542006529867649 -7.42014169692993 0.0275263004004955
endloop
endfacet
facet normal 0.707106649875641 0.000656902033369988 -0.707106649875641
outer loop
vertex 0.0777667388319969 -6.82335758209229 0.0516468025743961
vertex 0.0482340939342976 -6.82350587844849 0.0221140179783106
vertex 0.0762888491153717 -6.31878614425659 0.0506376586854458
endloop
endfacet
facet normal 0.707106590270996 0.000656902033369988 -0.707106590270996
outer loop
vertex 0.0431883260607719 -6.31894588470459 0.0175369866192341
vertex 0.0762888491153717 -6.31878614425659 0.0506376586854458
vertex 0.0482340939342976 -6.82350587844849 0.0221140179783106
endloop
endfacet
facet normal 0.707106649875641 0.000656902033369988 -0.707106649875641
outer loop
vertex 0.0762888491153717 -6.31878614425659 0.0506376586854458
vertex 0.0431883260607719 -6.31894588470459 0.0175369866192341
vertex 0.075355090200901 -5.9999885559082 0.0500000640749931
endloop
endfacet
facet normal 0.707106649875641 0.000656902091577649 -0.707106649875641
outer loop
vertex 0.0400003865361214 -6.00016260147095 0.0146451964974403
vertex 0.075355090200901 -5.9999885559082 0.0500000640749931
vertex 0.0431883260607719 -6.31894588470459 0.0175369866192341
endloop
endfacet
facet normal -0.707105875015259 -0.000656892487313598 -0.707107305526733
outer loop
vertex 0.0400003530085087 -6.00016260147095 0.135354816913605
vertex 0.075355090200901 -5.9999885559082 0.0999999791383743
vertex 0.0431882925331593 -6.31894588470459 0.132463023066521
endloop
endfacet
facet normal -0.707105934619904 -0.000656892545521259 -0.707107365131378
outer loop
vertex 0.0762888491153717 -6.31878614425659 0.0993623808026314
vertex 0.0431882925331593 -6.31894588470459 0.132463023066521
vertex 0.075355090200901 -5.9999885559082 0.0999999791383743
endloop
endfacet
facet normal -0.707105934619904 -0.000656892545521259 -0.707107305526733
outer loop
vertex 0.0431882925331593 -6.31894588470459 0.132463023066521
vertex 0.0762888491153717 -6.31878614425659 0.0993623808026314
vertex 0.0482340641319752 -6.82350587844849 0.127885982394218
endloop
endfacet
facet normal -0.707105934619904 -0.000656892545521259 -0.707107305526733
outer loop
vertex 0.0777667388319969 -6.82335758209229 0.098353236913681
vertex 0.0482340641319752 -6.82350587844849 0.127885982394218
vertex 0.0762888491153717 -6.31878614425659 0.0993623808026314
endloop
endfacet
facet normal -0.707105934619904 -0.000656892545521259 -0.707107365131378
outer loop
vertex 0.0482340641319752 -6.82350587844849 0.127885982394218
vertex 0.0777667388319969 -6.82335758209229 0.098353236913681
vertex 0.0542006269097328 -7.42014169692993 0.122473701834679
endloop
endfacet
facet normal -0.707105934619904 -0.000656892545521259 -0.707107305526733
outer loop
vertex 0.0795143470168114 -7.42001485824585 0.0971599146723747
vertex 0.0542006269097328 -7.42014169692993 0.122473701834679
vertex 0.0777667388319969 -6.82335758209229 0.098353236913681
endloop
endfacet
facet normal -0.707105934619904 -0.000656892545521259 -0.707107305526733
outer loop
vertex 0.0795143470168114 -7.42001485824585 0.0971599146723747
vertex 0.0812619552016258 -8.01667213439941 0.0959665924310684
vertex 0.0542006269097328 -7.42014169692993 0.122473701834679
endloop
endfacet
facet normal -0.707105934619904 -0.000656892545521259 -0.707107365131378
outer loop
vertex 0.0601671896874905 -8.01677799224854 0.117061421275139
vertex 0.0542006269097328 -7.42014169692993 0.122473701834679
vertex 0.0812619552016258 -8.01667213439941 0.0959665924310684
endloop
endfacet
facet normal -0.707105934619904 -0.000656892545521259 -0.707107365131378
outer loop
vertex 0.0601671896874905 -8.01677799224854 0.117061421275139
vertex 0.0812619552016258 -8.01667213439941 0.0959665924310684
vertex 0.0661337524652481 -8.61341381072998 0.111649133265018
endloop
endfacet
facet normal -0.707105934619904 -0.000656892545521259 -0.707107365131378
outer loop
vertex 0.0830095633864403 -8.61332893371582 0.0947732776403427
vertex 0.0661337524652481 -8.61341381072998 0.111649133265018
vertex 0.0812619552016258 -8.01667213439941 0.0959665924310684
endloop
endfacet
facet normal -0.707105934619904 -0.000656892545521259 -0.707107365131378
outer loop
vertex 0.0830095633864403 -8.61332893371582 0.0947732776403427
vertex 0.0847571715712547 -9.20998573303223 0.0935799553990364
vertex 0.0661337524652481 -8.61341381072998 0.111649133265018
endloop
endfacet
facet normal -0.707105934619904 -0.000656892545521259 -0.707107305526733
outer loop
vertex 0.0721003115177155 -9.21004962921143 0.106236852705479
vertex 0.0661337524652481 -8.61341381072998 0.111649133265018
vertex 0.0847571715712547 -9.20998573303223 0.0935799553990364
endloop
endfacet
facet normal -0.707105934619904 -0.000656892545521259 -0.707107305526733
outer loop
vertex 0.0721003115177155 -9.21004962921143 0.106236852705479
vertex 0.0847571715712547 -9.20998573303223 0.0935799553990364
vertex 0.0780668780207634 -9.80668544769287 0.100824564695358
endloop
endfacet
facet normal -0.707105934619904 -0.000656892545521259 -0.707107365131378
outer loop
vertex 0.0865047797560692 -9.80664253234863 0.0923866406083107
vertex 0.0780668780207634 -9.80668544769287 0.100824564695358
vertex 0.0847571715712547 -9.20998573303223 0.0935799553990364
endloop
endfacet
facet normal -0.707105934619904 -0.000656892545521259 -0.707107365131378
outer loop
vertex 0.0865047797560692 -9.80664253234863 0.0923866406083107
vertex 0.0882523879408836 -10.4033002853394 0.0911933183670044
vertex 0.0780668780207634 -9.80668544769287 0.100824564695358
endloop
endfacet
facet normal -0.707105934619904 -0.000656892545521259 -0.707107365131378
outer loop
vertex 0.0840334370732307 -10.4033212661743 0.0954122841358185
vertex 0.0780668780207634 -9.80668544769287 0.100824564695358
vertex 0.0882523879408836 -10.4033002853394 0.0911933183670044
endloop
endfacet
facet normal -0.707105934619904 -0.000656892545521259 -0.707107365131378
outer loop
vertex 0.0882523879408836 -10.4033002853394 0.0911933183670044
vertex 0.0900000035762787 -10.9999570846558 0.0900000035762787
vertex 0.0840334370732307 -10.4033212661743 0.0954122841358185
endloop
endfacet
facet normal 0.999995708465576 0.00292898737825453 0
outer loop
vertex 0.0753550603985786 -5.99997854232788 0.100000001490116
vertex 0.0762078985571861 -6.29114818572998 0.09941765666008
vertex 0.0753550603985786 -5.99997854232788 0.0500000007450581
endloop
endfacet
facet normal 0.999995768070221 0.00292898737825453 -0
outer loop
vertex 0.0762078985571861 -6.29114818572998 0.0505823418498039
vertex 0.0753550603985786 -5.99997854232788 0.0500000007450581
vertex 0.0762078985571861 -6.29114818572998 0.09941765666008
endloop
endfacet
facet normal 0.999995768070221 0.00292898761108518 -0
outer loop
vertex 0.0762078985571861 -6.29114818572998 0.0505823418498039
vertex 0.0762078985571861 -6.29114818572998 0.09941765666008
vertex 0.0774448066949844 -6.71344423294067 0.0514269359409809
endloop
endfacet
facet normal 0.999995708465576 0.00292898737825453 5.51787305041299e-17
outer loop
vertex 0.0774448066949844 -6.71344423294067 0.0985730588436127
vertex 0.0774448066949844 -6.71344423294067 0.0514269359409809
vertex 0.0762078985571861 -6.29114818572998 0.09941765666008
endloop
endfacet
facet normal 0.999995648860931 0.00292898737825453 5.51787305041299e-17
outer loop
vertex 0.0774448066949844 -6.71344423294067 0.0514269359409809
vertex 0.0774448066949844 -6.71344423294067 0.0985730588436127
vertex 0.0790453776717186 -7.25990200042725 0.0525198578834534
endloop
endfacet
facet normal 0.999995708465576 0.00292898737825453 4.43748649665707e-16
outer loop
vertex 0.0790453776717186 -7.25990200042725 0.0974801406264305
vertex 0.0790453776717186 -7.25990200042725 0.0525198578834534
vertex 0.0774448066949844 -6.71344423294067 0.0985730588436127
endloop
endfacet
facet normal 0.999995648860931 0.00292898737825453 4.43748623195928e-16
outer loop
vertex 0.0790453776717186 -7.25990200042725 0.0974801406264305
vertex 0.0806601792573929 -7.81121635437012 0.09637750685215
vertex 0.0790453776717186 -7.25990200042725 0.0525198578834534
endloop
endfacet
facet normal 0.999995648860931 0.00292898737825453 -4.66636803389498e-16
outer loop
vertex 0.0806601792573929 -7.81121635437012 0.0536224916577339
vertex 0.0790453776717186 -7.25990200042725 0.0525198578834534
vertex 0.0806601792573929 -7.81121635437012 0.09637750685215
endloop
endfacet
facet normal 0.999995648860931 0.00292898737825453 -4.66636803389498e-16
outer loop
vertex 0.0806601792573929 -7.81121635437012 0.0536224916577339
vertex 0.0806601792573929 -7.81121635437012 0.09637750685215
vertex 0.0822749808430672 -8.36253070831299 0.0547251254320145
endloop
endfacet
facet normal 0.999995648860931 0.00292898737825453 -3.42239533052482e-16
outer loop
vertex 0.0822749808430672 -8.36253070831299 0.0952748730778694
vertex 0.0822749808430672 -8.36253070831299 0.0547251254320145
vertex 0.0806601792573929 -7.81121635437012 0.09637750685215
endloop
endfacet
facet normal 0.999995648860931 0.00292898737825453 -3.42239533052482e-16
outer loop
vertex 0.0822749808430672 -8.36253070831299 0.0952748730778694
vertex 0.0838897749781609 -8.91384506225586 0.0941722393035889
vertex 0.0822749808430672 -8.36253070831299 0.0547251254320145
endloop
endfacet
facet normal 0.999995708465576 0.00292898737825453 5.88155749892626e-16
outer loop
vertex 0.0838897749781609 -8.91384506225586 0.055827759206295
vertex 0.0822749808430672 -8.36253070831299 0.0547251254320145
vertex 0.0838897749781609 -8.91384506225586 0.0941722393035889
endloop
endfacet
facet normal 0.999995708465576 0.00292898737825453 5.88155749892626e-16
outer loop
vertex 0.0838897749781609 -8.91384506225586 0.055827759206295
vertex 0.0838897749781609 -8.91384506225586 0.0941722393035889
vertex 0.0855045765638351 -9.46515941619873 0.0569303892552853
endloop
endfacet
facet normal 0.999995708465576 0.00292898737825453 2.4003841699113e-16
outer loop
vertex 0.0855045765638351 -9.46515941619873 0.0930696055293083
vertex 0.0855045765638351 -9.46515941619873 0.0569303892552853
vertex 0.0838897749781609 -8.91384506225586 0.0941722393035889
endloop
endfacet
facet normal 0.999995708465576 0.00292898737825453 2.4003841699113e-16
outer loop
vertex 0.0855045765638351 -9.46515941619873 0.0930696055293083
vertex 0.0871193781495094 -10.0164737701416 0.0919669792056084
vertex 0.0855045765638351 -9.46515941619873 0.0569303892552853
endloop
endfacet
facet normal 0.999995708465576 0.00292898737825453 4.08962938815884e-16
outer loop
vertex 0.0871193781495094 -10.0164737701416 0.0580330230295658
vertex 0.0855045765638351 -9.46515941619873 0.0569303892552853
vertex 0.0871193781495094 -10.0164737701416 0.0919669792056084
endloop
endfacet
facet normal 0.999995708465576 0.00292898737825453 4.08962912346104e-16
outer loop
vertex 0.0871193781495094 -10.0164737701416 0.0580330230295658
vertex 0.0871193781495094 -10.0164737701416 0.0919669792056084
vertex 0.0885462313890457 -10.5036220550537 0.0590073242783546
endloop
endfacet
facet normal 0.999995708465576 0.00292898761108518 -1.6266594096128e-16
outer loop
vertex 0.0885462313890457 -10.5036220550537 0.0909926742315292
vertex 0.0885462313890457 -10.5036220550537 0.0590073242783546
vertex 0.0871193781495094 -10.0164737701416 0.0919669792056084
endloop
endfacet
facet normal 0.999995708465576 0.00292898737825453 -1.6266594096128e-16
outer loop
vertex 0.0885462313890457 -10.5036220550537 0.0909926742315292
vertex 0.0894442573189735 -10.8102178573608 0.0903794765472412
vertex 0.0885462313890457 -10.5036220550537 0.0590073242783546
endloop
endfacet
facet normal 0.999995768070221 0.00292898761108518 -7.33202042357367e-16
outer loop
vertex 0.0894442573189735 -10.8102178573608 0.0596205219626427
vertex 0.0885462313890457 -10.5036220550537 0.0590073242783546
vertex 0.0894442573189735 -10.8102178573608 0.0903794765472412
endloop
endfacet
facet normal 0.999995708465576 0.00292898737825453 -7.33201936478249e-16
outer loop
vertex 0.0894442573189735 -10.8102178573608 0.0596205219626427
vertex 0.0894442573189735 -10.8102178573608 0.0903794765472412
vertex 0.0900000035762787 -10.9999570846558 0.0599999986588955
endloop
endfacet
facet normal 0.999995768070221 0.00292898737825453 0
outer loop
vertex 0.0900000035762787 -10.9999570846558 0.0900000035762787
vertex 0.0900000035762787 -10.9999570846558 0.0599999986588955
vertex 0.0894442573189735 -10.8102178573608 0.0903794765472412
endloop
endfacet
endsolid COMSOL mesh mesh1
