solid COMSOL mesh mesh1
facet normal -0.0192342270165682 -0.0048033744096756 -0.999803483486176
outer loop
vertex -0.0594052262604237 -0.970006287097931 0.0898444578051567
vertex -0.0599999986588955 -1 0.0900000035762787
vertex -0.266188502311707 -0.966092169284821 0.0938037484884262
endloop
endfacet
facet normal -0.0192342270165682 -0.0048033744096756 -0.999803483486176
outer loop
vertex -0.266775071620941 -0.995672225952148 0.0939571484923363
vertex -0.266188502311707 -0.966092169284821 0.0938037484884262
vertex -0.0599999986588955 -1 0.0900000035762787
endloop
endfacet
facet normal -0.0192342288792133 -0.0048033744096756 -0.999803483486176
outer loop
vertex -0.266775071620941 -0.995672225952148 0.0939571484923363
vertex -0.64050018787384 -0.987850248813629 0.10110929608345
vertex -0.266188502311707 -0.966092169284821 0.0938037484884262
endloop
endfacet
facet normal -0.0192342288792133 -0.00480337487533689 -0.999803483486176
outer loop
vertex -0.639928460121155 -0.959017753601074 0.100959777832031
vertex -0.266188502311707 -0.966092169284821 0.0938037484884262
vertex -0.64050018787384 -0.987850248813629 0.10110929608345
endloop
endfacet
facet normal -0.0192342270165682 -0.0048033744096756 -0.999803483486176
outer loop
vertex -0.64050018787384 -0.987850248813629 0.10110929608345
vertex -1.31597077846527 -0.973712801933289 0.114036083221436
vertex -0.639928460121155 -0.959017753601074 0.100959777832031
endloop
endfacet
facet normal -0.0192342270165682 -0.0048033744096756 -0.999803423881531
outer loop
vertex -1.31542575359344 -0.946231484413147 0.113893568515778
vertex -0.639928460121155 -0.959017753601074 0.100959777832031
vertex -1.31597077846527 -0.973712801933289 0.114036083221436
endloop
endfacet
facet normal -0.0192342288792133 -0.0048033744096756 -0.999803483486176
outer loop
vertex -1.31542575359344 -0.946231484413147 0.113893568515778
vertex -1.31597077846527 -0.973712801933289 0.114036083221436
vertex -2.2892210483551 -0.927798867225647 0.13253889977932
endloop
endfacet
facet normal -0.0192342288792133 -0.00480337487533689 -0.999803483486176
outer loop
vertex -2.28972744941711 -0.953332245349884 0.132671311497688
vertex -2.2892210483551 -0.927798867225647 0.13253889977932
vertex -1.31597077846527 -0.973712801933289 0.114036083221436
endloop
endfacet
facet normal -0.019234225153923 -0.0048033744096756 -0.999803423881531
outer loop
vertex -2.28972744941711 -0.953332245349884 0.132671311497688
vertex -3.2691125869751 -0.932833909988403 0.15141424536705
vertex -2.2892210483551 -0.927798867225647 0.13253889977932
endloop
endfacet
facet normal -0.0192342270165682 -0.0048033744096756 -0.999803423881531
outer loop
vertex -3.26864504814148 -0.909259617328644 0.151291996240616
vertex -2.2892210483551 -0.927798867225647 0.13253889977932
vertex -3.2691125869751 -0.932833909988403 0.15141424536705
endloop
endfacet
facet normal -0.0192342270165682 -0.0048033744096756 -0.999803423881531
outer loop
vertex -3.2691125869751 -0.932833909988403 0.15141424536705
vertex -4.15014410018921 -0.914394080638885 0.168274953961372
vertex -3.26864504814148 -0.909259617328644 0.151291996240616
endloop
endfacet
facet normal -0.0192342270165682 -0.0048033744096756 -0.999803483486176
outer loop
vertex -4.14971160888672 -0.89258223772049 0.16816183924675
vertex -3.26864504814148 -0.909259617328644 0.151291996240616
vertex -4.15014410018921 -0.914394080638885 0.168274953961372
endloop
endfacet
facet normal -0.0192342288792133 -0.0048033744096756 -0.999803483486176
outer loop
vertex -4.14971160888672 -0.89258223772049 0.16816183924675
vertex -4.15014410018921 -0.914394080638885 0.168274953961372
vertex -4.64822292327881 -0.883146047592163 0.177706867456436
endloop
endfacet
facet normal -0.0192342270165682 -0.0048033744096756 -0.999803483486176
outer loop
vertex -4.64863586425781 -0.903960764408112 0.177814811468124
vertex -4.64822292327881 -0.883146047592163 0.177706867456436
vertex -4.15014410018921 -0.914394080638885 0.168274953961372
endloop
endfacet
facet normal -0.0192342270165682 -0.0048033744096756 -0.999803483486176
outer loop
vertex -4.9153208732605 -0.89837908744812 0.18291848897934
vertex -4.91491889953613 -0.878097891807556 0.182813301682472
vertex -4.64863586425781 -0.903960764408112 0.177814811468124
endloop
endfacet
facet normal -0.0192342288792133 -0.0048033744096756 -0.999803483486176
outer loop
vertex -4.64822292327881 -0.883146047592163 0.177706867456436
vertex -4.64863586425781 -0.903960764408112 0.177814811468124
vertex -4.91491889953613 -0.878097891807556 0.182813301682472
endloop
endfacet
facet normal -0.0192342270165682 -0.0048033744096756 -0.999803483486176
outer loop
vertex -4.9153208732605 -0.89837908744812 0.18291848897934
vertex -5.05799293518066 -0.895392954349518 0.185648858547211
vertex -4.91491889953613 -0.878097891807556 0.182813301682472
endloop
endfacet
facet normal -0.0192342270165682 -0.00480337487533689 -0.999803483486176
outer loop
vertex -5.0575966835022 -0.875397145748138 0.185545176267624
vertex -4.91491889953613 -0.878097891807556 0.182813301682472
vertex -5.05799293518066 -0.895392954349518 0.185648858547211
endloop
endfacet
facet normal -0.0190904699265957 0.00207623885944486 -0.999815583229065
outer loop
vertex -0.0595833547413349 -0.980004370212555 0.0900335684418678
vertex -0.0600024983286858 -0.999999940395355 0.0900000482797623
vertex -0.195505306124687 -0.977703511714935 0.0926336422562599
endloop
endfacet
facet normal -0.0190904699265957 0.00207623885944486 -0.999815583229065
outer loop
vertex -0.195914223790169 -0.997155368328094 0.092601053416729
vertex -0.195505306124687 -0.977703511714935 0.0926336422562599
vertex -0.0600024983286858 -0.999999940395355 0.0900000482797623
endloop
endfacet
facet normal -0.0190904699265957 0.00207623885944486 -0.999815583229065
outer loop
vertex -0.195505306124687 -0.977703511714935 0.0926336422562599
vertex -0.195914223790169 -0.997155368328094 0.092601053416729
vertex -0.418022751808167 -0.973936855792999 0.0968902036547661
endloop
endfacet
facet normal -0.0190904717892408 0.0020762390922755 -0.99981564283371
outer loop
vertex -0.41841396689415 -0.992498457431793 0.0968591272830963
vertex -0.418022751808167 -0.973936855792999 0.0968902036547661
vertex -0.195914223790169 -0.997155368328094 0.092601053416729
endloop
endfacet
facet normal -0.0190904699265957 0.0020762390922755 -0.999815583229065
outer loop
vertex -0.41841396689415 -0.992498457431793 0.0968591272830963
vertex -0.782666087150574 -0.984874725341797 0.103829987347126
vertex -0.418022751808167 -0.973936855792999 0.0968902036547661
endloop
endfacet
facet normal -0.0190904680639505 0.00207623885944486 -0.999815583229065
outer loop
vertex -0.782305479049683 -0.967770397663116 0.10385861992836
vertex -0.418022751808167 -0.973936855792999 0.0968902036547661
vertex -0.782666087150574 -0.984874725341797 0.103829987347126
endloop
endfacet
facet normal -0.0190904699265957 0.00207623885944486 -0.999815583229065
outer loop
vertex -0.782305479049683 -0.967770397663116 0.10385861992836
vertex -0.782666087150574 -0.984874725341797 0.103829987347126
vertex -1.37867164611816 -0.957675278186798 0.115266598761082
endloop
endfacet
facet normal -0.0190904699265957 0.00207623885944486 -0.999815583229065
outer loop
vertex -1.37897968292236 -0.972393989562988 0.115241914987564
vertex -1.37867164611816 -0.957675278186798 0.115266598761082
vertex -0.782666087150574 -0.984874725341797 0.103829987347126
endloop
endfacet
facet normal -0.0190904699265957 0.0020762390922755 -0.99981564283371
outer loop
vertex -1.37897968292236 -0.972393989562988 0.115241914987564
vertex -2.27479887008667 -0.953644692897797 0.132385611534119
vertex -1.37867164611816 -0.957675278186798 0.115266598761082
endloop
endfacet
facet normal -0.0190904717892408 0.0020762390922755 -0.99981564283371
outer loop
vertex -2.27456736564636 -0.942509889602661 0.132404312491417
vertex -1.37867164611816 -0.957675278186798 0.115266598761082
vertex -2.27479887008667 -0.953644692897797 0.132385611534119
endloop
endfacet
facet normal -0.0190904699265957 0.00207623885944486 -0.999815583229065
outer loop
vertex -2.27456736564636 -0.942509889602661 0.132404312491417
vertex -2.27479887008667 -0.953644692897797 0.132385611534119
vertex -3.20237588882446 -0.92680424451828 0.150152504444122
endloop
endfacet
facet normal -0.0190904699265957 0.00207623885944486 -0.999815583229065
outer loop
vertex -3.20253038406372 -0.934227466583252 0.150140032172203
vertex -3.20237588882446 -0.92680424451828 0.150152504444122
vertex -2.27479887008667 -0.953644692897797 0.132385611534119
endloop
endfacet
facet normal -0.0190904699265957 0.00207623885944486 -0.999815583229065
outer loop
vertex -3.20253038406372 -0.934227466583252 0.150140032172203
vertex -4.13026142120361 -0.914810240268707 0.167894452810287
vertex -3.20237588882446 -0.92680424451828 0.150152504444122
endloop
endfacet
facet normal -0.0190904699265957 0.00207623885944486 -0.999815583229065
outer loop
vertex -4.13018465042114 -0.911098599433899 0.167900681495667
vertex -3.20237588882446 -0.92680424451828 0.150152504444122
vertex -4.13026142120361 -0.914810240268707 0.167894452810287
endloop
endfacet
facet normal -0.0190904699265957 0.00207623885944486 -0.999815583229065
outer loop
vertex -4.13026142120361 -0.914810240268707 0.167894452810287
vertex -5.05799293518066 -0.895392954349518 0.185648858547211
vertex -4.13018465042114 -0.911098599433899 0.167900681495667
endloop
endfacet
facet normal -0.382604867219925 0.00666310032829642 0.923888087272644
outer loop
vertex 0.0391446314752102 3.99974131584167 0.0649999976158142
vertex -0.747404515743256 4.0045952796936 -0.260764420032501
vertex 0.0361707247793674 3.84977102279663 0.0648500248789787
endloop
endfacet
facet normal -0.382604867219925 0.00666310032829642 0.923888087272644
outer loop
vertex -0.749939620494843 3.87675404548645 -0.260892271995544
vertex 0.0361707247793674 3.84977102279663 0.0648500248789787
vertex -0.747404515743256 4.0045952796936 -0.260764420032501
endloop
endfacet
facet normal -0.382604867219925 0.00666310032829642 0.923888087272644
outer loop
vertex -0.749939620494843 3.87675404548645 -0.260892271995544
vertex -0.747404515743256 4.0045952796936 -0.260764420032501
vertex -1.69669377803802 3.90925121307373 -0.653200924396515
endloop
endfacet
facet normal -0.382604867219925 0.00666309986263514 0.923888027667999
outer loop
vertex -1.69468724727631 4.01044178009033 -0.653099715709686
vertex -1.69669377803802 3.90925121307373 -0.653200924396515
vertex -0.747404515743256 4.0045952796936 -0.260764420032501
endloop
endfacet
facet normal -0.382604867219925 0.00666310032829642 0.923888027667999
outer loop
vertex -1.69669377803802 3.90925121307373 -0.653200924396515
vertex -1.69468724727631 4.01044178009033 -0.653099715709686
vertex -2.66685438156128 3.94255185127258 -1.05520856380463
endloop
endfacet
facet normal -0.382604837417603 0.00666309939697385 0.923887968063354
outer loop
vertex -2.6653892993927 4.01643228530884 -1.0551346540451
vertex -2.66685438156128 3.94255185127258 -1.05520856380463
vertex -1.69468724727631 4.01044178009033 -0.653099715709686
endloop
endfacet
facet normal -0.382604837417603 0.00666309986263514 0.923888087272644
outer loop
vertex -2.6653892993927 4.01643228530884 -1.0551346540451
vertex -3.60943388938904 4.02225828170776 -1.44612884521484
vertex -2.66685438156128 3.94255185127258 -1.05520856380463
endloop
endfacet
facet normal -0.382604867219925 0.00666310032829642 0.923888087272644
outer loop
vertex -3.61037230491638 3.97493815422058 -1.4461761713028
vertex -2.66685438156128 3.94255185127258 -1.05520856380463
vertex -3.60943388938904 4.02225828170776 -1.44612884521484
endloop
endfacet
facet normal -0.382604867219925 0.00666309986263514 0.923888027667999
outer loop
vertex -3.61037230491638 3.97493815422058 -1.4461761713028
vertex -3.60943388938904 4.02225828170776 -1.44612884521484
vertex -4.17327976226807 3.99425983428955 -1.67942953109741
endloop
endfacet
facet normal -0.382604867219925 0.00666309986263514 0.923888087272644
outer loop
vertex -4.17265558242798 4.02573442459106 -1.67939805984497
vertex -4.17327976226807 3.99425983428955 -1.67942953109741
vertex -3.60943388938904 4.02225828170776 -1.44612884521484
endloop
endfacet
facet normal -0.382604867219925 0.00666310032829642 0.923888027667999
outer loop
vertex -4.17265558242798 4.02573442459106 -1.67939805984497
vertex -4.4470043182373 4.02742719650269 -1.7930246591568
vertex -4.17327976226807 3.99425983428955 -1.67942953109741
endloop
endfacet
facet normal -0.382604867219925 0.00666309986263514 0.923888027667999
outer loop
vertex -4.44747543334961 4.00367164611816 -1.79304838180542
vertex -4.17327976226807 3.99425983428955 -1.67942953109741
vertex -4.4470043182373 4.02742719650269 -1.7930246591568
endloop
endfacet
facet normal -0.382604867219925 0.00666310032829642 0.923888027667999
outer loop
vertex -4.44747543334961 4.00367164611816 -1.79304838180542
vertex -4.4470043182373 4.02742719650269 -1.7930246591568
vertex -4.58103704452515 4.00825595855713 -1.84839284420013
endloop
endfacet
facet normal -0.382604837417603 0.00666309986263514 0.923888087272644
outer loop
vertex -4.58064079284668 4.02825212478638 -1.84837281703949
vertex -4.58103704452515 4.00825595855713 -1.84839284420013
vertex -4.4470043182373 4.02742719650269 -1.7930246591568
endloop
endfacet
facet normal -0.691652238368988 -0.207928568124771 -0.691652238368988
outer loop
vertex -0.151604861021042 4.75476598739624 -0.0194393303245306
vertex 0.0361707247793674 3.84977102279663 0.0648500248789787
vertex -0.154178574681282 4.754478931427 -0.0167793557047844
endloop
endfacet
facet normal -0.691652238368988 -0.207928568124771 -0.691652238368988
outer loop
vertex -0.339380443096161 5.65976095199585 -0.10372868180275
vertex -0.151604861021042 4.75476598739624 -0.0194393303245306
vertex -0.344527900218964 5.65918731689453 -0.0984087362885475
endloop
endfacet
facet normal -0.691652238368988 -0.207928568124771 -0.691652238368988
outer loop
vertex -0.154178574681282 4.754478931427 -0.0167793557047844
vertex -0.344527900218964 5.65918731689453 -0.0984087362885475
vertex -0.151604861021042 4.75476598739624 -0.0194393303245306
endloop
endfacet
facet normal -0.691652238368988 -0.207928568124771 -0.691652238368988
outer loop
vertex -0.339380443096161 5.65976095199585 -0.10372868180275
vertex -0.344527900218964 5.65918731689453 -0.0984087362885475
vertex -0.527156054973602 6.56475639343262 -0.188018038868904
endloop
endfacet
facet normal -0.691652238368988 -0.20792855322361 -0.691652238368988
outer loop
vertex -0.534877181053162 6.56389570236206 -0.18003810942173
vertex -0.527156054973602 6.56475639343262 -0.188018038868904
vertex -0.344527900218964 5.65918731689453 -0.0984087362885475
endloop
endfacet
facet normal -0.691652238368988 -0.207928568124771 -0.691652238368988
outer loop
vertex -0.708472371101379 7.43862056732178 -0.26940792798996
vertex -0.527156054973602 6.56475639343262 -0.188018038868904
vertex -0.718679130077362 7.43748474121094 -0.258859694004059
endloop
endfacet
facet normal -0.691652238368988 -0.20792855322361 -0.691652238368988
outer loop
vertex -0.534877181053162 6.56389570236206 -0.18003810942173
vertex -0.718679130077362 7.43748474121094 -0.258859694004059
vertex -0.527156054973602 6.56475639343262 -0.188018038868904
endloop
endfacet
facet normal -0.691652238368988 -0.207928538322449 -0.691652238368988
outer loop
vertex -0.708472371101379 7.43862056732178 -0.26940792798996
vertex -0.718679130077362 7.43748474121094 -0.258859694004059
vertex -0.829167544841766 8.02031803131104 -0.323586016893387
endloop
endfacet
facet normal -0.691652238368988 -0.207928568124771 -0.691652238368988
outer loop
vertex -0.841029226779938 8.01900100708008 -0.311328321695328
vertex -0.829167544841766 8.02031803131104 -0.323586016893387
vertex -0.718679130077362 7.43748474121094 -0.258859694004059
endloop
endfacet
facet normal -0.691652238368988 -0.207928568124771 -0.691652238368988
outer loop
vertex -0.902892827987671 8.37564086914063 -0.356680065393448
vertex -0.829167544841766 8.02031803131104 -0.323586016893387
vertex -0.915765047073364 8.37421131134033 -0.343378037214279
endloop
endfacet
facet normal -0.691652297973633 -0.20792855322361 -0.691652297973633
outer loop
vertex -0.841029226779938 8.01900100708008 -0.311328321695328
vertex -0.915765047073364 8.37421131134033 -0.343378037214279
vertex -0.829167544841766 8.02031803131104 -0.323586016893387
endloop
endfacet
facet normal -0.691652297973633 -0.207928568124771 -0.691652297973633
outer loop
vertex -0.902892827987671 8.37564086914063 -0.356680065393448
vertex -0.915765047073364 8.37421131134033 -0.343378037214279
vertex -0.947927117347717 8.59268665313721 -0.376895189285278
endloop
endfacet
facet normal -0.691652297973633 -0.20792855322361 -0.691652297973633
outer loop
vertex -0.96141642332077 8.59118747711182 -0.362955152988434
vertex -0.947927117347717 8.59268665313721 -0.376895189285278
vertex -0.915765047073364 8.37421131134033 -0.343378037214279
endloop
endfacet
facet normal -0.691652238368988 -0.20792855322361 -0.691652238368988
outer loop
vertex -0.947927117347717 8.59268665313721 -0.376895189285278
vertex -0.96141642332077 8.59118747711182 -0.362955152988434
vertex -0.975435793399811 8.72526550292969 -0.389243394136429
endloop
endfacet
facet normal -0.691652297973633 -0.207928568124771 -0.691652297973633
outer loop
vertex -0.989301919937134 8.72372341156006 -0.374913573265076
vertex -0.975435793399811 8.72526550292969 -0.389243394136429
vertex -0.96141642332077 8.59118747711182 -0.362955152988434
endloop
endfacet
facet normal 0.999803423881531 0.0048033744096756 -0.0192342270165682
outer loop
vertex -0.0955451726913452 -0.124602824449539 -4.9975962638855
vertex -0.0956488624215126 -0.10460702329874 -4.99799299240112
vertex -0.0928133055567741 -0.121902123093605 -4.85491847991943
endloop
endfacet
facet normal 0.999803483486176 0.0048033744096756 -0.0192342270165682
outer loop
vertex -0.0929184854030609 -0.101620927453041 -4.85532093048096
vertex -0.0928133055567741 -0.121902123093605 -4.85491847991943
vertex -0.0956488624215126 -0.10460702329874 -4.99799299240112
endloop
endfacet
facet normal 0.999803483486176 0.0048033744096756 -0.0192342270165682
outer loop
vertex -0.0929184854030609 -0.101620927453041 -4.85532093048096
vertex -0.0878148078918457 -0.0960392653942108 -4.58863592147827
vertex -0.0928133055567741 -0.121902123093605 -4.85491847991943
endloop
endfacet
facet normal 0.999803483486176 0.0048033744096756 -0.0192342288792133
outer loop
vertex -0.0877068713307381 -0.116853930056095 -4.58822298049927
vertex -0.0928133055567741 -0.121902123093605 -4.85491847991943
vertex -0.0878148078918457 -0.0960392653942108 -4.58863592147827
endloop
endfacet
facet normal 0.999803483486176 0.0048033744096756 -0.0192342288792133
outer loop
vertex -0.0781618356704712 -0.107417769730091 -4.08971166610718
vertex -0.0877068713307381 -0.116853930056095 -4.58822298049927
vertex -0.0782749503850937 -0.0856059268116951 -4.09014415740967
endloop
endfacet
facet normal 0.999803483486176 0.0048033744096756 -0.0192342270165682
outer loop
vertex -0.0878148078918457 -0.0960392653942108 -4.58863592147827
vertex -0.0782749503850937 -0.0856059268116951 -4.09014415740967
vertex -0.0877068713307381 -0.116853930056095 -4.58822298049927
endloop
endfacet
facet normal 0.999803483486176 0.0048033744096756 -0.0192342270165682
outer loop
vertex -0.0781618356704712 -0.107417769730091 -4.08971166610718
vertex -0.0782749503850937 -0.0856059268116951 -4.09014415740967
vertex -0.0612919963896275 -0.0907403528690338 -3.20864510536194
endloop
endfacet
facet normal 0.999803423881531 0.0048033744096756 -0.0192342270165682
outer loop
vertex -0.0614142455160618 -0.0671661049127579 -3.20911264419556
vertex -0.0612919963896275 -0.0907403528690338 -3.20864510536194
vertex -0.0782749503850937 -0.0856059268116951 -4.09014415740967
endloop
endfacet
facet normal 0.999803423881531 0.0048033744096756 -0.0192342270165682
outer loop
vertex -0.0612919963896275 -0.0907403528690338 -3.20864510536194
vertex -0.0614142455160618 -0.0671661049127579 -3.20911264419556
vertex -0.0425388962030411 -0.0722011551260948 -2.22922110557556
endloop
endfacet
facet normal 0.999803483486176 0.0048033744096756 -0.0192342270165682
outer loop
vertex -0.0426713079214096 -0.0466677621006966 -2.22972726821899
vertex -0.0425388962030411 -0.0722011551260948 -2.22922110557556
vertex -0.0614142455160618 -0.0671661049127579 -3.20911264419556
endloop
endfacet
facet normal 0.999803483486176 0.0048033744096756 -0.0192342288792133
outer loop
vertex -0.0238935705274343 -0.0537685006856918 -1.2554258108139
vertex -0.0425388962030411 -0.0722011551260948 -2.22922110557556
vertex -0.0240360833704472 -0.0262872241437435 -1.25597071647644
endloop
endfacet
facet normal 0.999803483486176 0.00480337487533689 -0.0192342288792133
outer loop
vertex -0.0426713079214096 -0.0466677621006966 -2.22972726821899
vertex -0.0240360833704472 -0.0262872241437435 -1.25597071647644
vertex -0.0425388962030411 -0.0722011551260948 -2.22922110557556
endloop
endfacet
facet normal 0.999803423881531 0.0048033744096756 -0.0192342270165682
outer loop
vertex -0.0238935705274343 -0.0537685006856918 -1.2554258108139
vertex -0.0240360833704472 -0.0262872241437435 -1.25597071647644
vertex -0.0109597761183977 -0.0409822352230549 -0.579928457736969
endloop
endfacet
facet normal 0.999803483486176 0.0048033744096756 -0.0192342270165682
outer loop
vertex -0.0111092962324619 -0.0121497567743063 -0.580500185489655
vertex -0.0109597761183977 -0.0409822352230549 -0.579928457736969
vertex -0.0240360833704472 -0.0262872241437435 -1.25597071647644
endloop
endfacet
facet normal 0.999803483486176 0.0048033744096756 -0.0192342288792133
outer loop
vertex -0.0039571481756866 -0.00432776194065809 -0.206775069236755
vertex -0.00380375189706683 -0.0339078344404697 -0.20618848502636
vertex -0.0111092962324619 -0.0121497567743063 -0.580500185489655
endloop
endfacet
facet normal 0.999803483486176 0.00480337487533689 -0.0192342288792133
outer loop
vertex -0.0109597761183977 -0.0409822352230549 -0.579928457736969
vertex -0.0111092962324619 -0.0121497567743063 -0.580500185489655
vertex -0.00380375189706683 -0.0339078344404697 -0.20618848502636
endloop
endfacet
facet normal 0.999803483486176 0.0048033744096756 -0.0192342270165682
outer loop
vertex -0.0039571481756866 -0.00432776194065809 -0.206775069236755
vertex 0 0 0
vertex -0.00380375189706683 -0.0339078344404697 -0.20618848502636
endloop
endfacet
facet normal 0.999803483486176 0.0048033744096756 -0.0192342270165682
outer loop
vertex 0.000155541551066563 -0.029993699863553 0.000594773620832711
vertex -0.00380375189706683 -0.0339078344404697 -0.20618848502636
vertex 0 0 0
endloop
endfacet
facet normal 0.999815583229065 -0.00207623885944486 -0.0190904699265957
outer loop
vertex -0.0778944492340088 -0.0851897895336151 -4.07026147842407
vertex -0.0779006779193878 -0.0889013931155205 -4.07018423080444
vertex -0.0956488624215126 -0.10460702329874 -4.99799299240112
endloop
endfacet
facet normal 0.999815583229065 -0.00207623885944486 -0.0190904699265957
outer loop
vertex -0.0601400285959244 -0.0657725483179092 -3.1425302028656
vertex -0.0601524971425533 -0.0731957629323006 -3.14237594604492
vertex -0.0778944492340088 -0.0851897895336151 -4.07026147842407
endloop
endfacet
facet normal 0.999815583229065 -0.00207623885944486 -0.0190904699265957
outer loop
vertex -0.0779006779193878 -0.0889013931155205 -4.07018423080444
vertex -0.0778944492340088 -0.0851897895336151 -4.07026147842407
vertex -0.0601524971425533 -0.0731957629323006 -3.14237594604492
endloop
endfacet
facet normal 0.999815583229065 -0.00207623885944486 -0.0190904699265957
outer loop
vertex -0.0601400285959244 -0.0657725483179092 -3.1425302028656
vertex -0.0423856154084206 -0.046355314552784 -2.21479892730713
vertex -0.0601524971425533 -0.0731957629323006 -3.14237594604492
endloop
endfacet
facet normal 0.999815583229065 -0.00207623885944486 -0.0190904699265957
outer loop
vertex -0.0424043163657188 -0.057490136474371 -2.21456742286682
vertex -0.0601524971425533 -0.0731957629323006 -3.14237594604492
vertex -0.0423856154084206 -0.046355314552784 -2.21479892730713
endloop
endfacet
facet normal 0.99981564283371 -0.00207623885944486 -0.0190904699265957
outer loop
vertex -0.0423856154084206 -0.046355314552784 -2.21479892730713
vertex -0.0252419132739305 -0.0276059880852699 -1.31897962093353
vertex -0.0424043163657188 -0.057490136474371 -2.21456742286682
endloop
endfacet
facet normal 0.99981564283371 -0.0020762390922755 -0.0190904717892408
outer loop
vertex -0.0252665970474482 -0.0423247143626213 -1.31867158412933
vertex -0.0424043163657188 -0.057490136474371 -2.21456742286682
vertex -0.0252419132739305 -0.0276059880852699 -1.31897962093353
endloop
endfacet
facet normal 0.999815583229065 -0.00207623885944486 -0.0190904699265957
outer loop
vertex -0.0252419132739305 -0.0276059880852699 -1.31897962093353
vertex -0.0138299893587828 -0.0151252616196871 -0.722666084766388
vertex -0.0252665970474482 -0.0423247143626213 -1.31867158412933
endloop
endfacet
facet normal 0.999815583229065 -0.00207623885944486 -0.0190904699265957
outer loop
vertex -0.0138586228713393 -0.0322296284139156 -0.722305476665497
vertex -0.0252665970474482 -0.0423247143626213 -1.31867158412933
vertex -0.0138299893587828 -0.0151252616196871 -0.722666084766388
endloop
endfacet
facet normal 0.999815583229065 -0.0020762390922755 -0.0190904699265957
outer loop
vertex -0.00685913115739822 -0.00750153511762619 -0.358413964509964
vertex -0.00689020706340671 -0.0260631740093231 -0.358022779226303
vertex -0.0138299893587828 -0.0151252616196871 -0.722666084766388
endloop
endfacet
facet normal 0.999815583229065 -0.00207623885944486 -0.0190904680639505
outer loop
vertex -0.0138586228713393 -0.0322296284139156 -0.722305476665497
vertex -0.0138299893587828 -0.0151252616196871 -0.722666084766388
vertex -0.00689020706340671 -0.0260631740093231 -0.358022779226303
endloop
endfacet
facet normal 0.99981564283371 -0.0020762390922755 -0.0190904717892408
outer loop
vertex -0.00685913115739822 -0.00750153511762619 -0.358413964509964
vertex -0.00260105216875672 -0.00284465844742954 -0.135914221405983
vertex -0.00689020706340671 -0.0260631740093231 -0.358022779226303
endloop
endfacet
facet normal 0.999815583229065 -0.00207623885944486 -0.0190904699265957
outer loop
vertex -0.00263363867998123 -0.0222964733839035 -0.135505318641663
vertex -0.00689020706340671 -0.0260631740093231 -0.358022779226303
vertex -0.00260105216875672 -0.00284465844742954 -0.135914221405983
endloop
endfacet
facet normal 0.999815583229065 -0.00207623885944486 -0.0190904699265957
outer loop
vertex -0.00260105216875672 -0.00284465844742954 -0.135914221405983
vertex -4.78243968871084e-08 -5.23034735522288e-08 -2.49899471782555e-06
vertex -0.00263363867998123 -0.0222964733839035 -0.135505318641663
endloop
endfacet
facet normal 0.999815583229065 -0.00207623885944486 -0.0190904699265957
outer loop
vertex -3.35679287672974e-05 -0.0199956316500902 0.000416646100347862
vertex -0.00263363867998123 -0.0222964733839035 -0.135505318641663
vertex -4.78243968871084e-08 -5.23034735522288e-08 -2.49899471782555e-06
endloop
endfacet
facet normal -0.0191363207995892 -0.000631227914709598 -0.999816656112671
outer loop
vertex 3.45467877388 0.348115265369415 0.0219326838850975
vertex 3.4402551651001 0.334263265132904 0.0222174935042858
vertex 3.35587763786316 0.453745871782303 0.0237570311874151
endloop
endfacet
facet normal -0.0191363226622343 -0.000631227972917259 -0.999816656112671
outer loop
vertex 3.33874201774597 0.437289357185364 0.0240953955799341
vertex 3.35587763786316 0.453745871782303 0.0237570311874151
vertex 3.4402551651001 0.334263265132904 0.0222174935042858
endloop
endfacet
facet normal -0.0191363226622343 -0.000631227914709598 -0.999816656112671
outer loop
vertex 3.15304446220398 0.670599639415741 0.027502316981554
vertex 3.35587763786316 0.453745871782303 0.0237570311874151
vertex 3.13034105300903 0.648796141147614 0.0279506184160709
endloop
endfacet
facet normal -0.0191363226622343 -0.000631227914709598 -0.999816715717316
outer loop
vertex 3.33874201774597 0.437289357185364 0.0240953955799341
vertex 3.13034105300903 0.648796141147614 0.0279506184160709
vertex 3.35587763786316 0.453745871782303 0.0237570311874151
endloop
endfacet
facet normal -0.0191363207995892 -0.000631227914709598 -0.999816656112671
outer loop
vertex 3.15304446220398 0.670599639415741 0.027502316981554
vertex 3.13034105300903 0.648796141147614 0.0279506184160709
vertex 2.73663902282715 1.11578810214996 0.0351911783218384
endloop
endfacet
facet normal -0.0191363207995892 -0.000631227972917259 -0.999816715717316
outer loop
vertex 2.70250582695007 1.08300769329071 0.0358651801943779
vertex 2.73663902282715 1.11578810214996 0.0351911783218384
vertex 3.13034105300903 0.648796141147614 0.0279506184160709
endloop
endfacet
facet normal -0.0191363207995892 -0.000631227914709598 -0.999816656112671
outer loop
vertex 2.03868079185486 1.86199128627777 0.0480788685381413
vertex 2.73663902282715 1.11578810214996 0.0351911783218384
vertex 1.9853892326355 1.81081175804138 0.0491311736404896
endloop
endfacet
facet normal -0.0191363207995892 -0.000631227914709598 -0.999816656112671
outer loop
vertex 2.70250582695007 1.08300769329071 0.0358651801943779
vertex 1.9853892326355 1.81081175804138 0.0491311736404896
vertex 2.73663902282715 1.11578810214996 0.0351911783218384
endloop
endfacet
facet normal -0.0191363226622343 -0.000631227972917259 -0.999816715717316
outer loop
vertex 2.03868079185486 1.86199128627777 0.0480788685381413
vertex 1.9853892326355 1.81081175804138 0.0491311736404896
vertex 1.3210141658783 2.62926530838013 0.0613304749131203
endloop
endfacet
facet normal -0.0191363207995892 -0.000631227972917259 -0.999816715717316
outer loop
vertex 1.24802327156067 2.55916690826416 0.0627717673778534
vertex 1.3210141658783 2.62926530838013 0.0613304749131203
vertex 1.9853892326355 1.81081175804138 0.0491311736404896
endloop
endfacet
facet normal -0.0191363226622343 -0.000631227972917259 -0.99981677532196
outer loop
vertex 0.528447031974792 3.28946733474731 0.0760832652449608
vertex 0.620662033557892 3.37802767753601 0.074262373149395
vertex 1.24802327156067 2.55916690826416 0.0627717673778534
endloop
endfacet
facet normal -0.0191363226622343 -0.000631227972917259 -0.999816715717316
outer loop
vertex 1.3210141658783 2.62926530838013 0.0613304749131203
vertex 1.24802327156067 2.55916690826416 0.0627717673778534
vertex 0.620662033557892 3.37802767753601 0.074262373149395
endloop
endfacet
facet normal -0.0191363226622343 -0.000631227972917259 -0.999816715717316
outer loop
vertex 0.528447031974792 3.28946733474731 0.0760832652449608
vertex -0.0690325349569321 3.89585137367249 0.0871360823512077
vertex 0.620662033557892 3.37802767753601 0.074262373149395
endloop
endfacet
facet normal -0.0191363226622343 -0.000631227972917259 -0.999816656112671
outer loop
vertex 0.0391446314752102 3.99974131584167 0.0850000008940697
vertex 0.620662033557892 3.37802767753601 0.074262373149395
vertex -0.0690325349569321 3.89585137367249 0.0871360823512077
endloop
endfacet
facet normal 0.707088530063629 0.00719222193583846 -0.707088530063629
outer loop
vertex 0.0297047980129719 4.92779922485352 0.0649999976158142
vertex 0.0391446314752102 3.99974131584167 0.0649999976158142
vertex 0.0270799547433853 4.9277720451355 0.0623748786747456
endloop
endfacet
facet normal 0.707088530063629 0.00719222193583846 -0.707088530063629
outer loop
vertex 0.0202649645507336 5.85585689544678 0.0649999976158142
vertex 0.0297047980129719 4.92779922485352 0.0649999976158142
vertex 0.0150152780115604 5.85580253601074 0.0597497597336769
endloop
endfacet
facet normal 0.707088530063629 0.00719222193583846 -0.707088530063629
outer loop
vertex 0.0270799547433853 4.9277720451355 0.0623748786747456
vertex 0.0150152780115604 5.85580253601074 0.0597497597336769
vertex 0.0297047980129719 4.92779922485352 0.0649999976158142
endloop
endfacet
facet normal 0.707088530063629 0.00719222193583846 -0.707088530063629
outer loop
vertex 0.0202649645507336 5.85585689544678 0.0649999976158142
vertex 0.0150152780115604 5.85580253601074 0.0597497597336769
vertex 0.0108251301571727 6.7839150428772 0.0649999976158142
endloop
endfacet
facet normal 0.707088530063629 0.00719222193583846 -0.707088530063629
outer loop
vertex 0.00295060221105814 6.78383302688599 0.057124637067318
vertex 0.0108251301571727 6.7839150428772 0.0649999976158142
vertex 0.0150152780115604 5.85580253601074 0.0597497597336769
endloop
endfacet
facet normal 0.707088470458984 0.00719222147017717 -0.707088470458984
outer loop
vertex 0.0017100169789046 7.68004846572876 0.0649999976158142
vertex 0.0108251301571727 6.7839150428772 0.0649999976158142
vertex -0.00869908835738897 7.67994213104248 0.0545898117125034
endloop
endfacet
facet normal 0.707088470458984 0.00719222147017717 -0.707088470458984
outer loop
vertex 0.00295060221105814 6.78383302688599 0.057124637067318
vertex -0.00869908835738897 7.67994213104248 0.0545898117125034
vertex 0.0108251301571727 6.7839150428772 0.0649999976158142
endloop
endfacet
facet normal 0.707088470458984 0.00719222100451589 -0.707088470458984
outer loop
vertex 0.0017100169789046 7.68004846572876 0.0649999976158142
vertex -0.00869908835738897 7.67994213104248 0.0545898117125034
vertex -0.00435755914077163 8.27657032012939 0.0649999976158142
endloop
endfacet
facet normal 0.707088470458984 0.00719222100451589 -0.707088470458984
outer loop
vertex -0.016453854739666 8.27644920349121 0.0529024749994278
vertex -0.00435755914077163 8.27657032012939 0.0649999976158142
vertex -0.00869908835738897 7.67994213104248 0.0545898117125034
endloop
endfacet
facet normal 0.707088470458984 0.00719222147017717 -0.707088470458984
outer loop
vertex -0.00806386861950159 8.64094829559326 0.0649999976158142
vertex -0.00435755914077163 8.27657032012939 0.0649999976158142
vertex -0.0211907457560301 8.6408166885376 0.0518717877566814
endloop
endfacet
facet normal 0.707088470458984 0.00719222147017717 -0.707088470458984
outer loop
vertex -0.016453854739666 8.27644920349121 0.0529024749994278
vertex -0.0211907457560301 8.6408166885376 0.0518717877566814
vertex -0.00435755914077163 8.27657032012939 0.0649999976158142
endloop
endfacet
facet normal 0.707088470458984 0.0071922205388546 -0.707088470458984
outer loop
vertex -0.00806386861950159 8.64094829559326 0.0649999976158142
vertex -0.0211907457560301 8.6408166885376 0.0518717877566814
vertex -0.0103278262540698 8.86352443695068 0.0649999976158142
endloop
endfacet
facet normal 0.70708841085434 0.0071922205388546 -0.70708841085434
outer loop
vertex -0.024084210395813 8.8633861541748 0.0512422062456608
vertex -0.0103278262540698 8.86352443695068 0.0649999976158142
vertex -0.0211907457560301 8.6408166885376 0.0518717877566814
endloop
endfacet
facet normal 0.707088470458984 0.00719222100451589 -0.707088470458984
outer loop
vertex -0.0103278262540698 8.86352443695068 0.0649999976158142
vertex -0.024084210395813 8.8633861541748 0.0512422062456608
vertex -0.0117107387632132 8.99948310852051 0.0649999976158142
endloop
endfacet
facet normal 0.707088530063629 0.00719222147017717 -0.707088530063629
outer loop
vertex -0.0258516408503056 8.99933910369873 0.0508576333522797
vertex -0.0117107387632132 8.99948310852051 0.0649999976158142
vertex -0.024084210395813 8.8633861541748 0.0512422062456608
endloop
endfacet
facet normal -1 0 0
outer loop
vertex -0.00914200022816658 -5 0.0649999976158142
vertex -0.00914200022816658 -5.15407848358154 0.0649999976158142
vertex -0.00914200022816658 -5 0.0850000008940697
endloop
endfacet
facet normal -1 0 0
outer loop
vertex -0.00914200022816658 -5.15407848358154 0.0850000008940697
vertex -0.00914200022816658 -5 0.0850000008940697
vertex -0.00914200022816658 -5.15407848358154 0.0649999976158142
endloop
endfacet
facet normal -1 5.01479032181855e-18 0
outer loop
vertex -0.00914200022816658 -5.15407848358154 0.0850000008940697
vertex -0.00914200022816658 -5.15407848358154 0.0649999976158142
vertex -0.00914200022816658 -5.5 0.0850000008940697
endloop
endfacet
facet normal -1 5.01479032181855e-18 0
outer loop
vertex -0.00914200022816658 -5.5 0.0649999976158142
vertex -0.00914200022816658 -5.5 0.0850000008940697
vertex -0.00914200022816658 -5.15407848358154 0.0649999976158142
endloop
endfacet
facet normal -1 -5.01479032181855e-18 0
outer loop
vertex -0.00914200022816658 -5.84592151641846 0.0649999976158142
vertex -0.00914200022816658 -5.84592151641846 0.0850000008940697
vertex -0.00914200022816658 -5.5 0.0649999976158142
endloop
endfacet
facet normal -1 -5.01479032181855e-18 -0
outer loop
vertex -0.00914200022816658 -5.5 0.0850000008940697
vertex -0.00914200022816658 -5.5 0.0649999976158142
vertex -0.00914200022816658 -5.84592151641846 0.0850000008940697
endloop
endfacet
facet normal -1 0 0
outer loop
vertex -0.00914200022816658 -5.84592151641846 0.0649999976158142
vertex -0.00914200022816658 -6 0.0649999976158142
vertex -0.00914200022816658 -5.84592151641846 0.0850000008940697
endloop
endfacet
facet normal -1 0 0
outer loop
vertex -0.00914200022816658 -6 0.0850000008940697
vertex -0.00914200022816658 -5.84592151641846 0.0850000008940697
vertex -0.00914200022816658 -6 0.0649999976158142
endloop
endfacet
facet normal -0.70710676908493 6.36887844984102e-17 -0.70710676908493
outer loop
vertex 0.00499999988824129 -5 0.0508579984307289
vertex 0.00499999988824129 -5.15407848358154 0.0508579984307289
vertex -0.00914200022816658 -5 0.0649999976158142
endloop
endfacet
facet normal -0.70710676908493 0 -0.70710676908493
outer loop
vertex -0.00914200022816658 -5.15407848358154 0.0649999976158142
vertex -0.00914200022816658 -5 0.0649999976158142
vertex 0.00499999988824129 -5.15407848358154 0.0508579984307289
endloop
endfacet
facet normal -0.70710676908493 1.59569658344706e-17 -0.70710676908493
outer loop
vertex 0.00499999988824129 -5.5 0.0508579984307289
vertex -0.00914200022816658 -5.5 0.0649999976158142
vertex 0.00499999988824129 -5.15407848358154 0.0508579984307289
endloop
endfacet
facet normal -0.70710676908493 3.54599259147805e-18 -0.70710676908493
outer loop
vertex -0.00914200022816658 -5.15407848358154 0.0649999976158142
vertex 0.00499999988824129 -5.15407848358154 0.0508579984307289
vertex -0.00914200022816658 -5.5 0.0649999976158142
endloop
endfacet
facet normal -0.70710676908493 -3.54599259147805e-18 -0.70710676908493
outer loop
vertex -0.00914200022816658 -5.5 0.0649999976158142
vertex 0.00499999988824129 -5.5 0.0508579984307289
vertex -0.00914200022816658 -5.84592151641846 0.0649999976158142
endloop
endfacet
facet normal -0.70710676908493 0 -0.70710676908493
outer loop
vertex 0.00499999988824129 -5.84592151641846 0.0508579984307289
vertex -0.00914200022816658 -5.84592151641846 0.0649999976158142
vertex 0.00499999988824129 -5.5 0.0508579984307289
endloop
endfacet
facet normal -0.70710676908493 -9.95137187477307e-17 -0.70710676908493
outer loop
vertex 0.00499999988824129 -5.84592151641846 0.0508579984307289
vertex 0.00499999988824129 -6 0.0508579984307289
vertex -0.00914200022816658 -5.84592151641846 0.0649999976158142
endloop
endfacet
facet normal -0.70710676908493 0 -0.70710676908493
outer loop
vertex -0.00914200022816658 -6 0.0649999976158142
vertex -0.00914200022816658 -5.84592151641846 0.0649999976158142
vertex 0.00499999988824129 -6 0.0508579984307289
endloop
endfacet
facet normal -0.70710676908493 0 0.70710676908493
outer loop
vertex 0.00499999988824129 -5 0.099142000079155
vertex -0.00914200022816658 -5 0.0850000008940697
vertex 0.00499999988824129 -5.15407848358154 0.099142000079155
endloop
endfacet
facet normal -0.70710676908493 0 0.70710676908493
outer loop
vertex -0.00914200022816658 -5.15407848358154 0.0850000008940697
vertex 0.00499999988824129 -5.15407848358154 0.099142000079155
vertex -0.00914200022816658 -5 0.0850000008940697
endloop
endfacet
facet normal -0.70710676908493 1.77299629573902e-18 0.70710676908493
outer loop
vertex 0.00499999988824129 -5.15407848358154 0.099142000079155
vertex -0.00914200022816658 -5.15407848358154 0.0850000008940697
vertex 0.00499999988824129 -5.5 0.099142000079155
endloop
endfacet
facet normal -0.70710676908493 -2.48219481403463e-17 0.70710676908493
outer loop
vertex -0.00914200022816658 -5.5 0.0850000008940697
vertex 0.00499999988824129 -5.5 0.099142000079155
vertex -0.00914200022816658 -5.15407848358154 0.0850000008940697
endloop
endfacet
facet normal -0.70710676908493 0 0.70710676908493
outer loop
vertex 0.00499999988824129 -5.5 0.099142000079155
vertex -0.00914200022816658 -5.5 0.0850000008940697
vertex 0.00499999988824129 -5.84592151641846 0.099142000079155
endloop
endfacet
facet normal -0.70710676908493 2.48219481403463e-17 0.70710676908493
outer loop
vertex -0.00914200022816658 -5.84592151641846 0.0850000008940697
vertex 0.00499999988824129 -5.84592151641846 0.099142000079155
vertex -0.00914200022816658 -5.5 0.0850000008940697
endloop
endfacet
facet normal -0.70710676908493 -3.98054903115064e-18 0.70710676908493
outer loop
vertex 0.00499999988824129 -6 0.099142000079155
vertex 0.00499999988824129 -5.84592151641846 0.099142000079155
vertex -0.00914200022816658 -6 0.0850000008940697
endloop
endfacet
facet normal -0.70710676908493 0 0.70710676908493
outer loop
vertex -0.00914200022816658 -5.84592151641846 0.0850000008940697
vertex -0.00914200022816658 -6 0.0850000008940697
vertex 0.00499999988824129 -5.84592151641846 0.099142000079155
endloop
endfacet
facet normal 0 9.00695396138616e-17 -1
outer loop
vertex 0.025000000372529 -5 0.0508579984307289
vertex 0.025000000372529 -5.15407848358154 0.0508579984307289
vertex 0.00499999988824129 -5 0.0508579984307289
endloop
endfacet
facet normal 0 9.00695396138616e-17 -1
outer loop
vertex 0.00499999988824129 -5.15407848358154 0.0508579984307289
vertex 0.00499999988824129 -5 0.0508579984307289
vertex 0.025000000372529 -5.15407848358154 0.0508579984307289
endloop
endfacet
facet normal 0 2.00591612872742e-17 -1
outer loop
vertex 0.025000000372529 -5.5 0.0508579984307289
vertex 0.00499999988824129 -5.5 0.0508579984307289
vertex 0.025000000372529 -5.15407848358154 0.0508579984307289
endloop
endfacet
facet normal 0 2.00591612872742e-17 -1
outer loop
vertex 0.00499999988824129 -5.15407848358154 0.0508579984307289
vertex 0.025000000372529 -5.15407848358154 0.0508579984307289
vertex 0.00499999988824129 -5.5 0.0508579984307289
endloop
endfacet
facet normal 0 0 -1
outer loop
vertex 0.00499999988824129 -5.5 0.0508579984307289
vertex 0.025000000372529 -5.5 0.0508579984307289
vertex 0.00499999988824129 -5.84592151641846 0.0508579984307289
endloop
endfacet
facet normal 0 0 -1
outer loop
vertex 0.025000000372529 -5.84592151641846 0.0508579984307289
vertex 0.00499999988824129 -5.84592151641846 0.0508579984307289
vertex 0.025000000372529 -5.5 0.0508579984307289
endloop
endfacet
facet normal -0 -1.35104309420792e-16 -1
outer loop
vertex 0.025000000372529 -5.84592151641846 0.0508579984307289
vertex 0.025000000372529 -6 0.0508579984307289
vertex 0.00499999988824129 -5.84592151641846 0.0508579984307289
endloop
endfacet
facet normal 0 -1.35104309420792e-16 -1
outer loop
vertex 0.00499999988824129 -6 0.0508579984307289
vertex 0.00499999988824129 -5.84592151641846 0.0508579984307289
vertex 0.025000000372529 -6 0.0508579984307289
endloop
endfacet
facet normal 0 0 1
outer loop
vertex 0.025000000372529 -5 0.099142000079155
vertex 0.00499999988824129 -5 0.099142000079155
vertex 0.025000000372529 -5.15407848358154 0.099142000079155
endloop
endfacet
facet normal 0 0 1
outer loop
vertex 0.00499999988824129 -5.15407848358154 0.099142000079155
vertex 0.025000000372529 -5.15407848358154 0.099142000079155
vertex 0.00499999988824129 -5 0.099142000079155
endloop
endfacet
facet normal 0 4.01183225745484e-17 1
outer loop
vertex 0.025000000372529 -5.15407848358154 0.099142000079155
vertex 0.00499999988824129 -5.15407848358154 0.099142000079155
vertex 0.025000000372529 -5.5 0.099142000079155
endloop
endfacet
facet normal -6.93889390390723e-16 1.73985488245283e-33 1
outer loop
vertex 0.00499999988824129 -5.5 0.099142000079155
vertex 0.025000000372529 -5.5 0.099142000079155
vertex 0.00499999988824129 -5.15407848358154 0.099142000079155
endloop
endfacet
facet normal -6.93889390390723e-16 -4.01183225745484e-17 1
outer loop
vertex 0.025000000372529 -5.5 0.099142000079155
vertex 0.00499999988824129 -5.5 0.099142000079155
vertex 0.025000000372529 -5.84592151641846 0.099142000079155
endloop
endfacet
facet normal 0 0 1
outer loop
vertex 0.025000000372529 -5.84592151641846 0.099142000079155
vertex 0.00499999988824129 -5.84592151641846 0.099142000079155
vertex 0.025000000372529 -6 0.099142000079155
endloop
endfacet
facet normal -0 0 1
outer loop
vertex 0.00499999988824129 -5.84592151641846 0.099142000079155
vertex 0.025000000372529 -5.84592151641846 0.099142000079155
vertex 0.00499999988824129 -5.5 0.099142000079155
endloop
endfacet
facet normal 0 -0 1
outer loop
vertex 0.00499999988824129 -6 0.099142000079155
vertex 0.025000000372529 -6 0.099142000079155
vertex 0.00499999988824129 -5.84592151641846 0.099142000079155
endloop
endfacet
facet normal 0.70710676908493 0 -0.70710676908493
outer loop
vertex 0.0391420014202595 -5 0.0649999976158142
vertex 0.0391420014202595 -5.15407848358154 0.0649999976158142
vertex 0.025000000372529 -5 0.0508579984307289
endloop
endfacet
facet normal 0.70710676908493 6.36887844984102e-17 -0.70710676908493
outer loop
vertex 0.025000000372529 -5.15407848358154 0.0508579984307289
vertex 0.025000000372529 -5 0.0508579984307289
vertex 0.0391420014202595 -5.15407848358154 0.0649999976158142
endloop
endfacet
facet normal 0.70710676908493 0 -0.70710676908493
outer loop
vertex 0.0391420014202595 -5.5 0.0649999976158142
vertex 0.025000000372529 -5.5 0.0508579984307289
vertex 0.0391420014202595 -5.15407848358154 0.0649999976158142
endloop
endfacet
facet normal 0.70710676908493 1.41839703659122e-17 -0.70710676908493
outer loop
vertex 0.025000000372529 -5.15407848358154 0.0508579984307289
vertex 0.0391420014202595 -5.15407848358154 0.0649999976158142
vertex 0.025000000372529 -5.5 0.0508579984307289
endloop
endfacet
facet normal 0.70710676908493 -7.09198518295609e-18 -0.70710676908493
outer loop
vertex 0.025000000372529 -5.5 0.0508579984307289
vertex 0.0391420014202595 -5.5 0.0649999976158142
vertex 0.025000000372529 -5.84592151641846 0.0508579984307289
endloop
endfacet
facet normal 0.70710676908493 0 -0.70710676908493
outer loop
vertex 0.0391420014202595 -5.84592151641846 0.0649999976158142
vertex 0.025000000372529 -5.84592151641846 0.0508579984307289
vertex 0.0391420014202595 -5.5 0.0649999976158142
endloop
endfacet
facet normal 0.70710676908493 0 -0.70710676908493
outer loop
vertex 0.0391420014202595 -5.84592151641846 0.0649999976158142
vertex 0.0391420014202595 -6 0.0649999976158142
vertex 0.025000000372529 -5.84592151641846 0.0508579984307289
endloop
endfacet
facet normal 0.70710676908493 -7.96109855860964e-17 -0.70710676908493
outer loop
vertex 0.025000000372529 -6 0.0508579984307289
vertex 0.025000000372529 -5.84592151641846 0.0508579984307289
vertex 0.0391420014202595 -6 0.0649999976158142
endloop
endfacet
facet normal 0.70710676908493 0 0.70710676908493
outer loop
vertex 0.0391420014202595 -5 0.0850000008940697
vertex 0.025000000372529 -5 0.099142000079155
vertex 0.0391420014202595 -5.15407848358154 0.0850000008940697
endloop
endfacet
facet normal 0.70710676908493 -0 0.70710676908493
outer loop
vertex 0.025000000372529 -5.15407848358154 0.099142000079155
vertex 0.0391420014202595 -5.15407848358154 0.0850000008940697
vertex 0.025000000372529 -5 0.099142000079155
endloop
endfacet
facet normal 0.70710676908493 0 0.70710676908493
outer loop
vertex 0.0391420014202595 -5.15407848358154 0.0850000008940697
vertex 0.025000000372529 -5.15407848358154 0.099142000079155
vertex 0.0391420014202595 -5.5 0.0850000008940697
endloop
endfacet
facet normal 0.70710676908493 3.54599259147805e-17 0.70710676908493
outer loop
vertex 0.025000000372529 -5.5 0.099142000079155
vertex 0.0391420014202595 -5.5 0.0850000008940697
vertex 0.025000000372529 -5.15407848358154 0.099142000079155
endloop
endfacet
facet normal 0.70710676908493 1.41839703659122e-17 0.70710676908493
outer loop
vertex 0.0391420014202595 -5.5 0.0850000008940697
vertex 0.025000000372529 -5.5 0.099142000079155
vertex 0.0391420014202595 -5.84592151641846 0.0850000008940697
endloop
endfacet
facet normal 0.70710676908493 -4.25519110977366e-17 0.70710676908493
outer loop
vertex 0.025000000372529 -5.84592151641846 0.099142000079155
vertex 0.0391420014202595 -5.84592151641846 0.0850000008940697
vertex 0.025000000372529 -5.5 0.099142000079155
endloop
endfacet
facet normal 0.70710676908493 -3.18443922492051e-17 0.70710676908493
outer loop
vertex 0.0391420014202595 -6 0.0850000008940697
vertex 0.0391420014202595 -5.84592151641846 0.0850000008940697
vertex 0.025000000372529 -6 0.099142000079155
endloop
endfacet
facet normal 0.70710676908493 1.59221961246025e-17 0.70710676908493
outer loop
vertex 0.025000000372529 -5.84592151641846 0.099142000079155
vertex 0.025000000372529 -6 0.099142000079155
vertex 0.0391420014202595 -5.84592151641846 0.0850000008940697
endloop
endfacet
facet normal 1 0 0
outer loop
vertex 0.0391420014202595 -5.15407848358154 0.0649999976158142
vertex 0.0391420014202595 -5 0.0649999976158142
vertex 0.0391420014202595 -5.15407848358154 0.0850000008940697
endloop
endfacet
facet normal 1 0 0
outer loop
vertex 0.0391420014202595 -5 0.0850000008940697
vertex 0.0391420014202595 -5.15407848358154 0.0850000008940697
vertex 0.0391420014202595 -5 0.0649999976158142
endloop
endfacet
facet normal 1 0 -0
outer loop
vertex 0.0391420014202595 -5.15407848358154 0.0649999976158142
vertex 0.0391420014202595 -5.15407848358154 0.0850000008940697
vertex 0.0391420014202595 -5.5 0.0649999976158142
endloop
endfacet
facet normal 1 -0 0
outer loop
vertex 0.0391420014202595 -5.5 0.0850000008940697
vertex 0.0391420014202595 -5.5 0.0649999976158142
vertex 0.0391420014202595 -5.15407848358154 0.0850000008940697
endloop
endfacet
facet normal 1 0 0
outer loop
vertex 0.0391420014202595 -5.5 0.0649999976158142
vertex 0.0391420014202595 -5.5 0.0850000008940697
vertex 0.0391420014202595 -5.84592151641846 0.0649999976158142
endloop
endfacet
facet normal 1 2.00591612872742e-17 -3.46944695195361e-16
outer loop
vertex 0.0391420014202595 -5.84592151641846 0.0850000008940697
vertex 0.0391420014202595 -5.84592151641846 0.0649999976158142
vertex 0.0391420014202595 -5.5 0.0850000008940697
endloop
endfacet
facet normal 1 -4.50347698069308e-17 -3.46944695195361e-16
outer loop
vertex 0.0391420014202595 -5.84592151641846 0.0850000008940697
vertex 0.0391420014202595 -6 0.0850000008940697
vertex 0.0391420014202595 -5.84592151641846 0.0649999976158142
endloop
endfacet
facet normal 1 0 0
outer loop
vertex 0.0391420014202595 -6 0.0649999976158142
vertex 0.0391420014202595 -5.84592151641846 0.0649999976158142
vertex 0.0391420014202595 -6 0.0850000008940697
endloop
endfacet
facet normal 0.999804377555847 0.00120069354306906 -0.019744923338294
outer loop
vertex 0.00039512079092674 -0.000205484597245231 0.169994845986366
vertex 0.000520340399816632 -0.13615694642067 0.16806823015213
vertex 2.49999820844948e-09 -2.49986874223396e-06 0.149999976158142
endloop
endfacet
facet normal 0.999804317951202 0.00120069354306906 -0.019744923338294
outer loop
vertex 0.00013596766802948 -0.135960638523102 0.148617058992386
vertex 2.49999820844948e-09 -2.49986874223396e-06 0.149999976158142
vertex 0.000520340399816632 -0.13615694642067 0.16806823015213
endloop
endfacet
facet normal 0.999804317951202 0.00120069342665374 -0.0197449214756489
outer loop
vertex 0.000520340399816632 -0.13615694642067 0.16806823015213
vertex 0.000725337537005544 -0.358723163604736 0.164914160966873
vertex 0.00013596766802948 -0.135960638523102 0.148617058992386
endloop
endfacet
facet normal 0.999804258346558 0.00120069342665374 -0.0197449214756489
outer loop
vertex 0.000358555378625169 -0.358536839485168 0.146353110671043
vertex 0.00013596766802948 -0.135960638523102 0.148617058992386
vertex 0.000725337537005544 -0.358723163604736 0.164914160966873
endloop
endfacet
facet normal 0.999804317951202 0.00120069354306906 -0.0197449214756489
outer loop
vertex 0.000358555378625169 -0.358536839485168 0.146353110671043
vertex 0.000725337537005544 -0.358723163604736 0.164914160966873
vertex 0.000722952303476632 -0.72291487455368 0.142646804451942
endloop
endfacet
facet normal 0.999804317951202 0.00120069342665374 -0.0197449214756489
outer loop
vertex 0.00106093846261501 -0.723086476325989 0.159750640392303
vertex 0.000722952303476632 -0.72291487455368 0.142646804451942
vertex 0.000725337537005544 -0.358723163604736 0.164914160966873
endloop
endfacet
facet normal 0.999804377555847 0.00120069342665374 -0.019744923338294
outer loop
vertex 0.00106093846261501 -0.723086476325989 0.159750640392303
vertex 0.00161035102792084 -1.3195858001709 0.151297435164452
vertex 0.000722952303476632 -0.72291487455368 0.142646804451942
endloop
endfacet
facet normal 0.999804317951202 0.00120069354306906 -0.019744923338294
outer loop
vertex 0.00131950411014259 -1.31943595409393 0.136579230427742
vertex 0.000722952303476632 -0.72291487455368 0.142646804451942
vertex 0.00161035102792084 -1.3195858001709 0.151297435164452
endloop
endfacet
facet normal 0.999804377555847 0.00120069365948439 -0.019744923338294
outer loop
vertex 0.00161035102792084 -1.3195858001709 0.151297435164452
vertex 0.00243571237660944 -2.21568417549133 0.138598501682281
vertex 0.00131950411014259 -1.31943595409393 0.136579230427742
endloop
endfacet
facet normal 0.999804317951202 0.00120069354306906 -0.019744923338294
outer loop
vertex 0.00221568369306624 -2.21556901931763 0.127464115619659
vertex 0.00131950411014259 -1.31943595409393 0.136579230427742
vertex 0.00243571237660944 -2.21568417549133 0.138598501682281
endloop
endfacet
facet normal 0.999804317951202 0.00120069342665374 -0.0197449214756489
outer loop
vertex 0.00243571237660944 -2.21568417549133 0.138598501682281
vertex 0.00329047488048673 -3.14370322227478 0.12544721364975
vertex 0.00221568369306624 -2.21556901931763 0.127464115619659
endloop
endfacet
facet normal 0.999804317951202 0.00120069354306906 -0.0197449214756489
outer loop
vertex 0.00314378924667835 -3.14362645149231 0.118024289608002
vertex 0.00221568369306624 -2.21556901931763 0.127464115619659
vertex 0.00329047488048673 -3.14370322227478 0.12544721364975
endloop
endfacet
facet normal 0.999804317951202 0.00120069354306906 -0.0197449214756489
outer loop
vertex 0.00314378924667835 -3.14362645149231 0.118024289608002
vertex 0.00329047488048673 -3.14370322227478 0.12544721364975
vertex 0.00407189456745982 -4.07168388366699 0.108584456145763
endloop
endfacet
facet normal 0.999804317951202 0.00120069354306906 -0.0197449214756489
outer loop
vertex 0.00414523761719465 -4.07172250747681 0.112295925617218
vertex 0.00407189456745982 -4.07168388366699 0.108584456145763
vertex 0.00329047488048673 -3.14370322227478 0.12544721364975
endloop
endfacet
facet normal 0.999804317951202 0.00120069354306906 -0.0197449214756489
outer loop
vertex 0.00407189456745982 -4.07168388366699 0.108584456145763
vertex 0.00414523761719465 -4.07172250747681 0.112295925617218
vertex 0.00499999988824129 -4.99974155426025 0.0991446301341057
endloop
endfacet
facet normal 0 -0.0101710744202137 0.99994832277298
outer loop
vertex 0.0299999993294477 0 0.150000005960464
vertex 0 0 0.150000005960464
vertex 0.0297931414097548 -0.20684739947319 0.147896036505699
endloop
endfacet
facet normal -2.76709834939778e-16 -0.0101710734888911 0.999948263168335
outer loop
vertex 0.000206858094315976 -0.20684739947319 0.147896036505699
vertex 0.0297931414097548 -0.20684739947319 0.147896036505699
vertex 0 0 0.150000005960464
endloop
endfacet
facet normal -2.76709887879337e-16 -0.0101710744202137 0.99994832277298
outer loop
vertex 0.000206858094315976 -0.20684739947319 0.147896036505699
vertex 0.000580733292736113 -0.580703258514404 0.144093319773674
vertex 0.0297931414097548 -0.20684739947319 0.147896036505699
endloop
endfacet
facet normal -2.74095494217857e-16 -0.0101710734888911 0.999948263168335
outer loop
vertex 0.0294192675501108 -0.580703258514404 0.144093319773674
vertex 0.0297931414097548 -0.20684739947319 0.147896036505699
vertex 0.000580733292736113 -0.580703258514404 0.144093319773674
endloop
endfacet
facet normal -2.74095520687637e-16 -0.0101710744202137 0.999948263168335
outer loop
vertex 0.0294192675501108 -0.580703258514404 0.144093319773674
vertex 0.000580733292736113 -0.580703258514404 0.144093319773674
vertex 0.0287435241043568 -1.25641012191772 0.137220293283463
endloop
endfacet
facet normal 5.16735943483393e-16 -0.0101710734888911 0.999948263168335
outer loop
vertex 0.00125647510867566 -1.25641012191772 0.137220293283463
vertex 0.0287435241043568 -1.25641012191772 0.137220293283463
vertex 0.000580733292736113 -0.580703258514404 0.144093319773674
endloop
endfacet
facet normal 5.16735996422953e-16 -0.0101710744202137 0.99994832277298
outer loop
vertex 0.00125647510867566 -1.25641012191772 0.137220293283463
vertex 0.002230622805655 -2.23050737380981 0.127312168478966
vertex 0.0287435241043568 -1.25641012191772 0.137220293283463
endloop
endfacet
facet normal 9.09882791940569e-16 -0.0101710734888911 0.999948263168335
outer loop
vertex 0.0277693774551153 -2.23050737380981 0.127312168478966
vertex 0.0287435241043568 -1.25641012191772 0.137220293283463
vertex 0.002230622805655 -2.23050737380981 0.127312168478966
endloop
endfacet
facet normal 9.09882897819688e-16 -0.0101710744202137 0.999948263168335
outer loop
vertex 0.0277693774551153 -2.23050737380981 0.127312168478966
vertex 0.002230622805655 -2.23050737380981 0.127312168478966
vertex 0.0267895981669426 -3.21023535728455 0.11734677106142
endloop
endfacet
facet normal 1.57402904390493e-15 -0.0101710734888911 0.999948263168335
outer loop
vertex 0.00321040139533579 -3.21023535728455 0.11734677106142
vertex 0.0267895981669426 -3.21023535728455 0.11734677106142
vertex 0.002230622805655 -2.23050737380981 0.127312168478966
endloop
endfacet
facet normal 1.57402925566317e-15 -0.0101710734888911 0.999948263168335
outer loop
vertex 0.0267895981669426 -3.21023535728455 0.11734677106142
vertex 0.00321040139533579 -3.21023535728455 0.11734677106142
vertex 0.025908213108778 -4.09157466888428 0.108382135629654
endloop
endfacet
facet normal 2.54433429586318e-15 -0.0101710744202137 0.999948263168335
outer loop
vertex 0.00409178668633103 -4.09157466888428 0.108382135629654
vertex 0.025908213108778 -4.09157466888428 0.108382135629654
vertex 0.00321040139533579 -3.21023535728455 0.11734677106142
endloop
endfacet
facet normal 0 -0.0101710734888911 0.999948263168335
outer loop
vertex 0.0254095215350389 -4.59024095535278 0.103309907019138
vertex 0.025908213108778 -4.09157466888428 0.108382135629654
vertex 0.00459047872573137 -4.59024095535278 0.103309907019138
endloop
endfacet
facet normal 2.54433429586318e-15 -0.0101710744202137 0.99994832277298
outer loop
vertex 0.00409178668633103 -4.09157466888428 0.108382135629654
vertex 0.00459047872573137 -4.59024095535278 0.103309907019138
vertex 0.025908213108778 -4.09157466888428 0.108382135629654
endloop
endfacet
facet normal 0 -0.0101710744202137 0.999948263168335
outer loop
vertex 0.00459047872573137 -4.59024095535278 0.103309907019138
vertex 0.00485727051272988 -4.85701942443848 0.100596338510513
vertex 0.0254095215350389 -4.59024095535278 0.103309907019138
endloop
endfacet
facet normal 3.86577790313864e-15 -0.0101710744202137 0.999948263168335
outer loop
vertex 0.0251427292823792 -4.85701942443848 0.100596338510513
vertex 0.0254095215350389 -4.59024095535278 0.103309907019138
vertex 0.00485727051272988 -4.85701942443848 0.100596338510513
endloop
endfacet
facet normal 3.86577790313864e-15 -0.0101710744202137 0.999948263168335
outer loop
vertex 0.0251427292823792 -4.85701942443848 0.100596338510513
vertex 0.00485727051272988 -4.85701942443848 0.100596338510513
vertex 0.025000000372529 -4.99974155426025 0.0991446301341057
endloop
endfacet
facet normal 0 -0.0101710725575686 0.99994820356369
outer loop
vertex 0.00499999988824129 -4.99974155426025 0.0991446301341057
vertex 0.025000000372529 -4.99974155426025 0.0991446301341057
vertex 0.00485727051272988 -4.85701942443848 0.100596338510513
endloop
endfacet
facet normal 0.999816656112671 0.000631227972917259 -0.0191363226622343
outer loop
vertex 0.00499999988824129 -4.99974155426025 0.0991446301341057
vertex 0.00286391703411937 -4.89585113525391 -0.00903253629803658
vertex 0.0157376304268837 -4.37802791595459 0.680662035942078
endloop
endfacet
facet normal 0.999816715717316 0.000631227972917259 -0.0191363226622343
outer loop
vertex 0.0139167383313179 -4.28946733474731 0.588447034358978
vertex 0.0157376304268837 -4.37802791595459 0.680662035942078
vertex 0.00286391703411937 -4.89585113525391 -0.00903253629803658
endloop
endfacet
facet normal 0.999816656112671 0.000631227914709598 -0.0191363207995892
outer loop
vertex 0.0139167383313179 -4.28946733474731 0.588447034358978
vertex 0.0272282343357801 -3.55916690826416 1.30802321434021
vertex 0.0157376304268837 -4.37802791595459 0.680662035942078
endloop
endfacet
facet normal 0.999816715717316 0.000631227972917259 -0.0191363226622343
outer loop
vertex 0.0286695249378681 -3.62926530838013 1.38101410865784
vertex 0.0157376304268837 -4.37802791595459 0.680662035942078
vertex 0.0272282343357801 -3.55916690826416 1.30802321434021
endloop
endfacet
facet normal 0.999816656112671 0.000631227914709598 -0.0191363207995892
outer loop
vertex 0.0272282343357801 -3.55916690826416 1.30802321434021
vertex 0.0408688262104988 -2.81081175804138 2.04538917541504
vertex 0.0286695249378681 -3.62926530838013 1.38101410865784
endloop
endfacet
facet normal 0.999816715717316 0.000631227972917259 -0.0191363226622343
outer loop
vertex 0.0419211313128471 -2.86199140548706 2.0986807346344
vertex 0.0286695249378681 -3.62926530838013 1.38101410865784
vertex 0.0408688262104988 -2.81081175804138 2.04538917541504
endloop
endfacet
facet normal 0.999816656112671 0.000631227914709598 -0.0191363207995892
outer loop
vertex 0.0419211313128471 -2.86199140548706 2.0986807346344
vertex 0.0408688262104988 -2.81081175804138 2.04538917541504
vertex 0.05480882152915 -2.11578822135925 2.79663896560669
endloop
endfacet
facet normal 0.999816656112671 0.000631227914709598 -0.0191363207995892
outer loop
vertex 0.0541348196566105 -2.08300757408142 2.76250576972961
vertex 0.05480882152915 -2.11578822135925 2.79663896560669
vertex 0.0408688262104988 -2.81081175804138 2.04538917541504
endloop
endfacet
facet normal 0.999816656112671 0.000631227914709598 -0.0191363207995892
outer loop
vertex 0.0541348196566105 -2.08300757408142 2.76250576972961
vertex 0.0620493814349174 -1.64879608154297 3.19034123420715
vertex 0.05480882152915 -2.11578822135925 2.79663896560669
endloop
endfacet
facet normal 0.999816715717316 0.000631227972917259 -0.0191363226622343
outer loop
vertex 0.0624976828694344 -1.6705995798111 3.21304440498352
vertex 0.05480882152915 -2.11578822135925 2.79663896560669
vertex 0.0620493814349174 -1.64879608154297 3.19034123420715
endloop
endfacet
facet normal 0.999816656112671 0.000631227914709598 -0.0191363226622343
outer loop
vertex 0.0624976828694344 -1.6705995798111 3.21304440498352
vertex 0.0620493814349174 -1.64879608154297 3.19034123420715
vertex 0.0662429705262184 -1.45374584197998 3.4158775806427
endloop
endfacet
facet normal 0.999816715717316 0.000631227914709598 -0.0191363226622343
outer loop
vertex 0.0659046024084091 -1.43728935718536 3.39874196052551
vertex 0.0662429705262184 -1.45374584197998 3.4158775806427
vertex 0.0620493814349174 -1.64879608154297 3.19034123420715
endloop
endfacet
facet normal 0.999816656112671 0.000631227972917259 -0.0191363226622343
outer loop
vertex 0.0659046024084091 -1.43728935718536 3.39874196052551
vertex 0.0677825063467026 -1.33426320552826 3.50025534629822
vertex 0.0662429705262184 -1.45374584197998 3.4158775806427
endloop
endfacet
facet normal 0.999816656112671 0.000631227914709598 -0.0191363207995892
outer loop
vertex 0.0680673196911812 -1.34811520576477 3.51467895507813
vertex 0.0662429705262184 -1.45374584197998 3.4158775806427
vertex 0.0677825063467026 -1.33426320552826 3.50025534629822
endloop
endfacet
facet normal 0.707088530063629 -0.00719222193583846 0.707088530063629
outer loop
vertex 0.025000000372529 -5.92779922485352 0.0897047966718674
vertex 0.0276251211762428 -5.9277720451355 0.0870799571275711
vertex 0.025000000372529 -4.99974155426025 0.0991446301341057
endloop
endfacet
facet normal 0.707088530063629 -0.00719222193583846 0.707088530063629
outer loop
vertex 0.025000000372529 -6.85585689544678 0.0802649632096291
vertex 0.0302502419799566 -6.85580253601074 0.0750152766704559
vertex 0.025000000372529 -5.92779922485352 0.0897047966718674
endloop
endfacet
facet normal 0.707088530063629 -0.00719222193583846 0.707088530063629
outer loop
vertex 0.0276251211762428 -5.9277720451355 0.0870799571275711
vertex 0.025000000372529 -5.92779922485352 0.0897047966718674
vertex 0.0302502419799566 -6.85580253601074 0.0750152766704559
endloop
endfacet
facet normal 0.707088530063629 -0.00719222193583846 0.707088530063629
outer loop
vertex 0.025000000372529 -6.85585689544678 0.0802649632096291
vertex 0.025000000372529 -7.7839150428772 0.0708251297473907
vertex 0.0302502419799566 -6.85580253601074 0.0750152766704559
endloop
endfacet
facet normal 0.707088530063629 -0.00719222193583846 0.707088530063629
outer loop
vertex 0.0328753627836704 -7.78383302688599 0.0629506036639214
vertex 0.0302502419799566 -6.85580253601074 0.0750152766704559
vertex 0.025000000372529 -7.7839150428772 0.0708251297473907
endloop
endfacet
facet normal 0.707088470458984 -0.00719222147017717 0.707088470458984
outer loop
vertex 0.025000000372529 -8.68004894256592 0.0617100186645985
vertex 0.035410188138485 -8.67994213104248 0.0513009130954742
vertex 0.025000000372529 -7.7839150428772 0.0708251297473907
endloop
endfacet
facet normal 0.707088470458984 -0.00719222147017717 0.707088470458984
outer loop
vertex 0.0328753627836704 -7.78383302688599 0.0629506036639214
vertex 0.025000000372529 -7.7839150428772 0.0708251297473907
vertex 0.035410188138485 -8.67994213104248 0.0513009130954742
endloop
endfacet
facet normal 0.707088470458984 -0.00719222100451589 0.707088470458984
outer loop
vertex 0.025000000372529 -8.68004894256592 0.0617100186645985
vertex 0.025000000372529 -9.27657032012939 0.0556424409151077
vertex 0.035410188138485 -8.67994213104248 0.0513009130954742
endloop
endfacet
facet normal 0.707088470458984 -0.00719222100451589 0.707088470458984
outer loop
vertex 0.0370975248515606 -9.27644920349121 0.0435461439192295
vertex 0.035410188138485 -8.67994213104248 0.0513009130954742
vertex 0.025000000372529 -9.27657032012939 0.0556424409151077
endloop
endfacet
facet normal 0.707088470458984 -0.00719222147017717 0.707088470458984
outer loop
vertex 0.025000000372529 -9.64094829559326 0.0519361309707165
vertex 0.0381282158195972 -9.6408166885376 0.0388092547655106
vertex 0.025000000372529 -9.27657032012939 0.0556424409151077
endloop
endfacet
facet normal 0.707088470458984 -0.00719222147017717 0.707088470458984
outer loop
vertex 0.0370975248515606 -9.27644920349121 0.0435461439192295
vertex 0.025000000372529 -9.27657032012939 0.0556424409151077
vertex 0.0381282158195972 -9.6408166885376 0.0388092547655106
endloop
endfacet
facet normal 0.707088470458984 -0.0071922205388546 0.707088470458984
outer loop
vertex 0.025000000372529 -9.64094829559326 0.0519361309707165
vertex 0.025000000372529 -9.86352443695068 0.0496721751987934
vertex 0.0381282158195972 -9.6408166885376 0.0388092547655106
endloop
endfacet
facet normal 0.70708841085434 -0.0071922205388546 0.70708841085434
outer loop
vertex 0.0387577936053276 -9.8633861541748 0.0359157919883728
vertex 0.0381282158195972 -9.6408166885376 0.0388092547655106
vertex 0.025000000372529 -9.86352443695068 0.0496721751987934
endloop
endfacet
facet normal 0.707088470458984 -0.00719222100451589 0.707088470458984
outer loop
vertex 0.025000000372529 -9.86352443695068 0.0496721751987934
vertex 0.025000000372529 -9.99948310852051 0.0482892617583275
vertex 0.0387577936053276 -9.8633861541748 0.0359157919883728
endloop
endfacet
facet normal 0.707088530063629 -0.00719222147017717 0.707088530063629
outer loop
vertex 0.0391423664987087 -9.99933910369873 0.0341483578085899
vertex 0.0387577936053276 -9.8633861541748 0.0359157919883728
vertex 0.025000000372529 -9.99948310852051 0.0482892617583275
endloop
endfacet
facet normal -0.923888087272644 -0.00666309986263514 -0.382604837417603
outer loop
vertex 1.93839275836945 -5.00825595855713 -4.52103710174561
vertex 1.93837285041809 -5.02825212478638 -4.52064085006714
vertex 1.88304841518402 -5.00367164611816 -4.38747501373291
endloop
endfacet
facet normal -0.923888027667999 -0.00666310032829642 -0.382604867219925
outer loop
vertex 1.8830246925354 -5.02742719650269 -4.38700437545776
vertex 1.88304841518402 -5.00367164611816 -4.38747501373291
vertex 1.93837285041809 -5.02825212478638 -4.52064085006714
endloop
endfacet
facet normal -0.923888027667999 -0.00666309986263514 -0.382604867219925
outer loop
vertex 1.88304841518402 -5.00367164611816 -4.38747501373291
vertex 1.8830246925354 -5.02742719650269 -4.38700437545776
vertex 1.76942944526672 -4.99425983428955 -4.11327981948853
endloop
endfacet
facet normal -0.923888027667999 -0.00666310032829642 -0.382604867219925
outer loop
vertex 1.76939797401428 -5.02573442459106 -4.11265563964844
vertex 1.76942944526672 -4.99425983428955 -4.11327981948853
vertex 1.8830246925354 -5.02742719650269 -4.38700437545776
endloop
endfacet
facet normal -0.923888027667999 -0.00666309986263514 -0.382604867219925
outer loop
vertex 1.5361762046814 -4.974937915802 -3.55037236213684
vertex 1.76942944526672 -4.99425983428955 -4.11327981948853
vertex 1.53612887859344 -5.02225828170776 -3.5494339466095
endloop
endfacet
facet normal -0.923888087272644 -0.00666309986263514 -0.382604867219925
outer loop
vertex 1.76939797401428 -5.02573442459106 -4.11265563964844
vertex 1.53612887859344 -5.02225828170776 -3.5494339466095
vertex 1.76942944526672 -4.99425983428955 -4.11327981948853
endloop
endfacet
facet normal -0.923888087272644 -0.00666310032829642 -0.382604867219925
outer loop
vertex 1.5361762046814 -4.974937915802 -3.55037236213684
vertex 1.53612887859344 -5.02225828170776 -3.5494339466095
vertex 1.14520847797394 -4.94255208969116 -2.60685420036316
endloop
endfacet
facet normal -0.923888087272644 -0.00666309986263514 -0.382604837417603
outer loop
vertex 1.14513468742371 -5.01643228530884 -2.60538911819458
vertex 1.14520847797394 -4.94255208969116 -2.60685420036316
vertex 1.53612887859344 -5.02225828170776 -3.5494339466095
endloop
endfacet
facet normal -0.923887968063354 -0.00666309939697385 -0.382604837417603
outer loop
vertex 1.14520847797394 -4.94255208969116 -2.60685420036316
vertex 1.14513468742371 -5.01643228530884 -2.60538911819458
vertex 0.743200957775116 -4.90925121307373 -1.63669383525848
endloop
endfacet
facet normal -0.923888027667999 -0.00666310032829642 -0.382604867219925
outer loop
vertex 0.743099749088287 -5.01044178009033 -1.63468718528748
vertex 0.743200957775116 -4.90925121307373 -1.63669383525848
vertex 1.14513468742371 -5.01643228530884 -2.60538911819458
endloop
endfacet
facet normal -0.923888087272644 -0.00666310032829642 -0.382604867219925
outer loop
vertex 0.350892275571823 -4.87675428390503 -0.689939618110657
vertex 0.743200957775116 -4.90925121307373 -1.63669383525848
vertex 0.35076442360878 -5.0045952796936 -0.68740451335907
endloop
endfacet
facet normal -0.923888027667999 -0.00666309986263514 -0.382604867219925
outer loop
vertex 0.743099749088287 -5.01044178009033 -1.63468718528748
vertex 0.35076442360878 -5.0045952796936 -0.68740451335907
vertex 0.743200957775116 -4.90925121307373 -1.63669383525848
endloop
endfacet
facet normal -0.923888087272644 -0.00666310032829642 -0.382604867219925
outer loop
vertex 0.350892275571823 -4.87675428390503 -0.689939618110657
vertex 0.35076442360878 -5.0045952796936 -0.68740451335907
vertex 0.0251499786973 -4.84977102279663 0.0961707234382629
endloop
endfacet
facet normal -0.923888087272644 -0.00666310032829642 -0.382604867219925
outer loop
vertex 0.025000000372529 -4.99974155426025 0.0991446301341057
vertex 0.0251499786973 -4.84977102279663 0.0961707234382629
vertex 0.35076442360878 -5.0045952796936 -0.68740451335907
endloop
endfacet
facet normal 0.691652297973633 0.207928568124771 -0.691652297973633
outer loop
vertex 0.464913576841354 -9.72372341156006 -0.929301917552948
vertex 0.452955156564713 -9.59118747711182 -0.901416420936584
vertex 0.479243397712708 -9.72526550292969 -0.915435791015625
endloop
endfacet
facet normal 0.691652238368988 0.20792855322361 -0.691652238368988
outer loop
vertex 0.466895192861557 -9.59268665313721 -0.887927114963531
vertex 0.479243397712708 -9.72526550292969 -0.915435791015625
vertex 0.452955156564713 -9.59118747711182 -0.901416420936584
endloop
endfacet
facet normal 0.691652297973633 0.20792855322361 -0.691652297973633
outer loop
vertex 0.452955156564713 -9.59118747711182 -0.901416420936584
vertex 0.433378040790558 -9.37421131134033 -0.855765044689178
vertex 0.466895192861557 -9.59268665313721 -0.887927114963531
endloop
endfacet
facet normal 0.691652297973633 0.207928568124771 -0.691652297973633
outer loop
vertex 0.446680068969727 -9.37564086914063 -0.84289288520813
vertex 0.466895192861557 -9.59268665313721 -0.887927114963531
vertex 0.433378040790558 -9.37421131134033 -0.855765044689178
endloop
endfacet
facet normal 0.691652238368988 0.207928568124771 -0.691652238368988
outer loop
vertex 0.446680068969727 -9.37564086914063 -0.84289288520813
vertex 0.433378040790558 -9.37421131134033 -0.855765044689178
vertex 0.413585990667343 -9.02031803131104 -0.769167542457581
endloop
endfacet
facet normal 0.691652297973633 0.20792855322361 -0.691652297973633
outer loop
vertex 0.401328325271606 -9.01900100708008 -0.781029224395752
vertex 0.413585990667343 -9.02031803131104 -0.769167542457581
vertex 0.433378040790558 -9.37421131134033 -0.855765044689178
endloop
endfacet
facet normal 0.691652238368988 0.207928568124771 -0.691652238368988
outer loop
vertex 0.401328325271606 -9.01900100708008 -0.781029224395752
vertex 0.348859697580338 -8.43748474121094 -0.658679127693176
vertex 0.413585990667343 -9.02031803131104 -0.769167542457581
endloop
endfacet
facet normal 0.691652238368988 0.207928538322449 -0.691652238368988
outer loop
vertex 0.359407931566238 -8.43862056732178 -0.648472368717194
vertex 0.413585990667343 -9.02031803131104 -0.769167542457581
vertex 0.348859697580338 -8.43748474121094 -0.658679127693176
endloop
endfacet
facet normal 0.691652297973633 0.207928568124771 -0.691652297973633
outer loop
vertex 0.348859697580338 -8.43748474121094 -0.658679127693176
vertex 0.270038098096848 -7.56389570236206 -0.474877208471298
vertex 0.359407931566238 -8.43862056732178 -0.648472368717194
endloop
endfacet
facet normal 0.691652297973633 0.207928583025932 -0.691652297973633
outer loop
vertex 0.278018027544022 -7.56475639343262 -0.467156052589417
vertex 0.359407931566238 -8.43862056732178 -0.648472368717194
vertex 0.270038098096848 -7.56389570236206 -0.474877208471298
endloop
endfacet
facet normal 0.691652238368988 0.20792855322361 -0.691652238368988
outer loop
vertex 0.270038098096848 -7.56389570236206 -0.474877208471298
vertex 0.188408732414246 -6.65918731689453 -0.284527897834778
vertex 0.278018027544022 -7.56475639343262 -0.467156052589417
endloop
endfacet
facet normal 0.691652238368988 0.207928568124771 -0.691652238368988
outer loop
vertex 0.193728685379028 -6.65976095199585 -0.279380440711975
vertex 0.278018027544022 -7.56475639343262 -0.467156052589417
vertex 0.188408732414246 -6.65918731689453 -0.284527897834778
endloop
endfacet
facet normal 0.691652238368988 0.207928568124771 -0.691652238368988
outer loop
vertex 0.193728685379028 -6.65976095199585 -0.279380440711975
vertex 0.188408732414246 -6.65918731689453 -0.284527897834778
vertex 0.109439328312874 -5.75476598739624 -0.0916048660874367
endloop
endfacet
facet normal 0.691652238368988 0.207928568124771 -0.691652238368988
outer loop
vertex 0.106779359281063 -5.754478931427 -0.0941785797476768
vertex 0.109439328312874 -5.75476598739624 -0.0916048660874367
vertex 0.188408732414246 -6.65918731689453 -0.284527897834778
endloop
endfacet
facet normal 0.691652238368988 0.207928568124771 -0.691652238368988
outer loop
vertex 0.109439328312874 -5.75476598739624 -0.0916048660874367
vertex 0.106779359281063 -5.754478931427 -0.0941785797476768
vertex 0.0251499786973 -4.84977102279663 0.0961707234382629
endloop
endfacet
facet normal 0.99994820356369 0.0101710725575686 0
outer loop
vertex 0.0391446314752102 3.99974131584167 0.0850000008940697
vertex 0.0405963435769081 3.85701942443848 0.0851427316665649
vertex 0.0391446314752102 3.99974131584167 0.0649999976158142
endloop
endfacet
facet normal 0.999948263168335 0.0101710744202137 -4.45330218996909e-16
outer loop
vertex 0.0405963435769081 3.85701942443848 0.0648572742938995
vertex 0.0391446314752102 3.99974131584167 0.0649999976158142
vertex 0.0405963435769081 3.85701942443848 0.0851427316665649
endloop
endfacet
facet normal 0.999948263168335 0.0101710744202137 -4.45330271936468e-16
outer loop
vertex 0.0405963435769081 3.85701942443848 0.0648572742938995
vertex 0.0405963435769081 3.85701942443848 0.0851427316665649
vertex 0.0433099046349525 3.59024119377136 0.0645904764533043
endloop
endfacet
facet normal 0.999948263168335 0.0101710744202137 -3.01914941411665e-16
outer loop
vertex 0.0433099046349525 3.59024119377136 0.0854095220565796
vertex 0.0433099046349525 3.59024119377136 0.0645904764533043
vertex 0.0405963435769081 3.85701942443848 0.0851427316665649
endloop
endfacet
facet normal 0.99994832277298 0.0101710744202137 5.40046131373154e-16
outer loop
vertex 0.0483821369707584 3.09157490730286 0.0859082117676735
vertex 0.0483821369707584 3.09157490730286 0.0640917867422104
vertex 0.0433099046349525 3.59024119377136 0.0854095220565796
endloop
endfacet
facet normal 0.999948263168335 0.0101710734888911 -3.01914914941886e-16
outer loop
vertex 0.0433099046349525 3.59024119377136 0.0645904764533043
vertex 0.0433099046349525 3.59024119377136 0.0854095220565796
vertex 0.0483821369707584 3.09157490730286 0.0640917867422104
endloop
endfacet
facet normal 0.999948263168335 0.0101710744202137 5.40046131373154e-16
outer loop
vertex 0.0483821369707584 3.09157490730286 0.0859082117676735
vertex 0.0573467724025249 2.21023535728455 0.0867896005511284
vertex 0.0483821369707584 3.09157490730286 0.0640917867422104
endloop
endfacet
facet normal 0.999948263168335 0.0101710734888911 1.02703704384094e-16
outer loop
vertex 0.0573467724025249 2.21023535728455 0.0632103979587555
vertex 0.0483821369707584 3.09157490730286 0.0640917867422104
vertex 0.0573467724025249 2.21023535728455 0.0867896005511284
endloop
endfacet
facet normal 0.999948263168335 0.0101710734888911 1.0270369776665e-16
outer loop
vertex 0.0573467724025249 2.21023535728455 0.0867896005511284
vertex 0.0673121735453606 1.23050737380981 0.0877693742513657
vertex 0.0573467724025249 2.21023535728455 0.0632103979587555
endloop
endfacet
facet normal 0.999948263168335 0.0101710744202137 6.44588155333142e-16
outer loop
vertex 0.0673121735453606 1.23050737380981 0.0622306242585182
vertex 0.0573467724025249 2.21023535728455 0.0632103979587555
vertex 0.0673121735453606 1.23050737380981 0.0877693742513657
endloop
endfacet
facet normal 0.99994832277298 0.0101710744202137 1.55663625465447e-16
outer loop
vertex 0.0772202983498573 0.256410092115402 0.0887435227632523
vertex 0.0772202983498573 0.256410092115402 0.0612564757466316
vertex 0.0673121735453606 1.23050737380981 0.0877693742513657
endloop
endfacet
facet normal 0.999948263168335 0.0101710734888911 6.44588155333142e-16
outer loop
vertex 0.0673121735453606 1.23050737380981 0.0622306242585182
vertex 0.0673121735453606 1.23050737380981 0.0877693742513657
vertex 0.0772202983498573 0.256410092115402 0.0612564757466316
endloop
endfacet
facet normal 0.999948263168335 0.0101710734888911 1.55663625465447e-16
outer loop
vertex 0.0772202983498573 0.256410092115402 0.0887435227632523
vertex 0.0840933173894882 -0.419296741485596 0.0894192680716515
vertex 0.0772202983498573 0.256410092115402 0.0612564757466316
endloop
endfacet
facet normal 0.999948263168335 0.0101710744202137 -5.87347534877158e-17
outer loop
vertex 0.0840933173894882 -0.419296741485596 0.0605807341635227
vertex 0.0772202983498573 0.256410092115402 0.0612564757466316
vertex 0.0840933173894882 -0.419296741485596 0.0894192680716515
endloop
endfacet
facet normal 0.99994832277298 0.0101710744202137 -1.12890899495806e-15
outer loop
vertex 0.0878960341215134 -0.793152630329132 0.0602068565785885
vertex 0.0840933173894882 -0.419296741485596 0.0605807341635227
vertex 0.0878960341215134 -0.793152630329132 0.0897931382060051
endloop
endfacet
facet normal 0.999948263168335 0.0101710734888911 -5.87347534877158e-17
outer loop
vertex 0.0840933173894882 -0.419296741485596 0.0894192680716515
vertex 0.0878960341215134 -0.793152630329132 0.0897931382060051
vertex 0.0840933173894882 -0.419296741485596 0.0605807341635227
endloop
endfacet
facet normal 0.999948263168335 0.0101710734888911 -1.12890888907894e-15
outer loop
vertex 0.0878960341215134 -0.793152630329132 0.0602068565785885
vertex 0.0878960341215134 -0.793152630329132 0.0897931382060051
vertex 0.0900000035762787 -1 0.0599999986588955
endloop
endfacet
facet normal 0.99994832277298 0.0101710744202137 0
outer loop
vertex 0.0900000035762787 -1 0.0900000035762787
vertex 0.0900000035762787 -1 0.0599999986588955
vertex 0.0878960341215134 -0.793152630329132 0.0897931382060051
endloop
endfacet
facet normal -0.0197449214756489 -0.00120069354306906 -0.999804317951202
outer loop
vertex 0.0485844612121582 3.07168388366699 0.0859281048178673
vertex 0.0391446314752102 3.99974131584167 0.0850000008940697
vertex 0.0522959232330322 3.07172226905823 0.0858547613024712
endloop
endfacet
facet normal -0.0197449214756489 -0.00120069354306906 -0.999804317951202
outer loop
vertex 0.0580242872238159 2.14362645149231 0.0868562087416649
vertex 0.0485844612121582 3.07168388366699 0.0859281048178673
vertex 0.065447211265564 2.14370322227478 0.0867095217108727
endloop
endfacet
facet normal -0.0197449214756489 -0.00120069354306906 -0.999804317951202
outer loop
vertex 0.0522959232330322 3.07172226905823 0.0858547613024712
vertex 0.065447211265564 2.14370322227478 0.0867095217108727
vertex 0.0485844612121582 3.07168388366699 0.0859281048178673
endloop
endfacet
facet normal -0.0197449214756489 -0.00120069354306906 -0.999804317951202
outer loop
vertex 0.0580242872238159 2.14362645149231 0.0868562087416649
vertex 0.065447211265564 2.14370322227478 0.0867095217108727
vertex 0.0674641206860542 1.21556913852692 0.0877843126654625
endloop
endfacet
facet normal -0.0197449214756489 -0.00120069342665374 -0.999804317951202
outer loop
vertex 0.0785985067486763 1.21568405628204 0.0875642895698547
vertex 0.0674641206860542 1.21556913852692 0.0877843126654625
vertex 0.065447211265564 2.14370322227478 0.0867095217108727
endloop
endfacet
facet normal -0.019744923338294 -0.00120069354306906 -0.999804317951202
outer loop
vertex 0.0765792280435562 0.319435894489288 0.0886804983019829
vertex 0.0674641206860542 1.21556913852692 0.0877843126654625
vertex 0.0912974327802658 0.319585829973221 0.0883896499872208
endloop
endfacet
facet normal -0.0197449214756489 -0.00120069342665374 -0.999804317951202
outer loop
vertex 0.0785985067486763 1.21568405628204 0.0875642895698547
vertex 0.0912974327802658 0.319585829973221 0.0883896499872208
vertex 0.0674641206860542 1.21556913852692 0.0877843126654625
endloop
endfacet
facet normal -0.019744923338294 -0.00120069354306906 -0.999804317951202
outer loop
vertex 0.0765792280435562 0.319435894489288 0.0886804983019829
vertex 0.0912974327802658 0.319585829973221 0.0883896499872208
vertex 0.0826468020677567 -0.277085095643997 0.0892770513892174
endloop
endfacet
facet normal -0.019744923338294 -0.00120069342665374 -0.999804377555847
outer loop
vertex 0.0997506454586983 -0.276913553476334 0.0889390632510185
vertex 0.0826468020677567 -0.277085095643997 0.0892770513892174
vertex 0.0912974327802658 0.319585829973221 0.0883896499872208
endloop
endfacet
facet normal -0.0197449214756489 -0.00120069354306906 -0.999804317951202
outer loop
vertex 0.0863531082868576 -0.641463160514832 0.0896414443850517
vertex 0.0826468020677567 -0.277085095643997 0.0892770513892174
vertex 0.104914166033268 -0.641276836395264 0.0892746597528458
endloop
endfacet
facet normal -0.0197449214756489 -0.00120069342665374 -0.999804317951202
outer loop
vertex 0.0997506454586983 -0.276913553476334 0.0889390632510185
vertex 0.104914166033268 -0.641276836395264 0.0892746597528458
vertex 0.0826468020677567 -0.277085095643997 0.0892770513892174
endloop
endfacet
facet normal -0.0197449214756489 -0.00120069342665374 -0.999804258346558
outer loop
vertex 0.0863531082868576 -0.641463160514832 0.0896414443850517
vertex 0.104914166033268 -0.641276836395264 0.0892746597528458
vertex 0.0886170640587807 -0.864039361476898 0.0898640304803848
endloop
endfacet
facet normal -0.0197449214756489 -0.00120069342665374 -0.999804317951202
outer loop
vertex 0.108068235218525 -0.863843083381653 0.0894796624779701
vertex 0.0886170640587807 -0.864039361476898 0.0898640304803848
vertex 0.104914166033268 -0.641276836395264 0.0892746597528458
endloop
endfacet
facet normal -0.019744923338294 -0.00120069354306906 -0.999804317951202
outer loop
vertex 0.0886170640587807 -0.864039361476898 0.0898640304803848
vertex 0.108068235218525 -0.863843083381653 0.0894796624779701
vertex 0.0899999737739563 -0.999997496604919 0.0899999961256981
endloop
endfacet
facet normal -0.019744923338294 -0.00120069354306906 -0.999804377555847
outer loop
vertex 0.109994851052761 -0.999794542789459 0.089604876935482
vertex 0.0899999737739563 -0.999997496604919 0.0899999961256981
vertex 0.108068235218525 -0.863843083381653 0.0894796624779701
endloop
endfacet
endsolid COMSOL mesh mesh1
