solid COMSOL mesh mesh1
facet normal -0.707013547420502 -0.0162405259907246 -0.707013547420502
outer loop
vertex -0.129868552088737 -5.99827480316162 0.0149983381852508
vertex -0.0450051240622997 -6.00073194503784 -0.0698086470365524
vertex -0.122062675654888 -6.55697011947632 0.0200260281562805
endloop
endfacet
facet normal -0.707013547420502 -0.0162405259907246 -0.707013547420502
outer loop
vertex -0.0466803871095181 -6.55915260314941 -0.0553061291575432
vertex -0.122062675654888 -6.55697011947632 0.0200260281562805
vertex -0.0450051240622997 -6.00073194503784 -0.0698086470365524
endloop
endfacet
facet normal -0.707013547420502 -0.0162405259907246 -0.707013547420502
outer loop
vertex -0.122062675654888 -6.55697011947632 0.0200260281562805
vertex -0.0466803871095181 -6.55915260314941 -0.0553061291575432
vertex -0.114301204681396 -7.11248731613159 0.0250251144170761
endloop
endfacet
facet normal -0.707013487815857 -0.0162405241280794 -0.707013487815857
outer loop
vertex -0.0483461171388626 -7.1143970489502 -0.0408861041069031
vertex -0.114301204681396 -7.11248731613159 0.0250251144170761
vertex -0.0466803871095181 -6.55915260314941 -0.0553061291575432
endloop
endfacet
facet normal -0.707013547420502 -0.0162405241280794 -0.707013547420502
outer loop
vertex -0.114301204681396 -7.11248731613159 0.0250251144170761
vertex -0.0483461171388626 -7.1143970489502 -0.0408861041069031
vertex -0.106543891131878 -7.66770648956299 0.0300215277820826
endloop
endfacet
facet normal -0.707013547420502 -0.0162405241280794 -0.707013547420502
outer loop
vertex -0.0500109568238258 -7.6693434715271 -0.0264738034456968
vertex -0.106543891131878 -7.66770648956299 0.0300215277820826
vertex -0.0483461171388626 -7.1143970489502 -0.0408861041069031
endloop
endfacet
facet normal -0.707013547420502 -0.0162405241280794 -0.707013547420502
outer loop
vertex -0.106543891131878 -7.66770648956299 0.0300215277820826
vertex -0.0500109568238258 -7.6693434715271 -0.0264738034456968
vertex -0.0987865775823593 -8.22292613983154 0.035017941147089
endloop
endfacet
facet normal -0.707013487815857 -0.0162405241280794 -0.707013487815857
outer loop
vertex -0.0516758002340794 -8.22429084777832 -0.0120615027844906
vertex -0.0987865775823593 -8.22292613983154 0.035017941147089
vertex -0.0500109568238258 -7.6693434715271 -0.0264738034456968
endloop
endfacet
facet normal -0.707013487815857 -0.0162405241280794 -0.707013487815857
outer loop
vertex -0.0987865775823593 -8.22292613983154 0.035017941147089
vertex -0.0516758002340794 -8.22429084777832 -0.0120615027844906
vertex -0.0910292640328407 -8.7781457901001 0.0400143526494503
endloop
endfacet
facet normal -0.707013487815857 -0.0162405259907246 -0.707013487815857
outer loop
vertex -0.0533406399190426 -8.77923679351807 0.00235079787671566
vertex -0.0910292640328407 -8.7781457901001 0.0400143526494503
vertex -0.0516758002340794 -8.22429084777832 -0.0120615027844906
endloop
endfacet
facet normal -0.707013487815857 -0.0162405259907246 -0.707013487815857
outer loop
vertex -0.0910292640328407 -8.7781457901001 0.0400143526494503
vertex -0.0533406399190426 -8.77923679351807 0.00235079787671566
vertex -0.0832719430327415 -9.33336544036865 0.0450107641518116
endloop
endfacet
facet normal -0.707013547420502 -0.0162405241280794 -0.707013547420502
outer loop
vertex -0.0550054796040058 -9.33418369293213 0.0167630985379219
vertex -0.0832719430327415 -9.33336544036865 0.0450107641518116
vertex -0.0533406399190426 -8.77923679351807 0.00235079787671566
endloop
endfacet
facet normal -0.707013547420502 -0.0162405241280794 -0.707013547420502
outer loop
vertex -0.0832719430327415 -9.33336544036865 0.0450107641518116
vertex -0.0550054796040058 -9.33418369293213 0.0167630985379219
vertex -0.075514629483223 -9.88858509063721 0.0500071756541729
endloop
endfacet
facet normal -0.707013487815857 -0.0162405259907246 -0.707013487815857
outer loop
vertex -0.056670319288969 -9.88913059234619 0.0311753991991282
vertex -0.075514629483223 -9.88858509063721 0.0500071756541729
vertex -0.0550054796040058 -9.33418369293213 0.0167630985379219
endloop
endfacet
facet normal -0.707013487815857 -0.0162405259907246 -0.707013487815857
outer loop
vertex -0.056670319288969 -9.88913059234619 0.0311753991991282
vertex -0.0583351589739323 -10.4440774917603 0.0455876998603344
vertex -0.075514629483223 -9.88858509063721 0.0500071756541729
endloop
endfacet
facet normal -0.707013487815857 -0.0162405259907246 -0.707013487815857
outer loop
vertex -0.0677573159337044 -10.4438047409058 0.0550035871565342
vertex -0.075514629483223 -9.88858509063721 0.0500071756541729
vertex -0.0583351589739323 -10.4440774917603 0.0455876998603344
endloop
endfacet
facet normal -0.707013487815857 -0.0162405259907246 -0.707013487815857
outer loop
vertex -0.0583351589739323 -10.4440774917603 0.0455876998603344
vertex -0.0599999986588955 -10.9990243911743 0.0599999986588955
vertex -0.0677573159337044 -10.4438047409058 0.0550035871565342
endloop
endfacet
facet normal -1 -0 0
outer loop
vertex -0.129852995276451 -5 0.0149999996647239
vertex -0.129852995276451 -5.5 0.0149999996647239
vertex -0.129852995276451 -5 0.135000005364418
endloop
endfacet
facet normal -1 0 0
outer loop
vertex -0.129852995276451 -5.5 0.135000005364418
vertex -0.129852995276451 -5 0.135000005364418
vertex -0.129852995276451 -5.5 0.0149999996647239
endloop
endfacet
facet normal -1 0 0
outer loop
vertex -0.129852995276451 -5.5 0.0149999996647239
vertex -0.129852995276451 -6 0.0149999996647239
vertex -0.129852995276451 -5.5 0.135000005364418
endloop
endfacet
facet normal -1 0 0
outer loop
vertex -0.129852995276451 -6 0.135000005364418
vertex -0.129852995276451 -5.5 0.135000005364418
vertex -0.129852995276451 -6 0.0149999996647239
endloop
endfacet
facet normal -0.70710676908493 4.90653884941496e-18 -0.70710676908493
outer loop
vertex -0.129852995276451 -5 0.0149999996647239
vertex -0.0450000017881393 -5 -0.0698530003428459
vertex -0.129852995276451 -5.5 0.0149999996647239
endloop
endfacet
facet normal -0.70710676908493 0 -0.70710676908493
outer loop
vertex -0.0450000017881393 -5.5 -0.0698530003428459
vertex -0.129852995276451 -5.5 0.0149999996647239
vertex -0.0450000017881393 -5 -0.0698530003428459
endloop
endfacet
facet normal -0.70710676908493 -0 -0.70710676908493
outer loop
vertex -0.0450000017881393 -5.5 -0.0698530003428459
vertex -0.0450000017881393 -6 -0.0698530003428459
vertex -0.129852995276451 -5.5 0.0149999996647239
endloop
endfacet
facet normal -0.70710676908493 -4.90653884941496e-18 -0.70710676908493
outer loop
vertex -0.129852995276451 -6 0.0149999996647239
vertex -0.129852995276451 -5.5 0.0149999996647239
vertex -0.0450000017881393 -6 -0.0698530003428459
endloop
endfacet
facet normal -0.70710676908493 -3.92523107953197e-17 0.70710676908493
outer loop
vertex -0.0450000017881393 -5 0.21985299885273
vertex -0.129852995276451 -5 0.135000005364418
vertex -0.0450000017881393 -5.5 0.21985299885273
endloop
endfacet
facet normal -0.70710676908493 0 0.70710676908493
outer loop
vertex -0.129852995276451 -5.5 0.135000005364418
vertex -0.0450000017881393 -5.5 0.21985299885273
vertex -0.129852995276451 -5 0.135000005364418
endloop
endfacet
facet normal -0.70710676908493 0 0.70710676908493
outer loop
vertex -0.129852995276451 -5.5 0.135000005364418
vertex -0.129852995276451 -6 0.135000005364418
vertex -0.0450000017881393 -5.5 0.21985299885273
endloop
endfacet
facet normal -0.70710676908493 3.92523107953197e-17 0.70710676908493
outer loop
vertex -0.0450000017881393 -6 0.21985299885273
vertex -0.0450000017881393 -5.5 0.21985299885273
vertex -0.129852995276451 -6 0.135000005364418
endloop
endfacet
facet normal -0 -0 -1
outer loop
vertex 0.0750000029802322 -5 -0.0698530003428459
vertex 0.0750000029802322 -5.5 -0.0698530003428459
vertex -0.0450000017881393 -5 -0.0698530003428459
endloop
endfacet
facet normal 0 0 -1
outer loop
vertex -0.0450000017881393 -5.5 -0.0698530003428459
vertex -0.0450000017881393 -5 -0.0698530003428459
vertex 0.0750000029802322 -5.5 -0.0698530003428459
endloop
endfacet
facet normal -0 -0 -1
outer loop
vertex 0.0750000029802322 -5.5 -0.0698530003428459
vertex 0.0750000029802322 -6 -0.0698530003428459
vertex -0.0450000017881393 -5.5 -0.0698530003428459
endloop
endfacet
facet normal 0 0 -1
outer loop
vertex -0.0450000017881393 -6 -0.0698530003428459
vertex -0.0450000017881393 -5.5 -0.0698530003428459
vertex 0.0750000029802322 -6 -0.0698530003428459
endloop
endfacet
facet normal 0 -5.55111512312578e-17 1
outer loop
vertex -0.0450000017881393 -5 0.21985299885273
vertex -0.0450000017881393 -5.5 0.21985299885273
vertex 0.0750000029802322 -5 0.21985299885273
endloop
endfacet
facet normal 0 -5.55111512312578e-17 1
outer loop
vertex 0.0750000029802322 -5.5 0.21985299885273
vertex 0.0750000029802322 -5 0.21985299885273
vertex -0.0450000017881393 -5.5 0.21985299885273
endloop
endfacet
facet normal -0 5.55111512312578e-17 1
outer loop
vertex -0.0450000017881393 -5.5 0.21985299885273
vertex -0.0450000017881393 -6 0.21985299885273
vertex 0.0750000029802322 -5.5 0.21985299885273
endloop
endfacet
facet normal 0 5.55111512312578e-17 1
outer loop
vertex 0.0750000029802322 -6 0.21985299885273
vertex 0.0750000029802322 -5.5 0.21985299885273
vertex -0.0450000017881393 -6 0.21985299885273
endloop
endfacet
facet normal 0.70710676908493 0 -0.70710676908493
outer loop
vertex 0.0750000029802322 -5 -0.0698530003428459
vertex 0.159852996468544 -5 0.0149999996647239
vertex 0.0750000029802322 -5.5 -0.0698530003428459
endloop
endfacet
facet normal 0.70710676908493 4.90653884941496e-18 -0.70710676908493
outer loop
vertex 0.159852996468544 -5.5 0.0149999996647239
vertex 0.0750000029802322 -5.5 -0.0698530003428459
vertex 0.159852996468544 -5 0.0149999996647239
endloop
endfacet
facet normal 0.70710676908493 0 -0.70710676908493
outer loop
vertex 0.0750000029802322 -6 -0.0698530003428459
vertex 0.0750000029802322 -5.5 -0.0698530003428459
vertex 0.159852996468544 -6 0.0149999996647239
endloop
endfacet
facet normal 0.70710676908493 -4.90653884941496e-18 -0.70710676908493
outer loop
vertex 0.159852996468544 -5.5 0.0149999996647239
vertex 0.159852996468544 -6 0.0149999996647239
vertex 0.0750000029802322 -5.5 -0.0698530003428459
endloop
endfacet
facet normal 0.70710676908493 0 0.70710676908493
outer loop
vertex 0.159852996468544 -5 0.135000005364418
vertex 0.0750000029802322 -5 0.21985299885273
vertex 0.159852996468544 -5.5 0.135000005364418
endloop
endfacet
facet normal 0.70710676908493 -3.92523107953197e-17 0.70710676908493
outer loop
vertex 0.0750000029802322 -5.5 0.21985299885273
vertex 0.159852996468544 -5.5 0.135000005364418
vertex 0.0750000029802322 -5 0.21985299885273
endloop
endfacet
facet normal 0.70710676908493 -0 0.70710676908493
outer loop
vertex 0.159852996468544 -6 0.135000005364418
vertex 0.159852996468544 -5.5 0.135000005364418
vertex 0.0750000029802322 -6 0.21985299885273
endloop
endfacet
facet normal 0.70710676908493 3.92523107953197e-17 0.70710676908493
outer loop
vertex 0.0750000029802322 -5.5 0.21985299885273
vertex 0.0750000029802322 -6 0.21985299885273
vertex 0.159852996468544 -5.5 0.135000005364418
endloop
endfacet
facet normal 1 0 0
outer loop
vertex 0.159852996468544 -5 0.135000005364418
vertex 0.159852996468544 -5.5 0.135000005364418
vertex 0.159852996468544 -5 0.0149999996647239
endloop
endfacet
facet normal 1 0 0
outer loop
vertex 0.159852996468544 -5.5 0.0149999996647239
vertex 0.159852996468544 -5 0.0149999996647239
vertex 0.159852996468544 -5.5 0.135000005364418
endloop
endfacet
facet normal 1 -0 0
outer loop
vertex 0.159852996468544 -6 0.0149999996647239
vertex 0.159852996468544 -5.5 0.0149999996647239
vertex 0.159852996468544 -6 0.135000005364418
endloop
endfacet
facet normal 1 0 0
outer loop
vertex 0.159852996468544 -5.5 0.135000005364418
vertex 0.159852996468544 -6 0.135000005364418
vertex 0.159852996468544 -5.5 0.0149999996647239
endloop
endfacet
facet normal -0.706995248794556 -0.0162410531193018 0.707031786441803
outer loop
vertex -0.0449937134981155 -5.99929285049438 0.219853118062019
vertex -0.129843354225159 -5.99971437454224 0.134998172521591
vertex -0.0466702468693256 -6.55787372589111 0.205345645546913
endloop
endfacet
facet normal -0.706995248794556 -0.0162410549819469 0.707031846046448
outer loop
vertex -0.122040309011936 -6.5582480430603 0.129970878362656
vertex -0.0466702468693256 -6.55787372589111 0.205345645546913
vertex -0.129843354225159 -5.99971437454224 0.134998172521591
endloop
endfacet
facet normal -0.706995248794556 -0.0162410549819469 0.707031786441803
outer loop
vertex -0.0466702468693256 -6.55787372589111 0.205345645546913
vertex -0.122040309011936 -6.5582480430603 0.129970878362656
vertex -0.048337247222662 -7.11327743530273 0.190920680761337
endloop
endfacet
facet normal -0.706995189189911 -0.0162410549819469 0.707031786441803
outer loop
vertex -0.114281632006168 -7.11360549926758 0.124972179532051
vertex -0.048337247222662 -7.11327743530273 0.190920680761337
vertex -0.122040309011936 -6.5582480430603 0.129970878362656
endloop
endfacet
facet normal -0.706995248794556 -0.0162410549819469 0.707031905651093
outer loop
vertex -0.048337247222662 -7.11327743530273 0.190920680761337
vertex -0.114281632006168 -7.11360549926758 0.124972179532051
vertex -0.0500033535063267 -7.66838407516479 0.176503449678421
endloop
endfacet
facet normal -0.706995248794556 -0.0162410568445921 0.707031846046448
outer loop
vertex -0.106527112424374 -7.66866540908813 0.119976155459881
vertex -0.0500033535063267 -7.66838407516479 0.176503449678421
vertex -0.114281632006168 -7.11360549926758 0.124972179532051
endloop
endfacet
facet normal -0.706995248794556 -0.0162410568445921 0.707031846046448
outer loop
vertex -0.0500033535063267 -7.66838407516479 0.176503449678421
vertex -0.106527112424374 -7.66866540908813 0.119976155459881
vertex -0.0516694635152817 -8.22349071502686 0.162086203694344
endloop
endfacet
facet normal -0.706995189189911 -0.0162410549819469 0.707031786441803
outer loop
vertex -0.0987725928425789 -8.22372531890869 0.114980131387711
vertex -0.0516694635152817 -8.22349071502686 0.162086203694344
vertex -0.106527112424374 -7.66866540908813 0.119976155459881
endloop
endfacet
facet normal -0.706995189189911 -0.0162410549819469 0.707031786441803
outer loop
vertex -0.0516694635152817 -8.22349071502686 0.162086203694344
vertex -0.0987725928425789 -8.22372531890869 0.114980131387711
vertex -0.0533355697989464 -8.77859783172607 0.147668957710266
endloop
endfacet
facet normal -0.706995189189911 -0.0162410531193018 0.707031786441803
outer loop
vertex -0.0910180732607841 -8.77878475189209 0.10998410731554
vertex -0.0533355697989464 -8.77859783172607 0.147668957710266
vertex -0.0987725928425789 -8.22372531890869 0.114980131387711
endloop
endfacet
facet normal -0.706995189189911 -0.0162410531193018 0.707031786441803
outer loop
vertex -0.0533355697989464 -8.77859783172607 0.147668957710266
vertex -0.0910180732607841 -8.77878475189209 0.10998410731554
vertex -0.0550016760826111 -9.33370399475098 0.13325172662735
endloop
endfacet
facet normal -0.706995248794556 -0.0162410568445921 0.707031846046448
outer loop
vertex -0.0832635536789894 -9.3338451385498 0.104988075792789
vertex -0.0550016760826111 -9.33370399475098 0.13325172662735
vertex -0.0910180732607841 -8.77878475189209 0.10998410731554
endloop
endfacet
facet normal -0.706995248794556 -0.0162410568445921 0.707031846046448
outer loop
vertex -0.0550016760826111 -9.33370399475098 0.13325172662735
vertex -0.0832635536789894 -9.3338451385498 0.104988075792789
vertex -0.0566677860915661 -9.8888111114502 0.118834480643272
endloop
endfacet
facet normal -0.706995189189911 -0.0162410531193018 0.707031786441803
outer loop
vertex -0.0755090340971947 -9.8889045715332 0.0999920517206192
vertex -0.0566677860915661 -9.8888111114502 0.118834480643272
vertex -0.0832635536789894 -9.3338451385498 0.104988075792789
endloop
endfacet
facet normal -0.706995189189911 -0.0162410531193018 0.707031786441803
outer loop
vertex -0.0755090340971947 -9.8889045715332 0.0999920517206192
vertex -0.0677545219659805 -10.4439640045166 0.0949960276484489
vertex -0.0566677860915661 -9.8888111114502 0.118834480643272
endloop
endfacet
facet normal -0.706995189189911 -0.0162410531193018 0.707031786441803
outer loop
vertex -0.0583338923752308 -10.4439172744751 0.104417242109776
vertex -0.0566677860915661 -9.8888111114502 0.118834480643272
vertex -0.0677545219659805 -10.4439640045166 0.0949960276484489
endloop
endfacet
facet normal -0.706995189189911 -0.0162410531193018 0.707031786441803
outer loop
vertex -0.0677545219659805 -10.4439640045166 0.0949960276484489
vertex -0.0599999986588955 -10.9990243911743 0.0900000035762787
vertex -0.0583338923752308 -10.4439172744751 0.104417242109776
endloop
endfacet
facet normal -0.999902427196503 -0.013969236984849 0
outer loop
vertex -0.0599999986588955 -10.9990243911743 0.0599999986588955
vertex -0.0599999986588955 -10.9990243911743 0.0900000035762787
vertex -0.0626958534121513 -10.8060579299927 0.0582631342113018
endloop
endfacet
facet normal -0.999902486801147 -0.0139692379161716 1.48261618944606e-15
outer loop
vertex -0.0626958534121513 -10.8060579299927 0.0917368680238724
vertex -0.0626958534121513 -10.8060579299927 0.0582631342113018
vertex -0.0599999986588955 -10.9990243911743 0.0900000035762787
endloop
endfacet
facet normal -0.999902427196503 -0.013969236984849 1.26551518643856e-15
outer loop
vertex -0.0671524107456207 -10.4870624542236 0.0553918965160847
vertex -0.0626958534121513 -10.8060579299927 0.0582631342113018
vertex -0.0671524107456207 -10.4870624542236 0.0946081057190895
endloop
endfacet
facet normal -0.999902427196503 -0.0139692360535264 1.48261618944606e-15
outer loop
vertex -0.0626958534121513 -10.8060579299927 0.0917368680238724
vertex -0.0671524107456207 -10.4870624542236 0.0946081057190895
vertex -0.0626958534121513 -10.8060579299927 0.0582631342113018
endloop
endfacet
facet normal -0.999902427196503 -0.013969236984849 1.26551508055944e-15
outer loop
vertex -0.0671524107456207 -10.4870624542236 0.0553918965160847
vertex -0.0671524107456207 -10.4870624542236 0.0946081057190895
vertex -0.0742709338665009 -9.97752666473389 0.0508056245744228
endloop
endfacet
facet normal -0.999902427196503 -0.0139692360535264 -3.47497119495649e-16
outer loop
vertex -0.0742709338665009 -9.97752666473389 0.0991943776607513
vertex -0.0742709338665009 -9.97752666473389 0.0508056245744228
vertex -0.0671524107456207 -10.4870624542236 0.0946081057190895
endloop
endfacet
facet normal -0.999902486801147 -0.013969236984849 -7.61502789553672e-16
outer loop
vertex -0.0821382477879524 -9.41439342498779 0.0457369275391102
vertex -0.0742709338665009 -9.97752666473389 0.0508056245744228
vertex -0.0821382477879524 -9.41439342498779 0.104263074696064
endloop
endfacet
facet normal -0.999902427196503 -0.0139692360535264 -3.47497093025869e-16
outer loop
vertex -0.0742709338665009 -9.97752666473389 0.0991943776607513
vertex -0.0821382477879524 -9.41439342498779 0.104263074696064
vertex -0.0742709338665009 -9.97752666473389 0.0508056245744228
endloop
endfacet
facet normal -0.999902427196503 -0.0139692360535264 -1.3718564671972e-15
outer loop
vertex -0.090005561709404 -8.85125923156738 0.0406682305037975
vertex -0.0821382477879524 -9.41439342498779 0.0457369275391102
vertex -0.090005561709404 -8.85125923156738 0.109331764280796
endloop
endfacet
facet normal -0.999902486801147 -0.013969236984849 -7.61502789553672e-16
outer loop
vertex -0.0821382477879524 -9.41439342498779 0.104263074696064
vertex -0.090005561709404 -8.85125923156738 0.109331764280796
vertex -0.0821382477879524 -9.41439342498779 0.0457369275391102
endloop
endfacet
facet normal -0.999902427196503 -0.013969236984849 -1.3718564671972e-15
outer loop
vertex -0.090005561709404 -8.85125923156738 0.0406682305037975
vertex -0.090005561709404 -8.85125923156738 0.109331764280796
vertex -0.097879983484745 -8.28761672973633 0.0355949550867081
endloop
endfacet
facet normal -0.999902486801147 -0.0139692379161716 1.65740888935495e-17
outer loop
vertex -0.097879983484745 -8.28761672973633 0.114405043423176
vertex -0.097879983484745 -8.28761672973633 0.0355949550867081
vertex -0.090005561709404 -8.85125923156738 0.109331764280796
endloop
endfacet
facet normal -0.999902427196503 -0.0139692360535264 -8.25162622730643e-17
outer loop
vertex -0.10581012815237 -7.71998596191406 0.0304857771843672
vertex -0.097879983484745 -8.28761672973633 0.0355949550867081
vertex -0.10581012815237 -7.71998596191406 0.119514226913452
endloop
endfacet
facet normal -0.999902427196503 -0.013969236984849 1.65740872391882e-17
outer loop
vertex -0.097879983484745 -8.28761672973633 0.114405043423176
vertex -0.10581012815237 -7.71998596191406 0.119514226913452
vertex -0.097879983484745 -8.28761672973633 0.0355949550867081
endloop
endfacet
facet normal -0.999902427196503 -0.013969236984849 -1.79141539113654e-16
outer loop
vertex -0.113804988563061 -7.14772319793701 0.0253349058330059
vertex -0.10581012815237 -7.71998596191406 0.0304857771843672
vertex -0.113804988563061 -7.14772319793701 0.124665096402168
endloop
endfacet
facet normal -0.999902367591858 -0.013969236984849 -8.25162688905092e-17
outer loop
vertex -0.10581012815237 -7.71998596191406 0.119514226913452
vertex -0.113804988563061 -7.14772319793701 0.124665096402168
vertex -0.10581012815237 -7.71998596191406 0.0304857771843672
endloop
endfacet
facet normal -0.999902427196503 -0.013969236984849 -1.79141525878764e-16
outer loop
vertex -0.113804988563061 -7.14772319793701 0.0253349058330059
vertex -0.113804988563061 -7.14772319793701 0.124665096402168
vertex -0.121853895485401 -6.5715913772583 0.0201492160558701
endloop
endfacet
facet normal -0.999902427196503 -0.0139692360535264 2.64892031259686e-16
outer loop
vertex -0.121853895485401 -6.5715913772583 0.129850789904594
vertex -0.121853895485401 -6.5715913772583 0.0201492160558701
vertex -0.113804988563061 -7.14772319793701 0.124665096402168
endloop
endfacet
facet normal -0.999902427196503 -0.013969236984849 2.64892031259686e-16
outer loop
vertex -0.121853895485401 -6.5715913772583 0.0201492160558701
vertex -0.121853895485401 -6.5715913772583 0.129850789904594
vertex -0.129846185445786 -5.99951219558716 0.0149999996647239
endloop
endfacet
facet normal -0.999902427196503 -0.0139692360535264 -0
outer loop
vertex -0.129846185445786 -5.99951219558716 0.135000005364418
vertex -0.129846185445786 -5.99951219558716 0.0149999996647239
vertex -0.121853895485401 -6.5715913772583 0.129850789904594
endloop
endfacet
facet normal -0.707031786441803 0.0162410531193018 -0.706995248794556
outer loop
vertex -0.129853114485741 -4.99973106384277 0.0150062870234251
vertex -0.115345641970634 -4.4411506652832 0.0133297527208924
vertex -0.0449981763958931 -4.99930953979492 -0.0698433518409729
endloop
endfacet
facet normal -0.707031846046448 0.0162410549819469 -0.706995248794556
outer loop
vertex -0.0399708859622478 -4.44077587127686 -0.0620403066277504
vertex -0.0449981763958931 -4.99930953979492 -0.0698433518409729
vertex -0.115345641970634 -4.4411506652832 0.0133297527208924
endloop
endfacet
facet normal -0.707031786441803 0.0162410549819469 -0.706995248794556
outer loop
vertex -0.115345641970634 -4.4411506652832 0.0133297527208924
vertex -0.100920684635639 -3.885746717453 0.0116627532988787
vertex -0.0399708859622478 -4.44077587127686 -0.0620403066277504
endloop
endfacet
facet normal -0.707031786441803 0.0162410549819469 -0.706995189189911
outer loop
vertex -0.0349721796810627 -3.88541889190674 -0.0542816333472729
vertex -0.0399708859622478 -4.44077587127686 -0.0620403066277504
vertex -0.100920684635639 -3.885746717453 0.0116627532988787
endloop
endfacet
facet normal -0.707031905651093 0.0162410549819469 -0.706995248794556
outer loop
vertex -0.100920684635639 -3.885746717453 0.0116627532988787
vertex -0.0865034461021423 -3.33064007759094 0.00999664515256882
vertex -0.0349721796810627 -3.88541889190674 -0.0542816333472729
endloop
endfacet
facet normal -0.707031846046448 0.0162410568445921 -0.706995248794556
outer loop
vertex -0.0299761556088924 -3.33035898208618 -0.0465271137654781
vertex -0.0349721796810627 -3.88541889190674 -0.0542816333472729
vertex -0.0865034461021423 -3.33064007759094 0.00999664515256882
endloop
endfacet
facet normal -0.707031846046448 0.0162410568445921 -0.706995248794556
outer loop
vertex -0.0865034461021423 -3.33064007759094 0.00999664515256882
vertex -0.0720862001180649 -2.7755331993103 0.00833053793758154
vertex -0.0299761556088924 -3.33035898208618 -0.0465271137654781
endloop
endfacet
facet normal -0.707031786441803 0.0162410549819469 -0.706995189189911
outer loop
vertex -0.024980129674077 -2.77529907226563 -0.0387725941836834
vertex -0.0299761556088924 -3.33035898208618 -0.0465271137654781
vertex -0.0720862001180649 -2.7755331993103 0.00833053793758154
endloop
endfacet
facet normal -0.707031786441803 0.0162410549819469 -0.706995189189911
outer loop
vertex -0.0720862001180649 -2.7755331993103 0.00833053793758154
vertex -0.057668961584568 -2.22042655944824 0.00666443025693297
vertex -0.024980129674077 -2.77529907226563 -0.0387725941836834
endloop
endfacet
facet normal -0.707031786441803 0.0162410531193018 -0.706995189189911
outer loop
vertex -0.0199841037392616 -2.22023940086365 -0.0310180746018887
vertex -0.024980129674077 -2.77529907226563 -0.0387725941836834
vertex -0.057668961584568 -2.22042655944824 0.00666443025693297
endloop
endfacet
facet normal -0.707031786441803 0.0162410531193018 -0.706995189189911
outer loop
vertex -0.057668961584568 -2.22042655944824 0.00666443025693297
vertex -0.0432517230510712 -1.66532003879547 0.00499832257628441
vertex -0.0199841037392616 -2.22023940086365 -0.0310180746018887
endloop
endfacet
facet normal -0.707031846046448 0.0162410568445921 -0.706995248794556
outer loop
vertex -0.0149880778044462 -1.66517949104309 -0.0232635568827391
vertex -0.0199841037392616 -2.22023940086365 -0.0310180746018887
vertex -0.0432517230510712 -1.66532003879547 0.00499832257628441
endloop
endfacet
facet normal -0.707031846046448 0.0162410568445921 -0.706995248794556
outer loop
vertex -0.0432517230510712 -1.66532003879547 0.00499832257628441
vertex -0.028834480792284 -1.11021327972412 0.00333221512846649
vertex -0.0149880778044462 -1.66517949104309 -0.0232635568827391
endloop
endfacet
facet normal -0.707031786441803 0.0162410531193018 -0.706995189189911
outer loop
vertex -0.00999205186963081 -1.11011970043182 -0.0155090373009443
vertex -0.0149880778044462 -1.66517949104309 -0.0232635568827391
vertex -0.028834480792284 -1.11021327972412 0.00333221512846649
endloop
endfacet
facet normal -0.707031786441803 0.0162410531193018 -0.706995189189911
outer loop
vertex -0.00999205186963081 -1.11011970043182 -0.0155090373009443
vertex -0.028834480792284 -1.11021327972412 0.00333221512846649
vertex -0.00499602593481541 -0.555059850215912 -0.00775451865047216
endloop
endfacet
facet normal -0.707031786441803 0.0162410531193018 -0.706995189189911
outer loop
vertex -0.014417240396142 -0.555106639862061 0.00166610756423324
vertex -0.00499602593481541 -0.555059850215912 -0.00775451865047216
vertex -0.028834480792284 -1.11021327972412 0.00333221512846649
endloop
endfacet
facet normal -0.707031786441803 0.0162410531193018 -0.706995189189911
outer loop
vertex -0.00499602593481541 -0.555059850215912 -0.00775451865047216
vertex -0.014417240396142 -0.555106639862061 0.00166610756423324
vertex 0 0 0
endloop
endfacet
facet normal 0.707023322582245 -0.0162410978227854 -0.707003712654114
outer loop
vertex -0.00499602500349283 -0.555059731006622 0.157754510641098
vertex -0.014417371712625 -0.555106580257416 0.148333981633186
vertex 0 0 0.150000005960464
endloop
endfacet
facet normal 0.707023322582245 -0.0162410978227854 -0.707003712654114
outer loop
vertex -0.00999205000698566 -1.11011946201324 0.165509030222893
vertex -0.0288347434252501 -1.11021316051483 0.146667972207069
vertex -0.00499602500349283 -0.555059731006622 0.157754510641098
endloop
endfacet
facet normal 0.707023322582245 -0.0162410978227854 -0.707003712654114
outer loop
vertex -0.014417371712625 -0.555106580257416 0.148333981633186
vertex -0.00499602500349283 -0.555059731006622 0.157754510641098
vertex -0.0288347434252501 -1.11021316051483 0.146667972207069
endloop
endfacet
facet normal 0.707023322582245 -0.0162410978227854 -0.707003712654114
outer loop
vertex -0.00999205000698566 -1.11011946201324 0.165509030222893
vertex -0.0149880750104785 -1.66517925262451 0.173263549804688
vertex -0.0288347434252501 -1.11021316051483 0.146667972207069
endloop
endfacet
facet normal 0.707023322582245 -0.0162410959601402 -0.707003712654114
outer loop
vertex -0.0432521142065525 -1.6653196811676 0.145001947879791
vertex -0.0288347434252501 -1.11021316051483 0.146667972207069
vertex -0.0149880750104785 -1.66517925262451 0.173263549804688
endloop
endfacet
facet normal 0.707023322582245 -0.0162410959601402 -0.707003712654114
outer loop
vertex -0.0149880750104785 -1.66517925262451 0.173263549804688
vertex -0.0199841000139713 -2.22023892402649 0.181018069386482
vertex -0.0432521142065525 -1.6653196811676 0.145001947879791
endloop
endfacet
facet normal 0.707023322582245 -0.0162410978227854 -0.707003712654114
outer loop
vertex -0.0576694868505001 -2.22042632102966 0.143335938453674
vertex -0.0432521142065525 -1.6653196811676 0.145001947879791
vertex -0.0199841000139713 -2.22023892402649 0.181018069386482
endloop
endfacet
facet normal 0.707023322582245 -0.0162410978227854 -0.707003712654114
outer loop
vertex -0.0199841000139713 -2.22023892402649 0.181018069386482
vertex -0.0249801259487867 -2.77529859542847 0.188772588968277
vertex -0.0576694868505001 -2.22042632102966 0.143335938453674
endloop
endfacet
facet normal 0.707023322582245 -0.0162410978227854 -0.707003712654114
outer loop
vertex -0.0720868557691574 -2.77553272247314 0.141669929027557
vertex -0.0576694868505001 -2.22042632102966 0.143335938453674
vertex -0.0249801259487867 -2.77529859542847 0.188772588968277
endloop
endfacet
facet normal 0.707023322582245 -0.0162410978227854 -0.707003712654114
outer loop
vertex -0.0249801259487867 -2.77529859542847 0.188772588968277
vertex -0.029976150020957 -3.33035850524902 0.196527108550072
vertex -0.0720868557691574 -2.77553272247314 0.141669929027557
endloop
endfacet
facet normal 0.707023322582245 -0.0162410959601402 -0.707003712654114
outer loop
vertex -0.086504228413105 -3.33063936233521 0.140003904700279
vertex -0.0720868557691574 -2.77553272247314 0.141669929027557
vertex -0.029976150020957 -3.33035850524902 0.196527108550072
endloop
endfacet
facet normal 0.707023322582245 -0.0162410959601402 -0.707003712654114
outer loop
vertex -0.029976150020957 -3.33035850524902 0.196527108550072
vertex -0.0349721759557724 -3.885418176651 0.204281628131866
vertex -0.086504228413105 -3.33063936233521 0.140003904700279
endloop
endfacet
facet normal 0.707023322582245 -0.0162410959601402 -0.707003653049469
outer loop
vertex -0.100921601057053 -3.88574600219727 0.138337895274162
vertex -0.086504228413105 -3.33063936233521 0.140003904700279
vertex -0.0349721759557724 -3.885418176651 0.204281628131866
endloop
endfacet
facet normal 0.707023322582245 -0.0162410959601402 -0.707003712654114
outer loop
vertex -0.0349721759557724 -3.885418176651 0.204281628131866
vertex -0.0399708785116673 -4.4407753944397 0.212040290236473
vertex -0.100921601057053 -3.88574600219727 0.138337895274162
endloop
endfacet
facet normal 0.70702338218689 -0.0162410978227854 -0.707003712654114
outer loop
vertex -0.115346692502499 -4.44114971160889 0.136670991778374
vertex -0.100921601057053 -3.88574600219727 0.138337895274162
vertex -0.0399708785116673 -4.4407753944397 0.212040290236473
endloop
endfacet
facet normal 0.70702338218689 -0.0162410978227854 -0.707003712654114
outer loop
vertex -0.0399708785116673 -4.4407753944397 0.212040290236473
vertex -0.0449981763958931 -4.99930953979492 0.219843357801437
vertex -0.115346692502499 -4.44114971160889 0.136670991778374
endloop
endfacet
facet normal 0.70702338218689 -0.0162410978227854 -0.707003712654114
outer loop
vertex -0.129854321479797 -4.99973106384277 0.13499453663826
vertex -0.115346692502499 -4.44114971160889 0.136670991778374
vertex -0.0449981763958931 -4.99930953979492 0.219843357801437
endloop
endfacet
facet normal -0.99966287612915 0.0259632598608732 2.07674015995482e-17
outer loop
vertex -0.11394888907671 -4.38737154006958 0.0131665524095297
vertex -0.129816323518753 -4.99831438064575 0.0149999996647239
vertex -0.113948665559292 -4.38736248016357 0.136833474040031
endloop
endfacet
facet normal -0.999662935733795 0.0259632635861635 0
outer loop
vertex -0.129816323518753 -4.99831438064575 0.135000005364418
vertex -0.113948665559292 -4.38736248016357 0.136833474040031
vertex -0.129816323518753 -4.99831438064575 0.0149999996647239
endloop
endfacet
facet normal -0.99966287612915 0.0259632635861635 2.07660599125947e-17
outer loop
vertex -0.11394888907671 -4.38737154006958 0.0131665524095297
vertex -0.113948665559292 -4.38736248016357 0.136833474040031
vertex -0.0962205529212952 -3.70477747917175 0.0111180804669857
endloop
endfacet
facet normal -0.999662935733795 0.0259632654488087 -1.48909208968161e-18
outer loop
vertex -0.0962196514010429 -3.7047426700592 0.138882026076317
vertex -0.0962205529212952 -3.70477747917175 0.0111180804669857
vertex -0.113948665559292 -4.38736248016357 0.136833474040031
endloop
endfacet
facet normal -0.999662935733795 0.0259632654488087 -1.71979160860569e-16
outer loop
vertex -0.0778780058026314 -2.99853491783142 0.00899863801896572
vertex -0.0962205529212952 -3.70477747917175 0.0111180804669857
vertex -0.0778768956661224 -2.99849224090576 0.141001492738724
endloop
endfacet
facet normal -0.99966287612915 0.0259632635861635 -1.48618816874366e-18
outer loop
vertex -0.0962196514010429 -3.7047426700592 0.138882026076317
vertex -0.0778768956661224 -2.99849224090576 0.141001492738724
vertex -0.0962205529212952 -3.70477747917175 0.0111180804669857
endloop
endfacet
facet normal -0.99966287612915 0.0259632635861635 -1.71966124494116e-16
outer loop
vertex -0.0778780058026314 -2.99853491783142 0.00899863801896572
vertex -0.0778768956661224 -2.99849224090576 0.141001492738724
vertex -0.0589077398180962 -2.26812338829041 0.00680666416883469
endloop
endfacet
facet normal -0.99966287612915 0.0259632635861635 -5.58333413885697e-17
outer loop
vertex -0.0589068457484245 -2.26808881759644 0.143193438649178
vertex -0.0589077398180962 -2.26812338829041 0.00680666416883469
vertex -0.0778768956661224 -2.99849224090576 0.141001492738724
endloop
endfacet
facet normal -0.99966287612915 0.0259632617235184 1.66790217173355e-19
outer loop
vertex -0.0393166355788708 -1.51380741596222 0.00454295380041003
vertex -0.0589077398180962 -2.26812338829041 0.00680666416883469
vertex -0.0393160171806812 -1.5137836933136 0.145457118749619
endloop
endfacet
facet normal -0.999662935733795 0.0259632654488087 -5.58337318178188e-17
outer loop
vertex -0.0589068457484245 -2.26808881759644 0.143193438649178
vertex -0.0393160171806812 -1.5137836933136 0.145457118749619
vertex -0.0589077398180962 -2.26812338829041 0.00680666416883469
endloop
endfacet
facet normal -0.999662935733795 0.0259632635861635 -4.39685703932969e-17
outer loop
vertex -0.0191795751452446 -0.738470733165741 0.00221615936607122
vertex -0.0393166355788708 -1.51380741596222 0.00454295380041003
vertex -0.0191792733967304 -0.738459050655365 0.147783875465393
endloop
endfacet
facet normal -0.999662935733795 0.0259632654488087 1.66630454992858e-19
outer loop
vertex -0.0393160171806812 -1.5137836933136 0.145457118749619
vertex -0.0191792733967304 -0.738459050655365 0.147783875465393
vertex -0.0393166355788708 -1.51380741596222 0.00454295380041003
endloop
endfacet
facet normal -0.999662935733795 0.0259632635861635 -4.39681237157661e-17
outer loop
vertex -0.0191795751452446 -0.738470733165741 0.00221615936607122
vertex -0.0191792733967304 -0.738459050655365 0.147783875465393
vertex 0 0 0
endloop
endfacet
facet normal -0.99966287612915 0.0259632617235184 0
outer loop
vertex 0 0 0.150000005960464
vertex 0 0 0
vertex -0.0191792733967304 -0.738459050655365 0.147783875465393
endloop
endfacet
facet normal -0 0.025961846113205 0.999662935733795
outer loop
vertex -0.0450000017881393 -6.00070953369141 -0.069809228181839
vertex -0.0468334555625916 -6.61165571212769 -0.0539425946772099
vertex 0.0750000029802322 -6.00070953369141 -0.069809228181839
endloop
endfacet
facet normal 3.00905079615191e-17 0.025961846113205 0.999662935733795
outer loop
vertex 0.0768334493041039 -6.61165332794189 -0.0539426542818546
vertex 0.0750000029802322 -6.00070953369141 -0.069809228181839
vertex -0.0468334555625916 -6.61165571212769 -0.0539425946772099
endloop
endfacet
facet normal 1.64353693813353e-16 0.0259618442505598 0.999662935733795
outer loop
vertex -0.0488819964230061 -7.29427242279053 -0.0362146310508251
vertex 0.0788819268345833 -7.2942476272583 -0.0362152680754662
vertex -0.0468334555625916 -6.61165571212769 -0.0539425946772099
endloop
endfacet
facet normal 3.00917553498828e-17 0.025961846113205 0.999662935733795
outer loop
vertex 0.0768334493041039 -6.61165332794189 -0.0539426542818546
vertex -0.0468334555625916 -6.61165571212769 -0.0539425946772099
vertex 0.0788819268345833 -7.2942476272583 -0.0362152680754662
endloop
endfacet
facet normal 1.64348651320339e-16 0.025961846113205 0.99966287612915
outer loop
vertex -0.0488819964230061 -7.29427242279053 -0.0362146310508251
vertex -0.0510014779865742 -8.00052833557129 -0.0178727451711893
vertex 0.0788819268345833 -7.2942476272583 -0.0362152680754662
endloop
endfacet
facet normal -5.47574457637954e-18 0.025961846113205 0.999662935733795
outer loop
vertex 0.0810013711452484 -8.00049114227295 -0.0178737044334412
vertex 0.0788819268345833 -7.2942476272583 -0.0362152680754662
vertex -0.0510014779865742 -8.00052833557129 -0.0178727451711893
endloop
endfacet
facet normal 7.01558810506967e-17 0.0259618479758501 0.999662935733795
outer loop
vertex -0.053193461149931 -8.73094177246094 0.00109654874540865
vertex 0.083193339407444 -8.73090362548828 0.0010955345351249
vertex -0.0510014779865742 -8.00052833557129 -0.0178727451711893
endloop
endfacet
facet normal -5.45592905121553e-18 0.025961846113205 0.999662935733795
outer loop
vertex 0.0810013711452484 -8.00049114227295 -0.0178737044334412
vertex -0.0510014779865742 -8.00052833557129 -0.0178727451711893
vertex 0.083193339407444 -8.73090362548828 0.0010955345351249
endloop
endfacet
facet normal 7.01732187563359e-17 0.0259618442505598 0.999662935733795
outer loop
vertex -0.053193461149931 -8.73094177246094 0.00109654874540865
vertex -0.0554571524262428 -9.48525142669678 0.0206864140927792
vertex 0.083193339407444 -8.73090362548828 0.0010955345351249
endloop
endfacet
facet normal -3.83541891882006e-16 0.025961846113205 0.999662935733795
outer loop
vertex 0.0854570493102074 -9.48521900177002 0.0206855591386557
vertex 0.083193339407444 -8.73090362548828 0.0010955345351249
vertex -0.0554571524262428 -9.48525142669678 0.0206864140927792
endloop
endfacet
facet normal -2.30623050212357e-17 0.0259618442505598 0.999662935733795
outer loop
vertex -0.0577838979661465 -10.2605714797974 0.0408219508826733
vertex 0.0877838432788849 -10.2605543136597 0.0408214814960957
vertex -0.0554571524262428 -9.48525142669678 0.0206864140927792
endloop
endfacet
facet normal -3.83521245453917e-16 0.0259618442505598 0.99966287612915
outer loop
vertex 0.0854570493102074 -9.48521900177002 0.0206855591386557
vertex -0.0554571524262428 -9.48525142669678 0.0206864140927792
vertex 0.0877838432788849 -10.2605543136597 0.0408214814960957
endloop
endfacet
facet normal -2.30744943547423e-17 0.025961846113205 0.99966299533844
outer loop
vertex -0.0577838979661465 -10.2605714797974 0.0408219508826733
vertex -0.0599999986588955 -10.9990243911743 0.0599999986588955
vertex 0.0877838432788849 -10.2605543136597 0.0408214814960957
endloop
endfacet
facet normal -1.38731105977588e-16 0.0259618479758501 0.999662935733795
outer loop
vertex 0.0900000035762787 -10.9990243911743 0.0599999986588955
vertex 0.0877838432788849 -10.2605543136597 0.0408214814960957
vertex -0.0599999986588955 -10.9990243911743 0.0599999986588955
endloop
endfacet
facet normal 0 -0.0259632635861635 0.999662935733795
outer loop
vertex -0.0450000017881393 -6.00070953369141 0.219816312193871
vertex -0.0468334555625916 -6.61165571212769 0.203948810696602
vertex 0.0750000029802322 -6.00070953369141 0.219816312193871
endloop
endfacet
facet normal -2.49322857622548e-17 -0.0259632654488087 0.999662935733795
outer loop
vertex 0.0768334493041039 -6.61165332794189 0.203948870301247
vertex 0.0750000029802322 -6.00070953369141 0.219816312193871
vertex -0.0468334555625916 -6.61165571212769 0.203948810696602
endloop
endfacet
facet normal -5.2240619379055e-16 -0.0259632654488087 0.999662935733795
outer loop
vertex -0.0488819964230061 -7.29427242279053 0.18621988594532
vertex 0.0788819268345833 -7.29424810409546 0.18622051179409
vertex -0.0468334555625916 -6.61165571212769 0.203948810696602
endloop
endfacet
facet normal -2.4930259169754e-17 -0.0259632635861635 0.999662935733795
outer loop
vertex 0.0768334493041039 -6.61165332794189 0.203948870301247
vertex -0.0468334555625916 -6.61165571212769 0.203948810696602
vertex 0.0788819268345833 -7.29424810409546 0.18622051179409
endloop
endfacet
facet normal -5.2244341030067e-16 -0.0259632617235184 0.99966287612915
outer loop
vertex -0.0488819964230061 -7.29427242279053 0.18621988594532
vertex -0.0510014779865742 -8.00052833557129 0.167876988649368
vertex 0.0788819268345833 -7.29424810409546 0.18622051179409
endloop
endfacet
facet normal -1.51078556712621e-16 -0.0259632654488087 0.999662935733795
outer loop
vertex 0.0810013711452484 -8.00049114227295 0.167877957224846
vertex 0.0788819268345833 -7.29424810409546 0.18622051179409
vertex -0.0510014779865742 -8.00052833557129 0.167876988649368
endloop
endfacet
facet normal -7.02431029449513e-16 -0.0259632617235184 0.99966287612915
outer loop
vertex -0.053193461149931 -8.73094272613525 0.148906663060188
vertex 0.083193339407444 -8.73090362548828 0.148907676339149
vertex -0.0510014779865742 -8.00052833557129 0.167876988649368
endloop
endfacet
facet normal -1.5106995403425e-16 -0.0259632617235184 0.99966287612915
outer loop
vertex 0.0810013711452484 -8.00049114227295 0.167877957224846
vertex -0.0510014779865742 -8.00052833557129 0.167876988649368
vertex 0.083193339407444 -8.73090362548828 0.148907676339149
endloop
endfacet
facet normal -7.02512079914653e-16 -0.0259632654488087 0.999662935733795
outer loop
vertex -0.053193461149931 -8.73094272613525 0.148906663060188
vertex -0.0554571524262428 -9.48525142669678 0.129315733909607
vertex 0.083193339407444 -8.73090362548828 0.148907676339149
endloop
endfacet
facet normal -1.2956266253783e-16 -0.0259632635861635 0.99966287612915
outer loop
vertex 0.0854570493102074 -9.48521900177002 0.129316583275795
vertex 0.083193339407444 -8.73090362548828 0.148907676339149
vertex -0.0554571524262428 -9.48525142669678 0.129315733909607
endloop
endfacet
facet normal 2.17185110732184e-16 -0.0259632635861635 0.999662935733795
outer loop
vertex -0.0577838979661465 -10.2605724334717 0.109179094433784
vertex 0.0877838432788849 -10.2605543136597 0.109179563820362
vertex -0.0554571524262428 -9.48525142669678 0.129315733909607
endloop
endfacet
facet normal -1.29554165738578e-16 -0.0259632654488087 0.99966287612915
outer loop
vertex 0.0854570493102074 -9.48521900177002 0.129316583275795
vertex -0.0554571524262428 -9.48525142669678 0.129315733909607
vertex 0.0877838432788849 -10.2605543136597 0.109179563820362
endloop
endfacet
facet normal 2.17201244062852e-16 -0.0259632635861635 0.999662935733795
outer loop
vertex -0.0577838979661465 -10.2605724334717 0.109179094433784
vertex -0.0599999986588955 -10.9990243911743 0.0900000035762787
vertex 0.0877838432788849 -10.2605543136597 0.109179563820362
endloop
endfacet
facet normal -9.24874017792439e-17 -0.0259632635861635 0.999662935733795
outer loop
vertex 0.0900000035762787 -10.9990243911743 0.0900000035762787
vertex 0.0877838432788849 -10.2605543136597 0.109179563820362
vertex -0.0599999986588955 -10.9990243911743 0.0900000035762787
endloop
endfacet
facet normal -1.60031704891266e-17 0.0139692379161716 -0.999902486801147
outer loop
vertex 0.0317368656396866 -0.192966341972351 -0.00269585545174778
vertex -0.00173686654306948 -0.192966341972351 -0.00269585545174778
vertex 0.0299999993294477 0 0
endloop
endfacet
facet normal 0 0.013969236984849 -0.999902427196503
outer loop
vertex 0 0 0
vertex 0.0299999993294477 0 0
vertex -0.00173686654306948 -0.192966341972351 -0.00269585545174778
endloop
endfacet
facet normal -1.60031688347654e-17 0.0139692360535264 -0.999902427196503
outer loop
vertex 0.0317368656396866 -0.192966341972351 -0.00269585545174778
vertex 0.0346081033349037 -0.511961400508881 -0.00715240743011236
vertex -0.00173686654306948 -0.192966341972351 -0.00269585545174778
endloop
endfacet
facet normal 3.92860696904792e-17 0.013969236984849 -0.999902427196503
outer loop
vertex -0.00460810214281082 -0.511961400508881 -0.00715240743011236
vertex -0.00173686654306948 -0.192966341972351 -0.00269585545174778
vertex 0.0346081033349037 -0.511961400508881 -0.00715240743011236
endloop
endfacet
facet normal -1.89795731282455e-17 0.0139692360535264 -0.999902427196503
outer loop
vertex 0.0391943752765656 -1.02149748802185 -0.0142709333449602
vertex -0.00919437501579523 -1.02149748802185 -0.0142709333449602
vertex 0.0346081033349037 -0.511961400508881 -0.00715240743011236
endloop
endfacet
facet normal 3.92860696904792e-17 0.013969236984849 -0.999902427196503
outer loop
vertex -0.00460810214281082 -0.511961400508881 -0.00715240743011236
vertex 0.0346081033349037 -0.511961400508881 -0.00715240743011236
vertex -0.00919437501579523 -1.02149748802185 -0.0142709333449602
endloop
endfacet
facet normal -1.89795731282455e-17 0.0139692360535264 -0.999902427196503
outer loop
vertex 0.0391943752765656 -1.02149748802185 -0.0142709333449602
vertex 0.0442630723118782 -1.58463108539581 -0.0221382472664118
vertex -0.00919437501579523 -1.02149748802185 -0.0142709333449602
endloop
endfacet
facet normal 9.48376998321929e-17 0.013969236984849 -0.999902486801147
outer loop
vertex -0.0142630711197853 -1.58463108539581 -0.0221382472664118
vertex -0.00919437501579523 -1.02149748802185 -0.0142709333449602
vertex 0.0442630723118782 -1.58463108539581 -0.0221382472664118
endloop
endfacet
facet normal 1.2838770872598e-16 0.0139692360535264 -0.999902427196503
outer loop
vertex 0.0493317693471909 -2.14776468276978 -0.0300055593252182
vertex -0.019331768155098 -2.14776468276978 -0.0300055593252182
vertex 0.0442630723118782 -1.58463108539581 -0.0221382472664118
endloop
endfacet
facet normal 9.48376998321929e-17 0.013969236984849 -0.999902486801147
outer loop
vertex -0.0142630711197853 -1.58463108539581 -0.0221382472664118
vertex 0.0442630723118782 -1.58463108539581 -0.0221382472664118
vertex -0.019331768155098 -2.14776468276978 -0.0300055593252182
endloop
endfacet
facet normal 1.2838770872598e-16 0.013969236984849 -0.999902427196503
outer loop
vertex 0.0493317693471909 -2.14776468276978 -0.0300055593252182
vertex 0.0544050447642803 -2.71140718460083 -0.0378799848258495
vertex -0.019331768155098 -2.14776468276978 -0.0300055593252182
endloop
endfacet
facet normal -4.86765250979241e-17 0.0139692379161716 -0.999902486801147
outer loop
vertex -0.0244050454348326 -2.71140718460083 -0.0378799848258495
vertex -0.019331768155098 -2.14776468276978 -0.0300055593252182
vertex 0.0544050447642803 -2.71140718460083 -0.0378799848258495
endloop
endfacet
facet normal -3.94216644452113e-17 0.0139692360535264 -0.999902427196503
outer loop
vertex 0.0595142245292664 -3.27903819084167 -0.045810129493475
vertex -0.0295142233371735 -3.27903819084167 -0.045810129493475
vertex 0.0544050447642803 -2.71140718460083 -0.0378799848258495
endloop
endfacet
facet normal -4.86765250979241e-17 0.013969236984849 -0.999902427196503
outer loop
vertex -0.0244050454348326 -2.71140718460083 -0.0378799848258495
vertex 0.0544050447642803 -2.71140718460083 -0.0378799848258495
vertex -0.0295142233371735 -3.27903819084167 -0.045810129493475
endloop
endfacet
facet normal -3.94216677539338e-17 0.013969236984849 -0.999902367591858
outer loop
vertex 0.0595142245292664 -3.27903819084167 -0.045810129493475
vertex 0.0646650940179825 -3.8513011932373 -0.0538049899041653
vertex -0.0295142233371735 -3.27903819084167 -0.045810129493475
endloop
endfacet
facet normal -8.05289310729036e-17 0.013969236984849 -0.999902427196503
outer loop
vertex -0.0346650928258896 -3.8513011932373 -0.0538049899041653
vertex -0.0295142233371735 -3.27903819084167 -0.045810129493475
vertex 0.0646650940179825 -3.8513011932373 -0.0538049899041653
endloop
endfacet
facet normal -3.12535801510503e-17 0.0139692360535264 -0.999902427196503
outer loop
vertex 0.0698507875204086 -4.42743301391602 -0.0618538931012154
vertex -0.0398507826030254 -4.42743301391602 -0.0618538931012154
vertex 0.0646650940179825 -3.8513011932373 -0.0538049899041653
endloop
endfacet
facet normal -8.05289310729036e-17 0.013969236984849 -0.999902427196503
outer loop
vertex -0.0346650928258896 -3.8513011932373 -0.0538049899041653
vertex 0.0646650940179825 -3.8513011932373 -0.0538049899041653
vertex -0.0398507826030254 -4.42743301391602 -0.0618538931012154
endloop
endfacet
facet normal -3.12535834597728e-17 0.013969236984849 -0.999902427196503
outer loop
vertex 0.0698507875204086 -4.42743301391602 -0.0618538931012154
vertex 0.0750000029802322 -4.99951219558716 -0.0698461830615997
vertex -0.0398507826030254 -4.42743301391602 -0.0618538931012154
endloop
endfacet
facet normal 0 0.0139692360535264 -0.999902427196503
outer loop
vertex -0.0450000017881393 -4.99951219558716 -0.0698461830615997
vertex -0.0398507826030254 -4.42743301391602 -0.0618538931012154
vertex 0.0750000029802322 -4.99951219558716 -0.0698461830615997
endloop
endfacet
facet normal 0 0.013969236984849 0.999902486801147
outer loop
vertex 0.0299999993294477 0 0.150000005960464
vertex 0 0 0.150000005960464
vertex 0.0317361615598202 -0.192887872457504 0.152694761753082
endloop
endfacet
facet normal -1.30776158995758e-15 0.0139692360535264 0.999902367591858
outer loop
vertex -0.00173686654306948 -0.192966341972351 0.152695849537849
vertex 0.0317361615598202 -0.192887872457504 0.152694761753082
vertex 0 0 0.150000005960464
endloop
endfacet
facet normal -1.3080182409406e-15 0.013969236984849 0.999902427196503
outer loop
vertex 0.0317361615598202 -0.192887872457504 0.152694761753082
vertex -0.00173686654306948 -0.192966341972351 0.152695849537849
vertex 0.0346046723425388 -0.511580467224121 0.157147079706192
endloop
endfacet
facet normal -4.43329553645274e-16 0.0139692360535264 0.999902367591858
outer loop
vertex -0.00460810214281082 -0.511961400508881 0.157152414321899
vertex 0.0346046723425388 -0.511580467224121 0.157147079706192
vertex -0.00173686654306948 -0.192966341972351 0.152695849537849
endloop
endfacet
facet normal -4.41883456646074e-16 0.0139692360535264 0.999902427196503
outer loop
vertex 0.0346046723425388 -0.511580467224121 0.157147079706192
vertex -0.00460810214281082 -0.511961400508881 0.157152414321899
vertex 0.0391861759126186 -1.02058660984039 0.16425821185112
endloop
endfacet
facet normal -4.31284718665538e-16 0.013969236984849 0.999902427196503
outer loop
vertex -0.00919437501579523 -1.02149748802185 0.16427093744278
vertex 0.0391861759126186 -1.02058660984039 0.16425821185112
vertex -0.00460810214281082 -0.511961400508881 0.157152414321899
endloop
endfacet
facet normal -4.30711145011349e-16 0.013969236984849 0.999902427196503
outer loop
vertex 0.0391861759126186 -1.02058660984039 0.16425821185112
vertex -0.00919437501579523 -1.02149748802185 0.16427093744278
vertex 0.0442521385848522 -1.58341658115387 0.172121286392212
endloop
endfacet
facet normal -1.10901911287442e-16 0.0139692360535264 0.999902427196503
outer loop
vertex -0.0142630711197853 -1.58463108539581 0.172138243913651
vertex 0.0442521385848522 -1.58341658115387 0.172121286392212
vertex -0.00919437501579523 -1.02149748802185 0.16427093744278
endloop
endfacet
facet normal -1.1045747045304e-16 0.0139692360535264 0.999902427196503
outer loop
vertex 0.0442521385848522 -1.58341658115387 0.172121286392212
vertex -0.0142630711197853 -1.58463108539581 0.172138243913651
vertex 0.0493181012570858 -2.14624643325806 0.179984346032143
endloop
endfacet
facet normal 5.15690334249567e-16 0.0139692351222038 0.999902367591858
outer loop
vertex -0.019331768155098 -2.14776468276978 0.180005565285683
vertex 0.0493181012570858 -2.14624643325806 0.179984346032143
vertex -0.0142630711197853 -1.58463108539581 0.172138243913651
endloop
endfacet
facet normal 5.16133808937014e-16 0.0139692360535264 0.999902367591858
outer loop
vertex 0.0493181012570858 -2.14624643325806 0.179984346032143
vertex -0.019331768155098 -2.14776468276978 0.180005565285683
vertex 0.0543890334665775 -2.70962810516357 0.187855124473572
endloop
endfacet
facet normal 5.53345766254908e-16 0.0139692379161716 0.999902427196503
outer loop
vertex -0.0244050454348326 -2.71140718460083 0.187879979610443
vertex 0.0543890334665775 -2.70962810516357 0.187855124473572
vertex -0.019331768155098 -2.14776468276978 0.180005565285683
endloop
endfacet
facet normal 5.54235415547321e-16 0.0139692360535264 0.999902427196503
outer loop
vertex 0.0543890334665775 -2.70962810516357 0.187855124473572
vertex -0.0244050454348326 -2.71140718460083 0.187879979610443
vertex 0.059499230235815 -3.27737259864807 0.195786863565445
endloop
endfacet
facet normal 4.71706295578815e-16 0.013969236984849 0.999902427196503
outer loop
vertex -0.0295142233371735 -3.27903819084167 0.195810124278069
vertex 0.059499230235815 -3.27737259864807 0.195786863565445
vertex -0.0244050454348326 -2.71140718460083 0.187879979610443
endloop
endfacet
facet normal 4.70397259098393e-16 0.013969236984849 0.999902427196503
outer loop
vertex 0.059499230235815 -3.27737259864807 0.195786863565445
vertex -0.0295142233371735 -3.27903819084167 0.195810124278069
vertex 0.0646551251411438 -3.8501935005188 0.20378951728344
endloop
endfacet
facet normal -2.78622938260491e-16 0.013969236984849 0.999902427196503
outer loop
vertex -0.0346650928258896 -3.8513011932373 0.203804984688759
vertex 0.0646551251411438 -3.8501935005188 0.20378951728344
vertex -0.0295142233371735 -3.27903819084167 0.195810124278069
endloop
endfacet
facet normal -2.79367189053552e-16 0.0139692379161716 0.999902427196503
outer loop
vertex 0.0646551251411438 -3.8501935005188 0.20378951728344
vertex -0.0346650928258896 -3.8513011932373 0.203804984688759
vertex 0.06984893232584 -4.42722702026367 0.211851015686989
endloop
endfacet
facet normal 3.56835843027585e-16 0.0139692379161716 0.999902486801147
outer loop
vertex -0.0398507826030254 -4.42743301391602 0.211853891611099
vertex 0.06984893232584 -4.42722702026367 0.211851015686989
vertex -0.0346650928258896 -3.8513011932373 0.203804984688759
endloop
endfacet
facet normal 3.5696575670587e-16 0.0139692388474941 0.999902486801147
outer loop
vertex 0.06984893232584 -4.42722702026367 0.211851015686989
vertex -0.0398507826030254 -4.42743301391602 0.211853891611099
vertex 0.0750000029802322 -4.99951219558716 0.219846189022064
endloop
endfacet
facet normal -0 0.0139692360535264 0.999902427196503
outer loop
vertex -0.0450000017881393 -4.99951219558716 0.219846189022064
vertex 0.0750000029802322 -4.99951219558716 0.219846189022064
vertex -0.0398507826030254 -4.42743301391602 0.211853891611099
endloop
endfacet
facet normal -0.999662935733795 -0.025961846113205 -0
outer loop
vertex 0.0299999993294477 0 0.150000005960464
vertex 0.0299999993294477 0 0
vertex 0.0491782240569592 -0.73845911026001 0.147783875465393
endloop
endfacet
facet normal -0.999662935733795 -0.025961846113205 5.30361606640502e-17
outer loop
vertex 0.0491785295307636 -0.738470792770386 0.00221615936607122
vertex 0.0491782240569592 -0.73845911026001 0.147783875465393
vertex 0.0299999993294477 0 0
endloop
endfacet
facet normal -0.999662935733795 -0.0259618442505598 5.30354128927764e-17
outer loop
vertex 0.0491785295307636 -0.738470792770386 0.00221615936607122
vertex 0.0693144872784615 -1.51380741596222 0.00454295380041003
vertex 0.0491782240569592 -0.73845911026001 0.147783875465393
endloop
endfacet
facet normal -0.999662935733795 -0.025961846113205 1.42244267770554e-16
outer loop
vertex 0.0693138688802719 -1.5137836933136 0.145457118749619
vertex 0.0491782240569592 -0.73845911026001 0.147783875465393
vertex 0.0693144872784615 -1.51380741596222 0.00454295380041003
endloop
endfacet
facet normal -0.999662935733795 -0.0259618479758501 1.42250157296516e-16
outer loop
vertex 0.0693144872784615 -1.51380741596222 0.00454295380041003
vertex 0.0889045223593712 -2.26812338829041 0.00680666416883469
vertex 0.0693138688802719 -1.5137836933136 0.145457118749619
endloop
endfacet
facet normal -0.999662935733795 -0.025961846113205 -5.04807118930207e-17
outer loop
vertex 0.0889036282896996 -2.26808905601501 0.143193438649178
vertex 0.0693138688802719 -1.5137836933136 0.145457118749619
vertex 0.0889045223593712 -2.26812338829041 0.00680666416883469
endloop
endfacet
facet normal -0.999662935733795 -0.0259618442505598 -5.04836533472789e-17
outer loop
vertex 0.0889036282896996 -2.26808905601501 0.143193438649178
vertex 0.0889045223593712 -2.26812338829041 0.00680666416883469
vertex 0.107872650027275 -2.99849247932434 0.141001492738724
endloop
endfacet
facet normal -0.999662935733795 -0.025961846113205 2.65803753039565e-17
outer loop
vertex 0.107873752713203 -2.99853491783142 0.00899863801896572
vertex 0.107872650027275 -2.99849247932434 0.141001492738724
vertex 0.0889045223593712 -2.26812338829041 0.00680666416883469
endloop
endfacet
facet normal -0.999662935733795 -0.025961846113205 2.65760557667977e-17
outer loop
vertex 0.107873752713203 -2.99853491783142 0.00899863801896572
vertex 0.126215294003487 -3.70477771759033 0.0111180804669857
vertex 0.107872650027275 -2.99849247932434 0.141001492738724
endloop
endfacet
facet normal -0.99966287612915 -0.0259618442505598 1.42450017367398e-16
outer loop
vertex 0.126214399933815 -3.70474290847778 0.138882026076317
vertex 0.107872650027275 -2.99849247932434 0.141001492738724
vertex 0.126215294003487 -3.70477771759033 0.0111180804669857
endloop
endfacet
facet normal -0.999662935733795 -0.0259618442505598 1.42457693603483e-16
outer loop
vertex 0.126214399933815 -3.70474290847778 0.138882026076317
vertex 0.126215294003487 -3.70477771759033 0.0111180804669857
vertex 0.143942445516586 -4.38736295700073 0.136833474040031
endloop
endfacet
facet normal -0.999662935733795 -0.025961846113205 -4.55764341418101e-17
outer loop
vertex 0.143942669034004 -4.38737154006958 0.0131665524095297
vertex 0.143942445516586 -4.38736295700073 0.136833474040031
vertex 0.126215294003487 -3.70477771759033 0.0111180804669857
endloop
endfacet
facet normal -0.999662935733795 -0.025961846113205 -4.5581327742314e-17
outer loop
vertex 0.143942669034004 -4.38737154006958 0.0131665524095297
vertex 0.159809231758118 -4.99831485748291 0.0149999996647239
vertex 0.143942445516586 -4.38736295700073 0.136833474040031
endloop
endfacet
facet normal -0.999662935733795 -0.025961846113205 -0
outer loop
vertex 0.159809231758118 -4.99831485748291 0.135000005364418
vertex 0.143942445516586 -4.38736295700073 0.136833474040031
vertex 0.159809231758118 -4.99831485748291 0.0149999996647239
endloop
endfacet
facet normal 0.707013487815857 0.0162405259907246 -0.707013487815857
outer loop
vertex 0.044412299990654 -0.554946780204773 0.00166484026703984
vertex 0.0349964126944542 -0.55521959066391 -0.00775731494650245
vertex 0.0299999993294477 0 0
endloop
endfacet
facet normal 0.707013487815857 0.0162405259907246 -0.707013487815857
outer loop
vertex 0.0349964126944542 -0.55521959066391 -0.00775731494650245
vertex 0.044412299990654 -0.554946780204773 0.00166484026703984
vertex 0.0399928241968155 -1.11043918132782 -0.0155146298930049
endloop
endfacet
facet normal 0.707013487815857 0.0162405259907246 -0.707013487815857
outer loop
vertex 0.0588246025145054 -1.10989356040955 0.00332968053407967
vertex 0.0399928241968155 -1.11043918132782 -0.0155146298930049
vertex 0.044412299990654 -0.554946780204773 0.00166484026703984
endloop
endfacet
facet normal 0.707013487815857 0.0162405259907246 -0.707013487815857
outer loop
vertex 0.0588246025145054 -1.10989356040955 0.00332968053407967
vertex 0.0732369050383568 -1.66484034061432 0.00499452091753483
vertex 0.0399928241968155 -1.11043918132782 -0.0155146298930049
endloop
endfacet
facet normal 0.707013547420502 0.0162405241280794 -0.707013547420502
outer loop
vertex 0.0449892356991768 -1.66565883159637 -0.0232719443738461
vertex 0.0399928241968155 -1.11043918132782 -0.0155146298930049
vertex 0.0732369050383568 -1.66484034061432 0.00499452091753483
endloop
endfacet
facet normal 0.707013547420502 0.0162405241280794 -0.707013547420502
outer loop
vertex 0.0732369050383568 -1.66484034061432 0.00499452091753483
vertex 0.0876492038369179 -2.21978712081909 0.00665936106815934
vertex 0.0449892356991768 -1.66565883159637 -0.0232719443738461
endloop
endfacet
facet normal 0.707013487815857 0.0162405259907246 -0.707013487815857
outer loop
vertex 0.0499856472015381 -2.22087836265564 -0.0310292597860098
vertex 0.0449892356991768 -1.66565883159637 -0.0232719443738461
vertex 0.0876492038369179 -2.21978712081909 0.00665936106815934
endloop
endfacet
facet normal 0.707013487815857 0.0162405259907246 -0.707013487815857
outer loop
vertex 0.0876492038369179 -2.21978712081909 0.00665936106815934
vertex 0.102061502635479 -2.77473378181458 0.00832420121878386
vertex 0.0499856472015381 -2.22087836265564 -0.0310292597860098
endloop
endfacet
facet normal 0.707013487815857 0.0162405241280794 -0.707013487815857
outer loop
vertex 0.0549820587038994 -2.77609801292419 -0.0387865751981735
vertex 0.0499856472015381 -2.22087836265564 -0.0310292597860098
vertex 0.102061502635479 -2.77473378181458 0.00832420121878386
endloop
endfacet
facet normal 0.707013487815857 0.0162405241280794 -0.707013487815857
outer loop
vertex 0.102061502635479 -2.77473378181458 0.00832420121878386
vertex 0.11647380143404 -3.32968068122864 0.00998904183506966
vertex 0.0549820587038994 -2.77609801292419 -0.0387865751981735
endloop
endfacet
facet normal 0.707013547420502 0.0162405241280794 -0.707013547420502
outer loop
vertex 0.059978473931551 -3.33131766319275 -0.0465438887476921
vertex 0.0549820587038994 -2.77609801292419 -0.0387865751981735
vertex 0.11647380143404 -3.32968068122864 0.00998904183506966
endloop
endfacet
facet normal 0.707013547420502 0.0162405241280794 -0.707013547420502
outer loop
vertex 0.11647380143404 -3.32968068122864 0.00998904183506966
vertex 0.130886107683182 -3.88462734222412 0.0116538824513555
vertex 0.059978473931551 -3.33131766319275 -0.0465438887476921
endloop
endfacet
facet normal 0.707013547420502 0.0162405241280794 -0.707013547420502
outer loop
vertex 0.064974881708622 -3.88653707504272 -0.054301206022501
vertex 0.059978473931551 -3.33131766319275 -0.0465438887476921
vertex 0.130886107683182 -3.88462734222412 0.0116538824513555
endloop
endfacet
facet normal 0.707013487815857 0.0162405241280794 -0.707013487815857
outer loop
vertex 0.130886107683182 -3.88462734222412 0.0116538824513555
vertex 0.145306125283241 -4.4398717880249 0.0133196143433452
vertex 0.064974881708622 -3.88653707504272 -0.054301206022501
endloop
endfacet
facet normal 0.707013547420502 0.0162405259907246 -0.707013547420502
outer loop
vertex 0.0699739754199982 -4.442054271698 -0.0620626732707024
vertex 0.064974881708622 -3.88653707504272 -0.054301206022501
vertex 0.145306125283241 -4.4398717880249 0.0133196143433452
endloop
endfacet
facet normal 0.707013547420502 0.0162405259907246 -0.707013547420502
outer loop
vertex 0.145306125283241 -4.4398717880249 0.0133196143433452
vertex 0.159808650612831 -4.99829196929932 0.0149948764592409
vertex 0.0699739754199982 -4.442054271698 -0.0620626732707024
endloop
endfacet
facet normal 0.707013547420502 0.0162405259907246 -0.707013547420502
outer loop
vertex 0.0750016644597054 -5.00074911117554 -0.0698685497045517
vertex 0.0699739754199982 -4.442054271698 -0.0620626732707024
vertex 0.159808650612831 -4.99829196929932 0.0149948764592409
endloop
endfacet
facet normal 0.707013547420502 0.0162405259907246 0.707013547420502
outer loop
vertex 0.159851104021072 -4.99973154067993 0.134995728731155
vertex 0.145343840122223 -4.44114971160889 0.136672034859657
vertex 0.0749937891960144 -4.99930953979492 0.219843357801437
endloop
endfacet
facet normal 0.707013547420502 0.0162405259907246 0.707013547420502
outer loop
vertex 0.0699669793248177 -4.4407753944397 0.212040290236473
vertex 0.0749937891960144 -4.99930953979492 0.219843357801437
vertex 0.145343840122223 -4.44114971160889 0.136672034859657
endloop
endfacet
facet normal 0.707013547420502 0.0162405259907246 0.707013547420502
outer loop
vertex 0.145343840122223 -4.44114971160889 0.136672034859657
vertex 0.130919113755226 -3.88574600219727 0.138338804244995
vertex 0.0699669793248177 -4.4407753944397 0.212040290236473
endloop
endfacet
facet normal 0.707013487815857 0.0162405241280794 0.707013487815857
outer loop
vertex 0.0649687647819519 -3.885418176651 0.204281628131866
vertex 0.0699669793248177 -4.4407753944397 0.212040290236473
vertex 0.130919113755226 -3.88574600219727 0.138338804244995
endloop
endfacet
facet normal 0.707013547420502 0.0162405241280794 0.707013547420502
outer loop
vertex 0.130919113755226 -3.88574600219727 0.138338804244995
vertex 0.116502091288567 -3.33063936233521 0.140004694461823
vertex 0.0649687647819519 -3.885418176651 0.204281628131866
endloop
endfacet
facet normal 0.707013547420502 0.0162405241280794 0.707013547420502
outer loop
vertex 0.0599732249975204 -3.33035850524902 0.196527108550072
vertex 0.0649687647819519 -3.885418176651 0.204281628131866
vertex 0.116502091288567 -3.33063936233521 0.140004694461823
endloop
endfacet
facet normal 0.707013547420502 0.0162405241280794 0.707013547420502
outer loop
vertex 0.116502091288567 -3.33063936233521 0.140004694461823
vertex 0.102085076272488 -2.77553296089172 0.14167058467865
vertex 0.0599732249975204 -3.33035850524902 0.196527108550072
endloop
endfacet
facet normal 0.707013487815857 0.0162405241280794 0.707013487815857
outer loop
vertex 0.0549776889383793 -2.77529859542847 0.188772588968277
vertex 0.0599732249975204 -3.33035850524902 0.196527108550072
vertex 0.102085076272488 -2.77553296089172 0.14167058467865
endloop
endfacet
facet normal 0.707013487815857 0.0162405241280794 0.707013487815857
outer loop
vertex 0.102085076272488 -2.77553296089172 0.14167058467865
vertex 0.0876680612564087 -2.22042632102966 0.143336459994316
vertex 0.0549776889383793 -2.77529859542847 0.188772588968277
endloop
endfacet
facet normal 0.707013487815857 0.0162405259907246 0.707013487815857
outer loop
vertex 0.0499821491539478 -2.22023892402649 0.181018069386482
vertex 0.0549776889383793 -2.77529859542847 0.188772588968277
vertex 0.0876680612564087 -2.22042632102966 0.143336459994316
endloop
endfacet
facet normal 0.707013487815857 0.0162405259907246 0.707013487815857
outer loop
vertex 0.0876680612564087 -2.22042632102966 0.143336459994316
vertex 0.0732510462403297 -1.6653196811676 0.145002350211143
vertex 0.0499821491539478 -2.22023892402649 0.181018069386482
endloop
endfacet
facet normal 0.707013547420502 0.0162405241280794 0.707013547420502
outer loop
vertex 0.0449866130948067 -1.66517925262451 0.173263549804688
vertex 0.0499821491539478 -2.22023892402649 0.181018069386482
vertex 0.0732510462403297 -1.6653196811676 0.145002350211143
endloop
endfacet
facet normal 0.707013547420502 0.0162405241280794 0.707013547420502
outer loop
vertex 0.0732510462403297 -1.6653196811676 0.145002350211143
vertex 0.0588340312242508 -1.11021316051483 0.14666822552681
vertex 0.0449866130948067 -1.66517925262451 0.173263549804688
endloop
endfacet
facet normal 0.707013487815857 0.0162405259907246 0.707013487815857
outer loop
vertex 0.0399910770356655 -1.11011946201324 0.165509030222893
vertex 0.0449866130948067 -1.66517925262451 0.173263549804688
vertex 0.0588340312242508 -1.11021316051483 0.14666822552681
endloop
endfacet
facet normal 0.707013487815857 0.0162405259907246 0.707013487815857
outer loop
vertex 0.0399910770356655 -1.11011946201324 0.165509030222893
vertex 0.0588340312242508 -1.11021316051483 0.14666822552681
vertex 0.0349955372512341 -0.555059731006622 0.157754510641098
endloop
endfacet
facet normal 0.707013487815857 0.0162405259907246 0.707013487815857
outer loop
vertex 0.0444170162081718 -0.555106580257416 0.148334115743637
vertex 0.0349955372512341 -0.555059731006622 0.157754510641098
vertex 0.0588340312242508 -1.11021316051483 0.14666822552681
endloop
endfacet
facet normal 0.707013487815857 0.0162405259907246 0.707013487815857
outer loop
vertex 0.0349955372512341 -0.555059731006622 0.157754510641098
vertex 0.0444170162081718 -0.555106580257416 0.148334115743637
vertex 0.0299999993294477 0 0.150000005960464
endloop
endfacet
facet normal 0.707013487815857 -0.0162405259907246 -0.707013487815857
outer loop
vertex 0.0977545157074928 -10.4439649581909 0.0550044625997543
vertex 0.0900000035762787 -10.9990243911743 0.0599999986588955
vertex 0.0883341133594513 -10.4439172744751 0.0455829836428165
endloop
endfacet
facet normal 0.707013487815857 -0.0162405259907246 -0.707013487815857
outer loop
vertex 0.0883341133594513 -10.4439172744751 0.0455829836428165
vertex 0.0866682305932045 -9.8888111114502 0.0311659704893827
vertex 0.0977545157074928 -10.4439649581909 0.0550044625997543
endloop
endfacet
facet normal 0.707013487815857 -0.0162405259907246 -0.707013487815857
outer loop
vertex 0.105509035289288 -9.8889045715332 0.0500089265406132
vertex 0.0977545157074928 -10.4439649581909 0.0550044625997543
vertex 0.0866682305932045 -9.8888111114502 0.0311659704893827
endloop
endfacet
facet normal 0.707013487815857 -0.0162405259907246 -0.707013487815857
outer loop
vertex 0.105509035289288 -9.8889045715332 0.0500089265406132
vertex 0.0866682305932045 -9.8888111114502 0.0311659704893827
vertex 0.113263554871082 -9.3338451385498 0.0450133867561817
endloop
endfacet
facet normal 0.707013547420502 -0.0162405241280794 -0.707013547420502
outer loop
vertex 0.0850023478269577 -9.33370494842529 0.0167489536106586
vertex 0.113263554871082 -9.3338451385498 0.0450133867561817
vertex 0.0866682305932045 -9.8888111114502 0.0311659704893827
endloop
endfacet
facet normal 0.707013547420502 -0.0162405241280794 -0.707013547420502
outer loop
vertex 0.113263554871082 -9.3338451385498 0.0450133867561817
vertex 0.0850023478269577 -9.33370494842529 0.0167489536106586
vertex 0.121018067002296 -8.77878570556641 0.0400178506970406
endloop
endfacet
facet normal 0.707013487815857 -0.0162405259907246 -0.707013487815857
outer loop
vertex 0.0833364650607109 -8.77859783172607 0.00233193929307163
vertex 0.121018067002296 -8.77878570556641 0.0400178506970406
vertex 0.0850023478269577 -9.33370494842529 0.0167489536106586
endloop
endfacet
facet normal 0.707013487815857 -0.0162405259907246 -0.707013487815857
outer loop
vertex 0.121018067002296 -8.77878570556641 0.0400178506970406
vertex 0.0833364650607109 -8.77859783172607 0.00233193929307163
vertex 0.128772586584091 -8.22372531890869 0.0350223109126091
endloop
endfacet
facet normal 0.707013487815857 -0.0162405241280794 -0.707013487815857
outer loop
vertex 0.0816705822944641 -8.22349166870117 -0.0120850764214993
vertex 0.128772586584091 -8.22372531890869 0.0350223109126091
vertex 0.0833364650607109 -8.77859783172607 0.00233193929307163
endloop
endfacet
facet normal 0.707013487815857 -0.0162405241280794 -0.707013487815857
outer loop
vertex 0.128772586584091 -8.22372531890869 0.0350223109126091
vertex 0.0816705822944641 -8.22349166870117 -0.0120850764214993
vertex 0.136527106165886 -7.66866588592529 0.0300267748534679
endloop
endfacet
facet normal 0.707013547420502 -0.0162405241280794 -0.707013547420502
outer loop
vertex 0.0800046920776367 -7.66838502883911 -0.0265020914375782
vertex 0.136527106165886 -7.66866588592529 0.0300267748534679
vertex 0.0816705822944641 -8.22349166870117 -0.0120850764214993
endloop
endfacet
facet normal 0.707013547420502 -0.0162405241280794 -0.707013547420502
outer loop
vertex 0.136527106165886 -7.66866588592529 0.0300267748534679
vertex 0.0800046920776367 -7.66838502883911 -0.0265020914375782
vertex 0.144281625747681 -7.11360597610474 0.0250312369316816
endloop
endfacet
facet normal 0.707013547420502 -0.0162405241280794 -0.707013547420502
outer loop
vertex 0.0783388093113899 -7.11327838897705 -0.0409191064536572
vertex 0.144281625747681 -7.11360597610474 0.0250312369316816
vertex 0.0800046920776367 -7.66838502883911 -0.0265020914375782
endloop
endfacet
facet normal 0.707013487815857 -0.0162405241280794 -0.707013487815857
outer loop
vertex 0.144281625747681 -7.11360597610474 0.0250312369316816
vertex 0.0783388093113899 -7.11327838897705 -0.0409191064536572
vertex 0.152040302753448 -6.55824899673462 0.0200330205261707
endloop
endfacet
facet normal 0.707013547420502 -0.0162405259907246 -0.707013547420502
outer loop
vertex 0.0766720324754715 -6.55787420272827 -0.0553438402712345
vertex 0.152040302753448 -6.55824899673462 0.0200330205261707
vertex 0.0783388093113899 -7.11327838897705 -0.0409191064536572
endloop
endfacet
facet normal 0.707013547420502 -0.0162405259907246 -0.707013547420502
outer loop
vertex 0.152040302753448 -6.55824899673462 0.0200330205261707
vertex 0.0766720324754715 -6.55787420272827 -0.0553438402712345
vertex 0.159843355417252 -5.99971437454224 0.0150062125176191
endloop
endfacet
facet normal 0.707013547420502 -0.0162405259907246 -0.707013547420502
outer loop
vertex 0.0749957263469696 -5.99929285049438 -0.0698511078953743
vertex 0.159843355417252 -5.99971437454224 0.0150062125176191
vertex 0.0766720324754715 -6.55787420272827 -0.0553438402712345
endloop
endfacet
facet normal -0.707003712654114 0.0162410978227854 -0.70702338218689
outer loop
vertex 0.0749945417046547 -5.99929285049438 0.219854325056076
vertex 0.159843355417252 -5.99971437454224 0.134998172521591
vertex 0.0766709893941879 -6.55787467956543 0.205346688628197
endloop
endfacet
facet normal -0.707003712654114 0.0162410978227854 -0.70702338218689
outer loop
vertex 0.152040302753448 -6.55824899673462 0.129970878362656
vertex 0.0766709893941879 -6.55787467956543 0.205346688628197
vertex 0.159843355417252 -5.99971437454224 0.134998172521591
endloop
endfacet
facet normal -0.707003712654114 0.0162410978227854 -0.70702338218689
outer loop
vertex 0.0766709893941879 -6.55787467956543 0.205346688628197
vertex 0.152040302753448 -6.55824899673462 0.129970878362656
vertex 0.0783378928899765 -7.11327838897705 0.190921604633331
endloop
endfacet
facet normal -0.707003712654114 0.0162410959601402 -0.707023322582245
outer loop
vertex 0.144281625747681 -7.11360597610474 0.12497217208147
vertex 0.0783378928899765 -7.11327838897705 0.190921604633331
vertex 0.152040302753448 -6.55824899673462 0.129970878362656
endloop
endfacet
facet normal -0.707003653049469 0.0162410959601402 -0.707023322582245
outer loop
vertex 0.0783378928899765 -7.11327838897705 0.190921604633331
vertex 0.144281625747681 -7.11360597610474 0.12497217208147
vertex 0.080003909766674 -7.66838502883911 0.176504224538803
endloop
endfacet
facet normal -0.707003712654114 0.0162410959601402 -0.707023322582245
outer loop
vertex 0.136527106165886 -7.66866588592529 0.1199761480093
vertex 0.080003909766674 -7.66838502883911 0.176504224538803
vertex 0.144281625747681 -7.11360597610474 0.12497217208147
endloop
endfacet
facet normal -0.707003712654114 0.0162410959601402 -0.707023322582245
outer loop
vertex 0.080003909766674 -7.66838502883911 0.176504224538803
vertex 0.136527106165886 -7.66866588592529 0.1199761480093
vertex 0.0816699266433716 -8.22349166870117 0.162086859345436
endloop
endfacet
facet normal -0.707003712654114 0.0162410978227854 -0.707023322582245
outer loop
vertex 0.128772586584091 -8.22372531890869 0.11498012393713
vertex 0.0816699266433716 -8.22349166870117 0.162086859345436
vertex 0.136527106165886 -7.66866588592529 0.1199761480093
endloop
endfacet
facet normal -0.707003712654114 0.0162410978227854 -0.707023322582245
outer loop
vertex 0.0816699266433716 -8.22349166870117 0.162086859345436
vertex 0.128772586584091 -8.22372531890869 0.11498012393713
vertex 0.0833359435200691 -8.77859783172607 0.147669494152069
endloop
endfacet
facet normal -0.707003712654114 0.0162410978227854 -0.707023322582245
outer loop
vertex 0.121018067002296 -8.77878570556641 0.10998409986496
vertex 0.0833359435200691 -8.77859783172607 0.147669494152069
vertex 0.128772586584091 -8.22372531890869 0.11498012393713
endloop
endfacet
facet normal -0.707003712654114 0.0162410978227854 -0.707023322582245
outer loop
vertex 0.0833359435200691 -8.77859783172607 0.147669494152069
vertex 0.121018067002296 -8.77878570556641 0.10998409986496
vertex 0.0850019529461861 -9.33370494842529 0.133252114057541
endloop
endfacet
facet normal -0.707003712654114 0.0162410959601402 -0.707023322582245
outer loop
vertex 0.113263554871082 -9.3338451385498 0.104988075792789
vertex 0.0850019529461861 -9.33370494842529 0.133252114057541
vertex 0.121018067002296 -8.77878570556641 0.10998409986496
endloop
endfacet
facet normal -0.707003712654114 0.0162410959601402 -0.707023322582245
outer loop
vertex 0.0850019529461861 -9.33370494842529 0.133252114057541
vertex 0.113263554871082 -9.3338451385498 0.104988075792789
vertex 0.0866679698228836 -9.8888111114502 0.118834741413593
endloop
endfacet
facet normal -0.707003712654114 0.0162410978227854 -0.707023322582245
outer loop
vertex 0.105509035289288 -9.8889045715332 0.0999920517206192
vertex 0.0866679698228836 -9.8888111114502 0.118834741413593
vertex 0.113263554871082 -9.3338451385498 0.104988075792789
endloop
endfacet
facet normal -0.707003712654114 0.0162410978227854 -0.707023322582245
outer loop
vertex 0.105509035289288 -9.8889045715332 0.0999920517206192
vertex 0.0977545157074928 -10.4439649581909 0.0949960276484489
vertex 0.0866679698228836 -9.8888111114502 0.118834741413593
endloop
endfacet
facet normal -0.707003712654114 0.0162410978227854 -0.707023322582245
outer loop
vertex 0.0883339866995811 -10.4439172744751 0.104417368769646
vertex 0.0866679698228836 -9.8888111114502 0.118834741413593
vertex 0.0977545157074928 -10.4439649581909 0.0949960276484489
endloop
endfacet
facet normal -0.707003712654114 0.0162410978227854 -0.707023322582245
outer loop
vertex 0.0977545157074928 -10.4439649581909 0.0949960276484489
vertex 0.0900000035762787 -10.9990243911743 0.0900000035762787
vertex 0.0883339866995811 -10.4439172744751 0.104417368769646
endloop
endfacet
facet normal 0.999902427196503 -0.0139692360535264 0
outer loop
vertex 0.159846186637878 -5.99951219558716 0.0149999996647239
vertex 0.159846186637878 -5.99951219558716 0.135000005364418
vertex 0.151853889226913 -6.5715913772583 0.0201492160558701
endloop
endfacet
facet normal 0.999902486801147 -0.0139692388474941 -8.34295027565474e-17
outer loop
vertex 0.151851013302803 -6.57179737091064 0.129848927259445
vertex 0.151853889226913 -6.5715913772583 0.0201492160558701
vertex 0.159846186637878 -5.99951219558716 0.135000005364418
endloop
endfacet
facet normal 0.999902486801147 -0.0139692379161716 -8.34716492631182e-17
outer loop
vertex 0.151853889226913 -6.5715913772583 0.0201492160558701
vertex 0.151851013302803 -6.57179737091064 0.129848927259445
vertex 0.143804982304573 -7.14772319793701 0.0253349058330059
endloop
endfacet
facet normal 0.999902427196503 -0.0139692379161716 2.39263381844392e-16
outer loop
vertex 0.143789514899254 -7.14883089065552 0.124655120074749
vertex 0.143804982304573 -7.14772319793701 0.0253349058330059
vertex 0.151851013302803 -6.57179737091064 0.129848927259445
endloop
endfacet
facet normal 0.999902427196503 -0.013969236984849 2.39845822874748e-16
outer loop
vertex 0.143804982304573 -7.14772319793701 0.0253349058330059
vertex 0.143789514899254 -7.14883089065552 0.124655120074749
vertex 0.135810136795044 -7.71998596191406 0.0304857771843672
endloop
endfacet
facet normal 0.999902427196503 -0.013969236984849 3.52415965551808e-17
outer loop
vertex 0.135786861181259 -7.72165155410767 0.119499228894711
vertex 0.135810136795044 -7.71998596191406 0.0304857771843672
vertex 0.143789514899254 -7.14883089065552 0.124655120074749
endloop
endfacet
facet normal 0.999902427196503 -0.013969236984849 3.39998694155631e-17
outer loop
vertex 0.135810136795044 -7.71998596191406 0.0304857771843672
vertex 0.135786861181259 -7.72165155410767 0.119499228894711
vertex 0.127879992127419 -8.28761672973633 0.0355949550867081
endloop
endfacet
facet normal 0.999902427196503 -0.0139692360535264 2.82834200785782e-16
outer loop
vertex 0.127855136990547 -8.28939628601074 0.114389032125473
vertex 0.127879992127419 -8.28761672973633 0.0355949550867081
vertex 0.135786861181259 -7.72165155410767 0.119499228894711
endloop
endfacet
facet normal 0.999902427196503 -0.0139692379161716 2.85618715720762e-16
outer loop
vertex 0.127879992127419 -8.28761672973633 0.0355949550867081
vertex 0.127855136990547 -8.28939628601074 0.114389032125473
vertex 0.120005562901497 -8.85125923156738 0.0406682305037975
endloop
endfacet
facet normal 0.999902367591858 -0.0139692360535264 7.68267406428682e-16
outer loop
vertex 0.119984351098537 -8.8527774810791 0.109318099915981
vertex 0.120005562901497 -8.85125923156738 0.0406682305037975
vertex 0.127855136990547 -8.28939628601074 0.114389032125473
endloop
endfacet
facet normal 0.999902367591858 -0.0139692351222038 7.67684806579649e-16
outer loop
vertex 0.120005562901497 -8.85125923156738 0.0406682305037975
vertex 0.119984351098537 -8.8527774810791 0.109318099915981
vertex 0.112138248980045 -9.41439342498779 0.0457369275391102
endloop
endfacet
facet normal 0.999902427196503 -0.0139692360535264 3.04786515451755e-16
outer loop
vertex 0.112121276557446 -9.41560745239258 0.104252137243748
vertex 0.112138248980045 -9.41439342498779 0.0457369275391102
vertex 0.119984351098537 -8.8527774810791 0.109318099915981
endloop
endfacet
facet normal 0.999902427196503 -0.0139692360535264 3.04119053489319e-16
outer loop
vertex 0.112138248980045 -9.41439342498779 0.0457369275391102
vertex 0.112121276557446 -9.41560745239258 0.104252137243748
vertex 0.104270935058594 -9.97752666473389 0.0508056245744228
endloop
endfacet
facet normal 0.999902427196503 -0.013969236984849 -1.15138268487285e-15
outer loop
vertex 0.104258209466934 -9.97843742370605 0.0991861745715141
vertex 0.104270935058594 -9.97752666473389 0.0508056245744228
vertex 0.112121276557446 -9.41560745239258 0.104252137243748
endloop
endfacet
facet normal 0.999902427196503 -0.013969236984849 -1.1526927272049e-15
outer loop
vertex 0.104270935058594 -9.97752666473389 0.0508056245744228
vertex 0.104258209466934 -9.97843742370605 0.0991861745715141
vertex 0.097152404487133 -10.4870624542236 0.0553918965160847
endloop
endfacet
facet normal 0.999902427196503 -0.0139692360535264 5.52073205130777e-16
outer loop
vertex 0.0971470847725868 -10.4874439239502 0.0946046710014343
vertex 0.097152404487133 -10.4870624542236 0.0553918965160847
vertex 0.104258209466934 -9.97843742370605 0.0991861745715141
endloop
endfacet
facet normal 0.999902367591858 -0.0139692360535264 5.53654086247709e-16
outer loop
vertex 0.097152404487133 -10.4870624542236 0.0553918965160847
vertex 0.0971470847725868 -10.4874439239502 0.0946046710014343
vertex 0.0926958546042442 -10.8060579299927 0.0582631342113018
endloop
endfacet
facet normal 0.999902427196503 -0.013969236984849 2.65493901108269e-15
outer loop
vertex 0.0926947593688965 -10.8061361312866 0.0917361602187157
vertex 0.0926958546042442 -10.8060579299927 0.0582631342113018
vertex 0.0971470847725868 -10.4874439239502 0.0946046710014343
endloop
endfacet
facet normal 0.999902367591858 -0.0139692360535264 2.65486129580978e-15
outer loop
vertex 0.0926958546042442 -10.8060579299927 0.0582631342113018
vertex 0.0926947593688965 -10.8061361312866 0.0917361602187157
vertex 0.0900000035762787 -10.9990243911743 0.0599999986588955
endloop
endfacet
facet normal 0.999902486801147 -0.013969236984849 0
outer loop
vertex 0.0900000035762787 -10.9990243911743 0.0900000035762787
vertex 0.0900000035762787 -10.9990243911743 0.0599999986588955
vertex 0.0926947593688965 -10.8061361312866 0.0917361602187157
endloop
endfacet
endsolid COMSOL mesh mesh1
