solid COMSOL mesh mesh1
facet normal -0.706949830055237 -0.0210663992911577 -0.706949830055237
outer loop
vertex -0.154019236564636 -5.99745988845825 0.0050011882558465
vertex -0.0550023727118969 -6.00060558319092 -0.0939219370484352
vertex -0.140946134924889 -6.69280290603638 0.0126486141234636
endloop
endfacet
facet normal -0.706949830055237 -0.0210663974285126 -0.706949830055237
outer loop
vertex -0.0556972771883011 -6.69551229476929 -0.0725195109844208
vertex -0.140946134924889 -6.69280290603638 0.0126486141234636
vertex -0.0550023727118969 -6.00060558319092 -0.0939219370484352
endloop
endfacet
facet normal -0.706949889659882 -0.0210663992911577 -0.706949889659882
outer loop
vertex -0.140946134924889 -6.69280290603638 0.0126486141234636
vertex -0.0556972771883011 -6.69551229476929 -0.0725195109844208
vertex -0.128337621688843 -7.3634352684021 0.0200242679566145
endloop
endfacet
facet normal -0.706949889659882 -0.0210664011538029 -0.706949889659882
outer loop
vertex -0.0563674829900265 -7.36571502685547 -0.0518779270350933
vertex -0.128337621688843 -7.3634352684021 0.0200242679566145
vertex -0.0556972771883011 -6.69551229476929 -0.0725195109844208
endloop
endfacet
facet normal -0.706949889659882 -0.0210663992911577 -0.706949889659882
outer loop
vertex -0.128337621688843 -7.3634352684021 0.0200242679566145
vertex -0.0563674829900265 -7.36571502685547 -0.0518779270350933
vertex -0.116374455392361 -7.99974203109741 0.0270224083214998
endloop
endfacet
facet normal -0.706949889659882 -0.0210664011538029 -0.706949889659882
outer loop
vertex -0.0570033863186836 -8.00162029266357 -0.0322926864027977
vertex -0.116374455392361 -7.99974203109741 0.0270224083214998
vertex -0.0563674829900265 -7.36571502685547 -0.0518779270350933
endloop
endfacet
facet normal -0.706949889659882 -0.0210664011538029 -0.706949889659882
outer loop
vertex -0.116374455392361 -7.99974203109741 0.0270224083214998
vertex -0.0570033863186836 -8.00162029266357 -0.0322926864027977
vertex -0.104994505643845 -8.60502815246582 0.0336793847382069
endloop
endfacet
facet normal -0.706949889659882 -0.0210663992911577 -0.706949889659882
outer loop
vertex -0.0576082952320576 -8.60653018951416 -0.0136620588600636
vertex -0.104994505643845 -8.60502815246582 0.0336793847382069
vertex -0.0570033863186836 -8.00162029266357 -0.0322926864027977
endloop
endfacet
facet normal -0.706949830055237 -0.0210663974285126 -0.706949830055237
outer loop
vertex -0.104994505643845 -8.60502815246582 0.0336793847382069
vertex -0.0576082952320576 -8.60653018951416 -0.0136620588600636
vertex -0.0937458798289299 -9.20333003997803 0.0402595400810242
endloop
endfacet
facet normal -0.706949889659882 -0.0210664011538029 -0.706949889659882
outer loop
vertex -0.0582062229514122 -9.2044563293457 0.00475345551967621
vertex -0.0937458798289299 -9.20333003997803 0.0402595400810242
vertex -0.0576082952320576 -8.60653018951416 -0.0136620588600636
endloop
endfacet
facet normal -0.706949889659882 -0.0210664011538029 -0.706949889659882
outer loop
vertex -0.0937458798289299 -9.20333003997803 0.0402595400810242
vertex -0.0582062229514122 -9.2044563293457 0.00475345551967621
vertex -0.0824972540140152 -9.80163097381592 0.0468396916985512
endloop
endfacet
facet normal -0.706949830055237 -0.0210663974285126 -0.706949830055237
outer loop
vertex -0.0588041469454765 -9.80238151550293 0.023168969899416
vertex -0.0824972540140152 -9.80163097381592 0.0468396916985512
vertex -0.0582062229514122 -9.2044563293457 0.00475345551967621
endloop
endfacet
facet normal -0.706949830055237 -0.0210663974285126 -0.706949830055237
outer loop
vertex -0.0588041469454765 -9.80238151550293 0.023168969899416
vertex -0.0594020746648312 -10.4003076553345 0.0415844842791557
vertex -0.0824972540140152 -9.80163097381592 0.0468396916985512
endloop
endfacet
facet normal -0.706949830055237 -0.0210663974285126 -0.706949830055237
outer loop
vertex -0.0712486281991005 -10.3999319076538 0.0534198470413685
vertex -0.0824972540140152 -9.80163097381592 0.0468396916985512
vertex -0.0594020746648312 -10.4003076553345 0.0415844842791557
endloop
endfacet
facet normal -0.706949830055237 -0.0210663974285126 -0.706949830055237
outer loop
vertex -0.0594020746648312 -10.4003076553345 0.0415844842791557
vertex -0.0599999986588955 -10.998233795166 0.0599999986588955
vertex -0.0712486281991005 -10.3999319076538 0.0534198470413685
endloop
endfacet
facet normal -1 0 0
outer loop
vertex -0.153995007276535 -5 0.00499999988824129
vertex -0.153995007276535 -5.5 0.00499999988824129
vertex -0.153995007276535 -5 0.144999995827675
endloop
endfacet
facet normal -1 0 0
outer loop
vertex -0.153995007276535 -5.5 0.144999995827675
vertex -0.153995007276535 -5 0.144999995827675
vertex -0.153995007276535 -5.5 0.00499999988824129
endloop
endfacet
facet normal -1 0 0
outer loop
vertex -0.153995007276535 -6 0.00499999988824129
vertex -0.153995007276535 -6 0.144999995827675
vertex -0.153995007276535 -5.5 0.00499999988824129
endloop
endfacet
facet normal -1 -0 -0
outer loop
vertex -0.153995007276535 -5.5 0.144999995827675
vertex -0.153995007276535 -5.5 0.00499999988824129
vertex -0.153995007276535 -6 0.144999995827675
endloop
endfacet
facet normal -0.70710676908493 -3.92523107953197e-17 -0.70710676908493
outer loop
vertex -0.0549999997019768 -5 -0.0939949974417686
vertex -0.0549999997019768 -5.5 -0.0939949974417686
vertex -0.153995007276535 -5 0.00499999988824129
endloop
endfacet
facet normal -0.70710676908493 0 -0.70710676908493
outer loop
vertex -0.153995007276535 -5.5 0.00499999988824129
vertex -0.153995007276535 -5 0.00499999988824129
vertex -0.0549999997019768 -5.5 -0.0939949974417686
endloop
endfacet
facet normal -0.70710676908493 3.92523107953197e-17 -0.70710676908493
outer loop
vertex -0.0549999997019768 -5.5 -0.0939949974417686
vertex -0.0549999997019768 -6 -0.0939949974417686
vertex -0.153995007276535 -5.5 0.00499999988824129
endloop
endfacet
facet normal -0.70710676908493 0 -0.70710676908493
outer loop
vertex -0.153995007276535 -6 0.00499999988824129
vertex -0.153995007276535 -5.5 0.00499999988824129
vertex -0.0549999997019768 -6 -0.0939949974417686
endloop
endfacet
facet normal -0.70710676908493 -7.85046215906394e-17 0.70710676908493
outer loop
vertex -0.0549999997019768 -5 0.243994995951653
vertex -0.153995007276535 -5 0.144999995827675
vertex -0.0549999997019768 -5.5 0.243994995951653
endloop
endfacet
facet normal -0.70710676908493 -3.92523107953197e-17 0.70710676908493
outer loop
vertex -0.153995007276535 -5.5 0.144999995827675
vertex -0.0549999997019768 -5.5 0.243994995951653
vertex -0.153995007276535 -5 0.144999995827675
endloop
endfacet
facet normal -0.70710676908493 3.92523107953197e-17 0.70710676908493
outer loop
vertex -0.153995007276535 -5.5 0.144999995827675
vertex -0.153995007276535 -6 0.144999995827675
vertex -0.0549999997019768 -5.5 0.243994995951653
endloop
endfacet
facet normal -0.70710676908493 7.85046215906394e-17 0.70710676908493
outer loop
vertex -0.0549999997019768 -6 0.243994995951653
vertex -0.0549999997019768 -5.5 0.243994995951653
vertex -0.153995007276535 -6 0.144999995827675
endloop
endfacet
facet normal 0 -5.55111512312578e-17 -1
outer loop
vertex -0.0549999997019768 -5 -0.0939949974417686
vertex 0.0850000008940697 -5 -0.0939949974417686
vertex -0.0549999997019768 -5.5 -0.0939949974417686
endloop
endfacet
facet normal -0 -5.55111512312578e-17 -1
outer loop
vertex 0.0850000008940697 -5.5 -0.0939949974417686
vertex -0.0549999997019768 -5.5 -0.0939949974417686
vertex 0.0850000008940697 -5 -0.0939949974417686
endloop
endfacet
facet normal 0 5.55111512312578e-17 -1
outer loop
vertex -0.0549999997019768 -6 -0.0939949974417686
vertex -0.0549999997019768 -5.5 -0.0939949974417686
vertex 0.0850000008940697 -6 -0.0939949974417686
endloop
endfacet
facet normal 0 5.55111512312578e-17 -1
outer loop
vertex 0.0850000008940697 -5.5 -0.0939949974417686
vertex 0.0850000008940697 -6 -0.0939949974417686
vertex -0.0549999997019768 -5.5 -0.0939949974417686
endloop
endfacet
facet normal 0 -1.11022302462516e-16 1
outer loop
vertex -0.0549999997019768 -5 0.243994995951653
vertex -0.0549999997019768 -5.5 0.243994995951653
vertex 0.0850000008940697 -5 0.243994995951653
endloop
endfacet
facet normal 0 -1.11022302462516e-16 1
outer loop
vertex 0.0850000008940697 -5.5 0.243994995951653
vertex 0.0850000008940697 -5 0.243994995951653
vertex -0.0549999997019768 -5.5 0.243994995951653
endloop
endfacet
facet normal -0 1.11022302462516e-16 1
outer loop
vertex -0.0549999997019768 -5.5 0.243994995951653
vertex -0.0549999997019768 -6 0.243994995951653
vertex 0.0850000008940697 -5.5 0.243994995951653
endloop
endfacet
facet normal 0 1.11022302462516e-16 1
outer loop
vertex 0.0850000008940697 -6 0.243994995951653
vertex 0.0850000008940697 -5.5 0.243994995951653
vertex -0.0549999997019768 -6 0.243994995951653
endloop
endfacet
facet normal 0.70710676908493 -3.92523107953197e-17 -0.70710676908493
outer loop
vertex 0.0850000008940697 -5.5 -0.0939949974417686
vertex 0.0850000008940697 -5 -0.0939949974417686
vertex 0.183994993567467 -5.5 0.00499999988824129
endloop
endfacet
facet normal 0.70710676908493 -3.92523107953197e-17 -0.70710676908493
outer loop
vertex 0.183994993567467 -5 0.00499999988824129
vertex 0.183994993567467 -5.5 0.00499999988824129
vertex 0.0850000008940697 -5 -0.0939949974417686
endloop
endfacet
facet normal 0.70710676908493 3.92523107953197e-17 -0.70710676908493
outer loop
vertex 0.0850000008940697 -6 -0.0939949974417686
vertex 0.0850000008940697 -5.5 -0.0939949974417686
vertex 0.183994993567467 -6 0.00499999988824129
endloop
endfacet
facet normal 0.70710676908493 3.92523107953197e-17 -0.70710676908493
outer loop
vertex 0.183994993567467 -5.5 0.00499999988824129
vertex 0.183994993567467 -6 0.00499999988824129
vertex 0.0850000008940697 -5.5 -0.0939949974417686
endloop
endfacet
facet normal 0.70710676908493 -7.85046215906394e-17 0.70710676908493
outer loop
vertex 0.183994993567467 -5 0.144999995827675
vertex 0.0850000008940697 -5 0.243994995951653
vertex 0.183994993567467 -5.5 0.144999995827675
endloop
endfacet
facet normal 0.70710676908493 -7.85046215906394e-17 0.70710676908493
outer loop
vertex 0.0850000008940697 -5.5 0.243994995951653
vertex 0.183994993567467 -5.5 0.144999995827675
vertex 0.0850000008940697 -5 0.243994995951653
endloop
endfacet
facet normal 0.70710676908493 7.85046215906394e-17 0.70710676908493
outer loop
vertex 0.183994993567467 -6 0.144999995827675
vertex 0.183994993567467 -5.5 0.144999995827675
vertex 0.0850000008940697 -6 0.243994995951653
endloop
endfacet
facet normal 0.70710676908493 7.85046215906394e-17 0.70710676908493
outer loop
vertex 0.0850000008940697 -5.5 0.243994995951653
vertex 0.0850000008940697 -6 0.243994995951653
vertex 0.183994993567467 -5.5 0.144999995827675
endloop
endfacet
facet normal 1 -5.55111512312578e-17 0
outer loop
vertex 0.183994993567467 -5 0.00499999988824129
vertex 0.183994993567467 -5 0.144999995827675
vertex 0.183994993567467 -5.5 0.00499999988824129
endloop
endfacet
facet normal 1 -5.55111512312578e-17 0
outer loop
vertex 0.183994993567467 -5.5 0.144999995827675
vertex 0.183994993567467 -5.5 0.00499999988824129
vertex 0.183994993567467 -5 0.144999995827675
endloop
endfacet
facet normal 1 5.55111512312578e-17 -0
outer loop
vertex 0.183994993567467 -6 0.00499999988824129
vertex 0.183994993567467 -5.5 0.00499999988824129
vertex 0.183994993567467 -6 0.144999995827675
endloop
endfacet
facet normal 1 5.55111512312578e-17 0
outer loop
vertex 0.183994993567467 -5.5 0.144999995827675
vertex 0.183994993567467 -6 0.144999995827675
vertex 0.183994993567467 -5.5 0.00499999988824129
endloop
endfacet
facet normal -0.706984519958496 0.0210675001144409 -0.706915080547333
outer loop
vertex -0.153996750712395 -4.99958610534668 0.00501409638673067
vertex -0.13258396089077 -4.30440807342529 0.00431690085679293
vertex -0.0549966730177402 -4.99881410598755 -0.0939727127552032
endloop
endfacet
facet normal -0.706984579563141 0.0210675019770861 -0.706915140151978
outer loop
vertex -0.047346968203783 -4.30350923538208 -0.080901674926281
vertex -0.0549966730177402 -4.99881410598755 -0.0939727127552032
vertex -0.13258396089077 -4.30440807342529 0.00431690085679293
endloop
endfacet
facet normal -0.706984579563141 0.0210675019770861 -0.706915140151978
outer loop
vertex -0.13258396089077 -4.30440807342529 0.00431690085679293
vertex -0.111932121217251 -3.63393545150757 0.00364448223263025
vertex -0.047346968203783 -4.30350923538208 -0.080901674926281
endloop
endfacet
facet normal -0.706984519958496 0.0210675019770861 -0.706915140151978
outer loop
vertex -0.039963960647583 -3.63244557380676 -0.068286344408989
vertex -0.047346968203783 -4.30350923538208 -0.080901674926281
vertex -0.111932121217251 -3.63393545150757 0.00364448223263025
endloop
endfacet
facet normal -0.706984519958496 0.0210675019770861 -0.706915140151978
outer loop
vertex -0.111932121217251 -3.63393545150757 0.00364448223263025
vertex -0.0923373252153397 -2.99777984619141 0.00300648040138185
vertex -0.039963960647583 -3.63244557380676 -0.068286344408989
endloop
endfacet
facet normal -0.706984579563141 0.0210675001144409 -0.706915080547333
outer loop
vertex -0.0329636260867119 -2.99616384506226 -0.0563248842954636
vertex -0.039963960647583 -3.63244557380676 -0.068286344408989
vertex -0.0923373252153397 -2.99777984619141 0.00300648040138185
endloop
endfacet
facet normal -0.706984579563141 0.0210675019770861 -0.706915140151978
outer loop
vertex -0.0923373252153397 -2.99777984619141 0.00300648040138185
vertex -0.0736977756023407 -2.39263701438904 0.00239958125166595
vertex -0.0329636260867119 -2.99616384506226 -0.0563248842954636
endloop
endfacet
facet normal -0.706984519958496 0.0210675019770861 -0.706915140151978
outer loop
vertex -0.02630883641541 -2.39128971099854 -0.0449538566172123
vertex -0.0329636260867119 -2.99616384506226 -0.0563248842954636
vertex -0.0736977756023407 -2.39263701438904 0.00239958125166595
endloop
endfacet
facet normal -0.706984519958496 0.0210675001144409 -0.706915140151978
outer loop
vertex -0.0736977756023407 -2.39263701438904 0.00239958125166595
vertex -0.0552733317017555 -1.79447782039642 0.00179968599695712
vertex -0.02630883641541 -2.39128971099854 -0.0449538566172123
endloop
endfacet
facet normal -0.706984579563141 0.0210675019770861 -0.706915199756622
outer loop
vertex -0.0197316259145737 -1.79346740245819 -0.0337153933942318
vertex -0.02630883641541 -2.39128971099854 -0.0449538566172123
vertex -0.0552733317017555 -1.79447782039642 0.00179968599695712
endloop
endfacet
facet normal -0.706984579563141 0.0210675019770861 -0.706915199756622
outer loop
vertex -0.0197316259145737 -1.79346740245819 -0.0337153933942318
vertex -0.0552733317017555 -1.79447782039642 0.00179968599695712
vertex -0.0368488878011703 -1.19631850719452 0.00119979062583297
endloop
endfacet
facet normal -0.706984519958496 0.0210675001144409 -0.706915140151978
outer loop
vertex -0.013154418207705 -1.19564485549927 -0.0224769283086061
vertex -0.0197316259145737 -1.79346740245819 -0.0337153933942318
vertex -0.0368488878011703 -1.19631850719452 0.00119979062583297
endloop
endfacet
facet normal -0.706984519958496 0.0210675001144409 -0.706915140151978
outer loop
vertex -0.013154418207705 -1.19564485549927 -0.0224769283086061
vertex -0.0368488878011703 -1.19631850719452 0.00119979062583297
vertex -0.0184244439005852 -0.59815925359726 0.000599895312916487
endloop
endfacet
facet normal -0.706984519958496 0.0210675001144409 -0.706915140151978
outer loop
vertex -0.0184244439005852 -0.59815925359726 0.000599895312916487
vertex -0.00657720910385251 -0.597822427749634 -0.0112384641543031
vertex -0.013154418207705 -1.19564485549927 -0.0224769283086061
endloop
endfacet
facet normal -0.706984519958496 0.0210675001144409 -0.706915140151978
outer loop
vertex -0.00657720910385251 -0.597822427749634 -0.0112384641543031
vertex -0.0184244439005852 -0.59815925359726 0.000599895312916487
vertex 0 0 0
endloop
endfacet
facet normal 0.706941187381744 -0.0210678391158581 -0.706958472728729
outer loop
vertex -0.00657720770686865 -0.597822368144989 0.161238461732864
vertex -0.0184251721948385 -0.598159193992615 0.14940083026886
vertex 0 0 0.150000005960464
endloop
endfacet
facet normal 0.706941187381744 -0.0210678391158581 -0.706958472728729
outer loop
vertex -0.0184251721948385 -0.598159193992615 0.14940083026886
vertex -0.00657720770686865 -0.597822368144989 0.161238461732864
vertex -0.0131544154137373 -1.19564473628998 0.172476917505264
endloop
endfacet
facet normal 0.706941187381744 -0.0210678391158581 -0.706958472728729
outer loop
vertex -0.0131544154137373 -1.19564473628998 0.172476917505264
vertex -0.036850344389677 -1.19631838798523 0.148801654577255
vertex -0.0184251721948385 -0.598159193992615 0.14940083026886
endloop
endfacet
facet normal 0.706941187381744 -0.0210678391158581 -0.706958472728729
outer loop
vertex -0.0131544154137373 -1.19564473628998 0.172476917505264
vertex -0.0197316240519285 -1.79346704483032 0.183715388178825
vertex -0.036850344389677 -1.19631838798523 0.148801654577255
endloop
endfacet
facet normal 0.706941187381744 -0.0210678391158581 -0.706958472728729
outer loop
vertex -0.0197316240519285 -1.79346704483032 0.183715388178825
vertex -0.0552755184471607 -1.79447746276855 0.148202478885651
vertex -0.036850344389677 -1.19631838798523 0.148801654577255
endloop
endfacet
facet normal 0.706941187381744 -0.0210678391158581 -0.706958472728729
outer loop
vertex -0.0197316240519285 -1.79346704483032 0.183715388178825
vertex -0.0263088308274746 -2.39128947257996 0.194953843951225
vertex -0.0552755184471607 -1.79447746276855 0.148202478885651
endloop
endfacet
facet normal 0.706941187381744 -0.0210678391158581 -0.706958472728729
outer loop
vertex -0.0737006887793541 -2.39263677597046 0.147603303194046
vertex -0.0552755184471607 -1.79447746276855 0.148202478885651
vertex -0.0263088308274746 -2.39128947257996 0.194953843951225
endloop
endfacet
facet normal 0.706941187381744 -0.0210678391158581 -0.706958413124084
outer loop
vertex -0.0263088308274746 -2.39128947257996 0.194953843951225
vertex -0.0329636186361313 -2.9961633682251 0.206324875354767
vertex -0.0737006887793541 -2.39263677597046 0.147603303194046
endloop
endfacet
facet normal 0.7069411277771 -0.0210678372532129 -0.706958472728729
outer loop
vertex -0.0923409759998322 -2.99777936935425 0.14699712395668
vertex -0.0737006887793541 -2.39263677597046 0.147603303194046
vertex -0.0329636186361313 -2.9961633682251 0.206324875354767
endloop
endfacet
facet normal 0.706941187381744 -0.0210678409785032 -0.706958472728729
outer loop
vertex -0.0329636186361313 -2.9961633682251 0.206324875354767
vertex -0.0399639569222927 -3.6324450969696 0.218286335468292
vertex -0.0923409759998322 -2.99777936935425 0.14699712395668
endloop
endfacet
facet normal 0.706941187381744 -0.0210678391158581 -0.706958472728729
outer loop
vertex -0.111936554312706 -3.63393473625183 0.146359890699387
vertex -0.0923409759998322 -2.99777936935425 0.14699712395668
vertex -0.0399639569222927 -3.6324450969696 0.218286335468292
endloop
endfacet
facet normal 0.706941187381744 -0.0210678409785032 -0.706958472728729
outer loop
vertex -0.0399639569222927 -3.6324450969696 0.218286335468292
vertex -0.0473469644784927 -4.30350923538208 0.230901673436165
vertex -0.111936554312706 -3.63393473625183 0.146359890699387
endloop
endfacet
facet normal 0.706941246986389 -0.0210678409785032 -0.706958532333374
outer loop
vertex -0.132589221000671 -4.30440759658813 0.145688280463219
vertex -0.111936554312706 -3.63393473625183 0.146359890699387
vertex -0.0473469644784927 -4.30350923538208 0.230901673436165
endloop
endfacet
facet normal 0.706941187381744 -0.0210678409785032 -0.706958532333374
outer loop
vertex -0.0473469644784927 -4.30350923538208 0.230901673436165
vertex -0.0549966730177402 -4.99881410598755 0.243972703814507
vertex -0.132589221000671 -4.30440759658813 0.145688280463219
endloop
endfacet
facet normal 0.706941187381744 -0.0210678409785032 -0.706958472728729
outer loop
vertex -0.154002875089645 -4.99958562850952 0.144991919398308
vertex -0.132589221000671 -4.30440759658813 0.145688280463219
vertex -0.0549966730177402 -4.99881410598755 0.243972703814507
endloop
endfacet
facet normal -0.706915080547333 -0.0210675001144409 0.706984519958496
outer loop
vertex -0.0549859032034874 -5.99864768981934 0.243996754288673
vertex -0.153972715139389 -5.99941921234131 0.144996672868729
vertex -0.0556830987334251 -6.69382524490356 0.222583964467049
endloop
endfacet
facet normal -0.706915140151978 -0.0210675019770861 0.706984579563141
outer loop
vertex -0.140901669859886 -6.69472408294678 0.137346968054771
vertex -0.0556830987334251 -6.69382524490356 0.222583964467049
vertex -0.153972715139389 -5.99941921234131 0.144996672868729
endloop
endfacet
facet normal -0.706915140151978 -0.0210675019770861 0.706984579563141
outer loop
vertex -0.0556830987334251 -6.69382524490356 0.222583964467049
vertex -0.140901669859886 -6.69472408294678 0.137346968054771
vertex -0.0563555173575878 -7.36429786682129 0.201932117342949
endloop
endfacet
facet normal -0.706915140151978 -0.0210675019770861 0.706984519958496
outer loop
vertex -0.128286346793175 -7.36578798294067 0.129963964223862
vertex -0.0563555173575878 -7.36429786682129 0.201932117342949
vertex -0.140901669859886 -6.69472408294678 0.137346968054771
endloop
endfacet
facet normal -0.706915140151978 -0.0210675019770861 0.706984519958496
outer loop
vertex -0.0563555173575878 -7.36429786682129 0.201932117342949
vertex -0.128286346793175 -7.36578798294067 0.129963964223862
vertex -0.056993518024683 -8.00045394897461 0.182337328791618
endloop
endfacet
facet normal -0.706915080547333 -0.0210675001144409 0.706984579563141
outer loop
vertex -0.116324886679649 -8.0020694732666 0.12296362221241
vertex -0.056993518024683 -8.00045394897461 0.182337328791618
vertex -0.128286346793175 -7.36578798294067 0.129963964223862
endloop
endfacet
facet normal -0.706915140151978 -0.0210675019770861 0.706984579563141
outer loop
vertex -0.056993518024683 -8.00045394897461 0.182337328791618
vertex -0.116324886679649 -8.0020694732666 0.12296362221241
vertex -0.0576004199683666 -8.6055965423584 0.163697779178619
endloop
endfacet
facet normal -0.706915140151978 -0.0210675019770861 0.706984519958496
outer loop
vertex -0.104953855276108 -8.60694408416748 0.116308838129044
vertex -0.0576004199683666 -8.6055965423584 0.163697779178619
vertex -0.116324886679649 -8.0020694732666 0.12296362221241
endloop
endfacet
facet normal -0.706915140151978 -0.0210675001144409 0.706984519958496
outer loop
vertex -0.0576004199683666 -8.6055965423584 0.163697779178619
vertex -0.104953855276108 -8.60694408416748 0.116308838129044
vertex -0.0582003146409988 -9.20375537872314 0.145273327827454
endloop
endfacet
facet normal -0.706915199756622 -0.0210675019770861 0.706984579563141
outer loop
vertex -0.0937153920531273 -9.20476627349854 0.109731629490852
vertex -0.0582003146409988 -9.20375537872314 0.145273327827454
vertex -0.104953855276108 -8.60694408416748 0.116308838129044
endloop
endfacet
facet normal -0.706915199756622 -0.0210675019770861 0.706984579563141
outer loop
vertex -0.0937153920531273 -9.20476627349854 0.109731629490852
vertex -0.0588002093136311 -9.80191516876221 0.126848891377449
vertex -0.0582003146409988 -9.20375537872314 0.145273327827454
endloop
endfacet
facet normal -0.706915140151978 -0.0210675001144409 0.706984519958496
outer loop
vertex -0.0824769288301468 -9.80258846282959 0.103154420852661
vertex -0.0588002093136311 -9.80191516876221 0.126848891377449
vertex -0.0937153920531273 -9.20476627349854 0.109731629490852
endloop
endfacet
facet normal -0.706915140151978 -0.0210675001144409 0.706984519958496
outer loop
vertex -0.0824769288301468 -9.80258846282959 0.103154420852661
vertex -0.0594001039862633 -10.400074005127 0.108424440026283
vertex -0.0588002093136311 -9.80191516876221 0.126848891377449
endloop
endfacet
facet normal -0.706915140151978 -0.0210675001144409 0.706984519958496
outer loop
vertex -0.0594001039862633 -10.400074005127 0.108424440026283
vertex -0.0824769288301468 -9.80258846282959 0.103154420852661
vertex -0.0712384656071663 -10.4004106521606 0.0965772122144699
endloop
endfacet
facet normal -0.706915140151978 -0.0210675001144409 0.706984519958496
outer loop
vertex -0.0712384656071663 -10.4004106521606 0.0965772122144699
vertex -0.0599999986588955 -10.998233795166 0.0900000035762787
vertex -0.0594001039862633 -10.400074005127 0.108424440026283
endloop
endfacet
facet normal -0.999823391437531 -0.0187956783920527 -0
outer loop
vertex -0.153978392481804 -5.99911689758301 0.144999995827675
vertex -0.153978392481804 -5.99911689758301 0.00499999988824129
vertex -0.140816137194633 -6.69927406311035 0.13729690015316
endloop
endfacet
facet normal -0.999823391437531 -0.0187956802546978 -6.59385569458768e-17
outer loop
vertex -0.140810638666153 -6.69956684112549 0.0127063114196062
vertex -0.140816137194633 -6.69927406311035 0.13729690015316
vertex -0.153978392481804 -5.99911689758301 0.00499999988824129
endloop
endfacet
facet normal -0.999823331832886 -0.0187956783920527 -6.56923284385769e-17
outer loop
vertex -0.140816137194633 -6.69927406311035 0.13729690015316
vertex -0.140810638666153 -6.69956684112549 0.0127063114196062
vertex -0.12789498269558 -7.38660621643066 0.129734918475151
endloop
endfacet
facet normal -0.999823331832886 -0.0187956783920527 1.74994452569007e-16
outer loop
vertex -0.127869158983231 -7.38797998428345 0.0202801935374737
vertex -0.12789498269558 -7.38660621643066 0.129734918475151
vertex -0.140810638666153 -6.69956684112549 0.0127063114196062
endloop
endfacet
facet normal -0.999823331832886 -0.0187956783920527 1.73959629770368e-16
outer loop
vertex -0.12789498269558 -7.38660621643066 0.129734918475151
vertex -0.127869158983231 -7.38797998428345 0.0202801935374737
vertex -0.115662343800068 -8.03731346130371 0.122575879096985
endloop
endfacet
facet normal -0.999823331832886 -0.0187956783920527 -2.6559488331745e-16
outer loop
vertex -0.115627527236938 -8.03916549682617 0.0274444986134768
vertex -0.115662343800068 -8.03731346130371 0.122575879096985
vertex -0.127869158983231 -7.38797998428345 0.0202801935374737
endloop
endfacet
facet normal -0.999823331832886 -0.0187956783920527 -2.65132059221114e-16
outer loop
vertex -0.115662343800068 -8.03731346130371 0.122575879096985
vertex -0.115627527236938 -8.03916549682617 0.0274444986134768
vertex -0.104103714227676 -8.65216636657715 0.115811295807362
endloop
endfacet
facet normal -0.999823331832886 -0.0187956783920527 -2.23397157723119e-16
outer loop
vertex -0.104071006178856 -8.65390586853027 0.0342078469693661
vertex -0.104103714227676 -8.65216636657715 0.115811295807362
vertex -0.115627527236938 -8.03916549682617 0.0274444986134768
endloop
endfacet
facet normal -0.999823331832886 -0.0187956783920527 -2.23298928371017e-16
outer loop
vertex -0.104103714227676 -8.65216636657715 0.115811295807362
vertex -0.104071006178856 -8.65390586853027 0.0342078469693661
vertex -0.092907227575779 -9.2477560043335 0.109258651733398
endloop
endfacet
facet normal -0.999823391437531 -0.0187956783920527 6.15225122941861e-16
outer loop
vertex -0.0928811058402061 -9.2491455078125 0.0407566353678703
vertex -0.092907227575779 -9.2477560043335 0.109258651733398
vertex -0.104071006178856 -8.65390586853027 0.0342078469693661
endloop
endfacet
facet normal -0.999823391437531 -0.0187956802546978 6.17445090417496e-16
outer loop
vertex -0.092907227575779 -9.2477560043335 0.109258651733398
vertex -0.0928811058402061 -9.2491455078125 0.0407566353678703
vertex -0.0817119181156158 -9.84328269958496 0.102706700563431
endloop
endfacet
facet normal -0.999823391437531 -0.0187956802546978 1.67405018832763e-15
outer loop
vertex -0.0816923230886459 -9.84432506561279 0.0473047643899918
vertex -0.0817119181156158 -9.84328269958496 0.102706700563431
vertex -0.0928811058402061 -9.2491455078125 0.0407566353678703
endloop
endfacet
facet normal -0.999823331832886 -0.0187956783920527 1.67557421235797e-15
outer loop
vertex -0.0817119181156158 -9.84328269958496 0.102706700563431
vertex -0.0816923230886459 -9.84432506561279 0.0473047643899918
vertex -0.0708347111940384 -10.4218883514404 0.0963409170508385
endloop
endfacet
facet normal -0.999823391437531 -0.0187956802546978 1.12578876049967e-17
outer loop
vertex -0.0708247572183609 -10.422417640686 0.0536649078130722
vertex -0.0708347111940384 -10.4218883514404 0.0963409170508385
vertex -0.0816923230886459 -9.84432506561279 0.0473047643899918
endloop
endfacet
facet normal -0.999823391437531 -0.0187956783920527 8.63051051662206e-18
outer loop
vertex -0.0708347111940384 -10.4218883514404 0.0963409170508385
vertex -0.0708247572183609 -10.422417640686 0.0536649078130722
vertex -0.0638528689742088 -10.7932825088501 0.0922548547387123
endloop
endfacet
facet normal -0.999823391437531 -0.0187956802546978 -1.55447634710875e-15
outer loop
vertex -0.0638510510325432 -10.7933797836304 0.0577462092041969
vertex -0.0638528689742088 -10.7932825088501 0.0922548547387123
vertex -0.0708247572183609 -10.422417640686 0.0536649078130722
endloop
endfacet
facet normal -0.999823391437531 -0.0187956802546978 -1.55487402907749e-15
outer loop
vertex -0.0638528689742088 -10.7932825088501 0.0922548547387123
vertex -0.0638510510325432 -10.7933797836304 0.0577462092041969
vertex -0.0599999986588955 -10.998233795166 0.0900000035762787
endloop
endfacet
facet normal -0.999823331832886 -0.0187956783920527 0
outer loop
vertex -0.0599999986588955 -10.998233795166 0.0599999986588955
vertex -0.0599999986588955 -10.998233795166 0.0900000035762787
vertex -0.0638510510325432 -10.7933797836304 0.0577462092041969
endloop
endfacet
facet normal -0.999525904655457 0.0307873003184795 0
outer loop
vertex -0.153936505317688 -4.99762964248657 0.00499999988824129
vertex -0.153936505317688 -4.99762964248657 0.144999995827675
vertex -0.130234479904175 -4.22813129425049 0.00423013651743531
endloop
endfacet
facet normal -0.999525964260101 0.0307873021811247 3.40364109463033e-17
outer loop
vertex -0.13022692501545 -4.22788572311401 0.145770102739334
vertex -0.130234479904175 -4.22813129425049 0.00423013651743531
vertex -0.153936505317688 -4.99762964248657 0.144999995827675
endloop
endfacet
facet normal -0.999525904655457 0.0307873003184795 3.40086342213337e-17
outer loop
vertex -0.130234479904175 -4.22813129425049 0.00423013651743531
vertex -0.13022692501545 -4.22788572311401 0.145770102739334
vertex -0.104414448142052 -3.38987016677856 0.00339147797785699
endloop
endfacet
facet normal -0.999526023864746 0.0307873021811247 -2.04550105546449e-16
outer loop
vertex -0.104390352964401 -3.38908791542053 0.146609306335449
vertex -0.104414448142052 -3.38987016677856 0.00339147797785699
vertex -0.13022692501545 -4.22788572311401 0.145770102739334
endloop
endfacet
facet normal -0.999525964260101 0.0307873003184795 -2.04561818423923e-16
outer loop
vertex -0.104414448142052 -3.38987016677856 0.00339147797785699
vertex -0.104390352964401 -3.38908791542053 0.146609306335449
vertex -0.0782805681228638 -2.54141998291016 0.00254262518137693
endloop
endfacet
facet normal -0.999525964260101 0.0307873003184795 -9.08937026715401e-17
outer loop
vertex -0.0782567411661148 -2.54064631462097 0.147458150982857
vertex -0.0782805681228638 -2.54141998291016 0.00254262518137693
vertex -0.104390352964401 -3.38908791542053 0.146609306335449
endloop
endfacet
facet normal -0.999525964260101 0.0307873003184795 -9.07440425376721e-17
outer loop
vertex -0.0782805681228638 -2.54141998291016 0.00254262518137693
vertex -0.0782567411661148 -2.54064631462097 0.147458150982857
vertex -0.0518423691391945 -1.68308985233307 0.00168388802558184
endloop
endfacet
facet normal -0.999525904655457 0.0307873003184795 -8.77300147612106e-17
outer loop
vertex -0.0518262460827827 -1.68256640434265 0.148316636681557
vertex -0.0518423691391945 -1.68308985233307 0.00168388802558184
vertex -0.0782567411661148 -2.54064631462097 0.147458150982857
endloop
endfacet
facet normal -0.999526023864746 0.0307873021811247 -8.7816445209055e-17
outer loop
vertex -0.0518423691391945 -1.68308985233307 0.00168388802558184
vertex -0.0518262460827827 -1.68256640434265 0.148316636681557
vertex -0.0250897444784641 -0.814551770687103 0.000814938102848828
endloop
endfacet
facet normal -0.999525964260101 0.0307873021811247 -5.32848839480775e-17
outer loop
vertex -0.0250817034393549 -0.814290702342987 0.149185329675674
vertex -0.0250897444784641 -0.814551770687103 0.000814938102848828
vertex -0.0518262460827827 -1.68256640434265 0.148316636681557
endloop
endfacet
facet normal -0.999525964260101 0.0307873003184795 -5.32824288760195e-17
outer loop
vertex -0.0250897444784641 -0.814551770687103 0.000814938102848828
vertex -0.0250817034393549 -0.814290702342987 0.149185329675674
vertex 0 0 0
endloop
endfacet
facet normal -0.999525964260101 0.0307873021811247 0
outer loop
vertex 0 0 0.150000005960464
vertex 0 0 0
vertex -0.0250817034393549 -0.814290702342987 0.149185329675674
endloop
endfacet
facet normal -9.24747293722596e-17 0.0307844020426273 0.999526023864746
outer loop
vertex -0.0599999986588955 -10.998233795166 0.0599999986588955
vertex 0.0900000035762787 -10.998233795166 0.0599999986588955
vertex -0.0591858513653278 -10.1844692230225 0.0349368862807751
endloop
endfacet
facet normal 1.44922162433299e-16 0.0307844020426273 0.999526023864746
outer loop
vertex 0.0891847312450409 -10.1833505630493 0.0349024347960949
vertex -0.0591858513653278 -10.1844692230225 0.0349368862807751
vertex 0.0900000035762787 -10.998233795166 0.0599999986588955
endloop
endfacet
facet normal 1.45006706909346e-16 0.0307844039052725 0.999526023864746
outer loop
vertex -0.0591858513653278 -10.1844692230225 0.0349368862807751
vertex 0.0891847312450409 -10.1833505630493 0.0349024347960949
vertex -0.058317344635725 -9.31637477874756 0.00820042472332716
endloop
endfacet
facet normal -3.00742621342886e-16 0.0307844001799822 0.999525964260101
outer loop
vertex 0.0883150175213814 -9.31405258178711 0.00812890101224184
vertex -0.058317344635725 -9.31637477874756 0.00820042472332716
vertex 0.0891847312450409 -10.1833505630493 0.0349024347960949
endloop
endfacet
facet normal -3.02299176732363e-16 0.0307844039052725 0.999526023864746
outer loop
vertex -0.058317344635725 -9.31637477874756 0.00820042472332716
vertex 0.0883150175213814 -9.31405258178711 0.00812890101224184
vertex -0.0574581995606422 -8.4576358795166 -0.0182478539645672
endloop
endfacet
facet normal -6.0315469168525e-16 0.0307844039052725 0.999526083469391
outer loop
vertex 0.0874562710523605 -8.45571041107178 -0.0183071717619896
vertex -0.0574581995606422 -8.4576358795166 -0.0182478539645672
vertex 0.0883150175213814 -9.31405258178711 0.00812890101224184
endloop
endfacet
facet normal -6.03483605166581e-16 0.0307844039052725 0.999526083469391
outer loop
vertex -0.0574581995606422 -8.4576358795166 -0.0182478539645672
vertex 0.0874562710523605 -8.45571041107178 -0.0183071717619896
vertex -0.0566086508333683 -7.60849094390869 -0.0444006808102131
endloop
endfacet
facet normal -2.72324798311402e-16 0.0307844020426273 0.999526023864746
outer loop
vertex 0.0866077989339828 -7.60763788223267 -0.0444269552826881
vertex -0.0566086508333683 -7.60849094390869 -0.0444006808102131
vertex 0.0874562710523605 -8.45571041107178 -0.0183071717619896
endloop
endfacet
facet normal -2.71610140731936e-16 0.0307844039052725 0.999526023864746
outer loop
vertex -0.0566086508333683 -7.60849094390869 -0.0444006808102131
vertex 0.0866077989339828 -7.60763788223267 -0.0444269552826881
vertex -0.0557696036994457 -6.76984310150146 -0.0702301934361458
endloop
endfacet
facet normal 5.37342812487102e-17 0.0307844020426273 0.999526023864746
outer loop
vertex 0.0857695043087006 -6.76974582672119 -0.0702331960201263
vertex -0.0557696036994457 -6.76984310150146 -0.0702301934361458
vertex 0.0866077989339828 -7.60763788223267 -0.0444269552826881
endloop
endfacet
facet normal 5.37855862990232e-17 0.0307844039052725 0.999526083469391
outer loop
vertex 0.0857695043087006 -6.76974582672119 -0.0702331960201263
vertex 0.0850000008940697 -6.00060319900513 -0.0939220115542412
vertex -0.0557696036994457 -6.76984310150146 -0.0702301934361458
endloop
endfacet
facet normal -0 0.0307844020426273 0.999526023864746
outer loop
vertex -0.0549999997019768 -6.00060319900513 -0.0939220115542412
vertex -0.0557696036994457 -6.76984310150146 -0.0702301934361458
vertex 0.0850000008940697 -6.00060319900513 -0.0939220115542412
endloop
endfacet
facet normal 3.88915018913134e-16 -0.0307872984558344 0.999525964260101
outer loop
vertex 0.0857695043087006 -6.76974582672119 0.220245450735092
vertex 0.0850000008940697 -6.00060367584229 0.243936508893967
vertex -0.0557696036994457 -6.76984357833862 0.220242455601692
endloop
endfacet
facet normal 0 -0.0307873003184795 0.999525964260101
outer loop
vertex -0.0549999997019768 -6.00060367584229 0.243936508893967
vertex -0.0557696036994457 -6.76984357833862 0.220242455601692
vertex 0.0850000008940697 -6.00060367584229 0.243936508893967
endloop
endfacet
facet normal 3.8902560965231e-16 -0.0307873003184795 0.999525964260101
outer loop
vertex 0.0857695043087006 -6.76974582672119 0.220245450735092
vertex -0.0557696036994457 -6.76984357833862 0.220242455601692
vertex 0.0866077989339828 -7.60763788223267 0.19443678855896
endloop
endfacet
facet normal -2.06759815982489e-16 -0.0307873003184795 0.999525964260101
outer loop
vertex -0.0566086508333683 -7.60849142074585 0.194410502910614
vertex 0.0866077989339828 -7.60763788223267 0.19443678855896
vertex -0.0557696036994457 -6.76984357833862 0.220242455601692
endloop
endfacet
facet normal -2.0758248349762e-16 -0.0307873021811247 0.999525964260101
outer loop
vertex 0.0866077989339828 -7.60763788223267 0.19443678855896
vertex -0.0566086508333683 -7.60849142074585 0.194410502910614
vertex 0.0874562710523605 -8.45571041107178 0.168314546346664
endloop
endfacet
facet normal -2.91834190548155e-16 -0.0307873003184795 0.999525964260101
outer loop
vertex -0.0574581995606422 -8.45763683319092 0.168255224823952
vertex 0.0874562710523605 -8.45571041107178 0.168314546346664
vertex -0.0566086508333683 -7.60849142074585 0.194410502910614
endloop
endfacet
facet normal -2.92184518081183e-16 -0.0307873003184795 0.999525964260101
outer loop
vertex 0.0874562710523605 -8.45571041107178 0.168314546346664
vertex -0.0574581995606422 -8.45763683319092 0.168255224823952
vertex 0.0883150175213814 -9.31405258178711 0.141875982284546
endloop
endfacet
facet normal 3.18005814552418e-16 -0.0307873021811247 0.999525904655457
outer loop
vertex -0.058317344635725 -9.31637477874756 0.141804456710815
vertex 0.0883150175213814 -9.31405258178711 0.141875982284546
vertex -0.0574581995606422 -8.45763683319092 0.168255224823952
endloop
endfacet
facet normal 3.15195306293869e-16 -0.0307873021811247 0.999525964260101
outer loop
vertex 0.0883150175213814 -9.31405258178711 0.141875982284546
vertex -0.058317344635725 -9.31637477874756 0.141804456710815
vertex 0.0891847312450409 -10.1833515167236 0.115099929273129
endloop
endfacet
facet normal -1.24487521697546e-15 -0.0307872984558344 0.999525904655457
outer loop
vertex -0.0591858513653278 -10.1844692230225 0.115065470337868
vertex 0.0891847312450409 -10.1833515167236 0.115099929273129
vertex -0.058317344635725 -9.31637477874756 0.141804456710815
endloop
endfacet
facet normal -1.24365845414673e-15 -0.0307873021811247 0.999525964260101
outer loop
vertex 0.0891847312450409 -10.1833515167236 0.115099929273129
vertex -0.0591858513653278 -10.1844692230225 0.115065470337868
vertex 0.0900000035762787 -10.998233795166 0.0900000035762787
endloop
endfacet
facet normal -1.84949458744519e-16 -0.0307873021811247 0.999525964260101
outer loop
vertex -0.0599999986588955 -10.998233795166 0.0900000035762787
vertex 0.0900000035762787 -10.998233795166 0.0900000035762787
vertex -0.0591858513653278 -10.1844692230225 0.115065470337868
endloop
endfacet
facet normal 0 0.0187956802546978 -0.999823331832886
outer loop
vertex 0 0 0
vertex 0.0299999993294477 0 0
vertex -0.00225485651753843 -0.204950749874115 -0.00385286891832948
endloop
endfacet
facet normal 5.69572995156557e-18 0.0187956783920527 -0.999823331832886
outer loop
vertex 0.0322548560798168 -0.204950749874115 -0.00385286891832948
vertex -0.00225485651753843 -0.204950749874115 -0.00385286891832948
vertex 0.0299999993294477 0 0
endloop
endfacet
facet normal 4.12731328841214e-17 0.0187956802546978 -0.999823451042175
outer loop
vertex -0.00634091487154365 -0.576344966888428 -0.0108347088098526
vertex -0.00225485651753843 -0.204950749874115 -0.00385286891832948
vertex 0.0363409146666527 -0.576344966888428 -0.0108347088098526
endloop
endfacet
facet normal 5.69573036515588e-18 0.0187956802546978 -0.999823391437531
outer loop
vertex 0.0322548560798168 -0.204950749874115 -0.00385286891832948
vertex 0.0363409146666527 -0.576344966888428 -0.0108347088098526
vertex -0.00225485651753843 -0.204950749874115 -0.00385286891832948
endloop
endfacet
facet normal 4.1273129575399e-17 0.0187956802546978 -0.999823391437531
outer loop
vertex -0.00634091487154365 -0.576344966888428 -0.0108347088098526
vertex 0.0363409146666527 -0.576344966888428 -0.0108347088098526
vertex -0.0127067007124424 -1.15495049953461 -0.0217119157314301
endloop
endfacet
facet normal 1.37914539746656e-16 0.0187956783920527 -0.999823331832886
outer loop
vertex 0.0427067019045353 -1.15495049953461 -0.0217119157314301
vertex -0.0127067007124424 -1.15495049953461 -0.0217119157314301
vertex 0.0363409146666527 -0.576344966888428 -0.0108347088098526
endloop
endfacet
facet normal 1.22616462974753e-16 0.0187956802546978 -0.999823391437531
outer loop
vertex -0.0192586537450552 -1.75047743320465 -0.0329072251915932
vertex -0.0127067007124424 -1.15495049953461 -0.0217119157314301
vertex 0.0492586530745029 -1.75047743320465 -0.0329072251915932
endloop
endfacet
facet normal 1.37914539746656e-16 0.0187956802546978 -0.999823391437531
outer loop
vertex 0.0427067019045353 -1.15495049953461 -0.0217119157314301
vertex 0.0492586530745029 -1.75047743320465 -0.0329072251915932
vertex -0.0127067007124424 -1.15495049953461 -0.0217119157314301
endloop
endfacet
facet normal 1.22616462974753e-16 0.0187956802546978 -0.999823391437531
outer loop
vertex -0.0192586537450552 -1.75047743320465 -0.0329072251915932
vertex 0.0492586530745029 -1.75047743320465 -0.0329072251915932
vertex -0.0258112978190184 -2.34606719017029 -0.0441037155687809
endloop
endfacet
facet normal 5.04650417834965e-17 0.0187956802546978 -0.999823331832886
outer loop
vertex 0.0558112971484661 -2.34606719017029 -0.0441037155687809
vertex -0.0258112978190184 -2.34606719017029 -0.0441037155687809
vertex 0.0492586530745029 -1.75047743320465 -0.0329072251915932
endloop
endfacet
facet normal 1.14325418282536e-18 0.0187956783920527 -0.999823331832886
outer loop
vertex -0.0325758792459965 -2.9609203338623 -0.0556623414158821
vertex -0.0258112978190184 -2.34606719017029 -0.0441037155687809
vertex 0.0625758767127991 -2.9609203338623 -0.0556623414158821
endloop
endfacet
facet normal 5.0465038474774e-17 0.0187956783920527 -0.999823272228241
outer loop
vertex 0.0558112971484661 -2.34606719017029 -0.0441037155687809
vertex 0.0625758767127991 -2.9609203338623 -0.0556623414158821
vertex -0.0258112978190184 -2.34606719017029 -0.0441037155687809
endloop
endfacet
facet normal 1.14325407942778e-18 0.0187956783920527 -0.999823331832886
outer loop
vertex -0.0325758792459965 -2.9609203338623 -0.0556623414158821
vertex 0.0625758767127991 -2.9609203338623 -0.0556623414158821
vertex -0.039734922349453 -3.61162734031677 -0.0678949803113937
endloop
endfacet
facet normal -5.05013814821672e-17 0.0187956783920527 -0.999823391437531
outer loop
vertex 0.0697349235415459 -3.61162734031677 -0.0678949803113937
vertex -0.039734922349453 -3.61162734031677 -0.0678949803113937
vertex 0.0625758767127991 -2.9609203338623 -0.0556623414158821
endloop
endfacet
facet normal 5.23858941321875e-18 0.0187956783920527 -0.999823331832886
outer loop
vertex -0.0472969077527523 -4.29895925521851 -0.0808161348104477
vertex -0.039734922349453 -3.61162734031677 -0.0678949803113937
vertex 0.0772969052195549 -4.29895925521851 -0.0808161348104477
endloop
endfacet
facet normal -5.05013748647223e-17 0.0187956783920527 -0.999823272228241
outer loop
vertex 0.0697349235415459 -3.61162734031677 -0.0678949803113937
vertex 0.0772969052195549 -4.29895925521851 -0.0808161348104477
vertex -0.039734922349453 -3.61162734031677 -0.0678949803113937
endloop
endfacet
facet normal 5.23858941321875e-18 0.0187956783920527 -0.999823331832886
outer loop
vertex -0.0472969077527523 -4.29895925521851 -0.0808161348104477
vertex 0.0772969052195549 -4.29895925521851 -0.0808161348104477
vertex -0.0549999997019768 -4.99911689758301 -0.0939783975481987
endloop
endfacet
facet normal 0 0.0187956783920527 -0.999823391437531
outer loop
vertex 0.0850000008940697 -4.99911689758301 -0.0939783975481987
vertex -0.0549999997019768 -4.99911689758301 -0.0939783975481987
vertex 0.0772969052195549 -4.29895925521851 -0.0808161348104477
endloop
endfacet
facet normal 0 0.0187956783920527 0.999823331832886
outer loop
vertex 0.0299999993294477 0 0.150000005960464
vertex 0 0 0.150000005960464
vertex 0.0322537906467915 -0.204854026436806 0.153851047158241
endloop
endfacet
facet normal -7.66581334407613e-16 0.0187956802546978 0.999823391437531
outer loop
vertex -0.00225485651753843 -0.204950749874115 0.153852865099907
vertex 0.0322537906467915 -0.204854026436806 0.153851047158241
vertex 0 0 0.150000005960464
endloop
endfacet
facet normal -7.67133229312309e-16 0.0187956802546978 0.999823391437531
outer loop
vertex 0.0322537906467915 -0.204854026436806 0.153851047158241
vertex -0.00225485651753843 -0.204950749874115 0.153852865099907
vertex 0.0363350920379162 -0.575815677642822 0.16082476079464
endloop
endfacet
facet normal -6.62117766874365e-16 0.0187956783920527 0.999823391437531
outer loop
vertex -0.00634091487154365 -0.576344966888428 0.160834714770317
vertex 0.0363350920379162 -0.575815677642822 0.16082476079464
vertex -0.00225485651753843 -0.204950749874115 0.153852865099907
endloop
endfacet
facet normal -6.60920379924303e-16 0.0187956802546978 0.999823391437531
outer loop
vertex 0.0363350920379162 -0.575815677642822 0.16082476079464
vertex -0.00634091487154365 -0.576344966888428 0.160834714770317
vertex 0.0426952354609966 -1.15390837192535 0.171692326664925
endloop
endfacet
facet normal 3.32948034088898e-18 0.0187956783920527 0.999823331832886
outer loop
vertex -0.0127067007124424 -1.15495049953461 0.171711921691895
vertex 0.0426952354609966 -1.15390837192535 0.171692326664925
vertex -0.00634091487154365 -0.576344966888428 0.160834714770317
endloop
endfacet
facet normal 3.23542535574833e-18 0.0187956802546978 0.999823391437531
outer loop
vertex 0.0426952354609966 -1.15390837192535 0.171692326664925
vertex -0.0127067007124424 -1.15495049953461 0.171711921691895
vertex 0.0492433644831181 -1.74908792972565 0.182881101965904
endloop
endfacet
facet normal 4.00583480096714e-16 0.0187956802546978 0.999823391437531
outer loop
vertex -0.0192586537450552 -1.75047743320465 0.182907223701477
vertex 0.0492433644831181 -1.74908792972565 0.182881101965904
vertex -0.0127067007124424 -1.15495049953461 0.171711921691895
endloop
endfacet
facet normal 4.02010201217245e-16 0.0187956783920527 0.999823391437531
outer loop
vertex 0.0492433644831181 -1.74908792972565 0.182881101965904
vertex -0.0192586537450552 -1.75047743320465 0.182907223701477
vertex 0.0557921528816223 -2.34432721138 0.194071009755135
endloop
endfacet
facet normal 8.31009399997964e-17 0.0187956783920527 0.999823331832886
outer loop
vertex -0.0258112978190184 -2.34606719017029 0.194103717803955
vertex 0.0557921528816223 -2.34432721138 0.194071009755135
vertex -0.0192586537450552 -1.75047743320465 0.182907223701477
endloop
endfacet
facet normal 8.05417953857901e-17 0.0187956783920527 0.999823331832886
outer loop
vertex 0.0557921528816223 -2.34432721138 0.194071009755135
vertex -0.0258112978190184 -2.34606719017029 0.194103717803955
vertex 0.0625554993748665 -2.95906829833984 0.205627530813217
endloop
endfacet
facet normal -3.48373242730685e-16 0.0187956783920527 0.999823331832886
outer loop
vertex -0.0325758792459965 -2.9609203338623 0.205662339925766
vertex 0.0625554993748665 -2.95906829833984 0.205627530813217
vertex -0.0258112978190184 -2.34606719017029 0.194103717803955
endloop
endfacet
facet normal -3.49133163633271e-16 0.0187956783920527 0.999823331832886
outer loop
vertex 0.0625554993748665 -2.95906829833984 0.205627530813217
vertex -0.0325758792459965 -2.9609203338623 0.205662339925766
vertex 0.0697198063135147 -3.61025357246399 0.217869162559509
endloop
endfacet
facet normal -4.25599327644448e-16 0.0187956783920527 0.999823331832886
outer loop
vertex -0.039734922349453 -3.61162734031677 0.217894986271858
vertex 0.0697198063135147 -3.61025357246399 0.217869162559509
vertex -0.0325758792459965 -2.9609203338623 0.205662339925766
endloop
endfacet
facet normal -4.24652609507214e-16 0.0187956783920527 0.999823331832886
outer loop
vertex 0.0697198063135147 -3.61025357246399 0.217869162559509
vertex -0.039734922349453 -3.61162734031677 0.217894986271858
vertex 0.077293686568737 -4.29866695404053 0.230810642242432
endloop
endfacet
facet normal 2.08277063749258e-17 0.0187956783920527 0.999823331832886
outer loop
vertex -0.0472969077527523 -4.29895925521851 0.230816140770912
vertex 0.077293686568737 -4.29866695404053 0.230810642242432
vertex -0.039734922349453 -3.61162734031677 0.217894986271858
endloop
endfacet
facet normal 2.0970305695085e-17 0.0187956802546978 0.999823391437531
outer loop
vertex 0.077293686568737 -4.29866695404053 0.230810642242432
vertex -0.0472969077527523 -4.29895925521851 0.230816140770912
vertex 0.0850000008940697 -4.99911689758301 0.243978396058083
endloop
endfacet
facet normal -0 0.0187956783920527 0.999823391437531
outer loop
vertex -0.0549999997019768 -4.99911689758301 0.243978396058083
vertex 0.0850000008940697 -4.99911689758301 0.243978396058083
vertex -0.0472969077527523 -4.29895925521851 0.230816140770912
endloop
endfacet
facet normal -0.999526083469391 -0.0307844039052725 0
outer loop
vertex 0.183922007679939 -4.99763011932373 0.00499999988824129
vertex 0.183922007679939 -4.99763011932373 0.144999995827675
vertex 0.160222232341766 -4.22813177108765 0.00423013651743531
endloop
endfacet
facet normal -0.999526023864746 -0.0307844001799822 1.81908279591631e-16
outer loop
vertex 0.16021466255188 -4.22788619995117 0.145770102739334
vertex 0.160222232341766 -4.22813177108765 0.00423013651743531
vertex 0.183922007679939 -4.99763011932373 0.144999995827675
endloop
endfacet
facet normal -0.999526023864746 -0.0307844039052725 1.81867013205232e-16
outer loop
vertex 0.160222232341766 -4.22813177108765 0.00423013651743531
vertex 0.16021466255188 -4.22788619995117 0.145770102739334
vertex 0.134404614567757 -3.38987040519714 0.00339147797785699
endloop
endfacet
facet normal -0.999526083469391 -0.0307844039052725 -9.20700924689334e-17
outer loop
vertex 0.134380519390106 -3.38908815383911 0.146609306335449
vertex 0.134404614567757 -3.38987040519714 0.00339147797785699
vertex 0.16021466255188 -4.22788619995117 0.145770102739334
endloop
endfacet
facet normal -0.999526083469391 -0.0307844039052725 -9.19692161388713e-17
outer loop
vertex 0.134404614567757 -3.38987040519714 0.00339147797785699
vertex 0.134380519390106 -3.38908815383911 0.146609306335449
vertex 0.108273200690746 -2.54142022132874 0.00254262518137693
endloop
endfacet
facet normal -0.999526023864746 -0.0307844039052725 2.22276417328616e-17
outer loop
vertex 0.108249373733997 -2.54064655303955 0.147458150982857
vertex 0.108273200690746 -2.54142022132874 0.00254262518137693
vertex 0.134380519390106 -3.38908815383911 0.146609306335449
endloop
endfacet
facet normal -0.999526023864746 -0.0307844020426273 2.22980397660735e-17
outer loop
vertex 0.108273200690746 -2.54142022132874 0.00254262518137693
vertex 0.108249373733997 -2.54064655303955 0.147458150982857
vertex 0.0818374902009964 -1.68308997154236 0.00168388802558184
endloop
endfacet
facet normal -0.999526023864746 -0.0307844020426273 1.58987951850734e-16
outer loop
vertex 0.0818213671445847 -1.68256652355194 0.148316636681557
vertex 0.0818374902009964 -1.68308997154236 0.00168388802558184
vertex 0.108249373733997 -2.54064655303955 0.147458150982857
endloop
endfacet
facet normal -0.999526023864746 -0.0307844001799822 1.58920493617419e-16
outer loop
vertex 0.0818374902009964 -1.68308997154236 0.00168388802558184
vertex 0.0818213671445847 -1.68256652355194 0.148316636681557
vertex 0.0550873838365078 -0.814551889896393 0.000814938102848828
endloop
endfacet
facet normal -0.999525964260101 -0.0307844020426273 -4.25201233739768e-18
outer loop
vertex 0.0550793409347534 -0.814290761947632 0.149185329675674
vertex 0.0550873838365078 -0.814551889896393 0.000814938102848828
vertex 0.0818213671445847 -1.68256652355194 0.148316636681557
endloop
endfacet
facet normal -0.999526023864746 -0.0307844020426273 -4.25923155619373e-18
outer loop
vertex 0.0550873838365078 -0.814551889896393 0.000814938102848828
vertex 0.0550793409347534 -0.814290761947632 0.149185329675674
vertex 0.0299999993294477 0 0
endloop
endfacet
facet normal -0.999526023864746 -0.0307844020426273 -0
outer loop
vertex 0.0299999993294477 0 0.150000005960464
vertex 0.0299999993294477 0 0
vertex 0.0550793409347534 -0.814290761947632 0.149185329675674
endloop
endfacet
facet normal 0.706949830055237 0.0210663992911577 -0.706949830055237
outer loop
vertex 0.0849988088011742 -5.00077342987061 -0.0940192341804504
vertex 0.0773513838648796 -4.30543041229248 -0.0809461325407028
vertex 0.183921933174133 -4.99762773513794 0.00499762780964375
endloop
endfacet
facet normal 0.706949889659882 0.0210664011538029 -0.706949889659882
outer loop
vertex 0.162512317299843 -4.30248785018921 0.00430248770862818
vertex 0.183921933174133 -4.99762773513794 0.00499762780964375
vertex 0.0773513838648796 -4.30543041229248 -0.0809461325407028
endloop
endfacet
facet normal 0.706949889659882 0.0210663992911577 -0.706949889659882
outer loop
vertex 0.0773513838648796 -4.30543041229248 -0.0809461325407028
vertex 0.069975733757019 -3.63479804992676 -0.068337619304657
vertex 0.162512317299843 -4.30248785018921 0.00430248770862818
endloop
endfacet
facet normal 0.706949889659882 0.0210663992911577 -0.706949889659882
outer loop
vertex 0.141849130392075 -3.63158297538757 0.00363158294931054
vertex 0.162512317299843 -4.30248785018921 0.00430248770862818
vertex 0.069975733757019 -3.63479804992676 -0.068337619304657
endloop
endfacet
facet normal 0.706949889659882 0.0210663992911577 -0.706949889659882
outer loop
vertex 0.069975733757019 -3.63479804992676 -0.068337619304657
vertex 0.0629775896668434 -2.99849152565002 -0.0563744567334652
vertex 0.141849130392075 -3.63158297538757 0.00363158294931054
endloop
endfacet
facet normal 0.706949830055237 0.0210663974285126 -0.706949830055237
outer loop
vertex 0.122256934642792 -2.99545216560364 0.00299545214511454
vertex 0.141849130392075 -3.63158297538757 0.00363158294931054
vertex 0.0629775896668434 -2.99849152565002 -0.0563744567334652
endloop
endfacet
facet normal 0.706949889659882 0.0210663974285126 -0.706949889659882
outer loop
vertex 0.0629775896668434 -2.99849152565002 -0.0563744567334652
vertex 0.0563206151127815 -2.39320516586304 -0.0449945032596588
vertex 0.122256934642792 -2.99545216560364 0.00299545214511454
endloop
endfacet
facet normal 0.706949830055237 0.0210663974285126 -0.706949830055237
outer loop
vertex 0.103631839156151 -2.39072179794312 0.00239072181284428
vertex 0.122256934642792 -2.99545216560364 0.00299545214511454
vertex 0.0563206151127815 -2.39320516586304 -0.0449945032596588
endloop
endfacet
facet normal 0.706949830055237 0.0210663992911577 -0.706949830055237
outer loop
vertex 0.0563206151127815 -2.39320516586304 -0.0449945032596588
vertex 0.0497404597699642 -1.79490375518799 -0.0337458774447441
vertex 0.103631839156151 -2.39072179794312 0.00239072181284428
endloop
endfacet
facet normal 0.706949830055237 0.0210663992911577 -0.706949830055237
outer loop
vertex 0.0852238833904266 -1.79304134845734 0.00179304135963321
vertex 0.103631839156151 -2.39072179794312 0.00239072181284428
vertex 0.0497404597699642 -1.79490375518799 -0.0337458774447441
endloop
endfacet
facet normal 0.706949830055237 0.0210663992911577 -0.706949830055237
outer loop
vertex 0.0852238833904266 -1.79304134845734 0.00179304135963321
vertex 0.0497404597699642 -1.79490375518799 -0.0337458774447441
vertex 0.0431603081524372 -1.19660258293152 -0.0224972516298294
endloop
endfacet
facet normal 0.706949830055237 0.0210663992911577 -0.706949830055237
outer loop
vertex 0.0668159201741219 -1.19536089897156 0.00119536090642214
vertex 0.0852238833904266 -1.79304134845734 0.00179304135963321
vertex 0.0431603081524372 -1.19660258293152 -0.0224972516298294
endloop
endfacet
facet normal 0.706949830055237 0.0210663992911577 -0.706949830055237
outer loop
vertex 0.0668159201741219 -1.19536089897156 0.00119536090642214
vertex 0.0431603081524372 -1.19660258293152 -0.0224972516298294
vertex 0.0365801528096199 -0.598301291465759 -0.0112486258149147
endloop
endfacet
facet normal 0.706949830055237 0.0210663992911577 -0.706949830055237
outer loop
vertex 0.0365801528096199 -0.598301291465759 -0.0112486258149147
vertex 0.0484079606831074 -0.597680449485779 0.000597680453211069
vertex 0.0668159201741219 -1.19536089897156 0.00119536090642214
endloop
endfacet
facet normal 0.706949830055237 0.0210663992911577 -0.706949830055237
outer loop
vertex 0.0484079606831074 -0.597680449485779 0.000597680453211069
vertex 0.0365801528096199 -0.598301291465759 -0.0112486258149147
vertex 0.0299999993294477 0 0
endloop
endfacet
facet normal 0.706949830055237 0.0210663992911577 0.706949830055237
outer loop
vertex 0.036576047539711 -0.597822368144989 0.161238461732864
vertex 0.0484238676726818 -0.598159193992615 0.149400681257248
vertex 0.0299999993294477 0 0.150000005960464
endloop
endfacet
facet normal 0.706949830055237 0.0210663992911577 0.706949830055237
outer loop
vertex 0.0484238676726818 -0.598159193992615 0.149400681257248
vertex 0.036576047539711 -0.597822368144989 0.161238461732864
vertex 0.0431520901620388 -1.19564473628998 0.172476932406425
endloop
endfacet
facet normal 0.706949830055237 0.0210663992911577 0.706949830055237
outer loop
vertex 0.0431520901620388 -1.19564473628998 0.172476932406425
vertex 0.0668477341532707 -1.19631838798523 0.148801356554031
vertex 0.0484238676726818 -0.598159193992615 0.149400681257248
endloop
endfacet
facet normal 0.706949830055237 0.0210663992911577 0.706949830055237
outer loop
vertex 0.0431520901620388 -1.19564473628998 0.172476932406425
vertex 0.0497281365096569 -1.79346704483032 0.183715388178825
vertex 0.0668477341532707 -1.19631838798523 0.148801356554031
endloop
endfacet
facet normal 0.706949830055237 0.0210663992911577 0.706949830055237
outer loop
vertex 0.0497281365096569 -1.79346704483032 0.183715388178825
vertex 0.0852715969085693 -1.79447758197784 0.148202046751976
vertex 0.0668477341532707 -1.19631838798523 0.148801356554031
endloop
endfacet
facet normal 0.706949830055237 0.0210663992911577 0.706949830055237
outer loop
vertex 0.0497281365096569 -1.79346704483032 0.183715388178825
vertex 0.056304182857275 -2.39128947257996 0.194953843951225
vertex 0.0852715969085693 -1.79447758197784 0.148202046751976
endloop
endfacet
facet normal 0.706949830055237 0.0210663992911577 0.706949830055237
outer loop
vertex 0.103695459663868 -2.39263677597046 0.147602722048759
vertex 0.0852715969085693 -1.79447758197784 0.148202046751976
vertex 0.056304182857275 -2.39128947257996 0.194953843951225
endloop
endfacet
facet normal 0.706949830055237 0.0210663974285126 0.706949830055237
outer loop
vertex 0.056304182857275 -2.39128947257996 0.194953843951225
vertex 0.062957800924778 -2.9961633682251 0.206324875354767
vertex 0.103695459663868 -2.39263677597046 0.147602722048759
endloop
endfacet
facet normal 0.706949889659882 0.0210663974285126 0.706949889659882
outer loop
vertex 0.12233442813158 -2.99777960777283 0.146996408700943
vertex 0.103695459663868 -2.39263677597046 0.147602722048759
vertex 0.062957800924778 -2.9961633682251 0.206324875354767
endloop
endfacet
facet normal 0.706949830055237 0.0210663974285126 0.706949830055237
outer loop
vertex 0.062957800924778 -2.9961633682251 0.206324875354767
vertex 0.06995689868927 -3.63244533538818 0.218286335468292
vertex 0.12233442813158 -2.99777960777283 0.146996408700943
endloop
endfacet
facet normal 0.706949889659882 0.0210663992911577 0.706949889659882
outer loop
vertex 0.141928613185883 -3.63393497467041 0.146359011530876
vertex 0.12233442813158 -2.99777960777283 0.146996408700943
vertex 0.06995689868927 -3.63244533538818 0.218286335468292
endloop
endfacet
facet normal 0.706949889659882 0.0210663992911577 0.706949889659882
outer loop
vertex 0.06995689868927 -3.63244533538818 0.218286335468292
vertex 0.0773385986685753 -4.30350923538208 0.230901673436165
vertex 0.141928613185883 -3.63393497467041 0.146359011530876
endloop
endfacet
facet normal 0.706949889659882 0.0210663992911577 0.706949889659882
outer loop
vertex 0.162579819560051 -4.30440807342529 0.145687237381935
vertex 0.141928613185883 -3.63393497467041 0.146359011530876
vertex 0.0773385986685753 -4.30350923538208 0.230901673436165
endloop
endfacet
facet normal 0.706949889659882 0.0210664011538029 0.706949889659882
outer loop
vertex 0.0773385986685753 -4.30350923538208 0.230901673436165
vertex 0.0849869549274445 -4.99881458282471 0.243972718715668
vertex 0.162579819560051 -4.30440807342529 0.145687237381935
endloop
endfacet
facet normal 0.706949830055237 0.0210663992911577 0.706949830055237
outer loop
vertex 0.183991953730583 -4.99958610534668 0.144990712404251
vertex 0.162579819560051 -4.30440807342529 0.145687237381935
vertex 0.0849869549274445 -4.99881458282471 0.243972718715668
endloop
endfacet
facet normal 0.706949830055237 -0.0210663974285126 -0.706949830055237
outer loop
vertex 0.101243071258068 -10.4001655578613 0.0534212552011013
vertex 0.0900000035762787 -10.998233795166 0.0599999986588955
vertex 0.0894006788730621 -10.400074005127 0.0415761359035969
endloop
endfacet
facet normal 0.706949830055237 -0.0210663974285126 -0.706949830055237
outer loop
vertex 0.112486146390438 -9.80209827423096 0.0468425117433071
vertex 0.101243071258068 -10.4001655578613 0.0534212552011013
vertex 0.0888013616204262 -9.80191516876221 0.0231522675603628
endloop
endfacet
facet normal 0.706949830055237 -0.0210663974285126 -0.706949830055237
outer loop
vertex 0.0894006788730621 -10.400074005127 0.0415761359035969
vertex 0.0888013616204262 -9.80191516876221 0.0231522675603628
vertex 0.101243071258068 -10.4001655578613 0.0534212552011013
endloop
endfacet
facet normal 0.706949830055237 -0.0210663974285126 -0.706949830055237
outer loop
vertex 0.112486146390438 -9.80209827423096 0.0468425117433071
vertex 0.0888013616204262 -9.80191516876221 0.0231522675603628
vertex 0.123729221522808 -9.20403003692627 0.0402637645602226
endloop
endfacet
facet normal 0.706949889659882 -0.0210664011538029 -0.706949889659882
outer loop
vertex 0.0882020443677902 -9.20375537872314 0.00472840247675776
vertex 0.123729221522808 -9.20403003692627 0.0402637645602226
vertex 0.0888013616204262 -9.80191516876221 0.0231522675603628
endloop
endfacet
facet normal 0.706949889659882 -0.0210664011538029 -0.706949889659882
outer loop
vertex 0.123729221522808 -9.20403003692627 0.0402637645602226
vertex 0.0882020443677902 -9.20375537872314 0.00472840247675776
vertex 0.134972304105759 -8.6059627532959 0.0336850211024284
endloop
endfacet
facet normal 0.706949830055237 -0.0210663974285126 -0.706949830055237
outer loop
vertex 0.0876027196645737 -8.6055965423584 -0.0136954635381699
vertex 0.134972304105759 -8.6059627532959 0.0336850211024284
vertex 0.0882020443677902 -9.20375537872314 0.00472840247675776
endloop
endfacet
facet normal 0.706949889659882 -0.0210663992911577 -0.706949889659882
outer loop
vertex 0.134972304105759 -8.6059627532959 0.0336850211024284
vertex 0.0876027196645737 -8.6055965423584 -0.0136954635381699
vertex 0.14634670317173 -8.00090885162354 0.0270294286310673
endloop
endfacet
facet normal 0.706949889659882 -0.0210664011538029 -0.706949889659882
outer loop
vertex 0.0869964063167572 -8.00045394897461 -0.032334428280592
vertex 0.14634670317173 -8.00090885162354 0.0270294286310673
vertex 0.0876027196645737 -8.6055965423584 -0.0136954635381699
endloop
endfacet
facet normal 0.706949889659882 -0.0210664011538029 -0.706949889659882
outer loop
vertex 0.14634670317173 -8.00090885162354 0.0270294286310673
vertex 0.0869964063167572 -8.00045394897461 -0.032334428280592
vertex 0.158303931355476 -7.36485290527344 0.020032811909914
endloop
endfacet
facet normal 0.706949889659882 -0.0210663992911577 -0.706949889659882
outer loop
vertex 0.086359016597271 -7.36429834365845 -0.0519286170601845
vertex 0.158303931355476 -7.36485290527344 0.020032811909914
vertex 0.0869964063167572 -8.00045394897461 -0.032334428280592
endloop
endfacet
facet normal 0.706949889659882 -0.0210664011538029 -0.706949889659882
outer loop
vertex 0.158303931355476 -7.36485290527344 0.020032811909914
vertex 0.086359016597271 -7.36429834365845 -0.0519286170601845
vertex 0.170906066894531 -6.69449043273926 0.012658828869462
endloop
endfacet
facet normal 0.706949889659882 -0.0210663992911577 -0.706949889659882
outer loop
vertex 0.0856872424483299 -6.69382524490356 -0.0725798159837723
vertex 0.170906066894531 -6.69449043273926 0.012658828869462
vertex 0.086359016597271 -7.36429834365845 -0.0519286170601845
endloop
endfacet
facet normal 0.706949830055237 -0.0210663974285126 -0.706949830055237
outer loop
vertex 0.170906066894531 -6.69449043273926 0.012658828869462
vertex 0.0856872424483299 -6.69382524490356 -0.0725798159837723
vertex 0.183972716331482 -5.99941921234131 0.00501304119825363
endloop
endfacet
facet normal 0.706949830055237 -0.0210663992911577 -0.706949830055237
outer loop
vertex 0.0849907174706459 -5.99864721298218 -0.0939919501543045
vertex 0.183972716331482 -5.99941921234131 0.00501304119825363
vertex 0.0856872424483299 -6.69382524490356 -0.0725798159837723
endloop
endfacet
facet normal -0.706958472728729 0.0210678409785032 -0.706941187381744
outer loop
vertex 0.084991917014122 -5.99864768981934 0.244002878665924
vertex 0.183972716331482 -5.99941921234131 0.144996672868729
vertex 0.0856882780790329 -6.69382572174072 0.22258922457695
endloop
endfacet
facet normal -0.706958472728729 0.0210678391158581 -0.706941187381744
outer loop
vertex 0.170906066894531 -6.69449090957642 0.137349531054497
vertex 0.0856882780790329 -6.69382572174072 0.22258922457695
vertex 0.183972716331482 -5.99941921234131 0.144996672868729
endloop
endfacet
facet normal -0.706958472728729 0.0210678409785032 -0.706941187381744
outer loop
vertex 0.0856882780790329 -6.69382572174072 0.22258922457695
vertex 0.170906066894531 -6.69449090957642 0.137349531054497
vertex 0.0863598883152008 -7.36429882049561 0.201936557888985
endloop
endfacet
facet normal -0.706958413124084 0.0210678391158581 -0.706941187381744
outer loop
vertex 0.158303916454315 -7.36485290527344 0.129974246025085
vertex 0.0863598883152008 -7.36429882049561 0.201936557888985
vertex 0.170906066894531 -6.69449090957642 0.137349531054497
endloop
endfacet
facet normal -0.706958472728729 0.0210678409785032 -0.706941187381744
outer loop
vertex 0.0863598883152008 -7.36429882049561 0.201936557888985
vertex 0.158303916454315 -7.36485290527344 0.129974246025085
vertex 0.0869971290230751 -8.00045394897461 0.182340979576111
endloop
endfacet
facet normal -0.706958472728729 0.0210678409785032 -0.706941187381744
outer loop
vertex 0.14634670317173 -8.00090885162354 0.122976392507553
vertex 0.0869971290230751 -8.00045394897461 0.182340979576111
vertex 0.158303916454315 -7.36485290527344 0.129974246025085
endloop
endfacet
facet normal -0.706958532333374 0.0210678409785032 -0.706941187381744
outer loop
vertex 0.0869971290230751 -8.00045394897461 0.182340979576111
vertex 0.14634670317173 -8.00090885162354 0.122976392507553
vertex 0.0876033008098602 -8.6055965423584 0.163700684905052
endloop
endfacet
facet normal -0.706958532333374 0.0210678409785032 -0.706941187381744
outer loop
vertex 0.134972304105759 -8.6059627532959 0.116319626569748
vertex 0.0876033008098602 -8.6055965423584 0.163700684905052
vertex 0.14634670317173 -8.00090885162354 0.122976392507553
endloop
endfacet
facet normal -0.706958532333374 0.0210678409785032 -0.706941187381744
outer loop
vertex 0.0876033008098602 -8.6055965423584 0.163700684905052
vertex 0.134972304105759 -8.6059627532959 0.116319626569748
vertex 0.0882024765014648 -9.20375633239746 0.145275518298149
endloop
endfacet
facet normal -0.706958472728729 0.0210678409785032 -0.706941187381744
outer loop
vertex 0.123729221522808 -9.20403003692627 0.109739720821381
vertex 0.0882024765014648 -9.20375633239746 0.145275518298149
vertex 0.134972304105759 -8.6059627532959 0.116319626569748
endloop
endfacet
facet normal -0.706958472728729 0.0210678409785032 -0.706941187381744
outer loop
vertex 0.0882024765014648 -9.20375633239746 0.145275518298149
vertex 0.123729221522808 -9.20403003692627 0.109739720821381
vertex 0.0888016521930695 -9.80191516876221 0.126850351691246
endloop
endfacet
facet normal -0.706958532333374 0.0210678409785032 -0.706941187381744
outer loop
vertex 0.112486146390438 -9.80209827423096 0.103159815073013
vertex 0.0888016521930695 -9.80191516876221 0.126850351691246
vertex 0.123729221522808 -9.20403003692627 0.109739720821381
endloop
endfacet
facet normal -0.706958532333374 0.0210678409785032 -0.706941187381744
outer loop
vertex 0.112486146390438 -9.80209827423096 0.103159815073013
vertex 0.101243071258068 -10.4001655578613 0.096579909324646
vertex 0.0888016521930695 -9.80191516876221 0.126850351691246
endloop
endfacet
facet normal -0.706958532333374 0.0210678409785032 -0.706941187381744
outer loop
vertex 0.0894008278846741 -10.400074005127 0.108425170183182
vertex 0.0888016521930695 -9.80191516876221 0.126850351691246
vertex 0.101243071258068 -10.4001655578613 0.096579909324646
endloop
endfacet
facet normal -0.706958532333374 0.0210678409785032 -0.706941187381744
outer loop
vertex 0.101243071258068 -10.4001655578613 0.096579909324646
vertex 0.0900000035762787 -10.998233795166 0.0900000035762787
vertex 0.0894008278846741 -10.400074005127 0.108425170183182
endloop
endfacet
facet normal 0.999823391437531 -0.0187956783920527 0
outer loop
vertex 0.183978393673897 -5.99911689758301 0.00499999988824129
vertex 0.183978393673897 -5.99911689758301 0.144999995827675
vertex 0.170816138386726 -6.69927406311035 0.0127030937001109
endloop
endfacet
facet normal 0.999823391437531 -0.0187956802546978 -2.55670807079402e-16
outer loop
vertex 0.170810639858246 -6.69956684112549 0.137293681502342
vertex 0.170816138386726 -6.69927406311035 0.0127030937001109
vertex 0.183978393673897 -5.99911689758301 0.144999995827675
endloop
endfacet
facet normal 0.999823331832886 -0.0187956783920527 -2.56054195367153e-16
outer loop
vertex 0.170816138386726 -6.69927406311035 0.0127030937001109
vertex 0.170810639858246 -6.69956684112549 0.137293681502342
vertex 0.157894983887672 -7.38660621643066 0.0202650800347328
endloop
endfacet
facet normal 0.999823331832886 -0.0187956783920527 -3.39829982397895e-17
outer loop
vertex 0.157869160175323 -7.38797998428345 0.129719808697701
vertex 0.157894983887672 -7.38660621643066 0.0202650800347328
vertex 0.170810639858246 -6.69956684112549 0.137293681502342
endloop
endfacet
facet normal 0.999823331832886 -0.0187956783920527 -3.05868295639407e-17
outer loop
vertex 0.157894983887672 -7.38660621643066 0.0202650800347328
vertex 0.157869160175323 -7.38797998428345 0.129719808697701
vertex 0.14566233754158 -8.03731346130371 0.0274241212755442
endloop
endfacet
facet normal 0.999823331832886 -0.0187956783920527 1.12732938439055e-16
outer loop
vertex 0.145627528429031 -8.03916549682617 0.122555501759052
vertex 0.14566233754158 -8.03731346130371 0.0274241212755442
vertex 0.157869160175323 -7.38797998428345 0.129719808697701
endloop
endfacet
facet normal 0.999823331832886 -0.0187956783920527 1.08381498578438e-16
outer loop
vertex 0.14566233754158 -8.03731346130371 0.0274241212755442
vertex 0.145627528429031 -8.03916549682617 0.122555501759052
vertex 0.134103715419769 -8.65216636657715 0.0341887027025223
endloop
endfacet
facet normal 0.999823331832886 -0.0187956783920527 -8.70296971848436e-16
outer loop
vertex 0.134071007370949 -8.65390586853027 0.115792155265808
vertex 0.134103715419769 -8.65216636657715 0.0341887027025223
vertex 0.145627528429031 -8.03916549682617 0.122555501759052
endloop
endfacet
facet normal 0.999823331832886 -0.0187956783920527 -8.71095882736374e-16
outer loop
vertex 0.134103715419769 -8.65216636657715 0.0341887027025223
vertex 0.134071007370949 -8.65390586853027 0.115792155265808
vertex 0.122907221317291 -9.2477560043335 0.0407413467764854
endloop
endfacet
facet normal 0.999823391437531 -0.0187956783920527 -1.31234742633402e-15
outer loop
vertex 0.122881099581718 -9.2491455078125 0.109243363142014
vertex 0.122907221317291 -9.2477560043335 0.0407413467764854
vertex 0.134071007370949 -8.65390586853027 0.115792155265808
endloop
endfacet
facet normal 0.999823391437531 -0.0187956802546978 -1.31346201581348e-15
outer loop
vertex 0.122907221317291 -9.2477560043335 0.0407413467764854
vertex 0.122881099581718 -9.2491455078125 0.109243363142014
vertex 0.111711911857128 -9.84328269958496 0.0472932979464531
endloop
endfacet
facet normal 0.999823391437531 -0.0187956802546978 -1.58140405389756e-15
outer loop
vertex 0.111692324280739 -9.84432506561279 0.102695234119892
vertex 0.111711911857128 -9.84328269958496 0.0472932979464531
vertex 0.122881099581718 -9.2491455078125 0.109243363142014
endloop
endfacet
facet normal 0.999823331832886 -0.0187956783920527 -1.58118604879276e-15
outer loop
vertex 0.111711911857128 -9.84328269958496 0.0472932979464531
vertex 0.111692324280739 -9.84432506561279 0.102695234119892
vertex 0.100834712386131 -10.4218883514404 0.0536590851843357
endloop
endfacet
facet normal 0.999823391437531 -0.0187956802546978 -4.06725527755491e-16
outer loop
vertex 0.100824758410454 -10.422417640686 0.0963350906968117
vertex 0.100834712386131 -10.4218883514404 0.0536590851843357
vertex 0.111692324280739 -9.84432506561279 0.102695234119892
endloop
endfacet
facet normal 0.999823391437531 -0.0187956783920527 -4.04965975626248e-16
outer loop
vertex 0.100834712386131 -10.4218883514404 0.0536590851843357
vertex 0.100824758410454 -10.422417640686 0.0963350906968117
vertex 0.0938528701663017 -10.7932825088501 0.0577451437711716
endloop
endfacet
facet normal 0.999823391437531 -0.0187956802546978 -3.80126628568897e-16
outer loop
vertex 0.0938510522246361 -10.7933797836304 0.092253789305687
vertex 0.0938528701663017 -10.7932825088501 0.0577451437711716
vertex 0.100824758410454 -10.422417640686 0.0963350906968117
endloop
endfacet
facet normal 0.999823391437531 -0.0187956802546978 -3.8022218447326e-16
outer loop
vertex 0.0938528701663017 -10.7932825088501 0.0577451437711716
vertex 0.0938510522246361 -10.7933797836304 0.092253789305687
vertex 0.0900000035762787 -10.998233795166 0.0599999986588955
endloop
endfacet
facet normal 0.999823331832886 -0.0187956783920527 0
outer loop
vertex 0.0900000035762787 -10.998233795166 0.0900000035762787
vertex 0.0900000035762787 -10.998233795166 0.0599999986588955
vertex 0.0938510522246361 -10.7933797836304 0.092253789305687
endloop
endfacet
endsolid COMSOL mesh mesh1
