solid COMSOL mesh mesh1
facet normal -0.0673082992434502 0.997732281684875 0
outer loop
vertex 0 0 0.150000005960464
vertex 0 0 0
vertex -0.761899352073669 -0.0513987094163895 0.150763630867004
endloop
endfacet
facet normal -0.0673082992434502 0.997732222080231 4.93160250469338e-17
outer loop
vertex -0.761899352073669 -0.0513987094163895 -0.000763631076551974
vertex -0.761899352073669 -0.0513987094163895 0.150763630867004
vertex 0 0 0
endloop
endfacet
facet normal -0.0673082917928696 0.997732281684875 4.93160250469338e-17
outer loop
vertex -0.761899352073669 -0.0513987094163895 -0.000763631076551974
vertex -1.59655630588531 -0.107705742120743 -0.00160018517635763
vertex -0.761899352073669 -0.0513987094163895 0.150763630867004
endloop
endfacet
facet normal -0.0673082992434502 0.997732281684875 7.18325232127825e-17
outer loop
vertex -1.59655630588531 -0.107705742120743 0.151600182056427
vertex -0.761899352073669 -0.0513987094163895 0.150763630867004
vertex -1.59655630588531 -0.107705742120743 -0.00160018517635763
endloop
endfacet
facet normal -0.0673082992434502 0.997732281684875 2.85532324977587e-17
outer loop
vertex -2.45477795600891 -0.165602475404739 -0.00246035750024021
vertex -2.45477795600891 -0.165602475404739 0.152460351586342
vertex -1.59655630588531 -0.107705742120743 -0.00160018517635763
endloop
endfacet
facet normal -0.0673082992434502 0.997732222080231 7.18325165953376e-17
outer loop
vertex -1.59655630588531 -0.107705742120743 0.151600182056427
vertex -1.59655630588531 -0.107705742120743 -0.00160018517635763
vertex -2.45477795600891 -0.165602475404739 0.152460351586342
endloop
endfacet
facet normal -0.0673082917928696 0.997732162475586 2.85532291890362e-17
outer loop
vertex -2.45477795600891 -0.165602475404739 -0.00246035750024021
vertex -3.32231450080872 -0.224127605557442 -0.00332986586727202
vertex -2.45477795600891 -0.165602475404739 0.152460351586342
endloop
endfacet
facet normal -0.0673082992434502 0.997732281684875 1.1790359812601e-16
outer loop
vertex -3.32231450080872 -0.224127605557442 0.153329864144325
vertex -2.45477795600891 -0.165602475404739 0.152460351586342
vertex -3.32231450080872 -0.224127605557442 -0.00332986586727202
endloop
endfacet
facet normal -0.0673082917928696 0.997732222080231 1.1790359812601e-16
outer loop
vertex -3.32231450080872 -0.224127605557442 -0.00332986586727202
vertex -4.18476963043213 -0.282309949398041 -0.00419428152963519
vertex -3.32231450080872 -0.224127605557442 0.153329864144325
endloop
endfacet
facet normal -0.0673082992434502 0.997732281684875 8.3273291352228e-17
outer loop
vertex -4.18476963043213 -0.282309949398041 0.15419428050518
vertex -3.32231450080872 -0.224127605557442 0.153329864144325
vertex -4.18476963043213 -0.282309949398041 -0.00419428152963519
endloop
endfacet
facet normal -0.0673082992434502 0.997732162475586 8.3273291352228e-17
outer loop
vertex -4.18476963043213 -0.282309949398041 0.15419428050518
vertex -4.18476963043213 -0.282309949398041 -0.00419428152963519
vertex -4.98866128921509 -0.336541473865509 0.155000001192093
endloop
endfacet
facet normal -0.067308284342289 0.997732162475586 0
outer loop
vertex -4.98866128921509 -0.336541473865509 -0.00499999988824129
vertex -4.98866128921509 -0.336541473865509 0.155000001192093
vertex -4.18476963043213 -0.282309949398041 -0.00419428152963519
endloop
endfacet
facet normal -0.000592056312598288 0.0236290954053402 0.999720633029938
outer loop
vertex -4.47377824783325 -0.824068427085876 0.166827961802483
vertex -4.45817184448242 -0.807596445083618 0.166447877883911
vertex -4.98866128921509 -0.336541473865509 0.155000001192093
endloop
endfacet
facet normal -0.000592056312598288 0.0236290954053402 0.999720633029938
outer loop
vertex -4.47377824783325 -0.824068427085876 0.166827961802483
vertex -3.95889496803284 -1.31159543991089 0.178655937314034
vertex -4.45817184448242 -0.807596445083618 0.166447877883911
endloop
endfacet
facet normal -0.000592056312598288 0.0236290954053402 0.999720633029938
outer loop
vertex -3.95889496803284 -1.31159543991089 0.178655937314034
vertex -3.92768263816833 -1.27865135669708 0.177895769476891
vertex -4.45817184448242 -0.807596445083618 0.166447877883911
endloop
endfacet
facet normal -0.000592056312598288 0.0236290954053402 0.999720633029938
outer loop
vertex -3.95889496803284 -1.31159543991089 0.178655937314034
vertex -3.444011926651 -1.79912233352661 0.190483897924423
vertex -3.92768263816833 -1.27865135669708 0.177895769476891
endloop
endfacet
facet normal -0.000592056370805949 0.0236290972679853 0.999720633029938
outer loop
vertex -3.39719319343567 -1.74970638751984 0.189343646168709
vertex -3.92768263816833 -1.27865135669708 0.177895769476891
vertex -3.444011926651 -1.79912233352661 0.190483897924423
endloop
endfacet
facet normal -0.000592056370805949 0.0236290972679853 0.999720633029938
outer loop
vertex -3.444011926651 -1.79912233352661 0.190483897924423
vertex -2.92912888526917 -2.28664922714233 0.202311858534813
vertex -3.39719319343567 -1.74970638751984 0.189343646168709
endloop
endfacet
facet normal -0.000592056312598288 0.0236290954053402 0.999720633029938
outer loop
vertex -2.86670398712158 -2.2207612991333 0.200791522860527
vertex -3.39719319343567 -1.74970638751984 0.189343646168709
vertex -2.92912888526917 -2.28664922714233 0.202311858534813
endloop
endfacet
facet normal -0.000592056312598288 0.0236290954053402 0.999720633029938
outer loop
vertex -2.92912888526917 -2.28664922714233 0.202311858534813
vertex -2.41424584388733 -2.77417635917664 0.214139834046364
vertex -2.86670398712158 -2.2207612991333 0.200791522860527
endloop
endfacet
facet normal -0.000592056312598288 0.0236290972679853 0.999720573425293
outer loop
vertex -2.3362147808075 -2.69181632995605 0.212239414453506
vertex -2.86670398712158 -2.2207612991333 0.200791522860527
vertex -2.41424584388733 -2.77417635917664 0.214139834046364
endloop
endfacet
facet normal -0.000592056370805949 0.0236290972679853 0.999720633029938
outer loop
vertex -2.41424584388733 -2.77417635917664 0.214139834046364
vertex -1.89257442951202 -3.26813077926636 0.226123735308647
vertex -2.3362147808075 -2.69181632995605 0.212239414453506
endloop
endfacet
facet normal -0.000592056370805949 0.0236290972679853 0.999720573425293
outer loop
vertex -1.79873657226563 -3.16907715797424 0.223838105797768
vertex -2.3362147808075 -2.69181632995605 0.212239414453506
vertex -1.89257442951202 -3.26813077926636 0.226123735308647
endloop
endfacet
facet normal -0.000592056312598288 0.0236290991306305 0.999720633029938
outer loop
vertex -1.89257442951202 -3.26813077926636 0.226123735308647
vertex -1.35849797725677 -3.77383136749268 0.238392621278763
vertex -1.79873657226563 -3.16907715797424 0.223838105797768
endloop
endfacet
facet normal -0.000592056312598288 0.0236290972679853 0.999720573425293
outer loop
vertex -1.24846959114075 -3.65769410133362 0.235712796449661
vertex -1.79873657226563 -3.16907715797424 0.223838105797768
vertex -1.35849797725677 -3.77383136749268 0.238392621278763
endloop
endfacet
facet normal -0.707431793212891 0.0244980212301016 0.706356942653656
outer loop
vertex -0.501213192939758 -0.0111380014568567 -0.50158953666687
vertex -0.501354932785034 -0.0338220484554768 -0.500944852828979
vertex 0 0 0
endloop
endfacet
facet normal -0.707431793212891 0.0244980212301016 0.706356942653656
outer loop
vertex -0.501213192939758 -0.0111380014568567 -0.50158953666687
vertex -1.00242638587952 -0.0222760029137135 -1.00317907333374
vertex -0.501354932785034 -0.0338220484554768 -0.500944852828979
endloop
endfacet
facet normal -0.707431793212891 0.0244980212301016 0.706356942653656
outer loop
vertex -1.00242638587952 -0.0222760029137135 -1.00317907333374
vertex -1.00270986557007 -0.0676440969109535 -1.00188970565796
vertex -0.501354932785034 -0.0338220484554768 -0.500944852828979
endloop
endfacet
facet normal -0.707431793212891 0.0244980212301016 0.706356942653656
outer loop
vertex -1.00242638587952 -0.0222760029137135 -1.00317907333374
vertex -1.50363945960999 -0.033414002507925 -1.5047687292099
vertex -1.00270986557007 -0.0676440969109535 -1.00188970565796
endloop
endfacet
facet normal -0.707431793212891 0.0244980249553919 0.706357002258301
outer loop
vertex -1.50406491756439 -0.101466149091721 -1.50283443927765
vertex -1.00270986557007 -0.0676440969109535 -1.00188970565796
vertex -1.50363945960999 -0.033414002507925 -1.5047687292099
endloop
endfacet
facet normal -0.707431793212891 0.0244980249553919 0.706357002258301
outer loop
vertex -1.50363945960999 -0.033414002507925 -1.5047687292099
vertex -2.00485277175903 -0.0445520058274269 -2.00635814666748
vertex -1.50406491756439 -0.101466149091721 -1.50283443927765
endloop
endfacet
facet normal -0.707431793212891 0.0244980212301016 0.706356942653656
outer loop
vertex -2.00541973114014 -0.135288193821907 -2.00377941131592
vertex -1.50406491756439 -0.101466149091721 -1.50283443927765
vertex -2.00485277175903 -0.0445520058274269 -2.00635814666748
endloop
endfacet
facet normal -0.707431793212891 0.0244980212301016 0.706356942653656
outer loop
vertex -2.00485277175903 -0.0445520058274269 -2.00635814666748
vertex -2.5060658454895 -0.0556900054216385 -2.50794792175293
vertex -2.00541973114014 -0.135288193821907 -2.00377941131592
endloop
endfacet
facet normal -0.707431733608246 0.0244980230927467 0.706356883049011
outer loop
vertex -2.50677490234375 -0.169110238552094 -2.5047242641449
vertex -2.00541973114014 -0.135288193821907 -2.00377941131592
vertex -2.5060658454895 -0.0556900054216385 -2.50794792175293
endloop
endfacet
facet normal -0.707431733608246 0.0244980212301016 0.706356883049011
outer loop
vertex -2.5060658454895 -0.0556900054216385 -2.50794792175293
vertex -3.01388359069824 -0.0669747740030289 -3.01614689826965
vertex -2.50677490234375 -0.169110238552094 -2.5047242641449
endloop
endfacet
facet normal -0.707431793212891 0.0244980230927467 0.706356942653656
outer loop
vertex -3.01473140716553 -0.203377649188042 -3.0122652053833
vertex -2.50677490234375 -0.169110238552094 -2.5047242641449
vertex -3.01388359069824 -0.0669747740030289 -3.01614689826965
endloop
endfacet
facet normal -0.707431793212891 0.0244980212301016 0.706356942653656
outer loop
vertex -3.01388359069824 -0.0669747740030289 -3.01614689826965
vertex -3.53377079963684 -0.0785277485847473 -3.53642439842224
vertex -3.01473140716553 -0.203377649188042 -3.0122652053833
endloop
endfacet
facet normal -0.707431793212891 0.0244980230927467 0.706356942653656
outer loop
vertex -3.53476810455322 -0.23845998942852 -3.53187656402588
vertex -3.01473140716553 -0.203377649188042 -3.0122652053833
vertex -3.53377079963684 -0.0785277485847473 -3.53642439842224
endloop
endfacet
facet normal 0.706716358661652 0.0301291830837727 -0.706855058670044
outer loop
vertex 0 0 0
vertex 0.00124787259846926 -0.0299740210175514 -2.99930379696889e-05
vertex -0.130351230502129 -0.00289667607285082 -0.130449131131172
endloop
endfacet
facet normal 0.706716418266296 0.0301291830837727 -0.706855118274689
outer loop
vertex -0.128903910517693 -0.0376614890992641 -0.130483910441399
vertex -0.130351230502129 -0.00289667607285082 -0.130449131131172
vertex 0.00124787259846926 -0.0299740210175514 -2.99930379696889e-05
endloop
endfacet
facet normal 0.706716358661652 0.0301291830837727 -0.706855118274689
outer loop
vertex -0.130351230502129 -0.00289667607285082 -0.130449131131172
vertex -0.128903910517693 -0.0376614890992641 -0.130483910441399
vertex -0.325835198163986 -0.00724073732271791 -0.326079905033112
endloop
endfacet
facet normal 0.706716358661652 0.0301291849464178 -0.706855118274689
outer loop
vertex -0.324088782072067 -0.0491901598870754 -0.326121866703033
vertex -0.325835198163986 -0.00724073732271791 -0.326079905033112
vertex -0.128903910517693 -0.0376614890992641 -0.130483910441399
endloop
endfacet
facet normal 0.706716418266296 0.030129186809063 -0.706855118274689
outer loop
vertex -0.618996858596802 -0.0137554006651044 -0.619461715221405
vertex -0.325835198163986 -0.00724073732271791 -0.326079905033112
vertex -0.616801857948303 -0.0664793699979782 -0.619514465332031
endloop
endfacet
facet normal 0.706716418266296 0.0301291849464178 -0.706855177879333
outer loop
vertex -0.324088782072067 -0.0491901598870754 -0.326121866703033
vertex -0.616801857948303 -0.0664793699979782 -0.619514465332031
vertex -0.325835198163986 -0.00724073732271791 -0.326079905033112
endloop
endfacet
facet normal 0.706716358661652 0.0301291849464178 -0.706855118274689
outer loop
vertex -0.618996858596802 -0.0137554006651044 -0.619461715221405
vertex -0.616801857948303 -0.0664793699979782 -0.619514465332031
vertex -1.05578804016113 -0.0234618112444878 -1.05658090114594
endloop
endfacet
facet normal 0.706716418266296 0.0301291849464178 -0.706855118274689
outer loop
vertex -1.05292475223541 -0.0922391414642334 -1.05664968490601
vertex -1.05578804016113 -0.0234618112444878 -1.05658090114594
vertex -0.616801857948303 -0.0664793699979782 -0.619514465332031
endloop
endfacet
facet normal 0.706716418266296 0.030129186809063 -0.706855118274689
outer loop
vertex -1.54681646823883 -0.0343734845519066 -1.54797804355621
vertex -1.05578804016113 -0.0234618112444878 -1.05658090114594
vertex -1.54320180416107 -0.121197551488876 -1.5480649471283
endloop
endfacet
facet normal 0.706716418266296 0.0301291849464178 -0.706855118274689
outer loop
vertex -1.05292475223541 -0.0922391414642334 -1.05664968490601
vertex -1.54320180416107 -0.121197551488876 -1.5480649471283
vertex -1.05578804016113 -0.0234618112444878 -1.05658090114594
endloop
endfacet
facet normal 0.706716418266296 0.030129186809063 -0.706855118274689
outer loop
vertex -1.54681646823883 -0.0343734845519066 -1.54797804355621
vertex -1.54320180416107 -0.121197551488876 -1.5480649471283
vertex -2.03784489631653 -0.0452851578593254 -2.0393750667572
endloop
endfacet
facet normal 0.706716358661652 0.0301291830837727 -0.706855058670044
outer loop
vertex -2.03347873687744 -0.150155961513519 -2.03947997093201
vertex -2.03784489631653 -0.0452851578593254 -2.0393750667572
vertex -1.54320180416107 -0.121197551488876 -1.5480649471283
endloop
endfacet
facet normal 0.706716358661652 0.0301291830837727 -0.706855058670044
outer loop
vertex -2.03784489631653 -0.0452851578593254 -2.0393750667572
vertex -2.03347873687744 -0.150155961513519 -2.03947997093201
vertex -2.52887320518494 -0.0561968348920345 -2.53077220916748
endloop
endfacet
facet normal 0.706716418266296 0.0301291849464178 -0.706855118274689
outer loop
vertex -2.5237557888031 -0.179114371538162 -2.5308952331543
vertex -2.52887320518494 -0.0561968348920345 -2.53077220916748
vertex -2.03347873687744 -0.150155961513519 -2.03947997093201
endloop
endfacet
facet normal 0.706716418266296 0.0301291849464178 -0.706855118274689
outer loop
vertex -3.02527403831482 -0.0672278925776482 -3.02754592895508
vertex -2.52887320518494 -0.0561968348920345 -2.53077220916748
vertex -3.01939725875854 -0.208389610052109 -3.02768707275391
endloop
endfacet
facet normal 0.706716418266296 0.030129186809063 -0.706855118274689
outer loop
vertex -2.5237557888031 -0.179114371538162 -2.5308952331543
vertex -3.01939725875854 -0.208389610052109 -3.02768707275391
vertex -2.52887320518494 -0.0561968348920345 -2.53077220916748
endloop
endfacet
facet normal 0.706716418266296 0.030129186809063 -0.706855177879333
outer loop
vertex -3.02527403831482 -0.0672278925776482 -3.02754592895508
vertex -3.01939725875854 -0.208389610052109 -3.02768707275391
vertex -3.53406929969788 -0.0785343870520592 -3.53672313690186
endloop
endfacet
facet normal 0.706716418266296 0.0301291849464178 -0.706855118274689
outer loop
vertex -3.52741408348083 -0.238395825028419 -3.53688311576843
vertex -3.53406929969788 -0.0785343870520592 -3.53672313690186
vertex -3.01939725875854 -0.208389610052109 -3.02768707275391
endloop
endfacet
facet normal -0.274327337741852 -0.961636364459991 -0
outer loop
vertex -0.644800424575806 -6.56824207305908 0.0900000035762787
vertex -0.644800424575806 -6.56824207305908 0.0599999986588955
vertex -0.467454612255096 -6.61883354187012 0.0923974737524986
endloop
endfacet
facet normal -0.274327367544174 -0.961636364459991 4.77806406636375e-14
outer loop
vertex -0.467454612255096 -6.61883354187012 0.0576025284826756
vertex -0.467454612255096 -6.61883354187012 0.0923974737524986
vertex -0.644800424575806 -6.56824207305908 0.0599999986588955
endloop
endfacet
facet normal -0.274327367544174 -0.961636364459991 -4.44937699693986e-14
outer loop
vertex -0.201494216918945 -6.69470453262329 0.0540071092545986
vertex -0.201494216918945 -6.69470453262329 0.0959928929805756
vertex -0.467454612255096 -6.61883354187012 0.0576025284826756
endloop
endfacet
facet normal -0.274327337741852 -0.961636304855347 4.77806406636375e-14
outer loop
vertex -0.467454612255096 -6.61883354187012 0.0923974737524986
vertex -0.467454612255096 -6.61883354187012 0.0576025284826756
vertex -0.201494216918945 -6.69470453262329 0.0959928929805756
endloop
endfacet
facet normal -0.274327337741852 -0.961636364459991 -4.44937699693986e-14
outer loop
vertex -0.201494216918945 -6.69470453262329 0.0540071092545986
vertex 0.197358891367912 -6.80848598480225 0.0486151650547981
vertex -0.201494216918945 -6.69470453262329 0.0959928929805756
endloop
endfacet
facet normal -0.274327367544174 -0.961636364459991 -1.54640738419826e-14
outer loop
vertex 0.197358891367912 -6.80848598480225 0.101384833455086
vertex -0.201494216918945 -6.69470453262329 0.0959928929805756
vertex 0.197358891367912 -6.80848598480225 0.0486151650547981
endloop
endfacet
facet normal -0.274327367544174 -0.961636424064636 -7.98321522413716e-15
outer loop
vertex 0.79162323474884 -6.9780125617981 0.0405815280973911
vertex 0.79162323474884 -6.9780125617981 0.109418474137783
vertex 0.197358891367912 -6.80848598480225 0.0486151650547981
endloop
endfacet
facet normal -0.274327367544174 -0.961636483669281 -1.54640755360485e-14
outer loop
vertex 0.197358891367912 -6.80848598480225 0.101384833455086
vertex 0.197358891367912 -6.80848598480225 0.0486151650547981
vertex 0.79162323474884 -6.9780125617981 0.109418474137783
endloop
endfacet
facet normal -0.274327337741852 -0.961636304855347 -7.98321437710421e-15
outer loop
vertex 0.79162323474884 -6.9780125617981 0.0405815280973911
vertex 1.45967853069305 -7.16858959197998 0.0315503403544426
vertex 0.79162323474884 -6.9780125617981 0.109418474137783
endloop
endfacet
facet normal -0.274327367544174 -0.961636364459991 2.80383850936405e-15
outer loop
vertex 1.45967853069305 -7.16858959197998 0.118449658155441
vertex 0.79162323474884 -6.9780125617981 0.109418474137783
vertex 1.45967853069305 -7.16858959197998 0.0315503403544426
endloop
endfacet
facet normal -0.274327367544174 -0.961636364459991 2.80383850936405e-15
outer loop
vertex 1.45967853069305 -7.16858959197998 0.0315503403544426
vertex 2.12773394584656 -7.35916662216187 0.0225191526114941
vertex 1.45967853069305 -7.16858959197998 0.118449658155441
endloop
endfacet
facet normal -0.274327367544174 -0.961636424064636 -1.39532601374807e-14
outer loop
vertex 2.12773394584656 -7.35916662216187 0.12748084962368
vertex 1.45967853069305 -7.16858959197998 0.118449658155441
vertex 2.12773394584656 -7.35916662216187 0.0225191526114941
endloop
endfacet
facet normal -0.274327337741852 -0.961636304855347 7.93284048069805e-15
outer loop
vertex 2.79578924179077 -7.54974412918091 0.136512041091919
vertex 2.12773394584656 -7.35916662216187 0.12748084962368
vertex 2.79578924179077 -7.54974412918091 0.0134879648685455
endloop
endfacet
facet normal -0.274327367544174 -0.961636424064636 -1.39532601374807e-14
outer loop
vertex 2.12773394584656 -7.35916662216187 0.0225191526114941
vertex 2.79578924179077 -7.54974412918091 0.0134879648685455
vertex 2.12773394584656 -7.35916662216187 0.12748084962368
endloop
endfacet
facet normal -0.274327367544174 -0.961636424064636 7.93284217476395e-15
outer loop
vertex 2.79578924179077 -7.54974412918091 0.136512041091919
vertex 2.79578924179077 -7.54974412918091 0.0134879648685455
vertex 3.4711537361145 -7.74240589141846 0.145642042160034
endloop
endfacet
facet normal -0.274327367544174 -0.961636364459991 -1.03566786223419e-14
outer loop
vertex 3.4711537361145 -7.74240589141846 0.00435796473175287
vertex 3.4711537361145 -7.74240589141846 0.145642042160034
vertex 2.79578924179077 -7.54974412918091 0.0134879648685455
endloop
endfacet
facet normal -0.274327337741852 -0.961636364459991 -1.03566786223419e-14
outer loop
vertex 3.4711537361145 -7.74240589141846 0.145642042160034
vertex 3.4711537361145 -7.74240589141846 0.00435796473175287
vertex 4.16338157653809 -7.93987894058228 0.155000001192093
endloop
endfacet
facet normal -0.274327367544174 -0.961636364459991 0
outer loop
vertex 4.16338157653809 -7.93987894058228 -0.00499999988824129
vertex 4.16338157653809 -7.93987894058228 0.155000001192093
vertex 3.4711537361145 -7.74240589141846 0.00435796473175287
endloop
endfacet
facet normal 0.0344606265425682 -0.00895602907985449 0.999365925788879
outer loop
vertex -0.644800424575806 -6.56824207305908 0.0599999986588955
vertex 0.0936177000403404 -6.7609395980835 0.032810602337122
vertex -0.607070088386536 -6.42306470870972 0.0599999986588955
endloop
endfacet
facet normal 0.0344606228172779 -0.00895602721720934 0.999365866184235
outer loop
vertex 0.13173221051693 -6.61428451538086 0.032810602337122
vertex -0.607070088386536 -6.42306470870972 0.0599999986588955
vertex 0.0936177000403404 -6.7609395980835 0.032810602337122
endloop
endfacet
facet normal 0.0344606302678585 -0.00895602907985449 0.999365985393524
outer loop
vertex 0.902551174163818 -6.97203922271729 0.00302475062198937
vertex 0.941086530685425 -6.82376432418823 0.00302475062198937
vertex 0.0936177000403404 -6.7609395980835 0.032810602337122
endloop
endfacet
facet normal 0.0344606265425682 -0.00895602814853191 0.999365925788879
outer loop
vertex 0.13173221051693 -6.61428451538086 0.032810602337122
vertex 0.0936177000403404 -6.7609395980835 0.032810602337122
vertex 0.941086530685425 -6.82376432418823 0.00302475062198937
endloop
endfacet
facet normal 0.0344606265425682 -0.00895602907985449 0.999365985393524
outer loop
vertex 0.902551174163818 -6.97203922271729 0.00302475062198937
vertex 1.73432302474976 -7.1890983581543 -0.0276020374149084
vertex 0.941086530685425 -6.82376432418823 0.00302475062198937
endloop
endfacet
facet normal 0.0344606265425682 -0.00895602907985449 0.999365985393524
outer loop
vertex 1.77329111099243 -7.03915882110596 -0.0276020374149084
vertex 0.941086530685425 -6.82376432418823 0.00302475062198937
vertex 1.73432302474976 -7.1890983581543 -0.0276020374149084
endloop
endfacet
facet normal 0.0344606228172779 -0.00895602814853191 0.999365925788879
outer loop
vertex 1.73432302474976 -7.1890983581543 -0.0276020374149084
vertex 2.57512259483337 -7.40851354598999 -0.0585612393915653
vertex 1.77329111099243 -7.03915882110596 -0.0276020374149084
endloop
endfacet
facet normal 0.0344606265425682 -0.00895602907985449 0.999365985393524
outer loop
vertex 2.6145281791687 -7.25689077377319 -0.0585612393915653
vertex 1.77329111099243 -7.03915882110596 -0.0276020374149084
vertex 2.57512259483337 -7.40851354598999 -0.0585612393915653
endloop
endfacet
facet normal 0.0344606265425682 -0.00895602814853191 0.999365925788879
outer loop
vertex 3.41099762916565 -7.62664365768433 -0.0893391072750092
vertex 3.45083808898926 -7.47334766387939 -0.0893391072750092
vertex 2.57512259483337 -7.40851354598999 -0.0585612393915653
endloop
endfacet
facet normal 0.0344606265425682 -0.00895602814853191 0.999365985393524
outer loop
vertex 2.6145281791687 -7.25689077377319 -0.0585612393915653
vertex 2.57512259483337 -7.40851354598999 -0.0585612393915653
vertex 3.45083808898926 -7.47334766387939 -0.0893391072750092
endloop
endfacet
facet normal 0.0344606228172779 -0.00895602721720934 0.999365866184235
outer loop
vertex 3.41099762916565 -7.62664365768433 -0.0893391072750092
vertex 4.19011354446411 -7.8299617767334 -0.118027046322823
vertex 3.45083808898926 -7.47334766387939 -0.0893391072750092
endloop
endfacet
facet normal 0.0344606228172779 -0.00895602814853191 0.999365866184235
outer loop
vertex 4.23035955429077 -7.67510604858398 -0.118027046322823
vertex 3.45083808898926 -7.47334766387939 -0.0893391072750092
vertex 4.19011354446411 -7.8299617767334 -0.118027046322823
endloop
endfacet
facet normal -0.202861681580544 -0.677629888057709 -0.706869661808014
outer loop
vertex 0.0371089689433575 -6.76277112960815 0.050784096121788
vertex -0.644800424575806 -6.56824207305908 0.0599999986588955
vertex 0.041309904307127 -6.74728631973267 0.034734234213829
endloop
endfacet
facet normal -0.202861681580544 -0.677629888057709 -0.706869661808014
outer loop
vertex 0.0371089689433575 -6.76277112960815 0.050784096121788
vertex 0.041309904307127 -6.74728631973267 0.034734234213829
vertex 0.719018399715424 -6.95730066299438 0.0415681898593903
endloop
endfacet
facet normal -0.202861681580544 -0.677629888057709 -0.706869661808014
outer loop
vertex 0.719018399715424 -6.95730066299438 0.0415681898593903
vertex 0.041309904307127 -6.74728631973267 0.034734234213829
vertex 0.727420270442963 -6.92633104324341 0.00946846604347229
endloop
endfacet
facet normal -0.202861681580544 -0.677629888057709 -0.706869661808014
outer loop
vertex 0.719018399715424 -6.95730066299438 0.0415681898593903
vertex 0.727420270442963 -6.92633104324341 0.00946846604347229
vertex 1.40092778205872 -7.15182971954346 0.0323522873222828
endloop
endfacet
facet normal -0.202861681580544 -0.677629947662354 -0.706869781017303
outer loop
vertex 1.41353058815002 -7.10537528991699 -0.0157973002642393
vertex 1.40092778205872 -7.15182971954346 0.0323522873222828
vertex 0.727420270442963 -6.92633104324341 0.00946846604347229
endloop
endfacet
facet normal -0.202861681580544 -0.677629947662354 -0.706869781017303
outer loop
vertex 1.40092778205872 -7.15182971954346 0.0323522873222828
vertex 1.41353058815002 -7.10537528991699 -0.0157973002642393
vertex 2.08283734321594 -7.34635925292969 0.023136381059885
endloop
endfacet
facet normal -0.202861681580544 -0.677629888057709 -0.706869661808014
outer loop
vertex 2.09964108467102 -7.28442001342773 -0.0410630665719509
vertex 2.08283734321594 -7.34635925292969 0.023136381059885
vertex 1.41353058815002 -7.10537528991699 -0.0157973002642393
endloop
endfacet
facet normal -0.202861681580544 -0.677629888057709 -0.706869661808014
outer loop
vertex 2.08283734321594 -7.34635925292969 0.023136381059885
vertex 2.09964108467102 -7.28442001342773 -0.0410630665719509
vertex 2.76474666595459 -7.54088830947876 0.013920477591455
endloop
endfacet
facet normal -0.202861681580544 -0.677629947662354 -0.706869721412659
outer loop
vertex 2.78575134277344 -7.46346426010132 -0.0663288310170174
vertex 2.76474666595459 -7.54088830947876 0.013920477591455
vertex 2.09964108467102 -7.28442001342773 -0.0410630665719509
endloop
endfacet
facet normal -0.202861681580544 -0.677629947662354 -0.706869721412659
outer loop
vertex 2.76474666595459 -7.54088830947876 0.013920477591455
vertex 2.78575134277344 -7.46346426010132 -0.0663288310170174
vertex 3.455646276474 -7.73798227310181 0.00458307005465031
endloop
endfacet
facet normal -0.202861681580544 -0.677629947662354 -0.706869721412659
outer loop
vertex 3.48090076446533 -7.64486789703369 -0.0919274613261223
vertex 3.455646276474 -7.73798227310181 0.00458307005465031
vertex 2.78575134277344 -7.46346426010132 -0.0663288310170174
endloop
endfacet
facet normal -0.202861696481705 -0.677629947662354 -0.706869781017303
outer loop
vertex 3.455646276474 -7.73798227310181 0.00458307005465031
vertex 3.48090076446533 -7.64486789703369 -0.0919274613261223
vertex 4.1629753112793 -7.93976306915283 -0.00497637642547488
endloop
endfacet
facet normal -0.202861681580544 -0.677629947662354 -0.706869721412659
outer loop
vertex 4.19259071350098 -7.83058738708496 -0.118135191500187
vertex 4.1629753112793 -7.93976306915283 -0.00497637642547488
vertex 3.48090076446533 -7.64486789703369 -0.0919274613261223
endloop
endfacet
facet normal -0.96565318107605 0.250965178012848 0.0673082992434502
outer loop
vertex -0.644800424575806 -6.56824207305908 0.0900000035762787
vertex -0.595246374607086 -6.58190965652466 0.851899325847626
vertex -0.607070088386536 -6.42306470870972 0.0900000035762787
endloop
endfacet
facet normal -0.96565318107605 0.250965178012848 0.0673082992434502
outer loop
vertex -0.557131886482239 -6.43525457382202 0.851899325847626
vertex -0.607070088386536 -6.42306470870972 0.0900000035762787
vertex -0.595246374607086 -6.58190965652466 0.851899325847626
endloop
endfacet
facet normal -0.965653121471405 0.250965178012848 0.0673082917928696
outer loop
vertex -0.540960133075714 -6.59688282012939 1.68655633926392
vertex -0.502424836158752 -6.44860792160034 1.68655633926392
vertex -0.595246374607086 -6.58190965652466 0.851899325847626
endloop
endfacet
facet normal -0.965653121471405 0.250965178012848 0.067308284342289
outer loop
vertex -0.557131886482239 -6.43525457382202 0.851899325847626
vertex -0.595246374607086 -6.58190965652466 0.851899325847626
vertex -0.502424836158752 -6.44860792160034 1.68655633926392
endloop
endfacet
facet normal -0.96565318107605 0.250965178012848 0.0673082917928696
outer loop
vertex -0.540960133075714 -6.59688282012939 1.68655633926392
vertex -0.485141277313232 -6.6122784614563 2.5447781085968
vertex -0.502424836158752 -6.44860792160034 1.68655633926392
endloop
endfacet
facet normal -0.965653240680695 0.250965178012848 0.0673082992434502
outer loop
vertex -0.446173220872879 -6.4623384475708 2.5447781085968
vertex -0.502424836158752 -6.44860792160034 1.68655633926392
vertex -0.485141277313232 -6.6122784614563 2.5447781085968
endloop
endfacet
facet normal -0.965653121471405 0.250965178012848 0.0673082917928696
outer loop
vertex -0.485141277313232 -6.6122784614563 2.5447781085968
vertex -0.428716570138931 -6.62784099578857 3.41231441497803
vertex -0.446173220872879 -6.4623384475708 2.5447781085968
endloop
endfacet
facet normal -0.96565318107605 0.25096520781517 0.0673082992434502
outer loop
vertex -0.389311075210571 -6.47621822357178 3.41231441497803
vertex -0.446173220872879 -6.4623384475708 2.5447781085968
vertex -0.428716570138931 -6.62784099578857 3.41231441497803
endloop
endfacet
facet normal -0.965653240680695 0.250965178012848 0.0673082992434502
outer loop
vertex -0.372622340917587 -6.64331245422363 4.27476978302002
vertex -0.332781970500946 -6.4900164604187 4.27476978302002
vertex -0.428716570138931 -6.62784099578857 3.41231441497803
endloop
endfacet
facet normal -0.96565318107605 0.250965178012848 0.0673082917928696
outer loop
vertex -0.389311075210571 -6.47621822357178 3.41231441497803
vertex -0.428716570138931 -6.62784099578857 3.41231441497803
vertex -0.332781970500946 -6.4900164604187 4.27476978302002
endloop
endfacet
facet normal -0.96565318107605 0.250965178012848 0.0673082992434502
outer loop
vertex -0.372622340917587 -6.64331245422363 4.27476978302002
vertex -0.320337116718292 -6.65773344039917 5.07866096496582
vertex -0.332781970500946 -6.4900164604187 4.27476978302002
endloop
endfacet
facet normal -0.96565318107605 0.250965178012848 0.0673082992434502
outer loop
vertex -0.280091404914856 -6.50287771224976 5.07866096496582
vertex -0.332781970500946 -6.4900164604187 4.27476978302002
vertex -0.320337116718292 -6.65773344039917 5.07866096496582
endloop
endfacet
facet normal 0.148638740181923 0.691706836223602 -0.706716358661652
outer loop
vertex -0.607070088386536 -6.42306470870972 0.0900000035762787
vertex -0.571453988552094 -6.29753875732422 0.220351234078407
vertex -0.578052282333374 -6.43057537078857 0.0887521281838417
endloop
endfacet
facet normal 0.148638755083084 0.691706895828247 -0.706716418266296
outer loop
vertex -0.537798166275024 -6.30624961853027 0.218903914093971
vertex -0.578052282333374 -6.43057537078857 0.0887521281838417
vertex -0.571453988552094 -6.29753875732422 0.220351234078407
endloop
endfacet
facet normal 0.148638755083084 0.691706895828247 -0.706716358661652
outer loop
vertex -0.571453988552094 -6.29753875732422 0.220351234078407
vertex -0.518041491508484 -6.109290599823 0.415835201740265
vertex -0.537798166275024 -6.30624961853027 0.218903914093971
endloop
endfacet
facet normal 0.148638784885406 0.691706955432892 -0.706716418266296
outer loop
vertex -0.477430254220963 -6.11980152130127 0.414088785648346
vertex -0.537798166275024 -6.30624961853027 0.218903914093971
vertex -0.518041491508484 -6.109290599823 0.415835201740265
endloop
endfacet
facet normal 0.148638755083084 0.691706895828247 -0.706716418266296
outer loop
vertex -0.437940299510956 -5.82698011398315 0.708996891975403
vertex -0.386898219585419 -5.84019088745117 0.706801891326904
vertex -0.518041491508484 -6.109290599823 0.415835201740265
endloop
endfacet
facet normal 0.148638769984245 0.691706955432892 -0.706716418266296
outer loop
vertex -0.477430254220963 -6.11980152130127 0.414088785648346
vertex -0.518041491508484 -6.109290599823 0.415835201740265
vertex -0.386898219585419 -5.84019088745117 0.706801891326904
endloop
endfacet
facet normal 0.148638755083084 0.691706895828247 -0.706716358661652
outer loop
vertex -0.437940299510956 -5.82698011398315 0.708996891975403
vertex -0.318594932556152 -5.40635681152344 1.14578807353973
vertex -0.386898219585419 -5.84019088745117 0.706801891326904
endloop
endfacet
facet normal 0.148638755083084 0.691706895828247 -0.706716418266296
outer loop
vertex -0.252011597156525 -5.4235897064209 1.14292466640472
vertex -0.386898219585419 -5.84019088745117 0.706801891326904
vertex -0.318594932556152 -5.40635681152344 1.14578807353973
endloop
endfacet
facet normal 0.148638769984245 0.691706895828247 -0.706716418266296
outer loop
vertex -0.184430196881294 -4.9335036277771 1.63681638240814
vertex -0.100375846028328 -4.95525884628296 1.63320171833038
vertex -0.318594932556152 -5.40635681152344 1.14578807353973
endloop
endfacet
facet normal 0.148638769984245 0.691706895828247 -0.706716418266296
outer loop
vertex -0.252011597156525 -5.4235897064209 1.14292466640472
vertex -0.318594932556152 -5.40635681152344 1.14578807353973
vertex -0.100375846028328 -4.95525884628296 1.63320171833038
endloop
endfacet
facet normal 0.148638769984245 0.691706895828247 -0.706716418266296
outer loop
vertex -0.184430196881294 -4.9335036277771 1.63681638240814
vertex -0.0502654872834682 -4.46065044403076 2.12784481048584
vertex -0.100375846028328 -4.95525884628296 1.63320171833038
endloop
endfacet
facet normal 0.148638755083084 0.691706895828247 -0.706716358661652
outer loop
vertex 0.0512599088251591 -4.48692750930786 2.12347888946533
vertex -0.100375846028328 -4.95525884628296 1.63320171833038
vertex -0.0502654872834682 -4.46065044403076 2.12784481048584
endloop
endfacet
facet normal 0.148638755083084 0.691706895828247 -0.706716358661652
outer loop
vertex -0.0502654872834682 -4.46065044403076 2.12784481048584
vertex 0.0838992297649384 -3.987797498703 2.61887311935425
vertex 0.0512599088251591 -4.48692750930786 2.12347888946533
endloop
endfacet
facet normal 0.148638755083084 0.691706895828247 -0.706716418266296
outer loop
vertex 0.202895671129227 -4.01859664916992 2.61375594139099
vertex 0.0512599088251591 -4.48692750930786 2.12347888946533
vertex 0.0838992297649384 -3.987797498703 2.61887311935425
endloop
endfacet
facet normal 0.148638769984245 0.691706895828247 -0.706716418266296
outer loop
vertex 0.219531863927841 -3.50977063179016 3.11527395248413
vertex 0.356190502643585 -3.54514122009277 3.10939717292786
vertex 0.0838992297649384 -3.987797498703 2.61887311935425
endloop
endfacet
facet normal 0.148638769984245 0.691706955432892 -0.706716418266296
outer loop
vertex 0.202895671129227 -4.01859664916992 2.61375594139099
vertex 0.0838992297649384 -3.987797498703 2.61887311935425
vertex 0.356190502643585 -3.54514122009277 3.10939717292786
endloop
endfacet
facet normal 0.148638769984245 0.691706955432892 -0.706716418266296
outer loop
vertex 0.219531863927841 -3.50977063179016 3.11527395248413
vertex 0.35855108499527 -3.01980829238892 3.62406921386719
vertex 0.356190502643585 -3.54514122009277 3.10939717292786
endloop
endfacet
facet normal 0.148638755083084 0.691706895828247 -0.706716418266296
outer loop
vertex 0.513312935829163 -3.05986428260803 3.61741399765015
vertex 0.356190502643585 -3.54514122009277 3.10939717292786
vertex 0.35855108499527 -3.01980829238892 3.62406921386719
endloop
endfacet
facet normal -0.201384276151657 -0.677484095096588 0.707431793212891
outer loop
vertex -0.470122575759888 -5.94040393829346 0.591213166713715
vertex -0.607070088386536 -6.42306470870972 0.0900000035762787
vertex -0.448330044746399 -5.9467339515686 0.591354966163635
endloop
endfacet
facet normal -0.201384276151657 -0.677484095096588 0.707431793212891
outer loop
vertex -0.470122575759888 -5.94040393829346 0.591213166713715
vertex -0.448330044746399 -5.9467339515686 0.591354966163635
vertex -0.33317506313324 -5.4577431678772 1.09242630004883
endloop
endfacet
facet normal -0.201384276151657 -0.677484095096588 0.707431793212891
outer loop
vertex -0.33317506313324 -5.4577431678772 1.09242630004883
vertex -0.448330044746399 -5.9467339515686 0.591354966163635
vertex -0.28958997130394 -5.47040271759033 1.09270989894867
endloop
endfacet
facet normal -0.201384276151657 -0.677484095096588 0.707431793212891
outer loop
vertex -0.33317506313324 -5.4577431678772 1.09242630004883
vertex -0.28958997130394 -5.47040271759033 1.09270989894867
vertex -0.196227520704269 -4.97508239746094 1.59363949298859
endloop
endfacet
facet normal -0.201384291052818 -0.677484095096588 0.707431733608246
outer loop
vertex -0.130849897861481 -4.99407196044922 1.5940648317337
vertex -0.196227520704269 -4.97508239746094 1.59363949298859
vertex -0.28958997130394 -5.47040271759033 1.09270989894867
endloop
endfacet
facet normal -0.201384291052818 -0.677484095096588 0.707431733608246
outer loop
vertex -0.196227520704269 -4.97508239746094 1.59363949298859
vertex -0.130849897861481 -4.99407196044922 1.5940648317337
vertex -0.05927998945117 -4.49242115020752 2.09485268592834
endloop
endfacet
facet normal -0.201384276151657 -0.677484095096588 0.707431793212891
outer loop
vertex 0.0278901625424623 -4.51774072647095 2.09541988372803
vertex -0.05927998945117 -4.49242115020752 2.09485268592834
vertex -0.130849897861481 -4.99407196044922 1.5940648317337
endloop
endfacet
facet normal -0.201384276151657 -0.677484095096588 0.707431793212891
outer loop
vertex -0.05927998945117 -4.49242115020752 2.09485268592834
vertex 0.0278901625424623 -4.51774072647095 2.09541988372803
vertex 0.0776675418019295 -4.00976037979126 2.59606575965881
endloop
endfacet
facet normal -0.201384276151657 -0.677484035491943 0.707431733608246
outer loop
vertex 0.186630234122276 -4.04140996932983 2.59677481651306
vertex 0.0776675418019295 -4.00976037979126 2.59606575965881
vertex 0.0278901625424623 -4.51774072647095 2.09541988372803
endloop
endfacet
facet normal -0.201384261250496 -0.677484035491943 0.707431733608246
outer loop
vertex 0.0776675418019295 -4.00976037979126 2.59606575965881
vertex 0.186630234122276 -4.04140996932983 2.59677481651306
vertex 0.216419652104378 -3.52073955535889 3.10388350486755
endloop
endfacet
facet normal -0.201384291052818 -0.677484035491943 0.707431793212891
outer loop
vertex 0.347460508346558 -3.55880665779114 3.10473132133484
vertex 0.216419652104378 -3.52073955535889 3.10388350486755
vertex 0.186630234122276 -4.04140996932983 2.59677481651306
endloop
endfacet
facet normal -0.201384276151657 -0.677484035491943 0.707431793212891
outer loop
vertex 0.216419652104378 -3.52073955535889 3.10388350486755
vertex 0.347460508346558 -3.55880665779114 3.10473132133484
vertex 0.358469516038895 -3.02009582519531 3.62377071380615
endloop
endfacet
facet normal -0.201384291052818 -0.677484035491943 0.707431733608246
outer loop
vertex 0.512115657329559 -3.06472635269165 3.62476801872253
vertex 0.358469516038895 -3.02009582519531 3.62377071380615
vertex 0.347460508346558 -3.55880665779114 3.10473132133484
endloop
endfacet
facet normal -0.274334698915482 -0.96163409948349 0.000592056312598288
outer loop
vertex 2.87373161315918 -7.57123947143555 1.33846962451935
vertex 2.98546099662781 -7.60304546356201 1.44849801063538
vertex 2.40381169319153 -7.43684196472168 1.88873660564423
endloop
endfacet
facet normal -0.274334728717804 -0.96163409948349 0.000592056370805949
outer loop
vertex 2.49910569190979 -7.46396970748901 1.98257446289063
vertex 2.40381169319153 -7.43684196472168 1.88873660564423
vertex 2.98546099662781 -7.60304546356201 1.44849801063538
endloop
endfacet
facet normal -0.274334698915482 -0.96163409948349 0.000592056370805949
outer loop
vertex 2.40381169319153 -7.43684196472168 1.88873660564423
vertex 2.49910569190979 -7.46396970748901 1.98257446289063
vertex 1.94481325149536 -7.3055682182312 2.42621469497681
endloop
endfacet
facet normal -0.274334698915482 -0.961634039878845 0.000592056370805949
outer loop
vertex 2.02404713630676 -7.32812356948853 2.50424575805664
vertex 1.94481325149536 -7.3055682182312 2.42621469497681
vertex 2.49910569190979 -7.46396970748901 1.98257446289063
endloop
endfacet
facet normal -0.274334728717804 -0.96163409948349 0.000592056370805949
outer loop
vertex 1.94481325149536 -7.3055682182312 2.42621469497681
vertex 2.02404713630676 -7.32812356948853 2.50424575805664
vertex 1.49178314208984 -7.17600107192993 2.95670413970947
endloop
endfacet
facet normal -0.274334698915482 -0.961634039878845 0.000592056312598288
outer loop
vertex 1.55517029762268 -7.19404554367065 3.01912879943848
vertex 1.49178314208984 -7.17600107192993 2.95670413970947
vertex 2.02404713630676 -7.32812356948853 2.50424575805664
endloop
endfacet
facet normal -0.274334698915482 -0.961634039878845 0.000592056312598288
outer loop
vertex 1.49178314208984 -7.17600107192993 2.95670413970947
vertex 1.55517029762268 -7.19404554367065 3.01912879943848
vertex 1.03875315189362 -7.04643440246582 3.48719334602356
endloop
endfacet
facet normal -0.274334698915482 -0.96163409948349 0.000592056370805949
outer loop
vertex 1.0862934589386 -7.05996751785278 3.53401184082031
vertex 1.03875315189362 -7.04643440246582 3.48719334602356
vertex 1.55517029762268 -7.19404554367065 3.01912879943848
endloop
endfacet
facet normal -0.274334698915482 -0.96163409948349 0.000592056370805949
outer loop
vertex 1.03875315189362 -7.04643440246582 3.48719334602356
vertex 1.0862934589386 -7.05996751785278 3.53401184082031
vertex 0.585723042488098 -6.91686725616455 4.01768255233765
endloop
endfacet
facet normal -0.274334698915482 -0.961634039878845 0.000592056312598288
outer loop
vertex 0.617416620254517 -6.92588949203491 4.04889488220215
vertex 0.585723042488098 -6.91686725616455 4.01768255233765
vertex 1.0862934589386 -7.05996751785278 3.53401184082031
endloop
endfacet
facet normal -0.274334698915482 -0.961634039878845 0.000592056312598288
outer loop
vertex 0.617416620254517 -6.92588949203491 4.04889488220215
vertex 0.132692962884903 -6.78730058670044 4.54817199707031
vertex 0.585723042488098 -6.91686725616455 4.01768255233765
endloop
endfacet
facet normal -0.274334698915482 -0.961634039878845 0.000592056312598288
outer loop
vertex 0.148539751768112 -6.79181146621704 4.56377792358398
vertex 0.132692962884903 -6.78730058670044 4.54817199707031
vertex 0.617416620254517 -6.92588949203491 4.04889488220215
endloop
endfacet
facet normal -0.274334698915482 -0.961634039878845 0.000592056312598288
outer loop
vertex 0.148539751768112 -6.79181146621704 4.56377792358398
vertex -0.320337116718292 -6.65773344039917 5.07866096496582
vertex 0.132692962884903 -6.78730058670044 4.54817199707031
endloop
endfacet
facet normal -1 0 0
outer loop
vertex -0.178139999508858 -5 -0.00499999988824129
vertex -0.178139999508858 -5.5 -0.00499999988824129
vertex -0.178139999508858 -5 0.155000001192093
endloop
endfacet
facet normal -1 0 0
outer loop
vertex -0.178139999508858 -5.5 0.155000001192093
vertex -0.178139999508858 -5 0.155000001192093
vertex -0.178139999508858 -5.5 -0.00499999988824129
endloop
endfacet
facet normal -1 -0 -0
outer loop
vertex -0.178139999508858 -5.5 0.155000001192093
vertex -0.178139999508858 -5.5 -0.00499999988824129
vertex -0.178139999508858 -6 0.155000001192093
endloop
endfacet
facet normal -1 0 0
outer loop
vertex -0.178139999508858 -6 -0.00499999988824129
vertex -0.178139999508858 -6 0.155000001192093
vertex -0.178139999508858 -5.5 -0.00499999988824129
endloop
endfacet
facet normal -0.70710676908493 -0 -0.70710676908493
outer loop
vertex -0.0649999976158142 -5 -0.118139997124672
vertex -0.0649999976158142 -5.5 -0.118139997124672
vertex -0.178139999508858 -5 -0.00499999988824129
endloop
endfacet
facet normal -0.70710676908493 0 -0.70710676908493
outer loop
vertex -0.178139999508858 -5.5 -0.00499999988824129
vertex -0.178139999508858 -5 -0.00499999988824129
vertex -0.0649999976158142 -5.5 -0.118139997124672
endloop
endfacet
facet normal -0.70710676908493 -0 -0.70710676908493
outer loop
vertex -0.0649999976158142 -5.5 -0.118139997124672
vertex -0.0649999976158142 -6 -0.118139997124672
vertex -0.178139999508858 -5.5 -0.00499999988824129
endloop
endfacet
facet normal -0.70710676908493 0 -0.70710676908493
outer loop
vertex -0.178139999508858 -6 -0.00499999988824129
vertex -0.178139999508858 -5.5 -0.00499999988824129
vertex -0.0649999976158142 -6 -0.118139997124672
endloop
endfacet
facet normal -0.70710676908493 -7.85046215906394e-17 0.70710676908493
outer loop
vertex -0.0649999976158142 -5.5 0.268139988183975
vertex -0.0649999976158142 -5 0.268139988183975
vertex -0.178139999508858 -5.5 0.155000001192093
endloop
endfacet
facet normal -0.70710676908493 0 0.70710676908493
outer loop
vertex -0.178139999508858 -5 0.155000001192093
vertex -0.178139999508858 -5.5 0.155000001192093
vertex -0.0649999976158142 -5 0.268139988183975
endloop
endfacet
facet normal -0.70710676908493 7.85046215906394e-17 0.70710676908493
outer loop
vertex -0.0649999976158142 -6 0.268139988183975
vertex -0.0649999976158142 -5.5 0.268139988183975
vertex -0.178139999508858 -6 0.155000001192093
endloop
endfacet
facet normal -0.70710676908493 0 0.70710676908493
outer loop
vertex -0.178139999508858 -5.5 0.155000001192093
vertex -0.178139999508858 -6 0.155000001192093
vertex -0.0649999976158142 -5.5 0.268139988183975
endloop
endfacet
facet normal -0 -0 -1
outer loop
vertex 0.0949999988079071 -5 -0.118139997124672
vertex 0.0949999988079071 -5.5 -0.118139997124672
vertex -0.0649999976158142 -5 -0.118139997124672
endloop
endfacet
facet normal 0 0 -1
outer loop
vertex -0.0649999976158142 -5.5 -0.118139997124672
vertex -0.0649999976158142 -5 -0.118139997124672
vertex 0.0949999988079071 -5.5 -0.118139997124672
endloop
endfacet
facet normal -0 -0 -1
outer loop
vertex 0.0949999988079071 -5.5 -0.118139997124672
vertex 0.0949999988079071 -6 -0.118139997124672
vertex -0.0649999976158142 -5.5 -0.118139997124672
endloop
endfacet
facet normal 0 0 -1
outer loop
vertex -0.0649999976158142 -6 -0.118139997124672
vertex -0.0649999976158142 -5.5 -0.118139997124672
vertex 0.0949999988079071 -6 -0.118139997124672
endloop
endfacet
facet normal 0 -1.11022302462516e-16 1
outer loop
vertex 0.0949999988079071 -5.5 0.268139988183975
vertex 0.0949999988079071 -5 0.268139988183975
vertex -0.0649999976158142 -5.5 0.268139988183975
endloop
endfacet
facet normal 0 -1.11022302462516e-16 1
outer loop
vertex -0.0649999976158142 -5 0.268139988183975
vertex -0.0649999976158142 -5.5 0.268139988183975
vertex 0.0949999988079071 -5 0.268139988183975
endloop
endfacet
facet normal 0 1.11022302462516e-16 1
outer loop
vertex 0.0949999988079071 -6 0.268139988183975
vertex 0.0949999988079071 -5.5 0.268139988183975
vertex -0.0649999976158142 -6 0.268139988183975
endloop
endfacet
facet normal -0 1.11022302462516e-16 1
outer loop
vertex -0.0649999976158142 -5.5 0.268139988183975
vertex -0.0649999976158142 -6 0.268139988183975
vertex 0.0949999988079071 -5.5 0.268139988183975
endloop
endfacet
facet normal 0.70710676908493 3.92523107953197e-17 -0.70710676908493
outer loop
vertex 0.208140000700951 -5 -0.00499999988824129
vertex 0.208140000700951 -5.5 -0.00499999988824129
vertex 0.0949999988079071 -5 -0.118139997124672
endloop
endfacet
facet normal 0.70710676908493 0 -0.70710676908493
outer loop
vertex 0.0949999988079071 -5.5 -0.118139997124672
vertex 0.0949999988079071 -5 -0.118139997124672
vertex 0.208140000700951 -5.5 -0.00499999988824129
endloop
endfacet
facet normal 0.70710676908493 -3.92523107953197e-17 -0.70710676908493
outer loop
vertex 0.208140000700951 -6 -0.00499999988824129
vertex 0.0949999988079071 -6 -0.118139997124672
vertex 0.208140000700951 -5.5 -0.00499999988824129
endloop
endfacet
facet normal 0.70710676908493 0 -0.70710676908493
outer loop
vertex 0.0949999988079071 -5.5 -0.118139997124672
vertex 0.208140000700951 -5.5 -0.00499999988824129
vertex 0.0949999988079071 -6 -0.118139997124672
endloop
endfacet
facet normal 0.70710676908493 3.92523107953197e-17 0.70710676908493
outer loop
vertex 0.208140000700951 -5.5 0.155000001192093
vertex 0.208140000700951 -5 0.155000001192093
vertex 0.0949999988079071 -5.5 0.268139988183975
endloop
endfacet
facet normal 0.70710676908493 -7.85046215906394e-17 0.70710676908493
outer loop
vertex 0.0949999988079071 -5 0.268139988183975
vertex 0.0949999988079071 -5.5 0.268139988183975
vertex 0.208140000700951 -5 0.155000001192093
endloop
endfacet
facet normal 0.70710676908493 -3.92523107953197e-17 0.70710676908493
outer loop
vertex 0.208140000700951 -6 0.155000001192093
vertex 0.208140000700951 -5.5 0.155000001192093
vertex 0.0949999988079071 -6 0.268139988183975
endloop
endfacet
facet normal 0.70710676908493 7.85046215906394e-17 0.70710676908493
outer loop
vertex 0.0949999988079071 -5.5 0.268139988183975
vertex 0.0949999988079071 -6 0.268139988183975
vertex 0.208140000700951 -5.5 0.155000001192093
endloop
endfacet
facet normal 1 5.55111512312578e-17 -0
outer loop
vertex 0.208140000700951 -5 -0.00499999988824129
vertex 0.208140000700951 -5 0.155000001192093
vertex 0.208140000700951 -5.5 -0.00499999988824129
endloop
endfacet
facet normal 1 -5.55111512312578e-17 0
outer loop
vertex 0.208140000700951 -5.5 0.155000001192093
vertex 0.208140000700951 -6 0.155000001192093
vertex 0.208140000700951 -5.5 -0.00499999988824129
endloop
endfacet
facet normal 1 5.55111512312578e-17 0
outer loop
vertex 0.208140000700951 -5.5 0.155000001192093
vertex 0.208140000700951 -5.5 -0.00499999988824129
vertex 0.208140000700951 -5 0.155000001192093
endloop
endfacet
facet normal 1 -5.55111512312578e-17 0
outer loop
vertex 0.208140000700951 -6 -0.00499999988824129
vertex 0.208140000700951 -5.5 -0.00499999988824129
vertex 0.208140000700951 -6 0.155000001192093
endloop
endfacet
facet normal -0 0.0236214082688093 0.999720990657806
outer loop
vertex -0.0649999976158142 -4.9986047744751 0.268107026815414
vertex 0.0949999988079071 -4.9986047744751 0.268107026815414
vertex -0.0556420348584652 -4.27896213531494 0.251103311777115
endloop
endfacet
facet normal 3.92794879797812e-16 0.0236214064061642 0.999720931053162
outer loop
vertex 0.0856420323252678 -4.27896213531494 0.251103311777115
vertex -0.0556420348584652 -4.27896213531494 0.251103311777115
vertex 0.0949999988079071 -4.9986047744751 0.268107026815414
endloop
endfacet
facet normal 3.92794906267592e-16 0.0236214082688093 0.999720990657806
outer loop
vertex 0.0856420323252678 -4.27896213531494 0.251103311777115
vertex 0.0765120387077332 -3.5768506526947 0.234513819217682
vertex -0.0556420348584652 -4.27896213531494 0.251103311777115
endloop
endfacet
facet normal -1.70535922597566e-16 0.0236214064061642 0.999720931053162
outer loop
vertex -0.04651203379035 -3.5768506526947 0.234513819217682
vertex -0.0556420348584652 -4.27896213531494 0.251103311777115
vertex 0.0765120387077332 -3.5768506526947 0.234513819217682
endloop
endfacet
facet normal -1.70535949067346e-16 0.0236214101314545 0.999721050262451
outer loop
vertex -0.04651203379035 -3.5768506526947 0.234513819217682
vertex 0.0765120387077332 -3.5768506526947 0.234513819217682
vertex -0.0374808460474014 -2.88233757019043 0.218103870749474
endloop
endfacet
facet normal -3.54625067182916e-17 0.0236214064061642 0.999720931053162
outer loop
vertex 0.0674808472394943 -2.88233757019043 0.218103870749474
vertex -0.0374808460474014 -2.88233757019043 0.218103870749474
vertex 0.0765120387077332 -3.5768506526947 0.234513819217682
endloop
endfacet
facet normal -3.54625067182916e-17 0.0236214064061642 0.999720931053162
outer loop
vertex 0.0674808472394943 -2.88233757019043 0.218103870749474
vertex 0.0584496594965458 -2.18782472610474 0.201693922281265
vertex -0.0374808460474014 -2.88233757019043 0.218103870749474
endloop
endfacet
facet normal -1.20714543135922e-16 0.0236214064061642 0.999720931053162
outer loop
vertex -0.0284496583044529 -2.18782472610474 0.201693922281265
vertex -0.0374808460474014 -2.88233757019043 0.218103870749474
vertex 0.0584496594965458 -2.18782472610474 0.201693922281265
endloop
endfacet
facet normal -1.20714543135922e-16 0.0236214064061642 0.999720931053162
outer loop
vertex -0.0284496583044529 -2.18782472610474 0.201693922281265
vertex 0.0584496594965458 -2.18782472610474 0.201693922281265
vertex -0.0194184705615044 -1.49331176280975 0.185283973813057
endloop
endfacet
facet normal -5.55484312688489e-16 0.0236214064061642 0.999720990657806
outer loop
vertex 0.0494184717535973 -1.49331176280975 0.185283973813057
vertex -0.0194184705615044 -1.49331176280975 0.185283973813057
vertex 0.0584496594965458 -2.18782472610474 0.201693922281265
endloop
endfacet
facet normal -5.55484365628048e-16 0.0236214064061642 0.999720990657806
outer loop
vertex 0.0494184717535973 -1.49331176280975 0.185283973813057
vertex 0.0413848347961903 -0.875512182712555 0.170686602592468
vertex -0.0194184705615044 -1.49331176280975 0.185283973813057
endloop
endfacet
facet normal -1.49091496827701e-16 0.0236214082688093 0.999721050262451
outer loop
vertex -0.0113848345354199 -0.875512182712555 0.170686602592468
vertex -0.0194184705615044 -1.49331176280975 0.185283973813057
vertex 0.0413848347961903 -0.875512182712555 0.170686602592468
endloop
endfacet
facet normal -1.49091496827701e-16 0.0236214064061642 0.999720931053162
outer loop
vertex -0.0113848345354199 -0.875512182712555 0.170686602592468
vertex 0.0413848347961903 -0.875512182712555 0.170686602592468
vertex -0.00599288986995816 -0.460862904787064 0.160889267921448
endloop
endfacet
facet normal 9.47002528546331e-16 0.0236214064061642 0.999720931053162
outer loop
vertex 0.0359928905963898 -0.460862904787064 0.160889267921448
vertex -0.00599288986995816 -0.460862904787064 0.160889267921448
vertex 0.0413848347961903 -0.875512182712555 0.170686602592468
endloop
endfacet
facet normal 9.4700263442545e-16 0.0236214082688093 0.999720990657806
outer loop
vertex 0.0359928905963898 -0.460862904787064 0.160889267921448
vertex 0.0323974713683128 -0.184369429945946 0.15435628592968
vertex -0.00599288986995816 -0.460862904787064 0.160889267921448
endloop
endfacet
facet normal -2.44953272728014e-16 0.0236214064061642 0.999720990657806
outer loop
vertex -0.0023974715732038 -0.184369429945946 0.15435628592968
vertex -0.00599288986995816 -0.460862904787064 0.160889267921448
vertex 0.0323974713683128 -0.184369429945946 0.15435628592968
endloop
endfacet
facet normal -2.44953272728014e-16 0.0236214082688093 0.999720990657806
outer loop
vertex -0.0023974715732038 -0.184369429945946 0.15435628592968
vertex 0.0323974713683128 -0.184369429945946 0.15435628592968
vertex 0 0 0.150000005960464
endloop
endfacet
facet normal 0 0.0236214064061642 0.999720990657806
outer loop
vertex 0.0299999993294477 0 0.150000005960464
vertex 0 0 0.150000005960464
vertex 0.0323974713683128 -0.184369429945946 0.15435628592968
endloop
endfacet
facet normal -0.999365866184235 -0.0356054082512856 0
outer loop
vertex 0.208027049899101 -4.99682950973511 -0.00499999988824129
vertex 0.208027049899101 -4.99682950973511 0.155000001192093
vertex 0.179339110851288 -4.19162178039551 -0.00419428152963519
endloop
endfacet
facet normal -0.999365866184235 -0.0356054045259953 -2.45344681358984e-17
outer loop
vertex 0.179339110851288 -4.19162178039551 0.15419428050518
vertex 0.179339110851288 -4.19162178039551 -0.00419428152963519
vertex 0.208027049899101 -4.99682950973511 0.155000001192093
endloop
endfacet
facet normal -0.999365925788879 -0.0356054119765759 -2.45344714446209e-17
outer loop
vertex 0.179339110851288 -4.19162178039551 0.15419428050518
vertex 0.148561239242554 -3.32775449752808 0.153329864144325
vertex 0.179339110851288 -4.19162178039551 -0.00419428152963519
endloop
endfacet
facet normal -0.999365985393524 -0.0356054082512856 -5.51698075414262e-16
outer loop
vertex 0.148561239242554 -3.32775449752808 -0.00332986586727202
vertex 0.179339110851288 -4.19162178039551 -0.00419428152963519
vertex 0.148561239242554 -3.32775449752808 0.153329864144325
endloop
endfacet
facet normal -0.999365985393524 -0.0356054082512856 -5.51698075414262e-16
outer loop
vertex 0.148561239242554 -3.32775449752808 0.153329864144325
vertex 0.117602035403252 -2.45879745483398 0.152460351586342
vertex 0.148561239242554 -3.32775449752808 -0.00332986586727202
endloop
endfacet
facet normal -0.999365925788879 -0.0356054082512856 -1.68234732603224e-16
outer loop
vertex 0.117602035403252 -2.45879745483398 -0.00246035750024021
vertex 0.148561239242554 -3.32775449752808 -0.00332986586727202
vertex 0.117602035403252 -2.45879745483398 0.152460351586342
endloop
endfacet
facet normal -0.999365985393524 -0.0356054119765759 -1.68234759073003e-16
outer loop
vertex 0.117602035403252 -2.45879745483398 -0.00246035750024021
vertex 0.117602035403252 -2.45879745483398 0.152460351586342
vertex 0.0869752466678619 -1.59917056560516 -0.00160018517635763
endloop
endfacet
facet normal -0.999365985393524 -0.0356054082512856 -3.93400357808228e-18
outer loop
vertex 0.0869752466678619 -1.59917056560516 0.151600182056427
vertex 0.0869752466678619 -1.59917056560516 -0.00160018517635763
vertex 0.117602035403252 -2.45879745483398 0.152460351586342
endloop
endfacet
facet normal -0.999365925788879 -0.0356054082512856 1.79072724304134e-17
outer loop
vertex 0.0571893975138664 -0.763146877288818 -0.000763631076551974
vertex 0.0869752466678619 -1.59917056560516 -0.00160018517635763
vertex 0.0571893975138664 -0.763146877288818 0.150763630867004
endloop
endfacet
facet normal -0.999365985393524 -0.0356054119765759 -3.93400357808228e-18
outer loop
vertex 0.0869752466678619 -1.59917056560516 0.151600182056427
vertex 0.0571893975138664 -0.763146877288818 0.150763630867004
vertex 0.0869752466678619 -1.59917056560516 -0.00160018517635763
endloop
endfacet
facet normal -0.999365866184235 -0.0356054082512856 1.7907269121691e-17
outer loop
vertex 0.0571893975138664 -0.763146877288818 -0.000763631076551974
vertex 0.0571893975138664 -0.763146877288818 0.150763630867004
vertex 0.0299999993294477 0 0
endloop
endfacet
facet normal -0.999365925788879 -0.0356054119765759 -0
outer loop
vertex 0.0299999993294477 0 0.150000005960464
vertex 0.0299999993294477 0 0
vertex 0.0571893975138664 -0.763146877288818 0.150763630867004
endloop
endfacet
facet normal 0.706869721412659 0.0258912239223719 0.706869721412659
outer loop
vertex 0.208135187625885 -4.99938440322876 0.154982268810272
vertex 0.18192745745182 -4.26386165618896 0.154249250888824
vertex 0.0949763730168343 -4.99818277359009 0.268097072839737
endloop
endfacet
facet normal 0.706869721412659 0.0258912239223719 0.706869721412659
outer loop
vertex 0.0854169279336929 -4.26284074783325 0.250722408294678
vertex 0.0949763730168343 -4.99818277359009 0.268097072839737
vertex 0.18192745745182 -4.26386165618896 0.154249250888824
endloop
endfacet
facet normal 0.706869721412659 0.025891225785017 0.706869721412659
outer loop
vertex 0.18192745745182 -4.26386165618896 0.154249250888824
vertex 0.156328842043877 -3.54543304443359 0.153533294796944
vertex 0.0854169279336929 -4.26284074783325 0.250722408294678
endloop
endfacet
facet normal 0.706869781017303 0.0258912276476622 0.706869781017303
outer loop
vertex 0.0760795250535011 -3.54457855224609 0.233751311898232
vertex 0.0854169279336929 -4.26284074783325 0.250722408294678
vertex 0.156328842043877 -3.54543304443359 0.153533294796944
endloop
endfacet
facet normal 0.706869721412659 0.0258912239223719 0.706869721412659
outer loop
vertex 0.156328842043877 -3.54543304443359 0.153533294796944
vertex 0.13106307387352 -2.83634662628174 0.152826637029648
vertex 0.0760795250535011 -3.54457855224609 0.233751311898232
endloop
endfacet
facet normal 0.706869661808014 0.0258912239223719 0.706869661808014
outer loop
vertex 0.0668636187911034 -2.83566284179688 0.217001050710678
vertex 0.0760795250535011 -3.54457855224609 0.233751311898232
vertex 0.13106307387352 -2.83634662628174 0.152826637029648
endloop
endfacet
facet normal 0.706869661808014 0.0258912239223719 0.706869661808014
outer loop
vertex 0.13106307387352 -2.83634662628174 0.152826637029648
vertex 0.105797298252583 -2.1272599697113 0.152119979262352
vertex 0.0668636187911034 -2.83566284179688 0.217001050710678
endloop
endfacet
facet normal 0.706869721412659 0.0258912220597267 0.706869721412659
outer loop
vertex 0.0576477125287056 -2.12674713134766 0.200250789523125
vertex 0.0668636187911034 -2.83566284179688 0.217001050710678
vertex 0.105797298252583 -2.1272599697113 0.152119979262352
endloop
endfacet
facet normal 0.706869721412659 0.0258912220597267 0.706869721412659
outer loop
vertex 0.105797298252583 -2.1272599697113 0.152119979262352
vertex 0.0805315375328064 -1.41817331314087 0.151413321495056
vertex 0.0576477125287056 -2.12674713134766 0.200250789523125
endloop
endfacet
facet normal 0.706869661808014 0.0258912239223719 0.706869661808014
outer loop
vertex 0.0484318099915981 -1.41783142089844 0.183500528335571
vertex 0.0576477125287056 -2.12674713134766 0.200250789523125
vertex 0.0805315375328064 -1.41817331314087 0.151413321495056
endloop
endfacet
facet normal 0.706869661808014 0.0258912239223719 0.706869661808014
outer loop
vertex 0.0484318099915981 -1.41783142089844 0.183500528335571
vertex 0.0805315375328064 -1.41817331314087 0.151413321495056
vertex 0.0552657656371593 -0.709086656570435 0.15070666372776
endloop
endfacet
facet normal 0.706869661808014 0.0258912239223719 0.706869661808014
outer loop
vertex 0.0392159037292004 -0.708915710449219 0.166750267148018
vertex 0.0484318099915981 -1.41783142089844 0.183500528335571
vertex 0.0552657656371593 -0.709086656570435 0.15070666372776
endloop
endfacet
facet normal 0.706869661808014 0.0258912239223719 0.706869661808014
outer loop
vertex 0.0392159037292004 -0.708915710449219 0.166750267148018
vertex 0.0552657656371593 -0.709086656570435 0.15070666372776
vertex 0.0299999993294477 0 0.150000005960464
endloop
endfacet
facet normal 0.706882476806641 0.0251848101615906 -0.706882476806641
outer loop
vertex 0.233277454972267 -5.70555353164673 -0.00499999988824129
vertex 0.217245548963547 -5.70612525939941 -0.0210522767156363
vertex 0.208027049899101 -4.99682950973511 -0.00499999988824129
endloop
endfacet
facet normal 0.706882476806641 0.0251848101615906 -0.706882476806641
outer loop
vertex 0.233277454972267 -5.70555353164673 -0.00499999988824129
vertex 0.258527874946594 -6.41427707672119 -0.00499999988824129
vertex 0.217245548963547 -5.70612525939941 -0.0210522767156363
endloop
endfacet
facet normal 0.706882476806641 0.0251848101615906 -0.706882476806641
outer loop
vertex 0.258527874946594 -6.41427707672119 -0.00499999988824129
vertex 0.226464048027992 -6.41542053222656 -0.0371045507490635
vertex 0.217245548963547 -5.70612525939941 -0.0210522767156363
endloop
endfacet
facet normal 0.706882476806641 0.0251848101615906 -0.706882476806641
outer loop
vertex 0.258527874946594 -6.41427707672119 -0.00499999988824129
vertex 0.28377828001976 -7.12300109863281 -0.00499999988824129
vertex 0.226464048027992 -6.41542053222656 -0.0371045507490635
endloop
endfacet
facet normal 0.706882476806641 0.0251848101615906 -0.706882476806641
outer loop
vertex 0.235682547092438 -7.12471580505371 -0.0531568303704262
vertex 0.226464048027992 -6.41542053222656 -0.0371045507490635
vertex 0.28377828001976 -7.12300109863281 -0.00499999988824129
endloop
endfacet
facet normal 0.706882476806641 0.0251848101615906 -0.706882476806641
outer loop
vertex 0.28377828001976 -7.12300109863281 -0.00499999988824129
vertex 0.309028685092926 -7.83172464370728 -0.00499999988824129
vertex 0.235682547092438 -7.12471580505371 -0.0531568303704262
endloop
endfacet
facet normal 0.706882476806641 0.0251848101615906 -0.706882476806641
outer loop
vertex 0.244901061058044 -7.83401155471802 -0.0692091062664986
vertex 0.235682547092438 -7.12471580505371 -0.0531568303704262
vertex 0.309028685092926 -7.83172464370728 -0.00499999988824129
endloop
endfacet
facet normal 0.706882476806641 0.0251848101615906 -0.706882476806641
outer loop
vertex 0.309028685092926 -7.83172464370728 -0.00499999988824129
vertex 0.334279119968414 -8.54044914245605 -0.00499999988824129
vertex 0.244901061058044 -7.83401155471802 -0.0692091062664986
endloop
endfacet
facet normal 0.706882476806641 0.0251848082989454 -0.706882476806641
outer loop
vertex 0.254119545221329 -8.54330730438232 -0.085261382162571
vertex 0.244901061058044 -7.83401155471802 -0.0692091062664986
vertex 0.334279119968414 -8.54044914245605 -0.00499999988824129
endloop
endfacet
facet normal 0.706882476806641 0.0251848082989454 -0.706882476806641
outer loop
vertex 0.334279119968414 -8.54044914245605 -0.00499999988824129
vertex 0.359862416982651 -9.25851631164551 -0.00499999988824129
vertex 0.254119545221329 -8.54330730438232 -0.085261382162571
endloop
endfacet
facet normal 0.706882476806641 0.0251848082989454 -0.706882476806641
outer loop
vertex 0.263459503650665 -9.26194667816162 -0.101525135338306
vertex 0.254119545221329 -8.54330730438232 -0.085261382162571
vertex 0.359862416982651 -9.25851631164551 -0.00499999988824129
endloop
endfacet
facet normal 0.706882476806641 0.0251848064363003 -0.706882476806641
outer loop
vertex 0.359862416982651 -9.25851631164551 -0.00499999988824129
vertex 0.38605409860611 -9.99365901947021 -0.00499999988824129
vertex 0.263459503650665 -9.26194667816162 -0.101525135338306
endloop
endfacet
facet normal 0.706882536411285 0.0251848101615906 -0.706882536411285
outer loop
vertex 0.273021697998047 -9.9976863861084 -0.118175871670246
vertex 0.263459503650665 -9.26194667816162 -0.101525135338306
vertex 0.38605409860611 -9.99365901947021 -0.00499999988824129
endloop
endfacet
facet normal 0.153431057929993 0.690489709377289 -0.706882536411285
outer loop
vertex 9.09889698028564 -8.82346248626709 -0.183021694421768
vertex 9.06653118133545 -8.93198680877686 -0.296054095029831
vertex 8.38262462615967 -8.65451335906982 -0.173459514975548
endloop
endfacet
facet normal 0.153431057929993 0.690489709377289 -0.706882536411285
outer loop
vertex 8.35502433776855 -8.74707221984863 -0.269862413406372
vertex 8.38262462615967 -8.65451335906982 -0.173459514975548
vertex 9.06653118133545 -8.93198680877686 -0.296054095029831
endloop
endfacet
facet normal 0.153431057929993 0.690489709377289 -0.706882476806641
outer loop
vertex 8.38262462615967 -8.65451335906982 -0.173459514975548
vertex 8.35502433776855 -8.74707221984863 -0.269862413406372
vertex 7.68299913406372 -8.4894905090332 -0.164119556546211
endloop
endfacet
facet normal 0.153431057929993 0.690489709377289 -0.706882476806641
outer loop
vertex 7.66004419326782 -8.5664529800415 -0.244279101490974
vertex 7.68299913406372 -8.4894905090332 -0.164119556546211
vertex 8.35502433776855 -8.74707221984863 -0.269862413406372
endloop
endfacet
facet normal 0.153431043028831 0.690489709377289 -0.706882476806641
outer loop
vertex 7.68299913406372 -8.4894905090332 -0.164119556546211
vertex 7.66004419326782 -8.5664529800415 -0.244279101490974
vertex 6.99247121810913 -8.3266134262085 -0.154901057481766
endloop
endfacet
facet normal 0.153431043028831 0.690489709377289 -0.706882476806641
outer loop
vertex 6.97410726547241 -8.38818359375 -0.219028696417809
vertex 6.99247121810913 -8.3266134262085 -0.154901057481766
vertex 7.66004419326782 -8.5664529800415 -0.244279101490974
endloop
endfacet
facet normal 0.153431043028831 0.690489709377289 -0.706882476806641
outer loop
vertex 6.99247121810913 -8.3266134262085 -0.154901057481766
vertex 6.97410726547241 -8.38818359375 -0.219028696417809
vertex 6.30194330215454 -8.16373729705811 -0.14568255841732
endloop
endfacet
facet normal 0.153431057929993 0.690489709377289 -0.706882476806641
outer loop
vertex 6.288170337677 -8.2099142074585 -0.193778276443481
vertex 6.30194330215454 -8.16373729705811 -0.14568255841732
vertex 6.97410726547241 -8.38818359375 -0.219028696417809
endloop
endfacet
facet normal 0.153431057929993 0.690489709377289 -0.706882476806641
outer loop
vertex 6.30194330215454 -8.16373729705811 -0.14568255841732
vertex 6.288170337677 -8.2099142074585 -0.193778276443481
vertex 5.61141538619995 -8.0008602142334 -0.136464044451714
endloop
endfacet
facet normal 0.153431043028831 0.690489709377289 -0.706882476806641
outer loop
vertex 5.60223340988159 -8.03164482116699 -0.168527871370316
vertex 5.61141538619995 -8.0008602142334 -0.136464044451714
vertex 6.288170337677 -8.2099142074585 -0.193778276443481
endloop
endfacet
facet normal 0.153431043028831 0.690489709377289 -0.706882476806641
outer loop
vertex 5.60223340988159 -8.03164482116699 -0.168527871370316
vertex 4.92088747024536 -7.83798313140869 -0.127245545387268
vertex 5.61141538619995 -8.0008602142334 -0.136464044451714
endloop
endfacet
facet normal 0.153431043028831 0.690489709377289 -0.706882476806641
outer loop
vertex 4.91629648208618 -7.85337543487549 -0.143277451395988
vertex 4.92088747024536 -7.83798313140869 -0.127245545387268
vertex 5.60223340988159 -8.03164482116699 -0.168527871370316
endloop
endfacet
facet normal 0.153431043028831 0.690489709377289 -0.706882476806641
outer loop
vertex 4.91629648208618 -7.85337543487549 -0.143277451395988
vertex 4.23035955429077 -7.67510604858398 -0.118027046322823
vertex 4.92088747024536 -7.83798313140869 -0.127245545387268
endloop
endfacet
endsolid COMSOL mesh mesh1
